<?xml version="1.0" encoding="utf-8" standalone="no"?>
<!DOCTYPE svg PUBLIC "-//W3C//DTD SVG 1.1//EN"
  "http://www.w3.org/Graphics/SVG/1.1/DTD/svg11.dtd">
<svg xmlns:xlink="http://www.w3.org/1999/xlink" width="682.03875pt" height="325.986375pt" viewBox="0 0 682.03875 325.986375" xmlns="http://www.w3.org/2000/svg" version="1.1">
 <metadata>
  <rdf:RDF xmlns:dc="http://purl.org/dc/elements/1.1/" xmlns:cc="http://creativecommons.org/ns#" xmlns:rdf="http://www.w3.org/1999/02/22-rdf-syntax-ns#">
   <cc:Work>
    <dc:type rdf:resource="http://purl.org/dc/dcmitype/StillImage"/>
    <dc:date>2025-12-16T04:01:46.042349</dc:date>
    <dc:format>image/svg+xml</dc:format>
    <dc:creator>
     <cc:Agent>
      <dc:title>Matplotlib v3.10.7, https://matplotlib.org/</dc:title>
     </cc:Agent>
    </dc:creator>
   </cc:Work>
  </rdf:RDF>
 </metadata>
 <defs>
  <style type="text/css">*{stroke-linejoin: round; stroke-linecap: butt}</style>
 </defs>
 <g id="figure_1">
  <g id="patch_1">
   <path d="M 0 325.986375 
L 682.03875 325.986375 
L 682.03875 0 
L 0 0 
z
" style="fill: #ffffff"/>
  </g>
  <g id="axes_1">
   <g id="patch_2">
    <path d="M 221.479688 288.430125 
L 578.599687 288.430125 
L 578.599687 22.318125 
L 221.479688 22.318125 
z
" style="fill: #ffffff"/>
   </g>
   <g id="PathCollection_1">
    <path d="M 562.36696 36.815105 
C 563.003708 36.815105 563.614461 36.562123 564.06471 36.111874 
C 564.514958 35.661626 564.76794 35.050872 564.76794 34.414125 
C 564.76794 33.777378 564.514958 33.166624 564.06471 32.716376 
C 563.614461 32.266127 563.003708 32.013145 562.36696 32.013145 
C 561.730213 32.013145 561.119459 32.266127 560.669211 32.716376 
C 560.218962 33.166624 559.96598 33.777378 559.96598 34.414125 
C 559.96598 35.050872 560.218962 35.661626 560.669211 36.111874 
C 561.119459 36.562123 561.730213 36.815105 562.36696 36.815105 
z
" clip-path="url(#pf50c1de18e)" style="fill: #efcfbf; stroke: #ffffff; stroke-width: 0.382881"/>
    <path d="M 484.936788 49.382825 
C 485.5298 49.382825 486.098604 49.147218 486.517927 48.727895 
C 486.93725 48.308572 487.172856 47.739769 487.172856 47.146757 
C 487.172856 46.553744 486.93725 45.984941 486.517927 45.565618 
C 486.098604 45.146295 485.5298 44.910689 484.936788 44.910689 
C 484.343776 44.910689 483.774972 45.146295 483.355649 45.565618 
C 482.936326 45.984941 482.70072 46.553744 482.70072 47.146757 
C 482.70072 47.739769 482.936326 48.308572 483.355649 48.727895 
C 483.774972 49.147218 484.343776 49.382825 484.936788 49.382825 
z
" clip-path="url(#pf50c1de18e)" style="fill: #6e90f2; stroke: #ffffff; stroke-width: 0.382881"/>
    <path d="M 430.529813 62.199378 
C 431.145082 62.199378 431.735233 61.954929 432.170294 61.519869 
C 432.605354 61.084808 432.849803 60.494657 432.849803 59.879388 
C 432.849803 59.26412 432.605354 58.673968 432.170294 58.238908 
C 431.735233 57.803847 431.145082 57.559398 430.529813 57.559398 
C 429.914545 57.559398 429.324393 57.803847 428.889333 58.238908 
C 428.454272 58.673968 428.209823 59.26412 428.209823 59.879388 
C 428.209823 60.494657 428.454272 61.084808 428.889333 61.519869 
C 429.324393 61.954929 429.914545 62.199378 430.529813 62.199378 
z
" clip-path="url(#pf50c1de18e)" style="fill: #5673e0; stroke: #ffffff; stroke-width: 0.382881"/>
    <path d="M 395.200997 75.582462 
C 395.988768 75.582462 396.744379 75.269478 397.301417 74.71244 
C 397.858455 74.155402 398.17144 73.39979 398.17144 72.61202 
C 398.17144 71.824249 397.858455 71.068638 397.301417 70.5116 
C 396.744379 69.954562 395.988768 69.641577 395.200997 69.641577 
C 394.413226 69.641577 393.657615 69.954562 393.100577 70.5116 
C 392.543539 71.068638 392.230554 71.824249 392.230554 72.61202 
C 392.230554 73.39979 392.543539 74.155402 393.100577 74.71244 
C 393.657615 75.269478 394.413226 75.582462 395.200997 75.582462 
z
" clip-path="url(#pf50c1de18e)" style="fill: #f3c7b1; stroke: #ffffff; stroke-width: 0.382881"/>
    <path d="M 394.136225 88.441139 
C 394.957423 88.441139 395.745097 88.114873 396.325772 87.534199 
C 396.906447 86.953524 397.232712 86.165849 397.232712 85.344651 
C 397.232712 84.523453 396.906447 83.735779 396.325772 83.155104 
C 395.745097 82.574429 394.957423 82.248164 394.136225 82.248164 
C 393.315027 82.248164 392.527352 82.574429 391.946677 83.155104 
C 391.366003 83.735779 391.039737 84.523453 391.039737 85.344651 
C 391.039737 86.165849 391.366003 86.953524 391.946677 87.534199 
C 392.527352 88.114873 393.315027 88.441139 394.136225 88.441139 
z
" clip-path="url(#pf50c1de18e)" style="fill: #f59d7e; stroke: #ffffff; stroke-width: 0.382881"/>
    <path d="M 385.660196 100.478263 
C 386.296944 100.478263 386.907697 100.225281 387.357946 99.775032 
C 387.808194 99.324784 388.061177 98.71403 388.061177 98.077283 
C 388.061177 97.440536 387.808194 96.829782 387.357946 96.379534 
C 386.907697 95.929285 386.296944 95.676303 385.660196 95.676303 
C 385.023449 95.676303 384.412695 95.929285 383.962447 96.379534 
C 383.512199 96.829782 383.259216 97.440536 383.259216 98.077283 
C 383.259216 98.71403 383.512199 99.324784 383.962447 99.775032 
C 384.412695 100.225281 385.023449 100.478263 385.660196 100.478263 
z
" clip-path="url(#pf50c1de18e)" style="fill: #3b4cc0; stroke: #ffffff; stroke-width: 0.382881"/>
    <path d="M 383.044845 113.365186 
C 383.722511 113.365186 384.372513 113.095946 384.851695 112.616764 
C 385.330877 112.137582 385.600117 111.48758 385.600117 110.809914 
C 385.600117 110.132249 385.330877 109.482247 384.851695 109.003065 
C 384.372513 108.523883 383.722511 108.254643 383.044845 108.254643 
C 382.367179 108.254643 381.717178 108.523883 381.237996 109.003065 
C 380.758813 109.482247 380.489574 110.132249 380.489574 110.809914 
C 380.489574 111.48758 380.758813 112.137582 381.237996 112.616764 
C 381.717178 113.095946 382.367179 113.365186 383.044845 113.365186 
z
" clip-path="url(#pf50c1de18e)" style="fill: #6384eb; stroke: #ffffff; stroke-width: 0.382881"/>
    <path d="M 372.191138 126.31319 
C 372.925922 126.31319 373.630709 126.021258 374.15028 125.501688 
C 374.66985 124.982117 374.961783 124.27733 374.961783 123.542546 
C 374.961783 122.807763 374.66985 122.102975 374.15028 121.583405 
C 373.630709 121.063834 372.925922 120.771902 372.191138 120.771902 
C 371.456355 120.771902 370.751567 121.063834 370.231997 121.583405 
C 369.712426 122.102975 369.420494 122.807763 369.420494 123.542546 
C 369.420494 124.27733 369.712426 124.982117 370.231997 125.501688 
C 370.751567 126.021258 371.456355 126.31319 372.191138 126.31319 
z
" clip-path="url(#pf50c1de18e)" style="fill: #93b5fe; stroke: #ffffff; stroke-width: 0.382881"/>
    <path d="M 370.923954 139.777278 
C 371.852722 139.777278 372.743575 139.408274 373.400313 138.751536 
C 374.057051 138.094798 374.426054 137.203945 374.426054 136.275178 
C 374.426054 135.34641 374.057051 134.455557 373.400313 133.798819 
C 372.743575 133.142081 371.852722 132.773077 370.923954 132.773077 
C 369.995186 132.773077 369.104333 133.142081 368.447595 133.798819 
C 367.790857 134.455557 367.421854 135.34641 367.421854 136.275178 
C 367.421854 137.203945 367.790857 138.094798 368.447595 138.751536 
C 369.104333 139.408274 369.995186 139.777278 370.923954 139.777278 
z
" clip-path="url(#pf50c1de18e)" style="fill: #b40426; stroke: #ffffff; stroke-width: 0.382881"/>
    <path d="M 347.707195 151.708572 
C 348.423445 151.708572 349.110456 151.424002 349.616922 150.917537 
C 350.123388 150.411071 350.407957 149.72406 350.407957 149.007809 
C 350.407957 148.291559 350.123388 147.604547 349.616922 147.098082 
C 349.110456 146.591616 348.423445 146.307047 347.707195 146.307047 
C 346.990944 146.307047 346.303933 146.591616 345.797467 147.098082 
C 345.291002 147.604547 345.006432 148.291559 345.006432 149.007809 
C 345.006432 149.72406 345.291002 150.411071 345.797467 150.917537 
C 346.303933 151.424002 346.990944 151.708572 347.707195 151.708572 
z
" clip-path="url(#pf50c1de18e)" style="fill: #4f69d9; stroke: #ffffff; stroke-width: 0.382881"/>
    <path d="M 329.594429 164.898065 
C 330.431841 164.898065 331.235067 164.565357 331.827206 163.973218 
C 332.419346 163.381079 332.752053 162.577852 332.752053 161.740441 
C 332.752053 160.903029 332.419346 160.099803 331.827206 159.507664 
C 331.235067 158.915524 330.431841 158.582817 329.594429 158.582817 
C 328.757017 158.582817 327.953791 158.915524 327.361652 159.507664 
C 326.769512 160.099803 326.436805 160.903029 326.436805 161.740441 
C 326.436805 162.577852 326.769512 163.381079 327.361652 163.973218 
C 327.953791 164.565357 328.757017 164.898065 329.594429 164.898065 
z
" clip-path="url(#pf50c1de18e)" style="fill: #9dbdff; stroke: #ffffff; stroke-width: 0.382881"/>
    <path d="M 327.856505 177.443515 
C 328.644275 177.443515 329.399887 177.13053 329.956925 176.573492 
C 330.513963 176.016455 330.826947 175.260843 330.826947 174.473072 
C 330.826947 173.685302 330.513963 172.92969 329.956925 172.372652 
C 329.399887 171.815614 328.644275 171.50263 327.856505 171.50263 
C 327.068734 171.50263 326.313123 171.815614 325.756085 172.372652 
C 325.199047 172.92969 324.886062 173.685302 324.886062 174.473072 
C 324.886062 175.260843 325.199047 176.016455 325.756085 176.573492 
C 326.313123 177.13053 327.068734 177.443515 327.856505 177.443515 
z
" clip-path="url(#pf50c1de18e)" style="fill: #6a8bef; stroke: #ffffff; stroke-width: 0.382881"/>
    <path d="M 316.780108 190.176147 
C 317.567879 190.176147 318.32349 189.863162 318.880528 189.306124 
C 319.437566 188.749086 319.750551 187.993475 319.750551 187.205704 
C 319.750551 186.417933 319.437566 185.662322 318.880528 185.105284 
C 318.32349 184.548246 317.567879 184.235261 316.780108 184.235261 
C 315.992337 184.235261 315.236726 184.548246 314.679688 185.105284 
C 314.12265 185.662322 313.809665 186.417933 313.809665 187.205704 
C 313.809665 187.993475 314.12265 188.749086 314.679688 189.306124 
C 315.236726 189.863162 315.992337 190.176147 316.780108 190.176147 
z
" clip-path="url(#pf50c1de18e)" style="fill: #4c66d6; stroke: #ffffff; stroke-width: 0.382881"/>
    <path d="M 313.139614 203.9014 
C 314.190631 203.9014 315.198743 203.483827 315.941924 202.740645 
C 316.685105 201.997464 317.102679 200.989353 317.102679 199.938336 
C 317.102679 198.887318 316.685105 197.879207 315.941924 197.136026 
C 315.198743 196.392844 314.190631 195.975271 313.139614 195.975271 
C 312.088597 195.975271 311.080485 196.392844 310.337304 197.136026 
C 309.594123 197.879207 309.176549 198.887318 309.176549 199.938336 
C 309.176549 200.989353 309.594123 201.997464 310.337304 202.740645 
C 311.080485 203.483827 312.088597 203.9014 313.139614 203.9014 
z
" clip-path="url(#pf50c1de18e)" style="fill: #e97a5f; stroke: #ffffff; stroke-width: 0.382881"/>
    <path d="M 311.134836 216.436133 
C 312.13337 216.436133 313.09114 216.039411 313.79721 215.333341 
C 314.50328 214.627271 314.900002 213.669501 314.900002 212.670967 
C 314.900002 211.672434 314.50328 210.714663 313.79721 210.008593 
C 313.09114 209.302523 312.13337 208.905802 311.134836 208.905802 
C 310.136303 208.905802 309.178532 209.302523 308.472462 210.008593 
C 307.766392 210.714663 307.369671 211.672434 307.369671 212.670967 
C 307.369671 213.669501 307.766392 214.627271 308.472462 215.333341 
C 309.178532 216.039411 310.136303 216.436133 311.134836 216.436133 
z
" clip-path="url(#pf50c1de18e)" style="fill: #f4c5ad; stroke: #ffffff; stroke-width: 0.382881"/>
    <path d="M 284.106292 229.366663 
C 285.157309 229.366663 286.165421 228.94909 286.908602 228.205909 
C 287.651783 227.462727 288.069357 226.454616 288.069357 225.403599 
C 288.069357 224.352582 287.651783 223.34447 286.908602 222.601289 
C 286.165421 221.858107 285.157309 221.440534 284.106292 221.440534 
C 283.055275 221.440534 282.047163 221.858107 281.303982 222.601289 
C 280.560801 223.34447 280.143227 224.352582 280.143227 225.403599 
C 280.143227 226.454616 280.560801 227.462727 281.303982 228.205909 
C 282.047163 228.94909 283.055275 229.366663 284.106292 229.366663 
z
" clip-path="url(#pf50c1de18e)" style="fill: #b3cdfb; stroke: #ffffff; stroke-width: 0.382881"/>
    <path d="M 276.635954 242.050758 
C 277.674098 242.050758 278.669863 241.638299 279.403943 240.90422 
C 280.138022 240.17014 280.550482 239.174375 280.550482 238.13623 
C 280.550482 237.098085 280.138022 236.10232 279.403943 235.368241 
C 278.669863 234.634162 277.674098 234.221702 276.635954 234.221702 
C 275.597809 234.221702 274.602044 234.634162 273.867964 235.368241 
C 273.133885 236.10232 272.721426 237.098085 272.721426 238.13623 
C 272.721426 239.174375 273.133885 240.17014 273.867964 240.90422 
C 274.602044 241.638299 275.597809 242.050758 276.635954 242.050758 
z
" clip-path="url(#pf50c1de18e)" style="fill: #84a7fc; stroke: #ffffff; stroke-width: 0.382881"/>
    <path d="M 253.759805 255.74075 
C 255.051845 255.74075 256.29114 255.227417 257.204751 254.313807 
C 258.118361 253.400197 258.631694 252.160902 258.631694 250.868862 
C 258.631694 249.576822 258.118361 248.337527 257.204751 247.423917 
C 256.29114 246.510307 255.051845 245.996974 253.759805 245.996974 
C 252.467766 245.996974 251.22847 246.510307 250.31486 247.423917 
C 249.40125 248.337527 248.887917 249.576822 248.887917 250.868862 
C 248.887917 252.160902 249.40125 253.400197 250.31486 254.313807 
C 251.22847 255.227417 252.467766 255.74075 253.759805 255.74075 
z
" clip-path="url(#pf50c1de18e)" style="fill: #86a9fc; stroke: #ffffff; stroke-width: 0.382881"/>
    <path d="M 239.152173 269.134815 
C 240.619627 269.134815 242.027175 268.551789 243.064822 267.514143 
C 244.102468 266.476496 244.685494 265.068947 244.685494 263.601493 
C 244.685494 262.134039 244.102468 260.726491 243.064822 259.688844 
C 242.027175 258.651198 240.619627 258.068172 239.152173 258.068172 
C 237.684719 258.068172 236.27717 258.651198 235.239523 259.688844 
C 234.201877 260.726491 233.618851 262.134039 233.618851 263.601493 
C 233.618851 265.068947 234.201877 266.476496 235.239523 267.514143 
C 236.27717 268.551789 237.684719 269.134815 239.152173 269.134815 
z
" clip-path="url(#pf50c1de18e)" style="fill: #455cce; stroke: #ffffff; stroke-width: 0.382881"/>
    <path d="M 237.712415 282.457849 
C 239.336445 282.457849 240.894179 281.812615 242.042542 280.664252 
C 243.190905 279.515889 243.836139 277.958156 243.836139 276.334125 
C 243.836139 274.710094 243.190905 273.152361 242.042542 272.003998 
C 240.894179 270.855635 239.336445 270.210401 237.712415 270.210401 
C 236.088384 270.210401 234.530651 270.855635 233.382288 272.003998 
C 232.233925 273.152361 231.58869 274.710094 231.58869 276.334125 
C 231.58869 277.958156 232.233925 279.515889 233.382288 280.664252 
C 234.530651 281.812615 236.088384 282.457849 237.712415 282.457849 
z
" clip-path="url(#pf50c1de18e)" style="fill: #86a9fc; stroke: #ffffff; stroke-width: 0.382881"/>
   </g>
   <g id="matplotlib.axis_1">
    <g id="xtick_1">
     <g id="line2d_1">
      <defs>
       <path id="m6f93bc22f6" d="M 0 0 
L 0 3.5 
" style="stroke: #000000; stroke-width: 0.8"/>
      </defs>
      <g>
       <use xlink:href="#m6f93bc22f6" x="245.017902" y="288.430125" style="stroke: #000000; stroke-width: 0.8"/>
      </g>
     </g>
     <g id="text_1">
      <!-- 2 -->
      <g transform="translate(241.836652 303.028562) scale(0.1 -0.1)">
       <defs>
        <path id="DejaVuSans-32" d="M 1228 531 
L 3431 531 
L 3431 0 
L 469 0 
L 469 531 
Q 828 903 1448 1529 
Q 2069 2156 2228 2338 
Q 2531 2678 2651 2914 
Q 2772 3150 2772 3378 
Q 2772 3750 2511 3984 
Q 2250 4219 1831 4219 
Q 1534 4219 1204 4116 
Q 875 4013 500 3803 
L 500 4441 
Q 881 4594 1212 4672 
Q 1544 4750 1819 4750 
Q 2544 4750 2975 4387 
Q 3406 4025 3406 3419 
Q 3406 3131 3298 2873 
Q 3191 2616 2906 2266 
Q 2828 2175 2409 1742 
Q 1991 1309 1228 531 
z
" transform="scale(0.015625)"/>
       </defs>
       <use xlink:href="#DejaVuSans-32"/>
      </g>
     </g>
    </g>
    <g id="xtick_2">
     <g id="line2d_2">
      <g>
       <use xlink:href="#m6f93bc22f6" x="324.065098" y="288.430125" style="stroke: #000000; stroke-width: 0.8"/>
      </g>
     </g>
     <g id="text_2">
      <!-- 4 -->
      <g transform="translate(320.883848 303.028562) scale(0.1 -0.1)">
       <defs>
        <path id="DejaVuSans-34" d="M 2419 4116 
L 825 1625 
L 2419 1625 
L 2419 4116 
z
M 2253 4666 
L 3047 4666 
L 3047 1625 
L 3713 1625 
L 3713 1100 
L 3047 1100 
L 3047 0 
L 2419 0 
L 2419 1100 
L 313 1100 
L 313 1709 
L 2253 4666 
z
" transform="scale(0.015625)"/>
       </defs>
       <use xlink:href="#DejaVuSans-34"/>
      </g>
     </g>
    </g>
    <g id="xtick_3">
     <g id="line2d_3">
      <g>
       <use xlink:href="#m6f93bc22f6" x="403.112293" y="288.430125" style="stroke: #000000; stroke-width: 0.8"/>
      </g>
     </g>
     <g id="text_3">
      <!-- 6 -->
      <g transform="translate(399.931043 303.028562) scale(0.1 -0.1)">
       <defs>
        <path id="DejaVuSans-36" d="M 2113 2584 
Q 1688 2584 1439 2293 
Q 1191 2003 1191 1497 
Q 1191 994 1439 701 
Q 1688 409 2113 409 
Q 2538 409 2786 701 
Q 3034 994 3034 1497 
Q 3034 2003 2786 2293 
Q 2538 2584 2113 2584 
z
M 3366 4563 
L 3366 3988 
Q 3128 4100 2886 4159 
Q 2644 4219 2406 4219 
Q 1781 4219 1451 3797 
Q 1122 3375 1075 2522 
Q 1259 2794 1537 2939 
Q 1816 3084 2150 3084 
Q 2853 3084 3261 2657 
Q 3669 2231 3669 1497 
Q 3669 778 3244 343 
Q 2819 -91 2113 -91 
Q 1303 -91 875 529 
Q 447 1150 447 2328 
Q 447 3434 972 4092 
Q 1497 4750 2381 4750 
Q 2619 4750 2861 4703 
Q 3103 4656 3366 4563 
z
" transform="scale(0.015625)"/>
       </defs>
       <use xlink:href="#DejaVuSans-36"/>
      </g>
     </g>
    </g>
    <g id="xtick_4">
     <g id="line2d_4">
      <g>
       <use xlink:href="#m6f93bc22f6" x="482.159489" y="288.430125" style="stroke: #000000; stroke-width: 0.8"/>
      </g>
     </g>
     <g id="text_4">
      <!-- 8 -->
      <g transform="translate(478.978239 303.028562) scale(0.1 -0.1)">
       <defs>
        <path id="DejaVuSans-38" d="M 2034 2216 
Q 1584 2216 1326 1975 
Q 1069 1734 1069 1313 
Q 1069 891 1326 650 
Q 1584 409 2034 409 
Q 2484 409 2743 651 
Q 3003 894 3003 1313 
Q 3003 1734 2745 1975 
Q 2488 2216 2034 2216 
z
M 1403 2484 
Q 997 2584 770 2862 
Q 544 3141 544 3541 
Q 544 4100 942 4425 
Q 1341 4750 2034 4750 
Q 2731 4750 3128 4425 
Q 3525 4100 3525 3541 
Q 3525 3141 3298 2862 
Q 3072 2584 2669 2484 
Q 3125 2378 3379 2068 
Q 3634 1759 3634 1313 
Q 3634 634 3220 271 
Q 2806 -91 2034 -91 
Q 1263 -91 848 271 
Q 434 634 434 1313 
Q 434 1759 690 2068 
Q 947 2378 1403 2484 
z
M 1172 3481 
Q 1172 3119 1398 2916 
Q 1625 2713 2034 2713 
Q 2441 2713 2670 2916 
Q 2900 3119 2900 3481 
Q 2900 3844 2670 4047 
Q 2441 4250 2034 4250 
Q 1625 4250 1398 4047 
Q 1172 3844 1172 3481 
z
" transform="scale(0.015625)"/>
       </defs>
       <use xlink:href="#DejaVuSans-38"/>
      </g>
     </g>
    </g>
    <g id="xtick_5">
     <g id="line2d_5">
      <g>
       <use xlink:href="#m6f93bc22f6" x="561.206685" y="288.430125" style="stroke: #000000; stroke-width: 0.8"/>
      </g>
     </g>
     <g id="text_5">
      <!-- 10 -->
      <g transform="translate(554.844185 303.028562) scale(0.1 -0.1)">
       <defs>
        <path id="DejaVuSans-31" d="M 794 531 
L 1825 531 
L 1825 4091 
L 703 3866 
L 703 4441 
L 1819 4666 
L 2450 4666 
L 2450 531 
L 3481 531 
L 3481 0 
L 794 0 
L 794 531 
z
" transform="scale(0.015625)"/>
        <path id="DejaVuSans-30" d="M 2034 4250 
Q 1547 4250 1301 3770 
Q 1056 3291 1056 2328 
Q 1056 1369 1301 889 
Q 1547 409 2034 409 
Q 2525 409 2770 889 
Q 3016 1369 3016 2328 
Q 3016 3291 2770 3770 
Q 2525 4250 2034 4250 
z
M 2034 4750 
Q 2819 4750 3233 4129 
Q 3647 3509 3647 2328 
Q 3647 1150 3233 529 
Q 2819 -91 2034 -91 
Q 1250 -91 836 529 
Q 422 1150 422 2328 
Q 422 3509 836 4129 
Q 1250 4750 2034 4750 
z
" transform="scale(0.015625)"/>
       </defs>
       <use xlink:href="#DejaVuSans-31"/>
       <use xlink:href="#DejaVuSans-30" transform="translate(63.623047 0)"/>
      </g>
     </g>
    </g>
    <g id="text_6">
     <!-- Fold Enrichment -->
     <g transform="translate(359.367031 316.706687) scale(0.1 -0.1)">
      <defs>
       <path id="DejaVuSans-46" d="M 628 4666 
L 3309 4666 
L 3309 4134 
L 1259 4134 
L 1259 2759 
L 3109 2759 
L 3109 2228 
L 1259 2228 
L 1259 0 
L 628 0 
L 628 4666 
z
" transform="scale(0.015625)"/>
       <path id="DejaVuSans-6f" d="M 1959 3097 
Q 1497 3097 1228 2736 
Q 959 2375 959 1747 
Q 959 1119 1226 758 
Q 1494 397 1959 397 
Q 2419 397 2687 759 
Q 2956 1122 2956 1747 
Q 2956 2369 2687 2733 
Q 2419 3097 1959 3097 
z
M 1959 3584 
Q 2709 3584 3137 3096 
Q 3566 2609 3566 1747 
Q 3566 888 3137 398 
Q 2709 -91 1959 -91 
Q 1206 -91 779 398 
Q 353 888 353 1747 
Q 353 2609 779 3096 
Q 1206 3584 1959 3584 
z
" transform="scale(0.015625)"/>
       <path id="DejaVuSans-6c" d="M 603 4863 
L 1178 4863 
L 1178 0 
L 603 0 
L 603 4863 
z
" transform="scale(0.015625)"/>
       <path id="DejaVuSans-64" d="M 2906 2969 
L 2906 4863 
L 3481 4863 
L 3481 0 
L 2906 0 
L 2906 525 
Q 2725 213 2448 61 
Q 2172 -91 1784 -91 
Q 1150 -91 751 415 
Q 353 922 353 1747 
Q 353 2572 751 3078 
Q 1150 3584 1784 3584 
Q 2172 3584 2448 3432 
Q 2725 3281 2906 2969 
z
M 947 1747 
Q 947 1113 1208 752 
Q 1469 391 1925 391 
Q 2381 391 2643 752 
Q 2906 1113 2906 1747 
Q 2906 2381 2643 2742 
Q 2381 3103 1925 3103 
Q 1469 3103 1208 2742 
Q 947 2381 947 1747 
z
" transform="scale(0.015625)"/>
       <path id="DejaVuSans-20" transform="scale(0.015625)"/>
       <path id="DejaVuSans-45" d="M 628 4666 
L 3578 4666 
L 3578 4134 
L 1259 4134 
L 1259 2753 
L 3481 2753 
L 3481 2222 
L 1259 2222 
L 1259 531 
L 3634 531 
L 3634 0 
L 628 0 
L 628 4666 
z
" transform="scale(0.015625)"/>
       <path id="DejaVuSans-6e" d="M 3513 2113 
L 3513 0 
L 2938 0 
L 2938 2094 
Q 2938 2591 2744 2837 
Q 2550 3084 2163 3084 
Q 1697 3084 1428 2787 
Q 1159 2491 1159 1978 
L 1159 0 
L 581 0 
L 581 3500 
L 1159 3500 
L 1159 2956 
Q 1366 3272 1645 3428 
Q 1925 3584 2291 3584 
Q 2894 3584 3203 3211 
Q 3513 2838 3513 2113 
z
" transform="scale(0.015625)"/>
       <path id="DejaVuSans-72" d="M 2631 2963 
Q 2534 3019 2420 3045 
Q 2306 3072 2169 3072 
Q 1681 3072 1420 2755 
Q 1159 2438 1159 1844 
L 1159 0 
L 581 0 
L 581 3500 
L 1159 3500 
L 1159 2956 
Q 1341 3275 1631 3429 
Q 1922 3584 2338 3584 
Q 2397 3584 2469 3576 
Q 2541 3569 2628 3553 
L 2631 2963 
z
" transform="scale(0.015625)"/>
       <path id="DejaVuSans-69" d="M 603 3500 
L 1178 3500 
L 1178 0 
L 603 0 
L 603 3500 
z
M 603 4863 
L 1178 4863 
L 1178 4134 
L 603 4134 
L 603 4863 
z
" transform="scale(0.015625)"/>
       <path id="DejaVuSans-63" d="M 3122 3366 
L 3122 2828 
Q 2878 2963 2633 3030 
Q 2388 3097 2138 3097 
Q 1578 3097 1268 2742 
Q 959 2388 959 1747 
Q 959 1106 1268 751 
Q 1578 397 2138 397 
Q 2388 397 2633 464 
Q 2878 531 3122 666 
L 3122 134 
Q 2881 22 2623 -34 
Q 2366 -91 2075 -91 
Q 1284 -91 818 406 
Q 353 903 353 1747 
Q 353 2603 823 3093 
Q 1294 3584 2113 3584 
Q 2378 3584 2631 3529 
Q 2884 3475 3122 3366 
z
" transform="scale(0.015625)"/>
       <path id="DejaVuSans-68" d="M 3513 2113 
L 3513 0 
L 2938 0 
L 2938 2094 
Q 2938 2591 2744 2837 
Q 2550 3084 2163 3084 
Q 1697 3084 1428 2787 
Q 1159 2491 1159 1978 
L 1159 0 
L 581 0 
L 581 4863 
L 1159 4863 
L 1159 2956 
Q 1366 3272 1645 3428 
Q 1925 3584 2291 3584 
Q 2894 3584 3203 3211 
Q 3513 2838 3513 2113 
z
" transform="scale(0.015625)"/>
       <path id="DejaVuSans-6d" d="M 3328 2828 
Q 3544 3216 3844 3400 
Q 4144 3584 4550 3584 
Q 5097 3584 5394 3201 
Q 5691 2819 5691 2113 
L 5691 0 
L 5113 0 
L 5113 2094 
Q 5113 2597 4934 2840 
Q 4756 3084 4391 3084 
Q 3944 3084 3684 2787 
Q 3425 2491 3425 1978 
L 3425 0 
L 2847 0 
L 2847 2094 
Q 2847 2600 2669 2842 
Q 2491 3084 2119 3084 
Q 1678 3084 1418 2786 
Q 1159 2488 1159 1978 
L 1159 0 
L 581 0 
L 581 3500 
L 1159 3500 
L 1159 2956 
Q 1356 3278 1631 3431 
Q 1906 3584 2284 3584 
Q 2666 3584 2933 3390 
Q 3200 3197 3328 2828 
z
" transform="scale(0.015625)"/>
       <path id="DejaVuSans-65" d="M 3597 1894 
L 3597 1613 
L 953 1613 
Q 991 1019 1311 708 
Q 1631 397 2203 397 
Q 2534 397 2845 478 
Q 3156 559 3463 722 
L 3463 178 
Q 3153 47 2828 -22 
Q 2503 -91 2169 -91 
Q 1331 -91 842 396 
Q 353 884 353 1716 
Q 353 2575 817 3079 
Q 1281 3584 2069 3584 
Q 2775 3584 3186 3129 
Q 3597 2675 3597 1894 
z
M 3022 2063 
Q 3016 2534 2758 2815 
Q 2500 3097 2075 3097 
Q 1594 3097 1305 2825 
Q 1016 2553 972 2059 
L 3022 2063 
z
" transform="scale(0.015625)"/>
       <path id="DejaVuSans-74" d="M 1172 4494 
L 1172 3500 
L 2356 3500 
L 2356 3053 
L 1172 3053 
L 1172 1153 
Q 1172 725 1289 603 
Q 1406 481 1766 481 
L 2356 481 
L 2356 0 
L 1766 0 
Q 1100 0 847 248 
Q 594 497 594 1153 
L 594 3053 
L 172 3053 
L 172 3500 
L 594 3500 
L 594 4494 
L 1172 4494 
z
" transform="scale(0.015625)"/>
      </defs>
      <use xlink:href="#DejaVuSans-46"/>
      <use xlink:href="#DejaVuSans-6f" transform="translate(53.894531 0)"/>
      <use xlink:href="#DejaVuSans-6c" transform="translate(115.076172 0)"/>
      <use xlink:href="#DejaVuSans-64" transform="translate(142.859375 0)"/>
      <use xlink:href="#DejaVuSans-20" transform="translate(206.335938 0)"/>
      <use xlink:href="#DejaVuSans-45" transform="translate(238.123047 0)"/>
      <use xlink:href="#DejaVuSans-6e" transform="translate(301.306641 0)"/>
      <use xlink:href="#DejaVuSans-72" transform="translate(364.685547 0)"/>
      <use xlink:href="#DejaVuSans-69" transform="translate(405.798828 0)"/>
      <use xlink:href="#DejaVuSans-63" transform="translate(433.582031 0)"/>
      <use xlink:href="#DejaVuSans-68" transform="translate(488.5625 0)"/>
      <use xlink:href="#DejaVuSans-6d" transform="translate(551.941406 0)"/>
      <use xlink:href="#DejaVuSans-65" transform="translate(649.353516 0)"/>
      <use xlink:href="#DejaVuSans-6e" transform="translate(710.876953 0)"/>
      <use xlink:href="#DejaVuSans-74" transform="translate(774.255859 0)"/>
     </g>
    </g>
   </g>
   <g id="matplotlib.axis_2">
    <g id="ytick_1">
     <g id="line2d_6">
      <defs>
       <path id="m28164f9358" d="M 0 0 
L -3.5 0 
" style="stroke: #000000; stroke-width: 0.8"/>
      </defs>
      <g>
       <use xlink:href="#m28164f9358" x="221.479688" y="34.414125" style="stroke: #000000; stroke-width: 0.8"/>
      </g>
     </g>
     <g id="text_7">
      <!-- EEG with spike-wave complexes -->
      <g transform="translate(54.010938 38.213344) scale(0.1 -0.1)">
       <defs>
        <path id="DejaVuSans-47" d="M 3809 666 
L 3809 1919 
L 2778 1919 
L 2778 2438 
L 4434 2438 
L 4434 434 
Q 4069 175 3628 42 
Q 3188 -91 2688 -91 
Q 1594 -91 976 548 
Q 359 1188 359 2328 
Q 359 3472 976 4111 
Q 1594 4750 2688 4750 
Q 3144 4750 3555 4637 
Q 3966 4525 4313 4306 
L 4313 3634 
Q 3963 3931 3569 4081 
Q 3175 4231 2741 4231 
Q 1884 4231 1454 3753 
Q 1025 3275 1025 2328 
Q 1025 1384 1454 906 
Q 1884 428 2741 428 
Q 3075 428 3337 486 
Q 3600 544 3809 666 
z
" transform="scale(0.015625)"/>
        <path id="DejaVuSans-77" d="M 269 3500 
L 844 3500 
L 1563 769 
L 2278 3500 
L 2956 3500 
L 3675 769 
L 4391 3500 
L 4966 3500 
L 4050 0 
L 3372 0 
L 2619 2869 
L 1863 0 
L 1184 0 
L 269 3500 
z
" transform="scale(0.015625)"/>
        <path id="DejaVuSans-73" d="M 2834 3397 
L 2834 2853 
Q 2591 2978 2328 3040 
Q 2066 3103 1784 3103 
Q 1356 3103 1142 2972 
Q 928 2841 928 2578 
Q 928 2378 1081 2264 
Q 1234 2150 1697 2047 
L 1894 2003 
Q 2506 1872 2764 1633 
Q 3022 1394 3022 966 
Q 3022 478 2636 193 
Q 2250 -91 1575 -91 
Q 1294 -91 989 -36 
Q 684 19 347 128 
L 347 722 
Q 666 556 975 473 
Q 1284 391 1588 391 
Q 1994 391 2212 530 
Q 2431 669 2431 922 
Q 2431 1156 2273 1281 
Q 2116 1406 1581 1522 
L 1381 1569 
Q 847 1681 609 1914 
Q 372 2147 372 2553 
Q 372 3047 722 3315 
Q 1072 3584 1716 3584 
Q 2034 3584 2315 3537 
Q 2597 3491 2834 3397 
z
" transform="scale(0.015625)"/>
        <path id="DejaVuSans-70" d="M 1159 525 
L 1159 -1331 
L 581 -1331 
L 581 3500 
L 1159 3500 
L 1159 2969 
Q 1341 3281 1617 3432 
Q 1894 3584 2278 3584 
Q 2916 3584 3314 3078 
Q 3713 2572 3713 1747 
Q 3713 922 3314 415 
Q 2916 -91 2278 -91 
Q 1894 -91 1617 61 
Q 1341 213 1159 525 
z
M 3116 1747 
Q 3116 2381 2855 2742 
Q 2594 3103 2138 3103 
Q 1681 3103 1420 2742 
Q 1159 2381 1159 1747 
Q 1159 1113 1420 752 
Q 1681 391 2138 391 
Q 2594 391 2855 752 
Q 3116 1113 3116 1747 
z
" transform="scale(0.015625)"/>
        <path id="DejaVuSans-6b" d="M 581 4863 
L 1159 4863 
L 1159 1991 
L 2875 3500 
L 3609 3500 
L 1753 1863 
L 3688 0 
L 2938 0 
L 1159 1709 
L 1159 0 
L 581 0 
L 581 4863 
z
" transform="scale(0.015625)"/>
        <path id="DejaVuSans-2d" d="M 313 2009 
L 1997 2009 
L 1997 1497 
L 313 1497 
L 313 2009 
z
" transform="scale(0.015625)"/>
        <path id="DejaVuSans-61" d="M 2194 1759 
Q 1497 1759 1228 1600 
Q 959 1441 959 1056 
Q 959 750 1161 570 
Q 1363 391 1709 391 
Q 2188 391 2477 730 
Q 2766 1069 2766 1631 
L 2766 1759 
L 2194 1759 
z
M 3341 1997 
L 3341 0 
L 2766 0 
L 2766 531 
Q 2569 213 2275 61 
Q 1981 -91 1556 -91 
Q 1019 -91 701 211 
Q 384 513 384 1019 
Q 384 1609 779 1909 
Q 1175 2209 1959 2209 
L 2766 2209 
L 2766 2266 
Q 2766 2663 2505 2880 
Q 2244 3097 1772 3097 
Q 1472 3097 1187 3025 
Q 903 2953 641 2809 
L 641 3341 
Q 956 3463 1253 3523 
Q 1550 3584 1831 3584 
Q 2591 3584 2966 3190 
Q 3341 2797 3341 1997 
z
" transform="scale(0.015625)"/>
        <path id="DejaVuSans-76" d="M 191 3500 
L 800 3500 
L 1894 563 
L 2988 3500 
L 3597 3500 
L 2284 0 
L 1503 0 
L 191 3500 
z
" transform="scale(0.015625)"/>
        <path id="DejaVuSans-78" d="M 3513 3500 
L 2247 1797 
L 3578 0 
L 2900 0 
L 1881 1375 
L 863 0 
L 184 0 
L 1544 1831 
L 300 3500 
L 978 3500 
L 1906 2253 
L 2834 3500 
L 3513 3500 
z
" transform="scale(0.015625)"/>
       </defs>
       <use xlink:href="#DejaVuSans-45"/>
       <use xlink:href="#DejaVuSans-45" transform="translate(63.183594 0)"/>
       <use xlink:href="#DejaVuSans-47" transform="translate(126.367188 0)"/>
       <use xlink:href="#DejaVuSans-20" transform="translate(203.857422 0)"/>
       <use xlink:href="#DejaVuSans-77" transform="translate(235.644531 0)"/>
       <use xlink:href="#DejaVuSans-69" transform="translate(317.431641 0)"/>
       <use xlink:href="#DejaVuSans-74" transform="translate(345.214844 0)"/>
       <use xlink:href="#DejaVuSans-68" transform="translate(384.423828 0)"/>
       <use xlink:href="#DejaVuSans-20" transform="translate(447.802734 0)"/>
       <use xlink:href="#DejaVuSans-73" transform="translate(479.589844 0)"/>
       <use xlink:href="#DejaVuSans-70" transform="translate(531.689453 0)"/>
       <use xlink:href="#DejaVuSans-69" transform="translate(595.166016 0)"/>
       <use xlink:href="#DejaVuSans-6b" transform="translate(622.949219 0)"/>
       <use xlink:href="#DejaVuSans-65" transform="translate(677.234375 0)"/>
       <use xlink:href="#DejaVuSans-2d" transform="translate(738.757812 0)"/>
       <use xlink:href="#DejaVuSans-77" transform="translate(774.841797 0)"/>
       <use xlink:href="#DejaVuSans-61" transform="translate(856.628906 0)"/>
       <use xlink:href="#DejaVuSans-76" transform="translate(917.908203 0)"/>
       <use xlink:href="#DejaVuSans-65" transform="translate(977.087891 0)"/>
       <use xlink:href="#DejaVuSans-20" transform="translate(1038.611328 0)"/>
       <use xlink:href="#DejaVuSans-63" transform="translate(1070.398438 0)"/>
       <use xlink:href="#DejaVuSans-6f" transform="translate(1125.378906 0)"/>
       <use xlink:href="#DejaVuSans-6d" transform="translate(1186.560547 0)"/>
       <use xlink:href="#DejaVuSans-70" transform="translate(1283.972656 0)"/>
       <use xlink:href="#DejaVuSans-6c" transform="translate(1347.449219 0)"/>
       <use xlink:href="#DejaVuSans-65" transform="translate(1375.232422 0)"/>
       <use xlink:href="#DejaVuSans-78" transform="translate(1435.005859 0)"/>
       <use xlink:href="#DejaVuSans-65" transform="translate(1491.060547 0)"/>
       <use xlink:href="#DejaVuSans-73" transform="translate(1552.583984 0)"/>
      </g>
     </g>
    </g>
    <g id="ytick_2">
     <g id="line2d_7">
      <g>
       <use xlink:href="#m28164f9358" x="221.479688" y="47.146757" style="stroke: #000000; stroke-width: 0.8"/>
      </g>
     </g>
     <g id="text_8">
      <!-- Interictal epileptiform activity -->
      <g transform="translate(66.114063 50.945975) scale(0.1 -0.1)">
       <defs>
        <path id="DejaVuSans-49" d="M 628 4666 
L 1259 4666 
L 1259 0 
L 628 0 
L 628 4666 
z
" transform="scale(0.015625)"/>
        <path id="DejaVuSans-66" d="M 2375 4863 
L 2375 4384 
L 1825 4384 
Q 1516 4384 1395 4259 
Q 1275 4134 1275 3809 
L 1275 3500 
L 2222 3500 
L 2222 3053 
L 1275 3053 
L 1275 0 
L 697 0 
L 697 3053 
L 147 3053 
L 147 3500 
L 697 3500 
L 697 3744 
Q 697 4328 969 4595 
Q 1241 4863 1831 4863 
L 2375 4863 
z
" transform="scale(0.015625)"/>
        <path id="DejaVuSans-79" d="M 2059 -325 
Q 1816 -950 1584 -1140 
Q 1353 -1331 966 -1331 
L 506 -1331 
L 506 -850 
L 844 -850 
Q 1081 -850 1212 -737 
Q 1344 -625 1503 -206 
L 1606 56 
L 191 3500 
L 800 3500 
L 1894 763 
L 2988 3500 
L 3597 3500 
L 2059 -325 
z
" transform="scale(0.015625)"/>
       </defs>
       <use xlink:href="#DejaVuSans-49"/>
       <use xlink:href="#DejaVuSans-6e" transform="translate(29.492188 0)"/>
       <use xlink:href="#DejaVuSans-74" transform="translate(92.871094 0)"/>
       <use xlink:href="#DejaVuSans-65" transform="translate(132.080078 0)"/>
       <use xlink:href="#DejaVuSans-72" transform="translate(193.603516 0)"/>
       <use xlink:href="#DejaVuSans-69" transform="translate(234.716797 0)"/>
       <use xlink:href="#DejaVuSans-63" transform="translate(262.5 0)"/>
       <use xlink:href="#DejaVuSans-74" transform="translate(317.480469 0)"/>
       <use xlink:href="#DejaVuSans-61" transform="translate(356.689453 0)"/>
       <use xlink:href="#DejaVuSans-6c" transform="translate(417.96875 0)"/>
       <use xlink:href="#DejaVuSans-20" transform="translate(445.751953 0)"/>
       <use xlink:href="#DejaVuSans-65" transform="translate(477.539062 0)"/>
       <use xlink:href="#DejaVuSans-70" transform="translate(539.0625 0)"/>
       <use xlink:href="#DejaVuSans-69" transform="translate(602.539062 0)"/>
       <use xlink:href="#DejaVuSans-6c" transform="translate(630.322266 0)"/>
       <use xlink:href="#DejaVuSans-65" transform="translate(658.105469 0)"/>
       <use xlink:href="#DejaVuSans-70" transform="translate(719.628906 0)"/>
       <use xlink:href="#DejaVuSans-74" transform="translate(783.105469 0)"/>
       <use xlink:href="#DejaVuSans-69" transform="translate(822.314453 0)"/>
       <use xlink:href="#DejaVuSans-66" transform="translate(850.097656 0)"/>
       <use xlink:href="#DejaVuSans-6f" transform="translate(885.302734 0)"/>
       <use xlink:href="#DejaVuSans-72" transform="translate(946.484375 0)"/>
       <use xlink:href="#DejaVuSans-6d" transform="translate(985.847656 0)"/>
       <use xlink:href="#DejaVuSans-20" transform="translate(1083.259766 0)"/>
       <use xlink:href="#DejaVuSans-61" transform="translate(1115.046875 0)"/>
       <use xlink:href="#DejaVuSans-63" transform="translate(1176.326172 0)"/>
       <use xlink:href="#DejaVuSans-74" transform="translate(1231.306641 0)"/>
       <use xlink:href="#DejaVuSans-69" transform="translate(1270.515625 0)"/>
       <use xlink:href="#DejaVuSans-76" transform="translate(1298.298828 0)"/>
       <use xlink:href="#DejaVuSans-69" transform="translate(1357.478516 0)"/>
       <use xlink:href="#DejaVuSans-74" transform="translate(1385.261719 0)"/>
       <use xlink:href="#DejaVuSans-79" transform="translate(1424.470703 0)"/>
      </g>
     </g>
    </g>
    <g id="ytick_3">
     <g id="line2d_8">
      <g>
       <use xlink:href="#m28164f9358" x="221.479688" y="59.879388" style="stroke: #000000; stroke-width: 0.8"/>
      </g>
     </g>
     <g id="text_9">
      <!-- Generalized tonic seizure -->
      <g transform="translate(87.767188 63.678607) scale(0.1 -0.1)">
       <defs>
        <path id="DejaVuSans-7a" d="M 353 3500 
L 3084 3500 
L 3084 2975 
L 922 459 
L 3084 459 
L 3084 0 
L 275 0 
L 275 525 
L 2438 3041 
L 353 3041 
L 353 3500 
z
" transform="scale(0.015625)"/>
        <path id="DejaVuSans-75" d="M 544 1381 
L 544 3500 
L 1119 3500 
L 1119 1403 
Q 1119 906 1312 657 
Q 1506 409 1894 409 
Q 2359 409 2629 706 
Q 2900 1003 2900 1516 
L 2900 3500 
L 3475 3500 
L 3475 0 
L 2900 0 
L 2900 538 
Q 2691 219 2414 64 
Q 2138 -91 1772 -91 
Q 1169 -91 856 284 
Q 544 659 544 1381 
z
M 1991 3584 
L 1991 3584 
z
" transform="scale(0.015625)"/>
       </defs>
       <use xlink:href="#DejaVuSans-47"/>
       <use xlink:href="#DejaVuSans-65" transform="translate(77.490234 0)"/>
       <use xlink:href="#DejaVuSans-6e" transform="translate(139.013672 0)"/>
       <use xlink:href="#DejaVuSans-65" transform="translate(202.392578 0)"/>
       <use xlink:href="#DejaVuSans-72" transform="translate(263.916016 0)"/>
       <use xlink:href="#DejaVuSans-61" transform="translate(305.029297 0)"/>
       <use xlink:href="#DejaVuSans-6c" transform="translate(366.308594 0)"/>
       <use xlink:href="#DejaVuSans-69" transform="translate(394.091797 0)"/>
       <use xlink:href="#DejaVuSans-7a" transform="translate(421.875 0)"/>
       <use xlink:href="#DejaVuSans-65" transform="translate(474.365234 0)"/>
       <use xlink:href="#DejaVuSans-64" transform="translate(535.888672 0)"/>
       <use xlink:href="#DejaVuSans-20" transform="translate(599.365234 0)"/>
       <use xlink:href="#DejaVuSans-74" transform="translate(631.152344 0)"/>
       <use xlink:href="#DejaVuSans-6f" transform="translate(670.361328 0)"/>
       <use xlink:href="#DejaVuSans-6e" transform="translate(731.542969 0)"/>
       <use xlink:href="#DejaVuSans-69" transform="translate(794.921875 0)"/>
       <use xlink:href="#DejaVuSans-63" transform="translate(822.705078 0)"/>
       <use xlink:href="#DejaVuSans-20" transform="translate(877.685547 0)"/>
       <use xlink:href="#DejaVuSans-73" transform="translate(909.472656 0)"/>
       <use xlink:href="#DejaVuSans-65" transform="translate(961.572266 0)"/>
       <use xlink:href="#DejaVuSans-69" transform="translate(1023.095703 0)"/>
       <use xlink:href="#DejaVuSans-7a" transform="translate(1050.878906 0)"/>
       <use xlink:href="#DejaVuSans-75" transform="translate(1103.369141 0)"/>
       <use xlink:href="#DejaVuSans-72" transform="translate(1166.748047 0)"/>
       <use xlink:href="#DejaVuSans-65" transform="translate(1205.611328 0)"/>
      </g>
     </g>
    </g>
    <g id="ytick_4">
     <g id="line2d_9">
      <g>
       <use xlink:href="#m28164f9358" x="221.479688" y="72.61202" style="stroke: #000000; stroke-width: 0.8"/>
      </g>
     </g>
     <g id="text_10">
      <!-- Focal impaired awareness seizure -->
      <g transform="translate(45.723437 76.411238) scale(0.1 -0.1)">
       <use xlink:href="#DejaVuSans-46"/>
       <use xlink:href="#DejaVuSans-6f" transform="translate(53.894531 0)"/>
       <use xlink:href="#DejaVuSans-63" transform="translate(115.076172 0)"/>
       <use xlink:href="#DejaVuSans-61" transform="translate(170.056641 0)"/>
       <use xlink:href="#DejaVuSans-6c" transform="translate(231.335938 0)"/>
       <use xlink:href="#DejaVuSans-20" transform="translate(259.119141 0)"/>
       <use xlink:href="#DejaVuSans-69" transform="translate(290.90625 0)"/>
       <use xlink:href="#DejaVuSans-6d" transform="translate(318.689453 0)"/>
       <use xlink:href="#DejaVuSans-70" transform="translate(416.101562 0)"/>
       <use xlink:href="#DejaVuSans-61" transform="translate(479.578125 0)"/>
       <use xlink:href="#DejaVuSans-69" transform="translate(540.857422 0)"/>
       <use xlink:href="#DejaVuSans-72" transform="translate(568.640625 0)"/>
       <use xlink:href="#DejaVuSans-65" transform="translate(607.503906 0)"/>
       <use xlink:href="#DejaVuSans-64" transform="translate(669.027344 0)"/>
       <use xlink:href="#DejaVuSans-20" transform="translate(732.503906 0)"/>
       <use xlink:href="#DejaVuSans-61" transform="translate(764.291016 0)"/>
       <use xlink:href="#DejaVuSans-77" transform="translate(825.570312 0)"/>
       <use xlink:href="#DejaVuSans-61" transform="translate(907.357422 0)"/>
       <use xlink:href="#DejaVuSans-72" transform="translate(968.636719 0)"/>
       <use xlink:href="#DejaVuSans-65" transform="translate(1007.5 0)"/>
       <use xlink:href="#DejaVuSans-6e" transform="translate(1069.023438 0)"/>
       <use xlink:href="#DejaVuSans-65" transform="translate(1132.402344 0)"/>
       <use xlink:href="#DejaVuSans-73" transform="translate(1193.925781 0)"/>
       <use xlink:href="#DejaVuSans-73" transform="translate(1246.025391 0)"/>
       <use xlink:href="#DejaVuSans-20" transform="translate(1298.125 0)"/>
       <use xlink:href="#DejaVuSans-73" transform="translate(1329.912109 0)"/>
       <use xlink:href="#DejaVuSans-65" transform="translate(1382.011719 0)"/>
       <use xlink:href="#DejaVuSans-69" transform="translate(1443.535156 0)"/>
       <use xlink:href="#DejaVuSans-7a" transform="translate(1471.318359 0)"/>
       <use xlink:href="#DejaVuSans-75" transform="translate(1523.808594 0)"/>
       <use xlink:href="#DejaVuSans-72" transform="translate(1587.1875 0)"/>
       <use xlink:href="#DejaVuSans-65" transform="translate(1626.050781 0)"/>
      </g>
     </g>
    </g>
    <g id="ytick_5">
     <g id="line2d_10">
      <g>
       <use xlink:href="#m28164f9358" x="221.479688" y="85.344651" style="stroke: #000000; stroke-width: 0.8"/>
      </g>
     </g>
     <g id="text_11">
      <!-- Generalized non-motor (absence) seizure -->
      <g transform="translate(7.2 89.14387) scale(0.1 -0.1)">
       <defs>
        <path id="DejaVuSans-28" d="M 1984 4856 
Q 1566 4138 1362 3434 
Q 1159 2731 1159 2009 
Q 1159 1288 1364 580 
Q 1569 -128 1984 -844 
L 1484 -844 
Q 1016 -109 783 600 
Q 550 1309 550 2009 
Q 550 2706 781 3412 
Q 1013 4119 1484 4856 
L 1984 4856 
z
" transform="scale(0.015625)"/>
        <path id="DejaVuSans-62" d="M 3116 1747 
Q 3116 2381 2855 2742 
Q 2594 3103 2138 3103 
Q 1681 3103 1420 2742 
Q 1159 2381 1159 1747 
Q 1159 1113 1420 752 
Q 1681 391 2138 391 
Q 2594 391 2855 752 
Q 3116 1113 3116 1747 
z
M 1159 2969 
Q 1341 3281 1617 3432 
Q 1894 3584 2278 3584 
Q 2916 3584 3314 3078 
Q 3713 2572 3713 1747 
Q 3713 922 3314 415 
Q 2916 -91 2278 -91 
Q 1894 -91 1617 61 
Q 1341 213 1159 525 
L 1159 0 
L 581 0 
L 581 4863 
L 1159 4863 
L 1159 2969 
z
" transform="scale(0.015625)"/>
        <path id="DejaVuSans-29" d="M 513 4856 
L 1013 4856 
Q 1481 4119 1714 3412 
Q 1947 2706 1947 2009 
Q 1947 1309 1714 600 
Q 1481 -109 1013 -844 
L 513 -844 
Q 928 -128 1133 580 
Q 1338 1288 1338 2009 
Q 1338 2731 1133 3434 
Q 928 4138 513 4856 
z
" transform="scale(0.015625)"/>
       </defs>
       <use xlink:href="#DejaVuSans-47"/>
       <use xlink:href="#DejaVuSans-65" transform="translate(77.490234 0)"/>
       <use xlink:href="#DejaVuSans-6e" transform="translate(139.013672 0)"/>
       <use xlink:href="#DejaVuSans-65" transform="translate(202.392578 0)"/>
       <use xlink:href="#DejaVuSans-72" transform="translate(263.916016 0)"/>
       <use xlink:href="#DejaVuSans-61" transform="translate(305.029297 0)"/>
       <use xlink:href="#DejaVuSans-6c" transform="translate(366.308594 0)"/>
       <use xlink:href="#DejaVuSans-69" transform="translate(394.091797 0)"/>
       <use xlink:href="#DejaVuSans-7a" transform="translate(421.875 0)"/>
       <use xlink:href="#DejaVuSans-65" transform="translate(474.365234 0)"/>
       <use xlink:href="#DejaVuSans-64" transform="translate(535.888672 0)"/>
       <use xlink:href="#DejaVuSans-20" transform="translate(599.365234 0)"/>
       <use xlink:href="#DejaVuSans-6e" transform="translate(631.152344 0)"/>
       <use xlink:href="#DejaVuSans-6f" transform="translate(694.53125 0)"/>
       <use xlink:href="#DejaVuSans-6e" transform="translate(755.712891 0)"/>
       <use xlink:href="#DejaVuSans-2d" transform="translate(819.091797 0)"/>
       <use xlink:href="#DejaVuSans-6d" transform="translate(855.175781 0)"/>
       <use xlink:href="#DejaVuSans-6f" transform="translate(952.587891 0)"/>
       <use xlink:href="#DejaVuSans-74" transform="translate(1013.769531 0)"/>
       <use xlink:href="#DejaVuSans-6f" transform="translate(1052.978516 0)"/>
       <use xlink:href="#DejaVuSans-72" transform="translate(1114.160156 0)"/>
       <use xlink:href="#DejaVuSans-20" transform="translate(1155.273438 0)"/>
       <use xlink:href="#DejaVuSans-28" transform="translate(1187.060547 0)"/>
       <use xlink:href="#DejaVuSans-61" transform="translate(1226.074219 0)"/>
       <use xlink:href="#DejaVuSans-62" transform="translate(1287.353516 0)"/>
       <use xlink:href="#DejaVuSans-73" transform="translate(1350.830078 0)"/>
       <use xlink:href="#DejaVuSans-65" transform="translate(1402.929688 0)"/>
       <use xlink:href="#DejaVuSans-6e" transform="translate(1464.453125 0)"/>
       <use xlink:href="#DejaVuSans-63" transform="translate(1527.832031 0)"/>
       <use xlink:href="#DejaVuSans-65" transform="translate(1582.8125 0)"/>
       <use xlink:href="#DejaVuSans-29" transform="translate(1644.335938 0)"/>
       <use xlink:href="#DejaVuSans-20" transform="translate(1683.349609 0)"/>
       <use xlink:href="#DejaVuSans-73" transform="translate(1715.136719 0)"/>
       <use xlink:href="#DejaVuSans-65" transform="translate(1767.236328 0)"/>
       <use xlink:href="#DejaVuSans-69" transform="translate(1828.759766 0)"/>
       <use xlink:href="#DejaVuSans-7a" transform="translate(1856.542969 0)"/>
       <use xlink:href="#DejaVuSans-75" transform="translate(1909.033203 0)"/>
       <use xlink:href="#DejaVuSans-72" transform="translate(1972.412109 0)"/>
       <use xlink:href="#DejaVuSans-65" transform="translate(2011.275391 0)"/>
      </g>
     </g>
    </g>
    <g id="ytick_6">
     <g id="line2d_11">
      <g>
       <use xlink:href="#m28164f9358" x="221.479688" y="98.077283" style="stroke: #000000; stroke-width: 0.8"/>
      </g>
     </g>
     <g id="text_12">
      <!-- Tonic seizure -->
      <g transform="translate(150.395312 101.876502) scale(0.1 -0.1)">
       <defs>
        <path id="DejaVuSans-54" d="M -19 4666 
L 3928 4666 
L 3928 4134 
L 2272 4134 
L 2272 0 
L 1638 0 
L 1638 4134 
L -19 4134 
L -19 4666 
z
" transform="scale(0.015625)"/>
       </defs>
       <use xlink:href="#DejaVuSans-54"/>
       <use xlink:href="#DejaVuSans-6f" transform="translate(44.083984 0)"/>
       <use xlink:href="#DejaVuSans-6e" transform="translate(105.265625 0)"/>
       <use xlink:href="#DejaVuSans-69" transform="translate(168.644531 0)"/>
       <use xlink:href="#DejaVuSans-63" transform="translate(196.427734 0)"/>
       <use xlink:href="#DejaVuSans-20" transform="translate(251.408203 0)"/>
       <use xlink:href="#DejaVuSans-73" transform="translate(283.195312 0)"/>
       <use xlink:href="#DejaVuSans-65" transform="translate(335.294922 0)"/>
       <use xlink:href="#DejaVuSans-69" transform="translate(396.818359 0)"/>
       <use xlink:href="#DejaVuSans-7a" transform="translate(424.601562 0)"/>
       <use xlink:href="#DejaVuSans-75" transform="translate(477.091797 0)"/>
       <use xlink:href="#DejaVuSans-72" transform="translate(540.470703 0)"/>
       <use xlink:href="#DejaVuSans-65" transform="translate(579.333984 0)"/>
      </g>
     </g>
    </g>
    <g id="ytick_7">
     <g id="line2d_12">
      <g>
       <use xlink:href="#m28164f9358" x="221.479688" y="110.809914" style="stroke: #000000; stroke-width: 0.8"/>
      </g>
     </g>
     <g id="text_13">
      <!-- Atonic seizure -->
      <g transform="translate(144.217188 114.609133) scale(0.1 -0.1)">
       <defs>
        <path id="DejaVuSans-41" d="M 2188 4044 
L 1331 1722 
L 3047 1722 
L 2188 4044 
z
M 1831 4666 
L 2547 4666 
L 4325 0 
L 3669 0 
L 3244 1197 
L 1141 1197 
L 716 0 
L 50 0 
L 1831 4666 
z
" transform="scale(0.015625)"/>
       </defs>
       <use xlink:href="#DejaVuSans-41"/>
       <use xlink:href="#DejaVuSans-74" transform="translate(66.658203 0)"/>
       <use xlink:href="#DejaVuSans-6f" transform="translate(105.867188 0)"/>
       <use xlink:href="#DejaVuSans-6e" transform="translate(167.048828 0)"/>
       <use xlink:href="#DejaVuSans-69" transform="translate(230.427734 0)"/>
       <use xlink:href="#DejaVuSans-63" transform="translate(258.210938 0)"/>
       <use xlink:href="#DejaVuSans-20" transform="translate(313.191406 0)"/>
       <use xlink:href="#DejaVuSans-73" transform="translate(344.978516 0)"/>
       <use xlink:href="#DejaVuSans-65" transform="translate(397.078125 0)"/>
       <use xlink:href="#DejaVuSans-69" transform="translate(458.601562 0)"/>
       <use xlink:href="#DejaVuSans-7a" transform="translate(486.384766 0)"/>
       <use xlink:href="#DejaVuSans-75" transform="translate(538.875 0)"/>
       <use xlink:href="#DejaVuSans-72" transform="translate(602.253906 0)"/>
       <use xlink:href="#DejaVuSans-65" transform="translate(641.117188 0)"/>
      </g>
     </g>
    </g>
    <g id="ytick_8">
     <g id="line2d_13">
      <g>
       <use xlink:href="#m28164f9358" x="221.479688" y="123.542546" style="stroke: #000000; stroke-width: 0.8"/>
      </g>
     </g>
     <g id="text_14">
      <!-- Bradykinesia -->
      <g transform="translate(149.9375 127.341765) scale(0.1 -0.1)">
       <defs>
        <path id="DejaVuSans-42" d="M 1259 2228 
L 1259 519 
L 2272 519 
Q 2781 519 3026 730 
Q 3272 941 3272 1375 
Q 3272 1813 3026 2020 
Q 2781 2228 2272 2228 
L 1259 2228 
z
M 1259 4147 
L 1259 2741 
L 2194 2741 
Q 2656 2741 2882 2914 
Q 3109 3088 3109 3444 
Q 3109 3797 2882 3972 
Q 2656 4147 2194 4147 
L 1259 4147 
z
M 628 4666 
L 2241 4666 
Q 2963 4666 3353 4366 
Q 3744 4066 3744 3513 
Q 3744 3084 3544 2831 
Q 3344 2578 2956 2516 
Q 3422 2416 3680 2098 
Q 3938 1781 3938 1306 
Q 3938 681 3513 340 
Q 3088 0 2303 0 
L 628 0 
L 628 4666 
z
" transform="scale(0.015625)"/>
       </defs>
       <use xlink:href="#DejaVuSans-42"/>
       <use xlink:href="#DejaVuSans-72" transform="translate(68.603516 0)"/>
       <use xlink:href="#DejaVuSans-61" transform="translate(109.716797 0)"/>
       <use xlink:href="#DejaVuSans-64" transform="translate(170.996094 0)"/>
       <use xlink:href="#DejaVuSans-79" transform="translate(234.472656 0)"/>
       <use xlink:href="#DejaVuSans-6b" transform="translate(293.652344 0)"/>
       <use xlink:href="#DejaVuSans-69" transform="translate(351.5625 0)"/>
       <use xlink:href="#DejaVuSans-6e" transform="translate(379.345703 0)"/>
       <use xlink:href="#DejaVuSans-65" transform="translate(442.724609 0)"/>
       <use xlink:href="#DejaVuSans-73" transform="translate(504.248047 0)"/>
       <use xlink:href="#DejaVuSans-69" transform="translate(556.347656 0)"/>
       <use xlink:href="#DejaVuSans-61" transform="translate(584.130859 0)"/>
      </g>
     </g>
    </g>
    <g id="ytick_9">
     <g id="line2d_14">
      <g>
       <use xlink:href="#m28164f9358" x="221.479688" y="136.275178" style="stroke: #000000; stroke-width: 0.8"/>
      </g>
     </g>
     <g id="text_15">
      <!-- Rigidity -->
      <g transform="translate(176.660938 140.074396) scale(0.1 -0.1)">
       <defs>
        <path id="DejaVuSans-52" d="M 2841 2188 
Q 3044 2119 3236 1894 
Q 3428 1669 3622 1275 
L 4263 0 
L 3584 0 
L 2988 1197 
Q 2756 1666 2539 1819 
Q 2322 1972 1947 1972 
L 1259 1972 
L 1259 0 
L 628 0 
L 628 4666 
L 2053 4666 
Q 2853 4666 3247 4331 
Q 3641 3997 3641 3322 
Q 3641 2881 3436 2590 
Q 3231 2300 2841 2188 
z
M 1259 4147 
L 1259 2491 
L 2053 2491 
Q 2509 2491 2742 2702 
Q 2975 2913 2975 3322 
Q 2975 3731 2742 3939 
Q 2509 4147 2053 4147 
L 1259 4147 
z
" transform="scale(0.015625)"/>
        <path id="DejaVuSans-67" d="M 2906 1791 
Q 2906 2416 2648 2759 
Q 2391 3103 1925 3103 
Q 1463 3103 1205 2759 
Q 947 2416 947 1791 
Q 947 1169 1205 825 
Q 1463 481 1925 481 
Q 2391 481 2648 825 
Q 2906 1169 2906 1791 
z
M 3481 434 
Q 3481 -459 3084 -895 
Q 2688 -1331 1869 -1331 
Q 1566 -1331 1297 -1286 
Q 1028 -1241 775 -1147 
L 775 -588 
Q 1028 -725 1275 -790 
Q 1522 -856 1778 -856 
Q 2344 -856 2625 -561 
Q 2906 -266 2906 331 
L 2906 616 
Q 2728 306 2450 153 
Q 2172 0 1784 0 
Q 1141 0 747 490 
Q 353 981 353 1791 
Q 353 2603 747 3093 
Q 1141 3584 1784 3584 
Q 2172 3584 2450 3431 
Q 2728 3278 2906 2969 
L 2906 3500 
L 3481 3500 
L 3481 434 
z
" transform="scale(0.015625)"/>
       </defs>
       <use xlink:href="#DejaVuSans-52"/>
       <use xlink:href="#DejaVuSans-69" transform="translate(69.482422 0)"/>
       <use xlink:href="#DejaVuSans-67" transform="translate(97.265625 0)"/>
       <use xlink:href="#DejaVuSans-69" transform="translate(160.742188 0)"/>
       <use xlink:href="#DejaVuSans-64" transform="translate(188.525391 0)"/>
       <use xlink:href="#DejaVuSans-69" transform="translate(252.001953 0)"/>
       <use xlink:href="#DejaVuSans-74" transform="translate(279.785156 0)"/>
       <use xlink:href="#DejaVuSans-79" transform="translate(318.994141 0)"/>
      </g>
     </g>
    </g>
    <g id="ytick_10">
     <g id="line2d_15">
      <g>
       <use xlink:href="#m28164f9358" x="221.479688" y="149.007809" style="stroke: #000000; stroke-width: 0.8"/>
      </g>
     </g>
     <g id="text_16">
      <!-- Epileptic encephalopathy -->
      <g transform="translate(87.873438 152.807028) scale(0.1 -0.1)">
       <use xlink:href="#DejaVuSans-45"/>
       <use xlink:href="#DejaVuSans-70" transform="translate(63.183594 0)"/>
       <use xlink:href="#DejaVuSans-69" transform="translate(126.660156 0)"/>
       <use xlink:href="#DejaVuSans-6c" transform="translate(154.443359 0)"/>
       <use xlink:href="#DejaVuSans-65" transform="translate(182.226562 0)"/>
       <use xlink:href="#DejaVuSans-70" transform="translate(243.75 0)"/>
       <use xlink:href="#DejaVuSans-74" transform="translate(307.226562 0)"/>
       <use xlink:href="#DejaVuSans-69" transform="translate(346.435547 0)"/>
       <use xlink:href="#DejaVuSans-63" transform="translate(374.21875 0)"/>
       <use xlink:href="#DejaVuSans-20" transform="translate(429.199219 0)"/>
       <use xlink:href="#DejaVuSans-65" transform="translate(460.986328 0)"/>
       <use xlink:href="#DejaVuSans-6e" transform="translate(522.509766 0)"/>
       <use xlink:href="#DejaVuSans-63" transform="translate(585.888672 0)"/>
       <use xlink:href="#DejaVuSans-65" transform="translate(640.869141 0)"/>
       <use xlink:href="#DejaVuSans-70" transform="translate(702.392578 0)"/>
       <use xlink:href="#DejaVuSans-68" transform="translate(765.869141 0)"/>
       <use xlink:href="#DejaVuSans-61" transform="translate(829.248047 0)"/>
       <use xlink:href="#DejaVuSans-6c" transform="translate(890.527344 0)"/>
       <use xlink:href="#DejaVuSans-6f" transform="translate(918.310547 0)"/>
       <use xlink:href="#DejaVuSans-70" transform="translate(979.492188 0)"/>
       <use xlink:href="#DejaVuSans-61" transform="translate(1042.96875 0)"/>
       <use xlink:href="#DejaVuSans-74" transform="translate(1104.248047 0)"/>
       <use xlink:href="#DejaVuSans-68" transform="translate(1143.457031 0)"/>
       <use xlink:href="#DejaVuSans-79" transform="translate(1206.835938 0)"/>
      </g>
     </g>
    </g>
    <g id="ytick_11">
     <g id="line2d_16">
      <g>
       <use xlink:href="#m28164f9358" x="221.479688" y="161.740441" style="stroke: #000000; stroke-width: 0.8"/>
      </g>
     </g>
     <g id="text_17">
      <!-- Focal-onset seizure -->
      <g transform="translate(118.089063 165.53966) scale(0.1 -0.1)">
       <use xlink:href="#DejaVuSans-46"/>
       <use xlink:href="#DejaVuSans-6f" transform="translate(53.894531 0)"/>
       <use xlink:href="#DejaVuSans-63" transform="translate(115.076172 0)"/>
       <use xlink:href="#DejaVuSans-61" transform="translate(170.056641 0)"/>
       <use xlink:href="#DejaVuSans-6c" transform="translate(231.335938 0)"/>
       <use xlink:href="#DejaVuSans-2d" transform="translate(259.119141 0)"/>
       <use xlink:href="#DejaVuSans-6f" transform="translate(297.078125 0)"/>
       <use xlink:href="#DejaVuSans-6e" transform="translate(358.259766 0)"/>
       <use xlink:href="#DejaVuSans-73" transform="translate(421.638672 0)"/>
       <use xlink:href="#DejaVuSans-65" transform="translate(473.738281 0)"/>
       <use xlink:href="#DejaVuSans-74" transform="translate(535.261719 0)"/>
       <use xlink:href="#DejaVuSans-20" transform="translate(574.470703 0)"/>
       <use xlink:href="#DejaVuSans-73" transform="translate(606.257812 0)"/>
       <use xlink:href="#DejaVuSans-65" transform="translate(658.357422 0)"/>
       <use xlink:href="#DejaVuSans-69" transform="translate(719.880859 0)"/>
       <use xlink:href="#DejaVuSans-7a" transform="translate(747.664062 0)"/>
       <use xlink:href="#DejaVuSans-75" transform="translate(800.154297 0)"/>
       <use xlink:href="#DejaVuSans-72" transform="translate(863.533203 0)"/>
       <use xlink:href="#DejaVuSans-65" transform="translate(902.396484 0)"/>
      </g>
     </g>
    </g>
    <g id="ytick_12">
     <g id="line2d_17">
      <g>
       <use xlink:href="#m28164f9358" x="221.479688" y="174.473072" style="stroke: #000000; stroke-width: 0.8"/>
      </g>
     </g>
     <g id="text_18">
      <!-- Mental deterioration -->
      <g transform="translate(112.379688 178.272291) scale(0.1 -0.1)">
       <defs>
        <path id="DejaVuSans-4d" d="M 628 4666 
L 1569 4666 
L 2759 1491 
L 3956 4666 
L 4897 4666 
L 4897 0 
L 4281 0 
L 4281 4097 
L 3078 897 
L 2444 897 
L 1241 4097 
L 1241 0 
L 628 0 
L 628 4666 
z
" transform="scale(0.015625)"/>
       </defs>
       <use xlink:href="#DejaVuSans-4d"/>
       <use xlink:href="#DejaVuSans-65" transform="translate(86.279297 0)"/>
       <use xlink:href="#DejaVuSans-6e" transform="translate(147.802734 0)"/>
       <use xlink:href="#DejaVuSans-74" transform="translate(211.181641 0)"/>
       <use xlink:href="#DejaVuSans-61" transform="translate(250.390625 0)"/>
       <use xlink:href="#DejaVuSans-6c" transform="translate(311.669922 0)"/>
       <use xlink:href="#DejaVuSans-20" transform="translate(339.453125 0)"/>
       <use xlink:href="#DejaVuSans-64" transform="translate(371.240234 0)"/>
       <use xlink:href="#DejaVuSans-65" transform="translate(434.716797 0)"/>
       <use xlink:href="#DejaVuSans-74" transform="translate(496.240234 0)"/>
       <use xlink:href="#DejaVuSans-65" transform="translate(535.449219 0)"/>
       <use xlink:href="#DejaVuSans-72" transform="translate(596.972656 0)"/>
       <use xlink:href="#DejaVuSans-69" transform="translate(638.085938 0)"/>
       <use xlink:href="#DejaVuSans-6f" transform="translate(665.869141 0)"/>
       <use xlink:href="#DejaVuSans-72" transform="translate(727.050781 0)"/>
       <use xlink:href="#DejaVuSans-61" transform="translate(768.164062 0)"/>
       <use xlink:href="#DejaVuSans-74" transform="translate(829.443359 0)"/>
       <use xlink:href="#DejaVuSans-69" transform="translate(868.652344 0)"/>
       <use xlink:href="#DejaVuSans-6f" transform="translate(896.435547 0)"/>
       <use xlink:href="#DejaVuSans-6e" transform="translate(957.617188 0)"/>
      </g>
     </g>
    </g>
    <g id="ytick_13">
     <g id="line2d_18">
      <g>
       <use xlink:href="#m28164f9358" x="221.479688" y="187.205704" style="stroke: #000000; stroke-width: 0.8"/>
      </g>
     </g>
     <g id="text_19">
      <!-- Status epilepticus -->
      <g transform="translate(125.134375 191.004923) scale(0.1 -0.1)">
       <defs>
        <path id="DejaVuSans-53" d="M 3425 4513 
L 3425 3897 
Q 3066 4069 2747 4153 
Q 2428 4238 2131 4238 
Q 1616 4238 1336 4038 
Q 1056 3838 1056 3469 
Q 1056 3159 1242 3001 
Q 1428 2844 1947 2747 
L 2328 2669 
Q 3034 2534 3370 2195 
Q 3706 1856 3706 1288 
Q 3706 609 3251 259 
Q 2797 -91 1919 -91 
Q 1588 -91 1214 -16 
Q 841 59 441 206 
L 441 856 
Q 825 641 1194 531 
Q 1563 422 1919 422 
Q 2459 422 2753 634 
Q 3047 847 3047 1241 
Q 3047 1584 2836 1778 
Q 2625 1972 2144 2069 
L 1759 2144 
Q 1053 2284 737 2584 
Q 422 2884 422 3419 
Q 422 4038 858 4394 
Q 1294 4750 2059 4750 
Q 2388 4750 2728 4690 
Q 3069 4631 3425 4513 
z
" transform="scale(0.015625)"/>
       </defs>
       <use xlink:href="#DejaVuSans-53"/>
       <use xlink:href="#DejaVuSans-74" transform="translate(63.476562 0)"/>
       <use xlink:href="#DejaVuSans-61" transform="translate(102.685547 0)"/>
       <use xlink:href="#DejaVuSans-74" transform="translate(163.964844 0)"/>
       <use xlink:href="#DejaVuSans-75" transform="translate(203.173828 0)"/>
       <use xlink:href="#DejaVuSans-73" transform="translate(266.552734 0)"/>
       <use xlink:href="#DejaVuSans-20" transform="translate(318.652344 0)"/>
       <use xlink:href="#DejaVuSans-65" transform="translate(350.439453 0)"/>
       <use xlink:href="#DejaVuSans-70" transform="translate(411.962891 0)"/>
       <use xlink:href="#DejaVuSans-69" transform="translate(475.439453 0)"/>
       <use xlink:href="#DejaVuSans-6c" transform="translate(503.222656 0)"/>
       <use xlink:href="#DejaVuSans-65" transform="translate(531.005859 0)"/>
       <use xlink:href="#DejaVuSans-70" transform="translate(592.529297 0)"/>
       <use xlink:href="#DejaVuSans-74" transform="translate(656.005859 0)"/>
       <use xlink:href="#DejaVuSans-69" transform="translate(695.214844 0)"/>
       <use xlink:href="#DejaVuSans-63" transform="translate(722.998047 0)"/>
       <use xlink:href="#DejaVuSans-75" transform="translate(777.978516 0)"/>
       <use xlink:href="#DejaVuSans-73" transform="translate(841.357422 0)"/>
      </g>
     </g>
    </g>
    <g id="ytick_14">
     <g id="line2d_19">
      <g>
       <use xlink:href="#m28164f9358" x="221.479688" y="199.938336" style="stroke: #000000; stroke-width: 0.8"/>
      </g>
     </g>
     <g id="text_20">
      <!-- Bilateral tonic-clonic seizure -->
      <g transform="translate(73.451562 203.737554) scale(0.1 -0.1)">
       <use xlink:href="#DejaVuSans-42"/>
       <use xlink:href="#DejaVuSans-69" transform="translate(68.603516 0)"/>
       <use xlink:href="#DejaVuSans-6c" transform="translate(96.386719 0)"/>
       <use xlink:href="#DejaVuSans-61" transform="translate(124.169922 0)"/>
       <use xlink:href="#DejaVuSans-74" transform="translate(185.449219 0)"/>
       <use xlink:href="#DejaVuSans-65" transform="translate(224.658203 0)"/>
       <use xlink:href="#DejaVuSans-72" transform="translate(286.181641 0)"/>
       <use xlink:href="#DejaVuSans-61" transform="translate(327.294922 0)"/>
       <use xlink:href="#DejaVuSans-6c" transform="translate(388.574219 0)"/>
       <use xlink:href="#DejaVuSans-20" transform="translate(416.357422 0)"/>
       <use xlink:href="#DejaVuSans-74" transform="translate(448.144531 0)"/>
       <use xlink:href="#DejaVuSans-6f" transform="translate(487.353516 0)"/>
       <use xlink:href="#DejaVuSans-6e" transform="translate(548.535156 0)"/>
       <use xlink:href="#DejaVuSans-69" transform="translate(611.914062 0)"/>
       <use xlink:href="#DejaVuSans-63" transform="translate(639.697266 0)"/>
       <use xlink:href="#DejaVuSans-2d" transform="translate(694.677734 0)"/>
       <use xlink:href="#DejaVuSans-63" transform="translate(730.761719 0)"/>
       <use xlink:href="#DejaVuSans-6c" transform="translate(785.742188 0)"/>
       <use xlink:href="#DejaVuSans-6f" transform="translate(813.525391 0)"/>
       <use xlink:href="#DejaVuSans-6e" transform="translate(874.707031 0)"/>
       <use xlink:href="#DejaVuSans-69" transform="translate(938.085938 0)"/>
       <use xlink:href="#DejaVuSans-63" transform="translate(965.869141 0)"/>
       <use xlink:href="#DejaVuSans-20" transform="translate(1020.849609 0)"/>
       <use xlink:href="#DejaVuSans-73" transform="translate(1052.636719 0)"/>
       <use xlink:href="#DejaVuSans-65" transform="translate(1104.736328 0)"/>
       <use xlink:href="#DejaVuSans-69" transform="translate(1166.259766 0)"/>
       <use xlink:href="#DejaVuSans-7a" transform="translate(1194.042969 0)"/>
       <use xlink:href="#DejaVuSans-75" transform="translate(1246.533203 0)"/>
       <use xlink:href="#DejaVuSans-72" transform="translate(1309.912109 0)"/>
       <use xlink:href="#DejaVuSans-65" transform="translate(1348.775391 0)"/>
      </g>
     </g>
    </g>
    <g id="ytick_15">
     <g id="line2d_20">
      <g>
       <use xlink:href="#m28164f9358" x="221.479688" y="212.670967" style="stroke: #000000; stroke-width: 0.8"/>
      </g>
     </g>
     <g id="text_21">
      <!-- Myoclonus -->
      <g transform="translate(161.534375 216.470186) scale(0.1 -0.1)">
       <use xlink:href="#DejaVuSans-4d"/>
       <use xlink:href="#DejaVuSans-79" transform="translate(86.279297 0)"/>
       <use xlink:href="#DejaVuSans-6f" transform="translate(145.458984 0)"/>
       <use xlink:href="#DejaVuSans-63" transform="translate(206.640625 0)"/>
       <use xlink:href="#DejaVuSans-6c" transform="translate(261.621094 0)"/>
       <use xlink:href="#DejaVuSans-6f" transform="translate(289.404297 0)"/>
       <use xlink:href="#DejaVuSans-6e" transform="translate(350.585938 0)"/>
       <use xlink:href="#DejaVuSans-75" transform="translate(413.964844 0)"/>
       <use xlink:href="#DejaVuSans-73" transform="translate(477.34375 0)"/>
      </g>
     </g>
    </g>
    <g id="ytick_16">
     <g id="line2d_21">
      <g>
       <use xlink:href="#m28164f9358" x="221.479688" y="225.403599" style="stroke: #000000; stroke-width: 0.8"/>
      </g>
     </g>
     <g id="text_22">
      <!-- Autistic behavior -->
      <g transform="translate(130.125 229.202817) scale(0.1 -0.1)">
       <use xlink:href="#DejaVuSans-41"/>
       <use xlink:href="#DejaVuSans-75" transform="translate(68.408203 0)"/>
       <use xlink:href="#DejaVuSans-74" transform="translate(131.787109 0)"/>
       <use xlink:href="#DejaVuSans-69" transform="translate(170.996094 0)"/>
       <use xlink:href="#DejaVuSans-73" transform="translate(198.779297 0)"/>
       <use xlink:href="#DejaVuSans-74" transform="translate(250.878906 0)"/>
       <use xlink:href="#DejaVuSans-69" transform="translate(290.087891 0)"/>
       <use xlink:href="#DejaVuSans-63" transform="translate(317.871094 0)"/>
       <use xlink:href="#DejaVuSans-20" transform="translate(372.851562 0)"/>
       <use xlink:href="#DejaVuSans-62" transform="translate(404.638672 0)"/>
       <use xlink:href="#DejaVuSans-65" transform="translate(468.115234 0)"/>
       <use xlink:href="#DejaVuSans-68" transform="translate(529.638672 0)"/>
       <use xlink:href="#DejaVuSans-61" transform="translate(593.017578 0)"/>
       <use xlink:href="#DejaVuSans-76" transform="translate(654.296875 0)"/>
       <use xlink:href="#DejaVuSans-69" transform="translate(713.476562 0)"/>
       <use xlink:href="#DejaVuSans-6f" transform="translate(741.259766 0)"/>
       <use xlink:href="#DejaVuSans-72" transform="translate(802.441406 0)"/>
      </g>
     </g>
    </g>
    <g id="ytick_17">
     <g id="line2d_22">
      <g>
       <use xlink:href="#m28164f9358" x="221.479688" y="238.13623" style="stroke: #000000; stroke-width: 0.8"/>
      </g>
     </g>
     <g id="text_23">
      <!-- Tremor -->
      <g transform="translate(179.8375 241.935449) scale(0.1 -0.1)">
       <use xlink:href="#DejaVuSans-54"/>
       <use xlink:href="#DejaVuSans-72" transform="translate(46.333984 0)"/>
       <use xlink:href="#DejaVuSans-65" transform="translate(85.197266 0)"/>
       <use xlink:href="#DejaVuSans-6d" transform="translate(146.720703 0)"/>
       <use xlink:href="#DejaVuSans-6f" transform="translate(244.132812 0)"/>
       <use xlink:href="#DejaVuSans-72" transform="translate(305.314453 0)"/>
      </g>
     </g>
    </g>
    <g id="ytick_18">
     <g id="line2d_23">
      <g>
       <use xlink:href="#m28164f9358" x="221.479688" y="250.868862" style="stroke: #000000; stroke-width: 0.8"/>
      </g>
     </g>
     <g id="text_24">
      <!-- Ataxia -->
      <g transform="translate(182.940625 254.668081) scale(0.1 -0.1)">
       <use xlink:href="#DejaVuSans-41"/>
       <use xlink:href="#DejaVuSans-74" transform="translate(66.658203 0)"/>
       <use xlink:href="#DejaVuSans-61" transform="translate(105.867188 0)"/>
       <use xlink:href="#DejaVuSans-78" transform="translate(167.146484 0)"/>
       <use xlink:href="#DejaVuSans-69" transform="translate(226.326172 0)"/>
       <use xlink:href="#DejaVuSans-61" transform="translate(254.109375 0)"/>
      </g>
     </g>
    </g>
    <g id="ytick_19">
     <g id="line2d_24">
      <g>
       <use xlink:href="#m28164f9358" x="221.479688" y="263.601493" style="stroke: #000000; stroke-width: 0.8"/>
      </g>
     </g>
     <g id="text_25">
      <!-- Infantile onset -->
      <g transform="translate(142.659375 267.400712) scale(0.1 -0.1)">
       <use xlink:href="#DejaVuSans-49"/>
       <use xlink:href="#DejaVuSans-6e" transform="translate(29.492188 0)"/>
       <use xlink:href="#DejaVuSans-66" transform="translate(92.871094 0)"/>
       <use xlink:href="#DejaVuSans-61" transform="translate(128.076172 0)"/>
       <use xlink:href="#DejaVuSans-6e" transform="translate(189.355469 0)"/>
       <use xlink:href="#DejaVuSans-74" transform="translate(252.734375 0)"/>
       <use xlink:href="#DejaVuSans-69" transform="translate(291.943359 0)"/>
       <use xlink:href="#DejaVuSans-6c" transform="translate(319.726562 0)"/>
       <use xlink:href="#DejaVuSans-65" transform="translate(347.509766 0)"/>
       <use xlink:href="#DejaVuSans-20" transform="translate(409.033203 0)"/>
       <use xlink:href="#DejaVuSans-6f" transform="translate(440.820312 0)"/>
       <use xlink:href="#DejaVuSans-6e" transform="translate(502.001953 0)"/>
       <use xlink:href="#DejaVuSans-73" transform="translate(565.380859 0)"/>
       <use xlink:href="#DejaVuSans-65" transform="translate(617.480469 0)"/>
       <use xlink:href="#DejaVuSans-74" transform="translate(679.003906 0)"/>
      </g>
     </g>
    </g>
    <g id="ytick_20">
     <g id="line2d_25">
      <g>
       <use xlink:href="#m28164f9358" x="221.479688" y="276.334125" style="stroke: #000000; stroke-width: 0.8"/>
      </g>
     </g>
     <g id="text_26">
      <!-- Seizure -->
      <g transform="translate(177.575 280.133344) scale(0.1 -0.1)">
       <use xlink:href="#DejaVuSans-53"/>
       <use xlink:href="#DejaVuSans-65" transform="translate(63.476562 0)"/>
       <use xlink:href="#DejaVuSans-69" transform="translate(125 0)"/>
       <use xlink:href="#DejaVuSans-7a" transform="translate(152.783203 0)"/>
       <use xlink:href="#DejaVuSans-75" transform="translate(205.273438 0)"/>
       <use xlink:href="#DejaVuSans-72" transform="translate(268.652344 0)"/>
       <use xlink:href="#DejaVuSans-65" transform="translate(307.515625 0)"/>
      </g>
     </g>
    </g>
   </g>
   <g id="line2d_26"/>
   <g id="line2d_27"/>
   <g id="line2d_28"/>
   <g id="line2d_29"/>
   <g id="line2d_30"/>
   <g id="line2d_31"/>
   <g id="line2d_32"/>
   <g id="line2d_33"/>
   <g id="line2d_34"/>
   <g id="line2d_35"/>
   <g id="line2d_36"/>
   <g id="line2d_37"/>
   <g id="line2d_38"/>
   <g id="patch_3">
    <path d="M 221.479688 288.430125 
L 221.479688 22.318125 
" style="fill: none; stroke: #000000; stroke-width: 0.8; stroke-linejoin: miter; stroke-linecap: square"/>
   </g>
   <g id="patch_4">
    <path d="M 578.599687 288.430125 
L 578.599687 22.318125 
" style="fill: none; stroke: #000000; stroke-width: 0.8; stroke-linejoin: miter; stroke-linecap: square"/>
   </g>
   <g id="patch_5">
    <path d="M 221.479688 288.430125 
L 578.599687 288.430125 
" style="fill: none; stroke: #000000; stroke-width: 0.8; stroke-linejoin: miter; stroke-linecap: square"/>
   </g>
   <g id="patch_6">
    <path d="M 221.479688 22.318125 
L 578.599687 22.318125 
" style="fill: none; stroke: #000000; stroke-width: 0.8; stroke-linejoin: miter; stroke-linecap: square"/>
   </g>
   <g id="text_27">
    <!-- Top 20 Enriched Phenotypes -->
    <g transform="translate(315.113438 16.318125) scale(0.12 -0.12)">
     <defs>
      <path id="DejaVuSans-50" d="M 1259 4147 
L 1259 2394 
L 2053 2394 
Q 2494 2394 2734 2622 
Q 2975 2850 2975 3272 
Q 2975 3691 2734 3919 
Q 2494 4147 2053 4147 
L 1259 4147 
z
M 628 4666 
L 2053 4666 
Q 2838 4666 3239 4311 
Q 3641 3956 3641 3272 
Q 3641 2581 3239 2228 
Q 2838 1875 2053 1875 
L 1259 1875 
L 1259 0 
L 628 0 
L 628 4666 
z
" transform="scale(0.015625)"/>
     </defs>
     <use xlink:href="#DejaVuSans-54"/>
     <use xlink:href="#DejaVuSans-6f" transform="translate(44.083984 0)"/>
     <use xlink:href="#DejaVuSans-70" transform="translate(105.265625 0)"/>
     <use xlink:href="#DejaVuSans-20" transform="translate(168.742188 0)"/>
     <use xlink:href="#DejaVuSans-32" transform="translate(200.529297 0)"/>
     <use xlink:href="#DejaVuSans-30" transform="translate(264.152344 0)"/>
     <use xlink:href="#DejaVuSans-20" transform="translate(327.775391 0)"/>
     <use xlink:href="#DejaVuSans-45" transform="translate(359.5625 0)"/>
     <use xlink:href="#DejaVuSans-6e" transform="translate(422.746094 0)"/>
     <use xlink:href="#DejaVuSans-72" transform="translate(486.125 0)"/>
     <use xlink:href="#DejaVuSans-69" transform="translate(527.238281 0)"/>
     <use xlink:href="#DejaVuSans-63" transform="translate(555.021484 0)"/>
     <use xlink:href="#DejaVuSans-68" transform="translate(610.001953 0)"/>
     <use xlink:href="#DejaVuSans-65" transform="translate(673.380859 0)"/>
     <use xlink:href="#DejaVuSans-64" transform="translate(734.904297 0)"/>
     <use xlink:href="#DejaVuSans-20" transform="translate(798.380859 0)"/>
     <use xlink:href="#DejaVuSans-50" transform="translate(830.167969 0)"/>
     <use xlink:href="#DejaVuSans-68" transform="translate(890.470703 0)"/>
     <use xlink:href="#DejaVuSans-65" transform="translate(953.849609 0)"/>
     <use xlink:href="#DejaVuSans-6e" transform="translate(1015.373047 0)"/>
     <use xlink:href="#DejaVuSans-6f" transform="translate(1078.751953 0)"/>
     <use xlink:href="#DejaVuSans-74" transform="translate(1139.933594 0)"/>
     <use xlink:href="#DejaVuSans-79" transform="translate(1179.142578 0)"/>
     <use xlink:href="#DejaVuSans-70" transform="translate(1238.322266 0)"/>
     <use xlink:href="#DejaVuSans-65" transform="translate(1301.798828 0)"/>
     <use xlink:href="#DejaVuSans-73" transform="translate(1363.322266 0)"/>
    </g>
   </g>
   <g id="legend_1">
    <g id="patch_7">
     <path d="M 585.599687 221.13375 
L 672.83875 221.13375 
Q 674.83875 221.13375 674.83875 219.13375 
L 674.83875 29.318125 
Q 674.83875 27.318125 672.83875 27.318125 
L 585.599687 27.318125 
Q 583.599687 27.318125 583.599687 29.318125 
L 583.599687 219.13375 
Q 583.599687 221.13375 585.599687 221.13375 
z
" style="fill: #ffffff; opacity: 0.8; stroke: #cccccc; stroke-linejoin: miter"/>
    </g>
    <g id="line2d_39"/>
    <g id="text_28">
     <!-- -log10 FDR -->
     <g transform="translate(615.599687 38.916562) scale(0.1 -0.1)">
      <defs>
       <path id="DejaVuSans-44" d="M 1259 4147 
L 1259 519 
L 2022 519 
Q 2988 519 3436 956 
Q 3884 1394 3884 2338 
Q 3884 3275 3436 3711 
Q 2988 4147 2022 4147 
L 1259 4147 
z
M 628 4666 
L 1925 4666 
Q 3281 4666 3915 4102 
Q 4550 3538 4550 2338 
Q 4550 1131 3912 565 
Q 3275 0 1925 0 
L 628 0 
L 628 4666 
z
" transform="scale(0.015625)"/>
      </defs>
      <use xlink:href="#DejaVuSans-2d"/>
      <use xlink:href="#DejaVuSans-6c" transform="translate(36.083984 0)"/>
      <use xlink:href="#DejaVuSans-6f" transform="translate(63.867188 0)"/>
      <use xlink:href="#DejaVuSans-67" transform="translate(125.048828 0)"/>
      <use xlink:href="#DejaVuSans-31" transform="translate(188.525391 0)"/>
      <use xlink:href="#DejaVuSans-30" transform="translate(252.148438 0)"/>
      <use xlink:href="#DejaVuSans-20" transform="translate(315.771484 0)"/>
      <use xlink:href="#DejaVuSans-46" transform="translate(347.558594 0)"/>
      <use xlink:href="#DejaVuSans-44" transform="translate(405.078125 0)"/>
      <use xlink:href="#DejaVuSans-52" transform="translate(482.080078 0)"/>
     </g>
    </g>
    <g id="line2d_40">
     <defs>
      <path id="m4e8919a510" d="M 0 3 
C 0.795609 3 1.55874 2.683901 2.12132 2.12132 
C 2.683901 1.55874 3 0.795609 3 0 
C 3 -0.795609 2.683901 -1.55874 2.12132 -2.12132 
C 1.55874 -2.683901 0.795609 -3 0 -3 
C -0.795609 -3 -1.55874 -2.683901 -2.12132 -2.12132 
C -2.683901 -1.55874 -3 -0.795609 -3 0 
C -3 0.795609 -2.683901 1.55874 -2.12132 2.12132 
C -1.55874 2.683901 -0.795609 3 0 3 
z
" style="stroke: #ffffff; stroke-width: 0.382881"/>
     </defs>
     <g>
      <use xlink:href="#m4e8919a510" x="597.599687" y="50.094688" style="fill: #7597f6; stroke: #ffffff; stroke-width: 0.382881"/>
     </g>
    </g>
    <g id="text_29">
     <!-- 5 -->
     <g transform="translate(615.599687 53.594688) scale(0.1 -0.1)">
      <defs>
       <path id="DejaVuSans-35" d="M 691 4666 
L 3169 4666 
L 3169 4134 
L 1269 4134 
L 1269 2991 
Q 1406 3038 1543 3061 
Q 1681 3084 1819 3084 
Q 2600 3084 3056 2656 
Q 3513 2228 3513 1497 
Q 3513 744 3044 326 
Q 2575 -91 1722 -91 
Q 1428 -91 1123 -41 
Q 819 9 494 109 
L 494 744 
Q 775 591 1075 516 
Q 1375 441 1709 441 
Q 2250 441 2565 725 
Q 2881 1009 2881 1497 
Q 2881 1984 2565 2268 
Q 2250 2553 1709 2553 
Q 1456 2553 1204 2497 
Q 953 2441 691 2322 
L 691 4666 
z
" transform="scale(0.015625)"/>
      </defs>
      <use xlink:href="#DejaVuSans-35"/>
     </g>
    </g>
    <g id="line2d_41">
     <defs>
      <path id="mcf1bad2ec7" d="M 0 3 
C 0.795609 3 1.55874 2.683901 2.12132 2.12132 
C 2.683901 1.55874 3 0.795609 3 0 
C 3 -0.795609 2.683901 -1.55874 2.12132 -2.12132 
C 1.55874 -2.683901 0.795609 -3 0 -3 
C -0.795609 -3 -1.55874 -2.683901 -2.12132 -2.12132 
C -2.683901 -1.55874 -3 -0.795609 -3 0 
C -3 0.795609 -2.683901 1.55874 -2.12132 2.12132 
C -1.55874 2.683901 -0.795609 3 0 3 
z
" style="stroke: #ffffff; stroke-width: 0.382881"/>
     </defs>
     <g>
      <use xlink:href="#mcf1bad2ec7" x="597.599687" y="64.772812" style="fill: #b7cff9; stroke: #ffffff; stroke-width: 0.382881"/>
     </g>
    </g>
    <g id="text_30">
     <!-- 6 -->
     <g transform="translate(615.599687 68.272812) scale(0.1 -0.1)">
      <use xlink:href="#DejaVuSans-36"/>
     </g>
    </g>
    <g id="line2d_42">
     <defs>
      <path id="m4d4fb9779b" d="M 0 3 
C 0.795609 3 1.55874 2.683901 2.12132 2.12132 
C 2.683901 1.55874 3 0.795609 3 0 
C 3 -0.795609 2.683901 -1.55874 2.12132 -2.12132 
C 1.55874 -2.683901 0.795609 -3 0 -3 
C -0.795609 -3 -1.55874 -2.683901 -2.12132 -2.12132 
C -2.683901 -1.55874 -3 -0.795609 -3 0 
C -3 0.795609 -2.683901 1.55874 -2.12132 2.12132 
C -1.55874 2.683901 -0.795609 3 0 3 
z
" style="stroke: #ffffff; stroke-width: 0.382881"/>
     </defs>
     <g>
      <use xlink:href="#m4d4fb9779b" x="597.599687" y="79.450938" style="fill: #ecd3c5; stroke: #ffffff; stroke-width: 0.382881"/>
     </g>
    </g>
    <g id="text_31">
     <!-- 7 -->
     <g transform="translate(615.599687 82.950938) scale(0.1 -0.1)">
      <defs>
       <path id="DejaVuSans-37" d="M 525 4666 
L 3525 4666 
L 3525 4397 
L 1831 0 
L 1172 0 
L 2766 4134 
L 525 4134 
L 525 4666 
z
" transform="scale(0.015625)"/>
      </defs>
      <use xlink:href="#DejaVuSans-37"/>
     </g>
    </g>
    <g id="line2d_43">
     <defs>
      <path id="m9d06033dfc" d="M 0 3 
C 0.795609 3 1.55874 2.683901 2.12132 2.12132 
C 2.683901 1.55874 3 0.795609 3 0 
C 3 -0.795609 2.683901 -1.55874 2.12132 -2.12132 
C 1.55874 -2.683901 0.795609 -3 0 -3 
C -0.795609 -3 -1.55874 -2.683901 -2.12132 -2.12132 
C -2.683901 -1.55874 -3 -0.795609 -3 0 
C -3 0.795609 -2.683901 1.55874 -2.12132 2.12132 
C -1.55874 2.683901 -0.795609 3 0 3 
z
" style="stroke: #ffffff; stroke-width: 0.382881"/>
     </defs>
     <g>
      <use xlink:href="#m9d06033dfc" x="597.599687" y="94.129063" style="fill: #f39778; stroke: #ffffff; stroke-width: 0.382881"/>
     </g>
    </g>
    <g id="text_32">
     <!-- 8 -->
     <g transform="translate(615.599687 97.629063) scale(0.1 -0.1)">
      <use xlink:href="#DejaVuSans-38"/>
     </g>
    </g>
    <g id="line2d_44">
     <defs>
      <path id="m0610812276" d="M 0 3 
C 0.795609 3 1.55874 2.683901 2.12132 2.12132 
C 2.683901 1.55874 3 0.795609 3 0 
C 3 -0.795609 2.683901 -1.55874 2.12132 -2.12132 
C 1.55874 -2.683901 0.795609 -3 0 -3 
C -0.795609 -3 -1.55874 -2.683901 -2.12132 -2.12132 
C -2.683901 -1.55874 -3 -0.795609 -3 0 
C -3 0.795609 -2.683901 1.55874 -2.12132 2.12132 
C -1.55874 2.683901 -0.795609 3 0 3 
z
" style="stroke: #ffffff; stroke-width: 0.382881"/>
     </defs>
     <g>
      <use xlink:href="#m0610812276" x="597.599687" y="108.807187" style="fill: #c73635; stroke: #ffffff; stroke-width: 0.382881"/>
     </g>
    </g>
    <g id="text_33">
     <!-- 9 -->
     <g transform="translate(615.599687 112.307187) scale(0.1 -0.1)">
      <defs>
       <path id="DejaVuSans-39" d="M 703 97 
L 703 672 
Q 941 559 1184 500 
Q 1428 441 1663 441 
Q 2288 441 2617 861 
Q 2947 1281 2994 2138 
Q 2813 1869 2534 1725 
Q 2256 1581 1919 1581 
Q 1219 1581 811 2004 
Q 403 2428 403 3163 
Q 403 3881 828 4315 
Q 1253 4750 1959 4750 
Q 2769 4750 3195 4129 
Q 3622 3509 3622 2328 
Q 3622 1225 3098 567 
Q 2575 -91 1691 -91 
Q 1453 -91 1209 -44 
Q 966 3 703 97 
z
M 1959 2075 
Q 2384 2075 2632 2365 
Q 2881 2656 2881 3163 
Q 2881 3666 2632 3958 
Q 2384 4250 1959 4250 
Q 1534 4250 1286 3958 
Q 1038 3666 1038 3163 
Q 1038 2656 1286 2365 
Q 1534 2075 1959 2075 
z
" transform="scale(0.015625)"/>
      </defs>
      <use xlink:href="#DejaVuSans-39"/>
     </g>
    </g>
    <g id="line2d_45"/>
    <g id="text_34">
     <!-- Gene Ratio -->
     <g transform="translate(615.599687 126.985313) scale(0.1 -0.1)">
      <use xlink:href="#DejaVuSans-47"/>
      <use xlink:href="#DejaVuSans-65" transform="translate(77.490234 0)"/>
      <use xlink:href="#DejaVuSans-6e" transform="translate(139.013672 0)"/>
      <use xlink:href="#DejaVuSans-65" transform="translate(202.392578 0)"/>
      <use xlink:href="#DejaVuSans-20" transform="translate(263.916016 0)"/>
      <use xlink:href="#DejaVuSans-52" transform="translate(295.703125 0)"/>
      <use xlink:href="#DejaVuSans-61" transform="translate(362.935547 0)"/>
      <use xlink:href="#DejaVuSans-74" transform="translate(424.214844 0)"/>
      <use xlink:href="#DejaVuSans-69" transform="translate(463.423828 0)"/>
      <use xlink:href="#DejaVuSans-6f" transform="translate(491.207031 0)"/>
     </g>
    </g>
    <g id="line2d_46">
     <defs>
      <path id="mdd0ff0c603" d="M 0 2.527059 
C 0.670184 2.527059 1.313009 2.260793 1.786901 1.786901 
C 2.260793 1.313009 2.527059 0.670184 2.527059 0 
C 2.527059 -0.670184 2.260793 -1.313009 1.786901 -1.786901 
C 1.313009 -2.260793 0.670184 -2.527059 0 -2.527059 
C -0.670184 -2.527059 -1.313009 -2.260793 -1.786901 -1.786901 
C -2.260793 -1.313009 -2.527059 -0.670184 -2.527059 0 
C -2.527059 0.670184 -2.260793 1.313009 -1.786901 1.786901 
C -1.313009 2.260793 -0.670184 2.527059 0 2.527059 
z
" style="stroke: #ffffff; stroke-width: 0.382881"/>
     </defs>
     <g>
      <use xlink:href="#mdd0ff0c603" x="597.599687" y="138.163437" style="fill: #333333; stroke: #ffffff; stroke-width: 0.382881"/>
     </g>
    </g>
    <g id="text_35">
     <!-- 0.025 -->
     <g transform="translate(615.599687 141.663437) scale(0.1 -0.1)">
      <defs>
       <path id="DejaVuSans-2e" d="M 684 794 
L 1344 794 
L 1344 0 
L 684 0 
L 684 794 
z
" transform="scale(0.015625)"/>
      </defs>
      <use xlink:href="#DejaVuSans-30"/>
      <use xlink:href="#DejaVuSans-2e" transform="translate(63.623047 0)"/>
      <use xlink:href="#DejaVuSans-30" transform="translate(95.410156 0)"/>
      <use xlink:href="#DejaVuSans-32" transform="translate(159.033203 0)"/>
      <use xlink:href="#DejaVuSans-35" transform="translate(222.65625 0)"/>
     </g>
    </g>
    <g id="line2d_47">
     <defs>
      <path id="m50f6699816" d="M 0 3.515721 
C 0.93238 3.515721 1.826698 3.145282 2.48599 2.48599 
C 3.145282 1.826698 3.515721 0.93238 3.515721 0 
C 3.515721 -0.93238 3.145282 -1.826698 2.48599 -2.48599 
C 1.826698 -3.145282 0.93238 -3.515721 0 -3.515721 
C -0.93238 -3.515721 -1.826698 -3.145282 -2.48599 -2.48599 
C -3.145282 -1.826698 -3.515721 -0.93238 -3.515721 0 
C -3.515721 0.93238 -3.145282 1.826698 -2.48599 2.48599 
C -1.826698 3.145282 -0.93238 3.515721 0 3.515721 
z
" style="stroke: #ffffff; stroke-width: 0.382881"/>
     </defs>
     <g>
      <use xlink:href="#m50f6699816" x="597.599687" y="152.841563" style="fill: #333333; stroke: #ffffff; stroke-width: 0.382881"/>
     </g>
    </g>
    <g id="text_36">
     <!-- 0.050 -->
     <g transform="translate(615.599687 156.341563) scale(0.1 -0.1)">
      <use xlink:href="#DejaVuSans-30"/>
      <use xlink:href="#DejaVuSans-2e" transform="translate(63.623047 0)"/>
      <use xlink:href="#DejaVuSans-30" transform="translate(95.410156 0)"/>
      <use xlink:href="#DejaVuSans-35" transform="translate(159.033203 0)"/>
      <use xlink:href="#DejaVuSans-30" transform="translate(222.65625 0)"/>
     </g>
    </g>
    <g id="line2d_48">
     <defs>
      <path id="mb8698a8cdc" d="M 0 4.281887 
C 1.13557 4.281887 2.224782 3.830721 3.027752 3.027752 
C 3.830721 2.224782 4.281887 1.13557 4.281887 0 
C 4.281887 -1.13557 3.830721 -2.224782 3.027752 -3.027752 
C 2.224782 -3.830721 1.13557 -4.281887 0 -4.281887 
C -1.13557 -4.281887 -2.224782 -3.830721 -3.027752 -3.027752 
C -3.830721 -2.224782 -4.281887 -1.13557 -4.281887 0 
C -4.281887 1.13557 -3.830721 2.224782 -3.027752 3.027752 
C -2.224782 3.830721 -1.13557 4.281887 0 4.281887 
z
" style="stroke: #ffffff; stroke-width: 0.382881"/>
     </defs>
     <g>
      <use xlink:href="#mb8698a8cdc" x="597.599687" y="167.519687" style="fill: #333333; stroke: #ffffff; stroke-width: 0.382881"/>
     </g>
    </g>
    <g id="text_37">
     <!-- 0.075 -->
     <g transform="translate(615.599687 171.019687) scale(0.1 -0.1)">
      <use xlink:href="#DejaVuSans-30"/>
      <use xlink:href="#DejaVuSans-2e" transform="translate(63.623047 0)"/>
      <use xlink:href="#DejaVuSans-30" transform="translate(95.410156 0)"/>
      <use xlink:href="#DejaVuSans-37" transform="translate(159.033203 0)"/>
      <use xlink:href="#DejaVuSans-35" transform="translate(222.65625 0)"/>
     </g>
    </g>
    <g id="line2d_49">
     <defs>
      <path id="m0de8948ea3" d="M 0 4.930398 
C 1.307557 4.930398 2.561736 4.4109 3.486318 3.486318 
C 4.4109 2.561736 4.930398 1.307557 4.930398 0 
C 4.930398 -1.307557 4.4109 -2.561736 3.486318 -3.486318 
C 2.561736 -4.4109 1.307557 -4.930398 0 -4.930398 
C -1.307557 -4.930398 -2.561736 -4.4109 -3.486318 -3.486318 
C -4.4109 -2.561736 -4.930398 -1.307557 -4.930398 0 
C -4.930398 1.307557 -4.4109 2.561736 -3.486318 3.486318 
C -2.561736 4.4109 -1.307557 4.930398 0 4.930398 
z
" style="stroke: #ffffff; stroke-width: 0.382881"/>
     </defs>
     <g>
      <use xlink:href="#m0de8948ea3" x="597.599687" y="182.197812" style="fill: #333333; stroke: #ffffff; stroke-width: 0.382881"/>
     </g>
    </g>
    <g id="text_38">
     <!-- 0.100 -->
     <g transform="translate(615.599687 185.697812) scale(0.1 -0.1)">
      <use xlink:href="#DejaVuSans-30"/>
      <use xlink:href="#DejaVuSans-2e" transform="translate(63.623047 0)"/>
      <use xlink:href="#DejaVuSans-31" transform="translate(95.410156 0)"/>
      <use xlink:href="#DejaVuSans-30" transform="translate(159.033203 0)"/>
      <use xlink:href="#DejaVuSans-30" transform="translate(222.65625 0)"/>
     </g>
    </g>
    <g id="line2d_50">
     <defs>
      <path id="m3506dc8edf" d="M 0 5.503007 
C 1.459415 5.503007 2.859252 4.923176 3.891214 3.891214 
C 4.923176 2.859252 5.503007 1.459415 5.503007 0 
C 5.503007 -1.459415 4.923176 -2.859252 3.891214 -3.891214 
C 2.859252 -4.923176 1.459415 -5.503007 0 -5.503007 
C -1.459415 -5.503007 -2.859252 -4.923176 -3.891214 -3.891214 
C -4.923176 -2.859252 -5.503007 -1.459415 -5.503007 0 
C -5.503007 1.459415 -4.923176 2.859252 -3.891214 3.891214 
C -2.859252 4.923176 -1.459415 5.503007 0 5.503007 
z
" style="stroke: #ffffff; stroke-width: 0.382881"/>
     </defs>
     <g>
      <use xlink:href="#m3506dc8edf" x="597.599687" y="196.875937" style="fill: #333333; stroke: #ffffff; stroke-width: 0.382881"/>
     </g>
    </g>
    <g id="text_39">
     <!-- 0.125 -->
     <g transform="translate(615.599687 200.375937) scale(0.1 -0.1)">
      <use xlink:href="#DejaVuSans-30"/>
      <use xlink:href="#DejaVuSans-2e" transform="translate(63.623047 0)"/>
      <use xlink:href="#DejaVuSans-31" transform="translate(95.410156 0)"/>
      <use xlink:href="#DejaVuSans-32" transform="translate(159.033203 0)"/>
      <use xlink:href="#DejaVuSans-35" transform="translate(222.65625 0)"/>
     </g>
    </g>
    <g id="line2d_51">
     <defs>
      <path id="m7562171b83" d="M 0 6.021408 
C 1.596896 6.021408 3.128602 5.386954 4.257778 4.257778 
C 5.386954 3.128602 6.021408 1.596896 6.021408 0 
C 6.021408 -1.596896 5.386954 -3.128602 4.257778 -4.257778 
C 3.128602 -5.386954 1.596896 -6.021408 0 -6.021408 
C -1.596896 -6.021408 -3.128602 -5.386954 -4.257778 -4.257778 
C -5.386954 -3.128602 -6.021408 -1.596896 -6.021408 0 
C -6.021408 1.596896 -5.386954 3.128602 -4.257778 4.257778 
C -3.128602 5.386954 -1.596896 6.021408 0 6.021408 
z
" style="stroke: #ffffff; stroke-width: 0.382881"/>
     </defs>
     <g>
      <use xlink:href="#m7562171b83" x="597.599687" y="211.554062" style="fill: #333333; stroke: #ffffff; stroke-width: 0.382881"/>
     </g>
    </g>
    <g id="text_40">
     <!-- 0.150 -->
     <g transform="translate(615.599687 215.054062) scale(0.1 -0.1)">
      <use xlink:href="#DejaVuSans-30"/>
      <use xlink:href="#DejaVuSans-2e" transform="translate(63.623047 0)"/>
      <use xlink:href="#DejaVuSans-31" transform="translate(95.410156 0)"/>
      <use xlink:href="#DejaVuSans-35" transform="translate(159.033203 0)"/>
      <use xlink:href="#DejaVuSans-30" transform="translate(222.65625 0)"/>
     </g>
    </g>
   </g>
  </g>
 </g>
 <defs>
  <clipPath id="pf50c1de18e">
   <rect x="221.479688" y="22.318125" width="357.12" height="266.112"/>
  </clipPath>
 </defs>
</svg>
