<?xml version="1.0" encoding="utf-8" standalone="no"?>
<!DOCTYPE svg PUBLIC "-//W3C//DTD SVG 1.1//EN"
  "http://www.w3.org/Graphics/SVG/1.1/DTD/svg11.dtd">
<svg xmlns:xlink="http://www.w3.org/1999/xlink" width="838.609062pt" height="325.986375pt" viewBox="0 0 838.609062 325.986375" xmlns="http://www.w3.org/2000/svg" version="1.1">
 <metadata>
  <rdf:RDF xmlns:dc="http://purl.org/dc/elements/1.1/" xmlns:cc="http://creativecommons.org/ns#" xmlns:rdf="http://www.w3.org/1999/02/22-rdf-syntax-ns#">
   <cc:Work>
    <dc:type rdf:resource="http://purl.org/dc/dcmitype/StillImage"/>
    <dc:date>2025-12-27T20:08:46.337968</dc:date>
    <dc:format>image/svg+xml</dc:format>
    <dc:creator>
     <cc:Agent>
      <dc:title>Matplotlib v3.10.7, https://matplotlib.org/</dc:title>
     </cc:Agent>
    </dc:creator>
   </cc:Work>
  </rdf:RDF>
 </metadata>
 <defs>
  <style type="text/css">*{stroke-linejoin: round; stroke-linecap: butt}</style>
 </defs>
 <g id="figure_1">
  <g id="patch_1">
   <path d="M 0 325.986375 
L 838.609062 325.986375 
L 838.609062 0 
L 0 0 
z
" style="fill: #ffffff"/>
  </g>
  <g id="axes_1">
   <g id="patch_2">
    <path d="M 378.05 288.430125 
L 735.17 288.430125 
L 735.17 22.318125 
L 378.05 22.318125 
z
" style="fill: #ffffff"/>
   </g>
   <g id="PathCollection_1">
    <path d="M 718.937273 36.650193 
C 719.530285 36.650193 720.099089 36.414587 720.518412 35.995264 
C 720.937734 35.575941 721.173341 35.007137 721.173341 34.414125 
C 721.173341 33.821113 720.937734 33.252309 720.518412 32.832986 
C 720.099089 32.413663 719.530285 32.178057 718.937273 32.178057 
C 718.344261 32.178057 717.775457 32.413663 717.356134 32.832986 
C 716.936811 33.252309 716.701205 33.821113 716.701205 34.414125 
C 716.701205 35.007137 716.936811 35.575941 717.356134 35.995264 
C 717.775457 36.414587 718.344261 36.650193 718.937273 36.650193 
z
" clip-path="url(#pe5ec4ed9a5)" style="fill: #4055c8; stroke: #ffffff; stroke-width: 0.426822"/>
    <path d="M 586.059452 49.545884 
C 586.695708 49.545884 587.30599 49.293097 587.755891 48.843196 
C 588.205792 48.393295 588.458579 47.783013 588.458579 47.146757 
C 588.458579 46.5105 588.205792 45.900218 587.755891 45.450317 
C 587.30599 45.000416 586.695708 44.747629 586.059452 44.747629 
C 585.423196 44.747629 584.812913 45.000416 584.363012 45.450317 
C 583.913111 45.900218 583.660324 46.5105 583.660324 47.146757 
C 583.660324 47.783013 583.913111 48.393295 584.363012 48.843196 
C 584.812913 49.293097 585.423196 49.545884 586.059452 49.545884 
z
" clip-path="url(#pe5ec4ed9a5)" style="fill: #3b4cc0; stroke: #ffffff; stroke-width: 0.426822"/>
    <path d="M 555.395339 62.575207 
C 556.110279 62.575207 556.796033 62.291159 557.301571 61.78562 
C 557.80711 61.280082 558.091159 60.594328 558.091159 59.879388 
C 558.091159 59.164449 557.80711 58.478695 557.301571 57.973156 
C 556.796033 57.467617 556.110279 57.183569 555.395339 57.183569 
C 554.6804 57.183569 553.994646 57.467617 553.489107 57.973156 
C 552.983568 58.478695 552.69952 59.164449 552.69952 59.879388 
C 552.69952 60.594328 552.983568 61.280082 553.489107 61.78562 
C 553.994646 62.291159 554.6804 62.575207 555.395339 62.575207 
z
" clip-path="url(#pe5ec4ed9a5)" style="fill: #7da0f9; stroke: #ffffff; stroke-width: 0.426822"/>
    <path d="M 555.395339 75.307839 
C 556.110279 75.307839 556.796033 75.023791 557.301571 74.518252 
C 557.80711 74.012713 558.091159 73.326959 558.091159 72.61202 
C 558.091159 71.89708 557.80711 71.211326 557.301571 70.705788 
C 556.796033 70.200249 556.110279 69.9162 555.395339 69.9162 
C 554.6804 69.9162 553.994646 70.200249 553.489107 70.705788 
C 552.983568 71.211326 552.69952 71.89708 552.69952 72.61202 
C 552.69952 73.326959 552.983568 74.012713 553.489107 74.518252 
C 553.994646 75.023791 554.6804 75.307839 555.395339 75.307839 
z
" clip-path="url(#pe5ec4ed9a5)" style="fill: #7da0f9; stroke: #ffffff; stroke-width: 0.426822"/>
    <path d="M 541.766845 88.177187 
C 542.518042 88.177187 543.238573 87.878733 543.76975 87.347556 
C 544.300926 86.81638 544.59938 86.095848 544.59938 85.344651 
C 544.59938 84.593454 544.300926 83.872923 543.76975 83.341746 
C 543.238573 82.81057 542.518042 82.512116 541.766845 82.512116 
C 541.015648 82.512116 540.295116 82.81057 539.76394 83.341746 
C 539.232763 83.872923 538.934309 84.593454 538.934309 85.344651 
C 538.934309 86.095848 539.232763 86.81638 539.76394 87.347556 
C 540.295116 87.878733 541.015648 88.177187 541.766845 88.177187 
z
" clip-path="url(#pe5ec4ed9a5)" style="fill: #9abbff; stroke: #ffffff; stroke-width: 0.426822"/>
    <path d="M 541.766845 100.773102 
C 542.481784 100.773102 543.167538 100.489054 543.673077 99.983515 
C 544.178616 99.477976 544.462664 98.792223 544.462664 98.077283 
C 544.462664 97.362343 544.178616 96.676589 543.673077 96.171051 
C 543.167538 95.665512 542.481784 95.381464 541.766845 95.381464 
C 541.051905 95.381464 540.366151 95.665512 539.860613 96.171051 
C 539.355074 96.676589 539.071025 97.362343 539.071025 98.077283 
C 539.071025 98.792223 539.355074 99.477976 539.860613 99.983515 
C 540.366151 100.489054 541.051905 100.773102 541.766845 100.773102 
z
" clip-path="url(#pe5ec4ed9a5)" style="fill: #7093f3; stroke: #ffffff; stroke-width: 0.426822"/>
    <path d="M 486.08471 114.133544 
C 486.966147 114.133544 487.811601 113.783345 488.434871 113.160075 
C 489.058141 112.536805 489.408339 111.691351 489.408339 110.809914 
C 489.408339 109.928478 489.058141 109.083024 488.434871 108.459754 
C 487.811601 107.836484 486.966147 107.486285 486.08471 107.486285 
C 485.203273 107.486285 484.357819 107.836484 483.734549 108.459754 
C 483.111279 109.083024 482.761081 109.928478 482.761081 110.809914 
C 482.761081 111.691351 483.111279 112.536805 483.734549 113.160075 
C 484.357819 113.783345 485.203273 114.133544 486.08471 114.133544 
z
" clip-path="url(#pe5ec4ed9a5)" style="fill: #d2dbe8; stroke: #ffffff; stroke-width: 0.426822"/>
    <path d="M 450.787436 126.505496 
C 451.573219 126.505496 452.326925 126.193301 452.882557 125.637668 
C 453.43819 125.082035 453.750385 124.328329 453.750385 123.542546 
C 453.750385 122.756763 453.43819 122.003057 452.882557 121.447424 
C 452.326925 120.891792 451.573219 120.579597 450.787436 120.579597 
C 450.001652 120.579597 449.247947 120.891792 448.692314 121.447424 
C 448.136681 122.003057 447.824486 122.756763 447.824486 123.542546 
C 447.824486 124.328329 448.136681 125.082035 448.692314 125.637668 
C 449.247947 126.193301 450.001652 126.505496 450.787436 126.505496 
z
" clip-path="url(#pe5ec4ed9a5)" style="fill: #3b4cc0; stroke: #ffffff; stroke-width: 0.426822"/>
    <path d="M 431.843586 140.925759 
C 433.076935 140.925759 434.259935 140.435744 435.132044 139.563635 
C 436.004153 138.691526 436.494168 137.508526 436.494168 136.275178 
C 436.494168 135.041829 436.004153 133.858829 435.132044 132.98672 
C 434.259935 132.114611 433.076935 131.624596 431.843586 131.624596 
C 430.610238 131.624596 429.427238 132.114611 428.555129 132.98672 
C 427.68302 133.858829 427.193005 135.041829 427.193005 136.275178 
C 427.193005 137.508526 427.68302 138.691526 428.555129 139.563635 
C 429.427238 140.435744 430.610238 140.925759 431.843586 140.925759 
z
" clip-path="url(#pe5ec4ed9a5)" style="fill: #cc403a; stroke: #ffffff; stroke-width: 0.426822"/>
    <path d="M 421.863626 152.758778 
C 422.858394 152.758778 423.812554 152.363552 424.515961 151.660145 
C 425.219369 150.956737 425.614595 150.002578 425.614595 149.007809 
C 425.614595 148.013041 425.219369 147.058881 424.515961 146.355474 
C 423.812554 145.652066 422.858394 145.25684 421.863626 145.25684 
C 420.868857 145.25684 419.914698 145.652066 419.21129 146.355474 
C 418.507883 147.058881 418.112657 148.013041 418.112657 149.007809 
C 418.112657 150.002578 418.507883 150.956737 419.21129 151.660145 
C 419.914698 152.363552 420.868857 152.758778 421.863626 152.758778 
z
" clip-path="url(#pe5ec4ed9a5)" style="fill: #7699f6; stroke: #ffffff; stroke-width: 0.426822"/>
    <path d="M 418.335314 166.855398 
C 419.691817 166.855398 420.992943 166.316454 421.952135 165.357262 
C 422.911328 164.39807 423.450272 163.096943 423.450272 161.740441 
C 423.450272 160.383938 422.911328 159.082812 421.952135 158.12362 
C 420.992943 157.164427 419.691817 156.625483 418.335314 156.625483 
C 416.978812 156.625483 415.677685 157.164427 414.718493 158.12362 
C 413.759301 159.082812 413.220357 160.383938 413.220357 161.740441 
C 413.220357 163.096943 413.759301 164.39807 414.718493 165.357262 
C 415.677685 166.316454 416.978812 166.855398 418.335314 166.855398 
z
" clip-path="url(#pe5ec4ed9a5)" style="fill: #cc403a; stroke: #ffffff; stroke-width: 0.426822"/>
    <path d="M 417.221296 178.121901 
C 418.188977 178.121901 419.117154 177.737438 419.801408 177.053184 
C 420.485662 176.36893 420.870125 175.440753 420.870125 174.473072 
C 420.870125 173.505392 420.485662 172.577214 419.801408 171.892961 
C 419.117154 171.208707 418.188977 170.824243 417.221296 170.824243 
C 416.253616 170.824243 415.325438 171.208707 414.641185 171.892961 
C 413.956931 172.577214 413.572467 173.505392 413.572467 174.473072 
C 413.572467 175.440753 413.956931 176.36893 414.641185 177.053184 
C 415.325438 177.737438 416.253616 178.121901 417.221296 178.121901 
z
" clip-path="url(#pe5ec4ed9a5)" style="fill: #4e68d8; stroke: #ffffff; stroke-width: 0.426822"/>
    <path d="M 416.487337 192.537705 
C 417.9014 192.537705 419.257737 191.975892 420.257631 190.975998 
C 421.257525 189.976104 421.819338 188.619767 421.819338 187.205704 
C 421.819338 185.791641 421.257525 184.435304 420.257631 183.43541 
C 419.257737 182.435516 417.9014 181.873703 416.487337 181.873703 
C 415.073274 181.873703 413.716937 182.435516 412.717043 183.43541 
C 411.717149 184.435304 411.155336 185.791641 411.155336 187.205704 
C 411.155336 188.619767 411.717149 189.976104 412.717043 190.975998 
C 413.716937 191.975892 415.073274 192.537705 416.487337 192.537705 
z
" clip-path="url(#pe5ec4ed9a5)" style="fill: #b40426; stroke: #ffffff; stroke-width: 0.426822"/>
    <path d="M 412.480316 203.587165 
C 413.447997 203.587165 414.376174 203.202701 415.060428 202.518447 
C 415.744682 201.834194 416.129145 200.906016 416.129145 199.938336 
C 416.129145 198.970655 415.744682 198.042477 415.060428 197.358224 
C 414.376174 196.67397 413.447997 196.289506 412.480316 196.289506 
C 411.512635 196.289506 410.584458 196.67397 409.900204 197.358224 
C 409.215951 198.042477 408.831487 198.970655 408.831487 199.938336 
C 408.831487 200.906016 409.215951 201.834194 409.900204 202.518447 
C 410.584458 203.202701 411.512635 203.587165 412.480316 203.587165 
z
" clip-path="url(#pe5ec4ed9a5)" style="fill: #3b4cc0; stroke: #ffffff; stroke-width: 0.426822"/>
    <path d="M 411.4669 217.239566 
C 412.678507 217.239566 413.840652 216.758189 414.697387 215.901454 
C 415.554123 215.044719 416.035499 213.882574 416.035499 212.670967 
C 416.035499 211.459361 415.554123 210.297215 414.697387 209.44048 
C 413.840652 208.583745 412.678507 208.102369 411.4669 208.102369 
C 410.255294 208.102369 409.093148 208.583745 408.236413 209.44048 
C 407.379678 210.297215 406.898302 211.459361 406.898302 212.670967 
C 406.898302 213.882574 407.379678 215.044719 408.236413 215.901454 
C 409.093148 216.758189 410.255294 217.239566 411.4669 217.239566 
z
" clip-path="url(#pe5ec4ed9a5)" style="fill: #c3d5f4; stroke: #ffffff; stroke-width: 0.426822"/>
    <path d="M 405.657374 230.134742 
C 406.912088 230.134742 408.115581 229.636239 409.002798 228.749022 
C 409.890015 227.861806 410.388518 226.658313 410.388518 225.403599 
C 410.388518 224.148885 409.890015 222.945392 409.002798 222.058175 
C 408.115581 221.170958 406.912088 220.672455 405.657374 220.672455 
C 404.40266 220.672455 403.199167 221.170958 402.31195 222.058175 
C 401.424734 222.945392 400.926231 224.148885 400.926231 225.403599 
C 400.926231 226.658313 401.424734 227.861806 402.31195 228.749022 
C 403.199167 229.636239 404.40266 230.134742 405.657374 230.134742 
z
" clip-path="url(#pe5ec4ed9a5)" style="fill: #a9c6fd; stroke: #ffffff; stroke-width: 0.426822"/>
    <path d="M 403.872753 244.197929 
C 405.480334 244.197929 407.022289 243.55923 408.159021 242.422498 
C 409.295752 241.285767 409.934451 239.743811 409.934451 238.13623 
C 409.934451 236.528649 409.295752 234.986694 408.159021 233.849962 
C 407.022289 232.713231 405.480334 232.074532 403.872753 232.074532 
C 402.265171 232.074532 400.723216 232.713231 399.586485 233.849962 
C 398.449753 234.986694 397.811054 236.528649 397.811054 238.13623 
C 397.811054 239.743811 398.449753 241.285767 399.586485 242.422498 
C 400.723216 243.55923 402.265171 244.197929 403.872753 244.197929 
z
" clip-path="url(#pe5ec4ed9a5)" style="fill: #c73635; stroke: #ffffff; stroke-width: 0.426822"/>
    <path d="M 397.87705 256.12951 
C 399.27219 256.12951 400.610376 255.575215 401.59689 254.588702 
C 402.583403 253.602189 403.137698 252.264002 403.137698 250.868862 
C 403.137698 249.473722 402.583403 248.135535 401.59689 247.149022 
C 400.610376 246.162509 399.27219 245.608214 397.87705 245.608214 
C 396.481909 245.608214 395.143723 246.162509 394.15721 247.149022 
C 393.170697 248.135535 392.616401 249.473722 392.616401 250.868862 
C 392.616401 252.264002 393.170697 253.602189 394.15721 254.588702 
C 395.143723 255.575215 396.481909 256.12951 397.87705 256.12951 
z
" clip-path="url(#pe5ec4ed9a5)" style="fill: #9bbcff; stroke: #ffffff; stroke-width: 0.426822"/>
    <path d="M 396.809222 269.073409 
C 398.260391 269.073409 399.652319 268.496853 400.67845 267.470722 
C 401.704582 266.444591 402.281137 265.052662 402.281137 263.601493 
C 402.281137 262.150324 401.704582 260.758396 400.67845 259.732265 
C 399.652319 258.706133 398.260391 258.129578 396.809222 258.129578 
C 395.358053 258.129578 393.966125 258.706133 392.939993 259.732265 
C 391.913862 260.758396 391.337306 262.150324 391.337306 263.601493 
C 391.337306 265.052662 391.913862 266.444591 392.939993 267.470722 
C 393.966125 268.496853 395.358053 269.073409 396.809222 269.073409 
z
" clip-path="url(#pe5ec4ed9a5)" style="fill: #a7c5fe; stroke: #ffffff; stroke-width: 0.426822"/>
    <path d="M 394.282727 282.457849 
C 395.906758 282.457849 397.464491 281.812615 398.612854 280.664252 
C 399.761217 279.515889 400.406452 277.958156 400.406452 276.334125 
C 400.406452 274.710094 399.761217 273.152361 398.612854 272.003998 
C 397.464491 270.855635 395.906758 270.210401 394.282727 270.210401 
C 392.658697 270.210401 391.100963 270.855635 389.9526 272.003998 
C 388.804237 273.152361 388.159003 274.710094 388.159003 276.334125 
C 388.159003 277.958156 388.804237 279.515889 389.9526 280.664252 
C 391.100963 281.812615 392.658697 282.457849 394.282727 282.457849 
z
" clip-path="url(#pe5ec4ed9a5)" style="fill: #ccd9ed; stroke: #ffffff; stroke-width: 0.426822"/>
   </g>
   <g id="matplotlib.axis_1">
    <g id="xtick_1">
     <g id="line2d_1">
      <defs>
       <path id="m83e150a55a" d="M 0 0 
L 0 3.5 
" style="stroke: #000000; stroke-width: 0.8"/>
      </defs>
      <g>
       <use xlink:href="#m83e150a55a" x="418.36002" y="288.430125" style="stroke: #000000; stroke-width: 0.8"/>
      </g>
     </g>
     <g id="text_1">
      <!-- 5 -->
      <g transform="translate(415.17877 303.028562) scale(0.1 -0.1)">
       <defs>
        <path id="DejaVuSans-35" d="M 691 4666 
L 3169 4666 
L 3169 4134 
L 1269 4134 
L 1269 2991 
Q 1406 3038 1543 3061 
Q 1681 3084 1819 3084 
Q 2600 3084 3056 2656 
Q 3513 2228 3513 1497 
Q 3513 744 3044 326 
Q 2575 -91 1722 -91 
Q 1428 -91 1123 -41 
Q 819 9 494 109 
L 494 744 
Q 775 591 1075 516 
Q 1375 441 1709 441 
Q 2250 441 2565 725 
Q 2881 1009 2881 1497 
Q 2881 1984 2565 2268 
Q 2250 2553 1709 2553 
Q 1456 2553 1204 2497 
Q 953 2441 691 2322 
L 691 4666 
z
" transform="scale(0.015625)"/>
       </defs>
       <use xlink:href="#DejaVuSans-35"/>
      </g>
     </g>
    </g>
    <g id="xtick_2">
     <g id="line2d_2">
      <g>
       <use xlink:href="#m83e150a55a" x="472.123623" y="288.430125" style="stroke: #000000; stroke-width: 0.8"/>
      </g>
     </g>
     <g id="text_2">
      <!-- 10 -->
      <g transform="translate(465.761123 303.028562) scale(0.1 -0.1)">
       <defs>
        <path id="DejaVuSans-31" d="M 794 531 
L 1825 531 
L 1825 4091 
L 703 3866 
L 703 4441 
L 1819 4666 
L 2450 4666 
L 2450 531 
L 3481 531 
L 3481 0 
L 794 0 
L 794 531 
z
" transform="scale(0.015625)"/>
        <path id="DejaVuSans-30" d="M 2034 4250 
Q 1547 4250 1301 3770 
Q 1056 3291 1056 2328 
Q 1056 1369 1301 889 
Q 1547 409 2034 409 
Q 2525 409 2770 889 
Q 3016 1369 3016 2328 
Q 3016 3291 2770 3770 
Q 2525 4250 2034 4250 
z
M 2034 4750 
Q 2819 4750 3233 4129 
Q 3647 3509 3647 2328 
Q 3647 1150 3233 529 
Q 2819 -91 2034 -91 
Q 1250 -91 836 529 
Q 422 1150 422 2328 
Q 422 3509 836 4129 
Q 1250 4750 2034 4750 
z
" transform="scale(0.015625)"/>
       </defs>
       <use xlink:href="#DejaVuSans-31"/>
       <use xlink:href="#DejaVuSans-30" transform="translate(63.623047 0)"/>
      </g>
     </g>
    </g>
    <g id="xtick_3">
     <g id="line2d_3">
      <g>
       <use xlink:href="#m83e150a55a" x="525.887227" y="288.430125" style="stroke: #000000; stroke-width: 0.8"/>
      </g>
     </g>
     <g id="text_3">
      <!-- 15 -->
      <g transform="translate(519.524727 303.028562) scale(0.1 -0.1)">
       <use xlink:href="#DejaVuSans-31"/>
       <use xlink:href="#DejaVuSans-35" transform="translate(63.623047 0)"/>
      </g>
     </g>
    </g>
    <g id="xtick_4">
     <g id="line2d_4">
      <g>
       <use xlink:href="#m83e150a55a" x="579.65083" y="288.430125" style="stroke: #000000; stroke-width: 0.8"/>
      </g>
     </g>
     <g id="text_4">
      <!-- 20 -->
      <g transform="translate(573.28833 303.028562) scale(0.1 -0.1)">
       <defs>
        <path id="DejaVuSans-32" d="M 1228 531 
L 3431 531 
L 3431 0 
L 469 0 
L 469 531 
Q 828 903 1448 1529 
Q 2069 2156 2228 2338 
Q 2531 2678 2651 2914 
Q 2772 3150 2772 3378 
Q 2772 3750 2511 3984 
Q 2250 4219 1831 4219 
Q 1534 4219 1204 4116 
Q 875 4013 500 3803 
L 500 4441 
Q 881 4594 1212 4672 
Q 1544 4750 1819 4750 
Q 2544 4750 2975 4387 
Q 3406 4025 3406 3419 
Q 3406 3131 3298 2873 
Q 3191 2616 2906 2266 
Q 2828 2175 2409 1742 
Q 1991 1309 1228 531 
z
" transform="scale(0.015625)"/>
       </defs>
       <use xlink:href="#DejaVuSans-32"/>
       <use xlink:href="#DejaVuSans-30" transform="translate(63.623047 0)"/>
      </g>
     </g>
    </g>
    <g id="xtick_5">
     <g id="line2d_5">
      <g>
       <use xlink:href="#m83e150a55a" x="633.414434" y="288.430125" style="stroke: #000000; stroke-width: 0.8"/>
      </g>
     </g>
     <g id="text_5">
      <!-- 25 -->
      <g transform="translate(627.051934 303.028562) scale(0.1 -0.1)">
       <use xlink:href="#DejaVuSans-32"/>
       <use xlink:href="#DejaVuSans-35" transform="translate(63.623047 0)"/>
      </g>
     </g>
    </g>
    <g id="xtick_6">
     <g id="line2d_6">
      <g>
       <use xlink:href="#m83e150a55a" x="687.178037" y="288.430125" style="stroke: #000000; stroke-width: 0.8"/>
      </g>
     </g>
     <g id="text_6">
      <!-- 30 -->
      <g transform="translate(680.815537 303.028562) scale(0.1 -0.1)">
       <defs>
        <path id="DejaVuSans-33" d="M 2597 2516 
Q 3050 2419 3304 2112 
Q 3559 1806 3559 1356 
Q 3559 666 3084 287 
Q 2609 -91 1734 -91 
Q 1441 -91 1130 -33 
Q 819 25 488 141 
L 488 750 
Q 750 597 1062 519 
Q 1375 441 1716 441 
Q 2309 441 2620 675 
Q 2931 909 2931 1356 
Q 2931 1769 2642 2001 
Q 2353 2234 1838 2234 
L 1294 2234 
L 1294 2753 
L 1863 2753 
Q 2328 2753 2575 2939 
Q 2822 3125 2822 3475 
Q 2822 3834 2567 4026 
Q 2313 4219 1838 4219 
Q 1578 4219 1281 4162 
Q 984 4106 628 3988 
L 628 4550 
Q 988 4650 1302 4700 
Q 1616 4750 1894 4750 
Q 2613 4750 3031 4423 
Q 3450 4097 3450 3541 
Q 3450 3153 3228 2886 
Q 3006 2619 2597 2516 
z
" transform="scale(0.015625)"/>
       </defs>
       <use xlink:href="#DejaVuSans-33"/>
       <use xlink:href="#DejaVuSans-30" transform="translate(63.623047 0)"/>
      </g>
     </g>
    </g>
    <g id="text_7">
     <!-- Fold Enrichment -->
     <g transform="translate(515.937344 316.706687) scale(0.1 -0.1)">
      <defs>
       <path id="DejaVuSans-46" d="M 628 4666 
L 3309 4666 
L 3309 4134 
L 1259 4134 
L 1259 2759 
L 3109 2759 
L 3109 2228 
L 1259 2228 
L 1259 0 
L 628 0 
L 628 4666 
z
" transform="scale(0.015625)"/>
       <path id="DejaVuSans-6f" d="M 1959 3097 
Q 1497 3097 1228 2736 
Q 959 2375 959 1747 
Q 959 1119 1226 758 
Q 1494 397 1959 397 
Q 2419 397 2687 759 
Q 2956 1122 2956 1747 
Q 2956 2369 2687 2733 
Q 2419 3097 1959 3097 
z
M 1959 3584 
Q 2709 3584 3137 3096 
Q 3566 2609 3566 1747 
Q 3566 888 3137 398 
Q 2709 -91 1959 -91 
Q 1206 -91 779 398 
Q 353 888 353 1747 
Q 353 2609 779 3096 
Q 1206 3584 1959 3584 
z
" transform="scale(0.015625)"/>
       <path id="DejaVuSans-6c" d="M 603 4863 
L 1178 4863 
L 1178 0 
L 603 0 
L 603 4863 
z
" transform="scale(0.015625)"/>
       <path id="DejaVuSans-64" d="M 2906 2969 
L 2906 4863 
L 3481 4863 
L 3481 0 
L 2906 0 
L 2906 525 
Q 2725 213 2448 61 
Q 2172 -91 1784 -91 
Q 1150 -91 751 415 
Q 353 922 353 1747 
Q 353 2572 751 3078 
Q 1150 3584 1784 3584 
Q 2172 3584 2448 3432 
Q 2725 3281 2906 2969 
z
M 947 1747 
Q 947 1113 1208 752 
Q 1469 391 1925 391 
Q 2381 391 2643 752 
Q 2906 1113 2906 1747 
Q 2906 2381 2643 2742 
Q 2381 3103 1925 3103 
Q 1469 3103 1208 2742 
Q 947 2381 947 1747 
z
" transform="scale(0.015625)"/>
       <path id="DejaVuSans-20" transform="scale(0.015625)"/>
       <path id="DejaVuSans-45" d="M 628 4666 
L 3578 4666 
L 3578 4134 
L 1259 4134 
L 1259 2753 
L 3481 2753 
L 3481 2222 
L 1259 2222 
L 1259 531 
L 3634 531 
L 3634 0 
L 628 0 
L 628 4666 
z
" transform="scale(0.015625)"/>
       <path id="DejaVuSans-6e" d="M 3513 2113 
L 3513 0 
L 2938 0 
L 2938 2094 
Q 2938 2591 2744 2837 
Q 2550 3084 2163 3084 
Q 1697 3084 1428 2787 
Q 1159 2491 1159 1978 
L 1159 0 
L 581 0 
L 581 3500 
L 1159 3500 
L 1159 2956 
Q 1366 3272 1645 3428 
Q 1925 3584 2291 3584 
Q 2894 3584 3203 3211 
Q 3513 2838 3513 2113 
z
" transform="scale(0.015625)"/>
       <path id="DejaVuSans-72" d="M 2631 2963 
Q 2534 3019 2420 3045 
Q 2306 3072 2169 3072 
Q 1681 3072 1420 2755 
Q 1159 2438 1159 1844 
L 1159 0 
L 581 0 
L 581 3500 
L 1159 3500 
L 1159 2956 
Q 1341 3275 1631 3429 
Q 1922 3584 2338 3584 
Q 2397 3584 2469 3576 
Q 2541 3569 2628 3553 
L 2631 2963 
z
" transform="scale(0.015625)"/>
       <path id="DejaVuSans-69" d="M 603 3500 
L 1178 3500 
L 1178 0 
L 603 0 
L 603 3500 
z
M 603 4863 
L 1178 4863 
L 1178 4134 
L 603 4134 
L 603 4863 
z
" transform="scale(0.015625)"/>
       <path id="DejaVuSans-63" d="M 3122 3366 
L 3122 2828 
Q 2878 2963 2633 3030 
Q 2388 3097 2138 3097 
Q 1578 3097 1268 2742 
Q 959 2388 959 1747 
Q 959 1106 1268 751 
Q 1578 397 2138 397 
Q 2388 397 2633 464 
Q 2878 531 3122 666 
L 3122 134 
Q 2881 22 2623 -34 
Q 2366 -91 2075 -91 
Q 1284 -91 818 406 
Q 353 903 353 1747 
Q 353 2603 823 3093 
Q 1294 3584 2113 3584 
Q 2378 3584 2631 3529 
Q 2884 3475 3122 3366 
z
" transform="scale(0.015625)"/>
       <path id="DejaVuSans-68" d="M 3513 2113 
L 3513 0 
L 2938 0 
L 2938 2094 
Q 2938 2591 2744 2837 
Q 2550 3084 2163 3084 
Q 1697 3084 1428 2787 
Q 1159 2491 1159 1978 
L 1159 0 
L 581 0 
L 581 4863 
L 1159 4863 
L 1159 2956 
Q 1366 3272 1645 3428 
Q 1925 3584 2291 3584 
Q 2894 3584 3203 3211 
Q 3513 2838 3513 2113 
z
" transform="scale(0.015625)"/>
       <path id="DejaVuSans-6d" d="M 3328 2828 
Q 3544 3216 3844 3400 
Q 4144 3584 4550 3584 
Q 5097 3584 5394 3201 
Q 5691 2819 5691 2113 
L 5691 0 
L 5113 0 
L 5113 2094 
Q 5113 2597 4934 2840 
Q 4756 3084 4391 3084 
Q 3944 3084 3684 2787 
Q 3425 2491 3425 1978 
L 3425 0 
L 2847 0 
L 2847 2094 
Q 2847 2600 2669 2842 
Q 2491 3084 2119 3084 
Q 1678 3084 1418 2786 
Q 1159 2488 1159 1978 
L 1159 0 
L 581 0 
L 581 3500 
L 1159 3500 
L 1159 2956 
Q 1356 3278 1631 3431 
Q 1906 3584 2284 3584 
Q 2666 3584 2933 3390 
Q 3200 3197 3328 2828 
z
" transform="scale(0.015625)"/>
       <path id="DejaVuSans-65" d="M 3597 1894 
L 3597 1613 
L 953 1613 
Q 991 1019 1311 708 
Q 1631 397 2203 397 
Q 2534 397 2845 478 
Q 3156 559 3463 722 
L 3463 178 
Q 3153 47 2828 -22 
Q 2503 -91 2169 -91 
Q 1331 -91 842 396 
Q 353 884 353 1716 
Q 353 2575 817 3079 
Q 1281 3584 2069 3584 
Q 2775 3584 3186 3129 
Q 3597 2675 3597 1894 
z
M 3022 2063 
Q 3016 2534 2758 2815 
Q 2500 3097 2075 3097 
Q 1594 3097 1305 2825 
Q 1016 2553 972 2059 
L 3022 2063 
z
" transform="scale(0.015625)"/>
       <path id="DejaVuSans-74" d="M 1172 4494 
L 1172 3500 
L 2356 3500 
L 2356 3053 
L 1172 3053 
L 1172 1153 
Q 1172 725 1289 603 
Q 1406 481 1766 481 
L 2356 481 
L 2356 0 
L 1766 0 
Q 1100 0 847 248 
Q 594 497 594 1153 
L 594 3053 
L 172 3053 
L 172 3500 
L 594 3500 
L 594 4494 
L 1172 4494 
z
" transform="scale(0.015625)"/>
      </defs>
      <use xlink:href="#DejaVuSans-46"/>
      <use xlink:href="#DejaVuSans-6f" transform="translate(53.894531 0)"/>
      <use xlink:href="#DejaVuSans-6c" transform="translate(115.076172 0)"/>
      <use xlink:href="#DejaVuSans-64" transform="translate(142.859375 0)"/>
      <use xlink:href="#DejaVuSans-20" transform="translate(206.335938 0)"/>
      <use xlink:href="#DejaVuSans-45" transform="translate(238.123047 0)"/>
      <use xlink:href="#DejaVuSans-6e" transform="translate(301.306641 0)"/>
      <use xlink:href="#DejaVuSans-72" transform="translate(364.685547 0)"/>
      <use xlink:href="#DejaVuSans-69" transform="translate(405.798828 0)"/>
      <use xlink:href="#DejaVuSans-63" transform="translate(433.582031 0)"/>
      <use xlink:href="#DejaVuSans-68" transform="translate(488.5625 0)"/>
      <use xlink:href="#DejaVuSans-6d" transform="translate(551.941406 0)"/>
      <use xlink:href="#DejaVuSans-65" transform="translate(649.353516 0)"/>
      <use xlink:href="#DejaVuSans-6e" transform="translate(710.876953 0)"/>
      <use xlink:href="#DejaVuSans-74" transform="translate(774.255859 0)"/>
     </g>
    </g>
   </g>
   <g id="matplotlib.axis_2">
    <g id="ytick_1">
     <g id="line2d_7">
      <defs>
       <path id="m65511a3dff" d="M 0 0 
L -3.5 0 
" style="stroke: #000000; stroke-width: 0.8"/>
      </defs>
      <g>
       <use xlink:href="#m65511a3dff" x="378.05" y="34.414125" style="stroke: #000000; stroke-width: 0.8"/>
      </g>
     </g>
     <g id="text_8">
      <!-- ubiquitin conjugating enzyme complex -->
      <g transform="translate(176.6875 38.213344) scale(0.1 -0.1)">
       <defs>
        <path id="DejaVuSans-75" d="M 544 1381 
L 544 3500 
L 1119 3500 
L 1119 1403 
Q 1119 906 1312 657 
Q 1506 409 1894 409 
Q 2359 409 2629 706 
Q 2900 1003 2900 1516 
L 2900 3500 
L 3475 3500 
L 3475 0 
L 2900 0 
L 2900 538 
Q 2691 219 2414 64 
Q 2138 -91 1772 -91 
Q 1169 -91 856 284 
Q 544 659 544 1381 
z
M 1991 3584 
L 1991 3584 
z
" transform="scale(0.015625)"/>
        <path id="DejaVuSans-62" d="M 3116 1747 
Q 3116 2381 2855 2742 
Q 2594 3103 2138 3103 
Q 1681 3103 1420 2742 
Q 1159 2381 1159 1747 
Q 1159 1113 1420 752 
Q 1681 391 2138 391 
Q 2594 391 2855 752 
Q 3116 1113 3116 1747 
z
M 1159 2969 
Q 1341 3281 1617 3432 
Q 1894 3584 2278 3584 
Q 2916 3584 3314 3078 
Q 3713 2572 3713 1747 
Q 3713 922 3314 415 
Q 2916 -91 2278 -91 
Q 1894 -91 1617 61 
Q 1341 213 1159 525 
L 1159 0 
L 581 0 
L 581 4863 
L 1159 4863 
L 1159 2969 
z
" transform="scale(0.015625)"/>
        <path id="DejaVuSans-71" d="M 947 1747 
Q 947 1113 1208 752 
Q 1469 391 1925 391 
Q 2381 391 2643 752 
Q 2906 1113 2906 1747 
Q 2906 2381 2643 2742 
Q 2381 3103 1925 3103 
Q 1469 3103 1208 2742 
Q 947 2381 947 1747 
z
M 2906 525 
Q 2725 213 2448 61 
Q 2172 -91 1784 -91 
Q 1150 -91 751 415 
Q 353 922 353 1747 
Q 353 2572 751 3078 
Q 1150 3584 1784 3584 
Q 2172 3584 2448 3432 
Q 2725 3281 2906 2969 
L 2906 3500 
L 3481 3500 
L 3481 -1331 
L 2906 -1331 
L 2906 525 
z
" transform="scale(0.015625)"/>
        <path id="DejaVuSans-6a" d="M 603 3500 
L 1178 3500 
L 1178 -63 
Q 1178 -731 923 -1031 
Q 669 -1331 103 -1331 
L -116 -1331 
L -116 -844 
L 38 -844 
Q 366 -844 484 -692 
Q 603 -541 603 -63 
L 603 3500 
z
M 603 4863 
L 1178 4863 
L 1178 4134 
L 603 4134 
L 603 4863 
z
" transform="scale(0.015625)"/>
        <path id="DejaVuSans-67" d="M 2906 1791 
Q 2906 2416 2648 2759 
Q 2391 3103 1925 3103 
Q 1463 3103 1205 2759 
Q 947 2416 947 1791 
Q 947 1169 1205 825 
Q 1463 481 1925 481 
Q 2391 481 2648 825 
Q 2906 1169 2906 1791 
z
M 3481 434 
Q 3481 -459 3084 -895 
Q 2688 -1331 1869 -1331 
Q 1566 -1331 1297 -1286 
Q 1028 -1241 775 -1147 
L 775 -588 
Q 1028 -725 1275 -790 
Q 1522 -856 1778 -856 
Q 2344 -856 2625 -561 
Q 2906 -266 2906 331 
L 2906 616 
Q 2728 306 2450 153 
Q 2172 0 1784 0 
Q 1141 0 747 490 
Q 353 981 353 1791 
Q 353 2603 747 3093 
Q 1141 3584 1784 3584 
Q 2172 3584 2450 3431 
Q 2728 3278 2906 2969 
L 2906 3500 
L 3481 3500 
L 3481 434 
z
" transform="scale(0.015625)"/>
        <path id="DejaVuSans-61" d="M 2194 1759 
Q 1497 1759 1228 1600 
Q 959 1441 959 1056 
Q 959 750 1161 570 
Q 1363 391 1709 391 
Q 2188 391 2477 730 
Q 2766 1069 2766 1631 
L 2766 1759 
L 2194 1759 
z
M 3341 1997 
L 3341 0 
L 2766 0 
L 2766 531 
Q 2569 213 2275 61 
Q 1981 -91 1556 -91 
Q 1019 -91 701 211 
Q 384 513 384 1019 
Q 384 1609 779 1909 
Q 1175 2209 1959 2209 
L 2766 2209 
L 2766 2266 
Q 2766 2663 2505 2880 
Q 2244 3097 1772 3097 
Q 1472 3097 1187 3025 
Q 903 2953 641 2809 
L 641 3341 
Q 956 3463 1253 3523 
Q 1550 3584 1831 3584 
Q 2591 3584 2966 3190 
Q 3341 2797 3341 1997 
z
" transform="scale(0.015625)"/>
        <path id="DejaVuSans-7a" d="M 353 3500 
L 3084 3500 
L 3084 2975 
L 922 459 
L 3084 459 
L 3084 0 
L 275 0 
L 275 525 
L 2438 3041 
L 353 3041 
L 353 3500 
z
" transform="scale(0.015625)"/>
        <path id="DejaVuSans-79" d="M 2059 -325 
Q 1816 -950 1584 -1140 
Q 1353 -1331 966 -1331 
L 506 -1331 
L 506 -850 
L 844 -850 
Q 1081 -850 1212 -737 
Q 1344 -625 1503 -206 
L 1606 56 
L 191 3500 
L 800 3500 
L 1894 763 
L 2988 3500 
L 3597 3500 
L 2059 -325 
z
" transform="scale(0.015625)"/>
        <path id="DejaVuSans-70" d="M 1159 525 
L 1159 -1331 
L 581 -1331 
L 581 3500 
L 1159 3500 
L 1159 2969 
Q 1341 3281 1617 3432 
Q 1894 3584 2278 3584 
Q 2916 3584 3314 3078 
Q 3713 2572 3713 1747 
Q 3713 922 3314 415 
Q 2916 -91 2278 -91 
Q 1894 -91 1617 61 
Q 1341 213 1159 525 
z
M 3116 1747 
Q 3116 2381 2855 2742 
Q 2594 3103 2138 3103 
Q 1681 3103 1420 2742 
Q 1159 2381 1159 1747 
Q 1159 1113 1420 752 
Q 1681 391 2138 391 
Q 2594 391 2855 752 
Q 3116 1113 3116 1747 
z
" transform="scale(0.015625)"/>
        <path id="DejaVuSans-78" d="M 3513 3500 
L 2247 1797 
L 3578 0 
L 2900 0 
L 1881 1375 
L 863 0 
L 184 0 
L 1544 1831 
L 300 3500 
L 978 3500 
L 1906 2253 
L 2834 3500 
L 3513 3500 
z
" transform="scale(0.015625)"/>
       </defs>
       <use xlink:href="#DejaVuSans-75"/>
       <use xlink:href="#DejaVuSans-62" transform="translate(63.378906 0)"/>
       <use xlink:href="#DejaVuSans-69" transform="translate(126.855469 0)"/>
       <use xlink:href="#DejaVuSans-71" transform="translate(154.638672 0)"/>
       <use xlink:href="#DejaVuSans-75" transform="translate(218.115234 0)"/>
       <use xlink:href="#DejaVuSans-69" transform="translate(281.494141 0)"/>
       <use xlink:href="#DejaVuSans-74" transform="translate(309.277344 0)"/>
       <use xlink:href="#DejaVuSans-69" transform="translate(348.486328 0)"/>
       <use xlink:href="#DejaVuSans-6e" transform="translate(376.269531 0)"/>
       <use xlink:href="#DejaVuSans-20" transform="translate(439.648438 0)"/>
       <use xlink:href="#DejaVuSans-63" transform="translate(471.435547 0)"/>
       <use xlink:href="#DejaVuSans-6f" transform="translate(526.416016 0)"/>
       <use xlink:href="#DejaVuSans-6e" transform="translate(587.597656 0)"/>
       <use xlink:href="#DejaVuSans-6a" transform="translate(650.976562 0)"/>
       <use xlink:href="#DejaVuSans-75" transform="translate(678.759766 0)"/>
       <use xlink:href="#DejaVuSans-67" transform="translate(742.138672 0)"/>
       <use xlink:href="#DejaVuSans-61" transform="translate(805.615234 0)"/>
       <use xlink:href="#DejaVuSans-74" transform="translate(866.894531 0)"/>
       <use xlink:href="#DejaVuSans-69" transform="translate(906.103516 0)"/>
       <use xlink:href="#DejaVuSans-6e" transform="translate(933.886719 0)"/>
       <use xlink:href="#DejaVuSans-67" transform="translate(997.265625 0)"/>
       <use xlink:href="#DejaVuSans-20" transform="translate(1060.742188 0)"/>
       <use xlink:href="#DejaVuSans-65" transform="translate(1092.529297 0)"/>
       <use xlink:href="#DejaVuSans-6e" transform="translate(1154.052734 0)"/>
       <use xlink:href="#DejaVuSans-7a" transform="translate(1217.431641 0)"/>
       <use xlink:href="#DejaVuSans-79" transform="translate(1269.921875 0)"/>
       <use xlink:href="#DejaVuSans-6d" transform="translate(1329.101562 0)"/>
       <use xlink:href="#DejaVuSans-65" transform="translate(1426.513672 0)"/>
       <use xlink:href="#DejaVuSans-20" transform="translate(1488.037109 0)"/>
       <use xlink:href="#DejaVuSans-63" transform="translate(1519.824219 0)"/>
       <use xlink:href="#DejaVuSans-6f" transform="translate(1574.804688 0)"/>
       <use xlink:href="#DejaVuSans-6d" transform="translate(1635.986328 0)"/>
       <use xlink:href="#DejaVuSans-70" transform="translate(1733.398438 0)"/>
       <use xlink:href="#DejaVuSans-6c" transform="translate(1796.875 0)"/>
       <use xlink:href="#DejaVuSans-65" transform="translate(1824.658203 0)"/>
       <use xlink:href="#DejaVuSans-78" transform="translate(1884.431641 0)"/>
      </g>
     </g>
    </g>
    <g id="ytick_2">
     <g id="line2d_8">
      <g>
       <use xlink:href="#m65511a3dff" x="378.05" y="47.146757" style="stroke: #000000; stroke-width: 0.8"/>
      </g>
     </g>
     <g id="text_9">
      <!-- clathrin-sculpted gamma-aminobutyric acid transport vesicle membrane -->
      <g transform="translate(7.2 50.945975) scale(0.1 -0.1)">
       <defs>
        <path id="DejaVuSans-2d" d="M 313 2009 
L 1997 2009 
L 1997 1497 
L 313 1497 
L 313 2009 
z
" transform="scale(0.015625)"/>
        <path id="DejaVuSans-73" d="M 2834 3397 
L 2834 2853 
Q 2591 2978 2328 3040 
Q 2066 3103 1784 3103 
Q 1356 3103 1142 2972 
Q 928 2841 928 2578 
Q 928 2378 1081 2264 
Q 1234 2150 1697 2047 
L 1894 2003 
Q 2506 1872 2764 1633 
Q 3022 1394 3022 966 
Q 3022 478 2636 193 
Q 2250 -91 1575 -91 
Q 1294 -91 989 -36 
Q 684 19 347 128 
L 347 722 
Q 666 556 975 473 
Q 1284 391 1588 391 
Q 1994 391 2212 530 
Q 2431 669 2431 922 
Q 2431 1156 2273 1281 
Q 2116 1406 1581 1522 
L 1381 1569 
Q 847 1681 609 1914 
Q 372 2147 372 2553 
Q 372 3047 722 3315 
Q 1072 3584 1716 3584 
Q 2034 3584 2315 3537 
Q 2597 3491 2834 3397 
z
" transform="scale(0.015625)"/>
        <path id="DejaVuSans-76" d="M 191 3500 
L 800 3500 
L 1894 563 
L 2988 3500 
L 3597 3500 
L 2284 0 
L 1503 0 
L 191 3500 
z
" transform="scale(0.015625)"/>
       </defs>
       <use xlink:href="#DejaVuSans-63"/>
       <use xlink:href="#DejaVuSans-6c" transform="translate(54.980469 0)"/>
       <use xlink:href="#DejaVuSans-61" transform="translate(82.763672 0)"/>
       <use xlink:href="#DejaVuSans-74" transform="translate(144.042969 0)"/>
       <use xlink:href="#DejaVuSans-68" transform="translate(183.251953 0)"/>
       <use xlink:href="#DejaVuSans-72" transform="translate(246.630859 0)"/>
       <use xlink:href="#DejaVuSans-69" transform="translate(287.744141 0)"/>
       <use xlink:href="#DejaVuSans-6e" transform="translate(315.527344 0)"/>
       <use xlink:href="#DejaVuSans-2d" transform="translate(378.90625 0)"/>
       <use xlink:href="#DejaVuSans-73" transform="translate(414.990234 0)"/>
       <use xlink:href="#DejaVuSans-63" transform="translate(467.089844 0)"/>
       <use xlink:href="#DejaVuSans-75" transform="translate(522.070312 0)"/>
       <use xlink:href="#DejaVuSans-6c" transform="translate(585.449219 0)"/>
       <use xlink:href="#DejaVuSans-70" transform="translate(613.232422 0)"/>
       <use xlink:href="#DejaVuSans-74" transform="translate(676.708984 0)"/>
       <use xlink:href="#DejaVuSans-65" transform="translate(715.917969 0)"/>
       <use xlink:href="#DejaVuSans-64" transform="translate(777.441406 0)"/>
       <use xlink:href="#DejaVuSans-20" transform="translate(840.917969 0)"/>
       <use xlink:href="#DejaVuSans-67" transform="translate(872.705078 0)"/>
       <use xlink:href="#DejaVuSans-61" transform="translate(936.181641 0)"/>
       <use xlink:href="#DejaVuSans-6d" transform="translate(997.460938 0)"/>
       <use xlink:href="#DejaVuSans-6d" transform="translate(1094.873047 0)"/>
       <use xlink:href="#DejaVuSans-61" transform="translate(1192.285156 0)"/>
       <use xlink:href="#DejaVuSans-2d" transform="translate(1253.564453 0)"/>
       <use xlink:href="#DejaVuSans-61" transform="translate(1289.648438 0)"/>
       <use xlink:href="#DejaVuSans-6d" transform="translate(1350.927734 0)"/>
       <use xlink:href="#DejaVuSans-69" transform="translate(1448.339844 0)"/>
       <use xlink:href="#DejaVuSans-6e" transform="translate(1476.123047 0)"/>
       <use xlink:href="#DejaVuSans-6f" transform="translate(1539.501953 0)"/>
       <use xlink:href="#DejaVuSans-62" transform="translate(1600.683594 0)"/>
       <use xlink:href="#DejaVuSans-75" transform="translate(1664.160156 0)"/>
       <use xlink:href="#DejaVuSans-74" transform="translate(1727.539062 0)"/>
       <use xlink:href="#DejaVuSans-79" transform="translate(1766.748047 0)"/>
       <use xlink:href="#DejaVuSans-72" transform="translate(1825.927734 0)"/>
       <use xlink:href="#DejaVuSans-69" transform="translate(1867.041016 0)"/>
       <use xlink:href="#DejaVuSans-63" transform="translate(1894.824219 0)"/>
       <use xlink:href="#DejaVuSans-20" transform="translate(1949.804688 0)"/>
       <use xlink:href="#DejaVuSans-61" transform="translate(1981.591797 0)"/>
       <use xlink:href="#DejaVuSans-63" transform="translate(2042.871094 0)"/>
       <use xlink:href="#DejaVuSans-69" transform="translate(2097.851562 0)"/>
       <use xlink:href="#DejaVuSans-64" transform="translate(2125.634766 0)"/>
       <use xlink:href="#DejaVuSans-20" transform="translate(2189.111328 0)"/>
       <use xlink:href="#DejaVuSans-74" transform="translate(2220.898438 0)"/>
       <use xlink:href="#DejaVuSans-72" transform="translate(2260.107422 0)"/>
       <use xlink:href="#DejaVuSans-61" transform="translate(2301.220703 0)"/>
       <use xlink:href="#DejaVuSans-6e" transform="translate(2362.5 0)"/>
       <use xlink:href="#DejaVuSans-73" transform="translate(2425.878906 0)"/>
       <use xlink:href="#DejaVuSans-70" transform="translate(2477.978516 0)"/>
       <use xlink:href="#DejaVuSans-6f" transform="translate(2541.455078 0)"/>
       <use xlink:href="#DejaVuSans-72" transform="translate(2602.636719 0)"/>
       <use xlink:href="#DejaVuSans-74" transform="translate(2643.75 0)"/>
       <use xlink:href="#DejaVuSans-20" transform="translate(2682.958984 0)"/>
       <use xlink:href="#DejaVuSans-76" transform="translate(2714.746094 0)"/>
       <use xlink:href="#DejaVuSans-65" transform="translate(2773.925781 0)"/>
       <use xlink:href="#DejaVuSans-73" transform="translate(2835.449219 0)"/>
       <use xlink:href="#DejaVuSans-69" transform="translate(2887.548828 0)"/>
       <use xlink:href="#DejaVuSans-63" transform="translate(2915.332031 0)"/>
       <use xlink:href="#DejaVuSans-6c" transform="translate(2970.3125 0)"/>
       <use xlink:href="#DejaVuSans-65" transform="translate(2998.095703 0)"/>
       <use xlink:href="#DejaVuSans-20" transform="translate(3059.619141 0)"/>
       <use xlink:href="#DejaVuSans-6d" transform="translate(3091.40625 0)"/>
       <use xlink:href="#DejaVuSans-65" transform="translate(3188.818359 0)"/>
       <use xlink:href="#DejaVuSans-6d" transform="translate(3250.341797 0)"/>
       <use xlink:href="#DejaVuSans-62" transform="translate(3347.753906 0)"/>
       <use xlink:href="#DejaVuSans-72" transform="translate(3411.230469 0)"/>
       <use xlink:href="#DejaVuSans-61" transform="translate(3452.34375 0)"/>
       <use xlink:href="#DejaVuSans-6e" transform="translate(3513.623047 0)"/>
       <use xlink:href="#DejaVuSans-65" transform="translate(3577.001953 0)"/>
      </g>
     </g>
    </g>
    <g id="ytick_3">
     <g id="line2d_9">
      <g>
       <use xlink:href="#m65511a3dff" x="378.05" y="59.879388" style="stroke: #000000; stroke-width: 0.8"/>
      </g>
     </g>
     <g id="text_10">
      <!-- septin complex -->
      <g transform="translate(294.74375 63.678607) scale(0.1 -0.1)">
       <use xlink:href="#DejaVuSans-73"/>
       <use xlink:href="#DejaVuSans-65" transform="translate(52.099609 0)"/>
       <use xlink:href="#DejaVuSans-70" transform="translate(113.623047 0)"/>
       <use xlink:href="#DejaVuSans-74" transform="translate(177.099609 0)"/>
       <use xlink:href="#DejaVuSans-69" transform="translate(216.308594 0)"/>
       <use xlink:href="#DejaVuSans-6e" transform="translate(244.091797 0)"/>
       <use xlink:href="#DejaVuSans-20" transform="translate(307.470703 0)"/>
       <use xlink:href="#DejaVuSans-63" transform="translate(339.257812 0)"/>
       <use xlink:href="#DejaVuSans-6f" transform="translate(394.238281 0)"/>
       <use xlink:href="#DejaVuSans-6d" transform="translate(455.419922 0)"/>
       <use xlink:href="#DejaVuSans-70" transform="translate(552.832031 0)"/>
       <use xlink:href="#DejaVuSans-6c" transform="translate(616.308594 0)"/>
       <use xlink:href="#DejaVuSans-65" transform="translate(644.091797 0)"/>
       <use xlink:href="#DejaVuSans-78" transform="translate(703.865234 0)"/>
      </g>
     </g>
    </g>
    <g id="ytick_4">
     <g id="line2d_10">
      <g>
       <use xlink:href="#m65511a3dff" x="378.05" y="72.61202" style="stroke: #000000; stroke-width: 0.8"/>
      </g>
     </g>
     <g id="text_11">
      <!-- septin ring -->
      <g transform="translate(317.55 76.411238) scale(0.1 -0.1)">
       <use xlink:href="#DejaVuSans-73"/>
       <use xlink:href="#DejaVuSans-65" transform="translate(52.099609 0)"/>
       <use xlink:href="#DejaVuSans-70" transform="translate(113.623047 0)"/>
       <use xlink:href="#DejaVuSans-74" transform="translate(177.099609 0)"/>
       <use xlink:href="#DejaVuSans-69" transform="translate(216.308594 0)"/>
       <use xlink:href="#DejaVuSans-6e" transform="translate(244.091797 0)"/>
       <use xlink:href="#DejaVuSans-20" transform="translate(307.470703 0)"/>
       <use xlink:href="#DejaVuSans-72" transform="translate(339.257812 0)"/>
       <use xlink:href="#DejaVuSans-69" transform="translate(380.371094 0)"/>
       <use xlink:href="#DejaVuSans-6e" transform="translate(408.154297 0)"/>
       <use xlink:href="#DejaVuSans-67" transform="translate(471.533203 0)"/>
      </g>
     </g>
    </g>
    <g id="ytick_5">
     <g id="line2d_11">
      <g>
       <use xlink:href="#m65511a3dff" x="378.05" y="85.344651" style="stroke: #000000; stroke-width: 0.8"/>
      </g>
     </g>
     <g id="text_12">
      <!-- proton-transporting V-type ATPase complex -->
      <g transform="translate(153.682813 89.14387) scale(0.1 -0.1)">
       <defs>
        <path id="DejaVuSans-56" d="M 1831 0 
L 50 4666 
L 709 4666 
L 2188 738 
L 3669 4666 
L 4325 4666 
L 2547 0 
L 1831 0 
z
" transform="scale(0.015625)"/>
        <path id="DejaVuSans-41" d="M 2188 4044 
L 1331 1722 
L 3047 1722 
L 2188 4044 
z
M 1831 4666 
L 2547 4666 
L 4325 0 
L 3669 0 
L 3244 1197 
L 1141 1197 
L 716 0 
L 50 0 
L 1831 4666 
z
" transform="scale(0.015625)"/>
        <path id="DejaVuSans-54" d="M -19 4666 
L 3928 4666 
L 3928 4134 
L 2272 4134 
L 2272 0 
L 1638 0 
L 1638 4134 
L -19 4134 
L -19 4666 
z
" transform="scale(0.015625)"/>
        <path id="DejaVuSans-50" d="M 1259 4147 
L 1259 2394 
L 2053 2394 
Q 2494 2394 2734 2622 
Q 2975 2850 2975 3272 
Q 2975 3691 2734 3919 
Q 2494 4147 2053 4147 
L 1259 4147 
z
M 628 4666 
L 2053 4666 
Q 2838 4666 3239 4311 
Q 3641 3956 3641 3272 
Q 3641 2581 3239 2228 
Q 2838 1875 2053 1875 
L 1259 1875 
L 1259 0 
L 628 0 
L 628 4666 
z
" transform="scale(0.015625)"/>
       </defs>
       <use xlink:href="#DejaVuSans-70"/>
       <use xlink:href="#DejaVuSans-72" transform="translate(63.476562 0)"/>
       <use xlink:href="#DejaVuSans-6f" transform="translate(102.339844 0)"/>
       <use xlink:href="#DejaVuSans-74" transform="translate(163.521484 0)"/>
       <use xlink:href="#DejaVuSans-6f" transform="translate(202.730469 0)"/>
       <use xlink:href="#DejaVuSans-6e" transform="translate(263.912109 0)"/>
       <use xlink:href="#DejaVuSans-2d" transform="translate(327.291016 0)"/>
       <use xlink:href="#DejaVuSans-74" transform="translate(363.375 0)"/>
       <use xlink:href="#DejaVuSans-72" transform="translate(402.583984 0)"/>
       <use xlink:href="#DejaVuSans-61" transform="translate(443.697266 0)"/>
       <use xlink:href="#DejaVuSans-6e" transform="translate(504.976562 0)"/>
       <use xlink:href="#DejaVuSans-73" transform="translate(568.355469 0)"/>
       <use xlink:href="#DejaVuSans-70" transform="translate(620.455078 0)"/>
       <use xlink:href="#DejaVuSans-6f" transform="translate(683.931641 0)"/>
       <use xlink:href="#DejaVuSans-72" transform="translate(745.113281 0)"/>
       <use xlink:href="#DejaVuSans-74" transform="translate(786.226562 0)"/>
       <use xlink:href="#DejaVuSans-69" transform="translate(825.435547 0)"/>
       <use xlink:href="#DejaVuSans-6e" transform="translate(853.21875 0)"/>
       <use xlink:href="#DejaVuSans-67" transform="translate(916.597656 0)"/>
       <use xlink:href="#DejaVuSans-20" transform="translate(980.074219 0)"/>
       <use xlink:href="#DejaVuSans-56" transform="translate(1011.861328 0)"/>
       <use xlink:href="#DejaVuSans-2d" transform="translate(1074.394531 0)"/>
       <use xlink:href="#DejaVuSans-74" transform="translate(1110.478516 0)"/>
       <use xlink:href="#DejaVuSans-79" transform="translate(1149.6875 0)"/>
       <use xlink:href="#DejaVuSans-70" transform="translate(1208.867188 0)"/>
       <use xlink:href="#DejaVuSans-65" transform="translate(1272.34375 0)"/>
       <use xlink:href="#DejaVuSans-20" transform="translate(1333.867188 0)"/>
       <use xlink:href="#DejaVuSans-41" transform="translate(1365.654297 0)"/>
       <use xlink:href="#DejaVuSans-54" transform="translate(1426.3125 0)"/>
       <use xlink:href="#DejaVuSans-50" transform="translate(1487.396484 0)"/>
       <use xlink:href="#DejaVuSans-61" transform="translate(1543.199219 0)"/>
       <use xlink:href="#DejaVuSans-73" transform="translate(1604.478516 0)"/>
       <use xlink:href="#DejaVuSans-65" transform="translate(1656.578125 0)"/>
       <use xlink:href="#DejaVuSans-20" transform="translate(1718.101562 0)"/>
       <use xlink:href="#DejaVuSans-63" transform="translate(1749.888672 0)"/>
       <use xlink:href="#DejaVuSans-6f" transform="translate(1804.869141 0)"/>
       <use xlink:href="#DejaVuSans-6d" transform="translate(1866.050781 0)"/>
       <use xlink:href="#DejaVuSans-70" transform="translate(1963.462891 0)"/>
       <use xlink:href="#DejaVuSans-6c" transform="translate(2026.939453 0)"/>
       <use xlink:href="#DejaVuSans-65" transform="translate(2054.722656 0)"/>
       <use xlink:href="#DejaVuSans-78" transform="translate(2114.496094 0)"/>
      </g>
     </g>
    </g>
    <g id="ytick_6">
     <g id="line2d_12">
      <g>
       <use xlink:href="#m65511a3dff" x="378.05" y="98.077283" style="stroke: #000000; stroke-width: 0.8"/>
      </g>
     </g>
     <g id="text_13">
      <!-- cell division site -->
      <g transform="translate(291.157812 101.876502) scale(0.1 -0.1)">
       <use xlink:href="#DejaVuSans-63"/>
       <use xlink:href="#DejaVuSans-65" transform="translate(54.980469 0)"/>
       <use xlink:href="#DejaVuSans-6c" transform="translate(116.503906 0)"/>
       <use xlink:href="#DejaVuSans-6c" transform="translate(144.287109 0)"/>
       <use xlink:href="#DejaVuSans-20" transform="translate(172.070312 0)"/>
       <use xlink:href="#DejaVuSans-64" transform="translate(203.857422 0)"/>
       <use xlink:href="#DejaVuSans-69" transform="translate(267.333984 0)"/>
       <use xlink:href="#DejaVuSans-76" transform="translate(295.117188 0)"/>
       <use xlink:href="#DejaVuSans-69" transform="translate(354.296875 0)"/>
       <use xlink:href="#DejaVuSans-73" transform="translate(382.080078 0)"/>
       <use xlink:href="#DejaVuSans-69" transform="translate(434.179688 0)"/>
       <use xlink:href="#DejaVuSans-6f" transform="translate(461.962891 0)"/>
       <use xlink:href="#DejaVuSans-6e" transform="translate(523.144531 0)"/>
       <use xlink:href="#DejaVuSans-20" transform="translate(586.523438 0)"/>
       <use xlink:href="#DejaVuSans-73" transform="translate(618.310547 0)"/>
       <use xlink:href="#DejaVuSans-69" transform="translate(670.410156 0)"/>
       <use xlink:href="#DejaVuSans-74" transform="translate(698.193359 0)"/>
       <use xlink:href="#DejaVuSans-65" transform="translate(737.402344 0)"/>
      </g>
     </g>
    </g>
    <g id="ytick_7">
     <g id="line2d_13">
      <g>
       <use xlink:href="#m65511a3dff" x="378.05" y="110.809914" style="stroke: #000000; stroke-width: 0.8"/>
      </g>
     </g>
     <g id="text_14">
      <!-- clathrin-coated vesicle membrane -->
      <g transform="translate(199.828125 114.609133) scale(0.1 -0.1)">
       <use xlink:href="#DejaVuSans-63"/>
       <use xlink:href="#DejaVuSans-6c" transform="translate(54.980469 0)"/>
       <use xlink:href="#DejaVuSans-61" transform="translate(82.763672 0)"/>
       <use xlink:href="#DejaVuSans-74" transform="translate(144.042969 0)"/>
       <use xlink:href="#DejaVuSans-68" transform="translate(183.251953 0)"/>
       <use xlink:href="#DejaVuSans-72" transform="translate(246.630859 0)"/>
       <use xlink:href="#DejaVuSans-69" transform="translate(287.744141 0)"/>
       <use xlink:href="#DejaVuSans-6e" transform="translate(315.527344 0)"/>
       <use xlink:href="#DejaVuSans-2d" transform="translate(378.90625 0)"/>
       <use xlink:href="#DejaVuSans-63" transform="translate(414.990234 0)"/>
       <use xlink:href="#DejaVuSans-6f" transform="translate(469.970703 0)"/>
       <use xlink:href="#DejaVuSans-61" transform="translate(531.152344 0)"/>
       <use xlink:href="#DejaVuSans-74" transform="translate(592.431641 0)"/>
       <use xlink:href="#DejaVuSans-65" transform="translate(631.640625 0)"/>
       <use xlink:href="#DejaVuSans-64" transform="translate(693.164062 0)"/>
       <use xlink:href="#DejaVuSans-20" transform="translate(756.640625 0)"/>
       <use xlink:href="#DejaVuSans-76" transform="translate(788.427734 0)"/>
       <use xlink:href="#DejaVuSans-65" transform="translate(847.607422 0)"/>
       <use xlink:href="#DejaVuSans-73" transform="translate(909.130859 0)"/>
       <use xlink:href="#DejaVuSans-69" transform="translate(961.230469 0)"/>
       <use xlink:href="#DejaVuSans-63" transform="translate(989.013672 0)"/>
       <use xlink:href="#DejaVuSans-6c" transform="translate(1043.994141 0)"/>
       <use xlink:href="#DejaVuSans-65" transform="translate(1071.777344 0)"/>
       <use xlink:href="#DejaVuSans-20" transform="translate(1133.300781 0)"/>
       <use xlink:href="#DejaVuSans-6d" transform="translate(1165.087891 0)"/>
       <use xlink:href="#DejaVuSans-65" transform="translate(1262.5 0)"/>
       <use xlink:href="#DejaVuSans-6d" transform="translate(1324.023438 0)"/>
       <use xlink:href="#DejaVuSans-62" transform="translate(1421.435547 0)"/>
       <use xlink:href="#DejaVuSans-72" transform="translate(1484.912109 0)"/>
       <use xlink:href="#DejaVuSans-61" transform="translate(1526.025391 0)"/>
       <use xlink:href="#DejaVuSans-6e" transform="translate(1587.304688 0)"/>
       <use xlink:href="#DejaVuSans-65" transform="translate(1650.683594 0)"/>
      </g>
     </g>
    </g>
    <g id="ytick_8">
     <g id="line2d_14">
      <g>
       <use xlink:href="#m65511a3dff" x="378.05" y="123.542546" style="stroke: #000000; stroke-width: 0.8"/>
      </g>
     </g>
     <g id="text_15">
      <!-- microtubule associated complex -->
      <g transform="translate(208.923438 127.341765) scale(0.1 -0.1)">
       <use xlink:href="#DejaVuSans-6d"/>
       <use xlink:href="#DejaVuSans-69" transform="translate(97.412109 0)"/>
       <use xlink:href="#DejaVuSans-63" transform="translate(125.195312 0)"/>
       <use xlink:href="#DejaVuSans-72" transform="translate(180.175781 0)"/>
       <use xlink:href="#DejaVuSans-6f" transform="translate(219.039062 0)"/>
       <use xlink:href="#DejaVuSans-74" transform="translate(280.220703 0)"/>
       <use xlink:href="#DejaVuSans-75" transform="translate(319.429688 0)"/>
       <use xlink:href="#DejaVuSans-62" transform="translate(382.808594 0)"/>
       <use xlink:href="#DejaVuSans-75" transform="translate(446.285156 0)"/>
       <use xlink:href="#DejaVuSans-6c" transform="translate(509.664062 0)"/>
       <use xlink:href="#DejaVuSans-65" transform="translate(537.447266 0)"/>
       <use xlink:href="#DejaVuSans-20" transform="translate(598.970703 0)"/>
       <use xlink:href="#DejaVuSans-61" transform="translate(630.757812 0)"/>
       <use xlink:href="#DejaVuSans-73" transform="translate(692.037109 0)"/>
       <use xlink:href="#DejaVuSans-73" transform="translate(744.136719 0)"/>
       <use xlink:href="#DejaVuSans-6f" transform="translate(796.236328 0)"/>
       <use xlink:href="#DejaVuSans-63" transform="translate(857.417969 0)"/>
       <use xlink:href="#DejaVuSans-69" transform="translate(912.398438 0)"/>
       <use xlink:href="#DejaVuSans-61" transform="translate(940.181641 0)"/>
       <use xlink:href="#DejaVuSans-74" transform="translate(1001.460938 0)"/>
       <use xlink:href="#DejaVuSans-65" transform="translate(1040.669922 0)"/>
       <use xlink:href="#DejaVuSans-64" transform="translate(1102.193359 0)"/>
       <use xlink:href="#DejaVuSans-20" transform="translate(1165.669922 0)"/>
       <use xlink:href="#DejaVuSans-63" transform="translate(1197.457031 0)"/>
       <use xlink:href="#DejaVuSans-6f" transform="translate(1252.4375 0)"/>
       <use xlink:href="#DejaVuSans-6d" transform="translate(1313.619141 0)"/>
       <use xlink:href="#DejaVuSans-70" transform="translate(1411.03125 0)"/>
       <use xlink:href="#DejaVuSans-6c" transform="translate(1474.507812 0)"/>
       <use xlink:href="#DejaVuSans-65" transform="translate(1502.291016 0)"/>
       <use xlink:href="#DejaVuSans-78" transform="translate(1562.064453 0)"/>
      </g>
     </g>
    </g>
    <g id="ytick_9">
     <g id="line2d_15">
      <g>
       <use xlink:href="#m65511a3dff" x="378.05" y="136.275178" style="stroke: #000000; stroke-width: 0.8"/>
      </g>
     </g>
     <g id="text_16">
      <!-- synaptic vesicle membrane -->
      <g transform="translate(233.353125 140.074396) scale(0.1 -0.1)">
       <use xlink:href="#DejaVuSans-73"/>
       <use xlink:href="#DejaVuSans-79" transform="translate(52.099609 0)"/>
       <use xlink:href="#DejaVuSans-6e" transform="translate(111.279297 0)"/>
       <use xlink:href="#DejaVuSans-61" transform="translate(174.658203 0)"/>
       <use xlink:href="#DejaVuSans-70" transform="translate(235.9375 0)"/>
       <use xlink:href="#DejaVuSans-74" transform="translate(299.414062 0)"/>
       <use xlink:href="#DejaVuSans-69" transform="translate(338.623047 0)"/>
       <use xlink:href="#DejaVuSans-63" transform="translate(366.40625 0)"/>
       <use xlink:href="#DejaVuSans-20" transform="translate(421.386719 0)"/>
       <use xlink:href="#DejaVuSans-76" transform="translate(453.173828 0)"/>
       <use xlink:href="#DejaVuSans-65" transform="translate(512.353516 0)"/>
       <use xlink:href="#DejaVuSans-73" transform="translate(573.876953 0)"/>
       <use xlink:href="#DejaVuSans-69" transform="translate(625.976562 0)"/>
       <use xlink:href="#DejaVuSans-63" transform="translate(653.759766 0)"/>
       <use xlink:href="#DejaVuSans-6c" transform="translate(708.740234 0)"/>
       <use xlink:href="#DejaVuSans-65" transform="translate(736.523438 0)"/>
       <use xlink:href="#DejaVuSans-20" transform="translate(798.046875 0)"/>
       <use xlink:href="#DejaVuSans-6d" transform="translate(829.833984 0)"/>
       <use xlink:href="#DejaVuSans-65" transform="translate(927.246094 0)"/>
       <use xlink:href="#DejaVuSans-6d" transform="translate(988.769531 0)"/>
       <use xlink:href="#DejaVuSans-62" transform="translate(1086.181641 0)"/>
       <use xlink:href="#DejaVuSans-72" transform="translate(1149.658203 0)"/>
       <use xlink:href="#DejaVuSans-61" transform="translate(1190.771484 0)"/>
       <use xlink:href="#DejaVuSans-6e" transform="translate(1252.050781 0)"/>
       <use xlink:href="#DejaVuSans-65" transform="translate(1315.429688 0)"/>
      </g>
     </g>
    </g>
    <g id="ytick_10">
     <g id="line2d_16">
      <g>
       <use xlink:href="#m65511a3dff" x="378.05" y="149.007809" style="stroke: #000000; stroke-width: 0.8"/>
      </g>
     </g>
     <g id="text_17">
      <!-- cytosolic ribosome -->
      <g transform="translate(277.454687 152.807028) scale(0.1 -0.1)">
       <use xlink:href="#DejaVuSans-63"/>
       <use xlink:href="#DejaVuSans-79" transform="translate(54.980469 0)"/>
       <use xlink:href="#DejaVuSans-74" transform="translate(114.160156 0)"/>
       <use xlink:href="#DejaVuSans-6f" transform="translate(153.369141 0)"/>
       <use xlink:href="#DejaVuSans-73" transform="translate(214.550781 0)"/>
       <use xlink:href="#DejaVuSans-6f" transform="translate(266.650391 0)"/>
       <use xlink:href="#DejaVuSans-6c" transform="translate(327.832031 0)"/>
       <use xlink:href="#DejaVuSans-69" transform="translate(355.615234 0)"/>
       <use xlink:href="#DejaVuSans-63" transform="translate(383.398438 0)"/>
       <use xlink:href="#DejaVuSans-20" transform="translate(438.378906 0)"/>
       <use xlink:href="#DejaVuSans-72" transform="translate(470.166016 0)"/>
       <use xlink:href="#DejaVuSans-69" transform="translate(511.279297 0)"/>
       <use xlink:href="#DejaVuSans-62" transform="translate(539.0625 0)"/>
       <use xlink:href="#DejaVuSans-6f" transform="translate(602.539062 0)"/>
       <use xlink:href="#DejaVuSans-73" transform="translate(663.720703 0)"/>
       <use xlink:href="#DejaVuSans-6f" transform="translate(715.820312 0)"/>
       <use xlink:href="#DejaVuSans-6d" transform="translate(777.001953 0)"/>
       <use xlink:href="#DejaVuSans-65" transform="translate(874.414062 0)"/>
      </g>
     </g>
    </g>
    <g id="ytick_11">
     <g id="line2d_17">
      <g>
       <use xlink:href="#m65511a3dff" x="378.05" y="161.740441" style="stroke: #000000; stroke-width: 0.8"/>
      </g>
     </g>
     <g id="text_18">
      <!-- microtubule cytoskeleton -->
      <g transform="translate(244.420313 165.53966) scale(0.1 -0.1)">
       <defs>
        <path id="DejaVuSans-6b" d="M 581 4863 
L 1159 4863 
L 1159 1991 
L 2875 3500 
L 3609 3500 
L 1753 1863 
L 3688 0 
L 2938 0 
L 1159 1709 
L 1159 0 
L 581 0 
L 581 4863 
z
" transform="scale(0.015625)"/>
       </defs>
       <use xlink:href="#DejaVuSans-6d"/>
       <use xlink:href="#DejaVuSans-69" transform="translate(97.412109 0)"/>
       <use xlink:href="#DejaVuSans-63" transform="translate(125.195312 0)"/>
       <use xlink:href="#DejaVuSans-72" transform="translate(180.175781 0)"/>
       <use xlink:href="#DejaVuSans-6f" transform="translate(219.039062 0)"/>
       <use xlink:href="#DejaVuSans-74" transform="translate(280.220703 0)"/>
       <use xlink:href="#DejaVuSans-75" transform="translate(319.429688 0)"/>
       <use xlink:href="#DejaVuSans-62" transform="translate(382.808594 0)"/>
       <use xlink:href="#DejaVuSans-75" transform="translate(446.285156 0)"/>
       <use xlink:href="#DejaVuSans-6c" transform="translate(509.664062 0)"/>
       <use xlink:href="#DejaVuSans-65" transform="translate(537.447266 0)"/>
       <use xlink:href="#DejaVuSans-20" transform="translate(598.970703 0)"/>
       <use xlink:href="#DejaVuSans-63" transform="translate(630.757812 0)"/>
       <use xlink:href="#DejaVuSans-79" transform="translate(685.738281 0)"/>
       <use xlink:href="#DejaVuSans-74" transform="translate(744.917969 0)"/>
       <use xlink:href="#DejaVuSans-6f" transform="translate(784.126953 0)"/>
       <use xlink:href="#DejaVuSans-73" transform="translate(845.308594 0)"/>
       <use xlink:href="#DejaVuSans-6b" transform="translate(897.408203 0)"/>
       <use xlink:href="#DejaVuSans-65" transform="translate(951.693359 0)"/>
       <use xlink:href="#DejaVuSans-6c" transform="translate(1013.216797 0)"/>
       <use xlink:href="#DejaVuSans-65" transform="translate(1041 0)"/>
       <use xlink:href="#DejaVuSans-74" transform="translate(1102.523438 0)"/>
       <use xlink:href="#DejaVuSans-6f" transform="translate(1141.732422 0)"/>
       <use xlink:href="#DejaVuSans-6e" transform="translate(1202.914062 0)"/>
      </g>
     </g>
    </g>
    <g id="ytick_12">
     <g id="line2d_18">
      <g>
       <use xlink:href="#m65511a3dff" x="378.05" y="174.473072" style="stroke: #000000; stroke-width: 0.8"/>
      </g>
     </g>
     <g id="text_19">
      <!-- melanosome -->
      <g transform="translate(306.571875 178.272291) scale(0.1 -0.1)">
       <use xlink:href="#DejaVuSans-6d"/>
       <use xlink:href="#DejaVuSans-65" transform="translate(97.412109 0)"/>
       <use xlink:href="#DejaVuSans-6c" transform="translate(158.935547 0)"/>
       <use xlink:href="#DejaVuSans-61" transform="translate(186.71875 0)"/>
       <use xlink:href="#DejaVuSans-6e" transform="translate(247.998047 0)"/>
       <use xlink:href="#DejaVuSans-6f" transform="translate(311.376953 0)"/>
       <use xlink:href="#DejaVuSans-73" transform="translate(372.558594 0)"/>
       <use xlink:href="#DejaVuSans-6f" transform="translate(424.658203 0)"/>
       <use xlink:href="#DejaVuSans-6d" transform="translate(485.839844 0)"/>
       <use xlink:href="#DejaVuSans-65" transform="translate(583.251953 0)"/>
      </g>
     </g>
    </g>
    <g id="ytick_13">
     <g id="line2d_19">
      <g>
       <use xlink:href="#m65511a3dff" x="378.05" y="187.205704" style="stroke: #000000; stroke-width: 0.8"/>
      </g>
     </g>
     <g id="text_20">
      <!-- presynapse -->
      <g transform="translate(313.357813 191.004923) scale(0.1 -0.1)">
       <use xlink:href="#DejaVuSans-70"/>
       <use xlink:href="#DejaVuSans-72" transform="translate(63.476562 0)"/>
       <use xlink:href="#DejaVuSans-65" transform="translate(102.339844 0)"/>
       <use xlink:href="#DejaVuSans-73" transform="translate(163.863281 0)"/>
       <use xlink:href="#DejaVuSans-79" transform="translate(215.962891 0)"/>
       <use xlink:href="#DejaVuSans-6e" transform="translate(275.142578 0)"/>
       <use xlink:href="#DejaVuSans-61" transform="translate(338.521484 0)"/>
       <use xlink:href="#DejaVuSans-70" transform="translate(399.800781 0)"/>
       <use xlink:href="#DejaVuSans-73" transform="translate(463.277344 0)"/>
       <use xlink:href="#DejaVuSans-65" transform="translate(515.376953 0)"/>
      </g>
     </g>
    </g>
    <g id="ytick_14">
     <g id="line2d_20">
      <g>
       <use xlink:href="#m65511a3dff" x="378.05" y="199.938336" style="stroke: #000000; stroke-width: 0.8"/>
      </g>
     </g>
     <g id="text_21">
      <!-- GABA-ergic synapse -->
      <g transform="translate(270.179688 203.737554) scale(0.1 -0.1)">
       <defs>
        <path id="DejaVuSans-47" d="M 3809 666 
L 3809 1919 
L 2778 1919 
L 2778 2438 
L 4434 2438 
L 4434 434 
Q 4069 175 3628 42 
Q 3188 -91 2688 -91 
Q 1594 -91 976 548 
Q 359 1188 359 2328 
Q 359 3472 976 4111 
Q 1594 4750 2688 4750 
Q 3144 4750 3555 4637 
Q 3966 4525 4313 4306 
L 4313 3634 
Q 3963 3931 3569 4081 
Q 3175 4231 2741 4231 
Q 1884 4231 1454 3753 
Q 1025 3275 1025 2328 
Q 1025 1384 1454 906 
Q 1884 428 2741 428 
Q 3075 428 3337 486 
Q 3600 544 3809 666 
z
" transform="scale(0.015625)"/>
        <path id="DejaVuSans-42" d="M 1259 2228 
L 1259 519 
L 2272 519 
Q 2781 519 3026 730 
Q 3272 941 3272 1375 
Q 3272 1813 3026 2020 
Q 2781 2228 2272 2228 
L 1259 2228 
z
M 1259 4147 
L 1259 2741 
L 2194 2741 
Q 2656 2741 2882 2914 
Q 3109 3088 3109 3444 
Q 3109 3797 2882 3972 
Q 2656 4147 2194 4147 
L 1259 4147 
z
M 628 4666 
L 2241 4666 
Q 2963 4666 3353 4366 
Q 3744 4066 3744 3513 
Q 3744 3084 3544 2831 
Q 3344 2578 2956 2516 
Q 3422 2416 3680 2098 
Q 3938 1781 3938 1306 
Q 3938 681 3513 340 
Q 3088 0 2303 0 
L 628 0 
L 628 4666 
z
" transform="scale(0.015625)"/>
       </defs>
       <use xlink:href="#DejaVuSans-47"/>
       <use xlink:href="#DejaVuSans-41" transform="translate(77.490234 0)"/>
       <use xlink:href="#DejaVuSans-42" transform="translate(145.898438 0)"/>
       <use xlink:href="#DejaVuSans-41" transform="translate(214.501953 0)"/>
       <use xlink:href="#DejaVuSans-2d" transform="translate(280.660156 0)"/>
       <use xlink:href="#DejaVuSans-65" transform="translate(316.744141 0)"/>
       <use xlink:href="#DejaVuSans-72" transform="translate(378.267578 0)"/>
       <use xlink:href="#DejaVuSans-67" transform="translate(417.630859 0)"/>
       <use xlink:href="#DejaVuSans-69" transform="translate(481.107422 0)"/>
       <use xlink:href="#DejaVuSans-63" transform="translate(508.890625 0)"/>
       <use xlink:href="#DejaVuSans-20" transform="translate(563.871094 0)"/>
       <use xlink:href="#DejaVuSans-73" transform="translate(595.658203 0)"/>
       <use xlink:href="#DejaVuSans-79" transform="translate(647.757812 0)"/>
       <use xlink:href="#DejaVuSans-6e" transform="translate(706.9375 0)"/>
       <use xlink:href="#DejaVuSans-61" transform="translate(770.316406 0)"/>
       <use xlink:href="#DejaVuSans-70" transform="translate(831.595703 0)"/>
       <use xlink:href="#DejaVuSans-73" transform="translate(895.072266 0)"/>
       <use xlink:href="#DejaVuSans-65" transform="translate(947.171875 0)"/>
      </g>
     </g>
    </g>
    <g id="ytick_15">
     <g id="line2d_21">
      <g>
       <use xlink:href="#m65511a3dff" x="378.05" y="212.670967" style="stroke: #000000; stroke-width: 0.8"/>
      </g>
     </g>
     <g id="text_22">
      <!-- vesicle -->
      <g transform="translate(336.560938 216.470186) scale(0.1 -0.1)">
       <use xlink:href="#DejaVuSans-76"/>
       <use xlink:href="#DejaVuSans-65" transform="translate(59.179688 0)"/>
       <use xlink:href="#DejaVuSans-73" transform="translate(120.703125 0)"/>
       <use xlink:href="#DejaVuSans-69" transform="translate(172.802734 0)"/>
       <use xlink:href="#DejaVuSans-63" transform="translate(200.585938 0)"/>
       <use xlink:href="#DejaVuSans-6c" transform="translate(255.566406 0)"/>
       <use xlink:href="#DejaVuSans-65" transform="translate(283.349609 0)"/>
      </g>
     </g>
    </g>
    <g id="ytick_16">
     <g id="line2d_22">
      <g>
       <use xlink:href="#m65511a3dff" x="378.05" y="225.403599" style="stroke: #000000; stroke-width: 0.8"/>
      </g>
     </g>
     <g id="text_23">
      <!-- postsynapse -->
      <g transform="translate(308.148438 229.202817) scale(0.1 -0.1)">
       <use xlink:href="#DejaVuSans-70"/>
       <use xlink:href="#DejaVuSans-6f" transform="translate(63.476562 0)"/>
       <use xlink:href="#DejaVuSans-73" transform="translate(124.658203 0)"/>
       <use xlink:href="#DejaVuSans-74" transform="translate(176.757812 0)"/>
       <use xlink:href="#DejaVuSans-73" transform="translate(215.966797 0)"/>
       <use xlink:href="#DejaVuSans-79" transform="translate(268.066406 0)"/>
       <use xlink:href="#DejaVuSans-6e" transform="translate(327.246094 0)"/>
       <use xlink:href="#DejaVuSans-61" transform="translate(390.625 0)"/>
       <use xlink:href="#DejaVuSans-70" transform="translate(451.904297 0)"/>
       <use xlink:href="#DejaVuSans-73" transform="translate(515.380859 0)"/>
       <use xlink:href="#DejaVuSans-65" transform="translate(567.480469 0)"/>
      </g>
     </g>
    </g>
    <g id="ytick_17">
     <g id="line2d_23">
      <g>
       <use xlink:href="#m65511a3dff" x="378.05" y="238.13623" style="stroke: #000000; stroke-width: 0.8"/>
      </g>
     </g>
     <g id="text_24">
      <!-- axon -->
      <g transform="translate(346.859375 241.935449) scale(0.1 -0.1)">
       <use xlink:href="#DejaVuSans-61"/>
       <use xlink:href="#DejaVuSans-78" transform="translate(61.279297 0)"/>
       <use xlink:href="#DejaVuSans-6f" transform="translate(117.333984 0)"/>
       <use xlink:href="#DejaVuSans-6e" transform="translate(178.515625 0)"/>
      </g>
     </g>
    </g>
    <g id="ytick_18">
     <g id="line2d_24">
      <g>
       <use xlink:href="#m65511a3dff" x="378.05" y="250.868862" style="stroke: #000000; stroke-width: 0.8"/>
      </g>
     </g>
     <g id="text_25">
      <!-- microtubule -->
      <g transform="translate(311.153125 254.668081) scale(0.1 -0.1)">
       <use xlink:href="#DejaVuSans-6d"/>
       <use xlink:href="#DejaVuSans-69" transform="translate(97.412109 0)"/>
       <use xlink:href="#DejaVuSans-63" transform="translate(125.195312 0)"/>
       <use xlink:href="#DejaVuSans-72" transform="translate(180.175781 0)"/>
       <use xlink:href="#DejaVuSans-6f" transform="translate(219.039062 0)"/>
       <use xlink:href="#DejaVuSans-74" transform="translate(280.220703 0)"/>
       <use xlink:href="#DejaVuSans-75" transform="translate(319.429688 0)"/>
       <use xlink:href="#DejaVuSans-62" transform="translate(382.808594 0)"/>
       <use xlink:href="#DejaVuSans-75" transform="translate(446.285156 0)"/>
       <use xlink:href="#DejaVuSans-6c" transform="translate(509.664062 0)"/>
       <use xlink:href="#DejaVuSans-65" transform="translate(537.447266 0)"/>
      </g>
     </g>
    </g>
    <g id="ytick_19">
     <g id="line2d_25">
      <g>
       <use xlink:href="#m65511a3dff" x="378.05" y="263.601493" style="stroke: #000000; stroke-width: 0.8"/>
      </g>
     </g>
     <g id="text_26">
      <!-- focal adhesion -->
      <g transform="translate(298.417188 267.400712) scale(0.1 -0.1)">
       <defs>
        <path id="DejaVuSans-66" d="M 2375 4863 
L 2375 4384 
L 1825 4384 
Q 1516 4384 1395 4259 
Q 1275 4134 1275 3809 
L 1275 3500 
L 2222 3500 
L 2222 3053 
L 1275 3053 
L 1275 0 
L 697 0 
L 697 3053 
L 147 3053 
L 147 3500 
L 697 3500 
L 697 3744 
Q 697 4328 969 4595 
Q 1241 4863 1831 4863 
L 2375 4863 
z
" transform="scale(0.015625)"/>
       </defs>
       <use xlink:href="#DejaVuSans-66"/>
       <use xlink:href="#DejaVuSans-6f" transform="translate(35.205078 0)"/>
       <use xlink:href="#DejaVuSans-63" transform="translate(96.386719 0)"/>
       <use xlink:href="#DejaVuSans-61" transform="translate(151.367188 0)"/>
       <use xlink:href="#DejaVuSans-6c" transform="translate(212.646484 0)"/>
       <use xlink:href="#DejaVuSans-20" transform="translate(240.429688 0)"/>
       <use xlink:href="#DejaVuSans-61" transform="translate(272.216797 0)"/>
       <use xlink:href="#DejaVuSans-64" transform="translate(333.496094 0)"/>
       <use xlink:href="#DejaVuSans-68" transform="translate(396.972656 0)"/>
       <use xlink:href="#DejaVuSans-65" transform="translate(460.351562 0)"/>
       <use xlink:href="#DejaVuSans-73" transform="translate(521.875 0)"/>
       <use xlink:href="#DejaVuSans-69" transform="translate(573.974609 0)"/>
       <use xlink:href="#DejaVuSans-6f" transform="translate(601.757812 0)"/>
       <use xlink:href="#DejaVuSans-6e" transform="translate(662.939453 0)"/>
      </g>
     </g>
    </g>
    <g id="ytick_20">
     <g id="line2d_26">
      <g>
       <use xlink:href="#m65511a3dff" x="378.05" y="276.334125" style="stroke: #000000; stroke-width: 0.8"/>
      </g>
     </g>
     <g id="text_27">
      <!-- glutamatergic synapse -->
      <g transform="translate(256.551562 280.133344) scale(0.1 -0.1)">
       <use xlink:href="#DejaVuSans-67"/>
       <use xlink:href="#DejaVuSans-6c" transform="translate(63.476562 0)"/>
       <use xlink:href="#DejaVuSans-75" transform="translate(91.259766 0)"/>
       <use xlink:href="#DejaVuSans-74" transform="translate(154.638672 0)"/>
       <use xlink:href="#DejaVuSans-61" transform="translate(193.847656 0)"/>
       <use xlink:href="#DejaVuSans-6d" transform="translate(255.126953 0)"/>
       <use xlink:href="#DejaVuSans-61" transform="translate(352.539062 0)"/>
       <use xlink:href="#DejaVuSans-74" transform="translate(413.818359 0)"/>
       <use xlink:href="#DejaVuSans-65" transform="translate(453.027344 0)"/>
       <use xlink:href="#DejaVuSans-72" transform="translate(514.550781 0)"/>
       <use xlink:href="#DejaVuSans-67" transform="translate(553.914062 0)"/>
       <use xlink:href="#DejaVuSans-69" transform="translate(617.390625 0)"/>
       <use xlink:href="#DejaVuSans-63" transform="translate(645.173828 0)"/>
       <use xlink:href="#DejaVuSans-20" transform="translate(700.154297 0)"/>
       <use xlink:href="#DejaVuSans-73" transform="translate(731.941406 0)"/>
       <use xlink:href="#DejaVuSans-79" transform="translate(784.041016 0)"/>
       <use xlink:href="#DejaVuSans-6e" transform="translate(843.220703 0)"/>
       <use xlink:href="#DejaVuSans-61" transform="translate(906.599609 0)"/>
       <use xlink:href="#DejaVuSans-70" transform="translate(967.878906 0)"/>
       <use xlink:href="#DejaVuSans-73" transform="translate(1031.355469 0)"/>
       <use xlink:href="#DejaVuSans-65" transform="translate(1083.455078 0)"/>
      </g>
     </g>
    </g>
   </g>
   <g id="line2d_27"/>
   <g id="line2d_28"/>
   <g id="line2d_29"/>
   <g id="line2d_30"/>
   <g id="line2d_31"/>
   <g id="line2d_32"/>
   <g id="line2d_33"/>
   <g id="line2d_34"/>
   <g id="line2d_35"/>
   <g id="line2d_36"/>
   <g id="line2d_37"/>
   <g id="line2d_38"/>
   <g id="patch_3">
    <path d="M 378.05 288.430125 
L 378.05 22.318125 
" style="fill: none; stroke: #000000; stroke-width: 0.8; stroke-linejoin: miter; stroke-linecap: square"/>
   </g>
   <g id="patch_4">
    <path d="M 735.17 288.430125 
L 735.17 22.318125 
" style="fill: none; stroke: #000000; stroke-width: 0.8; stroke-linejoin: miter; stroke-linecap: square"/>
   </g>
   <g id="patch_5">
    <path d="M 378.05 288.430125 
L 735.17 288.430125 
" style="fill: none; stroke: #000000; stroke-width: 0.8; stroke-linejoin: miter; stroke-linecap: square"/>
   </g>
   <g id="patch_6">
    <path d="M 378.05 22.318125 
L 735.17 22.318125 
" style="fill: none; stroke: #000000; stroke-width: 0.8; stroke-linejoin: miter; stroke-linecap: square"/>
   </g>
   <g id="text_28">
    <!-- Top 20 Enriched Cellular Components -->
    <g transform="translate(444.104375 16.318125) scale(0.12 -0.12)">
     <defs>
      <path id="DejaVuSans-43" d="M 4122 4306 
L 4122 3641 
Q 3803 3938 3442 4084 
Q 3081 4231 2675 4231 
Q 1875 4231 1450 3742 
Q 1025 3253 1025 2328 
Q 1025 1406 1450 917 
Q 1875 428 2675 428 
Q 3081 428 3442 575 
Q 3803 722 4122 1019 
L 4122 359 
Q 3791 134 3420 21 
Q 3050 -91 2638 -91 
Q 1578 -91 968 557 
Q 359 1206 359 2328 
Q 359 3453 968 4101 
Q 1578 4750 2638 4750 
Q 3056 4750 3426 4639 
Q 3797 4528 4122 4306 
z
" transform="scale(0.015625)"/>
     </defs>
     <use xlink:href="#DejaVuSans-54"/>
     <use xlink:href="#DejaVuSans-6f" transform="translate(44.083984 0)"/>
     <use xlink:href="#DejaVuSans-70" transform="translate(105.265625 0)"/>
     <use xlink:href="#DejaVuSans-20" transform="translate(168.742188 0)"/>
     <use xlink:href="#DejaVuSans-32" transform="translate(200.529297 0)"/>
     <use xlink:href="#DejaVuSans-30" transform="translate(264.152344 0)"/>
     <use xlink:href="#DejaVuSans-20" transform="translate(327.775391 0)"/>
     <use xlink:href="#DejaVuSans-45" transform="translate(359.5625 0)"/>
     <use xlink:href="#DejaVuSans-6e" transform="translate(422.746094 0)"/>
     <use xlink:href="#DejaVuSans-72" transform="translate(486.125 0)"/>
     <use xlink:href="#DejaVuSans-69" transform="translate(527.238281 0)"/>
     <use xlink:href="#DejaVuSans-63" transform="translate(555.021484 0)"/>
     <use xlink:href="#DejaVuSans-68" transform="translate(610.001953 0)"/>
     <use xlink:href="#DejaVuSans-65" transform="translate(673.380859 0)"/>
     <use xlink:href="#DejaVuSans-64" transform="translate(734.904297 0)"/>
     <use xlink:href="#DejaVuSans-20" transform="translate(798.380859 0)"/>
     <use xlink:href="#DejaVuSans-43" transform="translate(830.167969 0)"/>
     <use xlink:href="#DejaVuSans-65" transform="translate(899.992188 0)"/>
     <use xlink:href="#DejaVuSans-6c" transform="translate(961.515625 0)"/>
     <use xlink:href="#DejaVuSans-6c" transform="translate(989.298828 0)"/>
     <use xlink:href="#DejaVuSans-75" transform="translate(1017.082031 0)"/>
     <use xlink:href="#DejaVuSans-6c" transform="translate(1080.460938 0)"/>
     <use xlink:href="#DejaVuSans-61" transform="translate(1108.244141 0)"/>
     <use xlink:href="#DejaVuSans-72" transform="translate(1169.523438 0)"/>
     <use xlink:href="#DejaVuSans-20" transform="translate(1210.636719 0)"/>
     <use xlink:href="#DejaVuSans-43" transform="translate(1242.423828 0)"/>
     <use xlink:href="#DejaVuSans-6f" transform="translate(1312.248047 0)"/>
     <use xlink:href="#DejaVuSans-6d" transform="translate(1373.429688 0)"/>
     <use xlink:href="#DejaVuSans-70" transform="translate(1470.841797 0)"/>
     <use xlink:href="#DejaVuSans-6f" transform="translate(1534.318359 0)"/>
     <use xlink:href="#DejaVuSans-6e" transform="translate(1595.5 0)"/>
     <use xlink:href="#DejaVuSans-65" transform="translate(1658.878906 0)"/>
     <use xlink:href="#DejaVuSans-6e" transform="translate(1720.402344 0)"/>
     <use xlink:href="#DejaVuSans-74" transform="translate(1783.78125 0)"/>
     <use xlink:href="#DejaVuSans-73" transform="translate(1822.990234 0)"/>
    </g>
   </g>
   <g id="legend_1">
    <g id="patch_7">
     <path d="M 742.17 206.455625 
L 829.409063 206.455625 
Q 831.409063 206.455625 831.409063 204.455625 
L 831.409063 29.318125 
Q 831.409063 27.318125 829.409063 27.318125 
L 742.17 27.318125 
Q 740.17 27.318125 740.17 29.318125 
L 740.17 204.455625 
Q 740.17 206.455625 742.17 206.455625 
z
" style="fill: #ffffff; opacity: 0.8; stroke: #cccccc; stroke-linejoin: miter"/>
    </g>
    <g id="line2d_39"/>
    <g id="text_29">
     <!-- -log10 FDR -->
     <g transform="translate(772.17 38.916562) scale(0.1 -0.1)">
      <defs>
       <path id="DejaVuSans-44" d="M 1259 4147 
L 1259 519 
L 2022 519 
Q 2988 519 3436 956 
Q 3884 1394 3884 2338 
Q 3884 3275 3436 3711 
Q 2988 4147 2022 4147 
L 1259 4147 
z
M 628 4666 
L 1925 4666 
Q 3281 4666 3915 4102 
Q 4550 3538 4550 2338 
Q 4550 1131 3912 565 
Q 3275 0 1925 0 
L 628 0 
L 628 4666 
z
" transform="scale(0.015625)"/>
       <path id="DejaVuSans-52" d="M 2841 2188 
Q 3044 2119 3236 1894 
Q 3428 1669 3622 1275 
L 4263 0 
L 3584 0 
L 2988 1197 
Q 2756 1666 2539 1819 
Q 2322 1972 1947 1972 
L 1259 1972 
L 1259 0 
L 628 0 
L 628 4666 
L 2053 4666 
Q 2853 4666 3247 4331 
Q 3641 3997 3641 3322 
Q 3641 2881 3436 2590 
Q 3231 2300 2841 2188 
z
M 1259 4147 
L 1259 2491 
L 2053 2491 
Q 2509 2491 2742 2702 
Q 2975 2913 2975 3322 
Q 2975 3731 2742 3939 
Q 2509 4147 2053 4147 
L 1259 4147 
z
" transform="scale(0.015625)"/>
      </defs>
      <use xlink:href="#DejaVuSans-2d"/>
      <use xlink:href="#DejaVuSans-6c" transform="translate(36.083984 0)"/>
      <use xlink:href="#DejaVuSans-6f" transform="translate(63.867188 0)"/>
      <use xlink:href="#DejaVuSans-67" transform="translate(125.048828 0)"/>
      <use xlink:href="#DejaVuSans-31" transform="translate(188.525391 0)"/>
      <use xlink:href="#DejaVuSans-30" transform="translate(252.148438 0)"/>
      <use xlink:href="#DejaVuSans-20" transform="translate(315.771484 0)"/>
      <use xlink:href="#DejaVuSans-46" transform="translate(347.558594 0)"/>
      <use xlink:href="#DejaVuSans-44" transform="translate(405.078125 0)"/>
      <use xlink:href="#DejaVuSans-52" transform="translate(482.080078 0)"/>
     </g>
    </g>
    <g id="line2d_40">
     <defs>
      <path id="md5eb9631d5" d="M 0 3 
C 0.795609 3 1.55874 2.683901 2.12132 2.12132 
C 2.683901 1.55874 3 0.795609 3 0 
C 3 -0.795609 2.683901 -1.55874 2.12132 -2.12132 
C 1.55874 -2.683901 0.795609 -3 0 -3 
C -0.795609 -3 -1.55874 -2.683901 -2.12132 -2.12132 
C -2.683901 -1.55874 -3 -0.795609 -3 0 
C -3 0.795609 -2.683901 1.55874 -2.12132 2.12132 
C -1.55874 2.683901 -0.795609 3 0 3 
z
" style="stroke: #ffffff; stroke-width: 0.426822"/>
     </defs>
     <g>
      <use xlink:href="#md5eb9631d5" x="754.17" y="50.094688" style="fill: #4b64d5; stroke: #ffffff; stroke-width: 0.426822"/>
     </g>
    </g>
    <g id="text_30">
     <!-- 4.5 -->
     <g transform="translate(772.17 53.594688) scale(0.1 -0.1)">
      <defs>
       <path id="DejaVuSans-34" d="M 2419 4116 
L 825 1625 
L 2419 1625 
L 2419 4116 
z
M 2253 4666 
L 3047 4666 
L 3047 1625 
L 3713 1625 
L 3713 1100 
L 3047 1100 
L 3047 0 
L 2419 0 
L 2419 1100 
L 313 1100 
L 313 1709 
L 2253 4666 
z
" transform="scale(0.015625)"/>
       <path id="DejaVuSans-2e" d="M 684 794 
L 1344 794 
L 1344 0 
L 684 0 
L 684 794 
z
" transform="scale(0.015625)"/>
      </defs>
      <use xlink:href="#DejaVuSans-34"/>
      <use xlink:href="#DejaVuSans-2e" transform="translate(63.623047 0)"/>
      <use xlink:href="#DejaVuSans-35" transform="translate(95.410156 0)"/>
     </g>
    </g>
    <g id="line2d_41">
     <defs>
      <path id="m6f935fb1b7" d="M 0 3 
C 0.795609 3 1.55874 2.683901 2.12132 2.12132 
C 2.683901 1.55874 3 0.795609 3 0 
C 3 -0.795609 2.683901 -1.55874 2.12132 -2.12132 
C 1.55874 -2.683901 0.795609 -3 0 -3 
C -0.795609 -3 -1.55874 -2.683901 -2.12132 -2.12132 
C -2.683901 -1.55874 -3 -0.795609 -3 0 
C -3 0.795609 -2.683901 1.55874 -2.12132 2.12132 
C -1.55874 2.683901 -0.795609 3 0 3 
z
" style="stroke: #ffffff; stroke-width: 0.426822"/>
     </defs>
     <g>
      <use xlink:href="#m6f935fb1b7" x="754.17" y="64.772812" style="fill: #92b4fe; stroke: #ffffff; stroke-width: 0.426822"/>
     </g>
    </g>
    <g id="text_31">
     <!-- 6.0 -->
     <g transform="translate(772.17 68.272812) scale(0.1 -0.1)">
      <defs>
       <path id="DejaVuSans-36" d="M 2113 2584 
Q 1688 2584 1439 2293 
Q 1191 2003 1191 1497 
Q 1191 994 1439 701 
Q 1688 409 2113 409 
Q 2538 409 2786 701 
Q 3034 994 3034 1497 
Q 3034 2003 2786 2293 
Q 2538 2584 2113 2584 
z
M 3366 4563 
L 3366 3988 
Q 3128 4100 2886 4159 
Q 2644 4219 2406 4219 
Q 1781 4219 1451 3797 
Q 1122 3375 1075 2522 
Q 1259 2794 1537 2939 
Q 1816 3084 2150 3084 
Q 2853 3084 3261 2657 
Q 3669 2231 3669 1497 
Q 3669 778 3244 343 
Q 2819 -91 2113 -91 
Q 1303 -91 875 529 
Q 447 1150 447 2328 
Q 447 3434 972 4092 
Q 1497 4750 2381 4750 
Q 2619 4750 2861 4703 
Q 3103 4656 3366 4563 
z
" transform="scale(0.015625)"/>
      </defs>
      <use xlink:href="#DejaVuSans-36"/>
      <use xlink:href="#DejaVuSans-2e" transform="translate(63.623047 0)"/>
      <use xlink:href="#DejaVuSans-30" transform="translate(95.410156 0)"/>
     </g>
    </g>
    <g id="line2d_42">
     <defs>
      <path id="m75697d48cb" d="M 0 3 
C 0.795609 3 1.55874 2.683901 2.12132 2.12132 
C 2.683901 1.55874 3 0.795609 3 0 
C 3 -0.795609 2.683901 -1.55874 2.12132 -2.12132 
C 1.55874 -2.683901 0.795609 -3 0 -3 
C -0.795609 -3 -1.55874 -2.683901 -2.12132 -2.12132 
C -2.683901 -1.55874 -3 -0.795609 -3 0 
C -3 0.795609 -2.683901 1.55874 -2.12132 2.12132 
C -1.55874 2.683901 -0.795609 3 0 3 
z
" style="stroke: #ffffff; stroke-width: 0.426822"/>
     </defs>
     <g>
      <use xlink:href="#m75697d48cb" x="754.17" y="79.450938" style="fill: #d6dce4; stroke: #ffffff; stroke-width: 0.426822"/>
     </g>
    </g>
    <g id="text_32">
     <!-- 7.5 -->
     <g transform="translate(772.17 82.950938) scale(0.1 -0.1)">
      <defs>
       <path id="DejaVuSans-37" d="M 525 4666 
L 3525 4666 
L 3525 4397 
L 1831 0 
L 1172 0 
L 2766 4134 
L 525 4134 
L 525 4666 
z
" transform="scale(0.015625)"/>
      </defs>
      <use xlink:href="#DejaVuSans-37"/>
      <use xlink:href="#DejaVuSans-2e" transform="translate(63.623047 0)"/>
      <use xlink:href="#DejaVuSans-35" transform="translate(95.410156 0)"/>
     </g>
    </g>
    <g id="line2d_43">
     <defs>
      <path id="m1d468c3632" d="M 0 3 
C 0.795609 3 1.55874 2.683901 2.12132 2.12132 
C 2.683901 1.55874 3 0.795609 3 0 
C 3 -0.795609 2.683901 -1.55874 2.12132 -2.12132 
C 1.55874 -2.683901 0.795609 -3 0 -3 
C -0.795609 -3 -1.55874 -2.683901 -2.12132 -2.12132 
C -2.683901 -1.55874 -3 -0.795609 -3 0 
C -3 0.795609 -2.683901 1.55874 -2.12132 2.12132 
C -1.55874 2.683901 -0.795609 3 0 3 
z
" style="stroke: #ffffff; stroke-width: 0.426822"/>
     </defs>
     <g>
      <use xlink:href="#m1d468c3632" x="754.17" y="94.129063" style="fill: #f7b396; stroke: #ffffff; stroke-width: 0.426822"/>
     </g>
    </g>
    <g id="text_33">
     <!-- 9.0 -->
     <g transform="translate(772.17 97.629063) scale(0.1 -0.1)">
      <defs>
       <path id="DejaVuSans-39" d="M 703 97 
L 703 672 
Q 941 559 1184 500 
Q 1428 441 1663 441 
Q 2288 441 2617 861 
Q 2947 1281 2994 2138 
Q 2813 1869 2534 1725 
Q 2256 1581 1919 1581 
Q 1219 1581 811 2004 
Q 403 2428 403 3163 
Q 403 3881 828 4315 
Q 1253 4750 1959 4750 
Q 2769 4750 3195 4129 
Q 3622 3509 3622 2328 
Q 3622 1225 3098 567 
Q 2575 -91 1691 -91 
Q 1453 -91 1209 -44 
Q 966 3 703 97 
z
M 1959 2075 
Q 2384 2075 2632 2365 
Q 2881 2656 2881 3163 
Q 2881 3666 2632 3958 
Q 2384 4250 1959 4250 
Q 1534 4250 1286 3958 
Q 1038 3666 1038 3163 
Q 1038 2656 1286 2365 
Q 1534 2075 1959 2075 
z
" transform="scale(0.015625)"/>
      </defs>
      <use xlink:href="#DejaVuSans-39"/>
      <use xlink:href="#DejaVuSans-2e" transform="translate(63.623047 0)"/>
      <use xlink:href="#DejaVuSans-30" transform="translate(95.410156 0)"/>
     </g>
    </g>
    <g id="line2d_44">
     <defs>
      <path id="m4799738ea7" d="M 0 3 
C 0.795609 3 1.55874 2.683901 2.12132 2.12132 
C 2.683901 1.55874 3 0.795609 3 0 
C 3 -0.795609 2.683901 -1.55874 2.12132 -2.12132 
C 1.55874 -2.683901 0.795609 -3 0 -3 
C -0.795609 -3 -1.55874 -2.683901 -2.12132 -2.12132 
C -2.683901 -1.55874 -3 -0.795609 -3 0 
C -3 0.795609 -2.683901 1.55874 -2.12132 2.12132 
C -1.55874 2.683901 -0.795609 3 0 3 
z
" style="stroke: #ffffff; stroke-width: 0.426822"/>
     </defs>
     <g>
      <use xlink:href="#m4799738ea7" x="754.17" y="108.807187" style="fill: #d85646; stroke: #ffffff; stroke-width: 0.426822"/>
     </g>
    </g>
    <g id="text_34">
     <!-- 10.5 -->
     <g transform="translate(772.17 112.307187) scale(0.1 -0.1)">
      <use xlink:href="#DejaVuSans-31"/>
      <use xlink:href="#DejaVuSans-30" transform="translate(63.623047 0)"/>
      <use xlink:href="#DejaVuSans-2e" transform="translate(127.246094 0)"/>
      <use xlink:href="#DejaVuSans-35" transform="translate(159.033203 0)"/>
     </g>
    </g>
    <g id="line2d_45"/>
    <g id="text_35">
     <!-- Gene Ratio -->
     <g transform="translate(772.17 126.985313) scale(0.1 -0.1)">
      <use xlink:href="#DejaVuSans-47"/>
      <use xlink:href="#DejaVuSans-65" transform="translate(77.490234 0)"/>
      <use xlink:href="#DejaVuSans-6e" transform="translate(139.013672 0)"/>
      <use xlink:href="#DejaVuSans-65" transform="translate(202.392578 0)"/>
      <use xlink:href="#DejaVuSans-20" transform="translate(263.916016 0)"/>
      <use xlink:href="#DejaVuSans-52" transform="translate(295.703125 0)"/>
      <use xlink:href="#DejaVuSans-61" transform="translate(362.935547 0)"/>
      <use xlink:href="#DejaVuSans-74" transform="translate(424.214844 0)"/>
      <use xlink:href="#DejaVuSans-69" transform="translate(463.423828 0)"/>
      <use xlink:href="#DejaVuSans-6f" transform="translate(491.207031 0)"/>
     </g>
    </g>
    <g id="line2d_46">
     <defs>
      <path id="mbd150f7be4" d="M 0 3.010399 
C 0.798367 3.010399 1.564143 2.693204 2.128673 2.128673 
C 2.693204 1.564143 3.010399 0.798367 3.010399 0 
C 3.010399 -0.798367 2.693204 -1.564143 2.128673 -2.128673 
C 1.564143 -2.693204 0.798367 -3.010399 0 -3.010399 
C -0.798367 -3.010399 -1.564143 -2.693204 -2.128673 -2.128673 
C -2.693204 -1.564143 -3.010399 -0.798367 -3.010399 0 
C -3.010399 0.798367 -2.693204 1.564143 -2.128673 2.128673 
C -1.564143 2.693204 -0.798367 3.010399 0 3.010399 
z
" style="stroke: #ffffff; stroke-width: 0.426822"/>
     </defs>
     <g>
      <use xlink:href="#mbd150f7be4" x="754.17" y="138.163437" style="fill: #333333; stroke: #ffffff; stroke-width: 0.426822"/>
     </g>
    </g>
    <g id="text_36">
     <!-- 0.015 -->
     <g transform="translate(772.17 141.663437) scale(0.1 -0.1)">
      <use xlink:href="#DejaVuSans-30"/>
      <use xlink:href="#DejaVuSans-2e" transform="translate(63.623047 0)"/>
      <use xlink:href="#DejaVuSans-30" transform="translate(95.410156 0)"/>
      <use xlink:href="#DejaVuSans-31" transform="translate(159.033203 0)"/>
      <use xlink:href="#DejaVuSans-35" transform="translate(222.65625 0)"/>
     </g>
    </g>
    <g id="line2d_47">
     <defs>
      <path id="md5677cd420" d="M 0 4.018489 
C 1.065716 4.018489 2.087926 3.595076 2.841501 2.841501 
C 3.595076 2.087926 4.018489 1.065716 4.018489 0 
C 4.018489 -1.065716 3.595076 -2.087926 2.841501 -2.841501 
C 2.087926 -3.595076 1.065716 -4.018489 0 -4.018489 
C -1.065716 -4.018489 -2.087926 -3.595076 -2.841501 -2.841501 
C -3.595076 -2.087926 -4.018489 -1.065716 -4.018489 0 
C -4.018489 1.065716 -3.595076 2.087926 -2.841501 2.841501 
C -2.087926 3.595076 -1.065716 4.018489 0 4.018489 
z
" style="stroke: #ffffff; stroke-width: 0.426822"/>
     </defs>
     <g>
      <use xlink:href="#md5677cd420" x="754.17" y="152.841563" style="fill: #333333; stroke: #ffffff; stroke-width: 0.426822"/>
     </g>
    </g>
    <g id="text_37">
     <!-- 0.030 -->
     <g transform="translate(772.17 156.341563) scale(0.1 -0.1)">
      <use xlink:href="#DejaVuSans-30"/>
      <use xlink:href="#DejaVuSans-2e" transform="translate(63.623047 0)"/>
      <use xlink:href="#DejaVuSans-30" transform="translate(95.410156 0)"/>
      <use xlink:href="#DejaVuSans-33" transform="translate(159.033203 0)"/>
      <use xlink:href="#DejaVuSans-30" transform="translate(222.65625 0)"/>
     </g>
    </g>
    <g id="line2d_48">
     <defs>
      <path id="m43a88f581c" d="M 0 4.820167 
C 1.278323 4.820167 2.504462 4.312284 3.408373 3.408373 
C 4.312284 2.504462 4.820167 1.278323 4.820167 0 
C 4.820167 -1.278323 4.312284 -2.504462 3.408373 -3.408373 
C 2.504462 -4.312284 1.278323 -4.820167 0 -4.820167 
C -1.278323 -4.820167 -2.504462 -4.312284 -3.408373 -3.408373 
C -4.312284 -2.504462 -4.820167 -1.278323 -4.820167 0 
C -4.820167 1.278323 -4.312284 2.504462 -3.408373 3.408373 
C -2.504462 4.312284 -1.278323 4.820167 0 4.820167 
z
" style="stroke: #ffffff; stroke-width: 0.426822"/>
     </defs>
     <g>
      <use xlink:href="#m43a88f581c" x="754.17" y="167.519687" style="fill: #333333; stroke: #ffffff; stroke-width: 0.426822"/>
     </g>
    </g>
    <g id="text_38">
     <!-- 0.045 -->
     <g transform="translate(772.17 171.019687) scale(0.1 -0.1)">
      <use xlink:href="#DejaVuSans-30"/>
      <use xlink:href="#DejaVuSans-2e" transform="translate(63.623047 0)"/>
      <use xlink:href="#DejaVuSans-30" transform="translate(95.410156 0)"/>
      <use xlink:href="#DejaVuSans-34" transform="translate(159.033203 0)"/>
      <use xlink:href="#DejaVuSans-35" transform="translate(222.65625 0)"/>
     </g>
    </g>
    <g id="line2d_49">
     <defs>
      <path id="m42b4c7bf0a" d="M 0 5.506339 
C 1.460298 5.506339 2.860983 4.926156 3.89357 3.89357 
C 4.926156 2.860983 5.506339 1.460298 5.506339 0 
C 5.506339 -1.460298 4.926156 -2.860983 3.89357 -3.89357 
C 2.860983 -4.926156 1.460298 -5.506339 0 -5.506339 
C -1.460298 -5.506339 -2.860983 -4.926156 -3.89357 -3.89357 
C -4.926156 -2.860983 -5.506339 -1.460298 -5.506339 0 
C -5.506339 1.460298 -4.926156 2.860983 -3.89357 3.89357 
C -2.860983 4.926156 -1.460298 5.506339 0 5.506339 
z
" style="stroke: #ffffff; stroke-width: 0.426822"/>
     </defs>
     <g>
      <use xlink:href="#m42b4c7bf0a" x="754.17" y="182.197812" style="fill: #333333; stroke: #ffffff; stroke-width: 0.426822"/>
     </g>
    </g>
    <g id="text_39">
     <!-- 0.060 -->
     <g transform="translate(772.17 185.697812) scale(0.1 -0.1)">
      <use xlink:href="#DejaVuSans-30"/>
      <use xlink:href="#DejaVuSans-2e" transform="translate(63.623047 0)"/>
      <use xlink:href="#DejaVuSans-30" transform="translate(95.410156 0)"/>
      <use xlink:href="#DejaVuSans-36" transform="translate(159.033203 0)"/>
      <use xlink:href="#DejaVuSans-30" transform="translate(222.65625 0)"/>
     </g>
    </g>
    <g id="line2d_50">
     <defs>
      <path id="mf94a51f51c" d="M 0 6.116005 
C 1.621984 6.116005 3.177753 5.471585 4.324669 4.324669 
C 5.471585 3.177753 6.116005 1.621984 6.116005 0 
C 6.116005 -1.621984 5.471585 -3.177753 4.324669 -4.324669 
C 3.177753 -5.471585 1.621984 -6.116005 0 -6.116005 
C -1.621984 -6.116005 -3.177753 -5.471585 -4.324669 -4.324669 
C -5.471585 -3.177753 -6.116005 -1.621984 -6.116005 0 
C -6.116005 1.621984 -5.471585 3.177753 -4.324669 4.324669 
C -3.177753 5.471585 -1.621984 6.116005 0 6.116005 
z
" style="stroke: #ffffff; stroke-width: 0.426822"/>
     </defs>
     <g>
      <use xlink:href="#mf94a51f51c" x="754.17" y="196.875937" style="fill: #333333; stroke: #ffffff; stroke-width: 0.426822"/>
     </g>
    </g>
    <g id="text_40">
     <!-- 0.075 -->
     <g transform="translate(772.17 200.375937) scale(0.1 -0.1)">
      <use xlink:href="#DejaVuSans-30"/>
      <use xlink:href="#DejaVuSans-2e" transform="translate(63.623047 0)"/>
      <use xlink:href="#DejaVuSans-30" transform="translate(95.410156 0)"/>
      <use xlink:href="#DejaVuSans-37" transform="translate(159.033203 0)"/>
      <use xlink:href="#DejaVuSans-35" transform="translate(222.65625 0)"/>
     </g>
    </g>
   </g>
  </g>
 </g>
 <defs>
  <clipPath id="pe5ec4ed9a5">
   <rect x="378.05" y="22.318125" width="357.12" height="266.112"/>
  </clipPath>
 </defs>
</svg>
