<?xml version="1.0" encoding="utf-8" standalone="no"?>
<!DOCTYPE svg PUBLIC "-//W3C//DTD SVG 1.1//EN"
  "http://www.w3.org/Graphics/SVG/1.1/DTD/svg11.dtd">
<svg xmlns:xlink="http://www.w3.org/1999/xlink" width="715.566875pt" height="325.986375pt" viewBox="0 0 715.566875 325.986375" xmlns="http://www.w3.org/2000/svg" version="1.1">
 <metadata>
  <rdf:RDF xmlns:dc="http://purl.org/dc/elements/1.1/" xmlns:cc="http://creativecommons.org/ns#" xmlns:rdf="http://www.w3.org/1999/02/22-rdf-syntax-ns#">
   <cc:Work>
    <dc:type rdf:resource="http://purl.org/dc/dcmitype/StillImage"/>
    <dc:date>2025-12-27T20:08:46.164382</dc:date>
    <dc:format>image/svg+xml</dc:format>
    <dc:creator>
     <cc:Agent>
      <dc:title>Matplotlib v3.10.7, https://matplotlib.org/</dc:title>
     </cc:Agent>
    </dc:creator>
   </cc:Work>
  </rdf:RDF>
 </metadata>
 <defs>
  <style type="text/css">*{stroke-linejoin: round; stroke-linecap: butt}</style>
 </defs>
 <g id="figure_1">
  <g id="patch_1">
   <path d="M -0 325.986375 
L 715.566875 325.986375 
L 715.566875 0 
L -0 0 
z
" style="fill: #ffffff"/>
  </g>
  <g id="axes_1">
   <g id="patch_2">
    <path d="M 255.007812 288.430125 
L 612.127813 288.430125 
L 612.127813 22.318125 
L 255.007812 22.318125 
z
" style="fill: #ffffff"/>
   </g>
   <g id="PathCollection_1">
    <path d="M 595.895085 36.761635 
C 596.517652 36.761635 597.114804 36.514287 597.555026 36.074066 
C 597.995247 35.633844 598.242596 35.036692 598.242596 34.414125 
C 598.242596 33.791558 597.995247 33.194406 597.555026 32.754184 
C 597.114804 32.313963 596.517652 32.066615 595.895085 32.066615 
C 595.272518 32.066615 594.675366 32.313963 594.235145 32.754184 
C 593.794923 33.194406 593.547575 33.791558 593.547575 34.414125 
C 593.547575 35.036692 593.794923 35.633844 594.235145 36.074066 
C 594.675366 36.514287 595.272518 36.761635 595.895085 36.761635 
z
" clip-path="url(#p5aee5d096d)" style="fill: #5977e3; stroke: #ffffff; stroke-width: 0.372104"/>
    <path d="M 433.983338 67.042086 
C 434.616632 67.042086 435.224074 66.790475 435.671881 66.342668 
C 436.119688 65.894861 436.371299 65.28742 436.371299 64.654125 
C 436.371299 64.02083 436.119688 63.413389 435.671881 62.965582 
C 435.224074 62.517775 434.616632 62.266164 433.983338 62.266164 
C 433.350043 62.266164 432.742601 62.517775 432.294794 62.965582 
C 431.846987 63.413389 431.595377 64.02083 431.595377 64.654125 
C 431.595377 65.28742 431.846987 65.894861 432.294794 66.342668 
C 432.742601 66.790475 433.350043 67.042086 433.983338 67.042086 
z
" clip-path="url(#p5aee5d096d)" style="fill: #3c4ec2; stroke: #ffffff; stroke-width: 0.372104"/>
    <path d="M 353.808432 97.487187 
C 354.49612 97.487187 355.155735 97.213965 355.642003 96.727696 
C 356.128272 96.241428 356.401494 95.581813 356.401494 94.894125 
C 356.401494 94.206437 356.128272 93.546822 355.642003 93.060554 
C 355.155735 92.574285 354.49612 92.301063 353.808432 92.301063 
C 353.120744 92.301063 352.461129 92.574285 351.974861 93.060554 
C 351.488592 93.546822 351.21537 94.206437 351.21537 94.894125 
C 351.21537 95.581813 351.488592 96.241428 351.974861 96.727696 
C 352.461129 97.213965 353.120744 97.487187 353.808432 97.487187 
z
" clip-path="url(#p5aee5d096d)" style="fill: #485fd1; stroke: #ffffff; stroke-width: 0.372104"/>
    <path d="M 347.99583 127.751694 
C 348.690017 127.751694 349.355866 127.475891 349.846731 126.985026 
C 350.337595 126.494161 350.613399 125.828313 350.613399 125.134125 
C 350.613399 124.439937 350.337595 123.774089 349.846731 123.283224 
C 349.355866 122.792359 348.690017 122.516556 347.99583 122.516556 
C 347.301642 122.516556 346.635793 122.792359 346.144929 123.283224 
C 345.654064 123.774089 345.37826 124.439937 345.37826 125.134125 
C 345.37826 125.828313 345.654064 126.494161 346.144929 126.985026 
C 346.635793 127.475891 347.301642 127.751694 347.99583 127.751694 
z
" clip-path="url(#p5aee5d096d)" style="fill: #4358cb; stroke: #ffffff; stroke-width: 0.372104"/>
    <path d="M 346.171249 158.028032 
C 346.875074 158.028032 347.550166 157.7484 348.047845 157.250721 
C 348.545524 156.753042 348.825156 156.077949 348.825156 155.374125 
C 348.825156 154.670301 348.545524 153.995208 348.047845 153.497529 
C 347.550166 152.99985 346.875074 152.720218 346.171249 152.720218 
C 345.467425 152.720218 344.792333 152.99985 344.294654 153.497529 
C 343.796975 153.995208 343.517342 154.670301 343.517342 155.374125 
C 343.517342 156.077949 343.796975 156.753042 344.294654 157.250721 
C 344.792333 157.7484 345.467425 158.028032 346.171249 158.028032 
z
" clip-path="url(#p5aee5d096d)" style="fill: #4961d2; stroke: #ffffff; stroke-width: 0.372104"/>
    <path d="M 316.311813 188.823425 
C 317.162929 188.823425 317.979301 188.485273 318.581131 187.883443 
C 319.182961 187.281613 319.521113 186.465241 319.521113 185.614125 
C 319.521113 184.763009 319.182961 183.946637 318.581131 183.344807 
C 317.979301 182.742977 317.162929 182.404825 316.311813 182.404825 
C 315.460696 182.404825 314.644325 182.742977 314.042495 183.344807 
C 313.440665 183.946637 313.102513 184.763009 313.102513 185.614125 
C 313.102513 186.465241 313.440665 187.281613 314.042495 187.883443 
C 314.644325 188.485273 315.460696 188.823425 316.311813 188.823425 
z
" clip-path="url(#p5aee5d096d)" style="fill: #3f53c6; stroke: #ffffff; stroke-width: 0.372104"/>
    <path d="M 313.661279 219.161407 
C 314.538381 219.161407 315.379676 218.812931 315.999881 218.192726 
C 316.620085 217.572522 316.968561 216.731226 316.968561 215.854125 
C 316.968561 214.977024 316.620085 214.135728 315.999881 213.515524 
C 315.379676 212.895319 314.538381 212.546843 313.661279 212.546843 
C 312.784178 212.546843 311.942882 212.895319 311.322678 213.515524 
C 310.702473 214.135728 310.353997 214.977024 310.353997 215.854125 
C 310.353997 216.731226 310.702473 217.572522 311.322678 218.192726 
C 311.942882 218.812931 312.784178 219.161407 313.661279 219.161407 
z
" clip-path="url(#p5aee5d096d)" style="fill: #3b4cc0; stroke: #ffffff; stroke-width: 0.372104"/>
    <path d="M 301.376489 252.217849 
C 303.00052 252.217849 304.558253 251.572615 305.706616 250.424252 
C 306.854979 249.275889 307.500213 247.718156 307.500213 246.094125 
C 307.500213 244.470094 306.854979 242.912361 305.706616 241.763998 
C 304.558253 240.615635 303.00052 239.970401 301.376489 239.970401 
C 299.752458 239.970401 298.194725 240.615635 297.046362 241.763998 
C 295.897999 242.912361 295.252764 244.470094 295.252764 246.094125 
C 295.252764 247.718156 295.897999 249.275889 297.046362 250.424252 
C 298.194725 251.572615 299.752458 252.217849 301.376489 252.217849 
z
" clip-path="url(#p5aee5d096d)" style="fill: #b40426; stroke: #ffffff; stroke-width: 0.372104"/>
    <path d="M 271.24054 278.570193 
C 271.833552 278.570193 272.402356 278.334587 272.821679 277.915264 
C 273.241002 277.495941 273.476608 276.927137 273.476608 276.334125 
C 273.476608 275.741113 273.241002 275.172309 272.821679 274.752986 
C 272.402356 274.333663 271.833552 274.098057 271.24054 274.098057 
C 270.647528 274.098057 270.078724 274.333663 269.659401 274.752986 
C 269.240078 275.172309 269.004472 275.741113 269.004472 276.334125 
C 269.004472 276.927137 269.240078 277.495941 269.659401 277.915264 
C 270.078724 278.334587 270.647528 278.570193 271.24054 278.570193 
z
" clip-path="url(#p5aee5d096d)" style="fill: #4f69d9; stroke: #ffffff; stroke-width: 0.372104"/>
   </g>
   <g id="matplotlib.axis_1">
    <g id="xtick_1">
     <g id="line2d_1">
      <defs>
       <path id="m6c3f5b3e94" d="M 0 0 
L 0 3.5 
" style="stroke: #000000; stroke-width: 0.8"/>
      </defs>
      <g>
       <use xlink:href="#m6c3f5b3e94" x="269.145474" y="288.430125" style="stroke: #000000; stroke-width: 0.8"/>
      </g>
     </g>
     <g id="text_1">
      <!-- 0 -->
      <g transform="translate(265.964224 303.028562) scale(0.1 -0.1)">
       <defs>
        <path id="DejaVuSans-30" d="M 2034 4250 
Q 1547 4250 1301 3770 
Q 1056 3291 1056 2328 
Q 1056 1369 1301 889 
Q 1547 409 2034 409 
Q 2525 409 2770 889 
Q 3016 1369 3016 2328 
Q 3016 3291 2770 3770 
Q 2525 4250 2034 4250 
z
M 2034 4750 
Q 2819 4750 3233 4129 
Q 3647 3509 3647 2328 
Q 3647 1150 3233 529 
Q 2819 -91 2034 -91 
Q 1250 -91 836 529 
Q 422 1150 422 2328 
Q 422 3509 836 4129 
Q 1250 4750 2034 4750 
z
" transform="scale(0.015625)"/>
       </defs>
       <use xlink:href="#DejaVuSans-30"/>
      </g>
     </g>
    </g>
    <g id="xtick_2">
     <g id="line2d_2">
      <g>
       <use xlink:href="#m6c3f5b3e94" x="320.705789" y="288.430125" style="stroke: #000000; stroke-width: 0.8"/>
      </g>
     </g>
     <g id="text_2">
      <!-- 2 -->
      <g transform="translate(317.524539 303.028562) scale(0.1 -0.1)">
       <defs>
        <path id="DejaVuSans-32" d="M 1228 531 
L 3431 531 
L 3431 0 
L 469 0 
L 469 531 
Q 828 903 1448 1529 
Q 2069 2156 2228 2338 
Q 2531 2678 2651 2914 
Q 2772 3150 2772 3378 
Q 2772 3750 2511 3984 
Q 2250 4219 1831 4219 
Q 1534 4219 1204 4116 
Q 875 4013 500 3803 
L 500 4441 
Q 881 4594 1212 4672 
Q 1544 4750 1819 4750 
Q 2544 4750 2975 4387 
Q 3406 4025 3406 3419 
Q 3406 3131 3298 2873 
Q 3191 2616 2906 2266 
Q 2828 2175 2409 1742 
Q 1991 1309 1228 531 
z
" transform="scale(0.015625)"/>
       </defs>
       <use xlink:href="#DejaVuSans-32"/>
      </g>
     </g>
    </g>
    <g id="xtick_3">
     <g id="line2d_3">
      <g>
       <use xlink:href="#m6c3f5b3e94" x="372.266103" y="288.430125" style="stroke: #000000; stroke-width: 0.8"/>
      </g>
     </g>
     <g id="text_3">
      <!-- 4 -->
      <g transform="translate(369.084853 303.028562) scale(0.1 -0.1)">
       <defs>
        <path id="DejaVuSans-34" d="M 2419 4116 
L 825 1625 
L 2419 1625 
L 2419 4116 
z
M 2253 4666 
L 3047 4666 
L 3047 1625 
L 3713 1625 
L 3713 1100 
L 3047 1100 
L 3047 0 
L 2419 0 
L 2419 1100 
L 313 1100 
L 313 1709 
L 2253 4666 
z
" transform="scale(0.015625)"/>
       </defs>
       <use xlink:href="#DejaVuSans-34"/>
      </g>
     </g>
    </g>
    <g id="xtick_4">
     <g id="line2d_4">
      <g>
       <use xlink:href="#m6c3f5b3e94" x="423.826418" y="288.430125" style="stroke: #000000; stroke-width: 0.8"/>
      </g>
     </g>
     <g id="text_4">
      <!-- 6 -->
      <g transform="translate(420.645168 303.028562) scale(0.1 -0.1)">
       <defs>
        <path id="DejaVuSans-36" d="M 2113 2584 
Q 1688 2584 1439 2293 
Q 1191 2003 1191 1497 
Q 1191 994 1439 701 
Q 1688 409 2113 409 
Q 2538 409 2786 701 
Q 3034 994 3034 1497 
Q 3034 2003 2786 2293 
Q 2538 2584 2113 2584 
z
M 3366 4563 
L 3366 3988 
Q 3128 4100 2886 4159 
Q 2644 4219 2406 4219 
Q 1781 4219 1451 3797 
Q 1122 3375 1075 2522 
Q 1259 2794 1537 2939 
Q 1816 3084 2150 3084 
Q 2853 3084 3261 2657 
Q 3669 2231 3669 1497 
Q 3669 778 3244 343 
Q 2819 -91 2113 -91 
Q 1303 -91 875 529 
Q 447 1150 447 2328 
Q 447 3434 972 4092 
Q 1497 4750 2381 4750 
Q 2619 4750 2861 4703 
Q 3103 4656 3366 4563 
z
" transform="scale(0.015625)"/>
       </defs>
       <use xlink:href="#DejaVuSans-36"/>
      </g>
     </g>
    </g>
    <g id="xtick_5">
     <g id="line2d_5">
      <g>
       <use xlink:href="#m6c3f5b3e94" x="475.386732" y="288.430125" style="stroke: #000000; stroke-width: 0.8"/>
      </g>
     </g>
     <g id="text_5">
      <!-- 8 -->
      <g transform="translate(472.205482 303.028562) scale(0.1 -0.1)">
       <defs>
        <path id="DejaVuSans-38" d="M 2034 2216 
Q 1584 2216 1326 1975 
Q 1069 1734 1069 1313 
Q 1069 891 1326 650 
Q 1584 409 2034 409 
Q 2484 409 2743 651 
Q 3003 894 3003 1313 
Q 3003 1734 2745 1975 
Q 2488 2216 2034 2216 
z
M 1403 2484 
Q 997 2584 770 2862 
Q 544 3141 544 3541 
Q 544 4100 942 4425 
Q 1341 4750 2034 4750 
Q 2731 4750 3128 4425 
Q 3525 4100 3525 3541 
Q 3525 3141 3298 2862 
Q 3072 2584 2669 2484 
Q 3125 2378 3379 2068 
Q 3634 1759 3634 1313 
Q 3634 634 3220 271 
Q 2806 -91 2034 -91 
Q 1263 -91 848 271 
Q 434 634 434 1313 
Q 434 1759 690 2068 
Q 947 2378 1403 2484 
z
M 1172 3481 
Q 1172 3119 1398 2916 
Q 1625 2713 2034 2713 
Q 2441 2713 2670 2916 
Q 2900 3119 2900 3481 
Q 2900 3844 2670 4047 
Q 2441 4250 2034 4250 
Q 1625 4250 1398 4047 
Q 1172 3844 1172 3481 
z
" transform="scale(0.015625)"/>
       </defs>
       <use xlink:href="#DejaVuSans-38"/>
      </g>
     </g>
    </g>
    <g id="xtick_6">
     <g id="line2d_6">
      <g>
       <use xlink:href="#m6c3f5b3e94" x="526.947046" y="288.430125" style="stroke: #000000; stroke-width: 0.8"/>
      </g>
     </g>
     <g id="text_6">
      <!-- 10 -->
      <g transform="translate(520.584546 303.028562) scale(0.1 -0.1)">
       <defs>
        <path id="DejaVuSans-31" d="M 794 531 
L 1825 531 
L 1825 4091 
L 703 3866 
L 703 4441 
L 1819 4666 
L 2450 4666 
L 2450 531 
L 3481 531 
L 3481 0 
L 794 0 
L 794 531 
z
" transform="scale(0.015625)"/>
       </defs>
       <use xlink:href="#DejaVuSans-31"/>
       <use xlink:href="#DejaVuSans-30" transform="translate(63.623047 0)"/>
      </g>
     </g>
    </g>
    <g id="xtick_7">
     <g id="line2d_7">
      <g>
       <use xlink:href="#m6c3f5b3e94" x="578.507361" y="288.430125" style="stroke: #000000; stroke-width: 0.8"/>
      </g>
     </g>
     <g id="text_7">
      <!-- 12 -->
      <g transform="translate(572.144861 303.028562) scale(0.1 -0.1)">
       <use xlink:href="#DejaVuSans-31"/>
       <use xlink:href="#DejaVuSans-32" transform="translate(63.623047 0)"/>
      </g>
     </g>
    </g>
    <g id="text_8">
     <!-- Fold Enrichment -->
     <g transform="translate(392.895156 316.706687) scale(0.1 -0.1)">
      <defs>
       <path id="DejaVuSans-46" d="M 628 4666 
L 3309 4666 
L 3309 4134 
L 1259 4134 
L 1259 2759 
L 3109 2759 
L 3109 2228 
L 1259 2228 
L 1259 0 
L 628 0 
L 628 4666 
z
" transform="scale(0.015625)"/>
       <path id="DejaVuSans-6f" d="M 1959 3097 
Q 1497 3097 1228 2736 
Q 959 2375 959 1747 
Q 959 1119 1226 758 
Q 1494 397 1959 397 
Q 2419 397 2687 759 
Q 2956 1122 2956 1747 
Q 2956 2369 2687 2733 
Q 2419 3097 1959 3097 
z
M 1959 3584 
Q 2709 3584 3137 3096 
Q 3566 2609 3566 1747 
Q 3566 888 3137 398 
Q 2709 -91 1959 -91 
Q 1206 -91 779 398 
Q 353 888 353 1747 
Q 353 2609 779 3096 
Q 1206 3584 1959 3584 
z
" transform="scale(0.015625)"/>
       <path id="DejaVuSans-6c" d="M 603 4863 
L 1178 4863 
L 1178 0 
L 603 0 
L 603 4863 
z
" transform="scale(0.015625)"/>
       <path id="DejaVuSans-64" d="M 2906 2969 
L 2906 4863 
L 3481 4863 
L 3481 0 
L 2906 0 
L 2906 525 
Q 2725 213 2448 61 
Q 2172 -91 1784 -91 
Q 1150 -91 751 415 
Q 353 922 353 1747 
Q 353 2572 751 3078 
Q 1150 3584 1784 3584 
Q 2172 3584 2448 3432 
Q 2725 3281 2906 2969 
z
M 947 1747 
Q 947 1113 1208 752 
Q 1469 391 1925 391 
Q 2381 391 2643 752 
Q 2906 1113 2906 1747 
Q 2906 2381 2643 2742 
Q 2381 3103 1925 3103 
Q 1469 3103 1208 2742 
Q 947 2381 947 1747 
z
" transform="scale(0.015625)"/>
       <path id="DejaVuSans-20" transform="scale(0.015625)"/>
       <path id="DejaVuSans-45" d="M 628 4666 
L 3578 4666 
L 3578 4134 
L 1259 4134 
L 1259 2753 
L 3481 2753 
L 3481 2222 
L 1259 2222 
L 1259 531 
L 3634 531 
L 3634 0 
L 628 0 
L 628 4666 
z
" transform="scale(0.015625)"/>
       <path id="DejaVuSans-6e" d="M 3513 2113 
L 3513 0 
L 2938 0 
L 2938 2094 
Q 2938 2591 2744 2837 
Q 2550 3084 2163 3084 
Q 1697 3084 1428 2787 
Q 1159 2491 1159 1978 
L 1159 0 
L 581 0 
L 581 3500 
L 1159 3500 
L 1159 2956 
Q 1366 3272 1645 3428 
Q 1925 3584 2291 3584 
Q 2894 3584 3203 3211 
Q 3513 2838 3513 2113 
z
" transform="scale(0.015625)"/>
       <path id="DejaVuSans-72" d="M 2631 2963 
Q 2534 3019 2420 3045 
Q 2306 3072 2169 3072 
Q 1681 3072 1420 2755 
Q 1159 2438 1159 1844 
L 1159 0 
L 581 0 
L 581 3500 
L 1159 3500 
L 1159 2956 
Q 1341 3275 1631 3429 
Q 1922 3584 2338 3584 
Q 2397 3584 2469 3576 
Q 2541 3569 2628 3553 
L 2631 2963 
z
" transform="scale(0.015625)"/>
       <path id="DejaVuSans-69" d="M 603 3500 
L 1178 3500 
L 1178 0 
L 603 0 
L 603 3500 
z
M 603 4863 
L 1178 4863 
L 1178 4134 
L 603 4134 
L 603 4863 
z
" transform="scale(0.015625)"/>
       <path id="DejaVuSans-63" d="M 3122 3366 
L 3122 2828 
Q 2878 2963 2633 3030 
Q 2388 3097 2138 3097 
Q 1578 3097 1268 2742 
Q 959 2388 959 1747 
Q 959 1106 1268 751 
Q 1578 397 2138 397 
Q 2388 397 2633 464 
Q 2878 531 3122 666 
L 3122 134 
Q 2881 22 2623 -34 
Q 2366 -91 2075 -91 
Q 1284 -91 818 406 
Q 353 903 353 1747 
Q 353 2603 823 3093 
Q 1294 3584 2113 3584 
Q 2378 3584 2631 3529 
Q 2884 3475 3122 3366 
z
" transform="scale(0.015625)"/>
       <path id="DejaVuSans-68" d="M 3513 2113 
L 3513 0 
L 2938 0 
L 2938 2094 
Q 2938 2591 2744 2837 
Q 2550 3084 2163 3084 
Q 1697 3084 1428 2787 
Q 1159 2491 1159 1978 
L 1159 0 
L 581 0 
L 581 4863 
L 1159 4863 
L 1159 2956 
Q 1366 3272 1645 3428 
Q 1925 3584 2291 3584 
Q 2894 3584 3203 3211 
Q 3513 2838 3513 2113 
z
" transform="scale(0.015625)"/>
       <path id="DejaVuSans-6d" d="M 3328 2828 
Q 3544 3216 3844 3400 
Q 4144 3584 4550 3584 
Q 5097 3584 5394 3201 
Q 5691 2819 5691 2113 
L 5691 0 
L 5113 0 
L 5113 2094 
Q 5113 2597 4934 2840 
Q 4756 3084 4391 3084 
Q 3944 3084 3684 2787 
Q 3425 2491 3425 1978 
L 3425 0 
L 2847 0 
L 2847 2094 
Q 2847 2600 2669 2842 
Q 2491 3084 2119 3084 
Q 1678 3084 1418 2786 
Q 1159 2488 1159 1978 
L 1159 0 
L 581 0 
L 581 3500 
L 1159 3500 
L 1159 2956 
Q 1356 3278 1631 3431 
Q 1906 3584 2284 3584 
Q 2666 3584 2933 3390 
Q 3200 3197 3328 2828 
z
" transform="scale(0.015625)"/>
       <path id="DejaVuSans-65" d="M 3597 1894 
L 3597 1613 
L 953 1613 
Q 991 1019 1311 708 
Q 1631 397 2203 397 
Q 2534 397 2845 478 
Q 3156 559 3463 722 
L 3463 178 
Q 3153 47 2828 -22 
Q 2503 -91 2169 -91 
Q 1331 -91 842 396 
Q 353 884 353 1716 
Q 353 2575 817 3079 
Q 1281 3584 2069 3584 
Q 2775 3584 3186 3129 
Q 3597 2675 3597 1894 
z
M 3022 2063 
Q 3016 2534 2758 2815 
Q 2500 3097 2075 3097 
Q 1594 3097 1305 2825 
Q 1016 2553 972 2059 
L 3022 2063 
z
" transform="scale(0.015625)"/>
       <path id="DejaVuSans-74" d="M 1172 4494 
L 1172 3500 
L 2356 3500 
L 2356 3053 
L 1172 3053 
L 1172 1153 
Q 1172 725 1289 603 
Q 1406 481 1766 481 
L 2356 481 
L 2356 0 
L 1766 0 
Q 1100 0 847 248 
Q 594 497 594 1153 
L 594 3053 
L 172 3053 
L 172 3500 
L 594 3500 
L 594 4494 
L 1172 4494 
z
" transform="scale(0.015625)"/>
      </defs>
      <use xlink:href="#DejaVuSans-46"/>
      <use xlink:href="#DejaVuSans-6f" transform="translate(53.894531 0)"/>
      <use xlink:href="#DejaVuSans-6c" transform="translate(115.076172 0)"/>
      <use xlink:href="#DejaVuSans-64" transform="translate(142.859375 0)"/>
      <use xlink:href="#DejaVuSans-20" transform="translate(206.335938 0)"/>
      <use xlink:href="#DejaVuSans-45" transform="translate(238.123047 0)"/>
      <use xlink:href="#DejaVuSans-6e" transform="translate(301.306641 0)"/>
      <use xlink:href="#DejaVuSans-72" transform="translate(364.685547 0)"/>
      <use xlink:href="#DejaVuSans-69" transform="translate(405.798828 0)"/>
      <use xlink:href="#DejaVuSans-63" transform="translate(433.582031 0)"/>
      <use xlink:href="#DejaVuSans-68" transform="translate(488.5625 0)"/>
      <use xlink:href="#DejaVuSans-6d" transform="translate(551.941406 0)"/>
      <use xlink:href="#DejaVuSans-65" transform="translate(649.353516 0)"/>
      <use xlink:href="#DejaVuSans-6e" transform="translate(710.876953 0)"/>
      <use xlink:href="#DejaVuSans-74" transform="translate(774.255859 0)"/>
     </g>
    </g>
   </g>
   <g id="matplotlib.axis_2">
    <g id="ytick_1">
     <g id="line2d_8">
      <defs>
       <path id="m8990b3750a" d="M 0 0 
L -3.5 0 
" style="stroke: #000000; stroke-width: 0.8"/>
      </defs>
      <g>
       <use xlink:href="#m8990b3750a" x="255.007812" y="34.414125" style="stroke: #000000; stroke-width: 0.8"/>
      </g>
     </g>
     <g id="text_9">
      <!-- low-density lipoprotein particle receptor binding -->
      <g transform="translate(7.2 38.213344) scale(0.1 -0.1)">
       <defs>
        <path id="DejaVuSans-77" d="M 269 3500 
L 844 3500 
L 1563 769 
L 2278 3500 
L 2956 3500 
L 3675 769 
L 4391 3500 
L 4966 3500 
L 4050 0 
L 3372 0 
L 2619 2869 
L 1863 0 
L 1184 0 
L 269 3500 
z
" transform="scale(0.015625)"/>
        <path id="DejaVuSans-2d" d="M 313 2009 
L 1997 2009 
L 1997 1497 
L 313 1497 
L 313 2009 
z
" transform="scale(0.015625)"/>
        <path id="DejaVuSans-73" d="M 2834 3397 
L 2834 2853 
Q 2591 2978 2328 3040 
Q 2066 3103 1784 3103 
Q 1356 3103 1142 2972 
Q 928 2841 928 2578 
Q 928 2378 1081 2264 
Q 1234 2150 1697 2047 
L 1894 2003 
Q 2506 1872 2764 1633 
Q 3022 1394 3022 966 
Q 3022 478 2636 193 
Q 2250 -91 1575 -91 
Q 1294 -91 989 -36 
Q 684 19 347 128 
L 347 722 
Q 666 556 975 473 
Q 1284 391 1588 391 
Q 1994 391 2212 530 
Q 2431 669 2431 922 
Q 2431 1156 2273 1281 
Q 2116 1406 1581 1522 
L 1381 1569 
Q 847 1681 609 1914 
Q 372 2147 372 2553 
Q 372 3047 722 3315 
Q 1072 3584 1716 3584 
Q 2034 3584 2315 3537 
Q 2597 3491 2834 3397 
z
" transform="scale(0.015625)"/>
        <path id="DejaVuSans-79" d="M 2059 -325 
Q 1816 -950 1584 -1140 
Q 1353 -1331 966 -1331 
L 506 -1331 
L 506 -850 
L 844 -850 
Q 1081 -850 1212 -737 
Q 1344 -625 1503 -206 
L 1606 56 
L 191 3500 
L 800 3500 
L 1894 763 
L 2988 3500 
L 3597 3500 
L 2059 -325 
z
" transform="scale(0.015625)"/>
        <path id="DejaVuSans-70" d="M 1159 525 
L 1159 -1331 
L 581 -1331 
L 581 3500 
L 1159 3500 
L 1159 2969 
Q 1341 3281 1617 3432 
Q 1894 3584 2278 3584 
Q 2916 3584 3314 3078 
Q 3713 2572 3713 1747 
Q 3713 922 3314 415 
Q 2916 -91 2278 -91 
Q 1894 -91 1617 61 
Q 1341 213 1159 525 
z
M 3116 1747 
Q 3116 2381 2855 2742 
Q 2594 3103 2138 3103 
Q 1681 3103 1420 2742 
Q 1159 2381 1159 1747 
Q 1159 1113 1420 752 
Q 1681 391 2138 391 
Q 2594 391 2855 752 
Q 3116 1113 3116 1747 
z
" transform="scale(0.015625)"/>
        <path id="DejaVuSans-61" d="M 2194 1759 
Q 1497 1759 1228 1600 
Q 959 1441 959 1056 
Q 959 750 1161 570 
Q 1363 391 1709 391 
Q 2188 391 2477 730 
Q 2766 1069 2766 1631 
L 2766 1759 
L 2194 1759 
z
M 3341 1997 
L 3341 0 
L 2766 0 
L 2766 531 
Q 2569 213 2275 61 
Q 1981 -91 1556 -91 
Q 1019 -91 701 211 
Q 384 513 384 1019 
Q 384 1609 779 1909 
Q 1175 2209 1959 2209 
L 2766 2209 
L 2766 2266 
Q 2766 2663 2505 2880 
Q 2244 3097 1772 3097 
Q 1472 3097 1187 3025 
Q 903 2953 641 2809 
L 641 3341 
Q 956 3463 1253 3523 
Q 1550 3584 1831 3584 
Q 2591 3584 2966 3190 
Q 3341 2797 3341 1997 
z
" transform="scale(0.015625)"/>
        <path id="DejaVuSans-62" d="M 3116 1747 
Q 3116 2381 2855 2742 
Q 2594 3103 2138 3103 
Q 1681 3103 1420 2742 
Q 1159 2381 1159 1747 
Q 1159 1113 1420 752 
Q 1681 391 2138 391 
Q 2594 391 2855 752 
Q 3116 1113 3116 1747 
z
M 1159 2969 
Q 1341 3281 1617 3432 
Q 1894 3584 2278 3584 
Q 2916 3584 3314 3078 
Q 3713 2572 3713 1747 
Q 3713 922 3314 415 
Q 2916 -91 2278 -91 
Q 1894 -91 1617 61 
Q 1341 213 1159 525 
L 1159 0 
L 581 0 
L 581 4863 
L 1159 4863 
L 1159 2969 
z
" transform="scale(0.015625)"/>
        <path id="DejaVuSans-67" d="M 2906 1791 
Q 2906 2416 2648 2759 
Q 2391 3103 1925 3103 
Q 1463 3103 1205 2759 
Q 947 2416 947 1791 
Q 947 1169 1205 825 
Q 1463 481 1925 481 
Q 2391 481 2648 825 
Q 2906 1169 2906 1791 
z
M 3481 434 
Q 3481 -459 3084 -895 
Q 2688 -1331 1869 -1331 
Q 1566 -1331 1297 -1286 
Q 1028 -1241 775 -1147 
L 775 -588 
Q 1028 -725 1275 -790 
Q 1522 -856 1778 -856 
Q 2344 -856 2625 -561 
Q 2906 -266 2906 331 
L 2906 616 
Q 2728 306 2450 153 
Q 2172 0 1784 0 
Q 1141 0 747 490 
Q 353 981 353 1791 
Q 353 2603 747 3093 
Q 1141 3584 1784 3584 
Q 2172 3584 2450 3431 
Q 2728 3278 2906 2969 
L 2906 3500 
L 3481 3500 
L 3481 434 
z
" transform="scale(0.015625)"/>
       </defs>
       <use xlink:href="#DejaVuSans-6c"/>
       <use xlink:href="#DejaVuSans-6f" transform="translate(27.783203 0)"/>
       <use xlink:href="#DejaVuSans-77" transform="translate(88.964844 0)"/>
       <use xlink:href="#DejaVuSans-2d" transform="translate(170.751953 0)"/>
       <use xlink:href="#DejaVuSans-64" transform="translate(206.835938 0)"/>
       <use xlink:href="#DejaVuSans-65" transform="translate(270.3125 0)"/>
       <use xlink:href="#DejaVuSans-6e" transform="translate(331.835938 0)"/>
       <use xlink:href="#DejaVuSans-73" transform="translate(395.214844 0)"/>
       <use xlink:href="#DejaVuSans-69" transform="translate(447.314453 0)"/>
       <use xlink:href="#DejaVuSans-74" transform="translate(475.097656 0)"/>
       <use xlink:href="#DejaVuSans-79" transform="translate(514.306641 0)"/>
       <use xlink:href="#DejaVuSans-20" transform="translate(573.486328 0)"/>
       <use xlink:href="#DejaVuSans-6c" transform="translate(605.273438 0)"/>
       <use xlink:href="#DejaVuSans-69" transform="translate(633.056641 0)"/>
       <use xlink:href="#DejaVuSans-70" transform="translate(660.839844 0)"/>
       <use xlink:href="#DejaVuSans-6f" transform="translate(724.316406 0)"/>
       <use xlink:href="#DejaVuSans-70" transform="translate(785.498047 0)"/>
       <use xlink:href="#DejaVuSans-72" transform="translate(848.974609 0)"/>
       <use xlink:href="#DejaVuSans-6f" transform="translate(887.837891 0)"/>
       <use xlink:href="#DejaVuSans-74" transform="translate(949.019531 0)"/>
       <use xlink:href="#DejaVuSans-65" transform="translate(988.228516 0)"/>
       <use xlink:href="#DejaVuSans-69" transform="translate(1049.751953 0)"/>
       <use xlink:href="#DejaVuSans-6e" transform="translate(1077.535156 0)"/>
       <use xlink:href="#DejaVuSans-20" transform="translate(1140.914062 0)"/>
       <use xlink:href="#DejaVuSans-70" transform="translate(1172.701172 0)"/>
       <use xlink:href="#DejaVuSans-61" transform="translate(1236.177734 0)"/>
       <use xlink:href="#DejaVuSans-72" transform="translate(1297.457031 0)"/>
       <use xlink:href="#DejaVuSans-74" transform="translate(1338.570312 0)"/>
       <use xlink:href="#DejaVuSans-69" transform="translate(1377.779297 0)"/>
       <use xlink:href="#DejaVuSans-63" transform="translate(1405.5625 0)"/>
       <use xlink:href="#DejaVuSans-6c" transform="translate(1460.542969 0)"/>
       <use xlink:href="#DejaVuSans-65" transform="translate(1488.326172 0)"/>
       <use xlink:href="#DejaVuSans-20" transform="translate(1549.849609 0)"/>
       <use xlink:href="#DejaVuSans-72" transform="translate(1581.636719 0)"/>
       <use xlink:href="#DejaVuSans-65" transform="translate(1620.5 0)"/>
       <use xlink:href="#DejaVuSans-63" transform="translate(1682.023438 0)"/>
       <use xlink:href="#DejaVuSans-65" transform="translate(1737.003906 0)"/>
       <use xlink:href="#DejaVuSans-70" transform="translate(1798.527344 0)"/>
       <use xlink:href="#DejaVuSans-74" transform="translate(1862.003906 0)"/>
       <use xlink:href="#DejaVuSans-6f" transform="translate(1901.212891 0)"/>
       <use xlink:href="#DejaVuSans-72" transform="translate(1962.394531 0)"/>
       <use xlink:href="#DejaVuSans-20" transform="translate(2003.507812 0)"/>
       <use xlink:href="#DejaVuSans-62" transform="translate(2035.294922 0)"/>
       <use xlink:href="#DejaVuSans-69" transform="translate(2098.771484 0)"/>
       <use xlink:href="#DejaVuSans-6e" transform="translate(2126.554688 0)"/>
       <use xlink:href="#DejaVuSans-64" transform="translate(2189.933594 0)"/>
       <use xlink:href="#DejaVuSans-69" transform="translate(2253.410156 0)"/>
       <use xlink:href="#DejaVuSans-6e" transform="translate(2281.193359 0)"/>
       <use xlink:href="#DejaVuSans-67" transform="translate(2344.572266 0)"/>
      </g>
     </g>
    </g>
    <g id="ytick_2">
     <g id="line2d_9">
      <g>
       <use xlink:href="#m8990b3750a" x="255.007812" y="64.654125" style="stroke: #000000; stroke-width: 0.8"/>
      </g>
     </g>
     <g id="text_10">
      <!-- SNARE binding -->
      <g transform="translate(173.615625 68.453344) scale(0.1 -0.1)">
       <defs>
        <path id="DejaVuSans-53" d="M 3425 4513 
L 3425 3897 
Q 3066 4069 2747 4153 
Q 2428 4238 2131 4238 
Q 1616 4238 1336 4038 
Q 1056 3838 1056 3469 
Q 1056 3159 1242 3001 
Q 1428 2844 1947 2747 
L 2328 2669 
Q 3034 2534 3370 2195 
Q 3706 1856 3706 1288 
Q 3706 609 3251 259 
Q 2797 -91 1919 -91 
Q 1588 -91 1214 -16 
Q 841 59 441 206 
L 441 856 
Q 825 641 1194 531 
Q 1563 422 1919 422 
Q 2459 422 2753 634 
Q 3047 847 3047 1241 
Q 3047 1584 2836 1778 
Q 2625 1972 2144 2069 
L 1759 2144 
Q 1053 2284 737 2584 
Q 422 2884 422 3419 
Q 422 4038 858 4394 
Q 1294 4750 2059 4750 
Q 2388 4750 2728 4690 
Q 3069 4631 3425 4513 
z
" transform="scale(0.015625)"/>
        <path id="DejaVuSans-4e" d="M 628 4666 
L 1478 4666 
L 3547 763 
L 3547 4666 
L 4159 4666 
L 4159 0 
L 3309 0 
L 1241 3903 
L 1241 0 
L 628 0 
L 628 4666 
z
" transform="scale(0.015625)"/>
        <path id="DejaVuSans-41" d="M 2188 4044 
L 1331 1722 
L 3047 1722 
L 2188 4044 
z
M 1831 4666 
L 2547 4666 
L 4325 0 
L 3669 0 
L 3244 1197 
L 1141 1197 
L 716 0 
L 50 0 
L 1831 4666 
z
" transform="scale(0.015625)"/>
        <path id="DejaVuSans-52" d="M 2841 2188 
Q 3044 2119 3236 1894 
Q 3428 1669 3622 1275 
L 4263 0 
L 3584 0 
L 2988 1197 
Q 2756 1666 2539 1819 
Q 2322 1972 1947 1972 
L 1259 1972 
L 1259 0 
L 628 0 
L 628 4666 
L 2053 4666 
Q 2853 4666 3247 4331 
Q 3641 3997 3641 3322 
Q 3641 2881 3436 2590 
Q 3231 2300 2841 2188 
z
M 1259 4147 
L 1259 2491 
L 2053 2491 
Q 2509 2491 2742 2702 
Q 2975 2913 2975 3322 
Q 2975 3731 2742 3939 
Q 2509 4147 2053 4147 
L 1259 4147 
z
" transform="scale(0.015625)"/>
       </defs>
       <use xlink:href="#DejaVuSans-53"/>
       <use xlink:href="#DejaVuSans-4e" transform="translate(63.476562 0)"/>
       <use xlink:href="#DejaVuSans-41" transform="translate(138.28125 0)"/>
       <use xlink:href="#DejaVuSans-52" transform="translate(206.689453 0)"/>
       <use xlink:href="#DejaVuSans-45" transform="translate(276.171875 0)"/>
       <use xlink:href="#DejaVuSans-20" transform="translate(339.355469 0)"/>
       <use xlink:href="#DejaVuSans-62" transform="translate(371.142578 0)"/>
       <use xlink:href="#DejaVuSans-69" transform="translate(434.619141 0)"/>
       <use xlink:href="#DejaVuSans-6e" transform="translate(462.402344 0)"/>
       <use xlink:href="#DejaVuSans-64" transform="translate(525.78125 0)"/>
       <use xlink:href="#DejaVuSans-69" transform="translate(589.257812 0)"/>
       <use xlink:href="#DejaVuSans-6e" transform="translate(617.041016 0)"/>
       <use xlink:href="#DejaVuSans-67" transform="translate(680.419922 0)"/>
      </g>
     </g>
    </g>
    <g id="ytick_3">
     <g id="line2d_10">
      <g>
       <use xlink:href="#m8990b3750a" x="255.007812" y="94.894125" style="stroke: #000000; stroke-width: 0.8"/>
      </g>
     </g>
     <g id="text_11">
      <!-- ubiquitin protein ligase binding -->
      <g transform="translate(92.295312 98.693344) scale(0.1 -0.1)">
       <defs>
        <path id="DejaVuSans-75" d="M 544 1381 
L 544 3500 
L 1119 3500 
L 1119 1403 
Q 1119 906 1312 657 
Q 1506 409 1894 409 
Q 2359 409 2629 706 
Q 2900 1003 2900 1516 
L 2900 3500 
L 3475 3500 
L 3475 0 
L 2900 0 
L 2900 538 
Q 2691 219 2414 64 
Q 2138 -91 1772 -91 
Q 1169 -91 856 284 
Q 544 659 544 1381 
z
M 1991 3584 
L 1991 3584 
z
" transform="scale(0.015625)"/>
        <path id="DejaVuSans-71" d="M 947 1747 
Q 947 1113 1208 752 
Q 1469 391 1925 391 
Q 2381 391 2643 752 
Q 2906 1113 2906 1747 
Q 2906 2381 2643 2742 
Q 2381 3103 1925 3103 
Q 1469 3103 1208 2742 
Q 947 2381 947 1747 
z
M 2906 525 
Q 2725 213 2448 61 
Q 2172 -91 1784 -91 
Q 1150 -91 751 415 
Q 353 922 353 1747 
Q 353 2572 751 3078 
Q 1150 3584 1784 3584 
Q 2172 3584 2448 3432 
Q 2725 3281 2906 2969 
L 2906 3500 
L 3481 3500 
L 3481 -1331 
L 2906 -1331 
L 2906 525 
z
" transform="scale(0.015625)"/>
       </defs>
       <use xlink:href="#DejaVuSans-75"/>
       <use xlink:href="#DejaVuSans-62" transform="translate(63.378906 0)"/>
       <use xlink:href="#DejaVuSans-69" transform="translate(126.855469 0)"/>
       <use xlink:href="#DejaVuSans-71" transform="translate(154.638672 0)"/>
       <use xlink:href="#DejaVuSans-75" transform="translate(218.115234 0)"/>
       <use xlink:href="#DejaVuSans-69" transform="translate(281.494141 0)"/>
       <use xlink:href="#DejaVuSans-74" transform="translate(309.277344 0)"/>
       <use xlink:href="#DejaVuSans-69" transform="translate(348.486328 0)"/>
       <use xlink:href="#DejaVuSans-6e" transform="translate(376.269531 0)"/>
       <use xlink:href="#DejaVuSans-20" transform="translate(439.648438 0)"/>
       <use xlink:href="#DejaVuSans-70" transform="translate(471.435547 0)"/>
       <use xlink:href="#DejaVuSans-72" transform="translate(534.912109 0)"/>
       <use xlink:href="#DejaVuSans-6f" transform="translate(573.775391 0)"/>
       <use xlink:href="#DejaVuSans-74" transform="translate(634.957031 0)"/>
       <use xlink:href="#DejaVuSans-65" transform="translate(674.166016 0)"/>
       <use xlink:href="#DejaVuSans-69" transform="translate(735.689453 0)"/>
       <use xlink:href="#DejaVuSans-6e" transform="translate(763.472656 0)"/>
       <use xlink:href="#DejaVuSans-20" transform="translate(826.851562 0)"/>
       <use xlink:href="#DejaVuSans-6c" transform="translate(858.638672 0)"/>
       <use xlink:href="#DejaVuSans-69" transform="translate(886.421875 0)"/>
       <use xlink:href="#DejaVuSans-67" transform="translate(914.205078 0)"/>
       <use xlink:href="#DejaVuSans-61" transform="translate(977.681641 0)"/>
       <use xlink:href="#DejaVuSans-73" transform="translate(1038.960938 0)"/>
       <use xlink:href="#DejaVuSans-65" transform="translate(1091.060547 0)"/>
       <use xlink:href="#DejaVuSans-20" transform="translate(1152.583984 0)"/>
       <use xlink:href="#DejaVuSans-62" transform="translate(1184.371094 0)"/>
       <use xlink:href="#DejaVuSans-69" transform="translate(1247.847656 0)"/>
       <use xlink:href="#DejaVuSans-6e" transform="translate(1275.630859 0)"/>
       <use xlink:href="#DejaVuSans-64" transform="translate(1339.009766 0)"/>
       <use xlink:href="#DejaVuSans-69" transform="translate(1402.486328 0)"/>
       <use xlink:href="#DejaVuSans-6e" transform="translate(1430.269531 0)"/>
       <use xlink:href="#DejaVuSans-67" transform="translate(1493.648438 0)"/>
      </g>
     </g>
    </g>
    <g id="ytick_4">
     <g id="line2d_11">
      <g>
       <use xlink:href="#m8990b3750a" x="255.007812" y="125.134125" style="stroke: #000000; stroke-width: 0.8"/>
      </g>
     </g>
     <g id="text_12">
      <!-- GTPase activity -->
      <g transform="translate(171.404687 128.933344) scale(0.1 -0.1)">
       <defs>
        <path id="DejaVuSans-47" d="M 3809 666 
L 3809 1919 
L 2778 1919 
L 2778 2438 
L 4434 2438 
L 4434 434 
Q 4069 175 3628 42 
Q 3188 -91 2688 -91 
Q 1594 -91 976 548 
Q 359 1188 359 2328 
Q 359 3472 976 4111 
Q 1594 4750 2688 4750 
Q 3144 4750 3555 4637 
Q 3966 4525 4313 4306 
L 4313 3634 
Q 3963 3931 3569 4081 
Q 3175 4231 2741 4231 
Q 1884 4231 1454 3753 
Q 1025 3275 1025 2328 
Q 1025 1384 1454 906 
Q 1884 428 2741 428 
Q 3075 428 3337 486 
Q 3600 544 3809 666 
z
" transform="scale(0.015625)"/>
        <path id="DejaVuSans-54" d="M -19 4666 
L 3928 4666 
L 3928 4134 
L 2272 4134 
L 2272 0 
L 1638 0 
L 1638 4134 
L -19 4134 
L -19 4666 
z
" transform="scale(0.015625)"/>
        <path id="DejaVuSans-50" d="M 1259 4147 
L 1259 2394 
L 2053 2394 
Q 2494 2394 2734 2622 
Q 2975 2850 2975 3272 
Q 2975 3691 2734 3919 
Q 2494 4147 2053 4147 
L 1259 4147 
z
M 628 4666 
L 2053 4666 
Q 2838 4666 3239 4311 
Q 3641 3956 3641 3272 
Q 3641 2581 3239 2228 
Q 2838 1875 2053 1875 
L 1259 1875 
L 1259 0 
L 628 0 
L 628 4666 
z
" transform="scale(0.015625)"/>
        <path id="DejaVuSans-76" d="M 191 3500 
L 800 3500 
L 1894 563 
L 2988 3500 
L 3597 3500 
L 2284 0 
L 1503 0 
L 191 3500 
z
" transform="scale(0.015625)"/>
       </defs>
       <use xlink:href="#DejaVuSans-47"/>
       <use xlink:href="#DejaVuSans-54" transform="translate(73.865234 0)"/>
       <use xlink:href="#DejaVuSans-50" transform="translate(134.949219 0)"/>
       <use xlink:href="#DejaVuSans-61" transform="translate(190.751953 0)"/>
       <use xlink:href="#DejaVuSans-73" transform="translate(252.03125 0)"/>
       <use xlink:href="#DejaVuSans-65" transform="translate(304.130859 0)"/>
       <use xlink:href="#DejaVuSans-20" transform="translate(365.654297 0)"/>
       <use xlink:href="#DejaVuSans-61" transform="translate(397.441406 0)"/>
       <use xlink:href="#DejaVuSans-63" transform="translate(458.720703 0)"/>
       <use xlink:href="#DejaVuSans-74" transform="translate(513.701172 0)"/>
       <use xlink:href="#DejaVuSans-69" transform="translate(552.910156 0)"/>
       <use xlink:href="#DejaVuSans-76" transform="translate(580.693359 0)"/>
       <use xlink:href="#DejaVuSans-69" transform="translate(639.873047 0)"/>
       <use xlink:href="#DejaVuSans-74" transform="translate(667.65625 0)"/>
       <use xlink:href="#DejaVuSans-79" transform="translate(706.865234 0)"/>
      </g>
     </g>
    </g>
    <g id="ytick_5">
     <g id="line2d_12">
      <g>
       <use xlink:href="#m8990b3750a" x="255.007812" y="155.374125" style="stroke: #000000; stroke-width: 0.8"/>
      </g>
     </g>
     <g id="text_13">
      <!-- GTP binding -->
      <g transform="translate(188.029687 159.173344) scale(0.1 -0.1)">
       <use xlink:href="#DejaVuSans-47"/>
       <use xlink:href="#DejaVuSans-54" transform="translate(73.865234 0)"/>
       <use xlink:href="#DejaVuSans-50" transform="translate(134.949219 0)"/>
       <use xlink:href="#DejaVuSans-20" transform="translate(195.251953 0)"/>
       <use xlink:href="#DejaVuSans-62" transform="translate(227.039062 0)"/>
       <use xlink:href="#DejaVuSans-69" transform="translate(290.515625 0)"/>
       <use xlink:href="#DejaVuSans-6e" transform="translate(318.298828 0)"/>
       <use xlink:href="#DejaVuSans-64" transform="translate(381.677734 0)"/>
       <use xlink:href="#DejaVuSans-69" transform="translate(445.154297 0)"/>
       <use xlink:href="#DejaVuSans-6e" transform="translate(472.9375 0)"/>
       <use xlink:href="#DejaVuSans-67" transform="translate(536.316406 0)"/>
      </g>
     </g>
    </g>
    <g id="ytick_6">
     <g id="line2d_13">
      <g>
       <use xlink:href="#m8990b3750a" x="255.007812" y="185.614125" style="stroke: #000000; stroke-width: 0.8"/>
      </g>
     </g>
     <g id="text_14">
      <!-- RNA binding -->
      <g transform="translate(186.282813 189.413344) scale(0.1 -0.1)">
       <use xlink:href="#DejaVuSans-52"/>
       <use xlink:href="#DejaVuSans-4e" transform="translate(69.482422 0)"/>
       <use xlink:href="#DejaVuSans-41" transform="translate(144.287109 0)"/>
       <use xlink:href="#DejaVuSans-20" transform="translate(212.695312 0)"/>
       <use xlink:href="#DejaVuSans-62" transform="translate(244.482422 0)"/>
       <use xlink:href="#DejaVuSans-69" transform="translate(307.958984 0)"/>
       <use xlink:href="#DejaVuSans-6e" transform="translate(335.742188 0)"/>
       <use xlink:href="#DejaVuSans-64" transform="translate(399.121094 0)"/>
       <use xlink:href="#DejaVuSans-69" transform="translate(462.597656 0)"/>
       <use xlink:href="#DejaVuSans-6e" transform="translate(490.380859 0)"/>
       <use xlink:href="#DejaVuSans-67" transform="translate(553.759766 0)"/>
      </g>
     </g>
    </g>
    <g id="ytick_7">
     <g id="line2d_14">
      <g>
       <use xlink:href="#m8990b3750a" x="255.007812" y="215.854125" style="stroke: #000000; stroke-width: 0.8"/>
      </g>
     </g>
     <g id="text_15">
      <!-- nucleotide binding -->
      <g transform="translate(155.129687 219.653344) scale(0.1 -0.1)">
       <use xlink:href="#DejaVuSans-6e"/>
       <use xlink:href="#DejaVuSans-75" transform="translate(63.378906 0)"/>
       <use xlink:href="#DejaVuSans-63" transform="translate(126.757812 0)"/>
       <use xlink:href="#DejaVuSans-6c" transform="translate(181.738281 0)"/>
       <use xlink:href="#DejaVuSans-65" transform="translate(209.521484 0)"/>
       <use xlink:href="#DejaVuSans-6f" transform="translate(271.044922 0)"/>
       <use xlink:href="#DejaVuSans-74" transform="translate(332.226562 0)"/>
       <use xlink:href="#DejaVuSans-69" transform="translate(371.435547 0)"/>
       <use xlink:href="#DejaVuSans-64" transform="translate(399.21875 0)"/>
       <use xlink:href="#DejaVuSans-65" transform="translate(462.695312 0)"/>
       <use xlink:href="#DejaVuSans-20" transform="translate(524.21875 0)"/>
       <use xlink:href="#DejaVuSans-62" transform="translate(556.005859 0)"/>
       <use xlink:href="#DejaVuSans-69" transform="translate(619.482422 0)"/>
       <use xlink:href="#DejaVuSans-6e" transform="translate(647.265625 0)"/>
       <use xlink:href="#DejaVuSans-64" transform="translate(710.644531 0)"/>
       <use xlink:href="#DejaVuSans-69" transform="translate(774.121094 0)"/>
       <use xlink:href="#DejaVuSans-6e" transform="translate(801.904297 0)"/>
       <use xlink:href="#DejaVuSans-67" transform="translate(865.283203 0)"/>
      </g>
     </g>
    </g>
    <g id="ytick_8">
     <g id="line2d_15">
      <g>
       <use xlink:href="#m8990b3750a" x="255.007812" y="246.094125" style="stroke: #000000; stroke-width: 0.8"/>
      </g>
     </g>
     <g id="text_16">
      <!-- protein binding -->
      <g transform="translate(172.010938 249.893344) scale(0.1 -0.1)">
       <use xlink:href="#DejaVuSans-70"/>
       <use xlink:href="#DejaVuSans-72" transform="translate(63.476562 0)"/>
       <use xlink:href="#DejaVuSans-6f" transform="translate(102.339844 0)"/>
       <use xlink:href="#DejaVuSans-74" transform="translate(163.521484 0)"/>
       <use xlink:href="#DejaVuSans-65" transform="translate(202.730469 0)"/>
       <use xlink:href="#DejaVuSans-69" transform="translate(264.253906 0)"/>
       <use xlink:href="#DejaVuSans-6e" transform="translate(292.037109 0)"/>
       <use xlink:href="#DejaVuSans-20" transform="translate(355.416016 0)"/>
       <use xlink:href="#DejaVuSans-62" transform="translate(387.203125 0)"/>
       <use xlink:href="#DejaVuSans-69" transform="translate(450.679688 0)"/>
       <use xlink:href="#DejaVuSans-6e" transform="translate(478.462891 0)"/>
       <use xlink:href="#DejaVuSans-64" transform="translate(541.841797 0)"/>
       <use xlink:href="#DejaVuSans-69" transform="translate(605.318359 0)"/>
       <use xlink:href="#DejaVuSans-6e" transform="translate(633.101562 0)"/>
       <use xlink:href="#DejaVuSans-67" transform="translate(696.480469 0)"/>
      </g>
     </g>
    </g>
    <g id="ytick_9">
     <g id="line2d_16">
      <g>
       <use xlink:href="#m8990b3750a" x="255.007812" y="276.334125" style="stroke: #000000; stroke-width: 0.8"/>
      </g>
     </g>
     <g id="text_17">
      <!-- G protein-coupled receptor activity -->
      <g transform="translate(72.942187 280.133344) scale(0.1 -0.1)">
       <use xlink:href="#DejaVuSans-47"/>
       <use xlink:href="#DejaVuSans-20" transform="translate(77.490234 0)"/>
       <use xlink:href="#DejaVuSans-70" transform="translate(109.277344 0)"/>
       <use xlink:href="#DejaVuSans-72" transform="translate(172.753906 0)"/>
       <use xlink:href="#DejaVuSans-6f" transform="translate(211.617188 0)"/>
       <use xlink:href="#DejaVuSans-74" transform="translate(272.798828 0)"/>
       <use xlink:href="#DejaVuSans-65" transform="translate(312.007812 0)"/>
       <use xlink:href="#DejaVuSans-69" transform="translate(373.53125 0)"/>
       <use xlink:href="#DejaVuSans-6e" transform="translate(401.314453 0)"/>
       <use xlink:href="#DejaVuSans-2d" transform="translate(464.693359 0)"/>
       <use xlink:href="#DejaVuSans-63" transform="translate(500.777344 0)"/>
       <use xlink:href="#DejaVuSans-6f" transform="translate(555.757812 0)"/>
       <use xlink:href="#DejaVuSans-75" transform="translate(616.939453 0)"/>
       <use xlink:href="#DejaVuSans-70" transform="translate(680.318359 0)"/>
       <use xlink:href="#DejaVuSans-6c" transform="translate(743.794922 0)"/>
       <use xlink:href="#DejaVuSans-65" transform="translate(771.578125 0)"/>
       <use xlink:href="#DejaVuSans-64" transform="translate(833.101562 0)"/>
       <use xlink:href="#DejaVuSans-20" transform="translate(896.578125 0)"/>
       <use xlink:href="#DejaVuSans-72" transform="translate(928.365234 0)"/>
       <use xlink:href="#DejaVuSans-65" transform="translate(967.228516 0)"/>
       <use xlink:href="#DejaVuSans-63" transform="translate(1028.751953 0)"/>
       <use xlink:href="#DejaVuSans-65" transform="translate(1083.732422 0)"/>
       <use xlink:href="#DejaVuSans-70" transform="translate(1145.255859 0)"/>
       <use xlink:href="#DejaVuSans-74" transform="translate(1208.732422 0)"/>
       <use xlink:href="#DejaVuSans-6f" transform="translate(1247.941406 0)"/>
       <use xlink:href="#DejaVuSans-72" transform="translate(1309.123047 0)"/>
       <use xlink:href="#DejaVuSans-20" transform="translate(1350.236328 0)"/>
       <use xlink:href="#DejaVuSans-61" transform="translate(1382.023438 0)"/>
       <use xlink:href="#DejaVuSans-63" transform="translate(1443.302734 0)"/>
       <use xlink:href="#DejaVuSans-74" transform="translate(1498.283203 0)"/>
       <use xlink:href="#DejaVuSans-69" transform="translate(1537.492188 0)"/>
       <use xlink:href="#DejaVuSans-76" transform="translate(1565.275391 0)"/>
       <use xlink:href="#DejaVuSans-69" transform="translate(1624.455078 0)"/>
       <use xlink:href="#DejaVuSans-74" transform="translate(1652.238281 0)"/>
       <use xlink:href="#DejaVuSans-79" transform="translate(1691.447266 0)"/>
      </g>
     </g>
    </g>
   </g>
   <g id="line2d_17"/>
   <g id="line2d_18"/>
   <g id="line2d_19"/>
   <g id="line2d_20"/>
   <g id="line2d_21"/>
   <g id="line2d_22"/>
   <g id="line2d_23"/>
   <g id="line2d_24"/>
   <g id="line2d_25"/>
   <g id="line2d_26"/>
   <g id="line2d_27"/>
   <g id="line2d_28"/>
   <g id="patch_3">
    <path d="M 255.007812 288.430125 
L 255.007812 22.318125 
" style="fill: none; stroke: #000000; stroke-width: 0.8; stroke-linejoin: miter; stroke-linecap: square"/>
   </g>
   <g id="patch_4">
    <path d="M 612.127813 288.430125 
L 612.127813 22.318125 
" style="fill: none; stroke: #000000; stroke-width: 0.8; stroke-linejoin: miter; stroke-linecap: square"/>
   </g>
   <g id="patch_5">
    <path d="M 255.007812 288.430125 
L 612.127813 288.430125 
" style="fill: none; stroke: #000000; stroke-width: 0.8; stroke-linejoin: miter; stroke-linecap: square"/>
   </g>
   <g id="patch_6">
    <path d="M 255.007812 22.318125 
L 612.127813 22.318125 
" style="fill: none; stroke: #000000; stroke-width: 0.8; stroke-linejoin: miter; stroke-linecap: square"/>
   </g>
   <g id="text_18">
    <!-- Top 20 Enriched Molecular Functions -->
    <g transform="translate(324.088438 16.318125) scale(0.12 -0.12)">
     <defs>
      <path id="DejaVuSans-4d" d="M 628 4666 
L 1569 4666 
L 2759 1491 
L 3956 4666 
L 4897 4666 
L 4897 0 
L 4281 0 
L 4281 4097 
L 3078 897 
L 2444 897 
L 1241 4097 
L 1241 0 
L 628 0 
L 628 4666 
z
" transform="scale(0.015625)"/>
     </defs>
     <use xlink:href="#DejaVuSans-54"/>
     <use xlink:href="#DejaVuSans-6f" transform="translate(44.083984 0)"/>
     <use xlink:href="#DejaVuSans-70" transform="translate(105.265625 0)"/>
     <use xlink:href="#DejaVuSans-20" transform="translate(168.742188 0)"/>
     <use xlink:href="#DejaVuSans-32" transform="translate(200.529297 0)"/>
     <use xlink:href="#DejaVuSans-30" transform="translate(264.152344 0)"/>
     <use xlink:href="#DejaVuSans-20" transform="translate(327.775391 0)"/>
     <use xlink:href="#DejaVuSans-45" transform="translate(359.5625 0)"/>
     <use xlink:href="#DejaVuSans-6e" transform="translate(422.746094 0)"/>
     <use xlink:href="#DejaVuSans-72" transform="translate(486.125 0)"/>
     <use xlink:href="#DejaVuSans-69" transform="translate(527.238281 0)"/>
     <use xlink:href="#DejaVuSans-63" transform="translate(555.021484 0)"/>
     <use xlink:href="#DejaVuSans-68" transform="translate(610.001953 0)"/>
     <use xlink:href="#DejaVuSans-65" transform="translate(673.380859 0)"/>
     <use xlink:href="#DejaVuSans-64" transform="translate(734.904297 0)"/>
     <use xlink:href="#DejaVuSans-20" transform="translate(798.380859 0)"/>
     <use xlink:href="#DejaVuSans-4d" transform="translate(830.167969 0)"/>
     <use xlink:href="#DejaVuSans-6f" transform="translate(916.447266 0)"/>
     <use xlink:href="#DejaVuSans-6c" transform="translate(977.628906 0)"/>
     <use xlink:href="#DejaVuSans-65" transform="translate(1005.412109 0)"/>
     <use xlink:href="#DejaVuSans-63" transform="translate(1066.935547 0)"/>
     <use xlink:href="#DejaVuSans-75" transform="translate(1121.916016 0)"/>
     <use xlink:href="#DejaVuSans-6c" transform="translate(1185.294922 0)"/>
     <use xlink:href="#DejaVuSans-61" transform="translate(1213.078125 0)"/>
     <use xlink:href="#DejaVuSans-72" transform="translate(1274.357422 0)"/>
     <use xlink:href="#DejaVuSans-20" transform="translate(1315.470703 0)"/>
     <use xlink:href="#DejaVuSans-46" transform="translate(1347.257812 0)"/>
     <use xlink:href="#DejaVuSans-75" transform="translate(1399.277344 0)"/>
     <use xlink:href="#DejaVuSans-6e" transform="translate(1462.65625 0)"/>
     <use xlink:href="#DejaVuSans-63" transform="translate(1526.035156 0)"/>
     <use xlink:href="#DejaVuSans-74" transform="translate(1581.015625 0)"/>
     <use xlink:href="#DejaVuSans-69" transform="translate(1620.224609 0)"/>
     <use xlink:href="#DejaVuSans-6f" transform="translate(1648.007812 0)"/>
     <use xlink:href="#DejaVuSans-6e" transform="translate(1709.189453 0)"/>
     <use xlink:href="#DejaVuSans-73" transform="translate(1772.568359 0)"/>
    </g>
   </g>
   <g id="legend_1">
    <g id="patch_7">
     <path d="M 619.127813 206.455625 
L 706.366875 206.455625 
Q 708.366875 206.455625 708.366875 204.455625 
L 708.366875 29.318125 
Q 708.366875 27.318125 706.366875 27.318125 
L 619.127813 27.318125 
Q 617.127813 27.318125 617.127813 29.318125 
L 617.127813 204.455625 
Q 617.127813 206.455625 619.127813 206.455625 
z
" style="fill: #ffffff; opacity: 0.8; stroke: #cccccc; stroke-linejoin: miter"/>
    </g>
    <g id="line2d_29"/>
    <g id="text_19">
     <!-- -log10 FDR -->
     <g transform="translate(649.127813 38.916562) scale(0.1 -0.1)">
      <defs>
       <path id="DejaVuSans-44" d="M 1259 4147 
L 1259 519 
L 2022 519 
Q 2988 519 3436 956 
Q 3884 1394 3884 2338 
Q 3884 3275 3436 3711 
Q 2988 4147 2022 4147 
L 1259 4147 
z
M 628 4666 
L 1925 4666 
Q 3281 4666 3915 4102 
Q 4550 3538 4550 2338 
Q 4550 1131 3912 565 
Q 3275 0 1925 0 
L 628 0 
L 628 4666 
z
" transform="scale(0.015625)"/>
      </defs>
      <use xlink:href="#DejaVuSans-2d"/>
      <use xlink:href="#DejaVuSans-6c" transform="translate(36.083984 0)"/>
      <use xlink:href="#DejaVuSans-6f" transform="translate(63.867188 0)"/>
      <use xlink:href="#DejaVuSans-67" transform="translate(125.048828 0)"/>
      <use xlink:href="#DejaVuSans-31" transform="translate(188.525391 0)"/>
      <use xlink:href="#DejaVuSans-30" transform="translate(252.148438 0)"/>
      <use xlink:href="#DejaVuSans-20" transform="translate(315.771484 0)"/>
      <use xlink:href="#DejaVuSans-46" transform="translate(347.558594 0)"/>
      <use xlink:href="#DejaVuSans-44" transform="translate(405.078125 0)"/>
      <use xlink:href="#DejaVuSans-52" transform="translate(482.080078 0)"/>
     </g>
    </g>
    <g id="line2d_30">
     <defs>
      <path id="m0b68ba647f" d="M 0 3 
C 0.795609 3 1.55874 2.683901 2.12132 2.12132 
C 2.683901 1.55874 3 0.795609 3 0 
C 3 -0.795609 2.683901 -1.55874 2.12132 -2.12132 
C 1.55874 -2.683901 0.795609 -3 0 -3 
C -0.795609 -3 -1.55874 -2.683901 -2.12132 -2.12132 
C -2.683901 -1.55874 -3 -0.795609 -3 0 
C -3 0.795609 -2.683901 1.55874 -2.12132 2.12132 
C -1.55874 2.683901 -0.795609 3 0 3 
z
" style="stroke: #ffffff; stroke-width: 0.372104"/>
     </defs>
     <g>
      <use xlink:href="#m0b68ba647f" x="631.127813" y="50.094688" style="fill: #6c8ff1; stroke: #ffffff; stroke-width: 0.372104"/>
     </g>
    </g>
    <g id="text_20">
     <!-- 6 -->
     <g transform="translate(649.127813 53.594688) scale(0.1 -0.1)">
      <use xlink:href="#DejaVuSans-36"/>
     </g>
    </g>
    <g id="line2d_31">
     <defs>
      <path id="m62a17209f3" d="M 0 3 
C 0.795609 3 1.55874 2.683901 2.12132 2.12132 
C 2.683901 1.55874 3 0.795609 3 0 
C 3 -0.795609 2.683901 -1.55874 2.12132 -2.12132 
C 1.55874 -2.683901 0.795609 -3 0 -3 
C -0.795609 -3 -1.55874 -2.683901 -2.12132 -2.12132 
C -2.683901 -1.55874 -3 -0.795609 -3 0 
C -3 0.795609 -2.683901 1.55874 -2.12132 2.12132 
C -1.55874 2.683901 -0.795609 3 0 3 
z
" style="stroke: #ffffff; stroke-width: 0.372104"/>
     </defs>
     <g>
      <use xlink:href="#m62a17209f3" x="631.127813" y="64.772812" style="fill: #aac7fd; stroke: #ffffff; stroke-width: 0.372104"/>
     </g>
    </g>
    <g id="text_21">
     <!-- 8 -->
     <g transform="translate(649.127813 68.272812) scale(0.1 -0.1)">
      <use xlink:href="#DejaVuSans-38"/>
     </g>
    </g>
    <g id="line2d_32">
     <defs>
      <path id="m9ea27f670f" d="M 0 3 
C 0.795609 3 1.55874 2.683901 2.12132 2.12132 
C 2.683901 1.55874 3 0.795609 3 0 
C 3 -0.795609 2.683901 -1.55874 2.12132 -2.12132 
C 1.55874 -2.683901 0.795609 -3 0 -3 
C -0.795609 -3 -1.55874 -2.683901 -2.12132 -2.12132 
C -2.683901 -1.55874 -3 -0.795609 -3 0 
C -3 0.795609 -2.683901 1.55874 -2.12132 2.12132 
C -1.55874 2.683901 -0.795609 3 0 3 
z
" style="stroke: #ffffff; stroke-width: 0.372104"/>
     </defs>
     <g>
      <use xlink:href="#m9ea27f670f" x="631.127813" y="79.450938" style="fill: #dfdbd9; stroke: #ffffff; stroke-width: 0.372104"/>
     </g>
    </g>
    <g id="text_22">
     <!-- 10 -->
     <g transform="translate(649.127813 82.950938) scale(0.1 -0.1)">
      <use xlink:href="#DejaVuSans-31"/>
      <use xlink:href="#DejaVuSans-30" transform="translate(63.623047 0)"/>
     </g>
    </g>
    <g id="line2d_33">
     <defs>
      <path id="m9466cddf8a" d="M 0 3 
C 0.795609 3 1.55874 2.683901 2.12132 2.12132 
C 2.683901 1.55874 3 0.795609 3 0 
C 3 -0.795609 2.683901 -1.55874 2.12132 -2.12132 
C 1.55874 -2.683901 0.795609 -3 0 -3 
C -0.795609 -3 -1.55874 -2.683901 -2.12132 -2.12132 
C -2.683901 -1.55874 -3 -0.795609 -3 0 
C -3 0.795609 -2.683901 1.55874 -2.12132 2.12132 
C -1.55874 2.683901 -0.795609 3 0 3 
z
" style="stroke: #ffffff; stroke-width: 0.372104"/>
     </defs>
     <g>
      <use xlink:href="#m9466cddf8a" x="631.127813" y="94.129063" style="fill: #f7b194; stroke: #ffffff; stroke-width: 0.372104"/>
     </g>
    </g>
    <g id="text_23">
     <!-- 12 -->
     <g transform="translate(649.127813 97.629063) scale(0.1 -0.1)">
      <use xlink:href="#DejaVuSans-31"/>
      <use xlink:href="#DejaVuSans-32" transform="translate(63.623047 0)"/>
     </g>
    </g>
    <g id="line2d_34">
     <defs>
      <path id="mb544e91de3" d="M 0 3 
C 0.795609 3 1.55874 2.683901 2.12132 2.12132 
C 2.683901 1.55874 3 0.795609 3 0 
C 3 -0.795609 2.683901 -1.55874 2.12132 -2.12132 
C 1.55874 -2.683901 0.795609 -3 0 -3 
C -0.795609 -3 -1.55874 -2.683901 -2.12132 -2.12132 
C -2.683901 -1.55874 -3 -0.795609 -3 0 
C -3 0.795609 -2.683901 1.55874 -2.12132 2.12132 
C -1.55874 2.683901 -0.795609 3 0 3 
z
" style="stroke: #ffffff; stroke-width: 0.372104"/>
     </defs>
     <g>
      <use xlink:href="#mb544e91de3" x="631.127813" y="108.807187" style="fill: #e16751; stroke: #ffffff; stroke-width: 0.372104"/>
     </g>
    </g>
    <g id="text_24">
     <!-- 14 -->
     <g transform="translate(649.127813 112.307187) scale(0.1 -0.1)">
      <use xlink:href="#DejaVuSans-31"/>
      <use xlink:href="#DejaVuSans-34" transform="translate(63.623047 0)"/>
     </g>
    </g>
    <g id="line2d_35"/>
    <g id="text_25">
     <!-- Gene Ratio -->
     <g transform="translate(649.127813 126.985313) scale(0.1 -0.1)">
      <use xlink:href="#DejaVuSans-47"/>
      <use xlink:href="#DejaVuSans-65" transform="translate(77.490234 0)"/>
      <use xlink:href="#DejaVuSans-6e" transform="translate(139.013672 0)"/>
      <use xlink:href="#DejaVuSans-65" transform="translate(202.392578 0)"/>
      <use xlink:href="#DejaVuSans-20" transform="translate(263.916016 0)"/>
      <use xlink:href="#DejaVuSans-52" transform="translate(295.703125 0)"/>
      <use xlink:href="#DejaVuSans-61" transform="translate(362.935547 0)"/>
      <use xlink:href="#DejaVuSans-74" transform="translate(424.214844 0)"/>
      <use xlink:href="#DejaVuSans-69" transform="translate(463.423828 0)"/>
      <use xlink:href="#DejaVuSans-6f" transform="translate(491.207031 0)"/>
     </g>
    </g>
    <g id="line2d_36">
     <defs>
      <path id="m85a069daf5" d="M 0 3.295194 
C 0.873896 3.295194 1.712116 2.947991 2.330054 2.330054 
C 2.947991 1.712116 3.295194 0.873896 3.295194 0 
C 3.295194 -0.873896 2.947991 -1.712116 2.330054 -2.330054 
C 1.712116 -2.947991 0.873896 -3.295194 0 -3.295194 
C -0.873896 -3.295194 -1.712116 -2.947991 -2.330054 -2.330054 
C -2.947991 -1.712116 -3.295194 -0.873896 -3.295194 0 
C -3.295194 0.873896 -2.947991 1.712116 -2.330054 2.330054 
C -1.712116 2.947991 -0.873896 3.295194 0 3.295194 
z
" style="stroke: #ffffff; stroke-width: 0.372104"/>
     </defs>
     <g>
      <use xlink:href="#m85a069daf5" x="631.127813" y="138.163437" style="fill: #333333; stroke: #ffffff; stroke-width: 0.372104"/>
     </g>
    </g>
    <g id="text_26">
     <!-- 0.15 -->
     <g transform="translate(649.127813 141.663437) scale(0.1 -0.1)">
      <defs>
       <path id="DejaVuSans-2e" d="M 684 794 
L 1344 794 
L 1344 0 
L 684 0 
L 684 794 
z
" transform="scale(0.015625)"/>
       <path id="DejaVuSans-35" d="M 691 4666 
L 3169 4666 
L 3169 4134 
L 1269 4134 
L 1269 2991 
Q 1406 3038 1543 3061 
Q 1681 3084 1819 3084 
Q 2600 3084 3056 2656 
Q 3513 2228 3513 1497 
Q 3513 744 3044 326 
Q 2575 -91 1722 -91 
Q 1428 -91 1123 -41 
Q 819 9 494 109 
L 494 744 
Q 775 591 1075 516 
Q 1375 441 1709 441 
Q 2250 441 2565 725 
Q 2881 1009 2881 1497 
Q 2881 1984 2565 2268 
Q 2250 2553 1709 2553 
Q 1456 2553 1204 2497 
Q 953 2441 691 2322 
L 691 4666 
z
" transform="scale(0.015625)"/>
      </defs>
      <use xlink:href="#DejaVuSans-30"/>
      <use xlink:href="#DejaVuSans-2e" transform="translate(63.623047 0)"/>
      <use xlink:href="#DejaVuSans-31" transform="translate(95.410156 0)"/>
      <use xlink:href="#DejaVuSans-35" transform="translate(159.033203 0)"/>
     </g>
    </g>
    <g id="line2d_37">
     <defs>
      <path id="m64adead90a" d="M 0 4.104181 
C 1.088442 4.104181 2.13245 3.671739 2.902094 2.902094 
C 3.671739 2.13245 4.104181 1.088442 4.104181 0 
C 4.104181 -1.088442 3.671739 -2.13245 2.902094 -2.902094 
C 2.13245 -3.671739 1.088442 -4.104181 0 -4.104181 
C -1.088442 -4.104181 -2.13245 -3.671739 -2.902094 -2.902094 
C -3.671739 -2.13245 -4.104181 -1.088442 -4.104181 0 
C -4.104181 1.088442 -3.671739 2.13245 -2.902094 2.902094 
C -2.13245 3.671739 -1.088442 4.104181 0 4.104181 
z
" style="stroke: #ffffff; stroke-width: 0.372104"/>
     </defs>
     <g>
      <use xlink:href="#m64adead90a" x="631.127813" y="152.841563" style="fill: #333333; stroke: #ffffff; stroke-width: 0.372104"/>
     </g>
    </g>
    <g id="text_27">
     <!-- 0.30 -->
     <g transform="translate(649.127813 156.341563) scale(0.1 -0.1)">
      <defs>
       <path id="DejaVuSans-33" d="M 2597 2516 
Q 3050 2419 3304 2112 
Q 3559 1806 3559 1356 
Q 3559 666 3084 287 
Q 2609 -91 1734 -91 
Q 1441 -91 1130 -33 
Q 819 25 488 141 
L 488 750 
Q 750 597 1062 519 
Q 1375 441 1716 441 
Q 2309 441 2620 675 
Q 2931 909 2931 1356 
Q 2931 1769 2642 2001 
Q 2353 2234 1838 2234 
L 1294 2234 
L 1294 2753 
L 1863 2753 
Q 2328 2753 2575 2939 
Q 2822 3125 2822 3475 
Q 2822 3834 2567 4026 
Q 2313 4219 1838 4219 
Q 1578 4219 1281 4162 
Q 984 4106 628 3988 
L 628 4550 
Q 988 4650 1302 4700 
Q 1616 4750 1894 4750 
Q 2613 4750 3031 4423 
Q 3450 4097 3450 3541 
Q 3450 3153 3228 2886 
Q 3006 2619 2597 2516 
z
" transform="scale(0.015625)"/>
      </defs>
      <use xlink:href="#DejaVuSans-30"/>
      <use xlink:href="#DejaVuSans-2e" transform="translate(63.623047 0)"/>
      <use xlink:href="#DejaVuSans-33" transform="translate(95.410156 0)"/>
      <use xlink:href="#DejaVuSans-30" transform="translate(159.033203 0)"/>
     </g>
    </g>
    <g id="line2d_38">
     <defs>
      <path id="mdc7dc83798" d="M 0 4.778107 
C 1.267169 4.778107 2.482608 4.274655 3.378632 3.378632 
C 4.274655 2.482608 4.778107 1.267169 4.778107 0 
C 4.778107 -1.267169 4.274655 -2.482608 3.378632 -3.378632 
C 2.482608 -4.274655 1.267169 -4.778107 0 -4.778107 
C -1.267169 -4.778107 -2.482608 -4.274655 -3.378632 -3.378632 
C -4.274655 -2.482608 -4.778107 -1.267169 -4.778107 0 
C -4.778107 1.267169 -4.274655 2.482608 -3.378632 3.378632 
C -2.482608 4.274655 -1.267169 4.778107 0 4.778107 
z
" style="stroke: #ffffff; stroke-width: 0.372104"/>
     </defs>
     <g>
      <use xlink:href="#mdc7dc83798" x="631.127813" y="167.519687" style="fill: #333333; stroke: #ffffff; stroke-width: 0.372104"/>
     </g>
    </g>
    <g id="text_28">
     <!-- 0.45 -->
     <g transform="translate(649.127813 171.019687) scale(0.1 -0.1)">
      <use xlink:href="#DejaVuSans-30"/>
      <use xlink:href="#DejaVuSans-2e" transform="translate(63.623047 0)"/>
      <use xlink:href="#DejaVuSans-34" transform="translate(95.410156 0)"/>
      <use xlink:href="#DejaVuSans-35" transform="translate(159.033203 0)"/>
     </g>
    </g>
    <g id="line2d_39">
     <defs>
      <path id="mc04c25ef9d" d="M 0 5.368082 
C 1.423632 5.368082 2.789147 4.802467 3.795807 3.795807 
C 4.802467 2.789147 5.368082 1.423632 5.368082 0 
C 5.368082 -1.423632 4.802467 -2.789147 3.795807 -3.795807 
C 2.789147 -4.802467 1.423632 -5.368082 0 -5.368082 
C -1.423632 -5.368082 -2.789147 -4.802467 -3.795807 -3.795807 
C -4.802467 -2.789147 -5.368082 -1.423632 -5.368082 0 
C -5.368082 1.423632 -4.802467 2.789147 -3.795807 3.795807 
C -2.789147 4.802467 -1.423632 5.368082 0 5.368082 
z
" style="stroke: #ffffff; stroke-width: 0.372104"/>
     </defs>
     <g>
      <use xlink:href="#mc04c25ef9d" x="631.127813" y="182.197812" style="fill: #333333; stroke: #ffffff; stroke-width: 0.372104"/>
     </g>
    </g>
    <g id="text_29">
     <!-- 0.60 -->
     <g transform="translate(649.127813 185.697812) scale(0.1 -0.1)">
      <use xlink:href="#DejaVuSans-30"/>
      <use xlink:href="#DejaVuSans-2e" transform="translate(63.623047 0)"/>
      <use xlink:href="#DejaVuSans-36" transform="translate(95.410156 0)"/>
      <use xlink:href="#DejaVuSans-30" transform="translate(159.033203 0)"/>
     </g>
    </g>
    <g id="line2d_40">
     <defs>
      <path id="m8ea6b370e2" d="M 0 5.899348 
C 1.564525 5.899348 3.065183 5.277756 4.171469 4.171469 
C 5.277756 3.065183 5.899348 1.564525 5.899348 0 
C 5.899348 -1.564525 5.277756 -3.065183 4.171469 -4.171469 
C 3.065183 -5.277756 1.564525 -5.899348 0 -5.899348 
C -1.564525 -5.899348 -3.065183 -5.277756 -4.171469 -4.171469 
C -5.277756 -3.065183 -5.899348 -1.564525 -5.899348 0 
C -5.899348 1.564525 -5.277756 3.065183 -4.171469 4.171469 
C -3.065183 5.277756 -1.564525 5.899348 0 5.899348 
z
" style="stroke: #ffffff; stroke-width: 0.372104"/>
     </defs>
     <g>
      <use xlink:href="#m8ea6b370e2" x="631.127813" y="196.875937" style="fill: #333333; stroke: #ffffff; stroke-width: 0.372104"/>
     </g>
    </g>
    <g id="text_30">
     <!-- 0.75 -->
     <g transform="translate(649.127813 200.375937) scale(0.1 -0.1)">
      <defs>
       <path id="DejaVuSans-37" d="M 525 4666 
L 3525 4666 
L 3525 4397 
L 1831 0 
L 1172 0 
L 2766 4134 
L 525 4134 
L 525 4666 
z
" transform="scale(0.015625)"/>
      </defs>
      <use xlink:href="#DejaVuSans-30"/>
      <use xlink:href="#DejaVuSans-2e" transform="translate(63.623047 0)"/>
      <use xlink:href="#DejaVuSans-37" transform="translate(95.410156 0)"/>
      <use xlink:href="#DejaVuSans-35" transform="translate(159.033203 0)"/>
     </g>
    </g>
   </g>
  </g>
 </g>
 <defs>
  <clipPath id="p5aee5d096d">
   <rect x="255.007812" y="22.318125" width="357.12" height="266.112"/>
  </clipPath>
 </defs>
</svg>
