<?xml version="1.0" encoding="utf-8" standalone="no"?>
<!DOCTYPE svg PUBLIC "-//W3C//DTD SVG 1.1//EN"
  "http://www.w3.org/Graphics/SVG/1.1/DTD/svg11.dtd">
<svg xmlns:xlink="http://www.w3.org/1999/xlink" width="636.229375pt" height="325.986375pt" viewBox="0 0 636.229375 325.986375" xmlns="http://www.w3.org/2000/svg" version="1.1">
 <metadata>
  <rdf:RDF xmlns:dc="http://purl.org/dc/elements/1.1/" xmlns:cc="http://creativecommons.org/ns#" xmlns:rdf="http://www.w3.org/1999/02/22-rdf-syntax-ns#">
   <cc:Work>
    <dc:type rdf:resource="http://purl.org/dc/dcmitype/StillImage"/>
    <dc:date>2025-12-09T16:13:58.533408</dc:date>
    <dc:format>image/svg+xml</dc:format>
    <dc:creator>
     <cc:Agent>
      <dc:title>Matplotlib v3.10.7, https://matplotlib.org/</dc:title>
     </cc:Agent>
    </dc:creator>
   </cc:Work>
  </rdf:RDF>
 </metadata>
 <defs>
  <style type="text/css">*{stroke-linejoin: round; stroke-linecap: butt}</style>
 </defs>
 <g id="figure_1">
  <g id="patch_1">
   <path d="M 0 325.986375 
L 636.229375 325.986375 
L 636.229375 0 
L 0 0 
z
" style="fill: #ffffff"/>
  </g>
  <g id="axes_1">
   <g id="patch_2">
    <path d="M 175.670313 288.430125 
L 532.790313 288.430125 
L 532.790313 22.318125 
L 175.670313 22.318125 
z
" style="fill: #ffffff"/>
   </g>
   <g id="PathCollection_1">
    <path d="M 516.557585 36.712518 
C 517.167126 36.712518 517.751784 36.470344 518.182794 36.039334 
C 518.613805 35.608324 518.855978 35.023666 518.855978 34.414125 
C 518.855978 33.804584 518.613805 33.219926 518.182794 32.788916 
C 517.751784 32.357906 517.167126 32.115732 516.557585 32.115732 
C 515.948044 32.115732 515.363387 32.357906 514.932376 32.788916 
C 514.501366 33.219926 514.259193 33.804584 514.259193 34.414125 
C 514.259193 35.023666 514.501366 35.608324 514.932376 36.039334 
C 515.363387 36.470344 515.948044 36.712518 516.557585 36.712518 
z
" clip-path="url(#pbb25ee1eb6)" style="fill: #6f92f3; stroke: #ffffff; stroke-width: 0.367743"/>
    <path d="M 433.551923 62.120072 
C 434.483833 62.120072 435.377699 61.749821 436.036659 61.090861 
C 436.695619 60.431901 437.06587 59.538035 437.06587 58.606125 
C 437.06587 57.674215 436.695619 56.780349 436.036659 56.121389 
C 435.377699 55.462429 434.483833 55.092178 433.551923 55.092178 
C 432.620013 55.092178 431.726147 55.462429 431.067187 56.121389 
C 430.408227 56.780349 430.037976 57.674215 430.037976 58.606125 
C 430.037976 59.538035 430.408227 60.431901 431.067187 61.090861 
C 431.726147 61.749821 432.620013 62.120072 433.551923 62.120072 
z
" clip-path="url(#pbb25ee1eb6)" style="fill: #b40426; stroke: #ffffff; stroke-width: 0.367743"/>
    <path d="M 414.123411 85.034193 
C 414.716424 85.034193 415.285227 84.798587 415.70455 84.379264 
C 416.123873 83.959941 416.359479 83.391137 416.359479 82.798125 
C 416.359479 82.205113 416.123873 81.636309 415.70455 81.216986 
C 415.285227 80.797663 414.716424 80.562057 414.123411 80.562057 
C 413.530399 80.562057 412.961595 80.797663 412.542273 81.216986 
C 412.12295 81.636309 411.887343 82.205113 411.887343 82.798125 
C 411.887343 83.391137 412.12295 83.959941 412.542273 84.379264 
C 412.961595 84.798587 413.530399 85.034193 414.123411 85.034193 
z
" clip-path="url(#pbb25ee1eb6)" style="fill: #3c4ec2; stroke: #ffffff; stroke-width: 0.367743"/>
    <path d="M 361.256607 109.577721 
C 361.942846 109.577721 362.60107 109.305075 363.086314 108.819832 
C 363.571558 108.334588 363.844203 107.676363 363.844203 106.990125 
C 363.844203 106.303887 363.571558 105.645662 363.086314 105.160418 
C 362.60107 104.675175 361.942846 104.402529 361.256607 104.402529 
C 360.570369 104.402529 359.912144 104.675175 359.426901 105.160418 
C 358.941657 105.645662 358.669011 106.303887 358.669011 106.990125 
C 358.669011 107.676363 358.941657 108.334588 359.426901 108.819832 
C 359.912144 109.305075 360.570369 109.577721 361.256607 109.577721 
z
" clip-path="url(#pbb25ee1eb6)" style="fill: #5f7fe8; stroke: #ffffff; stroke-width: 0.367743"/>
    <path d="M 344.81217 133.600353 
C 345.453491 133.600353 346.068632 133.345553 346.522115 132.89207 
C 346.975598 132.438588 347.230398 131.823447 347.230398 131.182125 
C 347.230398 130.540803 346.975598 129.925662 346.522115 129.47218 
C 346.068632 129.018697 345.453491 128.763897 344.81217 128.763897 
C 344.170848 128.763897 343.555707 129.018697 343.102225 129.47218 
C 342.648742 129.925662 342.393942 130.540803 342.393942 131.182125 
C 342.393942 131.823447 342.648742 132.438588 343.102225 132.89207 
C 343.555707 133.345553 344.170848 133.600353 344.81217 133.600353 
z
" clip-path="url(#pbb25ee1eb6)" style="fill: #3b4cc0; stroke: #ffffff; stroke-width: 0.367743"/>
    <path d="M 343.78312 157.792353 
C 344.424441 157.792353 345.039582 157.537553 345.493065 157.08407 
C 345.946548 156.630588 346.201348 156.015447 346.201348 155.374125 
C 346.201348 154.732803 345.946548 154.117662 345.493065 153.66418 
C 345.039582 153.210697 344.424441 152.955897 343.78312 152.955897 
C 343.141798 152.955897 342.526657 153.210697 342.073175 153.66418 
C 341.619692 154.117662 341.364892 154.732803 341.364892 155.374125 
C 341.364892 156.015447 341.619692 156.630588 342.073175 157.08407 
C 342.526657 157.537553 343.141798 157.792353 343.78312 157.792353 
z
" clip-path="url(#pbb25ee1eb6)" style="fill: #3b4cc0; stroke: #ffffff; stroke-width: 0.367743"/>
    <path d="M 335.288642 182.998705 
C 336.198973 182.998705 337.072142 182.637027 337.715843 181.993326 
C 338.359545 181.349625 338.721223 180.476456 338.721223 179.566125 
C 338.721223 178.655794 338.359545 177.782625 337.715843 177.138924 
C 337.072142 176.495223 336.198973 176.133545 335.288642 176.133545 
C 334.378311 176.133545 333.505143 176.495223 332.861442 177.138924 
C 332.21774 177.782625 331.856062 178.655794 331.856062 179.566125 
C 331.856062 180.476456 332.21774 181.349625 332.861442 181.993326 
C 333.505143 182.637027 334.378311 182.998705 335.288642 182.998705 
z
" clip-path="url(#pbb25ee1eb6)" style="fill: #ead5c9; stroke: #ffffff; stroke-width: 0.367743"/>
    <path d="M 333.79276 206.555639 
C 334.534669 206.555639 335.246292 206.260876 335.770901 205.736266 
C 336.29551 205.211657 336.590274 204.500034 336.590274 203.758125 
C 336.590274 203.016216 336.29551 202.304593 335.770901 201.779984 
C 335.246292 201.255374 334.534669 200.960611 333.79276 200.960611 
C 333.05085 200.960611 332.339227 201.255374 331.814618 201.779984 
C 331.290009 202.304593 330.995245 203.016216 330.995245 203.758125 
C 330.995245 204.500034 331.290009 205.211657 331.814618 205.736266 
C 332.339227 206.260876 333.05085 206.555639 333.79276 206.555639 
z
" clip-path="url(#pbb25ee1eb6)" style="fill: #6f92f3; stroke: #ffffff; stroke-width: 0.367743"/>
    <path d="M 325.019712 231.081315 
C 325.850113 231.081315 326.646615 230.751393 327.233798 230.16421 
C 327.82098 229.577028 328.150902 228.780526 328.150902 227.950125 
C 328.150902 227.119724 327.82098 226.323222 327.233798 225.73604 
C 326.646615 225.148857 325.850113 224.818935 325.019712 224.818935 
C 324.189311 224.818935 323.392809 225.148857 322.805627 225.73604 
C 322.218445 226.323222 321.888523 227.119724 321.888523 227.950125 
C 321.888523 228.780526 322.218445 229.577028 322.805627 230.16421 
C 323.392809 230.751393 324.189311 231.081315 325.019712 231.081315 
z
" clip-path="url(#pbb25ee1eb6)" style="fill: #a6c4fe; stroke: #ffffff; stroke-width: 0.367743"/>
    <path d="M 317.098168 255.927107 
C 318.101957 255.927107 319.064769 255.528297 319.774554 254.818511 
C 320.48434 254.108725 320.88315 253.145914 320.88315 252.142125 
C 320.88315 251.138336 320.48434 250.175525 319.774554 249.465739 
C 319.064769 248.755953 318.101957 248.357143 317.098168 248.357143 
C 316.094379 248.357143 315.131568 248.755953 314.421782 249.465739 
C 313.711996 250.175525 313.313186 251.138336 313.313186 252.142125 
C 313.313186 253.145914 313.711996 254.108725 314.421782 254.818511 
C 315.131568 255.528297 316.094379 255.927107 317.098168 255.927107 
z
" clip-path="url(#pbb25ee1eb6)" style="fill: #f7ad90; stroke: #ffffff; stroke-width: 0.367743"/>
    <path d="M 191.90304 282.457849 
C 193.52707 282.457849 195.084804 281.812615 196.233167 280.664252 
C 197.38153 279.515889 198.026764 277.958156 198.026764 276.334125 
C 198.026764 274.710094 197.38153 273.152361 196.233167 272.003998 
C 195.084804 270.855635 193.52707 270.210401 191.90304 270.210401 
C 190.279009 270.210401 188.721276 270.855635 187.572913 272.003998 
C 186.42455 273.152361 185.779315 274.710094 185.779315 276.334125 
C 185.779315 277.958156 186.42455 279.515889 187.572913 280.664252 
C 188.721276 281.812615 190.279009 282.457849 191.90304 282.457849 
z
" clip-path="url(#pbb25ee1eb6)" style="fill: #adc9fd; stroke: #ffffff; stroke-width: 0.367743"/>
   </g>
   <g id="matplotlib.axis_1">
    <g id="xtick_1">
     <g id="line2d_1">
      <defs>
       <path id="m5ec4ffaf2c" d="M 0 0 
L 0 3.5 
" style="stroke: #000000; stroke-width: 0.8"/>
      </defs>
      <g>
       <use xlink:href="#m5ec4ffaf2c" x="205.828255" y="288.430125" style="stroke: #000000; stroke-width: 0.8"/>
      </g>
     </g>
     <g id="text_1">
      <!-- 2 -->
      <g transform="translate(202.647005 303.028562) scale(0.1 -0.1)">
       <defs>
        <path id="DejaVuSans-32" d="M 1228 531 
L 3431 531 
L 3431 0 
L 469 0 
L 469 531 
Q 828 903 1448 1529 
Q 2069 2156 2228 2338 
Q 2531 2678 2651 2914 
Q 2772 3150 2772 3378 
Q 2772 3750 2511 3984 
Q 2250 4219 1831 4219 
Q 1534 4219 1204 4116 
Q 875 4013 500 3803 
L 500 4441 
Q 881 4594 1212 4672 
Q 1544 4750 1819 4750 
Q 2544 4750 2975 4387 
Q 3406 4025 3406 3419 
Q 3406 3131 3298 2873 
Q 3191 2616 2906 2266 
Q 2828 2175 2409 1742 
Q 1991 1309 1228 531 
z
" transform="scale(0.015625)"/>
       </defs>
       <use xlink:href="#DejaVuSans-32"/>
      </g>
     </g>
    </g>
    <g id="xtick_2">
     <g id="line2d_2">
      <g>
       <use xlink:href="#m5ec4ffaf2c" x="256.735146" y="288.430125" style="stroke: #000000; stroke-width: 0.8"/>
      </g>
     </g>
     <g id="text_2">
      <!-- 3 -->
      <g transform="translate(253.553896 303.028562) scale(0.1 -0.1)">
       <defs>
        <path id="DejaVuSans-33" d="M 2597 2516 
Q 3050 2419 3304 2112 
Q 3559 1806 3559 1356 
Q 3559 666 3084 287 
Q 2609 -91 1734 -91 
Q 1441 -91 1130 -33 
Q 819 25 488 141 
L 488 750 
Q 750 597 1062 519 
Q 1375 441 1716 441 
Q 2309 441 2620 675 
Q 2931 909 2931 1356 
Q 2931 1769 2642 2001 
Q 2353 2234 1838 2234 
L 1294 2234 
L 1294 2753 
L 1863 2753 
Q 2328 2753 2575 2939 
Q 2822 3125 2822 3475 
Q 2822 3834 2567 4026 
Q 2313 4219 1838 4219 
Q 1578 4219 1281 4162 
Q 984 4106 628 3988 
L 628 4550 
Q 988 4650 1302 4700 
Q 1616 4750 1894 4750 
Q 2613 4750 3031 4423 
Q 3450 4097 3450 3541 
Q 3450 3153 3228 2886 
Q 3006 2619 2597 2516 
z
" transform="scale(0.015625)"/>
       </defs>
       <use xlink:href="#DejaVuSans-33"/>
      </g>
     </g>
    </g>
    <g id="xtick_3">
     <g id="line2d_3">
      <g>
       <use xlink:href="#m5ec4ffaf2c" x="307.642036" y="288.430125" style="stroke: #000000; stroke-width: 0.8"/>
      </g>
     </g>
     <g id="text_3">
      <!-- 4 -->
      <g transform="translate(304.460786 303.028562) scale(0.1 -0.1)">
       <defs>
        <path id="DejaVuSans-34" d="M 2419 4116 
L 825 1625 
L 2419 1625 
L 2419 4116 
z
M 2253 4666 
L 3047 4666 
L 3047 1625 
L 3713 1625 
L 3713 1100 
L 3047 1100 
L 3047 0 
L 2419 0 
L 2419 1100 
L 313 1100 
L 313 1709 
L 2253 4666 
z
" transform="scale(0.015625)"/>
       </defs>
       <use xlink:href="#DejaVuSans-34"/>
      </g>
     </g>
    </g>
    <g id="xtick_4">
     <g id="line2d_4">
      <g>
       <use xlink:href="#m5ec4ffaf2c" x="358.548927" y="288.430125" style="stroke: #000000; stroke-width: 0.8"/>
      </g>
     </g>
     <g id="text_4">
      <!-- 5 -->
      <g transform="translate(355.367677 303.028562) scale(0.1 -0.1)">
       <defs>
        <path id="DejaVuSans-35" d="M 691 4666 
L 3169 4666 
L 3169 4134 
L 1269 4134 
L 1269 2991 
Q 1406 3038 1543 3061 
Q 1681 3084 1819 3084 
Q 2600 3084 3056 2656 
Q 3513 2228 3513 1497 
Q 3513 744 3044 326 
Q 2575 -91 1722 -91 
Q 1428 -91 1123 -41 
Q 819 9 494 109 
L 494 744 
Q 775 591 1075 516 
Q 1375 441 1709 441 
Q 2250 441 2565 725 
Q 2881 1009 2881 1497 
Q 2881 1984 2565 2268 
Q 2250 2553 1709 2553 
Q 1456 2553 1204 2497 
Q 953 2441 691 2322 
L 691 4666 
z
" transform="scale(0.015625)"/>
       </defs>
       <use xlink:href="#DejaVuSans-35"/>
      </g>
     </g>
    </g>
    <g id="xtick_5">
     <g id="line2d_5">
      <g>
       <use xlink:href="#m5ec4ffaf2c" x="409.455817" y="288.430125" style="stroke: #000000; stroke-width: 0.8"/>
      </g>
     </g>
     <g id="text_5">
      <!-- 6 -->
      <g transform="translate(406.274567 303.028562) scale(0.1 -0.1)">
       <defs>
        <path id="DejaVuSans-36" d="M 2113 2584 
Q 1688 2584 1439 2293 
Q 1191 2003 1191 1497 
Q 1191 994 1439 701 
Q 1688 409 2113 409 
Q 2538 409 2786 701 
Q 3034 994 3034 1497 
Q 3034 2003 2786 2293 
Q 2538 2584 2113 2584 
z
M 3366 4563 
L 3366 3988 
Q 3128 4100 2886 4159 
Q 2644 4219 2406 4219 
Q 1781 4219 1451 3797 
Q 1122 3375 1075 2522 
Q 1259 2794 1537 2939 
Q 1816 3084 2150 3084 
Q 2853 3084 3261 2657 
Q 3669 2231 3669 1497 
Q 3669 778 3244 343 
Q 2819 -91 2113 -91 
Q 1303 -91 875 529 
Q 447 1150 447 2328 
Q 447 3434 972 4092 
Q 1497 4750 2381 4750 
Q 2619 4750 2861 4703 
Q 3103 4656 3366 4563 
z
" transform="scale(0.015625)"/>
       </defs>
       <use xlink:href="#DejaVuSans-36"/>
      </g>
     </g>
    </g>
    <g id="xtick_6">
     <g id="line2d_6">
      <g>
       <use xlink:href="#m5ec4ffaf2c" x="460.362708" y="288.430125" style="stroke: #000000; stroke-width: 0.8"/>
      </g>
     </g>
     <g id="text_6">
      <!-- 7 -->
      <g transform="translate(457.181458 303.028562) scale(0.1 -0.1)">
       <defs>
        <path id="DejaVuSans-37" d="M 525 4666 
L 3525 4666 
L 3525 4397 
L 1831 0 
L 1172 0 
L 2766 4134 
L 525 4134 
L 525 4666 
z
" transform="scale(0.015625)"/>
       </defs>
       <use xlink:href="#DejaVuSans-37"/>
      </g>
     </g>
    </g>
    <g id="xtick_7">
     <g id="line2d_7">
      <g>
       <use xlink:href="#m5ec4ffaf2c" x="511.269598" y="288.430125" style="stroke: #000000; stroke-width: 0.8"/>
      </g>
     </g>
     <g id="text_7">
      <!-- 8 -->
      <g transform="translate(508.088348 303.028562) scale(0.1 -0.1)">
       <defs>
        <path id="DejaVuSans-38" d="M 2034 2216 
Q 1584 2216 1326 1975 
Q 1069 1734 1069 1313 
Q 1069 891 1326 650 
Q 1584 409 2034 409 
Q 2484 409 2743 651 
Q 3003 894 3003 1313 
Q 3003 1734 2745 1975 
Q 2488 2216 2034 2216 
z
M 1403 2484 
Q 997 2584 770 2862 
Q 544 3141 544 3541 
Q 544 4100 942 4425 
Q 1341 4750 2034 4750 
Q 2731 4750 3128 4425 
Q 3525 4100 3525 3541 
Q 3525 3141 3298 2862 
Q 3072 2584 2669 2484 
Q 3125 2378 3379 2068 
Q 3634 1759 3634 1313 
Q 3634 634 3220 271 
Q 2806 -91 2034 -91 
Q 1263 -91 848 271 
Q 434 634 434 1313 
Q 434 1759 690 2068 
Q 947 2378 1403 2484 
z
M 1172 3481 
Q 1172 3119 1398 2916 
Q 1625 2713 2034 2713 
Q 2441 2713 2670 2916 
Q 2900 3119 2900 3481 
Q 2900 3844 2670 4047 
Q 2441 4250 2034 4250 
Q 1625 4250 1398 4047 
Q 1172 3844 1172 3481 
z
" transform="scale(0.015625)"/>
       </defs>
       <use xlink:href="#DejaVuSans-38"/>
      </g>
     </g>
    </g>
    <g id="text_8">
     <!-- Fold Enrichment -->
     <g transform="translate(313.557656 316.706687) scale(0.1 -0.1)">
      <defs>
       <path id="DejaVuSans-46" d="M 628 4666 
L 3309 4666 
L 3309 4134 
L 1259 4134 
L 1259 2759 
L 3109 2759 
L 3109 2228 
L 1259 2228 
L 1259 0 
L 628 0 
L 628 4666 
z
" transform="scale(0.015625)"/>
       <path id="DejaVuSans-6f" d="M 1959 3097 
Q 1497 3097 1228 2736 
Q 959 2375 959 1747 
Q 959 1119 1226 758 
Q 1494 397 1959 397 
Q 2419 397 2687 759 
Q 2956 1122 2956 1747 
Q 2956 2369 2687 2733 
Q 2419 3097 1959 3097 
z
M 1959 3584 
Q 2709 3584 3137 3096 
Q 3566 2609 3566 1747 
Q 3566 888 3137 398 
Q 2709 -91 1959 -91 
Q 1206 -91 779 398 
Q 353 888 353 1747 
Q 353 2609 779 3096 
Q 1206 3584 1959 3584 
z
" transform="scale(0.015625)"/>
       <path id="DejaVuSans-6c" d="M 603 4863 
L 1178 4863 
L 1178 0 
L 603 0 
L 603 4863 
z
" transform="scale(0.015625)"/>
       <path id="DejaVuSans-64" d="M 2906 2969 
L 2906 4863 
L 3481 4863 
L 3481 0 
L 2906 0 
L 2906 525 
Q 2725 213 2448 61 
Q 2172 -91 1784 -91 
Q 1150 -91 751 415 
Q 353 922 353 1747 
Q 353 2572 751 3078 
Q 1150 3584 1784 3584 
Q 2172 3584 2448 3432 
Q 2725 3281 2906 2969 
z
M 947 1747 
Q 947 1113 1208 752 
Q 1469 391 1925 391 
Q 2381 391 2643 752 
Q 2906 1113 2906 1747 
Q 2906 2381 2643 2742 
Q 2381 3103 1925 3103 
Q 1469 3103 1208 2742 
Q 947 2381 947 1747 
z
" transform="scale(0.015625)"/>
       <path id="DejaVuSans-20" transform="scale(0.015625)"/>
       <path id="DejaVuSans-45" d="M 628 4666 
L 3578 4666 
L 3578 4134 
L 1259 4134 
L 1259 2753 
L 3481 2753 
L 3481 2222 
L 1259 2222 
L 1259 531 
L 3634 531 
L 3634 0 
L 628 0 
L 628 4666 
z
" transform="scale(0.015625)"/>
       <path id="DejaVuSans-6e" d="M 3513 2113 
L 3513 0 
L 2938 0 
L 2938 2094 
Q 2938 2591 2744 2837 
Q 2550 3084 2163 3084 
Q 1697 3084 1428 2787 
Q 1159 2491 1159 1978 
L 1159 0 
L 581 0 
L 581 3500 
L 1159 3500 
L 1159 2956 
Q 1366 3272 1645 3428 
Q 1925 3584 2291 3584 
Q 2894 3584 3203 3211 
Q 3513 2838 3513 2113 
z
" transform="scale(0.015625)"/>
       <path id="DejaVuSans-72" d="M 2631 2963 
Q 2534 3019 2420 3045 
Q 2306 3072 2169 3072 
Q 1681 3072 1420 2755 
Q 1159 2438 1159 1844 
L 1159 0 
L 581 0 
L 581 3500 
L 1159 3500 
L 1159 2956 
Q 1341 3275 1631 3429 
Q 1922 3584 2338 3584 
Q 2397 3584 2469 3576 
Q 2541 3569 2628 3553 
L 2631 2963 
z
" transform="scale(0.015625)"/>
       <path id="DejaVuSans-69" d="M 603 3500 
L 1178 3500 
L 1178 0 
L 603 0 
L 603 3500 
z
M 603 4863 
L 1178 4863 
L 1178 4134 
L 603 4134 
L 603 4863 
z
" transform="scale(0.015625)"/>
       <path id="DejaVuSans-63" d="M 3122 3366 
L 3122 2828 
Q 2878 2963 2633 3030 
Q 2388 3097 2138 3097 
Q 1578 3097 1268 2742 
Q 959 2388 959 1747 
Q 959 1106 1268 751 
Q 1578 397 2138 397 
Q 2388 397 2633 464 
Q 2878 531 3122 666 
L 3122 134 
Q 2881 22 2623 -34 
Q 2366 -91 2075 -91 
Q 1284 -91 818 406 
Q 353 903 353 1747 
Q 353 2603 823 3093 
Q 1294 3584 2113 3584 
Q 2378 3584 2631 3529 
Q 2884 3475 3122 3366 
z
" transform="scale(0.015625)"/>
       <path id="DejaVuSans-68" d="M 3513 2113 
L 3513 0 
L 2938 0 
L 2938 2094 
Q 2938 2591 2744 2837 
Q 2550 3084 2163 3084 
Q 1697 3084 1428 2787 
Q 1159 2491 1159 1978 
L 1159 0 
L 581 0 
L 581 4863 
L 1159 4863 
L 1159 2956 
Q 1366 3272 1645 3428 
Q 1925 3584 2291 3584 
Q 2894 3584 3203 3211 
Q 3513 2838 3513 2113 
z
" transform="scale(0.015625)"/>
       <path id="DejaVuSans-6d" d="M 3328 2828 
Q 3544 3216 3844 3400 
Q 4144 3584 4550 3584 
Q 5097 3584 5394 3201 
Q 5691 2819 5691 2113 
L 5691 0 
L 5113 0 
L 5113 2094 
Q 5113 2597 4934 2840 
Q 4756 3084 4391 3084 
Q 3944 3084 3684 2787 
Q 3425 2491 3425 1978 
L 3425 0 
L 2847 0 
L 2847 2094 
Q 2847 2600 2669 2842 
Q 2491 3084 2119 3084 
Q 1678 3084 1418 2786 
Q 1159 2488 1159 1978 
L 1159 0 
L 581 0 
L 581 3500 
L 1159 3500 
L 1159 2956 
Q 1356 3278 1631 3431 
Q 1906 3584 2284 3584 
Q 2666 3584 2933 3390 
Q 3200 3197 3328 2828 
z
" transform="scale(0.015625)"/>
       <path id="DejaVuSans-65" d="M 3597 1894 
L 3597 1613 
L 953 1613 
Q 991 1019 1311 708 
Q 1631 397 2203 397 
Q 2534 397 2845 478 
Q 3156 559 3463 722 
L 3463 178 
Q 3153 47 2828 -22 
Q 2503 -91 2169 -91 
Q 1331 -91 842 396 
Q 353 884 353 1716 
Q 353 2575 817 3079 
Q 1281 3584 2069 3584 
Q 2775 3584 3186 3129 
Q 3597 2675 3597 1894 
z
M 3022 2063 
Q 3016 2534 2758 2815 
Q 2500 3097 2075 3097 
Q 1594 3097 1305 2825 
Q 1016 2553 972 2059 
L 3022 2063 
z
" transform="scale(0.015625)"/>
       <path id="DejaVuSans-74" d="M 1172 4494 
L 1172 3500 
L 2356 3500 
L 2356 3053 
L 1172 3053 
L 1172 1153 
Q 1172 725 1289 603 
Q 1406 481 1766 481 
L 2356 481 
L 2356 0 
L 1766 0 
Q 1100 0 847 248 
Q 594 497 594 1153 
L 594 3053 
L 172 3053 
L 172 3500 
L 594 3500 
L 594 4494 
L 1172 4494 
z
" transform="scale(0.015625)"/>
      </defs>
      <use xlink:href="#DejaVuSans-46"/>
      <use xlink:href="#DejaVuSans-6f" transform="translate(53.894531 0)"/>
      <use xlink:href="#DejaVuSans-6c" transform="translate(115.076172 0)"/>
      <use xlink:href="#DejaVuSans-64" transform="translate(142.859375 0)"/>
      <use xlink:href="#DejaVuSans-20" transform="translate(206.335938 0)"/>
      <use xlink:href="#DejaVuSans-45" transform="translate(238.123047 0)"/>
      <use xlink:href="#DejaVuSans-6e" transform="translate(301.306641 0)"/>
      <use xlink:href="#DejaVuSans-72" transform="translate(364.685547 0)"/>
      <use xlink:href="#DejaVuSans-69" transform="translate(405.798828 0)"/>
      <use xlink:href="#DejaVuSans-63" transform="translate(433.582031 0)"/>
      <use xlink:href="#DejaVuSans-68" transform="translate(488.5625 0)"/>
      <use xlink:href="#DejaVuSans-6d" transform="translate(551.941406 0)"/>
      <use xlink:href="#DejaVuSans-65" transform="translate(649.353516 0)"/>
      <use xlink:href="#DejaVuSans-6e" transform="translate(710.876953 0)"/>
      <use xlink:href="#DejaVuSans-74" transform="translate(774.255859 0)"/>
     </g>
    </g>
   </g>
   <g id="matplotlib.axis_2">
    <g id="ytick_1">
     <g id="line2d_8">
      <defs>
       <path id="m00b997996d" d="M 0 0 
L -3.5 0 
" style="stroke: #000000; stroke-width: 0.8"/>
      </defs>
      <g>
       <use xlink:href="#m00b997996d" x="175.670313" y="34.414125" style="stroke: #000000; stroke-width: 0.8"/>
      </g>
     </g>
     <g id="text_9">
      <!-- postsynaptic density membrane -->
      <g transform="translate(7.2 38.213344) scale(0.1 -0.1)">
       <defs>
        <path id="DejaVuSans-70" d="M 1159 525 
L 1159 -1331 
L 581 -1331 
L 581 3500 
L 1159 3500 
L 1159 2969 
Q 1341 3281 1617 3432 
Q 1894 3584 2278 3584 
Q 2916 3584 3314 3078 
Q 3713 2572 3713 1747 
Q 3713 922 3314 415 
Q 2916 -91 2278 -91 
Q 1894 -91 1617 61 
Q 1341 213 1159 525 
z
M 3116 1747 
Q 3116 2381 2855 2742 
Q 2594 3103 2138 3103 
Q 1681 3103 1420 2742 
Q 1159 2381 1159 1747 
Q 1159 1113 1420 752 
Q 1681 391 2138 391 
Q 2594 391 2855 752 
Q 3116 1113 3116 1747 
z
" transform="scale(0.015625)"/>
        <path id="DejaVuSans-73" d="M 2834 3397 
L 2834 2853 
Q 2591 2978 2328 3040 
Q 2066 3103 1784 3103 
Q 1356 3103 1142 2972 
Q 928 2841 928 2578 
Q 928 2378 1081 2264 
Q 1234 2150 1697 2047 
L 1894 2003 
Q 2506 1872 2764 1633 
Q 3022 1394 3022 966 
Q 3022 478 2636 193 
Q 2250 -91 1575 -91 
Q 1294 -91 989 -36 
Q 684 19 347 128 
L 347 722 
Q 666 556 975 473 
Q 1284 391 1588 391 
Q 1994 391 2212 530 
Q 2431 669 2431 922 
Q 2431 1156 2273 1281 
Q 2116 1406 1581 1522 
L 1381 1569 
Q 847 1681 609 1914 
Q 372 2147 372 2553 
Q 372 3047 722 3315 
Q 1072 3584 1716 3584 
Q 2034 3584 2315 3537 
Q 2597 3491 2834 3397 
z
" transform="scale(0.015625)"/>
        <path id="DejaVuSans-79" d="M 2059 -325 
Q 1816 -950 1584 -1140 
Q 1353 -1331 966 -1331 
L 506 -1331 
L 506 -850 
L 844 -850 
Q 1081 -850 1212 -737 
Q 1344 -625 1503 -206 
L 1606 56 
L 191 3500 
L 800 3500 
L 1894 763 
L 2988 3500 
L 3597 3500 
L 2059 -325 
z
" transform="scale(0.015625)"/>
        <path id="DejaVuSans-61" d="M 2194 1759 
Q 1497 1759 1228 1600 
Q 959 1441 959 1056 
Q 959 750 1161 570 
Q 1363 391 1709 391 
Q 2188 391 2477 730 
Q 2766 1069 2766 1631 
L 2766 1759 
L 2194 1759 
z
M 3341 1997 
L 3341 0 
L 2766 0 
L 2766 531 
Q 2569 213 2275 61 
Q 1981 -91 1556 -91 
Q 1019 -91 701 211 
Q 384 513 384 1019 
Q 384 1609 779 1909 
Q 1175 2209 1959 2209 
L 2766 2209 
L 2766 2266 
Q 2766 2663 2505 2880 
Q 2244 3097 1772 3097 
Q 1472 3097 1187 3025 
Q 903 2953 641 2809 
L 641 3341 
Q 956 3463 1253 3523 
Q 1550 3584 1831 3584 
Q 2591 3584 2966 3190 
Q 3341 2797 3341 1997 
z
" transform="scale(0.015625)"/>
        <path id="DejaVuSans-62" d="M 3116 1747 
Q 3116 2381 2855 2742 
Q 2594 3103 2138 3103 
Q 1681 3103 1420 2742 
Q 1159 2381 1159 1747 
Q 1159 1113 1420 752 
Q 1681 391 2138 391 
Q 2594 391 2855 752 
Q 3116 1113 3116 1747 
z
M 1159 2969 
Q 1341 3281 1617 3432 
Q 1894 3584 2278 3584 
Q 2916 3584 3314 3078 
Q 3713 2572 3713 1747 
Q 3713 922 3314 415 
Q 2916 -91 2278 -91 
Q 1894 -91 1617 61 
Q 1341 213 1159 525 
L 1159 0 
L 581 0 
L 581 4863 
L 1159 4863 
L 1159 2969 
z
" transform="scale(0.015625)"/>
       </defs>
       <use xlink:href="#DejaVuSans-70"/>
       <use xlink:href="#DejaVuSans-6f" transform="translate(63.476562 0)"/>
       <use xlink:href="#DejaVuSans-73" transform="translate(124.658203 0)"/>
       <use xlink:href="#DejaVuSans-74" transform="translate(176.757812 0)"/>
       <use xlink:href="#DejaVuSans-73" transform="translate(215.966797 0)"/>
       <use xlink:href="#DejaVuSans-79" transform="translate(268.066406 0)"/>
       <use xlink:href="#DejaVuSans-6e" transform="translate(327.246094 0)"/>
       <use xlink:href="#DejaVuSans-61" transform="translate(390.625 0)"/>
       <use xlink:href="#DejaVuSans-70" transform="translate(451.904297 0)"/>
       <use xlink:href="#DejaVuSans-74" transform="translate(515.380859 0)"/>
       <use xlink:href="#DejaVuSans-69" transform="translate(554.589844 0)"/>
       <use xlink:href="#DejaVuSans-63" transform="translate(582.373047 0)"/>
       <use xlink:href="#DejaVuSans-20" transform="translate(637.353516 0)"/>
       <use xlink:href="#DejaVuSans-64" transform="translate(669.140625 0)"/>
       <use xlink:href="#DejaVuSans-65" transform="translate(732.617188 0)"/>
       <use xlink:href="#DejaVuSans-6e" transform="translate(794.140625 0)"/>
       <use xlink:href="#DejaVuSans-73" transform="translate(857.519531 0)"/>
       <use xlink:href="#DejaVuSans-69" transform="translate(909.619141 0)"/>
       <use xlink:href="#DejaVuSans-74" transform="translate(937.402344 0)"/>
       <use xlink:href="#DejaVuSans-79" transform="translate(976.611328 0)"/>
       <use xlink:href="#DejaVuSans-20" transform="translate(1035.791016 0)"/>
       <use xlink:href="#DejaVuSans-6d" transform="translate(1067.578125 0)"/>
       <use xlink:href="#DejaVuSans-65" transform="translate(1164.990234 0)"/>
       <use xlink:href="#DejaVuSans-6d" transform="translate(1226.513672 0)"/>
       <use xlink:href="#DejaVuSans-62" transform="translate(1323.925781 0)"/>
       <use xlink:href="#DejaVuSans-72" transform="translate(1387.402344 0)"/>
       <use xlink:href="#DejaVuSans-61" transform="translate(1428.515625 0)"/>
       <use xlink:href="#DejaVuSans-6e" transform="translate(1489.794922 0)"/>
       <use xlink:href="#DejaVuSans-65" transform="translate(1553.173828 0)"/>
      </g>
     </g>
    </g>
    <g id="ytick_2">
     <g id="line2d_9">
      <g>
       <use xlink:href="#m00b997996d" x="175.670313" y="58.606125" style="stroke: #000000; stroke-width: 0.8"/>
      </g>
     </g>
     <g id="text_10">
      <!-- axon -->
      <g transform="translate(144.479688 62.405344) scale(0.1 -0.1)">
       <defs>
        <path id="DejaVuSans-78" d="M 3513 3500 
L 2247 1797 
L 3578 0 
L 2900 0 
L 1881 1375 
L 863 0 
L 184 0 
L 1544 1831 
L 300 3500 
L 978 3500 
L 1906 2253 
L 2834 3500 
L 3513 3500 
z
" transform="scale(0.015625)"/>
       </defs>
       <use xlink:href="#DejaVuSans-61"/>
       <use xlink:href="#DejaVuSans-78" transform="translate(61.279297 0)"/>
       <use xlink:href="#DejaVuSans-6f" transform="translate(117.333984 0)"/>
       <use xlink:href="#DejaVuSans-6e" transform="translate(178.515625 0)"/>
      </g>
     </g>
    </g>
    <g id="ytick_3">
     <g id="line2d_10">
      <g>
       <use xlink:href="#m00b997996d" x="175.670313" y="82.798125" style="stroke: #000000; stroke-width: 0.8"/>
      </g>
     </g>
     <g id="text_11">
      <!-- presynaptic membrane -->
      <g transform="translate(52.253125 86.597344) scale(0.1 -0.1)">
       <use xlink:href="#DejaVuSans-70"/>
       <use xlink:href="#DejaVuSans-72" transform="translate(63.476562 0)"/>
       <use xlink:href="#DejaVuSans-65" transform="translate(102.339844 0)"/>
       <use xlink:href="#DejaVuSans-73" transform="translate(163.863281 0)"/>
       <use xlink:href="#DejaVuSans-79" transform="translate(215.962891 0)"/>
       <use xlink:href="#DejaVuSans-6e" transform="translate(275.142578 0)"/>
       <use xlink:href="#DejaVuSans-61" transform="translate(338.521484 0)"/>
       <use xlink:href="#DejaVuSans-70" transform="translate(399.800781 0)"/>
       <use xlink:href="#DejaVuSans-74" transform="translate(463.277344 0)"/>
       <use xlink:href="#DejaVuSans-69" transform="translate(502.486328 0)"/>
       <use xlink:href="#DejaVuSans-63" transform="translate(530.269531 0)"/>
       <use xlink:href="#DejaVuSans-20" transform="translate(585.25 0)"/>
       <use xlink:href="#DejaVuSans-6d" transform="translate(617.037109 0)"/>
       <use xlink:href="#DejaVuSans-65" transform="translate(714.449219 0)"/>
       <use xlink:href="#DejaVuSans-6d" transform="translate(775.972656 0)"/>
       <use xlink:href="#DejaVuSans-62" transform="translate(873.384766 0)"/>
       <use xlink:href="#DejaVuSans-72" transform="translate(936.861328 0)"/>
       <use xlink:href="#DejaVuSans-61" transform="translate(977.974609 0)"/>
       <use xlink:href="#DejaVuSans-6e" transform="translate(1039.253906 0)"/>
       <use xlink:href="#DejaVuSans-65" transform="translate(1102.632812 0)"/>
      </g>
     </g>
    </g>
    <g id="ytick_4">
     <g id="line2d_11">
      <g>
       <use xlink:href="#m00b997996d" x="175.670313" y="106.990125" style="stroke: #000000; stroke-width: 0.8"/>
      </g>
     </g>
     <g id="text_12">
      <!-- postsynaptic density -->
      <g transform="translate(65.090625 110.789344) scale(0.1 -0.1)">
       <use xlink:href="#DejaVuSans-70"/>
       <use xlink:href="#DejaVuSans-6f" transform="translate(63.476562 0)"/>
       <use xlink:href="#DejaVuSans-73" transform="translate(124.658203 0)"/>
       <use xlink:href="#DejaVuSans-74" transform="translate(176.757812 0)"/>
       <use xlink:href="#DejaVuSans-73" transform="translate(215.966797 0)"/>
       <use xlink:href="#DejaVuSans-79" transform="translate(268.066406 0)"/>
       <use xlink:href="#DejaVuSans-6e" transform="translate(327.246094 0)"/>
       <use xlink:href="#DejaVuSans-61" transform="translate(390.625 0)"/>
       <use xlink:href="#DejaVuSans-70" transform="translate(451.904297 0)"/>
       <use xlink:href="#DejaVuSans-74" transform="translate(515.380859 0)"/>
       <use xlink:href="#DejaVuSans-69" transform="translate(554.589844 0)"/>
       <use xlink:href="#DejaVuSans-63" transform="translate(582.373047 0)"/>
       <use xlink:href="#DejaVuSans-20" transform="translate(637.353516 0)"/>
       <use xlink:href="#DejaVuSans-64" transform="translate(669.140625 0)"/>
       <use xlink:href="#DejaVuSans-65" transform="translate(732.617188 0)"/>
       <use xlink:href="#DejaVuSans-6e" transform="translate(794.140625 0)"/>
       <use xlink:href="#DejaVuSans-73" transform="translate(857.519531 0)"/>
       <use xlink:href="#DejaVuSans-69" transform="translate(909.619141 0)"/>
       <use xlink:href="#DejaVuSans-74" transform="translate(937.402344 0)"/>
       <use xlink:href="#DejaVuSans-79" transform="translate(976.611328 0)"/>
      </g>
     </g>
    </g>
    <g id="ytick_5">
     <g id="line2d_12">
      <g>
       <use xlink:href="#m00b997996d" x="175.670313" y="131.182125" style="stroke: #000000; stroke-width: 0.8"/>
      </g>
     </g>
     <g id="text_13">
      <!-- postsynapse -->
      <g transform="translate(105.76875 134.981344) scale(0.1 -0.1)">
       <use xlink:href="#DejaVuSans-70"/>
       <use xlink:href="#DejaVuSans-6f" transform="translate(63.476562 0)"/>
       <use xlink:href="#DejaVuSans-73" transform="translate(124.658203 0)"/>
       <use xlink:href="#DejaVuSans-74" transform="translate(176.757812 0)"/>
       <use xlink:href="#DejaVuSans-73" transform="translate(215.966797 0)"/>
       <use xlink:href="#DejaVuSans-79" transform="translate(268.066406 0)"/>
       <use xlink:href="#DejaVuSans-6e" transform="translate(327.246094 0)"/>
       <use xlink:href="#DejaVuSans-61" transform="translate(390.625 0)"/>
       <use xlink:href="#DejaVuSans-70" transform="translate(451.904297 0)"/>
       <use xlink:href="#DejaVuSans-73" transform="translate(515.380859 0)"/>
       <use xlink:href="#DejaVuSans-65" transform="translate(567.480469 0)"/>
      </g>
     </g>
    </g>
    <g id="ytick_6">
     <g id="line2d_13">
      <g>
       <use xlink:href="#m00b997996d" x="175.670313" y="155.374125" style="stroke: #000000; stroke-width: 0.8"/>
      </g>
     </g>
     <g id="text_14">
      <!-- postsynaptic membrane -->
      <g transform="translate(47.04375 159.173344) scale(0.1 -0.1)">
       <use xlink:href="#DejaVuSans-70"/>
       <use xlink:href="#DejaVuSans-6f" transform="translate(63.476562 0)"/>
       <use xlink:href="#DejaVuSans-73" transform="translate(124.658203 0)"/>
       <use xlink:href="#DejaVuSans-74" transform="translate(176.757812 0)"/>
       <use xlink:href="#DejaVuSans-73" transform="translate(215.966797 0)"/>
       <use xlink:href="#DejaVuSans-79" transform="translate(268.066406 0)"/>
       <use xlink:href="#DejaVuSans-6e" transform="translate(327.246094 0)"/>
       <use xlink:href="#DejaVuSans-61" transform="translate(390.625 0)"/>
       <use xlink:href="#DejaVuSans-70" transform="translate(451.904297 0)"/>
       <use xlink:href="#DejaVuSans-74" transform="translate(515.380859 0)"/>
       <use xlink:href="#DejaVuSans-69" transform="translate(554.589844 0)"/>
       <use xlink:href="#DejaVuSans-63" transform="translate(582.373047 0)"/>
       <use xlink:href="#DejaVuSans-20" transform="translate(637.353516 0)"/>
       <use xlink:href="#DejaVuSans-6d" transform="translate(669.140625 0)"/>
       <use xlink:href="#DejaVuSans-65" transform="translate(766.552734 0)"/>
       <use xlink:href="#DejaVuSans-6d" transform="translate(828.076172 0)"/>
       <use xlink:href="#DejaVuSans-62" transform="translate(925.488281 0)"/>
       <use xlink:href="#DejaVuSans-72" transform="translate(988.964844 0)"/>
       <use xlink:href="#DejaVuSans-61" transform="translate(1030.078125 0)"/>
       <use xlink:href="#DejaVuSans-6e" transform="translate(1091.357422 0)"/>
       <use xlink:href="#DejaVuSans-65" transform="translate(1154.736328 0)"/>
      </g>
     </g>
    </g>
    <g id="ytick_7">
     <g id="line2d_14">
      <g>
       <use xlink:href="#m00b997996d" x="175.670313" y="179.566125" style="stroke: #000000; stroke-width: 0.8"/>
      </g>
     </g>
     <g id="text_15">
      <!-- glutamatergic synapse -->
      <g transform="translate(54.171875 183.365344) scale(0.1 -0.1)">
       <defs>
        <path id="DejaVuSans-67" d="M 2906 1791 
Q 2906 2416 2648 2759 
Q 2391 3103 1925 3103 
Q 1463 3103 1205 2759 
Q 947 2416 947 1791 
Q 947 1169 1205 825 
Q 1463 481 1925 481 
Q 2391 481 2648 825 
Q 2906 1169 2906 1791 
z
M 3481 434 
Q 3481 -459 3084 -895 
Q 2688 -1331 1869 -1331 
Q 1566 -1331 1297 -1286 
Q 1028 -1241 775 -1147 
L 775 -588 
Q 1028 -725 1275 -790 
Q 1522 -856 1778 -856 
Q 2344 -856 2625 -561 
Q 2906 -266 2906 331 
L 2906 616 
Q 2728 306 2450 153 
Q 2172 0 1784 0 
Q 1141 0 747 490 
Q 353 981 353 1791 
Q 353 2603 747 3093 
Q 1141 3584 1784 3584 
Q 2172 3584 2450 3431 
Q 2728 3278 2906 2969 
L 2906 3500 
L 3481 3500 
L 3481 434 
z
" transform="scale(0.015625)"/>
        <path id="DejaVuSans-75" d="M 544 1381 
L 544 3500 
L 1119 3500 
L 1119 1403 
Q 1119 906 1312 657 
Q 1506 409 1894 409 
Q 2359 409 2629 706 
Q 2900 1003 2900 1516 
L 2900 3500 
L 3475 3500 
L 3475 0 
L 2900 0 
L 2900 538 
Q 2691 219 2414 64 
Q 2138 -91 1772 -91 
Q 1169 -91 856 284 
Q 544 659 544 1381 
z
M 1991 3584 
L 1991 3584 
z
" transform="scale(0.015625)"/>
       </defs>
       <use xlink:href="#DejaVuSans-67"/>
       <use xlink:href="#DejaVuSans-6c" transform="translate(63.476562 0)"/>
       <use xlink:href="#DejaVuSans-75" transform="translate(91.259766 0)"/>
       <use xlink:href="#DejaVuSans-74" transform="translate(154.638672 0)"/>
       <use xlink:href="#DejaVuSans-61" transform="translate(193.847656 0)"/>
       <use xlink:href="#DejaVuSans-6d" transform="translate(255.126953 0)"/>
       <use xlink:href="#DejaVuSans-61" transform="translate(352.539062 0)"/>
       <use xlink:href="#DejaVuSans-74" transform="translate(413.818359 0)"/>
       <use xlink:href="#DejaVuSans-65" transform="translate(453.027344 0)"/>
       <use xlink:href="#DejaVuSans-72" transform="translate(514.550781 0)"/>
       <use xlink:href="#DejaVuSans-67" transform="translate(553.914062 0)"/>
       <use xlink:href="#DejaVuSans-69" transform="translate(617.390625 0)"/>
       <use xlink:href="#DejaVuSans-63" transform="translate(645.173828 0)"/>
       <use xlink:href="#DejaVuSans-20" transform="translate(700.154297 0)"/>
       <use xlink:href="#DejaVuSans-73" transform="translate(731.941406 0)"/>
       <use xlink:href="#DejaVuSans-79" transform="translate(784.041016 0)"/>
       <use xlink:href="#DejaVuSans-6e" transform="translate(843.220703 0)"/>
       <use xlink:href="#DejaVuSans-61" transform="translate(906.599609 0)"/>
       <use xlink:href="#DejaVuSans-70" transform="translate(967.878906 0)"/>
       <use xlink:href="#DejaVuSans-73" transform="translate(1031.355469 0)"/>
       <use xlink:href="#DejaVuSans-65" transform="translate(1083.455078 0)"/>
      </g>
     </g>
    </g>
    <g id="ytick_8">
     <g id="line2d_15">
      <g>
       <use xlink:href="#m00b997996d" x="175.670313" y="203.758125" style="stroke: #000000; stroke-width: 0.8"/>
      </g>
     </g>
     <g id="text_16">
      <!-- neuron projection -->
      <g transform="translate(80.384375 207.557344) scale(0.1 -0.1)">
       <defs>
        <path id="DejaVuSans-6a" d="M 603 3500 
L 1178 3500 
L 1178 -63 
Q 1178 -731 923 -1031 
Q 669 -1331 103 -1331 
L -116 -1331 
L -116 -844 
L 38 -844 
Q 366 -844 484 -692 
Q 603 -541 603 -63 
L 603 3500 
z
M 603 4863 
L 1178 4863 
L 1178 4134 
L 603 4134 
L 603 4863 
z
" transform="scale(0.015625)"/>
       </defs>
       <use xlink:href="#DejaVuSans-6e"/>
       <use xlink:href="#DejaVuSans-65" transform="translate(63.378906 0)"/>
       <use xlink:href="#DejaVuSans-75" transform="translate(124.902344 0)"/>
       <use xlink:href="#DejaVuSans-72" transform="translate(188.28125 0)"/>
       <use xlink:href="#DejaVuSans-6f" transform="translate(227.144531 0)"/>
       <use xlink:href="#DejaVuSans-6e" transform="translate(288.326172 0)"/>
       <use xlink:href="#DejaVuSans-20" transform="translate(351.705078 0)"/>
       <use xlink:href="#DejaVuSans-70" transform="translate(383.492188 0)"/>
       <use xlink:href="#DejaVuSans-72" transform="translate(446.96875 0)"/>
       <use xlink:href="#DejaVuSans-6f" transform="translate(485.832031 0)"/>
       <use xlink:href="#DejaVuSans-6a" transform="translate(547.013672 0)"/>
       <use xlink:href="#DejaVuSans-65" transform="translate(574.796875 0)"/>
       <use xlink:href="#DejaVuSans-63" transform="translate(636.320312 0)"/>
       <use xlink:href="#DejaVuSans-74" transform="translate(691.300781 0)"/>
       <use xlink:href="#DejaVuSans-69" transform="translate(730.509766 0)"/>
       <use xlink:href="#DejaVuSans-6f" transform="translate(758.292969 0)"/>
       <use xlink:href="#DejaVuSans-6e" transform="translate(819.474609 0)"/>
      </g>
     </g>
    </g>
    <g id="ytick_9">
     <g id="line2d_16">
      <g>
       <use xlink:href="#m00b997996d" x="175.670313" y="227.950125" style="stroke: #000000; stroke-width: 0.8"/>
      </g>
     </g>
     <g id="text_17">
      <!-- dendrite -->
      <g transform="translate(126.520313 231.749344) scale(0.1 -0.1)">
       <use xlink:href="#DejaVuSans-64"/>
       <use xlink:href="#DejaVuSans-65" transform="translate(63.476562 0)"/>
       <use xlink:href="#DejaVuSans-6e" transform="translate(125 0)"/>
       <use xlink:href="#DejaVuSans-64" transform="translate(188.378906 0)"/>
       <use xlink:href="#DejaVuSans-72" transform="translate(251.855469 0)"/>
       <use xlink:href="#DejaVuSans-69" transform="translate(292.96875 0)"/>
       <use xlink:href="#DejaVuSans-74" transform="translate(320.751953 0)"/>
       <use xlink:href="#DejaVuSans-65" transform="translate(359.960938 0)"/>
      </g>
     </g>
    </g>
    <g id="ytick_10">
     <g id="line2d_17">
      <g>
       <use xlink:href="#m00b997996d" x="175.670313" y="252.142125" style="stroke: #000000; stroke-width: 0.8"/>
      </g>
     </g>
     <g id="text_18">
      <!-- synapse -->
      <g transform="translate(127.365625 255.941344) scale(0.1 -0.1)">
       <use xlink:href="#DejaVuSans-73"/>
       <use xlink:href="#DejaVuSans-79" transform="translate(52.099609 0)"/>
       <use xlink:href="#DejaVuSans-6e" transform="translate(111.279297 0)"/>
       <use xlink:href="#DejaVuSans-61" transform="translate(174.658203 0)"/>
       <use xlink:href="#DejaVuSans-70" transform="translate(235.9375 0)"/>
       <use xlink:href="#DejaVuSans-73" transform="translate(299.414062 0)"/>
       <use xlink:href="#DejaVuSans-65" transform="translate(351.513672 0)"/>
      </g>
     </g>
    </g>
    <g id="ytick_11">
     <g id="line2d_18">
      <g>
       <use xlink:href="#m00b997996d" x="175.670313" y="276.334125" style="stroke: #000000; stroke-width: 0.8"/>
      </g>
     </g>
     <g id="text_19">
      <!-- plasma membrane -->
      <g transform="translate(74.446875 280.133344) scale(0.1 -0.1)">
       <use xlink:href="#DejaVuSans-70"/>
       <use xlink:href="#DejaVuSans-6c" transform="translate(63.476562 0)"/>
       <use xlink:href="#DejaVuSans-61" transform="translate(91.259766 0)"/>
       <use xlink:href="#DejaVuSans-73" transform="translate(152.539062 0)"/>
       <use xlink:href="#DejaVuSans-6d" transform="translate(204.638672 0)"/>
       <use xlink:href="#DejaVuSans-61" transform="translate(302.050781 0)"/>
       <use xlink:href="#DejaVuSans-20" transform="translate(363.330078 0)"/>
       <use xlink:href="#DejaVuSans-6d" transform="translate(395.117188 0)"/>
       <use xlink:href="#DejaVuSans-65" transform="translate(492.529297 0)"/>
       <use xlink:href="#DejaVuSans-6d" transform="translate(554.052734 0)"/>
       <use xlink:href="#DejaVuSans-62" transform="translate(651.464844 0)"/>
       <use xlink:href="#DejaVuSans-72" transform="translate(714.941406 0)"/>
       <use xlink:href="#DejaVuSans-61" transform="translate(756.054688 0)"/>
       <use xlink:href="#DejaVuSans-6e" transform="translate(817.333984 0)"/>
       <use xlink:href="#DejaVuSans-65" transform="translate(880.712891 0)"/>
      </g>
     </g>
    </g>
   </g>
   <g id="line2d_19"/>
   <g id="line2d_20"/>
   <g id="line2d_21"/>
   <g id="line2d_22"/>
   <g id="line2d_23"/>
   <g id="line2d_24"/>
   <g id="line2d_25"/>
   <g id="line2d_26"/>
   <g id="line2d_27"/>
   <g id="line2d_28"/>
   <g id="line2d_29"/>
   <g id="line2d_30"/>
   <g id="patch_3">
    <path d="M 175.670313 288.430125 
L 175.670313 22.318125 
" style="fill: none; stroke: #000000; stroke-width: 0.8; stroke-linejoin: miter; stroke-linecap: square"/>
   </g>
   <g id="patch_4">
    <path d="M 532.790313 288.430125 
L 532.790313 22.318125 
" style="fill: none; stroke: #000000; stroke-width: 0.8; stroke-linejoin: miter; stroke-linecap: square"/>
   </g>
   <g id="patch_5">
    <path d="M 175.670313 288.430125 
L 532.790313 288.430125 
" style="fill: none; stroke: #000000; stroke-width: 0.8; stroke-linejoin: miter; stroke-linecap: square"/>
   </g>
   <g id="patch_6">
    <path d="M 175.670313 22.318125 
L 532.790313 22.318125 
" style="fill: none; stroke: #000000; stroke-width: 0.8; stroke-linejoin: miter; stroke-linecap: square"/>
   </g>
   <g id="text_20">
    <!-- Top 20 Enriched Cellular Components -->
    <g transform="translate(241.724688 16.318125) scale(0.12 -0.12)">
     <defs>
      <path id="DejaVuSans-54" d="M -19 4666 
L 3928 4666 
L 3928 4134 
L 2272 4134 
L 2272 0 
L 1638 0 
L 1638 4134 
L -19 4134 
L -19 4666 
z
" transform="scale(0.015625)"/>
      <path id="DejaVuSans-30" d="M 2034 4250 
Q 1547 4250 1301 3770 
Q 1056 3291 1056 2328 
Q 1056 1369 1301 889 
Q 1547 409 2034 409 
Q 2525 409 2770 889 
Q 3016 1369 3016 2328 
Q 3016 3291 2770 3770 
Q 2525 4250 2034 4250 
z
M 2034 4750 
Q 2819 4750 3233 4129 
Q 3647 3509 3647 2328 
Q 3647 1150 3233 529 
Q 2819 -91 2034 -91 
Q 1250 -91 836 529 
Q 422 1150 422 2328 
Q 422 3509 836 4129 
Q 1250 4750 2034 4750 
z
" transform="scale(0.015625)"/>
      <path id="DejaVuSans-43" d="M 4122 4306 
L 4122 3641 
Q 3803 3938 3442 4084 
Q 3081 4231 2675 4231 
Q 1875 4231 1450 3742 
Q 1025 3253 1025 2328 
Q 1025 1406 1450 917 
Q 1875 428 2675 428 
Q 3081 428 3442 575 
Q 3803 722 4122 1019 
L 4122 359 
Q 3791 134 3420 21 
Q 3050 -91 2638 -91 
Q 1578 -91 968 557 
Q 359 1206 359 2328 
Q 359 3453 968 4101 
Q 1578 4750 2638 4750 
Q 3056 4750 3426 4639 
Q 3797 4528 4122 4306 
z
" transform="scale(0.015625)"/>
     </defs>
     <use xlink:href="#DejaVuSans-54"/>
     <use xlink:href="#DejaVuSans-6f" transform="translate(44.083984 0)"/>
     <use xlink:href="#DejaVuSans-70" transform="translate(105.265625 0)"/>
     <use xlink:href="#DejaVuSans-20" transform="translate(168.742188 0)"/>
     <use xlink:href="#DejaVuSans-32" transform="translate(200.529297 0)"/>
     <use xlink:href="#DejaVuSans-30" transform="translate(264.152344 0)"/>
     <use xlink:href="#DejaVuSans-20" transform="translate(327.775391 0)"/>
     <use xlink:href="#DejaVuSans-45" transform="translate(359.5625 0)"/>
     <use xlink:href="#DejaVuSans-6e" transform="translate(422.746094 0)"/>
     <use xlink:href="#DejaVuSans-72" transform="translate(486.125 0)"/>
     <use xlink:href="#DejaVuSans-69" transform="translate(527.238281 0)"/>
     <use xlink:href="#DejaVuSans-63" transform="translate(555.021484 0)"/>
     <use xlink:href="#DejaVuSans-68" transform="translate(610.001953 0)"/>
     <use xlink:href="#DejaVuSans-65" transform="translate(673.380859 0)"/>
     <use xlink:href="#DejaVuSans-64" transform="translate(734.904297 0)"/>
     <use xlink:href="#DejaVuSans-20" transform="translate(798.380859 0)"/>
     <use xlink:href="#DejaVuSans-43" transform="translate(830.167969 0)"/>
     <use xlink:href="#DejaVuSans-65" transform="translate(899.992188 0)"/>
     <use xlink:href="#DejaVuSans-6c" transform="translate(961.515625 0)"/>
     <use xlink:href="#DejaVuSans-6c" transform="translate(989.298828 0)"/>
     <use xlink:href="#DejaVuSans-75" transform="translate(1017.082031 0)"/>
     <use xlink:href="#DejaVuSans-6c" transform="translate(1080.460938 0)"/>
     <use xlink:href="#DejaVuSans-61" transform="translate(1108.244141 0)"/>
     <use xlink:href="#DejaVuSans-72" transform="translate(1169.523438 0)"/>
     <use xlink:href="#DejaVuSans-20" transform="translate(1210.636719 0)"/>
     <use xlink:href="#DejaVuSans-43" transform="translate(1242.423828 0)"/>
     <use xlink:href="#DejaVuSans-6f" transform="translate(1312.248047 0)"/>
     <use xlink:href="#DejaVuSans-6d" transform="translate(1373.429688 0)"/>
     <use xlink:href="#DejaVuSans-70" transform="translate(1470.841797 0)"/>
     <use xlink:href="#DejaVuSans-6f" transform="translate(1534.318359 0)"/>
     <use xlink:href="#DejaVuSans-6e" transform="translate(1595.5 0)"/>
     <use xlink:href="#DejaVuSans-65" transform="translate(1658.878906 0)"/>
     <use xlink:href="#DejaVuSans-6e" transform="translate(1720.402344 0)"/>
     <use xlink:href="#DejaVuSans-74" transform="translate(1783.78125 0)"/>
     <use xlink:href="#DejaVuSans-73" transform="translate(1822.990234 0)"/>
    </g>
   </g>
   <g id="legend_1">
    <g id="patch_7">
     <path d="M 539.790313 206.455625 
L 627.029375 206.455625 
Q 629.029375 206.455625 629.029375 204.455625 
L 629.029375 29.318125 
Q 629.029375 27.318125 627.029375 27.318125 
L 539.790313 27.318125 
Q 537.790313 27.318125 537.790313 29.318125 
L 537.790313 204.455625 
Q 537.790313 206.455625 539.790313 206.455625 
z
" style="fill: #ffffff; opacity: 0.8; stroke: #cccccc; stroke-linejoin: miter"/>
    </g>
    <g id="line2d_31"/>
    <g id="text_21">
     <!-- -log10 FDR -->
     <g transform="translate(569.790313 38.916562) scale(0.1 -0.1)">
      <defs>
       <path id="DejaVuSans-2d" d="M 313 2009 
L 1997 2009 
L 1997 1497 
L 313 1497 
L 313 2009 
z
" transform="scale(0.015625)"/>
       <path id="DejaVuSans-31" d="M 794 531 
L 1825 531 
L 1825 4091 
L 703 3866 
L 703 4441 
L 1819 4666 
L 2450 4666 
L 2450 531 
L 3481 531 
L 3481 0 
L 794 0 
L 794 531 
z
" transform="scale(0.015625)"/>
       <path id="DejaVuSans-44" d="M 1259 4147 
L 1259 519 
L 2022 519 
Q 2988 519 3436 956 
Q 3884 1394 3884 2338 
Q 3884 3275 3436 3711 
Q 2988 4147 2022 4147 
L 1259 4147 
z
M 628 4666 
L 1925 4666 
Q 3281 4666 3915 4102 
Q 4550 3538 4550 2338 
Q 4550 1131 3912 565 
Q 3275 0 1925 0 
L 628 0 
L 628 4666 
z
" transform="scale(0.015625)"/>
       <path id="DejaVuSans-52" d="M 2841 2188 
Q 3044 2119 3236 1894 
Q 3428 1669 3622 1275 
L 4263 0 
L 3584 0 
L 2988 1197 
Q 2756 1666 2539 1819 
Q 2322 1972 1947 1972 
L 1259 1972 
L 1259 0 
L 628 0 
L 628 4666 
L 2053 4666 
Q 2853 4666 3247 4331 
Q 3641 3997 3641 3322 
Q 3641 2881 3436 2590 
Q 3231 2300 2841 2188 
z
M 1259 4147 
L 1259 2491 
L 2053 2491 
Q 2509 2491 2742 2702 
Q 2975 2913 2975 3322 
Q 2975 3731 2742 3939 
Q 2509 4147 2053 4147 
L 1259 4147 
z
" transform="scale(0.015625)"/>
      </defs>
      <use xlink:href="#DejaVuSans-2d"/>
      <use xlink:href="#DejaVuSans-6c" transform="translate(36.083984 0)"/>
      <use xlink:href="#DejaVuSans-6f" transform="translate(63.867188 0)"/>
      <use xlink:href="#DejaVuSans-67" transform="translate(125.048828 0)"/>
      <use xlink:href="#DejaVuSans-31" transform="translate(188.525391 0)"/>
      <use xlink:href="#DejaVuSans-30" transform="translate(252.148438 0)"/>
      <use xlink:href="#DejaVuSans-20" transform="translate(315.771484 0)"/>
      <use xlink:href="#DejaVuSans-46" transform="translate(347.558594 0)"/>
      <use xlink:href="#DejaVuSans-44" transform="translate(405.078125 0)"/>
      <use xlink:href="#DejaVuSans-52" transform="translate(482.080078 0)"/>
     </g>
    </g>
    <g id="line2d_32">
     <defs>
      <path id="m999c28cef0" d="M 0 3 
C 0.795609 3 1.55874 2.683901 2.12132 2.12132 
C 2.683901 1.55874 3 0.795609 3 0 
C 3 -0.795609 2.683901 -1.55874 2.12132 -2.12132 
C 1.55874 -2.683901 0.795609 -3 0 -3 
C -0.795609 -3 -1.55874 -2.683901 -2.12132 -2.12132 
C -2.683901 -1.55874 -3 -0.795609 -3 0 
C -3 0.795609 -2.683901 1.55874 -2.12132 2.12132 
C -1.55874 2.683901 -0.795609 3 0 3 
z
" style="stroke: #ffffff; stroke-width: 0.367743"/>
     </defs>
     <g>
      <use xlink:href="#m999c28cef0" x="551.790313" y="50.094688" style="fill: #4e68d8; stroke: #ffffff; stroke-width: 0.367743"/>
     </g>
    </g>
    <g id="text_22">
     <!-- 5.0 -->
     <g transform="translate(569.790313 53.594688) scale(0.1 -0.1)">
      <defs>
       <path id="DejaVuSans-2e" d="M 684 794 
L 1344 794 
L 1344 0 
L 684 0 
L 684 794 
z
" transform="scale(0.015625)"/>
      </defs>
      <use xlink:href="#DejaVuSans-35"/>
      <use xlink:href="#DejaVuSans-2e" transform="translate(63.623047 0)"/>
      <use xlink:href="#DejaVuSans-30" transform="translate(95.410156 0)"/>
     </g>
    </g>
    <g id="line2d_33">
     <defs>
      <path id="m0c0e63b5a8" d="M 0 3 
C 0.795609 3 1.55874 2.683901 2.12132 2.12132 
C 2.683901 1.55874 3 0.795609 3 0 
C 3 -0.795609 2.683901 -1.55874 2.12132 -2.12132 
C 1.55874 -2.683901 0.795609 -3 0 -3 
C -0.795609 -3 -1.55874 -2.683901 -2.12132 -2.12132 
C -2.683901 -1.55874 -3 -0.795609 -3 0 
C -3 0.795609 -2.683901 1.55874 -2.12132 2.12132 
C -1.55874 2.683901 -0.795609 3 0 3 
z
" style="stroke: #ffffff; stroke-width: 0.367743"/>
     </defs>
     <g>
      <use xlink:href="#m0c0e63b5a8" x="551.790313" y="64.772812" style="fill: #92b4fe; stroke: #ffffff; stroke-width: 0.367743"/>
     </g>
    </g>
    <g id="text_23">
     <!-- 7.5 -->
     <g transform="translate(569.790313 68.272812) scale(0.1 -0.1)">
      <use xlink:href="#DejaVuSans-37"/>
      <use xlink:href="#DejaVuSans-2e" transform="translate(63.623047 0)"/>
      <use xlink:href="#DejaVuSans-35" transform="translate(95.410156 0)"/>
     </g>
    </g>
    <g id="line2d_34">
     <defs>
      <path id="mdb4ab90ecb" d="M 0 3 
C 0.795609 3 1.55874 2.683901 2.12132 2.12132 
C 2.683901 1.55874 3 0.795609 3 0 
C 3 -0.795609 2.683901 -1.55874 2.12132 -2.12132 
C 1.55874 -2.683901 0.795609 -3 0 -3 
C -0.795609 -3 -1.55874 -2.683901 -2.12132 -2.12132 
C -2.683901 -1.55874 -3 -0.795609 -3 0 
C -3 0.795609 -2.683901 1.55874 -2.12132 2.12132 
C -1.55874 2.683901 -0.795609 3 0 3 
z
" style="stroke: #ffffff; stroke-width: 0.367743"/>
     </defs>
     <g>
      <use xlink:href="#mdb4ab90ecb" x="551.790313" y="79.450938" style="fill: #d4dbe6; stroke: #ffffff; stroke-width: 0.367743"/>
     </g>
    </g>
    <g id="text_24">
     <!-- 10.0 -->
     <g transform="translate(569.790313 82.950938) scale(0.1 -0.1)">
      <use xlink:href="#DejaVuSans-31"/>
      <use xlink:href="#DejaVuSans-30" transform="translate(63.623047 0)"/>
      <use xlink:href="#DejaVuSans-2e" transform="translate(127.246094 0)"/>
      <use xlink:href="#DejaVuSans-30" transform="translate(159.033203 0)"/>
     </g>
    </g>
    <g id="line2d_35">
     <defs>
      <path id="m7287350a2e" d="M 0 3 
C 0.795609 3 1.55874 2.683901 2.12132 2.12132 
C 2.683901 1.55874 3 0.795609 3 0 
C 3 -0.795609 2.683901 -1.55874 2.12132 -2.12132 
C 1.55874 -2.683901 0.795609 -3 0 -3 
C -0.795609 -3 -1.55874 -2.683901 -2.12132 -2.12132 
C -2.683901 -1.55874 -3 -0.795609 -3 0 
C -3 0.795609 -2.683901 1.55874 -2.12132 2.12132 
C -1.55874 2.683901 -0.795609 3 0 3 
z
" style="stroke: #ffffff; stroke-width: 0.367743"/>
     </defs>
     <g>
      <use xlink:href="#m7287350a2e" x="551.790313" y="94.129063" style="fill: #f7b79b; stroke: #ffffff; stroke-width: 0.367743"/>
     </g>
    </g>
    <g id="text_25">
     <!-- 12.5 -->
     <g transform="translate(569.790313 97.629063) scale(0.1 -0.1)">
      <use xlink:href="#DejaVuSans-31"/>
      <use xlink:href="#DejaVuSans-32" transform="translate(63.623047 0)"/>
      <use xlink:href="#DejaVuSans-2e" transform="translate(127.246094 0)"/>
      <use xlink:href="#DejaVuSans-35" transform="translate(159.033203 0)"/>
     </g>
    </g>
    <g id="line2d_36">
     <defs>
      <path id="m08717c1ffc" d="M 0 3 
C 0.795609 3 1.55874 2.683901 2.12132 2.12132 
C 2.683901 1.55874 3 0.795609 3 0 
C 3 -0.795609 2.683901 -1.55874 2.12132 -2.12132 
C 1.55874 -2.683901 0.795609 -3 0 -3 
C -0.795609 -3 -1.55874 -2.683901 -2.12132 -2.12132 
C -2.683901 -1.55874 -3 -0.795609 -3 0 
C -3 0.795609 -2.683901 1.55874 -2.12132 2.12132 
C -1.55874 2.683901 -0.795609 3 0 3 
z
" style="stroke: #ffffff; stroke-width: 0.367743"/>
     </defs>
     <g>
      <use xlink:href="#m08717c1ffc" x="551.790313" y="108.807187" style="fill: #de614d; stroke: #ffffff; stroke-width: 0.367743"/>
     </g>
    </g>
    <g id="text_26">
     <!-- 15.0 -->
     <g transform="translate(569.790313 112.307187) scale(0.1 -0.1)">
      <use xlink:href="#DejaVuSans-31"/>
      <use xlink:href="#DejaVuSans-35" transform="translate(63.623047 0)"/>
      <use xlink:href="#DejaVuSans-2e" transform="translate(127.246094 0)"/>
      <use xlink:href="#DejaVuSans-30" transform="translate(159.033203 0)"/>
     </g>
    </g>
    <g id="line2d_37"/>
    <g id="text_27">
     <!-- Gene Ratio -->
     <g transform="translate(569.790313 126.985313) scale(0.1 -0.1)">
      <defs>
       <path id="DejaVuSans-47" d="M 3809 666 
L 3809 1919 
L 2778 1919 
L 2778 2438 
L 4434 2438 
L 4434 434 
Q 4069 175 3628 42 
Q 3188 -91 2688 -91 
Q 1594 -91 976 548 
Q 359 1188 359 2328 
Q 359 3472 976 4111 
Q 1594 4750 2688 4750 
Q 3144 4750 3555 4637 
Q 3966 4525 4313 4306 
L 4313 3634 
Q 3963 3931 3569 4081 
Q 3175 4231 2741 4231 
Q 1884 4231 1454 3753 
Q 1025 3275 1025 2328 
Q 1025 1384 1454 906 
Q 1884 428 2741 428 
Q 3075 428 3337 486 
Q 3600 544 3809 666 
z
" transform="scale(0.015625)"/>
      </defs>
      <use xlink:href="#DejaVuSans-47"/>
      <use xlink:href="#DejaVuSans-65" transform="translate(77.490234 0)"/>
      <use xlink:href="#DejaVuSans-6e" transform="translate(139.013672 0)"/>
      <use xlink:href="#DejaVuSans-65" transform="translate(202.392578 0)"/>
      <use xlink:href="#DejaVuSans-20" transform="translate(263.916016 0)"/>
      <use xlink:href="#DejaVuSans-52" transform="translate(295.703125 0)"/>
      <use xlink:href="#DejaVuSans-61" transform="translate(362.935547 0)"/>
      <use xlink:href="#DejaVuSans-74" transform="translate(424.214844 0)"/>
      <use xlink:href="#DejaVuSans-69" transform="translate(463.423828 0)"/>
      <use xlink:href="#DejaVuSans-6f" transform="translate(491.207031 0)"/>
     </g>
    </g>
    <g id="line2d_38">
     <defs>
      <path id="m47a756e91d" d="M 0 2.843605 
C 0.754133 2.843605 1.47748 2.543984 2.010732 2.010732 
C 2.543984 1.47748 2.843605 0.754133 2.843605 0 
C 2.843605 -0.754133 2.543984 -1.47748 2.010732 -2.010732 
C 1.47748 -2.543984 0.754133 -2.843605 0 -2.843605 
C -0.754133 -2.843605 -1.47748 -2.543984 -2.010732 -2.010732 
C -2.543984 -1.47748 -2.843605 -0.754133 -2.843605 0 
C -2.843605 0.754133 -2.543984 1.47748 -2.010732 2.010732 
C -1.47748 2.543984 -0.754133 2.843605 0 2.843605 
z
" style="stroke: #ffffff; stroke-width: 0.367743"/>
     </defs>
     <g>
      <use xlink:href="#m47a756e91d" x="551.790313" y="138.163437" style="fill: #333333; stroke: #ffffff; stroke-width: 0.367743"/>
     </g>
    </g>
    <g id="text_28">
     <!-- 0.08 -->
     <g transform="translate(569.790313 141.663437) scale(0.1 -0.1)">
      <use xlink:href="#DejaVuSans-30"/>
      <use xlink:href="#DejaVuSans-2e" transform="translate(63.623047 0)"/>
      <use xlink:href="#DejaVuSans-30" transform="translate(95.410156 0)"/>
      <use xlink:href="#DejaVuSans-38" transform="translate(159.033203 0)"/>
     </g>
    </g>
    <g id="line2d_39">
     <defs>
      <path id="m161812c96f" d="M 0 3.853062 
C 1.021844 3.853062 2.001973 3.447079 2.724526 2.724526 
C 3.447079 2.001973 3.853062 1.021844 3.853062 0 
C 3.853062 -1.021844 3.447079 -2.001973 2.724526 -2.724526 
C 2.001973 -3.447079 1.021844 -3.853062 0 -3.853062 
C -1.021844 -3.853062 -2.001973 -3.447079 -2.724526 -2.724526 
C -3.447079 -2.001973 -3.853062 -1.021844 -3.853062 0 
C -3.853062 1.021844 -3.447079 2.001973 -2.724526 2.724526 
C -2.001973 3.447079 -1.021844 3.853062 0 3.853062 
z
" style="stroke: #ffffff; stroke-width: 0.367743"/>
     </defs>
     <g>
      <use xlink:href="#m161812c96f" x="551.790313" y="152.841563" style="fill: #333333; stroke: #ffffff; stroke-width: 0.367743"/>
     </g>
    </g>
    <g id="text_29">
     <!-- 0.16 -->
     <g transform="translate(569.790313 156.341563) scale(0.1 -0.1)">
      <use xlink:href="#DejaVuSans-30"/>
      <use xlink:href="#DejaVuSans-2e" transform="translate(63.623047 0)"/>
      <use xlink:href="#DejaVuSans-31" transform="translate(95.410156 0)"/>
      <use xlink:href="#DejaVuSans-36" transform="translate(159.033203 0)"/>
     </g>
    </g>
    <g id="line2d_40">
     <defs>
      <path id="mbe8bfe48c7" d="M 0 4.648235 
C 1.232726 4.648235 2.415129 4.158467 3.286798 3.286798 
C 4.158467 2.415129 4.648235 1.232726 4.648235 0 
C 4.648235 -1.232726 4.158467 -2.415129 3.286798 -3.286798 
C 2.415129 -4.158467 1.232726 -4.648235 0 -4.648235 
C -1.232726 -4.648235 -2.415129 -4.158467 -3.286798 -3.286798 
C -4.158467 -2.415129 -4.648235 -1.232726 -4.648235 0 
C -4.648235 1.232726 -4.158467 2.415129 -3.286798 3.286798 
C -2.415129 4.158467 -1.232726 4.648235 0 4.648235 
z
" style="stroke: #ffffff; stroke-width: 0.367743"/>
     </defs>
     <g>
      <use xlink:href="#mbe8bfe48c7" x="551.790313" y="167.519687" style="fill: #333333; stroke: #ffffff; stroke-width: 0.367743"/>
     </g>
    </g>
    <g id="text_30">
     <!-- 0.24 -->
     <g transform="translate(569.790313 171.019687) scale(0.1 -0.1)">
      <use xlink:href="#DejaVuSans-30"/>
      <use xlink:href="#DejaVuSans-2e" transform="translate(63.623047 0)"/>
      <use xlink:href="#DejaVuSans-32" transform="translate(95.410156 0)"/>
      <use xlink:href="#DejaVuSans-34" transform="translate(159.033203 0)"/>
     </g>
    </g>
    <g id="line2d_41">
     <defs>
      <path id="m89988fff1b" d="M 0 5.325982 
C 1.412467 5.325982 2.767273 4.764803 3.766038 3.766038 
C 4.764803 2.767273 5.325982 1.412467 5.325982 0 
C 5.325982 -1.412467 4.764803 -2.767273 3.766038 -3.766038 
C 2.767273 -4.764803 1.412467 -5.325982 0 -5.325982 
C -1.412467 -5.325982 -2.767273 -4.764803 -3.766038 -3.766038 
C -4.764803 -2.767273 -5.325982 -1.412467 -5.325982 0 
C -5.325982 1.412467 -4.764803 2.767273 -3.766038 3.766038 
C -2.767273 4.764803 -1.412467 5.325982 0 5.325982 
z
" style="stroke: #ffffff; stroke-width: 0.367743"/>
     </defs>
     <g>
      <use xlink:href="#m89988fff1b" x="551.790313" y="182.197812" style="fill: #333333; stroke: #ffffff; stroke-width: 0.367743"/>
     </g>
    </g>
    <g id="text_31">
     <!-- 0.32 -->
     <g transform="translate(569.790313 185.697812) scale(0.1 -0.1)">
      <use xlink:href="#DejaVuSans-30"/>
      <use xlink:href="#DejaVuSans-2e" transform="translate(63.623047 0)"/>
      <use xlink:href="#DejaVuSans-33" transform="translate(95.410156 0)"/>
      <use xlink:href="#DejaVuSans-32" transform="translate(159.033203 0)"/>
     </g>
    </g>
    <g id="line2d_42">
     <defs>
      <path id="m1326be4046" d="M 0 5.926726 
C 1.571786 5.926726 3.079408 5.302249 4.190828 4.190828 
C 5.302249 3.079408 5.926726 1.571786 5.926726 0 
C 5.926726 -1.571786 5.302249 -3.079408 4.190828 -4.190828 
C 3.079408 -5.302249 1.571786 -5.926726 0 -5.926726 
C -1.571786 -5.926726 -3.079408 -5.302249 -4.190828 -4.190828 
C -5.302249 -3.079408 -5.926726 -1.571786 -5.926726 0 
C -5.926726 1.571786 -5.302249 3.079408 -4.190828 4.190828 
C -3.079408 5.302249 -1.571786 5.926726 0 5.926726 
z
" style="stroke: #ffffff; stroke-width: 0.367743"/>
     </defs>
     <g>
      <use xlink:href="#m1326be4046" x="551.790313" y="196.875937" style="fill: #333333; stroke: #ffffff; stroke-width: 0.367743"/>
     </g>
    </g>
    <g id="text_32">
     <!-- 0.40 -->
     <g transform="translate(569.790313 200.375937) scale(0.1 -0.1)">
      <use xlink:href="#DejaVuSans-30"/>
      <use xlink:href="#DejaVuSans-2e" transform="translate(63.623047 0)"/>
      <use xlink:href="#DejaVuSans-34" transform="translate(95.410156 0)"/>
      <use xlink:href="#DejaVuSans-30" transform="translate(159.033203 0)"/>
     </g>
    </g>
   </g>
  </g>
 </g>
 <defs>
  <clipPath id="pbb25ee1eb6">
   <rect x="175.670313" y="22.318125" width="357.12" height="266.112"/>
  </clipPath>
 </defs>
</svg>
