<?xml version="1.0" encoding="utf-8" standalone="no"?>
<!DOCTYPE svg PUBLIC "-//W3C//DTD SVG 1.1//EN"
  "http://www.w3.org/Graphics/SVG/1.1/DTD/svg11.dtd">
<svg xmlns:xlink="http://www.w3.org/1999/xlink" width="643.515313pt" height="325.986375pt" viewBox="0 0 643.515313 325.986375" xmlns="http://www.w3.org/2000/svg" version="1.1">
 <metadata>
  <rdf:RDF xmlns:dc="http://purl.org/dc/elements/1.1/" xmlns:cc="http://creativecommons.org/ns#" xmlns:rdf="http://www.w3.org/1999/02/22-rdf-syntax-ns#">
   <cc:Work>
    <dc:type rdf:resource="http://purl.org/dc/dcmitype/StillImage"/>
    <dc:date>2025-12-09T16:14:06.553215</dc:date>
    <dc:format>image/svg+xml</dc:format>
    <dc:creator>
     <cc:Agent>
      <dc:title>Matplotlib v3.10.7, https://matplotlib.org/</dc:title>
     </cc:Agent>
    </dc:creator>
   </cc:Work>
  </rdf:RDF>
 </metadata>
 <defs>
  <style type="text/css">*{stroke-linejoin: round; stroke-linecap: butt}</style>
 </defs>
 <g id="figure_1">
  <g id="patch_1">
   <path d="M 0 325.986375 
L 643.515313 325.986375 
L 643.515313 0 
L 0 0 
z
" style="fill: #ffffff"/>
  </g>
  <g id="axes_1">
   <g id="patch_2">
    <path d="M 182.95625 288.430125 
L 540.07625 288.430125 
L 540.07625 22.318125 
L 182.95625 22.318125 
z
" style="fill: #ffffff"/>
   </g>
   <g id="PathCollection_1">
    <path d="M 523.843523 36.650193 
C 524.436535 36.650193 525.005339 36.414587 525.424662 35.995264 
C 525.843984 35.575941 526.079591 35.007137 526.079591 34.414125 
C 526.079591 33.821113 525.843984 33.252309 525.424662 32.832986 
C 525.005339 32.413663 524.436535 32.178057 523.843523 32.178057 
C 523.250511 32.178057 522.681707 32.413663 522.262384 32.832986 
C 521.843061 33.252309 521.607455 33.821113 521.607455 34.414125 
C 521.607455 35.007137 521.843061 35.575941 522.262384 35.995264 
C 522.681707 36.414587 523.250511 36.650193 523.843523 36.650193 
z
" clip-path="url(#p6c2db3dec6)" style="fill: #3b4cc0; stroke: #ffffff; stroke-width: 0.519547"/>
    <path d="M 474.735206 50.117199 
C 475.522976 50.117199 476.278588 49.804215 476.835626 49.247177 
C 477.392664 48.690139 477.705648 47.934527 477.705648 47.146757 
C 477.705648 46.358986 477.392664 45.603374 476.835626 45.046336 
C 476.278588 44.489299 475.522976 44.176314 474.735206 44.176314 
C 473.947435 44.176314 473.191823 44.489299 472.634785 45.046336 
C 472.077747 45.603374 471.764763 46.358986 471.764763 47.146757 
C 471.764763 47.934527 472.077747 48.690139 472.634785 49.247177 
C 473.191823 49.804215 473.947435 50.117199 474.735206 50.117199 
z
" clip-path="url(#p6c2db3dec6)" style="fill: #7b9ff9; stroke: #ffffff; stroke-width: 0.519547"/>
    <path d="M 453.601273 63.155864 
C 454.470204 63.155864 455.303664 62.810634 455.918091 62.196206 
C 456.532518 61.581779 456.877749 60.74832 456.877749 59.879388 
C 456.877749 59.010457 456.532518 58.176997 455.918091 57.56257 
C 455.303664 56.948142 454.470204 56.602912 453.601273 56.602912 
C 452.732341 56.602912 451.898882 56.948142 451.284454 57.56257 
C 450.670027 58.176997 450.324797 59.010457 450.324797 59.879388 
C 450.324797 60.74832 450.670027 61.581779 451.284454 62.196206 
C 451.898882 62.810634 452.732341 63.155864 453.601273 63.155864 
z
" clip-path="url(#p6c2db3dec6)" style="fill: #93b5fe; stroke: #ffffff; stroke-width: 0.519547"/>
    <path d="M 442.284575 76.16829 
C 443.227709 76.16829 444.132342 75.793579 444.799238 75.126683 
C 445.466134 74.459786 445.840845 73.555154 445.840845 72.61202 
C 445.840845 71.668886 445.466134 70.764253 444.799238 70.097357 
C 444.132342 69.43046 443.227709 69.055749 442.284575 69.055749 
C 441.341441 69.055749 440.436809 69.43046 439.769912 70.097357 
C 439.103016 70.764253 438.728305 71.668886 438.728305 72.61202 
C 438.728305 73.555154 439.103016 74.459786 439.769912 75.126683 
C 440.436809 75.793579 441.341441 76.16829 442.284575 76.16829 
z
" clip-path="url(#p6c2db3dec6)" style="fill: #aac7fd; stroke: #ffffff; stroke-width: 0.519547"/>
    <path d="M 428.262397 90.255623 
C 429.564802 90.255623 430.81404 89.738172 431.734979 88.817233 
C 432.655918 87.896294 433.173369 86.647056 433.173369 85.344651 
C 433.173369 84.042246 432.655918 82.793009 431.734979 81.87207 
C 430.81404 80.95113 429.564802 80.433679 428.262397 80.433679 
C 426.959992 80.433679 425.710755 80.95113 424.789816 81.87207 
C 423.868876 82.793009 423.351425 84.042246 423.351425 85.344651 
C 423.351425 86.647056 423.868876 87.896294 424.789816 88.817233 
C 425.710755 89.738172 426.959992 90.255623 428.262397 90.255623 
z
" clip-path="url(#p6c2db3dec6)" style="fill: #b40426; stroke: #ffffff; stroke-width: 0.519547"/>
    <path d="M 387.85126 101.633553 
C 388.794394 101.633553 389.699026 101.258842 390.365923 100.591946 
C 391.032819 99.925049 391.40753 99.020417 391.40753 98.077283 
C 391.40753 97.134149 391.032819 96.229516 390.365923 95.56262 
C 389.699026 94.895724 388.794394 94.521013 387.85126 94.521013 
C 386.908126 94.521013 386.003493 94.895724 385.336597 95.56262 
C 384.6697 96.229516 384.294989 97.134149 384.294989 98.077283 
C 384.294989 99.020417 384.6697 99.925049 385.336597 100.591946 
C 386.003493 101.258842 386.908126 101.633553 387.85126 101.633553 
z
" clip-path="url(#p6c2db3dec6)" style="fill: #8db0fe; stroke: #ffffff; stroke-width: 0.519547"/>
    <path d="M 344.171899 116.095856 
C 345.573747 116.095856 346.918368 115.538896 347.909624 114.547639 
C 348.90088 113.556383 349.45784 112.211763 349.45784 110.809914 
C 349.45784 109.408066 348.90088 108.063446 347.909624 107.072189 
C 346.918368 106.080933 345.573747 105.523973 344.171899 105.523973 
C 342.770051 105.523973 341.42543 106.080933 340.434174 107.072189 
C 339.442918 108.063446 338.885958 109.408066 338.885958 110.809914 
C 338.885958 112.211763 339.442918 113.556383 340.434174 114.547639 
C 341.42543 115.538896 342.770051 116.095856 344.171899 116.095856 
z
" clip-path="url(#p6c2db3dec6)" style="fill: #d85646; stroke: #ffffff; stroke-width: 0.519547"/>
    <path d="M 329.465248 127.358149 
C 330.477158 127.358149 331.447758 126.956113 332.163287 126.240585 
C 332.878815 125.525056 333.280851 124.554456 333.280851 123.542546 
C 333.280851 122.530636 332.878815 121.560036 332.163287 120.844508 
C 331.447758 120.128979 330.477158 119.726943 329.465248 119.726943 
C 328.453338 119.726943 327.482738 120.128979 326.76721 120.844508 
C 326.051681 121.560036 325.649645 122.530636 325.649645 123.542546 
C 325.649645 124.554456 326.051681 125.525056 326.76721 126.240585 
C 327.482738 126.956113 328.453338 127.358149 329.465248 127.358149 
z
" clip-path="url(#p6c2db3dec6)" style="fill: #7396f5; stroke: #ffffff; stroke-width: 0.519547"/>
    <path d="M 320.210067 140.562642 
C 321.347116 140.562642 322.437747 140.110888 323.241762 139.306873 
C 324.045777 138.502858 324.497532 137.412227 324.497532 136.275178 
C 324.497532 135.138129 324.045777 134.047497 323.241762 133.243482 
C 322.437747 132.439467 321.347116 131.987713 320.210067 131.987713 
C 319.073018 131.987713 317.982387 132.439467 317.178372 133.243482 
C 316.374357 134.047497 315.922602 135.138129 315.922602 136.275178 
C 315.922602 137.412227 316.374357 138.502858 317.178372 139.306873 
C 317.982387 140.110888 319.073018 140.562642 320.210067 140.562642 
z
" clip-path="url(#p6c2db3dec6)" style="fill: #a2c1ff; stroke: #ffffff; stroke-width: 0.519547"/>
    <path d="M 300.342249 152.823412 
C 301.354159 152.823412 302.32476 152.421376 303.040288 151.705848 
C 303.755816 150.99032 304.157852 150.019719 304.157852 149.007809 
C 304.157852 147.9959 303.755816 147.025299 303.040288 146.309771 
C 302.32476 145.594243 301.354159 145.192207 300.342249 145.192207 
C 299.33034 145.192207 298.359739 145.594243 297.644211 146.309771 
C 296.928683 147.025299 296.526647 147.9959 296.526647 149.007809 
C 296.526647 150.019719 296.928683 150.99032 297.644211 151.705848 
C 298.359739 152.421376 299.33034 152.823412 300.342249 152.823412 
z
" clip-path="url(#p6c2db3dec6)" style="fill: #506bda; stroke: #ffffff; stroke-width: 0.519547"/>
    <path d="M 290.041788 166.027905 
C 291.178837 166.027905 292.269468 165.576151 293.073483 164.772136 
C 293.877498 163.968121 294.329252 162.87749 294.329252 161.740441 
C 294.329252 160.603392 293.877498 159.51276 293.073483 158.708745 
C 292.269468 157.90473 291.178837 157.452976 290.041788 157.452976 
C 288.904739 157.452976 287.814107 157.90473 287.010092 158.708745 
C 286.206077 159.51276 285.754323 160.603392 285.754323 161.740441 
C 285.754323 162.87749 286.206077 163.968121 287.010092 164.772136 
C 287.814107 165.576151 288.904739 166.027905 290.041788 166.027905 
z
" clip-path="url(#p6c2db3dec6)" style="fill: #80a3fa; stroke: #ffffff; stroke-width: 0.519547"/>
    <path d="M 280.772667 178.977972 
C 281.96738 178.977972 283.113322 178.503307 283.958112 177.658517 
C 284.802902 176.813727 285.277566 175.667786 285.277566 174.473072 
C 285.277566 173.278359 284.802902 172.132417 283.958112 171.287628 
C 283.113322 170.442838 281.96738 169.968173 280.772667 169.968173 
C 279.577954 169.968173 278.432012 170.442838 277.587222 171.287628 
C 276.742432 172.132417 276.267768 173.278359 276.267768 174.473072 
C 276.267768 175.667786 276.742432 176.813727 277.587222 177.658517 
C 278.432012 178.503307 279.577954 178.977972 280.772667 178.977972 
z
" clip-path="url(#p6c2db3dec6)" style="fill: #8db0fe; stroke: #ffffff; stroke-width: 0.519547"/>
    <path d="M 249.884793 191.493169 
C 251.021842 191.493169 252.112473 191.041414 252.916488 190.237399 
C 253.720503 189.433384 254.172258 188.342753 254.172258 187.205704 
C 254.172258 186.068655 253.720503 184.978024 252.916488 184.174009 
C 252.112473 183.369994 251.021842 182.918239 249.884793 182.918239 
C 248.747744 182.918239 247.657113 183.369994 246.853098 184.174009 
C 246.049083 184.978024 245.597328 186.068655 245.597328 187.205704 
C 245.597328 188.342753 246.049083 189.433384 246.853098 190.237399 
C 247.657113 191.041414 248.747744 191.493169 249.884793 191.493169 
z
" clip-path="url(#p6c2db3dec6)" style="fill: #3f53c6; stroke: #ffffff; stroke-width: 0.519547"/>
    <path d="M 246.262607 205.224277 
C 247.664455 205.224277 249.009076 204.667317 250.000332 203.676061 
C 250.991588 202.684804 251.548549 201.340184 251.548549 199.938336 
C 251.548549 198.536487 250.991588 197.191867 250.000332 196.200611 
C 249.009076 195.209354 247.664455 194.652394 246.262607 194.652394 
C 244.860759 194.652394 243.516138 195.209354 242.524882 196.200611 
C 241.533626 197.191867 240.976666 198.536487 240.976666 199.938336 
C 240.976666 201.340184 241.533626 202.684804 242.524882 203.676061 
C 243.516138 204.667317 244.860759 205.224277 246.262607 205.224277 
z
" clip-path="url(#p6c2db3dec6)" style="fill: #aac7fd; stroke: #ffffff; stroke-width: 0.519547"/>
    <path d="M 238.292517 218.47411 
C 239.831529 218.47411 241.307713 217.862654 242.395959 216.774409 
C 243.484204 215.686163 244.09566 214.209979 244.09566 212.670967 
C 244.09566 211.131956 243.484204 209.655771 242.395959 208.567525 
C 241.307713 207.47928 239.831529 206.867824 238.292517 206.867824 
C 236.753505 206.867824 235.277321 207.47928 234.189075 208.567525 
C 233.10083 209.655771 232.489374 211.131956 232.489374 212.670967 
C 232.489374 214.209979 233.10083 215.686163 234.189075 216.774409 
C 235.277321 217.862654 236.753505 218.47411 238.292517 218.47411 
z
" clip-path="url(#p6c2db3dec6)" style="fill: #dadce0; stroke: #ffffff; stroke-width: 0.519547"/>
    <path d="M 236.435254 230.11591 
C 237.684974 230.11591 238.883677 229.619392 239.767362 228.735706 
C 240.651047 227.852021 241.147566 226.653318 241.147566 225.403599 
C 241.147566 224.153879 240.651047 222.955176 239.767362 222.071491 
C 238.883677 221.187806 237.684974 220.691287 236.435254 220.691287 
C 235.185535 220.691287 233.986832 221.187806 233.103147 222.071491 
C 232.219462 222.955176 231.722943 224.153879 231.722943 225.403599 
C 231.722943 226.653318 232.219462 227.852021 233.103147 228.735706 
C 233.986832 229.619392 235.185535 230.11591 236.435254 230.11591 
z
" clip-path="url(#p6c2db3dec6)" style="fill: #5875e1; stroke: #ffffff; stroke-width: 0.519547"/>
    <path d="M 219.048165 243.047202 
C 220.35057 243.047202 221.599807 242.529751 222.520747 241.608812 
C 223.441686 240.687873 223.959137 239.438635 223.959137 238.13623 
C 223.959137 236.833825 223.441686 235.584588 222.520747 234.663649 
C 221.599807 233.742709 220.35057 233.225258 219.048165 233.225258 
C 217.74576 233.225258 216.496523 233.742709 215.575583 234.663649 
C 214.654644 235.584588 214.137193 236.833825 214.137193 238.13623 
C 214.137193 239.438635 214.654644 240.687873 215.575583 241.608812 
C 216.496523 242.529751 217.74576 243.047202 219.048165 243.047202 
z
" clip-path="url(#p6c2db3dec6)" style="fill: #4961d2; stroke: #ffffff; stroke-width: 0.519547"/>
    <path d="M 213.101628 256.50488 
C 214.596318 256.50488 216.02999 255.911034 217.086895 254.854129 
C 218.143801 253.797224 218.737647 252.363551 218.737647 250.868862 
C 218.737647 249.374172 218.143801 247.9405 217.086895 246.883595 
C 216.02999 245.82669 214.596318 245.232843 213.101628 245.232843 
C 211.606939 245.232843 210.173267 245.82669 209.116362 246.883595 
C 208.059456 247.9405 207.46561 249.374172 207.46561 250.868862 
C 207.46561 252.363551 208.059456 253.797224 209.116362 254.854129 
C 210.173267 255.911034 211.606939 256.50488 213.101628 256.50488 
z
" clip-path="url(#p6c2db3dec6)" style="fill: #8db0fe; stroke: #ffffff; stroke-width: 0.519547"/>
    <path d="M 204.634996 269.725218 
C 206.259026 269.725218 207.81676 269.079984 208.965123 267.93162 
C 210.113486 266.783257 210.75872 265.225524 210.75872 263.601493 
C 210.75872 261.977463 210.113486 260.41973 208.965123 259.271366 
C 207.81676 258.123003 206.259026 257.477769 204.634996 257.477769 
C 203.010965 257.477769 201.453232 258.123003 200.304869 259.271366 
C 199.156505 260.41973 198.511271 261.977463 198.511271 263.601493 
C 198.511271 265.225524 199.156505 266.783257 200.304869 267.93162 
C 201.453232 269.079984 203.010965 269.725218 204.634996 269.725218 
z
" clip-path="url(#p6c2db3dec6)" style="fill: #aac7fd; stroke: #ffffff; stroke-width: 0.519547"/>
    <path d="M 199.188977 282.299713 
C 200.77107 282.299713 202.288577 281.671141 203.407285 280.552432 
C 204.525993 279.433724 205.154565 277.916217 205.154565 276.334125 
C 205.154565 274.752033 204.525993 273.234526 203.407285 272.115818 
C 202.288577 270.997109 200.77107 270.368537 199.188977 270.368537 
C 197.606885 270.368537 196.089378 270.997109 194.97067 272.115818 
C 193.851962 273.234526 193.22339 274.752033 193.22339 276.334125 
C 193.22339 277.916217 193.851962 279.433724 194.97067 280.552432 
C 196.089378 281.671141 197.606885 282.299713 199.188977 282.299713 
z
" clip-path="url(#p6c2db3dec6)" style="fill: #8db0fe; stroke: #ffffff; stroke-width: 0.519547"/>
   </g>
   <g id="matplotlib.axis_1">
    <g id="xtick_1">
     <g id="line2d_1">
      <defs>
       <path id="me4601d7b5d" d="M 0 0 
L 0 3.5 
" style="stroke: #000000; stroke-width: 0.8"/>
      </defs>
      <g>
       <use xlink:href="#me4601d7b5d" x="201.765388" y="288.430125" style="stroke: #000000; stroke-width: 0.8"/>
      </g>
     </g>
     <g id="text_1">
      <!-- 4 -->
      <g transform="translate(198.584138 303.028562) scale(0.1 -0.1)">
       <defs>
        <path id="DejaVuSans-34" d="M 2419 4116 
L 825 1625 
L 2419 1625 
L 2419 4116 
z
M 2253 4666 
L 3047 4666 
L 3047 1625 
L 3713 1625 
L 3713 1100 
L 3047 1100 
L 3047 0 
L 2419 0 
L 2419 1100 
L 313 1100 
L 313 1709 
L 2253 4666 
z
" transform="scale(0.015625)"/>
       </defs>
       <use xlink:href="#DejaVuSans-34"/>
      </g>
     </g>
    </g>
    <g id="xtick_2">
     <g id="line2d_2">
      <g>
       <use xlink:href="#me4601d7b5d" x="242.127866" y="288.430125" style="stroke: #000000; stroke-width: 0.8"/>
      </g>
     </g>
     <g id="text_2">
      <!-- 5 -->
      <g transform="translate(238.946616 303.028562) scale(0.1 -0.1)">
       <defs>
        <path id="DejaVuSans-35" d="M 691 4666 
L 3169 4666 
L 3169 4134 
L 1269 4134 
L 1269 2991 
Q 1406 3038 1543 3061 
Q 1681 3084 1819 3084 
Q 2600 3084 3056 2656 
Q 3513 2228 3513 1497 
Q 3513 744 3044 326 
Q 2575 -91 1722 -91 
Q 1428 -91 1123 -41 
Q 819 9 494 109 
L 494 744 
Q 775 591 1075 516 
Q 1375 441 1709 441 
Q 2250 441 2565 725 
Q 2881 1009 2881 1497 
Q 2881 1984 2565 2268 
Q 2250 2553 1709 2553 
Q 1456 2553 1204 2497 
Q 953 2441 691 2322 
L 691 4666 
z
" transform="scale(0.015625)"/>
       </defs>
       <use xlink:href="#DejaVuSans-35"/>
      </g>
     </g>
    </g>
    <g id="xtick_3">
     <g id="line2d_3">
      <g>
       <use xlink:href="#me4601d7b5d" x="282.490343" y="288.430125" style="stroke: #000000; stroke-width: 0.8"/>
      </g>
     </g>
     <g id="text_3">
      <!-- 6 -->
      <g transform="translate(279.309093 303.028562) scale(0.1 -0.1)">
       <defs>
        <path id="DejaVuSans-36" d="M 2113 2584 
Q 1688 2584 1439 2293 
Q 1191 2003 1191 1497 
Q 1191 994 1439 701 
Q 1688 409 2113 409 
Q 2538 409 2786 701 
Q 3034 994 3034 1497 
Q 3034 2003 2786 2293 
Q 2538 2584 2113 2584 
z
M 3366 4563 
L 3366 3988 
Q 3128 4100 2886 4159 
Q 2644 4219 2406 4219 
Q 1781 4219 1451 3797 
Q 1122 3375 1075 2522 
Q 1259 2794 1537 2939 
Q 1816 3084 2150 3084 
Q 2853 3084 3261 2657 
Q 3669 2231 3669 1497 
Q 3669 778 3244 343 
Q 2819 -91 2113 -91 
Q 1303 -91 875 529 
Q 447 1150 447 2328 
Q 447 3434 972 4092 
Q 1497 4750 2381 4750 
Q 2619 4750 2861 4703 
Q 3103 4656 3366 4563 
z
" transform="scale(0.015625)"/>
       </defs>
       <use xlink:href="#DejaVuSans-36"/>
      </g>
     </g>
    </g>
    <g id="xtick_4">
     <g id="line2d_4">
      <g>
       <use xlink:href="#me4601d7b5d" x="322.852821" y="288.430125" style="stroke: #000000; stroke-width: 0.8"/>
      </g>
     </g>
     <g id="text_4">
      <!-- 7 -->
      <g transform="translate(319.671571 303.028562) scale(0.1 -0.1)">
       <defs>
        <path id="DejaVuSans-37" d="M 525 4666 
L 3525 4666 
L 3525 4397 
L 1831 0 
L 1172 0 
L 2766 4134 
L 525 4134 
L 525 4666 
z
" transform="scale(0.015625)"/>
       </defs>
       <use xlink:href="#DejaVuSans-37"/>
      </g>
     </g>
    </g>
    <g id="xtick_5">
     <g id="line2d_5">
      <g>
       <use xlink:href="#me4601d7b5d" x="363.215299" y="288.430125" style="stroke: #000000; stroke-width: 0.8"/>
      </g>
     </g>
     <g id="text_5">
      <!-- 8 -->
      <g transform="translate(360.034049 303.028562) scale(0.1 -0.1)">
       <defs>
        <path id="DejaVuSans-38" d="M 2034 2216 
Q 1584 2216 1326 1975 
Q 1069 1734 1069 1313 
Q 1069 891 1326 650 
Q 1584 409 2034 409 
Q 2484 409 2743 651 
Q 3003 894 3003 1313 
Q 3003 1734 2745 1975 
Q 2488 2216 2034 2216 
z
M 1403 2484 
Q 997 2584 770 2862 
Q 544 3141 544 3541 
Q 544 4100 942 4425 
Q 1341 4750 2034 4750 
Q 2731 4750 3128 4425 
Q 3525 4100 3525 3541 
Q 3525 3141 3298 2862 
Q 3072 2584 2669 2484 
Q 3125 2378 3379 2068 
Q 3634 1759 3634 1313 
Q 3634 634 3220 271 
Q 2806 -91 2034 -91 
Q 1263 -91 848 271 
Q 434 634 434 1313 
Q 434 1759 690 2068 
Q 947 2378 1403 2484 
z
M 1172 3481 
Q 1172 3119 1398 2916 
Q 1625 2713 2034 2713 
Q 2441 2713 2670 2916 
Q 2900 3119 2900 3481 
Q 2900 3844 2670 4047 
Q 2441 4250 2034 4250 
Q 1625 4250 1398 4047 
Q 1172 3844 1172 3481 
z
" transform="scale(0.015625)"/>
       </defs>
       <use xlink:href="#DejaVuSans-38"/>
      </g>
     </g>
    </g>
    <g id="xtick_6">
     <g id="line2d_6">
      <g>
       <use xlink:href="#me4601d7b5d" x="403.577777" y="288.430125" style="stroke: #000000; stroke-width: 0.8"/>
      </g>
     </g>
     <g id="text_6">
      <!-- 9 -->
      <g transform="translate(400.396527 303.028562) scale(0.1 -0.1)">
       <defs>
        <path id="DejaVuSans-39" d="M 703 97 
L 703 672 
Q 941 559 1184 500 
Q 1428 441 1663 441 
Q 2288 441 2617 861 
Q 2947 1281 2994 2138 
Q 2813 1869 2534 1725 
Q 2256 1581 1919 1581 
Q 1219 1581 811 2004 
Q 403 2428 403 3163 
Q 403 3881 828 4315 
Q 1253 4750 1959 4750 
Q 2769 4750 3195 4129 
Q 3622 3509 3622 2328 
Q 3622 1225 3098 567 
Q 2575 -91 1691 -91 
Q 1453 -91 1209 -44 
Q 966 3 703 97 
z
M 1959 2075 
Q 2384 2075 2632 2365 
Q 2881 2656 2881 3163 
Q 2881 3666 2632 3958 
Q 2384 4250 1959 4250 
Q 1534 4250 1286 3958 
Q 1038 3666 1038 3163 
Q 1038 2656 1286 2365 
Q 1534 2075 1959 2075 
z
" transform="scale(0.015625)"/>
       </defs>
       <use xlink:href="#DejaVuSans-39"/>
      </g>
     </g>
    </g>
    <g id="xtick_7">
     <g id="line2d_7">
      <g>
       <use xlink:href="#me4601d7b5d" x="443.940255" y="288.430125" style="stroke: #000000; stroke-width: 0.8"/>
      </g>
     </g>
     <g id="text_7">
      <!-- 10 -->
      <g transform="translate(437.577755 303.028562) scale(0.1 -0.1)">
       <defs>
        <path id="DejaVuSans-31" d="M 794 531 
L 1825 531 
L 1825 4091 
L 703 3866 
L 703 4441 
L 1819 4666 
L 2450 4666 
L 2450 531 
L 3481 531 
L 3481 0 
L 794 0 
L 794 531 
z
" transform="scale(0.015625)"/>
        <path id="DejaVuSans-30" d="M 2034 4250 
Q 1547 4250 1301 3770 
Q 1056 3291 1056 2328 
Q 1056 1369 1301 889 
Q 1547 409 2034 409 
Q 2525 409 2770 889 
Q 3016 1369 3016 2328 
Q 3016 3291 2770 3770 
Q 2525 4250 2034 4250 
z
M 2034 4750 
Q 2819 4750 3233 4129 
Q 3647 3509 3647 2328 
Q 3647 1150 3233 529 
Q 2819 -91 2034 -91 
Q 1250 -91 836 529 
Q 422 1150 422 2328 
Q 422 3509 836 4129 
Q 1250 4750 2034 4750 
z
" transform="scale(0.015625)"/>
       </defs>
       <use xlink:href="#DejaVuSans-31"/>
       <use xlink:href="#DejaVuSans-30" transform="translate(63.623047 0)"/>
      </g>
     </g>
    </g>
    <g id="xtick_8">
     <g id="line2d_8">
      <g>
       <use xlink:href="#me4601d7b5d" x="484.302733" y="288.430125" style="stroke: #000000; stroke-width: 0.8"/>
      </g>
     </g>
     <g id="text_8">
      <!-- 11 -->
      <g transform="translate(477.940233 303.028562) scale(0.1 -0.1)">
       <use xlink:href="#DejaVuSans-31"/>
       <use xlink:href="#DejaVuSans-31" transform="translate(63.623047 0)"/>
      </g>
     </g>
    </g>
    <g id="xtick_9">
     <g id="line2d_9">
      <g>
       <use xlink:href="#me4601d7b5d" x="524.665211" y="288.430125" style="stroke: #000000; stroke-width: 0.8"/>
      </g>
     </g>
     <g id="text_9">
      <!-- 12 -->
      <g transform="translate(518.302711 303.028562) scale(0.1 -0.1)">
       <defs>
        <path id="DejaVuSans-32" d="M 1228 531 
L 3431 531 
L 3431 0 
L 469 0 
L 469 531 
Q 828 903 1448 1529 
Q 2069 2156 2228 2338 
Q 2531 2678 2651 2914 
Q 2772 3150 2772 3378 
Q 2772 3750 2511 3984 
Q 2250 4219 1831 4219 
Q 1534 4219 1204 4116 
Q 875 4013 500 3803 
L 500 4441 
Q 881 4594 1212 4672 
Q 1544 4750 1819 4750 
Q 2544 4750 2975 4387 
Q 3406 4025 3406 3419 
Q 3406 3131 3298 2873 
Q 3191 2616 2906 2266 
Q 2828 2175 2409 1742 
Q 1991 1309 1228 531 
z
" transform="scale(0.015625)"/>
       </defs>
       <use xlink:href="#DejaVuSans-31"/>
       <use xlink:href="#DejaVuSans-32" transform="translate(63.623047 0)"/>
      </g>
     </g>
    </g>
    <g id="text_10">
     <!-- Fold Enrichment -->
     <g transform="translate(320.843594 316.706687) scale(0.1 -0.1)">
      <defs>
       <path id="DejaVuSans-46" d="M 628 4666 
L 3309 4666 
L 3309 4134 
L 1259 4134 
L 1259 2759 
L 3109 2759 
L 3109 2228 
L 1259 2228 
L 1259 0 
L 628 0 
L 628 4666 
z
" transform="scale(0.015625)"/>
       <path id="DejaVuSans-6f" d="M 1959 3097 
Q 1497 3097 1228 2736 
Q 959 2375 959 1747 
Q 959 1119 1226 758 
Q 1494 397 1959 397 
Q 2419 397 2687 759 
Q 2956 1122 2956 1747 
Q 2956 2369 2687 2733 
Q 2419 3097 1959 3097 
z
M 1959 3584 
Q 2709 3584 3137 3096 
Q 3566 2609 3566 1747 
Q 3566 888 3137 398 
Q 2709 -91 1959 -91 
Q 1206 -91 779 398 
Q 353 888 353 1747 
Q 353 2609 779 3096 
Q 1206 3584 1959 3584 
z
" transform="scale(0.015625)"/>
       <path id="DejaVuSans-6c" d="M 603 4863 
L 1178 4863 
L 1178 0 
L 603 0 
L 603 4863 
z
" transform="scale(0.015625)"/>
       <path id="DejaVuSans-64" d="M 2906 2969 
L 2906 4863 
L 3481 4863 
L 3481 0 
L 2906 0 
L 2906 525 
Q 2725 213 2448 61 
Q 2172 -91 1784 -91 
Q 1150 -91 751 415 
Q 353 922 353 1747 
Q 353 2572 751 3078 
Q 1150 3584 1784 3584 
Q 2172 3584 2448 3432 
Q 2725 3281 2906 2969 
z
M 947 1747 
Q 947 1113 1208 752 
Q 1469 391 1925 391 
Q 2381 391 2643 752 
Q 2906 1113 2906 1747 
Q 2906 2381 2643 2742 
Q 2381 3103 1925 3103 
Q 1469 3103 1208 2742 
Q 947 2381 947 1747 
z
" transform="scale(0.015625)"/>
       <path id="DejaVuSans-20" transform="scale(0.015625)"/>
       <path id="DejaVuSans-45" d="M 628 4666 
L 3578 4666 
L 3578 4134 
L 1259 4134 
L 1259 2753 
L 3481 2753 
L 3481 2222 
L 1259 2222 
L 1259 531 
L 3634 531 
L 3634 0 
L 628 0 
L 628 4666 
z
" transform="scale(0.015625)"/>
       <path id="DejaVuSans-6e" d="M 3513 2113 
L 3513 0 
L 2938 0 
L 2938 2094 
Q 2938 2591 2744 2837 
Q 2550 3084 2163 3084 
Q 1697 3084 1428 2787 
Q 1159 2491 1159 1978 
L 1159 0 
L 581 0 
L 581 3500 
L 1159 3500 
L 1159 2956 
Q 1366 3272 1645 3428 
Q 1925 3584 2291 3584 
Q 2894 3584 3203 3211 
Q 3513 2838 3513 2113 
z
" transform="scale(0.015625)"/>
       <path id="DejaVuSans-72" d="M 2631 2963 
Q 2534 3019 2420 3045 
Q 2306 3072 2169 3072 
Q 1681 3072 1420 2755 
Q 1159 2438 1159 1844 
L 1159 0 
L 581 0 
L 581 3500 
L 1159 3500 
L 1159 2956 
Q 1341 3275 1631 3429 
Q 1922 3584 2338 3584 
Q 2397 3584 2469 3576 
Q 2541 3569 2628 3553 
L 2631 2963 
z
" transform="scale(0.015625)"/>
       <path id="DejaVuSans-69" d="M 603 3500 
L 1178 3500 
L 1178 0 
L 603 0 
L 603 3500 
z
M 603 4863 
L 1178 4863 
L 1178 4134 
L 603 4134 
L 603 4863 
z
" transform="scale(0.015625)"/>
       <path id="DejaVuSans-63" d="M 3122 3366 
L 3122 2828 
Q 2878 2963 2633 3030 
Q 2388 3097 2138 3097 
Q 1578 3097 1268 2742 
Q 959 2388 959 1747 
Q 959 1106 1268 751 
Q 1578 397 2138 397 
Q 2388 397 2633 464 
Q 2878 531 3122 666 
L 3122 134 
Q 2881 22 2623 -34 
Q 2366 -91 2075 -91 
Q 1284 -91 818 406 
Q 353 903 353 1747 
Q 353 2603 823 3093 
Q 1294 3584 2113 3584 
Q 2378 3584 2631 3529 
Q 2884 3475 3122 3366 
z
" transform="scale(0.015625)"/>
       <path id="DejaVuSans-68" d="M 3513 2113 
L 3513 0 
L 2938 0 
L 2938 2094 
Q 2938 2591 2744 2837 
Q 2550 3084 2163 3084 
Q 1697 3084 1428 2787 
Q 1159 2491 1159 1978 
L 1159 0 
L 581 0 
L 581 4863 
L 1159 4863 
L 1159 2956 
Q 1366 3272 1645 3428 
Q 1925 3584 2291 3584 
Q 2894 3584 3203 3211 
Q 3513 2838 3513 2113 
z
" transform="scale(0.015625)"/>
       <path id="DejaVuSans-6d" d="M 3328 2828 
Q 3544 3216 3844 3400 
Q 4144 3584 4550 3584 
Q 5097 3584 5394 3201 
Q 5691 2819 5691 2113 
L 5691 0 
L 5113 0 
L 5113 2094 
Q 5113 2597 4934 2840 
Q 4756 3084 4391 3084 
Q 3944 3084 3684 2787 
Q 3425 2491 3425 1978 
L 3425 0 
L 2847 0 
L 2847 2094 
Q 2847 2600 2669 2842 
Q 2491 3084 2119 3084 
Q 1678 3084 1418 2786 
Q 1159 2488 1159 1978 
L 1159 0 
L 581 0 
L 581 3500 
L 1159 3500 
L 1159 2956 
Q 1356 3278 1631 3431 
Q 1906 3584 2284 3584 
Q 2666 3584 2933 3390 
Q 3200 3197 3328 2828 
z
" transform="scale(0.015625)"/>
       <path id="DejaVuSans-65" d="M 3597 1894 
L 3597 1613 
L 953 1613 
Q 991 1019 1311 708 
Q 1631 397 2203 397 
Q 2534 397 2845 478 
Q 3156 559 3463 722 
L 3463 178 
Q 3153 47 2828 -22 
Q 2503 -91 2169 -91 
Q 1331 -91 842 396 
Q 353 884 353 1716 
Q 353 2575 817 3079 
Q 1281 3584 2069 3584 
Q 2775 3584 3186 3129 
Q 3597 2675 3597 1894 
z
M 3022 2063 
Q 3016 2534 2758 2815 
Q 2500 3097 2075 3097 
Q 1594 3097 1305 2825 
Q 1016 2553 972 2059 
L 3022 2063 
z
" transform="scale(0.015625)"/>
       <path id="DejaVuSans-74" d="M 1172 4494 
L 1172 3500 
L 2356 3500 
L 2356 3053 
L 1172 3053 
L 1172 1153 
Q 1172 725 1289 603 
Q 1406 481 1766 481 
L 2356 481 
L 2356 0 
L 1766 0 
Q 1100 0 847 248 
Q 594 497 594 1153 
L 594 3053 
L 172 3053 
L 172 3500 
L 594 3500 
L 594 4494 
L 1172 4494 
z
" transform="scale(0.015625)"/>
      </defs>
      <use xlink:href="#DejaVuSans-46"/>
      <use xlink:href="#DejaVuSans-6f" transform="translate(53.894531 0)"/>
      <use xlink:href="#DejaVuSans-6c" transform="translate(115.076172 0)"/>
      <use xlink:href="#DejaVuSans-64" transform="translate(142.859375 0)"/>
      <use xlink:href="#DejaVuSans-20" transform="translate(206.335938 0)"/>
      <use xlink:href="#DejaVuSans-45" transform="translate(238.123047 0)"/>
      <use xlink:href="#DejaVuSans-6e" transform="translate(301.306641 0)"/>
      <use xlink:href="#DejaVuSans-72" transform="translate(364.685547 0)"/>
      <use xlink:href="#DejaVuSans-69" transform="translate(405.798828 0)"/>
      <use xlink:href="#DejaVuSans-63" transform="translate(433.582031 0)"/>
      <use xlink:href="#DejaVuSans-68" transform="translate(488.5625 0)"/>
      <use xlink:href="#DejaVuSans-6d" transform="translate(551.941406 0)"/>
      <use xlink:href="#DejaVuSans-65" transform="translate(649.353516 0)"/>
      <use xlink:href="#DejaVuSans-6e" transform="translate(710.876953 0)"/>
      <use xlink:href="#DejaVuSans-74" transform="translate(774.255859 0)"/>
     </g>
    </g>
   </g>
   <g id="matplotlib.axis_2">
    <g id="ytick_1">
     <g id="line2d_10">
      <defs>
       <path id="m97f4b90415" d="M 0 0 
L -3.5 0 
" style="stroke: #000000; stroke-width: 0.8"/>
      </defs>
      <g>
       <use xlink:href="#m97f4b90415" x="182.95625" y="34.414125" style="stroke: #000000; stroke-width: 0.8"/>
      </g>
     </g>
     <g id="text_11">
      <!-- EEG with spike-wave complexes -->
      <g transform="translate(15.4875 38.213344) scale(0.1 -0.1)">
       <defs>
        <path id="DejaVuSans-47" d="M 3809 666 
L 3809 1919 
L 2778 1919 
L 2778 2438 
L 4434 2438 
L 4434 434 
Q 4069 175 3628 42 
Q 3188 -91 2688 -91 
Q 1594 -91 976 548 
Q 359 1188 359 2328 
Q 359 3472 976 4111 
Q 1594 4750 2688 4750 
Q 3144 4750 3555 4637 
Q 3966 4525 4313 4306 
L 4313 3634 
Q 3963 3931 3569 4081 
Q 3175 4231 2741 4231 
Q 1884 4231 1454 3753 
Q 1025 3275 1025 2328 
Q 1025 1384 1454 906 
Q 1884 428 2741 428 
Q 3075 428 3337 486 
Q 3600 544 3809 666 
z
" transform="scale(0.015625)"/>
        <path id="DejaVuSans-77" d="M 269 3500 
L 844 3500 
L 1563 769 
L 2278 3500 
L 2956 3500 
L 3675 769 
L 4391 3500 
L 4966 3500 
L 4050 0 
L 3372 0 
L 2619 2869 
L 1863 0 
L 1184 0 
L 269 3500 
z
" transform="scale(0.015625)"/>
        <path id="DejaVuSans-73" d="M 2834 3397 
L 2834 2853 
Q 2591 2978 2328 3040 
Q 2066 3103 1784 3103 
Q 1356 3103 1142 2972 
Q 928 2841 928 2578 
Q 928 2378 1081 2264 
Q 1234 2150 1697 2047 
L 1894 2003 
Q 2506 1872 2764 1633 
Q 3022 1394 3022 966 
Q 3022 478 2636 193 
Q 2250 -91 1575 -91 
Q 1294 -91 989 -36 
Q 684 19 347 128 
L 347 722 
Q 666 556 975 473 
Q 1284 391 1588 391 
Q 1994 391 2212 530 
Q 2431 669 2431 922 
Q 2431 1156 2273 1281 
Q 2116 1406 1581 1522 
L 1381 1569 
Q 847 1681 609 1914 
Q 372 2147 372 2553 
Q 372 3047 722 3315 
Q 1072 3584 1716 3584 
Q 2034 3584 2315 3537 
Q 2597 3491 2834 3397 
z
" transform="scale(0.015625)"/>
        <path id="DejaVuSans-70" d="M 1159 525 
L 1159 -1331 
L 581 -1331 
L 581 3500 
L 1159 3500 
L 1159 2969 
Q 1341 3281 1617 3432 
Q 1894 3584 2278 3584 
Q 2916 3584 3314 3078 
Q 3713 2572 3713 1747 
Q 3713 922 3314 415 
Q 2916 -91 2278 -91 
Q 1894 -91 1617 61 
Q 1341 213 1159 525 
z
M 3116 1747 
Q 3116 2381 2855 2742 
Q 2594 3103 2138 3103 
Q 1681 3103 1420 2742 
Q 1159 2381 1159 1747 
Q 1159 1113 1420 752 
Q 1681 391 2138 391 
Q 2594 391 2855 752 
Q 3116 1113 3116 1747 
z
" transform="scale(0.015625)"/>
        <path id="DejaVuSans-6b" d="M 581 4863 
L 1159 4863 
L 1159 1991 
L 2875 3500 
L 3609 3500 
L 1753 1863 
L 3688 0 
L 2938 0 
L 1159 1709 
L 1159 0 
L 581 0 
L 581 4863 
z
" transform="scale(0.015625)"/>
        <path id="DejaVuSans-2d" d="M 313 2009 
L 1997 2009 
L 1997 1497 
L 313 1497 
L 313 2009 
z
" transform="scale(0.015625)"/>
        <path id="DejaVuSans-61" d="M 2194 1759 
Q 1497 1759 1228 1600 
Q 959 1441 959 1056 
Q 959 750 1161 570 
Q 1363 391 1709 391 
Q 2188 391 2477 730 
Q 2766 1069 2766 1631 
L 2766 1759 
L 2194 1759 
z
M 3341 1997 
L 3341 0 
L 2766 0 
L 2766 531 
Q 2569 213 2275 61 
Q 1981 -91 1556 -91 
Q 1019 -91 701 211 
Q 384 513 384 1019 
Q 384 1609 779 1909 
Q 1175 2209 1959 2209 
L 2766 2209 
L 2766 2266 
Q 2766 2663 2505 2880 
Q 2244 3097 1772 3097 
Q 1472 3097 1187 3025 
Q 903 2953 641 2809 
L 641 3341 
Q 956 3463 1253 3523 
Q 1550 3584 1831 3584 
Q 2591 3584 2966 3190 
Q 3341 2797 3341 1997 
z
" transform="scale(0.015625)"/>
        <path id="DejaVuSans-76" d="M 191 3500 
L 800 3500 
L 1894 563 
L 2988 3500 
L 3597 3500 
L 2284 0 
L 1503 0 
L 191 3500 
z
" transform="scale(0.015625)"/>
        <path id="DejaVuSans-78" d="M 3513 3500 
L 2247 1797 
L 3578 0 
L 2900 0 
L 1881 1375 
L 863 0 
L 184 0 
L 1544 1831 
L 300 3500 
L 978 3500 
L 1906 2253 
L 2834 3500 
L 3513 3500 
z
" transform="scale(0.015625)"/>
       </defs>
       <use xlink:href="#DejaVuSans-45"/>
       <use xlink:href="#DejaVuSans-45" transform="translate(63.183594 0)"/>
       <use xlink:href="#DejaVuSans-47" transform="translate(126.367188 0)"/>
       <use xlink:href="#DejaVuSans-20" transform="translate(203.857422 0)"/>
       <use xlink:href="#DejaVuSans-77" transform="translate(235.644531 0)"/>
       <use xlink:href="#DejaVuSans-69" transform="translate(317.431641 0)"/>
       <use xlink:href="#DejaVuSans-74" transform="translate(345.214844 0)"/>
       <use xlink:href="#DejaVuSans-68" transform="translate(384.423828 0)"/>
       <use xlink:href="#DejaVuSans-20" transform="translate(447.802734 0)"/>
       <use xlink:href="#DejaVuSans-73" transform="translate(479.589844 0)"/>
       <use xlink:href="#DejaVuSans-70" transform="translate(531.689453 0)"/>
       <use xlink:href="#DejaVuSans-69" transform="translate(595.166016 0)"/>
       <use xlink:href="#DejaVuSans-6b" transform="translate(622.949219 0)"/>
       <use xlink:href="#DejaVuSans-65" transform="translate(677.234375 0)"/>
       <use xlink:href="#DejaVuSans-2d" transform="translate(738.757812 0)"/>
       <use xlink:href="#DejaVuSans-77" transform="translate(774.841797 0)"/>
       <use xlink:href="#DejaVuSans-61" transform="translate(856.628906 0)"/>
       <use xlink:href="#DejaVuSans-76" transform="translate(917.908203 0)"/>
       <use xlink:href="#DejaVuSans-65" transform="translate(977.087891 0)"/>
       <use xlink:href="#DejaVuSans-20" transform="translate(1038.611328 0)"/>
       <use xlink:href="#DejaVuSans-63" transform="translate(1070.398438 0)"/>
       <use xlink:href="#DejaVuSans-6f" transform="translate(1125.378906 0)"/>
       <use xlink:href="#DejaVuSans-6d" transform="translate(1186.560547 0)"/>
       <use xlink:href="#DejaVuSans-70" transform="translate(1283.972656 0)"/>
       <use xlink:href="#DejaVuSans-6c" transform="translate(1347.449219 0)"/>
       <use xlink:href="#DejaVuSans-65" transform="translate(1375.232422 0)"/>
       <use xlink:href="#DejaVuSans-78" transform="translate(1435.005859 0)"/>
       <use xlink:href="#DejaVuSans-65" transform="translate(1491.060547 0)"/>
       <use xlink:href="#DejaVuSans-73" transform="translate(1552.583984 0)"/>
      </g>
     </g>
    </g>
    <g id="ytick_2">
     <g id="line2d_11">
      <g>
       <use xlink:href="#m97f4b90415" x="182.95625" y="47.146757" style="stroke: #000000; stroke-width: 0.8"/>
      </g>
     </g>
     <g id="text_12">
      <!-- Generalized tonic seizure -->
      <g transform="translate(49.24375 50.945975) scale(0.1 -0.1)">
       <defs>
        <path id="DejaVuSans-7a" d="M 353 3500 
L 3084 3500 
L 3084 2975 
L 922 459 
L 3084 459 
L 3084 0 
L 275 0 
L 275 525 
L 2438 3041 
L 353 3041 
L 353 3500 
z
" transform="scale(0.015625)"/>
        <path id="DejaVuSans-75" d="M 544 1381 
L 544 3500 
L 1119 3500 
L 1119 1403 
Q 1119 906 1312 657 
Q 1506 409 1894 409 
Q 2359 409 2629 706 
Q 2900 1003 2900 1516 
L 2900 3500 
L 3475 3500 
L 3475 0 
L 2900 0 
L 2900 538 
Q 2691 219 2414 64 
Q 2138 -91 1772 -91 
Q 1169 -91 856 284 
Q 544 659 544 1381 
z
M 1991 3584 
L 1991 3584 
z
" transform="scale(0.015625)"/>
       </defs>
       <use xlink:href="#DejaVuSans-47"/>
       <use xlink:href="#DejaVuSans-65" transform="translate(77.490234 0)"/>
       <use xlink:href="#DejaVuSans-6e" transform="translate(139.013672 0)"/>
       <use xlink:href="#DejaVuSans-65" transform="translate(202.392578 0)"/>
       <use xlink:href="#DejaVuSans-72" transform="translate(263.916016 0)"/>
       <use xlink:href="#DejaVuSans-61" transform="translate(305.029297 0)"/>
       <use xlink:href="#DejaVuSans-6c" transform="translate(366.308594 0)"/>
       <use xlink:href="#DejaVuSans-69" transform="translate(394.091797 0)"/>
       <use xlink:href="#DejaVuSans-7a" transform="translate(421.875 0)"/>
       <use xlink:href="#DejaVuSans-65" transform="translate(474.365234 0)"/>
       <use xlink:href="#DejaVuSans-64" transform="translate(535.888672 0)"/>
       <use xlink:href="#DejaVuSans-20" transform="translate(599.365234 0)"/>
       <use xlink:href="#DejaVuSans-74" transform="translate(631.152344 0)"/>
       <use xlink:href="#DejaVuSans-6f" transform="translate(670.361328 0)"/>
       <use xlink:href="#DejaVuSans-6e" transform="translate(731.542969 0)"/>
       <use xlink:href="#DejaVuSans-69" transform="translate(794.921875 0)"/>
       <use xlink:href="#DejaVuSans-63" transform="translate(822.705078 0)"/>
       <use xlink:href="#DejaVuSans-20" transform="translate(877.685547 0)"/>
       <use xlink:href="#DejaVuSans-73" transform="translate(909.472656 0)"/>
       <use xlink:href="#DejaVuSans-65" transform="translate(961.572266 0)"/>
       <use xlink:href="#DejaVuSans-69" transform="translate(1023.095703 0)"/>
       <use xlink:href="#DejaVuSans-7a" transform="translate(1050.878906 0)"/>
       <use xlink:href="#DejaVuSans-75" transform="translate(1103.369141 0)"/>
       <use xlink:href="#DejaVuSans-72" transform="translate(1166.748047 0)"/>
       <use xlink:href="#DejaVuSans-65" transform="translate(1205.611328 0)"/>
      </g>
     </g>
    </g>
    <g id="ytick_3">
     <g id="line2d_12">
      <g>
       <use xlink:href="#m97f4b90415" x="182.95625" y="59.879388" style="stroke: #000000; stroke-width: 0.8"/>
      </g>
     </g>
     <g id="text_13">
      <!-- Epileptic spasm -->
      <g transform="translate(97.220313 63.678607) scale(0.1 -0.1)">
       <use xlink:href="#DejaVuSans-45"/>
       <use xlink:href="#DejaVuSans-70" transform="translate(63.183594 0)"/>
       <use xlink:href="#DejaVuSans-69" transform="translate(126.660156 0)"/>
       <use xlink:href="#DejaVuSans-6c" transform="translate(154.443359 0)"/>
       <use xlink:href="#DejaVuSans-65" transform="translate(182.226562 0)"/>
       <use xlink:href="#DejaVuSans-70" transform="translate(243.75 0)"/>
       <use xlink:href="#DejaVuSans-74" transform="translate(307.226562 0)"/>
       <use xlink:href="#DejaVuSans-69" transform="translate(346.435547 0)"/>
       <use xlink:href="#DejaVuSans-63" transform="translate(374.21875 0)"/>
       <use xlink:href="#DejaVuSans-20" transform="translate(429.199219 0)"/>
       <use xlink:href="#DejaVuSans-73" transform="translate(460.986328 0)"/>
       <use xlink:href="#DejaVuSans-70" transform="translate(513.085938 0)"/>
       <use xlink:href="#DejaVuSans-61" transform="translate(576.5625 0)"/>
       <use xlink:href="#DejaVuSans-73" transform="translate(637.841797 0)"/>
       <use xlink:href="#DejaVuSans-6d" transform="translate(689.941406 0)"/>
      </g>
     </g>
    </g>
    <g id="ytick_4">
     <g id="line2d_13">
      <g>
       <use xlink:href="#m97f4b90415" x="182.95625" y="72.61202" style="stroke: #000000; stroke-width: 0.8"/>
      </g>
     </g>
     <g id="text_14">
      <!-- Tonic seizure -->
      <g transform="translate(111.871875 76.411238) scale(0.1 -0.1)">
       <defs>
        <path id="DejaVuSans-54" d="M -19 4666 
L 3928 4666 
L 3928 4134 
L 2272 4134 
L 2272 0 
L 1638 0 
L 1638 4134 
L -19 4134 
L -19 4666 
z
" transform="scale(0.015625)"/>
       </defs>
       <use xlink:href="#DejaVuSans-54"/>
       <use xlink:href="#DejaVuSans-6f" transform="translate(44.083984 0)"/>
       <use xlink:href="#DejaVuSans-6e" transform="translate(105.265625 0)"/>
       <use xlink:href="#DejaVuSans-69" transform="translate(168.644531 0)"/>
       <use xlink:href="#DejaVuSans-63" transform="translate(196.427734 0)"/>
       <use xlink:href="#DejaVuSans-20" transform="translate(251.408203 0)"/>
       <use xlink:href="#DejaVuSans-73" transform="translate(283.195312 0)"/>
       <use xlink:href="#DejaVuSans-65" transform="translate(335.294922 0)"/>
       <use xlink:href="#DejaVuSans-69" transform="translate(396.818359 0)"/>
       <use xlink:href="#DejaVuSans-7a" transform="translate(424.601562 0)"/>
       <use xlink:href="#DejaVuSans-75" transform="translate(477.091797 0)"/>
       <use xlink:href="#DejaVuSans-72" transform="translate(540.470703 0)"/>
       <use xlink:href="#DejaVuSans-65" transform="translate(579.333984 0)"/>
      </g>
     </g>
    </g>
    <g id="ytick_5">
     <g id="line2d_14">
      <g>
       <use xlink:href="#m97f4b90415" x="182.95625" y="85.344651" style="stroke: #000000; stroke-width: 0.8"/>
      </g>
     </g>
     <g id="text_15">
      <!-- Epileptic encephalopathy -->
      <g transform="translate(49.35 89.14387) scale(0.1 -0.1)">
       <defs>
        <path id="DejaVuSans-79" d="M 2059 -325 
Q 1816 -950 1584 -1140 
Q 1353 -1331 966 -1331 
L 506 -1331 
L 506 -850 
L 844 -850 
Q 1081 -850 1212 -737 
Q 1344 -625 1503 -206 
L 1606 56 
L 191 3500 
L 800 3500 
L 1894 763 
L 2988 3500 
L 3597 3500 
L 2059 -325 
z
" transform="scale(0.015625)"/>
       </defs>
       <use xlink:href="#DejaVuSans-45"/>
       <use xlink:href="#DejaVuSans-70" transform="translate(63.183594 0)"/>
       <use xlink:href="#DejaVuSans-69" transform="translate(126.660156 0)"/>
       <use xlink:href="#DejaVuSans-6c" transform="translate(154.443359 0)"/>
       <use xlink:href="#DejaVuSans-65" transform="translate(182.226562 0)"/>
       <use xlink:href="#DejaVuSans-70" transform="translate(243.75 0)"/>
       <use xlink:href="#DejaVuSans-74" transform="translate(307.226562 0)"/>
       <use xlink:href="#DejaVuSans-69" transform="translate(346.435547 0)"/>
       <use xlink:href="#DejaVuSans-63" transform="translate(374.21875 0)"/>
       <use xlink:href="#DejaVuSans-20" transform="translate(429.199219 0)"/>
       <use xlink:href="#DejaVuSans-65" transform="translate(460.986328 0)"/>
       <use xlink:href="#DejaVuSans-6e" transform="translate(522.509766 0)"/>
       <use xlink:href="#DejaVuSans-63" transform="translate(585.888672 0)"/>
       <use xlink:href="#DejaVuSans-65" transform="translate(640.869141 0)"/>
       <use xlink:href="#DejaVuSans-70" transform="translate(702.392578 0)"/>
       <use xlink:href="#DejaVuSans-68" transform="translate(765.869141 0)"/>
       <use xlink:href="#DejaVuSans-61" transform="translate(829.248047 0)"/>
       <use xlink:href="#DejaVuSans-6c" transform="translate(890.527344 0)"/>
       <use xlink:href="#DejaVuSans-6f" transform="translate(918.310547 0)"/>
       <use xlink:href="#DejaVuSans-70" transform="translate(979.492188 0)"/>
       <use xlink:href="#DejaVuSans-61" transform="translate(1042.96875 0)"/>
       <use xlink:href="#DejaVuSans-74" transform="translate(1104.248047 0)"/>
       <use xlink:href="#DejaVuSans-68" transform="translate(1143.457031 0)"/>
       <use xlink:href="#DejaVuSans-79" transform="translate(1206.835938 0)"/>
      </g>
     </g>
    </g>
    <g id="ytick_6">
     <g id="line2d_15">
      <g>
       <use xlink:href="#m97f4b90415" x="182.95625" y="98.077283" style="stroke: #000000; stroke-width: 0.8"/>
      </g>
     </g>
     <g id="text_16">
      <!-- Atonic seizure -->
      <g transform="translate(105.69375 101.876502) scale(0.1 -0.1)">
       <defs>
        <path id="DejaVuSans-41" d="M 2188 4044 
L 1331 1722 
L 3047 1722 
L 2188 4044 
z
M 1831 4666 
L 2547 4666 
L 4325 0 
L 3669 0 
L 3244 1197 
L 1141 1197 
L 716 0 
L 50 0 
L 1831 4666 
z
" transform="scale(0.015625)"/>
       </defs>
       <use xlink:href="#DejaVuSans-41"/>
       <use xlink:href="#DejaVuSans-74" transform="translate(66.658203 0)"/>
       <use xlink:href="#DejaVuSans-6f" transform="translate(105.867188 0)"/>
       <use xlink:href="#DejaVuSans-6e" transform="translate(167.048828 0)"/>
       <use xlink:href="#DejaVuSans-69" transform="translate(230.427734 0)"/>
       <use xlink:href="#DejaVuSans-63" transform="translate(258.210938 0)"/>
       <use xlink:href="#DejaVuSans-20" transform="translate(313.191406 0)"/>
       <use xlink:href="#DejaVuSans-73" transform="translate(344.978516 0)"/>
       <use xlink:href="#DejaVuSans-65" transform="translate(397.078125 0)"/>
       <use xlink:href="#DejaVuSans-69" transform="translate(458.601562 0)"/>
       <use xlink:href="#DejaVuSans-7a" transform="translate(486.384766 0)"/>
       <use xlink:href="#DejaVuSans-75" transform="translate(538.875 0)"/>
       <use xlink:href="#DejaVuSans-72" transform="translate(602.253906 0)"/>
       <use xlink:href="#DejaVuSans-65" transform="translate(641.117188 0)"/>
      </g>
     </g>
    </g>
    <g id="ytick_7">
     <g id="line2d_16">
      <g>
       <use xlink:href="#m97f4b90415" x="182.95625" y="110.809914" style="stroke: #000000; stroke-width: 0.8"/>
      </g>
     </g>
     <g id="text_17">
      <!-- Dyskinesia -->
      <g transform="translate(121.953125 114.609133) scale(0.1 -0.1)">
       <defs>
        <path id="DejaVuSans-44" d="M 1259 4147 
L 1259 519 
L 2022 519 
Q 2988 519 3436 956 
Q 3884 1394 3884 2338 
Q 3884 3275 3436 3711 
Q 2988 4147 2022 4147 
L 1259 4147 
z
M 628 4666 
L 1925 4666 
Q 3281 4666 3915 4102 
Q 4550 3538 4550 2338 
Q 4550 1131 3912 565 
Q 3275 0 1925 0 
L 628 0 
L 628 4666 
z
" transform="scale(0.015625)"/>
       </defs>
       <use xlink:href="#DejaVuSans-44"/>
       <use xlink:href="#DejaVuSans-79" transform="translate(77.001953 0)"/>
       <use xlink:href="#DejaVuSans-73" transform="translate(136.181641 0)"/>
       <use xlink:href="#DejaVuSans-6b" transform="translate(188.28125 0)"/>
       <use xlink:href="#DejaVuSans-69" transform="translate(246.191406 0)"/>
       <use xlink:href="#DejaVuSans-6e" transform="translate(273.974609 0)"/>
       <use xlink:href="#DejaVuSans-65" transform="translate(337.353516 0)"/>
       <use xlink:href="#DejaVuSans-73" transform="translate(398.876953 0)"/>
       <use xlink:href="#DejaVuSans-69" transform="translate(450.976562 0)"/>
       <use xlink:href="#DejaVuSans-61" transform="translate(478.759766 0)"/>
      </g>
     </g>
    </g>
    <g id="ytick_8">
     <g id="line2d_17">
      <g>
       <use xlink:href="#m97f4b90415" x="182.95625" y="123.542546" style="stroke: #000000; stroke-width: 0.8"/>
      </g>
     </g>
     <g id="text_18">
      <!-- Focal impaired awareness seizure -->
      <g transform="translate(7.2 127.341765) scale(0.1 -0.1)">
       <use xlink:href="#DejaVuSans-46"/>
       <use xlink:href="#DejaVuSans-6f" transform="translate(53.894531 0)"/>
       <use xlink:href="#DejaVuSans-63" transform="translate(115.076172 0)"/>
       <use xlink:href="#DejaVuSans-61" transform="translate(170.056641 0)"/>
       <use xlink:href="#DejaVuSans-6c" transform="translate(231.335938 0)"/>
       <use xlink:href="#DejaVuSans-20" transform="translate(259.119141 0)"/>
       <use xlink:href="#DejaVuSans-69" transform="translate(290.90625 0)"/>
       <use xlink:href="#DejaVuSans-6d" transform="translate(318.689453 0)"/>
       <use xlink:href="#DejaVuSans-70" transform="translate(416.101562 0)"/>
       <use xlink:href="#DejaVuSans-61" transform="translate(479.578125 0)"/>
       <use xlink:href="#DejaVuSans-69" transform="translate(540.857422 0)"/>
       <use xlink:href="#DejaVuSans-72" transform="translate(568.640625 0)"/>
       <use xlink:href="#DejaVuSans-65" transform="translate(607.503906 0)"/>
       <use xlink:href="#DejaVuSans-64" transform="translate(669.027344 0)"/>
       <use xlink:href="#DejaVuSans-20" transform="translate(732.503906 0)"/>
       <use xlink:href="#DejaVuSans-61" transform="translate(764.291016 0)"/>
       <use xlink:href="#DejaVuSans-77" transform="translate(825.570312 0)"/>
       <use xlink:href="#DejaVuSans-61" transform="translate(907.357422 0)"/>
       <use xlink:href="#DejaVuSans-72" transform="translate(968.636719 0)"/>
       <use xlink:href="#DejaVuSans-65" transform="translate(1007.5 0)"/>
       <use xlink:href="#DejaVuSans-6e" transform="translate(1069.023438 0)"/>
       <use xlink:href="#DejaVuSans-65" transform="translate(1132.402344 0)"/>
       <use xlink:href="#DejaVuSans-73" transform="translate(1193.925781 0)"/>
       <use xlink:href="#DejaVuSans-73" transform="translate(1246.025391 0)"/>
       <use xlink:href="#DejaVuSans-20" transform="translate(1298.125 0)"/>
       <use xlink:href="#DejaVuSans-73" transform="translate(1329.912109 0)"/>
       <use xlink:href="#DejaVuSans-65" transform="translate(1382.011719 0)"/>
       <use xlink:href="#DejaVuSans-69" transform="translate(1443.535156 0)"/>
       <use xlink:href="#DejaVuSans-7a" transform="translate(1471.318359 0)"/>
       <use xlink:href="#DejaVuSans-75" transform="translate(1523.808594 0)"/>
       <use xlink:href="#DejaVuSans-72" transform="translate(1587.1875 0)"/>
       <use xlink:href="#DejaVuSans-65" transform="translate(1626.050781 0)"/>
      </g>
     </g>
    </g>
    <g id="ytick_9">
     <g id="line2d_18">
      <g>
       <use xlink:href="#m97f4b90415" x="182.95625" y="136.275178" style="stroke: #000000; stroke-width: 0.8"/>
      </g>
     </g>
     <g id="text_19">
      <!-- Short attention span -->
      <g transform="translate(73.126563 140.074396) scale(0.1 -0.1)">
       <defs>
        <path id="DejaVuSans-53" d="M 3425 4513 
L 3425 3897 
Q 3066 4069 2747 4153 
Q 2428 4238 2131 4238 
Q 1616 4238 1336 4038 
Q 1056 3838 1056 3469 
Q 1056 3159 1242 3001 
Q 1428 2844 1947 2747 
L 2328 2669 
Q 3034 2534 3370 2195 
Q 3706 1856 3706 1288 
Q 3706 609 3251 259 
Q 2797 -91 1919 -91 
Q 1588 -91 1214 -16 
Q 841 59 441 206 
L 441 856 
Q 825 641 1194 531 
Q 1563 422 1919 422 
Q 2459 422 2753 634 
Q 3047 847 3047 1241 
Q 3047 1584 2836 1778 
Q 2625 1972 2144 2069 
L 1759 2144 
Q 1053 2284 737 2584 
Q 422 2884 422 3419 
Q 422 4038 858 4394 
Q 1294 4750 2059 4750 
Q 2388 4750 2728 4690 
Q 3069 4631 3425 4513 
z
" transform="scale(0.015625)"/>
       </defs>
       <use xlink:href="#DejaVuSans-53"/>
       <use xlink:href="#DejaVuSans-68" transform="translate(63.476562 0)"/>
       <use xlink:href="#DejaVuSans-6f" transform="translate(126.855469 0)"/>
       <use xlink:href="#DejaVuSans-72" transform="translate(188.037109 0)"/>
       <use xlink:href="#DejaVuSans-74" transform="translate(229.150391 0)"/>
       <use xlink:href="#DejaVuSans-20" transform="translate(268.359375 0)"/>
       <use xlink:href="#DejaVuSans-61" transform="translate(300.146484 0)"/>
       <use xlink:href="#DejaVuSans-74" transform="translate(361.425781 0)"/>
       <use xlink:href="#DejaVuSans-74" transform="translate(400.634766 0)"/>
       <use xlink:href="#DejaVuSans-65" transform="translate(439.84375 0)"/>
       <use xlink:href="#DejaVuSans-6e" transform="translate(501.367188 0)"/>
       <use xlink:href="#DejaVuSans-74" transform="translate(564.746094 0)"/>
       <use xlink:href="#DejaVuSans-69" transform="translate(603.955078 0)"/>
       <use xlink:href="#DejaVuSans-6f" transform="translate(631.738281 0)"/>
       <use xlink:href="#DejaVuSans-6e" transform="translate(692.919922 0)"/>
       <use xlink:href="#DejaVuSans-20" transform="translate(756.298828 0)"/>
       <use xlink:href="#DejaVuSans-73" transform="translate(788.085938 0)"/>
       <use xlink:href="#DejaVuSans-70" transform="translate(840.185547 0)"/>
       <use xlink:href="#DejaVuSans-61" transform="translate(903.662109 0)"/>
       <use xlink:href="#DejaVuSans-6e" transform="translate(964.941406 0)"/>
      </g>
     </g>
    </g>
    <g id="ytick_10">
     <g id="line2d_19">
      <g>
       <use xlink:href="#m97f4b90415" x="182.95625" y="149.007809" style="stroke: #000000; stroke-width: 0.8"/>
      </g>
     </g>
     <g id="text_20">
      <!-- Involuntary movements -->
      <g transform="translate(56.629688 152.807028) scale(0.1 -0.1)">
       <defs>
        <path id="DejaVuSans-49" d="M 628 4666 
L 1259 4666 
L 1259 0 
L 628 0 
L 628 4666 
z
" transform="scale(0.015625)"/>
       </defs>
       <use xlink:href="#DejaVuSans-49"/>
       <use xlink:href="#DejaVuSans-6e" transform="translate(29.492188 0)"/>
       <use xlink:href="#DejaVuSans-76" transform="translate(92.871094 0)"/>
       <use xlink:href="#DejaVuSans-6f" transform="translate(152.050781 0)"/>
       <use xlink:href="#DejaVuSans-6c" transform="translate(213.232422 0)"/>
       <use xlink:href="#DejaVuSans-75" transform="translate(241.015625 0)"/>
       <use xlink:href="#DejaVuSans-6e" transform="translate(304.394531 0)"/>
       <use xlink:href="#DejaVuSans-74" transform="translate(367.773438 0)"/>
       <use xlink:href="#DejaVuSans-61" transform="translate(406.982422 0)"/>
       <use xlink:href="#DejaVuSans-72" transform="translate(468.261719 0)"/>
       <use xlink:href="#DejaVuSans-79" transform="translate(509.375 0)"/>
       <use xlink:href="#DejaVuSans-20" transform="translate(568.554688 0)"/>
       <use xlink:href="#DejaVuSans-6d" transform="translate(600.341797 0)"/>
       <use xlink:href="#DejaVuSans-6f" transform="translate(697.753906 0)"/>
       <use xlink:href="#DejaVuSans-76" transform="translate(758.935547 0)"/>
       <use xlink:href="#DejaVuSans-65" transform="translate(818.115234 0)"/>
       <use xlink:href="#DejaVuSans-6d" transform="translate(879.638672 0)"/>
       <use xlink:href="#DejaVuSans-65" transform="translate(977.050781 0)"/>
       <use xlink:href="#DejaVuSans-6e" transform="translate(1038.574219 0)"/>
       <use xlink:href="#DejaVuSans-74" transform="translate(1101.953125 0)"/>
       <use xlink:href="#DejaVuSans-73" transform="translate(1141.162109 0)"/>
      </g>
     </g>
    </g>
    <g id="ytick_11">
     <g id="line2d_20">
      <g>
       <use xlink:href="#m97f4b90415" x="182.95625" y="161.740441" style="stroke: #000000; stroke-width: 0.8"/>
      </g>
     </g>
     <g id="text_21">
      <!-- Chorea -->
      <g transform="translate(140.35 165.53966) scale(0.1 -0.1)">
       <defs>
        <path id="DejaVuSans-43" d="M 4122 4306 
L 4122 3641 
Q 3803 3938 3442 4084 
Q 3081 4231 2675 4231 
Q 1875 4231 1450 3742 
Q 1025 3253 1025 2328 
Q 1025 1406 1450 917 
Q 1875 428 2675 428 
Q 3081 428 3442 575 
Q 3803 722 4122 1019 
L 4122 359 
Q 3791 134 3420 21 
Q 3050 -91 2638 -91 
Q 1578 -91 968 557 
Q 359 1206 359 2328 
Q 359 3453 968 4101 
Q 1578 4750 2638 4750 
Q 3056 4750 3426 4639 
Q 3797 4528 4122 4306 
z
" transform="scale(0.015625)"/>
       </defs>
       <use xlink:href="#DejaVuSans-43"/>
       <use xlink:href="#DejaVuSans-68" transform="translate(69.824219 0)"/>
       <use xlink:href="#DejaVuSans-6f" transform="translate(133.203125 0)"/>
       <use xlink:href="#DejaVuSans-72" transform="translate(194.384766 0)"/>
       <use xlink:href="#DejaVuSans-65" transform="translate(233.248047 0)"/>
       <use xlink:href="#DejaVuSans-61" transform="translate(294.771484 0)"/>
      </g>
     </g>
    </g>
    <g id="ytick_12">
     <g id="line2d_21">
      <g>
       <use xlink:href="#m97f4b90415" x="182.95625" y="174.473072" style="stroke: #000000; stroke-width: 0.8"/>
      </g>
     </g>
     <g id="text_22">
      <!-- Hypsarrhythmia -->
      <g transform="translate(95.798438 178.272291) scale(0.1 -0.1)">
       <defs>
        <path id="DejaVuSans-48" d="M 628 4666 
L 1259 4666 
L 1259 2753 
L 3553 2753 
L 3553 4666 
L 4184 4666 
L 4184 0 
L 3553 0 
L 3553 2222 
L 1259 2222 
L 1259 0 
L 628 0 
L 628 4666 
z
" transform="scale(0.015625)"/>
       </defs>
       <use xlink:href="#DejaVuSans-48"/>
       <use xlink:href="#DejaVuSans-79" transform="translate(75.195312 0)"/>
       <use xlink:href="#DejaVuSans-70" transform="translate(134.375 0)"/>
       <use xlink:href="#DejaVuSans-73" transform="translate(197.851562 0)"/>
       <use xlink:href="#DejaVuSans-61" transform="translate(249.951172 0)"/>
       <use xlink:href="#DejaVuSans-72" transform="translate(311.230469 0)"/>
       <use xlink:href="#DejaVuSans-72" transform="translate(350.59375 0)"/>
       <use xlink:href="#DejaVuSans-68" transform="translate(389.957031 0)"/>
       <use xlink:href="#DejaVuSans-79" transform="translate(453.335938 0)"/>
       <use xlink:href="#DejaVuSans-74" transform="translate(512.515625 0)"/>
       <use xlink:href="#DejaVuSans-68" transform="translate(551.724609 0)"/>
       <use xlink:href="#DejaVuSans-6d" transform="translate(615.103516 0)"/>
       <use xlink:href="#DejaVuSans-69" transform="translate(712.515625 0)"/>
       <use xlink:href="#DejaVuSans-61" transform="translate(740.298828 0)"/>
      </g>
     </g>
    </g>
    <g id="ytick_13">
     <g id="line2d_22">
      <g>
       <use xlink:href="#m97f4b90415" x="182.95625" y="187.205704" style="stroke: #000000; stroke-width: 0.8"/>
      </g>
     </g>
     <g id="text_23">
      <!-- Focal-onset seizure -->
      <g transform="translate(79.565625 191.004923) scale(0.1 -0.1)">
       <use xlink:href="#DejaVuSans-46"/>
       <use xlink:href="#DejaVuSans-6f" transform="translate(53.894531 0)"/>
       <use xlink:href="#DejaVuSans-63" transform="translate(115.076172 0)"/>
       <use xlink:href="#DejaVuSans-61" transform="translate(170.056641 0)"/>
       <use xlink:href="#DejaVuSans-6c" transform="translate(231.335938 0)"/>
       <use xlink:href="#DejaVuSans-2d" transform="translate(259.119141 0)"/>
       <use xlink:href="#DejaVuSans-6f" transform="translate(297.078125 0)"/>
       <use xlink:href="#DejaVuSans-6e" transform="translate(358.259766 0)"/>
       <use xlink:href="#DejaVuSans-73" transform="translate(421.638672 0)"/>
       <use xlink:href="#DejaVuSans-65" transform="translate(473.738281 0)"/>
       <use xlink:href="#DejaVuSans-74" transform="translate(535.261719 0)"/>
       <use xlink:href="#DejaVuSans-20" transform="translate(574.470703 0)"/>
       <use xlink:href="#DejaVuSans-73" transform="translate(606.257812 0)"/>
       <use xlink:href="#DejaVuSans-65" transform="translate(658.357422 0)"/>
       <use xlink:href="#DejaVuSans-69" transform="translate(719.880859 0)"/>
       <use xlink:href="#DejaVuSans-7a" transform="translate(747.664062 0)"/>
       <use xlink:href="#DejaVuSans-75" transform="translate(800.154297 0)"/>
       <use xlink:href="#DejaVuSans-72" transform="translate(863.533203 0)"/>
       <use xlink:href="#DejaVuSans-65" transform="translate(902.396484 0)"/>
      </g>
     </g>
    </g>
    <g id="ytick_14">
     <g id="line2d_23">
      <g>
       <use xlink:href="#m97f4b90415" x="182.95625" y="199.938336" style="stroke: #000000; stroke-width: 0.8"/>
      </g>
     </g>
     <g id="text_24">
      <!-- Inability to walk -->
      <g transform="translate(96.748438 203.737554) scale(0.1 -0.1)">
       <defs>
        <path id="DejaVuSans-62" d="M 3116 1747 
Q 3116 2381 2855 2742 
Q 2594 3103 2138 3103 
Q 1681 3103 1420 2742 
Q 1159 2381 1159 1747 
Q 1159 1113 1420 752 
Q 1681 391 2138 391 
Q 2594 391 2855 752 
Q 3116 1113 3116 1747 
z
M 1159 2969 
Q 1341 3281 1617 3432 
Q 1894 3584 2278 3584 
Q 2916 3584 3314 3078 
Q 3713 2572 3713 1747 
Q 3713 922 3314 415 
Q 2916 -91 2278 -91 
Q 1894 -91 1617 61 
Q 1341 213 1159 525 
L 1159 0 
L 581 0 
L 581 4863 
L 1159 4863 
L 1159 2969 
z
" transform="scale(0.015625)"/>
       </defs>
       <use xlink:href="#DejaVuSans-49"/>
       <use xlink:href="#DejaVuSans-6e" transform="translate(29.492188 0)"/>
       <use xlink:href="#DejaVuSans-61" transform="translate(92.871094 0)"/>
       <use xlink:href="#DejaVuSans-62" transform="translate(154.150391 0)"/>
       <use xlink:href="#DejaVuSans-69" transform="translate(217.626953 0)"/>
       <use xlink:href="#DejaVuSans-6c" transform="translate(245.410156 0)"/>
       <use xlink:href="#DejaVuSans-69" transform="translate(273.193359 0)"/>
       <use xlink:href="#DejaVuSans-74" transform="translate(300.976562 0)"/>
       <use xlink:href="#DejaVuSans-79" transform="translate(340.185547 0)"/>
       <use xlink:href="#DejaVuSans-20" transform="translate(399.365234 0)"/>
       <use xlink:href="#DejaVuSans-74" transform="translate(431.152344 0)"/>
       <use xlink:href="#DejaVuSans-6f" transform="translate(470.361328 0)"/>
       <use xlink:href="#DejaVuSans-20" transform="translate(531.542969 0)"/>
       <use xlink:href="#DejaVuSans-77" transform="translate(563.330078 0)"/>
       <use xlink:href="#DejaVuSans-61" transform="translate(645.117188 0)"/>
       <use xlink:href="#DejaVuSans-6c" transform="translate(706.396484 0)"/>
       <use xlink:href="#DejaVuSans-6b" transform="translate(734.179688 0)"/>
      </g>
     </g>
    </g>
    <g id="ytick_15">
     <g id="line2d_24">
      <g>
       <use xlink:href="#m97f4b90415" x="182.95625" y="212.670967" style="stroke: #000000; stroke-width: 0.8"/>
      </g>
     </g>
     <g id="text_25">
      <!-- Myoclonus -->
      <g transform="translate(123.010938 216.470186) scale(0.1 -0.1)">
       <defs>
        <path id="DejaVuSans-4d" d="M 628 4666 
L 1569 4666 
L 2759 1491 
L 3956 4666 
L 4897 4666 
L 4897 0 
L 4281 0 
L 4281 4097 
L 3078 897 
L 2444 897 
L 1241 4097 
L 1241 0 
L 628 0 
L 628 4666 
z
" transform="scale(0.015625)"/>
       </defs>
       <use xlink:href="#DejaVuSans-4d"/>
       <use xlink:href="#DejaVuSans-79" transform="translate(86.279297 0)"/>
       <use xlink:href="#DejaVuSans-6f" transform="translate(145.458984 0)"/>
       <use xlink:href="#DejaVuSans-63" transform="translate(206.640625 0)"/>
       <use xlink:href="#DejaVuSans-6c" transform="translate(261.621094 0)"/>
       <use xlink:href="#DejaVuSans-6f" transform="translate(289.404297 0)"/>
       <use xlink:href="#DejaVuSans-6e" transform="translate(350.585938 0)"/>
       <use xlink:href="#DejaVuSans-75" transform="translate(413.964844 0)"/>
       <use xlink:href="#DejaVuSans-73" transform="translate(477.34375 0)"/>
      </g>
     </g>
    </g>
    <g id="ytick_16">
     <g id="line2d_25">
      <g>
       <use xlink:href="#m97f4b90415" x="182.95625" y="225.403599" style="stroke: #000000; stroke-width: 0.8"/>
      </g>
     </g>
     <g id="text_26">
      <!-- Poor head control -->
      <g transform="translate(87.959375 229.202817) scale(0.1 -0.1)">
       <defs>
        <path id="DejaVuSans-50" d="M 1259 4147 
L 1259 2394 
L 2053 2394 
Q 2494 2394 2734 2622 
Q 2975 2850 2975 3272 
Q 2975 3691 2734 3919 
Q 2494 4147 2053 4147 
L 1259 4147 
z
M 628 4666 
L 2053 4666 
Q 2838 4666 3239 4311 
Q 3641 3956 3641 3272 
Q 3641 2581 3239 2228 
Q 2838 1875 2053 1875 
L 1259 1875 
L 1259 0 
L 628 0 
L 628 4666 
z
" transform="scale(0.015625)"/>
       </defs>
       <use xlink:href="#DejaVuSans-50"/>
       <use xlink:href="#DejaVuSans-6f" transform="translate(56.677734 0)"/>
       <use xlink:href="#DejaVuSans-6f" transform="translate(117.859375 0)"/>
       <use xlink:href="#DejaVuSans-72" transform="translate(179.041016 0)"/>
       <use xlink:href="#DejaVuSans-20" transform="translate(220.154297 0)"/>
       <use xlink:href="#DejaVuSans-68" transform="translate(251.941406 0)"/>
       <use xlink:href="#DejaVuSans-65" transform="translate(315.320312 0)"/>
       <use xlink:href="#DejaVuSans-61" transform="translate(376.84375 0)"/>
       <use xlink:href="#DejaVuSans-64" transform="translate(438.123047 0)"/>
       <use xlink:href="#DejaVuSans-20" transform="translate(501.599609 0)"/>
       <use xlink:href="#DejaVuSans-63" transform="translate(533.386719 0)"/>
       <use xlink:href="#DejaVuSans-6f" transform="translate(588.367188 0)"/>
       <use xlink:href="#DejaVuSans-6e" transform="translate(649.548828 0)"/>
       <use xlink:href="#DejaVuSans-74" transform="translate(712.927734 0)"/>
       <use xlink:href="#DejaVuSans-72" transform="translate(752.136719 0)"/>
       <use xlink:href="#DejaVuSans-6f" transform="translate(791 0)"/>
       <use xlink:href="#DejaVuSans-6c" transform="translate(852.181641 0)"/>
      </g>
     </g>
    </g>
    <g id="ytick_17">
     <g id="line2d_26">
      <g>
       <use xlink:href="#m97f4b90415" x="182.95625" y="238.13623" style="stroke: #000000; stroke-width: 0.8"/>
      </g>
     </g>
     <g id="text_27">
      <!-- EEG abnormality -->
      <g transform="translate(92.259375 241.935449) scale(0.1 -0.1)">
       <use xlink:href="#DejaVuSans-45"/>
       <use xlink:href="#DejaVuSans-45" transform="translate(63.183594 0)"/>
       <use xlink:href="#DejaVuSans-47" transform="translate(126.367188 0)"/>
       <use xlink:href="#DejaVuSans-20" transform="translate(203.857422 0)"/>
       <use xlink:href="#DejaVuSans-61" transform="translate(235.644531 0)"/>
       <use xlink:href="#DejaVuSans-62" transform="translate(296.923828 0)"/>
       <use xlink:href="#DejaVuSans-6e" transform="translate(360.400391 0)"/>
       <use xlink:href="#DejaVuSans-6f" transform="translate(423.779297 0)"/>
       <use xlink:href="#DejaVuSans-72" transform="translate(484.960938 0)"/>
       <use xlink:href="#DejaVuSans-6d" transform="translate(524.324219 0)"/>
       <use xlink:href="#DejaVuSans-61" transform="translate(621.736328 0)"/>
       <use xlink:href="#DejaVuSans-6c" transform="translate(683.015625 0)"/>
       <use xlink:href="#DejaVuSans-69" transform="translate(710.798828 0)"/>
       <use xlink:href="#DejaVuSans-74" transform="translate(738.582031 0)"/>
       <use xlink:href="#DejaVuSans-79" transform="translate(777.791016 0)"/>
      </g>
     </g>
    </g>
    <g id="ytick_18">
     <g id="line2d_27">
      <g>
       <use xlink:href="#m97f4b90415" x="182.95625" y="250.868862" style="stroke: #000000; stroke-width: 0.8"/>
      </g>
     </g>
     <g id="text_28">
      <!-- Bilateral tonic-clonic seizure -->
      <g transform="translate(34.928125 254.668081) scale(0.1 -0.1)">
       <defs>
        <path id="DejaVuSans-42" d="M 1259 2228 
L 1259 519 
L 2272 519 
Q 2781 519 3026 730 
Q 3272 941 3272 1375 
Q 3272 1813 3026 2020 
Q 2781 2228 2272 2228 
L 1259 2228 
z
M 1259 4147 
L 1259 2741 
L 2194 2741 
Q 2656 2741 2882 2914 
Q 3109 3088 3109 3444 
Q 3109 3797 2882 3972 
Q 2656 4147 2194 4147 
L 1259 4147 
z
M 628 4666 
L 2241 4666 
Q 2963 4666 3353 4366 
Q 3744 4066 3744 3513 
Q 3744 3084 3544 2831 
Q 3344 2578 2956 2516 
Q 3422 2416 3680 2098 
Q 3938 1781 3938 1306 
Q 3938 681 3513 340 
Q 3088 0 2303 0 
L 628 0 
L 628 4666 
z
" transform="scale(0.015625)"/>
       </defs>
       <use xlink:href="#DejaVuSans-42"/>
       <use xlink:href="#DejaVuSans-69" transform="translate(68.603516 0)"/>
       <use xlink:href="#DejaVuSans-6c" transform="translate(96.386719 0)"/>
       <use xlink:href="#DejaVuSans-61" transform="translate(124.169922 0)"/>
       <use xlink:href="#DejaVuSans-74" transform="translate(185.449219 0)"/>
       <use xlink:href="#DejaVuSans-65" transform="translate(224.658203 0)"/>
       <use xlink:href="#DejaVuSans-72" transform="translate(286.181641 0)"/>
       <use xlink:href="#DejaVuSans-61" transform="translate(327.294922 0)"/>
       <use xlink:href="#DejaVuSans-6c" transform="translate(388.574219 0)"/>
       <use xlink:href="#DejaVuSans-20" transform="translate(416.357422 0)"/>
       <use xlink:href="#DejaVuSans-74" transform="translate(448.144531 0)"/>
       <use xlink:href="#DejaVuSans-6f" transform="translate(487.353516 0)"/>
       <use xlink:href="#DejaVuSans-6e" transform="translate(548.535156 0)"/>
       <use xlink:href="#DejaVuSans-69" transform="translate(611.914062 0)"/>
       <use xlink:href="#DejaVuSans-63" transform="translate(639.697266 0)"/>
       <use xlink:href="#DejaVuSans-2d" transform="translate(694.677734 0)"/>
       <use xlink:href="#DejaVuSans-63" transform="translate(730.761719 0)"/>
       <use xlink:href="#DejaVuSans-6c" transform="translate(785.742188 0)"/>
       <use xlink:href="#DejaVuSans-6f" transform="translate(813.525391 0)"/>
       <use xlink:href="#DejaVuSans-6e" transform="translate(874.707031 0)"/>
       <use xlink:href="#DejaVuSans-69" transform="translate(938.085938 0)"/>
       <use xlink:href="#DejaVuSans-63" transform="translate(965.869141 0)"/>
       <use xlink:href="#DejaVuSans-20" transform="translate(1020.849609 0)"/>
       <use xlink:href="#DejaVuSans-73" transform="translate(1052.636719 0)"/>
       <use xlink:href="#DejaVuSans-65" transform="translate(1104.736328 0)"/>
       <use xlink:href="#DejaVuSans-69" transform="translate(1166.259766 0)"/>
       <use xlink:href="#DejaVuSans-7a" transform="translate(1194.042969 0)"/>
       <use xlink:href="#DejaVuSans-75" transform="translate(1246.533203 0)"/>
       <use xlink:href="#DejaVuSans-72" transform="translate(1309.912109 0)"/>
       <use xlink:href="#DejaVuSans-65" transform="translate(1348.775391 0)"/>
      </g>
     </g>
    </g>
    <g id="ytick_19">
     <g id="line2d_28">
      <g>
       <use xlink:href="#m97f4b90415" x="182.95625" y="263.601493" style="stroke: #000000; stroke-width: 0.8"/>
      </g>
     </g>
     <g id="text_29">
      <!-- Developmental regression -->
      <g transform="translate(44.470313 267.400712) scale(0.1 -0.1)">
       <defs>
        <path id="DejaVuSans-67" d="M 2906 1791 
Q 2906 2416 2648 2759 
Q 2391 3103 1925 3103 
Q 1463 3103 1205 2759 
Q 947 2416 947 1791 
Q 947 1169 1205 825 
Q 1463 481 1925 481 
Q 2391 481 2648 825 
Q 2906 1169 2906 1791 
z
M 3481 434 
Q 3481 -459 3084 -895 
Q 2688 -1331 1869 -1331 
Q 1566 -1331 1297 -1286 
Q 1028 -1241 775 -1147 
L 775 -588 
Q 1028 -725 1275 -790 
Q 1522 -856 1778 -856 
Q 2344 -856 2625 -561 
Q 2906 -266 2906 331 
L 2906 616 
Q 2728 306 2450 153 
Q 2172 0 1784 0 
Q 1141 0 747 490 
Q 353 981 353 1791 
Q 353 2603 747 3093 
Q 1141 3584 1784 3584 
Q 2172 3584 2450 3431 
Q 2728 3278 2906 2969 
L 2906 3500 
L 3481 3500 
L 3481 434 
z
" transform="scale(0.015625)"/>
       </defs>
       <use xlink:href="#DejaVuSans-44"/>
       <use xlink:href="#DejaVuSans-65" transform="translate(77.001953 0)"/>
       <use xlink:href="#DejaVuSans-76" transform="translate(138.525391 0)"/>
       <use xlink:href="#DejaVuSans-65" transform="translate(197.705078 0)"/>
       <use xlink:href="#DejaVuSans-6c" transform="translate(259.228516 0)"/>
       <use xlink:href="#DejaVuSans-6f" transform="translate(287.011719 0)"/>
       <use xlink:href="#DejaVuSans-70" transform="translate(348.193359 0)"/>
       <use xlink:href="#DejaVuSans-6d" transform="translate(411.669922 0)"/>
       <use xlink:href="#DejaVuSans-65" transform="translate(509.082031 0)"/>
       <use xlink:href="#DejaVuSans-6e" transform="translate(570.605469 0)"/>
       <use xlink:href="#DejaVuSans-74" transform="translate(633.984375 0)"/>
       <use xlink:href="#DejaVuSans-61" transform="translate(673.193359 0)"/>
       <use xlink:href="#DejaVuSans-6c" transform="translate(734.472656 0)"/>
       <use xlink:href="#DejaVuSans-20" transform="translate(762.255859 0)"/>
       <use xlink:href="#DejaVuSans-72" transform="translate(794.042969 0)"/>
       <use xlink:href="#DejaVuSans-65" transform="translate(832.90625 0)"/>
       <use xlink:href="#DejaVuSans-67" transform="translate(894.429688 0)"/>
       <use xlink:href="#DejaVuSans-72" transform="translate(957.90625 0)"/>
       <use xlink:href="#DejaVuSans-65" transform="translate(996.769531 0)"/>
       <use xlink:href="#DejaVuSans-73" transform="translate(1058.292969 0)"/>
       <use xlink:href="#DejaVuSans-73" transform="translate(1110.392578 0)"/>
       <use xlink:href="#DejaVuSans-69" transform="translate(1162.492188 0)"/>
       <use xlink:href="#DejaVuSans-6f" transform="translate(1190.275391 0)"/>
       <use xlink:href="#DejaVuSans-6e" transform="translate(1251.457031 0)"/>
      </g>
     </g>
    </g>
    <g id="ytick_20">
     <g id="line2d_29">
      <g>
       <use xlink:href="#m97f4b90415" x="182.95625" y="276.334125" style="stroke: #000000; stroke-width: 0.8"/>
      </g>
     </g>
     <g id="text_30">
      <!-- Dystonia -->
      <g transform="translate(131.845313 280.133344) scale(0.1 -0.1)">
       <use xlink:href="#DejaVuSans-44"/>
       <use xlink:href="#DejaVuSans-79" transform="translate(77.001953 0)"/>
       <use xlink:href="#DejaVuSans-73" transform="translate(136.181641 0)"/>
       <use xlink:href="#DejaVuSans-74" transform="translate(188.28125 0)"/>
       <use xlink:href="#DejaVuSans-6f" transform="translate(227.490234 0)"/>
       <use xlink:href="#DejaVuSans-6e" transform="translate(288.671875 0)"/>
       <use xlink:href="#DejaVuSans-69" transform="translate(352.050781 0)"/>
       <use xlink:href="#DejaVuSans-61" transform="translate(379.833984 0)"/>
      </g>
     </g>
    </g>
   </g>
   <g id="line2d_30"/>
   <g id="line2d_31"/>
   <g id="line2d_32"/>
   <g id="line2d_33"/>
   <g id="line2d_34"/>
   <g id="line2d_35"/>
   <g id="line2d_36"/>
   <g id="line2d_37"/>
   <g id="line2d_38"/>
   <g id="line2d_39"/>
   <g id="line2d_40"/>
   <g id="line2d_41"/>
   <g id="line2d_42"/>
   <g id="patch_3">
    <path d="M 182.95625 288.430125 
L 182.95625 22.318125 
" style="fill: none; stroke: #000000; stroke-width: 0.8; stroke-linejoin: miter; stroke-linecap: square"/>
   </g>
   <g id="patch_4">
    <path d="M 540.07625 288.430125 
L 540.07625 22.318125 
" style="fill: none; stroke: #000000; stroke-width: 0.8; stroke-linejoin: miter; stroke-linecap: square"/>
   </g>
   <g id="patch_5">
    <path d="M 182.95625 288.430125 
L 540.07625 288.430125 
" style="fill: none; stroke: #000000; stroke-width: 0.8; stroke-linejoin: miter; stroke-linecap: square"/>
   </g>
   <g id="patch_6">
    <path d="M 182.95625 22.318125 
L 540.07625 22.318125 
" style="fill: none; stroke: #000000; stroke-width: 0.8; stroke-linejoin: miter; stroke-linecap: square"/>
   </g>
   <g id="text_31">
    <!-- Top 20 Enriched Phenotypes -->
    <g transform="translate(276.59 16.318125) scale(0.12 -0.12)">
     <use xlink:href="#DejaVuSans-54"/>
     <use xlink:href="#DejaVuSans-6f" transform="translate(44.083984 0)"/>
     <use xlink:href="#DejaVuSans-70" transform="translate(105.265625 0)"/>
     <use xlink:href="#DejaVuSans-20" transform="translate(168.742188 0)"/>
     <use xlink:href="#DejaVuSans-32" transform="translate(200.529297 0)"/>
     <use xlink:href="#DejaVuSans-30" transform="translate(264.152344 0)"/>
     <use xlink:href="#DejaVuSans-20" transform="translate(327.775391 0)"/>
     <use xlink:href="#DejaVuSans-45" transform="translate(359.5625 0)"/>
     <use xlink:href="#DejaVuSans-6e" transform="translate(422.746094 0)"/>
     <use xlink:href="#DejaVuSans-72" transform="translate(486.125 0)"/>
     <use xlink:href="#DejaVuSans-69" transform="translate(527.238281 0)"/>
     <use xlink:href="#DejaVuSans-63" transform="translate(555.021484 0)"/>
     <use xlink:href="#DejaVuSans-68" transform="translate(610.001953 0)"/>
     <use xlink:href="#DejaVuSans-65" transform="translate(673.380859 0)"/>
     <use xlink:href="#DejaVuSans-64" transform="translate(734.904297 0)"/>
     <use xlink:href="#DejaVuSans-20" transform="translate(798.380859 0)"/>
     <use xlink:href="#DejaVuSans-50" transform="translate(830.167969 0)"/>
     <use xlink:href="#DejaVuSans-68" transform="translate(890.470703 0)"/>
     <use xlink:href="#DejaVuSans-65" transform="translate(953.849609 0)"/>
     <use xlink:href="#DejaVuSans-6e" transform="translate(1015.373047 0)"/>
     <use xlink:href="#DejaVuSans-6f" transform="translate(1078.751953 0)"/>
     <use xlink:href="#DejaVuSans-74" transform="translate(1139.933594 0)"/>
     <use xlink:href="#DejaVuSans-79" transform="translate(1179.142578 0)"/>
     <use xlink:href="#DejaVuSans-70" transform="translate(1238.322266 0)"/>
     <use xlink:href="#DejaVuSans-65" transform="translate(1301.798828 0)"/>
     <use xlink:href="#DejaVuSans-73" transform="translate(1363.322266 0)"/>
    </g>
   </g>
   <g id="legend_1">
    <g id="patch_7">
     <path d="M 547.07625 221.13375 
L 634.315313 221.13375 
Q 636.315313 221.13375 636.315313 219.13375 
L 636.315313 29.318125 
Q 636.315313 27.318125 634.315313 27.318125 
L 547.07625 27.318125 
Q 545.07625 27.318125 545.07625 29.318125 
L 545.07625 219.13375 
Q 545.07625 221.13375 547.07625 221.13375 
z
" style="fill: #ffffff; opacity: 0.8; stroke: #cccccc; stroke-linejoin: miter"/>
    </g>
    <g id="line2d_43"/>
    <g id="text_32">
     <!-- -log10 FDR -->
     <g transform="translate(577.07625 38.916562) scale(0.1 -0.1)">
      <defs>
       <path id="DejaVuSans-52" d="M 2841 2188 
Q 3044 2119 3236 1894 
Q 3428 1669 3622 1275 
L 4263 0 
L 3584 0 
L 2988 1197 
Q 2756 1666 2539 1819 
Q 2322 1972 1947 1972 
L 1259 1972 
L 1259 0 
L 628 0 
L 628 4666 
L 2053 4666 
Q 2853 4666 3247 4331 
Q 3641 3997 3641 3322 
Q 3641 2881 3436 2590 
Q 3231 2300 2841 2188 
z
M 1259 4147 
L 1259 2491 
L 2053 2491 
Q 2509 2491 2742 2702 
Q 2975 2913 2975 3322 
Q 2975 3731 2742 3939 
Q 2509 4147 2053 4147 
L 1259 4147 
z
" transform="scale(0.015625)"/>
      </defs>
      <use xlink:href="#DejaVuSans-2d"/>
      <use xlink:href="#DejaVuSans-6c" transform="translate(36.083984 0)"/>
      <use xlink:href="#DejaVuSans-6f" transform="translate(63.867188 0)"/>
      <use xlink:href="#DejaVuSans-67" transform="translate(125.048828 0)"/>
      <use xlink:href="#DejaVuSans-31" transform="translate(188.525391 0)"/>
      <use xlink:href="#DejaVuSans-30" transform="translate(252.148438 0)"/>
      <use xlink:href="#DejaVuSans-20" transform="translate(315.771484 0)"/>
      <use xlink:href="#DejaVuSans-46" transform="translate(347.558594 0)"/>
      <use xlink:href="#DejaVuSans-44" transform="translate(405.078125 0)"/>
      <use xlink:href="#DejaVuSans-52" transform="translate(482.080078 0)"/>
     </g>
    </g>
    <g id="line2d_44">
     <defs>
      <path id="mbc00dfaa1e" d="M 0 3 
C 0.795609 3 1.55874 2.683901 2.12132 2.12132 
C 2.683901 1.55874 3 0.795609 3 0 
C 3 -0.795609 2.683901 -1.55874 2.12132 -2.12132 
C 1.55874 -2.683901 0.795609 -3 0 -3 
C -0.795609 -3 -1.55874 -2.683901 -2.12132 -2.12132 
C -2.683901 -1.55874 -3 -0.795609 -3 0 
C -3 0.795609 -2.683901 1.55874 -2.12132 2.12132 
C -1.55874 2.683901 -0.795609 3 0 3 
z
" style="stroke: #ffffff; stroke-width: 0.519547"/>
     </defs>
     <g>
      <use xlink:href="#mbc00dfaa1e" x="559.07625" y="50.094688" style="fill: #7295f4; stroke: #ffffff; stroke-width: 0.519547"/>
     </g>
    </g>
    <g id="text_33">
     <!-- 4.8 -->
     <g transform="translate(577.07625 53.594688) scale(0.1 -0.1)">
      <defs>
       <path id="DejaVuSans-2e" d="M 684 794 
L 1344 794 
L 1344 0 
L 684 0 
L 684 794 
z
" transform="scale(0.015625)"/>
      </defs>
      <use xlink:href="#DejaVuSans-34"/>
      <use xlink:href="#DejaVuSans-2e" transform="translate(63.623047 0)"/>
      <use xlink:href="#DejaVuSans-38" transform="translate(95.410156 0)"/>
     </g>
    </g>
    <g id="line2d_45">
     <defs>
      <path id="m25ac59240d" d="M 0 3 
C 0.795609 3 1.55874 2.683901 2.12132 2.12132 
C 2.683901 1.55874 3 0.795609 3 0 
C 3 -0.795609 2.683901 -1.55874 2.12132 -2.12132 
C 1.55874 -2.683901 0.795609 -3 0 -3 
C -0.795609 -3 -1.55874 -2.683901 -2.12132 -2.12132 
C -2.683901 -1.55874 -3 -0.795609 -3 0 
C -3 0.795609 -2.683901 1.55874 -2.12132 2.12132 
C -1.55874 2.683901 -0.795609 3 0 3 
z
" style="stroke: #ffffff; stroke-width: 0.519547"/>
     </defs>
     <g>
      <use xlink:href="#m25ac59240d" x="559.07625" y="64.772812" style="fill: #b1cbfc; stroke: #ffffff; stroke-width: 0.519547"/>
     </g>
    </g>
    <g id="text_34">
     <!-- 5.6 -->
     <g transform="translate(577.07625 68.272812) scale(0.1 -0.1)">
      <use xlink:href="#DejaVuSans-35"/>
      <use xlink:href="#DejaVuSans-2e" transform="translate(63.623047 0)"/>
      <use xlink:href="#DejaVuSans-36" transform="translate(95.410156 0)"/>
     </g>
    </g>
    <g id="line2d_46">
     <defs>
      <path id="md420457818" d="M 0 3 
C 0.795609 3 1.55874 2.683901 2.12132 2.12132 
C 2.683901 1.55874 3 0.795609 3 0 
C 3 -0.795609 2.683901 -1.55874 2.12132 -2.12132 
C 1.55874 -2.683901 0.795609 -3 0 -3 
C -0.795609 -3 -1.55874 -2.683901 -2.12132 -2.12132 
C -2.683901 -1.55874 -3 -0.795609 -3 0 
C -3 0.795609 -2.683901 1.55874 -2.12132 2.12132 
C -1.55874 2.683901 -0.795609 3 0 3 
z
" style="stroke: #ffffff; stroke-width: 0.519547"/>
     </defs>
     <g>
      <use xlink:href="#md420457818" x="559.07625" y="79.450938" style="fill: #e4d9d2; stroke: #ffffff; stroke-width: 0.519547"/>
     </g>
    </g>
    <g id="text_35">
     <!-- 6.4 -->
     <g transform="translate(577.07625 82.950938) scale(0.1 -0.1)">
      <use xlink:href="#DejaVuSans-36"/>
      <use xlink:href="#DejaVuSans-2e" transform="translate(63.623047 0)"/>
      <use xlink:href="#DejaVuSans-34" transform="translate(95.410156 0)"/>
     </g>
    </g>
    <g id="line2d_47">
     <defs>
      <path id="mf9a466d789" d="M 0 3 
C 0.795609 3 1.55874 2.683901 2.12132 2.12132 
C 2.683901 1.55874 3 0.795609 3 0 
C 3 -0.795609 2.683901 -1.55874 2.12132 -2.12132 
C 1.55874 -2.683901 0.795609 -3 0 -3 
C -0.795609 -3 -1.55874 -2.683901 -2.12132 -2.12132 
C -2.683901 -1.55874 -3 -0.795609 -3 0 
C -3 0.795609 -2.683901 1.55874 -2.12132 2.12132 
C -1.55874 2.683901 -0.795609 3 0 3 
z
" style="stroke: #ffffff; stroke-width: 0.519547"/>
     </defs>
     <g>
      <use xlink:href="#mf9a466d789" x="559.07625" y="94.129063" style="fill: #f7a98b; stroke: #ffffff; stroke-width: 0.519547"/>
     </g>
    </g>
    <g id="text_36">
     <!-- 7.2 -->
     <g transform="translate(577.07625 97.629063) scale(0.1 -0.1)">
      <use xlink:href="#DejaVuSans-37"/>
      <use xlink:href="#DejaVuSans-2e" transform="translate(63.623047 0)"/>
      <use xlink:href="#DejaVuSans-32" transform="translate(95.410156 0)"/>
     </g>
    </g>
    <g id="line2d_48">
     <defs>
      <path id="m7b8ee04d0a" d="M 0 3 
C 0.795609 3 1.55874 2.683901 2.12132 2.12132 
C 2.683901 1.55874 3 0.795609 3 0 
C 3 -0.795609 2.683901 -1.55874 2.12132 -2.12132 
C 1.55874 -2.683901 0.795609 -3 0 -3 
C -0.795609 -3 -1.55874 -2.683901 -2.12132 -2.12132 
C -2.683901 -1.55874 -3 -0.795609 -3 0 
C -3 0.795609 -2.683901 1.55874 -2.12132 2.12132 
C -1.55874 2.683901 -0.795609 3 0 3 
z
" style="stroke: #ffffff; stroke-width: 0.519547"/>
     </defs>
     <g>
      <use xlink:href="#m7b8ee04d0a" x="559.07625" y="108.807187" style="fill: #d95847; stroke: #ffffff; stroke-width: 0.519547"/>
     </g>
    </g>
    <g id="text_37">
     <!-- 8.0 -->
     <g transform="translate(577.07625 112.307187) scale(0.1 -0.1)">
      <use xlink:href="#DejaVuSans-38"/>
      <use xlink:href="#DejaVuSans-2e" transform="translate(63.623047 0)"/>
      <use xlink:href="#DejaVuSans-30" transform="translate(95.410156 0)"/>
     </g>
    </g>
    <g id="line2d_49"/>
    <g id="text_38">
     <!-- Gene Ratio -->
     <g transform="translate(577.07625 126.985313) scale(0.1 -0.1)">
      <use xlink:href="#DejaVuSans-47"/>
      <use xlink:href="#DejaVuSans-65" transform="translate(77.490234 0)"/>
      <use xlink:href="#DejaVuSans-6e" transform="translate(139.013672 0)"/>
      <use xlink:href="#DejaVuSans-65" transform="translate(202.392578 0)"/>
      <use xlink:href="#DejaVuSans-20" transform="translate(263.916016 0)"/>
      <use xlink:href="#DejaVuSans-52" transform="translate(295.703125 0)"/>
      <use xlink:href="#DejaVuSans-61" transform="translate(362.935547 0)"/>
      <use xlink:href="#DejaVuSans-74" transform="translate(424.214844 0)"/>
      <use xlink:href="#DejaVuSans-69" transform="translate(463.423828 0)"/>
      <use xlink:href="#DejaVuSans-6f" transform="translate(491.207031 0)"/>
     </g>
    </g>
    <g id="line2d_50">
     <defs>
      <path id="m3edc4b9f23" d="M 0 2.618093 
C 0.694326 2.618093 1.360309 2.342234 1.851271 1.851271 
C 2.342234 1.360309 2.618093 0.694326 2.618093 0 
C 2.618093 -0.694326 2.342234 -1.360309 1.851271 -1.851271 
C 1.360309 -2.342234 0.694326 -2.618093 0 -2.618093 
C -0.694326 -2.618093 -1.360309 -2.342234 -1.851271 -1.851271 
C -2.342234 -1.360309 -2.618093 -0.694326 -2.618093 0 
C -2.618093 0.694326 -2.342234 1.360309 -1.851271 1.851271 
C -1.360309 2.342234 -0.694326 2.618093 0 2.618093 
z
" style="stroke: #ffffff; stroke-width: 0.519547"/>
     </defs>
     <g>
      <use xlink:href="#m3edc4b9f23" x="559.07625" y="138.163437" style="fill: #333333; stroke: #ffffff; stroke-width: 0.519547"/>
     </g>
    </g>
    <g id="text_39">
     <!-- 0.03 -->
     <g transform="translate(577.07625 141.663437) scale(0.1 -0.1)">
      <defs>
       <path id="DejaVuSans-33" d="M 2597 2516 
Q 3050 2419 3304 2112 
Q 3559 1806 3559 1356 
Q 3559 666 3084 287 
Q 2609 -91 1734 -91 
Q 1441 -91 1130 -33 
Q 819 25 488 141 
L 488 750 
Q 750 597 1062 519 
Q 1375 441 1716 441 
Q 2309 441 2620 675 
Q 2931 909 2931 1356 
Q 2931 1769 2642 2001 
Q 2353 2234 1838 2234 
L 1294 2234 
L 1294 2753 
L 1863 2753 
Q 2328 2753 2575 2939 
Q 2822 3125 2822 3475 
Q 2822 3834 2567 4026 
Q 2313 4219 1838 4219 
Q 1578 4219 1281 4162 
Q 984 4106 628 3988 
L 628 4550 
Q 988 4650 1302 4700 
Q 1616 4750 1894 4750 
Q 2613 4750 3031 4423 
Q 3450 4097 3450 3541 
Q 3450 3153 3228 2886 
Q 3006 2619 2597 2516 
z
" transform="scale(0.015625)"/>
      </defs>
      <use xlink:href="#DejaVuSans-30"/>
      <use xlink:href="#DejaVuSans-2e" transform="translate(63.623047 0)"/>
      <use xlink:href="#DejaVuSans-30" transform="translate(95.410156 0)"/>
      <use xlink:href="#DejaVuSans-33" transform="translate(159.033203 0)"/>
     </g>
    </g>
    <g id="line2d_51">
     <defs>
      <path id="m1a824504be" d="M 0 3.545503 
C 0.940278 3.545503 1.842172 3.171926 2.507049 2.507049 
C 3.171926 1.842172 3.545503 0.940278 3.545503 0 
C 3.545503 -0.940278 3.171926 -1.842172 2.507049 -2.507049 
C 1.842172 -3.171926 0.940278 -3.545503 0 -3.545503 
C -0.940278 -3.545503 -1.842172 -3.171926 -2.507049 -2.507049 
C -3.171926 -1.842172 -3.545503 -0.940278 -3.545503 0 
C -3.545503 0.940278 -3.171926 1.842172 -2.507049 2.507049 
C -1.842172 3.171926 -0.940278 3.545503 0 3.545503 
z
" style="stroke: #ffffff; stroke-width: 0.519547"/>
     </defs>
     <g>
      <use xlink:href="#m1a824504be" x="559.07625" y="152.841563" style="fill: #333333; stroke: #ffffff; stroke-width: 0.519547"/>
     </g>
    </g>
    <g id="text_40">
     <!-- 0.04 -->
     <g transform="translate(577.07625 156.341563) scale(0.1 -0.1)">
      <use xlink:href="#DejaVuSans-30"/>
      <use xlink:href="#DejaVuSans-2e" transform="translate(63.623047 0)"/>
      <use xlink:href="#DejaVuSans-30" transform="translate(95.410156 0)"/>
      <use xlink:href="#DejaVuSans-34" transform="translate(159.033203 0)"/>
     </g>
    </g>
    <g id="line2d_52">
     <defs>
      <path id="mcf24e6933d" d="M 0 4.276303 
C 1.134089 4.276303 2.221881 3.825724 3.023803 3.023803 
C 3.825724 2.221881 4.276303 1.134089 4.276303 0 
C 4.276303 -1.134089 3.825724 -2.221881 3.023803 -3.023803 
C 2.221881 -3.825724 1.134089 -4.276303 0 -4.276303 
C -1.134089 -4.276303 -2.221881 -3.825724 -3.023803 -3.023803 
C -3.825724 -2.221881 -4.276303 -1.134089 -4.276303 0 
C -4.276303 1.134089 -3.825724 2.221881 -3.023803 3.023803 
C -2.221881 3.825724 -1.134089 4.276303 0 4.276303 
z
" style="stroke: #ffffff; stroke-width: 0.519547"/>
     </defs>
     <g>
      <use xlink:href="#mcf24e6933d" x="559.07625" y="167.519687" style="fill: #333333; stroke: #ffffff; stroke-width: 0.519547"/>
     </g>
    </g>
    <g id="text_41">
     <!-- 0.05 -->
     <g transform="translate(577.07625 171.019687) scale(0.1 -0.1)">
      <use xlink:href="#DejaVuSans-30"/>
      <use xlink:href="#DejaVuSans-2e" transform="translate(63.623047 0)"/>
      <use xlink:href="#DejaVuSans-30" transform="translate(95.410156 0)"/>
      <use xlink:href="#DejaVuSans-35" transform="translate(159.033203 0)"/>
     </g>
    </g>
    <g id="line2d_53">
     <defs>
      <path id="m0a12d0699e" d="M 0 4.89928 
C 1.299304 4.89928 2.545567 4.383061 3.464314 3.464314 
C 4.383061 2.545567 4.89928 1.299304 4.89928 0 
C 4.89928 -1.299304 4.383061 -2.545567 3.464314 -3.464314 
C 2.545567 -4.383061 1.299304 -4.89928 0 -4.89928 
C -1.299304 -4.89928 -2.545567 -4.383061 -3.464314 -3.464314 
C -4.383061 -2.545567 -4.89928 -1.299304 -4.89928 0 
C -4.89928 1.299304 -4.383061 2.545567 -3.464314 3.464314 
C -2.545567 4.383061 -1.299304 4.89928 0 4.89928 
z
" style="stroke: #ffffff; stroke-width: 0.519547"/>
     </defs>
     <g>
      <use xlink:href="#m0a12d0699e" x="559.07625" y="182.197812" style="fill: #333333; stroke: #ffffff; stroke-width: 0.519547"/>
     </g>
    </g>
    <g id="text_42">
     <!-- 0.06 -->
     <g transform="translate(577.07625 185.697812) scale(0.1 -0.1)">
      <use xlink:href="#DejaVuSans-30"/>
      <use xlink:href="#DejaVuSans-2e" transform="translate(63.623047 0)"/>
      <use xlink:href="#DejaVuSans-30" transform="translate(95.410156 0)"/>
      <use xlink:href="#DejaVuSans-36" transform="translate(159.033203 0)"/>
     </g>
    </g>
    <g id="line2d_54">
     <defs>
      <path id="md4b3c3fa25" d="M 0 5.451524 
C 1.445761 5.451524 2.832502 4.877117 3.85481 3.85481 
C 4.877117 2.832502 5.451524 1.445761 5.451524 0 
C 5.451524 -1.445761 4.877117 -2.832502 3.85481 -3.85481 
C 2.832502 -4.877117 1.445761 -5.451524 0 -5.451524 
C -1.445761 -5.451524 -2.832502 -4.877117 -3.85481 -3.85481 
C -4.877117 -2.832502 -5.451524 -1.445761 -5.451524 0 
C -5.451524 1.445761 -4.877117 2.832502 -3.85481 3.85481 
C -2.832502 4.877117 -1.445761 5.451524 0 5.451524 
z
" style="stroke: #ffffff; stroke-width: 0.519547"/>
     </defs>
     <g>
      <use xlink:href="#md4b3c3fa25" x="559.07625" y="196.875937" style="fill: #333333; stroke: #ffffff; stroke-width: 0.519547"/>
     </g>
    </g>
    <g id="text_43">
     <!-- 0.07 -->
     <g transform="translate(577.07625 200.375937) scale(0.1 -0.1)">
      <use xlink:href="#DejaVuSans-30"/>
      <use xlink:href="#DejaVuSans-2e" transform="translate(63.623047 0)"/>
      <use xlink:href="#DejaVuSans-30" transform="translate(95.410156 0)"/>
      <use xlink:href="#DejaVuSans-37" transform="translate(159.033203 0)"/>
     </g>
    </g>
    <g id="line2d_55">
     <defs>
      <path id="mac54544c68" d="M 0 5.952755 
C 1.578689 5.952755 3.092932 5.325535 4.209234 4.209234 
C 5.325535 3.092932 5.952755 1.578689 5.952755 0 
C 5.952755 -1.578689 5.325535 -3.092932 4.209234 -4.209234 
C 3.092932 -5.325535 1.578689 -5.952755 0 -5.952755 
C -1.578689 -5.952755 -3.092932 -5.325535 -4.209234 -4.209234 
C -5.325535 -3.092932 -5.952755 -1.578689 -5.952755 0 
C -5.952755 1.578689 -5.325535 3.092932 -4.209234 4.209234 
C -3.092932 5.325535 -1.578689 5.952755 0 5.952755 
z
" style="stroke: #ffffff; stroke-width: 0.519547"/>
     </defs>
     <g>
      <use xlink:href="#mac54544c68" x="559.07625" y="211.554062" style="fill: #333333; stroke: #ffffff; stroke-width: 0.519547"/>
     </g>
    </g>
    <g id="text_44">
     <!-- 0.08 -->
     <g transform="translate(577.07625 215.054062) scale(0.1 -0.1)">
      <use xlink:href="#DejaVuSans-30"/>
      <use xlink:href="#DejaVuSans-2e" transform="translate(63.623047 0)"/>
      <use xlink:href="#DejaVuSans-30" transform="translate(95.410156 0)"/>
      <use xlink:href="#DejaVuSans-38" transform="translate(159.033203 0)"/>
     </g>
    </g>
   </g>
  </g>
 </g>
 <defs>
  <clipPath id="p6c2db3dec6">
   <rect x="182.95625" y="22.318125" width="357.12" height="266.112"/>
  </clipPath>
 </defs>
</svg>
