<?xml version="1.0" encoding="utf-8" standalone="no"?>
<!DOCTYPE svg PUBLIC "-//W3C//DTD SVG 1.1//EN"
  "http://www.w3.org/Graphics/SVG/1.1/DTD/svg11.dtd">
<svg xmlns:xlink="http://www.w3.org/1999/xlink" width="667.766875pt" height="325.986375pt" viewBox="0 0 667.766875 325.986375" xmlns="http://www.w3.org/2000/svg" version="1.1">
 <metadata>
  <rdf:RDF xmlns:dc="http://purl.org/dc/elements/1.1/" xmlns:cc="http://creativecommons.org/ns#" xmlns:rdf="http://www.w3.org/1999/02/22-rdf-syntax-ns#">
   <cc:Work>
    <dc:type rdf:resource="http://purl.org/dc/dcmitype/StillImage"/>
    <dc:date>2026-01-06T22:29:24.562213</dc:date>
    <dc:format>image/svg+xml</dc:format>
    <dc:creator>
     <cc:Agent>
      <dc:title>Matplotlib v3.10.7, https://matplotlib.org/</dc:title>
     </cc:Agent>
    </dc:creator>
   </cc:Work>
  </rdf:RDF>
 </metadata>
 <defs>
  <style type="text/css">*{stroke-linejoin: round; stroke-linecap: butt}</style>
 </defs>
 <g id="figure_1">
  <g id="patch_1">
   <path d="M 0 325.986375 
L 667.766875 325.986375 
L 667.766875 0 
L 0 0 
z
" style="fill: #ffffff"/>
  </g>
  <g id="axes_1">
   <g id="patch_2">
    <path d="M 207.207812 288.430125 
L 564.327812 288.430125 
L 564.327812 22.318125 
L 207.207812 22.318125 
z
" style="fill: #ffffff"/>
   </g>
   <g id="PathCollection_1">
    <path d="M 548.095085 36.650193 
C 548.688097 36.650193 549.256901 36.414587 549.676224 35.995264 
C 550.095547 35.575941 550.331153 35.007137 550.331153 34.414125 
C 550.331153 33.821113 550.095547 33.252309 549.676224 32.832986 
C 549.256901 32.413663 548.688097 32.178057 548.095085 32.178057 
C 547.502073 32.178057 546.933269 32.413663 546.513946 32.832986 
C 546.094623 33.252309 545.859017 33.821113 545.859017 34.414125 
C 545.859017 35.007137 546.094623 35.575941 546.513946 35.995264 
C 546.933269 36.414587 547.502073 36.650193 548.095085 36.650193 
z
" clip-path="url(#pa4ec1a801f)" style="fill: #4358cb; stroke: #ffffff; stroke-width: 0.406782"/>
    <path d="M 510.854011 49.789621 
C 511.554906 49.789621 512.22719 49.511152 512.722798 49.015544 
C 513.218406 48.519936 513.496875 47.847652 513.496875 47.146757 
C 513.496875 46.445861 513.218406 45.773577 512.722798 45.277969 
C 512.22719 44.782361 511.554906 44.503892 510.854011 44.503892 
C 510.153115 44.503892 509.480831 44.782361 508.985223 45.277969 
C 508.489615 45.773577 508.211146 46.445861 508.211146 47.146757 
C 508.211146 47.847652 508.489615 48.519936 508.985223 49.015544 
C 509.480831 49.511152 510.153115 49.789621 510.854011 49.789621 
z
" clip-path="url(#pa4ec1a801f)" style="fill: #6485ec; stroke: #ffffff; stroke-width: 0.406782"/>
    <path d="M 490.307211 62.568779 
C 491.020446 62.568779 491.704564 62.285408 492.208897 61.781075 
C 492.713231 61.276742 492.996602 60.592623 492.996602 59.879388 
C 492.996602 59.166153 492.713231 58.482035 492.208897 57.977701 
C 491.704564 57.473368 491.020446 57.189997 490.307211 57.189997 
C 489.593976 57.189997 488.909857 57.473368 488.405524 57.977701 
C 487.901191 58.482035 487.61782 59.166153 487.61782 59.879388 
C 487.61782 60.592623 487.901191 61.276742 488.405524 61.781075 
C 488.909857 62.285408 489.593976 62.568779 490.307211 62.568779 
z
" clip-path="url(#pa4ec1a801f)" style="fill: #6485ec; stroke: #ffffff; stroke-width: 0.406782"/>
    <path d="M 363.751765 76.0684 
C 364.668408 76.0684 365.547631 75.704214 366.195795 75.05605 
C 366.84396 74.407885 367.208146 73.528663 367.208146 72.61202 
C 367.208146 71.695377 366.84396 70.816154 366.195795 70.16799 
C 365.547631 69.519825 364.668408 69.155639 363.751765 69.155639 
C 362.835123 69.155639 361.9559 69.519825 361.307735 70.16799 
C 360.659571 70.816154 360.295385 71.695377 360.295385 72.61202 
C 360.295385 73.528663 360.659571 74.407885 361.307735 75.05605 
C 361.9559 75.704214 362.835123 76.0684 363.751765 76.0684 
z
" clip-path="url(#pa4ec1a801f)" style="fill: #8fb1fe; stroke: #ffffff; stroke-width: 0.406782"/>
    <path d="M 350.823792 88.034042 
C 351.537027 88.034042 352.221146 87.750671 352.725479 87.246338 
C 353.229812 86.742005 353.513183 86.057886 353.513183 85.344651 
C 353.513183 84.631416 353.229812 83.947298 352.725479 83.442965 
C 352.221146 82.938631 351.537027 82.65526 350.823792 82.65526 
C 350.110557 82.65526 349.426439 82.938631 348.922106 83.442965 
C 348.417772 83.947298 348.134401 84.631416 348.134401 85.344651 
C 348.134401 86.057886 348.417772 86.742005 348.922106 87.246338 
C 349.426439 87.750671 350.110557 88.034042 350.823792 88.034042 
z
" clip-path="url(#pa4ec1a801f)" style="fill: #4961d2; stroke: #ffffff; stroke-width: 0.406782"/>
    <path d="M 342.370252 100.575374 
C 343.032753 100.575374 343.66821 100.312159 344.136669 99.8437 
C 344.605128 99.375241 344.868343 98.739784 344.868343 98.077283 
C 344.868343 97.414781 344.605128 96.779325 344.136669 96.310866 
C 343.66821 95.842407 343.032753 95.579192 342.370252 95.579192 
C 341.70775 95.579192 341.072294 95.842407 340.603835 96.310866 
C 340.135376 96.779325 339.872161 97.414781 339.872161 98.077283 
C 339.872161 98.739784 340.135376 99.375241 340.603835 99.8437 
C 341.072294 100.312159 341.70775 100.575374 342.370252 100.575374 
z
" clip-path="url(#pa4ec1a801f)" style="fill: #3c4ec2; stroke: #ffffff; stroke-width: 0.406782"/>
    <path d="M 315.072361 113.63429 
C 315.821394 113.63429 316.539849 113.336696 317.069496 112.80705 
C 317.599142 112.277403 317.896736 111.558948 317.896736 110.809914 
C 317.896736 110.060881 317.599142 109.342426 317.069496 108.812779 
C 316.539849 108.283133 315.821394 107.985539 315.072361 107.985539 
C 314.323327 107.985539 313.604872 108.283133 313.075225 108.812779 
C 312.545579 109.342426 312.247985 110.060881 312.247985 110.809914 
C 312.247985 111.558948 312.545579 112.277403 313.075225 112.80705 
C 313.604872 113.336696 314.323327 113.63429 315.072361 113.63429 
z
" clip-path="url(#pa4ec1a801f)" style="fill: #4b64d5; stroke: #ffffff; stroke-width: 0.406782"/>
    <path d="M 314.382179 126.231937 
C 315.095413 126.231937 315.779532 125.948566 316.283865 125.444233 
C 316.788198 124.9399 317.07157 124.255781 317.07157 123.542546 
C 317.07157 122.829311 316.788198 122.145193 316.283865 121.640859 
C 315.779532 121.136526 315.095413 120.853155 314.382179 120.853155 
C 313.668944 120.853155 312.984825 121.136526 312.480492 121.640859 
C 311.976159 122.145193 311.692787 122.829311 311.692787 123.542546 
C 311.692787 124.255781 311.976159 124.9399 312.480492 125.444233 
C 312.984825 125.948566 313.668944 126.231937 314.382179 126.231937 
z
" clip-path="url(#pa4ec1a801f)" style="fill: #4358cb; stroke: #ffffff; stroke-width: 0.406782"/>
    <path d="M 313.476315 138.822441 
C 314.151857 138.822441 314.799821 138.554045 315.277502 138.076365 
C 315.755182 137.598684 316.023578 136.95072 316.023578 136.275178 
C 316.023578 135.599636 315.755182 134.951671 315.277502 134.473991 
C 314.799821 133.99631 314.151857 133.727914 313.476315 133.727914 
C 312.800772 133.727914 312.152808 133.99631 311.675127 134.473991 
C 311.197447 134.951671 310.929051 135.599636 310.929051 136.275178 
C 310.929051 136.95072 311.197447 137.598684 311.675127 138.076365 
C 312.152808 138.554045 312.800772 138.822441 313.476315 138.822441 
z
" clip-path="url(#pa4ec1a801f)" style="fill: #3b4cc0; stroke: #ffffff; stroke-width: 0.406782"/>
    <path d="M 307.561556 151.603313 
C 308.249891 151.603313 308.910127 151.329835 309.396854 150.843108 
C 309.883581 150.356381 310.15706 149.696145 310.15706 149.007809 
C 310.15706 148.319473 309.883581 147.659238 309.396854 147.172511 
C 308.910127 146.685784 308.249891 146.412305 307.561556 146.412305 
C 306.87322 146.412305 306.212984 146.685784 305.726257 147.172511 
C 305.23953 147.659238 304.966052 148.319473 304.966052 149.007809 
C 304.966052 149.696145 305.23953 150.356381 305.726257 150.843108 
C 306.212984 151.329835 306.87322 151.603313 307.561556 151.603313 
z
" clip-path="url(#pa4ec1a801f)" style="fill: #3c4ec2; stroke: #ffffff; stroke-width: 0.406782"/>
    <path d="M 295.05708 165.941949 
C 296.171333 165.941949 297.240099 165.499252 298.027995 164.711356 
C 298.815891 163.92346 299.258589 162.854694 299.258589 161.740441 
C 299.258589 160.626188 298.815891 159.557422 298.027995 158.769526 
C 297.240099 157.98163 296.171333 157.538933 295.05708 157.538933 
C 293.942827 157.538933 292.874061 157.98163 292.086165 158.769526 
C 291.298269 159.557422 290.855572 160.626188 290.855572 161.740441 
C 290.855572 162.854694 291.298269 163.92346 292.086165 164.711356 
C 292.874061 165.499252 293.942827 165.941949 295.05708 165.941949 
z
" clip-path="url(#pa4ec1a801f)" style="fill: #b9d0f9; stroke: #ffffff; stroke-width: 0.406782"/>
    <path d="M 288.003419 178.462562 
C 289.061445 178.462562 290.076278 178.042205 290.824415 177.294068 
C 291.572552 176.545931 291.992909 175.531097 291.992909 174.473072 
C 291.992909 173.415047 291.572552 172.400214 290.824415 171.652077 
C 290.076278 170.90394 289.061445 170.483582 288.003419 170.483582 
C 286.945394 170.483582 285.930561 170.90394 285.182424 171.652077 
C 284.434287 172.400214 284.013929 173.415047 284.013929 174.473072 
C 284.013929 175.531097 284.434287 176.545931 285.182424 177.294068 
C 285.930561 178.042205 286.945394 178.462562 288.003419 178.462562 
z
" clip-path="url(#pa4ec1a801f)" style="fill: #a1c0ff; stroke: #ffffff; stroke-width: 0.406782"/>
    <path d="M 286.531302 190.200611 
C 287.32556 190.200611 288.087395 189.885048 288.64902 189.323423 
C 289.210646 188.761797 289.526208 187.999962 289.526208 187.205704 
C 289.526208 186.411445 289.210646 185.649611 288.64902 185.087985 
C 288.087395 184.52636 287.32556 184.210797 286.531302 184.210797 
C 285.737043 184.210797 284.975208 184.52636 284.413583 185.087985 
C 283.851957 185.649611 283.536395 186.411445 283.536395 187.205704 
C 283.536395 187.999962 283.851957 188.761797 284.413583 189.323423 
C 284.975208 189.885048 285.737043 190.200611 286.531302 190.200611 
z
" clip-path="url(#pa4ec1a801f)" style="fill: #4f69d9; stroke: #ffffff; stroke-width: 0.406782"/>
    <path d="M 285.394531 204.693806 
C 286.655697 204.693806 287.865378 204.19274 288.757157 203.300961 
C 289.648936 202.409183 290.150002 201.199501 290.150002 199.938336 
C 290.150002 198.67717 289.648936 197.467489 288.757157 196.57571 
C 287.865378 195.683931 286.655697 195.182865 285.394531 195.182865 
C 284.133366 195.182865 282.923684 195.683931 282.031905 196.57571 
C 281.140127 197.467489 280.63906 198.67717 280.63906 199.938336 
C 280.63906 201.199501 281.140127 202.409183 282.031905 203.300961 
C 282.923684 204.19274 284.133366 204.693806 285.394531 204.693806 
z
" clip-path="url(#pa4ec1a801f)" style="fill: #e5d8d1; stroke: #ffffff; stroke-width: 0.406782"/>
    <path d="M 272.971254 218.794691 
C 274.595284 218.794691 276.153018 218.149457 277.301381 217.001094 
C 278.449744 215.852731 279.094978 214.294998 279.094978 212.670967 
C 279.094978 211.046936 278.449744 209.489203 277.301381 208.34084 
C 276.153018 207.192477 274.595284 206.547243 272.971254 206.547243 
C 271.347223 206.547243 269.78949 207.192477 268.641127 208.34084 
C 267.492764 209.489203 266.847529 211.046936 266.847529 212.670967 
C 266.847529 214.294998 267.492764 215.852731 268.641127 217.001094 
C 269.78949 218.149457 271.347223 218.794691 272.971254 218.794691 
z
" clip-path="url(#pa4ec1a801f)" style="fill: #b40426; stroke: #ffffff; stroke-width: 0.406782"/>
    <path d="M 246.44238 228.598896 
C 247.289783 228.598896 248.102592 228.262219 248.701796 227.663015 
C 249.301 227.063811 249.637677 226.251001 249.637677 225.403599 
C 249.637677 224.556196 249.301 223.743387 248.701796 223.144182 
C 248.102592 222.544978 247.289783 222.208302 246.44238 222.208302 
C 245.594977 222.208302 244.782168 222.544978 244.182964 223.144182 
C 243.58376 223.743387 243.247083 224.556196 243.247083 225.403599 
C 243.247083 226.251001 243.58376 227.063811 244.182964 227.663015 
C 244.782168 228.262219 245.594977 228.598896 246.44238 228.598896 
z
" clip-path="url(#pa4ec1a801f)" style="fill: #506bda; stroke: #ffffff; stroke-width: 0.406782"/>
    <path d="M 232.497364 242.53956 
C 233.665141 242.53956 234.785246 242.075597 235.610989 241.249855 
C 236.436732 240.424112 236.900694 239.304007 236.900694 238.13623 
C 236.900694 236.968454 236.436732 235.848349 235.610989 235.022606 
C 234.785246 234.196863 233.665141 233.732901 232.497364 233.732901 
C 231.329588 233.732901 230.209483 234.196863 229.38374 235.022606 
C 228.557997 235.848349 228.094035 236.968454 228.094035 238.13623 
C 228.094035 239.304007 228.557997 240.424112 229.38374 241.249855 
C 230.209483 242.075597 231.329588 242.53956 232.497364 242.53956 
z
" clip-path="url(#pa4ec1a801f)" style="fill: #a2c1ff; stroke: #ffffff; stroke-width: 0.406782"/>
    <path d="M 229.176064 254.667214 
C 230.183398 254.667214 231.149611 254.266996 231.861904 253.554703 
C 232.574198 252.842409 232.974416 251.876197 232.974416 250.868862 
C 232.974416 249.861527 232.574198 248.895314 231.861904 248.183021 
C 231.149611 247.470728 230.183398 247.070509 229.176064 247.070509 
C 228.168729 247.070509 227.202516 247.470728 226.490223 248.183021 
C 225.77793 248.895314 225.377711 249.861527 225.377711 250.868862 
C 225.377711 251.876197 225.77793 252.842409 226.490223 253.554703 
C 227.202516 254.266996 228.168729 254.667214 229.176064 254.667214 
z
" clip-path="url(#pa4ec1a801f)" style="fill: #6f92f3; stroke: #ffffff; stroke-width: 0.406782"/>
    <path d="M 229.176064 266.796791 
C 230.023466 266.796791 230.836276 266.460114 231.43548 265.86091 
C 232.034684 265.261705 232.371361 264.448896 232.371361 263.601493 
C 232.371361 262.754091 232.034684 261.941281 231.43548 261.342077 
C 230.836276 260.742873 230.023466 260.406196 229.176064 260.406196 
C 228.328661 260.406196 227.515852 260.742873 226.916647 261.342077 
C 226.317443 261.941281 225.980766 262.754091 225.980766 263.601493 
C 225.980766 264.448896 226.317443 265.261705 226.916647 265.86091 
C 227.515852 266.460114 228.328661 266.796791 229.176064 266.796791 
z
" clip-path="url(#pa4ec1a801f)" style="fill: #4b64d5; stroke: #ffffff; stroke-width: 0.406782"/>
    <path d="M 223.44054 279.202084 
C 224.201131 279.202084 224.930674 278.899898 225.468493 278.362079 
C 226.006313 277.824259 226.308499 277.094717 226.308499 276.334125 
C 226.308499 275.573533 226.006313 274.843991 225.468493 274.306171 
C 224.930674 273.768352 224.201131 273.466166 223.44054 273.466166 
C 222.679948 273.466166 221.950406 273.768352 221.412586 274.306171 
C 220.874767 274.843991 220.57258 275.573533 220.57258 276.334125 
C 220.57258 277.094717 220.874767 277.824259 221.412586 278.362079 
C 221.950406 278.899898 222.679948 279.202084 223.44054 279.202084 
z
" clip-path="url(#pa4ec1a801f)" style="fill: #3b4cc0; stroke: #ffffff; stroke-width: 0.406782"/>
   </g>
   <g id="matplotlib.axis_1">
    <g id="xtick_1">
     <g id="line2d_1">
      <defs>
       <path id="md0ccbb4612" d="M 0 0 
L 0 3.5 
" style="stroke: #000000; stroke-width: 0.8"/>
      </defs>
      <g>
       <use xlink:href="#md0ccbb4612" x="232.443237" y="288.430125" style="stroke: #000000; stroke-width: 0.8"/>
      </g>
     </g>
     <g id="text_1">
      <!-- 2.4 -->
      <g transform="translate(224.491674 303.028562) scale(0.1 -0.1)">
       <defs>
        <path id="DejaVuSans-32" d="M 1228 531 
L 3431 531 
L 3431 0 
L 469 0 
L 469 531 
Q 828 903 1448 1529 
Q 2069 2156 2228 2338 
Q 2531 2678 2651 2914 
Q 2772 3150 2772 3378 
Q 2772 3750 2511 3984 
Q 2250 4219 1831 4219 
Q 1534 4219 1204 4116 
Q 875 4013 500 3803 
L 500 4441 
Q 881 4594 1212 4672 
Q 1544 4750 1819 4750 
Q 2544 4750 2975 4387 
Q 3406 4025 3406 3419 
Q 3406 3131 3298 2873 
Q 3191 2616 2906 2266 
Q 2828 2175 2409 1742 
Q 1991 1309 1228 531 
z
" transform="scale(0.015625)"/>
        <path id="DejaVuSans-2e" d="M 684 794 
L 1344 794 
L 1344 0 
L 684 0 
L 684 794 
z
" transform="scale(0.015625)"/>
        <path id="DejaVuSans-34" d="M 2419 4116 
L 825 1625 
L 2419 1625 
L 2419 4116 
z
M 2253 4666 
L 3047 4666 
L 3047 1625 
L 3713 1625 
L 3713 1100 
L 3047 1100 
L 3047 0 
L 2419 0 
L 2419 1100 
L 313 1100 
L 313 1709 
L 2253 4666 
z
" transform="scale(0.015625)"/>
       </defs>
       <use xlink:href="#DejaVuSans-32"/>
       <use xlink:href="#DejaVuSans-2e" transform="translate(63.623047 0)"/>
       <use xlink:href="#DejaVuSans-34" transform="translate(95.410156 0)"/>
      </g>
     </g>
    </g>
    <g id="xtick_2">
     <g id="line2d_2">
      <g>
       <use xlink:href="#md0ccbb4612" x="278.759012" y="288.430125" style="stroke: #000000; stroke-width: 0.8"/>
      </g>
     </g>
     <g id="text_2">
      <!-- 2.6 -->
      <g transform="translate(270.807449 303.028562) scale(0.1 -0.1)">
       <defs>
        <path id="DejaVuSans-36" d="M 2113 2584 
Q 1688 2584 1439 2293 
Q 1191 2003 1191 1497 
Q 1191 994 1439 701 
Q 1688 409 2113 409 
Q 2538 409 2786 701 
Q 3034 994 3034 1497 
Q 3034 2003 2786 2293 
Q 2538 2584 2113 2584 
z
M 3366 4563 
L 3366 3988 
Q 3128 4100 2886 4159 
Q 2644 4219 2406 4219 
Q 1781 4219 1451 3797 
Q 1122 3375 1075 2522 
Q 1259 2794 1537 2939 
Q 1816 3084 2150 3084 
Q 2853 3084 3261 2657 
Q 3669 2231 3669 1497 
Q 3669 778 3244 343 
Q 2819 -91 2113 -91 
Q 1303 -91 875 529 
Q 447 1150 447 2328 
Q 447 3434 972 4092 
Q 1497 4750 2381 4750 
Q 2619 4750 2861 4703 
Q 3103 4656 3366 4563 
z
" transform="scale(0.015625)"/>
       </defs>
       <use xlink:href="#DejaVuSans-32"/>
       <use xlink:href="#DejaVuSans-2e" transform="translate(63.623047 0)"/>
       <use xlink:href="#DejaVuSans-36" transform="translate(95.410156 0)"/>
      </g>
     </g>
    </g>
    <g id="xtick_3">
     <g id="line2d_3">
      <g>
       <use xlink:href="#md0ccbb4612" x="325.074787" y="288.430125" style="stroke: #000000; stroke-width: 0.8"/>
      </g>
     </g>
     <g id="text_3">
      <!-- 2.8 -->
      <g transform="translate(317.123224 303.028562) scale(0.1 -0.1)">
       <defs>
        <path id="DejaVuSans-38" d="M 2034 2216 
Q 1584 2216 1326 1975 
Q 1069 1734 1069 1313 
Q 1069 891 1326 650 
Q 1584 409 2034 409 
Q 2484 409 2743 651 
Q 3003 894 3003 1313 
Q 3003 1734 2745 1975 
Q 2488 2216 2034 2216 
z
M 1403 2484 
Q 997 2584 770 2862 
Q 544 3141 544 3541 
Q 544 4100 942 4425 
Q 1341 4750 2034 4750 
Q 2731 4750 3128 4425 
Q 3525 4100 3525 3541 
Q 3525 3141 3298 2862 
Q 3072 2584 2669 2484 
Q 3125 2378 3379 2068 
Q 3634 1759 3634 1313 
Q 3634 634 3220 271 
Q 2806 -91 2034 -91 
Q 1263 -91 848 271 
Q 434 634 434 1313 
Q 434 1759 690 2068 
Q 947 2378 1403 2484 
z
M 1172 3481 
Q 1172 3119 1398 2916 
Q 1625 2713 2034 2713 
Q 2441 2713 2670 2916 
Q 2900 3119 2900 3481 
Q 2900 3844 2670 4047 
Q 2441 4250 2034 4250 
Q 1625 4250 1398 4047 
Q 1172 3844 1172 3481 
z
" transform="scale(0.015625)"/>
       </defs>
       <use xlink:href="#DejaVuSans-32"/>
       <use xlink:href="#DejaVuSans-2e" transform="translate(63.623047 0)"/>
       <use xlink:href="#DejaVuSans-38" transform="translate(95.410156 0)"/>
      </g>
     </g>
    </g>
    <g id="xtick_4">
     <g id="line2d_4">
      <g>
       <use xlink:href="#md0ccbb4612" x="371.390561" y="288.430125" style="stroke: #000000; stroke-width: 0.8"/>
      </g>
     </g>
     <g id="text_4">
      <!-- 3.0 -->
      <g transform="translate(363.438999 303.028562) scale(0.1 -0.1)">
       <defs>
        <path id="DejaVuSans-33" d="M 2597 2516 
Q 3050 2419 3304 2112 
Q 3559 1806 3559 1356 
Q 3559 666 3084 287 
Q 2609 -91 1734 -91 
Q 1441 -91 1130 -33 
Q 819 25 488 141 
L 488 750 
Q 750 597 1062 519 
Q 1375 441 1716 441 
Q 2309 441 2620 675 
Q 2931 909 2931 1356 
Q 2931 1769 2642 2001 
Q 2353 2234 1838 2234 
L 1294 2234 
L 1294 2753 
L 1863 2753 
Q 2328 2753 2575 2939 
Q 2822 3125 2822 3475 
Q 2822 3834 2567 4026 
Q 2313 4219 1838 4219 
Q 1578 4219 1281 4162 
Q 984 4106 628 3988 
L 628 4550 
Q 988 4650 1302 4700 
Q 1616 4750 1894 4750 
Q 2613 4750 3031 4423 
Q 3450 4097 3450 3541 
Q 3450 3153 3228 2886 
Q 3006 2619 2597 2516 
z
" transform="scale(0.015625)"/>
        <path id="DejaVuSans-30" d="M 2034 4250 
Q 1547 4250 1301 3770 
Q 1056 3291 1056 2328 
Q 1056 1369 1301 889 
Q 1547 409 2034 409 
Q 2525 409 2770 889 
Q 3016 1369 3016 2328 
Q 3016 3291 2770 3770 
Q 2525 4250 2034 4250 
z
M 2034 4750 
Q 2819 4750 3233 4129 
Q 3647 3509 3647 2328 
Q 3647 1150 3233 529 
Q 2819 -91 2034 -91 
Q 1250 -91 836 529 
Q 422 1150 422 2328 
Q 422 3509 836 4129 
Q 1250 4750 2034 4750 
z
" transform="scale(0.015625)"/>
       </defs>
       <use xlink:href="#DejaVuSans-33"/>
       <use xlink:href="#DejaVuSans-2e" transform="translate(63.623047 0)"/>
       <use xlink:href="#DejaVuSans-30" transform="translate(95.410156 0)"/>
      </g>
     </g>
    </g>
    <g id="xtick_5">
     <g id="line2d_5">
      <g>
       <use xlink:href="#md0ccbb4612" x="417.706336" y="288.430125" style="stroke: #000000; stroke-width: 0.8"/>
      </g>
     </g>
     <g id="text_5">
      <!-- 3.2 -->
      <g transform="translate(409.754774 303.028562) scale(0.1 -0.1)">
       <use xlink:href="#DejaVuSans-33"/>
       <use xlink:href="#DejaVuSans-2e" transform="translate(63.623047 0)"/>
       <use xlink:href="#DejaVuSans-32" transform="translate(95.410156 0)"/>
      </g>
     </g>
    </g>
    <g id="xtick_6">
     <g id="line2d_6">
      <g>
       <use xlink:href="#md0ccbb4612" x="464.022111" y="288.430125" style="stroke: #000000; stroke-width: 0.8"/>
      </g>
     </g>
     <g id="text_6">
      <!-- 3.4 -->
      <g transform="translate(456.070549 303.028562) scale(0.1 -0.1)">
       <use xlink:href="#DejaVuSans-33"/>
       <use xlink:href="#DejaVuSans-2e" transform="translate(63.623047 0)"/>
       <use xlink:href="#DejaVuSans-34" transform="translate(95.410156 0)"/>
      </g>
     </g>
    </g>
    <g id="xtick_7">
     <g id="line2d_7">
      <g>
       <use xlink:href="#md0ccbb4612" x="510.337886" y="288.430125" style="stroke: #000000; stroke-width: 0.8"/>
      </g>
     </g>
     <g id="text_7">
      <!-- 3.6 -->
      <g transform="translate(502.386324 303.028562) scale(0.1 -0.1)">
       <use xlink:href="#DejaVuSans-33"/>
       <use xlink:href="#DejaVuSans-2e" transform="translate(63.623047 0)"/>
       <use xlink:href="#DejaVuSans-36" transform="translate(95.410156 0)"/>
      </g>
     </g>
    </g>
    <g id="xtick_8">
     <g id="line2d_8">
      <g>
       <use xlink:href="#md0ccbb4612" x="556.653661" y="288.430125" style="stroke: #000000; stroke-width: 0.8"/>
      </g>
     </g>
     <g id="text_8">
      <!-- 3.8 -->
      <g transform="translate(548.702099 303.028562) scale(0.1 -0.1)">
       <use xlink:href="#DejaVuSans-33"/>
       <use xlink:href="#DejaVuSans-2e" transform="translate(63.623047 0)"/>
       <use xlink:href="#DejaVuSans-38" transform="translate(95.410156 0)"/>
      </g>
     </g>
    </g>
    <g id="text_9">
     <!-- Fold Enrichment -->
     <g transform="translate(345.095156 316.706687) scale(0.1 -0.1)">
      <defs>
       <path id="DejaVuSans-46" d="M 628 4666 
L 3309 4666 
L 3309 4134 
L 1259 4134 
L 1259 2759 
L 3109 2759 
L 3109 2228 
L 1259 2228 
L 1259 0 
L 628 0 
L 628 4666 
z
" transform="scale(0.015625)"/>
       <path id="DejaVuSans-6f" d="M 1959 3097 
Q 1497 3097 1228 2736 
Q 959 2375 959 1747 
Q 959 1119 1226 758 
Q 1494 397 1959 397 
Q 2419 397 2687 759 
Q 2956 1122 2956 1747 
Q 2956 2369 2687 2733 
Q 2419 3097 1959 3097 
z
M 1959 3584 
Q 2709 3584 3137 3096 
Q 3566 2609 3566 1747 
Q 3566 888 3137 398 
Q 2709 -91 1959 -91 
Q 1206 -91 779 398 
Q 353 888 353 1747 
Q 353 2609 779 3096 
Q 1206 3584 1959 3584 
z
" transform="scale(0.015625)"/>
       <path id="DejaVuSans-6c" d="M 603 4863 
L 1178 4863 
L 1178 0 
L 603 0 
L 603 4863 
z
" transform="scale(0.015625)"/>
       <path id="DejaVuSans-64" d="M 2906 2969 
L 2906 4863 
L 3481 4863 
L 3481 0 
L 2906 0 
L 2906 525 
Q 2725 213 2448 61 
Q 2172 -91 1784 -91 
Q 1150 -91 751 415 
Q 353 922 353 1747 
Q 353 2572 751 3078 
Q 1150 3584 1784 3584 
Q 2172 3584 2448 3432 
Q 2725 3281 2906 2969 
z
M 947 1747 
Q 947 1113 1208 752 
Q 1469 391 1925 391 
Q 2381 391 2643 752 
Q 2906 1113 2906 1747 
Q 2906 2381 2643 2742 
Q 2381 3103 1925 3103 
Q 1469 3103 1208 2742 
Q 947 2381 947 1747 
z
" transform="scale(0.015625)"/>
       <path id="DejaVuSans-20" transform="scale(0.015625)"/>
       <path id="DejaVuSans-45" d="M 628 4666 
L 3578 4666 
L 3578 4134 
L 1259 4134 
L 1259 2753 
L 3481 2753 
L 3481 2222 
L 1259 2222 
L 1259 531 
L 3634 531 
L 3634 0 
L 628 0 
L 628 4666 
z
" transform="scale(0.015625)"/>
       <path id="DejaVuSans-6e" d="M 3513 2113 
L 3513 0 
L 2938 0 
L 2938 2094 
Q 2938 2591 2744 2837 
Q 2550 3084 2163 3084 
Q 1697 3084 1428 2787 
Q 1159 2491 1159 1978 
L 1159 0 
L 581 0 
L 581 3500 
L 1159 3500 
L 1159 2956 
Q 1366 3272 1645 3428 
Q 1925 3584 2291 3584 
Q 2894 3584 3203 3211 
Q 3513 2838 3513 2113 
z
" transform="scale(0.015625)"/>
       <path id="DejaVuSans-72" d="M 2631 2963 
Q 2534 3019 2420 3045 
Q 2306 3072 2169 3072 
Q 1681 3072 1420 2755 
Q 1159 2438 1159 1844 
L 1159 0 
L 581 0 
L 581 3500 
L 1159 3500 
L 1159 2956 
Q 1341 3275 1631 3429 
Q 1922 3584 2338 3584 
Q 2397 3584 2469 3576 
Q 2541 3569 2628 3553 
L 2631 2963 
z
" transform="scale(0.015625)"/>
       <path id="DejaVuSans-69" d="M 603 3500 
L 1178 3500 
L 1178 0 
L 603 0 
L 603 3500 
z
M 603 4863 
L 1178 4863 
L 1178 4134 
L 603 4134 
L 603 4863 
z
" transform="scale(0.015625)"/>
       <path id="DejaVuSans-63" d="M 3122 3366 
L 3122 2828 
Q 2878 2963 2633 3030 
Q 2388 3097 2138 3097 
Q 1578 3097 1268 2742 
Q 959 2388 959 1747 
Q 959 1106 1268 751 
Q 1578 397 2138 397 
Q 2388 397 2633 464 
Q 2878 531 3122 666 
L 3122 134 
Q 2881 22 2623 -34 
Q 2366 -91 2075 -91 
Q 1284 -91 818 406 
Q 353 903 353 1747 
Q 353 2603 823 3093 
Q 1294 3584 2113 3584 
Q 2378 3584 2631 3529 
Q 2884 3475 3122 3366 
z
" transform="scale(0.015625)"/>
       <path id="DejaVuSans-68" d="M 3513 2113 
L 3513 0 
L 2938 0 
L 2938 2094 
Q 2938 2591 2744 2837 
Q 2550 3084 2163 3084 
Q 1697 3084 1428 2787 
Q 1159 2491 1159 1978 
L 1159 0 
L 581 0 
L 581 4863 
L 1159 4863 
L 1159 2956 
Q 1366 3272 1645 3428 
Q 1925 3584 2291 3584 
Q 2894 3584 3203 3211 
Q 3513 2838 3513 2113 
z
" transform="scale(0.015625)"/>
       <path id="DejaVuSans-6d" d="M 3328 2828 
Q 3544 3216 3844 3400 
Q 4144 3584 4550 3584 
Q 5097 3584 5394 3201 
Q 5691 2819 5691 2113 
L 5691 0 
L 5113 0 
L 5113 2094 
Q 5113 2597 4934 2840 
Q 4756 3084 4391 3084 
Q 3944 3084 3684 2787 
Q 3425 2491 3425 1978 
L 3425 0 
L 2847 0 
L 2847 2094 
Q 2847 2600 2669 2842 
Q 2491 3084 2119 3084 
Q 1678 3084 1418 2786 
Q 1159 2488 1159 1978 
L 1159 0 
L 581 0 
L 581 3500 
L 1159 3500 
L 1159 2956 
Q 1356 3278 1631 3431 
Q 1906 3584 2284 3584 
Q 2666 3584 2933 3390 
Q 3200 3197 3328 2828 
z
" transform="scale(0.015625)"/>
       <path id="DejaVuSans-65" d="M 3597 1894 
L 3597 1613 
L 953 1613 
Q 991 1019 1311 708 
Q 1631 397 2203 397 
Q 2534 397 2845 478 
Q 3156 559 3463 722 
L 3463 178 
Q 3153 47 2828 -22 
Q 2503 -91 2169 -91 
Q 1331 -91 842 396 
Q 353 884 353 1716 
Q 353 2575 817 3079 
Q 1281 3584 2069 3584 
Q 2775 3584 3186 3129 
Q 3597 2675 3597 1894 
z
M 3022 2063 
Q 3016 2534 2758 2815 
Q 2500 3097 2075 3097 
Q 1594 3097 1305 2825 
Q 1016 2553 972 2059 
L 3022 2063 
z
" transform="scale(0.015625)"/>
       <path id="DejaVuSans-74" d="M 1172 4494 
L 1172 3500 
L 2356 3500 
L 2356 3053 
L 1172 3053 
L 1172 1153 
Q 1172 725 1289 603 
Q 1406 481 1766 481 
L 2356 481 
L 2356 0 
L 1766 0 
Q 1100 0 847 248 
Q 594 497 594 1153 
L 594 3053 
L 172 3053 
L 172 3500 
L 594 3500 
L 594 4494 
L 1172 4494 
z
" transform="scale(0.015625)"/>
      </defs>
      <use xlink:href="#DejaVuSans-46"/>
      <use xlink:href="#DejaVuSans-6f" transform="translate(53.894531 0)"/>
      <use xlink:href="#DejaVuSans-6c" transform="translate(115.076172 0)"/>
      <use xlink:href="#DejaVuSans-64" transform="translate(142.859375 0)"/>
      <use xlink:href="#DejaVuSans-20" transform="translate(206.335938 0)"/>
      <use xlink:href="#DejaVuSans-45" transform="translate(238.123047 0)"/>
      <use xlink:href="#DejaVuSans-6e" transform="translate(301.306641 0)"/>
      <use xlink:href="#DejaVuSans-72" transform="translate(364.685547 0)"/>
      <use xlink:href="#DejaVuSans-69" transform="translate(405.798828 0)"/>
      <use xlink:href="#DejaVuSans-63" transform="translate(433.582031 0)"/>
      <use xlink:href="#DejaVuSans-68" transform="translate(488.5625 0)"/>
      <use xlink:href="#DejaVuSans-6d" transform="translate(551.941406 0)"/>
      <use xlink:href="#DejaVuSans-65" transform="translate(649.353516 0)"/>
      <use xlink:href="#DejaVuSans-6e" transform="translate(710.876953 0)"/>
      <use xlink:href="#DejaVuSans-74" transform="translate(774.255859 0)"/>
     </g>
    </g>
   </g>
   <g id="matplotlib.axis_2">
    <g id="ytick_1">
     <g id="line2d_9">
      <defs>
       <path id="m259cfb6ef6" d="M 0 0 
L -3.5 0 
" style="stroke: #000000; stroke-width: 0.8"/>
      </defs>
      <g>
       <use xlink:href="#m259cfb6ef6" x="207.207812" y="34.414125" style="stroke: #000000; stroke-width: 0.8"/>
      </g>
     </g>
     <g id="text_10">
      <!-- RISC complex -->
      <g transform="translate(131.41875 38.213344) scale(0.1 -0.1)">
       <defs>
        <path id="DejaVuSans-52" d="M 2841 2188 
Q 3044 2119 3236 1894 
Q 3428 1669 3622 1275 
L 4263 0 
L 3584 0 
L 2988 1197 
Q 2756 1666 2539 1819 
Q 2322 1972 1947 1972 
L 1259 1972 
L 1259 0 
L 628 0 
L 628 4666 
L 2053 4666 
Q 2853 4666 3247 4331 
Q 3641 3997 3641 3322 
Q 3641 2881 3436 2590 
Q 3231 2300 2841 2188 
z
M 1259 4147 
L 1259 2491 
L 2053 2491 
Q 2509 2491 2742 2702 
Q 2975 2913 2975 3322 
Q 2975 3731 2742 3939 
Q 2509 4147 2053 4147 
L 1259 4147 
z
" transform="scale(0.015625)"/>
        <path id="DejaVuSans-49" d="M 628 4666 
L 1259 4666 
L 1259 0 
L 628 0 
L 628 4666 
z
" transform="scale(0.015625)"/>
        <path id="DejaVuSans-53" d="M 3425 4513 
L 3425 3897 
Q 3066 4069 2747 4153 
Q 2428 4238 2131 4238 
Q 1616 4238 1336 4038 
Q 1056 3838 1056 3469 
Q 1056 3159 1242 3001 
Q 1428 2844 1947 2747 
L 2328 2669 
Q 3034 2534 3370 2195 
Q 3706 1856 3706 1288 
Q 3706 609 3251 259 
Q 2797 -91 1919 -91 
Q 1588 -91 1214 -16 
Q 841 59 441 206 
L 441 856 
Q 825 641 1194 531 
Q 1563 422 1919 422 
Q 2459 422 2753 634 
Q 3047 847 3047 1241 
Q 3047 1584 2836 1778 
Q 2625 1972 2144 2069 
L 1759 2144 
Q 1053 2284 737 2584 
Q 422 2884 422 3419 
Q 422 4038 858 4394 
Q 1294 4750 2059 4750 
Q 2388 4750 2728 4690 
Q 3069 4631 3425 4513 
z
" transform="scale(0.015625)"/>
        <path id="DejaVuSans-43" d="M 4122 4306 
L 4122 3641 
Q 3803 3938 3442 4084 
Q 3081 4231 2675 4231 
Q 1875 4231 1450 3742 
Q 1025 3253 1025 2328 
Q 1025 1406 1450 917 
Q 1875 428 2675 428 
Q 3081 428 3442 575 
Q 3803 722 4122 1019 
L 4122 359 
Q 3791 134 3420 21 
Q 3050 -91 2638 -91 
Q 1578 -91 968 557 
Q 359 1206 359 2328 
Q 359 3453 968 4101 
Q 1578 4750 2638 4750 
Q 3056 4750 3426 4639 
Q 3797 4528 4122 4306 
z
" transform="scale(0.015625)"/>
        <path id="DejaVuSans-70" d="M 1159 525 
L 1159 -1331 
L 581 -1331 
L 581 3500 
L 1159 3500 
L 1159 2969 
Q 1341 3281 1617 3432 
Q 1894 3584 2278 3584 
Q 2916 3584 3314 3078 
Q 3713 2572 3713 1747 
Q 3713 922 3314 415 
Q 2916 -91 2278 -91 
Q 1894 -91 1617 61 
Q 1341 213 1159 525 
z
M 3116 1747 
Q 3116 2381 2855 2742 
Q 2594 3103 2138 3103 
Q 1681 3103 1420 2742 
Q 1159 2381 1159 1747 
Q 1159 1113 1420 752 
Q 1681 391 2138 391 
Q 2594 391 2855 752 
Q 3116 1113 3116 1747 
z
" transform="scale(0.015625)"/>
        <path id="DejaVuSans-78" d="M 3513 3500 
L 2247 1797 
L 3578 0 
L 2900 0 
L 1881 1375 
L 863 0 
L 184 0 
L 1544 1831 
L 300 3500 
L 978 3500 
L 1906 2253 
L 2834 3500 
L 3513 3500 
z
" transform="scale(0.015625)"/>
       </defs>
       <use xlink:href="#DejaVuSans-52"/>
       <use xlink:href="#DejaVuSans-49" transform="translate(69.482422 0)"/>
       <use xlink:href="#DejaVuSans-53" transform="translate(98.974609 0)"/>
       <use xlink:href="#DejaVuSans-43" transform="translate(162.451172 0)"/>
       <use xlink:href="#DejaVuSans-20" transform="translate(232.275391 0)"/>
       <use xlink:href="#DejaVuSans-63" transform="translate(264.0625 0)"/>
       <use xlink:href="#DejaVuSans-6f" transform="translate(319.042969 0)"/>
       <use xlink:href="#DejaVuSans-6d" transform="translate(380.224609 0)"/>
       <use xlink:href="#DejaVuSans-70" transform="translate(477.636719 0)"/>
       <use xlink:href="#DejaVuSans-6c" transform="translate(541.113281 0)"/>
       <use xlink:href="#DejaVuSans-65" transform="translate(568.896484 0)"/>
       <use xlink:href="#DejaVuSans-78" transform="translate(628.669922 0)"/>
      </g>
     </g>
    </g>
    <g id="ytick_2">
     <g id="line2d_10">
      <g>
       <use xlink:href="#m259cfb6ef6" x="207.207812" y="47.146757" style="stroke: #000000; stroke-width: 0.8"/>
      </g>
     </g>
     <g id="text_11">
      <!-- dendrite cytoplasm -->
      <g transform="translate(103.21875 50.945975) scale(0.1 -0.1)">
       <defs>
        <path id="DejaVuSans-79" d="M 2059 -325 
Q 1816 -950 1584 -1140 
Q 1353 -1331 966 -1331 
L 506 -1331 
L 506 -850 
L 844 -850 
Q 1081 -850 1212 -737 
Q 1344 -625 1503 -206 
L 1606 56 
L 191 3500 
L 800 3500 
L 1894 763 
L 2988 3500 
L 3597 3500 
L 2059 -325 
z
" transform="scale(0.015625)"/>
        <path id="DejaVuSans-61" d="M 2194 1759 
Q 1497 1759 1228 1600 
Q 959 1441 959 1056 
Q 959 750 1161 570 
Q 1363 391 1709 391 
Q 2188 391 2477 730 
Q 2766 1069 2766 1631 
L 2766 1759 
L 2194 1759 
z
M 3341 1997 
L 3341 0 
L 2766 0 
L 2766 531 
Q 2569 213 2275 61 
Q 1981 -91 1556 -91 
Q 1019 -91 701 211 
Q 384 513 384 1019 
Q 384 1609 779 1909 
Q 1175 2209 1959 2209 
L 2766 2209 
L 2766 2266 
Q 2766 2663 2505 2880 
Q 2244 3097 1772 3097 
Q 1472 3097 1187 3025 
Q 903 2953 641 2809 
L 641 3341 
Q 956 3463 1253 3523 
Q 1550 3584 1831 3584 
Q 2591 3584 2966 3190 
Q 3341 2797 3341 1997 
z
" transform="scale(0.015625)"/>
        <path id="DejaVuSans-73" d="M 2834 3397 
L 2834 2853 
Q 2591 2978 2328 3040 
Q 2066 3103 1784 3103 
Q 1356 3103 1142 2972 
Q 928 2841 928 2578 
Q 928 2378 1081 2264 
Q 1234 2150 1697 2047 
L 1894 2003 
Q 2506 1872 2764 1633 
Q 3022 1394 3022 966 
Q 3022 478 2636 193 
Q 2250 -91 1575 -91 
Q 1294 -91 989 -36 
Q 684 19 347 128 
L 347 722 
Q 666 556 975 473 
Q 1284 391 1588 391 
Q 1994 391 2212 530 
Q 2431 669 2431 922 
Q 2431 1156 2273 1281 
Q 2116 1406 1581 1522 
L 1381 1569 
Q 847 1681 609 1914 
Q 372 2147 372 2553 
Q 372 3047 722 3315 
Q 1072 3584 1716 3584 
Q 2034 3584 2315 3537 
Q 2597 3491 2834 3397 
z
" transform="scale(0.015625)"/>
       </defs>
       <use xlink:href="#DejaVuSans-64"/>
       <use xlink:href="#DejaVuSans-65" transform="translate(63.476562 0)"/>
       <use xlink:href="#DejaVuSans-6e" transform="translate(125 0)"/>
       <use xlink:href="#DejaVuSans-64" transform="translate(188.378906 0)"/>
       <use xlink:href="#DejaVuSans-72" transform="translate(251.855469 0)"/>
       <use xlink:href="#DejaVuSans-69" transform="translate(292.96875 0)"/>
       <use xlink:href="#DejaVuSans-74" transform="translate(320.751953 0)"/>
       <use xlink:href="#DejaVuSans-65" transform="translate(359.960938 0)"/>
       <use xlink:href="#DejaVuSans-20" transform="translate(421.484375 0)"/>
       <use xlink:href="#DejaVuSans-63" transform="translate(453.271484 0)"/>
       <use xlink:href="#DejaVuSans-79" transform="translate(508.251953 0)"/>
       <use xlink:href="#DejaVuSans-74" transform="translate(567.431641 0)"/>
       <use xlink:href="#DejaVuSans-6f" transform="translate(606.640625 0)"/>
       <use xlink:href="#DejaVuSans-70" transform="translate(667.822266 0)"/>
       <use xlink:href="#DejaVuSans-6c" transform="translate(731.298828 0)"/>
       <use xlink:href="#DejaVuSans-61" transform="translate(759.082031 0)"/>
       <use xlink:href="#DejaVuSans-73" transform="translate(820.361328 0)"/>
       <use xlink:href="#DejaVuSans-6d" transform="translate(872.460938 0)"/>
      </g>
     </g>
    </g>
    <g id="ytick_3">
     <g id="line2d_11">
      <g>
       <use xlink:href="#m259cfb6ef6" x="207.207812" y="59.879388" style="stroke: #000000; stroke-width: 0.8"/>
      </g>
     </g>
     <g id="text_12">
      <!-- presynaptic cytosol -->
      <g transform="translate(102.940625 63.678607) scale(0.1 -0.1)">
       <use xlink:href="#DejaVuSans-70"/>
       <use xlink:href="#DejaVuSans-72" transform="translate(63.476562 0)"/>
       <use xlink:href="#DejaVuSans-65" transform="translate(102.339844 0)"/>
       <use xlink:href="#DejaVuSans-73" transform="translate(163.863281 0)"/>
       <use xlink:href="#DejaVuSans-79" transform="translate(215.962891 0)"/>
       <use xlink:href="#DejaVuSans-6e" transform="translate(275.142578 0)"/>
       <use xlink:href="#DejaVuSans-61" transform="translate(338.521484 0)"/>
       <use xlink:href="#DejaVuSans-70" transform="translate(399.800781 0)"/>
       <use xlink:href="#DejaVuSans-74" transform="translate(463.277344 0)"/>
       <use xlink:href="#DejaVuSans-69" transform="translate(502.486328 0)"/>
       <use xlink:href="#DejaVuSans-63" transform="translate(530.269531 0)"/>
       <use xlink:href="#DejaVuSans-20" transform="translate(585.25 0)"/>
       <use xlink:href="#DejaVuSans-63" transform="translate(617.037109 0)"/>
       <use xlink:href="#DejaVuSans-79" transform="translate(672.017578 0)"/>
       <use xlink:href="#DejaVuSans-74" transform="translate(731.197266 0)"/>
       <use xlink:href="#DejaVuSans-6f" transform="translate(770.40625 0)"/>
       <use xlink:href="#DejaVuSans-73" transform="translate(831.587891 0)"/>
       <use xlink:href="#DejaVuSans-6f" transform="translate(883.6875 0)"/>
       <use xlink:href="#DejaVuSans-6c" transform="translate(944.869141 0)"/>
      </g>
     </g>
    </g>
    <g id="ytick_4">
     <g id="line2d_12">
      <g>
       <use xlink:href="#m259cfb6ef6" x="207.207812" y="72.61202" style="stroke: #000000; stroke-width: 0.8"/>
      </g>
     </g>
     <g id="text_13">
      <!-- axon cytoplasm -->
      <g transform="translate(121.178125 76.411238) scale(0.1 -0.1)">
       <use xlink:href="#DejaVuSans-61"/>
       <use xlink:href="#DejaVuSans-78" transform="translate(61.279297 0)"/>
       <use xlink:href="#DejaVuSans-6f" transform="translate(117.333984 0)"/>
       <use xlink:href="#DejaVuSans-6e" transform="translate(178.515625 0)"/>
       <use xlink:href="#DejaVuSans-20" transform="translate(241.894531 0)"/>
       <use xlink:href="#DejaVuSans-63" transform="translate(273.681641 0)"/>
       <use xlink:href="#DejaVuSans-79" transform="translate(328.662109 0)"/>
       <use xlink:href="#DejaVuSans-74" transform="translate(387.841797 0)"/>
       <use xlink:href="#DejaVuSans-6f" transform="translate(427.050781 0)"/>
       <use xlink:href="#DejaVuSans-70" transform="translate(488.232422 0)"/>
       <use xlink:href="#DejaVuSans-6c" transform="translate(551.708984 0)"/>
       <use xlink:href="#DejaVuSans-61" transform="translate(579.492188 0)"/>
       <use xlink:href="#DejaVuSans-73" transform="translate(640.771484 0)"/>
       <use xlink:href="#DejaVuSans-6d" transform="translate(692.871094 0)"/>
      </g>
     </g>
    </g>
    <g id="ytick_5">
     <g id="line2d_13">
      <g>
       <use xlink:href="#m259cfb6ef6" x="207.207812" y="85.344651" style="stroke: #000000; stroke-width: 0.8"/>
      </g>
     </g>
     <g id="text_14">
      <!-- postsynaptic specialization membrane -->
      <g transform="translate(7.2 89.14387) scale(0.1 -0.1)">
       <defs>
        <path id="DejaVuSans-7a" d="M 353 3500 
L 3084 3500 
L 3084 2975 
L 922 459 
L 3084 459 
L 3084 0 
L 275 0 
L 275 525 
L 2438 3041 
L 353 3041 
L 353 3500 
z
" transform="scale(0.015625)"/>
        <path id="DejaVuSans-62" d="M 3116 1747 
Q 3116 2381 2855 2742 
Q 2594 3103 2138 3103 
Q 1681 3103 1420 2742 
Q 1159 2381 1159 1747 
Q 1159 1113 1420 752 
Q 1681 391 2138 391 
Q 2594 391 2855 752 
Q 3116 1113 3116 1747 
z
M 1159 2969 
Q 1341 3281 1617 3432 
Q 1894 3584 2278 3584 
Q 2916 3584 3314 3078 
Q 3713 2572 3713 1747 
Q 3713 922 3314 415 
Q 2916 -91 2278 -91 
Q 1894 -91 1617 61 
Q 1341 213 1159 525 
L 1159 0 
L 581 0 
L 581 4863 
L 1159 4863 
L 1159 2969 
z
" transform="scale(0.015625)"/>
       </defs>
       <use xlink:href="#DejaVuSans-70"/>
       <use xlink:href="#DejaVuSans-6f" transform="translate(63.476562 0)"/>
       <use xlink:href="#DejaVuSans-73" transform="translate(124.658203 0)"/>
       <use xlink:href="#DejaVuSans-74" transform="translate(176.757812 0)"/>
       <use xlink:href="#DejaVuSans-73" transform="translate(215.966797 0)"/>
       <use xlink:href="#DejaVuSans-79" transform="translate(268.066406 0)"/>
       <use xlink:href="#DejaVuSans-6e" transform="translate(327.246094 0)"/>
       <use xlink:href="#DejaVuSans-61" transform="translate(390.625 0)"/>
       <use xlink:href="#DejaVuSans-70" transform="translate(451.904297 0)"/>
       <use xlink:href="#DejaVuSans-74" transform="translate(515.380859 0)"/>
       <use xlink:href="#DejaVuSans-69" transform="translate(554.589844 0)"/>
       <use xlink:href="#DejaVuSans-63" transform="translate(582.373047 0)"/>
       <use xlink:href="#DejaVuSans-20" transform="translate(637.353516 0)"/>
       <use xlink:href="#DejaVuSans-73" transform="translate(669.140625 0)"/>
       <use xlink:href="#DejaVuSans-70" transform="translate(721.240234 0)"/>
       <use xlink:href="#DejaVuSans-65" transform="translate(784.716797 0)"/>
       <use xlink:href="#DejaVuSans-63" transform="translate(846.240234 0)"/>
       <use xlink:href="#DejaVuSans-69" transform="translate(901.220703 0)"/>
       <use xlink:href="#DejaVuSans-61" transform="translate(929.003906 0)"/>
       <use xlink:href="#DejaVuSans-6c" transform="translate(990.283203 0)"/>
       <use xlink:href="#DejaVuSans-69" transform="translate(1018.066406 0)"/>
       <use xlink:href="#DejaVuSans-7a" transform="translate(1045.849609 0)"/>
       <use xlink:href="#DejaVuSans-61" transform="translate(1098.339844 0)"/>
       <use xlink:href="#DejaVuSans-74" transform="translate(1159.619141 0)"/>
       <use xlink:href="#DejaVuSans-69" transform="translate(1198.828125 0)"/>
       <use xlink:href="#DejaVuSans-6f" transform="translate(1226.611328 0)"/>
       <use xlink:href="#DejaVuSans-6e" transform="translate(1287.792969 0)"/>
       <use xlink:href="#DejaVuSans-20" transform="translate(1351.171875 0)"/>
       <use xlink:href="#DejaVuSans-6d" transform="translate(1382.958984 0)"/>
       <use xlink:href="#DejaVuSans-65" transform="translate(1480.371094 0)"/>
       <use xlink:href="#DejaVuSans-6d" transform="translate(1541.894531 0)"/>
       <use xlink:href="#DejaVuSans-62" transform="translate(1639.306641 0)"/>
       <use xlink:href="#DejaVuSans-72" transform="translate(1702.783203 0)"/>
       <use xlink:href="#DejaVuSans-61" transform="translate(1743.896484 0)"/>
       <use xlink:href="#DejaVuSans-6e" transform="translate(1805.175781 0)"/>
       <use xlink:href="#DejaVuSans-65" transform="translate(1868.554688 0)"/>
      </g>
     </g>
    </g>
    <g id="ytick_6">
     <g id="line2d_14">
      <g>
       <use xlink:href="#m259cfb6ef6" x="207.207812" y="98.077283" style="stroke: #000000; stroke-width: 0.8"/>
      </g>
     </g>
     <g id="text_15">
      <!-- postsynaptic cytosol -->
      <g transform="translate(97.73125 101.876502) scale(0.1 -0.1)">
       <use xlink:href="#DejaVuSans-70"/>
       <use xlink:href="#DejaVuSans-6f" transform="translate(63.476562 0)"/>
       <use xlink:href="#DejaVuSans-73" transform="translate(124.658203 0)"/>
       <use xlink:href="#DejaVuSans-74" transform="translate(176.757812 0)"/>
       <use xlink:href="#DejaVuSans-73" transform="translate(215.966797 0)"/>
       <use xlink:href="#DejaVuSans-79" transform="translate(268.066406 0)"/>
       <use xlink:href="#DejaVuSans-6e" transform="translate(327.246094 0)"/>
       <use xlink:href="#DejaVuSans-61" transform="translate(390.625 0)"/>
       <use xlink:href="#DejaVuSans-70" transform="translate(451.904297 0)"/>
       <use xlink:href="#DejaVuSans-74" transform="translate(515.380859 0)"/>
       <use xlink:href="#DejaVuSans-69" transform="translate(554.589844 0)"/>
       <use xlink:href="#DejaVuSans-63" transform="translate(582.373047 0)"/>
       <use xlink:href="#DejaVuSans-20" transform="translate(637.353516 0)"/>
       <use xlink:href="#DejaVuSans-63" transform="translate(669.140625 0)"/>
       <use xlink:href="#DejaVuSans-79" transform="translate(724.121094 0)"/>
       <use xlink:href="#DejaVuSans-74" transform="translate(783.300781 0)"/>
       <use xlink:href="#DejaVuSans-6f" transform="translate(822.509766 0)"/>
       <use xlink:href="#DejaVuSans-73" transform="translate(883.691406 0)"/>
       <use xlink:href="#DejaVuSans-6f" transform="translate(935.791016 0)"/>
       <use xlink:href="#DejaVuSans-6c" transform="translate(996.972656 0)"/>
      </g>
     </g>
    </g>
    <g id="ytick_7">
     <g id="line2d_15">
      <g>
       <use xlink:href="#m259cfb6ef6" x="207.207812" y="110.809914" style="stroke: #000000; stroke-width: 0.8"/>
      </g>
     </g>
     <g id="text_16">
      <!-- dendritic shaft -->
      <g transform="translate(127.815625 114.609133) scale(0.1 -0.1)">
       <defs>
        <path id="DejaVuSans-66" d="M 2375 4863 
L 2375 4384 
L 1825 4384 
Q 1516 4384 1395 4259 
Q 1275 4134 1275 3809 
L 1275 3500 
L 2222 3500 
L 2222 3053 
L 1275 3053 
L 1275 0 
L 697 0 
L 697 3053 
L 147 3053 
L 147 3500 
L 697 3500 
L 697 3744 
Q 697 4328 969 4595 
Q 1241 4863 1831 4863 
L 2375 4863 
z
" transform="scale(0.015625)"/>
       </defs>
       <use xlink:href="#DejaVuSans-64"/>
       <use xlink:href="#DejaVuSans-65" transform="translate(63.476562 0)"/>
       <use xlink:href="#DejaVuSans-6e" transform="translate(125 0)"/>
       <use xlink:href="#DejaVuSans-64" transform="translate(188.378906 0)"/>
       <use xlink:href="#DejaVuSans-72" transform="translate(251.855469 0)"/>
       <use xlink:href="#DejaVuSans-69" transform="translate(292.96875 0)"/>
       <use xlink:href="#DejaVuSans-74" transform="translate(320.751953 0)"/>
       <use xlink:href="#DejaVuSans-69" transform="translate(359.960938 0)"/>
       <use xlink:href="#DejaVuSans-63" transform="translate(387.744141 0)"/>
       <use xlink:href="#DejaVuSans-20" transform="translate(442.724609 0)"/>
       <use xlink:href="#DejaVuSans-73" transform="translate(474.511719 0)"/>
       <use xlink:href="#DejaVuSans-68" transform="translate(526.611328 0)"/>
       <use xlink:href="#DejaVuSans-61" transform="translate(589.990234 0)"/>
       <use xlink:href="#DejaVuSans-66" transform="translate(651.269531 0)"/>
       <use xlink:href="#DejaVuSans-74" transform="translate(684.724609 0)"/>
      </g>
     </g>
    </g>
    <g id="ytick_8">
     <g id="line2d_16">
      <g>
       <use xlink:href="#m259cfb6ef6" x="207.207812" y="123.542546" style="stroke: #000000; stroke-width: 0.8"/>
      </g>
     </g>
     <g id="text_17">
      <!-- microtubule associated complex -->
      <g transform="translate(38.08125 127.341765) scale(0.1 -0.1)">
       <defs>
        <path id="DejaVuSans-75" d="M 544 1381 
L 544 3500 
L 1119 3500 
L 1119 1403 
Q 1119 906 1312 657 
Q 1506 409 1894 409 
Q 2359 409 2629 706 
Q 2900 1003 2900 1516 
L 2900 3500 
L 3475 3500 
L 3475 0 
L 2900 0 
L 2900 538 
Q 2691 219 2414 64 
Q 2138 -91 1772 -91 
Q 1169 -91 856 284 
Q 544 659 544 1381 
z
M 1991 3584 
L 1991 3584 
z
" transform="scale(0.015625)"/>
       </defs>
       <use xlink:href="#DejaVuSans-6d"/>
       <use xlink:href="#DejaVuSans-69" transform="translate(97.412109 0)"/>
       <use xlink:href="#DejaVuSans-63" transform="translate(125.195312 0)"/>
       <use xlink:href="#DejaVuSans-72" transform="translate(180.175781 0)"/>
       <use xlink:href="#DejaVuSans-6f" transform="translate(219.039062 0)"/>
       <use xlink:href="#DejaVuSans-74" transform="translate(280.220703 0)"/>
       <use xlink:href="#DejaVuSans-75" transform="translate(319.429688 0)"/>
       <use xlink:href="#DejaVuSans-62" transform="translate(382.808594 0)"/>
       <use xlink:href="#DejaVuSans-75" transform="translate(446.285156 0)"/>
       <use xlink:href="#DejaVuSans-6c" transform="translate(509.664062 0)"/>
       <use xlink:href="#DejaVuSans-65" transform="translate(537.447266 0)"/>
       <use xlink:href="#DejaVuSans-20" transform="translate(598.970703 0)"/>
       <use xlink:href="#DejaVuSans-61" transform="translate(630.757812 0)"/>
       <use xlink:href="#DejaVuSans-73" transform="translate(692.037109 0)"/>
       <use xlink:href="#DejaVuSans-73" transform="translate(744.136719 0)"/>
       <use xlink:href="#DejaVuSans-6f" transform="translate(796.236328 0)"/>
       <use xlink:href="#DejaVuSans-63" transform="translate(857.417969 0)"/>
       <use xlink:href="#DejaVuSans-69" transform="translate(912.398438 0)"/>
       <use xlink:href="#DejaVuSans-61" transform="translate(940.181641 0)"/>
       <use xlink:href="#DejaVuSans-74" transform="translate(1001.460938 0)"/>
       <use xlink:href="#DejaVuSans-65" transform="translate(1040.669922 0)"/>
       <use xlink:href="#DejaVuSans-64" transform="translate(1102.193359 0)"/>
       <use xlink:href="#DejaVuSans-20" transform="translate(1165.669922 0)"/>
       <use xlink:href="#DejaVuSans-63" transform="translate(1197.457031 0)"/>
       <use xlink:href="#DejaVuSans-6f" transform="translate(1252.4375 0)"/>
       <use xlink:href="#DejaVuSans-6d" transform="translate(1313.619141 0)"/>
       <use xlink:href="#DejaVuSans-70" transform="translate(1411.03125 0)"/>
       <use xlink:href="#DejaVuSans-6c" transform="translate(1474.507812 0)"/>
       <use xlink:href="#DejaVuSans-65" transform="translate(1502.291016 0)"/>
       <use xlink:href="#DejaVuSans-78" transform="translate(1562.064453 0)"/>
      </g>
     </g>
    </g>
    <g id="ytick_9">
     <g id="line2d_17">
      <g>
       <use xlink:href="#m259cfb6ef6" x="207.207812" y="136.275178" style="stroke: #000000; stroke-width: 0.8"/>
      </g>
     </g>
     <g id="text_18">
      <!-- dendrite membrane -->
      <g transform="translate(100.167187 140.074396) scale(0.1 -0.1)">
       <use xlink:href="#DejaVuSans-64"/>
       <use xlink:href="#DejaVuSans-65" transform="translate(63.476562 0)"/>
       <use xlink:href="#DejaVuSans-6e" transform="translate(125 0)"/>
       <use xlink:href="#DejaVuSans-64" transform="translate(188.378906 0)"/>
       <use xlink:href="#DejaVuSans-72" transform="translate(251.855469 0)"/>
       <use xlink:href="#DejaVuSans-69" transform="translate(292.96875 0)"/>
       <use xlink:href="#DejaVuSans-74" transform="translate(320.751953 0)"/>
       <use xlink:href="#DejaVuSans-65" transform="translate(359.960938 0)"/>
       <use xlink:href="#DejaVuSans-20" transform="translate(421.484375 0)"/>
       <use xlink:href="#DejaVuSans-6d" transform="translate(453.271484 0)"/>
       <use xlink:href="#DejaVuSans-65" transform="translate(550.683594 0)"/>
       <use xlink:href="#DejaVuSans-6d" transform="translate(612.207031 0)"/>
       <use xlink:href="#DejaVuSans-62" transform="translate(709.619141 0)"/>
       <use xlink:href="#DejaVuSans-72" transform="translate(773.095703 0)"/>
       <use xlink:href="#DejaVuSans-61" transform="translate(814.208984 0)"/>
       <use xlink:href="#DejaVuSans-6e" transform="translate(875.488281 0)"/>
       <use xlink:href="#DejaVuSans-65" transform="translate(938.867188 0)"/>
      </g>
     </g>
    </g>
    <g id="ytick_10">
     <g id="line2d_18">
      <g>
       <use xlink:href="#m259cfb6ef6" x="207.207812" y="149.007809" style="stroke: #000000; stroke-width: 0.8"/>
      </g>
     </g>
     <g id="text_19">
      <!-- excitatory synapse -->
      <g transform="translate(105.609375 152.807028) scale(0.1 -0.1)">
       <use xlink:href="#DejaVuSans-65"/>
       <use xlink:href="#DejaVuSans-78" transform="translate(59.773438 0)"/>
       <use xlink:href="#DejaVuSans-63" transform="translate(117.203125 0)"/>
       <use xlink:href="#DejaVuSans-69" transform="translate(172.183594 0)"/>
       <use xlink:href="#DejaVuSans-74" transform="translate(199.966797 0)"/>
       <use xlink:href="#DejaVuSans-61" transform="translate(239.175781 0)"/>
       <use xlink:href="#DejaVuSans-74" transform="translate(300.455078 0)"/>
       <use xlink:href="#DejaVuSans-6f" transform="translate(339.664062 0)"/>
       <use xlink:href="#DejaVuSans-72" transform="translate(400.845703 0)"/>
       <use xlink:href="#DejaVuSans-79" transform="translate(441.958984 0)"/>
       <use xlink:href="#DejaVuSans-20" transform="translate(501.138672 0)"/>
       <use xlink:href="#DejaVuSans-73" transform="translate(532.925781 0)"/>
       <use xlink:href="#DejaVuSans-79" transform="translate(585.025391 0)"/>
       <use xlink:href="#DejaVuSans-6e" transform="translate(644.205078 0)"/>
       <use xlink:href="#DejaVuSans-61" transform="translate(707.583984 0)"/>
       <use xlink:href="#DejaVuSans-70" transform="translate(768.863281 0)"/>
       <use xlink:href="#DejaVuSans-73" transform="translate(832.339844 0)"/>
       <use xlink:href="#DejaVuSans-65" transform="translate(884.439453 0)"/>
      </g>
     </g>
    </g>
    <g id="ytick_11">
     <g id="line2d_19">
      <g>
       <use xlink:href="#m259cfb6ef6" x="207.207812" y="161.740441" style="stroke: #000000; stroke-width: 0.8"/>
      </g>
     </g>
     <g id="text_20">
      <!-- GABA-ergic synapse -->
      <g transform="translate(99.3375 165.53966) scale(0.1 -0.1)">
       <defs>
        <path id="DejaVuSans-47" d="M 3809 666 
L 3809 1919 
L 2778 1919 
L 2778 2438 
L 4434 2438 
L 4434 434 
Q 4069 175 3628 42 
Q 3188 -91 2688 -91 
Q 1594 -91 976 548 
Q 359 1188 359 2328 
Q 359 3472 976 4111 
Q 1594 4750 2688 4750 
Q 3144 4750 3555 4637 
Q 3966 4525 4313 4306 
L 4313 3634 
Q 3963 3931 3569 4081 
Q 3175 4231 2741 4231 
Q 1884 4231 1454 3753 
Q 1025 3275 1025 2328 
Q 1025 1384 1454 906 
Q 1884 428 2741 428 
Q 3075 428 3337 486 
Q 3600 544 3809 666 
z
" transform="scale(0.015625)"/>
        <path id="DejaVuSans-41" d="M 2188 4044 
L 1331 1722 
L 3047 1722 
L 2188 4044 
z
M 1831 4666 
L 2547 4666 
L 4325 0 
L 3669 0 
L 3244 1197 
L 1141 1197 
L 716 0 
L 50 0 
L 1831 4666 
z
" transform="scale(0.015625)"/>
        <path id="DejaVuSans-42" d="M 1259 2228 
L 1259 519 
L 2272 519 
Q 2781 519 3026 730 
Q 3272 941 3272 1375 
Q 3272 1813 3026 2020 
Q 2781 2228 2272 2228 
L 1259 2228 
z
M 1259 4147 
L 1259 2741 
L 2194 2741 
Q 2656 2741 2882 2914 
Q 3109 3088 3109 3444 
Q 3109 3797 2882 3972 
Q 2656 4147 2194 4147 
L 1259 4147 
z
M 628 4666 
L 2241 4666 
Q 2963 4666 3353 4366 
Q 3744 4066 3744 3513 
Q 3744 3084 3544 2831 
Q 3344 2578 2956 2516 
Q 3422 2416 3680 2098 
Q 3938 1781 3938 1306 
Q 3938 681 3513 340 
Q 3088 0 2303 0 
L 628 0 
L 628 4666 
z
" transform="scale(0.015625)"/>
        <path id="DejaVuSans-2d" d="M 313 2009 
L 1997 2009 
L 1997 1497 
L 313 1497 
L 313 2009 
z
" transform="scale(0.015625)"/>
        <path id="DejaVuSans-67" d="M 2906 1791 
Q 2906 2416 2648 2759 
Q 2391 3103 1925 3103 
Q 1463 3103 1205 2759 
Q 947 2416 947 1791 
Q 947 1169 1205 825 
Q 1463 481 1925 481 
Q 2391 481 2648 825 
Q 2906 1169 2906 1791 
z
M 3481 434 
Q 3481 -459 3084 -895 
Q 2688 -1331 1869 -1331 
Q 1566 -1331 1297 -1286 
Q 1028 -1241 775 -1147 
L 775 -588 
Q 1028 -725 1275 -790 
Q 1522 -856 1778 -856 
Q 2344 -856 2625 -561 
Q 2906 -266 2906 331 
L 2906 616 
Q 2728 306 2450 153 
Q 2172 0 1784 0 
Q 1141 0 747 490 
Q 353 981 353 1791 
Q 353 2603 747 3093 
Q 1141 3584 1784 3584 
Q 2172 3584 2450 3431 
Q 2728 3278 2906 2969 
L 2906 3500 
L 3481 3500 
L 3481 434 
z
" transform="scale(0.015625)"/>
       </defs>
       <use xlink:href="#DejaVuSans-47"/>
       <use xlink:href="#DejaVuSans-41" transform="translate(77.490234 0)"/>
       <use xlink:href="#DejaVuSans-42" transform="translate(145.898438 0)"/>
       <use xlink:href="#DejaVuSans-41" transform="translate(214.501953 0)"/>
       <use xlink:href="#DejaVuSans-2d" transform="translate(280.660156 0)"/>
       <use xlink:href="#DejaVuSans-65" transform="translate(316.744141 0)"/>
       <use xlink:href="#DejaVuSans-72" transform="translate(378.267578 0)"/>
       <use xlink:href="#DejaVuSans-67" transform="translate(417.630859 0)"/>
       <use xlink:href="#DejaVuSans-69" transform="translate(481.107422 0)"/>
       <use xlink:href="#DejaVuSans-63" transform="translate(508.890625 0)"/>
       <use xlink:href="#DejaVuSans-20" transform="translate(563.871094 0)"/>
       <use xlink:href="#DejaVuSans-73" transform="translate(595.658203 0)"/>
       <use xlink:href="#DejaVuSans-79" transform="translate(647.757812 0)"/>
       <use xlink:href="#DejaVuSans-6e" transform="translate(706.9375 0)"/>
       <use xlink:href="#DejaVuSans-61" transform="translate(770.316406 0)"/>
       <use xlink:href="#DejaVuSans-70" transform="translate(831.595703 0)"/>
       <use xlink:href="#DejaVuSans-73" transform="translate(895.072266 0)"/>
       <use xlink:href="#DejaVuSans-65" transform="translate(947.171875 0)"/>
      </g>
     </g>
    </g>
    <g id="ytick_12">
     <g id="line2d_20">
      <g>
       <use xlink:href="#m259cfb6ef6" x="207.207812" y="174.473072" style="stroke: #000000; stroke-width: 0.8"/>
      </g>
     </g>
     <g id="text_21">
      <!-- Schaffer collateral - CA1 synapse -->
      <g transform="translate(34.3875 178.272291) scale(0.1 -0.1)">
       <defs>
        <path id="DejaVuSans-31" d="M 794 531 
L 1825 531 
L 1825 4091 
L 703 3866 
L 703 4441 
L 1819 4666 
L 2450 4666 
L 2450 531 
L 3481 531 
L 3481 0 
L 794 0 
L 794 531 
z
" transform="scale(0.015625)"/>
       </defs>
       <use xlink:href="#DejaVuSans-53"/>
       <use xlink:href="#DejaVuSans-63" transform="translate(63.476562 0)"/>
       <use xlink:href="#DejaVuSans-68" transform="translate(118.457031 0)"/>
       <use xlink:href="#DejaVuSans-61" transform="translate(181.835938 0)"/>
       <use xlink:href="#DejaVuSans-66" transform="translate(243.115234 0)"/>
       <use xlink:href="#DejaVuSans-66" transform="translate(278.320312 0)"/>
       <use xlink:href="#DejaVuSans-65" transform="translate(313.525391 0)"/>
       <use xlink:href="#DejaVuSans-72" transform="translate(375.048828 0)"/>
       <use xlink:href="#DejaVuSans-20" transform="translate(416.162109 0)"/>
       <use xlink:href="#DejaVuSans-63" transform="translate(447.949219 0)"/>
       <use xlink:href="#DejaVuSans-6f" transform="translate(502.929688 0)"/>
       <use xlink:href="#DejaVuSans-6c" transform="translate(564.111328 0)"/>
       <use xlink:href="#DejaVuSans-6c" transform="translate(591.894531 0)"/>
       <use xlink:href="#DejaVuSans-61" transform="translate(619.677734 0)"/>
       <use xlink:href="#DejaVuSans-74" transform="translate(680.957031 0)"/>
       <use xlink:href="#DejaVuSans-65" transform="translate(720.166016 0)"/>
       <use xlink:href="#DejaVuSans-72" transform="translate(781.689453 0)"/>
       <use xlink:href="#DejaVuSans-61" transform="translate(822.802734 0)"/>
       <use xlink:href="#DejaVuSans-6c" transform="translate(884.082031 0)"/>
       <use xlink:href="#DejaVuSans-20" transform="translate(911.865234 0)"/>
       <use xlink:href="#DejaVuSans-2d" transform="translate(943.652344 0)"/>
       <use xlink:href="#DejaVuSans-20" transform="translate(979.736328 0)"/>
       <use xlink:href="#DejaVuSans-43" transform="translate(1011.523438 0)"/>
       <use xlink:href="#DejaVuSans-41" transform="translate(1081.347656 0)"/>
       <use xlink:href="#DejaVuSans-31" transform="translate(1149.755859 0)"/>
       <use xlink:href="#DejaVuSans-20" transform="translate(1213.378906 0)"/>
       <use xlink:href="#DejaVuSans-73" transform="translate(1245.166016 0)"/>
       <use xlink:href="#DejaVuSans-79" transform="translate(1297.265625 0)"/>
       <use xlink:href="#DejaVuSans-6e" transform="translate(1356.445312 0)"/>
       <use xlink:href="#DejaVuSans-61" transform="translate(1419.824219 0)"/>
       <use xlink:href="#DejaVuSans-70" transform="translate(1481.103516 0)"/>
       <use xlink:href="#DejaVuSans-73" transform="translate(1544.580078 0)"/>
       <use xlink:href="#DejaVuSans-65" transform="translate(1596.679688 0)"/>
      </g>
     </g>
    </g>
    <g id="ytick_13">
     <g id="line2d_21">
      <g>
       <use xlink:href="#m259cfb6ef6" x="207.207812" y="187.205704" style="stroke: #000000; stroke-width: 0.8"/>
      </g>
     </g>
     <g id="text_22">
      <!-- ciliary transition zone -->
      <g transform="translate(92.364062 191.004923) scale(0.1 -0.1)">
       <use xlink:href="#DejaVuSans-63"/>
       <use xlink:href="#DejaVuSans-69" transform="translate(54.980469 0)"/>
       <use xlink:href="#DejaVuSans-6c" transform="translate(82.763672 0)"/>
       <use xlink:href="#DejaVuSans-69" transform="translate(110.546875 0)"/>
       <use xlink:href="#DejaVuSans-61" transform="translate(138.330078 0)"/>
       <use xlink:href="#DejaVuSans-72" transform="translate(199.609375 0)"/>
       <use xlink:href="#DejaVuSans-79" transform="translate(240.722656 0)"/>
       <use xlink:href="#DejaVuSans-20" transform="translate(299.902344 0)"/>
       <use xlink:href="#DejaVuSans-74" transform="translate(331.689453 0)"/>
       <use xlink:href="#DejaVuSans-72" transform="translate(370.898438 0)"/>
       <use xlink:href="#DejaVuSans-61" transform="translate(412.011719 0)"/>
       <use xlink:href="#DejaVuSans-6e" transform="translate(473.291016 0)"/>
       <use xlink:href="#DejaVuSans-73" transform="translate(536.669922 0)"/>
       <use xlink:href="#DejaVuSans-69" transform="translate(588.769531 0)"/>
       <use xlink:href="#DejaVuSans-74" transform="translate(616.552734 0)"/>
       <use xlink:href="#DejaVuSans-69" transform="translate(655.761719 0)"/>
       <use xlink:href="#DejaVuSans-6f" transform="translate(683.544922 0)"/>
       <use xlink:href="#DejaVuSans-6e" transform="translate(744.726562 0)"/>
       <use xlink:href="#DejaVuSans-20" transform="translate(808.105469 0)"/>
       <use xlink:href="#DejaVuSans-7a" transform="translate(839.892578 0)"/>
       <use xlink:href="#DejaVuSans-6f" transform="translate(892.382812 0)"/>
       <use xlink:href="#DejaVuSans-6e" transform="translate(953.564453 0)"/>
       <use xlink:href="#DejaVuSans-65" transform="translate(1016.943359 0)"/>
      </g>
     </g>
    </g>
    <g id="ytick_14">
     <g id="line2d_22">
      <g>
       <use xlink:href="#m259cfb6ef6" x="207.207812" y="199.938336" style="stroke: #000000; stroke-width: 0.8"/>
      </g>
     </g>
     <g id="text_23">
      <!-- dendritic spine -->
      <g transform="translate(125.929687 203.737554) scale(0.1 -0.1)">
       <use xlink:href="#DejaVuSans-64"/>
       <use xlink:href="#DejaVuSans-65" transform="translate(63.476562 0)"/>
       <use xlink:href="#DejaVuSans-6e" transform="translate(125 0)"/>
       <use xlink:href="#DejaVuSans-64" transform="translate(188.378906 0)"/>
       <use xlink:href="#DejaVuSans-72" transform="translate(251.855469 0)"/>
       <use xlink:href="#DejaVuSans-69" transform="translate(292.96875 0)"/>
       <use xlink:href="#DejaVuSans-74" transform="translate(320.751953 0)"/>
       <use xlink:href="#DejaVuSans-69" transform="translate(359.960938 0)"/>
       <use xlink:href="#DejaVuSans-63" transform="translate(387.744141 0)"/>
       <use xlink:href="#DejaVuSans-20" transform="translate(442.724609 0)"/>
       <use xlink:href="#DejaVuSans-73" transform="translate(474.511719 0)"/>
       <use xlink:href="#DejaVuSans-70" transform="translate(526.611328 0)"/>
       <use xlink:href="#DejaVuSans-69" transform="translate(590.087891 0)"/>
       <use xlink:href="#DejaVuSans-6e" transform="translate(617.871094 0)"/>
       <use xlink:href="#DejaVuSans-65" transform="translate(681.25 0)"/>
      </g>
     </g>
    </g>
    <g id="ytick_15">
     <g id="line2d_23">
      <g>
       <use xlink:href="#m259cfb6ef6" x="207.207812" y="212.670967" style="stroke: #000000; stroke-width: 0.8"/>
      </g>
     </g>
     <g id="text_24">
      <!-- postsynaptic density -->
      <g transform="translate(96.628125 216.470186) scale(0.1 -0.1)">
       <use xlink:href="#DejaVuSans-70"/>
       <use xlink:href="#DejaVuSans-6f" transform="translate(63.476562 0)"/>
       <use xlink:href="#DejaVuSans-73" transform="translate(124.658203 0)"/>
       <use xlink:href="#DejaVuSans-74" transform="translate(176.757812 0)"/>
       <use xlink:href="#DejaVuSans-73" transform="translate(215.966797 0)"/>
       <use xlink:href="#DejaVuSans-79" transform="translate(268.066406 0)"/>
       <use xlink:href="#DejaVuSans-6e" transform="translate(327.246094 0)"/>
       <use xlink:href="#DejaVuSans-61" transform="translate(390.625 0)"/>
       <use xlink:href="#DejaVuSans-70" transform="translate(451.904297 0)"/>
       <use xlink:href="#DejaVuSans-74" transform="translate(515.380859 0)"/>
       <use xlink:href="#DejaVuSans-69" transform="translate(554.589844 0)"/>
       <use xlink:href="#DejaVuSans-63" transform="translate(582.373047 0)"/>
       <use xlink:href="#DejaVuSans-20" transform="translate(637.353516 0)"/>
       <use xlink:href="#DejaVuSans-64" transform="translate(669.140625 0)"/>
       <use xlink:href="#DejaVuSans-65" transform="translate(732.617188 0)"/>
       <use xlink:href="#DejaVuSans-6e" transform="translate(794.140625 0)"/>
       <use xlink:href="#DejaVuSans-73" transform="translate(857.519531 0)"/>
       <use xlink:href="#DejaVuSans-69" transform="translate(909.619141 0)"/>
       <use xlink:href="#DejaVuSans-74" transform="translate(937.402344 0)"/>
       <use xlink:href="#DejaVuSans-79" transform="translate(976.611328 0)"/>
      </g>
     </g>
    </g>
    <g id="ytick_16">
     <g id="line2d_24">
      <g>
       <use xlink:href="#m259cfb6ef6" x="207.207812" y="225.403599" style="stroke: #000000; stroke-width: 0.8"/>
      </g>
     </g>
     <g id="text_25">
      <!-- cell leading edge -->
      <g transform="translate(114.76875 229.202817) scale(0.1 -0.1)">
       <use xlink:href="#DejaVuSans-63"/>
       <use xlink:href="#DejaVuSans-65" transform="translate(54.980469 0)"/>
       <use xlink:href="#DejaVuSans-6c" transform="translate(116.503906 0)"/>
       <use xlink:href="#DejaVuSans-6c" transform="translate(144.287109 0)"/>
       <use xlink:href="#DejaVuSans-20" transform="translate(172.070312 0)"/>
       <use xlink:href="#DejaVuSans-6c" transform="translate(203.857422 0)"/>
       <use xlink:href="#DejaVuSans-65" transform="translate(231.640625 0)"/>
       <use xlink:href="#DejaVuSans-61" transform="translate(293.164062 0)"/>
       <use xlink:href="#DejaVuSans-64" transform="translate(354.443359 0)"/>
       <use xlink:href="#DejaVuSans-69" transform="translate(417.919922 0)"/>
       <use xlink:href="#DejaVuSans-6e" transform="translate(445.703125 0)"/>
       <use xlink:href="#DejaVuSans-67" transform="translate(509.082031 0)"/>
       <use xlink:href="#DejaVuSans-20" transform="translate(572.558594 0)"/>
       <use xlink:href="#DejaVuSans-65" transform="translate(604.345703 0)"/>
       <use xlink:href="#DejaVuSans-64" transform="translate(665.869141 0)"/>
       <use xlink:href="#DejaVuSans-67" transform="translate(729.345703 0)"/>
       <use xlink:href="#DejaVuSans-65" transform="translate(792.822266 0)"/>
      </g>
     </g>
    </g>
    <g id="ytick_17">
     <g id="line2d_25">
      <g>
       <use xlink:href="#m259cfb6ef6" x="207.207812" y="238.13623" style="stroke: #000000; stroke-width: 0.8"/>
      </g>
     </g>
     <g id="text_26">
      <!-- synaptic vesicle membrane -->
      <g transform="translate(62.510937 241.935449) scale(0.1 -0.1)">
       <defs>
        <path id="DejaVuSans-76" d="M 191 3500 
L 800 3500 
L 1894 563 
L 2988 3500 
L 3597 3500 
L 2284 0 
L 1503 0 
L 191 3500 
z
" transform="scale(0.015625)"/>
       </defs>
       <use xlink:href="#DejaVuSans-73"/>
       <use xlink:href="#DejaVuSans-79" transform="translate(52.099609 0)"/>
       <use xlink:href="#DejaVuSans-6e" transform="translate(111.279297 0)"/>
       <use xlink:href="#DejaVuSans-61" transform="translate(174.658203 0)"/>
       <use xlink:href="#DejaVuSans-70" transform="translate(235.9375 0)"/>
       <use xlink:href="#DejaVuSans-74" transform="translate(299.414062 0)"/>
       <use xlink:href="#DejaVuSans-69" transform="translate(338.623047 0)"/>
       <use xlink:href="#DejaVuSans-63" transform="translate(366.40625 0)"/>
       <use xlink:href="#DejaVuSans-20" transform="translate(421.386719 0)"/>
       <use xlink:href="#DejaVuSans-76" transform="translate(453.173828 0)"/>
       <use xlink:href="#DejaVuSans-65" transform="translate(512.353516 0)"/>
       <use xlink:href="#DejaVuSans-73" transform="translate(573.876953 0)"/>
       <use xlink:href="#DejaVuSans-69" transform="translate(625.976562 0)"/>
       <use xlink:href="#DejaVuSans-63" transform="translate(653.759766 0)"/>
       <use xlink:href="#DejaVuSans-6c" transform="translate(708.740234 0)"/>
       <use xlink:href="#DejaVuSans-65" transform="translate(736.523438 0)"/>
       <use xlink:href="#DejaVuSans-20" transform="translate(798.046875 0)"/>
       <use xlink:href="#DejaVuSans-6d" transform="translate(829.833984 0)"/>
       <use xlink:href="#DejaVuSans-65" transform="translate(927.246094 0)"/>
       <use xlink:href="#DejaVuSans-6d" transform="translate(988.769531 0)"/>
       <use xlink:href="#DejaVuSans-62" transform="translate(1086.181641 0)"/>
       <use xlink:href="#DejaVuSans-72" transform="translate(1149.658203 0)"/>
       <use xlink:href="#DejaVuSans-61" transform="translate(1190.771484 0)"/>
       <use xlink:href="#DejaVuSans-6e" transform="translate(1252.050781 0)"/>
       <use xlink:href="#DejaVuSans-65" transform="translate(1315.429688 0)"/>
      </g>
     </g>
    </g>
    <g id="ytick_18">
     <g id="line2d_26">
      <g>
       <use xlink:href="#m259cfb6ef6" x="207.207812" y="250.868862" style="stroke: #000000; stroke-width: 0.8"/>
      </g>
     </g>
     <g id="text_27">
      <!-- cytosolic ribosome -->
      <g transform="translate(106.6125 254.668081) scale(0.1 -0.1)">
       <use xlink:href="#DejaVuSans-63"/>
       <use xlink:href="#DejaVuSans-79" transform="translate(54.980469 0)"/>
       <use xlink:href="#DejaVuSans-74" transform="translate(114.160156 0)"/>
       <use xlink:href="#DejaVuSans-6f" transform="translate(153.369141 0)"/>
       <use xlink:href="#DejaVuSans-73" transform="translate(214.550781 0)"/>
       <use xlink:href="#DejaVuSans-6f" transform="translate(266.650391 0)"/>
       <use xlink:href="#DejaVuSans-6c" transform="translate(327.832031 0)"/>
       <use xlink:href="#DejaVuSans-69" transform="translate(355.615234 0)"/>
       <use xlink:href="#DejaVuSans-63" transform="translate(383.398438 0)"/>
       <use xlink:href="#DejaVuSans-20" transform="translate(438.378906 0)"/>
       <use xlink:href="#DejaVuSans-72" transform="translate(470.166016 0)"/>
       <use xlink:href="#DejaVuSans-69" transform="translate(511.279297 0)"/>
       <use xlink:href="#DejaVuSans-62" transform="translate(539.0625 0)"/>
       <use xlink:href="#DejaVuSans-6f" transform="translate(602.539062 0)"/>
       <use xlink:href="#DejaVuSans-73" transform="translate(663.720703 0)"/>
       <use xlink:href="#DejaVuSans-6f" transform="translate(715.820312 0)"/>
       <use xlink:href="#DejaVuSans-6d" transform="translate(777.001953 0)"/>
       <use xlink:href="#DejaVuSans-65" transform="translate(874.414062 0)"/>
      </g>
     </g>
    </g>
    <g id="ytick_19">
     <g id="line2d_27">
      <g>
       <use xlink:href="#m259cfb6ef6" x="207.207812" y="263.601493" style="stroke: #000000; stroke-width: 0.8"/>
      </g>
     </g>
     <g id="text_28">
      <!-- cytoplasmic ribonucleoprotein granule -->
      <g transform="translate(7.598437 267.400712) scale(0.1 -0.1)">
       <use xlink:href="#DejaVuSans-63"/>
       <use xlink:href="#DejaVuSans-79" transform="translate(54.980469 0)"/>
       <use xlink:href="#DejaVuSans-74" transform="translate(114.160156 0)"/>
       <use xlink:href="#DejaVuSans-6f" transform="translate(153.369141 0)"/>
       <use xlink:href="#DejaVuSans-70" transform="translate(214.550781 0)"/>
       <use xlink:href="#DejaVuSans-6c" transform="translate(278.027344 0)"/>
       <use xlink:href="#DejaVuSans-61" transform="translate(305.810547 0)"/>
       <use xlink:href="#DejaVuSans-73" transform="translate(367.089844 0)"/>
       <use xlink:href="#DejaVuSans-6d" transform="translate(419.189453 0)"/>
       <use xlink:href="#DejaVuSans-69" transform="translate(516.601562 0)"/>
       <use xlink:href="#DejaVuSans-63" transform="translate(544.384766 0)"/>
       <use xlink:href="#DejaVuSans-20" transform="translate(599.365234 0)"/>
       <use xlink:href="#DejaVuSans-72" transform="translate(631.152344 0)"/>
       <use xlink:href="#DejaVuSans-69" transform="translate(672.265625 0)"/>
       <use xlink:href="#DejaVuSans-62" transform="translate(700.048828 0)"/>
       <use xlink:href="#DejaVuSans-6f" transform="translate(763.525391 0)"/>
       <use xlink:href="#DejaVuSans-6e" transform="translate(824.707031 0)"/>
       <use xlink:href="#DejaVuSans-75" transform="translate(888.085938 0)"/>
       <use xlink:href="#DejaVuSans-63" transform="translate(951.464844 0)"/>
       <use xlink:href="#DejaVuSans-6c" transform="translate(1006.445312 0)"/>
       <use xlink:href="#DejaVuSans-65" transform="translate(1034.228516 0)"/>
       <use xlink:href="#DejaVuSans-6f" transform="translate(1095.751953 0)"/>
       <use xlink:href="#DejaVuSans-70" transform="translate(1156.933594 0)"/>
       <use xlink:href="#DejaVuSans-72" transform="translate(1220.410156 0)"/>
       <use xlink:href="#DejaVuSans-6f" transform="translate(1259.273438 0)"/>
       <use xlink:href="#DejaVuSans-74" transform="translate(1320.455078 0)"/>
       <use xlink:href="#DejaVuSans-65" transform="translate(1359.664062 0)"/>
       <use xlink:href="#DejaVuSans-69" transform="translate(1421.1875 0)"/>
       <use xlink:href="#DejaVuSans-6e" transform="translate(1448.970703 0)"/>
       <use xlink:href="#DejaVuSans-20" transform="translate(1512.349609 0)"/>
       <use xlink:href="#DejaVuSans-67" transform="translate(1544.136719 0)"/>
       <use xlink:href="#DejaVuSans-72" transform="translate(1607.613281 0)"/>
       <use xlink:href="#DejaVuSans-61" transform="translate(1648.726562 0)"/>
       <use xlink:href="#DejaVuSans-6e" transform="translate(1710.005859 0)"/>
       <use xlink:href="#DejaVuSans-75" transform="translate(1773.384766 0)"/>
       <use xlink:href="#DejaVuSans-6c" transform="translate(1836.763672 0)"/>
       <use xlink:href="#DejaVuSans-65" transform="translate(1864.546875 0)"/>
      </g>
     </g>
    </g>
    <g id="ytick_20">
     <g id="line2d_28">
      <g>
       <use xlink:href="#m259cfb6ef6" x="207.207812" y="276.334125" style="stroke: #000000; stroke-width: 0.8"/>
      </g>
     </g>
     <g id="text_29">
      <!-- ciliary tip -->
      <g transform="translate(153.992188 280.133344) scale(0.1 -0.1)">
       <use xlink:href="#DejaVuSans-63"/>
       <use xlink:href="#DejaVuSans-69" transform="translate(54.980469 0)"/>
       <use xlink:href="#DejaVuSans-6c" transform="translate(82.763672 0)"/>
       <use xlink:href="#DejaVuSans-69" transform="translate(110.546875 0)"/>
       <use xlink:href="#DejaVuSans-61" transform="translate(138.330078 0)"/>
       <use xlink:href="#DejaVuSans-72" transform="translate(199.609375 0)"/>
       <use xlink:href="#DejaVuSans-79" transform="translate(240.722656 0)"/>
       <use xlink:href="#DejaVuSans-20" transform="translate(299.902344 0)"/>
       <use xlink:href="#DejaVuSans-74" transform="translate(331.689453 0)"/>
       <use xlink:href="#DejaVuSans-69" transform="translate(370.898438 0)"/>
       <use xlink:href="#DejaVuSans-70" transform="translate(398.681641 0)"/>
      </g>
     </g>
    </g>
   </g>
   <g id="line2d_29"/>
   <g id="line2d_30"/>
   <g id="line2d_31"/>
   <g id="line2d_32"/>
   <g id="line2d_33"/>
   <g id="line2d_34"/>
   <g id="line2d_35"/>
   <g id="line2d_36"/>
   <g id="line2d_37"/>
   <g id="line2d_38"/>
   <g id="line2d_39"/>
   <g id="line2d_40"/>
   <g id="line2d_41"/>
   <g id="line2d_42"/>
   <g id="patch_3">
    <path d="M 207.207812 288.430125 
L 207.207812 22.318125 
" style="fill: none; stroke: #000000; stroke-width: 0.8; stroke-linejoin: miter; stroke-linecap: square"/>
   </g>
   <g id="patch_4">
    <path d="M 564.327812 288.430125 
L 564.327812 22.318125 
" style="fill: none; stroke: #000000; stroke-width: 0.8; stroke-linejoin: miter; stroke-linecap: square"/>
   </g>
   <g id="patch_5">
    <path d="M 207.207812 288.430125 
L 564.327812 288.430125 
" style="fill: none; stroke: #000000; stroke-width: 0.8; stroke-linejoin: miter; stroke-linecap: square"/>
   </g>
   <g id="patch_6">
    <path d="M 207.207812 22.318125 
L 564.327812 22.318125 
" style="fill: none; stroke: #000000; stroke-width: 0.8; stroke-linejoin: miter; stroke-linecap: square"/>
   </g>
   <g id="text_30">
    <!-- Top 20 Enriched Cellular Components -->
    <g transform="translate(273.262187 16.318125) scale(0.12 -0.12)">
     <defs>
      <path id="DejaVuSans-54" d="M -19 4666 
L 3928 4666 
L 3928 4134 
L 2272 4134 
L 2272 0 
L 1638 0 
L 1638 4134 
L -19 4134 
L -19 4666 
z
" transform="scale(0.015625)"/>
     </defs>
     <use xlink:href="#DejaVuSans-54"/>
     <use xlink:href="#DejaVuSans-6f" transform="translate(44.083984 0)"/>
     <use xlink:href="#DejaVuSans-70" transform="translate(105.265625 0)"/>
     <use xlink:href="#DejaVuSans-20" transform="translate(168.742188 0)"/>
     <use xlink:href="#DejaVuSans-32" transform="translate(200.529297 0)"/>
     <use xlink:href="#DejaVuSans-30" transform="translate(264.152344 0)"/>
     <use xlink:href="#DejaVuSans-20" transform="translate(327.775391 0)"/>
     <use xlink:href="#DejaVuSans-45" transform="translate(359.5625 0)"/>
     <use xlink:href="#DejaVuSans-6e" transform="translate(422.746094 0)"/>
     <use xlink:href="#DejaVuSans-72" transform="translate(486.125 0)"/>
     <use xlink:href="#DejaVuSans-69" transform="translate(527.238281 0)"/>
     <use xlink:href="#DejaVuSans-63" transform="translate(555.021484 0)"/>
     <use xlink:href="#DejaVuSans-68" transform="translate(610.001953 0)"/>
     <use xlink:href="#DejaVuSans-65" transform="translate(673.380859 0)"/>
     <use xlink:href="#DejaVuSans-64" transform="translate(734.904297 0)"/>
     <use xlink:href="#DejaVuSans-20" transform="translate(798.380859 0)"/>
     <use xlink:href="#DejaVuSans-43" transform="translate(830.167969 0)"/>
     <use xlink:href="#DejaVuSans-65" transform="translate(899.992188 0)"/>
     <use xlink:href="#DejaVuSans-6c" transform="translate(961.515625 0)"/>
     <use xlink:href="#DejaVuSans-6c" transform="translate(989.298828 0)"/>
     <use xlink:href="#DejaVuSans-75" transform="translate(1017.082031 0)"/>
     <use xlink:href="#DejaVuSans-6c" transform="translate(1080.460938 0)"/>
     <use xlink:href="#DejaVuSans-61" transform="translate(1108.244141 0)"/>
     <use xlink:href="#DejaVuSans-72" transform="translate(1169.523438 0)"/>
     <use xlink:href="#DejaVuSans-20" transform="translate(1210.636719 0)"/>
     <use xlink:href="#DejaVuSans-43" transform="translate(1242.423828 0)"/>
     <use xlink:href="#DejaVuSans-6f" transform="translate(1312.248047 0)"/>
     <use xlink:href="#DejaVuSans-6d" transform="translate(1373.429688 0)"/>
     <use xlink:href="#DejaVuSans-70" transform="translate(1470.841797 0)"/>
     <use xlink:href="#DejaVuSans-6f" transform="translate(1534.318359 0)"/>
     <use xlink:href="#DejaVuSans-6e" transform="translate(1595.5 0)"/>
     <use xlink:href="#DejaVuSans-65" transform="translate(1658.878906 0)"/>
     <use xlink:href="#DejaVuSans-6e" transform="translate(1720.402344 0)"/>
     <use xlink:href="#DejaVuSans-74" transform="translate(1783.78125 0)"/>
     <use xlink:href="#DejaVuSans-73" transform="translate(1822.990234 0)"/>
    </g>
   </g>
   <g id="legend_1">
    <g id="patch_7">
     <path d="M 571.327812 235.811875 
L 658.566875 235.811875 
Q 660.566875 235.811875 660.566875 233.811875 
L 660.566875 29.318125 
Q 660.566875 27.318125 658.566875 27.318125 
L 571.327812 27.318125 
Q 569.327812 27.318125 569.327812 29.318125 
L 569.327812 233.811875 
Q 569.327812 235.811875 571.327812 235.811875 
z
" style="fill: #ffffff; opacity: 0.8; stroke: #cccccc; stroke-linejoin: miter"/>
    </g>
    <g id="line2d_43"/>
    <g id="text_31">
     <!-- -log10 FDR -->
     <g transform="translate(601.327812 38.916562) scale(0.1 -0.1)">
      <defs>
       <path id="DejaVuSans-44" d="M 1259 4147 
L 1259 519 
L 2022 519 
Q 2988 519 3436 956 
Q 3884 1394 3884 2338 
Q 3884 3275 3436 3711 
Q 2988 4147 2022 4147 
L 1259 4147 
z
M 628 4666 
L 1925 4666 
Q 3281 4666 3915 4102 
Q 4550 3538 4550 2338 
Q 4550 1131 3912 565 
Q 3275 0 1925 0 
L 628 0 
L 628 4666 
z
" transform="scale(0.015625)"/>
      </defs>
      <use xlink:href="#DejaVuSans-2d"/>
      <use xlink:href="#DejaVuSans-6c" transform="translate(36.083984 0)"/>
      <use xlink:href="#DejaVuSans-6f" transform="translate(63.867188 0)"/>
      <use xlink:href="#DejaVuSans-67" transform="translate(125.048828 0)"/>
      <use xlink:href="#DejaVuSans-31" transform="translate(188.525391 0)"/>
      <use xlink:href="#DejaVuSans-30" transform="translate(252.148438 0)"/>
      <use xlink:href="#DejaVuSans-20" transform="translate(315.771484 0)"/>
      <use xlink:href="#DejaVuSans-46" transform="translate(347.558594 0)"/>
      <use xlink:href="#DejaVuSans-44" transform="translate(405.078125 0)"/>
      <use xlink:href="#DejaVuSans-52" transform="translate(482.080078 0)"/>
     </g>
    </g>
    <g id="line2d_44">
     <defs>
      <path id="ma6e78d5e69" d="M 0 3 
C 0.795609 3 1.55874 2.683901 2.12132 2.12132 
C 2.683901 1.55874 3 0.795609 3 0 
C 3 -0.795609 2.683901 -1.55874 2.12132 -2.12132 
C 1.55874 -2.683901 0.795609 -3 0 -3 
C -0.795609 -3 -1.55874 -2.683901 -2.12132 -2.12132 
C -2.683901 -1.55874 -3 -0.795609 -3 0 
C -3 0.795609 -2.683901 1.55874 -2.12132 2.12132 
C -1.55874 2.683901 -0.795609 3 0 3 
z
" style="stroke: #ffffff; stroke-width: 0.406782"/>
     </defs>
     <g>
      <use xlink:href="#ma6e78d5e69" x="583.327812" y="50.094688" style="fill: #455cce; stroke: #ffffff; stroke-width: 0.406782"/>
     </g>
    </g>
    <g id="text_32">
     <!-- 5 -->
     <g transform="translate(601.327812 53.594688) scale(0.1 -0.1)">
      <defs>
       <path id="DejaVuSans-35" d="M 691 4666 
L 3169 4666 
L 3169 4134 
L 1269 4134 
L 1269 2991 
Q 1406 3038 1543 3061 
Q 1681 3084 1819 3084 
Q 2600 3084 3056 2656 
Q 3513 2228 3513 1497 
Q 3513 744 3044 326 
Q 2575 -91 1722 -91 
Q 1428 -91 1123 -41 
Q 819 9 494 109 
L 494 744 
Q 775 591 1075 516 
Q 1375 441 1709 441 
Q 2250 441 2565 725 
Q 2881 1009 2881 1497 
Q 2881 1984 2565 2268 
Q 2250 2553 1709 2553 
Q 1456 2553 1204 2497 
Q 953 2441 691 2322 
L 691 4666 
z
" transform="scale(0.015625)"/>
      </defs>
      <use xlink:href="#DejaVuSans-35"/>
     </g>
    </g>
    <g id="line2d_45">
     <defs>
      <path id="m19549e2ebb" d="M 0 3 
C 0.795609 3 1.55874 2.683901 2.12132 2.12132 
C 2.683901 1.55874 3 0.795609 3 0 
C 3 -0.795609 2.683901 -1.55874 2.12132 -2.12132 
C 1.55874 -2.683901 0.795609 -3 0 -3 
C -0.795609 -3 -1.55874 -2.683901 -2.12132 -2.12132 
C -2.683901 -1.55874 -3 -0.795609 -3 0 
C -3 0.795609 -2.683901 1.55874 -2.12132 2.12132 
C -1.55874 2.683901 -0.795609 3 0 3 
z
" style="stroke: #ffffff; stroke-width: 0.406782"/>
     </defs>
     <g>
      <use xlink:href="#m19549e2ebb" x="583.327812" y="64.772812" style="fill: #85a8fc; stroke: #ffffff; stroke-width: 0.406782"/>
     </g>
    </g>
    <g id="text_33">
     <!-- 10 -->
     <g transform="translate(601.327812 68.272812) scale(0.1 -0.1)">
      <use xlink:href="#DejaVuSans-31"/>
      <use xlink:href="#DejaVuSans-30" transform="translate(63.623047 0)"/>
     </g>
    </g>
    <g id="line2d_46">
     <defs>
      <path id="ma44c491666" d="M 0 3 
C 0.795609 3 1.55874 2.683901 2.12132 2.12132 
C 2.683901 1.55874 3 0.795609 3 0 
C 3 -0.795609 2.683901 -1.55874 2.12132 -2.12132 
C 1.55874 -2.683901 0.795609 -3 0 -3 
C -0.795609 -3 -1.55874 -2.683901 -2.12132 -2.12132 
C -2.683901 -1.55874 -3 -0.795609 -3 0 
C -3 0.795609 -2.683901 1.55874 -2.12132 2.12132 
C -1.55874 2.683901 -0.795609 3 0 3 
z
" style="stroke: #ffffff; stroke-width: 0.406782"/>
     </defs>
     <g>
      <use xlink:href="#ma44c491666" x="583.327812" y="79.450938" style="fill: #c6d6f1; stroke: #ffffff; stroke-width: 0.406782"/>
     </g>
    </g>
    <g id="text_34">
     <!-- 15 -->
     <g transform="translate(601.327812 82.950938) scale(0.1 -0.1)">
      <use xlink:href="#DejaVuSans-31"/>
      <use xlink:href="#DejaVuSans-35" transform="translate(63.623047 0)"/>
     </g>
    </g>
    <g id="line2d_47">
     <defs>
      <path id="mf9df4aebb3" d="M 0 3 
C 0.795609 3 1.55874 2.683901 2.12132 2.12132 
C 2.683901 1.55874 3 0.795609 3 0 
C 3 -0.795609 2.683901 -1.55874 2.12132 -2.12132 
C 1.55874 -2.683901 0.795609 -3 0 -3 
C -0.795609 -3 -1.55874 -2.683901 -2.12132 -2.12132 
C -2.683901 -1.55874 -3 -0.795609 -3 0 
C -3 0.795609 -2.683901 1.55874 -2.12132 2.12132 
C -1.55874 2.683901 -0.795609 3 0 3 
z
" style="stroke: #ffffff; stroke-width: 0.406782"/>
     </defs>
     <g>
      <use xlink:href="#mf9df4aebb3" x="583.327812" y="94.129063" style="fill: #f3c8b2; stroke: #ffffff; stroke-width: 0.406782"/>
     </g>
    </g>
    <g id="text_35">
     <!-- 20 -->
     <g transform="translate(601.327812 97.629063) scale(0.1 -0.1)">
      <use xlink:href="#DejaVuSans-32"/>
      <use xlink:href="#DejaVuSans-30" transform="translate(63.623047 0)"/>
     </g>
    </g>
    <g id="line2d_48">
     <defs>
      <path id="m3854639901" d="M 0 3 
C 0.795609 3 1.55874 2.683901 2.12132 2.12132 
C 2.683901 1.55874 3 0.795609 3 0 
C 3 -0.795609 2.683901 -1.55874 2.12132 -2.12132 
C 1.55874 -2.683901 0.795609 -3 0 -3 
C -0.795609 -3 -1.55874 -2.683901 -2.12132 -2.12132 
C -2.683901 -1.55874 -3 -0.795609 -3 0 
C -3 0.795609 -2.683901 1.55874 -2.12132 2.12132 
C -1.55874 2.683901 -0.795609 3 0 3 
z
" style="stroke: #ffffff; stroke-width: 0.406782"/>
     </defs>
     <g>
      <use xlink:href="#m3854639901" x="583.327812" y="108.807187" style="fill: #ed8366; stroke: #ffffff; stroke-width: 0.406782"/>
     </g>
    </g>
    <g id="text_36">
     <!-- 25 -->
     <g transform="translate(601.327812 112.307187) scale(0.1 -0.1)">
      <use xlink:href="#DejaVuSans-32"/>
      <use xlink:href="#DejaVuSans-35" transform="translate(63.623047 0)"/>
     </g>
    </g>
    <g id="line2d_49">
     <defs>
      <path id="mda6955d0e2" d="M 0 3 
C 0.795609 3 1.55874 2.683901 2.12132 2.12132 
C 2.683901 1.55874 3 0.795609 3 0 
C 3 -0.795609 2.683901 -1.55874 2.12132 -2.12132 
C 1.55874 -2.683901 0.795609 -3 0 -3 
C -0.795609 -3 -1.55874 -2.683901 -2.12132 -2.12132 
C -2.683901 -1.55874 -3 -0.795609 -3 0 
C -3 0.795609 -2.683901 1.55874 -2.12132 2.12132 
C -1.55874 2.683901 -0.795609 3 0 3 
z
" style="stroke: #ffffff; stroke-width: 0.406782"/>
     </defs>
     <g>
      <use xlink:href="#mda6955d0e2" x="583.327812" y="123.485313" style="fill: #b50927; stroke: #ffffff; stroke-width: 0.406782"/>
     </g>
    </g>
    <g id="text_37">
     <!-- 30 -->
     <g transform="translate(601.327812 126.985313) scale(0.1 -0.1)">
      <use xlink:href="#DejaVuSans-33"/>
      <use xlink:href="#DejaVuSans-30" transform="translate(63.623047 0)"/>
     </g>
    </g>
    <g id="line2d_50"/>
    <g id="text_38">
     <!-- Gene Ratio -->
     <g transform="translate(601.327812 141.663437) scale(0.1 -0.1)">
      <use xlink:href="#DejaVuSans-47"/>
      <use xlink:href="#DejaVuSans-65" transform="translate(77.490234 0)"/>
      <use xlink:href="#DejaVuSans-6e" transform="translate(139.013672 0)"/>
      <use xlink:href="#DejaVuSans-65" transform="translate(202.392578 0)"/>
      <use xlink:href="#DejaVuSans-20" transform="translate(263.916016 0)"/>
      <use xlink:href="#DejaVuSans-52" transform="translate(295.703125 0)"/>
      <use xlink:href="#DejaVuSans-61" transform="translate(362.935547 0)"/>
      <use xlink:href="#DejaVuSans-74" transform="translate(424.214844 0)"/>
      <use xlink:href="#DejaVuSans-69" transform="translate(463.423828 0)"/>
      <use xlink:href="#DejaVuSans-6f" transform="translate(491.207031 0)"/>
     </g>
    </g>
    <g id="line2d_51">
     <defs>
      <path id="m22c8fc2bbc" d="M 0 2.700209 
C 0.716104 2.700209 1.402974 2.415698 1.909336 1.909336 
C 2.415698 1.402974 2.700209 0.716104 2.700209 0 
C 2.700209 -0.716104 2.415698 -1.402974 1.909336 -1.909336 
C 1.402974 -2.415698 0.716104 -2.700209 0 -2.700209 
C -0.716104 -2.700209 -1.402974 -2.415698 -1.909336 -1.909336 
C -2.415698 -1.402974 -2.700209 -0.716104 -2.700209 0 
C -2.700209 0.716104 -2.415698 1.402974 -1.909336 1.909336 
C -1.402974 2.415698 -0.716104 2.700209 0 2.700209 
z
" style="stroke: #ffffff; stroke-width: 0.406782"/>
     </defs>
     <g>
      <use xlink:href="#m22c8fc2bbc" x="583.327812" y="152.841563" style="fill: #333333; stroke: #ffffff; stroke-width: 0.406782"/>
     </g>
    </g>
    <g id="text_39">
     <!-- 0.005 -->
     <g transform="translate(601.327812 156.341563) scale(0.1 -0.1)">
      <use xlink:href="#DejaVuSans-30"/>
      <use xlink:href="#DejaVuSans-2e" transform="translate(63.623047 0)"/>
      <use xlink:href="#DejaVuSans-30" transform="translate(95.410156 0)"/>
      <use xlink:href="#DejaVuSans-30" transform="translate(159.033203 0)"/>
      <use xlink:href="#DejaVuSans-35" transform="translate(222.65625 0)"/>
     </g>
    </g>
    <g id="line2d_52">
     <defs>
      <path id="m6bad044257" d="M 0 3.578749 
C 0.949095 3.578749 1.859446 3.201669 2.530558 2.530558 
C 3.201669 1.859446 3.578749 0.949095 3.578749 0 
C 3.578749 -0.949095 3.201669 -1.859446 2.530558 -2.530558 
C 1.859446 -3.201669 0.949095 -3.578749 0 -3.578749 
C -0.949095 -3.578749 -1.859446 -3.201669 -2.530558 -2.530558 
C -3.201669 -1.859446 -3.578749 -0.949095 -3.578749 0 
C -3.578749 0.949095 -3.201669 1.859446 -2.530558 2.530558 
C -1.859446 3.201669 -0.949095 3.578749 0 3.578749 
z
" style="stroke: #ffffff; stroke-width: 0.406782"/>
     </defs>
     <g>
      <use xlink:href="#m6bad044257" x="583.327812" y="167.519687" style="fill: #333333; stroke: #ffffff; stroke-width: 0.406782"/>
     </g>
    </g>
    <g id="text_40">
     <!-- 0.010 -->
     <g transform="translate(601.327812 171.019687) scale(0.1 -0.1)">
      <use xlink:href="#DejaVuSans-30"/>
      <use xlink:href="#DejaVuSans-2e" transform="translate(63.623047 0)"/>
      <use xlink:href="#DejaVuSans-30" transform="translate(95.410156 0)"/>
      <use xlink:href="#DejaVuSans-31" transform="translate(159.033203 0)"/>
      <use xlink:href="#DejaVuSans-30" transform="translate(222.65625 0)"/>
     </g>
    </g>
    <g id="line2d_53">
     <defs>
      <path id="mc20af8c52e" d="M 0 4.280626 
C 1.135235 4.280626 2.224127 3.829592 3.02686 3.02686 
C 3.829592 2.224127 4.280626 1.135235 4.280626 0 
C 4.280626 -1.135235 3.829592 -2.224127 3.02686 -3.02686 
C 2.224127 -3.829592 1.135235 -4.280626 0 -4.280626 
C -1.135235 -4.280626 -2.224127 -3.829592 -3.02686 -3.02686 
C -3.829592 -2.224127 -4.280626 -1.135235 -4.280626 0 
C -4.280626 1.135235 -3.829592 2.224127 -3.02686 3.02686 
C -2.224127 3.829592 -1.135235 4.280626 0 4.280626 
z
" style="stroke: #ffffff; stroke-width: 0.406782"/>
     </defs>
     <g>
      <use xlink:href="#mc20af8c52e" x="583.327812" y="182.197812" style="fill: #333333; stroke: #ffffff; stroke-width: 0.406782"/>
     </g>
    </g>
    <g id="text_41">
     <!-- 0.015 -->
     <g transform="translate(601.327812 185.697812) scale(0.1 -0.1)">
      <use xlink:href="#DejaVuSans-30"/>
      <use xlink:href="#DejaVuSans-2e" transform="translate(63.623047 0)"/>
      <use xlink:href="#DejaVuSans-30" transform="translate(95.410156 0)"/>
      <use xlink:href="#DejaVuSans-31" transform="translate(159.033203 0)"/>
      <use xlink:href="#DejaVuSans-35" transform="translate(222.65625 0)"/>
     </g>
    </g>
    <g id="line2d_54">
     <defs>
      <path id="m7ded80f33d" d="M 0 4.88263 
C 1.294889 4.88263 2.536916 4.368165 3.452541 3.452541 
C 4.368165 2.536916 4.88263 1.294889 4.88263 0 
C 4.88263 -1.294889 4.368165 -2.536916 3.452541 -3.452541 
C 2.536916 -4.368165 1.294889 -4.88263 0 -4.88263 
C -1.294889 -4.88263 -2.536916 -4.368165 -3.452541 -3.452541 
C -4.368165 -2.536916 -4.88263 -1.294889 -4.88263 0 
C -4.88263 1.294889 -4.368165 2.536916 -3.452541 3.452541 
C -2.536916 4.368165 -1.294889 4.88263 0 4.88263 
z
" style="stroke: #ffffff; stroke-width: 0.406782"/>
     </defs>
     <g>
      <use xlink:href="#m7ded80f33d" x="583.327812" y="196.875937" style="fill: #333333; stroke: #ffffff; stroke-width: 0.406782"/>
     </g>
    </g>
    <g id="text_42">
     <!-- 0.020 -->
     <g transform="translate(601.327812 200.375937) scale(0.1 -0.1)">
      <use xlink:href="#DejaVuSans-30"/>
      <use xlink:href="#DejaVuSans-2e" transform="translate(63.623047 0)"/>
      <use xlink:href="#DejaVuSans-30" transform="translate(95.410156 0)"/>
      <use xlink:href="#DejaVuSans-32" transform="translate(159.033203 0)"/>
      <use xlink:href="#DejaVuSans-30" transform="translate(222.65625 0)"/>
     </g>
    </g>
    <g id="line2d_55">
     <defs>
      <path id="m3e384801cb" d="M 0 5.418154 
C 1.436911 5.418154 2.815164 4.847263 3.831213 3.831213 
C 4.847263 2.815164 5.418154 1.436911 5.418154 0 
C 5.418154 -1.436911 4.847263 -2.815164 3.831213 -3.831213 
C 2.815164 -4.847263 1.436911 -5.418154 0 -5.418154 
C -1.436911 -5.418154 -2.815164 -4.847263 -3.831213 -3.831213 
C -4.847263 -2.815164 -5.418154 -1.436911 -5.418154 0 
C -5.418154 1.436911 -4.847263 2.815164 -3.831213 3.831213 
C -2.815164 4.847263 -1.436911 5.418154 0 5.418154 
z
" style="stroke: #ffffff; stroke-width: 0.406782"/>
     </defs>
     <g>
      <use xlink:href="#m3e384801cb" x="583.327812" y="211.554062" style="fill: #333333; stroke: #ffffff; stroke-width: 0.406782"/>
     </g>
    </g>
    <g id="text_43">
     <!-- 0.025 -->
     <g transform="translate(601.327812 215.054062) scale(0.1 -0.1)">
      <use xlink:href="#DejaVuSans-30"/>
      <use xlink:href="#DejaVuSans-2e" transform="translate(63.623047 0)"/>
      <use xlink:href="#DejaVuSans-30" transform="translate(95.410156 0)"/>
      <use xlink:href="#DejaVuSans-32" transform="translate(159.033203 0)"/>
      <use xlink:href="#DejaVuSans-35" transform="translate(222.65625 0)"/>
     </g>
    </g>
    <g id="line2d_56">
     <defs>
      <path id="mb91e32c0c4" d="M 0 5.905312 
C 1.566107 5.905312 3.068281 5.283091 4.175686 4.175686 
C 5.283091 3.068281 5.905312 1.566107 5.905312 0 
C 5.905312 -1.566107 5.283091 -3.068281 4.175686 -4.175686 
C 3.068281 -5.283091 1.566107 -5.905312 0 -5.905312 
C -1.566107 -5.905312 -3.068281 -5.283091 -4.175686 -4.175686 
C -5.283091 -3.068281 -5.905312 -1.566107 -5.905312 0 
C -5.905312 1.566107 -5.283091 3.068281 -4.175686 4.175686 
C -3.068281 5.283091 -1.566107 5.905312 0 5.905312 
z
" style="stroke: #ffffff; stroke-width: 0.406782"/>
     </defs>
     <g>
      <use xlink:href="#mb91e32c0c4" x="583.327812" y="226.232187" style="fill: #333333; stroke: #ffffff; stroke-width: 0.406782"/>
     </g>
    </g>
    <g id="text_44">
     <!-- 0.030 -->
     <g transform="translate(601.327812 229.732187) scale(0.1 -0.1)">
      <use xlink:href="#DejaVuSans-30"/>
      <use xlink:href="#DejaVuSans-2e" transform="translate(63.623047 0)"/>
      <use xlink:href="#DejaVuSans-30" transform="translate(95.410156 0)"/>
      <use xlink:href="#DejaVuSans-33" transform="translate(159.033203 0)"/>
      <use xlink:href="#DejaVuSans-30" transform="translate(222.65625 0)"/>
     </g>
    </g>
   </g>
  </g>
 </g>
 <defs>
  <clipPath id="pa4ec1a801f">
   <rect x="207.207812" y="22.318125" width="357.12" height="266.112"/>
  </clipPath>
 </defs>
</svg>
