<?xml version="1.0" encoding="utf-8" standalone="no"?>
<!DOCTYPE svg PUBLIC "-//W3C//DTD SVG 1.1//EN"
  "http://www.w3.org/Graphics/SVG/1.1/DTD/svg11.dtd">
<svg xmlns:xlink="http://www.w3.org/1999/xlink" width="677.748125pt" height="325.986375pt" viewBox="0 0 677.748125 325.986375" xmlns="http://www.w3.org/2000/svg" version="1.1">
 <metadata>
  <rdf:RDF xmlns:dc="http://purl.org/dc/elements/1.1/" xmlns:cc="http://creativecommons.org/ns#" xmlns:rdf="http://www.w3.org/1999/02/22-rdf-syntax-ns#">
   <cc:Work>
    <dc:type rdf:resource="http://purl.org/dc/dcmitype/StillImage"/>
    <dc:date>2026-01-06T22:29:34.551114</dc:date>
    <dc:format>image/svg+xml</dc:format>
    <dc:creator>
     <cc:Agent>
      <dc:title>Matplotlib v3.10.7, https://matplotlib.org/</dc:title>
     </cc:Agent>
    </dc:creator>
   </cc:Work>
  </rdf:RDF>
 </metadata>
 <defs>
  <style type="text/css">*{stroke-linejoin: round; stroke-linecap: butt}</style>
 </defs>
 <g id="figure_1">
  <g id="patch_1">
   <path d="M 0 325.986375 
L 677.748125 325.986375 
L 677.748125 0 
L 0 0 
z
" style="fill: #ffffff"/>
  </g>
  <g id="axes_1">
   <g id="patch_2">
    <path d="M 217.189063 288.430125 
L 574.309062 288.430125 
L 574.309062 22.318125 
L 217.189063 22.318125 
z
" style="fill: #ffffff"/>
   </g>
   <g id="PathCollection_1">
    <path d="M 558.076335 36.813253 
C 558.712591 36.813253 559.322874 36.560466 559.772775 36.110564 
C 560.222676 35.660663 560.475463 35.050381 560.475463 34.414125 
C 560.475463 33.777869 560.222676 33.167587 559.772775 32.717686 
C 559.322874 32.267784 558.712591 32.014997 558.076335 32.014997 
C 557.440079 32.014997 556.829797 32.267784 556.379896 32.717686 
C 555.929995 33.167587 555.677207 33.777869 555.677207 34.414125 
C 555.677207 35.050381 555.929995 35.660663 556.379896 36.110564 
C 556.829797 36.560466 557.440079 36.813253 558.076335 36.813253 
z
" clip-path="url(#p046352f200)" style="fill: #5a78e4; stroke: #ffffff; stroke-width: 0.381332"/>
    <path d="M 558.076335 49.545884 
C 558.712591 49.545884 559.322874 49.293097 559.772775 48.843196 
C 560.222676 48.393295 560.475463 47.783013 560.475463 47.146757 
C 560.475463 46.5105 560.222676 45.900218 559.772775 45.450317 
C 559.322874 45.000416 558.712591 44.747629 558.076335 44.747629 
C 557.440079 44.747629 556.829797 45.000416 556.379896 45.450317 
C 555.929995 45.900218 555.677207 46.5105 555.677207 47.146757 
C 555.677207 47.783013 555.929995 48.393295 556.379896 48.843196 
C 556.829797 49.293097 557.440079 49.545884 558.076335 49.545884 
z
" clip-path="url(#p046352f200)" style="fill: #5a78e4; stroke: #ffffff; stroke-width: 0.381332"/>
    <path d="M 551.811072 62.115456 
C 552.404084 62.115456 552.972888 61.87985 553.392211 61.460527 
C 553.811534 61.041204 554.04714 60.4724 554.04714 59.879388 
C 554.04714 59.286376 553.811534 58.717572 553.392211 58.298249 
C 552.972888 57.878926 552.404084 57.64332 551.811072 57.64332 
C 551.21806 57.64332 550.649256 57.878926 550.229933 58.298249 
C 549.81061 58.717572 549.575004 59.286376 549.575004 59.879388 
C 549.575004 60.4724 549.81061 61.041204 550.229933 61.460527 
C 550.649256 61.87985 551.21806 62.115456 551.811072 62.115456 
z
" clip-path="url(#p046352f200)" style="fill: #485fd1; stroke: #ffffff; stroke-width: 0.381332"/>
    <path d="M 551.811072 74.848088 
C 552.404084 74.848088 552.972888 74.612481 553.392211 74.193159 
C 553.811534 73.773836 554.04714 73.205032 554.04714 72.61202 
C 554.04714 72.019008 553.811534 71.450204 553.392211 71.030881 
C 552.972888 70.611558 552.404084 70.375952 551.811072 70.375952 
C 551.21806 70.375952 550.649256 70.611558 550.229933 71.030881 
C 549.81061 71.450204 549.575004 72.019008 549.575004 72.61202 
C 549.575004 73.205032 549.81061 73.773836 550.229933 74.193159 
C 550.649256 74.612481 551.21806 74.848088 551.811072 74.848088 
z
" clip-path="url(#p046352f200)" style="fill: #485fd1; stroke: #ffffff; stroke-width: 0.381332"/>
    <path d="M 427.495061 88.177187 
C 428.246258 88.177187 428.966789 87.878733 429.497966 87.347556 
C 430.029142 86.81638 430.327596 86.095848 430.327596 85.344651 
C 430.327596 84.593454 430.029142 83.872923 429.497966 83.341746 
C 428.966789 82.81057 428.246258 82.512116 427.495061 82.512116 
C 426.743864 82.512116 426.023333 82.81057 425.492156 83.341746 
C 424.96098 83.872923 424.662526 84.593454 424.662526 85.344651 
C 424.662526 86.095848 424.96098 86.81638 425.492156 87.347556 
C 426.023333 87.878733 426.743864 88.177187 427.495061 88.177187 
z
" clip-path="url(#p046352f200)" style="fill: #5572df; stroke: #ffffff; stroke-width: 0.381332"/>
    <path d="M 416.063704 100.773102 
C 416.778643 100.773102 417.464397 100.489054 417.969936 99.983515 
C 418.475474 99.477976 418.759523 98.792223 418.759523 98.077283 
C 418.759523 97.362343 418.475474 96.676589 417.969936 96.171051 
C 417.464397 95.665512 416.778643 95.381464 416.063704 95.381464 
C 415.348764 95.381464 414.66301 95.665512 414.157472 96.171051 
C 413.651933 96.676589 413.367884 97.362343 413.367884 98.077283 
C 413.367884 98.792223 413.651933 99.477976 414.157472 99.983515 
C 414.66301 100.489054 415.348764 100.773102 416.063704 100.773102 
z
" clip-path="url(#p046352f200)" style="fill: #455cce; stroke: #ffffff; stroke-width: 0.381332"/>
    <path d="M 354.007764 113.64245 
C 354.758961 113.64245 355.479492 113.343996 356.010669 112.812819 
C 356.541845 112.281643 356.840299 111.561112 356.840299 110.809914 
C 356.840299 110.058717 356.541845 109.338186 356.010669 108.80701 
C 355.479492 108.275833 354.758961 107.977379 354.007764 107.977379 
C 353.256567 107.977379 352.536036 108.275833 352.004859 108.80701 
C 351.473682 109.338186 351.175229 110.058717 351.175229 110.809914 
C 351.175229 111.561112 351.473682 112.281643 352.004859 112.812819 
C 352.536036 113.343996 353.256567 113.64245 354.007764 113.64245 
z
" clip-path="url(#p046352f200)" style="fill: #3b4cc0; stroke: #ffffff; stroke-width: 0.381332"/>
    <path d="M 340.045177 127.086293 
C 340.98499 127.086293 341.886437 126.712901 342.550985 126.048353 
C 343.215532 125.383805 343.588924 124.482359 343.588924 123.542546 
C 343.588924 122.602733 343.215532 121.701287 342.550985 121.036739 
C 341.886437 120.372191 340.98499 119.9988 340.045177 119.9988 
C 339.105365 119.9988 338.203918 120.372191 337.53937 121.036739 
C 336.874822 121.701287 336.501431 122.602733 336.501431 123.542546 
C 336.501431 124.482359 336.874822 125.383805 337.53937 126.048353 
C 338.203918 126.712901 339.105365 127.086293 340.045177 127.086293 
z
" clip-path="url(#p046352f200)" style="fill: #7093f3; stroke: #ffffff; stroke-width: 0.381332"/>
    <path d="M 317.047976 140.026146 
C 318.042745 140.026146 318.996904 139.630921 319.700312 138.927513 
C 320.403719 138.224106 320.798945 137.269946 320.798945 136.275178 
C 320.798945 135.280409 320.403719 134.32625 319.700312 133.622842 
C 318.996904 132.919435 318.042745 132.524209 317.047976 132.524209 
C 316.053208 132.524209 315.099048 132.919435 314.395641 133.622842 
C 313.692233 134.32625 313.297007 135.280409 313.297007 136.275178 
C 313.297007 137.269946 313.692233 138.224106 314.395641 138.927513 
C 315.099048 139.630921 316.053208 140.026146 317.047976 140.026146 
z
" clip-path="url(#p046352f200)" style="fill: #799cf8; stroke: #ffffff; stroke-width: 0.381332"/>
    <path d="M 291.764908 155.131534 
C 293.388939 155.131534 294.946672 154.486299 296.095035 153.337936 
C 297.243399 152.189573 297.888633 150.63184 297.888633 149.007809 
C 297.888633 147.383779 297.243399 145.826045 296.095035 144.677682 
C 294.946672 143.529319 293.388939 142.884085 291.764908 142.884085 
C 290.140878 142.884085 288.583145 143.529319 287.434781 144.677682 
C 286.286418 145.826045 285.641184 147.383779 285.641184 149.007809 
C 285.641184 150.63184 286.286418 152.189573 287.434781 153.337936 
C 288.583145 154.486299 290.140878 155.131534 291.764908 155.131534 
z
" clip-path="url(#p046352f200)" style="fill: #b40426; stroke: #ffffff; stroke-width: 0.381332"/>
    <path d="M 289.855339 165.590841 
C 290.876478 165.590841 291.85593 165.185138 292.577984 164.463085 
C 293.300037 163.741031 293.70574 162.761579 293.70574 161.740441 
C 293.70574 160.719303 293.300037 159.73985 292.577984 159.017797 
C 291.85593 158.295743 290.876478 157.890041 289.855339 157.890041 
C 288.834201 157.890041 287.854749 158.295743 287.132695 159.017797 
C 286.410642 159.73985 286.004939 160.719303 286.004939 161.740441 
C 286.004939 162.761579 286.410642 163.741031 287.132695 164.463085 
C 287.854749 165.185138 288.834201 165.590841 289.855339 165.590841 
z
" clip-path="url(#p046352f200)" style="fill: #7093f3; stroke: #ffffff; stroke-width: 0.381332"/>
    <path d="M 288.301475 178.121901 
C 289.269155 178.121901 290.197333 177.737438 290.881586 177.053184 
C 291.56584 176.36893 291.950304 175.440753 291.950304 174.473072 
C 291.950304 173.505392 291.56584 172.577214 290.881586 171.892961 
C 290.197333 171.208707 289.269155 170.824243 288.301475 170.824243 
C 287.333794 170.824243 286.405616 171.208707 285.721363 171.892961 
C 285.037109 172.577214 284.652645 173.505392 284.652645 174.473072 
C 284.652645 175.440753 285.037109 176.36893 285.721363 177.053184 
C 286.405616 177.737438 287.333794 178.121901 288.301475 178.121901 
z
" clip-path="url(#p046352f200)" style="fill: #5e7de7; stroke: #ffffff; stroke-width: 0.381332"/>
    <path d="M 282.877606 191.936848 
C 284.13232 191.936848 285.335813 191.438345 286.22303 190.551128 
C 287.110247 189.663911 287.60875 188.460418 287.60875 187.205704 
C 287.60875 185.95099 287.110247 184.747497 286.22303 183.86028 
C 285.335813 182.973063 284.13232 182.47456 282.877606 182.47456 
C 281.622892 182.47456 280.419399 182.973063 279.532183 183.86028 
C 278.644966 184.747497 278.146463 185.95099 278.146463 187.205704 
C 278.146463 188.460418 278.644966 189.663911 279.532183 190.551128 
C 280.419399 191.438345 281.622892 191.936848 282.877606 191.936848 
z
" clip-path="url(#p046352f200)" style="fill: #c7d7f0; stroke: #ffffff; stroke-width: 0.381332"/>
    <path d="M 280.316335 203.689304 
C 281.311104 203.689304 282.265263 203.294079 282.968671 202.590671 
C 283.672078 201.887263 284.067304 200.933104 284.067304 199.938336 
C 284.067304 198.943567 283.672078 197.989408 282.968671 197.286 
C 282.265263 196.582592 281.311104 196.187367 280.316335 196.187367 
C 279.321567 196.187367 278.367407 196.582592 277.664 197.286 
C 276.960592 197.989408 276.565366 198.943567 276.565366 199.938336 
C 276.565366 200.933104 276.960592 201.887263 277.664 202.590671 
C 278.367407 203.294079 279.321567 203.689304 280.316335 203.689304 
z
" clip-path="url(#p046352f200)" style="fill: #6282ea; stroke: #ffffff; stroke-width: 0.381332"/>
    <path d="M 279.135923 218.142883 
C 280.587092 218.142883 281.979021 217.566327 283.005152 216.540196 
C 284.031283 215.514064 284.607839 214.122136 284.607839 212.670967 
C 284.607839 211.219798 284.031283 209.82787 283.005152 208.801738 
C 281.979021 207.775607 280.587092 207.199051 279.135923 207.199051 
C 277.684754 207.199051 276.292826 207.775607 275.266695 208.801738 
C 274.240563 209.82787 273.664008 211.219798 273.664008 212.670967 
C 273.664008 214.122136 274.240563 215.514064 275.266695 216.540196 
C 276.292826 217.566327 277.684754 218.142883 279.135923 218.142883 
z
" clip-path="url(#p046352f200)" style="fill: #f7b396; stroke: #ffffff; stroke-width: 0.381332"/>
    <path d="M 277.848201 230.213956 
C 279.123923 230.213956 280.347566 229.707106 281.249637 228.805035 
C 282.151709 227.902963 282.658558 226.67932 282.658558 225.403599 
C 282.658558 224.127877 282.151709 222.904234 281.249637 222.002163 
C 280.347566 221.100091 279.123923 220.593242 277.848201 220.593242 
C 276.57248 220.593242 275.348837 221.100091 274.446765 222.002163 
C 273.544694 222.904234 273.037844 224.127877 273.037844 225.403599 
C 273.037844 226.67932 273.544694 227.902963 274.446765 228.805035 
C 275.348837 229.707106 276.57248 230.213956 277.848201 230.213956 
z
" clip-path="url(#p046352f200)" style="fill: #ccd9ed; stroke: #ffffff; stroke-width: 0.381332"/>
    <path d="M 274.221555 242.621348 
C 275.411022 242.621348 276.551932 242.148767 277.393012 241.307687 
C 278.234093 240.466607 278.706673 239.325697 278.706673 238.13623 
C 278.706673 236.946763 278.234093 235.805853 277.393012 234.964773 
C 276.551932 234.123693 275.411022 233.651113 274.221555 233.651113 
C 273.032088 233.651113 271.891179 234.123693 271.050098 234.964773 
C 270.209018 235.805853 269.736438 236.946763 269.736438 238.13623 
C 269.736438 239.325697 270.209018 240.466607 271.050098 241.307687 
C 271.891179 242.148767 273.032088 242.621348 274.221555 242.621348 
z
" clip-path="url(#p046352f200)" style="fill: #a7c5fe; stroke: #ffffff; stroke-width: 0.381332"/>
    <path d="M 251.842497 254.816189 
C 252.88934 254.816189 253.893449 254.400274 254.633679 253.660044 
C 255.373909 252.919814 255.789825 251.915705 255.789825 250.868862 
C 255.789825 249.822018 255.373909 248.81791 254.633679 248.07768 
C 253.893449 247.33745 252.88934 246.921534 251.842497 246.921534 
C 250.795653 246.921534 249.791545 247.33745 249.051315 248.07768 
C 248.311085 248.81791 247.895169 249.822018 247.895169 250.868862 
C 247.895169 251.915705 248.311085 252.919814 249.051315 253.660044 
C 249.791545 254.400274 250.795653 254.816189 251.842497 254.816189 
z
" clip-path="url(#p046352f200)" style="fill: #6282ea; stroke: #ffffff; stroke-width: 0.381332"/>
    <path d="M 242.307072 267.451894 
C 243.32821 267.451894 244.307662 267.046191 245.029716 266.324137 
C 245.75177 265.602084 246.157472 264.622631 246.157472 263.601493 
C 246.157472 262.580355 245.75177 261.600903 245.029716 260.878849 
C 244.307662 260.156796 243.32821 259.751093 242.307072 259.751093 
C 241.285934 259.751093 240.306482 260.156796 239.584428 260.878849 
C 238.862374 261.600903 238.456672 262.580355 238.456672 263.601493 
C 238.456672 264.622631 238.862374 265.602084 239.584428 266.324137 
C 240.306482 267.046191 241.285934 267.451894 242.307072 267.451894 
z
" clip-path="url(#p046352f200)" style="fill: #5572df; stroke: #ffffff; stroke-width: 0.381332"/>
    <path d="M 233.42179 280.376056 
C 234.493723 280.376056 235.521896 279.950173 236.279867 279.192202 
C 237.037838 278.434231 237.463721 277.406058 237.463721 276.334125 
C 237.463721 275.262192 237.037838 274.234019 236.279867 273.476048 
C 235.521896 272.718077 234.493723 272.292194 233.42179 272.292194 
C 232.349857 272.292194 231.321684 272.718077 230.563713 273.476048 
C 229.805742 274.234019 229.379858 275.262192 229.379858 276.334125 
C 229.379858 277.406058 229.805742 278.434231 230.563713 279.192202 
C 231.321684 279.950173 232.349857 280.376056 233.42179 280.376056 
z
" clip-path="url(#p046352f200)" style="fill: #5e7de7; stroke: #ffffff; stroke-width: 0.381332"/>
   </g>
   <g id="matplotlib.axis_1">
    <g id="xtick_1">
     <g id="line2d_1">
      <defs>
       <path id="m8df0bfca24" d="M 0 0 
L 0 3.5 
" style="stroke: #000000; stroke-width: 0.8"/>
      </defs>
      <g>
       <use xlink:href="#m8df0bfca24" x="246.767832" y="288.430125" style="stroke: #000000; stroke-width: 0.8"/>
      </g>
     </g>
     <g id="text_1">
      <!-- 2.8 -->
      <g transform="translate(238.81627 303.028562) scale(0.1 -0.1)">
       <defs>
        <path id="DejaVuSans-32" d="M 1228 531 
L 3431 531 
L 3431 0 
L 469 0 
L 469 531 
Q 828 903 1448 1529 
Q 2069 2156 2228 2338 
Q 2531 2678 2651 2914 
Q 2772 3150 2772 3378 
Q 2772 3750 2511 3984 
Q 2250 4219 1831 4219 
Q 1534 4219 1204 4116 
Q 875 4013 500 3803 
L 500 4441 
Q 881 4594 1212 4672 
Q 1544 4750 1819 4750 
Q 2544 4750 2975 4387 
Q 3406 4025 3406 3419 
Q 3406 3131 3298 2873 
Q 3191 2616 2906 2266 
Q 2828 2175 2409 1742 
Q 1991 1309 1228 531 
z
" transform="scale(0.015625)"/>
        <path id="DejaVuSans-2e" d="M 684 794 
L 1344 794 
L 1344 0 
L 684 0 
L 684 794 
z
" transform="scale(0.015625)"/>
        <path id="DejaVuSans-38" d="M 2034 2216 
Q 1584 2216 1326 1975 
Q 1069 1734 1069 1313 
Q 1069 891 1326 650 
Q 1584 409 2034 409 
Q 2484 409 2743 651 
Q 3003 894 3003 1313 
Q 3003 1734 2745 1975 
Q 2488 2216 2034 2216 
z
M 1403 2484 
Q 997 2584 770 2862 
Q 544 3141 544 3541 
Q 544 4100 942 4425 
Q 1341 4750 2034 4750 
Q 2731 4750 3128 4425 
Q 3525 4100 3525 3541 
Q 3525 3141 3298 2862 
Q 3072 2584 2669 2484 
Q 3125 2378 3379 2068 
Q 3634 1759 3634 1313 
Q 3634 634 3220 271 
Q 2806 -91 2034 -91 
Q 1263 -91 848 271 
Q 434 634 434 1313 
Q 434 1759 690 2068 
Q 947 2378 1403 2484 
z
M 1172 3481 
Q 1172 3119 1398 2916 
Q 1625 2713 2034 2713 
Q 2441 2713 2670 2916 
Q 2900 3119 2900 3481 
Q 2900 3844 2670 4047 
Q 2441 4250 2034 4250 
Q 1625 4250 1398 4047 
Q 1172 3844 1172 3481 
z
" transform="scale(0.015625)"/>
       </defs>
       <use xlink:href="#DejaVuSans-32"/>
       <use xlink:href="#DejaVuSans-2e" transform="translate(63.623047 0)"/>
       <use xlink:href="#DejaVuSans-38" transform="translate(95.410156 0)"/>
      </g>
     </g>
    </g>
    <g id="xtick_2">
     <g id="line2d_2">
      <g>
       <use xlink:href="#m8df0bfca24" x="288.974217" y="288.430125" style="stroke: #000000; stroke-width: 0.8"/>
      </g>
     </g>
     <g id="text_2">
      <!-- 3.0 -->
      <g transform="translate(281.022655 303.028562) scale(0.1 -0.1)">
       <defs>
        <path id="DejaVuSans-33" d="M 2597 2516 
Q 3050 2419 3304 2112 
Q 3559 1806 3559 1356 
Q 3559 666 3084 287 
Q 2609 -91 1734 -91 
Q 1441 -91 1130 -33 
Q 819 25 488 141 
L 488 750 
Q 750 597 1062 519 
Q 1375 441 1716 441 
Q 2309 441 2620 675 
Q 2931 909 2931 1356 
Q 2931 1769 2642 2001 
Q 2353 2234 1838 2234 
L 1294 2234 
L 1294 2753 
L 1863 2753 
Q 2328 2753 2575 2939 
Q 2822 3125 2822 3475 
Q 2822 3834 2567 4026 
Q 2313 4219 1838 4219 
Q 1578 4219 1281 4162 
Q 984 4106 628 3988 
L 628 4550 
Q 988 4650 1302 4700 
Q 1616 4750 1894 4750 
Q 2613 4750 3031 4423 
Q 3450 4097 3450 3541 
Q 3450 3153 3228 2886 
Q 3006 2619 2597 2516 
z
" transform="scale(0.015625)"/>
        <path id="DejaVuSans-30" d="M 2034 4250 
Q 1547 4250 1301 3770 
Q 1056 3291 1056 2328 
Q 1056 1369 1301 889 
Q 1547 409 2034 409 
Q 2525 409 2770 889 
Q 3016 1369 3016 2328 
Q 3016 3291 2770 3770 
Q 2525 4250 2034 4250 
z
M 2034 4750 
Q 2819 4750 3233 4129 
Q 3647 3509 3647 2328 
Q 3647 1150 3233 529 
Q 2819 -91 2034 -91 
Q 1250 -91 836 529 
Q 422 1150 422 2328 
Q 422 3509 836 4129 
Q 1250 4750 2034 4750 
z
" transform="scale(0.015625)"/>
       </defs>
       <use xlink:href="#DejaVuSans-33"/>
       <use xlink:href="#DejaVuSans-2e" transform="translate(63.623047 0)"/>
       <use xlink:href="#DejaVuSans-30" transform="translate(95.410156 0)"/>
      </g>
     </g>
    </g>
    <g id="xtick_3">
     <g id="line2d_3">
      <g>
       <use xlink:href="#m8df0bfca24" x="331.180603" y="288.430125" style="stroke: #000000; stroke-width: 0.8"/>
      </g>
     </g>
     <g id="text_3">
      <!-- 3.2 -->
      <g transform="translate(323.22904 303.028562) scale(0.1 -0.1)">
       <use xlink:href="#DejaVuSans-33"/>
       <use xlink:href="#DejaVuSans-2e" transform="translate(63.623047 0)"/>
       <use xlink:href="#DejaVuSans-32" transform="translate(95.410156 0)"/>
      </g>
     </g>
    </g>
    <g id="xtick_4">
     <g id="line2d_4">
      <g>
       <use xlink:href="#m8df0bfca24" x="373.386988" y="288.430125" style="stroke: #000000; stroke-width: 0.8"/>
      </g>
     </g>
     <g id="text_4">
      <!-- 3.4 -->
      <g transform="translate(365.435425 303.028562) scale(0.1 -0.1)">
       <defs>
        <path id="DejaVuSans-34" d="M 2419 4116 
L 825 1625 
L 2419 1625 
L 2419 4116 
z
M 2253 4666 
L 3047 4666 
L 3047 1625 
L 3713 1625 
L 3713 1100 
L 3047 1100 
L 3047 0 
L 2419 0 
L 2419 1100 
L 313 1100 
L 313 1709 
L 2253 4666 
z
" transform="scale(0.015625)"/>
       </defs>
       <use xlink:href="#DejaVuSans-33"/>
       <use xlink:href="#DejaVuSans-2e" transform="translate(63.623047 0)"/>
       <use xlink:href="#DejaVuSans-34" transform="translate(95.410156 0)"/>
      </g>
     </g>
    </g>
    <g id="xtick_5">
     <g id="line2d_5">
      <g>
       <use xlink:href="#m8df0bfca24" x="415.593373" y="288.430125" style="stroke: #000000; stroke-width: 0.8"/>
      </g>
     </g>
     <g id="text_5">
      <!-- 3.6 -->
      <g transform="translate(407.64181 303.028562) scale(0.1 -0.1)">
       <defs>
        <path id="DejaVuSans-36" d="M 2113 2584 
Q 1688 2584 1439 2293 
Q 1191 2003 1191 1497 
Q 1191 994 1439 701 
Q 1688 409 2113 409 
Q 2538 409 2786 701 
Q 3034 994 3034 1497 
Q 3034 2003 2786 2293 
Q 2538 2584 2113 2584 
z
M 3366 4563 
L 3366 3988 
Q 3128 4100 2886 4159 
Q 2644 4219 2406 4219 
Q 1781 4219 1451 3797 
Q 1122 3375 1075 2522 
Q 1259 2794 1537 2939 
Q 1816 3084 2150 3084 
Q 2853 3084 3261 2657 
Q 3669 2231 3669 1497 
Q 3669 778 3244 343 
Q 2819 -91 2113 -91 
Q 1303 -91 875 529 
Q 447 1150 447 2328 
Q 447 3434 972 4092 
Q 1497 4750 2381 4750 
Q 2619 4750 2861 4703 
Q 3103 4656 3366 4563 
z
" transform="scale(0.015625)"/>
       </defs>
       <use xlink:href="#DejaVuSans-33"/>
       <use xlink:href="#DejaVuSans-2e" transform="translate(63.623047 0)"/>
       <use xlink:href="#DejaVuSans-36" transform="translate(95.410156 0)"/>
      </g>
     </g>
    </g>
    <g id="xtick_6">
     <g id="line2d_6">
      <g>
       <use xlink:href="#m8df0bfca24" x="457.799758" y="288.430125" style="stroke: #000000; stroke-width: 0.8"/>
      </g>
     </g>
     <g id="text_6">
      <!-- 3.8 -->
      <g transform="translate(449.848196 303.028562) scale(0.1 -0.1)">
       <use xlink:href="#DejaVuSans-33"/>
       <use xlink:href="#DejaVuSans-2e" transform="translate(63.623047 0)"/>
       <use xlink:href="#DejaVuSans-38" transform="translate(95.410156 0)"/>
      </g>
     </g>
    </g>
    <g id="xtick_7">
     <g id="line2d_7">
      <g>
       <use xlink:href="#m8df0bfca24" x="500.006143" y="288.430125" style="stroke: #000000; stroke-width: 0.8"/>
      </g>
     </g>
     <g id="text_7">
      <!-- 4.0 -->
      <g transform="translate(492.054581 303.028562) scale(0.1 -0.1)">
       <use xlink:href="#DejaVuSans-34"/>
       <use xlink:href="#DejaVuSans-2e" transform="translate(63.623047 0)"/>
       <use xlink:href="#DejaVuSans-30" transform="translate(95.410156 0)"/>
      </g>
     </g>
    </g>
    <g id="xtick_8">
     <g id="line2d_8">
      <g>
       <use xlink:href="#m8df0bfca24" x="542.212528" y="288.430125" style="stroke: #000000; stroke-width: 0.8"/>
      </g>
     </g>
     <g id="text_8">
      <!-- 4.2 -->
      <g transform="translate(534.260966 303.028562) scale(0.1 -0.1)">
       <use xlink:href="#DejaVuSans-34"/>
       <use xlink:href="#DejaVuSans-2e" transform="translate(63.623047 0)"/>
       <use xlink:href="#DejaVuSans-32" transform="translate(95.410156 0)"/>
      </g>
     </g>
    </g>
    <g id="text_9">
     <!-- Fold Enrichment -->
     <g transform="translate(355.076406 316.706687) scale(0.1 -0.1)">
      <defs>
       <path id="DejaVuSans-46" d="M 628 4666 
L 3309 4666 
L 3309 4134 
L 1259 4134 
L 1259 2759 
L 3109 2759 
L 3109 2228 
L 1259 2228 
L 1259 0 
L 628 0 
L 628 4666 
z
" transform="scale(0.015625)"/>
       <path id="DejaVuSans-6f" d="M 1959 3097 
Q 1497 3097 1228 2736 
Q 959 2375 959 1747 
Q 959 1119 1226 758 
Q 1494 397 1959 397 
Q 2419 397 2687 759 
Q 2956 1122 2956 1747 
Q 2956 2369 2687 2733 
Q 2419 3097 1959 3097 
z
M 1959 3584 
Q 2709 3584 3137 3096 
Q 3566 2609 3566 1747 
Q 3566 888 3137 398 
Q 2709 -91 1959 -91 
Q 1206 -91 779 398 
Q 353 888 353 1747 
Q 353 2609 779 3096 
Q 1206 3584 1959 3584 
z
" transform="scale(0.015625)"/>
       <path id="DejaVuSans-6c" d="M 603 4863 
L 1178 4863 
L 1178 0 
L 603 0 
L 603 4863 
z
" transform="scale(0.015625)"/>
       <path id="DejaVuSans-64" d="M 2906 2969 
L 2906 4863 
L 3481 4863 
L 3481 0 
L 2906 0 
L 2906 525 
Q 2725 213 2448 61 
Q 2172 -91 1784 -91 
Q 1150 -91 751 415 
Q 353 922 353 1747 
Q 353 2572 751 3078 
Q 1150 3584 1784 3584 
Q 2172 3584 2448 3432 
Q 2725 3281 2906 2969 
z
M 947 1747 
Q 947 1113 1208 752 
Q 1469 391 1925 391 
Q 2381 391 2643 752 
Q 2906 1113 2906 1747 
Q 2906 2381 2643 2742 
Q 2381 3103 1925 3103 
Q 1469 3103 1208 2742 
Q 947 2381 947 1747 
z
" transform="scale(0.015625)"/>
       <path id="DejaVuSans-20" transform="scale(0.015625)"/>
       <path id="DejaVuSans-45" d="M 628 4666 
L 3578 4666 
L 3578 4134 
L 1259 4134 
L 1259 2753 
L 3481 2753 
L 3481 2222 
L 1259 2222 
L 1259 531 
L 3634 531 
L 3634 0 
L 628 0 
L 628 4666 
z
" transform="scale(0.015625)"/>
       <path id="DejaVuSans-6e" d="M 3513 2113 
L 3513 0 
L 2938 0 
L 2938 2094 
Q 2938 2591 2744 2837 
Q 2550 3084 2163 3084 
Q 1697 3084 1428 2787 
Q 1159 2491 1159 1978 
L 1159 0 
L 581 0 
L 581 3500 
L 1159 3500 
L 1159 2956 
Q 1366 3272 1645 3428 
Q 1925 3584 2291 3584 
Q 2894 3584 3203 3211 
Q 3513 2838 3513 2113 
z
" transform="scale(0.015625)"/>
       <path id="DejaVuSans-72" d="M 2631 2963 
Q 2534 3019 2420 3045 
Q 2306 3072 2169 3072 
Q 1681 3072 1420 2755 
Q 1159 2438 1159 1844 
L 1159 0 
L 581 0 
L 581 3500 
L 1159 3500 
L 1159 2956 
Q 1341 3275 1631 3429 
Q 1922 3584 2338 3584 
Q 2397 3584 2469 3576 
Q 2541 3569 2628 3553 
L 2631 2963 
z
" transform="scale(0.015625)"/>
       <path id="DejaVuSans-69" d="M 603 3500 
L 1178 3500 
L 1178 0 
L 603 0 
L 603 3500 
z
M 603 4863 
L 1178 4863 
L 1178 4134 
L 603 4134 
L 603 4863 
z
" transform="scale(0.015625)"/>
       <path id="DejaVuSans-63" d="M 3122 3366 
L 3122 2828 
Q 2878 2963 2633 3030 
Q 2388 3097 2138 3097 
Q 1578 3097 1268 2742 
Q 959 2388 959 1747 
Q 959 1106 1268 751 
Q 1578 397 2138 397 
Q 2388 397 2633 464 
Q 2878 531 3122 666 
L 3122 134 
Q 2881 22 2623 -34 
Q 2366 -91 2075 -91 
Q 1284 -91 818 406 
Q 353 903 353 1747 
Q 353 2603 823 3093 
Q 1294 3584 2113 3584 
Q 2378 3584 2631 3529 
Q 2884 3475 3122 3366 
z
" transform="scale(0.015625)"/>
       <path id="DejaVuSans-68" d="M 3513 2113 
L 3513 0 
L 2938 0 
L 2938 2094 
Q 2938 2591 2744 2837 
Q 2550 3084 2163 3084 
Q 1697 3084 1428 2787 
Q 1159 2491 1159 1978 
L 1159 0 
L 581 0 
L 581 4863 
L 1159 4863 
L 1159 2956 
Q 1366 3272 1645 3428 
Q 1925 3584 2291 3584 
Q 2894 3584 3203 3211 
Q 3513 2838 3513 2113 
z
" transform="scale(0.015625)"/>
       <path id="DejaVuSans-6d" d="M 3328 2828 
Q 3544 3216 3844 3400 
Q 4144 3584 4550 3584 
Q 5097 3584 5394 3201 
Q 5691 2819 5691 2113 
L 5691 0 
L 5113 0 
L 5113 2094 
Q 5113 2597 4934 2840 
Q 4756 3084 4391 3084 
Q 3944 3084 3684 2787 
Q 3425 2491 3425 1978 
L 3425 0 
L 2847 0 
L 2847 2094 
Q 2847 2600 2669 2842 
Q 2491 3084 2119 3084 
Q 1678 3084 1418 2786 
Q 1159 2488 1159 1978 
L 1159 0 
L 581 0 
L 581 3500 
L 1159 3500 
L 1159 2956 
Q 1356 3278 1631 3431 
Q 1906 3584 2284 3584 
Q 2666 3584 2933 3390 
Q 3200 3197 3328 2828 
z
" transform="scale(0.015625)"/>
       <path id="DejaVuSans-65" d="M 3597 1894 
L 3597 1613 
L 953 1613 
Q 991 1019 1311 708 
Q 1631 397 2203 397 
Q 2534 397 2845 478 
Q 3156 559 3463 722 
L 3463 178 
Q 3153 47 2828 -22 
Q 2503 -91 2169 -91 
Q 1331 -91 842 396 
Q 353 884 353 1716 
Q 353 2575 817 3079 
Q 1281 3584 2069 3584 
Q 2775 3584 3186 3129 
Q 3597 2675 3597 1894 
z
M 3022 2063 
Q 3016 2534 2758 2815 
Q 2500 3097 2075 3097 
Q 1594 3097 1305 2825 
Q 1016 2553 972 2059 
L 3022 2063 
z
" transform="scale(0.015625)"/>
       <path id="DejaVuSans-74" d="M 1172 4494 
L 1172 3500 
L 2356 3500 
L 2356 3053 
L 1172 3053 
L 1172 1153 
Q 1172 725 1289 603 
Q 1406 481 1766 481 
L 2356 481 
L 2356 0 
L 1766 0 
Q 1100 0 847 248 
Q 594 497 594 1153 
L 594 3053 
L 172 3053 
L 172 3500 
L 594 3500 
L 594 4494 
L 1172 4494 
z
" transform="scale(0.015625)"/>
      </defs>
      <use xlink:href="#DejaVuSans-46"/>
      <use xlink:href="#DejaVuSans-6f" transform="translate(53.894531 0)"/>
      <use xlink:href="#DejaVuSans-6c" transform="translate(115.076172 0)"/>
      <use xlink:href="#DejaVuSans-64" transform="translate(142.859375 0)"/>
      <use xlink:href="#DejaVuSans-20" transform="translate(206.335938 0)"/>
      <use xlink:href="#DejaVuSans-45" transform="translate(238.123047 0)"/>
      <use xlink:href="#DejaVuSans-6e" transform="translate(301.306641 0)"/>
      <use xlink:href="#DejaVuSans-72" transform="translate(364.685547 0)"/>
      <use xlink:href="#DejaVuSans-69" transform="translate(405.798828 0)"/>
      <use xlink:href="#DejaVuSans-63" transform="translate(433.582031 0)"/>
      <use xlink:href="#DejaVuSans-68" transform="translate(488.5625 0)"/>
      <use xlink:href="#DejaVuSans-6d" transform="translate(551.941406 0)"/>
      <use xlink:href="#DejaVuSans-65" transform="translate(649.353516 0)"/>
      <use xlink:href="#DejaVuSans-6e" transform="translate(710.876953 0)"/>
      <use xlink:href="#DejaVuSans-74" transform="translate(774.255859 0)"/>
     </g>
    </g>
   </g>
   <g id="matplotlib.axis_2">
    <g id="ytick_1">
     <g id="line2d_9">
      <defs>
       <path id="m664a5a8fda" d="M 0 0 
L -3.5 0 
" style="stroke: #000000; stroke-width: 0.8"/>
      </defs>
      <g>
       <use xlink:href="#m664a5a8fda" x="217.189063" y="34.414125" style="stroke: #000000; stroke-width: 0.8"/>
      </g>
     </g>
     <g id="text_10">
      <!-- Ventricular preexcitation -->
      <g transform="translate(87.203125 38.213344) scale(0.1 -0.1)">
       <defs>
        <path id="DejaVuSans-56" d="M 1831 0 
L 50 4666 
L 709 4666 
L 2188 738 
L 3669 4666 
L 4325 4666 
L 2547 0 
L 1831 0 
z
" transform="scale(0.015625)"/>
        <path id="DejaVuSans-75" d="M 544 1381 
L 544 3500 
L 1119 3500 
L 1119 1403 
Q 1119 906 1312 657 
Q 1506 409 1894 409 
Q 2359 409 2629 706 
Q 2900 1003 2900 1516 
L 2900 3500 
L 3475 3500 
L 3475 0 
L 2900 0 
L 2900 538 
Q 2691 219 2414 64 
Q 2138 -91 1772 -91 
Q 1169 -91 856 284 
Q 544 659 544 1381 
z
M 1991 3584 
L 1991 3584 
z
" transform="scale(0.015625)"/>
        <path id="DejaVuSans-61" d="M 2194 1759 
Q 1497 1759 1228 1600 
Q 959 1441 959 1056 
Q 959 750 1161 570 
Q 1363 391 1709 391 
Q 2188 391 2477 730 
Q 2766 1069 2766 1631 
L 2766 1759 
L 2194 1759 
z
M 3341 1997 
L 3341 0 
L 2766 0 
L 2766 531 
Q 2569 213 2275 61 
Q 1981 -91 1556 -91 
Q 1019 -91 701 211 
Q 384 513 384 1019 
Q 384 1609 779 1909 
Q 1175 2209 1959 2209 
L 2766 2209 
L 2766 2266 
Q 2766 2663 2505 2880 
Q 2244 3097 1772 3097 
Q 1472 3097 1187 3025 
Q 903 2953 641 2809 
L 641 3341 
Q 956 3463 1253 3523 
Q 1550 3584 1831 3584 
Q 2591 3584 2966 3190 
Q 3341 2797 3341 1997 
z
" transform="scale(0.015625)"/>
        <path id="DejaVuSans-70" d="M 1159 525 
L 1159 -1331 
L 581 -1331 
L 581 3500 
L 1159 3500 
L 1159 2969 
Q 1341 3281 1617 3432 
Q 1894 3584 2278 3584 
Q 2916 3584 3314 3078 
Q 3713 2572 3713 1747 
Q 3713 922 3314 415 
Q 2916 -91 2278 -91 
Q 1894 -91 1617 61 
Q 1341 213 1159 525 
z
M 3116 1747 
Q 3116 2381 2855 2742 
Q 2594 3103 2138 3103 
Q 1681 3103 1420 2742 
Q 1159 2381 1159 1747 
Q 1159 1113 1420 752 
Q 1681 391 2138 391 
Q 2594 391 2855 752 
Q 3116 1113 3116 1747 
z
" transform="scale(0.015625)"/>
        <path id="DejaVuSans-78" d="M 3513 3500 
L 2247 1797 
L 3578 0 
L 2900 0 
L 1881 1375 
L 863 0 
L 184 0 
L 1544 1831 
L 300 3500 
L 978 3500 
L 1906 2253 
L 2834 3500 
L 3513 3500 
z
" transform="scale(0.015625)"/>
       </defs>
       <use xlink:href="#DejaVuSans-56"/>
       <use xlink:href="#DejaVuSans-65" transform="translate(60.658203 0)"/>
       <use xlink:href="#DejaVuSans-6e" transform="translate(122.181641 0)"/>
       <use xlink:href="#DejaVuSans-74" transform="translate(185.560547 0)"/>
       <use xlink:href="#DejaVuSans-72" transform="translate(224.769531 0)"/>
       <use xlink:href="#DejaVuSans-69" transform="translate(265.882812 0)"/>
       <use xlink:href="#DejaVuSans-63" transform="translate(293.666016 0)"/>
       <use xlink:href="#DejaVuSans-75" transform="translate(348.646484 0)"/>
       <use xlink:href="#DejaVuSans-6c" transform="translate(412.025391 0)"/>
       <use xlink:href="#DejaVuSans-61" transform="translate(439.808594 0)"/>
       <use xlink:href="#DejaVuSans-72" transform="translate(501.087891 0)"/>
       <use xlink:href="#DejaVuSans-20" transform="translate(542.201172 0)"/>
       <use xlink:href="#DejaVuSans-70" transform="translate(573.988281 0)"/>
       <use xlink:href="#DejaVuSans-72" transform="translate(637.464844 0)"/>
       <use xlink:href="#DejaVuSans-65" transform="translate(676.328125 0)"/>
       <use xlink:href="#DejaVuSans-65" transform="translate(737.851562 0)"/>
       <use xlink:href="#DejaVuSans-78" transform="translate(797.625 0)"/>
       <use xlink:href="#DejaVuSans-63" transform="translate(855.054688 0)"/>
       <use xlink:href="#DejaVuSans-69" transform="translate(910.035156 0)"/>
       <use xlink:href="#DejaVuSans-74" transform="translate(937.818359 0)"/>
       <use xlink:href="#DejaVuSans-61" transform="translate(977.027344 0)"/>
       <use xlink:href="#DejaVuSans-74" transform="translate(1038.306641 0)"/>
       <use xlink:href="#DejaVuSans-69" transform="translate(1077.515625 0)"/>
       <use xlink:href="#DejaVuSans-6f" transform="translate(1105.298828 0)"/>
       <use xlink:href="#DejaVuSans-6e" transform="translate(1166.480469 0)"/>
      </g>
     </g>
    </g>
    <g id="ytick_2">
     <g id="line2d_10">
      <g>
       <use xlink:href="#m664a5a8fda" x="217.189063" y="47.146757" style="stroke: #000000; stroke-width: 0.8"/>
      </g>
     </g>
     <g id="text_11">
      <!-- Centrocecal scotoma -->
      <g transform="translate(104.821875 50.945975) scale(0.1 -0.1)">
       <defs>
        <path id="DejaVuSans-43" d="M 4122 4306 
L 4122 3641 
Q 3803 3938 3442 4084 
Q 3081 4231 2675 4231 
Q 1875 4231 1450 3742 
Q 1025 3253 1025 2328 
Q 1025 1406 1450 917 
Q 1875 428 2675 428 
Q 3081 428 3442 575 
Q 3803 722 4122 1019 
L 4122 359 
Q 3791 134 3420 21 
Q 3050 -91 2638 -91 
Q 1578 -91 968 557 
Q 359 1206 359 2328 
Q 359 3453 968 4101 
Q 1578 4750 2638 4750 
Q 3056 4750 3426 4639 
Q 3797 4528 4122 4306 
z
" transform="scale(0.015625)"/>
        <path id="DejaVuSans-73" d="M 2834 3397 
L 2834 2853 
Q 2591 2978 2328 3040 
Q 2066 3103 1784 3103 
Q 1356 3103 1142 2972 
Q 928 2841 928 2578 
Q 928 2378 1081 2264 
Q 1234 2150 1697 2047 
L 1894 2003 
Q 2506 1872 2764 1633 
Q 3022 1394 3022 966 
Q 3022 478 2636 193 
Q 2250 -91 1575 -91 
Q 1294 -91 989 -36 
Q 684 19 347 128 
L 347 722 
Q 666 556 975 473 
Q 1284 391 1588 391 
Q 1994 391 2212 530 
Q 2431 669 2431 922 
Q 2431 1156 2273 1281 
Q 2116 1406 1581 1522 
L 1381 1569 
Q 847 1681 609 1914 
Q 372 2147 372 2553 
Q 372 3047 722 3315 
Q 1072 3584 1716 3584 
Q 2034 3584 2315 3537 
Q 2597 3491 2834 3397 
z
" transform="scale(0.015625)"/>
       </defs>
       <use xlink:href="#DejaVuSans-43"/>
       <use xlink:href="#DejaVuSans-65" transform="translate(69.824219 0)"/>
       <use xlink:href="#DejaVuSans-6e" transform="translate(131.347656 0)"/>
       <use xlink:href="#DejaVuSans-74" transform="translate(194.726562 0)"/>
       <use xlink:href="#DejaVuSans-72" transform="translate(233.935547 0)"/>
       <use xlink:href="#DejaVuSans-6f" transform="translate(272.798828 0)"/>
       <use xlink:href="#DejaVuSans-63" transform="translate(333.980469 0)"/>
       <use xlink:href="#DejaVuSans-65" transform="translate(388.960938 0)"/>
       <use xlink:href="#DejaVuSans-63" transform="translate(450.484375 0)"/>
       <use xlink:href="#DejaVuSans-61" transform="translate(505.464844 0)"/>
       <use xlink:href="#DejaVuSans-6c" transform="translate(566.744141 0)"/>
       <use xlink:href="#DejaVuSans-20" transform="translate(594.527344 0)"/>
       <use xlink:href="#DejaVuSans-73" transform="translate(626.314453 0)"/>
       <use xlink:href="#DejaVuSans-63" transform="translate(678.414062 0)"/>
       <use xlink:href="#DejaVuSans-6f" transform="translate(733.394531 0)"/>
       <use xlink:href="#DejaVuSans-74" transform="translate(794.576172 0)"/>
       <use xlink:href="#DejaVuSans-6f" transform="translate(833.785156 0)"/>
       <use xlink:href="#DejaVuSans-6d" transform="translate(894.966797 0)"/>
       <use xlink:href="#DejaVuSans-61" transform="translate(992.378906 0)"/>
      </g>
     </g>
    </g>
    <g id="ytick_3">
     <g id="line2d_11">
      <g>
       <use xlink:href="#m664a5a8fda" x="217.189063" y="59.879388" style="stroke: #000000; stroke-width: 0.8"/>
      </g>
     </g>
     <g id="text_12">
      <!-- Reduced contrast sensitivity -->
      <g transform="translate(68.329688 63.678607) scale(0.1 -0.1)">
       <defs>
        <path id="DejaVuSans-52" d="M 2841 2188 
Q 3044 2119 3236 1894 
Q 3428 1669 3622 1275 
L 4263 0 
L 3584 0 
L 2988 1197 
Q 2756 1666 2539 1819 
Q 2322 1972 1947 1972 
L 1259 1972 
L 1259 0 
L 628 0 
L 628 4666 
L 2053 4666 
Q 2853 4666 3247 4331 
Q 3641 3997 3641 3322 
Q 3641 2881 3436 2590 
Q 3231 2300 2841 2188 
z
M 1259 4147 
L 1259 2491 
L 2053 2491 
Q 2509 2491 2742 2702 
Q 2975 2913 2975 3322 
Q 2975 3731 2742 3939 
Q 2509 4147 2053 4147 
L 1259 4147 
z
" transform="scale(0.015625)"/>
        <path id="DejaVuSans-76" d="M 191 3500 
L 800 3500 
L 1894 563 
L 2988 3500 
L 3597 3500 
L 2284 0 
L 1503 0 
L 191 3500 
z
" transform="scale(0.015625)"/>
        <path id="DejaVuSans-79" d="M 2059 -325 
Q 1816 -950 1584 -1140 
Q 1353 -1331 966 -1331 
L 506 -1331 
L 506 -850 
L 844 -850 
Q 1081 -850 1212 -737 
Q 1344 -625 1503 -206 
L 1606 56 
L 191 3500 
L 800 3500 
L 1894 763 
L 2988 3500 
L 3597 3500 
L 2059 -325 
z
" transform="scale(0.015625)"/>
       </defs>
       <use xlink:href="#DejaVuSans-52"/>
       <use xlink:href="#DejaVuSans-65" transform="translate(64.982422 0)"/>
       <use xlink:href="#DejaVuSans-64" transform="translate(126.505859 0)"/>
       <use xlink:href="#DejaVuSans-75" transform="translate(189.982422 0)"/>
       <use xlink:href="#DejaVuSans-63" transform="translate(253.361328 0)"/>
       <use xlink:href="#DejaVuSans-65" transform="translate(308.341797 0)"/>
       <use xlink:href="#DejaVuSans-64" transform="translate(369.865234 0)"/>
       <use xlink:href="#DejaVuSans-20" transform="translate(433.341797 0)"/>
       <use xlink:href="#DejaVuSans-63" transform="translate(465.128906 0)"/>
       <use xlink:href="#DejaVuSans-6f" transform="translate(520.109375 0)"/>
       <use xlink:href="#DejaVuSans-6e" transform="translate(581.291016 0)"/>
       <use xlink:href="#DejaVuSans-74" transform="translate(644.669922 0)"/>
       <use xlink:href="#DejaVuSans-72" transform="translate(683.878906 0)"/>
       <use xlink:href="#DejaVuSans-61" transform="translate(724.992188 0)"/>
       <use xlink:href="#DejaVuSans-73" transform="translate(786.271484 0)"/>
       <use xlink:href="#DejaVuSans-74" transform="translate(838.371094 0)"/>
       <use xlink:href="#DejaVuSans-20" transform="translate(877.580078 0)"/>
       <use xlink:href="#DejaVuSans-73" transform="translate(909.367188 0)"/>
       <use xlink:href="#DejaVuSans-65" transform="translate(961.466797 0)"/>
       <use xlink:href="#DejaVuSans-6e" transform="translate(1022.990234 0)"/>
       <use xlink:href="#DejaVuSans-73" transform="translate(1086.369141 0)"/>
       <use xlink:href="#DejaVuSans-69" transform="translate(1138.46875 0)"/>
       <use xlink:href="#DejaVuSans-74" transform="translate(1166.251953 0)"/>
       <use xlink:href="#DejaVuSans-69" transform="translate(1205.460938 0)"/>
       <use xlink:href="#DejaVuSans-76" transform="translate(1233.244141 0)"/>
       <use xlink:href="#DejaVuSans-69" transform="translate(1292.423828 0)"/>
       <use xlink:href="#DejaVuSans-74" transform="translate(1320.207031 0)"/>
       <use xlink:href="#DejaVuSans-79" transform="translate(1359.416016 0)"/>
      </g>
     </g>
    </g>
    <g id="ytick_4">
     <g id="line2d_12">
      <g>
       <use xlink:href="#m664a5a8fda" x="217.189063" y="72.61202" style="stroke: #000000; stroke-width: 0.8"/>
      </g>
     </g>
     <g id="text_13">
      <!-- Central retinal vessel vascular tortuosity -->
      <g transform="translate(7.2 76.411238) scale(0.1 -0.1)">
       <use xlink:href="#DejaVuSans-43"/>
       <use xlink:href="#DejaVuSans-65" transform="translate(69.824219 0)"/>
       <use xlink:href="#DejaVuSans-6e" transform="translate(131.347656 0)"/>
       <use xlink:href="#DejaVuSans-74" transform="translate(194.726562 0)"/>
       <use xlink:href="#DejaVuSans-72" transform="translate(233.935547 0)"/>
       <use xlink:href="#DejaVuSans-61" transform="translate(275.048828 0)"/>
       <use xlink:href="#DejaVuSans-6c" transform="translate(336.328125 0)"/>
       <use xlink:href="#DejaVuSans-20" transform="translate(364.111328 0)"/>
       <use xlink:href="#DejaVuSans-72" transform="translate(395.898438 0)"/>
       <use xlink:href="#DejaVuSans-65" transform="translate(434.761719 0)"/>
       <use xlink:href="#DejaVuSans-74" transform="translate(496.285156 0)"/>
       <use xlink:href="#DejaVuSans-69" transform="translate(535.494141 0)"/>
       <use xlink:href="#DejaVuSans-6e" transform="translate(563.277344 0)"/>
       <use xlink:href="#DejaVuSans-61" transform="translate(626.65625 0)"/>
       <use xlink:href="#DejaVuSans-6c" transform="translate(687.935547 0)"/>
       <use xlink:href="#DejaVuSans-20" transform="translate(715.71875 0)"/>
       <use xlink:href="#DejaVuSans-76" transform="translate(747.505859 0)"/>
       <use xlink:href="#DejaVuSans-65" transform="translate(806.685547 0)"/>
       <use xlink:href="#DejaVuSans-73" transform="translate(868.208984 0)"/>
       <use xlink:href="#DejaVuSans-73" transform="translate(920.308594 0)"/>
       <use xlink:href="#DejaVuSans-65" transform="translate(972.408203 0)"/>
       <use xlink:href="#DejaVuSans-6c" transform="translate(1033.931641 0)"/>
       <use xlink:href="#DejaVuSans-20" transform="translate(1061.714844 0)"/>
       <use xlink:href="#DejaVuSans-76" transform="translate(1093.501953 0)"/>
       <use xlink:href="#DejaVuSans-61" transform="translate(1152.681641 0)"/>
       <use xlink:href="#DejaVuSans-73" transform="translate(1213.960938 0)"/>
       <use xlink:href="#DejaVuSans-63" transform="translate(1266.060547 0)"/>
       <use xlink:href="#DejaVuSans-75" transform="translate(1321.041016 0)"/>
       <use xlink:href="#DejaVuSans-6c" transform="translate(1384.419922 0)"/>
       <use xlink:href="#DejaVuSans-61" transform="translate(1412.203125 0)"/>
       <use xlink:href="#DejaVuSans-72" transform="translate(1473.482422 0)"/>
       <use xlink:href="#DejaVuSans-20" transform="translate(1514.595703 0)"/>
       <use xlink:href="#DejaVuSans-74" transform="translate(1546.382812 0)"/>
       <use xlink:href="#DejaVuSans-6f" transform="translate(1585.591797 0)"/>
       <use xlink:href="#DejaVuSans-72" transform="translate(1646.773438 0)"/>
       <use xlink:href="#DejaVuSans-74" transform="translate(1687.886719 0)"/>
       <use xlink:href="#DejaVuSans-75" transform="translate(1727.095703 0)"/>
       <use xlink:href="#DejaVuSans-6f" transform="translate(1790.474609 0)"/>
       <use xlink:href="#DejaVuSans-73" transform="translate(1851.65625 0)"/>
       <use xlink:href="#DejaVuSans-69" transform="translate(1903.755859 0)"/>
       <use xlink:href="#DejaVuSans-74" transform="translate(1931.539062 0)"/>
       <use xlink:href="#DejaVuSans-79" transform="translate(1970.748047 0)"/>
      </g>
     </g>
    </g>
    <g id="ytick_5">
     <g id="line2d_13">
      <g>
       <use xlink:href="#m664a5a8fda" x="217.189063" y="85.344651" style="stroke: #000000; stroke-width: 0.8"/>
      </g>
     </g>
     <g id="text_14">
      <!-- Mitochondrial respiratory chain defects -->
      <g transform="translate(14.207812 89.14387) scale(0.1 -0.1)">
       <defs>
        <path id="DejaVuSans-4d" d="M 628 4666 
L 1569 4666 
L 2759 1491 
L 3956 4666 
L 4897 4666 
L 4897 0 
L 4281 0 
L 4281 4097 
L 3078 897 
L 2444 897 
L 1241 4097 
L 1241 0 
L 628 0 
L 628 4666 
z
" transform="scale(0.015625)"/>
        <path id="DejaVuSans-66" d="M 2375 4863 
L 2375 4384 
L 1825 4384 
Q 1516 4384 1395 4259 
Q 1275 4134 1275 3809 
L 1275 3500 
L 2222 3500 
L 2222 3053 
L 1275 3053 
L 1275 0 
L 697 0 
L 697 3053 
L 147 3053 
L 147 3500 
L 697 3500 
L 697 3744 
Q 697 4328 969 4595 
Q 1241 4863 1831 4863 
L 2375 4863 
z
" transform="scale(0.015625)"/>
       </defs>
       <use xlink:href="#DejaVuSans-4d"/>
       <use xlink:href="#DejaVuSans-69" transform="translate(86.279297 0)"/>
       <use xlink:href="#DejaVuSans-74" transform="translate(114.0625 0)"/>
       <use xlink:href="#DejaVuSans-6f" transform="translate(153.271484 0)"/>
       <use xlink:href="#DejaVuSans-63" transform="translate(214.453125 0)"/>
       <use xlink:href="#DejaVuSans-68" transform="translate(269.433594 0)"/>
       <use xlink:href="#DejaVuSans-6f" transform="translate(332.8125 0)"/>
       <use xlink:href="#DejaVuSans-6e" transform="translate(393.994141 0)"/>
       <use xlink:href="#DejaVuSans-64" transform="translate(457.373047 0)"/>
       <use xlink:href="#DejaVuSans-72" transform="translate(520.849609 0)"/>
       <use xlink:href="#DejaVuSans-69" transform="translate(561.962891 0)"/>
       <use xlink:href="#DejaVuSans-61" transform="translate(589.746094 0)"/>
       <use xlink:href="#DejaVuSans-6c" transform="translate(651.025391 0)"/>
       <use xlink:href="#DejaVuSans-20" transform="translate(678.808594 0)"/>
       <use xlink:href="#DejaVuSans-72" transform="translate(710.595703 0)"/>
       <use xlink:href="#DejaVuSans-65" transform="translate(749.458984 0)"/>
       <use xlink:href="#DejaVuSans-73" transform="translate(810.982422 0)"/>
       <use xlink:href="#DejaVuSans-70" transform="translate(863.082031 0)"/>
       <use xlink:href="#DejaVuSans-69" transform="translate(926.558594 0)"/>
       <use xlink:href="#DejaVuSans-72" transform="translate(954.341797 0)"/>
       <use xlink:href="#DejaVuSans-61" transform="translate(995.455078 0)"/>
       <use xlink:href="#DejaVuSans-74" transform="translate(1056.734375 0)"/>
       <use xlink:href="#DejaVuSans-6f" transform="translate(1095.943359 0)"/>
       <use xlink:href="#DejaVuSans-72" transform="translate(1157.125 0)"/>
       <use xlink:href="#DejaVuSans-79" transform="translate(1198.238281 0)"/>
       <use xlink:href="#DejaVuSans-20" transform="translate(1257.417969 0)"/>
       <use xlink:href="#DejaVuSans-63" transform="translate(1289.205078 0)"/>
       <use xlink:href="#DejaVuSans-68" transform="translate(1344.185547 0)"/>
       <use xlink:href="#DejaVuSans-61" transform="translate(1407.564453 0)"/>
       <use xlink:href="#DejaVuSans-69" transform="translate(1468.84375 0)"/>
       <use xlink:href="#DejaVuSans-6e" transform="translate(1496.626953 0)"/>
       <use xlink:href="#DejaVuSans-20" transform="translate(1560.005859 0)"/>
       <use xlink:href="#DejaVuSans-64" transform="translate(1591.792969 0)"/>
       <use xlink:href="#DejaVuSans-65" transform="translate(1655.269531 0)"/>
       <use xlink:href="#DejaVuSans-66" transform="translate(1716.792969 0)"/>
       <use xlink:href="#DejaVuSans-65" transform="translate(1751.998047 0)"/>
       <use xlink:href="#DejaVuSans-63" transform="translate(1813.521484 0)"/>
       <use xlink:href="#DejaVuSans-74" transform="translate(1868.501953 0)"/>
       <use xlink:href="#DejaVuSans-73" transform="translate(1907.710938 0)"/>
      </g>
     </g>
    </g>
    <g id="ytick_6">
     <g id="line2d_14">
      <g>
       <use xlink:href="#m664a5a8fda" x="217.189063" y="98.077283" style="stroke: #000000; stroke-width: 0.8"/>
      </g>
     </g>
     <g id="text_15">
      <!-- Stuttering -->
      <g transform="translate(160.014062 101.876502) scale(0.1 -0.1)">
       <defs>
        <path id="DejaVuSans-53" d="M 3425 4513 
L 3425 3897 
Q 3066 4069 2747 4153 
Q 2428 4238 2131 4238 
Q 1616 4238 1336 4038 
Q 1056 3838 1056 3469 
Q 1056 3159 1242 3001 
Q 1428 2844 1947 2747 
L 2328 2669 
Q 3034 2534 3370 2195 
Q 3706 1856 3706 1288 
Q 3706 609 3251 259 
Q 2797 -91 1919 -91 
Q 1588 -91 1214 -16 
Q 841 59 441 206 
L 441 856 
Q 825 641 1194 531 
Q 1563 422 1919 422 
Q 2459 422 2753 634 
Q 3047 847 3047 1241 
Q 3047 1584 2836 1778 
Q 2625 1972 2144 2069 
L 1759 2144 
Q 1053 2284 737 2584 
Q 422 2884 422 3419 
Q 422 4038 858 4394 
Q 1294 4750 2059 4750 
Q 2388 4750 2728 4690 
Q 3069 4631 3425 4513 
z
" transform="scale(0.015625)"/>
        <path id="DejaVuSans-67" d="M 2906 1791 
Q 2906 2416 2648 2759 
Q 2391 3103 1925 3103 
Q 1463 3103 1205 2759 
Q 947 2416 947 1791 
Q 947 1169 1205 825 
Q 1463 481 1925 481 
Q 2391 481 2648 825 
Q 2906 1169 2906 1791 
z
M 3481 434 
Q 3481 -459 3084 -895 
Q 2688 -1331 1869 -1331 
Q 1566 -1331 1297 -1286 
Q 1028 -1241 775 -1147 
L 775 -588 
Q 1028 -725 1275 -790 
Q 1522 -856 1778 -856 
Q 2344 -856 2625 -561 
Q 2906 -266 2906 331 
L 2906 616 
Q 2728 306 2450 153 
Q 2172 0 1784 0 
Q 1141 0 747 490 
Q 353 981 353 1791 
Q 353 2603 747 3093 
Q 1141 3584 1784 3584 
Q 2172 3584 2450 3431 
Q 2728 3278 2906 2969 
L 2906 3500 
L 3481 3500 
L 3481 434 
z
" transform="scale(0.015625)"/>
       </defs>
       <use xlink:href="#DejaVuSans-53"/>
       <use xlink:href="#DejaVuSans-74" transform="translate(63.476562 0)"/>
       <use xlink:href="#DejaVuSans-75" transform="translate(102.685547 0)"/>
       <use xlink:href="#DejaVuSans-74" transform="translate(166.064453 0)"/>
       <use xlink:href="#DejaVuSans-74" transform="translate(205.273438 0)"/>
       <use xlink:href="#DejaVuSans-65" transform="translate(244.482422 0)"/>
       <use xlink:href="#DejaVuSans-72" transform="translate(306.005859 0)"/>
       <use xlink:href="#DejaVuSans-69" transform="translate(347.119141 0)"/>
       <use xlink:href="#DejaVuSans-6e" transform="translate(374.902344 0)"/>
       <use xlink:href="#DejaVuSans-67" transform="translate(438.28125 0)"/>
      </g>
     </g>
    </g>
    <g id="ytick_7">
     <g id="line2d_15">
      <g>
       <use xlink:href="#m664a5a8fda" x="217.189063" y="110.809914" style="stroke: #000000; stroke-width: 0.8"/>
      </g>
     </g>
     <g id="text_16">
      <!-- Happy demeanor -->
      <g transform="translate(123.65625 114.609133) scale(0.1 -0.1)">
       <defs>
        <path id="DejaVuSans-48" d="M 628 4666 
L 1259 4666 
L 1259 2753 
L 3553 2753 
L 3553 4666 
L 4184 4666 
L 4184 0 
L 3553 0 
L 3553 2222 
L 1259 2222 
L 1259 0 
L 628 0 
L 628 4666 
z
" transform="scale(0.015625)"/>
       </defs>
       <use xlink:href="#DejaVuSans-48"/>
       <use xlink:href="#DejaVuSans-61" transform="translate(75.195312 0)"/>
       <use xlink:href="#DejaVuSans-70" transform="translate(136.474609 0)"/>
       <use xlink:href="#DejaVuSans-70" transform="translate(199.951172 0)"/>
       <use xlink:href="#DejaVuSans-79" transform="translate(263.427734 0)"/>
       <use xlink:href="#DejaVuSans-20" transform="translate(322.607422 0)"/>
       <use xlink:href="#DejaVuSans-64" transform="translate(354.394531 0)"/>
       <use xlink:href="#DejaVuSans-65" transform="translate(417.871094 0)"/>
       <use xlink:href="#DejaVuSans-6d" transform="translate(479.394531 0)"/>
       <use xlink:href="#DejaVuSans-65" transform="translate(576.806641 0)"/>
       <use xlink:href="#DejaVuSans-61" transform="translate(638.330078 0)"/>
       <use xlink:href="#DejaVuSans-6e" transform="translate(699.609375 0)"/>
       <use xlink:href="#DejaVuSans-6f" transform="translate(762.988281 0)"/>
       <use xlink:href="#DejaVuSans-72" transform="translate(824.169922 0)"/>
      </g>
     </g>
    </g>
    <g id="ytick_8">
     <g id="line2d_16">
      <g>
       <use xlink:href="#m664a5a8fda" x="217.189063" y="123.542546" style="stroke: #000000; stroke-width: 0.8"/>
      </g>
     </g>
     <g id="text_17">
      <!-- Recurrent hand flapping -->
      <g transform="translate(89.373437 127.341765) scale(0.1 -0.1)">
       <use xlink:href="#DejaVuSans-52"/>
       <use xlink:href="#DejaVuSans-65" transform="translate(64.982422 0)"/>
       <use xlink:href="#DejaVuSans-63" transform="translate(126.505859 0)"/>
       <use xlink:href="#DejaVuSans-75" transform="translate(181.486328 0)"/>
       <use xlink:href="#DejaVuSans-72" transform="translate(244.865234 0)"/>
       <use xlink:href="#DejaVuSans-72" transform="translate(284.228516 0)"/>
       <use xlink:href="#DejaVuSans-65" transform="translate(323.091797 0)"/>
       <use xlink:href="#DejaVuSans-6e" transform="translate(384.615234 0)"/>
       <use xlink:href="#DejaVuSans-74" transform="translate(447.994141 0)"/>
       <use xlink:href="#DejaVuSans-20" transform="translate(487.203125 0)"/>
       <use xlink:href="#DejaVuSans-68" transform="translate(518.990234 0)"/>
       <use xlink:href="#DejaVuSans-61" transform="translate(582.369141 0)"/>
       <use xlink:href="#DejaVuSans-6e" transform="translate(643.648438 0)"/>
       <use xlink:href="#DejaVuSans-64" transform="translate(707.027344 0)"/>
       <use xlink:href="#DejaVuSans-20" transform="translate(770.503906 0)"/>
       <use xlink:href="#DejaVuSans-66" transform="translate(802.291016 0)"/>
       <use xlink:href="#DejaVuSans-6c" transform="translate(837.496094 0)"/>
       <use xlink:href="#DejaVuSans-61" transform="translate(865.279297 0)"/>
       <use xlink:href="#DejaVuSans-70" transform="translate(926.558594 0)"/>
       <use xlink:href="#DejaVuSans-70" transform="translate(990.035156 0)"/>
       <use xlink:href="#DejaVuSans-69" transform="translate(1053.511719 0)"/>
       <use xlink:href="#DejaVuSans-6e" transform="translate(1081.294922 0)"/>
       <use xlink:href="#DejaVuSans-67" transform="translate(1144.673828 0)"/>
      </g>
     </g>
    </g>
    <g id="ytick_9">
     <g id="line2d_17">
      <g>
       <use xlink:href="#m664a5a8fda" x="217.189063" y="136.275178" style="stroke: #000000; stroke-width: 0.8"/>
      </g>
     </g>
     <g id="text_18">
      <!-- Hyperventilation -->
      <g transform="translate(126.96875 140.074396) scale(0.1 -0.1)">
       <use xlink:href="#DejaVuSans-48"/>
       <use xlink:href="#DejaVuSans-79" transform="translate(75.195312 0)"/>
       <use xlink:href="#DejaVuSans-70" transform="translate(134.375 0)"/>
       <use xlink:href="#DejaVuSans-65" transform="translate(197.851562 0)"/>
       <use xlink:href="#DejaVuSans-72" transform="translate(259.375 0)"/>
       <use xlink:href="#DejaVuSans-76" transform="translate(300.488281 0)"/>
       <use xlink:href="#DejaVuSans-65" transform="translate(359.667969 0)"/>
       <use xlink:href="#DejaVuSans-6e" transform="translate(421.191406 0)"/>
       <use xlink:href="#DejaVuSans-74" transform="translate(484.570312 0)"/>
       <use xlink:href="#DejaVuSans-69" transform="translate(523.779297 0)"/>
       <use xlink:href="#DejaVuSans-6c" transform="translate(551.5625 0)"/>
       <use xlink:href="#DejaVuSans-61" transform="translate(579.345703 0)"/>
       <use xlink:href="#DejaVuSans-74" transform="translate(640.625 0)"/>
       <use xlink:href="#DejaVuSans-69" transform="translate(679.833984 0)"/>
       <use xlink:href="#DejaVuSans-6f" transform="translate(707.617188 0)"/>
       <use xlink:href="#DejaVuSans-6e" transform="translate(768.798828 0)"/>
      </g>
     </g>
    </g>
    <g id="ytick_10">
     <g id="line2d_18">
      <g>
       <use xlink:href="#m664a5a8fda" x="217.189063" y="149.007809" style="stroke: #000000; stroke-width: 0.8"/>
      </g>
     </g>
     <g id="text_19">
      <!-- Tonic seizure -->
      <g transform="translate(146.104688 152.807028) scale(0.1 -0.1)">
       <defs>
        <path id="DejaVuSans-54" d="M -19 4666 
L 3928 4666 
L 3928 4134 
L 2272 4134 
L 2272 0 
L 1638 0 
L 1638 4134 
L -19 4134 
L -19 4666 
z
" transform="scale(0.015625)"/>
        <path id="DejaVuSans-7a" d="M 353 3500 
L 3084 3500 
L 3084 2975 
L 922 459 
L 3084 459 
L 3084 0 
L 275 0 
L 275 525 
L 2438 3041 
L 353 3041 
L 353 3500 
z
" transform="scale(0.015625)"/>
       </defs>
       <use xlink:href="#DejaVuSans-54"/>
       <use xlink:href="#DejaVuSans-6f" transform="translate(44.083984 0)"/>
       <use xlink:href="#DejaVuSans-6e" transform="translate(105.265625 0)"/>
       <use xlink:href="#DejaVuSans-69" transform="translate(168.644531 0)"/>
       <use xlink:href="#DejaVuSans-63" transform="translate(196.427734 0)"/>
       <use xlink:href="#DejaVuSans-20" transform="translate(251.408203 0)"/>
       <use xlink:href="#DejaVuSans-73" transform="translate(283.195312 0)"/>
       <use xlink:href="#DejaVuSans-65" transform="translate(335.294922 0)"/>
       <use xlink:href="#DejaVuSans-69" transform="translate(396.818359 0)"/>
       <use xlink:href="#DejaVuSans-7a" transform="translate(424.601562 0)"/>
       <use xlink:href="#DejaVuSans-75" transform="translate(477.091797 0)"/>
       <use xlink:href="#DejaVuSans-72" transform="translate(540.470703 0)"/>
       <use xlink:href="#DejaVuSans-65" transform="translate(579.333984 0)"/>
      </g>
     </g>
    </g>
    <g id="ytick_11">
     <g id="line2d_19">
      <g>
       <use xlink:href="#m664a5a8fda" x="217.189063" y="161.740441" style="stroke: #000000; stroke-width: 0.8"/>
      </g>
     </g>
     <g id="text_20">
      <!-- Nephronophthisis -->
      <g transform="translate(122.489063 165.53966) scale(0.1 -0.1)">
       <defs>
        <path id="DejaVuSans-4e" d="M 628 4666 
L 1478 4666 
L 3547 763 
L 3547 4666 
L 4159 4666 
L 4159 0 
L 3309 0 
L 1241 3903 
L 1241 0 
L 628 0 
L 628 4666 
z
" transform="scale(0.015625)"/>
       </defs>
       <use xlink:href="#DejaVuSans-4e"/>
       <use xlink:href="#DejaVuSans-65" transform="translate(74.804688 0)"/>
       <use xlink:href="#DejaVuSans-70" transform="translate(136.328125 0)"/>
       <use xlink:href="#DejaVuSans-68" transform="translate(199.804688 0)"/>
       <use xlink:href="#DejaVuSans-72" transform="translate(263.183594 0)"/>
       <use xlink:href="#DejaVuSans-6f" transform="translate(302.046875 0)"/>
       <use xlink:href="#DejaVuSans-6e" transform="translate(363.228516 0)"/>
       <use xlink:href="#DejaVuSans-6f" transform="translate(426.607422 0)"/>
       <use xlink:href="#DejaVuSans-70" transform="translate(487.789062 0)"/>
       <use xlink:href="#DejaVuSans-68" transform="translate(551.265625 0)"/>
       <use xlink:href="#DejaVuSans-74" transform="translate(614.644531 0)"/>
       <use xlink:href="#DejaVuSans-68" transform="translate(653.853516 0)"/>
       <use xlink:href="#DejaVuSans-69" transform="translate(717.232422 0)"/>
       <use xlink:href="#DejaVuSans-73" transform="translate(745.015625 0)"/>
       <use xlink:href="#DejaVuSans-69" transform="translate(797.115234 0)"/>
       <use xlink:href="#DejaVuSans-73" transform="translate(824.898438 0)"/>
      </g>
     </g>
    </g>
    <g id="ytick_12">
     <g id="line2d_20">
      <g>
       <use xlink:href="#m664a5a8fda" x="217.189063" y="174.473072" style="stroke: #000000; stroke-width: 0.8"/>
      </g>
     </g>
     <g id="text_21">
      <!-- Obsessive-compulsive trait -->
      <g transform="translate(74.8125 178.272291) scale(0.1 -0.1)">
       <defs>
        <path id="DejaVuSans-4f" d="M 2522 4238 
Q 1834 4238 1429 3725 
Q 1025 3213 1025 2328 
Q 1025 1447 1429 934 
Q 1834 422 2522 422 
Q 3209 422 3611 934 
Q 4013 1447 4013 2328 
Q 4013 3213 3611 3725 
Q 3209 4238 2522 4238 
z
M 2522 4750 
Q 3503 4750 4090 4092 
Q 4678 3434 4678 2328 
Q 4678 1225 4090 567 
Q 3503 -91 2522 -91 
Q 1538 -91 948 565 
Q 359 1222 359 2328 
Q 359 3434 948 4092 
Q 1538 4750 2522 4750 
z
" transform="scale(0.015625)"/>
        <path id="DejaVuSans-62" d="M 3116 1747 
Q 3116 2381 2855 2742 
Q 2594 3103 2138 3103 
Q 1681 3103 1420 2742 
Q 1159 2381 1159 1747 
Q 1159 1113 1420 752 
Q 1681 391 2138 391 
Q 2594 391 2855 752 
Q 3116 1113 3116 1747 
z
M 1159 2969 
Q 1341 3281 1617 3432 
Q 1894 3584 2278 3584 
Q 2916 3584 3314 3078 
Q 3713 2572 3713 1747 
Q 3713 922 3314 415 
Q 2916 -91 2278 -91 
Q 1894 -91 1617 61 
Q 1341 213 1159 525 
L 1159 0 
L 581 0 
L 581 4863 
L 1159 4863 
L 1159 2969 
z
" transform="scale(0.015625)"/>
        <path id="DejaVuSans-2d" d="M 313 2009 
L 1997 2009 
L 1997 1497 
L 313 1497 
L 313 2009 
z
" transform="scale(0.015625)"/>
       </defs>
       <use xlink:href="#DejaVuSans-4f"/>
       <use xlink:href="#DejaVuSans-62" transform="translate(78.710938 0)"/>
       <use xlink:href="#DejaVuSans-73" transform="translate(142.1875 0)"/>
       <use xlink:href="#DejaVuSans-65" transform="translate(194.287109 0)"/>
       <use xlink:href="#DejaVuSans-73" transform="translate(255.810547 0)"/>
       <use xlink:href="#DejaVuSans-73" transform="translate(307.910156 0)"/>
       <use xlink:href="#DejaVuSans-69" transform="translate(360.009766 0)"/>
       <use xlink:href="#DejaVuSans-76" transform="translate(387.792969 0)"/>
       <use xlink:href="#DejaVuSans-65" transform="translate(446.972656 0)"/>
       <use xlink:href="#DejaVuSans-2d" transform="translate(508.496094 0)"/>
       <use xlink:href="#DejaVuSans-63" transform="translate(544.580078 0)"/>
       <use xlink:href="#DejaVuSans-6f" transform="translate(599.560547 0)"/>
       <use xlink:href="#DejaVuSans-6d" transform="translate(660.742188 0)"/>
       <use xlink:href="#DejaVuSans-70" transform="translate(758.154297 0)"/>
       <use xlink:href="#DejaVuSans-75" transform="translate(821.630859 0)"/>
       <use xlink:href="#DejaVuSans-6c" transform="translate(885.009766 0)"/>
       <use xlink:href="#DejaVuSans-73" transform="translate(912.792969 0)"/>
       <use xlink:href="#DejaVuSans-69" transform="translate(964.892578 0)"/>
       <use xlink:href="#DejaVuSans-76" transform="translate(992.675781 0)"/>
       <use xlink:href="#DejaVuSans-65" transform="translate(1051.855469 0)"/>
       <use xlink:href="#DejaVuSans-20" transform="translate(1113.378906 0)"/>
       <use xlink:href="#DejaVuSans-74" transform="translate(1145.166016 0)"/>
       <use xlink:href="#DejaVuSans-72" transform="translate(1184.375 0)"/>
       <use xlink:href="#DejaVuSans-61" transform="translate(1225.488281 0)"/>
       <use xlink:href="#DejaVuSans-69" transform="translate(1286.767578 0)"/>
       <use xlink:href="#DejaVuSans-74" transform="translate(1314.550781 0)"/>
      </g>
     </g>
    </g>
    <g id="ytick_13">
     <g id="line2d_21">
      <g>
       <use xlink:href="#m664a5a8fda" x="217.189063" y="187.205704" style="stroke: #000000; stroke-width: 0.8"/>
      </g>
     </g>
     <g id="text_22">
      <!-- EEG with multifocal slow activity -->
      <g transform="translate(47.132812 191.004923) scale(0.1 -0.1)">
       <defs>
        <path id="DejaVuSans-47" d="M 3809 666 
L 3809 1919 
L 2778 1919 
L 2778 2438 
L 4434 2438 
L 4434 434 
Q 4069 175 3628 42 
Q 3188 -91 2688 -91 
Q 1594 -91 976 548 
Q 359 1188 359 2328 
Q 359 3472 976 4111 
Q 1594 4750 2688 4750 
Q 3144 4750 3555 4637 
Q 3966 4525 4313 4306 
L 4313 3634 
Q 3963 3931 3569 4081 
Q 3175 4231 2741 4231 
Q 1884 4231 1454 3753 
Q 1025 3275 1025 2328 
Q 1025 1384 1454 906 
Q 1884 428 2741 428 
Q 3075 428 3337 486 
Q 3600 544 3809 666 
z
" transform="scale(0.015625)"/>
        <path id="DejaVuSans-77" d="M 269 3500 
L 844 3500 
L 1563 769 
L 2278 3500 
L 2956 3500 
L 3675 769 
L 4391 3500 
L 4966 3500 
L 4050 0 
L 3372 0 
L 2619 2869 
L 1863 0 
L 1184 0 
L 269 3500 
z
" transform="scale(0.015625)"/>
       </defs>
       <use xlink:href="#DejaVuSans-45"/>
       <use xlink:href="#DejaVuSans-45" transform="translate(63.183594 0)"/>
       <use xlink:href="#DejaVuSans-47" transform="translate(126.367188 0)"/>
       <use xlink:href="#DejaVuSans-20" transform="translate(203.857422 0)"/>
       <use xlink:href="#DejaVuSans-77" transform="translate(235.644531 0)"/>
       <use xlink:href="#DejaVuSans-69" transform="translate(317.431641 0)"/>
       <use xlink:href="#DejaVuSans-74" transform="translate(345.214844 0)"/>
       <use xlink:href="#DejaVuSans-68" transform="translate(384.423828 0)"/>
       <use xlink:href="#DejaVuSans-20" transform="translate(447.802734 0)"/>
       <use xlink:href="#DejaVuSans-6d" transform="translate(479.589844 0)"/>
       <use xlink:href="#DejaVuSans-75" transform="translate(577.001953 0)"/>
       <use xlink:href="#DejaVuSans-6c" transform="translate(640.380859 0)"/>
       <use xlink:href="#DejaVuSans-74" transform="translate(668.164062 0)"/>
       <use xlink:href="#DejaVuSans-69" transform="translate(707.373047 0)"/>
       <use xlink:href="#DejaVuSans-66" transform="translate(735.15625 0)"/>
       <use xlink:href="#DejaVuSans-6f" transform="translate(770.361328 0)"/>
       <use xlink:href="#DejaVuSans-63" transform="translate(831.542969 0)"/>
       <use xlink:href="#DejaVuSans-61" transform="translate(886.523438 0)"/>
       <use xlink:href="#DejaVuSans-6c" transform="translate(947.802734 0)"/>
       <use xlink:href="#DejaVuSans-20" transform="translate(975.585938 0)"/>
       <use xlink:href="#DejaVuSans-73" transform="translate(1007.373047 0)"/>
       <use xlink:href="#DejaVuSans-6c" transform="translate(1059.472656 0)"/>
       <use xlink:href="#DejaVuSans-6f" transform="translate(1087.255859 0)"/>
       <use xlink:href="#DejaVuSans-77" transform="translate(1148.4375 0)"/>
       <use xlink:href="#DejaVuSans-20" transform="translate(1230.224609 0)"/>
       <use xlink:href="#DejaVuSans-61" transform="translate(1262.011719 0)"/>
       <use xlink:href="#DejaVuSans-63" transform="translate(1323.291016 0)"/>
       <use xlink:href="#DejaVuSans-74" transform="translate(1378.271484 0)"/>
       <use xlink:href="#DejaVuSans-69" transform="translate(1417.480469 0)"/>
       <use xlink:href="#DejaVuSans-76" transform="translate(1445.263672 0)"/>
       <use xlink:href="#DejaVuSans-69" transform="translate(1504.443359 0)"/>
       <use xlink:href="#DejaVuSans-74" transform="translate(1532.226562 0)"/>
       <use xlink:href="#DejaVuSans-79" transform="translate(1571.435547 0)"/>
      </g>
     </g>
    </g>
    <g id="ytick_14">
     <g id="line2d_22">
      <g>
       <use xlink:href="#m664a5a8fda" x="217.189063" y="199.938336" style="stroke: #000000; stroke-width: 0.8"/>
      </g>
     </g>
     <g id="text_23">
      <!-- Atypical absence seizure -->
      <g transform="translate(86.203125 203.737554) scale(0.1 -0.1)">
       <defs>
        <path id="DejaVuSans-41" d="M 2188 4044 
L 1331 1722 
L 3047 1722 
L 2188 4044 
z
M 1831 4666 
L 2547 4666 
L 4325 0 
L 3669 0 
L 3244 1197 
L 1141 1197 
L 716 0 
L 50 0 
L 1831 4666 
z
" transform="scale(0.015625)"/>
       </defs>
       <use xlink:href="#DejaVuSans-41"/>
       <use xlink:href="#DejaVuSans-74" transform="translate(66.658203 0)"/>
       <use xlink:href="#DejaVuSans-79" transform="translate(105.867188 0)"/>
       <use xlink:href="#DejaVuSans-70" transform="translate(165.046875 0)"/>
       <use xlink:href="#DejaVuSans-69" transform="translate(228.523438 0)"/>
       <use xlink:href="#DejaVuSans-63" transform="translate(256.306641 0)"/>
       <use xlink:href="#DejaVuSans-61" transform="translate(311.287109 0)"/>
       <use xlink:href="#DejaVuSans-6c" transform="translate(372.566406 0)"/>
       <use xlink:href="#DejaVuSans-20" transform="translate(400.349609 0)"/>
       <use xlink:href="#DejaVuSans-61" transform="translate(432.136719 0)"/>
       <use xlink:href="#DejaVuSans-62" transform="translate(493.416016 0)"/>
       <use xlink:href="#DejaVuSans-73" transform="translate(556.892578 0)"/>
       <use xlink:href="#DejaVuSans-65" transform="translate(608.992188 0)"/>
       <use xlink:href="#DejaVuSans-6e" transform="translate(670.515625 0)"/>
       <use xlink:href="#DejaVuSans-63" transform="translate(733.894531 0)"/>
       <use xlink:href="#DejaVuSans-65" transform="translate(788.875 0)"/>
       <use xlink:href="#DejaVuSans-20" transform="translate(850.398438 0)"/>
       <use xlink:href="#DejaVuSans-73" transform="translate(882.185547 0)"/>
       <use xlink:href="#DejaVuSans-65" transform="translate(934.285156 0)"/>
       <use xlink:href="#DejaVuSans-69" transform="translate(995.808594 0)"/>
       <use xlink:href="#DejaVuSans-7a" transform="translate(1023.591797 0)"/>
       <use xlink:href="#DejaVuSans-75" transform="translate(1076.082031 0)"/>
       <use xlink:href="#DejaVuSans-72" transform="translate(1139.460938 0)"/>
       <use xlink:href="#DejaVuSans-65" transform="translate(1178.324219 0)"/>
      </g>
     </g>
    </g>
    <g id="ytick_15">
     <g id="line2d_23">
      <g>
       <use xlink:href="#m664a5a8fda" x="217.189063" y="212.670967" style="stroke: #000000; stroke-width: 0.8"/>
      </g>
     </g>
     <g id="text_24">
      <!-- Abnormal myelination -->
      <g transform="translate(99.79375 216.470186) scale(0.1 -0.1)">
       <use xlink:href="#DejaVuSans-41"/>
       <use xlink:href="#DejaVuSans-62" transform="translate(68.408203 0)"/>
       <use xlink:href="#DejaVuSans-6e" transform="translate(131.884766 0)"/>
       <use xlink:href="#DejaVuSans-6f" transform="translate(195.263672 0)"/>
       <use xlink:href="#DejaVuSans-72" transform="translate(256.445312 0)"/>
       <use xlink:href="#DejaVuSans-6d" transform="translate(295.808594 0)"/>
       <use xlink:href="#DejaVuSans-61" transform="translate(393.220703 0)"/>
       <use xlink:href="#DejaVuSans-6c" transform="translate(454.5 0)"/>
       <use xlink:href="#DejaVuSans-20" transform="translate(482.283203 0)"/>
       <use xlink:href="#DejaVuSans-6d" transform="translate(514.070312 0)"/>
       <use xlink:href="#DejaVuSans-79" transform="translate(611.482422 0)"/>
       <use xlink:href="#DejaVuSans-65" transform="translate(670.662109 0)"/>
       <use xlink:href="#DejaVuSans-6c" transform="translate(732.185547 0)"/>
       <use xlink:href="#DejaVuSans-69" transform="translate(759.96875 0)"/>
       <use xlink:href="#DejaVuSans-6e" transform="translate(787.751953 0)"/>
       <use xlink:href="#DejaVuSans-61" transform="translate(851.130859 0)"/>
       <use xlink:href="#DejaVuSans-74" transform="translate(912.410156 0)"/>
       <use xlink:href="#DejaVuSans-69" transform="translate(951.619141 0)"/>
       <use xlink:href="#DejaVuSans-6f" transform="translate(979.402344 0)"/>
       <use xlink:href="#DejaVuSans-6e" transform="translate(1040.583984 0)"/>
      </g>
     </g>
    </g>
    <g id="ytick_16">
     <g id="line2d_24">
      <g>
       <use xlink:href="#m664a5a8fda" x="217.189063" y="225.403599" style="stroke: #000000; stroke-width: 0.8"/>
      </g>
     </g>
     <g id="text_25">
      <!-- Abnormality of coordination -->
      <g transform="translate(70.929688 229.202817) scale(0.1 -0.1)">
       <use xlink:href="#DejaVuSans-41"/>
       <use xlink:href="#DejaVuSans-62" transform="translate(68.408203 0)"/>
       <use xlink:href="#DejaVuSans-6e" transform="translate(131.884766 0)"/>
       <use xlink:href="#DejaVuSans-6f" transform="translate(195.263672 0)"/>
       <use xlink:href="#DejaVuSans-72" transform="translate(256.445312 0)"/>
       <use xlink:href="#DejaVuSans-6d" transform="translate(295.808594 0)"/>
       <use xlink:href="#DejaVuSans-61" transform="translate(393.220703 0)"/>
       <use xlink:href="#DejaVuSans-6c" transform="translate(454.5 0)"/>
       <use xlink:href="#DejaVuSans-69" transform="translate(482.283203 0)"/>
       <use xlink:href="#DejaVuSans-74" transform="translate(510.066406 0)"/>
       <use xlink:href="#DejaVuSans-79" transform="translate(549.275391 0)"/>
       <use xlink:href="#DejaVuSans-20" transform="translate(608.455078 0)"/>
       <use xlink:href="#DejaVuSans-6f" transform="translate(640.242188 0)"/>
       <use xlink:href="#DejaVuSans-66" transform="translate(701.423828 0)"/>
       <use xlink:href="#DejaVuSans-20" transform="translate(736.628906 0)"/>
       <use xlink:href="#DejaVuSans-63" transform="translate(768.416016 0)"/>
       <use xlink:href="#DejaVuSans-6f" transform="translate(823.396484 0)"/>
       <use xlink:href="#DejaVuSans-6f" transform="translate(884.578125 0)"/>
       <use xlink:href="#DejaVuSans-72" transform="translate(945.759766 0)"/>
       <use xlink:href="#DejaVuSans-64" transform="translate(985.123047 0)"/>
       <use xlink:href="#DejaVuSans-69" transform="translate(1048.599609 0)"/>
       <use xlink:href="#DejaVuSans-6e" transform="translate(1076.382812 0)"/>
       <use xlink:href="#DejaVuSans-61" transform="translate(1139.761719 0)"/>
       <use xlink:href="#DejaVuSans-74" transform="translate(1201.041016 0)"/>
       <use xlink:href="#DejaVuSans-69" transform="translate(1240.25 0)"/>
       <use xlink:href="#DejaVuSans-6f" transform="translate(1268.033203 0)"/>
       <use xlink:href="#DejaVuSans-6e" transform="translate(1329.214844 0)"/>
      </g>
     </g>
    </g>
    <g id="ytick_17">
     <g id="line2d_25">
      <g>
       <use xlink:href="#m664a5a8fda" x="217.189063" y="238.13623" style="stroke: #000000; stroke-width: 0.8"/>
      </g>
     </g>
     <g id="text_26">
      <!-- Interictal epileptiform activity -->
      <g transform="translate(61.823438 241.935449) scale(0.1 -0.1)">
       <defs>
        <path id="DejaVuSans-49" d="M 628 4666 
L 1259 4666 
L 1259 0 
L 628 0 
L 628 4666 
z
" transform="scale(0.015625)"/>
       </defs>
       <use xlink:href="#DejaVuSans-49"/>
       <use xlink:href="#DejaVuSans-6e" transform="translate(29.492188 0)"/>
       <use xlink:href="#DejaVuSans-74" transform="translate(92.871094 0)"/>
       <use xlink:href="#DejaVuSans-65" transform="translate(132.080078 0)"/>
       <use xlink:href="#DejaVuSans-72" transform="translate(193.603516 0)"/>
       <use xlink:href="#DejaVuSans-69" transform="translate(234.716797 0)"/>
       <use xlink:href="#DejaVuSans-63" transform="translate(262.5 0)"/>
       <use xlink:href="#DejaVuSans-74" transform="translate(317.480469 0)"/>
       <use xlink:href="#DejaVuSans-61" transform="translate(356.689453 0)"/>
       <use xlink:href="#DejaVuSans-6c" transform="translate(417.96875 0)"/>
       <use xlink:href="#DejaVuSans-20" transform="translate(445.751953 0)"/>
       <use xlink:href="#DejaVuSans-65" transform="translate(477.539062 0)"/>
       <use xlink:href="#DejaVuSans-70" transform="translate(539.0625 0)"/>
       <use xlink:href="#DejaVuSans-69" transform="translate(602.539062 0)"/>
       <use xlink:href="#DejaVuSans-6c" transform="translate(630.322266 0)"/>
       <use xlink:href="#DejaVuSans-65" transform="translate(658.105469 0)"/>
       <use xlink:href="#DejaVuSans-70" transform="translate(719.628906 0)"/>
       <use xlink:href="#DejaVuSans-74" transform="translate(783.105469 0)"/>
       <use xlink:href="#DejaVuSans-69" transform="translate(822.314453 0)"/>
       <use xlink:href="#DejaVuSans-66" transform="translate(850.097656 0)"/>
       <use xlink:href="#DejaVuSans-6f" transform="translate(885.302734 0)"/>
       <use xlink:href="#DejaVuSans-72" transform="translate(946.484375 0)"/>
       <use xlink:href="#DejaVuSans-6d" transform="translate(985.847656 0)"/>
       <use xlink:href="#DejaVuSans-20" transform="translate(1083.259766 0)"/>
       <use xlink:href="#DejaVuSans-61" transform="translate(1115.046875 0)"/>
       <use xlink:href="#DejaVuSans-63" transform="translate(1176.326172 0)"/>
       <use xlink:href="#DejaVuSans-74" transform="translate(1231.306641 0)"/>
       <use xlink:href="#DejaVuSans-69" transform="translate(1270.515625 0)"/>
       <use xlink:href="#DejaVuSans-76" transform="translate(1298.298828 0)"/>
       <use xlink:href="#DejaVuSans-69" transform="translate(1357.478516 0)"/>
       <use xlink:href="#DejaVuSans-74" transform="translate(1385.261719 0)"/>
       <use xlink:href="#DejaVuSans-79" transform="translate(1424.470703 0)"/>
      </g>
     </g>
    </g>
    <g id="ytick_18">
     <g id="line2d_26">
      <g>
       <use xlink:href="#m664a5a8fda" x="217.189063" y="250.868862" style="stroke: #000000; stroke-width: 0.8"/>
      </g>
     </g>
     <g id="text_27">
      <!-- Gaze-evoked nystagmus -->
      <g transform="translate(86.854687 254.668081) scale(0.1 -0.1)">
       <defs>
        <path id="DejaVuSans-6b" d="M 581 4863 
L 1159 4863 
L 1159 1991 
L 2875 3500 
L 3609 3500 
L 1753 1863 
L 3688 0 
L 2938 0 
L 1159 1709 
L 1159 0 
L 581 0 
L 581 4863 
z
" transform="scale(0.015625)"/>
       </defs>
       <use xlink:href="#DejaVuSans-47"/>
       <use xlink:href="#DejaVuSans-61" transform="translate(77.490234 0)"/>
       <use xlink:href="#DejaVuSans-7a" transform="translate(138.769531 0)"/>
       <use xlink:href="#DejaVuSans-65" transform="translate(191.259766 0)"/>
       <use xlink:href="#DejaVuSans-2d" transform="translate(252.783203 0)"/>
       <use xlink:href="#DejaVuSans-65" transform="translate(288.867188 0)"/>
       <use xlink:href="#DejaVuSans-76" transform="translate(350.390625 0)"/>
       <use xlink:href="#DejaVuSans-6f" transform="translate(409.570312 0)"/>
       <use xlink:href="#DejaVuSans-6b" transform="translate(470.751953 0)"/>
       <use xlink:href="#DejaVuSans-65" transform="translate(525.037109 0)"/>
       <use xlink:href="#DejaVuSans-64" transform="translate(586.560547 0)"/>
       <use xlink:href="#DejaVuSans-20" transform="translate(650.037109 0)"/>
       <use xlink:href="#DejaVuSans-6e" transform="translate(681.824219 0)"/>
       <use xlink:href="#DejaVuSans-79" transform="translate(745.203125 0)"/>
       <use xlink:href="#DejaVuSans-73" transform="translate(804.382812 0)"/>
       <use xlink:href="#DejaVuSans-74" transform="translate(856.482422 0)"/>
       <use xlink:href="#DejaVuSans-61" transform="translate(895.691406 0)"/>
       <use xlink:href="#DejaVuSans-67" transform="translate(956.970703 0)"/>
       <use xlink:href="#DejaVuSans-6d" transform="translate(1020.447266 0)"/>
       <use xlink:href="#DejaVuSans-75" transform="translate(1117.859375 0)"/>
       <use xlink:href="#DejaVuSans-73" transform="translate(1181.238281 0)"/>
      </g>
     </g>
    </g>
    <g id="ytick_19">
     <g id="line2d_27">
      <g>
       <use xlink:href="#m664a5a8fda" x="217.189063" y="263.601493" style="stroke: #000000; stroke-width: 0.8"/>
      </g>
     </g>
     <g id="text_28">
      <!-- Molar tooth sign on MRI -->
      <g transform="translate(91.640625 267.400712) scale(0.1 -0.1)">
       <use xlink:href="#DejaVuSans-4d"/>
       <use xlink:href="#DejaVuSans-6f" transform="translate(86.279297 0)"/>
       <use xlink:href="#DejaVuSans-6c" transform="translate(147.460938 0)"/>
       <use xlink:href="#DejaVuSans-61" transform="translate(175.244141 0)"/>
       <use xlink:href="#DejaVuSans-72" transform="translate(236.523438 0)"/>
       <use xlink:href="#DejaVuSans-20" transform="translate(277.636719 0)"/>
       <use xlink:href="#DejaVuSans-74" transform="translate(309.423828 0)"/>
       <use xlink:href="#DejaVuSans-6f" transform="translate(348.632812 0)"/>
       <use xlink:href="#DejaVuSans-6f" transform="translate(409.814453 0)"/>
       <use xlink:href="#DejaVuSans-74" transform="translate(470.996094 0)"/>
       <use xlink:href="#DejaVuSans-68" transform="translate(510.205078 0)"/>
       <use xlink:href="#DejaVuSans-20" transform="translate(573.583984 0)"/>
       <use xlink:href="#DejaVuSans-73" transform="translate(605.371094 0)"/>
       <use xlink:href="#DejaVuSans-69" transform="translate(657.470703 0)"/>
       <use xlink:href="#DejaVuSans-67" transform="translate(685.253906 0)"/>
       <use xlink:href="#DejaVuSans-6e" transform="translate(748.730469 0)"/>
       <use xlink:href="#DejaVuSans-20" transform="translate(812.109375 0)"/>
       <use xlink:href="#DejaVuSans-6f" transform="translate(843.896484 0)"/>
       <use xlink:href="#DejaVuSans-6e" transform="translate(905.078125 0)"/>
       <use xlink:href="#DejaVuSans-20" transform="translate(968.457031 0)"/>
       <use xlink:href="#DejaVuSans-4d" transform="translate(1000.244141 0)"/>
       <use xlink:href="#DejaVuSans-52" transform="translate(1086.523438 0)"/>
       <use xlink:href="#DejaVuSans-49" transform="translate(1156.005859 0)"/>
      </g>
     </g>
    </g>
    <g id="ytick_20">
     <g id="line2d_28">
      <g>
       <use xlink:href="#m664a5a8fda" x="217.189063" y="276.334125" style="stroke: #000000; stroke-width: 0.8"/>
      </g>
     </g>
     <g id="text_29">
      <!-- Hyperkinetic movements -->
      <g transform="translate(84.410938 280.133344) scale(0.1 -0.1)">
       <use xlink:href="#DejaVuSans-48"/>
       <use xlink:href="#DejaVuSans-79" transform="translate(75.195312 0)"/>
       <use xlink:href="#DejaVuSans-70" transform="translate(134.375 0)"/>
       <use xlink:href="#DejaVuSans-65" transform="translate(197.851562 0)"/>
       <use xlink:href="#DejaVuSans-72" transform="translate(259.375 0)"/>
       <use xlink:href="#DejaVuSans-6b" transform="translate(300.488281 0)"/>
       <use xlink:href="#DejaVuSans-69" transform="translate(358.398438 0)"/>
       <use xlink:href="#DejaVuSans-6e" transform="translate(386.181641 0)"/>
       <use xlink:href="#DejaVuSans-65" transform="translate(449.560547 0)"/>
       <use xlink:href="#DejaVuSans-74" transform="translate(511.083984 0)"/>
       <use xlink:href="#DejaVuSans-69" transform="translate(550.292969 0)"/>
       <use xlink:href="#DejaVuSans-63" transform="translate(578.076172 0)"/>
       <use xlink:href="#DejaVuSans-20" transform="translate(633.056641 0)"/>
       <use xlink:href="#DejaVuSans-6d" transform="translate(664.84375 0)"/>
       <use xlink:href="#DejaVuSans-6f" transform="translate(762.255859 0)"/>
       <use xlink:href="#DejaVuSans-76" transform="translate(823.4375 0)"/>
       <use xlink:href="#DejaVuSans-65" transform="translate(882.617188 0)"/>
       <use xlink:href="#DejaVuSans-6d" transform="translate(944.140625 0)"/>
       <use xlink:href="#DejaVuSans-65" transform="translate(1041.552734 0)"/>
       <use xlink:href="#DejaVuSans-6e" transform="translate(1103.076172 0)"/>
       <use xlink:href="#DejaVuSans-74" transform="translate(1166.455078 0)"/>
       <use xlink:href="#DejaVuSans-73" transform="translate(1205.664062 0)"/>
      </g>
     </g>
    </g>
   </g>
   <g id="line2d_29"/>
   <g id="line2d_30"/>
   <g id="line2d_31"/>
   <g id="line2d_32"/>
   <g id="line2d_33"/>
   <g id="line2d_34"/>
   <g id="line2d_35"/>
   <g id="line2d_36"/>
   <g id="line2d_37"/>
   <g id="line2d_38"/>
   <g id="line2d_39"/>
   <g id="line2d_40"/>
   <g id="patch_3">
    <path d="M 217.189063 288.430125 
L 217.189063 22.318125 
" style="fill: none; stroke: #000000; stroke-width: 0.8; stroke-linejoin: miter; stroke-linecap: square"/>
   </g>
   <g id="patch_4">
    <path d="M 574.309062 288.430125 
L 574.309062 22.318125 
" style="fill: none; stroke: #000000; stroke-width: 0.8; stroke-linejoin: miter; stroke-linecap: square"/>
   </g>
   <g id="patch_5">
    <path d="M 217.189062 288.430125 
L 574.309062 288.430125 
" style="fill: none; stroke: #000000; stroke-width: 0.8; stroke-linejoin: miter; stroke-linecap: square"/>
   </g>
   <g id="patch_6">
    <path d="M 217.189062 22.318125 
L 574.309062 22.318125 
" style="fill: none; stroke: #000000; stroke-width: 0.8; stroke-linejoin: miter; stroke-linecap: square"/>
   </g>
   <g id="text_30">
    <!-- Top 20 Enriched Phenotypes -->
    <g transform="translate(310.822813 16.318125) scale(0.12 -0.12)">
     <defs>
      <path id="DejaVuSans-50" d="M 1259 4147 
L 1259 2394 
L 2053 2394 
Q 2494 2394 2734 2622 
Q 2975 2850 2975 3272 
Q 2975 3691 2734 3919 
Q 2494 4147 2053 4147 
L 1259 4147 
z
M 628 4666 
L 2053 4666 
Q 2838 4666 3239 4311 
Q 3641 3956 3641 3272 
Q 3641 2581 3239 2228 
Q 2838 1875 2053 1875 
L 1259 1875 
L 1259 0 
L 628 0 
L 628 4666 
z
" transform="scale(0.015625)"/>
     </defs>
     <use xlink:href="#DejaVuSans-54"/>
     <use xlink:href="#DejaVuSans-6f" transform="translate(44.083984 0)"/>
     <use xlink:href="#DejaVuSans-70" transform="translate(105.265625 0)"/>
     <use xlink:href="#DejaVuSans-20" transform="translate(168.742188 0)"/>
     <use xlink:href="#DejaVuSans-32" transform="translate(200.529297 0)"/>
     <use xlink:href="#DejaVuSans-30" transform="translate(264.152344 0)"/>
     <use xlink:href="#DejaVuSans-20" transform="translate(327.775391 0)"/>
     <use xlink:href="#DejaVuSans-45" transform="translate(359.5625 0)"/>
     <use xlink:href="#DejaVuSans-6e" transform="translate(422.746094 0)"/>
     <use xlink:href="#DejaVuSans-72" transform="translate(486.125 0)"/>
     <use xlink:href="#DejaVuSans-69" transform="translate(527.238281 0)"/>
     <use xlink:href="#DejaVuSans-63" transform="translate(555.021484 0)"/>
     <use xlink:href="#DejaVuSans-68" transform="translate(610.001953 0)"/>
     <use xlink:href="#DejaVuSans-65" transform="translate(673.380859 0)"/>
     <use xlink:href="#DejaVuSans-64" transform="translate(734.904297 0)"/>
     <use xlink:href="#DejaVuSans-20" transform="translate(798.380859 0)"/>
     <use xlink:href="#DejaVuSans-50" transform="translate(830.167969 0)"/>
     <use xlink:href="#DejaVuSans-68" transform="translate(890.470703 0)"/>
     <use xlink:href="#DejaVuSans-65" transform="translate(953.849609 0)"/>
     <use xlink:href="#DejaVuSans-6e" transform="translate(1015.373047 0)"/>
     <use xlink:href="#DejaVuSans-6f" transform="translate(1078.751953 0)"/>
     <use xlink:href="#DejaVuSans-74" transform="translate(1139.933594 0)"/>
     <use xlink:href="#DejaVuSans-79" transform="translate(1179.142578 0)"/>
     <use xlink:href="#DejaVuSans-70" transform="translate(1238.322266 0)"/>
     <use xlink:href="#DejaVuSans-65" transform="translate(1301.798828 0)"/>
     <use xlink:href="#DejaVuSans-73" transform="translate(1363.322266 0)"/>
    </g>
   </g>
   <g id="legend_1">
    <g id="patch_7">
     <path d="M 581.309062 206.455625 
L 668.548125 206.455625 
Q 670.548125 206.455625 670.548125 204.455625 
L 670.548125 29.318125 
Q 670.548125 27.318125 668.548125 27.318125 
L 581.309062 27.318125 
Q 579.309062 27.318125 579.309062 29.318125 
L 579.309062 204.455625 
Q 579.309062 206.455625 581.309062 206.455625 
z
" style="fill: #ffffff; opacity: 0.8; stroke: #cccccc; stroke-linejoin: miter"/>
    </g>
    <g id="line2d_41"/>
    <g id="text_31">
     <!-- -log10 FDR -->
     <g transform="translate(611.309062 38.916562) scale(0.1 -0.1)">
      <defs>
       <path id="DejaVuSans-31" d="M 794 531 
L 1825 531 
L 1825 4091 
L 703 3866 
L 703 4441 
L 1819 4666 
L 2450 4666 
L 2450 531 
L 3481 531 
L 3481 0 
L 794 0 
L 794 531 
z
" transform="scale(0.015625)"/>
       <path id="DejaVuSans-44" d="M 1259 4147 
L 1259 519 
L 2022 519 
Q 2988 519 3436 956 
Q 3884 1394 3884 2338 
Q 3884 3275 3436 3711 
Q 2988 4147 2022 4147 
L 1259 4147 
z
M 628 4666 
L 1925 4666 
Q 3281 4666 3915 4102 
Q 4550 3538 4550 2338 
Q 4550 1131 3912 565 
Q 3275 0 1925 0 
L 628 0 
L 628 4666 
z
" transform="scale(0.015625)"/>
      </defs>
      <use xlink:href="#DejaVuSans-2d"/>
      <use xlink:href="#DejaVuSans-6c" transform="translate(36.083984 0)"/>
      <use xlink:href="#DejaVuSans-6f" transform="translate(63.867188 0)"/>
      <use xlink:href="#DejaVuSans-67" transform="translate(125.048828 0)"/>
      <use xlink:href="#DejaVuSans-31" transform="translate(188.525391 0)"/>
      <use xlink:href="#DejaVuSans-30" transform="translate(252.148438 0)"/>
      <use xlink:href="#DejaVuSans-20" transform="translate(315.771484 0)"/>
      <use xlink:href="#DejaVuSans-46" transform="translate(347.558594 0)"/>
      <use xlink:href="#DejaVuSans-44" transform="translate(405.078125 0)"/>
      <use xlink:href="#DejaVuSans-52" transform="translate(482.080078 0)"/>
     </g>
    </g>
    <g id="line2d_42">
     <defs>
      <path id="m06c431edcd" d="M 0 3 
C 0.795609 3 1.55874 2.683901 2.12132 2.12132 
C 2.683901 1.55874 3 0.795609 3 0 
C 3 -0.795609 2.683901 -1.55874 2.12132 -2.12132 
C 1.55874 -2.683901 0.795609 -3 0 -3 
C -0.795609 -3 -1.55874 -2.683901 -2.12132 -2.12132 
C -2.683901 -1.55874 -3 -0.795609 -3 0 
C -3 0.795609 -2.683901 1.55874 -2.12132 2.12132 
C -1.55874 2.683901 -0.795609 3 0 3 
z
" style="stroke: #ffffff; stroke-width: 0.381332"/>
     </defs>
     <g>
      <use xlink:href="#m06c431edcd" x="593.309062" y="50.094688" style="fill: #7093f3; stroke: #ffffff; stroke-width: 0.381332"/>
     </g>
    </g>
    <g id="text_32">
     <!-- 6 -->
     <g transform="translate(611.309062 53.594688) scale(0.1 -0.1)">
      <use xlink:href="#DejaVuSans-36"/>
     </g>
    </g>
    <g id="line2d_43">
     <defs>
      <path id="mececd87f35" d="M 0 3 
C 0.795609 3 1.55874 2.683901 2.12132 2.12132 
C 2.683901 1.55874 3 0.795609 3 0 
C 3 -0.795609 2.683901 -1.55874 2.12132 -2.12132 
C 1.55874 -2.683901 0.795609 -3 0 -3 
C -0.795609 -3 -1.55874 -2.683901 -2.12132 -2.12132 
C -2.683901 -1.55874 -3 -0.795609 -3 0 
C -3 0.795609 -2.683901 1.55874 -2.12132 2.12132 
C -1.55874 2.683901 -0.795609 3 0 3 
z
" style="stroke: #ffffff; stroke-width: 0.381332"/>
     </defs>
     <g>
      <use xlink:href="#mececd87f35" x="593.309062" y="64.772812" style="fill: #b5cdfa; stroke: #ffffff; stroke-width: 0.381332"/>
     </g>
    </g>
    <g id="text_33">
     <!-- 8 -->
     <g transform="translate(611.309062 68.272812) scale(0.1 -0.1)">
      <use xlink:href="#DejaVuSans-38"/>
     </g>
    </g>
    <g id="line2d_44">
     <defs>
      <path id="mdb689a54d4" d="M 0 3 
C 0.795609 3 1.55874 2.683901 2.12132 2.12132 
C 2.683901 1.55874 3 0.795609 3 0 
C 3 -0.795609 2.683901 -1.55874 2.12132 -2.12132 
C 1.55874 -2.683901 0.795609 -3 0 -3 
C -0.795609 -3 -1.55874 -2.683901 -2.12132 -2.12132 
C -2.683901 -1.55874 -3 -0.795609 -3 0 
C -3 0.795609 -2.683901 1.55874 -2.12132 2.12132 
C -1.55874 2.683901 -0.795609 3 0 3 
z
" style="stroke: #ffffff; stroke-width: 0.381332"/>
     </defs>
     <g>
      <use xlink:href="#mdb689a54d4" x="593.309062" y="79.450938" style="fill: #ebd3c6; stroke: #ffffff; stroke-width: 0.381332"/>
     </g>
    </g>
    <g id="text_34">
     <!-- 10 -->
     <g transform="translate(611.309062 82.950938) scale(0.1 -0.1)">
      <use xlink:href="#DejaVuSans-31"/>
      <use xlink:href="#DejaVuSans-30" transform="translate(63.623047 0)"/>
     </g>
    </g>
    <g id="line2d_45">
     <defs>
      <path id="m8a5fbd965e" d="M 0 3 
C 0.795609 3 1.55874 2.683901 2.12132 2.12132 
C 2.683901 1.55874 3 0.795609 3 0 
C 3 -0.795609 2.683901 -1.55874 2.12132 -2.12132 
C 1.55874 -2.683901 0.795609 -3 0 -3 
C -0.795609 -3 -1.55874 -2.683901 -2.12132 -2.12132 
C -2.683901 -1.55874 -3 -0.795609 -3 0 
C -3 0.795609 -2.683901 1.55874 -2.12132 2.12132 
C -1.55874 2.683901 -0.795609 3 0 3 
z
" style="stroke: #ffffff; stroke-width: 0.381332"/>
     </defs>
     <g>
      <use xlink:href="#m8a5fbd965e" x="593.309062" y="94.129063" style="fill: #f39778; stroke: #ffffff; stroke-width: 0.381332"/>
     </g>
    </g>
    <g id="text_35">
     <!-- 12 -->
     <g transform="translate(611.309062 97.629063) scale(0.1 -0.1)">
      <use xlink:href="#DejaVuSans-31"/>
      <use xlink:href="#DejaVuSans-32" transform="translate(63.623047 0)"/>
     </g>
    </g>
    <g id="line2d_46">
     <defs>
      <path id="m0f3baa62de" d="M 0 3 
C 0.795609 3 1.55874 2.683901 2.12132 2.12132 
C 2.683901 1.55874 3 0.795609 3 0 
C 3 -0.795609 2.683901 -1.55874 2.12132 -2.12132 
C 1.55874 -2.683901 0.795609 -3 0 -3 
C -0.795609 -3 -1.55874 -2.683901 -2.12132 -2.12132 
C -2.683901 -1.55874 -3 -0.795609 -3 0 
C -3 0.795609 -2.683901 1.55874 -2.12132 2.12132 
C -1.55874 2.683901 -0.795609 3 0 3 
z
" style="stroke: #ffffff; stroke-width: 0.381332"/>
     </defs>
     <g>
      <use xlink:href="#m0f3baa62de" x="593.309062" y="108.807187" style="fill: #c53334; stroke: #ffffff; stroke-width: 0.381332"/>
     </g>
    </g>
    <g id="text_36">
     <!-- 14 -->
     <g transform="translate(611.309062 112.307187) scale(0.1 -0.1)">
      <use xlink:href="#DejaVuSans-31"/>
      <use xlink:href="#DejaVuSans-34" transform="translate(63.623047 0)"/>
     </g>
    </g>
    <g id="line2d_47"/>
    <g id="text_37">
     <!-- Gene Ratio -->
     <g transform="translate(611.309062 126.985313) scale(0.1 -0.1)">
      <use xlink:href="#DejaVuSans-47"/>
      <use xlink:href="#DejaVuSans-65" transform="translate(77.490234 0)"/>
      <use xlink:href="#DejaVuSans-6e" transform="translate(139.013672 0)"/>
      <use xlink:href="#DejaVuSans-65" transform="translate(202.392578 0)"/>
      <use xlink:href="#DejaVuSans-20" transform="translate(263.916016 0)"/>
      <use xlink:href="#DejaVuSans-52" transform="translate(295.703125 0)"/>
      <use xlink:href="#DejaVuSans-61" transform="translate(362.935547 0)"/>
      <use xlink:href="#DejaVuSans-74" transform="translate(424.214844 0)"/>
      <use xlink:href="#DejaVuSans-69" transform="translate(463.423828 0)"/>
      <use xlink:href="#DejaVuSans-6f" transform="translate(491.207031 0)"/>
     </g>
    </g>
    <g id="line2d_48">
     <defs>
      <path id="m145e64a195" d="M 0 3.182839 
C 0.844099 3.182839 1.653739 2.847475 2.250607 2.250607 
C 2.847475 1.653739 3.182839 0.844099 3.182839 0 
C 3.182839 -0.844099 2.847475 -1.653739 2.250607 -2.250607 
C 1.653739 -2.847475 0.844099 -3.182839 0 -3.182839 
C -0.844099 -3.182839 -1.653739 -2.847475 -2.250607 -2.250607 
C -2.847475 -1.653739 -3.182839 -0.844099 -3.182839 0 
C -3.182839 0.844099 -2.847475 1.653739 -2.250607 2.250607 
C -1.653739 2.847475 -0.844099 3.182839 0 3.182839 
z
" style="stroke: #ffffff; stroke-width: 0.381332"/>
     </defs>
     <g>
      <use xlink:href="#m145e64a195" x="593.309062" y="138.163437" style="fill: #333333; stroke: #ffffff; stroke-width: 0.381332"/>
     </g>
    </g>
    <g id="text_38">
     <!-- 0.004 -->
     <g transform="translate(611.309062 141.663437) scale(0.1 -0.1)">
      <use xlink:href="#DejaVuSans-30"/>
      <use xlink:href="#DejaVuSans-2e" transform="translate(63.623047 0)"/>
      <use xlink:href="#DejaVuSans-30" transform="translate(95.410156 0)"/>
      <use xlink:href="#DejaVuSans-30" transform="translate(159.033203 0)"/>
      <use xlink:href="#DejaVuSans-34" transform="translate(222.65625 0)"/>
     </g>
    </g>
    <g id="line2d_49">
     <defs>
      <path id="m857fa6dd5c" d="M 0 4.105201 
C 1.088712 4.105201 2.13298 3.672651 2.902815 2.902815 
C 3.672651 2.13298 4.105201 1.088712 4.105201 0 
C 4.105201 -1.088712 3.672651 -2.13298 2.902815 -2.902815 
C 2.13298 -3.672651 1.088712 -4.105201 0 -4.105201 
C -1.088712 -4.105201 -2.13298 -3.672651 -2.902815 -2.902815 
C -3.672651 -2.13298 -4.105201 -1.088712 -4.105201 0 
C -4.105201 1.088712 -3.672651 2.13298 -2.902815 2.902815 
C -2.13298 3.672651 -1.088712 4.105201 0 4.105201 
z
" style="stroke: #ffffff; stroke-width: 0.381332"/>
     </defs>
     <g>
      <use xlink:href="#m857fa6dd5c" x="593.309062" y="152.841563" style="fill: #333333; stroke: #ffffff; stroke-width: 0.381332"/>
     </g>
    </g>
    <g id="text_39">
     <!-- 0.006 -->
     <g transform="translate(611.309062 156.341563) scale(0.1 -0.1)">
      <use xlink:href="#DejaVuSans-30"/>
      <use xlink:href="#DejaVuSans-2e" transform="translate(63.623047 0)"/>
      <use xlink:href="#DejaVuSans-30" transform="translate(95.410156 0)"/>
      <use xlink:href="#DejaVuSans-30" transform="translate(159.033203 0)"/>
      <use xlink:href="#DejaVuSans-36" transform="translate(222.65625 0)"/>
     </g>
    </g>
    <g id="line2d_50">
     <defs>
      <path id="m94a6672790" d="M 0 4.855397 
C 1.287666 4.855397 2.522767 4.343802 3.433284 3.433284 
C 4.343802 2.522767 4.855397 1.287666 4.855397 0 
C 4.855397 -1.287666 4.343802 -2.522767 3.433284 -3.433284 
C 2.522767 -4.343802 1.287666 -4.855397 0 -4.855397 
C -1.287666 -4.855397 -2.522767 -4.343802 -3.433284 -3.433284 
C -4.343802 -2.522767 -4.855397 -1.287666 -4.855397 0 
C -4.855397 1.287666 -4.343802 2.522767 -3.433284 3.433284 
C -2.522767 4.343802 -1.287666 4.855397 0 4.855397 
z
" style="stroke: #ffffff; stroke-width: 0.381332"/>
     </defs>
     <g>
      <use xlink:href="#m94a6672790" x="593.309062" y="167.519687" style="fill: #333333; stroke: #ffffff; stroke-width: 0.381332"/>
     </g>
    </g>
    <g id="text_40">
     <!-- 0.008 -->
     <g transform="translate(611.309062 171.019687) scale(0.1 -0.1)">
      <use xlink:href="#DejaVuSans-30"/>
      <use xlink:href="#DejaVuSans-2e" transform="translate(63.623047 0)"/>
      <use xlink:href="#DejaVuSans-30" transform="translate(95.410156 0)"/>
      <use xlink:href="#DejaVuSans-30" transform="translate(159.033203 0)"/>
      <use xlink:href="#DejaVuSans-38" transform="translate(222.65625 0)"/>
     </g>
    </g>
    <g id="line2d_51">
     <defs>
      <path id="m6eb303bd98" d="M 0 5.50428 
C 1.459752 5.50428 2.859913 4.924314 3.892113 3.892113 
C 4.924314 2.859913 5.50428 1.459752 5.50428 0 
C 5.50428 -1.459752 4.924314 -2.859913 3.892113 -3.892113 
C 2.859913 -4.924314 1.459752 -5.50428 0 -5.50428 
C -1.459752 -5.50428 -2.859913 -4.924314 -3.892113 -3.892113 
C -4.924314 -2.859913 -5.50428 -1.459752 -5.50428 0 
C -5.50428 1.459752 -4.924314 2.859913 -3.892113 3.892113 
C -2.859913 4.924314 -1.459752 5.50428 0 5.50428 
z
" style="stroke: #ffffff; stroke-width: 0.381332"/>
     </defs>
     <g>
      <use xlink:href="#m6eb303bd98" x="593.309062" y="182.197812" style="fill: #333333; stroke: #ffffff; stroke-width: 0.381332"/>
     </g>
    </g>
    <g id="text_41">
     <!-- 0.010 -->
     <g transform="translate(611.309062 185.697812) scale(0.1 -0.1)">
      <use xlink:href="#DejaVuSans-30"/>
      <use xlink:href="#DejaVuSans-2e" transform="translate(63.623047 0)"/>
      <use xlink:href="#DejaVuSans-30" transform="translate(95.410156 0)"/>
      <use xlink:href="#DejaVuSans-31" transform="translate(159.033203 0)"/>
      <use xlink:href="#DejaVuSans-30" transform="translate(222.65625 0)"/>
     </g>
    </g>
    <g id="line2d_52">
     <defs>
      <path id="m3d2fbd5fcc" d="M 0 6.084349 
C 1.613588 6.084349 3.161305 5.443264 4.302284 4.302284 
C 5.443264 3.161305 6.084349 1.613588 6.084349 0 
C 6.084349 -1.613588 5.443264 -3.161305 4.302284 -4.302284 
C 3.161305 -5.443264 1.613588 -6.084349 0 -6.084349 
C -1.613588 -6.084349 -3.161305 -5.443264 -4.302284 -4.302284 
C -5.443264 -3.161305 -6.084349 -1.613588 -6.084349 0 
C -6.084349 1.613588 -5.443264 3.161305 -4.302284 4.302284 
C -3.161305 5.443264 -1.613588 6.084349 0 6.084349 
z
" style="stroke: #ffffff; stroke-width: 0.381332"/>
     </defs>
     <g>
      <use xlink:href="#m3d2fbd5fcc" x="593.309062" y="196.875937" style="fill: #333333; stroke: #ffffff; stroke-width: 0.381332"/>
     </g>
    </g>
    <g id="text_42">
     <!-- 0.012 -->
     <g transform="translate(611.309062 200.375937) scale(0.1 -0.1)">
      <use xlink:href="#DejaVuSans-30"/>
      <use xlink:href="#DejaVuSans-2e" transform="translate(63.623047 0)"/>
      <use xlink:href="#DejaVuSans-30" transform="translate(95.410156 0)"/>
      <use xlink:href="#DejaVuSans-31" transform="translate(159.033203 0)"/>
      <use xlink:href="#DejaVuSans-32" transform="translate(222.65625 0)"/>
     </g>
    </g>
   </g>
  </g>
 </g>
 <defs>
  <clipPath id="p046352f200">
   <rect x="217.189063" y="22.318125" width="357.12" height="266.112"/>
  </clipPath>
 </defs>
</svg>
