<?xml version="1.0" encoding="utf-8" standalone="no"?>
<!DOCTYPE svg PUBLIC "-//W3C//DTD SVG 1.1//EN"
  "http://www.w3.org/Graphics/SVG/1.1/DTD/svg11.dtd">
<svg xmlns:xlink="http://www.w3.org/1999/xlink" width="711.365313pt" height="325.986375pt" viewBox="0 0 711.365313 325.986375" xmlns="http://www.w3.org/2000/svg" version="1.1">
 <metadata>
  <rdf:RDF xmlns:dc="http://purl.org/dc/elements/1.1/" xmlns:cc="http://creativecommons.org/ns#" xmlns:rdf="http://www.w3.org/1999/02/22-rdf-syntax-ns#">
   <cc:Work>
    <dc:type rdf:resource="http://purl.org/dc/dcmitype/StillImage"/>
    <dc:date>2025-12-15T18:07:24.042563</dc:date>
    <dc:format>image/svg+xml</dc:format>
    <dc:creator>
     <cc:Agent>
      <dc:title>Matplotlib v3.10.7, https://matplotlib.org/</dc:title>
     </cc:Agent>
    </dc:creator>
   </cc:Work>
  </rdf:RDF>
 </metadata>
 <defs>
  <style type="text/css">*{stroke-linejoin: round; stroke-linecap: butt}</style>
 </defs>
 <g id="figure_1">
  <g id="patch_1">
   <path d="M 0 325.986375 
L 711.365313 325.986375 
L 711.365313 0 
L 0 0 
z
" style="fill: #ffffff"/>
  </g>
  <g id="axes_1">
   <g id="patch_2">
    <path d="M 250.80625 288.430125 
L 607.92625 288.430125 
L 607.92625 22.318125 
L 250.80625 22.318125 
z
" style="fill: #ffffff"/>
   </g>
   <g id="PathCollection_1">
    <path d="M 591.693523 36.650193 
C 592.286535 36.650193 592.855339 36.414587 593.274662 35.995264 
C 593.693984 35.575941 593.929591 35.007137 593.929591 34.414125 
C 593.929591 33.821113 593.693984 33.252309 593.274662 32.832986 
C 592.855339 32.413663 592.286535 32.178057 591.693523 32.178057 
C 591.100511 32.178057 590.531707 32.413663 590.112384 32.832986 
C 589.693061 33.252309 589.457455 33.821113 589.457455 34.414125 
C 589.457455 35.007137 589.693061 35.575941 590.112384 35.995264 
C 590.531707 36.414587 591.100511 36.650193 591.693523 36.650193 
z
" clip-path="url(#pf11e4a24f8)" style="fill: #3c4ec2; stroke: #ffffff; stroke-width: 0.441499"/>
    <path d="M 513.715272 49.535589 
C 514.348798 49.535589 514.956462 49.283887 515.404432 48.835916 
C 515.852403 48.387946 516.104105 47.780282 516.104105 47.146757 
C 516.104105 46.513231 515.852403 45.905567 515.404432 45.457597 
C 514.956462 45.009626 514.348798 44.757924 513.715272 44.757924 
C 513.081747 44.757924 512.474083 45.009626 512.026113 45.457597 
C 511.578142 45.905567 511.32644 46.513231 511.32644 47.146757 
C 511.32644 47.780282 511.578142 48.387946 512.026113 48.835916 
C 512.474083 49.283887 513.081747 49.535589 513.715272 49.535589 
z
" clip-path="url(#pf11e4a24f8)" style="fill: #3b4cc0; stroke: #ffffff; stroke-width: 0.441499"/>
    <path d="M 409.331689 62.918982 
C 410.137798 62.918982 410.911 62.598711 411.481006 62.028706 
C 412.051012 61.4587 412.371282 60.685498 412.371282 59.879388 
C 412.371282 59.073278 412.051012 58.300076 411.481006 57.730071 
C 410.911 57.160065 410.137798 56.839794 409.331689 56.839794 
C 408.525579 56.839794 407.752377 57.160065 407.182371 57.730071 
C 406.612366 58.300076 406.292095 59.073278 406.292095 59.879388 
C 406.292095 60.685498 406.612366 61.4587 407.182371 62.028706 
C 407.752377 62.598711 408.525579 62.918982 409.331689 62.918982 
z
" clip-path="url(#pf11e4a24f8)" style="fill: #5673e0; stroke: #ffffff; stroke-width: 0.441499"/>
    <path d="M 383.109726 76.085522 
C 384.030909 76.085522 384.914487 75.719532 385.565863 75.068157 
C 386.217238 74.416782 386.583228 73.533203 386.583228 72.61202 
C 386.583228 71.690836 386.217238 70.807258 385.565863 70.155883 
C 384.914487 69.504508 384.030909 69.138518 383.109726 69.138518 
C 382.188542 69.138518 381.304964 69.504508 380.653589 70.155883 
C 380.002213 70.807258 379.636223 71.690836 379.636223 72.61202 
C 379.636223 73.533203 380.002213 74.416782 380.653589 75.068157 
C 381.304964 75.719532 382.188542 76.085522 383.109726 76.085522 
z
" clip-path="url(#pf11e4a24f8)" style="fill: #7699f6; stroke: #ffffff; stroke-width: 0.441499"/>
    <path d="M 383.109726 88.818153 
C 384.030909 88.818153 384.914487 88.452163 385.565863 87.800788 
C 386.217238 87.149413 386.583228 86.265835 386.583228 85.344651 
C 386.583228 84.423468 386.217238 83.53989 385.565863 82.888514 
C 384.914487 82.237139 384.030909 81.871149 383.109726 81.871149 
C 382.188542 81.871149 381.304964 82.237139 380.653589 82.888514 
C 380.002213 83.53989 379.636223 84.423468 379.636223 85.344651 
C 379.636223 86.265835 380.002213 87.149413 380.653589 87.800788 
C 381.304964 88.452163 382.188542 88.818153 383.109726 88.818153 
z
" clip-path="url(#pf11e4a24f8)" style="fill: #7699f6; stroke: #ffffff; stroke-width: 0.441499"/>
    <path d="M 378.279364 100.874797 
C 379.021273 100.874797 379.732896 100.580034 380.257505 100.055424 
C 380.782115 99.530815 381.076878 98.819192 381.076878 98.077283 
C 381.076878 97.335373 380.782115 96.623751 380.257505 96.099141 
C 379.732896 95.574532 379.021273 95.279768 378.279364 95.279768 
C 377.537454 95.279768 376.825832 95.574532 376.301223 96.099141 
C 375.776613 96.623751 375.48185 97.335373 375.48185 98.077283 
C 375.48185 98.819192 375.776613 99.530815 376.301223 100.055424 
C 376.825832 100.580034 377.537454 100.874797 378.279364 100.874797 
z
" clip-path="url(#pf11e4a24f8)" style="fill: #3d50c3; stroke: #ffffff; stroke-width: 0.441499"/>
    <path d="M 370.755147 114.180181 
C 371.648952 114.180181 372.506269 113.825068 373.138285 113.193053 
C 373.770301 112.561037 374.125413 111.70372 374.125413 110.809914 
C 374.125413 109.916109 373.770301 109.058792 373.138285 108.426776 
C 372.506269 107.794761 371.648952 107.439648 370.755147 107.439648 
C 369.861342 107.439648 369.004024 107.794761 368.372009 108.426776 
C 367.739993 109.058792 367.38488 109.916109 367.38488 110.809914 
C 367.38488 111.70372 367.739993 112.561037 368.372009 113.193053 
C 369.004024 113.825068 369.861342 114.180181 370.755147 114.180181 
z
" clip-path="url(#pf11e4a24f8)" style="fill: #688aef; stroke: #ffffff; stroke-width: 0.441499"/>
    <path d="M 370.755147 126.912812 
C 371.648952 126.912812 372.506269 126.5577 373.138285 125.925684 
C 373.770301 125.293669 374.125413 124.436351 374.125413 123.542546 
C 374.125413 122.648741 373.770301 121.791423 373.138285 121.159408 
C 372.506269 120.527392 371.648952 120.17228 370.755147 120.17228 
C 369.861342 120.17228 369.004024 120.527392 368.372009 121.159408 
C 367.739993 121.791423 367.38488 122.648741 367.38488 123.542546 
C 367.38488 124.436351 367.739993 125.293669 368.372009 125.925684 
C 369.004024 126.5577 369.861342 126.912812 370.755147 126.912812 
z
" clip-path="url(#pf11e4a24f8)" style="fill: #688aef; stroke: #ffffff; stroke-width: 0.441499"/>
    <path d="M 370.755147 139.645444 
C 371.648952 139.645444 372.506269 139.290332 373.138285 138.658316 
C 373.770301 138.0263 374.125413 137.168983 374.125413 136.275178 
C 374.125413 135.381373 373.770301 134.524055 373.138285 133.892039 
C 372.506269 133.260024 371.648952 132.904911 370.755147 132.904911 
C 369.861342 132.904911 369.004024 133.260024 368.372009 133.892039 
C 367.739993 134.524055 367.38488 135.381373 367.38488 136.275178 
C 367.38488 137.168983 367.739993 138.0263 368.372009 138.658316 
C 369.004024 139.290332 369.861342 139.645444 370.755147 139.645444 
z
" clip-path="url(#pf11e4a24f8)" style="fill: #688aef; stroke: #ffffff; stroke-width: 0.441499"/>
    <path d="M 350.332272 152.481311 
C 351.253455 152.481311 352.137034 152.115321 352.788409 151.463946 
C 353.439784 150.812571 353.805774 149.928993 353.805774 149.007809 
C 353.805774 148.086626 353.439784 147.203047 352.788409 146.551672 
C 352.137034 145.900297 351.253455 145.534307 350.332272 145.534307 
C 349.411088 145.534307 348.52751 145.900297 347.876135 146.551672 
C 347.22476 147.203047 346.85877 148.086626 346.85877 149.007809 
C 346.85877 149.928993 347.22476 150.812571 347.876135 151.463946 
C 348.52751 152.115321 349.411088 152.481311 350.332272 152.481311 
z
" clip-path="url(#pf11e4a24f8)" style="fill: #6a8bef; stroke: #ffffff; stroke-width: 0.441499"/>
    <path d="M 335.981062 165.778305 
C 337.051916 165.778305 338.079055 165.35285 338.836263 164.595642 
C 339.593472 163.838434 340.018926 162.811295 340.018926 161.740441 
C 340.018926 160.669587 339.593472 159.642448 338.836263 158.88524 
C 338.079055 158.128031 337.051916 157.702577 335.981062 157.702577 
C 334.910208 157.702577 333.883069 158.128031 333.125861 158.88524 
C 332.368653 159.642448 331.943198 160.669587 331.943198 161.740441 
C 331.943198 162.811295 332.368653 163.838434 333.125861 164.595642 
C 333.883069 165.35285 334.910208 165.778305 335.981062 165.778305 
z
" clip-path="url(#pf11e4a24f8)" style="fill: #9ebeff; stroke: #ffffff; stroke-width: 0.441499"/>
    <path d="M 332.632447 178.046829 
C 333.580218 178.046829 334.489299 177.670276 335.159474 177.0001 
C 335.82965 176.329925 336.206204 175.420844 336.206204 174.473072 
C 336.206204 173.525301 335.82965 172.61622 335.159474 171.946045 
C 334.489299 171.275869 333.580218 170.899315 332.632447 170.899315 
C 331.684675 170.899315 330.775594 171.275869 330.105419 171.946045 
C 329.435243 172.61622 329.05869 173.525301 329.05869 174.473072 
C 329.05869 175.420844 329.435243 176.329925 330.105419 177.0001 
C 330.775594 177.670276 331.684675 178.046829 332.632447 178.046829 
z
" clip-path="url(#pf11e4a24f8)" style="fill: #6c8ff1; stroke: #ffffff; stroke-width: 0.441499"/>
    <path d="M 325.749181 191.155112 
C 326.796577 191.155112 327.801214 190.738978 328.541835 189.998357 
C 329.282455 189.257737 329.69859 188.253099 329.69859 187.205704 
C 329.69859 186.158309 329.282455 185.153671 328.541835 184.413051 
C 327.801214 183.67243 326.796577 183.256296 325.749181 183.256296 
C 324.701786 183.256296 323.697148 183.67243 322.956528 184.413051 
C 322.215908 185.153671 321.799773 186.158309 321.799773 187.205704 
C 321.799773 188.253099 322.215908 189.257737 322.956528 189.998357 
C 323.697148 190.738978 324.701786 191.155112 325.749181 191.155112 
z
" clip-path="url(#pf11e4a24f8)" style="fill: #8fb1fe; stroke: #ffffff; stroke-width: 0.441499"/>
    <path d="M 306.082709 203.308602 
C 306.976514 203.308602 307.833832 202.953489 308.465847 202.321474 
C 309.097863 201.689458 309.452975 200.832141 309.452975 199.938336 
C 309.452975 199.04453 309.097863 198.187213 308.465847 197.555197 
C 307.833832 196.923182 306.976514 196.568069 306.082709 196.568069 
C 305.188904 196.568069 304.331586 196.923182 303.699571 197.555197 
C 303.067555 198.187213 302.712443 199.04453 302.712443 199.938336 
C 302.712443 200.832141 303.067555 201.689458 303.699571 202.321474 
C 304.331586 202.953489 305.188904 203.308602 306.082709 203.308602 
z
" clip-path="url(#pf11e4a24f8)" style="fill: #536edd; stroke: #ffffff; stroke-width: 0.441499"/>
    <path d="M 304.655304 216.244724 
C 305.603075 216.244724 306.512156 215.868171 307.182332 215.197995 
C 307.852507 214.527819 308.229061 213.618739 308.229061 212.670967 
C 308.229061 211.723196 307.852507 210.814115 307.182332 210.143939 
C 306.512156 209.473764 305.603075 209.09721 304.655304 209.09721 
C 303.707532 209.09721 302.798452 209.473764 302.128276 210.143939 
C 301.4581 210.814115 301.081547 211.723196 301.081547 212.670967 
C 301.081547 213.618739 301.4581 214.527819 302.128276 215.197995 
C 302.798452 215.868171 303.707532 216.244724 304.655304 216.244724 
z
" clip-path="url(#pf11e4a24f8)" style="fill: #6282ea; stroke: #ffffff; stroke-width: 0.441499"/>
    <path d="M 302.494907 231.170822 
C 304.024392 231.170822 305.49144 230.563151 306.57295 229.481642 
C 307.654459 228.400132 308.26213 226.933084 308.26213 225.403599 
C 308.26213 223.874113 307.654459 222.407065 306.57295 221.325556 
C 305.49144 220.244046 304.024392 219.636375 302.494907 219.636375 
C 300.965421 219.636375 299.498373 220.244046 298.416864 221.325556 
C 297.335354 222.407065 296.727683 223.874113 296.727683 225.403599 
C 296.727683 226.933084 297.335354 228.400132 298.416864 229.481642 
C 299.498373 230.563151 300.965421 231.170822 302.494907 231.170822 
z
" clip-path="url(#pf11e4a24f8)" style="fill: #e36b54; stroke: #ffffff; stroke-width: 0.441499"/>
    <path d="M 301.284564 244.259955 
C 302.908594 244.259955 304.466328 243.61472 305.614691 242.466357 
C 306.763054 241.317994 307.408288 239.760261 307.408288 238.13623 
C 307.408288 236.5122 306.763054 234.954466 305.614691 233.806103 
C 304.466328 232.65774 302.908594 232.012506 301.284564 232.012506 
C 299.660533 232.012506 298.1028 232.65774 296.954437 233.806103 
C 295.806074 234.954466 295.160839 236.5122 295.160839 238.13623 
C 295.160839 239.760261 295.806074 241.317994 296.954437 242.466357 
C 298.1028 243.61472 299.660533 244.259955 301.284564 244.259955 
z
" clip-path="url(#pf11e4a24f8)" style="fill: #b40426; stroke: #ffffff; stroke-width: 0.441499"/>
    <path d="M 299.761343 255.478634 
C 300.983869 255.478634 302.156488 254.992919 303.020944 254.128463 
C 303.8854 253.264007 304.371115 252.091388 304.371115 250.868862 
C 304.371115 249.646336 303.8854 248.473717 303.020944 247.609261 
C 302.156488 246.744804 300.983869 246.25909 299.761343 246.25909 
C 298.538817 246.25909 297.366198 246.744804 296.501742 247.609261 
C 295.637285 248.473717 295.151571 249.646336 295.151571 250.868862 
C 295.151571 252.091388 295.637285 253.264007 296.501742 254.128463 
C 297.366198 254.992919 298.538817 255.478634 299.761343 255.478634 
z
" clip-path="url(#pf11e4a24f8)" style="fill: #c6d6f1; stroke: #ffffff; stroke-width: 0.441499"/>
    <path d="M 269.008751 267.460419 
C 270.03215 267.460419 271.013771 267.053818 271.737423 266.330166 
C 272.461076 265.606513 272.867676 264.624892 272.867676 263.601493 
C 272.867676 262.578094 272.461076 261.596474 271.737423 260.872821 
C 271.013771 260.149169 270.03215 259.742568 269.008751 259.742568 
C 267.985352 259.742568 267.003731 260.149169 266.280079 260.872821 
C 265.556427 261.596474 265.149826 262.578094 265.149826 263.601493 
C 265.149826 264.624892 265.556427 265.606513 266.280079 266.330166 
C 267.003731 267.053818 267.985352 267.460419 269.008751 267.460419 
z
" clip-path="url(#pf11e4a24f8)" style="fill: #6c8ff1; stroke: #ffffff; stroke-width: 0.441499"/>
    <path d="M 267.038977 280.0054 
C 268.012611 280.0054 268.946498 279.618571 269.634961 278.930109 
C 270.323424 278.241646 270.710252 277.307759 270.710252 276.334125 
C 270.710252 275.360491 270.323424 274.426604 269.634961 273.738141 
C 268.946498 273.049679 268.012611 272.66285 267.038977 272.66285 
C 266.065344 272.66285 265.131457 273.049679 264.442994 273.738141 
C 263.754531 274.426604 263.367702 275.360491 263.367702 276.334125 
C 263.367702 277.307759 263.754531 278.241646 264.442994 278.930109 
C 265.131457 279.618571 266.065344 280.0054 267.038977 280.0054 
z
" clip-path="url(#pf11e4a24f8)" style="fill: #5d7ce6; stroke: #ffffff; stroke-width: 0.441499"/>
   </g>
   <g id="matplotlib.axis_1">
    <g id="xtick_1">
     <g id="line2d_1">
      <defs>
       <path id="m5c13147c3f" d="M 0 0 
L 0 3.5 
" style="stroke: #000000; stroke-width: 0.8"/>
      </defs>
      <g>
       <use xlink:href="#m5c13147c3f" x="283.05128" y="288.430125" style="stroke: #000000; stroke-width: 0.8"/>
      </g>
     </g>
     <g id="text_1">
      <!-- 3.0 -->
      <g transform="translate(275.099718 303.028562) scale(0.1 -0.1)">
       <defs>
        <path id="DejaVuSans-33" d="M 2597 2516 
Q 3050 2419 3304 2112 
Q 3559 1806 3559 1356 
Q 3559 666 3084 287 
Q 2609 -91 1734 -91 
Q 1441 -91 1130 -33 
Q 819 25 488 141 
L 488 750 
Q 750 597 1062 519 
Q 1375 441 1716 441 
Q 2309 441 2620 675 
Q 2931 909 2931 1356 
Q 2931 1769 2642 2001 
Q 2353 2234 1838 2234 
L 1294 2234 
L 1294 2753 
L 1863 2753 
Q 2328 2753 2575 2939 
Q 2822 3125 2822 3475 
Q 2822 3834 2567 4026 
Q 2313 4219 1838 4219 
Q 1578 4219 1281 4162 
Q 984 4106 628 3988 
L 628 4550 
Q 988 4650 1302 4700 
Q 1616 4750 1894 4750 
Q 2613 4750 3031 4423 
Q 3450 4097 3450 3541 
Q 3450 3153 3228 2886 
Q 3006 2619 2597 2516 
z
" transform="scale(0.015625)"/>
        <path id="DejaVuSans-2e" d="M 684 794 
L 1344 794 
L 1344 0 
L 684 0 
L 684 794 
z
" transform="scale(0.015625)"/>
        <path id="DejaVuSans-30" d="M 2034 4250 
Q 1547 4250 1301 3770 
Q 1056 3291 1056 2328 
Q 1056 1369 1301 889 
Q 1547 409 2034 409 
Q 2525 409 2770 889 
Q 3016 1369 3016 2328 
Q 3016 3291 2770 3770 
Q 2525 4250 2034 4250 
z
M 2034 4750 
Q 2819 4750 3233 4129 
Q 3647 3509 3647 2328 
Q 3647 1150 3233 529 
Q 2819 -91 2034 -91 
Q 1250 -91 836 529 
Q 422 1150 422 2328 
Q 422 3509 836 4129 
Q 1250 4750 2034 4750 
z
" transform="scale(0.015625)"/>
       </defs>
       <use xlink:href="#DejaVuSans-33"/>
       <use xlink:href="#DejaVuSans-2e" transform="translate(63.623047 0)"/>
       <use xlink:href="#DejaVuSans-30" transform="translate(95.410156 0)"/>
      </g>
     </g>
    </g>
    <g id="xtick_2">
     <g id="line2d_2">
      <g>
       <use xlink:href="#m5c13147c3f" x="337.565298" y="288.430125" style="stroke: #000000; stroke-width: 0.8"/>
      </g>
     </g>
     <g id="text_2">
      <!-- 3.2 -->
      <g transform="translate(329.613735 303.028562) scale(0.1 -0.1)">
       <defs>
        <path id="DejaVuSans-32" d="M 1228 531 
L 3431 531 
L 3431 0 
L 469 0 
L 469 531 
Q 828 903 1448 1529 
Q 2069 2156 2228 2338 
Q 2531 2678 2651 2914 
Q 2772 3150 2772 3378 
Q 2772 3750 2511 3984 
Q 2250 4219 1831 4219 
Q 1534 4219 1204 4116 
Q 875 4013 500 3803 
L 500 4441 
Q 881 4594 1212 4672 
Q 1544 4750 1819 4750 
Q 2544 4750 2975 4387 
Q 3406 4025 3406 3419 
Q 3406 3131 3298 2873 
Q 3191 2616 2906 2266 
Q 2828 2175 2409 1742 
Q 1991 1309 1228 531 
z
" transform="scale(0.015625)"/>
       </defs>
       <use xlink:href="#DejaVuSans-33"/>
       <use xlink:href="#DejaVuSans-2e" transform="translate(63.623047 0)"/>
       <use xlink:href="#DejaVuSans-32" transform="translate(95.410156 0)"/>
      </g>
     </g>
    </g>
    <g id="xtick_3">
     <g id="line2d_3">
      <g>
       <use xlink:href="#m5c13147c3f" x="392.079315" y="288.430125" style="stroke: #000000; stroke-width: 0.8"/>
      </g>
     </g>
     <g id="text_3">
      <!-- 3.4 -->
      <g transform="translate(384.127752 303.028562) scale(0.1 -0.1)">
       <defs>
        <path id="DejaVuSans-34" d="M 2419 4116 
L 825 1625 
L 2419 1625 
L 2419 4116 
z
M 2253 4666 
L 3047 4666 
L 3047 1625 
L 3713 1625 
L 3713 1100 
L 3047 1100 
L 3047 0 
L 2419 0 
L 2419 1100 
L 313 1100 
L 313 1709 
L 2253 4666 
z
" transform="scale(0.015625)"/>
       </defs>
       <use xlink:href="#DejaVuSans-33"/>
       <use xlink:href="#DejaVuSans-2e" transform="translate(63.623047 0)"/>
       <use xlink:href="#DejaVuSans-34" transform="translate(95.410156 0)"/>
      </g>
     </g>
    </g>
    <g id="xtick_4">
     <g id="line2d_4">
      <g>
       <use xlink:href="#m5c13147c3f" x="446.593332" y="288.430125" style="stroke: #000000; stroke-width: 0.8"/>
      </g>
     </g>
     <g id="text_4">
      <!-- 3.6 -->
      <g transform="translate(438.64177 303.028562) scale(0.1 -0.1)">
       <defs>
        <path id="DejaVuSans-36" d="M 2113 2584 
Q 1688 2584 1439 2293 
Q 1191 2003 1191 1497 
Q 1191 994 1439 701 
Q 1688 409 2113 409 
Q 2538 409 2786 701 
Q 3034 994 3034 1497 
Q 3034 2003 2786 2293 
Q 2538 2584 2113 2584 
z
M 3366 4563 
L 3366 3988 
Q 3128 4100 2886 4159 
Q 2644 4219 2406 4219 
Q 1781 4219 1451 3797 
Q 1122 3375 1075 2522 
Q 1259 2794 1537 2939 
Q 1816 3084 2150 3084 
Q 2853 3084 3261 2657 
Q 3669 2231 3669 1497 
Q 3669 778 3244 343 
Q 2819 -91 2113 -91 
Q 1303 -91 875 529 
Q 447 1150 447 2328 
Q 447 3434 972 4092 
Q 1497 4750 2381 4750 
Q 2619 4750 2861 4703 
Q 3103 4656 3366 4563 
z
" transform="scale(0.015625)"/>
       </defs>
       <use xlink:href="#DejaVuSans-33"/>
       <use xlink:href="#DejaVuSans-2e" transform="translate(63.623047 0)"/>
       <use xlink:href="#DejaVuSans-36" transform="translate(95.410156 0)"/>
      </g>
     </g>
    </g>
    <g id="xtick_5">
     <g id="line2d_5">
      <g>
       <use xlink:href="#m5c13147c3f" x="501.10735" y="288.430125" style="stroke: #000000; stroke-width: 0.8"/>
      </g>
     </g>
     <g id="text_5">
      <!-- 3.8 -->
      <g transform="translate(493.155787 303.028562) scale(0.1 -0.1)">
       <defs>
        <path id="DejaVuSans-38" d="M 2034 2216 
Q 1584 2216 1326 1975 
Q 1069 1734 1069 1313 
Q 1069 891 1326 650 
Q 1584 409 2034 409 
Q 2484 409 2743 651 
Q 3003 894 3003 1313 
Q 3003 1734 2745 1975 
Q 2488 2216 2034 2216 
z
M 1403 2484 
Q 997 2584 770 2862 
Q 544 3141 544 3541 
Q 544 4100 942 4425 
Q 1341 4750 2034 4750 
Q 2731 4750 3128 4425 
Q 3525 4100 3525 3541 
Q 3525 3141 3298 2862 
Q 3072 2584 2669 2484 
Q 3125 2378 3379 2068 
Q 3634 1759 3634 1313 
Q 3634 634 3220 271 
Q 2806 -91 2034 -91 
Q 1263 -91 848 271 
Q 434 634 434 1313 
Q 434 1759 690 2068 
Q 947 2378 1403 2484 
z
M 1172 3481 
Q 1172 3119 1398 2916 
Q 1625 2713 2034 2713 
Q 2441 2713 2670 2916 
Q 2900 3119 2900 3481 
Q 2900 3844 2670 4047 
Q 2441 4250 2034 4250 
Q 1625 4250 1398 4047 
Q 1172 3844 1172 3481 
z
" transform="scale(0.015625)"/>
       </defs>
       <use xlink:href="#DejaVuSans-33"/>
       <use xlink:href="#DejaVuSans-2e" transform="translate(63.623047 0)"/>
       <use xlink:href="#DejaVuSans-38" transform="translate(95.410156 0)"/>
      </g>
     </g>
    </g>
    <g id="xtick_6">
     <g id="line2d_6">
      <g>
       <use xlink:href="#m5c13147c3f" x="555.621367" y="288.430125" style="stroke: #000000; stroke-width: 0.8"/>
      </g>
     </g>
     <g id="text_6">
      <!-- 4.0 -->
      <g transform="translate(547.669805 303.028562) scale(0.1 -0.1)">
       <use xlink:href="#DejaVuSans-34"/>
       <use xlink:href="#DejaVuSans-2e" transform="translate(63.623047 0)"/>
       <use xlink:href="#DejaVuSans-30" transform="translate(95.410156 0)"/>
      </g>
     </g>
    </g>
    <g id="text_7">
     <!-- Fold Enrichment -->
     <g transform="translate(388.693594 316.706687) scale(0.1 -0.1)">
      <defs>
       <path id="DejaVuSans-46" d="M 628 4666 
L 3309 4666 
L 3309 4134 
L 1259 4134 
L 1259 2759 
L 3109 2759 
L 3109 2228 
L 1259 2228 
L 1259 0 
L 628 0 
L 628 4666 
z
" transform="scale(0.015625)"/>
       <path id="DejaVuSans-6f" d="M 1959 3097 
Q 1497 3097 1228 2736 
Q 959 2375 959 1747 
Q 959 1119 1226 758 
Q 1494 397 1959 397 
Q 2419 397 2687 759 
Q 2956 1122 2956 1747 
Q 2956 2369 2687 2733 
Q 2419 3097 1959 3097 
z
M 1959 3584 
Q 2709 3584 3137 3096 
Q 3566 2609 3566 1747 
Q 3566 888 3137 398 
Q 2709 -91 1959 -91 
Q 1206 -91 779 398 
Q 353 888 353 1747 
Q 353 2609 779 3096 
Q 1206 3584 1959 3584 
z
" transform="scale(0.015625)"/>
       <path id="DejaVuSans-6c" d="M 603 4863 
L 1178 4863 
L 1178 0 
L 603 0 
L 603 4863 
z
" transform="scale(0.015625)"/>
       <path id="DejaVuSans-64" d="M 2906 2969 
L 2906 4863 
L 3481 4863 
L 3481 0 
L 2906 0 
L 2906 525 
Q 2725 213 2448 61 
Q 2172 -91 1784 -91 
Q 1150 -91 751 415 
Q 353 922 353 1747 
Q 353 2572 751 3078 
Q 1150 3584 1784 3584 
Q 2172 3584 2448 3432 
Q 2725 3281 2906 2969 
z
M 947 1747 
Q 947 1113 1208 752 
Q 1469 391 1925 391 
Q 2381 391 2643 752 
Q 2906 1113 2906 1747 
Q 2906 2381 2643 2742 
Q 2381 3103 1925 3103 
Q 1469 3103 1208 2742 
Q 947 2381 947 1747 
z
" transform="scale(0.015625)"/>
       <path id="DejaVuSans-20" transform="scale(0.015625)"/>
       <path id="DejaVuSans-45" d="M 628 4666 
L 3578 4666 
L 3578 4134 
L 1259 4134 
L 1259 2753 
L 3481 2753 
L 3481 2222 
L 1259 2222 
L 1259 531 
L 3634 531 
L 3634 0 
L 628 0 
L 628 4666 
z
" transform="scale(0.015625)"/>
       <path id="DejaVuSans-6e" d="M 3513 2113 
L 3513 0 
L 2938 0 
L 2938 2094 
Q 2938 2591 2744 2837 
Q 2550 3084 2163 3084 
Q 1697 3084 1428 2787 
Q 1159 2491 1159 1978 
L 1159 0 
L 581 0 
L 581 3500 
L 1159 3500 
L 1159 2956 
Q 1366 3272 1645 3428 
Q 1925 3584 2291 3584 
Q 2894 3584 3203 3211 
Q 3513 2838 3513 2113 
z
" transform="scale(0.015625)"/>
       <path id="DejaVuSans-72" d="M 2631 2963 
Q 2534 3019 2420 3045 
Q 2306 3072 2169 3072 
Q 1681 3072 1420 2755 
Q 1159 2438 1159 1844 
L 1159 0 
L 581 0 
L 581 3500 
L 1159 3500 
L 1159 2956 
Q 1341 3275 1631 3429 
Q 1922 3584 2338 3584 
Q 2397 3584 2469 3576 
Q 2541 3569 2628 3553 
L 2631 2963 
z
" transform="scale(0.015625)"/>
       <path id="DejaVuSans-69" d="M 603 3500 
L 1178 3500 
L 1178 0 
L 603 0 
L 603 3500 
z
M 603 4863 
L 1178 4863 
L 1178 4134 
L 603 4134 
L 603 4863 
z
" transform="scale(0.015625)"/>
       <path id="DejaVuSans-63" d="M 3122 3366 
L 3122 2828 
Q 2878 2963 2633 3030 
Q 2388 3097 2138 3097 
Q 1578 3097 1268 2742 
Q 959 2388 959 1747 
Q 959 1106 1268 751 
Q 1578 397 2138 397 
Q 2388 397 2633 464 
Q 2878 531 3122 666 
L 3122 134 
Q 2881 22 2623 -34 
Q 2366 -91 2075 -91 
Q 1284 -91 818 406 
Q 353 903 353 1747 
Q 353 2603 823 3093 
Q 1294 3584 2113 3584 
Q 2378 3584 2631 3529 
Q 2884 3475 3122 3366 
z
" transform="scale(0.015625)"/>
       <path id="DejaVuSans-68" d="M 3513 2113 
L 3513 0 
L 2938 0 
L 2938 2094 
Q 2938 2591 2744 2837 
Q 2550 3084 2163 3084 
Q 1697 3084 1428 2787 
Q 1159 2491 1159 1978 
L 1159 0 
L 581 0 
L 581 4863 
L 1159 4863 
L 1159 2956 
Q 1366 3272 1645 3428 
Q 1925 3584 2291 3584 
Q 2894 3584 3203 3211 
Q 3513 2838 3513 2113 
z
" transform="scale(0.015625)"/>
       <path id="DejaVuSans-6d" d="M 3328 2828 
Q 3544 3216 3844 3400 
Q 4144 3584 4550 3584 
Q 5097 3584 5394 3201 
Q 5691 2819 5691 2113 
L 5691 0 
L 5113 0 
L 5113 2094 
Q 5113 2597 4934 2840 
Q 4756 3084 4391 3084 
Q 3944 3084 3684 2787 
Q 3425 2491 3425 1978 
L 3425 0 
L 2847 0 
L 2847 2094 
Q 2847 2600 2669 2842 
Q 2491 3084 2119 3084 
Q 1678 3084 1418 2786 
Q 1159 2488 1159 1978 
L 1159 0 
L 581 0 
L 581 3500 
L 1159 3500 
L 1159 2956 
Q 1356 3278 1631 3431 
Q 1906 3584 2284 3584 
Q 2666 3584 2933 3390 
Q 3200 3197 3328 2828 
z
" transform="scale(0.015625)"/>
       <path id="DejaVuSans-65" d="M 3597 1894 
L 3597 1613 
L 953 1613 
Q 991 1019 1311 708 
Q 1631 397 2203 397 
Q 2534 397 2845 478 
Q 3156 559 3463 722 
L 3463 178 
Q 3153 47 2828 -22 
Q 2503 -91 2169 -91 
Q 1331 -91 842 396 
Q 353 884 353 1716 
Q 353 2575 817 3079 
Q 1281 3584 2069 3584 
Q 2775 3584 3186 3129 
Q 3597 2675 3597 1894 
z
M 3022 2063 
Q 3016 2534 2758 2815 
Q 2500 3097 2075 3097 
Q 1594 3097 1305 2825 
Q 1016 2553 972 2059 
L 3022 2063 
z
" transform="scale(0.015625)"/>
       <path id="DejaVuSans-74" d="M 1172 4494 
L 1172 3500 
L 2356 3500 
L 2356 3053 
L 1172 3053 
L 1172 1153 
Q 1172 725 1289 603 
Q 1406 481 1766 481 
L 2356 481 
L 2356 0 
L 1766 0 
Q 1100 0 847 248 
Q 594 497 594 1153 
L 594 3053 
L 172 3053 
L 172 3500 
L 594 3500 
L 594 4494 
L 1172 4494 
z
" transform="scale(0.015625)"/>
      </defs>
      <use xlink:href="#DejaVuSans-46"/>
      <use xlink:href="#DejaVuSans-6f" transform="translate(53.894531 0)"/>
      <use xlink:href="#DejaVuSans-6c" transform="translate(115.076172 0)"/>
      <use xlink:href="#DejaVuSans-64" transform="translate(142.859375 0)"/>
      <use xlink:href="#DejaVuSans-20" transform="translate(206.335938 0)"/>
      <use xlink:href="#DejaVuSans-45" transform="translate(238.123047 0)"/>
      <use xlink:href="#DejaVuSans-6e" transform="translate(301.306641 0)"/>
      <use xlink:href="#DejaVuSans-72" transform="translate(364.685547 0)"/>
      <use xlink:href="#DejaVuSans-69" transform="translate(405.798828 0)"/>
      <use xlink:href="#DejaVuSans-63" transform="translate(433.582031 0)"/>
      <use xlink:href="#DejaVuSans-68" transform="translate(488.5625 0)"/>
      <use xlink:href="#DejaVuSans-6d" transform="translate(551.941406 0)"/>
      <use xlink:href="#DejaVuSans-65" transform="translate(649.353516 0)"/>
      <use xlink:href="#DejaVuSans-6e" transform="translate(710.876953 0)"/>
      <use xlink:href="#DejaVuSans-74" transform="translate(774.255859 0)"/>
     </g>
    </g>
   </g>
   <g id="matplotlib.axis_2">
    <g id="ytick_1">
     <g id="line2d_7">
      <defs>
       <path id="mb3796f2fbd" d="M 0 0 
L -3.5 0 
" style="stroke: #000000; stroke-width: 0.8"/>
      </defs>
      <g>
       <use xlink:href="#mb3796f2fbd" x="250.80625" y="34.414125" style="stroke: #000000; stroke-width: 0.8"/>
      </g>
     </g>
     <g id="text_8">
      <!-- Neonatal seizure -->
      <g transform="translate(159.817187 38.213344) scale(0.1 -0.1)">
       <defs>
        <path id="DejaVuSans-4e" d="M 628 4666 
L 1478 4666 
L 3547 763 
L 3547 4666 
L 4159 4666 
L 4159 0 
L 3309 0 
L 1241 3903 
L 1241 0 
L 628 0 
L 628 4666 
z
" transform="scale(0.015625)"/>
        <path id="DejaVuSans-61" d="M 2194 1759 
Q 1497 1759 1228 1600 
Q 959 1441 959 1056 
Q 959 750 1161 570 
Q 1363 391 1709 391 
Q 2188 391 2477 730 
Q 2766 1069 2766 1631 
L 2766 1759 
L 2194 1759 
z
M 3341 1997 
L 3341 0 
L 2766 0 
L 2766 531 
Q 2569 213 2275 61 
Q 1981 -91 1556 -91 
Q 1019 -91 701 211 
Q 384 513 384 1019 
Q 384 1609 779 1909 
Q 1175 2209 1959 2209 
L 2766 2209 
L 2766 2266 
Q 2766 2663 2505 2880 
Q 2244 3097 1772 3097 
Q 1472 3097 1187 3025 
Q 903 2953 641 2809 
L 641 3341 
Q 956 3463 1253 3523 
Q 1550 3584 1831 3584 
Q 2591 3584 2966 3190 
Q 3341 2797 3341 1997 
z
" transform="scale(0.015625)"/>
        <path id="DejaVuSans-73" d="M 2834 3397 
L 2834 2853 
Q 2591 2978 2328 3040 
Q 2066 3103 1784 3103 
Q 1356 3103 1142 2972 
Q 928 2841 928 2578 
Q 928 2378 1081 2264 
Q 1234 2150 1697 2047 
L 1894 2003 
Q 2506 1872 2764 1633 
Q 3022 1394 3022 966 
Q 3022 478 2636 193 
Q 2250 -91 1575 -91 
Q 1294 -91 989 -36 
Q 684 19 347 128 
L 347 722 
Q 666 556 975 473 
Q 1284 391 1588 391 
Q 1994 391 2212 530 
Q 2431 669 2431 922 
Q 2431 1156 2273 1281 
Q 2116 1406 1581 1522 
L 1381 1569 
Q 847 1681 609 1914 
Q 372 2147 372 2553 
Q 372 3047 722 3315 
Q 1072 3584 1716 3584 
Q 2034 3584 2315 3537 
Q 2597 3491 2834 3397 
z
" transform="scale(0.015625)"/>
        <path id="DejaVuSans-7a" d="M 353 3500 
L 3084 3500 
L 3084 2975 
L 922 459 
L 3084 459 
L 3084 0 
L 275 0 
L 275 525 
L 2438 3041 
L 353 3041 
L 353 3500 
z
" transform="scale(0.015625)"/>
        <path id="DejaVuSans-75" d="M 544 1381 
L 544 3500 
L 1119 3500 
L 1119 1403 
Q 1119 906 1312 657 
Q 1506 409 1894 409 
Q 2359 409 2629 706 
Q 2900 1003 2900 1516 
L 2900 3500 
L 3475 3500 
L 3475 0 
L 2900 0 
L 2900 538 
Q 2691 219 2414 64 
Q 2138 -91 1772 -91 
Q 1169 -91 856 284 
Q 544 659 544 1381 
z
M 1991 3584 
L 1991 3584 
z
" transform="scale(0.015625)"/>
       </defs>
       <use xlink:href="#DejaVuSans-4e"/>
       <use xlink:href="#DejaVuSans-65" transform="translate(74.804688 0)"/>
       <use xlink:href="#DejaVuSans-6f" transform="translate(136.328125 0)"/>
       <use xlink:href="#DejaVuSans-6e" transform="translate(197.509766 0)"/>
       <use xlink:href="#DejaVuSans-61" transform="translate(260.888672 0)"/>
       <use xlink:href="#DejaVuSans-74" transform="translate(322.167969 0)"/>
       <use xlink:href="#DejaVuSans-61" transform="translate(361.376953 0)"/>
       <use xlink:href="#DejaVuSans-6c" transform="translate(422.65625 0)"/>
       <use xlink:href="#DejaVuSans-20" transform="translate(450.439453 0)"/>
       <use xlink:href="#DejaVuSans-73" transform="translate(482.226562 0)"/>
       <use xlink:href="#DejaVuSans-65" transform="translate(534.326172 0)"/>
       <use xlink:href="#DejaVuSans-69" transform="translate(595.849609 0)"/>
       <use xlink:href="#DejaVuSans-7a" transform="translate(623.632812 0)"/>
       <use xlink:href="#DejaVuSans-75" transform="translate(676.123047 0)"/>
       <use xlink:href="#DejaVuSans-72" transform="translate(739.501953 0)"/>
       <use xlink:href="#DejaVuSans-65" transform="translate(778.365234 0)"/>
      </g>
     </g>
    </g>
    <g id="ytick_2">
     <g id="line2d_8">
      <g>
       <use xlink:href="#mb3796f2fbd" x="250.80625" y="47.146757" style="stroke: #000000; stroke-width: 0.8"/>
      </g>
     </g>
     <g id="text_9">
      <!-- Abnormally low-pitched voice -->
      <g transform="translate(95.990625 50.945975) scale(0.1 -0.1)">
       <defs>
        <path id="DejaVuSans-41" d="M 2188 4044 
L 1331 1722 
L 3047 1722 
L 2188 4044 
z
M 1831 4666 
L 2547 4666 
L 4325 0 
L 3669 0 
L 3244 1197 
L 1141 1197 
L 716 0 
L 50 0 
L 1831 4666 
z
" transform="scale(0.015625)"/>
        <path id="DejaVuSans-62" d="M 3116 1747 
Q 3116 2381 2855 2742 
Q 2594 3103 2138 3103 
Q 1681 3103 1420 2742 
Q 1159 2381 1159 1747 
Q 1159 1113 1420 752 
Q 1681 391 2138 391 
Q 2594 391 2855 752 
Q 3116 1113 3116 1747 
z
M 1159 2969 
Q 1341 3281 1617 3432 
Q 1894 3584 2278 3584 
Q 2916 3584 3314 3078 
Q 3713 2572 3713 1747 
Q 3713 922 3314 415 
Q 2916 -91 2278 -91 
Q 1894 -91 1617 61 
Q 1341 213 1159 525 
L 1159 0 
L 581 0 
L 581 4863 
L 1159 4863 
L 1159 2969 
z
" transform="scale(0.015625)"/>
        <path id="DejaVuSans-79" d="M 2059 -325 
Q 1816 -950 1584 -1140 
Q 1353 -1331 966 -1331 
L 506 -1331 
L 506 -850 
L 844 -850 
Q 1081 -850 1212 -737 
Q 1344 -625 1503 -206 
L 1606 56 
L 191 3500 
L 800 3500 
L 1894 763 
L 2988 3500 
L 3597 3500 
L 2059 -325 
z
" transform="scale(0.015625)"/>
        <path id="DejaVuSans-77" d="M 269 3500 
L 844 3500 
L 1563 769 
L 2278 3500 
L 2956 3500 
L 3675 769 
L 4391 3500 
L 4966 3500 
L 4050 0 
L 3372 0 
L 2619 2869 
L 1863 0 
L 1184 0 
L 269 3500 
z
" transform="scale(0.015625)"/>
        <path id="DejaVuSans-2d" d="M 313 2009 
L 1997 2009 
L 1997 1497 
L 313 1497 
L 313 2009 
z
" transform="scale(0.015625)"/>
        <path id="DejaVuSans-70" d="M 1159 525 
L 1159 -1331 
L 581 -1331 
L 581 3500 
L 1159 3500 
L 1159 2969 
Q 1341 3281 1617 3432 
Q 1894 3584 2278 3584 
Q 2916 3584 3314 3078 
Q 3713 2572 3713 1747 
Q 3713 922 3314 415 
Q 2916 -91 2278 -91 
Q 1894 -91 1617 61 
Q 1341 213 1159 525 
z
M 3116 1747 
Q 3116 2381 2855 2742 
Q 2594 3103 2138 3103 
Q 1681 3103 1420 2742 
Q 1159 2381 1159 1747 
Q 1159 1113 1420 752 
Q 1681 391 2138 391 
Q 2594 391 2855 752 
Q 3116 1113 3116 1747 
z
" transform="scale(0.015625)"/>
        <path id="DejaVuSans-76" d="M 191 3500 
L 800 3500 
L 1894 563 
L 2988 3500 
L 3597 3500 
L 2284 0 
L 1503 0 
L 191 3500 
z
" transform="scale(0.015625)"/>
       </defs>
       <use xlink:href="#DejaVuSans-41"/>
       <use xlink:href="#DejaVuSans-62" transform="translate(68.408203 0)"/>
       <use xlink:href="#DejaVuSans-6e" transform="translate(131.884766 0)"/>
       <use xlink:href="#DejaVuSans-6f" transform="translate(195.263672 0)"/>
       <use xlink:href="#DejaVuSans-72" transform="translate(256.445312 0)"/>
       <use xlink:href="#DejaVuSans-6d" transform="translate(295.808594 0)"/>
       <use xlink:href="#DejaVuSans-61" transform="translate(393.220703 0)"/>
       <use xlink:href="#DejaVuSans-6c" transform="translate(454.5 0)"/>
       <use xlink:href="#DejaVuSans-6c" transform="translate(482.283203 0)"/>
       <use xlink:href="#DejaVuSans-79" transform="translate(510.066406 0)"/>
       <use xlink:href="#DejaVuSans-20" transform="translate(569.246094 0)"/>
       <use xlink:href="#DejaVuSans-6c" transform="translate(601.033203 0)"/>
       <use xlink:href="#DejaVuSans-6f" transform="translate(628.816406 0)"/>
       <use xlink:href="#DejaVuSans-77" transform="translate(689.998047 0)"/>
       <use xlink:href="#DejaVuSans-2d" transform="translate(771.785156 0)"/>
       <use xlink:href="#DejaVuSans-70" transform="translate(807.869141 0)"/>
       <use xlink:href="#DejaVuSans-69" transform="translate(871.345703 0)"/>
       <use xlink:href="#DejaVuSans-74" transform="translate(899.128906 0)"/>
       <use xlink:href="#DejaVuSans-63" transform="translate(938.337891 0)"/>
       <use xlink:href="#DejaVuSans-68" transform="translate(993.318359 0)"/>
       <use xlink:href="#DejaVuSans-65" transform="translate(1056.697266 0)"/>
       <use xlink:href="#DejaVuSans-64" transform="translate(1118.220703 0)"/>
       <use xlink:href="#DejaVuSans-20" transform="translate(1181.697266 0)"/>
       <use xlink:href="#DejaVuSans-76" transform="translate(1213.484375 0)"/>
       <use xlink:href="#DejaVuSans-6f" transform="translate(1272.664062 0)"/>
       <use xlink:href="#DejaVuSans-69" transform="translate(1333.845703 0)"/>
       <use xlink:href="#DejaVuSans-63" transform="translate(1361.628906 0)"/>
       <use xlink:href="#DejaVuSans-65" transform="translate(1416.609375 0)"/>
      </g>
     </g>
    </g>
    <g id="ytick_3">
     <g id="line2d_9">
      <g>
       <use xlink:href="#mb3796f2fbd" x="250.80625" y="59.879388" style="stroke: #000000; stroke-width: 0.8"/>
      </g>
     </g>
     <g id="text_10">
      <!-- Happy demeanor -->
      <g transform="translate(157.273438 63.678607) scale(0.1 -0.1)">
       <defs>
        <path id="DejaVuSans-48" d="M 628 4666 
L 1259 4666 
L 1259 2753 
L 3553 2753 
L 3553 4666 
L 4184 4666 
L 4184 0 
L 3553 0 
L 3553 2222 
L 1259 2222 
L 1259 0 
L 628 0 
L 628 4666 
z
" transform="scale(0.015625)"/>
       </defs>
       <use xlink:href="#DejaVuSans-48"/>
       <use xlink:href="#DejaVuSans-61" transform="translate(75.195312 0)"/>
       <use xlink:href="#DejaVuSans-70" transform="translate(136.474609 0)"/>
       <use xlink:href="#DejaVuSans-70" transform="translate(199.951172 0)"/>
       <use xlink:href="#DejaVuSans-79" transform="translate(263.427734 0)"/>
       <use xlink:href="#DejaVuSans-20" transform="translate(322.607422 0)"/>
       <use xlink:href="#DejaVuSans-64" transform="translate(354.394531 0)"/>
       <use xlink:href="#DejaVuSans-65" transform="translate(417.871094 0)"/>
       <use xlink:href="#DejaVuSans-6d" transform="translate(479.394531 0)"/>
       <use xlink:href="#DejaVuSans-65" transform="translate(576.806641 0)"/>
       <use xlink:href="#DejaVuSans-61" transform="translate(638.330078 0)"/>
       <use xlink:href="#DejaVuSans-6e" transform="translate(699.609375 0)"/>
       <use xlink:href="#DejaVuSans-6f" transform="translate(762.988281 0)"/>
       <use xlink:href="#DejaVuSans-72" transform="translate(824.169922 0)"/>
      </g>
     </g>
    </g>
    <g id="ytick_4">
     <g id="line2d_10">
      <g>
       <use xlink:href="#mb3796f2fbd" x="250.80625" y="72.61202" style="stroke: #000000; stroke-width: 0.8"/>
      </g>
     </g>
     <g id="text_11">
      <!-- Frontal upsweep of hair -->
      <g transform="translate(126.354687 76.411238) scale(0.1 -0.1)">
       <defs>
        <path id="DejaVuSans-66" d="M 2375 4863 
L 2375 4384 
L 1825 4384 
Q 1516 4384 1395 4259 
Q 1275 4134 1275 3809 
L 1275 3500 
L 2222 3500 
L 2222 3053 
L 1275 3053 
L 1275 0 
L 697 0 
L 697 3053 
L 147 3053 
L 147 3500 
L 697 3500 
L 697 3744 
Q 697 4328 969 4595 
Q 1241 4863 1831 4863 
L 2375 4863 
z
" transform="scale(0.015625)"/>
       </defs>
       <use xlink:href="#DejaVuSans-46"/>
       <use xlink:href="#DejaVuSans-72" transform="translate(50.269531 0)"/>
       <use xlink:href="#DejaVuSans-6f" transform="translate(89.132812 0)"/>
       <use xlink:href="#DejaVuSans-6e" transform="translate(150.314453 0)"/>
       <use xlink:href="#DejaVuSans-74" transform="translate(213.693359 0)"/>
       <use xlink:href="#DejaVuSans-61" transform="translate(252.902344 0)"/>
       <use xlink:href="#DejaVuSans-6c" transform="translate(314.181641 0)"/>
       <use xlink:href="#DejaVuSans-20" transform="translate(341.964844 0)"/>
       <use xlink:href="#DejaVuSans-75" transform="translate(373.751953 0)"/>
       <use xlink:href="#DejaVuSans-70" transform="translate(437.130859 0)"/>
       <use xlink:href="#DejaVuSans-73" transform="translate(500.607422 0)"/>
       <use xlink:href="#DejaVuSans-77" transform="translate(552.707031 0)"/>
       <use xlink:href="#DejaVuSans-65" transform="translate(634.494141 0)"/>
       <use xlink:href="#DejaVuSans-65" transform="translate(696.017578 0)"/>
       <use xlink:href="#DejaVuSans-70" transform="translate(757.541016 0)"/>
       <use xlink:href="#DejaVuSans-20" transform="translate(821.017578 0)"/>
       <use xlink:href="#DejaVuSans-6f" transform="translate(852.804688 0)"/>
       <use xlink:href="#DejaVuSans-66" transform="translate(913.986328 0)"/>
       <use xlink:href="#DejaVuSans-20" transform="translate(949.191406 0)"/>
       <use xlink:href="#DejaVuSans-68" transform="translate(980.978516 0)"/>
       <use xlink:href="#DejaVuSans-61" transform="translate(1044.357422 0)"/>
       <use xlink:href="#DejaVuSans-69" transform="translate(1105.636719 0)"/>
       <use xlink:href="#DejaVuSans-72" transform="translate(1133.419922 0)"/>
      </g>
     </g>
    </g>
    <g id="ytick_5">
     <g id="line2d_11">
      <g>
       <use xlink:href="#mb3796f2fbd" x="250.80625" y="85.344651" style="stroke: #000000; stroke-width: 0.8"/>
      </g>
     </g>
     <g id="text_12">
      <!-- Clonic seizure -->
      <g transform="translate(174.36875 89.14387) scale(0.1 -0.1)">
       <defs>
        <path id="DejaVuSans-43" d="M 4122 4306 
L 4122 3641 
Q 3803 3938 3442 4084 
Q 3081 4231 2675 4231 
Q 1875 4231 1450 3742 
Q 1025 3253 1025 2328 
Q 1025 1406 1450 917 
Q 1875 428 2675 428 
Q 3081 428 3442 575 
Q 3803 722 4122 1019 
L 4122 359 
Q 3791 134 3420 21 
Q 3050 -91 2638 -91 
Q 1578 -91 968 557 
Q 359 1206 359 2328 
Q 359 3453 968 4101 
Q 1578 4750 2638 4750 
Q 3056 4750 3426 4639 
Q 3797 4528 4122 4306 
z
" transform="scale(0.015625)"/>
       </defs>
       <use xlink:href="#DejaVuSans-43"/>
       <use xlink:href="#DejaVuSans-6c" transform="translate(69.824219 0)"/>
       <use xlink:href="#DejaVuSans-6f" transform="translate(97.607422 0)"/>
       <use xlink:href="#DejaVuSans-6e" transform="translate(158.789062 0)"/>
       <use xlink:href="#DejaVuSans-69" transform="translate(222.167969 0)"/>
       <use xlink:href="#DejaVuSans-63" transform="translate(249.951172 0)"/>
       <use xlink:href="#DejaVuSans-20" transform="translate(304.931641 0)"/>
       <use xlink:href="#DejaVuSans-73" transform="translate(336.71875 0)"/>
       <use xlink:href="#DejaVuSans-65" transform="translate(388.818359 0)"/>
       <use xlink:href="#DejaVuSans-69" transform="translate(450.341797 0)"/>
       <use xlink:href="#DejaVuSans-7a" transform="translate(478.125 0)"/>
       <use xlink:href="#DejaVuSans-75" transform="translate(530.615234 0)"/>
       <use xlink:href="#DejaVuSans-72" transform="translate(593.994141 0)"/>
       <use xlink:href="#DejaVuSans-65" transform="translate(632.857422 0)"/>
      </g>
     </g>
    </g>
    <g id="ytick_6">
     <g id="line2d_12">
      <g>
       <use xlink:href="#mb3796f2fbd" x="250.80625" y="98.077283" style="stroke: #000000; stroke-width: 0.8"/>
      </g>
     </g>
     <g id="text_13">
      <!-- Mitochondrial respiratory chain defects -->
      <g transform="translate(47.825 101.876502) scale(0.1 -0.1)">
       <defs>
        <path id="DejaVuSans-4d" d="M 628 4666 
L 1569 4666 
L 2759 1491 
L 3956 4666 
L 4897 4666 
L 4897 0 
L 4281 0 
L 4281 4097 
L 3078 897 
L 2444 897 
L 1241 4097 
L 1241 0 
L 628 0 
L 628 4666 
z
" transform="scale(0.015625)"/>
       </defs>
       <use xlink:href="#DejaVuSans-4d"/>
       <use xlink:href="#DejaVuSans-69" transform="translate(86.279297 0)"/>
       <use xlink:href="#DejaVuSans-74" transform="translate(114.0625 0)"/>
       <use xlink:href="#DejaVuSans-6f" transform="translate(153.271484 0)"/>
       <use xlink:href="#DejaVuSans-63" transform="translate(214.453125 0)"/>
       <use xlink:href="#DejaVuSans-68" transform="translate(269.433594 0)"/>
       <use xlink:href="#DejaVuSans-6f" transform="translate(332.8125 0)"/>
       <use xlink:href="#DejaVuSans-6e" transform="translate(393.994141 0)"/>
       <use xlink:href="#DejaVuSans-64" transform="translate(457.373047 0)"/>
       <use xlink:href="#DejaVuSans-72" transform="translate(520.849609 0)"/>
       <use xlink:href="#DejaVuSans-69" transform="translate(561.962891 0)"/>
       <use xlink:href="#DejaVuSans-61" transform="translate(589.746094 0)"/>
       <use xlink:href="#DejaVuSans-6c" transform="translate(651.025391 0)"/>
       <use xlink:href="#DejaVuSans-20" transform="translate(678.808594 0)"/>
       <use xlink:href="#DejaVuSans-72" transform="translate(710.595703 0)"/>
       <use xlink:href="#DejaVuSans-65" transform="translate(749.458984 0)"/>
       <use xlink:href="#DejaVuSans-73" transform="translate(810.982422 0)"/>
       <use xlink:href="#DejaVuSans-70" transform="translate(863.082031 0)"/>
       <use xlink:href="#DejaVuSans-69" transform="translate(926.558594 0)"/>
       <use xlink:href="#DejaVuSans-72" transform="translate(954.341797 0)"/>
       <use xlink:href="#DejaVuSans-61" transform="translate(995.455078 0)"/>
       <use xlink:href="#DejaVuSans-74" transform="translate(1056.734375 0)"/>
       <use xlink:href="#DejaVuSans-6f" transform="translate(1095.943359 0)"/>
       <use xlink:href="#DejaVuSans-72" transform="translate(1157.125 0)"/>
       <use xlink:href="#DejaVuSans-79" transform="translate(1198.238281 0)"/>
       <use xlink:href="#DejaVuSans-20" transform="translate(1257.417969 0)"/>
       <use xlink:href="#DejaVuSans-63" transform="translate(1289.205078 0)"/>
       <use xlink:href="#DejaVuSans-68" transform="translate(1344.185547 0)"/>
       <use xlink:href="#DejaVuSans-61" transform="translate(1407.564453 0)"/>
       <use xlink:href="#DejaVuSans-69" transform="translate(1468.84375 0)"/>
       <use xlink:href="#DejaVuSans-6e" transform="translate(1496.626953 0)"/>
       <use xlink:href="#DejaVuSans-20" transform="translate(1560.005859 0)"/>
       <use xlink:href="#DejaVuSans-64" transform="translate(1591.792969 0)"/>
       <use xlink:href="#DejaVuSans-65" transform="translate(1655.269531 0)"/>
       <use xlink:href="#DejaVuSans-66" transform="translate(1716.792969 0)"/>
       <use xlink:href="#DejaVuSans-65" transform="translate(1751.998047 0)"/>
       <use xlink:href="#DejaVuSans-63" transform="translate(1813.521484 0)"/>
       <use xlink:href="#DejaVuSans-74" transform="translate(1868.501953 0)"/>
       <use xlink:href="#DejaVuSans-73" transform="translate(1907.710938 0)"/>
      </g>
     </g>
    </g>
    <g id="ytick_7">
     <g id="line2d_13">
      <g>
       <use xlink:href="#mb3796f2fbd" x="250.80625" y="110.809914" style="stroke: #000000; stroke-width: 0.8"/>
      </g>
     </g>
     <g id="text_14">
      <!-- Radial artery aplasia -->
      <g transform="translate(140.725 114.609133) scale(0.1 -0.1)">
       <defs>
        <path id="DejaVuSans-52" d="M 2841 2188 
Q 3044 2119 3236 1894 
Q 3428 1669 3622 1275 
L 4263 0 
L 3584 0 
L 2988 1197 
Q 2756 1666 2539 1819 
Q 2322 1972 1947 1972 
L 1259 1972 
L 1259 0 
L 628 0 
L 628 4666 
L 2053 4666 
Q 2853 4666 3247 4331 
Q 3641 3997 3641 3322 
Q 3641 2881 3436 2590 
Q 3231 2300 2841 2188 
z
M 1259 4147 
L 1259 2491 
L 2053 2491 
Q 2509 2491 2742 2702 
Q 2975 2913 2975 3322 
Q 2975 3731 2742 3939 
Q 2509 4147 2053 4147 
L 1259 4147 
z
" transform="scale(0.015625)"/>
       </defs>
       <use xlink:href="#DejaVuSans-52"/>
       <use xlink:href="#DejaVuSans-61" transform="translate(67.232422 0)"/>
       <use xlink:href="#DejaVuSans-64" transform="translate(128.511719 0)"/>
       <use xlink:href="#DejaVuSans-69" transform="translate(191.988281 0)"/>
       <use xlink:href="#DejaVuSans-61" transform="translate(219.771484 0)"/>
       <use xlink:href="#DejaVuSans-6c" transform="translate(281.050781 0)"/>
       <use xlink:href="#DejaVuSans-20" transform="translate(308.833984 0)"/>
       <use xlink:href="#DejaVuSans-61" transform="translate(340.621094 0)"/>
       <use xlink:href="#DejaVuSans-72" transform="translate(401.900391 0)"/>
       <use xlink:href="#DejaVuSans-74" transform="translate(443.013672 0)"/>
       <use xlink:href="#DejaVuSans-65" transform="translate(482.222656 0)"/>
       <use xlink:href="#DejaVuSans-72" transform="translate(543.746094 0)"/>
       <use xlink:href="#DejaVuSans-79" transform="translate(584.859375 0)"/>
       <use xlink:href="#DejaVuSans-20" transform="translate(644.039062 0)"/>
       <use xlink:href="#DejaVuSans-61" transform="translate(675.826172 0)"/>
       <use xlink:href="#DejaVuSans-70" transform="translate(737.105469 0)"/>
       <use xlink:href="#DejaVuSans-6c" transform="translate(800.582031 0)"/>
       <use xlink:href="#DejaVuSans-61" transform="translate(828.365234 0)"/>
       <use xlink:href="#DejaVuSans-73" transform="translate(889.644531 0)"/>
       <use xlink:href="#DejaVuSans-69" transform="translate(941.744141 0)"/>
       <use xlink:href="#DejaVuSans-61" transform="translate(969.527344 0)"/>
      </g>
     </g>
    </g>
    <g id="ytick_8">
     <g id="line2d_14">
      <g>
       <use xlink:href="#mb3796f2fbd" x="250.80625" y="123.542546" style="stroke: #000000; stroke-width: 0.8"/>
      </g>
     </g>
     <g id="text_15">
      <!-- Abnormality of the thenar eminence -->
      <g transform="translate(62.059375 127.341765) scale(0.1 -0.1)">
       <use xlink:href="#DejaVuSans-41"/>
       <use xlink:href="#DejaVuSans-62" transform="translate(68.408203 0)"/>
       <use xlink:href="#DejaVuSans-6e" transform="translate(131.884766 0)"/>
       <use xlink:href="#DejaVuSans-6f" transform="translate(195.263672 0)"/>
       <use xlink:href="#DejaVuSans-72" transform="translate(256.445312 0)"/>
       <use xlink:href="#DejaVuSans-6d" transform="translate(295.808594 0)"/>
       <use xlink:href="#DejaVuSans-61" transform="translate(393.220703 0)"/>
       <use xlink:href="#DejaVuSans-6c" transform="translate(454.5 0)"/>
       <use xlink:href="#DejaVuSans-69" transform="translate(482.283203 0)"/>
       <use xlink:href="#DejaVuSans-74" transform="translate(510.066406 0)"/>
       <use xlink:href="#DejaVuSans-79" transform="translate(549.275391 0)"/>
       <use xlink:href="#DejaVuSans-20" transform="translate(608.455078 0)"/>
       <use xlink:href="#DejaVuSans-6f" transform="translate(640.242188 0)"/>
       <use xlink:href="#DejaVuSans-66" transform="translate(701.423828 0)"/>
       <use xlink:href="#DejaVuSans-20" transform="translate(736.628906 0)"/>
       <use xlink:href="#DejaVuSans-74" transform="translate(768.416016 0)"/>
       <use xlink:href="#DejaVuSans-68" transform="translate(807.625 0)"/>
       <use xlink:href="#DejaVuSans-65" transform="translate(871.003906 0)"/>
       <use xlink:href="#DejaVuSans-20" transform="translate(932.527344 0)"/>
       <use xlink:href="#DejaVuSans-74" transform="translate(964.314453 0)"/>
       <use xlink:href="#DejaVuSans-68" transform="translate(1003.523438 0)"/>
       <use xlink:href="#DejaVuSans-65" transform="translate(1066.902344 0)"/>
       <use xlink:href="#DejaVuSans-6e" transform="translate(1128.425781 0)"/>
       <use xlink:href="#DejaVuSans-61" transform="translate(1191.804688 0)"/>
       <use xlink:href="#DejaVuSans-72" transform="translate(1253.083984 0)"/>
       <use xlink:href="#DejaVuSans-20" transform="translate(1294.197266 0)"/>
       <use xlink:href="#DejaVuSans-65" transform="translate(1325.984375 0)"/>
       <use xlink:href="#DejaVuSans-6d" transform="translate(1387.507812 0)"/>
       <use xlink:href="#DejaVuSans-69" transform="translate(1484.919922 0)"/>
       <use xlink:href="#DejaVuSans-6e" transform="translate(1512.703125 0)"/>
       <use xlink:href="#DejaVuSans-65" transform="translate(1576.082031 0)"/>
       <use xlink:href="#DejaVuSans-6e" transform="translate(1637.605469 0)"/>
       <use xlink:href="#DejaVuSans-63" transform="translate(1700.984375 0)"/>
       <use xlink:href="#DejaVuSans-65" transform="translate(1755.964844 0)"/>
      </g>
     </g>
    </g>
    <g id="ytick_9">
     <g id="line2d_15">
      <g>
       <use xlink:href="#mb3796f2fbd" x="250.80625" y="136.275178" style="stroke: #000000; stroke-width: 0.8"/>
      </g>
     </g>
     <g id="text_16">
      <!-- Elevated red cell adenosine deaminase activity -->
      <g transform="translate(7.2 140.074396) scale(0.1 -0.1)">
       <use xlink:href="#DejaVuSans-45"/>
       <use xlink:href="#DejaVuSans-6c" transform="translate(63.183594 0)"/>
       <use xlink:href="#DejaVuSans-65" transform="translate(90.966797 0)"/>
       <use xlink:href="#DejaVuSans-76" transform="translate(152.490234 0)"/>
       <use xlink:href="#DejaVuSans-61" transform="translate(211.669922 0)"/>
       <use xlink:href="#DejaVuSans-74" transform="translate(272.949219 0)"/>
       <use xlink:href="#DejaVuSans-65" transform="translate(312.158203 0)"/>
       <use xlink:href="#DejaVuSans-64" transform="translate(373.681641 0)"/>
       <use xlink:href="#DejaVuSans-20" transform="translate(437.158203 0)"/>
       <use xlink:href="#DejaVuSans-72" transform="translate(468.945312 0)"/>
       <use xlink:href="#DejaVuSans-65" transform="translate(507.808594 0)"/>
       <use xlink:href="#DejaVuSans-64" transform="translate(569.332031 0)"/>
       <use xlink:href="#DejaVuSans-20" transform="translate(632.808594 0)"/>
       <use xlink:href="#DejaVuSans-63" transform="translate(664.595703 0)"/>
       <use xlink:href="#DejaVuSans-65" transform="translate(719.576172 0)"/>
       <use xlink:href="#DejaVuSans-6c" transform="translate(781.099609 0)"/>
       <use xlink:href="#DejaVuSans-6c" transform="translate(808.882812 0)"/>
       <use xlink:href="#DejaVuSans-20" transform="translate(836.666016 0)"/>
       <use xlink:href="#DejaVuSans-61" transform="translate(868.453125 0)"/>
       <use xlink:href="#DejaVuSans-64" transform="translate(929.732422 0)"/>
       <use xlink:href="#DejaVuSans-65" transform="translate(993.208984 0)"/>
       <use xlink:href="#DejaVuSans-6e" transform="translate(1054.732422 0)"/>
       <use xlink:href="#DejaVuSans-6f" transform="translate(1118.111328 0)"/>
       <use xlink:href="#DejaVuSans-73" transform="translate(1179.292969 0)"/>
       <use xlink:href="#DejaVuSans-69" transform="translate(1231.392578 0)"/>
       <use xlink:href="#DejaVuSans-6e" transform="translate(1259.175781 0)"/>
       <use xlink:href="#DejaVuSans-65" transform="translate(1322.554688 0)"/>
       <use xlink:href="#DejaVuSans-20" transform="translate(1384.078125 0)"/>
       <use xlink:href="#DejaVuSans-64" transform="translate(1415.865234 0)"/>
       <use xlink:href="#DejaVuSans-65" transform="translate(1479.341797 0)"/>
       <use xlink:href="#DejaVuSans-61" transform="translate(1540.865234 0)"/>
       <use xlink:href="#DejaVuSans-6d" transform="translate(1602.144531 0)"/>
       <use xlink:href="#DejaVuSans-69" transform="translate(1699.556641 0)"/>
       <use xlink:href="#DejaVuSans-6e" transform="translate(1727.339844 0)"/>
       <use xlink:href="#DejaVuSans-61" transform="translate(1790.71875 0)"/>
       <use xlink:href="#DejaVuSans-73" transform="translate(1851.998047 0)"/>
       <use xlink:href="#DejaVuSans-65" transform="translate(1904.097656 0)"/>
       <use xlink:href="#DejaVuSans-20" transform="translate(1965.621094 0)"/>
       <use xlink:href="#DejaVuSans-61" transform="translate(1997.408203 0)"/>
       <use xlink:href="#DejaVuSans-63" transform="translate(2058.6875 0)"/>
       <use xlink:href="#DejaVuSans-74" transform="translate(2113.667969 0)"/>
       <use xlink:href="#DejaVuSans-69" transform="translate(2152.876953 0)"/>
       <use xlink:href="#DejaVuSans-76" transform="translate(2180.660156 0)"/>
       <use xlink:href="#DejaVuSans-69" transform="translate(2239.839844 0)"/>
       <use xlink:href="#DejaVuSans-74" transform="translate(2267.623047 0)"/>
       <use xlink:href="#DejaVuSans-79" transform="translate(2306.832031 0)"/>
      </g>
     </g>
    </g>
    <g id="ytick_10">
     <g id="line2d_16">
      <g>
       <use xlink:href="#mb3796f2fbd" x="250.80625" y="149.007809" style="stroke: #000000; stroke-width: 0.8"/>
      </g>
     </g>
     <g id="text_17">
      <!-- Abnormality of the head -->
      <g transform="translate(122.409375 152.807028) scale(0.1 -0.1)">
       <use xlink:href="#DejaVuSans-41"/>
       <use xlink:href="#DejaVuSans-62" transform="translate(68.408203 0)"/>
       <use xlink:href="#DejaVuSans-6e" transform="translate(131.884766 0)"/>
       <use xlink:href="#DejaVuSans-6f" transform="translate(195.263672 0)"/>
       <use xlink:href="#DejaVuSans-72" transform="translate(256.445312 0)"/>
       <use xlink:href="#DejaVuSans-6d" transform="translate(295.808594 0)"/>
       <use xlink:href="#DejaVuSans-61" transform="translate(393.220703 0)"/>
       <use xlink:href="#DejaVuSans-6c" transform="translate(454.5 0)"/>
       <use xlink:href="#DejaVuSans-69" transform="translate(482.283203 0)"/>
       <use xlink:href="#DejaVuSans-74" transform="translate(510.066406 0)"/>
       <use xlink:href="#DejaVuSans-79" transform="translate(549.275391 0)"/>
       <use xlink:href="#DejaVuSans-20" transform="translate(608.455078 0)"/>
       <use xlink:href="#DejaVuSans-6f" transform="translate(640.242188 0)"/>
       <use xlink:href="#DejaVuSans-66" transform="translate(701.423828 0)"/>
       <use xlink:href="#DejaVuSans-20" transform="translate(736.628906 0)"/>
       <use xlink:href="#DejaVuSans-74" transform="translate(768.416016 0)"/>
       <use xlink:href="#DejaVuSans-68" transform="translate(807.625 0)"/>
       <use xlink:href="#DejaVuSans-65" transform="translate(871.003906 0)"/>
       <use xlink:href="#DejaVuSans-20" transform="translate(932.527344 0)"/>
       <use xlink:href="#DejaVuSans-68" transform="translate(964.314453 0)"/>
       <use xlink:href="#DejaVuSans-65" transform="translate(1027.693359 0)"/>
       <use xlink:href="#DejaVuSans-61" transform="translate(1089.216797 0)"/>
       <use xlink:href="#DejaVuSans-64" transform="translate(1150.496094 0)"/>
      </g>
     </g>
    </g>
    <g id="ytick_11">
     <g id="line2d_17">
      <g>
       <use xlink:href="#mb3796f2fbd" x="250.80625" y="161.740441" style="stroke: #000000; stroke-width: 0.8"/>
      </g>
     </g>
     <g id="text_18">
      <!-- Persistence of hemoglobin F -->
      <g transform="translate(102.63125 165.53966) scale(0.1 -0.1)">
       <defs>
        <path id="DejaVuSans-50" d="M 1259 4147 
L 1259 2394 
L 2053 2394 
Q 2494 2394 2734 2622 
Q 2975 2850 2975 3272 
Q 2975 3691 2734 3919 
Q 2494 4147 2053 4147 
L 1259 4147 
z
M 628 4666 
L 2053 4666 
Q 2838 4666 3239 4311 
Q 3641 3956 3641 3272 
Q 3641 2581 3239 2228 
Q 2838 1875 2053 1875 
L 1259 1875 
L 1259 0 
L 628 0 
L 628 4666 
z
" transform="scale(0.015625)"/>
        <path id="DejaVuSans-67" d="M 2906 1791 
Q 2906 2416 2648 2759 
Q 2391 3103 1925 3103 
Q 1463 3103 1205 2759 
Q 947 2416 947 1791 
Q 947 1169 1205 825 
Q 1463 481 1925 481 
Q 2391 481 2648 825 
Q 2906 1169 2906 1791 
z
M 3481 434 
Q 3481 -459 3084 -895 
Q 2688 -1331 1869 -1331 
Q 1566 -1331 1297 -1286 
Q 1028 -1241 775 -1147 
L 775 -588 
Q 1028 -725 1275 -790 
Q 1522 -856 1778 -856 
Q 2344 -856 2625 -561 
Q 2906 -266 2906 331 
L 2906 616 
Q 2728 306 2450 153 
Q 2172 0 1784 0 
Q 1141 0 747 490 
Q 353 981 353 1791 
Q 353 2603 747 3093 
Q 1141 3584 1784 3584 
Q 2172 3584 2450 3431 
Q 2728 3278 2906 2969 
L 2906 3500 
L 3481 3500 
L 3481 434 
z
" transform="scale(0.015625)"/>
       </defs>
       <use xlink:href="#DejaVuSans-50"/>
       <use xlink:href="#DejaVuSans-65" transform="translate(56.677734 0)"/>
       <use xlink:href="#DejaVuSans-72" transform="translate(118.201172 0)"/>
       <use xlink:href="#DejaVuSans-73" transform="translate(159.314453 0)"/>
       <use xlink:href="#DejaVuSans-69" transform="translate(211.414062 0)"/>
       <use xlink:href="#DejaVuSans-73" transform="translate(239.197266 0)"/>
       <use xlink:href="#DejaVuSans-74" transform="translate(291.296875 0)"/>
       <use xlink:href="#DejaVuSans-65" transform="translate(330.505859 0)"/>
       <use xlink:href="#DejaVuSans-6e" transform="translate(392.029297 0)"/>
       <use xlink:href="#DejaVuSans-63" transform="translate(455.408203 0)"/>
       <use xlink:href="#DejaVuSans-65" transform="translate(510.388672 0)"/>
       <use xlink:href="#DejaVuSans-20" transform="translate(571.912109 0)"/>
       <use xlink:href="#DejaVuSans-6f" transform="translate(603.699219 0)"/>
       <use xlink:href="#DejaVuSans-66" transform="translate(664.880859 0)"/>
       <use xlink:href="#DejaVuSans-20" transform="translate(700.085938 0)"/>
       <use xlink:href="#DejaVuSans-68" transform="translate(731.873047 0)"/>
       <use xlink:href="#DejaVuSans-65" transform="translate(795.251953 0)"/>
       <use xlink:href="#DejaVuSans-6d" transform="translate(856.775391 0)"/>
       <use xlink:href="#DejaVuSans-6f" transform="translate(954.1875 0)"/>
       <use xlink:href="#DejaVuSans-67" transform="translate(1015.369141 0)"/>
       <use xlink:href="#DejaVuSans-6c" transform="translate(1078.845703 0)"/>
       <use xlink:href="#DejaVuSans-6f" transform="translate(1106.628906 0)"/>
       <use xlink:href="#DejaVuSans-62" transform="translate(1167.810547 0)"/>
       <use xlink:href="#DejaVuSans-69" transform="translate(1231.287109 0)"/>
       <use xlink:href="#DejaVuSans-6e" transform="translate(1259.070312 0)"/>
       <use xlink:href="#DejaVuSans-20" transform="translate(1322.449219 0)"/>
       <use xlink:href="#DejaVuSans-46" transform="translate(1354.236328 0)"/>
      </g>
     </g>
    </g>
    <g id="ytick_12">
     <g id="line2d_18">
      <g>
       <use xlink:href="#mb3796f2fbd" x="250.80625" y="174.473072" style="stroke: #000000; stroke-width: 0.8"/>
      </g>
     </g>
     <g id="text_19">
      <!-- Recurrent hand flapping -->
      <g transform="translate(122.990625 178.272291) scale(0.1 -0.1)">
       <use xlink:href="#DejaVuSans-52"/>
       <use xlink:href="#DejaVuSans-65" transform="translate(64.982422 0)"/>
       <use xlink:href="#DejaVuSans-63" transform="translate(126.505859 0)"/>
       <use xlink:href="#DejaVuSans-75" transform="translate(181.486328 0)"/>
       <use xlink:href="#DejaVuSans-72" transform="translate(244.865234 0)"/>
       <use xlink:href="#DejaVuSans-72" transform="translate(284.228516 0)"/>
       <use xlink:href="#DejaVuSans-65" transform="translate(323.091797 0)"/>
       <use xlink:href="#DejaVuSans-6e" transform="translate(384.615234 0)"/>
       <use xlink:href="#DejaVuSans-74" transform="translate(447.994141 0)"/>
       <use xlink:href="#DejaVuSans-20" transform="translate(487.203125 0)"/>
       <use xlink:href="#DejaVuSans-68" transform="translate(518.990234 0)"/>
       <use xlink:href="#DejaVuSans-61" transform="translate(582.369141 0)"/>
       <use xlink:href="#DejaVuSans-6e" transform="translate(643.648438 0)"/>
       <use xlink:href="#DejaVuSans-64" transform="translate(707.027344 0)"/>
       <use xlink:href="#DejaVuSans-20" transform="translate(770.503906 0)"/>
       <use xlink:href="#DejaVuSans-66" transform="translate(802.291016 0)"/>
       <use xlink:href="#DejaVuSans-6c" transform="translate(837.496094 0)"/>
       <use xlink:href="#DejaVuSans-61" transform="translate(865.279297 0)"/>
       <use xlink:href="#DejaVuSans-70" transform="translate(926.558594 0)"/>
       <use xlink:href="#DejaVuSans-70" transform="translate(990.035156 0)"/>
       <use xlink:href="#DejaVuSans-69" transform="translate(1053.511719 0)"/>
       <use xlink:href="#DejaVuSans-6e" transform="translate(1081.294922 0)"/>
       <use xlink:href="#DejaVuSans-67" transform="translate(1144.673828 0)"/>
      </g>
     </g>
    </g>
    <g id="ytick_13">
     <g id="line2d_19">
      <g>
       <use xlink:href="#mb3796f2fbd" x="250.80625" y="187.205704" style="stroke: #000000; stroke-width: 0.8"/>
      </g>
     </g>
     <g id="text_20">
      <!-- Atypical absence seizure -->
      <g transform="translate(119.820312 191.004923) scale(0.1 -0.1)">
       <use xlink:href="#DejaVuSans-41"/>
       <use xlink:href="#DejaVuSans-74" transform="translate(66.658203 0)"/>
       <use xlink:href="#DejaVuSans-79" transform="translate(105.867188 0)"/>
       <use xlink:href="#DejaVuSans-70" transform="translate(165.046875 0)"/>
       <use xlink:href="#DejaVuSans-69" transform="translate(228.523438 0)"/>
       <use xlink:href="#DejaVuSans-63" transform="translate(256.306641 0)"/>
       <use xlink:href="#DejaVuSans-61" transform="translate(311.287109 0)"/>
       <use xlink:href="#DejaVuSans-6c" transform="translate(372.566406 0)"/>
       <use xlink:href="#DejaVuSans-20" transform="translate(400.349609 0)"/>
       <use xlink:href="#DejaVuSans-61" transform="translate(432.136719 0)"/>
       <use xlink:href="#DejaVuSans-62" transform="translate(493.416016 0)"/>
       <use xlink:href="#DejaVuSans-73" transform="translate(556.892578 0)"/>
       <use xlink:href="#DejaVuSans-65" transform="translate(608.992188 0)"/>
       <use xlink:href="#DejaVuSans-6e" transform="translate(670.515625 0)"/>
       <use xlink:href="#DejaVuSans-63" transform="translate(733.894531 0)"/>
       <use xlink:href="#DejaVuSans-65" transform="translate(788.875 0)"/>
       <use xlink:href="#DejaVuSans-20" transform="translate(850.398438 0)"/>
       <use xlink:href="#DejaVuSans-73" transform="translate(882.185547 0)"/>
       <use xlink:href="#DejaVuSans-65" transform="translate(934.285156 0)"/>
       <use xlink:href="#DejaVuSans-69" transform="translate(995.808594 0)"/>
       <use xlink:href="#DejaVuSans-7a" transform="translate(1023.591797 0)"/>
       <use xlink:href="#DejaVuSans-75" transform="translate(1076.082031 0)"/>
       <use xlink:href="#DejaVuSans-72" transform="translate(1139.460938 0)"/>
       <use xlink:href="#DejaVuSans-65" transform="translate(1178.324219 0)"/>
      </g>
     </g>
    </g>
    <g id="ytick_14">
     <g id="line2d_20">
      <g>
       <use xlink:href="#mb3796f2fbd" x="250.80625" y="199.938336" style="stroke: #000000; stroke-width: 0.8"/>
      </g>
     </g>
     <g id="text_21">
      <!-- Macrocytic dyserythropoietic anemia -->
      <g transform="translate(58.79375 203.737554) scale(0.1 -0.1)">
       <use xlink:href="#DejaVuSans-4d"/>
       <use xlink:href="#DejaVuSans-61" transform="translate(86.279297 0)"/>
       <use xlink:href="#DejaVuSans-63" transform="translate(147.558594 0)"/>
       <use xlink:href="#DejaVuSans-72" transform="translate(202.539062 0)"/>
       <use xlink:href="#DejaVuSans-6f" transform="translate(241.402344 0)"/>
       <use xlink:href="#DejaVuSans-63" transform="translate(302.583984 0)"/>
       <use xlink:href="#DejaVuSans-79" transform="translate(357.564453 0)"/>
       <use xlink:href="#DejaVuSans-74" transform="translate(416.744141 0)"/>
       <use xlink:href="#DejaVuSans-69" transform="translate(455.953125 0)"/>
       <use xlink:href="#DejaVuSans-63" transform="translate(483.736328 0)"/>
       <use xlink:href="#DejaVuSans-20" transform="translate(538.716797 0)"/>
       <use xlink:href="#DejaVuSans-64" transform="translate(570.503906 0)"/>
       <use xlink:href="#DejaVuSans-79" transform="translate(633.980469 0)"/>
       <use xlink:href="#DejaVuSans-73" transform="translate(693.160156 0)"/>
       <use xlink:href="#DejaVuSans-65" transform="translate(745.259766 0)"/>
       <use xlink:href="#DejaVuSans-72" transform="translate(806.783203 0)"/>
       <use xlink:href="#DejaVuSans-79" transform="translate(847.896484 0)"/>
       <use xlink:href="#DejaVuSans-74" transform="translate(907.076172 0)"/>
       <use xlink:href="#DejaVuSans-68" transform="translate(946.285156 0)"/>
       <use xlink:href="#DejaVuSans-72" transform="translate(1009.664062 0)"/>
       <use xlink:href="#DejaVuSans-6f" transform="translate(1048.527344 0)"/>
       <use xlink:href="#DejaVuSans-70" transform="translate(1109.708984 0)"/>
       <use xlink:href="#DejaVuSans-6f" transform="translate(1173.185547 0)"/>
       <use xlink:href="#DejaVuSans-69" transform="translate(1234.367188 0)"/>
       <use xlink:href="#DejaVuSans-65" transform="translate(1262.150391 0)"/>
       <use xlink:href="#DejaVuSans-74" transform="translate(1323.673828 0)"/>
       <use xlink:href="#DejaVuSans-69" transform="translate(1362.882812 0)"/>
       <use xlink:href="#DejaVuSans-63" transform="translate(1390.666016 0)"/>
       <use xlink:href="#DejaVuSans-20" transform="translate(1445.646484 0)"/>
       <use xlink:href="#DejaVuSans-61" transform="translate(1477.433594 0)"/>
       <use xlink:href="#DejaVuSans-6e" transform="translate(1538.712891 0)"/>
       <use xlink:href="#DejaVuSans-65" transform="translate(1602.091797 0)"/>
       <use xlink:href="#DejaVuSans-6d" transform="translate(1663.615234 0)"/>
       <use xlink:href="#DejaVuSans-69" transform="translate(1761.027344 0)"/>
       <use xlink:href="#DejaVuSans-61" transform="translate(1788.810547 0)"/>
      </g>
     </g>
    </g>
    <g id="ytick_15">
     <g id="line2d_21">
      <g>
       <use xlink:href="#mb3796f2fbd" x="250.80625" y="212.670967" style="stroke: #000000; stroke-width: 0.8"/>
      </g>
     </g>
     <g id="text_22">
      <!-- Erythroid hypoplasia -->
      <g transform="translate(140.796875 216.470186) scale(0.1 -0.1)">
       <use xlink:href="#DejaVuSans-45"/>
       <use xlink:href="#DejaVuSans-72" transform="translate(63.183594 0)"/>
       <use xlink:href="#DejaVuSans-79" transform="translate(104.296875 0)"/>
       <use xlink:href="#DejaVuSans-74" transform="translate(163.476562 0)"/>
       <use xlink:href="#DejaVuSans-68" transform="translate(202.685547 0)"/>
       <use xlink:href="#DejaVuSans-72" transform="translate(266.064453 0)"/>
       <use xlink:href="#DejaVuSans-6f" transform="translate(304.927734 0)"/>
       <use xlink:href="#DejaVuSans-69" transform="translate(366.109375 0)"/>
       <use xlink:href="#DejaVuSans-64" transform="translate(393.892578 0)"/>
       <use xlink:href="#DejaVuSans-20" transform="translate(457.369141 0)"/>
       <use xlink:href="#DejaVuSans-68" transform="translate(489.15625 0)"/>
       <use xlink:href="#DejaVuSans-79" transform="translate(552.535156 0)"/>
       <use xlink:href="#DejaVuSans-70" transform="translate(611.714844 0)"/>
       <use xlink:href="#DejaVuSans-6f" transform="translate(675.191406 0)"/>
       <use xlink:href="#DejaVuSans-70" transform="translate(736.373047 0)"/>
       <use xlink:href="#DejaVuSans-6c" transform="translate(799.849609 0)"/>
       <use xlink:href="#DejaVuSans-61" transform="translate(827.632812 0)"/>
       <use xlink:href="#DejaVuSans-73" transform="translate(888.912109 0)"/>
       <use xlink:href="#DejaVuSans-69" transform="translate(941.011719 0)"/>
       <use xlink:href="#DejaVuSans-61" transform="translate(968.794922 0)"/>
      </g>
     </g>
    </g>
    <g id="ytick_16">
     <g id="line2d_22">
      <g>
       <use xlink:href="#mb3796f2fbd" x="250.80625" y="225.403599" style="stroke: #000000; stroke-width: 0.8"/>
      </g>
     </g>
     <g id="text_23">
      <!-- Epileptic spasm -->
      <g transform="translate(165.070312 229.202817) scale(0.1 -0.1)">
       <use xlink:href="#DejaVuSans-45"/>
       <use xlink:href="#DejaVuSans-70" transform="translate(63.183594 0)"/>
       <use xlink:href="#DejaVuSans-69" transform="translate(126.660156 0)"/>
       <use xlink:href="#DejaVuSans-6c" transform="translate(154.443359 0)"/>
       <use xlink:href="#DejaVuSans-65" transform="translate(182.226562 0)"/>
       <use xlink:href="#DejaVuSans-70" transform="translate(243.75 0)"/>
       <use xlink:href="#DejaVuSans-74" transform="translate(307.226562 0)"/>
       <use xlink:href="#DejaVuSans-69" transform="translate(346.435547 0)"/>
       <use xlink:href="#DejaVuSans-63" transform="translate(374.21875 0)"/>
       <use xlink:href="#DejaVuSans-20" transform="translate(429.199219 0)"/>
       <use xlink:href="#DejaVuSans-73" transform="translate(460.986328 0)"/>
       <use xlink:href="#DejaVuSans-70" transform="translate(513.085938 0)"/>
       <use xlink:href="#DejaVuSans-61" transform="translate(576.5625 0)"/>
       <use xlink:href="#DejaVuSans-73" transform="translate(637.841797 0)"/>
       <use xlink:href="#DejaVuSans-6d" transform="translate(689.941406 0)"/>
      </g>
     </g>
    </g>
    <g id="ytick_17">
     <g id="line2d_23">
      <g>
       <use xlink:href="#mb3796f2fbd" x="250.80625" y="238.13623" style="stroke: #000000; stroke-width: 0.8"/>
      </g>
     </g>
     <g id="text_24">
      <!-- Tonic seizure -->
      <g transform="translate(179.721875 241.935449) scale(0.1 -0.1)">
       <defs>
        <path id="DejaVuSans-54" d="M -19 4666 
L 3928 4666 
L 3928 4134 
L 2272 4134 
L 2272 0 
L 1638 0 
L 1638 4134 
L -19 4134 
L -19 4666 
z
" transform="scale(0.015625)"/>
       </defs>
       <use xlink:href="#DejaVuSans-54"/>
       <use xlink:href="#DejaVuSans-6f" transform="translate(44.083984 0)"/>
       <use xlink:href="#DejaVuSans-6e" transform="translate(105.265625 0)"/>
       <use xlink:href="#DejaVuSans-69" transform="translate(168.644531 0)"/>
       <use xlink:href="#DejaVuSans-63" transform="translate(196.427734 0)"/>
       <use xlink:href="#DejaVuSans-20" transform="translate(251.408203 0)"/>
       <use xlink:href="#DejaVuSans-73" transform="translate(283.195312 0)"/>
       <use xlink:href="#DejaVuSans-65" transform="translate(335.294922 0)"/>
       <use xlink:href="#DejaVuSans-69" transform="translate(396.818359 0)"/>
       <use xlink:href="#DejaVuSans-7a" transform="translate(424.601562 0)"/>
       <use xlink:href="#DejaVuSans-75" transform="translate(477.091797 0)"/>
       <use xlink:href="#DejaVuSans-72" transform="translate(540.470703 0)"/>
       <use xlink:href="#DejaVuSans-65" transform="translate(579.333984 0)"/>
      </g>
     </g>
    </g>
    <g id="ytick_18">
     <g id="line2d_24">
      <g>
       <use xlink:href="#mb3796f2fbd" x="250.80625" y="250.868862" style="stroke: #000000; stroke-width: 0.8"/>
      </g>
     </g>
     <g id="text_25">
      <!-- Interictal epileptiform activity -->
      <g transform="translate(95.440625 254.668081) scale(0.1 -0.1)">
       <defs>
        <path id="DejaVuSans-49" d="M 628 4666 
L 1259 4666 
L 1259 0 
L 628 0 
L 628 4666 
z
" transform="scale(0.015625)"/>
       </defs>
       <use xlink:href="#DejaVuSans-49"/>
       <use xlink:href="#DejaVuSans-6e" transform="translate(29.492188 0)"/>
       <use xlink:href="#DejaVuSans-74" transform="translate(92.871094 0)"/>
       <use xlink:href="#DejaVuSans-65" transform="translate(132.080078 0)"/>
       <use xlink:href="#DejaVuSans-72" transform="translate(193.603516 0)"/>
       <use xlink:href="#DejaVuSans-69" transform="translate(234.716797 0)"/>
       <use xlink:href="#DejaVuSans-63" transform="translate(262.5 0)"/>
       <use xlink:href="#DejaVuSans-74" transform="translate(317.480469 0)"/>
       <use xlink:href="#DejaVuSans-61" transform="translate(356.689453 0)"/>
       <use xlink:href="#DejaVuSans-6c" transform="translate(417.96875 0)"/>
       <use xlink:href="#DejaVuSans-20" transform="translate(445.751953 0)"/>
       <use xlink:href="#DejaVuSans-65" transform="translate(477.539062 0)"/>
       <use xlink:href="#DejaVuSans-70" transform="translate(539.0625 0)"/>
       <use xlink:href="#DejaVuSans-69" transform="translate(602.539062 0)"/>
       <use xlink:href="#DejaVuSans-6c" transform="translate(630.322266 0)"/>
       <use xlink:href="#DejaVuSans-65" transform="translate(658.105469 0)"/>
       <use xlink:href="#DejaVuSans-70" transform="translate(719.628906 0)"/>
       <use xlink:href="#DejaVuSans-74" transform="translate(783.105469 0)"/>
       <use xlink:href="#DejaVuSans-69" transform="translate(822.314453 0)"/>
       <use xlink:href="#DejaVuSans-66" transform="translate(850.097656 0)"/>
       <use xlink:href="#DejaVuSans-6f" transform="translate(885.302734 0)"/>
       <use xlink:href="#DejaVuSans-72" transform="translate(946.484375 0)"/>
       <use xlink:href="#DejaVuSans-6d" transform="translate(985.847656 0)"/>
       <use xlink:href="#DejaVuSans-20" transform="translate(1083.259766 0)"/>
       <use xlink:href="#DejaVuSans-61" transform="translate(1115.046875 0)"/>
       <use xlink:href="#DejaVuSans-63" transform="translate(1176.326172 0)"/>
       <use xlink:href="#DejaVuSans-74" transform="translate(1231.306641 0)"/>
       <use xlink:href="#DejaVuSans-69" transform="translate(1270.515625 0)"/>
       <use xlink:href="#DejaVuSans-76" transform="translate(1298.298828 0)"/>
       <use xlink:href="#DejaVuSans-69" transform="translate(1357.478516 0)"/>
       <use xlink:href="#DejaVuSans-74" transform="translate(1385.261719 0)"/>
       <use xlink:href="#DejaVuSans-79" transform="translate(1424.470703 0)"/>
      </g>
     </g>
    </g>
    <g id="ytick_19">
     <g id="line2d_25">
      <g>
       <use xlink:href="#mb3796f2fbd" x="250.80625" y="263.601493" style="stroke: #000000; stroke-width: 0.8"/>
      </g>
     </g>
     <g id="text_26">
      <!-- Osteosarcoma -->
      <g transform="translate(171.823438 267.400712) scale(0.1 -0.1)">
       <defs>
        <path id="DejaVuSans-4f" d="M 2522 4238 
Q 1834 4238 1429 3725 
Q 1025 3213 1025 2328 
Q 1025 1447 1429 934 
Q 1834 422 2522 422 
Q 3209 422 3611 934 
Q 4013 1447 4013 2328 
Q 4013 3213 3611 3725 
Q 3209 4238 2522 4238 
z
M 2522 4750 
Q 3503 4750 4090 4092 
Q 4678 3434 4678 2328 
Q 4678 1225 4090 567 
Q 3503 -91 2522 -91 
Q 1538 -91 948 565 
Q 359 1222 359 2328 
Q 359 3434 948 4092 
Q 1538 4750 2522 4750 
z
" transform="scale(0.015625)"/>
       </defs>
       <use xlink:href="#DejaVuSans-4f"/>
       <use xlink:href="#DejaVuSans-73" transform="translate(78.710938 0)"/>
       <use xlink:href="#DejaVuSans-74" transform="translate(130.810547 0)"/>
       <use xlink:href="#DejaVuSans-65" transform="translate(170.019531 0)"/>
       <use xlink:href="#DejaVuSans-6f" transform="translate(231.542969 0)"/>
       <use xlink:href="#DejaVuSans-73" transform="translate(292.724609 0)"/>
       <use xlink:href="#DejaVuSans-61" transform="translate(344.824219 0)"/>
       <use xlink:href="#DejaVuSans-72" transform="translate(406.103516 0)"/>
       <use xlink:href="#DejaVuSans-63" transform="translate(444.966797 0)"/>
       <use xlink:href="#DejaVuSans-6f" transform="translate(499.947266 0)"/>
       <use xlink:href="#DejaVuSans-6d" transform="translate(561.128906 0)"/>
       <use xlink:href="#DejaVuSans-61" transform="translate(658.541016 0)"/>
      </g>
     </g>
    </g>
    <g id="ytick_20">
     <g id="line2d_26">
      <g>
       <use xlink:href="#mb3796f2fbd" x="250.80625" y="276.334125" style="stroke: #000000; stroke-width: 0.8"/>
      </g>
     </g>
     <g id="text_27">
      <!-- Obsessive-compulsive trait -->
      <g transform="translate(108.429688 280.133344) scale(0.1 -0.1)">
       <use xlink:href="#DejaVuSans-4f"/>
       <use xlink:href="#DejaVuSans-62" transform="translate(78.710938 0)"/>
       <use xlink:href="#DejaVuSans-73" transform="translate(142.1875 0)"/>
       <use xlink:href="#DejaVuSans-65" transform="translate(194.287109 0)"/>
       <use xlink:href="#DejaVuSans-73" transform="translate(255.810547 0)"/>
       <use xlink:href="#DejaVuSans-73" transform="translate(307.910156 0)"/>
       <use xlink:href="#DejaVuSans-69" transform="translate(360.009766 0)"/>
       <use xlink:href="#DejaVuSans-76" transform="translate(387.792969 0)"/>
       <use xlink:href="#DejaVuSans-65" transform="translate(446.972656 0)"/>
       <use xlink:href="#DejaVuSans-2d" transform="translate(508.496094 0)"/>
       <use xlink:href="#DejaVuSans-63" transform="translate(544.580078 0)"/>
       <use xlink:href="#DejaVuSans-6f" transform="translate(599.560547 0)"/>
       <use xlink:href="#DejaVuSans-6d" transform="translate(660.742188 0)"/>
       <use xlink:href="#DejaVuSans-70" transform="translate(758.154297 0)"/>
       <use xlink:href="#DejaVuSans-75" transform="translate(821.630859 0)"/>
       <use xlink:href="#DejaVuSans-6c" transform="translate(885.009766 0)"/>
       <use xlink:href="#DejaVuSans-73" transform="translate(912.792969 0)"/>
       <use xlink:href="#DejaVuSans-69" transform="translate(964.892578 0)"/>
       <use xlink:href="#DejaVuSans-76" transform="translate(992.675781 0)"/>
       <use xlink:href="#DejaVuSans-65" transform="translate(1051.855469 0)"/>
       <use xlink:href="#DejaVuSans-20" transform="translate(1113.378906 0)"/>
       <use xlink:href="#DejaVuSans-74" transform="translate(1145.166016 0)"/>
       <use xlink:href="#DejaVuSans-72" transform="translate(1184.375 0)"/>
       <use xlink:href="#DejaVuSans-61" transform="translate(1225.488281 0)"/>
       <use xlink:href="#DejaVuSans-69" transform="translate(1286.767578 0)"/>
       <use xlink:href="#DejaVuSans-74" transform="translate(1314.550781 0)"/>
      </g>
     </g>
    </g>
   </g>
   <g id="line2d_27"/>
   <g id="line2d_28"/>
   <g id="line2d_29"/>
   <g id="line2d_30"/>
   <g id="line2d_31"/>
   <g id="line2d_32"/>
   <g id="line2d_33"/>
   <g id="line2d_34"/>
   <g id="line2d_35"/>
   <g id="line2d_36"/>
   <g id="line2d_37"/>
   <g id="line2d_38"/>
   <g id="patch_3">
    <path d="M 250.80625 288.430125 
L 250.80625 22.318125 
" style="fill: none; stroke: #000000; stroke-width: 0.8; stroke-linejoin: miter; stroke-linecap: square"/>
   </g>
   <g id="patch_4">
    <path d="M 607.92625 288.430125 
L 607.92625 22.318125 
" style="fill: none; stroke: #000000; stroke-width: 0.8; stroke-linejoin: miter; stroke-linecap: square"/>
   </g>
   <g id="patch_5">
    <path d="M 250.80625 288.430125 
L 607.92625 288.430125 
" style="fill: none; stroke: #000000; stroke-width: 0.8; stroke-linejoin: miter; stroke-linecap: square"/>
   </g>
   <g id="patch_6">
    <path d="M 250.80625 22.318125 
L 607.92625 22.318125 
" style="fill: none; stroke: #000000; stroke-width: 0.8; stroke-linejoin: miter; stroke-linecap: square"/>
   </g>
   <g id="text_28">
    <!-- Top 20 Enriched Phenotypes -->
    <g transform="translate(344.44 16.318125) scale(0.12 -0.12)">
     <use xlink:href="#DejaVuSans-54"/>
     <use xlink:href="#DejaVuSans-6f" transform="translate(44.083984 0)"/>
     <use xlink:href="#DejaVuSans-70" transform="translate(105.265625 0)"/>
     <use xlink:href="#DejaVuSans-20" transform="translate(168.742188 0)"/>
     <use xlink:href="#DejaVuSans-32" transform="translate(200.529297 0)"/>
     <use xlink:href="#DejaVuSans-30" transform="translate(264.152344 0)"/>
     <use xlink:href="#DejaVuSans-20" transform="translate(327.775391 0)"/>
     <use xlink:href="#DejaVuSans-45" transform="translate(359.5625 0)"/>
     <use xlink:href="#DejaVuSans-6e" transform="translate(422.746094 0)"/>
     <use xlink:href="#DejaVuSans-72" transform="translate(486.125 0)"/>
     <use xlink:href="#DejaVuSans-69" transform="translate(527.238281 0)"/>
     <use xlink:href="#DejaVuSans-63" transform="translate(555.021484 0)"/>
     <use xlink:href="#DejaVuSans-68" transform="translate(610.001953 0)"/>
     <use xlink:href="#DejaVuSans-65" transform="translate(673.380859 0)"/>
     <use xlink:href="#DejaVuSans-64" transform="translate(734.904297 0)"/>
     <use xlink:href="#DejaVuSans-20" transform="translate(798.380859 0)"/>
     <use xlink:href="#DejaVuSans-50" transform="translate(830.167969 0)"/>
     <use xlink:href="#DejaVuSans-68" transform="translate(890.470703 0)"/>
     <use xlink:href="#DejaVuSans-65" transform="translate(953.849609 0)"/>
     <use xlink:href="#DejaVuSans-6e" transform="translate(1015.373047 0)"/>
     <use xlink:href="#DejaVuSans-6f" transform="translate(1078.751953 0)"/>
     <use xlink:href="#DejaVuSans-74" transform="translate(1139.933594 0)"/>
     <use xlink:href="#DejaVuSans-79" transform="translate(1179.142578 0)"/>
     <use xlink:href="#DejaVuSans-70" transform="translate(1238.322266 0)"/>
     <use xlink:href="#DejaVuSans-65" transform="translate(1301.798828 0)"/>
     <use xlink:href="#DejaVuSans-73" transform="translate(1363.322266 0)"/>
    </g>
   </g>
   <g id="legend_1">
    <g id="patch_7">
     <path d="M 614.92625 206.455625 
L 702.165313 206.455625 
Q 704.165313 206.455625 704.165313 204.455625 
L 704.165313 29.318125 
Q 704.165313 27.318125 702.165313 27.318125 
L 614.92625 27.318125 
Q 612.92625 27.318125 612.92625 29.318125 
L 612.92625 204.455625 
Q 612.92625 206.455625 614.92625 206.455625 
z
" style="fill: #ffffff; opacity: 0.8; stroke: #cccccc; stroke-linejoin: miter"/>
    </g>
    <g id="line2d_39"/>
    <g id="text_29">
     <!-- -log10 FDR -->
     <g transform="translate(644.92625 38.916562) scale(0.1 -0.1)">
      <defs>
       <path id="DejaVuSans-31" d="M 794 531 
L 1825 531 
L 1825 4091 
L 703 3866 
L 703 4441 
L 1819 4666 
L 2450 4666 
L 2450 531 
L 3481 531 
L 3481 0 
L 794 0 
L 794 531 
z
" transform="scale(0.015625)"/>
       <path id="DejaVuSans-44" d="M 1259 4147 
L 1259 519 
L 2022 519 
Q 2988 519 3436 956 
Q 3884 1394 3884 2338 
Q 3884 3275 3436 3711 
Q 2988 4147 2022 4147 
L 1259 4147 
z
M 628 4666 
L 1925 4666 
Q 3281 4666 3915 4102 
Q 4550 3538 4550 2338 
Q 4550 1131 3912 565 
Q 3275 0 1925 0 
L 628 0 
L 628 4666 
z
" transform="scale(0.015625)"/>
      </defs>
      <use xlink:href="#DejaVuSans-2d"/>
      <use xlink:href="#DejaVuSans-6c" transform="translate(36.083984 0)"/>
      <use xlink:href="#DejaVuSans-6f" transform="translate(63.867188 0)"/>
      <use xlink:href="#DejaVuSans-67" transform="translate(125.048828 0)"/>
      <use xlink:href="#DejaVuSans-31" transform="translate(188.525391 0)"/>
      <use xlink:href="#DejaVuSans-30" transform="translate(252.148438 0)"/>
      <use xlink:href="#DejaVuSans-20" transform="translate(315.771484 0)"/>
      <use xlink:href="#DejaVuSans-46" transform="translate(347.558594 0)"/>
      <use xlink:href="#DejaVuSans-44" transform="translate(405.078125 0)"/>
      <use xlink:href="#DejaVuSans-52" transform="translate(482.080078 0)"/>
     </g>
    </g>
    <g id="line2d_40">
     <defs>
      <path id="m9320e81d45" d="M 0 3 
C 0.795609 3 1.55874 2.683901 2.12132 2.12132 
C 2.683901 1.55874 3 0.795609 3 0 
C 3 -0.795609 2.683901 -1.55874 2.12132 -2.12132 
C 1.55874 -2.683901 0.795609 -3 0 -3 
C -0.795609 -3 -1.55874 -2.683901 -2.12132 -2.12132 
C -2.683901 -1.55874 -3 -0.795609 -3 0 
C -3 0.795609 -2.683901 1.55874 -2.12132 2.12132 
C -1.55874 2.683901 -0.795609 3 0 3 
z
" style="stroke: #ffffff; stroke-width: 0.441499"/>
     </defs>
     <g>
      <use xlink:href="#m9320e81d45" x="626.92625" y="50.094688" style="fill: #6f92f3; stroke: #ffffff; stroke-width: 0.441499"/>
     </g>
    </g>
    <g id="text_30">
     <!-- 6 -->
     <g transform="translate(644.92625 53.594688) scale(0.1 -0.1)">
      <use xlink:href="#DejaVuSans-36"/>
     </g>
    </g>
    <g id="line2d_41">
     <defs>
      <path id="mea99f76def" d="M 0 3 
C 0.795609 3 1.55874 2.683901 2.12132 2.12132 
C 2.683901 1.55874 3 0.795609 3 0 
C 3 -0.795609 2.683901 -1.55874 2.12132 -2.12132 
C 1.55874 -2.683901 0.795609 -3 0 -3 
C -0.795609 -3 -1.55874 -2.683901 -2.12132 -2.12132 
C -2.683901 -1.55874 -3 -0.795609 -3 0 
C -3 0.795609 -2.683901 1.55874 -2.12132 2.12132 
C -1.55874 2.683901 -0.795609 3 0 3 
z
" style="stroke: #ffffff; stroke-width: 0.441499"/>
     </defs>
     <g>
      <use xlink:href="#mea99f76def" x="626.92625" y="64.772812" style="fill: #abc8fd; stroke: #ffffff; stroke-width: 0.441499"/>
     </g>
    </g>
    <g id="text_31">
     <!-- 8 -->
     <g transform="translate(644.92625 68.272812) scale(0.1 -0.1)">
      <use xlink:href="#DejaVuSans-38"/>
     </g>
    </g>
    <g id="line2d_42">
     <defs>
      <path id="m06fde09f16" d="M 0 3 
C 0.795609 3 1.55874 2.683901 2.12132 2.12132 
C 2.683901 1.55874 3 0.795609 3 0 
C 3 -0.795609 2.683901 -1.55874 2.12132 -2.12132 
C 1.55874 -2.683901 0.795609 -3 0 -3 
C -0.795609 -3 -1.55874 -2.683901 -2.12132 -2.12132 
C -2.683901 -1.55874 -3 -0.795609 -3 0 
C -3 0.795609 -2.683901 1.55874 -2.12132 2.12132 
C -1.55874 2.683901 -0.795609 3 0 3 
z
" style="stroke: #ffffff; stroke-width: 0.441499"/>
     </defs>
     <g>
      <use xlink:href="#m06fde09f16" x="626.92625" y="79.450938" style="fill: #dedcdb; stroke: #ffffff; stroke-width: 0.441499"/>
     </g>
    </g>
    <g id="text_32">
     <!-- 10 -->
     <g transform="translate(644.92625 82.950938) scale(0.1 -0.1)">
      <use xlink:href="#DejaVuSans-31"/>
      <use xlink:href="#DejaVuSans-30" transform="translate(63.623047 0)"/>
     </g>
    </g>
    <g id="line2d_43">
     <defs>
      <path id="m655304ad60" d="M 0 3 
C 0.795609 3 1.55874 2.683901 2.12132 2.12132 
C 2.683901 1.55874 3 0.795609 3 0 
C 3 -0.795609 2.683901 -1.55874 2.12132 -2.12132 
C 1.55874 -2.683901 0.795609 -3 0 -3 
C -0.795609 -3 -1.55874 -2.683901 -2.12132 -2.12132 
C -2.683901 -1.55874 -3 -0.795609 -3 0 
C -3 0.795609 -2.683901 1.55874 -2.12132 2.12132 
C -1.55874 2.683901 -0.795609 3 0 3 
z
" style="stroke: #ffffff; stroke-width: 0.441499"/>
     </defs>
     <g>
      <use xlink:href="#m655304ad60" x="626.92625" y="94.129063" style="fill: #f7b599; stroke: #ffffff; stroke-width: 0.441499"/>
     </g>
    </g>
    <g id="text_33">
     <!-- 12 -->
     <g transform="translate(644.92625 97.629063) scale(0.1 -0.1)">
      <use xlink:href="#DejaVuSans-31"/>
      <use xlink:href="#DejaVuSans-32" transform="translate(63.623047 0)"/>
     </g>
    </g>
    <g id="line2d_44">
     <defs>
      <path id="md94965dc6e" d="M 0 3 
C 0.795609 3 1.55874 2.683901 2.12132 2.12132 
C 2.683901 1.55874 3 0.795609 3 0 
C 3 -0.795609 2.683901 -1.55874 2.12132 -2.12132 
C 1.55874 -2.683901 0.795609 -3 0 -3 
C -0.795609 -3 -1.55874 -2.683901 -2.12132 -2.12132 
C -2.683901 -1.55874 -3 -0.795609 -3 0 
C -3 0.795609 -2.683901 1.55874 -2.12132 2.12132 
C -1.55874 2.683901 -0.795609 3 0 3 
z
" style="stroke: #ffffff; stroke-width: 0.441499"/>
     </defs>
     <g>
      <use xlink:href="#md94965dc6e" x="626.92625" y="108.807187" style="fill: #e57058; stroke: #ffffff; stroke-width: 0.441499"/>
     </g>
    </g>
    <g id="text_34">
     <!-- 14 -->
     <g transform="translate(644.92625 112.307187) scale(0.1 -0.1)">
      <use xlink:href="#DejaVuSans-31"/>
      <use xlink:href="#DejaVuSans-34" transform="translate(63.623047 0)"/>
     </g>
    </g>
    <g id="line2d_45"/>
    <g id="text_35">
     <!-- Gene Ratio -->
     <g transform="translate(644.92625 126.985313) scale(0.1 -0.1)">
      <defs>
       <path id="DejaVuSans-47" d="M 3809 666 
L 3809 1919 
L 2778 1919 
L 2778 2438 
L 4434 2438 
L 4434 434 
Q 4069 175 3628 42 
Q 3188 -91 2688 -91 
Q 1594 -91 976 548 
Q 359 1188 359 2328 
Q 359 3472 976 4111 
Q 1594 4750 2688 4750 
Q 3144 4750 3555 4637 
Q 3966 4525 4313 4306 
L 4313 3634 
Q 3963 3931 3569 4081 
Q 3175 4231 2741 4231 
Q 1884 4231 1454 3753 
Q 1025 3275 1025 2328 
Q 1025 1384 1454 906 
Q 1884 428 2741 428 
Q 3075 428 3337 486 
Q 3600 544 3809 666 
z
" transform="scale(0.015625)"/>
      </defs>
      <use xlink:href="#DejaVuSans-47"/>
      <use xlink:href="#DejaVuSans-65" transform="translate(77.490234 0)"/>
      <use xlink:href="#DejaVuSans-6e" transform="translate(139.013672 0)"/>
      <use xlink:href="#DejaVuSans-65" transform="translate(202.392578 0)"/>
      <use xlink:href="#DejaVuSans-20" transform="translate(263.916016 0)"/>
      <use xlink:href="#DejaVuSans-52" transform="translate(295.703125 0)"/>
      <use xlink:href="#DejaVuSans-61" transform="translate(362.935547 0)"/>
      <use xlink:href="#DejaVuSans-74" transform="translate(424.214844 0)"/>
      <use xlink:href="#DejaVuSans-69" transform="translate(463.423828 0)"/>
      <use xlink:href="#DejaVuSans-6f" transform="translate(491.207031 0)"/>
     </g>
    </g>
    <g id="line2d_46">
     <defs>
      <path id="m3aeba6ade9" d="M 0 3.277161 
C 0.869113 3.277161 1.702747 2.931858 2.317303 2.317303 
C 2.931858 1.702747 3.277161 0.869113 3.277161 0 
C 3.277161 -0.869113 2.931858 -1.702747 2.317303 -2.317303 
C 1.702747 -2.931858 0.869113 -3.277161 0 -3.277161 
C -0.869113 -3.277161 -1.702747 -2.931858 -2.317303 -2.317303 
C -2.931858 -1.702747 -3.277161 -0.869113 -3.277161 0 
C -3.277161 0.869113 -2.931858 1.702747 -2.317303 2.317303 
C -1.702747 2.931858 -0.869113 3.277161 0 3.277161 
z
" style="stroke: #ffffff; stroke-width: 0.441499"/>
     </defs>
     <g>
      <use xlink:href="#m3aeba6ade9" x="626.92625" y="138.163437" style="fill: #333333; stroke: #ffffff; stroke-width: 0.441499"/>
     </g>
    </g>
    <g id="text_36">
     <!-- 0.004 -->
     <g transform="translate(644.92625 141.663437) scale(0.1 -0.1)">
      <use xlink:href="#DejaVuSans-30"/>
      <use xlink:href="#DejaVuSans-2e" transform="translate(63.623047 0)"/>
      <use xlink:href="#DejaVuSans-30" transform="translate(95.410156 0)"/>
      <use xlink:href="#DejaVuSans-30" transform="translate(159.033203 0)"/>
      <use xlink:href="#DejaVuSans-34" transform="translate(222.65625 0)"/>
     </g>
    </g>
    <g id="line2d_47">
     <defs>
      <path id="m1c30212938" d="M 0 4.140324 
C 1.098027 4.140324 2.151229 3.704073 2.927651 2.927651 
C 3.704073 2.151229 4.140324 1.098027 4.140324 0 
C 4.140324 -1.098027 3.704073 -2.151229 2.927651 -2.927651 
C 2.151229 -3.704073 1.098027 -4.140324 0 -4.140324 
C -1.098027 -4.140324 -2.151229 -3.704073 -2.927651 -2.927651 
C -3.704073 -2.151229 -4.140324 -1.098027 -4.140324 0 
C -4.140324 1.098027 -3.704073 2.151229 -2.927651 2.927651 
C -2.151229 3.704073 -1.098027 4.140324 0 4.140324 
z
" style="stroke: #ffffff; stroke-width: 0.441499"/>
     </defs>
     <g>
      <use xlink:href="#m1c30212938" x="626.92625" y="152.841563" style="fill: #333333; stroke: #ffffff; stroke-width: 0.441499"/>
     </g>
    </g>
    <g id="text_37">
     <!-- 0.006 -->
     <g transform="translate(644.92625 156.341563) scale(0.1 -0.1)">
      <use xlink:href="#DejaVuSans-30"/>
      <use xlink:href="#DejaVuSans-2e" transform="translate(63.623047 0)"/>
      <use xlink:href="#DejaVuSans-30" transform="translate(95.410156 0)"/>
      <use xlink:href="#DejaVuSans-30" transform="translate(159.033203 0)"/>
      <use xlink:href="#DejaVuSans-36" transform="translate(222.65625 0)"/>
     </g>
    </g>
    <g id="line2d_48">
     <defs>
      <path id="m7695289248" d="M 0 4.852297 
C 1.286844 4.852297 2.521156 4.341028 3.431092 3.431092 
C 4.341028 2.521156 4.852297 1.286844 4.852297 0 
C 4.852297 -1.286844 4.341028 -2.521156 3.431092 -3.431092 
C 2.521156 -4.341028 1.286844 -4.852297 0 -4.852297 
C -1.286844 -4.852297 -2.521156 -4.341028 -3.431092 -3.431092 
C -4.341028 -2.521156 -4.852297 -1.286844 -4.852297 0 
C -4.852297 1.286844 -4.341028 2.521156 -3.431092 3.431092 
C -2.521156 4.341028 -1.286844 4.852297 0 4.852297 
z
" style="stroke: #ffffff; stroke-width: 0.441499"/>
     </defs>
     <g>
      <use xlink:href="#m7695289248" x="626.92625" y="167.519687" style="fill: #333333; stroke: #ffffff; stroke-width: 0.441499"/>
     </g>
    </g>
    <g id="text_38">
     <!-- 0.008 -->
     <g transform="translate(644.92625 171.019687) scale(0.1 -0.1)">
      <use xlink:href="#DejaVuSans-30"/>
      <use xlink:href="#DejaVuSans-2e" transform="translate(63.623047 0)"/>
      <use xlink:href="#DejaVuSans-30" transform="translate(95.410156 0)"/>
      <use xlink:href="#DejaVuSans-30" transform="translate(159.033203 0)"/>
      <use xlink:href="#DejaVuSans-38" transform="translate(222.65625 0)"/>
     </g>
    </g>
    <g id="line2d_49">
     <defs>
      <path id="m6d63450e07" d="M 0 5.472411 
C 1.4513 5.472411 2.843355 4.895803 3.869579 3.869579 
C 4.895803 2.843355 5.472411 1.4513 5.472411 0 
C 5.472411 -1.4513 4.895803 -2.843355 3.869579 -3.869579 
C 2.843355 -4.895803 1.4513 -5.472411 0 -5.472411 
C -1.4513 -5.472411 -2.843355 -4.895803 -3.869579 -3.869579 
C -4.895803 -2.843355 -5.472411 -1.4513 -5.472411 0 
C -5.472411 1.4513 -4.895803 2.843355 -3.869579 3.869579 
C -2.843355 4.895803 -1.4513 5.472411 0 5.472411 
z
" style="stroke: #ffffff; stroke-width: 0.441499"/>
     </defs>
     <g>
      <use xlink:href="#m6d63450e07" x="626.92625" y="182.197812" style="fill: #333333; stroke: #ffffff; stroke-width: 0.441499"/>
     </g>
    </g>
    <g id="text_39">
     <!-- 0.010 -->
     <g transform="translate(644.92625 185.697812) scale(0.1 -0.1)">
      <use xlink:href="#DejaVuSans-30"/>
      <use xlink:href="#DejaVuSans-2e" transform="translate(63.623047 0)"/>
      <use xlink:href="#DejaVuSans-30" transform="translate(95.410156 0)"/>
      <use xlink:href="#DejaVuSans-31" transform="translate(159.033203 0)"/>
      <use xlink:href="#DejaVuSans-30" transform="translate(222.65625 0)"/>
     </g>
    </g>
    <g id="line2d_50">
     <defs>
      <path id="m1118f84512" d="M 0 6.029078 
C 1.59893 6.029078 3.132588 5.393816 4.263202 4.263202 
C 5.393816 3.132588 6.029078 1.59893 6.029078 0 
C 6.029078 -1.59893 5.393816 -3.132588 4.263202 -4.263202 
C 3.132588 -5.393816 1.59893 -6.029078 0 -6.029078 
C -1.59893 -6.029078 -3.132588 -5.393816 -4.263202 -4.263202 
C -5.393816 -3.132588 -6.029078 -1.59893 -6.029078 0 
C -6.029078 1.59893 -5.393816 3.132588 -4.263202 4.263202 
C -3.132588 5.393816 -1.59893 6.029078 0 6.029078 
z
" style="stroke: #ffffff; stroke-width: 0.441499"/>
     </defs>
     <g>
      <use xlink:href="#m1118f84512" x="626.92625" y="196.875937" style="fill: #333333; stroke: #ffffff; stroke-width: 0.441499"/>
     </g>
    </g>
    <g id="text_40">
     <!-- 0.012 -->
     <g transform="translate(644.92625 200.375937) scale(0.1 -0.1)">
      <use xlink:href="#DejaVuSans-30"/>
      <use xlink:href="#DejaVuSans-2e" transform="translate(63.623047 0)"/>
      <use xlink:href="#DejaVuSans-30" transform="translate(95.410156 0)"/>
      <use xlink:href="#DejaVuSans-31" transform="translate(159.033203 0)"/>
      <use xlink:href="#DejaVuSans-32" transform="translate(222.65625 0)"/>
     </g>
    </g>
   </g>
  </g>
 </g>
 <defs>
  <clipPath id="pf11e4a24f8">
   <rect x="250.80625" y="22.318125" width="357.12" height="266.112"/>
  </clipPath>
 </defs>
</svg>
