<?xml version="1.0" encoding="utf-8" standalone="no"?>
<!DOCTYPE svg PUBLIC "-//W3C//DTD SVG 1.1//EN"
  "http://www.w3.org/Graphics/SVG/1.1/DTD/svg11.dtd">
<svg xmlns:xlink="http://www.w3.org/1999/xlink" width="667.368438pt" height="325.986375pt" viewBox="0 0 667.368438 325.986375" xmlns="http://www.w3.org/2000/svg" version="1.1">
 <metadata>
  <rdf:RDF xmlns:dc="http://purl.org/dc/elements/1.1/" xmlns:cc="http://creativecommons.org/ns#" xmlns:rdf="http://www.w3.org/1999/02/22-rdf-syntax-ns#">
   <cc:Work>
    <dc:type rdf:resource="http://purl.org/dc/dcmitype/StillImage"/>
    <dc:date>2025-12-27T20:08:29.795614</dc:date>
    <dc:format>image/svg+xml</dc:format>
    <dc:creator>
     <cc:Agent>
      <dc:title>Matplotlib v3.10.7, https://matplotlib.org/</dc:title>
     </cc:Agent>
    </dc:creator>
   </cc:Work>
  </rdf:RDF>
 </metadata>
 <defs>
  <style type="text/css">*{stroke-linejoin: round; stroke-linecap: butt}</style>
 </defs>
 <g id="figure_1">
  <g id="patch_1">
   <path d="M 0 325.986375 
L 667.368438 325.986375 
L 667.368438 0 
L 0 0 
z
" style="fill: #ffffff"/>
  </g>
  <g id="axes_1">
   <g id="patch_2">
    <path d="M 206.809375 288.430125 
L 563.929375 288.430125 
L 563.929375 22.318125 
L 206.809375 22.318125 
z
" style="fill: #ffffff"/>
   </g>
   <g id="PathCollection_1">
    <path d="M 547.696648 36.650193 
C 548.28966 36.650193 548.858464 36.414587 549.277787 35.995264 
C 549.697109 35.575941 549.932716 35.007137 549.932716 34.414125 
C 549.932716 33.821113 549.697109 33.252309 549.277787 32.832986 
C 548.858464 32.413663 548.28966 32.178057 547.696648 32.178057 
C 547.103636 32.178057 546.534832 32.413663 546.115509 32.832986 
C 545.696186 33.252309 545.46058 33.821113 545.46058 34.414125 
C 545.46058 35.007137 545.696186 35.575941 546.115509 35.995264 
C 546.534832 36.414587 547.103636 36.650193 547.696648 36.650193 
z
" clip-path="url(#p149ec22ba6)" style="fill: #3f53c6; stroke: #ffffff; stroke-width: 0.380936"/>
    <path d="M 465.229498 49.718424 
C 465.911513 49.718424 466.565685 49.447457 467.047942 48.9652 
C 467.530199 48.482943 467.801166 47.828771 467.801166 47.146757 
C 467.801166 46.464742 467.530199 45.81057 467.047942 45.328313 
C 466.565685 44.846056 465.911513 44.575089 465.229498 44.575089 
C 464.547484 44.575089 463.893312 44.846056 463.411055 45.328313 
C 462.928798 45.81057 462.657831 46.464742 462.657831 47.146757 
C 462.657831 47.828771 462.928798 48.482943 463.411055 48.9652 
C 463.893312 49.447457 464.547484 49.718424 465.229498 49.718424 
z
" clip-path="url(#p149ec22ba6)" style="fill: #506bda; stroke: #ffffff; stroke-width: 0.380936"/>
    <path d="M 461.360072 64.218718 
C 462.510876 64.218718 463.614701 63.761499 464.428442 62.947758 
C 465.242183 62.134017 465.699402 61.030192 465.699402 59.879388 
C 465.699402 58.728584 465.242183 57.624759 464.428442 56.811018 
C 463.614701 55.997277 462.510876 55.540058 461.360072 55.540058 
C 460.209268 55.540058 459.105443 55.997277 458.291702 56.811018 
C 457.477961 57.624759 457.020742 58.728584 457.020742 59.879388 
C 457.020742 61.030192 457.477961 62.134017 458.291702 62.947758 
C 459.105443 63.761499 460.209268 64.218718 461.360072 64.218718 
z
" clip-path="url(#p149ec22ba6)" style="fill: #f7bca1; stroke: #ffffff; stroke-width: 0.380936"/>
    <path d="M 447.13993 75.559551 
C 447.921625 75.559551 448.671408 75.248981 449.22415 74.696239 
C 449.776891 74.143498 450.087462 73.393714 450.087462 72.61202 
C 450.087462 71.830325 449.776891 71.080542 449.22415 70.5278 
C 448.671408 69.975059 447.921625 69.664488 447.13993 69.664488 
C 446.358236 69.664488 445.608452 69.975059 445.05571 70.5278 
C 444.502969 71.080542 444.192398 71.830325 444.192398 72.61202 
C 444.192398 73.393714 444.502969 74.143498 445.05571 74.696239 
C 445.608452 75.248981 446.358236 75.559551 447.13993 75.559551 
z
" clip-path="url(#p149ec22ba6)" style="fill: #6e90f2; stroke: #ffffff; stroke-width: 0.380936"/>
    <path d="M 446.149224 87.96075 
C 446.843021 87.96075 447.508496 87.685101 447.999085 87.194512 
C 448.489673 86.703923 448.765322 86.038449 448.765322 85.344651 
C 448.765322 84.650854 448.489673 83.985379 447.999085 83.49479 
C 447.508496 83.004201 446.843021 82.728553 446.149224 82.728553 
C 445.455426 82.728553 444.789951 83.004201 444.299363 83.49479 
C 443.808774 83.985379 443.533125 84.650854 443.533125 85.344651 
C 443.533125 86.038449 443.808774 86.703923 444.299363 87.194512 
C 444.789951 87.685101 445.455426 87.96075 446.149224 87.96075 
z
" clip-path="url(#p149ec22ba6)" style="fill: #506bda; stroke: #ffffff; stroke-width: 0.380936"/>
    <path d="M 434.826863 100.41416 
C 435.44661 100.41416 436.041057 100.167932 436.479284 99.729704 
C 436.917511 99.291477 437.163739 98.69703 437.163739 98.077283 
C 437.163739 97.457536 436.917511 96.863089 436.479284 96.424862 
C 436.041057 95.986634 435.44661 95.740406 434.826863 95.740406 
C 434.207116 95.740406 433.612669 95.986634 433.174441 96.424862 
C 432.736214 96.863089 432.489986 97.457536 432.489986 98.077283 
C 432.489986 98.69703 432.736214 99.291477 433.174441 99.729704 
C 433.612669 100.167932 434.207116 100.41416 434.826863 100.41416 
z
" clip-path="url(#p149ec22ba6)" style="fill: #3d50c3; stroke: #ffffff; stroke-width: 0.380936"/>
    <path d="M 428.856891 114.12547 
C 429.736186 114.12547 430.579586 113.776122 431.201342 113.154366 
C 431.823098 112.53261 432.172446 111.68921 432.172446 110.809914 
C 432.172446 109.930619 431.823098 109.087219 431.201342 108.465463 
C 430.579586 107.843707 429.736186 107.494359 428.856891 107.494359 
C 427.977595 107.494359 427.134195 107.843707 426.512439 108.465463 
C 425.890683 109.087219 425.541335 109.930619 425.541335 110.809914 
C 425.541335 111.68921 425.890683 112.53261 426.512439 113.154366 
C 427.134195 113.776122 427.977595 114.12547 428.856891 114.12547 
z
" clip-path="url(#p149ec22ba6)" style="fill: #8db0fe; stroke: #ffffff; stroke-width: 0.380936"/>
    <path d="M 422.665808 126.069002 
C 423.335832 126.069002 423.978504 125.802798 424.452282 125.32902 
C 424.926061 124.855242 425.192264 124.21257 425.192264 123.542546 
C 425.192264 122.872522 424.926061 122.22985 424.452282 121.756072 
C 423.978504 121.282294 423.335832 121.01609 422.665808 121.01609 
C 421.995784 121.01609 421.353113 121.282294 420.879334 121.756072 
C 420.405556 122.22985 420.139353 122.872522 420.139353 123.542546 
C 420.139353 124.21257 420.405556 124.855242 420.879334 125.32902 
C 421.353113 125.802798 421.995784 126.069002 422.665808 126.069002 
z
" clip-path="url(#p149ec22ba6)" style="fill: #485fd1; stroke: #ffffff; stroke-width: 0.380936"/>
    <path d="M 380.102118 138.660862 
C 380.734809 138.660862 381.341672 138.409491 381.789052 137.962111 
C 382.236432 137.514731 382.487803 136.907868 382.487803 136.275178 
C 382.487803 135.642487 382.236432 135.035624 381.789052 134.588244 
C 381.341672 134.140864 380.734809 133.889493 380.102118 133.889493 
C 379.469428 133.889493 378.862565 134.140864 378.415185 134.588244 
C 377.967805 135.035624 377.716434 135.642487 377.716434 136.275178 
C 377.716434 136.907868 377.967805 137.514731 378.415185 137.962111 
C 378.862565 138.409491 379.469428 138.660862 380.102118 138.660862 
z
" clip-path="url(#p149ec22ba6)" style="fill: #3b4cc0; stroke: #ffffff; stroke-width: 0.380936"/>
    <path d="M 350.174524 152.39217 
C 351.072067 152.39217 351.93297 152.035573 352.567629 151.400914 
C 353.202287 150.766255 353.558885 149.905352 353.558885 149.007809 
C 353.558885 148.110266 353.202287 147.249363 352.567629 146.614704 
C 351.93297 145.980046 351.072067 145.623448 350.174524 145.623448 
C 349.276981 145.623448 348.416078 145.980046 347.781419 146.614704 
C 347.14676 147.249363 346.790163 148.110266 346.790163 149.007809 
C 346.790163 149.905352 347.14676 150.766255 347.781419 151.400914 
C 348.416078 152.035573 349.276981 152.39217 350.174524 152.39217 
z
" clip-path="url(#p149ec22ba6)" style="fill: #7b9ff9; stroke: #ffffff; stroke-width: 0.380936"/>
    <path d="M 325.377374 164.568241 
C 326.127315 164.568241 326.846642 164.270286 327.376931 163.739997 
C 327.907219 163.209709 328.205174 162.490382 328.205174 161.740441 
C 328.205174 160.990499 327.907219 160.271173 327.376931 159.740884 
C 326.846642 159.210595 326.127315 158.912641 325.377374 158.912641 
C 324.627433 158.912641 323.908106 159.210595 323.377817 159.740884 
C 322.847529 160.271173 322.549574 160.990499 322.549574 161.740441 
C 322.549574 162.490382 322.847529 163.209709 323.377817 163.739997 
C 323.908106 164.270286 324.627433 164.568241 325.377374 164.568241 
z
" clip-path="url(#p149ec22ba6)" style="fill: #4c66d6; stroke: #ffffff; stroke-width: 0.380936"/>
    <path d="M 303.487476 177.089171 
C 304.181274 177.089171 304.846749 176.813522 305.337337 176.322933 
C 305.827926 175.832345 306.103575 175.16687 306.103575 174.473072 
C 306.103575 173.779275 305.827926 173.1138 305.337337 172.623211 
C 304.846749 172.132622 304.181274 171.856974 303.487476 171.856974 
C 302.793679 171.856974 302.128204 172.132622 301.637615 172.623211 
C 301.147026 173.1138 300.871378 173.779275 300.871378 174.473072 
C 300.871378 175.16687 301.147026 175.832345 301.637615 176.322933 
C 302.128204 176.813522 302.793679 177.089171 303.487476 177.089171 
z
" clip-path="url(#p149ec22ba6)" style="fill: #3e51c5; stroke: #ffffff; stroke-width: 0.380936"/>
    <path d="M 297.275478 193.329428 
C 298.899509 193.329428 300.457242 192.684194 301.605605 191.535831 
C 302.753968 190.387468 303.399203 188.829735 303.399203 187.205704 
C 303.399203 185.581673 302.753968 184.02394 301.605605 182.875577 
C 300.457242 181.727214 298.899509 181.08198 297.275478 181.08198 
C 295.651448 181.08198 294.093714 181.727214 292.945351 182.875577 
C 291.796988 184.02394 291.151754 185.581673 291.151754 187.205704 
C 291.151754 188.829735 291.796988 190.387468 292.945351 191.535831 
C 294.093714 192.684194 295.651448 193.329428 297.275478 193.329428 
z
" clip-path="url(#p149ec22ba6)" style="fill: #b40426; stroke: #ffffff; stroke-width: 0.380936"/>
    <path d="M 281.745483 204.610192 
C 282.984474 204.610192 284.172886 204.117936 285.048985 203.241837 
C 285.925083 202.365738 286.41734 201.177326 286.41734 199.938336 
C 286.41734 198.699345 285.925083 197.510933 285.048985 196.634834 
C 284.172886 195.758735 282.984474 195.266479 281.745483 195.266479 
C 280.506493 195.266479 279.318081 195.758735 278.441982 196.634834 
C 277.565883 197.510933 277.073627 198.699345 277.073627 199.938336 
C 277.073627 201.177326 277.565883 202.365738 278.441982 203.241837 
C 279.318081 204.117936 280.506493 204.610192 281.745483 204.610192 
z
" clip-path="url(#p149ec22ba6)" style="fill: #d2dbe8; stroke: #ffffff; stroke-width: 0.380936"/>
    <path d="M 255.862158 216.70759 
C 256.932683 216.70759 257.959506 216.282266 258.716482 215.525291 
C 259.473457 214.768315 259.898781 213.741492 259.898781 212.670967 
C 259.898781 211.600442 259.473457 210.573619 258.716482 209.816644 
C 257.959506 209.059668 256.932683 208.634344 255.862158 208.634344 
C 254.791633 208.634344 253.76481 209.059668 253.007835 209.816644 
C 252.250859 210.573619 251.825535 211.600442 251.825535 212.670967 
C 251.825535 213.741492 252.250859 214.768315 253.007835 215.525291 
C 253.76481 216.282266 254.791633 216.70759 255.862158 216.70759 
z
" clip-path="url(#p149ec22ba6)" style="fill: #8fb1fe; stroke: #ffffff; stroke-width: 0.380936"/>
    <path d="M 240.802769 228.613181 
C 241.65396 228.613181 242.470404 228.274999 243.072287 227.673116 
C 243.67417 227.071233 244.012352 226.25479 244.012352 225.403599 
C 244.012352 224.552408 243.67417 223.735964 243.072287 223.134081 
C 242.470404 222.532198 241.65396 222.194016 240.802769 222.194016 
C 239.951578 222.194016 239.135135 222.532198 238.533252 223.134081 
C 237.931369 223.735964 237.593187 224.552408 237.593187 225.403599 
C 237.593187 226.25479 237.931369 227.071233 238.533252 227.673116 
C 239.135135 228.274999 239.951578 228.613181 240.802769 228.613181 
z
" clip-path="url(#p149ec22ba6)" style="fill: #516ddb; stroke: #ffffff; stroke-width: 0.380936"/>
    <path d="M 240.354381 243.728778 
C 241.837542 243.728778 243.260156 243.139512 244.30891 242.090759 
C 245.357663 241.042006 245.946929 239.619391 245.946929 238.13623 
C 245.946929 236.653069 245.357663 235.230455 244.30891 234.181701 
C 243.260156 233.132948 241.837542 232.543682 240.354381 232.543682 
C 238.87122 232.543682 237.448605 233.132948 236.399852 234.181701 
C 235.351099 235.230455 234.761833 236.653069 234.761833 238.13623 
C 234.761833 239.619391 235.351099 241.042006 236.399852 242.090759 
C 237.448605 243.139512 238.87122 243.728778 240.354381 243.728778 
z
" clip-path="url(#p149ec22ba6)" style="fill: #f6bfa6; stroke: #ffffff; stroke-width: 0.380936"/>
    <path d="M 238.531584 255.260989 
C 239.69639 255.260989 240.813645 254.798207 241.637287 253.974565 
C 242.460929 253.150923 242.923711 252.033668 242.923711 250.868862 
C 242.923711 249.704056 242.460929 248.586801 241.637287 247.763159 
C 240.813645 246.939517 239.69639 246.476735 238.531584 246.476735 
C 237.366779 246.476735 236.249523 246.939517 235.425881 247.763159 
C 234.602239 248.586801 234.139457 249.704056 234.139457 250.868862 
C 234.139457 252.033668 234.602239 253.150923 235.425881 253.974565 
C 236.249523 254.798207 237.366779 255.260989 238.531584 255.260989 
z
" clip-path="url(#p149ec22ba6)" style="fill: #a3c2fe; stroke: #ffffff; stroke-width: 0.380936"/>
    <path d="M 230.032201 267.341729 
C 231.024123 267.341729 231.975552 266.947634 232.676947 266.246239 
C 233.378342 265.544845 233.772437 264.593415 233.772437 263.601493 
C 233.772437 262.609571 233.378342 261.658142 232.676947 260.956748 
C 231.975552 260.255353 231.024123 259.861258 230.032201 259.861258 
C 229.040279 259.861258 228.08885 260.255353 227.387455 260.956748 
C 226.68606 261.658142 226.291966 262.609571 226.291966 263.601493 
C 226.291966 264.593415 226.68606 265.544845 227.387455 266.246239 
C 228.08885 266.947634 229.040279 267.341729 230.032201 267.341729 
z
" clip-path="url(#p149ec22ba6)" style="fill: #6e90f2; stroke: #ffffff; stroke-width: 0.380936"/>
    <path d="M 223.042102 280.105048 
C 224.042163 280.105048 225.001398 279.70772 225.708547 279.00057 
C 226.415697 278.293421 226.813025 277.334185 226.813025 276.334125 
C 226.813025 275.334065 226.415697 274.374829 225.708547 273.66768 
C 225.001398 272.96053 224.042163 272.563202 223.042102 272.563202 
C 222.042042 272.563202 221.082807 272.96053 220.375657 273.66768 
C 219.668508 274.374829 219.27118 275.334065 219.27118 276.334125 
C 219.27118 277.334185 219.668508 278.293421 220.375657 279.00057 
C 221.082807 279.70772 222.042042 280.105048 223.042102 280.105048 
z
" clip-path="url(#p149ec22ba6)" style="fill: #6e90f2; stroke: #ffffff; stroke-width: 0.380936"/>
   </g>
   <g id="matplotlib.axis_1">
    <g id="xtick_1">
     <g id="line2d_1">
      <defs>
       <path id="m4b7c531c4f" d="M 0 0 
L 0 3.5 
" style="stroke: #000000; stroke-width: 0.8"/>
      </defs>
      <g>
       <use xlink:href="#m4b7c531c4f" x="220.727593" y="288.430125" style="stroke: #000000; stroke-width: 0.8"/>
      </g>
     </g>
     <g id="text_1">
      <!-- 2.4 -->
      <g transform="translate(212.776031 303.028562) scale(0.1 -0.1)">
       <defs>
        <path id="DejaVuSans-32" d="M 1228 531 
L 3431 531 
L 3431 0 
L 469 0 
L 469 531 
Q 828 903 1448 1529 
Q 2069 2156 2228 2338 
Q 2531 2678 2651 2914 
Q 2772 3150 2772 3378 
Q 2772 3750 2511 3984 
Q 2250 4219 1831 4219 
Q 1534 4219 1204 4116 
Q 875 4013 500 3803 
L 500 4441 
Q 881 4594 1212 4672 
Q 1544 4750 1819 4750 
Q 2544 4750 2975 4387 
Q 3406 4025 3406 3419 
Q 3406 3131 3298 2873 
Q 3191 2616 2906 2266 
Q 2828 2175 2409 1742 
Q 1991 1309 1228 531 
z
" transform="scale(0.015625)"/>
        <path id="DejaVuSans-2e" d="M 684 794 
L 1344 794 
L 1344 0 
L 684 0 
L 684 794 
z
" transform="scale(0.015625)"/>
        <path id="DejaVuSans-34" d="M 2419 4116 
L 825 1625 
L 2419 1625 
L 2419 4116 
z
M 2253 4666 
L 3047 4666 
L 3047 1625 
L 3713 1625 
L 3713 1100 
L 3047 1100 
L 3047 0 
L 2419 0 
L 2419 1100 
L 313 1100 
L 313 1709 
L 2253 4666 
z
" transform="scale(0.015625)"/>
       </defs>
       <use xlink:href="#DejaVuSans-32"/>
       <use xlink:href="#DejaVuSans-2e" transform="translate(63.623047 0)"/>
       <use xlink:href="#DejaVuSans-34" transform="translate(95.410156 0)"/>
      </g>
     </g>
    </g>
    <g id="xtick_2">
     <g id="line2d_2">
      <g>
       <use xlink:href="#m4b7c531c4f" x="271.291918" y="288.430125" style="stroke: #000000; stroke-width: 0.8"/>
      </g>
     </g>
     <g id="text_2">
      <!-- 2.6 -->
      <g transform="translate(263.340355 303.028562) scale(0.1 -0.1)">
       <defs>
        <path id="DejaVuSans-36" d="M 2113 2584 
Q 1688 2584 1439 2293 
Q 1191 2003 1191 1497 
Q 1191 994 1439 701 
Q 1688 409 2113 409 
Q 2538 409 2786 701 
Q 3034 994 3034 1497 
Q 3034 2003 2786 2293 
Q 2538 2584 2113 2584 
z
M 3366 4563 
L 3366 3988 
Q 3128 4100 2886 4159 
Q 2644 4219 2406 4219 
Q 1781 4219 1451 3797 
Q 1122 3375 1075 2522 
Q 1259 2794 1537 2939 
Q 1816 3084 2150 3084 
Q 2853 3084 3261 2657 
Q 3669 2231 3669 1497 
Q 3669 778 3244 343 
Q 2819 -91 2113 -91 
Q 1303 -91 875 529 
Q 447 1150 447 2328 
Q 447 3434 972 4092 
Q 1497 4750 2381 4750 
Q 2619 4750 2861 4703 
Q 3103 4656 3366 4563 
z
" transform="scale(0.015625)"/>
       </defs>
       <use xlink:href="#DejaVuSans-32"/>
       <use xlink:href="#DejaVuSans-2e" transform="translate(63.623047 0)"/>
       <use xlink:href="#DejaVuSans-36" transform="translate(95.410156 0)"/>
      </g>
     </g>
    </g>
    <g id="xtick_3">
     <g id="line2d_3">
      <g>
       <use xlink:href="#m4b7c531c4f" x="321.856242" y="288.430125" style="stroke: #000000; stroke-width: 0.8"/>
      </g>
     </g>
     <g id="text_3">
      <!-- 2.8 -->
      <g transform="translate(313.90468 303.028562) scale(0.1 -0.1)">
       <defs>
        <path id="DejaVuSans-38" d="M 2034 2216 
Q 1584 2216 1326 1975 
Q 1069 1734 1069 1313 
Q 1069 891 1326 650 
Q 1584 409 2034 409 
Q 2484 409 2743 651 
Q 3003 894 3003 1313 
Q 3003 1734 2745 1975 
Q 2488 2216 2034 2216 
z
M 1403 2484 
Q 997 2584 770 2862 
Q 544 3141 544 3541 
Q 544 4100 942 4425 
Q 1341 4750 2034 4750 
Q 2731 4750 3128 4425 
Q 3525 4100 3525 3541 
Q 3525 3141 3298 2862 
Q 3072 2584 2669 2484 
Q 3125 2378 3379 2068 
Q 3634 1759 3634 1313 
Q 3634 634 3220 271 
Q 2806 -91 2034 -91 
Q 1263 -91 848 271 
Q 434 634 434 1313 
Q 434 1759 690 2068 
Q 947 2378 1403 2484 
z
M 1172 3481 
Q 1172 3119 1398 2916 
Q 1625 2713 2034 2713 
Q 2441 2713 2670 2916 
Q 2900 3119 2900 3481 
Q 2900 3844 2670 4047 
Q 2441 4250 2034 4250 
Q 1625 4250 1398 4047 
Q 1172 3844 1172 3481 
z
" transform="scale(0.015625)"/>
       </defs>
       <use xlink:href="#DejaVuSans-32"/>
       <use xlink:href="#DejaVuSans-2e" transform="translate(63.623047 0)"/>
       <use xlink:href="#DejaVuSans-38" transform="translate(95.410156 0)"/>
      </g>
     </g>
    </g>
    <g id="xtick_4">
     <g id="line2d_4">
      <g>
       <use xlink:href="#m4b7c531c4f" x="372.420567" y="288.430125" style="stroke: #000000; stroke-width: 0.8"/>
      </g>
     </g>
     <g id="text_4">
      <!-- 3.0 -->
      <g transform="translate(364.469004 303.028562) scale(0.1 -0.1)">
       <defs>
        <path id="DejaVuSans-33" d="M 2597 2516 
Q 3050 2419 3304 2112 
Q 3559 1806 3559 1356 
Q 3559 666 3084 287 
Q 2609 -91 1734 -91 
Q 1441 -91 1130 -33 
Q 819 25 488 141 
L 488 750 
Q 750 597 1062 519 
Q 1375 441 1716 441 
Q 2309 441 2620 675 
Q 2931 909 2931 1356 
Q 2931 1769 2642 2001 
Q 2353 2234 1838 2234 
L 1294 2234 
L 1294 2753 
L 1863 2753 
Q 2328 2753 2575 2939 
Q 2822 3125 2822 3475 
Q 2822 3834 2567 4026 
Q 2313 4219 1838 4219 
Q 1578 4219 1281 4162 
Q 984 4106 628 3988 
L 628 4550 
Q 988 4650 1302 4700 
Q 1616 4750 1894 4750 
Q 2613 4750 3031 4423 
Q 3450 4097 3450 3541 
Q 3450 3153 3228 2886 
Q 3006 2619 2597 2516 
z
" transform="scale(0.015625)"/>
        <path id="DejaVuSans-30" d="M 2034 4250 
Q 1547 4250 1301 3770 
Q 1056 3291 1056 2328 
Q 1056 1369 1301 889 
Q 1547 409 2034 409 
Q 2525 409 2770 889 
Q 3016 1369 3016 2328 
Q 3016 3291 2770 3770 
Q 2525 4250 2034 4250 
z
M 2034 4750 
Q 2819 4750 3233 4129 
Q 3647 3509 3647 2328 
Q 3647 1150 3233 529 
Q 2819 -91 2034 -91 
Q 1250 -91 836 529 
Q 422 1150 422 2328 
Q 422 3509 836 4129 
Q 1250 4750 2034 4750 
z
" transform="scale(0.015625)"/>
       </defs>
       <use xlink:href="#DejaVuSans-33"/>
       <use xlink:href="#DejaVuSans-2e" transform="translate(63.623047 0)"/>
       <use xlink:href="#DejaVuSans-30" transform="translate(95.410156 0)"/>
      </g>
     </g>
    </g>
    <g id="xtick_5">
     <g id="line2d_5">
      <g>
       <use xlink:href="#m4b7c531c4f" x="422.984891" y="288.430125" style="stroke: #000000; stroke-width: 0.8"/>
      </g>
     </g>
     <g id="text_5">
      <!-- 3.2 -->
      <g transform="translate(415.033329 303.028562) scale(0.1 -0.1)">
       <use xlink:href="#DejaVuSans-33"/>
       <use xlink:href="#DejaVuSans-2e" transform="translate(63.623047 0)"/>
       <use xlink:href="#DejaVuSans-32" transform="translate(95.410156 0)"/>
      </g>
     </g>
    </g>
    <g id="xtick_6">
     <g id="line2d_6">
      <g>
       <use xlink:href="#m4b7c531c4f" x="473.549216" y="288.430125" style="stroke: #000000; stroke-width: 0.8"/>
      </g>
     </g>
     <g id="text_6">
      <!-- 3.4 -->
      <g transform="translate(465.597653 303.028562) scale(0.1 -0.1)">
       <use xlink:href="#DejaVuSans-33"/>
       <use xlink:href="#DejaVuSans-2e" transform="translate(63.623047 0)"/>
       <use xlink:href="#DejaVuSans-34" transform="translate(95.410156 0)"/>
      </g>
     </g>
    </g>
    <g id="xtick_7">
     <g id="line2d_7">
      <g>
       <use xlink:href="#m4b7c531c4f" x="524.11354" y="288.430125" style="stroke: #000000; stroke-width: 0.8"/>
      </g>
     </g>
     <g id="text_7">
      <!-- 3.6 -->
      <g transform="translate(516.161978 303.028562) scale(0.1 -0.1)">
       <use xlink:href="#DejaVuSans-33"/>
       <use xlink:href="#DejaVuSans-2e" transform="translate(63.623047 0)"/>
       <use xlink:href="#DejaVuSans-36" transform="translate(95.410156 0)"/>
      </g>
     </g>
    </g>
    <g id="text_8">
     <!-- Fold Enrichment -->
     <g transform="translate(344.696719 316.706687) scale(0.1 -0.1)">
      <defs>
       <path id="DejaVuSans-46" d="M 628 4666 
L 3309 4666 
L 3309 4134 
L 1259 4134 
L 1259 2759 
L 3109 2759 
L 3109 2228 
L 1259 2228 
L 1259 0 
L 628 0 
L 628 4666 
z
" transform="scale(0.015625)"/>
       <path id="DejaVuSans-6f" d="M 1959 3097 
Q 1497 3097 1228 2736 
Q 959 2375 959 1747 
Q 959 1119 1226 758 
Q 1494 397 1959 397 
Q 2419 397 2687 759 
Q 2956 1122 2956 1747 
Q 2956 2369 2687 2733 
Q 2419 3097 1959 3097 
z
M 1959 3584 
Q 2709 3584 3137 3096 
Q 3566 2609 3566 1747 
Q 3566 888 3137 398 
Q 2709 -91 1959 -91 
Q 1206 -91 779 398 
Q 353 888 353 1747 
Q 353 2609 779 3096 
Q 1206 3584 1959 3584 
z
" transform="scale(0.015625)"/>
       <path id="DejaVuSans-6c" d="M 603 4863 
L 1178 4863 
L 1178 0 
L 603 0 
L 603 4863 
z
" transform="scale(0.015625)"/>
       <path id="DejaVuSans-64" d="M 2906 2969 
L 2906 4863 
L 3481 4863 
L 3481 0 
L 2906 0 
L 2906 525 
Q 2725 213 2448 61 
Q 2172 -91 1784 -91 
Q 1150 -91 751 415 
Q 353 922 353 1747 
Q 353 2572 751 3078 
Q 1150 3584 1784 3584 
Q 2172 3584 2448 3432 
Q 2725 3281 2906 2969 
z
M 947 1747 
Q 947 1113 1208 752 
Q 1469 391 1925 391 
Q 2381 391 2643 752 
Q 2906 1113 2906 1747 
Q 2906 2381 2643 2742 
Q 2381 3103 1925 3103 
Q 1469 3103 1208 2742 
Q 947 2381 947 1747 
z
" transform="scale(0.015625)"/>
       <path id="DejaVuSans-20" transform="scale(0.015625)"/>
       <path id="DejaVuSans-45" d="M 628 4666 
L 3578 4666 
L 3578 4134 
L 1259 4134 
L 1259 2753 
L 3481 2753 
L 3481 2222 
L 1259 2222 
L 1259 531 
L 3634 531 
L 3634 0 
L 628 0 
L 628 4666 
z
" transform="scale(0.015625)"/>
       <path id="DejaVuSans-6e" d="M 3513 2113 
L 3513 0 
L 2938 0 
L 2938 2094 
Q 2938 2591 2744 2837 
Q 2550 3084 2163 3084 
Q 1697 3084 1428 2787 
Q 1159 2491 1159 1978 
L 1159 0 
L 581 0 
L 581 3500 
L 1159 3500 
L 1159 2956 
Q 1366 3272 1645 3428 
Q 1925 3584 2291 3584 
Q 2894 3584 3203 3211 
Q 3513 2838 3513 2113 
z
" transform="scale(0.015625)"/>
       <path id="DejaVuSans-72" d="M 2631 2963 
Q 2534 3019 2420 3045 
Q 2306 3072 2169 3072 
Q 1681 3072 1420 2755 
Q 1159 2438 1159 1844 
L 1159 0 
L 581 0 
L 581 3500 
L 1159 3500 
L 1159 2956 
Q 1341 3275 1631 3429 
Q 1922 3584 2338 3584 
Q 2397 3584 2469 3576 
Q 2541 3569 2628 3553 
L 2631 2963 
z
" transform="scale(0.015625)"/>
       <path id="DejaVuSans-69" d="M 603 3500 
L 1178 3500 
L 1178 0 
L 603 0 
L 603 3500 
z
M 603 4863 
L 1178 4863 
L 1178 4134 
L 603 4134 
L 603 4863 
z
" transform="scale(0.015625)"/>
       <path id="DejaVuSans-63" d="M 3122 3366 
L 3122 2828 
Q 2878 2963 2633 3030 
Q 2388 3097 2138 3097 
Q 1578 3097 1268 2742 
Q 959 2388 959 1747 
Q 959 1106 1268 751 
Q 1578 397 2138 397 
Q 2388 397 2633 464 
Q 2878 531 3122 666 
L 3122 134 
Q 2881 22 2623 -34 
Q 2366 -91 2075 -91 
Q 1284 -91 818 406 
Q 353 903 353 1747 
Q 353 2603 823 3093 
Q 1294 3584 2113 3584 
Q 2378 3584 2631 3529 
Q 2884 3475 3122 3366 
z
" transform="scale(0.015625)"/>
       <path id="DejaVuSans-68" d="M 3513 2113 
L 3513 0 
L 2938 0 
L 2938 2094 
Q 2938 2591 2744 2837 
Q 2550 3084 2163 3084 
Q 1697 3084 1428 2787 
Q 1159 2491 1159 1978 
L 1159 0 
L 581 0 
L 581 4863 
L 1159 4863 
L 1159 2956 
Q 1366 3272 1645 3428 
Q 1925 3584 2291 3584 
Q 2894 3584 3203 3211 
Q 3513 2838 3513 2113 
z
" transform="scale(0.015625)"/>
       <path id="DejaVuSans-6d" d="M 3328 2828 
Q 3544 3216 3844 3400 
Q 4144 3584 4550 3584 
Q 5097 3584 5394 3201 
Q 5691 2819 5691 2113 
L 5691 0 
L 5113 0 
L 5113 2094 
Q 5113 2597 4934 2840 
Q 4756 3084 4391 3084 
Q 3944 3084 3684 2787 
Q 3425 2491 3425 1978 
L 3425 0 
L 2847 0 
L 2847 2094 
Q 2847 2600 2669 2842 
Q 2491 3084 2119 3084 
Q 1678 3084 1418 2786 
Q 1159 2488 1159 1978 
L 1159 0 
L 581 0 
L 581 3500 
L 1159 3500 
L 1159 2956 
Q 1356 3278 1631 3431 
Q 1906 3584 2284 3584 
Q 2666 3584 2933 3390 
Q 3200 3197 3328 2828 
z
" transform="scale(0.015625)"/>
       <path id="DejaVuSans-65" d="M 3597 1894 
L 3597 1613 
L 953 1613 
Q 991 1019 1311 708 
Q 1631 397 2203 397 
Q 2534 397 2845 478 
Q 3156 559 3463 722 
L 3463 178 
Q 3153 47 2828 -22 
Q 2503 -91 2169 -91 
Q 1331 -91 842 396 
Q 353 884 353 1716 
Q 353 2575 817 3079 
Q 1281 3584 2069 3584 
Q 2775 3584 3186 3129 
Q 3597 2675 3597 1894 
z
M 3022 2063 
Q 3016 2534 2758 2815 
Q 2500 3097 2075 3097 
Q 1594 3097 1305 2825 
Q 1016 2553 972 2059 
L 3022 2063 
z
" transform="scale(0.015625)"/>
       <path id="DejaVuSans-74" d="M 1172 4494 
L 1172 3500 
L 2356 3500 
L 2356 3053 
L 1172 3053 
L 1172 1153 
Q 1172 725 1289 603 
Q 1406 481 1766 481 
L 2356 481 
L 2356 0 
L 1766 0 
Q 1100 0 847 248 
Q 594 497 594 1153 
L 594 3053 
L 172 3053 
L 172 3500 
L 594 3500 
L 594 4494 
L 1172 4494 
z
" transform="scale(0.015625)"/>
      </defs>
      <use xlink:href="#DejaVuSans-46"/>
      <use xlink:href="#DejaVuSans-6f" transform="translate(53.894531 0)"/>
      <use xlink:href="#DejaVuSans-6c" transform="translate(115.076172 0)"/>
      <use xlink:href="#DejaVuSans-64" transform="translate(142.859375 0)"/>
      <use xlink:href="#DejaVuSans-20" transform="translate(206.335938 0)"/>
      <use xlink:href="#DejaVuSans-45" transform="translate(238.123047 0)"/>
      <use xlink:href="#DejaVuSans-6e" transform="translate(301.306641 0)"/>
      <use xlink:href="#DejaVuSans-72" transform="translate(364.685547 0)"/>
      <use xlink:href="#DejaVuSans-69" transform="translate(405.798828 0)"/>
      <use xlink:href="#DejaVuSans-63" transform="translate(433.582031 0)"/>
      <use xlink:href="#DejaVuSans-68" transform="translate(488.5625 0)"/>
      <use xlink:href="#DejaVuSans-6d" transform="translate(551.941406 0)"/>
      <use xlink:href="#DejaVuSans-65" transform="translate(649.353516 0)"/>
      <use xlink:href="#DejaVuSans-6e" transform="translate(710.876953 0)"/>
      <use xlink:href="#DejaVuSans-74" transform="translate(774.255859 0)"/>
     </g>
    </g>
   </g>
   <g id="matplotlib.axis_2">
    <g id="ytick_1">
     <g id="line2d_8">
      <defs>
       <path id="mcf3b5393c5" d="M 0 0 
L -3.5 0 
" style="stroke: #000000; stroke-width: 0.8"/>
      </defs>
      <g>
       <use xlink:href="#mcf3b5393c5" x="206.809375" y="34.414125" style="stroke: #000000; stroke-width: 0.8"/>
      </g>
     </g>
     <g id="text_9">
      <!-- RISC complex -->
      <g transform="translate(131.020312 38.213344) scale(0.1 -0.1)">
       <defs>
        <path id="DejaVuSans-52" d="M 2841 2188 
Q 3044 2119 3236 1894 
Q 3428 1669 3622 1275 
L 4263 0 
L 3584 0 
L 2988 1197 
Q 2756 1666 2539 1819 
Q 2322 1972 1947 1972 
L 1259 1972 
L 1259 0 
L 628 0 
L 628 4666 
L 2053 4666 
Q 2853 4666 3247 4331 
Q 3641 3997 3641 3322 
Q 3641 2881 3436 2590 
Q 3231 2300 2841 2188 
z
M 1259 4147 
L 1259 2491 
L 2053 2491 
Q 2509 2491 2742 2702 
Q 2975 2913 2975 3322 
Q 2975 3731 2742 3939 
Q 2509 4147 2053 4147 
L 1259 4147 
z
" transform="scale(0.015625)"/>
        <path id="DejaVuSans-49" d="M 628 4666 
L 1259 4666 
L 1259 0 
L 628 0 
L 628 4666 
z
" transform="scale(0.015625)"/>
        <path id="DejaVuSans-53" d="M 3425 4513 
L 3425 3897 
Q 3066 4069 2747 4153 
Q 2428 4238 2131 4238 
Q 1616 4238 1336 4038 
Q 1056 3838 1056 3469 
Q 1056 3159 1242 3001 
Q 1428 2844 1947 2747 
L 2328 2669 
Q 3034 2534 3370 2195 
Q 3706 1856 3706 1288 
Q 3706 609 3251 259 
Q 2797 -91 1919 -91 
Q 1588 -91 1214 -16 
Q 841 59 441 206 
L 441 856 
Q 825 641 1194 531 
Q 1563 422 1919 422 
Q 2459 422 2753 634 
Q 3047 847 3047 1241 
Q 3047 1584 2836 1778 
Q 2625 1972 2144 2069 
L 1759 2144 
Q 1053 2284 737 2584 
Q 422 2884 422 3419 
Q 422 4038 858 4394 
Q 1294 4750 2059 4750 
Q 2388 4750 2728 4690 
Q 3069 4631 3425 4513 
z
" transform="scale(0.015625)"/>
        <path id="DejaVuSans-43" d="M 4122 4306 
L 4122 3641 
Q 3803 3938 3442 4084 
Q 3081 4231 2675 4231 
Q 1875 4231 1450 3742 
Q 1025 3253 1025 2328 
Q 1025 1406 1450 917 
Q 1875 428 2675 428 
Q 3081 428 3442 575 
Q 3803 722 4122 1019 
L 4122 359 
Q 3791 134 3420 21 
Q 3050 -91 2638 -91 
Q 1578 -91 968 557 
Q 359 1206 359 2328 
Q 359 3453 968 4101 
Q 1578 4750 2638 4750 
Q 3056 4750 3426 4639 
Q 3797 4528 4122 4306 
z
" transform="scale(0.015625)"/>
        <path id="DejaVuSans-70" d="M 1159 525 
L 1159 -1331 
L 581 -1331 
L 581 3500 
L 1159 3500 
L 1159 2969 
Q 1341 3281 1617 3432 
Q 1894 3584 2278 3584 
Q 2916 3584 3314 3078 
Q 3713 2572 3713 1747 
Q 3713 922 3314 415 
Q 2916 -91 2278 -91 
Q 1894 -91 1617 61 
Q 1341 213 1159 525 
z
M 3116 1747 
Q 3116 2381 2855 2742 
Q 2594 3103 2138 3103 
Q 1681 3103 1420 2742 
Q 1159 2381 1159 1747 
Q 1159 1113 1420 752 
Q 1681 391 2138 391 
Q 2594 391 2855 752 
Q 3116 1113 3116 1747 
z
" transform="scale(0.015625)"/>
        <path id="DejaVuSans-78" d="M 3513 3500 
L 2247 1797 
L 3578 0 
L 2900 0 
L 1881 1375 
L 863 0 
L 184 0 
L 1544 1831 
L 300 3500 
L 978 3500 
L 1906 2253 
L 2834 3500 
L 3513 3500 
z
" transform="scale(0.015625)"/>
       </defs>
       <use xlink:href="#DejaVuSans-52"/>
       <use xlink:href="#DejaVuSans-49" transform="translate(69.482422 0)"/>
       <use xlink:href="#DejaVuSans-53" transform="translate(98.974609 0)"/>
       <use xlink:href="#DejaVuSans-43" transform="translate(162.451172 0)"/>
       <use xlink:href="#DejaVuSans-20" transform="translate(232.275391 0)"/>
       <use xlink:href="#DejaVuSans-63" transform="translate(264.0625 0)"/>
       <use xlink:href="#DejaVuSans-6f" transform="translate(319.042969 0)"/>
       <use xlink:href="#DejaVuSans-6d" transform="translate(380.224609 0)"/>
       <use xlink:href="#DejaVuSans-70" transform="translate(477.636719 0)"/>
       <use xlink:href="#DejaVuSans-6c" transform="translate(541.113281 0)"/>
       <use xlink:href="#DejaVuSans-65" transform="translate(568.896484 0)"/>
       <use xlink:href="#DejaVuSans-78" transform="translate(628.669922 0)"/>
      </g>
     </g>
    </g>
    <g id="ytick_2">
     <g id="line2d_9">
      <g>
       <use xlink:href="#mcf3b5393c5" x="206.809375" y="47.146757" style="stroke: #000000; stroke-width: 0.8"/>
      </g>
     </g>
     <g id="text_10">
      <!-- dendrite cytoplasm -->
      <g transform="translate(102.820312 50.945975) scale(0.1 -0.1)">
       <defs>
        <path id="DejaVuSans-79" d="M 2059 -325 
Q 1816 -950 1584 -1140 
Q 1353 -1331 966 -1331 
L 506 -1331 
L 506 -850 
L 844 -850 
Q 1081 -850 1212 -737 
Q 1344 -625 1503 -206 
L 1606 56 
L 191 3500 
L 800 3500 
L 1894 763 
L 2988 3500 
L 3597 3500 
L 2059 -325 
z
" transform="scale(0.015625)"/>
        <path id="DejaVuSans-61" d="M 2194 1759 
Q 1497 1759 1228 1600 
Q 959 1441 959 1056 
Q 959 750 1161 570 
Q 1363 391 1709 391 
Q 2188 391 2477 730 
Q 2766 1069 2766 1631 
L 2766 1759 
L 2194 1759 
z
M 3341 1997 
L 3341 0 
L 2766 0 
L 2766 531 
Q 2569 213 2275 61 
Q 1981 -91 1556 -91 
Q 1019 -91 701 211 
Q 384 513 384 1019 
Q 384 1609 779 1909 
Q 1175 2209 1959 2209 
L 2766 2209 
L 2766 2266 
Q 2766 2663 2505 2880 
Q 2244 3097 1772 3097 
Q 1472 3097 1187 3025 
Q 903 2953 641 2809 
L 641 3341 
Q 956 3463 1253 3523 
Q 1550 3584 1831 3584 
Q 2591 3584 2966 3190 
Q 3341 2797 3341 1997 
z
" transform="scale(0.015625)"/>
        <path id="DejaVuSans-73" d="M 2834 3397 
L 2834 2853 
Q 2591 2978 2328 3040 
Q 2066 3103 1784 3103 
Q 1356 3103 1142 2972 
Q 928 2841 928 2578 
Q 928 2378 1081 2264 
Q 1234 2150 1697 2047 
L 1894 2003 
Q 2506 1872 2764 1633 
Q 3022 1394 3022 966 
Q 3022 478 2636 193 
Q 2250 -91 1575 -91 
Q 1294 -91 989 -36 
Q 684 19 347 128 
L 347 722 
Q 666 556 975 473 
Q 1284 391 1588 391 
Q 1994 391 2212 530 
Q 2431 669 2431 922 
Q 2431 1156 2273 1281 
Q 2116 1406 1581 1522 
L 1381 1569 
Q 847 1681 609 1914 
Q 372 2147 372 2553 
Q 372 3047 722 3315 
Q 1072 3584 1716 3584 
Q 2034 3584 2315 3537 
Q 2597 3491 2834 3397 
z
" transform="scale(0.015625)"/>
       </defs>
       <use xlink:href="#DejaVuSans-64"/>
       <use xlink:href="#DejaVuSans-65" transform="translate(63.476562 0)"/>
       <use xlink:href="#DejaVuSans-6e" transform="translate(125 0)"/>
       <use xlink:href="#DejaVuSans-64" transform="translate(188.378906 0)"/>
       <use xlink:href="#DejaVuSans-72" transform="translate(251.855469 0)"/>
       <use xlink:href="#DejaVuSans-69" transform="translate(292.96875 0)"/>
       <use xlink:href="#DejaVuSans-74" transform="translate(320.751953 0)"/>
       <use xlink:href="#DejaVuSans-65" transform="translate(359.960938 0)"/>
       <use xlink:href="#DejaVuSans-20" transform="translate(421.484375 0)"/>
       <use xlink:href="#DejaVuSans-63" transform="translate(453.271484 0)"/>
       <use xlink:href="#DejaVuSans-79" transform="translate(508.251953 0)"/>
       <use xlink:href="#DejaVuSans-74" transform="translate(567.431641 0)"/>
       <use xlink:href="#DejaVuSans-6f" transform="translate(606.640625 0)"/>
       <use xlink:href="#DejaVuSans-70" transform="translate(667.822266 0)"/>
       <use xlink:href="#DejaVuSans-6c" transform="translate(731.298828 0)"/>
       <use xlink:href="#DejaVuSans-61" transform="translate(759.082031 0)"/>
       <use xlink:href="#DejaVuSans-73" transform="translate(820.361328 0)"/>
       <use xlink:href="#DejaVuSans-6d" transform="translate(872.460938 0)"/>
      </g>
     </g>
    </g>
    <g id="ytick_3">
     <g id="line2d_10">
      <g>
       <use xlink:href="#mcf3b5393c5" x="206.809375" y="59.879388" style="stroke: #000000; stroke-width: 0.8"/>
      </g>
     </g>
     <g id="text_11">
      <!-- cytosolic ribosome -->
      <g transform="translate(106.214062 63.678607) scale(0.1 -0.1)">
       <defs>
        <path id="DejaVuSans-62" d="M 3116 1747 
Q 3116 2381 2855 2742 
Q 2594 3103 2138 3103 
Q 1681 3103 1420 2742 
Q 1159 2381 1159 1747 
Q 1159 1113 1420 752 
Q 1681 391 2138 391 
Q 2594 391 2855 752 
Q 3116 1113 3116 1747 
z
M 1159 2969 
Q 1341 3281 1617 3432 
Q 1894 3584 2278 3584 
Q 2916 3584 3314 3078 
Q 3713 2572 3713 1747 
Q 3713 922 3314 415 
Q 2916 -91 2278 -91 
Q 1894 -91 1617 61 
Q 1341 213 1159 525 
L 1159 0 
L 581 0 
L 581 4863 
L 1159 4863 
L 1159 2969 
z
" transform="scale(0.015625)"/>
       </defs>
       <use xlink:href="#DejaVuSans-63"/>
       <use xlink:href="#DejaVuSans-79" transform="translate(54.980469 0)"/>
       <use xlink:href="#DejaVuSans-74" transform="translate(114.160156 0)"/>
       <use xlink:href="#DejaVuSans-6f" transform="translate(153.369141 0)"/>
       <use xlink:href="#DejaVuSans-73" transform="translate(214.550781 0)"/>
       <use xlink:href="#DejaVuSans-6f" transform="translate(266.650391 0)"/>
       <use xlink:href="#DejaVuSans-6c" transform="translate(327.832031 0)"/>
       <use xlink:href="#DejaVuSans-69" transform="translate(355.615234 0)"/>
       <use xlink:href="#DejaVuSans-63" transform="translate(383.398438 0)"/>
       <use xlink:href="#DejaVuSans-20" transform="translate(438.378906 0)"/>
       <use xlink:href="#DejaVuSans-72" transform="translate(470.166016 0)"/>
       <use xlink:href="#DejaVuSans-69" transform="translate(511.279297 0)"/>
       <use xlink:href="#DejaVuSans-62" transform="translate(539.0625 0)"/>
       <use xlink:href="#DejaVuSans-6f" transform="translate(602.539062 0)"/>
       <use xlink:href="#DejaVuSans-73" transform="translate(663.720703 0)"/>
       <use xlink:href="#DejaVuSans-6f" transform="translate(715.820312 0)"/>
       <use xlink:href="#DejaVuSans-6d" transform="translate(777.001953 0)"/>
       <use xlink:href="#DejaVuSans-65" transform="translate(874.414062 0)"/>
      </g>
     </g>
    </g>
    <g id="ytick_4">
     <g id="line2d_11">
      <g>
       <use xlink:href="#mcf3b5393c5" x="206.809375" y="72.61202" style="stroke: #000000; stroke-width: 0.8"/>
      </g>
     </g>
     <g id="text_12">
      <!-- cytosolic small ribosomal subunit -->
      <g transform="translate(33.201562 76.411238) scale(0.1 -0.1)">
       <defs>
        <path id="DejaVuSans-75" d="M 544 1381 
L 544 3500 
L 1119 3500 
L 1119 1403 
Q 1119 906 1312 657 
Q 1506 409 1894 409 
Q 2359 409 2629 706 
Q 2900 1003 2900 1516 
L 2900 3500 
L 3475 3500 
L 3475 0 
L 2900 0 
L 2900 538 
Q 2691 219 2414 64 
Q 2138 -91 1772 -91 
Q 1169 -91 856 284 
Q 544 659 544 1381 
z
M 1991 3584 
L 1991 3584 
z
" transform="scale(0.015625)"/>
       </defs>
       <use xlink:href="#DejaVuSans-63"/>
       <use xlink:href="#DejaVuSans-79" transform="translate(54.980469 0)"/>
       <use xlink:href="#DejaVuSans-74" transform="translate(114.160156 0)"/>
       <use xlink:href="#DejaVuSans-6f" transform="translate(153.369141 0)"/>
       <use xlink:href="#DejaVuSans-73" transform="translate(214.550781 0)"/>
       <use xlink:href="#DejaVuSans-6f" transform="translate(266.650391 0)"/>
       <use xlink:href="#DejaVuSans-6c" transform="translate(327.832031 0)"/>
       <use xlink:href="#DejaVuSans-69" transform="translate(355.615234 0)"/>
       <use xlink:href="#DejaVuSans-63" transform="translate(383.398438 0)"/>
       <use xlink:href="#DejaVuSans-20" transform="translate(438.378906 0)"/>
       <use xlink:href="#DejaVuSans-73" transform="translate(470.166016 0)"/>
       <use xlink:href="#DejaVuSans-6d" transform="translate(522.265625 0)"/>
       <use xlink:href="#DejaVuSans-61" transform="translate(619.677734 0)"/>
       <use xlink:href="#DejaVuSans-6c" transform="translate(680.957031 0)"/>
       <use xlink:href="#DejaVuSans-6c" transform="translate(708.740234 0)"/>
       <use xlink:href="#DejaVuSans-20" transform="translate(736.523438 0)"/>
       <use xlink:href="#DejaVuSans-72" transform="translate(768.310547 0)"/>
       <use xlink:href="#DejaVuSans-69" transform="translate(809.423828 0)"/>
       <use xlink:href="#DejaVuSans-62" transform="translate(837.207031 0)"/>
       <use xlink:href="#DejaVuSans-6f" transform="translate(900.683594 0)"/>
       <use xlink:href="#DejaVuSans-73" transform="translate(961.865234 0)"/>
       <use xlink:href="#DejaVuSans-6f" transform="translate(1013.964844 0)"/>
       <use xlink:href="#DejaVuSans-6d" transform="translate(1075.146484 0)"/>
       <use xlink:href="#DejaVuSans-61" transform="translate(1172.558594 0)"/>
       <use xlink:href="#DejaVuSans-6c" transform="translate(1233.837891 0)"/>
       <use xlink:href="#DejaVuSans-20" transform="translate(1261.621094 0)"/>
       <use xlink:href="#DejaVuSans-73" transform="translate(1293.408203 0)"/>
       <use xlink:href="#DejaVuSans-75" transform="translate(1345.507812 0)"/>
       <use xlink:href="#DejaVuSans-62" transform="translate(1408.886719 0)"/>
       <use xlink:href="#DejaVuSans-75" transform="translate(1472.363281 0)"/>
       <use xlink:href="#DejaVuSans-6e" transform="translate(1535.742188 0)"/>
       <use xlink:href="#DejaVuSans-69" transform="translate(1599.121094 0)"/>
       <use xlink:href="#DejaVuSans-74" transform="translate(1626.904297 0)"/>
      </g>
     </g>
    </g>
    <g id="ytick_5">
     <g id="line2d_12">
      <g>
       <use xlink:href="#mcf3b5393c5" x="206.809375" y="85.344651" style="stroke: #000000; stroke-width: 0.8"/>
      </g>
     </g>
     <g id="text_13">
      <!-- presynaptic cytosol -->
      <g transform="translate(102.542187 89.14387) scale(0.1 -0.1)">
       <use xlink:href="#DejaVuSans-70"/>
       <use xlink:href="#DejaVuSans-72" transform="translate(63.476562 0)"/>
       <use xlink:href="#DejaVuSans-65" transform="translate(102.339844 0)"/>
       <use xlink:href="#DejaVuSans-73" transform="translate(163.863281 0)"/>
       <use xlink:href="#DejaVuSans-79" transform="translate(215.962891 0)"/>
       <use xlink:href="#DejaVuSans-6e" transform="translate(275.142578 0)"/>
       <use xlink:href="#DejaVuSans-61" transform="translate(338.521484 0)"/>
       <use xlink:href="#DejaVuSans-70" transform="translate(399.800781 0)"/>
       <use xlink:href="#DejaVuSans-74" transform="translate(463.277344 0)"/>
       <use xlink:href="#DejaVuSans-69" transform="translate(502.486328 0)"/>
       <use xlink:href="#DejaVuSans-63" transform="translate(530.269531 0)"/>
       <use xlink:href="#DejaVuSans-20" transform="translate(585.25 0)"/>
       <use xlink:href="#DejaVuSans-63" transform="translate(617.037109 0)"/>
       <use xlink:href="#DejaVuSans-79" transform="translate(672.017578 0)"/>
       <use xlink:href="#DejaVuSans-74" transform="translate(731.197266 0)"/>
       <use xlink:href="#DejaVuSans-6f" transform="translate(770.40625 0)"/>
       <use xlink:href="#DejaVuSans-73" transform="translate(831.587891 0)"/>
       <use xlink:href="#DejaVuSans-6f" transform="translate(883.6875 0)"/>
       <use xlink:href="#DejaVuSans-6c" transform="translate(944.869141 0)"/>
      </g>
     </g>
    </g>
    <g id="ytick_6">
     <g id="line2d_13">
      <g>
       <use xlink:href="#mcf3b5393c5" x="206.809375" y="98.077283" style="stroke: #000000; stroke-width: 0.8"/>
      </g>
     </g>
     <g id="text_14">
      <!-- neuron projection terminus -->
      <g transform="translate(63.932812 101.876502) scale(0.1 -0.1)">
       <defs>
        <path id="DejaVuSans-6a" d="M 603 3500 
L 1178 3500 
L 1178 -63 
Q 1178 -731 923 -1031 
Q 669 -1331 103 -1331 
L -116 -1331 
L -116 -844 
L 38 -844 
Q 366 -844 484 -692 
Q 603 -541 603 -63 
L 603 3500 
z
M 603 4863 
L 1178 4863 
L 1178 4134 
L 603 4134 
L 603 4863 
z
" transform="scale(0.015625)"/>
       </defs>
       <use xlink:href="#DejaVuSans-6e"/>
       <use xlink:href="#DejaVuSans-65" transform="translate(63.378906 0)"/>
       <use xlink:href="#DejaVuSans-75" transform="translate(124.902344 0)"/>
       <use xlink:href="#DejaVuSans-72" transform="translate(188.28125 0)"/>
       <use xlink:href="#DejaVuSans-6f" transform="translate(227.144531 0)"/>
       <use xlink:href="#DejaVuSans-6e" transform="translate(288.326172 0)"/>
       <use xlink:href="#DejaVuSans-20" transform="translate(351.705078 0)"/>
       <use xlink:href="#DejaVuSans-70" transform="translate(383.492188 0)"/>
       <use xlink:href="#DejaVuSans-72" transform="translate(446.96875 0)"/>
       <use xlink:href="#DejaVuSans-6f" transform="translate(485.832031 0)"/>
       <use xlink:href="#DejaVuSans-6a" transform="translate(547.013672 0)"/>
       <use xlink:href="#DejaVuSans-65" transform="translate(574.796875 0)"/>
       <use xlink:href="#DejaVuSans-63" transform="translate(636.320312 0)"/>
       <use xlink:href="#DejaVuSans-74" transform="translate(691.300781 0)"/>
       <use xlink:href="#DejaVuSans-69" transform="translate(730.509766 0)"/>
       <use xlink:href="#DejaVuSans-6f" transform="translate(758.292969 0)"/>
       <use xlink:href="#DejaVuSans-6e" transform="translate(819.474609 0)"/>
       <use xlink:href="#DejaVuSans-20" transform="translate(882.853516 0)"/>
       <use xlink:href="#DejaVuSans-74" transform="translate(914.640625 0)"/>
       <use xlink:href="#DejaVuSans-65" transform="translate(953.849609 0)"/>
       <use xlink:href="#DejaVuSans-72" transform="translate(1015.373047 0)"/>
       <use xlink:href="#DejaVuSans-6d" transform="translate(1054.736328 0)"/>
       <use xlink:href="#DejaVuSans-69" transform="translate(1152.148438 0)"/>
       <use xlink:href="#DejaVuSans-6e" transform="translate(1179.931641 0)"/>
       <use xlink:href="#DejaVuSans-75" transform="translate(1243.310547 0)"/>
       <use xlink:href="#DejaVuSans-73" transform="translate(1306.689453 0)"/>
      </g>
     </g>
    </g>
    <g id="ytick_7">
     <g id="line2d_14">
      <g>
       <use xlink:href="#mcf3b5393c5" x="206.809375" y="110.809914" style="stroke: #000000; stroke-width: 0.8"/>
      </g>
     </g>
     <g id="text_15">
      <!-- cytosolic large ribosomal subunit -->
      <g transform="translate(34.492187 114.609133) scale(0.1 -0.1)">
       <defs>
        <path id="DejaVuSans-67" d="M 2906 1791 
Q 2906 2416 2648 2759 
Q 2391 3103 1925 3103 
Q 1463 3103 1205 2759 
Q 947 2416 947 1791 
Q 947 1169 1205 825 
Q 1463 481 1925 481 
Q 2391 481 2648 825 
Q 2906 1169 2906 1791 
z
M 3481 434 
Q 3481 -459 3084 -895 
Q 2688 -1331 1869 -1331 
Q 1566 -1331 1297 -1286 
Q 1028 -1241 775 -1147 
L 775 -588 
Q 1028 -725 1275 -790 
Q 1522 -856 1778 -856 
Q 2344 -856 2625 -561 
Q 2906 -266 2906 331 
L 2906 616 
Q 2728 306 2450 153 
Q 2172 0 1784 0 
Q 1141 0 747 490 
Q 353 981 353 1791 
Q 353 2603 747 3093 
Q 1141 3584 1784 3584 
Q 2172 3584 2450 3431 
Q 2728 3278 2906 2969 
L 2906 3500 
L 3481 3500 
L 3481 434 
z
" transform="scale(0.015625)"/>
       </defs>
       <use xlink:href="#DejaVuSans-63"/>
       <use xlink:href="#DejaVuSans-79" transform="translate(54.980469 0)"/>
       <use xlink:href="#DejaVuSans-74" transform="translate(114.160156 0)"/>
       <use xlink:href="#DejaVuSans-6f" transform="translate(153.369141 0)"/>
       <use xlink:href="#DejaVuSans-73" transform="translate(214.550781 0)"/>
       <use xlink:href="#DejaVuSans-6f" transform="translate(266.650391 0)"/>
       <use xlink:href="#DejaVuSans-6c" transform="translate(327.832031 0)"/>
       <use xlink:href="#DejaVuSans-69" transform="translate(355.615234 0)"/>
       <use xlink:href="#DejaVuSans-63" transform="translate(383.398438 0)"/>
       <use xlink:href="#DejaVuSans-20" transform="translate(438.378906 0)"/>
       <use xlink:href="#DejaVuSans-6c" transform="translate(470.166016 0)"/>
       <use xlink:href="#DejaVuSans-61" transform="translate(497.949219 0)"/>
       <use xlink:href="#DejaVuSans-72" transform="translate(559.228516 0)"/>
       <use xlink:href="#DejaVuSans-67" transform="translate(598.591797 0)"/>
       <use xlink:href="#DejaVuSans-65" transform="translate(662.068359 0)"/>
       <use xlink:href="#DejaVuSans-20" transform="translate(723.591797 0)"/>
       <use xlink:href="#DejaVuSans-72" transform="translate(755.378906 0)"/>
       <use xlink:href="#DejaVuSans-69" transform="translate(796.492188 0)"/>
       <use xlink:href="#DejaVuSans-62" transform="translate(824.275391 0)"/>
       <use xlink:href="#DejaVuSans-6f" transform="translate(887.751953 0)"/>
       <use xlink:href="#DejaVuSans-73" transform="translate(948.933594 0)"/>
       <use xlink:href="#DejaVuSans-6f" transform="translate(1001.033203 0)"/>
       <use xlink:href="#DejaVuSans-6d" transform="translate(1062.214844 0)"/>
       <use xlink:href="#DejaVuSans-61" transform="translate(1159.626953 0)"/>
       <use xlink:href="#DejaVuSans-6c" transform="translate(1220.90625 0)"/>
       <use xlink:href="#DejaVuSans-20" transform="translate(1248.689453 0)"/>
       <use xlink:href="#DejaVuSans-73" transform="translate(1280.476562 0)"/>
       <use xlink:href="#DejaVuSans-75" transform="translate(1332.576172 0)"/>
       <use xlink:href="#DejaVuSans-62" transform="translate(1395.955078 0)"/>
       <use xlink:href="#DejaVuSans-75" transform="translate(1459.431641 0)"/>
       <use xlink:href="#DejaVuSans-6e" transform="translate(1522.810547 0)"/>
       <use xlink:href="#DejaVuSans-69" transform="translate(1586.189453 0)"/>
       <use xlink:href="#DejaVuSans-74" transform="translate(1613.972656 0)"/>
      </g>
     </g>
    </g>
    <g id="ytick_8">
     <g id="line2d_15">
      <g>
       <use xlink:href="#mcf3b5393c5" x="206.809375" y="123.542546" style="stroke: #000000; stroke-width: 0.8"/>
      </g>
     </g>
     <g id="text_16">
      <!-- small ribosomal subunit -->
      <g transform="translate(80.21875 127.341765) scale(0.1 -0.1)">
       <use xlink:href="#DejaVuSans-73"/>
       <use xlink:href="#DejaVuSans-6d" transform="translate(52.099609 0)"/>
       <use xlink:href="#DejaVuSans-61" transform="translate(149.511719 0)"/>
       <use xlink:href="#DejaVuSans-6c" transform="translate(210.791016 0)"/>
       <use xlink:href="#DejaVuSans-6c" transform="translate(238.574219 0)"/>
       <use xlink:href="#DejaVuSans-20" transform="translate(266.357422 0)"/>
       <use xlink:href="#DejaVuSans-72" transform="translate(298.144531 0)"/>
       <use xlink:href="#DejaVuSans-69" transform="translate(339.257812 0)"/>
       <use xlink:href="#DejaVuSans-62" transform="translate(367.041016 0)"/>
       <use xlink:href="#DejaVuSans-6f" transform="translate(430.517578 0)"/>
       <use xlink:href="#DejaVuSans-73" transform="translate(491.699219 0)"/>
       <use xlink:href="#DejaVuSans-6f" transform="translate(543.798828 0)"/>
       <use xlink:href="#DejaVuSans-6d" transform="translate(604.980469 0)"/>
       <use xlink:href="#DejaVuSans-61" transform="translate(702.392578 0)"/>
       <use xlink:href="#DejaVuSans-6c" transform="translate(763.671875 0)"/>
       <use xlink:href="#DejaVuSans-20" transform="translate(791.455078 0)"/>
       <use xlink:href="#DejaVuSans-73" transform="translate(823.242188 0)"/>
       <use xlink:href="#DejaVuSans-75" transform="translate(875.341797 0)"/>
       <use xlink:href="#DejaVuSans-62" transform="translate(938.720703 0)"/>
       <use xlink:href="#DejaVuSans-75" transform="translate(1002.197266 0)"/>
       <use xlink:href="#DejaVuSans-6e" transform="translate(1065.576172 0)"/>
       <use xlink:href="#DejaVuSans-69" transform="translate(1128.955078 0)"/>
       <use xlink:href="#DejaVuSans-74" transform="translate(1156.738281 0)"/>
      </g>
     </g>
    </g>
    <g id="ytick_9">
     <g id="line2d_16">
      <g>
       <use xlink:href="#mcf3b5393c5" x="206.809375" y="136.275178" style="stroke: #000000; stroke-width: 0.8"/>
      </g>
     </g>
     <g id="text_17">
      <!-- axon initial segment -->
      <g transform="translate(97.901562 140.074396) scale(0.1 -0.1)">
       <use xlink:href="#DejaVuSans-61"/>
       <use xlink:href="#DejaVuSans-78" transform="translate(61.279297 0)"/>
       <use xlink:href="#DejaVuSans-6f" transform="translate(117.333984 0)"/>
       <use xlink:href="#DejaVuSans-6e" transform="translate(178.515625 0)"/>
       <use xlink:href="#DejaVuSans-20" transform="translate(241.894531 0)"/>
       <use xlink:href="#DejaVuSans-69" transform="translate(273.681641 0)"/>
       <use xlink:href="#DejaVuSans-6e" transform="translate(301.464844 0)"/>
       <use xlink:href="#DejaVuSans-69" transform="translate(364.84375 0)"/>
       <use xlink:href="#DejaVuSans-74" transform="translate(392.626953 0)"/>
       <use xlink:href="#DejaVuSans-69" transform="translate(431.835938 0)"/>
       <use xlink:href="#DejaVuSans-61" transform="translate(459.619141 0)"/>
       <use xlink:href="#DejaVuSans-6c" transform="translate(520.898438 0)"/>
       <use xlink:href="#DejaVuSans-20" transform="translate(548.681641 0)"/>
       <use xlink:href="#DejaVuSans-73" transform="translate(580.46875 0)"/>
       <use xlink:href="#DejaVuSans-65" transform="translate(632.568359 0)"/>
       <use xlink:href="#DejaVuSans-67" transform="translate(694.091797 0)"/>
       <use xlink:href="#DejaVuSans-6d" transform="translate(757.568359 0)"/>
       <use xlink:href="#DejaVuSans-65" transform="translate(854.980469 0)"/>
       <use xlink:href="#DejaVuSans-6e" transform="translate(916.503906 0)"/>
       <use xlink:href="#DejaVuSans-74" transform="translate(979.882812 0)"/>
      </g>
     </g>
    </g>
    <g id="ytick_10">
     <g id="line2d_17">
      <g>
       <use xlink:href="#mcf3b5393c5" x="206.809375" y="149.007809" style="stroke: #000000; stroke-width: 0.8"/>
      </g>
     </g>
     <g id="text_18">
      <!-- axon cytoplasm -->
      <g transform="translate(120.779687 152.807028) scale(0.1 -0.1)">
       <use xlink:href="#DejaVuSans-61"/>
       <use xlink:href="#DejaVuSans-78" transform="translate(61.279297 0)"/>
       <use xlink:href="#DejaVuSans-6f" transform="translate(117.333984 0)"/>
       <use xlink:href="#DejaVuSans-6e" transform="translate(178.515625 0)"/>
       <use xlink:href="#DejaVuSans-20" transform="translate(241.894531 0)"/>
       <use xlink:href="#DejaVuSans-63" transform="translate(273.681641 0)"/>
       <use xlink:href="#DejaVuSans-79" transform="translate(328.662109 0)"/>
       <use xlink:href="#DejaVuSans-74" transform="translate(387.841797 0)"/>
       <use xlink:href="#DejaVuSans-6f" transform="translate(427.050781 0)"/>
       <use xlink:href="#DejaVuSans-70" transform="translate(488.232422 0)"/>
       <use xlink:href="#DejaVuSans-6c" transform="translate(551.708984 0)"/>
       <use xlink:href="#DejaVuSans-61" transform="translate(579.492188 0)"/>
       <use xlink:href="#DejaVuSans-73" transform="translate(640.771484 0)"/>
       <use xlink:href="#DejaVuSans-6d" transform="translate(692.871094 0)"/>
      </g>
     </g>
    </g>
    <g id="ytick_11">
     <g id="line2d_18">
      <g>
       <use xlink:href="#mcf3b5393c5" x="206.809375" y="161.740441" style="stroke: #000000; stroke-width: 0.8"/>
      </g>
     </g>
     <g id="text_19">
      <!-- dendritic shaft -->
      <g transform="translate(127.417187 165.53966) scale(0.1 -0.1)">
       <defs>
        <path id="DejaVuSans-66" d="M 2375 4863 
L 2375 4384 
L 1825 4384 
Q 1516 4384 1395 4259 
Q 1275 4134 1275 3809 
L 1275 3500 
L 2222 3500 
L 2222 3053 
L 1275 3053 
L 1275 0 
L 697 0 
L 697 3053 
L 147 3053 
L 147 3500 
L 697 3500 
L 697 3744 
Q 697 4328 969 4595 
Q 1241 4863 1831 4863 
L 2375 4863 
z
" transform="scale(0.015625)"/>
       </defs>
       <use xlink:href="#DejaVuSans-64"/>
       <use xlink:href="#DejaVuSans-65" transform="translate(63.476562 0)"/>
       <use xlink:href="#DejaVuSans-6e" transform="translate(125 0)"/>
       <use xlink:href="#DejaVuSans-64" transform="translate(188.378906 0)"/>
       <use xlink:href="#DejaVuSans-72" transform="translate(251.855469 0)"/>
       <use xlink:href="#DejaVuSans-69" transform="translate(292.96875 0)"/>
       <use xlink:href="#DejaVuSans-74" transform="translate(320.751953 0)"/>
       <use xlink:href="#DejaVuSans-69" transform="translate(359.960938 0)"/>
       <use xlink:href="#DejaVuSans-63" transform="translate(387.744141 0)"/>
       <use xlink:href="#DejaVuSans-20" transform="translate(442.724609 0)"/>
       <use xlink:href="#DejaVuSans-73" transform="translate(474.511719 0)"/>
       <use xlink:href="#DejaVuSans-68" transform="translate(526.611328 0)"/>
       <use xlink:href="#DejaVuSans-61" transform="translate(589.990234 0)"/>
       <use xlink:href="#DejaVuSans-66" transform="translate(651.269531 0)"/>
       <use xlink:href="#DejaVuSans-74" transform="translate(684.724609 0)"/>
      </g>
     </g>
    </g>
    <g id="ytick_12">
     <g id="line2d_19">
      <g>
       <use xlink:href="#mcf3b5393c5" x="206.809375" y="174.473072" style="stroke: #000000; stroke-width: 0.8"/>
      </g>
     </g>
     <g id="text_20">
      <!-- clathrin-coated vesicle membrane -->
      <g transform="translate(28.5875 178.272291) scale(0.1 -0.1)">
       <defs>
        <path id="DejaVuSans-2d" d="M 313 2009 
L 1997 2009 
L 1997 1497 
L 313 1497 
L 313 2009 
z
" transform="scale(0.015625)"/>
        <path id="DejaVuSans-76" d="M 191 3500 
L 800 3500 
L 1894 563 
L 2988 3500 
L 3597 3500 
L 2284 0 
L 1503 0 
L 191 3500 
z
" transform="scale(0.015625)"/>
       </defs>
       <use xlink:href="#DejaVuSans-63"/>
       <use xlink:href="#DejaVuSans-6c" transform="translate(54.980469 0)"/>
       <use xlink:href="#DejaVuSans-61" transform="translate(82.763672 0)"/>
       <use xlink:href="#DejaVuSans-74" transform="translate(144.042969 0)"/>
       <use xlink:href="#DejaVuSans-68" transform="translate(183.251953 0)"/>
       <use xlink:href="#DejaVuSans-72" transform="translate(246.630859 0)"/>
       <use xlink:href="#DejaVuSans-69" transform="translate(287.744141 0)"/>
       <use xlink:href="#DejaVuSans-6e" transform="translate(315.527344 0)"/>
       <use xlink:href="#DejaVuSans-2d" transform="translate(378.90625 0)"/>
       <use xlink:href="#DejaVuSans-63" transform="translate(414.990234 0)"/>
       <use xlink:href="#DejaVuSans-6f" transform="translate(469.970703 0)"/>
       <use xlink:href="#DejaVuSans-61" transform="translate(531.152344 0)"/>
       <use xlink:href="#DejaVuSans-74" transform="translate(592.431641 0)"/>
       <use xlink:href="#DejaVuSans-65" transform="translate(631.640625 0)"/>
       <use xlink:href="#DejaVuSans-64" transform="translate(693.164062 0)"/>
       <use xlink:href="#DejaVuSans-20" transform="translate(756.640625 0)"/>
       <use xlink:href="#DejaVuSans-76" transform="translate(788.427734 0)"/>
       <use xlink:href="#DejaVuSans-65" transform="translate(847.607422 0)"/>
       <use xlink:href="#DejaVuSans-73" transform="translate(909.130859 0)"/>
       <use xlink:href="#DejaVuSans-69" transform="translate(961.230469 0)"/>
       <use xlink:href="#DejaVuSans-63" transform="translate(989.013672 0)"/>
       <use xlink:href="#DejaVuSans-6c" transform="translate(1043.994141 0)"/>
       <use xlink:href="#DejaVuSans-65" transform="translate(1071.777344 0)"/>
       <use xlink:href="#DejaVuSans-20" transform="translate(1133.300781 0)"/>
       <use xlink:href="#DejaVuSans-6d" transform="translate(1165.087891 0)"/>
       <use xlink:href="#DejaVuSans-65" transform="translate(1262.5 0)"/>
       <use xlink:href="#DejaVuSans-6d" transform="translate(1324.023438 0)"/>
       <use xlink:href="#DejaVuSans-62" transform="translate(1421.435547 0)"/>
       <use xlink:href="#DejaVuSans-72" transform="translate(1484.912109 0)"/>
       <use xlink:href="#DejaVuSans-61" transform="translate(1526.025391 0)"/>
       <use xlink:href="#DejaVuSans-6e" transform="translate(1587.304688 0)"/>
       <use xlink:href="#DejaVuSans-65" transform="translate(1650.683594 0)"/>
      </g>
     </g>
    </g>
    <g id="ytick_13">
     <g id="line2d_20">
      <g>
       <use xlink:href="#mcf3b5393c5" x="206.809375" y="187.205704" style="stroke: #000000; stroke-width: 0.8"/>
      </g>
     </g>
     <g id="text_21">
      <!-- postsynaptic density -->
      <g transform="translate(96.229687 191.004923) scale(0.1 -0.1)">
       <use xlink:href="#DejaVuSans-70"/>
       <use xlink:href="#DejaVuSans-6f" transform="translate(63.476562 0)"/>
       <use xlink:href="#DejaVuSans-73" transform="translate(124.658203 0)"/>
       <use xlink:href="#DejaVuSans-74" transform="translate(176.757812 0)"/>
       <use xlink:href="#DejaVuSans-73" transform="translate(215.966797 0)"/>
       <use xlink:href="#DejaVuSans-79" transform="translate(268.066406 0)"/>
       <use xlink:href="#DejaVuSans-6e" transform="translate(327.246094 0)"/>
       <use xlink:href="#DejaVuSans-61" transform="translate(390.625 0)"/>
       <use xlink:href="#DejaVuSans-70" transform="translate(451.904297 0)"/>
       <use xlink:href="#DejaVuSans-74" transform="translate(515.380859 0)"/>
       <use xlink:href="#DejaVuSans-69" transform="translate(554.589844 0)"/>
       <use xlink:href="#DejaVuSans-63" transform="translate(582.373047 0)"/>
       <use xlink:href="#DejaVuSans-20" transform="translate(637.353516 0)"/>
       <use xlink:href="#DejaVuSans-64" transform="translate(669.140625 0)"/>
       <use xlink:href="#DejaVuSans-65" transform="translate(732.617188 0)"/>
       <use xlink:href="#DejaVuSans-6e" transform="translate(794.140625 0)"/>
       <use xlink:href="#DejaVuSans-73" transform="translate(857.519531 0)"/>
       <use xlink:href="#DejaVuSans-69" transform="translate(909.619141 0)"/>
       <use xlink:href="#DejaVuSans-74" transform="translate(937.402344 0)"/>
       <use xlink:href="#DejaVuSans-79" transform="translate(976.611328 0)"/>
      </g>
     </g>
    </g>
    <g id="ytick_14">
     <g id="line2d_21">
      <g>
       <use xlink:href="#mcf3b5393c5" x="206.809375" y="199.938336" style="stroke: #000000; stroke-width: 0.8"/>
      </g>
     </g>
     <g id="text_22">
      <!-- dendritic spine -->
      <g transform="translate(125.53125 203.737554) scale(0.1 -0.1)">
       <use xlink:href="#DejaVuSans-64"/>
       <use xlink:href="#DejaVuSans-65" transform="translate(63.476562 0)"/>
       <use xlink:href="#DejaVuSans-6e" transform="translate(125 0)"/>
       <use xlink:href="#DejaVuSans-64" transform="translate(188.378906 0)"/>
       <use xlink:href="#DejaVuSans-72" transform="translate(251.855469 0)"/>
       <use xlink:href="#DejaVuSans-69" transform="translate(292.96875 0)"/>
       <use xlink:href="#DejaVuSans-74" transform="translate(320.751953 0)"/>
       <use xlink:href="#DejaVuSans-69" transform="translate(359.960938 0)"/>
       <use xlink:href="#DejaVuSans-63" transform="translate(387.744141 0)"/>
       <use xlink:href="#DejaVuSans-20" transform="translate(442.724609 0)"/>
       <use xlink:href="#DejaVuSans-73" transform="translate(474.511719 0)"/>
       <use xlink:href="#DejaVuSans-70" transform="translate(526.611328 0)"/>
       <use xlink:href="#DejaVuSans-69" transform="translate(590.087891 0)"/>
       <use xlink:href="#DejaVuSans-6e" transform="translate(617.871094 0)"/>
       <use xlink:href="#DejaVuSans-65" transform="translate(681.25 0)"/>
      </g>
     </g>
    </g>
    <g id="ytick_15">
     <g id="line2d_22">
      <g>
       <use xlink:href="#mcf3b5393c5" x="206.809375" y="212.670967" style="stroke: #000000; stroke-width: 0.8"/>
      </g>
     </g>
     <g id="text_23">
      <!-- GABA-ergic synapse -->
      <g transform="translate(98.939062 216.470186) scale(0.1 -0.1)">
       <defs>
        <path id="DejaVuSans-47" d="M 3809 666 
L 3809 1919 
L 2778 1919 
L 2778 2438 
L 4434 2438 
L 4434 434 
Q 4069 175 3628 42 
Q 3188 -91 2688 -91 
Q 1594 -91 976 548 
Q 359 1188 359 2328 
Q 359 3472 976 4111 
Q 1594 4750 2688 4750 
Q 3144 4750 3555 4637 
Q 3966 4525 4313 4306 
L 4313 3634 
Q 3963 3931 3569 4081 
Q 3175 4231 2741 4231 
Q 1884 4231 1454 3753 
Q 1025 3275 1025 2328 
Q 1025 1384 1454 906 
Q 1884 428 2741 428 
Q 3075 428 3337 486 
Q 3600 544 3809 666 
z
" transform="scale(0.015625)"/>
        <path id="DejaVuSans-41" d="M 2188 4044 
L 1331 1722 
L 3047 1722 
L 2188 4044 
z
M 1831 4666 
L 2547 4666 
L 4325 0 
L 3669 0 
L 3244 1197 
L 1141 1197 
L 716 0 
L 50 0 
L 1831 4666 
z
" transform="scale(0.015625)"/>
        <path id="DejaVuSans-42" d="M 1259 2228 
L 1259 519 
L 2272 519 
Q 2781 519 3026 730 
Q 3272 941 3272 1375 
Q 3272 1813 3026 2020 
Q 2781 2228 2272 2228 
L 1259 2228 
z
M 1259 4147 
L 1259 2741 
L 2194 2741 
Q 2656 2741 2882 2914 
Q 3109 3088 3109 3444 
Q 3109 3797 2882 3972 
Q 2656 4147 2194 4147 
L 1259 4147 
z
M 628 4666 
L 2241 4666 
Q 2963 4666 3353 4366 
Q 3744 4066 3744 3513 
Q 3744 3084 3544 2831 
Q 3344 2578 2956 2516 
Q 3422 2416 3680 2098 
Q 3938 1781 3938 1306 
Q 3938 681 3513 340 
Q 3088 0 2303 0 
L 628 0 
L 628 4666 
z
" transform="scale(0.015625)"/>
       </defs>
       <use xlink:href="#DejaVuSans-47"/>
       <use xlink:href="#DejaVuSans-41" transform="translate(77.490234 0)"/>
       <use xlink:href="#DejaVuSans-42" transform="translate(145.898438 0)"/>
       <use xlink:href="#DejaVuSans-41" transform="translate(214.501953 0)"/>
       <use xlink:href="#DejaVuSans-2d" transform="translate(280.660156 0)"/>
       <use xlink:href="#DejaVuSans-65" transform="translate(316.744141 0)"/>
       <use xlink:href="#DejaVuSans-72" transform="translate(378.267578 0)"/>
       <use xlink:href="#DejaVuSans-67" transform="translate(417.630859 0)"/>
       <use xlink:href="#DejaVuSans-69" transform="translate(481.107422 0)"/>
       <use xlink:href="#DejaVuSans-63" transform="translate(508.890625 0)"/>
       <use xlink:href="#DejaVuSans-20" transform="translate(563.871094 0)"/>
       <use xlink:href="#DejaVuSans-73" transform="translate(595.658203 0)"/>
       <use xlink:href="#DejaVuSans-79" transform="translate(647.757812 0)"/>
       <use xlink:href="#DejaVuSans-6e" transform="translate(706.9375 0)"/>
       <use xlink:href="#DejaVuSans-61" transform="translate(770.316406 0)"/>
       <use xlink:href="#DejaVuSans-70" transform="translate(831.595703 0)"/>
       <use xlink:href="#DejaVuSans-73" transform="translate(895.072266 0)"/>
       <use xlink:href="#DejaVuSans-65" transform="translate(947.171875 0)"/>
      </g>
     </g>
    </g>
    <g id="ytick_16">
     <g id="line2d_23">
      <g>
       <use xlink:href="#mcf3b5393c5" x="206.809375" y="225.403599" style="stroke: #000000; stroke-width: 0.8"/>
      </g>
     </g>
     <g id="text_24">
      <!-- cytoplasmic ribonucleoprotein granule -->
      <g transform="translate(7.2 229.202817) scale(0.1 -0.1)">
       <use xlink:href="#DejaVuSans-63"/>
       <use xlink:href="#DejaVuSans-79" transform="translate(54.980469 0)"/>
       <use xlink:href="#DejaVuSans-74" transform="translate(114.160156 0)"/>
       <use xlink:href="#DejaVuSans-6f" transform="translate(153.369141 0)"/>
       <use xlink:href="#DejaVuSans-70" transform="translate(214.550781 0)"/>
       <use xlink:href="#DejaVuSans-6c" transform="translate(278.027344 0)"/>
       <use xlink:href="#DejaVuSans-61" transform="translate(305.810547 0)"/>
       <use xlink:href="#DejaVuSans-73" transform="translate(367.089844 0)"/>
       <use xlink:href="#DejaVuSans-6d" transform="translate(419.189453 0)"/>
       <use xlink:href="#DejaVuSans-69" transform="translate(516.601562 0)"/>
       <use xlink:href="#DejaVuSans-63" transform="translate(544.384766 0)"/>
       <use xlink:href="#DejaVuSans-20" transform="translate(599.365234 0)"/>
       <use xlink:href="#DejaVuSans-72" transform="translate(631.152344 0)"/>
       <use xlink:href="#DejaVuSans-69" transform="translate(672.265625 0)"/>
       <use xlink:href="#DejaVuSans-62" transform="translate(700.048828 0)"/>
       <use xlink:href="#DejaVuSans-6f" transform="translate(763.525391 0)"/>
       <use xlink:href="#DejaVuSans-6e" transform="translate(824.707031 0)"/>
       <use xlink:href="#DejaVuSans-75" transform="translate(888.085938 0)"/>
       <use xlink:href="#DejaVuSans-63" transform="translate(951.464844 0)"/>
       <use xlink:href="#DejaVuSans-6c" transform="translate(1006.445312 0)"/>
       <use xlink:href="#DejaVuSans-65" transform="translate(1034.228516 0)"/>
       <use xlink:href="#DejaVuSans-6f" transform="translate(1095.751953 0)"/>
       <use xlink:href="#DejaVuSans-70" transform="translate(1156.933594 0)"/>
       <use xlink:href="#DejaVuSans-72" transform="translate(1220.410156 0)"/>
       <use xlink:href="#DejaVuSans-6f" transform="translate(1259.273438 0)"/>
       <use xlink:href="#DejaVuSans-74" transform="translate(1320.455078 0)"/>
       <use xlink:href="#DejaVuSans-65" transform="translate(1359.664062 0)"/>
       <use xlink:href="#DejaVuSans-69" transform="translate(1421.1875 0)"/>
       <use xlink:href="#DejaVuSans-6e" transform="translate(1448.970703 0)"/>
       <use xlink:href="#DejaVuSans-20" transform="translate(1512.349609 0)"/>
       <use xlink:href="#DejaVuSans-67" transform="translate(1544.136719 0)"/>
       <use xlink:href="#DejaVuSans-72" transform="translate(1607.613281 0)"/>
       <use xlink:href="#DejaVuSans-61" transform="translate(1648.726562 0)"/>
       <use xlink:href="#DejaVuSans-6e" transform="translate(1710.005859 0)"/>
       <use xlink:href="#DejaVuSans-75" transform="translate(1773.384766 0)"/>
       <use xlink:href="#DejaVuSans-6c" transform="translate(1836.763672 0)"/>
       <use xlink:href="#DejaVuSans-65" transform="translate(1864.546875 0)"/>
      </g>
     </g>
    </g>
    <g id="ytick_17">
     <g id="line2d_24">
      <g>
       <use xlink:href="#mcf3b5393c5" x="206.809375" y="238.13623" style="stroke: #000000; stroke-width: 0.8"/>
      </g>
     </g>
     <g id="text_25">
      <!-- postsynapse -->
      <g transform="translate(136.907812 241.935449) scale(0.1 -0.1)">
       <use xlink:href="#DejaVuSans-70"/>
       <use xlink:href="#DejaVuSans-6f" transform="translate(63.476562 0)"/>
       <use xlink:href="#DejaVuSans-73" transform="translate(124.658203 0)"/>
       <use xlink:href="#DejaVuSans-74" transform="translate(176.757812 0)"/>
       <use xlink:href="#DejaVuSans-73" transform="translate(215.966797 0)"/>
       <use xlink:href="#DejaVuSans-79" transform="translate(268.066406 0)"/>
       <use xlink:href="#DejaVuSans-6e" transform="translate(327.246094 0)"/>
       <use xlink:href="#DejaVuSans-61" transform="translate(390.625 0)"/>
       <use xlink:href="#DejaVuSans-70" transform="translate(451.904297 0)"/>
       <use xlink:href="#DejaVuSans-73" transform="translate(515.380859 0)"/>
       <use xlink:href="#DejaVuSans-65" transform="translate(567.480469 0)"/>
      </g>
     </g>
    </g>
    <g id="ytick_18">
     <g id="line2d_25">
      <g>
       <use xlink:href="#mcf3b5393c5" x="206.809375" y="250.868862" style="stroke: #000000; stroke-width: 0.8"/>
      </g>
     </g>
     <g id="text_26">
      <!-- growth cone -->
      <g transform="translate(137.734375 254.668081) scale(0.1 -0.1)">
       <defs>
        <path id="DejaVuSans-77" d="M 269 3500 
L 844 3500 
L 1563 769 
L 2278 3500 
L 2956 3500 
L 3675 769 
L 4391 3500 
L 4966 3500 
L 4050 0 
L 3372 0 
L 2619 2869 
L 1863 0 
L 1184 0 
L 269 3500 
z
" transform="scale(0.015625)"/>
       </defs>
       <use xlink:href="#DejaVuSans-67"/>
       <use xlink:href="#DejaVuSans-72" transform="translate(63.476562 0)"/>
       <use xlink:href="#DejaVuSans-6f" transform="translate(102.339844 0)"/>
       <use xlink:href="#DejaVuSans-77" transform="translate(163.521484 0)"/>
       <use xlink:href="#DejaVuSans-74" transform="translate(245.308594 0)"/>
       <use xlink:href="#DejaVuSans-68" transform="translate(284.517578 0)"/>
       <use xlink:href="#DejaVuSans-20" transform="translate(347.896484 0)"/>
       <use xlink:href="#DejaVuSans-63" transform="translate(379.683594 0)"/>
       <use xlink:href="#DejaVuSans-6f" transform="translate(434.664062 0)"/>
       <use xlink:href="#DejaVuSans-6e" transform="translate(495.845703 0)"/>
       <use xlink:href="#DejaVuSans-65" transform="translate(559.224609 0)"/>
      </g>
     </g>
    </g>
    <g id="ytick_19">
     <g id="line2d_26">
      <g>
       <use xlink:href="#mcf3b5393c5" x="206.809375" y="263.601493" style="stroke: #000000; stroke-width: 0.8"/>
      </g>
     </g>
     <g id="text_27">
      <!-- cytoplasmic stress granule -->
      <g transform="translate(65.734375 267.400712) scale(0.1 -0.1)">
       <use xlink:href="#DejaVuSans-63"/>
       <use xlink:href="#DejaVuSans-79" transform="translate(54.980469 0)"/>
       <use xlink:href="#DejaVuSans-74" transform="translate(114.160156 0)"/>
       <use xlink:href="#DejaVuSans-6f" transform="translate(153.369141 0)"/>
       <use xlink:href="#DejaVuSans-70" transform="translate(214.550781 0)"/>
       <use xlink:href="#DejaVuSans-6c" transform="translate(278.027344 0)"/>
       <use xlink:href="#DejaVuSans-61" transform="translate(305.810547 0)"/>
       <use xlink:href="#DejaVuSans-73" transform="translate(367.089844 0)"/>
       <use xlink:href="#DejaVuSans-6d" transform="translate(419.189453 0)"/>
       <use xlink:href="#DejaVuSans-69" transform="translate(516.601562 0)"/>
       <use xlink:href="#DejaVuSans-63" transform="translate(544.384766 0)"/>
       <use xlink:href="#DejaVuSans-20" transform="translate(599.365234 0)"/>
       <use xlink:href="#DejaVuSans-73" transform="translate(631.152344 0)"/>
       <use xlink:href="#DejaVuSans-74" transform="translate(683.251953 0)"/>
       <use xlink:href="#DejaVuSans-72" transform="translate(722.460938 0)"/>
       <use xlink:href="#DejaVuSans-65" transform="translate(761.324219 0)"/>
       <use xlink:href="#DejaVuSans-73" transform="translate(822.847656 0)"/>
       <use xlink:href="#DejaVuSans-73" transform="translate(874.947266 0)"/>
       <use xlink:href="#DejaVuSans-20" transform="translate(927.046875 0)"/>
       <use xlink:href="#DejaVuSans-67" transform="translate(958.833984 0)"/>
       <use xlink:href="#DejaVuSans-72" transform="translate(1022.310547 0)"/>
       <use xlink:href="#DejaVuSans-61" transform="translate(1063.423828 0)"/>
       <use xlink:href="#DejaVuSans-6e" transform="translate(1124.703125 0)"/>
       <use xlink:href="#DejaVuSans-75" transform="translate(1188.082031 0)"/>
       <use xlink:href="#DejaVuSans-6c" transform="translate(1251.460938 0)"/>
       <use xlink:href="#DejaVuSans-65" transform="translate(1279.244141 0)"/>
      </g>
     </g>
    </g>
    <g id="ytick_20">
     <g id="line2d_27">
      <g>
       <use xlink:href="#mcf3b5393c5" x="206.809375" y="276.334125" style="stroke: #000000; stroke-width: 0.8"/>
      </g>
     </g>
     <g id="text_28">
      <!-- Schaffer collateral - CA1 synapse -->
      <g transform="translate(33.989062 280.133344) scale(0.1 -0.1)">
       <defs>
        <path id="DejaVuSans-31" d="M 794 531 
L 1825 531 
L 1825 4091 
L 703 3866 
L 703 4441 
L 1819 4666 
L 2450 4666 
L 2450 531 
L 3481 531 
L 3481 0 
L 794 0 
L 794 531 
z
" transform="scale(0.015625)"/>
       </defs>
       <use xlink:href="#DejaVuSans-53"/>
       <use xlink:href="#DejaVuSans-63" transform="translate(63.476562 0)"/>
       <use xlink:href="#DejaVuSans-68" transform="translate(118.457031 0)"/>
       <use xlink:href="#DejaVuSans-61" transform="translate(181.835938 0)"/>
       <use xlink:href="#DejaVuSans-66" transform="translate(243.115234 0)"/>
       <use xlink:href="#DejaVuSans-66" transform="translate(278.320312 0)"/>
       <use xlink:href="#DejaVuSans-65" transform="translate(313.525391 0)"/>
       <use xlink:href="#DejaVuSans-72" transform="translate(375.048828 0)"/>
       <use xlink:href="#DejaVuSans-20" transform="translate(416.162109 0)"/>
       <use xlink:href="#DejaVuSans-63" transform="translate(447.949219 0)"/>
       <use xlink:href="#DejaVuSans-6f" transform="translate(502.929688 0)"/>
       <use xlink:href="#DejaVuSans-6c" transform="translate(564.111328 0)"/>
       <use xlink:href="#DejaVuSans-6c" transform="translate(591.894531 0)"/>
       <use xlink:href="#DejaVuSans-61" transform="translate(619.677734 0)"/>
       <use xlink:href="#DejaVuSans-74" transform="translate(680.957031 0)"/>
       <use xlink:href="#DejaVuSans-65" transform="translate(720.166016 0)"/>
       <use xlink:href="#DejaVuSans-72" transform="translate(781.689453 0)"/>
       <use xlink:href="#DejaVuSans-61" transform="translate(822.802734 0)"/>
       <use xlink:href="#DejaVuSans-6c" transform="translate(884.082031 0)"/>
       <use xlink:href="#DejaVuSans-20" transform="translate(911.865234 0)"/>
       <use xlink:href="#DejaVuSans-2d" transform="translate(943.652344 0)"/>
       <use xlink:href="#DejaVuSans-20" transform="translate(979.736328 0)"/>
       <use xlink:href="#DejaVuSans-43" transform="translate(1011.523438 0)"/>
       <use xlink:href="#DejaVuSans-41" transform="translate(1081.347656 0)"/>
       <use xlink:href="#DejaVuSans-31" transform="translate(1149.755859 0)"/>
       <use xlink:href="#DejaVuSans-20" transform="translate(1213.378906 0)"/>
       <use xlink:href="#DejaVuSans-73" transform="translate(1245.166016 0)"/>
       <use xlink:href="#DejaVuSans-79" transform="translate(1297.265625 0)"/>
       <use xlink:href="#DejaVuSans-6e" transform="translate(1356.445312 0)"/>
       <use xlink:href="#DejaVuSans-61" transform="translate(1419.824219 0)"/>
       <use xlink:href="#DejaVuSans-70" transform="translate(1481.103516 0)"/>
       <use xlink:href="#DejaVuSans-73" transform="translate(1544.580078 0)"/>
       <use xlink:href="#DejaVuSans-65" transform="translate(1596.679688 0)"/>
      </g>
     </g>
    </g>
   </g>
   <g id="line2d_28"/>
   <g id="line2d_29"/>
   <g id="line2d_30"/>
   <g id="line2d_31"/>
   <g id="line2d_32"/>
   <g id="line2d_33"/>
   <g id="line2d_34"/>
   <g id="line2d_35"/>
   <g id="line2d_36"/>
   <g id="line2d_37"/>
   <g id="line2d_38"/>
   <g id="line2d_39"/>
   <g id="line2d_40"/>
   <g id="patch_3">
    <path d="M 206.809375 288.430125 
L 206.809375 22.318125 
" style="fill: none; stroke: #000000; stroke-width: 0.8; stroke-linejoin: miter; stroke-linecap: square"/>
   </g>
   <g id="patch_4">
    <path d="M 563.929375 288.430125 
L 563.929375 22.318125 
" style="fill: none; stroke: #000000; stroke-width: 0.8; stroke-linejoin: miter; stroke-linecap: square"/>
   </g>
   <g id="patch_5">
    <path d="M 206.809375 288.430125 
L 563.929375 288.430125 
" style="fill: none; stroke: #000000; stroke-width: 0.8; stroke-linejoin: miter; stroke-linecap: square"/>
   </g>
   <g id="patch_6">
    <path d="M 206.809375 22.318125 
L 563.929375 22.318125 
" style="fill: none; stroke: #000000; stroke-width: 0.8; stroke-linejoin: miter; stroke-linecap: square"/>
   </g>
   <g id="text_29">
    <!-- Top 20 Enriched Cellular Components -->
    <g transform="translate(272.86375 16.318125) scale(0.12 -0.12)">
     <defs>
      <path id="DejaVuSans-54" d="M -19 4666 
L 3928 4666 
L 3928 4134 
L 2272 4134 
L 2272 0 
L 1638 0 
L 1638 4134 
L -19 4134 
L -19 4666 
z
" transform="scale(0.015625)"/>
     </defs>
     <use xlink:href="#DejaVuSans-54"/>
     <use xlink:href="#DejaVuSans-6f" transform="translate(44.083984 0)"/>
     <use xlink:href="#DejaVuSans-70" transform="translate(105.265625 0)"/>
     <use xlink:href="#DejaVuSans-20" transform="translate(168.742188 0)"/>
     <use xlink:href="#DejaVuSans-32" transform="translate(200.529297 0)"/>
     <use xlink:href="#DejaVuSans-30" transform="translate(264.152344 0)"/>
     <use xlink:href="#DejaVuSans-20" transform="translate(327.775391 0)"/>
     <use xlink:href="#DejaVuSans-45" transform="translate(359.5625 0)"/>
     <use xlink:href="#DejaVuSans-6e" transform="translate(422.746094 0)"/>
     <use xlink:href="#DejaVuSans-72" transform="translate(486.125 0)"/>
     <use xlink:href="#DejaVuSans-69" transform="translate(527.238281 0)"/>
     <use xlink:href="#DejaVuSans-63" transform="translate(555.021484 0)"/>
     <use xlink:href="#DejaVuSans-68" transform="translate(610.001953 0)"/>
     <use xlink:href="#DejaVuSans-65" transform="translate(673.380859 0)"/>
     <use xlink:href="#DejaVuSans-64" transform="translate(734.904297 0)"/>
     <use xlink:href="#DejaVuSans-20" transform="translate(798.380859 0)"/>
     <use xlink:href="#DejaVuSans-43" transform="translate(830.167969 0)"/>
     <use xlink:href="#DejaVuSans-65" transform="translate(899.992188 0)"/>
     <use xlink:href="#DejaVuSans-6c" transform="translate(961.515625 0)"/>
     <use xlink:href="#DejaVuSans-6c" transform="translate(989.298828 0)"/>
     <use xlink:href="#DejaVuSans-75" transform="translate(1017.082031 0)"/>
     <use xlink:href="#DejaVuSans-6c" transform="translate(1080.460938 0)"/>
     <use xlink:href="#DejaVuSans-61" transform="translate(1108.244141 0)"/>
     <use xlink:href="#DejaVuSans-72" transform="translate(1169.523438 0)"/>
     <use xlink:href="#DejaVuSans-20" transform="translate(1210.636719 0)"/>
     <use xlink:href="#DejaVuSans-43" transform="translate(1242.423828 0)"/>
     <use xlink:href="#DejaVuSans-6f" transform="translate(1312.248047 0)"/>
     <use xlink:href="#DejaVuSans-6d" transform="translate(1373.429688 0)"/>
     <use xlink:href="#DejaVuSans-70" transform="translate(1470.841797 0)"/>
     <use xlink:href="#DejaVuSans-6f" transform="translate(1534.318359 0)"/>
     <use xlink:href="#DejaVuSans-6e" transform="translate(1595.5 0)"/>
     <use xlink:href="#DejaVuSans-65" transform="translate(1658.878906 0)"/>
     <use xlink:href="#DejaVuSans-6e" transform="translate(1720.402344 0)"/>
     <use xlink:href="#DejaVuSans-74" transform="translate(1783.78125 0)"/>
     <use xlink:href="#DejaVuSans-73" transform="translate(1822.990234 0)"/>
    </g>
   </g>
   <g id="legend_1">
    <g id="patch_7">
     <path d="M 570.929375 221.13375 
L 658.168437 221.13375 
Q 660.168437 221.13375 660.168437 219.13375 
L 660.168437 29.318125 
Q 660.168437 27.318125 658.168437 27.318125 
L 570.929375 27.318125 
Q 568.929375 27.318125 568.929375 29.318125 
L 568.929375 219.13375 
Q 568.929375 221.13375 570.929375 221.13375 
z
" style="fill: #ffffff; opacity: 0.8; stroke: #cccccc; stroke-linejoin: miter"/>
    </g>
    <g id="line2d_41"/>
    <g id="text_30">
     <!-- -log10 FDR -->
     <g transform="translate(600.929375 38.916562) scale(0.1 -0.1)">
      <defs>
       <path id="DejaVuSans-44" d="M 1259 4147 
L 1259 519 
L 2022 519 
Q 2988 519 3436 956 
Q 3884 1394 3884 2338 
Q 3884 3275 3436 3711 
Q 2988 4147 2022 4147 
L 1259 4147 
z
M 628 4666 
L 1925 4666 
Q 3281 4666 3915 4102 
Q 4550 3538 4550 2338 
Q 4550 1131 3912 565 
Q 3275 0 1925 0 
L 628 0 
L 628 4666 
z
" transform="scale(0.015625)"/>
      </defs>
      <use xlink:href="#DejaVuSans-2d"/>
      <use xlink:href="#DejaVuSans-6c" transform="translate(36.083984 0)"/>
      <use xlink:href="#DejaVuSans-6f" transform="translate(63.867188 0)"/>
      <use xlink:href="#DejaVuSans-67" transform="translate(125.048828 0)"/>
      <use xlink:href="#DejaVuSans-31" transform="translate(188.525391 0)"/>
      <use xlink:href="#DejaVuSans-30" transform="translate(252.148438 0)"/>
      <use xlink:href="#DejaVuSans-20" transform="translate(315.771484 0)"/>
      <use xlink:href="#DejaVuSans-46" transform="translate(347.558594 0)"/>
      <use xlink:href="#DejaVuSans-44" transform="translate(405.078125 0)"/>
      <use xlink:href="#DejaVuSans-52" transform="translate(482.080078 0)"/>
     </g>
    </g>
    <g id="line2d_42">
     <defs>
      <path id="m5891c135a5" d="M 0 3 
C 0.795609 3 1.55874 2.683901 2.12132 2.12132 
C 2.683901 1.55874 3 0.795609 3 0 
C 3 -0.795609 2.683901 -1.55874 2.12132 -2.12132 
C 1.55874 -2.683901 0.795609 -3 0 -3 
C -0.795609 -3 -1.55874 -2.683901 -2.12132 -2.12132 
C -2.683901 -1.55874 -3 -0.795609 -3 0 
C -3 0.795609 -2.683901 1.55874 -2.12132 2.12132 
C -1.55874 2.683901 -0.795609 3 0 3 
z
" style="stroke: #ffffff; stroke-width: 0.380936"/>
     </defs>
     <g>
      <use xlink:href="#m5891c135a5" x="582.929375" y="50.094688" style="fill: #4c66d6; stroke: #ffffff; stroke-width: 0.380936"/>
     </g>
    </g>
    <g id="text_31">
     <!-- 6 -->
     <g transform="translate(600.929375 53.594688) scale(0.1 -0.1)">
      <use xlink:href="#DejaVuSans-36"/>
     </g>
    </g>
    <g id="line2d_43">
     <defs>
      <path id="m9f6bca9d7e" d="M 0 3 
C 0.795609 3 1.55874 2.683901 2.12132 2.12132 
C 2.683901 1.55874 3 0.795609 3 0 
C 3 -0.795609 2.683901 -1.55874 2.12132 -2.12132 
C 1.55874 -2.683901 0.795609 -3 0 -3 
C -0.795609 -3 -1.55874 -2.683901 -2.12132 -2.12132 
C -2.683901 -1.55874 -3 -0.795609 -3 0 
C -3 0.795609 -2.683901 1.55874 -2.12132 2.12132 
C -1.55874 2.683901 -0.795609 3 0 3 
z
" style="stroke: #ffffff; stroke-width: 0.380936"/>
     </defs>
     <g>
      <use xlink:href="#m9f6bca9d7e" x="582.929375" y="64.772812" style="fill: #8caffe; stroke: #ffffff; stroke-width: 0.380936"/>
     </g>
    </g>
    <g id="text_32">
     <!-- 12 -->
     <g transform="translate(600.929375 68.272812) scale(0.1 -0.1)">
      <use xlink:href="#DejaVuSans-31"/>
      <use xlink:href="#DejaVuSans-32" transform="translate(63.623047 0)"/>
     </g>
    </g>
    <g id="line2d_44">
     <defs>
      <path id="mf06bc8ff07" d="M 0 3 
C 0.795609 3 1.55874 2.683901 2.12132 2.12132 
C 2.683901 1.55874 3 0.795609 3 0 
C 3 -0.795609 2.683901 -1.55874 2.12132 -2.12132 
C 1.55874 -2.683901 0.795609 -3 0 -3 
C -0.795609 -3 -1.55874 -2.683901 -2.12132 -2.12132 
C -2.683901 -1.55874 -3 -0.795609 -3 0 
C -3 0.795609 -2.683901 1.55874 -2.12132 2.12132 
C -1.55874 2.683901 -0.795609 3 0 3 
z
" style="stroke: #ffffff; stroke-width: 0.380936"/>
     </defs>
     <g>
      <use xlink:href="#mf06bc8ff07" x="582.929375" y="79.450938" style="fill: #cbd8ee; stroke: #ffffff; stroke-width: 0.380936"/>
     </g>
    </g>
    <g id="text_33">
     <!-- 18 -->
     <g transform="translate(600.929375 82.950938) scale(0.1 -0.1)">
      <use xlink:href="#DejaVuSans-31"/>
      <use xlink:href="#DejaVuSans-38" transform="translate(63.623047 0)"/>
     </g>
    </g>
    <g id="line2d_45">
     <defs>
      <path id="m4675c118b7" d="M 0 3 
C 0.795609 3 1.55874 2.683901 2.12132 2.12132 
C 2.683901 1.55874 3 0.795609 3 0 
C 3 -0.795609 2.683901 -1.55874 2.12132 -2.12132 
C 1.55874 -2.683901 0.795609 -3 0 -3 
C -0.795609 -3 -1.55874 -2.683901 -2.12132 -2.12132 
C -2.683901 -1.55874 -3 -0.795609 -3 0 
C -3 0.795609 -2.683901 1.55874 -2.12132 2.12132 
C -1.55874 2.683901 -0.795609 3 0 3 
z
" style="stroke: #ffffff; stroke-width: 0.380936"/>
     </defs>
     <g>
      <use xlink:href="#m4675c118b7" x="582.929375" y="94.129063" style="fill: #f4c5ad; stroke: #ffffff; stroke-width: 0.380936"/>
     </g>
    </g>
    <g id="text_34">
     <!-- 24 -->
     <g transform="translate(600.929375 97.629063) scale(0.1 -0.1)">
      <use xlink:href="#DejaVuSans-32"/>
      <use xlink:href="#DejaVuSans-34" transform="translate(63.623047 0)"/>
     </g>
    </g>
    <g id="line2d_46">
     <defs>
      <path id="md30464fdf1" d="M 0 3 
C 0.795609 3 1.55874 2.683901 2.12132 2.12132 
C 2.683901 1.55874 3 0.795609 3 0 
C 3 -0.795609 2.683901 -1.55874 2.12132 -2.12132 
C 1.55874 -2.683901 0.795609 -3 0 -3 
C -0.795609 -3 -1.55874 -2.683901 -2.12132 -2.12132 
C -2.683901 -1.55874 -3 -0.795609 -3 0 
C -3 0.795609 -2.683901 1.55874 -2.12132 2.12132 
C -1.55874 2.683901 -0.795609 3 0 3 
z
" style="stroke: #ffffff; stroke-width: 0.380936"/>
     </defs>
     <g>
      <use xlink:href="#md30464fdf1" x="582.929375" y="108.807187" style="fill: #ec7f63; stroke: #ffffff; stroke-width: 0.380936"/>
     </g>
    </g>
    <g id="text_35">
     <!-- 30 -->
     <g transform="translate(600.929375 112.307187) scale(0.1 -0.1)">
      <use xlink:href="#DejaVuSans-33"/>
      <use xlink:href="#DejaVuSans-30" transform="translate(63.623047 0)"/>
     </g>
    </g>
    <g id="line2d_47">
     <defs>
      <path id="m8f245bd6ca" d="M 0 3 
C 0.795609 3 1.55874 2.683901 2.12132 2.12132 
C 2.683901 1.55874 3 0.795609 3 0 
C 3 -0.795609 2.683901 -1.55874 2.12132 -2.12132 
C 1.55874 -2.683901 0.795609 -3 0 -3 
C -0.795609 -3 -1.55874 -2.683901 -2.12132 -2.12132 
C -2.683901 -1.55874 -3 -0.795609 -3 0 
C -3 0.795609 -2.683901 1.55874 -2.12132 2.12132 
C -1.55874 2.683901 -0.795609 3 0 3 
z
" style="stroke: #ffffff; stroke-width: 0.380936"/>
     </defs>
     <g>
      <use xlink:href="#m8f245bd6ca" x="582.929375" y="123.485313" style="fill: #b40426; stroke: #ffffff; stroke-width: 0.380936"/>
     </g>
    </g>
    <g id="text_36">
     <!-- 36 -->
     <g transform="translate(600.929375 126.985313) scale(0.1 -0.1)">
      <use xlink:href="#DejaVuSans-33"/>
      <use xlink:href="#DejaVuSans-36" transform="translate(63.623047 0)"/>
     </g>
    </g>
    <g id="line2d_48"/>
    <g id="text_37">
     <!-- Gene Ratio -->
     <g transform="translate(600.929375 141.663437) scale(0.1 -0.1)">
      <use xlink:href="#DejaVuSans-47"/>
      <use xlink:href="#DejaVuSans-65" transform="translate(77.490234 0)"/>
      <use xlink:href="#DejaVuSans-6e" transform="translate(139.013672 0)"/>
      <use xlink:href="#DejaVuSans-65" transform="translate(202.392578 0)"/>
      <use xlink:href="#DejaVuSans-20" transform="translate(263.916016 0)"/>
      <use xlink:href="#DejaVuSans-52" transform="translate(295.703125 0)"/>
      <use xlink:href="#DejaVuSans-61" transform="translate(362.935547 0)"/>
      <use xlink:href="#DejaVuSans-74" transform="translate(424.214844 0)"/>
      <use xlink:href="#DejaVuSans-69" transform="translate(463.423828 0)"/>
      <use xlink:href="#DejaVuSans-6f" transform="translate(491.207031 0)"/>
     </g>
    </g>
    <g id="line2d_49">
     <defs>
      <path id="m07bd852134" d="M 0 2.87573 
C 0.762652 2.87573 1.494171 2.572725 2.033448 2.033448 
C 2.572725 1.494171 2.87573 0.762652 2.87573 0 
C 2.87573 -0.762652 2.572725 -1.494171 2.033448 -2.033448 
C 1.494171 -2.572725 0.762652 -2.87573 0 -2.87573 
C -0.762652 -2.87573 -1.494171 -2.572725 -2.033448 -2.033448 
C -2.572725 -1.494171 -2.87573 -0.762652 -2.87573 0 
C -2.87573 0.762652 -2.572725 1.494171 -2.033448 2.033448 
C -1.494171 2.572725 -0.762652 2.87573 0 2.87573 
z
" style="stroke: #ffffff; stroke-width: 0.380936"/>
     </defs>
     <g>
      <use xlink:href="#m07bd852134" x="582.929375" y="152.841563" style="fill: #333333; stroke: #ffffff; stroke-width: 0.380936"/>
     </g>
    </g>
    <g id="text_38">
     <!-- 0.006 -->
     <g transform="translate(600.929375 156.341563) scale(0.1 -0.1)">
      <use xlink:href="#DejaVuSans-30"/>
      <use xlink:href="#DejaVuSans-2e" transform="translate(63.623047 0)"/>
      <use xlink:href="#DejaVuSans-30" transform="translate(95.410156 0)"/>
      <use xlink:href="#DejaVuSans-30" transform="translate(159.033203 0)"/>
      <use xlink:href="#DejaVuSans-36" transform="translate(222.65625 0)"/>
     </g>
    </g>
    <g id="line2d_50">
     <defs>
      <path id="m6da6e68b46" d="M 0 3.812624 
C 1.01112 3.812624 1.980963 3.410902 2.695932 2.695932 
C 3.410902 1.980963 3.812624 1.01112 3.812624 0 
C 3.812624 -1.01112 3.410902 -1.980963 2.695932 -2.695932 
C 1.980963 -3.410902 1.01112 -3.812624 0 -3.812624 
C -1.01112 -3.812624 -1.980963 -3.410902 -2.695932 -2.695932 
C -3.410902 -1.980963 -3.812624 -1.01112 -3.812624 0 
C -3.812624 1.01112 -3.410902 1.980963 -2.695932 2.695932 
C -1.980963 3.410902 -1.01112 3.812624 0 3.812624 
z
" style="stroke: #ffffff; stroke-width: 0.380936"/>
     </defs>
     <g>
      <use xlink:href="#m6da6e68b46" x="582.929375" y="167.519687" style="fill: #333333; stroke: #ffffff; stroke-width: 0.380936"/>
     </g>
    </g>
    <g id="text_39">
     <!-- 0.012 -->
     <g transform="translate(600.929375 171.019687) scale(0.1 -0.1)">
      <use xlink:href="#DejaVuSans-30"/>
      <use xlink:href="#DejaVuSans-2e" transform="translate(63.623047 0)"/>
      <use xlink:href="#DejaVuSans-30" transform="translate(95.410156 0)"/>
      <use xlink:href="#DejaVuSans-31" transform="translate(159.033203 0)"/>
      <use xlink:href="#DejaVuSans-32" transform="translate(222.65625 0)"/>
     </g>
    </g>
    <g id="line2d_51">
     <defs>
      <path id="mdcac0b8d28" d="M 0 4.560962 
C 1.209581 4.560962 2.369784 4.08039 3.225087 3.225087 
C 4.08039 2.369784 4.560962 1.209581 4.560962 0 
C 4.560962 -1.209581 4.08039 -2.369784 3.225087 -3.225087 
C 2.369784 -4.08039 1.209581 -4.560962 0 -4.560962 
C -1.209581 -4.560962 -2.369784 -4.08039 -3.225087 -3.225087 
C -4.08039 -2.369784 -4.560962 -1.209581 -4.560962 0 
C -4.560962 1.209581 -4.08039 2.369784 -3.225087 3.225087 
C -2.369784 4.08039 -1.209581 4.560962 0 4.560962 
z
" style="stroke: #ffffff; stroke-width: 0.380936"/>
     </defs>
     <g>
      <use xlink:href="#mdcac0b8d28" x="582.929375" y="182.197812" style="fill: #333333; stroke: #ffffff; stroke-width: 0.380936"/>
     </g>
    </g>
    <g id="text_40">
     <!-- 0.018 -->
     <g transform="translate(600.929375 185.697812) scale(0.1 -0.1)">
      <use xlink:href="#DejaVuSans-30"/>
      <use xlink:href="#DejaVuSans-2e" transform="translate(63.623047 0)"/>
      <use xlink:href="#DejaVuSans-30" transform="translate(95.410156 0)"/>
      <use xlink:href="#DejaVuSans-31" transform="translate(159.033203 0)"/>
      <use xlink:href="#DejaVuSans-38" transform="translate(222.65625 0)"/>
     </g>
    </g>
    <g id="line2d_52">
     <defs>
      <path id="m9572b92835" d="M 0 5.202754 
C 1.379787 5.202754 2.703246 4.654559 3.678903 3.678903 
C 4.654559 2.703246 5.202754 1.379787 5.202754 0 
C 5.202754 -1.379787 4.654559 -2.703246 3.678903 -3.678903 
C 2.703246 -4.654559 1.379787 -5.202754 0 -5.202754 
C -1.379787 -5.202754 -2.703246 -4.654559 -3.678903 -3.678903 
C -4.654559 -2.703246 -5.202754 -1.379787 -5.202754 0 
C -5.202754 1.379787 -4.654559 2.703246 -3.678903 3.678903 
C -2.703246 4.654559 -1.379787 5.202754 0 5.202754 
z
" style="stroke: #ffffff; stroke-width: 0.380936"/>
     </defs>
     <g>
      <use xlink:href="#m9572b92835" x="582.929375" y="196.875937" style="fill: #333333; stroke: #ffffff; stroke-width: 0.380936"/>
     </g>
    </g>
    <g id="text_41">
     <!-- 0.024 -->
     <g transform="translate(600.929375 200.375937) scale(0.1 -0.1)">
      <use xlink:href="#DejaVuSans-30"/>
      <use xlink:href="#DejaVuSans-2e" transform="translate(63.623047 0)"/>
      <use xlink:href="#DejaVuSans-30" transform="translate(95.410156 0)"/>
      <use xlink:href="#DejaVuSans-32" transform="translate(159.033203 0)"/>
      <use xlink:href="#DejaVuSans-34" transform="translate(222.65625 0)"/>
     </g>
    </g>
    <g id="line2d_53">
     <defs>
      <path id="m95c159a40e" d="M 0 5.773641 
C 1.531187 5.773641 2.999868 5.165294 4.082581 4.082581 
C 5.165294 2.999868 5.773641 1.531187 5.773641 0 
C 5.773641 -1.531187 5.165294 -2.999868 4.082581 -4.082581 
C 2.999868 -5.165294 1.531187 -5.773641 0 -5.773641 
C -1.531187 -5.773641 -2.999868 -5.165294 -4.082581 -4.082581 
C -5.165294 -2.999868 -5.773641 -1.531187 -5.773641 0 
C -5.773641 1.531187 -5.165294 2.999868 -4.082581 4.082581 
C -2.999868 5.165294 -1.531187 5.773641 0 5.773641 
z
" style="stroke: #ffffff; stroke-width: 0.380936"/>
     </defs>
     <g>
      <use xlink:href="#m95c159a40e" x="582.929375" y="211.554062" style="fill: #333333; stroke: #ffffff; stroke-width: 0.380936"/>
     </g>
    </g>
    <g id="text_42">
     <!-- 0.030 -->
     <g transform="translate(600.929375 215.054062) scale(0.1 -0.1)">
      <use xlink:href="#DejaVuSans-30"/>
      <use xlink:href="#DejaVuSans-2e" transform="translate(63.623047 0)"/>
      <use xlink:href="#DejaVuSans-30" transform="translate(95.410156 0)"/>
      <use xlink:href="#DejaVuSans-33" transform="translate(159.033203 0)"/>
      <use xlink:href="#DejaVuSans-30" transform="translate(222.65625 0)"/>
     </g>
    </g>
   </g>
  </g>
 </g>
 <defs>
  <clipPath id="p149ec22ba6">
   <rect x="206.809375" y="22.318125" width="357.12" height="266.112"/>
  </clipPath>
 </defs>
</svg>
