<?xml version="1.0" encoding="utf-8" standalone="no"?>
<!DOCTYPE svg PUBLIC "-//W3C//DTD SVG 1.1//EN"
  "http://www.w3.org/Graphics/SVG/1.1/DTD/svg11.dtd">
<svg xmlns:xlink="http://www.w3.org/1999/xlink" width="638.098438pt" height="281.634375pt" viewBox="0 0 638.098438 281.634375" xmlns="http://www.w3.org/2000/svg" version="1.1">
 <metadata>
  <rdf:RDF xmlns:dc="http://purl.org/dc/elements/1.1/" xmlns:cc="http://creativecommons.org/ns#" xmlns:rdf="http://www.w3.org/1999/02/22-rdf-syntax-ns#">
   <cc:Work>
    <dc:type rdf:resource="http://purl.org/dc/dcmitype/StillImage"/>
    <dc:date>2025-12-27T20:03:58.826566</dc:date>
    <dc:format>image/svg+xml</dc:format>
    <dc:creator>
     <cc:Agent>
      <dc:title>Matplotlib v3.10.7, https://matplotlib.org/</dc:title>
     </cc:Agent>
    </dc:creator>
   </cc:Work>
  </rdf:RDF>
 </metadata>
 <defs>
  <style type="text/css">*{stroke-linejoin: round; stroke-linecap: butt}</style>
 </defs>
 <g id="figure_1">
  <g id="patch_1">
   <path d="M 0 281.634375 
L 638.098438 281.634375 
L 638.098438 0 
L 0 0 
z
" style="fill: #ffffff"/>
  </g>
  <g id="axes_1">
   <g id="patch_2">
    <path d="M 367.259375 244.078125 
L 534.659375 244.078125 
L 534.659375 22.318125 
L 367.259375 22.318125 
z
" style="fill: #ffffff"/>
   </g>
   <g id="PathCollection_1">
    <path d="M 527.050284 35.680049 
C 527.920661 35.680049 528.755506 35.334245 529.370955 34.718796 
C 529.986404 34.103347 530.332209 33.268502 530.332209 32.398125 
C 530.332209 31.527748 529.986404 30.692903 529.370955 30.077454 
C 528.755506 29.462005 527.920661 29.116201 527.050284 29.116201 
C 526.179908 29.116201 525.345062 29.462005 524.729613 30.077454 
C 524.114164 30.692903 523.76836 31.527748 523.76836 32.398125 
C 523.76836 33.268502 524.114164 34.103347 524.729613 34.718796 
C 525.345062 35.334245 526.179908 35.680049 527.050284 35.680049 
z
" clip-path="url(#pf562537f2d)" style="fill: #81a4fb; stroke: #ffffff; stroke-width: 0.481866"/>
    <path d="M 508.59345 48.503795 
C 509.523165 48.503795 510.414926 48.134415 511.072333 47.477008 
C 511.72974 46.8196 512.09912 45.927839 512.09912 44.998125 
C 512.09912 44.068411 511.72974 43.17665 511.072333 42.519242 
C 510.414926 41.861835 509.523165 41.492455 508.59345 41.492455 
C 507.663736 41.492455 506.771975 41.861835 506.114568 42.519242 
C 505.45716 43.17665 505.087781 44.068411 505.087781 44.998125 
C 505.087781 45.927839 505.45716 46.8196 506.114568 47.477008 
C 506.771975 48.134415 507.663736 48.503795 508.59345 48.503795 
z
" clip-path="url(#pf562537f2d)" style="fill: #98b9ff; stroke: #ffffff; stroke-width: 0.481866"/>
    <path d="M 501.658245 61.394951 
C 502.665175 61.394951 503.630999 60.994893 504.343006 60.282886 
C 505.055013 59.570879 505.455071 58.605055 505.455071 57.598125 
C 505.455071 56.591195 505.055013 55.625371 504.343006 54.913364 
C 503.630999 54.201357 502.665175 53.801299 501.658245 53.801299 
C 500.651315 53.801299 499.685491 54.201357 498.973484 54.913364 
C 498.261477 55.625371 497.861419 56.591195 497.861419 57.598125 
C 497.861419 58.605055 498.261477 59.570879 498.973484 60.282886 
C 499.685491 60.994893 500.651315 61.394951 501.658245 61.394951 
z
" clip-path="url(#pf562537f2d)" style="fill: #d9dce1; stroke: #ffffff; stroke-width: 0.481866"/>
    <path d="M 488.234679 73.660203 
C 489.152832 73.660203 490.033504 73.295416 490.682737 72.646184 
C 491.33197 71.996951 491.696756 71.116279 491.696756 70.198125 
C 491.696756 69.279971 491.33197 68.399299 490.682737 67.750066 
C 490.033504 67.100834 489.152832 66.736047 488.234679 66.736047 
C 487.316525 66.736047 486.435853 67.100834 485.78662 67.750066 
C 485.137387 68.399299 484.772601 69.279971 484.772601 70.198125 
C 484.772601 71.116279 485.137387 71.996951 485.78662 72.646184 
C 486.435853 73.295416 487.316525 73.660203 488.234679 73.660203 
z
" clip-path="url(#pf562537f2d)" style="fill: #4b64d5; stroke: #ffffff; stroke-width: 0.481866"/>
    <path d="M 466.751828 86.865318 
C 467.83046 86.865318 468.865059 86.436773 469.627767 85.674065 
C 470.390475 84.911356 470.81902 83.876757 470.81902 82.798125 
C 470.81902 81.719493 470.390475 80.684894 469.627767 79.922185 
C 468.865059 79.159477 467.83046 78.730932 466.751828 78.730932 
C 465.673196 78.730932 464.638596 79.159477 463.875888 79.922185 
C 463.11318 80.684894 462.684635 81.719493 462.684635 82.798125 
C 462.684635 83.876757 463.11318 84.911356 463.875888 85.674065 
C 464.638596 86.436773 465.673196 86.865318 466.751828 86.865318 
z
" clip-path="url(#pf562537f2d)" style="fill: #85a8fc; stroke: #ffffff; stroke-width: 0.481866"/>
    <path d="M 460.303873 99.313109 
C 461.342139 99.313109 462.33802 98.900602 463.072185 98.166437 
C 463.80635 97.432272 464.218857 96.436391 464.218857 95.398125 
C 464.218857 94.359859 463.80635 93.363978 463.072185 92.629813 
C 462.33802 91.895648 461.342139 91.483141 460.303873 91.483141 
C 459.265607 91.483141 458.269726 91.895648 457.535561 92.629813 
C 456.801396 93.363978 456.388888 94.359859 456.388888 95.398125 
C 456.388888 96.436391 456.801396 97.432272 457.535561 98.166437 
C 458.269726 98.900602 459.265607 99.313109 460.303873 99.313109 
z
" clip-path="url(#pf562537f2d)" style="fill: #4055c8; stroke: #ffffff; stroke-width: 0.481866"/>
    <path d="M 449.958179 112.49111 
C 451.149732 112.49111 452.292643 112.017701 453.135199 111.175145 
C 453.977755 110.33259 454.451164 109.189679 454.451164 107.998125 
C 454.451164 106.806571 453.977755 105.66366 453.135199 104.821105 
C 452.292643 103.978549 451.149732 103.50514 449.958179 103.50514 
C 448.766625 103.50514 447.623714 103.978549 446.781159 104.821105 
C 445.938603 105.66366 445.465194 106.806571 445.465194 107.998125 
C 445.465194 109.189679 445.938603 110.33259 446.781159 111.175145 
C 447.623714 112.017701 448.766625 112.49111 449.958179 112.49111 
z
" clip-path="url(#pf562537f2d)" style="fill: #6282ea; stroke: #ffffff; stroke-width: 0.481866"/>
    <path d="M 448.176389 124.918799 
C 449.322245 124.918799 450.421324 124.463546 451.231567 123.653303 
C 452.04181 122.84306 452.497063 121.743981 452.497063 120.598125 
C 452.497063 119.452269 452.04181 118.35319 451.231567 117.542947 
C 450.421324 116.732704 449.322245 116.277451 448.176389 116.277451 
C 447.030533 116.277451 445.931454 116.732704 445.121211 117.542947 
C 444.310968 118.35319 443.855715 119.452269 443.855715 120.598125 
C 443.855715 121.743981 444.310968 122.84306 445.121211 123.653303 
C 445.931454 124.463546 447.030533 124.918799 448.176389 124.918799 
z
" clip-path="url(#pf562537f2d)" style="fill: #3b4cc0; stroke: #ffffff; stroke-width: 0.481866"/>
    <path d="M 447.986498 138.079905 
C 449.281161 138.079905 450.522973 137.56553 451.438438 136.650065 
C 452.353903 135.7346 452.868278 134.492788 452.868278 133.198125 
C 452.868278 131.903462 452.353903 130.66165 451.438438 129.746185 
C 450.522973 128.83072 449.281161 128.316345 447.986498 128.316345 
C 446.691835 128.316345 445.450023 128.83072 444.534558 129.746185 
C 443.619093 130.66165 443.104718 131.903462 443.104718 133.198125 
C 443.104718 134.492788 443.619093 135.7346 444.534558 136.650065 
C 445.450023 137.56553 446.691835 138.079905 447.986498 138.079905 
z
" clip-path="url(#pf562537f2d)" style="fill: #97b8ff; stroke: #ffffff; stroke-width: 0.481866"/>
    <path d="M 446.84487 151.266812 
C 448.295183 151.266812 449.68629 150.690597 450.711816 149.665071 
C 451.737342 148.639545 452.313558 147.248438 452.313558 145.798125 
C 452.313558 144.347812 451.737342 142.956705 450.711816 141.931179 
C 449.68629 140.905653 448.295183 140.329438 446.84487 140.329438 
C 445.394557 140.329438 444.00345 140.905653 442.977924 141.931179 
C 441.952398 142.956705 441.376183 144.347812 441.376183 145.798125 
C 441.376183 147.248438 441.952398 148.639545 442.977924 149.665071 
C 444.00345 150.690597 445.394557 151.266812 446.84487 151.266812 
z
" clip-path="url(#pf562537f2d)" style="fill: #e9d5cb; stroke: #ffffff; stroke-width: 0.481866"/>
    <path d="M 437.252433 163.976789 
C 438.731912 163.976789 440.150994 163.388986 441.197144 162.342836 
C 442.243294 161.296687 442.831097 159.877604 442.831097 158.398125 
C 442.831097 156.918646 442.243294 155.499563 441.197144 154.453414 
C 440.150994 153.407264 438.731912 152.819461 437.252433 152.819461 
C 435.772954 152.819461 434.353871 153.407264 433.307721 154.453414 
C 432.261572 155.499563 431.673768 156.918646 431.673768 158.398125 
C 431.673768 159.877604 432.261572 161.296687 433.307721 162.342836 
C 434.353871 163.388986 435.772954 163.976789 437.252433 163.976789 
z
" clip-path="url(#pf562537f2d)" style="fill: #85a8fc; stroke: #ffffff; stroke-width: 0.481866"/>
    <path d="M 436.915447 177.121849 
C 438.539477 177.121849 440.097211 176.476615 441.245574 175.328252 
C 442.393937 174.179889 443.039171 172.622156 443.039171 170.998125 
C 443.039171 169.374094 442.393937 167.816361 441.245574 166.667998 
C 440.097211 165.519635 438.539477 164.874401 436.915447 164.874401 
C 435.291416 164.874401 433.733683 165.519635 432.58532 166.667998 
C 431.436957 167.816361 430.791722 169.374094 430.791722 170.998125 
C 430.791722 172.622156 431.436957 174.179889 432.58532 175.328252 
C 433.733683 176.476615 435.291416 177.121849 436.915447 177.121849 
z
" clip-path="url(#pf562537f2d)" style="fill: #cfdaea; stroke: #ffffff; stroke-width: 0.481866"/>
    <path d="M 436.699039 188.954578 
C 438.119587 188.954578 439.482144 188.390188 440.486623 187.385709 
C 441.491102 186.38123 442.055492 185.018673 442.055492 183.598125 
C 442.055492 182.177577 441.491102 180.81502 440.486623 179.810541 
C 439.482144 178.806062 438.119587 178.241672 436.699039 178.241672 
C 435.278491 178.241672 433.915933 178.806062 432.911454 179.810541 
C 431.906975 180.81502 431.342586 182.177577 431.342586 183.598125 
C 431.342586 185.018673 431.906975 186.38123 432.911454 187.385709 
C 433.915933 188.390188 435.278491 188.954578 436.699039 188.954578 
z
" clip-path="url(#pf562537f2d)" style="fill: #6282ea; stroke: #ffffff; stroke-width: 0.481866"/>
    <path d="M 433.738801 202.094425 
C 435.302518 202.094425 436.8024 201.473154 437.908115 200.367439 
C 439.01383 199.261724 439.635101 197.761842 439.635101 196.198125 
C 439.635101 194.634408 439.01383 193.134526 437.908115 192.028811 
C 436.8024 190.923096 435.302518 190.301825 433.738801 190.301825 
C 432.175084 190.301825 430.675202 190.923096 429.569487 192.028811 
C 428.463772 193.134526 427.842501 194.634408 427.842501 196.198125 
C 427.842501 197.761842 428.463772 199.261724 429.569487 200.367439 
C 430.675202 201.473154 432.175084 202.094425 433.738801 202.094425 
z
" clip-path="url(#pf562537f2d)" style="fill: #82a6fb; stroke: #ffffff; stroke-width: 0.481866"/>
    <path d="M 387.927025 212.713109 
C 388.965291 212.713109 389.961172 212.300602 390.695337 211.566437 
C 391.429502 210.832272 391.842009 209.836391 391.842009 208.798125 
C 391.842009 207.759859 391.429502 206.763978 390.695337 206.029813 
C 389.961172 205.295648 388.965291 204.883141 387.927025 204.883141 
C 386.888759 204.883141 385.892877 205.295648 385.158713 206.029813 
C 384.424548 206.763978 384.01204 207.759859 384.01204 208.798125 
C 384.01204 209.836391 384.424548 210.832272 385.158713 211.566437 
C 385.892877 212.300602 386.888759 212.713109 387.927025 212.713109 
z
" clip-path="url(#pf562537f2d)" style="fill: #a9c6fd; stroke: #ffffff; stroke-width: 0.481866"/>
    <path d="M 379.287539 223.951298 
C 379.964648 223.951298 380.614116 223.682279 381.092905 223.203491 
C 381.571693 222.724702 381.840712 222.075234 381.840712 221.398125 
C 381.840712 220.721016 381.571693 220.071548 381.092905 219.592759 
C 380.614116 219.113971 379.964648 218.844952 379.287539 218.844952 
C 378.610429 218.844952 377.960961 219.113971 377.482173 219.592759 
C 377.003384 220.071548 376.734366 220.721016 376.734366 221.398125 
C 376.734366 222.075234 377.003384 222.724702 377.482173 223.203491 
C 377.960961 223.682279 378.610429 223.951298 379.287539 223.951298 
z
" clip-path="url(#pf562537f2d)" style="fill: #c4d5f3; stroke: #ffffff; stroke-width: 0.481866"/>
    <path d="M 374.868466 236.234193 
C 375.461478 236.234193 376.030282 235.998587 376.449605 235.579264 
C 376.868928 235.159941 377.104534 234.591137 377.104534 233.998125 
C 377.104534 233.405113 376.868928 232.836309 376.449605 232.416986 
C 376.030282 231.997663 375.461478 231.762057 374.868466 231.762057 
C 374.275454 231.762057 373.70665 231.997663 373.287327 232.416986 
C 372.868004 232.836309 372.632398 233.405113 372.632398 233.998125 
C 372.632398 234.591137 372.868004 235.159941 373.287327 235.579264 
C 373.70665 235.998587 374.275454 236.234193 374.868466 236.234193 
z
" clip-path="url(#pf562537f2d)" style="fill: #b40426; stroke: #ffffff; stroke-width: 0.481866"/>
   </g>
   <g id="matplotlib.axis_1">
    <g id="xtick_1">
     <g id="line2d_1">
      <defs>
       <path id="ma80b8edb49" d="M 0 0 
L 0 3.5 
" style="stroke: #000000; stroke-width: 0.8"/>
      </defs>
      <g>
       <use xlink:href="#ma80b8edb49" x="374.868466" y="244.078125" style="stroke: #000000; stroke-width: 0.8"/>
      </g>
     </g>
     <g id="text_1">
      <!-- 0 -->
      <g transform="translate(371.687216 258.676562) scale(0.1 -0.1)">
       <defs>
        <path id="DejaVuSans-30" d="M 2034 4250 
Q 1547 4250 1301 3770 
Q 1056 3291 1056 2328 
Q 1056 1369 1301 889 
Q 1547 409 2034 409 
Q 2525 409 2770 889 
Q 3016 1369 3016 2328 
Q 3016 3291 2770 3770 
Q 2525 4250 2034 4250 
z
M 2034 4750 
Q 2819 4750 3233 4129 
Q 3647 3509 3647 2328 
Q 3647 1150 3233 529 
Q 2819 -91 2034 -91 
Q 1250 -91 836 529 
Q 422 1150 422 2328 
Q 422 3509 836 4129 
Q 1250 4750 2034 4750 
z
" transform="scale(0.015625)"/>
       </defs>
       <use xlink:href="#DejaVuSans-30"/>
      </g>
     </g>
    </g>
    <g id="xtick_2">
     <g id="line2d_2">
      <g>
       <use xlink:href="#ma80b8edb49" x="438.671243" y="244.078125" style="stroke: #000000; stroke-width: 0.8"/>
      </g>
     </g>
     <g id="text_2">
      <!-- 2 -->
      <g transform="translate(435.489993 258.676562) scale(0.1 -0.1)">
       <defs>
        <path id="DejaVuSans-32" d="M 1228 531 
L 3431 531 
L 3431 0 
L 469 0 
L 469 531 
Q 828 903 1448 1529 
Q 2069 2156 2228 2338 
Q 2531 2678 2651 2914 
Q 2772 3150 2772 3378 
Q 2772 3750 2511 3984 
Q 2250 4219 1831 4219 
Q 1534 4219 1204 4116 
Q 875 4013 500 3803 
L 500 4441 
Q 881 4594 1212 4672 
Q 1544 4750 1819 4750 
Q 2544 4750 2975 4387 
Q 3406 4025 3406 3419 
Q 3406 3131 3298 2873 
Q 3191 2616 2906 2266 
Q 2828 2175 2409 1742 
Q 1991 1309 1228 531 
z
" transform="scale(0.015625)"/>
       </defs>
       <use xlink:href="#DejaVuSans-32"/>
      </g>
     </g>
    </g>
    <g id="xtick_3">
     <g id="line2d_3">
      <g>
       <use xlink:href="#ma80b8edb49" x="502.474019" y="244.078125" style="stroke: #000000; stroke-width: 0.8"/>
      </g>
     </g>
     <g id="text_3">
      <!-- 4 -->
      <g transform="translate(499.292769 258.676562) scale(0.1 -0.1)">
       <defs>
        <path id="DejaVuSans-34" d="M 2419 4116 
L 825 1625 
L 2419 1625 
L 2419 4116 
z
M 2253 4666 
L 3047 4666 
L 3047 1625 
L 3713 1625 
L 3713 1100 
L 3047 1100 
L 3047 0 
L 2419 0 
L 2419 1100 
L 313 1100 
L 313 1709 
L 2253 4666 
z
" transform="scale(0.015625)"/>
       </defs>
       <use xlink:href="#DejaVuSans-34"/>
      </g>
     </g>
    </g>
    <g id="text_4">
     <!-- Fold Enrichment -->
     <g transform="translate(410.286719 272.354687) scale(0.1 -0.1)">
      <defs>
       <path id="DejaVuSans-46" d="M 628 4666 
L 3309 4666 
L 3309 4134 
L 1259 4134 
L 1259 2759 
L 3109 2759 
L 3109 2228 
L 1259 2228 
L 1259 0 
L 628 0 
L 628 4666 
z
" transform="scale(0.015625)"/>
       <path id="DejaVuSans-6f" d="M 1959 3097 
Q 1497 3097 1228 2736 
Q 959 2375 959 1747 
Q 959 1119 1226 758 
Q 1494 397 1959 397 
Q 2419 397 2687 759 
Q 2956 1122 2956 1747 
Q 2956 2369 2687 2733 
Q 2419 3097 1959 3097 
z
M 1959 3584 
Q 2709 3584 3137 3096 
Q 3566 2609 3566 1747 
Q 3566 888 3137 398 
Q 2709 -91 1959 -91 
Q 1206 -91 779 398 
Q 353 888 353 1747 
Q 353 2609 779 3096 
Q 1206 3584 1959 3584 
z
" transform="scale(0.015625)"/>
       <path id="DejaVuSans-6c" d="M 603 4863 
L 1178 4863 
L 1178 0 
L 603 0 
L 603 4863 
z
" transform="scale(0.015625)"/>
       <path id="DejaVuSans-64" d="M 2906 2969 
L 2906 4863 
L 3481 4863 
L 3481 0 
L 2906 0 
L 2906 525 
Q 2725 213 2448 61 
Q 2172 -91 1784 -91 
Q 1150 -91 751 415 
Q 353 922 353 1747 
Q 353 2572 751 3078 
Q 1150 3584 1784 3584 
Q 2172 3584 2448 3432 
Q 2725 3281 2906 2969 
z
M 947 1747 
Q 947 1113 1208 752 
Q 1469 391 1925 391 
Q 2381 391 2643 752 
Q 2906 1113 2906 1747 
Q 2906 2381 2643 2742 
Q 2381 3103 1925 3103 
Q 1469 3103 1208 2742 
Q 947 2381 947 1747 
z
" transform="scale(0.015625)"/>
       <path id="DejaVuSans-20" transform="scale(0.015625)"/>
       <path id="DejaVuSans-45" d="M 628 4666 
L 3578 4666 
L 3578 4134 
L 1259 4134 
L 1259 2753 
L 3481 2753 
L 3481 2222 
L 1259 2222 
L 1259 531 
L 3634 531 
L 3634 0 
L 628 0 
L 628 4666 
z
" transform="scale(0.015625)"/>
       <path id="DejaVuSans-6e" d="M 3513 2113 
L 3513 0 
L 2938 0 
L 2938 2094 
Q 2938 2591 2744 2837 
Q 2550 3084 2163 3084 
Q 1697 3084 1428 2787 
Q 1159 2491 1159 1978 
L 1159 0 
L 581 0 
L 581 3500 
L 1159 3500 
L 1159 2956 
Q 1366 3272 1645 3428 
Q 1925 3584 2291 3584 
Q 2894 3584 3203 3211 
Q 3513 2838 3513 2113 
z
" transform="scale(0.015625)"/>
       <path id="DejaVuSans-72" d="M 2631 2963 
Q 2534 3019 2420 3045 
Q 2306 3072 2169 3072 
Q 1681 3072 1420 2755 
Q 1159 2438 1159 1844 
L 1159 0 
L 581 0 
L 581 3500 
L 1159 3500 
L 1159 2956 
Q 1341 3275 1631 3429 
Q 1922 3584 2338 3584 
Q 2397 3584 2469 3576 
Q 2541 3569 2628 3553 
L 2631 2963 
z
" transform="scale(0.015625)"/>
       <path id="DejaVuSans-69" d="M 603 3500 
L 1178 3500 
L 1178 0 
L 603 0 
L 603 3500 
z
M 603 4863 
L 1178 4863 
L 1178 4134 
L 603 4134 
L 603 4863 
z
" transform="scale(0.015625)"/>
       <path id="DejaVuSans-63" d="M 3122 3366 
L 3122 2828 
Q 2878 2963 2633 3030 
Q 2388 3097 2138 3097 
Q 1578 3097 1268 2742 
Q 959 2388 959 1747 
Q 959 1106 1268 751 
Q 1578 397 2138 397 
Q 2388 397 2633 464 
Q 2878 531 3122 666 
L 3122 134 
Q 2881 22 2623 -34 
Q 2366 -91 2075 -91 
Q 1284 -91 818 406 
Q 353 903 353 1747 
Q 353 2603 823 3093 
Q 1294 3584 2113 3584 
Q 2378 3584 2631 3529 
Q 2884 3475 3122 3366 
z
" transform="scale(0.015625)"/>
       <path id="DejaVuSans-68" d="M 3513 2113 
L 3513 0 
L 2938 0 
L 2938 2094 
Q 2938 2591 2744 2837 
Q 2550 3084 2163 3084 
Q 1697 3084 1428 2787 
Q 1159 2491 1159 1978 
L 1159 0 
L 581 0 
L 581 4863 
L 1159 4863 
L 1159 2956 
Q 1366 3272 1645 3428 
Q 1925 3584 2291 3584 
Q 2894 3584 3203 3211 
Q 3513 2838 3513 2113 
z
" transform="scale(0.015625)"/>
       <path id="DejaVuSans-6d" d="M 3328 2828 
Q 3544 3216 3844 3400 
Q 4144 3584 4550 3584 
Q 5097 3584 5394 3201 
Q 5691 2819 5691 2113 
L 5691 0 
L 5113 0 
L 5113 2094 
Q 5113 2597 4934 2840 
Q 4756 3084 4391 3084 
Q 3944 3084 3684 2787 
Q 3425 2491 3425 1978 
L 3425 0 
L 2847 0 
L 2847 2094 
Q 2847 2600 2669 2842 
Q 2491 3084 2119 3084 
Q 1678 3084 1418 2786 
Q 1159 2488 1159 1978 
L 1159 0 
L 581 0 
L 581 3500 
L 1159 3500 
L 1159 2956 
Q 1356 3278 1631 3431 
Q 1906 3584 2284 3584 
Q 2666 3584 2933 3390 
Q 3200 3197 3328 2828 
z
" transform="scale(0.015625)"/>
       <path id="DejaVuSans-65" d="M 3597 1894 
L 3597 1613 
L 953 1613 
Q 991 1019 1311 708 
Q 1631 397 2203 397 
Q 2534 397 2845 478 
Q 3156 559 3463 722 
L 3463 178 
Q 3153 47 2828 -22 
Q 2503 -91 2169 -91 
Q 1331 -91 842 396 
Q 353 884 353 1716 
Q 353 2575 817 3079 
Q 1281 3584 2069 3584 
Q 2775 3584 3186 3129 
Q 3597 2675 3597 1894 
z
M 3022 2063 
Q 3016 2534 2758 2815 
Q 2500 3097 2075 3097 
Q 1594 3097 1305 2825 
Q 1016 2553 972 2059 
L 3022 2063 
z
" transform="scale(0.015625)"/>
       <path id="DejaVuSans-74" d="M 1172 4494 
L 1172 3500 
L 2356 3500 
L 2356 3053 
L 1172 3053 
L 1172 1153 
Q 1172 725 1289 603 
Q 1406 481 1766 481 
L 2356 481 
L 2356 0 
L 1766 0 
Q 1100 0 847 248 
Q 594 497 594 1153 
L 594 3053 
L 172 3053 
L 172 3500 
L 594 3500 
L 594 4494 
L 1172 4494 
z
" transform="scale(0.015625)"/>
      </defs>
      <use xlink:href="#DejaVuSans-46"/>
      <use xlink:href="#DejaVuSans-6f" transform="translate(53.894531 0)"/>
      <use xlink:href="#DejaVuSans-6c" transform="translate(115.076172 0)"/>
      <use xlink:href="#DejaVuSans-64" transform="translate(142.859375 0)"/>
      <use xlink:href="#DejaVuSans-20" transform="translate(206.335938 0)"/>
      <use xlink:href="#DejaVuSans-45" transform="translate(238.123047 0)"/>
      <use xlink:href="#DejaVuSans-6e" transform="translate(301.306641 0)"/>
      <use xlink:href="#DejaVuSans-72" transform="translate(364.685547 0)"/>
      <use xlink:href="#DejaVuSans-69" transform="translate(405.798828 0)"/>
      <use xlink:href="#DejaVuSans-63" transform="translate(433.582031 0)"/>
      <use xlink:href="#DejaVuSans-68" transform="translate(488.5625 0)"/>
      <use xlink:href="#DejaVuSans-6d" transform="translate(551.941406 0)"/>
      <use xlink:href="#DejaVuSans-65" transform="translate(649.353516 0)"/>
      <use xlink:href="#DejaVuSans-6e" transform="translate(710.876953 0)"/>
      <use xlink:href="#DejaVuSans-74" transform="translate(774.255859 0)"/>
     </g>
    </g>
   </g>
   <g id="matplotlib.axis_2">
    <g id="ytick_1">
     <g id="line2d_4">
      <defs>
       <path id="mcaa482b2dc" d="M 0 0 
L -3.5 0 
" style="stroke: #000000; stroke-width: 0.8"/>
      </defs>
      <g>
       <use xlink:href="#mcaa482b2dc" x="367.259375" y="32.398125" style="stroke: #000000; stroke-width: 0.8"/>
      </g>
     </g>
     <g id="text_5">
      <!-- negative regulation of myoblast fusion -->
      <g transform="translate(166.920312 36.197344) scale(0.1 -0.1)">
       <defs>
        <path id="DejaVuSans-67" d="M 2906 1791 
Q 2906 2416 2648 2759 
Q 2391 3103 1925 3103 
Q 1463 3103 1205 2759 
Q 947 2416 947 1791 
Q 947 1169 1205 825 
Q 1463 481 1925 481 
Q 2391 481 2648 825 
Q 2906 1169 2906 1791 
z
M 3481 434 
Q 3481 -459 3084 -895 
Q 2688 -1331 1869 -1331 
Q 1566 -1331 1297 -1286 
Q 1028 -1241 775 -1147 
L 775 -588 
Q 1028 -725 1275 -790 
Q 1522 -856 1778 -856 
Q 2344 -856 2625 -561 
Q 2906 -266 2906 331 
L 2906 616 
Q 2728 306 2450 153 
Q 2172 0 1784 0 
Q 1141 0 747 490 
Q 353 981 353 1791 
Q 353 2603 747 3093 
Q 1141 3584 1784 3584 
Q 2172 3584 2450 3431 
Q 2728 3278 2906 2969 
L 2906 3500 
L 3481 3500 
L 3481 434 
z
" transform="scale(0.015625)"/>
        <path id="DejaVuSans-61" d="M 2194 1759 
Q 1497 1759 1228 1600 
Q 959 1441 959 1056 
Q 959 750 1161 570 
Q 1363 391 1709 391 
Q 2188 391 2477 730 
Q 2766 1069 2766 1631 
L 2766 1759 
L 2194 1759 
z
M 3341 1997 
L 3341 0 
L 2766 0 
L 2766 531 
Q 2569 213 2275 61 
Q 1981 -91 1556 -91 
Q 1019 -91 701 211 
Q 384 513 384 1019 
Q 384 1609 779 1909 
Q 1175 2209 1959 2209 
L 2766 2209 
L 2766 2266 
Q 2766 2663 2505 2880 
Q 2244 3097 1772 3097 
Q 1472 3097 1187 3025 
Q 903 2953 641 2809 
L 641 3341 
Q 956 3463 1253 3523 
Q 1550 3584 1831 3584 
Q 2591 3584 2966 3190 
Q 3341 2797 3341 1997 
z
" transform="scale(0.015625)"/>
        <path id="DejaVuSans-76" d="M 191 3500 
L 800 3500 
L 1894 563 
L 2988 3500 
L 3597 3500 
L 2284 0 
L 1503 0 
L 191 3500 
z
" transform="scale(0.015625)"/>
        <path id="DejaVuSans-75" d="M 544 1381 
L 544 3500 
L 1119 3500 
L 1119 1403 
Q 1119 906 1312 657 
Q 1506 409 1894 409 
Q 2359 409 2629 706 
Q 2900 1003 2900 1516 
L 2900 3500 
L 3475 3500 
L 3475 0 
L 2900 0 
L 2900 538 
Q 2691 219 2414 64 
Q 2138 -91 1772 -91 
Q 1169 -91 856 284 
Q 544 659 544 1381 
z
M 1991 3584 
L 1991 3584 
z
" transform="scale(0.015625)"/>
        <path id="DejaVuSans-66" d="M 2375 4863 
L 2375 4384 
L 1825 4384 
Q 1516 4384 1395 4259 
Q 1275 4134 1275 3809 
L 1275 3500 
L 2222 3500 
L 2222 3053 
L 1275 3053 
L 1275 0 
L 697 0 
L 697 3053 
L 147 3053 
L 147 3500 
L 697 3500 
L 697 3744 
Q 697 4328 969 4595 
Q 1241 4863 1831 4863 
L 2375 4863 
z
" transform="scale(0.015625)"/>
        <path id="DejaVuSans-79" d="M 2059 -325 
Q 1816 -950 1584 -1140 
Q 1353 -1331 966 -1331 
L 506 -1331 
L 506 -850 
L 844 -850 
Q 1081 -850 1212 -737 
Q 1344 -625 1503 -206 
L 1606 56 
L 191 3500 
L 800 3500 
L 1894 763 
L 2988 3500 
L 3597 3500 
L 2059 -325 
z
" transform="scale(0.015625)"/>
        <path id="DejaVuSans-62" d="M 3116 1747 
Q 3116 2381 2855 2742 
Q 2594 3103 2138 3103 
Q 1681 3103 1420 2742 
Q 1159 2381 1159 1747 
Q 1159 1113 1420 752 
Q 1681 391 2138 391 
Q 2594 391 2855 752 
Q 3116 1113 3116 1747 
z
M 1159 2969 
Q 1341 3281 1617 3432 
Q 1894 3584 2278 3584 
Q 2916 3584 3314 3078 
Q 3713 2572 3713 1747 
Q 3713 922 3314 415 
Q 2916 -91 2278 -91 
Q 1894 -91 1617 61 
Q 1341 213 1159 525 
L 1159 0 
L 581 0 
L 581 4863 
L 1159 4863 
L 1159 2969 
z
" transform="scale(0.015625)"/>
        <path id="DejaVuSans-73" d="M 2834 3397 
L 2834 2853 
Q 2591 2978 2328 3040 
Q 2066 3103 1784 3103 
Q 1356 3103 1142 2972 
Q 928 2841 928 2578 
Q 928 2378 1081 2264 
Q 1234 2150 1697 2047 
L 1894 2003 
Q 2506 1872 2764 1633 
Q 3022 1394 3022 966 
Q 3022 478 2636 193 
Q 2250 -91 1575 -91 
Q 1294 -91 989 -36 
Q 684 19 347 128 
L 347 722 
Q 666 556 975 473 
Q 1284 391 1588 391 
Q 1994 391 2212 530 
Q 2431 669 2431 922 
Q 2431 1156 2273 1281 
Q 2116 1406 1581 1522 
L 1381 1569 
Q 847 1681 609 1914 
Q 372 2147 372 2553 
Q 372 3047 722 3315 
Q 1072 3584 1716 3584 
Q 2034 3584 2315 3537 
Q 2597 3491 2834 3397 
z
" transform="scale(0.015625)"/>
       </defs>
       <use xlink:href="#DejaVuSans-6e"/>
       <use xlink:href="#DejaVuSans-65" transform="translate(63.378906 0)"/>
       <use xlink:href="#DejaVuSans-67" transform="translate(124.902344 0)"/>
       <use xlink:href="#DejaVuSans-61" transform="translate(188.378906 0)"/>
       <use xlink:href="#DejaVuSans-74" transform="translate(249.658203 0)"/>
       <use xlink:href="#DejaVuSans-69" transform="translate(288.867188 0)"/>
       <use xlink:href="#DejaVuSans-76" transform="translate(316.650391 0)"/>
       <use xlink:href="#DejaVuSans-65" transform="translate(375.830078 0)"/>
       <use xlink:href="#DejaVuSans-20" transform="translate(437.353516 0)"/>
       <use xlink:href="#DejaVuSans-72" transform="translate(469.140625 0)"/>
       <use xlink:href="#DejaVuSans-65" transform="translate(508.003906 0)"/>
       <use xlink:href="#DejaVuSans-67" transform="translate(569.527344 0)"/>
       <use xlink:href="#DejaVuSans-75" transform="translate(633.003906 0)"/>
       <use xlink:href="#DejaVuSans-6c" transform="translate(696.382812 0)"/>
       <use xlink:href="#DejaVuSans-61" transform="translate(724.166016 0)"/>
       <use xlink:href="#DejaVuSans-74" transform="translate(785.445312 0)"/>
       <use xlink:href="#DejaVuSans-69" transform="translate(824.654297 0)"/>
       <use xlink:href="#DejaVuSans-6f" transform="translate(852.4375 0)"/>
       <use xlink:href="#DejaVuSans-6e" transform="translate(913.619141 0)"/>
       <use xlink:href="#DejaVuSans-20" transform="translate(976.998047 0)"/>
       <use xlink:href="#DejaVuSans-6f" transform="translate(1008.785156 0)"/>
       <use xlink:href="#DejaVuSans-66" transform="translate(1069.966797 0)"/>
       <use xlink:href="#DejaVuSans-20" transform="translate(1105.171875 0)"/>
       <use xlink:href="#DejaVuSans-6d" transform="translate(1136.958984 0)"/>
       <use xlink:href="#DejaVuSans-79" transform="translate(1234.371094 0)"/>
       <use xlink:href="#DejaVuSans-6f" transform="translate(1293.550781 0)"/>
       <use xlink:href="#DejaVuSans-62" transform="translate(1354.732422 0)"/>
       <use xlink:href="#DejaVuSans-6c" transform="translate(1418.208984 0)"/>
       <use xlink:href="#DejaVuSans-61" transform="translate(1445.992188 0)"/>
       <use xlink:href="#DejaVuSans-73" transform="translate(1507.271484 0)"/>
       <use xlink:href="#DejaVuSans-74" transform="translate(1559.371094 0)"/>
       <use xlink:href="#DejaVuSans-20" transform="translate(1598.580078 0)"/>
       <use xlink:href="#DejaVuSans-66" transform="translate(1630.367188 0)"/>
       <use xlink:href="#DejaVuSans-75" transform="translate(1665.572266 0)"/>
       <use xlink:href="#DejaVuSans-73" transform="translate(1728.951172 0)"/>
       <use xlink:href="#DejaVuSans-69" transform="translate(1781.050781 0)"/>
       <use xlink:href="#DejaVuSans-6f" transform="translate(1808.833984 0)"/>
       <use xlink:href="#DejaVuSans-6e" transform="translate(1870.015625 0)"/>
      </g>
     </g>
    </g>
    <g id="ytick_2">
     <g id="line2d_5">
      <g>
       <use xlink:href="#mcaa482b2dc" x="367.259375" y="44.998125" style="stroke: #000000; stroke-width: 0.8"/>
      </g>
     </g>
     <g id="text_6">
      <!-- striated muscle contraction -->
      <g transform="translate(222.85 48.797344) scale(0.1 -0.1)">
       <use xlink:href="#DejaVuSans-73"/>
       <use xlink:href="#DejaVuSans-74" transform="translate(52.099609 0)"/>
       <use xlink:href="#DejaVuSans-72" transform="translate(91.308594 0)"/>
       <use xlink:href="#DejaVuSans-69" transform="translate(132.421875 0)"/>
       <use xlink:href="#DejaVuSans-61" transform="translate(160.205078 0)"/>
       <use xlink:href="#DejaVuSans-74" transform="translate(221.484375 0)"/>
       <use xlink:href="#DejaVuSans-65" transform="translate(260.693359 0)"/>
       <use xlink:href="#DejaVuSans-64" transform="translate(322.216797 0)"/>
       <use xlink:href="#DejaVuSans-20" transform="translate(385.693359 0)"/>
       <use xlink:href="#DejaVuSans-6d" transform="translate(417.480469 0)"/>
       <use xlink:href="#DejaVuSans-75" transform="translate(514.892578 0)"/>
       <use xlink:href="#DejaVuSans-73" transform="translate(578.271484 0)"/>
       <use xlink:href="#DejaVuSans-63" transform="translate(630.371094 0)"/>
       <use xlink:href="#DejaVuSans-6c" transform="translate(685.351562 0)"/>
       <use xlink:href="#DejaVuSans-65" transform="translate(713.134766 0)"/>
       <use xlink:href="#DejaVuSans-20" transform="translate(774.658203 0)"/>
       <use xlink:href="#DejaVuSans-63" transform="translate(806.445312 0)"/>
       <use xlink:href="#DejaVuSans-6f" transform="translate(861.425781 0)"/>
       <use xlink:href="#DejaVuSans-6e" transform="translate(922.607422 0)"/>
       <use xlink:href="#DejaVuSans-74" transform="translate(985.986328 0)"/>
       <use xlink:href="#DejaVuSans-72" transform="translate(1025.195312 0)"/>
       <use xlink:href="#DejaVuSans-61" transform="translate(1066.308594 0)"/>
       <use xlink:href="#DejaVuSans-63" transform="translate(1127.587891 0)"/>
       <use xlink:href="#DejaVuSans-74" transform="translate(1182.568359 0)"/>
       <use xlink:href="#DejaVuSans-69" transform="translate(1221.777344 0)"/>
       <use xlink:href="#DejaVuSans-6f" transform="translate(1249.560547 0)"/>
       <use xlink:href="#DejaVuSans-6e" transform="translate(1310.742188 0)"/>
      </g>
     </g>
    </g>
    <g id="ytick_3">
     <g id="line2d_6">
      <g>
       <use xlink:href="#mcaa482b2dc" x="367.259375" y="57.598125" style="stroke: #000000; stroke-width: 0.8"/>
      </g>
     </g>
     <g id="text_7">
      <!-- cytoplasmic translation -->
      <g transform="translate(243.376562 61.397344) scale(0.1 -0.1)">
       <defs>
        <path id="DejaVuSans-70" d="M 1159 525 
L 1159 -1331 
L 581 -1331 
L 581 3500 
L 1159 3500 
L 1159 2969 
Q 1341 3281 1617 3432 
Q 1894 3584 2278 3584 
Q 2916 3584 3314 3078 
Q 3713 2572 3713 1747 
Q 3713 922 3314 415 
Q 2916 -91 2278 -91 
Q 1894 -91 1617 61 
Q 1341 213 1159 525 
z
M 3116 1747 
Q 3116 2381 2855 2742 
Q 2594 3103 2138 3103 
Q 1681 3103 1420 2742 
Q 1159 2381 1159 1747 
Q 1159 1113 1420 752 
Q 1681 391 2138 391 
Q 2594 391 2855 752 
Q 3116 1113 3116 1747 
z
" transform="scale(0.015625)"/>
       </defs>
       <use xlink:href="#DejaVuSans-63"/>
       <use xlink:href="#DejaVuSans-79" transform="translate(54.980469 0)"/>
       <use xlink:href="#DejaVuSans-74" transform="translate(114.160156 0)"/>
       <use xlink:href="#DejaVuSans-6f" transform="translate(153.369141 0)"/>
       <use xlink:href="#DejaVuSans-70" transform="translate(214.550781 0)"/>
       <use xlink:href="#DejaVuSans-6c" transform="translate(278.027344 0)"/>
       <use xlink:href="#DejaVuSans-61" transform="translate(305.810547 0)"/>
       <use xlink:href="#DejaVuSans-73" transform="translate(367.089844 0)"/>
       <use xlink:href="#DejaVuSans-6d" transform="translate(419.189453 0)"/>
       <use xlink:href="#DejaVuSans-69" transform="translate(516.601562 0)"/>
       <use xlink:href="#DejaVuSans-63" transform="translate(544.384766 0)"/>
       <use xlink:href="#DejaVuSans-20" transform="translate(599.365234 0)"/>
       <use xlink:href="#DejaVuSans-74" transform="translate(631.152344 0)"/>
       <use xlink:href="#DejaVuSans-72" transform="translate(670.361328 0)"/>
       <use xlink:href="#DejaVuSans-61" transform="translate(711.474609 0)"/>
       <use xlink:href="#DejaVuSans-6e" transform="translate(772.753906 0)"/>
       <use xlink:href="#DejaVuSans-73" transform="translate(836.132812 0)"/>
       <use xlink:href="#DejaVuSans-6c" transform="translate(888.232422 0)"/>
       <use xlink:href="#DejaVuSans-61" transform="translate(916.015625 0)"/>
       <use xlink:href="#DejaVuSans-74" transform="translate(977.294922 0)"/>
       <use xlink:href="#DejaVuSans-69" transform="translate(1016.503906 0)"/>
       <use xlink:href="#DejaVuSans-6f" transform="translate(1044.287109 0)"/>
       <use xlink:href="#DejaVuSans-6e" transform="translate(1105.46875 0)"/>
      </g>
     </g>
    </g>
    <g id="ytick_4">
     <g id="line2d_7">
      <g>
       <use xlink:href="#mcaa482b2dc" x="367.259375" y="70.198125" style="stroke: #000000; stroke-width: 0.8"/>
      </g>
     </g>
     <g id="text_8">
      <!-- synapse assembly -->
      <g transform="translate(268.290625 73.997344) scale(0.1 -0.1)">
       <use xlink:href="#DejaVuSans-73"/>
       <use xlink:href="#DejaVuSans-79" transform="translate(52.099609 0)"/>
       <use xlink:href="#DejaVuSans-6e" transform="translate(111.279297 0)"/>
       <use xlink:href="#DejaVuSans-61" transform="translate(174.658203 0)"/>
       <use xlink:href="#DejaVuSans-70" transform="translate(235.9375 0)"/>
       <use xlink:href="#DejaVuSans-73" transform="translate(299.414062 0)"/>
       <use xlink:href="#DejaVuSans-65" transform="translate(351.513672 0)"/>
       <use xlink:href="#DejaVuSans-20" transform="translate(413.037109 0)"/>
       <use xlink:href="#DejaVuSans-61" transform="translate(444.824219 0)"/>
       <use xlink:href="#DejaVuSans-73" transform="translate(506.103516 0)"/>
       <use xlink:href="#DejaVuSans-73" transform="translate(558.203125 0)"/>
       <use xlink:href="#DejaVuSans-65" transform="translate(610.302734 0)"/>
       <use xlink:href="#DejaVuSans-6d" transform="translate(671.826172 0)"/>
       <use xlink:href="#DejaVuSans-62" transform="translate(769.238281 0)"/>
       <use xlink:href="#DejaVuSans-6c" transform="translate(832.714844 0)"/>
       <use xlink:href="#DejaVuSans-79" transform="translate(860.498047 0)"/>
      </g>
     </g>
    </g>
    <g id="ytick_5">
     <g id="line2d_8">
      <g>
       <use xlink:href="#mcaa482b2dc" x="367.259375" y="82.798125" style="stroke: #000000; stroke-width: 0.8"/>
      </g>
     </g>
     <g id="text_9">
      <!-- neuron projection development -->
      <g transform="translate(202.825 86.597344) scale(0.1 -0.1)">
       <defs>
        <path id="DejaVuSans-6a" d="M 603 3500 
L 1178 3500 
L 1178 -63 
Q 1178 -731 923 -1031 
Q 669 -1331 103 -1331 
L -116 -1331 
L -116 -844 
L 38 -844 
Q 366 -844 484 -692 
Q 603 -541 603 -63 
L 603 3500 
z
M 603 4863 
L 1178 4863 
L 1178 4134 
L 603 4134 
L 603 4863 
z
" transform="scale(0.015625)"/>
       </defs>
       <use xlink:href="#DejaVuSans-6e"/>
       <use xlink:href="#DejaVuSans-65" transform="translate(63.378906 0)"/>
       <use xlink:href="#DejaVuSans-75" transform="translate(124.902344 0)"/>
       <use xlink:href="#DejaVuSans-72" transform="translate(188.28125 0)"/>
       <use xlink:href="#DejaVuSans-6f" transform="translate(227.144531 0)"/>
       <use xlink:href="#DejaVuSans-6e" transform="translate(288.326172 0)"/>
       <use xlink:href="#DejaVuSans-20" transform="translate(351.705078 0)"/>
       <use xlink:href="#DejaVuSans-70" transform="translate(383.492188 0)"/>
       <use xlink:href="#DejaVuSans-72" transform="translate(446.96875 0)"/>
       <use xlink:href="#DejaVuSans-6f" transform="translate(485.832031 0)"/>
       <use xlink:href="#DejaVuSans-6a" transform="translate(547.013672 0)"/>
       <use xlink:href="#DejaVuSans-65" transform="translate(574.796875 0)"/>
       <use xlink:href="#DejaVuSans-63" transform="translate(636.320312 0)"/>
       <use xlink:href="#DejaVuSans-74" transform="translate(691.300781 0)"/>
       <use xlink:href="#DejaVuSans-69" transform="translate(730.509766 0)"/>
       <use xlink:href="#DejaVuSans-6f" transform="translate(758.292969 0)"/>
       <use xlink:href="#DejaVuSans-6e" transform="translate(819.474609 0)"/>
       <use xlink:href="#DejaVuSans-20" transform="translate(882.853516 0)"/>
       <use xlink:href="#DejaVuSans-64" transform="translate(914.640625 0)"/>
       <use xlink:href="#DejaVuSans-65" transform="translate(978.117188 0)"/>
       <use xlink:href="#DejaVuSans-76" transform="translate(1039.640625 0)"/>
       <use xlink:href="#DejaVuSans-65" transform="translate(1098.820312 0)"/>
       <use xlink:href="#DejaVuSans-6c" transform="translate(1160.34375 0)"/>
       <use xlink:href="#DejaVuSans-6f" transform="translate(1188.126953 0)"/>
       <use xlink:href="#DejaVuSans-70" transform="translate(1249.308594 0)"/>
       <use xlink:href="#DejaVuSans-6d" transform="translate(1312.785156 0)"/>
       <use xlink:href="#DejaVuSans-65" transform="translate(1410.197266 0)"/>
       <use xlink:href="#DejaVuSans-6e" transform="translate(1471.720703 0)"/>
       <use xlink:href="#DejaVuSans-74" transform="translate(1535.099609 0)"/>
      </g>
     </g>
    </g>
    <g id="ytick_6">
     <g id="line2d_9">
      <g>
       <use xlink:href="#mcaa482b2dc" x="367.259375" y="95.398125" style="stroke: #000000; stroke-width: 0.8"/>
      </g>
     </g>
     <g id="text_10">
      <!-- protein polyubiquitination -->
      <g transform="translate(231.128125 99.197344) scale(0.1 -0.1)">
       <defs>
        <path id="DejaVuSans-71" d="M 947 1747 
Q 947 1113 1208 752 
Q 1469 391 1925 391 
Q 2381 391 2643 752 
Q 2906 1113 2906 1747 
Q 2906 2381 2643 2742 
Q 2381 3103 1925 3103 
Q 1469 3103 1208 2742 
Q 947 2381 947 1747 
z
M 2906 525 
Q 2725 213 2448 61 
Q 2172 -91 1784 -91 
Q 1150 -91 751 415 
Q 353 922 353 1747 
Q 353 2572 751 3078 
Q 1150 3584 1784 3584 
Q 2172 3584 2448 3432 
Q 2725 3281 2906 2969 
L 2906 3500 
L 3481 3500 
L 3481 -1331 
L 2906 -1331 
L 2906 525 
z
" transform="scale(0.015625)"/>
       </defs>
       <use xlink:href="#DejaVuSans-70"/>
       <use xlink:href="#DejaVuSans-72" transform="translate(63.476562 0)"/>
       <use xlink:href="#DejaVuSans-6f" transform="translate(102.339844 0)"/>
       <use xlink:href="#DejaVuSans-74" transform="translate(163.521484 0)"/>
       <use xlink:href="#DejaVuSans-65" transform="translate(202.730469 0)"/>
       <use xlink:href="#DejaVuSans-69" transform="translate(264.253906 0)"/>
       <use xlink:href="#DejaVuSans-6e" transform="translate(292.037109 0)"/>
       <use xlink:href="#DejaVuSans-20" transform="translate(355.416016 0)"/>
       <use xlink:href="#DejaVuSans-70" transform="translate(387.203125 0)"/>
       <use xlink:href="#DejaVuSans-6f" transform="translate(450.679688 0)"/>
       <use xlink:href="#DejaVuSans-6c" transform="translate(511.861328 0)"/>
       <use xlink:href="#DejaVuSans-79" transform="translate(539.644531 0)"/>
       <use xlink:href="#DejaVuSans-75" transform="translate(598.824219 0)"/>
       <use xlink:href="#DejaVuSans-62" transform="translate(662.203125 0)"/>
       <use xlink:href="#DejaVuSans-69" transform="translate(725.679688 0)"/>
       <use xlink:href="#DejaVuSans-71" transform="translate(753.462891 0)"/>
       <use xlink:href="#DejaVuSans-75" transform="translate(816.939453 0)"/>
       <use xlink:href="#DejaVuSans-69" transform="translate(880.318359 0)"/>
       <use xlink:href="#DejaVuSans-74" transform="translate(908.101562 0)"/>
       <use xlink:href="#DejaVuSans-69" transform="translate(947.310547 0)"/>
       <use xlink:href="#DejaVuSans-6e" transform="translate(975.09375 0)"/>
       <use xlink:href="#DejaVuSans-61" transform="translate(1038.472656 0)"/>
       <use xlink:href="#DejaVuSans-74" transform="translate(1099.751953 0)"/>
       <use xlink:href="#DejaVuSans-69" transform="translate(1138.960938 0)"/>
       <use xlink:href="#DejaVuSans-6f" transform="translate(1166.744141 0)"/>
       <use xlink:href="#DejaVuSans-6e" transform="translate(1227.925781 0)"/>
      </g>
     </g>
    </g>
    <g id="ytick_7">
     <g id="line2d_10">
      <g>
       <use xlink:href="#mcaa482b2dc" x="367.259375" y="107.998125" style="stroke: #000000; stroke-width: 0.8"/>
      </g>
     </g>
     <g id="text_11">
      <!-- ubiquitin-dependent protein catabolic process -->
      <g transform="translate(129.890625 111.797344) scale(0.1 -0.1)">
       <defs>
        <path id="DejaVuSans-2d" d="M 313 2009 
L 1997 2009 
L 1997 1497 
L 313 1497 
L 313 2009 
z
" transform="scale(0.015625)"/>
       </defs>
       <use xlink:href="#DejaVuSans-75"/>
       <use xlink:href="#DejaVuSans-62" transform="translate(63.378906 0)"/>
       <use xlink:href="#DejaVuSans-69" transform="translate(126.855469 0)"/>
       <use xlink:href="#DejaVuSans-71" transform="translate(154.638672 0)"/>
       <use xlink:href="#DejaVuSans-75" transform="translate(218.115234 0)"/>
       <use xlink:href="#DejaVuSans-69" transform="translate(281.494141 0)"/>
       <use xlink:href="#DejaVuSans-74" transform="translate(309.277344 0)"/>
       <use xlink:href="#DejaVuSans-69" transform="translate(348.486328 0)"/>
       <use xlink:href="#DejaVuSans-6e" transform="translate(376.269531 0)"/>
       <use xlink:href="#DejaVuSans-2d" transform="translate(439.648438 0)"/>
       <use xlink:href="#DejaVuSans-64" transform="translate(475.732422 0)"/>
       <use xlink:href="#DejaVuSans-65" transform="translate(539.208984 0)"/>
       <use xlink:href="#DejaVuSans-70" transform="translate(600.732422 0)"/>
       <use xlink:href="#DejaVuSans-65" transform="translate(664.208984 0)"/>
       <use xlink:href="#DejaVuSans-6e" transform="translate(725.732422 0)"/>
       <use xlink:href="#DejaVuSans-64" transform="translate(789.111328 0)"/>
       <use xlink:href="#DejaVuSans-65" transform="translate(852.587891 0)"/>
       <use xlink:href="#DejaVuSans-6e" transform="translate(914.111328 0)"/>
       <use xlink:href="#DejaVuSans-74" transform="translate(977.490234 0)"/>
       <use xlink:href="#DejaVuSans-20" transform="translate(1016.699219 0)"/>
       <use xlink:href="#DejaVuSans-70" transform="translate(1048.486328 0)"/>
       <use xlink:href="#DejaVuSans-72" transform="translate(1111.962891 0)"/>
       <use xlink:href="#DejaVuSans-6f" transform="translate(1150.826172 0)"/>
       <use xlink:href="#DejaVuSans-74" transform="translate(1212.007812 0)"/>
       <use xlink:href="#DejaVuSans-65" transform="translate(1251.216797 0)"/>
       <use xlink:href="#DejaVuSans-69" transform="translate(1312.740234 0)"/>
       <use xlink:href="#DejaVuSans-6e" transform="translate(1340.523438 0)"/>
       <use xlink:href="#DejaVuSans-20" transform="translate(1403.902344 0)"/>
       <use xlink:href="#DejaVuSans-63" transform="translate(1435.689453 0)"/>
       <use xlink:href="#DejaVuSans-61" transform="translate(1490.669922 0)"/>
       <use xlink:href="#DejaVuSans-74" transform="translate(1551.949219 0)"/>
       <use xlink:href="#DejaVuSans-61" transform="translate(1591.158203 0)"/>
       <use xlink:href="#DejaVuSans-62" transform="translate(1652.4375 0)"/>
       <use xlink:href="#DejaVuSans-6f" transform="translate(1715.914062 0)"/>
       <use xlink:href="#DejaVuSans-6c" transform="translate(1777.095703 0)"/>
       <use xlink:href="#DejaVuSans-69" transform="translate(1804.878906 0)"/>
       <use xlink:href="#DejaVuSans-63" transform="translate(1832.662109 0)"/>
       <use xlink:href="#DejaVuSans-20" transform="translate(1887.642578 0)"/>
       <use xlink:href="#DejaVuSans-70" transform="translate(1919.429688 0)"/>
       <use xlink:href="#DejaVuSans-72" transform="translate(1982.90625 0)"/>
       <use xlink:href="#DejaVuSans-6f" transform="translate(2021.769531 0)"/>
       <use xlink:href="#DejaVuSans-63" transform="translate(2082.951172 0)"/>
       <use xlink:href="#DejaVuSans-65" transform="translate(2137.931641 0)"/>
       <use xlink:href="#DejaVuSans-73" transform="translate(2199.455078 0)"/>
       <use xlink:href="#DejaVuSans-73" transform="translate(2251.554688 0)"/>
      </g>
     </g>
    </g>
    <g id="ytick_8">
     <g id="line2d_11">
      <g>
       <use xlink:href="#mcaa482b2dc" x="367.259375" y="120.598125" style="stroke: #000000; stroke-width: 0.8"/>
      </g>
     </g>
     <g id="text_12">
      <!-- actin cytoskeleton organization -->
      <g transform="translate(203.507812 124.397344) scale(0.1 -0.1)">
       <defs>
        <path id="DejaVuSans-6b" d="M 581 4863 
L 1159 4863 
L 1159 1991 
L 2875 3500 
L 3609 3500 
L 1753 1863 
L 3688 0 
L 2938 0 
L 1159 1709 
L 1159 0 
L 581 0 
L 581 4863 
z
" transform="scale(0.015625)"/>
        <path id="DejaVuSans-7a" d="M 353 3500 
L 3084 3500 
L 3084 2975 
L 922 459 
L 3084 459 
L 3084 0 
L 275 0 
L 275 525 
L 2438 3041 
L 353 3041 
L 353 3500 
z
" transform="scale(0.015625)"/>
       </defs>
       <use xlink:href="#DejaVuSans-61"/>
       <use xlink:href="#DejaVuSans-63" transform="translate(61.279297 0)"/>
       <use xlink:href="#DejaVuSans-74" transform="translate(116.259766 0)"/>
       <use xlink:href="#DejaVuSans-69" transform="translate(155.46875 0)"/>
       <use xlink:href="#DejaVuSans-6e" transform="translate(183.251953 0)"/>
       <use xlink:href="#DejaVuSans-20" transform="translate(246.630859 0)"/>
       <use xlink:href="#DejaVuSans-63" transform="translate(278.417969 0)"/>
       <use xlink:href="#DejaVuSans-79" transform="translate(333.398438 0)"/>
       <use xlink:href="#DejaVuSans-74" transform="translate(392.578125 0)"/>
       <use xlink:href="#DejaVuSans-6f" transform="translate(431.787109 0)"/>
       <use xlink:href="#DejaVuSans-73" transform="translate(492.96875 0)"/>
       <use xlink:href="#DejaVuSans-6b" transform="translate(545.068359 0)"/>
       <use xlink:href="#DejaVuSans-65" transform="translate(599.353516 0)"/>
       <use xlink:href="#DejaVuSans-6c" transform="translate(660.876953 0)"/>
       <use xlink:href="#DejaVuSans-65" transform="translate(688.660156 0)"/>
       <use xlink:href="#DejaVuSans-74" transform="translate(750.183594 0)"/>
       <use xlink:href="#DejaVuSans-6f" transform="translate(789.392578 0)"/>
       <use xlink:href="#DejaVuSans-6e" transform="translate(850.574219 0)"/>
       <use xlink:href="#DejaVuSans-20" transform="translate(913.953125 0)"/>
       <use xlink:href="#DejaVuSans-6f" transform="translate(945.740234 0)"/>
       <use xlink:href="#DejaVuSans-72" transform="translate(1006.921875 0)"/>
       <use xlink:href="#DejaVuSans-67" transform="translate(1046.285156 0)"/>
       <use xlink:href="#DejaVuSans-61" transform="translate(1109.761719 0)"/>
       <use xlink:href="#DejaVuSans-6e" transform="translate(1171.041016 0)"/>
       <use xlink:href="#DejaVuSans-69" transform="translate(1234.419922 0)"/>
       <use xlink:href="#DejaVuSans-7a" transform="translate(1262.203125 0)"/>
       <use xlink:href="#DejaVuSans-61" transform="translate(1314.693359 0)"/>
       <use xlink:href="#DejaVuSans-74" transform="translate(1375.972656 0)"/>
       <use xlink:href="#DejaVuSans-69" transform="translate(1415.181641 0)"/>
       <use xlink:href="#DejaVuSans-6f" transform="translate(1442.964844 0)"/>
       <use xlink:href="#DejaVuSans-6e" transform="translate(1504.146484 0)"/>
      </g>
     </g>
    </g>
    <g id="ytick_9">
     <g id="line2d_12">
      <g>
       <use xlink:href="#mcaa482b2dc" x="367.259375" y="133.198125" style="stroke: #000000; stroke-width: 0.8"/>
      </g>
     </g>
     <g id="text_13">
      <!-- chromatin remodeling -->
      <g transform="translate(249.69375 136.997344) scale(0.1 -0.1)">
       <use xlink:href="#DejaVuSans-63"/>
       <use xlink:href="#DejaVuSans-68" transform="translate(54.980469 0)"/>
       <use xlink:href="#DejaVuSans-72" transform="translate(118.359375 0)"/>
       <use xlink:href="#DejaVuSans-6f" transform="translate(157.222656 0)"/>
       <use xlink:href="#DejaVuSans-6d" transform="translate(218.404297 0)"/>
       <use xlink:href="#DejaVuSans-61" transform="translate(315.816406 0)"/>
       <use xlink:href="#DejaVuSans-74" transform="translate(377.095703 0)"/>
       <use xlink:href="#DejaVuSans-69" transform="translate(416.304688 0)"/>
       <use xlink:href="#DejaVuSans-6e" transform="translate(444.087891 0)"/>
       <use xlink:href="#DejaVuSans-20" transform="translate(507.466797 0)"/>
       <use xlink:href="#DejaVuSans-72" transform="translate(539.253906 0)"/>
       <use xlink:href="#DejaVuSans-65" transform="translate(578.117188 0)"/>
       <use xlink:href="#DejaVuSans-6d" transform="translate(639.640625 0)"/>
       <use xlink:href="#DejaVuSans-6f" transform="translate(737.052734 0)"/>
       <use xlink:href="#DejaVuSans-64" transform="translate(798.234375 0)"/>
       <use xlink:href="#DejaVuSans-65" transform="translate(861.710938 0)"/>
       <use xlink:href="#DejaVuSans-6c" transform="translate(923.234375 0)"/>
       <use xlink:href="#DejaVuSans-69" transform="translate(951.017578 0)"/>
       <use xlink:href="#DejaVuSans-6e" transform="translate(978.800781 0)"/>
       <use xlink:href="#DejaVuSans-67" transform="translate(1042.179688 0)"/>
      </g>
     </g>
    </g>
    <g id="ytick_10">
     <g id="line2d_13">
      <g>
       <use xlink:href="#mcaa482b2dc" x="367.259375" y="145.798125" style="stroke: #000000; stroke-width: 0.8"/>
      </g>
     </g>
     <g id="text_14">
      <!-- chromatin organization -->
      <g transform="translate(244.157812 149.597344) scale(0.1 -0.1)">
       <use xlink:href="#DejaVuSans-63"/>
       <use xlink:href="#DejaVuSans-68" transform="translate(54.980469 0)"/>
       <use xlink:href="#DejaVuSans-72" transform="translate(118.359375 0)"/>
       <use xlink:href="#DejaVuSans-6f" transform="translate(157.222656 0)"/>
       <use xlink:href="#DejaVuSans-6d" transform="translate(218.404297 0)"/>
       <use xlink:href="#DejaVuSans-61" transform="translate(315.816406 0)"/>
       <use xlink:href="#DejaVuSans-74" transform="translate(377.095703 0)"/>
       <use xlink:href="#DejaVuSans-69" transform="translate(416.304688 0)"/>
       <use xlink:href="#DejaVuSans-6e" transform="translate(444.087891 0)"/>
       <use xlink:href="#DejaVuSans-20" transform="translate(507.466797 0)"/>
       <use xlink:href="#DejaVuSans-6f" transform="translate(539.253906 0)"/>
       <use xlink:href="#DejaVuSans-72" transform="translate(600.435547 0)"/>
       <use xlink:href="#DejaVuSans-67" transform="translate(639.798828 0)"/>
       <use xlink:href="#DejaVuSans-61" transform="translate(703.275391 0)"/>
       <use xlink:href="#DejaVuSans-6e" transform="translate(764.554688 0)"/>
       <use xlink:href="#DejaVuSans-69" transform="translate(827.933594 0)"/>
       <use xlink:href="#DejaVuSans-7a" transform="translate(855.716797 0)"/>
       <use xlink:href="#DejaVuSans-61" transform="translate(908.207031 0)"/>
       <use xlink:href="#DejaVuSans-74" transform="translate(969.486328 0)"/>
       <use xlink:href="#DejaVuSans-69" transform="translate(1008.695312 0)"/>
       <use xlink:href="#DejaVuSans-6f" transform="translate(1036.478516 0)"/>
       <use xlink:href="#DejaVuSans-6e" transform="translate(1097.660156 0)"/>
      </g>
     </g>
    </g>
    <g id="ytick_11">
     <g id="line2d_14">
      <g>
       <use xlink:href="#mcaa482b2dc" x="367.259375" y="158.398125" style="stroke: #000000; stroke-width: 0.8"/>
      </g>
     </g>
     <g id="text_15">
      <!-- protein ubiquitination -->
      <g transform="translate(252.292187 162.197344) scale(0.1 -0.1)">
       <use xlink:href="#DejaVuSans-70"/>
       <use xlink:href="#DejaVuSans-72" transform="translate(63.476562 0)"/>
       <use xlink:href="#DejaVuSans-6f" transform="translate(102.339844 0)"/>
       <use xlink:href="#DejaVuSans-74" transform="translate(163.521484 0)"/>
       <use xlink:href="#DejaVuSans-65" transform="translate(202.730469 0)"/>
       <use xlink:href="#DejaVuSans-69" transform="translate(264.253906 0)"/>
       <use xlink:href="#DejaVuSans-6e" transform="translate(292.037109 0)"/>
       <use xlink:href="#DejaVuSans-20" transform="translate(355.416016 0)"/>
       <use xlink:href="#DejaVuSans-75" transform="translate(387.203125 0)"/>
       <use xlink:href="#DejaVuSans-62" transform="translate(450.582031 0)"/>
       <use xlink:href="#DejaVuSans-69" transform="translate(514.058594 0)"/>
       <use xlink:href="#DejaVuSans-71" transform="translate(541.841797 0)"/>
       <use xlink:href="#DejaVuSans-75" transform="translate(605.318359 0)"/>
       <use xlink:href="#DejaVuSans-69" transform="translate(668.697266 0)"/>
       <use xlink:href="#DejaVuSans-74" transform="translate(696.480469 0)"/>
       <use xlink:href="#DejaVuSans-69" transform="translate(735.689453 0)"/>
       <use xlink:href="#DejaVuSans-6e" transform="translate(763.472656 0)"/>
       <use xlink:href="#DejaVuSans-61" transform="translate(826.851562 0)"/>
       <use xlink:href="#DejaVuSans-74" transform="translate(888.130859 0)"/>
       <use xlink:href="#DejaVuSans-69" transform="translate(927.339844 0)"/>
       <use xlink:href="#DejaVuSans-6f" transform="translate(955.123047 0)"/>
       <use xlink:href="#DejaVuSans-6e" transform="translate(1016.304688 0)"/>
      </g>
     </g>
    </g>
    <g id="ytick_12">
     <g id="line2d_15">
      <g>
       <use xlink:href="#mcaa482b2dc" x="367.259375" y="170.998125" style="stroke: #000000; stroke-width: 0.8"/>
      </g>
     </g>
     <g id="text_16">
      <!-- protein transport -->
      <g transform="translate(275.334375 174.797344) scale(0.1 -0.1)">
       <use xlink:href="#DejaVuSans-70"/>
       <use xlink:href="#DejaVuSans-72" transform="translate(63.476562 0)"/>
       <use xlink:href="#DejaVuSans-6f" transform="translate(102.339844 0)"/>
       <use xlink:href="#DejaVuSans-74" transform="translate(163.521484 0)"/>
       <use xlink:href="#DejaVuSans-65" transform="translate(202.730469 0)"/>
       <use xlink:href="#DejaVuSans-69" transform="translate(264.253906 0)"/>
       <use xlink:href="#DejaVuSans-6e" transform="translate(292.037109 0)"/>
       <use xlink:href="#DejaVuSans-20" transform="translate(355.416016 0)"/>
       <use xlink:href="#DejaVuSans-74" transform="translate(387.203125 0)"/>
       <use xlink:href="#DejaVuSans-72" transform="translate(426.412109 0)"/>
       <use xlink:href="#DejaVuSans-61" transform="translate(467.525391 0)"/>
       <use xlink:href="#DejaVuSans-6e" transform="translate(528.804688 0)"/>
       <use xlink:href="#DejaVuSans-73" transform="translate(592.183594 0)"/>
       <use xlink:href="#DejaVuSans-70" transform="translate(644.283203 0)"/>
       <use xlink:href="#DejaVuSans-6f" transform="translate(707.759766 0)"/>
       <use xlink:href="#DejaVuSans-72" transform="translate(768.941406 0)"/>
       <use xlink:href="#DejaVuSans-74" transform="translate(810.054688 0)"/>
      </g>
     </g>
    </g>
    <g id="ytick_13">
     <g id="line2d_16">
      <g>
       <use xlink:href="#mcaa482b2dc" x="367.259375" y="183.598125" style="stroke: #000000; stroke-width: 0.8"/>
      </g>
     </g>
     <g id="text_17">
      <!-- intracellular signal transduction -->
      <g transform="translate(201.440625 187.397344) scale(0.1 -0.1)">
       <use xlink:href="#DejaVuSans-69"/>
       <use xlink:href="#DejaVuSans-6e" transform="translate(27.783203 0)"/>
       <use xlink:href="#DejaVuSans-74" transform="translate(91.162109 0)"/>
       <use xlink:href="#DejaVuSans-72" transform="translate(130.371094 0)"/>
       <use xlink:href="#DejaVuSans-61" transform="translate(171.484375 0)"/>
       <use xlink:href="#DejaVuSans-63" transform="translate(232.763672 0)"/>
       <use xlink:href="#DejaVuSans-65" transform="translate(287.744141 0)"/>
       <use xlink:href="#DejaVuSans-6c" transform="translate(349.267578 0)"/>
       <use xlink:href="#DejaVuSans-6c" transform="translate(377.050781 0)"/>
       <use xlink:href="#DejaVuSans-75" transform="translate(404.833984 0)"/>
       <use xlink:href="#DejaVuSans-6c" transform="translate(468.212891 0)"/>
       <use xlink:href="#DejaVuSans-61" transform="translate(495.996094 0)"/>
       <use xlink:href="#DejaVuSans-72" transform="translate(557.275391 0)"/>
       <use xlink:href="#DejaVuSans-20" transform="translate(598.388672 0)"/>
       <use xlink:href="#DejaVuSans-73" transform="translate(630.175781 0)"/>
       <use xlink:href="#DejaVuSans-69" transform="translate(682.275391 0)"/>
       <use xlink:href="#DejaVuSans-67" transform="translate(710.058594 0)"/>
       <use xlink:href="#DejaVuSans-6e" transform="translate(773.535156 0)"/>
       <use xlink:href="#DejaVuSans-61" transform="translate(836.914062 0)"/>
       <use xlink:href="#DejaVuSans-6c" transform="translate(898.193359 0)"/>
       <use xlink:href="#DejaVuSans-20" transform="translate(925.976562 0)"/>
       <use xlink:href="#DejaVuSans-74" transform="translate(957.763672 0)"/>
       <use xlink:href="#DejaVuSans-72" transform="translate(996.972656 0)"/>
       <use xlink:href="#DejaVuSans-61" transform="translate(1038.085938 0)"/>
       <use xlink:href="#DejaVuSans-6e" transform="translate(1099.365234 0)"/>
       <use xlink:href="#DejaVuSans-73" transform="translate(1162.744141 0)"/>
       <use xlink:href="#DejaVuSans-64" transform="translate(1214.84375 0)"/>
       <use xlink:href="#DejaVuSans-75" transform="translate(1278.320312 0)"/>
       <use xlink:href="#DejaVuSans-63" transform="translate(1341.699219 0)"/>
       <use xlink:href="#DejaVuSans-74" transform="translate(1396.679688 0)"/>
       <use xlink:href="#DejaVuSans-69" transform="translate(1435.888672 0)"/>
       <use xlink:href="#DejaVuSans-6f" transform="translate(1463.671875 0)"/>
       <use xlink:href="#DejaVuSans-6e" transform="translate(1524.853516 0)"/>
      </g>
     </g>
    </g>
    <g id="ytick_14">
     <g id="line2d_17">
      <g>
       <use xlink:href="#mcaa482b2dc" x="367.259375" y="196.198125" style="stroke: #000000; stroke-width: 0.8"/>
      </g>
     </g>
     <g id="text_18">
      <!-- nervous system development -->
      <g transform="translate(211.595312 199.997344) scale(0.1 -0.1)">
       <use xlink:href="#DejaVuSans-6e"/>
       <use xlink:href="#DejaVuSans-65" transform="translate(63.378906 0)"/>
       <use xlink:href="#DejaVuSans-72" transform="translate(124.902344 0)"/>
       <use xlink:href="#DejaVuSans-76" transform="translate(166.015625 0)"/>
       <use xlink:href="#DejaVuSans-6f" transform="translate(225.195312 0)"/>
       <use xlink:href="#DejaVuSans-75" transform="translate(286.376953 0)"/>
       <use xlink:href="#DejaVuSans-73" transform="translate(349.755859 0)"/>
       <use xlink:href="#DejaVuSans-20" transform="translate(401.855469 0)"/>
       <use xlink:href="#DejaVuSans-73" transform="translate(433.642578 0)"/>
       <use xlink:href="#DejaVuSans-79" transform="translate(485.742188 0)"/>
       <use xlink:href="#DejaVuSans-73" transform="translate(544.921875 0)"/>
       <use xlink:href="#DejaVuSans-74" transform="translate(597.021484 0)"/>
       <use xlink:href="#DejaVuSans-65" transform="translate(636.230469 0)"/>
       <use xlink:href="#DejaVuSans-6d" transform="translate(697.753906 0)"/>
       <use xlink:href="#DejaVuSans-20" transform="translate(795.166016 0)"/>
       <use xlink:href="#DejaVuSans-64" transform="translate(826.953125 0)"/>
       <use xlink:href="#DejaVuSans-65" transform="translate(890.429688 0)"/>
       <use xlink:href="#DejaVuSans-76" transform="translate(951.953125 0)"/>
       <use xlink:href="#DejaVuSans-65" transform="translate(1011.132812 0)"/>
       <use xlink:href="#DejaVuSans-6c" transform="translate(1072.65625 0)"/>
       <use xlink:href="#DejaVuSans-6f" transform="translate(1100.439453 0)"/>
       <use xlink:href="#DejaVuSans-70" transform="translate(1161.621094 0)"/>
       <use xlink:href="#DejaVuSans-6d" transform="translate(1225.097656 0)"/>
       <use xlink:href="#DejaVuSans-65" transform="translate(1322.509766 0)"/>
       <use xlink:href="#DejaVuSans-6e" transform="translate(1384.033203 0)"/>
       <use xlink:href="#DejaVuSans-74" transform="translate(1447.412109 0)"/>
      </g>
     </g>
    </g>
    <g id="ytick_15">
     <g id="line2d_18">
      <g>
       <use xlink:href="#mcaa482b2dc" x="367.259375" y="208.798125" style="stroke: #000000; stroke-width: 0.8"/>
      </g>
     </g>
     <g id="text_19">
      <!-- G protein-coupled receptor signaling pathway -->
      <g transform="translate(130.873437 212.597344) scale(0.1 -0.1)">
       <defs>
        <path id="DejaVuSans-47" d="M 3809 666 
L 3809 1919 
L 2778 1919 
L 2778 2438 
L 4434 2438 
L 4434 434 
Q 4069 175 3628 42 
Q 3188 -91 2688 -91 
Q 1594 -91 976 548 
Q 359 1188 359 2328 
Q 359 3472 976 4111 
Q 1594 4750 2688 4750 
Q 3144 4750 3555 4637 
Q 3966 4525 4313 4306 
L 4313 3634 
Q 3963 3931 3569 4081 
Q 3175 4231 2741 4231 
Q 1884 4231 1454 3753 
Q 1025 3275 1025 2328 
Q 1025 1384 1454 906 
Q 1884 428 2741 428 
Q 3075 428 3337 486 
Q 3600 544 3809 666 
z
" transform="scale(0.015625)"/>
        <path id="DejaVuSans-77" d="M 269 3500 
L 844 3500 
L 1563 769 
L 2278 3500 
L 2956 3500 
L 3675 769 
L 4391 3500 
L 4966 3500 
L 4050 0 
L 3372 0 
L 2619 2869 
L 1863 0 
L 1184 0 
L 269 3500 
z
" transform="scale(0.015625)"/>
       </defs>
       <use xlink:href="#DejaVuSans-47"/>
       <use xlink:href="#DejaVuSans-20" transform="translate(77.490234 0)"/>
       <use xlink:href="#DejaVuSans-70" transform="translate(109.277344 0)"/>
       <use xlink:href="#DejaVuSans-72" transform="translate(172.753906 0)"/>
       <use xlink:href="#DejaVuSans-6f" transform="translate(211.617188 0)"/>
       <use xlink:href="#DejaVuSans-74" transform="translate(272.798828 0)"/>
       <use xlink:href="#DejaVuSans-65" transform="translate(312.007812 0)"/>
       <use xlink:href="#DejaVuSans-69" transform="translate(373.53125 0)"/>
       <use xlink:href="#DejaVuSans-6e" transform="translate(401.314453 0)"/>
       <use xlink:href="#DejaVuSans-2d" transform="translate(464.693359 0)"/>
       <use xlink:href="#DejaVuSans-63" transform="translate(500.777344 0)"/>
       <use xlink:href="#DejaVuSans-6f" transform="translate(555.757812 0)"/>
       <use xlink:href="#DejaVuSans-75" transform="translate(616.939453 0)"/>
       <use xlink:href="#DejaVuSans-70" transform="translate(680.318359 0)"/>
       <use xlink:href="#DejaVuSans-6c" transform="translate(743.794922 0)"/>
       <use xlink:href="#DejaVuSans-65" transform="translate(771.578125 0)"/>
       <use xlink:href="#DejaVuSans-64" transform="translate(833.101562 0)"/>
       <use xlink:href="#DejaVuSans-20" transform="translate(896.578125 0)"/>
       <use xlink:href="#DejaVuSans-72" transform="translate(928.365234 0)"/>
       <use xlink:href="#DejaVuSans-65" transform="translate(967.228516 0)"/>
       <use xlink:href="#DejaVuSans-63" transform="translate(1028.751953 0)"/>
       <use xlink:href="#DejaVuSans-65" transform="translate(1083.732422 0)"/>
       <use xlink:href="#DejaVuSans-70" transform="translate(1145.255859 0)"/>
       <use xlink:href="#DejaVuSans-74" transform="translate(1208.732422 0)"/>
       <use xlink:href="#DejaVuSans-6f" transform="translate(1247.941406 0)"/>
       <use xlink:href="#DejaVuSans-72" transform="translate(1309.123047 0)"/>
       <use xlink:href="#DejaVuSans-20" transform="translate(1350.236328 0)"/>
       <use xlink:href="#DejaVuSans-73" transform="translate(1382.023438 0)"/>
       <use xlink:href="#DejaVuSans-69" transform="translate(1434.123047 0)"/>
       <use xlink:href="#DejaVuSans-67" transform="translate(1461.90625 0)"/>
       <use xlink:href="#DejaVuSans-6e" transform="translate(1525.382812 0)"/>
       <use xlink:href="#DejaVuSans-61" transform="translate(1588.761719 0)"/>
       <use xlink:href="#DejaVuSans-6c" transform="translate(1650.041016 0)"/>
       <use xlink:href="#DejaVuSans-69" transform="translate(1677.824219 0)"/>
       <use xlink:href="#DejaVuSans-6e" transform="translate(1705.607422 0)"/>
       <use xlink:href="#DejaVuSans-67" transform="translate(1768.986328 0)"/>
       <use xlink:href="#DejaVuSans-20" transform="translate(1832.462891 0)"/>
       <use xlink:href="#DejaVuSans-70" transform="translate(1864.25 0)"/>
       <use xlink:href="#DejaVuSans-61" transform="translate(1927.726562 0)"/>
       <use xlink:href="#DejaVuSans-74" transform="translate(1989.005859 0)"/>
       <use xlink:href="#DejaVuSans-68" transform="translate(2028.214844 0)"/>
       <use xlink:href="#DejaVuSans-77" transform="translate(2091.59375 0)"/>
       <use xlink:href="#DejaVuSans-61" transform="translate(2173.380859 0)"/>
       <use xlink:href="#DejaVuSans-79" transform="translate(2234.660156 0)"/>
      </g>
     </g>
    </g>
    <g id="ytick_16">
     <g id="line2d_19">
      <g>
       <use xlink:href="#mcaa482b2dc" x="367.259375" y="221.398125" style="stroke: #000000; stroke-width: 0.8"/>
      </g>
     </g>
     <g id="text_20">
      <!-- sensory perception of smell -->
      <g transform="translate(221.826562 225.197344) scale(0.1 -0.1)">
       <use xlink:href="#DejaVuSans-73"/>
       <use xlink:href="#DejaVuSans-65" transform="translate(52.099609 0)"/>
       <use xlink:href="#DejaVuSans-6e" transform="translate(113.623047 0)"/>
       <use xlink:href="#DejaVuSans-73" transform="translate(177.001953 0)"/>
       <use xlink:href="#DejaVuSans-6f" transform="translate(229.101562 0)"/>
       <use xlink:href="#DejaVuSans-72" transform="translate(290.283203 0)"/>
       <use xlink:href="#DejaVuSans-79" transform="translate(331.396484 0)"/>
       <use xlink:href="#DejaVuSans-20" transform="translate(390.576172 0)"/>
       <use xlink:href="#DejaVuSans-70" transform="translate(422.363281 0)"/>
       <use xlink:href="#DejaVuSans-65" transform="translate(485.839844 0)"/>
       <use xlink:href="#DejaVuSans-72" transform="translate(547.363281 0)"/>
       <use xlink:href="#DejaVuSans-63" transform="translate(586.226562 0)"/>
       <use xlink:href="#DejaVuSans-65" transform="translate(641.207031 0)"/>
       <use xlink:href="#DejaVuSans-70" transform="translate(702.730469 0)"/>
       <use xlink:href="#DejaVuSans-74" transform="translate(766.207031 0)"/>
       <use xlink:href="#DejaVuSans-69" transform="translate(805.416016 0)"/>
       <use xlink:href="#DejaVuSans-6f" transform="translate(833.199219 0)"/>
       <use xlink:href="#DejaVuSans-6e" transform="translate(894.380859 0)"/>
       <use xlink:href="#DejaVuSans-20" transform="translate(957.759766 0)"/>
       <use xlink:href="#DejaVuSans-6f" transform="translate(989.546875 0)"/>
       <use xlink:href="#DejaVuSans-66" transform="translate(1050.728516 0)"/>
       <use xlink:href="#DejaVuSans-20" transform="translate(1085.933594 0)"/>
       <use xlink:href="#DejaVuSans-73" transform="translate(1117.720703 0)"/>
       <use xlink:href="#DejaVuSans-6d" transform="translate(1169.820312 0)"/>
       <use xlink:href="#DejaVuSans-65" transform="translate(1267.232422 0)"/>
       <use xlink:href="#DejaVuSans-6c" transform="translate(1328.755859 0)"/>
       <use xlink:href="#DejaVuSans-6c" transform="translate(1356.539062 0)"/>
      </g>
     </g>
    </g>
    <g id="ytick_17">
     <g id="line2d_20">
      <g>
       <use xlink:href="#mcaa482b2dc" x="367.259375" y="233.998125" style="stroke: #000000; stroke-width: 0.8"/>
      </g>
     </g>
     <g id="text_21">
      <!-- detection of chemical stimulus involved in sensory perception of smell -->
      <g transform="translate(7.2 237.797344) scale(0.1 -0.1)">
       <use xlink:href="#DejaVuSans-64"/>
       <use xlink:href="#DejaVuSans-65" transform="translate(63.476562 0)"/>
       <use xlink:href="#DejaVuSans-74" transform="translate(125 0)"/>
       <use xlink:href="#DejaVuSans-65" transform="translate(164.208984 0)"/>
       <use xlink:href="#DejaVuSans-63" transform="translate(225.732422 0)"/>
       <use xlink:href="#DejaVuSans-74" transform="translate(280.712891 0)"/>
       <use xlink:href="#DejaVuSans-69" transform="translate(319.921875 0)"/>
       <use xlink:href="#DejaVuSans-6f" transform="translate(347.705078 0)"/>
       <use xlink:href="#DejaVuSans-6e" transform="translate(408.886719 0)"/>
       <use xlink:href="#DejaVuSans-20" transform="translate(472.265625 0)"/>
       <use xlink:href="#DejaVuSans-6f" transform="translate(504.052734 0)"/>
       <use xlink:href="#DejaVuSans-66" transform="translate(565.234375 0)"/>
       <use xlink:href="#DejaVuSans-20" transform="translate(600.439453 0)"/>
       <use xlink:href="#DejaVuSans-63" transform="translate(632.226562 0)"/>
       <use xlink:href="#DejaVuSans-68" transform="translate(687.207031 0)"/>
       <use xlink:href="#DejaVuSans-65" transform="translate(750.585938 0)"/>
       <use xlink:href="#DejaVuSans-6d" transform="translate(812.109375 0)"/>
       <use xlink:href="#DejaVuSans-69" transform="translate(909.521484 0)"/>
       <use xlink:href="#DejaVuSans-63" transform="translate(937.304688 0)"/>
       <use xlink:href="#DejaVuSans-61" transform="translate(992.285156 0)"/>
       <use xlink:href="#DejaVuSans-6c" transform="translate(1053.564453 0)"/>
       <use xlink:href="#DejaVuSans-20" transform="translate(1081.347656 0)"/>
       <use xlink:href="#DejaVuSans-73" transform="translate(1113.134766 0)"/>
       <use xlink:href="#DejaVuSans-74" transform="translate(1165.234375 0)"/>
       <use xlink:href="#DejaVuSans-69" transform="translate(1204.443359 0)"/>
       <use xlink:href="#DejaVuSans-6d" transform="translate(1232.226562 0)"/>
       <use xlink:href="#DejaVuSans-75" transform="translate(1329.638672 0)"/>
       <use xlink:href="#DejaVuSans-6c" transform="translate(1393.017578 0)"/>
       <use xlink:href="#DejaVuSans-75" transform="translate(1420.800781 0)"/>
       <use xlink:href="#DejaVuSans-73" transform="translate(1484.179688 0)"/>
       <use xlink:href="#DejaVuSans-20" transform="translate(1536.279297 0)"/>
       <use xlink:href="#DejaVuSans-69" transform="translate(1568.066406 0)"/>
       <use xlink:href="#DejaVuSans-6e" transform="translate(1595.849609 0)"/>
       <use xlink:href="#DejaVuSans-76" transform="translate(1659.228516 0)"/>
       <use xlink:href="#DejaVuSans-6f" transform="translate(1718.408203 0)"/>
       <use xlink:href="#DejaVuSans-6c" transform="translate(1779.589844 0)"/>
       <use xlink:href="#DejaVuSans-76" transform="translate(1807.373047 0)"/>
       <use xlink:href="#DejaVuSans-65" transform="translate(1866.552734 0)"/>
       <use xlink:href="#DejaVuSans-64" transform="translate(1928.076172 0)"/>
       <use xlink:href="#DejaVuSans-20" transform="translate(1991.552734 0)"/>
       <use xlink:href="#DejaVuSans-69" transform="translate(2023.339844 0)"/>
       <use xlink:href="#DejaVuSans-6e" transform="translate(2051.123047 0)"/>
       <use xlink:href="#DejaVuSans-20" transform="translate(2114.501953 0)"/>
       <use xlink:href="#DejaVuSans-73" transform="translate(2146.289062 0)"/>
       <use xlink:href="#DejaVuSans-65" transform="translate(2198.388672 0)"/>
       <use xlink:href="#DejaVuSans-6e" transform="translate(2259.912109 0)"/>
       <use xlink:href="#DejaVuSans-73" transform="translate(2323.291016 0)"/>
       <use xlink:href="#DejaVuSans-6f" transform="translate(2375.390625 0)"/>
       <use xlink:href="#DejaVuSans-72" transform="translate(2436.572266 0)"/>
       <use xlink:href="#DejaVuSans-79" transform="translate(2477.685547 0)"/>
       <use xlink:href="#DejaVuSans-20" transform="translate(2536.865234 0)"/>
       <use xlink:href="#DejaVuSans-70" transform="translate(2568.652344 0)"/>
       <use xlink:href="#DejaVuSans-65" transform="translate(2632.128906 0)"/>
       <use xlink:href="#DejaVuSans-72" transform="translate(2693.652344 0)"/>
       <use xlink:href="#DejaVuSans-63" transform="translate(2732.515625 0)"/>
       <use xlink:href="#DejaVuSans-65" transform="translate(2787.496094 0)"/>
       <use xlink:href="#DejaVuSans-70" transform="translate(2849.019531 0)"/>
       <use xlink:href="#DejaVuSans-74" transform="translate(2912.496094 0)"/>
       <use xlink:href="#DejaVuSans-69" transform="translate(2951.705078 0)"/>
       <use xlink:href="#DejaVuSans-6f" transform="translate(2979.488281 0)"/>
       <use xlink:href="#DejaVuSans-6e" transform="translate(3040.669922 0)"/>
       <use xlink:href="#DejaVuSans-20" transform="translate(3104.048828 0)"/>
       <use xlink:href="#DejaVuSans-6f" transform="translate(3135.835938 0)"/>
       <use xlink:href="#DejaVuSans-66" transform="translate(3197.017578 0)"/>
       <use xlink:href="#DejaVuSans-20" transform="translate(3232.222656 0)"/>
       <use xlink:href="#DejaVuSans-73" transform="translate(3264.009766 0)"/>
       <use xlink:href="#DejaVuSans-6d" transform="translate(3316.109375 0)"/>
       <use xlink:href="#DejaVuSans-65" transform="translate(3413.521484 0)"/>
       <use xlink:href="#DejaVuSans-6c" transform="translate(3475.044922 0)"/>
       <use xlink:href="#DejaVuSans-6c" transform="translate(3502.828125 0)"/>
      </g>
     </g>
    </g>
   </g>
   <g id="line2d_21"/>
   <g id="line2d_22"/>
   <g id="line2d_23"/>
   <g id="line2d_24"/>
   <g id="line2d_25"/>
   <g id="line2d_26"/>
   <g id="line2d_27"/>
   <g id="line2d_28"/>
   <g id="line2d_29"/>
   <g id="line2d_30"/>
   <g id="line2d_31"/>
   <g id="line2d_32"/>
   <g id="patch_3">
    <path d="M 367.259375 244.078125 
L 367.259375 22.318125 
" style="fill: none; stroke: #000000; stroke-width: 0.8; stroke-linejoin: miter; stroke-linecap: square"/>
   </g>
   <g id="patch_4">
    <path d="M 534.659375 244.078125 
L 534.659375 22.318125 
" style="fill: none; stroke: #000000; stroke-width: 0.8; stroke-linejoin: miter; stroke-linecap: square"/>
   </g>
   <g id="patch_5">
    <path d="M 367.259375 244.078125 
L 534.659375 244.078125 
" style="fill: none; stroke: #000000; stroke-width: 0.8; stroke-linejoin: miter; stroke-linecap: square"/>
   </g>
   <g id="patch_6">
    <path d="M 367.259375 22.318125 
L 534.659375 22.318125 
" style="fill: none; stroke: #000000; stroke-width: 0.8; stroke-linejoin: miter; stroke-linecap: square"/>
   </g>
   <g id="text_22">
    <!-- Top 20 Enriched Biological Processes -->
    <g transform="translate(340.755312 16.318125) scale(0.12 -0.12)">
     <defs>
      <path id="DejaVuSans-54" d="M -19 4666 
L 3928 4666 
L 3928 4134 
L 2272 4134 
L 2272 0 
L 1638 0 
L 1638 4134 
L -19 4134 
L -19 4666 
z
" transform="scale(0.015625)"/>
      <path id="DejaVuSans-42" d="M 1259 2228 
L 1259 519 
L 2272 519 
Q 2781 519 3026 730 
Q 3272 941 3272 1375 
Q 3272 1813 3026 2020 
Q 2781 2228 2272 2228 
L 1259 2228 
z
M 1259 4147 
L 1259 2741 
L 2194 2741 
Q 2656 2741 2882 2914 
Q 3109 3088 3109 3444 
Q 3109 3797 2882 3972 
Q 2656 4147 2194 4147 
L 1259 4147 
z
M 628 4666 
L 2241 4666 
Q 2963 4666 3353 4366 
Q 3744 4066 3744 3513 
Q 3744 3084 3544 2831 
Q 3344 2578 2956 2516 
Q 3422 2416 3680 2098 
Q 3938 1781 3938 1306 
Q 3938 681 3513 340 
Q 3088 0 2303 0 
L 628 0 
L 628 4666 
z
" transform="scale(0.015625)"/>
      <path id="DejaVuSans-50" d="M 1259 4147 
L 1259 2394 
L 2053 2394 
Q 2494 2394 2734 2622 
Q 2975 2850 2975 3272 
Q 2975 3691 2734 3919 
Q 2494 4147 2053 4147 
L 1259 4147 
z
M 628 4666 
L 2053 4666 
Q 2838 4666 3239 4311 
Q 3641 3956 3641 3272 
Q 3641 2581 3239 2228 
Q 2838 1875 2053 1875 
L 1259 1875 
L 1259 0 
L 628 0 
L 628 4666 
z
" transform="scale(0.015625)"/>
     </defs>
     <use xlink:href="#DejaVuSans-54"/>
     <use xlink:href="#DejaVuSans-6f" transform="translate(44.083984 0)"/>
     <use xlink:href="#DejaVuSans-70" transform="translate(105.265625 0)"/>
     <use xlink:href="#DejaVuSans-20" transform="translate(168.742188 0)"/>
     <use xlink:href="#DejaVuSans-32" transform="translate(200.529297 0)"/>
     <use xlink:href="#DejaVuSans-30" transform="translate(264.152344 0)"/>
     <use xlink:href="#DejaVuSans-20" transform="translate(327.775391 0)"/>
     <use xlink:href="#DejaVuSans-45" transform="translate(359.5625 0)"/>
     <use xlink:href="#DejaVuSans-6e" transform="translate(422.746094 0)"/>
     <use xlink:href="#DejaVuSans-72" transform="translate(486.125 0)"/>
     <use xlink:href="#DejaVuSans-69" transform="translate(527.238281 0)"/>
     <use xlink:href="#DejaVuSans-63" transform="translate(555.021484 0)"/>
     <use xlink:href="#DejaVuSans-68" transform="translate(610.001953 0)"/>
     <use xlink:href="#DejaVuSans-65" transform="translate(673.380859 0)"/>
     <use xlink:href="#DejaVuSans-64" transform="translate(734.904297 0)"/>
     <use xlink:href="#DejaVuSans-20" transform="translate(798.380859 0)"/>
     <use xlink:href="#DejaVuSans-42" transform="translate(830.167969 0)"/>
     <use xlink:href="#DejaVuSans-69" transform="translate(898.771484 0)"/>
     <use xlink:href="#DejaVuSans-6f" transform="translate(926.554688 0)"/>
     <use xlink:href="#DejaVuSans-6c" transform="translate(987.736328 0)"/>
     <use xlink:href="#DejaVuSans-6f" transform="translate(1015.519531 0)"/>
     <use xlink:href="#DejaVuSans-67" transform="translate(1076.701172 0)"/>
     <use xlink:href="#DejaVuSans-69" transform="translate(1140.177734 0)"/>
     <use xlink:href="#DejaVuSans-63" transform="translate(1167.960938 0)"/>
     <use xlink:href="#DejaVuSans-61" transform="translate(1222.941406 0)"/>
     <use xlink:href="#DejaVuSans-6c" transform="translate(1284.220703 0)"/>
     <use xlink:href="#DejaVuSans-20" transform="translate(1312.003906 0)"/>
     <use xlink:href="#DejaVuSans-50" transform="translate(1343.791016 0)"/>
     <use xlink:href="#DejaVuSans-72" transform="translate(1402.34375 0)"/>
     <use xlink:href="#DejaVuSans-6f" transform="translate(1441.207031 0)"/>
     <use xlink:href="#DejaVuSans-63" transform="translate(1502.388672 0)"/>
     <use xlink:href="#DejaVuSans-65" transform="translate(1557.369141 0)"/>
     <use xlink:href="#DejaVuSans-73" transform="translate(1618.892578 0)"/>
     <use xlink:href="#DejaVuSans-73" transform="translate(1670.992188 0)"/>
     <use xlink:href="#DejaVuSans-65" transform="translate(1723.091797 0)"/>
     <use xlink:href="#DejaVuSans-73" transform="translate(1784.615234 0)"/>
    </g>
   </g>
   <g id="legend_1">
    <g id="patch_7">
     <path d="M 541.659375 206.455625 
L 628.898438 206.455625 
Q 630.898438 206.455625 630.898438 204.455625 
L 630.898438 29.318125 
Q 630.898438 27.318125 628.898438 27.318125 
L 541.659375 27.318125 
Q 539.659375 27.318125 539.659375 29.318125 
L 539.659375 204.455625 
Q 539.659375 206.455625 541.659375 206.455625 
z
" style="fill: #ffffff; opacity: 0.8; stroke: #cccccc; stroke-linejoin: miter"/>
    </g>
    <g id="line2d_33"/>
    <g id="text_23">
     <!-- -log10 FDR -->
     <g transform="translate(571.659375 38.916562) scale(0.1 -0.1)">
      <defs>
       <path id="DejaVuSans-31" d="M 794 531 
L 1825 531 
L 1825 4091 
L 703 3866 
L 703 4441 
L 1819 4666 
L 2450 4666 
L 2450 531 
L 3481 531 
L 3481 0 
L 794 0 
L 794 531 
z
" transform="scale(0.015625)"/>
       <path id="DejaVuSans-44" d="M 1259 4147 
L 1259 519 
L 2022 519 
Q 2988 519 3436 956 
Q 3884 1394 3884 2338 
Q 3884 3275 3436 3711 
Q 2988 4147 2022 4147 
L 1259 4147 
z
M 628 4666 
L 1925 4666 
Q 3281 4666 3915 4102 
Q 4550 3538 4550 2338 
Q 4550 1131 3912 565 
Q 3275 0 1925 0 
L 628 0 
L 628 4666 
z
" transform="scale(0.015625)"/>
       <path id="DejaVuSans-52" d="M 2841 2188 
Q 3044 2119 3236 1894 
Q 3428 1669 3622 1275 
L 4263 0 
L 3584 0 
L 2988 1197 
Q 2756 1666 2539 1819 
Q 2322 1972 1947 1972 
L 1259 1972 
L 1259 0 
L 628 0 
L 628 4666 
L 2053 4666 
Q 2853 4666 3247 4331 
Q 3641 3997 3641 3322 
Q 3641 2881 3436 2590 
Q 3231 2300 2841 2188 
z
M 1259 4147 
L 1259 2491 
L 2053 2491 
Q 2509 2491 2742 2702 
Q 2975 2913 2975 3322 
Q 2975 3731 2742 3939 
Q 2509 4147 2053 4147 
L 1259 4147 
z
" transform="scale(0.015625)"/>
      </defs>
      <use xlink:href="#DejaVuSans-2d"/>
      <use xlink:href="#DejaVuSans-6c" transform="translate(36.083984 0)"/>
      <use xlink:href="#DejaVuSans-6f" transform="translate(63.867188 0)"/>
      <use xlink:href="#DejaVuSans-67" transform="translate(125.048828 0)"/>
      <use xlink:href="#DejaVuSans-31" transform="translate(188.525391 0)"/>
      <use xlink:href="#DejaVuSans-30" transform="translate(252.148438 0)"/>
      <use xlink:href="#DejaVuSans-20" transform="translate(315.771484 0)"/>
      <use xlink:href="#DejaVuSans-46" transform="translate(347.558594 0)"/>
      <use xlink:href="#DejaVuSans-44" transform="translate(405.078125 0)"/>
      <use xlink:href="#DejaVuSans-52" transform="translate(482.080078 0)"/>
     </g>
    </g>
    <g id="line2d_34">
     <defs>
      <path id="m442047b0f9" d="M 0 3 
C 0.795609 3 1.55874 2.683901 2.12132 2.12132 
C 2.683901 1.55874 3 0.795609 3 0 
C 3 -0.795609 2.683901 -1.55874 2.12132 -2.12132 
C 1.55874 -2.683901 0.795609 -3 0 -3 
C -0.795609 -3 -1.55874 -2.683901 -2.12132 -2.12132 
C -2.683901 -1.55874 -3 -0.795609 -3 0 
C -3 0.795609 -2.683901 1.55874 -2.12132 2.12132 
C -1.55874 2.683901 -0.795609 3 0 3 
z
" style="stroke: #ffffff; stroke-width: 0.481866"/>
     </defs>
     <g>
      <use xlink:href="#m442047b0f9" x="553.659375" y="50.094687" style="fill: #4f69d9; stroke: #ffffff; stroke-width: 0.481866"/>
     </g>
    </g>
    <g id="text_24">
     <!-- 4.5 -->
     <g transform="translate(571.659375 53.594687) scale(0.1 -0.1)">
      <defs>
       <path id="DejaVuSans-2e" d="M 684 794 
L 1344 794 
L 1344 0 
L 684 0 
L 684 794 
z
" transform="scale(0.015625)"/>
       <path id="DejaVuSans-35" d="M 691 4666 
L 3169 4666 
L 3169 4134 
L 1269 4134 
L 1269 2991 
Q 1406 3038 1543 3061 
Q 1681 3084 1819 3084 
Q 2600 3084 3056 2656 
Q 3513 2228 3513 1497 
Q 3513 744 3044 326 
Q 2575 -91 1722 -91 
Q 1428 -91 1123 -41 
Q 819 9 494 109 
L 494 744 
Q 775 591 1075 516 
Q 1375 441 1709 441 
Q 2250 441 2565 725 
Q 2881 1009 2881 1497 
Q 2881 1984 2565 2268 
Q 2250 2553 1709 2553 
Q 1456 2553 1204 2497 
Q 953 2441 691 2322 
L 691 4666 
z
" transform="scale(0.015625)"/>
      </defs>
      <use xlink:href="#DejaVuSans-34"/>
      <use xlink:href="#DejaVuSans-2e" transform="translate(63.623047 0)"/>
      <use xlink:href="#DejaVuSans-35" transform="translate(95.410156 0)"/>
     </g>
    </g>
    <g id="line2d_35">
     <defs>
      <path id="m79c99c5dce" d="M 0 3 
C 0.795609 3 1.55874 2.683901 2.12132 2.12132 
C 2.683901 1.55874 3 0.795609 3 0 
C 3 -0.795609 2.683901 -1.55874 2.12132 -2.12132 
C 1.55874 -2.683901 0.795609 -3 0 -3 
C -0.795609 -3 -1.55874 -2.683901 -2.12132 -2.12132 
C -2.683901 -1.55874 -3 -0.795609 -3 0 
C -3 0.795609 -2.683901 1.55874 -2.12132 2.12132 
C -1.55874 2.683901 -0.795609 3 0 3 
z
" style="stroke: #ffffff; stroke-width: 0.481866"/>
     </defs>
     <g>
      <use xlink:href="#m79c99c5dce" x="553.659375" y="64.772812" style="fill: #98b9ff; stroke: #ffffff; stroke-width: 0.481866"/>
     </g>
    </g>
    <g id="text_25">
     <!-- 6.0 -->
     <g transform="translate(571.659375 68.272812) scale(0.1 -0.1)">
      <defs>
       <path id="DejaVuSans-36" d="M 2113 2584 
Q 1688 2584 1439 2293 
Q 1191 2003 1191 1497 
Q 1191 994 1439 701 
Q 1688 409 2113 409 
Q 2538 409 2786 701 
Q 3034 994 3034 1497 
Q 3034 2003 2786 2293 
Q 2538 2584 2113 2584 
z
M 3366 4563 
L 3366 3988 
Q 3128 4100 2886 4159 
Q 2644 4219 2406 4219 
Q 1781 4219 1451 3797 
Q 1122 3375 1075 2522 
Q 1259 2794 1537 2939 
Q 1816 3084 2150 3084 
Q 2853 3084 3261 2657 
Q 3669 2231 3669 1497 
Q 3669 778 3244 343 
Q 2819 -91 2113 -91 
Q 1303 -91 875 529 
Q 447 1150 447 2328 
Q 447 3434 972 4092 
Q 1497 4750 2381 4750 
Q 2619 4750 2861 4703 
Q 3103 4656 3366 4563 
z
" transform="scale(0.015625)"/>
      </defs>
      <use xlink:href="#DejaVuSans-36"/>
      <use xlink:href="#DejaVuSans-2e" transform="translate(63.623047 0)"/>
      <use xlink:href="#DejaVuSans-30" transform="translate(95.410156 0)"/>
     </g>
    </g>
    <g id="line2d_36">
     <defs>
      <path id="mda249f9a51" d="M 0 3 
C 0.795609 3 1.55874 2.683901 2.12132 2.12132 
C 2.683901 1.55874 3 0.795609 3 0 
C 3 -0.795609 2.683901 -1.55874 2.12132 -2.12132 
C 1.55874 -2.683901 0.795609 -3 0 -3 
C -0.795609 -3 -1.55874 -2.683901 -2.12132 -2.12132 
C -2.683901 -1.55874 -3 -0.795609 -3 0 
C -3 0.795609 -2.683901 1.55874 -2.12132 2.12132 
C -1.55874 2.683901 -0.795609 3 0 3 
z
" style="stroke: #ffffff; stroke-width: 0.481866"/>
     </defs>
     <g>
      <use xlink:href="#mda249f9a51" x="553.659375" y="79.450937" style="fill: #dbdcde; stroke: #ffffff; stroke-width: 0.481866"/>
     </g>
    </g>
    <g id="text_26">
     <!-- 7.5 -->
     <g transform="translate(571.659375 82.950937) scale(0.1 -0.1)">
      <defs>
       <path id="DejaVuSans-37" d="M 525 4666 
L 3525 4666 
L 3525 4397 
L 1831 0 
L 1172 0 
L 2766 4134 
L 525 4134 
L 525 4666 
z
" transform="scale(0.015625)"/>
      </defs>
      <use xlink:href="#DejaVuSans-37"/>
      <use xlink:href="#DejaVuSans-2e" transform="translate(63.623047 0)"/>
      <use xlink:href="#DejaVuSans-35" transform="translate(95.410156 0)"/>
     </g>
    </g>
    <g id="line2d_37">
     <defs>
      <path id="m71aa69afe1" d="M 0 3 
C 0.795609 3 1.55874 2.683901 2.12132 2.12132 
C 2.683901 1.55874 3 0.795609 3 0 
C 3 -0.795609 2.683901 -1.55874 2.12132 -2.12132 
C 1.55874 -2.683901 0.795609 -3 0 -3 
C -0.795609 -3 -1.55874 -2.683901 -2.12132 -2.12132 
C -2.683901 -1.55874 -3 -0.795609 -3 0 
C -3 0.795609 -2.683901 1.55874 -2.12132 2.12132 
C -1.55874 2.683901 -0.795609 3 0 3 
z
" style="stroke: #ffffff; stroke-width: 0.481866"/>
     </defs>
     <g>
      <use xlink:href="#m71aa69afe1" x="553.659375" y="94.129062" style="fill: #f7a98b; stroke: #ffffff; stroke-width: 0.481866"/>
     </g>
    </g>
    <g id="text_27">
     <!-- 9.0 -->
     <g transform="translate(571.659375 97.629062) scale(0.1 -0.1)">
      <defs>
       <path id="DejaVuSans-39" d="M 703 97 
L 703 672 
Q 941 559 1184 500 
Q 1428 441 1663 441 
Q 2288 441 2617 861 
Q 2947 1281 2994 2138 
Q 2813 1869 2534 1725 
Q 2256 1581 1919 1581 
Q 1219 1581 811 2004 
Q 403 2428 403 3163 
Q 403 3881 828 4315 
Q 1253 4750 1959 4750 
Q 2769 4750 3195 4129 
Q 3622 3509 3622 2328 
Q 3622 1225 3098 567 
Q 2575 -91 1691 -91 
Q 1453 -91 1209 -44 
Q 966 3 703 97 
z
M 1959 2075 
Q 2384 2075 2632 2365 
Q 2881 2656 2881 3163 
Q 2881 3666 2632 3958 
Q 2384 4250 1959 4250 
Q 1534 4250 1286 3958 
Q 1038 3666 1038 3163 
Q 1038 2656 1286 2365 
Q 1534 2075 1959 2075 
z
" transform="scale(0.015625)"/>
      </defs>
      <use xlink:href="#DejaVuSans-39"/>
      <use xlink:href="#DejaVuSans-2e" transform="translate(63.623047 0)"/>
      <use xlink:href="#DejaVuSans-30" transform="translate(95.410156 0)"/>
     </g>
    </g>
    <g id="line2d_38">
     <defs>
      <path id="m7ca16ba629" d="M 0 3 
C 0.795609 3 1.55874 2.683901 2.12132 2.12132 
C 2.683901 1.55874 3 0.795609 3 0 
C 3 -0.795609 2.683901 -1.55874 2.12132 -2.12132 
C 1.55874 -2.683901 0.795609 -3 0 -3 
C -0.795609 -3 -1.55874 -2.683901 -2.12132 -2.12132 
C -2.683901 -1.55874 -3 -0.795609 -3 0 
C -3 0.795609 -2.683901 1.55874 -2.12132 2.12132 
C -1.55874 2.683901 -0.795609 3 0 3 
z
" style="stroke: #ffffff; stroke-width: 0.481866"/>
     </defs>
     <g>
      <use xlink:href="#m7ca16ba629" x="553.659375" y="108.807187" style="fill: #cf453c; stroke: #ffffff; stroke-width: 0.481866"/>
     </g>
    </g>
    <g id="text_28">
     <!-- 10.5 -->
     <g transform="translate(571.659375 112.307187) scale(0.1 -0.1)">
      <use xlink:href="#DejaVuSans-31"/>
      <use xlink:href="#DejaVuSans-30" transform="translate(63.623047 0)"/>
      <use xlink:href="#DejaVuSans-2e" transform="translate(127.246094 0)"/>
      <use xlink:href="#DejaVuSans-35" transform="translate(159.033203 0)"/>
     </g>
    </g>
    <g id="line2d_39"/>
    <g id="text_29">
     <!-- Gene Ratio -->
     <g transform="translate(571.659375 126.985312) scale(0.1 -0.1)">
      <use xlink:href="#DejaVuSans-47"/>
      <use xlink:href="#DejaVuSans-65" transform="translate(77.490234 0)"/>
      <use xlink:href="#DejaVuSans-6e" transform="translate(139.013672 0)"/>
      <use xlink:href="#DejaVuSans-65" transform="translate(202.392578 0)"/>
      <use xlink:href="#DejaVuSans-20" transform="translate(263.916016 0)"/>
      <use xlink:href="#DejaVuSans-52" transform="translate(295.703125 0)"/>
      <use xlink:href="#DejaVuSans-61" transform="translate(362.935547 0)"/>
      <use xlink:href="#DejaVuSans-74" transform="translate(424.214844 0)"/>
      <use xlink:href="#DejaVuSans-69" transform="translate(463.423828 0)"/>
      <use xlink:href="#DejaVuSans-6f" transform="translate(491.207031 0)"/>
     </g>
    </g>
    <g id="line2d_40">
     <defs>
      <path id="m7fdd184e44" d="M 0 2.236068 
C 0.593012 2.236068 1.161816 2.000462 1.581139 1.581139 
C 2.000462 1.161816 2.236068 0.593012 2.236068 0 
C 2.236068 -0.593012 2.000462 -1.161816 1.581139 -1.581139 
C 1.161816 -2.000462 0.593012 -2.236068 0 -2.236068 
C -0.593012 -2.236068 -1.161816 -2.000462 -1.581139 -1.581139 
C -2.000462 -1.161816 -2.236068 -0.593012 -2.236068 0 
C -2.236068 0.593012 -2.000462 1.161816 -1.581139 1.581139 
C -1.161816 2.000462 -0.593012 2.236068 0 2.236068 
z
" style="stroke: #ffffff; stroke-width: 0.481866"/>
     </defs>
     <g>
      <use xlink:href="#m7fdd184e44" x="553.659375" y="138.163437" style="fill: #333333; stroke: #ffffff; stroke-width: 0.481866"/>
     </g>
    </g>
    <g id="text_30">
     <!-- 0.000 -->
     <g transform="translate(571.659375 141.663437) scale(0.1 -0.1)">
      <use xlink:href="#DejaVuSans-30"/>
      <use xlink:href="#DejaVuSans-2e" transform="translate(63.623047 0)"/>
      <use xlink:href="#DejaVuSans-30" transform="translate(95.410156 0)"/>
      <use xlink:href="#DejaVuSans-30" transform="translate(159.033203 0)"/>
      <use xlink:href="#DejaVuSans-30" transform="translate(222.65625 0)"/>
     </g>
    </g>
    <g id="line2d_41">
     <defs>
      <path id="m764a9b41db" d="M 0 3.575798 
C 0.948313 3.575798 1.857913 3.199029 2.528471 2.528471 
C 3.199029 1.857913 3.575798 0.948313 3.575798 0 
C 3.575798 -0.948313 3.199029 -1.857913 2.528471 -2.528471 
C 1.857913 -3.199029 0.948313 -3.575798 0 -3.575798 
C -0.948313 -3.575798 -1.857913 -3.199029 -2.528471 -2.528471 
C -3.199029 -1.857913 -3.575798 -0.948313 -3.575798 0 
C -3.575798 0.948313 -3.199029 1.857913 -2.528471 2.528471 
C -1.857913 3.199029 -0.948313 3.575798 0 3.575798 
z
" style="stroke: #ffffff; stroke-width: 0.481866"/>
     </defs>
     <g>
      <use xlink:href="#m764a9b41db" x="553.659375" y="152.841562" style="fill: #333333; stroke: #ffffff; stroke-width: 0.481866"/>
     </g>
    </g>
    <g id="text_31">
     <!-- 0.015 -->
     <g transform="translate(571.659375 156.341562) scale(0.1 -0.1)">
      <use xlink:href="#DejaVuSans-30"/>
      <use xlink:href="#DejaVuSans-2e" transform="translate(63.623047 0)"/>
      <use xlink:href="#DejaVuSans-30" transform="translate(95.410156 0)"/>
      <use xlink:href="#DejaVuSans-31" transform="translate(159.033203 0)"/>
      <use xlink:href="#DejaVuSans-35" transform="translate(222.65625 0)"/>
     </g>
    </g>
    <g id="line2d_42">
     <defs>
      <path id="md6464b354e" d="M 0 4.53571 
C 1.202884 4.53571 2.356664 4.057799 3.207231 3.207231 
C 4.057799 2.356664 4.53571 1.202884 4.53571 0 
C 4.53571 -1.202884 4.057799 -2.356664 3.207231 -3.207231 
C 2.356664 -4.057799 1.202884 -4.53571 0 -4.53571 
C -1.202884 -4.53571 -2.356664 -4.057799 -3.207231 -3.207231 
C -4.057799 -2.356664 -4.53571 -1.202884 -4.53571 0 
C -4.53571 1.202884 -4.057799 2.356664 -3.207231 3.207231 
C -2.356664 4.057799 -1.202884 4.53571 0 4.53571 
z
" style="stroke: #ffffff; stroke-width: 0.481866"/>
     </defs>
     <g>
      <use xlink:href="#md6464b354e" x="553.659375" y="167.519687" style="fill: #333333; stroke: #ffffff; stroke-width: 0.481866"/>
     </g>
    </g>
    <g id="text_32">
     <!-- 0.030 -->
     <g transform="translate(571.659375 171.019687) scale(0.1 -0.1)">
      <defs>
       <path id="DejaVuSans-33" d="M 2597 2516 
Q 3050 2419 3304 2112 
Q 3559 1806 3559 1356 
Q 3559 666 3084 287 
Q 2609 -91 1734 -91 
Q 1441 -91 1130 -33 
Q 819 25 488 141 
L 488 750 
Q 750 597 1062 519 
Q 1375 441 1716 441 
Q 2309 441 2620 675 
Q 2931 909 2931 1356 
Q 2931 1769 2642 2001 
Q 2353 2234 1838 2234 
L 1294 2234 
L 1294 2753 
L 1863 2753 
Q 2328 2753 2575 2939 
Q 2822 3125 2822 3475 
Q 2822 3834 2567 4026 
Q 2313 4219 1838 4219 
Q 1578 4219 1281 4162 
Q 984 4106 628 3988 
L 628 4550 
Q 988 4650 1302 4700 
Q 1616 4750 1894 4750 
Q 2613 4750 3031 4423 
Q 3450 4097 3450 3541 
Q 3450 3153 3228 2886 
Q 3006 2619 2597 2516 
z
" transform="scale(0.015625)"/>
      </defs>
      <use xlink:href="#DejaVuSans-30"/>
      <use xlink:href="#DejaVuSans-2e" transform="translate(63.623047 0)"/>
      <use xlink:href="#DejaVuSans-30" transform="translate(95.410156 0)"/>
      <use xlink:href="#DejaVuSans-33" transform="translate(159.033203 0)"/>
      <use xlink:href="#DejaVuSans-30" transform="translate(222.65625 0)"/>
     </g>
    </g>
    <g id="line2d_43">
     <defs>
      <path id="mc5a42b0edb" d="M 0 5.325316 
C 1.41229 5.325316 2.766927 4.764208 3.765567 3.765567 
C 4.764208 2.766927 5.325316 1.41229 5.325316 0 
C 5.325316 -1.41229 4.764208 -2.766927 3.765567 -3.765567 
C 2.766927 -4.764208 1.41229 -5.325316 0 -5.325316 
C -1.41229 -5.325316 -2.766927 -4.764208 -3.765567 -3.765567 
C -4.764208 -2.766927 -5.325316 -1.41229 -5.325316 0 
C -5.325316 1.41229 -4.764208 2.766927 -3.765567 3.765567 
C -2.766927 4.764208 -1.41229 5.325316 0 5.325316 
z
" style="stroke: #ffffff; stroke-width: 0.481866"/>
     </defs>
     <g>
      <use xlink:href="#mc5a42b0edb" x="553.659375" y="182.197812" style="fill: #333333; stroke: #ffffff; stroke-width: 0.481866"/>
     </g>
    </g>
    <g id="text_33">
     <!-- 0.045 -->
     <g transform="translate(571.659375 185.697812) scale(0.1 -0.1)">
      <use xlink:href="#DejaVuSans-30"/>
      <use xlink:href="#DejaVuSans-2e" transform="translate(63.623047 0)"/>
      <use xlink:href="#DejaVuSans-30" transform="translate(95.410156 0)"/>
      <use xlink:href="#DejaVuSans-34" transform="translate(159.033203 0)"/>
      <use xlink:href="#DejaVuSans-35" transform="translate(222.65625 0)"/>
     </g>
    </g>
    <g id="line2d_44">
     <defs>
      <path id="m0b098f783c" d="M 0 6.012098 
C 1.594427 6.012098 3.123765 5.378626 4.251196 4.251196 
C 5.378626 3.123765 6.012098 1.594427 6.012098 0 
C 6.012098 -1.594427 5.378626 -3.123765 4.251196 -4.251196 
C 3.123765 -5.378626 1.594427 -6.012098 0 -6.012098 
C -1.594427 -6.012098 -3.123765 -5.378626 -4.251196 -4.251196 
C -5.378626 -3.123765 -6.012098 -1.594427 -6.012098 0 
C -6.012098 1.594427 -5.378626 3.123765 -4.251196 4.251196 
C -3.123765 5.378626 -1.594427 6.012098 0 6.012098 
z
" style="stroke: #ffffff; stroke-width: 0.481866"/>
     </defs>
     <g>
      <use xlink:href="#m0b098f783c" x="553.659375" y="196.875937" style="fill: #333333; stroke: #ffffff; stroke-width: 0.481866"/>
     </g>
    </g>
    <g id="text_34">
     <!-- 0.060 -->
     <g transform="translate(571.659375 200.375937) scale(0.1 -0.1)">
      <use xlink:href="#DejaVuSans-30"/>
      <use xlink:href="#DejaVuSans-2e" transform="translate(63.623047 0)"/>
      <use xlink:href="#DejaVuSans-30" transform="translate(95.410156 0)"/>
      <use xlink:href="#DejaVuSans-36" transform="translate(159.033203 0)"/>
      <use xlink:href="#DejaVuSans-30" transform="translate(222.65625 0)"/>
     </g>
    </g>
   </g>
  </g>
 </g>
 <defs>
  <clipPath id="pf562537f2d">
   <rect x="367.259375" y="22.318125" width="167.4" height="221.76"/>
  </clipPath>
 </defs>
</svg>
