<?xml version="1.0" encoding="utf-8" standalone="no"?>
<!DOCTYPE svg PUBLIC "-//W3C//DTD SVG 1.1//EN"
  "http://www.w3.org/Graphics/SVG/1.1/DTD/svg11.dtd">
<svg xmlns:xlink="http://www.w3.org/1999/xlink" width="688.855937pt" height="325.986375pt" viewBox="0 0 688.855937 325.986375" xmlns="http://www.w3.org/2000/svg" version="1.1">
 <metadata>
  <rdf:RDF xmlns:dc="http://purl.org/dc/elements/1.1/" xmlns:cc="http://creativecommons.org/ns#" xmlns:rdf="http://www.w3.org/1999/02/22-rdf-syntax-ns#">
   <cc:Work>
    <dc:type rdf:resource="http://purl.org/dc/dcmitype/StillImage"/>
    <dc:date>2025-12-27T20:03:59.029779</dc:date>
    <dc:format>image/svg+xml</dc:format>
    <dc:creator>
     <cc:Agent>
      <dc:title>Matplotlib v3.10.7, https://matplotlib.org/</dc:title>
     </cc:Agent>
    </dc:creator>
   </cc:Work>
  </rdf:RDF>
 </metadata>
 <defs>
  <style type="text/css">*{stroke-linejoin: round; stroke-linecap: butt}</style>
 </defs>
 <g id="figure_1">
  <g id="patch_1">
   <path d="M -0 325.986375 
L 688.855937 325.986375 
L 688.855937 0 
L -0 0 
z
" style="fill: #ffffff"/>
  </g>
  <g id="axes_1">
   <g id="patch_2">
    <path d="M 228.296875 288.430125 
L 585.416875 288.430125 
L 585.416875 22.318125 
L 228.296875 22.318125 
z
" style="fill: #ffffff"/>
   </g>
   <g id="PathCollection_1">
    <path d="M 569.184148 36.650193 
C 569.77716 36.650193 570.345964 36.414587 570.765287 35.995264 
C 571.184609 35.575941 571.420216 35.007137 571.420216 34.414125 
C 571.420216 33.821113 571.184609 33.252309 570.765287 32.832986 
C 570.345964 32.413663 569.77716 32.178057 569.184148 32.178057 
C 568.591136 32.178057 568.022332 32.413663 567.603009 32.832986 
C 567.183686 33.252309 566.94808 33.821113 566.94808 34.414125 
C 566.94808 35.007137 567.183686 35.575941 567.603009 35.995264 
C 568.022332 36.414587 568.591136 36.650193 569.184148 36.650193 
z
" clip-path="url(#p7c396ffbed)" style="fill: #3b4cc0; stroke: #ffffff; stroke-width: 0.442837"/>
    <path d="M 557.617141 49.531218 
C 558.249508 49.531218 558.856059 49.279976 559.30321 48.832825 
C 559.75036 48.385674 560.001602 47.779123 560.001602 47.146757 
C 560.001602 46.51439 559.75036 45.907839 559.30321 45.460688 
C 558.856059 45.013537 558.249508 44.762296 557.617141 44.762296 
C 556.984775 44.762296 556.378223 45.013537 555.931073 45.460688 
C 555.483922 45.907839 555.23268 46.51439 555.23268 47.146757 
C 555.23268 47.779123 555.483922 48.385674 555.931073 48.832825 
C 556.378223 49.279976 556.984775 49.531218 557.617141 49.531218 
z
" clip-path="url(#p7c396ffbed)" style="fill: #779af7; stroke: #ffffff; stroke-width: 0.442837"/>
    <path d="M 362.676362 62.686477 
C 363.42081 62.686477 364.134868 62.390704 364.661273 61.8643 
C 365.187678 61.337895 365.48345 60.623837 365.48345 59.879388 
C 365.48345 59.13494 365.187678 58.420881 364.661273 57.894477 
C 364.134868 57.368072 363.42081 57.072299 362.676362 57.072299 
C 361.931913 57.072299 361.217855 57.368072 360.69145 57.894477 
C 360.165046 58.420881 359.869273 59.13494 359.869273 59.879388 
C 359.869273 60.623837 360.165046 61.337895 360.69145 61.8643 
C 361.217855 62.390704 361.931913 62.686477 362.676362 62.686477 
z
" clip-path="url(#p7c396ffbed)" style="fill: #6282ea; stroke: #ffffff; stroke-width: 0.442837"/>
    <path d="M 347.024182 75.913023 
C 347.899619 75.913023 348.739317 75.565209 349.358344 74.946182 
C 349.977371 74.327155 350.325186 73.487456 350.325186 72.61202 
C 350.325186 71.736583 349.977371 70.896885 349.358344 70.277858 
C 348.739317 69.658831 347.899619 69.311016 347.024182 69.311016 
C 346.148746 69.311016 345.309047 69.658831 344.69002 70.277858 
C 344.070993 70.896885 343.723179 71.736583 343.723179 72.61202 
C 343.723179 73.487456 344.070993 74.327155 344.69002 74.946182 
C 345.309047 75.565209 346.148746 75.913023 347.024182 75.913023 
z
" clip-path="url(#p7c396ffbed)" style="fill: #cfdaea; stroke: #ffffff; stroke-width: 0.442837"/>
    <path d="M 340.569675 88.787984 
C 341.482858 88.787984 342.358762 88.425173 343.004479 87.779455 
C 343.650197 87.133738 344.013008 86.257834 344.013008 85.344651 
C 344.013008 84.431469 343.650197 83.555565 343.004479 82.909847 
C 342.358762 82.26413 341.482858 81.901319 340.569675 81.901319 
C 339.656493 81.901319 338.780589 82.26413 338.134871 82.909847 
C 337.489154 83.555565 337.126343 84.431469 337.126343 85.344651 
C 337.126343 86.257834 337.489154 87.133738 338.134871 87.779455 
C 338.780589 88.425173 339.656493 88.787984 340.569675 88.787984 
z
" clip-path="url(#p7c396ffbed)" style="fill: #e4d9d2; stroke: #ffffff; stroke-width: 0.442837"/>
    <path d="M 316.180182 101.315374 
C 317.038933 101.315374 317.862629 100.974188 318.469858 100.366959 
C 319.077087 99.75973 319.418273 98.936035 319.418273 98.077283 
C 319.418273 97.218531 319.077087 96.394836 318.469858 95.787607 
C 317.862629 95.180378 317.038933 94.839192 316.180182 94.839192 
C 315.32143 94.839192 314.497735 95.180378 313.890506 95.787607 
C 313.283277 96.394836 312.942091 97.218531 312.942091 98.077283 
C 312.942091 98.936035 313.283277 99.75973 313.890506 100.366959 
C 314.497735 100.974188 315.32143 101.315374 316.180182 101.315374 
z
" clip-path="url(#p7c396ffbed)" style="fill: #7597f6; stroke: #ffffff; stroke-width: 0.442837"/>
    <path d="M 312.589388 113.896226 
C 313.407887 113.896226 314.192973 113.571032 314.771739 112.992266 
C 315.350506 112.4135 315.675699 111.628414 315.675699 110.809914 
C 315.675699 109.991415 315.350506 109.206329 314.771739 108.627563 
C 314.192973 108.048797 313.407887 107.723603 312.589388 107.723603 
C 311.770888 107.723603 310.985803 108.048797 310.407036 108.627563 
C 309.82827 109.206329 309.503077 109.991415 309.503077 110.809914 
C 309.503077 111.628414 309.82827 112.4135 310.407036 112.992266 
C 310.985803 113.571032 311.770888 113.896226 312.589388 113.896226 
z
" clip-path="url(#p7c396ffbed)" style="fill: #4e68d8; stroke: #ffffff; stroke-width: 0.442837"/>
    <path d="M 306.581284 127.487045 
C 307.627377 127.487045 308.630766 127.071428 309.370466 126.331728 
C 310.110166 125.592028 310.525783 124.588639 310.525783 123.542546 
C 310.525783 122.496453 310.110166 121.493064 309.370466 120.753364 
C 308.630766 120.013664 307.627377 119.598047 306.581284 119.598047 
C 305.535191 119.598047 304.531802 120.013664 303.792102 120.753364 
C 303.052402 121.493064 302.636785 122.496453 302.636785 123.542546 
C 302.636785 124.588639 303.052402 125.592028 303.792102 126.331728 
C 304.531802 127.071428 305.535191 127.487045 306.581284 127.487045 
z
" clip-path="url(#p7c396ffbed)" style="fill: #efcebd; stroke: #ffffff; stroke-width: 0.442837"/>
    <path d="M 300.634436 139.758108 
C 301.55812 139.758108 302.444097 139.391124 303.09724 138.737981 
C 303.750383 138.084838 304.117366 137.198861 304.117366 136.275178 
C 304.117366 135.351494 303.750383 134.465517 303.09724 133.812374 
C 302.444097 133.159231 301.55812 132.792248 300.634436 132.792248 
C 299.710752 132.792248 298.824776 133.159231 298.171633 133.812374 
C 297.51849 134.465517 297.151506 135.351494 297.151506 136.275178 
C 297.151506 137.198861 297.51849 138.084838 298.171633 138.737981 
C 298.824776 139.391124 299.710752 139.758108 300.634436 139.758108 
z
" clip-path="url(#p7c396ffbed)" style="fill: #82a6fb; stroke: #ffffff; stroke-width: 0.442837"/>
    <path d="M 300.119993 152.267006 
C 300.984342 152.267006 301.813406 151.923596 302.424593 151.312409 
C 303.03578 150.701222 303.379189 149.872158 303.379189 149.007809 
C 303.379189 148.14346 303.03578 147.314396 302.424593 146.703209 
C 301.813406 146.092022 300.984342 145.748613 300.119993 145.748613 
C 299.255644 145.748613 298.42658 146.092022 297.815393 146.703209 
C 297.204205 147.314396 296.860796 148.14346 296.860796 149.007809 
C 296.860796 149.872158 297.204205 150.701222 297.815393 151.312409 
C 298.42658 151.923596 299.255644 152.267006 300.119993 152.267006 
z
" clip-path="url(#p7c396ffbed)" style="fill: #536edd; stroke: #ffffff; stroke-width: 0.442837"/>
    <path d="M 289.886129 164.978532 
C 290.744881 164.978532 291.568576 164.637346 292.175805 164.030117 
C 292.783035 163.422888 293.12422 162.599193 293.12422 161.740441 
C 293.12422 160.881689 292.783035 160.057994 292.175805 159.450765 
C 291.568576 158.843536 290.744881 158.50235 289.886129 158.50235 
C 289.027378 158.50235 288.203683 158.843536 287.596453 159.450765 
C 286.989224 160.057994 286.648039 160.881689 286.648039 161.740441 
C 286.648039 162.599193 286.989224 163.422888 287.596453 164.030117 
C 288.203683 164.637346 289.027378 164.978532 289.886129 164.978532 
z
" clip-path="url(#p7c396ffbed)" style="fill: #3c4ec2; stroke: #ffffff; stroke-width: 0.442837"/>
    <path d="M 287.098696 178.072181 
C 288.05319 178.072181 288.96872 177.692957 289.64365 177.018027 
C 290.31858 176.343097 290.697805 175.427567 290.697805 174.473072 
C 290.697805 173.518577 290.31858 172.603048 289.64365 171.928118 
C 288.96872 171.253188 288.05319 170.873963 287.098696 170.873963 
C 286.144201 170.873963 285.228671 171.253188 284.553741 171.928118 
C 283.878811 172.603048 283.499586 173.518577 283.499586 174.473072 
C 283.499586 175.427567 283.878811 176.343097 284.553741 177.018027 
C 285.228671 177.692957 286.144201 178.072181 287.098696 178.072181 
z
" clip-path="url(#p7c396ffbed)" style="fill: #6c8ff1; stroke: #ffffff; stroke-width: 0.442837"/>
    <path d="M 284.780176 191.080049 
C 285.807664 191.080049 286.793207 190.671823 287.519751 189.94528 
C 288.246295 189.218736 288.654521 188.233192 288.654521 187.205704 
C 288.654521 186.178216 288.246295 185.192672 287.519751 184.466128 
C 286.793207 183.739584 285.807664 183.331359 284.780176 183.331359 
C 283.752687 183.331359 282.767144 183.739584 282.0406 184.466128 
C 281.314056 185.192672 280.905831 186.178216 280.905831 187.205704 
C 280.905831 188.233192 281.314056 189.218736 282.0406 189.94528 
C 282.767144 190.671823 283.752687 191.080049 284.780176 191.080049 
z
" clip-path="url(#p7c396ffbed)" style="fill: #98b9ff; stroke: #ffffff; stroke-width: 0.442837"/>
    <path d="M 281.924402 203.361698 
C 282.832288 203.361698 283.703112 203.000991 284.345084 202.359018 
C 284.987057 201.717046 285.347764 200.846222 285.347764 199.938336 
C 285.347764 199.030449 284.987057 198.159625 284.345084 197.517653 
C 283.703112 196.87568 282.832288 196.514973 281.924402 196.514973 
C 281.016515 196.514973 280.145692 196.87568 279.503719 197.517653 
C 278.861747 198.159625 278.501039 199.030449 278.501039 199.938336 
C 278.501039 200.846222 278.861747 201.717046 279.503719 202.359018 
C 280.145692 203.000991 281.016515 203.361698 281.924402 203.361698 
z
" clip-path="url(#p7c396ffbed)" style="fill: #4257c9; stroke: #ffffff; stroke-width: 0.442837"/>
    <path d="M 270.239906 216.752158 
C 271.322251 216.752158 272.360411 216.322138 273.125744 215.556805 
C 273.891077 214.791472 274.321097 213.753312 274.321097 212.670967 
C 274.321097 211.588623 273.891077 210.550463 273.125744 209.785129 
C 272.360411 209.019796 271.322251 208.589776 270.239906 208.589776 
C 269.157562 208.589776 268.119402 209.019796 267.354068 209.785129 
C 266.588735 210.550463 266.158715 211.588623 266.158715 212.670967 
C 266.158715 213.753312 266.588735 214.791472 267.354068 215.556805 
C 268.119402 216.322138 269.157562 216.752158 270.239906 216.752158 
z
" clip-path="url(#p7c396ffbed)" style="fill: #81a4fb; stroke: #ffffff; stroke-width: 0.442837"/>
    <path d="M 267.053383 229.348098 
C 268.099477 229.348098 269.102866 228.93248 269.842565 228.192781 
C 270.582265 227.453081 270.997882 226.449692 270.997882 225.403599 
C 270.997882 224.357505 270.582265 223.354116 269.842565 222.614417 
C 269.102866 221.874717 268.099477 221.4591 267.053383 221.4591 
C 266.00729 221.4591 265.003901 221.874717 264.264202 222.614417 
C 263.524502 223.354116 263.108885 224.357505 263.108885 225.403599 
C 263.108885 226.449692 263.524502 227.453081 264.264202 228.192781 
C 265.003901 228.93248 266.00729 229.348098 267.053383 229.348098 
z
" clip-path="url(#p7c396ffbed)" style="fill: #5e7de7; stroke: #ffffff; stroke-width: 0.442837"/>
    <path d="M 261.473929 243.961571 
C 263.018828 243.961571 264.500659 243.347777 265.593068 242.255368 
C 266.685476 241.16296 267.299271 239.681129 267.299271 238.13623 
C 267.299271 236.591332 266.685476 235.1095 265.593068 234.017092 
C 264.500659 232.924684 263.018828 232.310889 261.473929 232.310889 
C 259.929031 232.310889 258.4472 232.924684 257.354791 234.017092 
C 256.262383 235.1095 255.648588 236.591332 255.648588 238.13623 
C 255.648588 239.681129 256.262383 241.16296 257.354791 242.255368 
C 258.4472 243.347777 259.929031 243.961571 261.473929 243.961571 
z
" clip-path="url(#p7c396ffbed)" style="fill: #b40426; stroke: #ffffff; stroke-width: 0.442837"/>
    <path d="M 258.242968 256.527021 
C 259.74353 256.527021 261.182834 255.930842 262.243891 254.869785 
C 263.304948 253.808728 263.901128 252.369423 263.901128 250.868862 
C 263.901128 249.3683 263.304948 247.928996 262.243891 246.867939 
C 261.182834 245.806882 259.74353 245.210702 258.242968 245.210702 
C 256.742407 245.210702 255.303102 245.806882 254.242045 246.867939 
C 253.180988 247.928996 252.584809 249.3683 252.584809 250.868862 
C 252.584809 252.369423 253.180988 253.808728 254.242045 254.869785 
C 255.303102 255.930842 256.742407 256.527021 258.242968 256.527021 
z
" clip-path="url(#p7c396ffbed)" style="fill: #e97a5f; stroke: #ffffff; stroke-width: 0.442837"/>
    <path d="M 247.252001 269.725218 
C 248.876032 269.725218 250.433765 269.079984 251.582128 267.93162 
C 252.730492 266.783257 253.375726 265.225524 253.375726 263.601493 
C 253.375726 261.977463 252.730492 260.41973 251.582128 259.271366 
C 250.433765 258.123003 248.876032 257.477769 247.252001 257.477769 
C 245.627971 257.477769 244.070238 258.123003 242.921874 259.271366 
C 241.773511 260.41973 241.128277 261.977463 241.128277 263.601493 
C 241.128277 265.225524 241.773511 266.783257 242.921874 267.93162 
C 244.070238 269.079984 245.627971 269.725218 247.252001 269.725218 
z
" clip-path="url(#p7c396ffbed)" style="fill: #f59d7e; stroke: #ffffff; stroke-width: 0.442837"/>
    <path d="M 244.529602 282.321982 
C 246.1176 282.321982 247.640772 281.691064 248.763656 280.568179 
C 249.886541 279.445295 250.517459 277.922123 250.517459 276.334125 
C 250.517459 274.746127 249.886541 273.222955 248.763656 272.100071 
C 247.640772 270.977186 246.1176 270.346268 244.529602 270.346268 
C 242.941604 270.346268 241.418432 270.977186 240.295548 272.100071 
C 239.172664 273.222955 238.541745 274.746127 238.541745 276.334125 
C 238.541745 277.922123 239.172664 279.445295 240.295548 280.568179 
C 241.418432 281.691064 242.941604 282.321982 244.529602 282.321982 
z
" clip-path="url(#p7c396ffbed)" style="fill: #efcebd; stroke: #ffffff; stroke-width: 0.442837"/>
   </g>
   <g id="matplotlib.axis_1">
    <g id="xtick_1">
     <g id="line2d_1">
      <defs>
       <path id="m3a149e5cca" d="M 0 0 
L 0 3.5 
" style="stroke: #000000; stroke-width: 0.8"/>
      </defs>
      <g>
       <use xlink:href="#m3a149e5cca" x="236.857037" y="288.430125" style="stroke: #000000; stroke-width: 0.8"/>
      </g>
     </g>
     <g id="text_1">
      <!-- 1.5 -->
      <g transform="translate(228.905474 303.028562) scale(0.1 -0.1)">
       <defs>
        <path id="DejaVuSans-31" d="M 794 531 
L 1825 531 
L 1825 4091 
L 703 3866 
L 703 4441 
L 1819 4666 
L 2450 4666 
L 2450 531 
L 3481 531 
L 3481 0 
L 794 0 
L 794 531 
z
" transform="scale(0.015625)"/>
        <path id="DejaVuSans-2e" d="M 684 794 
L 1344 794 
L 1344 0 
L 684 0 
L 684 794 
z
" transform="scale(0.015625)"/>
        <path id="DejaVuSans-35" d="M 691 4666 
L 3169 4666 
L 3169 4134 
L 1269 4134 
L 1269 2991 
Q 1406 3038 1543 3061 
Q 1681 3084 1819 3084 
Q 2600 3084 3056 2656 
Q 3513 2228 3513 1497 
Q 3513 744 3044 326 
Q 2575 -91 1722 -91 
Q 1428 -91 1123 -41 
Q 819 9 494 109 
L 494 744 
Q 775 591 1075 516 
Q 1375 441 1709 441 
Q 2250 441 2565 725 
Q 2881 1009 2881 1497 
Q 2881 1984 2565 2268 
Q 2250 2553 1709 2553 
Q 1456 2553 1204 2497 
Q 953 2441 691 2322 
L 691 4666 
z
" transform="scale(0.015625)"/>
       </defs>
       <use xlink:href="#DejaVuSans-31"/>
       <use xlink:href="#DejaVuSans-2e" transform="translate(63.623047 0)"/>
       <use xlink:href="#DejaVuSans-35" transform="translate(95.410156 0)"/>
      </g>
     </g>
    </g>
    <g id="xtick_2">
     <g id="line2d_2">
      <g>
       <use xlink:href="#m3a149e5cca" x="283.612945" y="288.430125" style="stroke: #000000; stroke-width: 0.8"/>
      </g>
     </g>
     <g id="text_2">
      <!-- 2.0 -->
      <g transform="translate(275.661382 303.028562) scale(0.1 -0.1)">
       <defs>
        <path id="DejaVuSans-32" d="M 1228 531 
L 3431 531 
L 3431 0 
L 469 0 
L 469 531 
Q 828 903 1448 1529 
Q 2069 2156 2228 2338 
Q 2531 2678 2651 2914 
Q 2772 3150 2772 3378 
Q 2772 3750 2511 3984 
Q 2250 4219 1831 4219 
Q 1534 4219 1204 4116 
Q 875 4013 500 3803 
L 500 4441 
Q 881 4594 1212 4672 
Q 1544 4750 1819 4750 
Q 2544 4750 2975 4387 
Q 3406 4025 3406 3419 
Q 3406 3131 3298 2873 
Q 3191 2616 2906 2266 
Q 2828 2175 2409 1742 
Q 1991 1309 1228 531 
z
" transform="scale(0.015625)"/>
        <path id="DejaVuSans-30" d="M 2034 4250 
Q 1547 4250 1301 3770 
Q 1056 3291 1056 2328 
Q 1056 1369 1301 889 
Q 1547 409 2034 409 
Q 2525 409 2770 889 
Q 3016 1369 3016 2328 
Q 3016 3291 2770 3770 
Q 2525 4250 2034 4250 
z
M 2034 4750 
Q 2819 4750 3233 4129 
Q 3647 3509 3647 2328 
Q 3647 1150 3233 529 
Q 2819 -91 2034 -91 
Q 1250 -91 836 529 
Q 422 1150 422 2328 
Q 422 3509 836 4129 
Q 1250 4750 2034 4750 
z
" transform="scale(0.015625)"/>
       </defs>
       <use xlink:href="#DejaVuSans-32"/>
       <use xlink:href="#DejaVuSans-2e" transform="translate(63.623047 0)"/>
       <use xlink:href="#DejaVuSans-30" transform="translate(95.410156 0)"/>
      </g>
     </g>
    </g>
    <g id="xtick_3">
     <g id="line2d_3">
      <g>
       <use xlink:href="#m3a149e5cca" x="330.368853" y="288.430125" style="stroke: #000000; stroke-width: 0.8"/>
      </g>
     </g>
     <g id="text_3">
      <!-- 2.5 -->
      <g transform="translate(322.41729 303.028562) scale(0.1 -0.1)">
       <use xlink:href="#DejaVuSans-32"/>
       <use xlink:href="#DejaVuSans-2e" transform="translate(63.623047 0)"/>
       <use xlink:href="#DejaVuSans-35" transform="translate(95.410156 0)"/>
      </g>
     </g>
    </g>
    <g id="xtick_4">
     <g id="line2d_4">
      <g>
       <use xlink:href="#m3a149e5cca" x="377.124761" y="288.430125" style="stroke: #000000; stroke-width: 0.8"/>
      </g>
     </g>
     <g id="text_4">
      <!-- 3.0 -->
      <g transform="translate(369.173199 303.028562) scale(0.1 -0.1)">
       <defs>
        <path id="DejaVuSans-33" d="M 2597 2516 
Q 3050 2419 3304 2112 
Q 3559 1806 3559 1356 
Q 3559 666 3084 287 
Q 2609 -91 1734 -91 
Q 1441 -91 1130 -33 
Q 819 25 488 141 
L 488 750 
Q 750 597 1062 519 
Q 1375 441 1716 441 
Q 2309 441 2620 675 
Q 2931 909 2931 1356 
Q 2931 1769 2642 2001 
Q 2353 2234 1838 2234 
L 1294 2234 
L 1294 2753 
L 1863 2753 
Q 2328 2753 2575 2939 
Q 2822 3125 2822 3475 
Q 2822 3834 2567 4026 
Q 2313 4219 1838 4219 
Q 1578 4219 1281 4162 
Q 984 4106 628 3988 
L 628 4550 
Q 988 4650 1302 4700 
Q 1616 4750 1894 4750 
Q 2613 4750 3031 4423 
Q 3450 4097 3450 3541 
Q 3450 3153 3228 2886 
Q 3006 2619 2597 2516 
z
" transform="scale(0.015625)"/>
       </defs>
       <use xlink:href="#DejaVuSans-33"/>
       <use xlink:href="#DejaVuSans-2e" transform="translate(63.623047 0)"/>
       <use xlink:href="#DejaVuSans-30" transform="translate(95.410156 0)"/>
      </g>
     </g>
    </g>
    <g id="xtick_5">
     <g id="line2d_5">
      <g>
       <use xlink:href="#m3a149e5cca" x="423.880669" y="288.430125" style="stroke: #000000; stroke-width: 0.8"/>
      </g>
     </g>
     <g id="text_5">
      <!-- 3.5 -->
      <g transform="translate(415.929107 303.028562) scale(0.1 -0.1)">
       <use xlink:href="#DejaVuSans-33"/>
       <use xlink:href="#DejaVuSans-2e" transform="translate(63.623047 0)"/>
       <use xlink:href="#DejaVuSans-35" transform="translate(95.410156 0)"/>
      </g>
     </g>
    </g>
    <g id="xtick_6">
     <g id="line2d_6">
      <g>
       <use xlink:href="#m3a149e5cca" x="470.636577" y="288.430125" style="stroke: #000000; stroke-width: 0.8"/>
      </g>
     </g>
     <g id="text_6">
      <!-- 4.0 -->
      <g transform="translate(462.685015 303.028562) scale(0.1 -0.1)">
       <defs>
        <path id="DejaVuSans-34" d="M 2419 4116 
L 825 1625 
L 2419 1625 
L 2419 4116 
z
M 2253 4666 
L 3047 4666 
L 3047 1625 
L 3713 1625 
L 3713 1100 
L 3047 1100 
L 3047 0 
L 2419 0 
L 2419 1100 
L 313 1100 
L 313 1709 
L 2253 4666 
z
" transform="scale(0.015625)"/>
       </defs>
       <use xlink:href="#DejaVuSans-34"/>
       <use xlink:href="#DejaVuSans-2e" transform="translate(63.623047 0)"/>
       <use xlink:href="#DejaVuSans-30" transform="translate(95.410156 0)"/>
      </g>
     </g>
    </g>
    <g id="xtick_7">
     <g id="line2d_7">
      <g>
       <use xlink:href="#m3a149e5cca" x="517.392486" y="288.430125" style="stroke: #000000; stroke-width: 0.8"/>
      </g>
     </g>
     <g id="text_7">
      <!-- 4.5 -->
      <g transform="translate(509.440923 303.028562) scale(0.1 -0.1)">
       <use xlink:href="#DejaVuSans-34"/>
       <use xlink:href="#DejaVuSans-2e" transform="translate(63.623047 0)"/>
       <use xlink:href="#DejaVuSans-35" transform="translate(95.410156 0)"/>
      </g>
     </g>
    </g>
    <g id="xtick_8">
     <g id="line2d_8">
      <g>
       <use xlink:href="#m3a149e5cca" x="564.148394" y="288.430125" style="stroke: #000000; stroke-width: 0.8"/>
      </g>
     </g>
     <g id="text_8">
      <!-- 5.0 -->
      <g transform="translate(556.196831 303.028562) scale(0.1 -0.1)">
       <use xlink:href="#DejaVuSans-35"/>
       <use xlink:href="#DejaVuSans-2e" transform="translate(63.623047 0)"/>
       <use xlink:href="#DejaVuSans-30" transform="translate(95.410156 0)"/>
      </g>
     </g>
    </g>
    <g id="text_9">
     <!-- Fold Enrichment -->
     <g transform="translate(366.184219 316.706687) scale(0.1 -0.1)">
      <defs>
       <path id="DejaVuSans-46" d="M 628 4666 
L 3309 4666 
L 3309 4134 
L 1259 4134 
L 1259 2759 
L 3109 2759 
L 3109 2228 
L 1259 2228 
L 1259 0 
L 628 0 
L 628 4666 
z
" transform="scale(0.015625)"/>
       <path id="DejaVuSans-6f" d="M 1959 3097 
Q 1497 3097 1228 2736 
Q 959 2375 959 1747 
Q 959 1119 1226 758 
Q 1494 397 1959 397 
Q 2419 397 2687 759 
Q 2956 1122 2956 1747 
Q 2956 2369 2687 2733 
Q 2419 3097 1959 3097 
z
M 1959 3584 
Q 2709 3584 3137 3096 
Q 3566 2609 3566 1747 
Q 3566 888 3137 398 
Q 2709 -91 1959 -91 
Q 1206 -91 779 398 
Q 353 888 353 1747 
Q 353 2609 779 3096 
Q 1206 3584 1959 3584 
z
" transform="scale(0.015625)"/>
       <path id="DejaVuSans-6c" d="M 603 4863 
L 1178 4863 
L 1178 0 
L 603 0 
L 603 4863 
z
" transform="scale(0.015625)"/>
       <path id="DejaVuSans-64" d="M 2906 2969 
L 2906 4863 
L 3481 4863 
L 3481 0 
L 2906 0 
L 2906 525 
Q 2725 213 2448 61 
Q 2172 -91 1784 -91 
Q 1150 -91 751 415 
Q 353 922 353 1747 
Q 353 2572 751 3078 
Q 1150 3584 1784 3584 
Q 2172 3584 2448 3432 
Q 2725 3281 2906 2969 
z
M 947 1747 
Q 947 1113 1208 752 
Q 1469 391 1925 391 
Q 2381 391 2643 752 
Q 2906 1113 2906 1747 
Q 2906 2381 2643 2742 
Q 2381 3103 1925 3103 
Q 1469 3103 1208 2742 
Q 947 2381 947 1747 
z
" transform="scale(0.015625)"/>
       <path id="DejaVuSans-20" transform="scale(0.015625)"/>
       <path id="DejaVuSans-45" d="M 628 4666 
L 3578 4666 
L 3578 4134 
L 1259 4134 
L 1259 2753 
L 3481 2753 
L 3481 2222 
L 1259 2222 
L 1259 531 
L 3634 531 
L 3634 0 
L 628 0 
L 628 4666 
z
" transform="scale(0.015625)"/>
       <path id="DejaVuSans-6e" d="M 3513 2113 
L 3513 0 
L 2938 0 
L 2938 2094 
Q 2938 2591 2744 2837 
Q 2550 3084 2163 3084 
Q 1697 3084 1428 2787 
Q 1159 2491 1159 1978 
L 1159 0 
L 581 0 
L 581 3500 
L 1159 3500 
L 1159 2956 
Q 1366 3272 1645 3428 
Q 1925 3584 2291 3584 
Q 2894 3584 3203 3211 
Q 3513 2838 3513 2113 
z
" transform="scale(0.015625)"/>
       <path id="DejaVuSans-72" d="M 2631 2963 
Q 2534 3019 2420 3045 
Q 2306 3072 2169 3072 
Q 1681 3072 1420 2755 
Q 1159 2438 1159 1844 
L 1159 0 
L 581 0 
L 581 3500 
L 1159 3500 
L 1159 2956 
Q 1341 3275 1631 3429 
Q 1922 3584 2338 3584 
Q 2397 3584 2469 3576 
Q 2541 3569 2628 3553 
L 2631 2963 
z
" transform="scale(0.015625)"/>
       <path id="DejaVuSans-69" d="M 603 3500 
L 1178 3500 
L 1178 0 
L 603 0 
L 603 3500 
z
M 603 4863 
L 1178 4863 
L 1178 4134 
L 603 4134 
L 603 4863 
z
" transform="scale(0.015625)"/>
       <path id="DejaVuSans-63" d="M 3122 3366 
L 3122 2828 
Q 2878 2963 2633 3030 
Q 2388 3097 2138 3097 
Q 1578 3097 1268 2742 
Q 959 2388 959 1747 
Q 959 1106 1268 751 
Q 1578 397 2138 397 
Q 2388 397 2633 464 
Q 2878 531 3122 666 
L 3122 134 
Q 2881 22 2623 -34 
Q 2366 -91 2075 -91 
Q 1284 -91 818 406 
Q 353 903 353 1747 
Q 353 2603 823 3093 
Q 1294 3584 2113 3584 
Q 2378 3584 2631 3529 
Q 2884 3475 3122 3366 
z
" transform="scale(0.015625)"/>
       <path id="DejaVuSans-68" d="M 3513 2113 
L 3513 0 
L 2938 0 
L 2938 2094 
Q 2938 2591 2744 2837 
Q 2550 3084 2163 3084 
Q 1697 3084 1428 2787 
Q 1159 2491 1159 1978 
L 1159 0 
L 581 0 
L 581 4863 
L 1159 4863 
L 1159 2956 
Q 1366 3272 1645 3428 
Q 1925 3584 2291 3584 
Q 2894 3584 3203 3211 
Q 3513 2838 3513 2113 
z
" transform="scale(0.015625)"/>
       <path id="DejaVuSans-6d" d="M 3328 2828 
Q 3544 3216 3844 3400 
Q 4144 3584 4550 3584 
Q 5097 3584 5394 3201 
Q 5691 2819 5691 2113 
L 5691 0 
L 5113 0 
L 5113 2094 
Q 5113 2597 4934 2840 
Q 4756 3084 4391 3084 
Q 3944 3084 3684 2787 
Q 3425 2491 3425 1978 
L 3425 0 
L 2847 0 
L 2847 2094 
Q 2847 2600 2669 2842 
Q 2491 3084 2119 3084 
Q 1678 3084 1418 2786 
Q 1159 2488 1159 1978 
L 1159 0 
L 581 0 
L 581 3500 
L 1159 3500 
L 1159 2956 
Q 1356 3278 1631 3431 
Q 1906 3584 2284 3584 
Q 2666 3584 2933 3390 
Q 3200 3197 3328 2828 
z
" transform="scale(0.015625)"/>
       <path id="DejaVuSans-65" d="M 3597 1894 
L 3597 1613 
L 953 1613 
Q 991 1019 1311 708 
Q 1631 397 2203 397 
Q 2534 397 2845 478 
Q 3156 559 3463 722 
L 3463 178 
Q 3153 47 2828 -22 
Q 2503 -91 2169 -91 
Q 1331 -91 842 396 
Q 353 884 353 1716 
Q 353 2575 817 3079 
Q 1281 3584 2069 3584 
Q 2775 3584 3186 3129 
Q 3597 2675 3597 1894 
z
M 3022 2063 
Q 3016 2534 2758 2815 
Q 2500 3097 2075 3097 
Q 1594 3097 1305 2825 
Q 1016 2553 972 2059 
L 3022 2063 
z
" transform="scale(0.015625)"/>
       <path id="DejaVuSans-74" d="M 1172 4494 
L 1172 3500 
L 2356 3500 
L 2356 3053 
L 1172 3053 
L 1172 1153 
Q 1172 725 1289 603 
Q 1406 481 1766 481 
L 2356 481 
L 2356 0 
L 1766 0 
Q 1100 0 847 248 
Q 594 497 594 1153 
L 594 3053 
L 172 3053 
L 172 3500 
L 594 3500 
L 594 4494 
L 1172 4494 
z
" transform="scale(0.015625)"/>
      </defs>
      <use xlink:href="#DejaVuSans-46"/>
      <use xlink:href="#DejaVuSans-6f" transform="translate(53.894531 0)"/>
      <use xlink:href="#DejaVuSans-6c" transform="translate(115.076172 0)"/>
      <use xlink:href="#DejaVuSans-64" transform="translate(142.859375 0)"/>
      <use xlink:href="#DejaVuSans-20" transform="translate(206.335938 0)"/>
      <use xlink:href="#DejaVuSans-45" transform="translate(238.123047 0)"/>
      <use xlink:href="#DejaVuSans-6e" transform="translate(301.306641 0)"/>
      <use xlink:href="#DejaVuSans-72" transform="translate(364.685547 0)"/>
      <use xlink:href="#DejaVuSans-69" transform="translate(405.798828 0)"/>
      <use xlink:href="#DejaVuSans-63" transform="translate(433.582031 0)"/>
      <use xlink:href="#DejaVuSans-68" transform="translate(488.5625 0)"/>
      <use xlink:href="#DejaVuSans-6d" transform="translate(551.941406 0)"/>
      <use xlink:href="#DejaVuSans-65" transform="translate(649.353516 0)"/>
      <use xlink:href="#DejaVuSans-6e" transform="translate(710.876953 0)"/>
      <use xlink:href="#DejaVuSans-74" transform="translate(774.255859 0)"/>
     </g>
    </g>
   </g>
   <g id="matplotlib.axis_2">
    <g id="ytick_1">
     <g id="line2d_9">
      <defs>
       <path id="me8868844ff" d="M 0 0 
L -3.5 0 
" style="stroke: #000000; stroke-width: 0.8"/>
      </defs>
      <g>
       <use xlink:href="#me8868844ff" x="228.296875" y="34.414125" style="stroke: #000000; stroke-width: 0.8"/>
      </g>
     </g>
     <g id="text_10">
      <!-- RNA polymerase II complex binding -->
      <g transform="translate(43.096875 38.213344) scale(0.1 -0.1)">
       <defs>
        <path id="DejaVuSans-52" d="M 2841 2188 
Q 3044 2119 3236 1894 
Q 3428 1669 3622 1275 
L 4263 0 
L 3584 0 
L 2988 1197 
Q 2756 1666 2539 1819 
Q 2322 1972 1947 1972 
L 1259 1972 
L 1259 0 
L 628 0 
L 628 4666 
L 2053 4666 
Q 2853 4666 3247 4331 
Q 3641 3997 3641 3322 
Q 3641 2881 3436 2590 
Q 3231 2300 2841 2188 
z
M 1259 4147 
L 1259 2491 
L 2053 2491 
Q 2509 2491 2742 2702 
Q 2975 2913 2975 3322 
Q 2975 3731 2742 3939 
Q 2509 4147 2053 4147 
L 1259 4147 
z
" transform="scale(0.015625)"/>
        <path id="DejaVuSans-4e" d="M 628 4666 
L 1478 4666 
L 3547 763 
L 3547 4666 
L 4159 4666 
L 4159 0 
L 3309 0 
L 1241 3903 
L 1241 0 
L 628 0 
L 628 4666 
z
" transform="scale(0.015625)"/>
        <path id="DejaVuSans-41" d="M 2188 4044 
L 1331 1722 
L 3047 1722 
L 2188 4044 
z
M 1831 4666 
L 2547 4666 
L 4325 0 
L 3669 0 
L 3244 1197 
L 1141 1197 
L 716 0 
L 50 0 
L 1831 4666 
z
" transform="scale(0.015625)"/>
        <path id="DejaVuSans-70" d="M 1159 525 
L 1159 -1331 
L 581 -1331 
L 581 3500 
L 1159 3500 
L 1159 2969 
Q 1341 3281 1617 3432 
Q 1894 3584 2278 3584 
Q 2916 3584 3314 3078 
Q 3713 2572 3713 1747 
Q 3713 922 3314 415 
Q 2916 -91 2278 -91 
Q 1894 -91 1617 61 
Q 1341 213 1159 525 
z
M 3116 1747 
Q 3116 2381 2855 2742 
Q 2594 3103 2138 3103 
Q 1681 3103 1420 2742 
Q 1159 2381 1159 1747 
Q 1159 1113 1420 752 
Q 1681 391 2138 391 
Q 2594 391 2855 752 
Q 3116 1113 3116 1747 
z
" transform="scale(0.015625)"/>
        <path id="DejaVuSans-79" d="M 2059 -325 
Q 1816 -950 1584 -1140 
Q 1353 -1331 966 -1331 
L 506 -1331 
L 506 -850 
L 844 -850 
Q 1081 -850 1212 -737 
Q 1344 -625 1503 -206 
L 1606 56 
L 191 3500 
L 800 3500 
L 1894 763 
L 2988 3500 
L 3597 3500 
L 2059 -325 
z
" transform="scale(0.015625)"/>
        <path id="DejaVuSans-61" d="M 2194 1759 
Q 1497 1759 1228 1600 
Q 959 1441 959 1056 
Q 959 750 1161 570 
Q 1363 391 1709 391 
Q 2188 391 2477 730 
Q 2766 1069 2766 1631 
L 2766 1759 
L 2194 1759 
z
M 3341 1997 
L 3341 0 
L 2766 0 
L 2766 531 
Q 2569 213 2275 61 
Q 1981 -91 1556 -91 
Q 1019 -91 701 211 
Q 384 513 384 1019 
Q 384 1609 779 1909 
Q 1175 2209 1959 2209 
L 2766 2209 
L 2766 2266 
Q 2766 2663 2505 2880 
Q 2244 3097 1772 3097 
Q 1472 3097 1187 3025 
Q 903 2953 641 2809 
L 641 3341 
Q 956 3463 1253 3523 
Q 1550 3584 1831 3584 
Q 2591 3584 2966 3190 
Q 3341 2797 3341 1997 
z
" transform="scale(0.015625)"/>
        <path id="DejaVuSans-73" d="M 2834 3397 
L 2834 2853 
Q 2591 2978 2328 3040 
Q 2066 3103 1784 3103 
Q 1356 3103 1142 2972 
Q 928 2841 928 2578 
Q 928 2378 1081 2264 
Q 1234 2150 1697 2047 
L 1894 2003 
Q 2506 1872 2764 1633 
Q 3022 1394 3022 966 
Q 3022 478 2636 193 
Q 2250 -91 1575 -91 
Q 1294 -91 989 -36 
Q 684 19 347 128 
L 347 722 
Q 666 556 975 473 
Q 1284 391 1588 391 
Q 1994 391 2212 530 
Q 2431 669 2431 922 
Q 2431 1156 2273 1281 
Q 2116 1406 1581 1522 
L 1381 1569 
Q 847 1681 609 1914 
Q 372 2147 372 2553 
Q 372 3047 722 3315 
Q 1072 3584 1716 3584 
Q 2034 3584 2315 3537 
Q 2597 3491 2834 3397 
z
" transform="scale(0.015625)"/>
        <path id="DejaVuSans-49" d="M 628 4666 
L 1259 4666 
L 1259 0 
L 628 0 
L 628 4666 
z
" transform="scale(0.015625)"/>
        <path id="DejaVuSans-78" d="M 3513 3500 
L 2247 1797 
L 3578 0 
L 2900 0 
L 1881 1375 
L 863 0 
L 184 0 
L 1544 1831 
L 300 3500 
L 978 3500 
L 1906 2253 
L 2834 3500 
L 3513 3500 
z
" transform="scale(0.015625)"/>
        <path id="DejaVuSans-62" d="M 3116 1747 
Q 3116 2381 2855 2742 
Q 2594 3103 2138 3103 
Q 1681 3103 1420 2742 
Q 1159 2381 1159 1747 
Q 1159 1113 1420 752 
Q 1681 391 2138 391 
Q 2594 391 2855 752 
Q 3116 1113 3116 1747 
z
M 1159 2969 
Q 1341 3281 1617 3432 
Q 1894 3584 2278 3584 
Q 2916 3584 3314 3078 
Q 3713 2572 3713 1747 
Q 3713 922 3314 415 
Q 2916 -91 2278 -91 
Q 1894 -91 1617 61 
Q 1341 213 1159 525 
L 1159 0 
L 581 0 
L 581 4863 
L 1159 4863 
L 1159 2969 
z
" transform="scale(0.015625)"/>
        <path id="DejaVuSans-67" d="M 2906 1791 
Q 2906 2416 2648 2759 
Q 2391 3103 1925 3103 
Q 1463 3103 1205 2759 
Q 947 2416 947 1791 
Q 947 1169 1205 825 
Q 1463 481 1925 481 
Q 2391 481 2648 825 
Q 2906 1169 2906 1791 
z
M 3481 434 
Q 3481 -459 3084 -895 
Q 2688 -1331 1869 -1331 
Q 1566 -1331 1297 -1286 
Q 1028 -1241 775 -1147 
L 775 -588 
Q 1028 -725 1275 -790 
Q 1522 -856 1778 -856 
Q 2344 -856 2625 -561 
Q 2906 -266 2906 331 
L 2906 616 
Q 2728 306 2450 153 
Q 2172 0 1784 0 
Q 1141 0 747 490 
Q 353 981 353 1791 
Q 353 2603 747 3093 
Q 1141 3584 1784 3584 
Q 2172 3584 2450 3431 
Q 2728 3278 2906 2969 
L 2906 3500 
L 3481 3500 
L 3481 434 
z
" transform="scale(0.015625)"/>
       </defs>
       <use xlink:href="#DejaVuSans-52"/>
       <use xlink:href="#DejaVuSans-4e" transform="translate(69.482422 0)"/>
       <use xlink:href="#DejaVuSans-41" transform="translate(144.287109 0)"/>
       <use xlink:href="#DejaVuSans-20" transform="translate(212.695312 0)"/>
       <use xlink:href="#DejaVuSans-70" transform="translate(244.482422 0)"/>
       <use xlink:href="#DejaVuSans-6f" transform="translate(307.958984 0)"/>
       <use xlink:href="#DejaVuSans-6c" transform="translate(369.140625 0)"/>
       <use xlink:href="#DejaVuSans-79" transform="translate(396.923828 0)"/>
       <use xlink:href="#DejaVuSans-6d" transform="translate(456.103516 0)"/>
       <use xlink:href="#DejaVuSans-65" transform="translate(553.515625 0)"/>
       <use xlink:href="#DejaVuSans-72" transform="translate(615.039062 0)"/>
       <use xlink:href="#DejaVuSans-61" transform="translate(656.152344 0)"/>
       <use xlink:href="#DejaVuSans-73" transform="translate(717.431641 0)"/>
       <use xlink:href="#DejaVuSans-65" transform="translate(769.53125 0)"/>
       <use xlink:href="#DejaVuSans-20" transform="translate(831.054688 0)"/>
       <use xlink:href="#DejaVuSans-49" transform="translate(862.841797 0)"/>
       <use xlink:href="#DejaVuSans-49" transform="translate(892.333984 0)"/>
       <use xlink:href="#DejaVuSans-20" transform="translate(921.826172 0)"/>
       <use xlink:href="#DejaVuSans-63" transform="translate(953.613281 0)"/>
       <use xlink:href="#DejaVuSans-6f" transform="translate(1008.59375 0)"/>
       <use xlink:href="#DejaVuSans-6d" transform="translate(1069.775391 0)"/>
       <use xlink:href="#DejaVuSans-70" transform="translate(1167.1875 0)"/>
       <use xlink:href="#DejaVuSans-6c" transform="translate(1230.664062 0)"/>
       <use xlink:href="#DejaVuSans-65" transform="translate(1258.447266 0)"/>
       <use xlink:href="#DejaVuSans-78" transform="translate(1318.220703 0)"/>
       <use xlink:href="#DejaVuSans-20" transform="translate(1377.400391 0)"/>
       <use xlink:href="#DejaVuSans-62" transform="translate(1409.1875 0)"/>
       <use xlink:href="#DejaVuSans-69" transform="translate(1472.664062 0)"/>
       <use xlink:href="#DejaVuSans-6e" transform="translate(1500.447266 0)"/>
       <use xlink:href="#DejaVuSans-64" transform="translate(1563.826172 0)"/>
       <use xlink:href="#DejaVuSans-69" transform="translate(1627.302734 0)"/>
       <use xlink:href="#DejaVuSans-6e" transform="translate(1655.085938 0)"/>
       <use xlink:href="#DejaVuSans-67" transform="translate(1718.464844 0)"/>
      </g>
     </g>
    </g>
    <g id="ytick_2">
     <g id="line2d_10">
      <g>
       <use xlink:href="#me8868844ff" x="228.296875" y="47.146757" style="stroke: #000000; stroke-width: 0.8"/>
      </g>
     </g>
     <g id="text_11">
      <!-- tau protein binding -->
      <g transform="translate(125.735937 50.945975) scale(0.1 -0.1)">
       <defs>
        <path id="DejaVuSans-75" d="M 544 1381 
L 544 3500 
L 1119 3500 
L 1119 1403 
Q 1119 906 1312 657 
Q 1506 409 1894 409 
Q 2359 409 2629 706 
Q 2900 1003 2900 1516 
L 2900 3500 
L 3475 3500 
L 3475 0 
L 2900 0 
L 2900 538 
Q 2691 219 2414 64 
Q 2138 -91 1772 -91 
Q 1169 -91 856 284 
Q 544 659 544 1381 
z
M 1991 3584 
L 1991 3584 
z
" transform="scale(0.015625)"/>
       </defs>
       <use xlink:href="#DejaVuSans-74"/>
       <use xlink:href="#DejaVuSans-61" transform="translate(39.208984 0)"/>
       <use xlink:href="#DejaVuSans-75" transform="translate(100.488281 0)"/>
       <use xlink:href="#DejaVuSans-20" transform="translate(163.867188 0)"/>
       <use xlink:href="#DejaVuSans-70" transform="translate(195.654297 0)"/>
       <use xlink:href="#DejaVuSans-72" transform="translate(259.130859 0)"/>
       <use xlink:href="#DejaVuSans-6f" transform="translate(297.994141 0)"/>
       <use xlink:href="#DejaVuSans-74" transform="translate(359.175781 0)"/>
       <use xlink:href="#DejaVuSans-65" transform="translate(398.384766 0)"/>
       <use xlink:href="#DejaVuSans-69" transform="translate(459.908203 0)"/>
       <use xlink:href="#DejaVuSans-6e" transform="translate(487.691406 0)"/>
       <use xlink:href="#DejaVuSans-20" transform="translate(551.070312 0)"/>
       <use xlink:href="#DejaVuSans-62" transform="translate(582.857422 0)"/>
       <use xlink:href="#DejaVuSans-69" transform="translate(646.333984 0)"/>
       <use xlink:href="#DejaVuSans-6e" transform="translate(674.117188 0)"/>
       <use xlink:href="#DejaVuSans-64" transform="translate(737.496094 0)"/>
       <use xlink:href="#DejaVuSans-69" transform="translate(800.972656 0)"/>
       <use xlink:href="#DejaVuSans-6e" transform="translate(828.755859 0)"/>
       <use xlink:href="#DejaVuSans-67" transform="translate(892.134766 0)"/>
      </g>
     </g>
    </g>
    <g id="ytick_3">
     <g id="line2d_11">
      <g>
       <use xlink:href="#me8868844ff" x="228.296875" y="59.879388" style="stroke: #000000; stroke-width: 0.8"/>
      </g>
     </g>
     <g id="text_12">
      <!-- transcription coregulator activity -->
      <g transform="translate(57.084375 63.678607) scale(0.1 -0.1)">
       <defs>
        <path id="DejaVuSans-76" d="M 191 3500 
L 800 3500 
L 1894 563 
L 2988 3500 
L 3597 3500 
L 2284 0 
L 1503 0 
L 191 3500 
z
" transform="scale(0.015625)"/>
       </defs>
       <use xlink:href="#DejaVuSans-74"/>
       <use xlink:href="#DejaVuSans-72" transform="translate(39.208984 0)"/>
       <use xlink:href="#DejaVuSans-61" transform="translate(80.322266 0)"/>
       <use xlink:href="#DejaVuSans-6e" transform="translate(141.601562 0)"/>
       <use xlink:href="#DejaVuSans-73" transform="translate(204.980469 0)"/>
       <use xlink:href="#DejaVuSans-63" transform="translate(257.080078 0)"/>
       <use xlink:href="#DejaVuSans-72" transform="translate(312.060547 0)"/>
       <use xlink:href="#DejaVuSans-69" transform="translate(353.173828 0)"/>
       <use xlink:href="#DejaVuSans-70" transform="translate(380.957031 0)"/>
       <use xlink:href="#DejaVuSans-74" transform="translate(444.433594 0)"/>
       <use xlink:href="#DejaVuSans-69" transform="translate(483.642578 0)"/>
       <use xlink:href="#DejaVuSans-6f" transform="translate(511.425781 0)"/>
       <use xlink:href="#DejaVuSans-6e" transform="translate(572.607422 0)"/>
       <use xlink:href="#DejaVuSans-20" transform="translate(635.986328 0)"/>
       <use xlink:href="#DejaVuSans-63" transform="translate(667.773438 0)"/>
       <use xlink:href="#DejaVuSans-6f" transform="translate(722.753906 0)"/>
       <use xlink:href="#DejaVuSans-72" transform="translate(783.935547 0)"/>
       <use xlink:href="#DejaVuSans-65" transform="translate(822.798828 0)"/>
       <use xlink:href="#DejaVuSans-67" transform="translate(884.322266 0)"/>
       <use xlink:href="#DejaVuSans-75" transform="translate(947.798828 0)"/>
       <use xlink:href="#DejaVuSans-6c" transform="translate(1011.177734 0)"/>
       <use xlink:href="#DejaVuSans-61" transform="translate(1038.960938 0)"/>
       <use xlink:href="#DejaVuSans-74" transform="translate(1100.240234 0)"/>
       <use xlink:href="#DejaVuSans-6f" transform="translate(1139.449219 0)"/>
       <use xlink:href="#DejaVuSans-72" transform="translate(1200.630859 0)"/>
       <use xlink:href="#DejaVuSans-20" transform="translate(1241.744141 0)"/>
       <use xlink:href="#DejaVuSans-61" transform="translate(1273.53125 0)"/>
       <use xlink:href="#DejaVuSans-63" transform="translate(1334.810547 0)"/>
       <use xlink:href="#DejaVuSans-74" transform="translate(1389.791016 0)"/>
       <use xlink:href="#DejaVuSans-69" transform="translate(1429 0)"/>
       <use xlink:href="#DejaVuSans-76" transform="translate(1456.783203 0)"/>
       <use xlink:href="#DejaVuSans-69" transform="translate(1515.962891 0)"/>
       <use xlink:href="#DejaVuSans-74" transform="translate(1543.746094 0)"/>
       <use xlink:href="#DejaVuSans-79" transform="translate(1582.955078 0)"/>
      </g>
     </g>
    </g>
    <g id="ytick_4">
     <g id="line2d_12">
      <g>
       <use xlink:href="#me8868844ff" x="228.296875" y="72.61202" style="stroke: #000000; stroke-width: 0.8"/>
      </g>
     </g>
     <g id="text_13">
      <!-- ubiquitin-protein transferase activity -->
      <g transform="translate(37.984375 76.411238) scale(0.1 -0.1)">
       <defs>
        <path id="DejaVuSans-71" d="M 947 1747 
Q 947 1113 1208 752 
Q 1469 391 1925 391 
Q 2381 391 2643 752 
Q 2906 1113 2906 1747 
Q 2906 2381 2643 2742 
Q 2381 3103 1925 3103 
Q 1469 3103 1208 2742 
Q 947 2381 947 1747 
z
M 2906 525 
Q 2725 213 2448 61 
Q 2172 -91 1784 -91 
Q 1150 -91 751 415 
Q 353 922 353 1747 
Q 353 2572 751 3078 
Q 1150 3584 1784 3584 
Q 2172 3584 2448 3432 
Q 2725 3281 2906 2969 
L 2906 3500 
L 3481 3500 
L 3481 -1331 
L 2906 -1331 
L 2906 525 
z
" transform="scale(0.015625)"/>
        <path id="DejaVuSans-2d" d="M 313 2009 
L 1997 2009 
L 1997 1497 
L 313 1497 
L 313 2009 
z
" transform="scale(0.015625)"/>
        <path id="DejaVuSans-66" d="M 2375 4863 
L 2375 4384 
L 1825 4384 
Q 1516 4384 1395 4259 
Q 1275 4134 1275 3809 
L 1275 3500 
L 2222 3500 
L 2222 3053 
L 1275 3053 
L 1275 0 
L 697 0 
L 697 3053 
L 147 3053 
L 147 3500 
L 697 3500 
L 697 3744 
Q 697 4328 969 4595 
Q 1241 4863 1831 4863 
L 2375 4863 
z
" transform="scale(0.015625)"/>
       </defs>
       <use xlink:href="#DejaVuSans-75"/>
       <use xlink:href="#DejaVuSans-62" transform="translate(63.378906 0)"/>
       <use xlink:href="#DejaVuSans-69" transform="translate(126.855469 0)"/>
       <use xlink:href="#DejaVuSans-71" transform="translate(154.638672 0)"/>
       <use xlink:href="#DejaVuSans-75" transform="translate(218.115234 0)"/>
       <use xlink:href="#DejaVuSans-69" transform="translate(281.494141 0)"/>
       <use xlink:href="#DejaVuSans-74" transform="translate(309.277344 0)"/>
       <use xlink:href="#DejaVuSans-69" transform="translate(348.486328 0)"/>
       <use xlink:href="#DejaVuSans-6e" transform="translate(376.269531 0)"/>
       <use xlink:href="#DejaVuSans-2d" transform="translate(439.648438 0)"/>
       <use xlink:href="#DejaVuSans-70" transform="translate(475.732422 0)"/>
       <use xlink:href="#DejaVuSans-72" transform="translate(539.208984 0)"/>
       <use xlink:href="#DejaVuSans-6f" transform="translate(578.072266 0)"/>
       <use xlink:href="#DejaVuSans-74" transform="translate(639.253906 0)"/>
       <use xlink:href="#DejaVuSans-65" transform="translate(678.462891 0)"/>
       <use xlink:href="#DejaVuSans-69" transform="translate(739.986328 0)"/>
       <use xlink:href="#DejaVuSans-6e" transform="translate(767.769531 0)"/>
       <use xlink:href="#DejaVuSans-20" transform="translate(831.148438 0)"/>
       <use xlink:href="#DejaVuSans-74" transform="translate(862.935547 0)"/>
       <use xlink:href="#DejaVuSans-72" transform="translate(902.144531 0)"/>
       <use xlink:href="#DejaVuSans-61" transform="translate(943.257812 0)"/>
       <use xlink:href="#DejaVuSans-6e" transform="translate(1004.537109 0)"/>
       <use xlink:href="#DejaVuSans-73" transform="translate(1067.916016 0)"/>
       <use xlink:href="#DejaVuSans-66" transform="translate(1120.015625 0)"/>
       <use xlink:href="#DejaVuSans-65" transform="translate(1155.220703 0)"/>
       <use xlink:href="#DejaVuSans-72" transform="translate(1216.744141 0)"/>
       <use xlink:href="#DejaVuSans-61" transform="translate(1257.857422 0)"/>
       <use xlink:href="#DejaVuSans-73" transform="translate(1319.136719 0)"/>
       <use xlink:href="#DejaVuSans-65" transform="translate(1371.236328 0)"/>
       <use xlink:href="#DejaVuSans-20" transform="translate(1432.759766 0)"/>
       <use xlink:href="#DejaVuSans-61" transform="translate(1464.546875 0)"/>
       <use xlink:href="#DejaVuSans-63" transform="translate(1525.826172 0)"/>
       <use xlink:href="#DejaVuSans-74" transform="translate(1580.806641 0)"/>
       <use xlink:href="#DejaVuSans-69" transform="translate(1620.015625 0)"/>
       <use xlink:href="#DejaVuSans-76" transform="translate(1647.798828 0)"/>
       <use xlink:href="#DejaVuSans-69" transform="translate(1706.978516 0)"/>
       <use xlink:href="#DejaVuSans-74" transform="translate(1734.761719 0)"/>
       <use xlink:href="#DejaVuSans-79" transform="translate(1773.970703 0)"/>
      </g>
     </g>
    </g>
    <g id="ytick_5">
     <g id="line2d_13">
      <g>
       <use xlink:href="#me8868844ff" x="228.296875" y="85.344651" style="stroke: #000000; stroke-width: 0.8"/>
      </g>
     </g>
     <g id="text_14">
      <!-- small GTPase binding -->
      <g transform="translate(114.465625 89.14387) scale(0.1 -0.1)">
       <defs>
        <path id="DejaVuSans-47" d="M 3809 666 
L 3809 1919 
L 2778 1919 
L 2778 2438 
L 4434 2438 
L 4434 434 
Q 4069 175 3628 42 
Q 3188 -91 2688 -91 
Q 1594 -91 976 548 
Q 359 1188 359 2328 
Q 359 3472 976 4111 
Q 1594 4750 2688 4750 
Q 3144 4750 3555 4637 
Q 3966 4525 4313 4306 
L 4313 3634 
Q 3963 3931 3569 4081 
Q 3175 4231 2741 4231 
Q 1884 4231 1454 3753 
Q 1025 3275 1025 2328 
Q 1025 1384 1454 906 
Q 1884 428 2741 428 
Q 3075 428 3337 486 
Q 3600 544 3809 666 
z
" transform="scale(0.015625)"/>
        <path id="DejaVuSans-54" d="M -19 4666 
L 3928 4666 
L 3928 4134 
L 2272 4134 
L 2272 0 
L 1638 0 
L 1638 4134 
L -19 4134 
L -19 4666 
z
" transform="scale(0.015625)"/>
        <path id="DejaVuSans-50" d="M 1259 4147 
L 1259 2394 
L 2053 2394 
Q 2494 2394 2734 2622 
Q 2975 2850 2975 3272 
Q 2975 3691 2734 3919 
Q 2494 4147 2053 4147 
L 1259 4147 
z
M 628 4666 
L 2053 4666 
Q 2838 4666 3239 4311 
Q 3641 3956 3641 3272 
Q 3641 2581 3239 2228 
Q 2838 1875 2053 1875 
L 1259 1875 
L 1259 0 
L 628 0 
L 628 4666 
z
" transform="scale(0.015625)"/>
       </defs>
       <use xlink:href="#DejaVuSans-73"/>
       <use xlink:href="#DejaVuSans-6d" transform="translate(52.099609 0)"/>
       <use xlink:href="#DejaVuSans-61" transform="translate(149.511719 0)"/>
       <use xlink:href="#DejaVuSans-6c" transform="translate(210.791016 0)"/>
       <use xlink:href="#DejaVuSans-6c" transform="translate(238.574219 0)"/>
       <use xlink:href="#DejaVuSans-20" transform="translate(266.357422 0)"/>
       <use xlink:href="#DejaVuSans-47" transform="translate(298.144531 0)"/>
       <use xlink:href="#DejaVuSans-54" transform="translate(372.009766 0)"/>
       <use xlink:href="#DejaVuSans-50" transform="translate(433.09375 0)"/>
       <use xlink:href="#DejaVuSans-61" transform="translate(488.896484 0)"/>
       <use xlink:href="#DejaVuSans-73" transform="translate(550.175781 0)"/>
       <use xlink:href="#DejaVuSans-65" transform="translate(602.275391 0)"/>
       <use xlink:href="#DejaVuSans-20" transform="translate(663.798828 0)"/>
       <use xlink:href="#DejaVuSans-62" transform="translate(695.585938 0)"/>
       <use xlink:href="#DejaVuSans-69" transform="translate(759.0625 0)"/>
       <use xlink:href="#DejaVuSans-6e" transform="translate(786.845703 0)"/>
       <use xlink:href="#DejaVuSans-64" transform="translate(850.224609 0)"/>
       <use xlink:href="#DejaVuSans-69" transform="translate(913.701172 0)"/>
       <use xlink:href="#DejaVuSans-6e" transform="translate(941.484375 0)"/>
       <use xlink:href="#DejaVuSans-67" transform="translate(1004.863281 0)"/>
      </g>
     </g>
    </g>
    <g id="ytick_6">
     <g id="line2d_14">
      <g>
       <use xlink:href="#me8868844ff" x="228.296875" y="98.077283" style="stroke: #000000; stroke-width: 0.8"/>
      </g>
     </g>
     <g id="text_15">
      <!-- GTPase activator activity -->
      <g transform="translate(96.99375 101.876502) scale(0.1 -0.1)">
       <use xlink:href="#DejaVuSans-47"/>
       <use xlink:href="#DejaVuSans-54" transform="translate(73.865234 0)"/>
       <use xlink:href="#DejaVuSans-50" transform="translate(134.949219 0)"/>
       <use xlink:href="#DejaVuSans-61" transform="translate(190.751953 0)"/>
       <use xlink:href="#DejaVuSans-73" transform="translate(252.03125 0)"/>
       <use xlink:href="#DejaVuSans-65" transform="translate(304.130859 0)"/>
       <use xlink:href="#DejaVuSans-20" transform="translate(365.654297 0)"/>
       <use xlink:href="#DejaVuSans-61" transform="translate(397.441406 0)"/>
       <use xlink:href="#DejaVuSans-63" transform="translate(458.720703 0)"/>
       <use xlink:href="#DejaVuSans-74" transform="translate(513.701172 0)"/>
       <use xlink:href="#DejaVuSans-69" transform="translate(552.910156 0)"/>
       <use xlink:href="#DejaVuSans-76" transform="translate(580.693359 0)"/>
       <use xlink:href="#DejaVuSans-61" transform="translate(639.873047 0)"/>
       <use xlink:href="#DejaVuSans-74" transform="translate(701.152344 0)"/>
       <use xlink:href="#DejaVuSans-6f" transform="translate(740.361328 0)"/>
       <use xlink:href="#DejaVuSans-72" transform="translate(801.542969 0)"/>
       <use xlink:href="#DejaVuSans-20" transform="translate(842.65625 0)"/>
       <use xlink:href="#DejaVuSans-61" transform="translate(874.443359 0)"/>
       <use xlink:href="#DejaVuSans-63" transform="translate(935.722656 0)"/>
       <use xlink:href="#DejaVuSans-74" transform="translate(990.703125 0)"/>
       <use xlink:href="#DejaVuSans-69" transform="translate(1029.912109 0)"/>
       <use xlink:href="#DejaVuSans-76" transform="translate(1057.695312 0)"/>
       <use xlink:href="#DejaVuSans-69" transform="translate(1116.875 0)"/>
       <use xlink:href="#DejaVuSans-74" transform="translate(1144.658203 0)"/>
       <use xlink:href="#DejaVuSans-79" transform="translate(1183.867188 0)"/>
      </g>
     </g>
    </g>
    <g id="ytick_7">
     <g id="line2d_15">
      <g>
       <use xlink:href="#me8868844ff" x="228.296875" y="110.809914" style="stroke: #000000; stroke-width: 0.8"/>
      </g>
     </g>
     <g id="text_16">
      <!-- guanyl-nucleotide exchange factor activity -->
      <g transform="translate(7.2 114.609133) scale(0.1 -0.1)">
       <use xlink:href="#DejaVuSans-67"/>
       <use xlink:href="#DejaVuSans-75" transform="translate(63.476562 0)"/>
       <use xlink:href="#DejaVuSans-61" transform="translate(126.855469 0)"/>
       <use xlink:href="#DejaVuSans-6e" transform="translate(188.134766 0)"/>
       <use xlink:href="#DejaVuSans-79" transform="translate(251.513672 0)"/>
       <use xlink:href="#DejaVuSans-6c" transform="translate(310.693359 0)"/>
       <use xlink:href="#DejaVuSans-2d" transform="translate(338.476562 0)"/>
       <use xlink:href="#DejaVuSans-6e" transform="translate(374.560547 0)"/>
       <use xlink:href="#DejaVuSans-75" transform="translate(437.939453 0)"/>
       <use xlink:href="#DejaVuSans-63" transform="translate(501.318359 0)"/>
       <use xlink:href="#DejaVuSans-6c" transform="translate(556.298828 0)"/>
       <use xlink:href="#DejaVuSans-65" transform="translate(584.082031 0)"/>
       <use xlink:href="#DejaVuSans-6f" transform="translate(645.605469 0)"/>
       <use xlink:href="#DejaVuSans-74" transform="translate(706.787109 0)"/>
       <use xlink:href="#DejaVuSans-69" transform="translate(745.996094 0)"/>
       <use xlink:href="#DejaVuSans-64" transform="translate(773.779297 0)"/>
       <use xlink:href="#DejaVuSans-65" transform="translate(837.255859 0)"/>
       <use xlink:href="#DejaVuSans-20" transform="translate(898.779297 0)"/>
       <use xlink:href="#DejaVuSans-65" transform="translate(930.566406 0)"/>
       <use xlink:href="#DejaVuSans-78" transform="translate(990.339844 0)"/>
       <use xlink:href="#DejaVuSans-63" transform="translate(1047.769531 0)"/>
       <use xlink:href="#DejaVuSans-68" transform="translate(1102.75 0)"/>
       <use xlink:href="#DejaVuSans-61" transform="translate(1166.128906 0)"/>
       <use xlink:href="#DejaVuSans-6e" transform="translate(1227.408203 0)"/>
       <use xlink:href="#DejaVuSans-67" transform="translate(1290.787109 0)"/>
       <use xlink:href="#DejaVuSans-65" transform="translate(1354.263672 0)"/>
       <use xlink:href="#DejaVuSans-20" transform="translate(1415.787109 0)"/>
       <use xlink:href="#DejaVuSans-66" transform="translate(1447.574219 0)"/>
       <use xlink:href="#DejaVuSans-61" transform="translate(1482.779297 0)"/>
       <use xlink:href="#DejaVuSans-63" transform="translate(1544.058594 0)"/>
       <use xlink:href="#DejaVuSans-74" transform="translate(1599.039062 0)"/>
       <use xlink:href="#DejaVuSans-6f" transform="translate(1638.248047 0)"/>
       <use xlink:href="#DejaVuSans-72" transform="translate(1699.429688 0)"/>
       <use xlink:href="#DejaVuSans-20" transform="translate(1740.542969 0)"/>
       <use xlink:href="#DejaVuSans-61" transform="translate(1772.330078 0)"/>
       <use xlink:href="#DejaVuSans-63" transform="translate(1833.609375 0)"/>
       <use xlink:href="#DejaVuSans-74" transform="translate(1888.589844 0)"/>
       <use xlink:href="#DejaVuSans-69" transform="translate(1927.798828 0)"/>
       <use xlink:href="#DejaVuSans-76" transform="translate(1955.582031 0)"/>
       <use xlink:href="#DejaVuSans-69" transform="translate(2014.761719 0)"/>
       <use xlink:href="#DejaVuSans-74" transform="translate(2042.544922 0)"/>
       <use xlink:href="#DejaVuSans-79" transform="translate(2081.753906 0)"/>
      </g>
     </g>
    </g>
    <g id="ytick_8">
     <g id="line2d_16">
      <g>
       <use xlink:href="#me8868844ff" x="228.296875" y="123.542546" style="stroke: #000000; stroke-width: 0.8"/>
      </g>
     </g>
     <g id="text_17">
      <!-- chromatin binding -->
      <g transform="translate(130.096875 127.341765) scale(0.1 -0.1)">
       <use xlink:href="#DejaVuSans-63"/>
       <use xlink:href="#DejaVuSans-68" transform="translate(54.980469 0)"/>
       <use xlink:href="#DejaVuSans-72" transform="translate(118.359375 0)"/>
       <use xlink:href="#DejaVuSans-6f" transform="translate(157.222656 0)"/>
       <use xlink:href="#DejaVuSans-6d" transform="translate(218.404297 0)"/>
       <use xlink:href="#DejaVuSans-61" transform="translate(315.816406 0)"/>
       <use xlink:href="#DejaVuSans-74" transform="translate(377.095703 0)"/>
       <use xlink:href="#DejaVuSans-69" transform="translate(416.304688 0)"/>
       <use xlink:href="#DejaVuSans-6e" transform="translate(444.087891 0)"/>
       <use xlink:href="#DejaVuSans-20" transform="translate(507.466797 0)"/>
       <use xlink:href="#DejaVuSans-62" transform="translate(539.253906 0)"/>
       <use xlink:href="#DejaVuSans-69" transform="translate(602.730469 0)"/>
       <use xlink:href="#DejaVuSans-6e" transform="translate(630.513672 0)"/>
       <use xlink:href="#DejaVuSans-64" transform="translate(693.892578 0)"/>
       <use xlink:href="#DejaVuSans-69" transform="translate(757.369141 0)"/>
       <use xlink:href="#DejaVuSans-6e" transform="translate(785.152344 0)"/>
       <use xlink:href="#DejaVuSans-67" transform="translate(848.53125 0)"/>
      </g>
     </g>
    </g>
    <g id="ytick_9">
     <g id="line2d_17">
      <g>
       <use xlink:href="#me8868844ff" x="228.296875" y="136.275178" style="stroke: #000000; stroke-width: 0.8"/>
      </g>
     </g>
     <g id="text_18">
      <!-- protein serine kinase activity -->
      <g transform="translate(76.220313 140.074396) scale(0.1 -0.1)">
       <defs>
        <path id="DejaVuSans-6b" d="M 581 4863 
L 1159 4863 
L 1159 1991 
L 2875 3500 
L 3609 3500 
L 1753 1863 
L 3688 0 
L 2938 0 
L 1159 1709 
L 1159 0 
L 581 0 
L 581 4863 
z
" transform="scale(0.015625)"/>
       </defs>
       <use xlink:href="#DejaVuSans-70"/>
       <use xlink:href="#DejaVuSans-72" transform="translate(63.476562 0)"/>
       <use xlink:href="#DejaVuSans-6f" transform="translate(102.339844 0)"/>
       <use xlink:href="#DejaVuSans-74" transform="translate(163.521484 0)"/>
       <use xlink:href="#DejaVuSans-65" transform="translate(202.730469 0)"/>
       <use xlink:href="#DejaVuSans-69" transform="translate(264.253906 0)"/>
       <use xlink:href="#DejaVuSans-6e" transform="translate(292.037109 0)"/>
       <use xlink:href="#DejaVuSans-20" transform="translate(355.416016 0)"/>
       <use xlink:href="#DejaVuSans-73" transform="translate(387.203125 0)"/>
       <use xlink:href="#DejaVuSans-65" transform="translate(439.302734 0)"/>
       <use xlink:href="#DejaVuSans-72" transform="translate(500.826172 0)"/>
       <use xlink:href="#DejaVuSans-69" transform="translate(541.939453 0)"/>
       <use xlink:href="#DejaVuSans-6e" transform="translate(569.722656 0)"/>
       <use xlink:href="#DejaVuSans-65" transform="translate(633.101562 0)"/>
       <use xlink:href="#DejaVuSans-20" transform="translate(694.625 0)"/>
       <use xlink:href="#DejaVuSans-6b" transform="translate(726.412109 0)"/>
       <use xlink:href="#DejaVuSans-69" transform="translate(784.322266 0)"/>
       <use xlink:href="#DejaVuSans-6e" transform="translate(812.105469 0)"/>
       <use xlink:href="#DejaVuSans-61" transform="translate(875.484375 0)"/>
       <use xlink:href="#DejaVuSans-73" transform="translate(936.763672 0)"/>
       <use xlink:href="#DejaVuSans-65" transform="translate(988.863281 0)"/>
       <use xlink:href="#DejaVuSans-20" transform="translate(1050.386719 0)"/>
       <use xlink:href="#DejaVuSans-61" transform="translate(1082.173828 0)"/>
       <use xlink:href="#DejaVuSans-63" transform="translate(1143.453125 0)"/>
       <use xlink:href="#DejaVuSans-74" transform="translate(1198.433594 0)"/>
       <use xlink:href="#DejaVuSans-69" transform="translate(1237.642578 0)"/>
       <use xlink:href="#DejaVuSans-76" transform="translate(1265.425781 0)"/>
       <use xlink:href="#DejaVuSans-69" transform="translate(1324.605469 0)"/>
       <use xlink:href="#DejaVuSans-74" transform="translate(1352.388672 0)"/>
       <use xlink:href="#DejaVuSans-79" transform="translate(1391.597656 0)"/>
      </g>
     </g>
    </g>
    <g id="ytick_10">
     <g id="line2d_18">
      <g>
       <use xlink:href="#me8868844ff" x="228.296875" y="149.007809" style="stroke: #000000; stroke-width: 0.8"/>
      </g>
     </g>
     <g id="text_19">
      <!-- transcription coactivator activity -->
      <g transform="translate(58.34375 152.807028) scale(0.1 -0.1)">
       <use xlink:href="#DejaVuSans-74"/>
       <use xlink:href="#DejaVuSans-72" transform="translate(39.208984 0)"/>
       <use xlink:href="#DejaVuSans-61" transform="translate(80.322266 0)"/>
       <use xlink:href="#DejaVuSans-6e" transform="translate(141.601562 0)"/>
       <use xlink:href="#DejaVuSans-73" transform="translate(204.980469 0)"/>
       <use xlink:href="#DejaVuSans-63" transform="translate(257.080078 0)"/>
       <use xlink:href="#DejaVuSans-72" transform="translate(312.060547 0)"/>
       <use xlink:href="#DejaVuSans-69" transform="translate(353.173828 0)"/>
       <use xlink:href="#DejaVuSans-70" transform="translate(380.957031 0)"/>
       <use xlink:href="#DejaVuSans-74" transform="translate(444.433594 0)"/>
       <use xlink:href="#DejaVuSans-69" transform="translate(483.642578 0)"/>
       <use xlink:href="#DejaVuSans-6f" transform="translate(511.425781 0)"/>
       <use xlink:href="#DejaVuSans-6e" transform="translate(572.607422 0)"/>
       <use xlink:href="#DejaVuSans-20" transform="translate(635.986328 0)"/>
       <use xlink:href="#DejaVuSans-63" transform="translate(667.773438 0)"/>
       <use xlink:href="#DejaVuSans-6f" transform="translate(722.753906 0)"/>
       <use xlink:href="#DejaVuSans-61" transform="translate(783.935547 0)"/>
       <use xlink:href="#DejaVuSans-63" transform="translate(845.214844 0)"/>
       <use xlink:href="#DejaVuSans-74" transform="translate(900.195312 0)"/>
       <use xlink:href="#DejaVuSans-69" transform="translate(939.404297 0)"/>
       <use xlink:href="#DejaVuSans-76" transform="translate(967.1875 0)"/>
       <use xlink:href="#DejaVuSans-61" transform="translate(1026.367188 0)"/>
       <use xlink:href="#DejaVuSans-74" transform="translate(1087.646484 0)"/>
       <use xlink:href="#DejaVuSans-6f" transform="translate(1126.855469 0)"/>
       <use xlink:href="#DejaVuSans-72" transform="translate(1188.037109 0)"/>
       <use xlink:href="#DejaVuSans-20" transform="translate(1229.150391 0)"/>
       <use xlink:href="#DejaVuSans-61" transform="translate(1260.9375 0)"/>
       <use xlink:href="#DejaVuSans-63" transform="translate(1322.216797 0)"/>
       <use xlink:href="#DejaVuSans-74" transform="translate(1377.197266 0)"/>
       <use xlink:href="#DejaVuSans-69" transform="translate(1416.40625 0)"/>
       <use xlink:href="#DejaVuSans-76" transform="translate(1444.189453 0)"/>
       <use xlink:href="#DejaVuSans-69" transform="translate(1503.369141 0)"/>
       <use xlink:href="#DejaVuSans-74" transform="translate(1531.152344 0)"/>
       <use xlink:href="#DejaVuSans-79" transform="translate(1570.361328 0)"/>
      </g>
     </g>
    </g>
    <g id="ytick_11">
     <g id="line2d_19">
      <g>
       <use xlink:href="#me8868844ff" x="228.296875" y="161.740441" style="stroke: #000000; stroke-width: 0.8"/>
      </g>
     </g>
     <g id="text_20">
      <!-- cadherin binding -->
      <g transform="translate(137.15 165.53966) scale(0.1 -0.1)">
       <use xlink:href="#DejaVuSans-63"/>
       <use xlink:href="#DejaVuSans-61" transform="translate(54.980469 0)"/>
       <use xlink:href="#DejaVuSans-64" transform="translate(116.259766 0)"/>
       <use xlink:href="#DejaVuSans-68" transform="translate(179.736328 0)"/>
       <use xlink:href="#DejaVuSans-65" transform="translate(243.115234 0)"/>
       <use xlink:href="#DejaVuSans-72" transform="translate(304.638672 0)"/>
       <use xlink:href="#DejaVuSans-69" transform="translate(345.751953 0)"/>
       <use xlink:href="#DejaVuSans-6e" transform="translate(373.535156 0)"/>
       <use xlink:href="#DejaVuSans-20" transform="translate(436.914062 0)"/>
       <use xlink:href="#DejaVuSans-62" transform="translate(468.701172 0)"/>
       <use xlink:href="#DejaVuSans-69" transform="translate(532.177734 0)"/>
       <use xlink:href="#DejaVuSans-6e" transform="translate(559.960938 0)"/>
       <use xlink:href="#DejaVuSans-64" transform="translate(623.339844 0)"/>
       <use xlink:href="#DejaVuSans-69" transform="translate(686.816406 0)"/>
       <use xlink:href="#DejaVuSans-6e" transform="translate(714.599609 0)"/>
       <use xlink:href="#DejaVuSans-67" transform="translate(777.978516 0)"/>
      </g>
     </g>
    </g>
    <g id="ytick_12">
     <g id="line2d_20">
      <g>
       <use xlink:href="#me8868844ff" x="228.296875" y="174.473072" style="stroke: #000000; stroke-width: 0.8"/>
      </g>
     </g>
     <g id="text_21">
      <!-- protein serine/threonine kinase activity -->
      <g transform="translate(24.829687 178.272291) scale(0.1 -0.1)">
       <defs>
        <path id="DejaVuSans-2f" d="M 1625 4666 
L 2156 4666 
L 531 -594 
L 0 -594 
L 1625 4666 
z
" transform="scale(0.015625)"/>
       </defs>
       <use xlink:href="#DejaVuSans-70"/>
       <use xlink:href="#DejaVuSans-72" transform="translate(63.476562 0)"/>
       <use xlink:href="#DejaVuSans-6f" transform="translate(102.339844 0)"/>
       <use xlink:href="#DejaVuSans-74" transform="translate(163.521484 0)"/>
       <use xlink:href="#DejaVuSans-65" transform="translate(202.730469 0)"/>
       <use xlink:href="#DejaVuSans-69" transform="translate(264.253906 0)"/>
       <use xlink:href="#DejaVuSans-6e" transform="translate(292.037109 0)"/>
       <use xlink:href="#DejaVuSans-20" transform="translate(355.416016 0)"/>
       <use xlink:href="#DejaVuSans-73" transform="translate(387.203125 0)"/>
       <use xlink:href="#DejaVuSans-65" transform="translate(439.302734 0)"/>
       <use xlink:href="#DejaVuSans-72" transform="translate(500.826172 0)"/>
       <use xlink:href="#DejaVuSans-69" transform="translate(541.939453 0)"/>
       <use xlink:href="#DejaVuSans-6e" transform="translate(569.722656 0)"/>
       <use xlink:href="#DejaVuSans-65" transform="translate(633.101562 0)"/>
       <use xlink:href="#DejaVuSans-2f" transform="translate(694.625 0)"/>
       <use xlink:href="#DejaVuSans-74" transform="translate(728.316406 0)"/>
       <use xlink:href="#DejaVuSans-68" transform="translate(767.525391 0)"/>
       <use xlink:href="#DejaVuSans-72" transform="translate(830.904297 0)"/>
       <use xlink:href="#DejaVuSans-65" transform="translate(869.767578 0)"/>
       <use xlink:href="#DejaVuSans-6f" transform="translate(931.291016 0)"/>
       <use xlink:href="#DejaVuSans-6e" transform="translate(992.472656 0)"/>
       <use xlink:href="#DejaVuSans-69" transform="translate(1055.851562 0)"/>
       <use xlink:href="#DejaVuSans-6e" transform="translate(1083.634766 0)"/>
       <use xlink:href="#DejaVuSans-65" transform="translate(1147.013672 0)"/>
       <use xlink:href="#DejaVuSans-20" transform="translate(1208.537109 0)"/>
       <use xlink:href="#DejaVuSans-6b" transform="translate(1240.324219 0)"/>
       <use xlink:href="#DejaVuSans-69" transform="translate(1298.234375 0)"/>
       <use xlink:href="#DejaVuSans-6e" transform="translate(1326.017578 0)"/>
       <use xlink:href="#DejaVuSans-61" transform="translate(1389.396484 0)"/>
       <use xlink:href="#DejaVuSans-73" transform="translate(1450.675781 0)"/>
       <use xlink:href="#DejaVuSans-65" transform="translate(1502.775391 0)"/>
       <use xlink:href="#DejaVuSans-20" transform="translate(1564.298828 0)"/>
       <use xlink:href="#DejaVuSans-61" transform="translate(1596.085938 0)"/>
       <use xlink:href="#DejaVuSans-63" transform="translate(1657.365234 0)"/>
       <use xlink:href="#DejaVuSans-74" transform="translate(1712.345703 0)"/>
       <use xlink:href="#DejaVuSans-69" transform="translate(1751.554688 0)"/>
       <use xlink:href="#DejaVuSans-76" transform="translate(1779.337891 0)"/>
       <use xlink:href="#DejaVuSans-69" transform="translate(1838.517578 0)"/>
       <use xlink:href="#DejaVuSans-74" transform="translate(1866.300781 0)"/>
       <use xlink:href="#DejaVuSans-79" transform="translate(1905.509766 0)"/>
      </g>
     </g>
    </g>
    <g id="ytick_13">
     <g id="line2d_21">
      <g>
       <use xlink:href="#me8868844ff" x="228.296875" y="187.205704" style="stroke: #000000; stroke-width: 0.8"/>
      </g>
     </g>
     <g id="text_22">
      <!-- protein kinase activity -->
      <g transform="translate(110.140625 191.004923) scale(0.1 -0.1)">
       <use xlink:href="#DejaVuSans-70"/>
       <use xlink:href="#DejaVuSans-72" transform="translate(63.476562 0)"/>
       <use xlink:href="#DejaVuSans-6f" transform="translate(102.339844 0)"/>
       <use xlink:href="#DejaVuSans-74" transform="translate(163.521484 0)"/>
       <use xlink:href="#DejaVuSans-65" transform="translate(202.730469 0)"/>
       <use xlink:href="#DejaVuSans-69" transform="translate(264.253906 0)"/>
       <use xlink:href="#DejaVuSans-6e" transform="translate(292.037109 0)"/>
       <use xlink:href="#DejaVuSans-20" transform="translate(355.416016 0)"/>
       <use xlink:href="#DejaVuSans-6b" transform="translate(387.203125 0)"/>
       <use xlink:href="#DejaVuSans-69" transform="translate(445.113281 0)"/>
       <use xlink:href="#DejaVuSans-6e" transform="translate(472.896484 0)"/>
       <use xlink:href="#DejaVuSans-61" transform="translate(536.275391 0)"/>
       <use xlink:href="#DejaVuSans-73" transform="translate(597.554688 0)"/>
       <use xlink:href="#DejaVuSans-65" transform="translate(649.654297 0)"/>
       <use xlink:href="#DejaVuSans-20" transform="translate(711.177734 0)"/>
       <use xlink:href="#DejaVuSans-61" transform="translate(742.964844 0)"/>
       <use xlink:href="#DejaVuSans-63" transform="translate(804.244141 0)"/>
       <use xlink:href="#DejaVuSans-74" transform="translate(859.224609 0)"/>
       <use xlink:href="#DejaVuSans-69" transform="translate(898.433594 0)"/>
       <use xlink:href="#DejaVuSans-76" transform="translate(926.216797 0)"/>
       <use xlink:href="#DejaVuSans-69" transform="translate(985.396484 0)"/>
       <use xlink:href="#DejaVuSans-74" transform="translate(1013.179688 0)"/>
       <use xlink:href="#DejaVuSans-79" transform="translate(1052.388672 0)"/>
      </g>
     </g>
    </g>
    <g id="ytick_14">
     <g id="line2d_22">
      <g>
       <use xlink:href="#me8868844ff" x="228.296875" y="199.938336" style="stroke: #000000; stroke-width: 0.8"/>
      </g>
     </g>
     <g id="text_23">
      <!-- ubiquitin protein ligase activity -->
      <g transform="translate(66 203.737554) scale(0.1 -0.1)">
       <use xlink:href="#DejaVuSans-75"/>
       <use xlink:href="#DejaVuSans-62" transform="translate(63.378906 0)"/>
       <use xlink:href="#DejaVuSans-69" transform="translate(126.855469 0)"/>
       <use xlink:href="#DejaVuSans-71" transform="translate(154.638672 0)"/>
       <use xlink:href="#DejaVuSans-75" transform="translate(218.115234 0)"/>
       <use xlink:href="#DejaVuSans-69" transform="translate(281.494141 0)"/>
       <use xlink:href="#DejaVuSans-74" transform="translate(309.277344 0)"/>
       <use xlink:href="#DejaVuSans-69" transform="translate(348.486328 0)"/>
       <use xlink:href="#DejaVuSans-6e" transform="translate(376.269531 0)"/>
       <use xlink:href="#DejaVuSans-20" transform="translate(439.648438 0)"/>
       <use xlink:href="#DejaVuSans-70" transform="translate(471.435547 0)"/>
       <use xlink:href="#DejaVuSans-72" transform="translate(534.912109 0)"/>
       <use xlink:href="#DejaVuSans-6f" transform="translate(573.775391 0)"/>
       <use xlink:href="#DejaVuSans-74" transform="translate(634.957031 0)"/>
       <use xlink:href="#DejaVuSans-65" transform="translate(674.166016 0)"/>
       <use xlink:href="#DejaVuSans-69" transform="translate(735.689453 0)"/>
       <use xlink:href="#DejaVuSans-6e" transform="translate(763.472656 0)"/>
       <use xlink:href="#DejaVuSans-20" transform="translate(826.851562 0)"/>
       <use xlink:href="#DejaVuSans-6c" transform="translate(858.638672 0)"/>
       <use xlink:href="#DejaVuSans-69" transform="translate(886.421875 0)"/>
       <use xlink:href="#DejaVuSans-67" transform="translate(914.205078 0)"/>
       <use xlink:href="#DejaVuSans-61" transform="translate(977.681641 0)"/>
       <use xlink:href="#DejaVuSans-73" transform="translate(1038.960938 0)"/>
       <use xlink:href="#DejaVuSans-65" transform="translate(1091.060547 0)"/>
       <use xlink:href="#DejaVuSans-20" transform="translate(1152.583984 0)"/>
       <use xlink:href="#DejaVuSans-61" transform="translate(1184.371094 0)"/>
       <use xlink:href="#DejaVuSans-63" transform="translate(1245.650391 0)"/>
       <use xlink:href="#DejaVuSans-74" transform="translate(1300.630859 0)"/>
       <use xlink:href="#DejaVuSans-69" transform="translate(1339.839844 0)"/>
       <use xlink:href="#DejaVuSans-76" transform="translate(1367.623047 0)"/>
       <use xlink:href="#DejaVuSans-69" transform="translate(1426.802734 0)"/>
       <use xlink:href="#DejaVuSans-74" transform="translate(1454.585938 0)"/>
       <use xlink:href="#DejaVuSans-79" transform="translate(1493.794922 0)"/>
      </g>
     </g>
    </g>
    <g id="ytick_15">
     <g id="line2d_23">
      <g>
       <use xlink:href="#me8868844ff" x="228.296875" y="212.670967" style="stroke: #000000; stroke-width: 0.8"/>
      </g>
     </g>
     <g id="text_24">
      <!-- kinase activity -->
      <g transform="translate(148.860937 216.470186) scale(0.1 -0.1)">
       <use xlink:href="#DejaVuSans-6b"/>
       <use xlink:href="#DejaVuSans-69" transform="translate(57.910156 0)"/>
       <use xlink:href="#DejaVuSans-6e" transform="translate(85.693359 0)"/>
       <use xlink:href="#DejaVuSans-61" transform="translate(149.072266 0)"/>
       <use xlink:href="#DejaVuSans-73" transform="translate(210.351562 0)"/>
       <use xlink:href="#DejaVuSans-65" transform="translate(262.451172 0)"/>
       <use xlink:href="#DejaVuSans-20" transform="translate(323.974609 0)"/>
       <use xlink:href="#DejaVuSans-61" transform="translate(355.761719 0)"/>
       <use xlink:href="#DejaVuSans-63" transform="translate(417.041016 0)"/>
       <use xlink:href="#DejaVuSans-74" transform="translate(472.021484 0)"/>
       <use xlink:href="#DejaVuSans-69" transform="translate(511.230469 0)"/>
       <use xlink:href="#DejaVuSans-76" transform="translate(539.013672 0)"/>
       <use xlink:href="#DejaVuSans-69" transform="translate(598.193359 0)"/>
       <use xlink:href="#DejaVuSans-74" transform="translate(625.976562 0)"/>
       <use xlink:href="#DejaVuSans-79" transform="translate(665.185547 0)"/>
      </g>
     </g>
    </g>
    <g id="ytick_16">
     <g id="line2d_24">
      <g>
       <use xlink:href="#me8868844ff" x="228.296875" y="225.403599" style="stroke: #000000; stroke-width: 0.8"/>
      </g>
     </g>
     <g id="text_25">
      <!-- nucleic acid binding -->
      <g transform="translate(121.529687 229.202817) scale(0.1 -0.1)">
       <use xlink:href="#DejaVuSans-6e"/>
       <use xlink:href="#DejaVuSans-75" transform="translate(63.378906 0)"/>
       <use xlink:href="#DejaVuSans-63" transform="translate(126.757812 0)"/>
       <use xlink:href="#DejaVuSans-6c" transform="translate(181.738281 0)"/>
       <use xlink:href="#DejaVuSans-65" transform="translate(209.521484 0)"/>
       <use xlink:href="#DejaVuSans-69" transform="translate(271.044922 0)"/>
       <use xlink:href="#DejaVuSans-63" transform="translate(298.828125 0)"/>
       <use xlink:href="#DejaVuSans-20" transform="translate(353.808594 0)"/>
       <use xlink:href="#DejaVuSans-61" transform="translate(385.595703 0)"/>
       <use xlink:href="#DejaVuSans-63" transform="translate(446.875 0)"/>
       <use xlink:href="#DejaVuSans-69" transform="translate(501.855469 0)"/>
       <use xlink:href="#DejaVuSans-64" transform="translate(529.638672 0)"/>
       <use xlink:href="#DejaVuSans-20" transform="translate(593.115234 0)"/>
       <use xlink:href="#DejaVuSans-62" transform="translate(624.902344 0)"/>
       <use xlink:href="#DejaVuSans-69" transform="translate(688.378906 0)"/>
       <use xlink:href="#DejaVuSans-6e" transform="translate(716.162109 0)"/>
       <use xlink:href="#DejaVuSans-64" transform="translate(779.541016 0)"/>
       <use xlink:href="#DejaVuSans-69" transform="translate(843.017578 0)"/>
       <use xlink:href="#DejaVuSans-6e" transform="translate(870.800781 0)"/>
       <use xlink:href="#DejaVuSans-67" transform="translate(934.179688 0)"/>
      </g>
     </g>
    </g>
    <g id="ytick_17">
     <g id="line2d_25">
      <g>
       <use xlink:href="#me8868844ff" x="228.296875" y="238.13623" style="stroke: #000000; stroke-width: 0.8"/>
      </g>
     </g>
     <g id="text_26">
      <!-- RNA binding -->
      <g transform="translate(159.571875 241.935449) scale(0.1 -0.1)">
       <use xlink:href="#DejaVuSans-52"/>
       <use xlink:href="#DejaVuSans-4e" transform="translate(69.482422 0)"/>
       <use xlink:href="#DejaVuSans-41" transform="translate(144.287109 0)"/>
       <use xlink:href="#DejaVuSans-20" transform="translate(212.695312 0)"/>
       <use xlink:href="#DejaVuSans-62" transform="translate(244.482422 0)"/>
       <use xlink:href="#DejaVuSans-69" transform="translate(307.958984 0)"/>
       <use xlink:href="#DejaVuSans-6e" transform="translate(335.742188 0)"/>
       <use xlink:href="#DejaVuSans-64" transform="translate(399.121094 0)"/>
       <use xlink:href="#DejaVuSans-69" transform="translate(462.597656 0)"/>
       <use xlink:href="#DejaVuSans-6e" transform="translate(490.380859 0)"/>
       <use xlink:href="#DejaVuSans-67" transform="translate(553.759766 0)"/>
      </g>
     </g>
    </g>
    <g id="ytick_18">
     <g id="line2d_26">
      <g>
       <use xlink:href="#me8868844ff" x="228.296875" y="250.868862" style="stroke: #000000; stroke-width: 0.8"/>
      </g>
     </g>
     <g id="text_27">
      <!-- ATP binding -->
      <g transform="translate(162.639062 254.668081) scale(0.1 -0.1)">
       <use xlink:href="#DejaVuSans-41"/>
       <use xlink:href="#DejaVuSans-54" transform="translate(60.658203 0)"/>
       <use xlink:href="#DejaVuSans-50" transform="translate(121.742188 0)"/>
       <use xlink:href="#DejaVuSans-20" transform="translate(182.044922 0)"/>
       <use xlink:href="#DejaVuSans-62" transform="translate(213.832031 0)"/>
       <use xlink:href="#DejaVuSans-69" transform="translate(277.308594 0)"/>
       <use xlink:href="#DejaVuSans-6e" transform="translate(305.091797 0)"/>
       <use xlink:href="#DejaVuSans-64" transform="translate(368.470703 0)"/>
       <use xlink:href="#DejaVuSans-69" transform="translate(431.947266 0)"/>
       <use xlink:href="#DejaVuSans-6e" transform="translate(459.730469 0)"/>
       <use xlink:href="#DejaVuSans-67" transform="translate(523.109375 0)"/>
      </g>
     </g>
    </g>
    <g id="ytick_19">
     <g id="line2d_27">
      <g>
       <use xlink:href="#me8868844ff" x="228.296875" y="263.601493" style="stroke: #000000; stroke-width: 0.8"/>
      </g>
     </g>
     <g id="text_28">
      <!-- transferase activity -->
      <g transform="translate(124.276562 267.400712) scale(0.1 -0.1)">
       <use xlink:href="#DejaVuSans-74"/>
       <use xlink:href="#DejaVuSans-72" transform="translate(39.208984 0)"/>
       <use xlink:href="#DejaVuSans-61" transform="translate(80.322266 0)"/>
       <use xlink:href="#DejaVuSans-6e" transform="translate(141.601562 0)"/>
       <use xlink:href="#DejaVuSans-73" transform="translate(204.980469 0)"/>
       <use xlink:href="#DejaVuSans-66" transform="translate(257.080078 0)"/>
       <use xlink:href="#DejaVuSans-65" transform="translate(292.285156 0)"/>
       <use xlink:href="#DejaVuSans-72" transform="translate(353.808594 0)"/>
       <use xlink:href="#DejaVuSans-61" transform="translate(394.921875 0)"/>
       <use xlink:href="#DejaVuSans-73" transform="translate(456.201172 0)"/>
       <use xlink:href="#DejaVuSans-65" transform="translate(508.300781 0)"/>
       <use xlink:href="#DejaVuSans-20" transform="translate(569.824219 0)"/>
       <use xlink:href="#DejaVuSans-61" transform="translate(601.611328 0)"/>
       <use xlink:href="#DejaVuSans-63" transform="translate(662.890625 0)"/>
       <use xlink:href="#DejaVuSans-74" transform="translate(717.871094 0)"/>
       <use xlink:href="#DejaVuSans-69" transform="translate(757.080078 0)"/>
       <use xlink:href="#DejaVuSans-76" transform="translate(784.863281 0)"/>
       <use xlink:href="#DejaVuSans-69" transform="translate(844.042969 0)"/>
       <use xlink:href="#DejaVuSans-74" transform="translate(871.826172 0)"/>
       <use xlink:href="#DejaVuSans-79" transform="translate(911.035156 0)"/>
      </g>
     </g>
    </g>
    <g id="ytick_20">
     <g id="line2d_28">
      <g>
       <use xlink:href="#me8868844ff" x="228.296875" y="276.334125" style="stroke: #000000; stroke-width: 0.8"/>
      </g>
     </g>
     <g id="text_29">
      <!-- nucleotide binding -->
      <g transform="translate(128.41875 280.133344) scale(0.1 -0.1)">
       <use xlink:href="#DejaVuSans-6e"/>
       <use xlink:href="#DejaVuSans-75" transform="translate(63.378906 0)"/>
       <use xlink:href="#DejaVuSans-63" transform="translate(126.757812 0)"/>
       <use xlink:href="#DejaVuSans-6c" transform="translate(181.738281 0)"/>
       <use xlink:href="#DejaVuSans-65" transform="translate(209.521484 0)"/>
       <use xlink:href="#DejaVuSans-6f" transform="translate(271.044922 0)"/>
       <use xlink:href="#DejaVuSans-74" transform="translate(332.226562 0)"/>
       <use xlink:href="#DejaVuSans-69" transform="translate(371.435547 0)"/>
       <use xlink:href="#DejaVuSans-64" transform="translate(399.21875 0)"/>
       <use xlink:href="#DejaVuSans-65" transform="translate(462.695312 0)"/>
       <use xlink:href="#DejaVuSans-20" transform="translate(524.21875 0)"/>
       <use xlink:href="#DejaVuSans-62" transform="translate(556.005859 0)"/>
       <use xlink:href="#DejaVuSans-69" transform="translate(619.482422 0)"/>
       <use xlink:href="#DejaVuSans-6e" transform="translate(647.265625 0)"/>
       <use xlink:href="#DejaVuSans-64" transform="translate(710.644531 0)"/>
       <use xlink:href="#DejaVuSans-69" transform="translate(774.121094 0)"/>
       <use xlink:href="#DejaVuSans-6e" transform="translate(801.904297 0)"/>
       <use xlink:href="#DejaVuSans-67" transform="translate(865.283203 0)"/>
      </g>
     </g>
    </g>
   </g>
   <g id="line2d_29"/>
   <g id="line2d_30"/>
   <g id="line2d_31"/>
   <g id="line2d_32"/>
   <g id="line2d_33"/>
   <g id="line2d_34"/>
   <g id="line2d_35"/>
   <g id="line2d_36"/>
   <g id="line2d_37"/>
   <g id="line2d_38"/>
   <g id="line2d_39"/>
   <g id="patch_3">
    <path d="M 228.296875 288.430125 
L 228.296875 22.318125 
" style="fill: none; stroke: #000000; stroke-width: 0.8; stroke-linejoin: miter; stroke-linecap: square"/>
   </g>
   <g id="patch_4">
    <path d="M 585.416875 288.430125 
L 585.416875 22.318125 
" style="fill: none; stroke: #000000; stroke-width: 0.8; stroke-linejoin: miter; stroke-linecap: square"/>
   </g>
   <g id="patch_5">
    <path d="M 228.296875 288.430125 
L 585.416875 288.430125 
" style="fill: none; stroke: #000000; stroke-width: 0.8; stroke-linejoin: miter; stroke-linecap: square"/>
   </g>
   <g id="patch_6">
    <path d="M 228.296875 22.318125 
L 585.416875 22.318125 
" style="fill: none; stroke: #000000; stroke-width: 0.8; stroke-linejoin: miter; stroke-linecap: square"/>
   </g>
   <g id="text_30">
    <!-- Top 20 Enriched Molecular Functions -->
    <g transform="translate(297.3775 16.318125) scale(0.12 -0.12)">
     <defs>
      <path id="DejaVuSans-4d" d="M 628 4666 
L 1569 4666 
L 2759 1491 
L 3956 4666 
L 4897 4666 
L 4897 0 
L 4281 0 
L 4281 4097 
L 3078 897 
L 2444 897 
L 1241 4097 
L 1241 0 
L 628 0 
L 628 4666 
z
" transform="scale(0.015625)"/>
     </defs>
     <use xlink:href="#DejaVuSans-54"/>
     <use xlink:href="#DejaVuSans-6f" transform="translate(44.083984 0)"/>
     <use xlink:href="#DejaVuSans-70" transform="translate(105.265625 0)"/>
     <use xlink:href="#DejaVuSans-20" transform="translate(168.742188 0)"/>
     <use xlink:href="#DejaVuSans-32" transform="translate(200.529297 0)"/>
     <use xlink:href="#DejaVuSans-30" transform="translate(264.152344 0)"/>
     <use xlink:href="#DejaVuSans-20" transform="translate(327.775391 0)"/>
     <use xlink:href="#DejaVuSans-45" transform="translate(359.5625 0)"/>
     <use xlink:href="#DejaVuSans-6e" transform="translate(422.746094 0)"/>
     <use xlink:href="#DejaVuSans-72" transform="translate(486.125 0)"/>
     <use xlink:href="#DejaVuSans-69" transform="translate(527.238281 0)"/>
     <use xlink:href="#DejaVuSans-63" transform="translate(555.021484 0)"/>
     <use xlink:href="#DejaVuSans-68" transform="translate(610.001953 0)"/>
     <use xlink:href="#DejaVuSans-65" transform="translate(673.380859 0)"/>
     <use xlink:href="#DejaVuSans-64" transform="translate(734.904297 0)"/>
     <use xlink:href="#DejaVuSans-20" transform="translate(798.380859 0)"/>
     <use xlink:href="#DejaVuSans-4d" transform="translate(830.167969 0)"/>
     <use xlink:href="#DejaVuSans-6f" transform="translate(916.447266 0)"/>
     <use xlink:href="#DejaVuSans-6c" transform="translate(977.628906 0)"/>
     <use xlink:href="#DejaVuSans-65" transform="translate(1005.412109 0)"/>
     <use xlink:href="#DejaVuSans-63" transform="translate(1066.935547 0)"/>
     <use xlink:href="#DejaVuSans-75" transform="translate(1121.916016 0)"/>
     <use xlink:href="#DejaVuSans-6c" transform="translate(1185.294922 0)"/>
     <use xlink:href="#DejaVuSans-61" transform="translate(1213.078125 0)"/>
     <use xlink:href="#DejaVuSans-72" transform="translate(1274.357422 0)"/>
     <use xlink:href="#DejaVuSans-20" transform="translate(1315.470703 0)"/>
     <use xlink:href="#DejaVuSans-46" transform="translate(1347.257812 0)"/>
     <use xlink:href="#DejaVuSans-75" transform="translate(1399.277344 0)"/>
     <use xlink:href="#DejaVuSans-6e" transform="translate(1462.65625 0)"/>
     <use xlink:href="#DejaVuSans-63" transform="translate(1526.035156 0)"/>
     <use xlink:href="#DejaVuSans-74" transform="translate(1581.015625 0)"/>
     <use xlink:href="#DejaVuSans-69" transform="translate(1620.224609 0)"/>
     <use xlink:href="#DejaVuSans-6f" transform="translate(1648.007812 0)"/>
     <use xlink:href="#DejaVuSans-6e" transform="translate(1709.189453 0)"/>
     <use xlink:href="#DejaVuSans-73" transform="translate(1772.568359 0)"/>
    </g>
   </g>
   <g id="legend_1">
    <g id="patch_7">
     <path d="M 592.416875 191.7775 
L 679.655938 191.7775 
Q 681.655938 191.7775 681.655938 189.7775 
L 681.655938 29.318125 
Q 681.655938 27.318125 679.655938 27.318125 
L 592.416875 27.318125 
Q 590.416875 27.318125 590.416875 29.318125 
L 590.416875 189.7775 
Q 590.416875 191.7775 592.416875 191.7775 
z
" style="fill: #ffffff; opacity: 0.8; stroke: #cccccc; stroke-linejoin: miter"/>
    </g>
    <g id="line2d_40"/>
    <g id="text_31">
     <!-- -log10 FDR -->
     <g transform="translate(622.416875 38.916562) scale(0.1 -0.1)">
      <defs>
       <path id="DejaVuSans-44" d="M 1259 4147 
L 1259 519 
L 2022 519 
Q 2988 519 3436 956 
Q 3884 1394 3884 2338 
Q 3884 3275 3436 3711 
Q 2988 4147 2022 4147 
L 1259 4147 
z
M 628 4666 
L 1925 4666 
Q 3281 4666 3915 4102 
Q 4550 3538 4550 2338 
Q 4550 1131 3912 565 
Q 3275 0 1925 0 
L 628 0 
L 628 4666 
z
" transform="scale(0.015625)"/>
      </defs>
      <use xlink:href="#DejaVuSans-2d"/>
      <use xlink:href="#DejaVuSans-6c" transform="translate(36.083984 0)"/>
      <use xlink:href="#DejaVuSans-6f" transform="translate(63.867188 0)"/>
      <use xlink:href="#DejaVuSans-67" transform="translate(125.048828 0)"/>
      <use xlink:href="#DejaVuSans-31" transform="translate(188.525391 0)"/>
      <use xlink:href="#DejaVuSans-30" transform="translate(252.148438 0)"/>
      <use xlink:href="#DejaVuSans-20" transform="translate(315.771484 0)"/>
      <use xlink:href="#DejaVuSans-46" transform="translate(347.558594 0)"/>
      <use xlink:href="#DejaVuSans-44" transform="translate(405.078125 0)"/>
      <use xlink:href="#DejaVuSans-52" transform="translate(482.080078 0)"/>
     </g>
    </g>
    <g id="line2d_41">
     <defs>
      <path id="m93cd1e33d2" d="M 0 3 
C 0.795609 3 1.55874 2.683901 2.12132 2.12132 
C 2.683901 1.55874 3 0.795609 3 0 
C 3 -0.795609 2.683901 -1.55874 2.12132 -2.12132 
C 1.55874 -2.683901 0.795609 -3 0 -3 
C -0.795609 -3 -1.55874 -2.683901 -2.12132 -2.12132 
C -2.683901 -1.55874 -3 -0.795609 -3 0 
C -3 0.795609 -2.683901 1.55874 -2.12132 2.12132 
C -1.55874 2.683901 -0.795609 3 0 3 
z
" style="stroke: #ffffff; stroke-width: 0.442837"/>
     </defs>
     <g>
      <use xlink:href="#m93cd1e33d2" x="604.416875" y="50.094688" style="fill: #7a9df8; stroke: #ffffff; stroke-width: 0.442837"/>
     </g>
    </g>
    <g id="text_32">
     <!-- 6 -->
     <g transform="translate(622.416875 53.594688) scale(0.1 -0.1)">
      <defs>
       <path id="DejaVuSans-36" d="M 2113 2584 
Q 1688 2584 1439 2293 
Q 1191 2003 1191 1497 
Q 1191 994 1439 701 
Q 1688 409 2113 409 
Q 2538 409 2786 701 
Q 3034 994 3034 1497 
Q 3034 2003 2786 2293 
Q 2538 2584 2113 2584 
z
M 3366 4563 
L 3366 3988 
Q 3128 4100 2886 4159 
Q 2644 4219 2406 4219 
Q 1781 4219 1451 3797 
Q 1122 3375 1075 2522 
Q 1259 2794 1537 2939 
Q 1816 3084 2150 3084 
Q 2853 3084 3261 2657 
Q 3669 2231 3669 1497 
Q 3669 778 3244 343 
Q 2819 -91 2113 -91 
Q 1303 -91 875 529 
Q 447 1150 447 2328 
Q 447 3434 972 4092 
Q 1497 4750 2381 4750 
Q 2619 4750 2861 4703 
Q 3103 4656 3366 4563 
z
" transform="scale(0.015625)"/>
      </defs>
      <use xlink:href="#DejaVuSans-36"/>
     </g>
    </g>
    <g id="line2d_42">
     <defs>
      <path id="m731f07a051" d="M 0 3 
C 0.795609 3 1.55874 2.683901 2.12132 2.12132 
C 2.683901 1.55874 3 0.795609 3 0 
C 3 -0.795609 2.683901 -1.55874 2.12132 -2.12132 
C 1.55874 -2.683901 0.795609 -3 0 -3 
C -0.795609 -3 -1.55874 -2.683901 -2.12132 -2.12132 
C -2.683901 -1.55874 -3 -0.795609 -3 0 
C -3 0.795609 -2.683901 1.55874 -2.12132 2.12132 
C -1.55874 2.683901 -0.795609 3 0 3 
z
" style="stroke: #ffffff; stroke-width: 0.442837"/>
     </defs>
     <g>
      <use xlink:href="#m731f07a051" x="604.416875" y="64.772812" style="fill: #c0d4f5; stroke: #ffffff; stroke-width: 0.442837"/>
     </g>
    </g>
    <g id="text_33">
     <!-- 8 -->
     <g transform="translate(622.416875 68.272812) scale(0.1 -0.1)">
      <defs>
       <path id="DejaVuSans-38" d="M 2034 2216 
Q 1584 2216 1326 1975 
Q 1069 1734 1069 1313 
Q 1069 891 1326 650 
Q 1584 409 2034 409 
Q 2484 409 2743 651 
Q 3003 894 3003 1313 
Q 3003 1734 2745 1975 
Q 2488 2216 2034 2216 
z
M 1403 2484 
Q 997 2584 770 2862 
Q 544 3141 544 3541 
Q 544 4100 942 4425 
Q 1341 4750 2034 4750 
Q 2731 4750 3128 4425 
Q 3525 4100 3525 3541 
Q 3525 3141 3298 2862 
Q 3072 2584 2669 2484 
Q 3125 2378 3379 2068 
Q 3634 1759 3634 1313 
Q 3634 634 3220 271 
Q 2806 -91 2034 -91 
Q 1263 -91 848 271 
Q 434 634 434 1313 
Q 434 1759 690 2068 
Q 947 2378 1403 2484 
z
M 1172 3481 
Q 1172 3119 1398 2916 
Q 1625 2713 2034 2713 
Q 2441 2713 2670 2916 
Q 2900 3119 2900 3481 
Q 2900 3844 2670 4047 
Q 2441 4250 2034 4250 
Q 1625 4250 1398 4047 
Q 1172 3844 1172 3481 
z
" transform="scale(0.015625)"/>
      </defs>
      <use xlink:href="#DejaVuSans-38"/>
     </g>
    </g>
    <g id="line2d_43">
     <defs>
      <path id="mf3b26babad" d="M 0 3 
C 0.795609 3 1.55874 2.683901 2.12132 2.12132 
C 2.683901 1.55874 3 0.795609 3 0 
C 3 -0.795609 2.683901 -1.55874 2.12132 -2.12132 
C 1.55874 -2.683901 0.795609 -3 0 -3 
C -0.795609 -3 -1.55874 -2.683901 -2.12132 -2.12132 
C -2.683901 -1.55874 -3 -0.795609 -3 0 
C -3 0.795609 -2.683901 1.55874 -2.12132 2.12132 
C -1.55874 2.683901 -0.795609 3 0 3 
z
" style="stroke: #ffffff; stroke-width: 0.442837"/>
     </defs>
     <g>
      <use xlink:href="#mf3b26babad" x="604.416875" y="79.450938" style="fill: #f2c9b4; stroke: #ffffff; stroke-width: 0.442837"/>
     </g>
    </g>
    <g id="text_34">
     <!-- 10 -->
     <g transform="translate(622.416875 82.950938) scale(0.1 -0.1)">
      <use xlink:href="#DejaVuSans-31"/>
      <use xlink:href="#DejaVuSans-30" transform="translate(63.623047 0)"/>
     </g>
    </g>
    <g id="line2d_44">
     <defs>
      <path id="m14c5b2226a" d="M 0 3 
C 0.795609 3 1.55874 2.683901 2.12132 2.12132 
C 2.683901 1.55874 3 0.795609 3 0 
C 3 -0.795609 2.683901 -1.55874 2.12132 -2.12132 
C 1.55874 -2.683901 0.795609 -3 0 -3 
C -0.795609 -3 -1.55874 -2.683901 -2.12132 -2.12132 
C -2.683901 -1.55874 -3 -0.795609 -3 0 
C -3 0.795609 -2.683901 1.55874 -2.12132 2.12132 
C -1.55874 2.683901 -0.795609 3 0 3 
z
" style="stroke: #ffffff; stroke-width: 0.442837"/>
     </defs>
     <g>
      <use xlink:href="#m14c5b2226a" x="604.416875" y="94.129063" style="fill: #eb7d62; stroke: #ffffff; stroke-width: 0.442837"/>
     </g>
    </g>
    <g id="text_35">
     <!-- 12 -->
     <g transform="translate(622.416875 97.629063) scale(0.1 -0.1)">
      <use xlink:href="#DejaVuSans-31"/>
      <use xlink:href="#DejaVuSans-32" transform="translate(63.623047 0)"/>
     </g>
    </g>
    <g id="line2d_45"/>
    <g id="text_36">
     <!-- Gene Ratio -->
     <g transform="translate(622.416875 112.307187) scale(0.1 -0.1)">
      <use xlink:href="#DejaVuSans-47"/>
      <use xlink:href="#DejaVuSans-65" transform="translate(77.490234 0)"/>
      <use xlink:href="#DejaVuSans-6e" transform="translate(139.013672 0)"/>
      <use xlink:href="#DejaVuSans-65" transform="translate(202.392578 0)"/>
      <use xlink:href="#DejaVuSans-20" transform="translate(263.916016 0)"/>
      <use xlink:href="#DejaVuSans-52" transform="translate(295.703125 0)"/>
      <use xlink:href="#DejaVuSans-61" transform="translate(362.935547 0)"/>
      <use xlink:href="#DejaVuSans-74" transform="translate(424.214844 0)"/>
      <use xlink:href="#DejaVuSans-69" transform="translate(463.423828 0)"/>
      <use xlink:href="#DejaVuSans-6f" transform="translate(491.207031 0)"/>
     </g>
    </g>
    <g id="line2d_46">
     <defs>
      <path id="mff2037fe7e" d="M 0 3.012675 
C 0.798971 3.012675 1.565325 2.695241 2.130283 2.130283 
C 2.695241 1.565325 3.012675 0.798971 3.012675 0 
C 3.012675 -0.798971 2.695241 -1.565325 2.130283 -2.130283 
C 1.565325 -2.695241 0.798971 -3.012675 0 -3.012675 
C -0.798971 -3.012675 -1.565325 -2.695241 -2.130283 -2.130283 
C -2.695241 -1.565325 -3.012675 -0.798971 -3.012675 0 
C -3.012675 0.798971 -2.695241 1.565325 -2.130283 2.130283 
C -1.565325 2.695241 -0.798971 3.012675 0 3.012675 
z
" style="stroke: #ffffff; stroke-width: 0.442837"/>
     </defs>
     <g>
      <use xlink:href="#mff2037fe7e" x="604.416875" y="123.485313" style="fill: #333333; stroke: #ffffff; stroke-width: 0.442837"/>
     </g>
    </g>
    <g id="text_37">
     <!-- 0.025 -->
     <g transform="translate(622.416875 126.985313) scale(0.1 -0.1)">
      <use xlink:href="#DejaVuSans-30"/>
      <use xlink:href="#DejaVuSans-2e" transform="translate(63.623047 0)"/>
      <use xlink:href="#DejaVuSans-30" transform="translate(95.410156 0)"/>
      <use xlink:href="#DejaVuSans-32" transform="translate(159.033203 0)"/>
      <use xlink:href="#DejaVuSans-35" transform="translate(222.65625 0)"/>
     </g>
    </g>
    <g id="line2d_47">
     <defs>
      <path id="m0465307d37" d="M 0 3.864599 
C 1.024904 3.864599 2.007968 3.457401 2.732684 2.732684 
C 3.457401 2.007968 3.864599 1.024904 3.864599 0 
C 3.864599 -1.024904 3.457401 -2.007968 2.732684 -2.732684 
C 2.007968 -3.457401 1.024904 -3.864599 0 -3.864599 
C -1.024904 -3.864599 -2.007968 -3.457401 -2.732684 -2.732684 
C -3.457401 -2.007968 -3.864599 -1.024904 -3.864599 0 
C -3.864599 1.024904 -3.457401 2.007968 -2.732684 2.732684 
C -2.007968 3.457401 -1.024904 3.864599 0 3.864599 
z
" style="stroke: #ffffff; stroke-width: 0.442837"/>
     </defs>
     <g>
      <use xlink:href="#m0465307d37" x="604.416875" y="138.163437" style="fill: #333333; stroke: #ffffff; stroke-width: 0.442837"/>
     </g>
    </g>
    <g id="text_38">
     <!-- 0.050 -->
     <g transform="translate(622.416875 141.663437) scale(0.1 -0.1)">
      <use xlink:href="#DejaVuSans-30"/>
      <use xlink:href="#DejaVuSans-2e" transform="translate(63.623047 0)"/>
      <use xlink:href="#DejaVuSans-30" transform="translate(95.410156 0)"/>
      <use xlink:href="#DejaVuSans-35" transform="translate(159.033203 0)"/>
      <use xlink:href="#DejaVuSans-30" transform="translate(222.65625 0)"/>
     </g>
    </g>
    <g id="line2d_48">
     <defs>
      <path id="m6ec4d33fa9" d="M 0 4.560048 
C 1.209339 4.560048 2.369309 4.079573 3.224441 3.224441 
C 4.079573 2.369309 4.560048 1.209339 4.560048 0 
C 4.560048 -1.209339 4.079573 -2.369309 3.224441 -3.224441 
C 2.369309 -4.079573 1.209339 -4.560048 0 -4.560048 
C -1.209339 -4.560048 -2.369309 -4.079573 -3.224441 -3.224441 
C -4.079573 -2.369309 -4.560048 -1.209339 -4.560048 0 
C -4.560048 1.209339 -4.079573 2.369309 -3.224441 3.224441 
C -2.369309 4.079573 -1.209339 4.560048 0 4.560048 
z
" style="stroke: #ffffff; stroke-width: 0.442837"/>
     </defs>
     <g>
      <use xlink:href="#m6ec4d33fa9" x="604.416875" y="152.841563" style="fill: #333333; stroke: #ffffff; stroke-width: 0.442837"/>
     </g>
    </g>
    <g id="text_39">
     <!-- 0.075 -->
     <g transform="translate(622.416875 156.341563) scale(0.1 -0.1)">
      <defs>
       <path id="DejaVuSans-37" d="M 525 4666 
L 3525 4666 
L 3525 4397 
L 1831 0 
L 1172 0 
L 2766 4134 
L 525 4134 
L 525 4666 
z
" transform="scale(0.015625)"/>
      </defs>
      <use xlink:href="#DejaVuSans-30"/>
      <use xlink:href="#DejaVuSans-2e" transform="translate(63.623047 0)"/>
      <use xlink:href="#DejaVuSans-30" transform="translate(95.410156 0)"/>
      <use xlink:href="#DejaVuSans-37" transform="translate(159.033203 0)"/>
      <use xlink:href="#DejaVuSans-35" transform="translate(222.65625 0)"/>
     </g>
    </g>
    <g id="line2d_49">
     <defs>
      <path id="m3961926d2b" d="M 0 5.16265 
C 1.369151 5.16265 2.682409 4.618681 3.650545 3.650545 
C 4.618681 2.682409 5.16265 1.369151 5.16265 0 
C 5.16265 -1.369151 4.618681 -2.682409 3.650545 -3.650545 
C 2.682409 -4.618681 1.369151 -5.16265 0 -5.16265 
C -1.369151 -5.16265 -2.682409 -4.618681 -3.650545 -3.650545 
C -4.618681 -2.682409 -5.16265 -1.369151 -5.16265 0 
C -5.16265 1.369151 -4.618681 2.682409 -3.650545 3.650545 
C -2.682409 4.618681 -1.369151 5.16265 0 5.16265 
z
" style="stroke: #ffffff; stroke-width: 0.442837"/>
     </defs>
     <g>
      <use xlink:href="#m3961926d2b" x="604.416875" y="167.519687" style="fill: #333333; stroke: #ffffff; stroke-width: 0.442837"/>
     </g>
    </g>
    <g id="text_40">
     <!-- 0.100 -->
     <g transform="translate(622.416875 171.019687) scale(0.1 -0.1)">
      <use xlink:href="#DejaVuSans-30"/>
      <use xlink:href="#DejaVuSans-2e" transform="translate(63.623047 0)"/>
      <use xlink:href="#DejaVuSans-31" transform="translate(95.410156 0)"/>
      <use xlink:href="#DejaVuSans-30" transform="translate(159.033203 0)"/>
      <use xlink:href="#DejaVuSans-30" transform="translate(222.65625 0)"/>
     </g>
    </g>
    <g id="line2d_50">
     <defs>
      <path id="m89eb774258" d="M 0 5.701918 
C 1.512166 5.701918 2.962602 5.101128 4.031865 4.031865 
C 5.101128 2.962602 5.701918 1.512166 5.701918 0 
C 5.701918 -1.512166 5.101128 -2.962602 4.031865 -4.031865 
C 2.962602 -5.101128 1.512166 -5.701918 0 -5.701918 
C -1.512166 -5.701918 -2.962602 -5.101128 -4.031865 -4.031865 
C -5.101128 -2.962602 -5.701918 -1.512166 -5.701918 0 
C -5.701918 1.512166 -5.101128 2.962602 -4.031865 4.031865 
C -2.962602 5.101128 -1.512166 5.701918 0 5.701918 
z
" style="stroke: #ffffff; stroke-width: 0.442837"/>
     </defs>
     <g>
      <use xlink:href="#m89eb774258" x="604.416875" y="182.197812" style="fill: #333333; stroke: #ffffff; stroke-width: 0.442837"/>
     </g>
    </g>
    <g id="text_41">
     <!-- 0.125 -->
     <g transform="translate(622.416875 185.697812) scale(0.1 -0.1)">
      <use xlink:href="#DejaVuSans-30"/>
      <use xlink:href="#DejaVuSans-2e" transform="translate(63.623047 0)"/>
      <use xlink:href="#DejaVuSans-31" transform="translate(95.410156 0)"/>
      <use xlink:href="#DejaVuSans-32" transform="translate(159.033203 0)"/>
      <use xlink:href="#DejaVuSans-35" transform="translate(222.65625 0)"/>
     </g>
    </g>
   </g>
  </g>
 </g>
 <defs>
  <clipPath id="p7c396ffbed">
   <rect x="228.296875" y="22.318125" width="357.12" height="266.112"/>
  </clipPath>
 </defs>
</svg>
