<svg class="main-svg" xmlns="http://www.w3.org/2000/svg" xmlns:xlink="http://www.w3.org/1999/xlink" width="1500" height="2000" style="" viewBox="0 0 1500 2000"><rect x="0" y="0" width="1500" height="2000" style="fill: rgb(255, 255, 255); fill-opacity: 1;"/><defs id="defs-ad9481"><g class="clips"/><g class="gradients"/><g class="patterns"/></defs><g class="bglayer"/><g class="layer-below"><g class="imagelayer"/><g class="shapelayer"/></g><g class="cartesianlayer"/><g class="polarlayer"/><g class="smithlayer"/><g class="ternarylayer"/><g class="geolayer"/><g class="funnelarealayer"/><g class="pielayer"/><g class="iciclelayer"/><g class="treemaplayer"/><g class="sunburstlayer"/><g class="glimages"/><g class="sankey" transform="translate(80,100)matrix(1 0 0 1 0 0)" style="box-sizing: content-box; position: absolute; left: 0px; shape-rendering: geometricprecision; pointer-events: auto;"><g class="sankey-links" style="fill: none;"><path class="sankey-link" d="M40,1238.7500000000014C345,1238.7500000000014 345,1243.0707581968022 650,1243.0707581968022L650,1286.8207581968022C345,1286.8207581968022 345,1282.5000000000014 40,1282.5000000000014Z" style="stroke: rgb(68, 68, 68); stroke-opacity: 1; fill: rgb(254, 254, 189); fill-opacity: 0.15; stroke-width: 0; opacity: 1;"/><path class="sankey-link" d="M40,255.00000000000023C345,255.00000000000023 345,435.5707581968023 650,435.5707581968023L650,479.3207581968023C345,479.3207581968023 345,298.7500000000002 40,298.7500000000002Z" style="stroke: rgb(68, 68, 68); stroke-opacity: 1; fill: rgb(254, 254, 189); fill-opacity: 0.15; stroke-width: 0; opacity: 1;"/><path class="sankey-link" d="M40,1111.2500000000005C345,1111.2500000000005 345,1155.5707581968022 650,1155.5707581968022L650,1199.3207581968022C345,1199.3207581968022 345,1155.0000000000005 40,1155.0000000000005Z" style="stroke: rgb(68, 68, 68); stroke-opacity: 1; fill: rgb(254, 254, 189); fill-opacity: 0.15; stroke-width: 0; opacity: 1;"/><path class="sankey-link" d="M40,1561.2500000000005C345,1561.2500000000005 345,1609.3207581968027 650,1609.3207581968027L650,1653.0707581968027C345,1653.0707581968027 345,1605.0000000000005 40,1605.0000000000005Z" style="stroke: rgb(68, 68, 68); stroke-opacity: 1; fill: rgb(207, 207, 207); fill-opacity: 0.15; stroke-width: 0; opacity: 1;"/><path class="sankey-link" d="M40,641.2500000000007C345,641.2500000000007 345,893.0707581968022 650,893.0707581968022L650,936.8207581968022C345,936.8207581968022 345,685.0000000000007 40,685.0000000000007Z" style="stroke: rgb(68, 68, 68); stroke-opacity: 1; fill: rgb(254, 254, 189); fill-opacity: 0.15; stroke-width: 0; opacity: 1;"/><path class="sankey-link" d="M40,812.5000000000007C345,812.5000000000007 345,698.0707581968022 650,698.0707581968022L650,741.8207581968022C345,741.8207581968022 345,856.2500000000007 40,856.2500000000007Z" style="stroke: rgb(68, 68, 68); stroke-opacity: 1; fill: rgb(254, 254, 189); fill-opacity: 0.15; stroke-width: 0; opacity: 1;"/><path class="sankey-link" d="M40,426.2500000000002C345,426.2500000000002 345,805.5707581968022 650,805.5707581968022L650,849.3207581968022C345,849.3207581968022 345,470.0000000000002 40,470.0000000000002Z" style="stroke: rgb(68, 68, 68); stroke-opacity: 1; fill: rgb(254, 254, 189); fill-opacity: 0.15; stroke-width: 0; opacity: 1;"/><path class="sankey-link" d="M40,1430.0000000000005C345,1430.0000000000005 345,741.8207581968022 650,741.8207581968022L650,785.5707581968022C345,785.5707581968022 345,1473.7500000000005 40,1473.7500000000005Z" style="stroke: rgb(68, 68, 68); stroke-opacity: 1; fill: rgb(254, 254, 189); fill-opacity: 0.15; stroke-width: 0; opacity: 1;"/><path class="sankey-link" d="M40,983.7500000000007C345,983.7500000000007 345,1068.0707581968022 650,1068.0707581968022L650,1111.8207581968022C345,1111.8207581968022 345,1027.5000000000007 40,1027.5000000000007Z" style="stroke: rgb(68, 68, 68); stroke-opacity: 1; fill: rgb(254, 254, 189); fill-opacity: 0.15; stroke-width: 0; opacity: 1;"/><path class="sankey-link" d="M40,1776.25C345,1776.25 345,1763.015492281366 650,1763.015492281366L650,1806.765492281366C345,1806.765492281366 345,1820 40,1820Z" style="stroke: rgb(68, 68, 68); stroke-opacity: 1; fill: rgb(207, 207, 207); fill-opacity: 0.15; stroke-width: 0; opacity: 1;"/><path class="sankey-link" d="M40,63.75000000000023C345,63.75000000000023 345,304.3207581968023 650,304.3207581968023L650,348.0707581968023C345,348.0707581968023 345,107.50000000000023 40,107.50000000000023Z" style="stroke: rgb(68, 68, 68); stroke-opacity: 1; fill: rgb(254, 254, 189); fill-opacity: 0.15; stroke-width: 0; opacity: 1;"/><path class="sankey-link" d="M40,705.0000000000007C345,705.0000000000007 345,654.3207581968022 650,654.3207581968022L650,698.0707581968022C345,698.0707581968022 345,748.7500000000007 40,748.7500000000007Z" style="stroke: rgb(68, 68, 68); stroke-opacity: 1; fill: rgb(254, 254, 189); fill-opacity: 0.15; stroke-width: 0; opacity: 1;"/><path class="sankey-link" d="M40,1.7053025658242404e-13C345,1.7053025658242404e-13 345,260.5707581968023 650,260.5707581968023L650,304.3207581968023C345,304.3207581968023 345,43.75000000000017 40,43.75000000000017Z" style="stroke: rgb(68, 68, 68); stroke-opacity: 1; fill: rgb(254, 254, 189); fill-opacity: 0.15; stroke-width: 0; opacity: 1;"/><path class="sankey-link" d="M40,1302.5000000000005C345,1302.5000000000005 345,1286.8207581968022 650,1286.8207581968022L650,1330.5707581968022C345,1330.5707581968022 345,1346.2500000000005 40,1346.2500000000005Z" style="stroke: rgb(68, 68, 68); stroke-opacity: 1; fill: rgb(254, 254, 189); fill-opacity: 0.15; stroke-width: 0; opacity: 1;"/><path class="sankey-link" d="M40,1366.250000000001C345,1366.250000000001 345,1481.8207581968022 650,1481.8207581968022L650,1525.5707581968022C345,1525.5707581968022 345,1410.000000000001 40,1410.000000000001Z" style="stroke: rgb(68, 68, 68); stroke-opacity: 1; fill: rgb(254, 254, 189); fill-opacity: 0.15; stroke-width: 0; opacity: 1;"/><path class="sankey-link" d="M40,127.50000000000023C345,127.50000000000023 345,348.0707581968023 650,348.0707581968023L650,391.8207581968023C345,391.8207581968023 345,171.25000000000023 40,171.25000000000023Z" style="stroke: rgb(68, 68, 68); stroke-opacity: 1; fill: rgb(254, 254, 189); fill-opacity: 0.15; stroke-width: 0; opacity: 1;"/><path class="sankey-link" d="M40,1668.75C345,1668.75 345,1653.0707581968027 650,1653.0707581968027L650,1696.8207581968027C345,1696.8207581968027 345,1712.5 40,1712.5Z" style="stroke: rgb(68, 68, 68); stroke-opacity: 1; fill: rgb(207, 207, 207); fill-opacity: 0.15; stroke-width: 0; opacity: 1;"/><path class="sankey-link" d="M40,1732.5C345,1732.5 345,1418.0707581968022 650,1418.0707581968022L650,1461.8207581968022C345,1461.8207581968022 345,1776.25 40,1776.25Z" style="stroke: rgb(68, 68, 68); stroke-opacity: 1; fill: rgb(254, 254, 189); fill-opacity: 0.15; stroke-width: 0; opacity: 1;"/><path class="sankey-link" d="M40,856.2500000000007C345,856.2500000000007 345,980.5707581968022 650,980.5707581968022L650,1024.3207581968022C345,1024.3207581968022 345,900.0000000000007 40,900.0000000000007Z" style="stroke: rgb(68, 68, 68); stroke-opacity: 1; fill: rgb(254, 254, 189); fill-opacity: 0.15; stroke-width: 0; opacity: 1;"/><path class="sankey-link" d="M40,318.7500000000002C345,318.7500000000002 345,479.3207581968023 650,479.3207581968023L650,523.0707581968022C345,523.0707581968022 345,362.5000000000002 40,362.5000000000002Z" style="stroke: rgb(68, 68, 68); stroke-opacity: 1; fill: rgb(254, 254, 189); fill-opacity: 0.15; stroke-width: 0; opacity: 1;"/><path class="sankey-link" d="M40,490.0000000000002C345,490.0000000000002 345,566.8207581968022 650,566.8207581968022L650,610.5707581968022C345,610.5707581968022 345,533.7500000000002 40,533.7500000000002Z" style="stroke: rgb(68, 68, 68); stroke-opacity: 1; fill: rgb(254, 254, 189); fill-opacity: 0.15; stroke-width: 0; opacity: 1;"/><path class="sankey-link" d="M40,1473.7500000000005C345,1473.7500000000005 345,1330.5707581968022 650,1330.5707581968022L650,1374.3207581968022C345,1374.3207581968022 345,1517.5000000000005 40,1517.5000000000005Z" style="stroke: rgb(68, 68, 68); stroke-opacity: 1; fill: rgb(254, 254, 189); fill-opacity: 0.15; stroke-width: 0; opacity: 1;"/><path class="sankey-link" d="M40,920.0000000000007C345,920.0000000000007 345,1024.3207581968022 650,1024.3207581968022L650,1068.0707581968022C345,1068.0707581968022 345,963.7500000000007 40,963.7500000000007Z" style="stroke: rgb(68, 68, 68); stroke-opacity: 1; fill: rgb(254, 254, 189); fill-opacity: 0.15; stroke-width: 0; opacity: 1;"/><path class="sankey-link" d="M40,1517.5000000000005C345,1517.5000000000005 345,1545.5707581968022 650,1545.5707581968022L650,1589.3207581968022C345,1589.3207581968022 345,1561.2500000000005 40,1561.2500000000005Z" style="stroke: rgb(68, 68, 68); stroke-opacity: 1; fill: rgb(207, 207, 207); fill-opacity: 0.15; stroke-width: 0; opacity: 1;"/><path class="sankey-link" d="M40,748.7500000000007C345,748.7500000000007 345,936.8207581968022 650,936.8207581968022L650,980.5707581968022C345,980.5707581968022 345,792.5000000000007 40,792.5000000000007Z" style="stroke: rgb(68, 68, 68); stroke-opacity: 1; fill: rgb(254, 254, 189); fill-opacity: 0.15; stroke-width: 0; opacity: 1;"/><path class="sankey-link" d="M40,597.5000000000007C345,597.5000000000007 345,610.5707581968022 650,610.5707581968022L650,654.3207581968022C345,654.3207581968022 345,641.2500000000007 40,641.2500000000007Z" style="stroke: rgb(68, 68, 68); stroke-opacity: 1; fill: rgb(254, 254, 189); fill-opacity: 0.15; stroke-width: 0; opacity: 1;"/><path class="sankey-link" d="M40,382.5000000000002C345,382.5000000000002 345,523.0707581968022 650,523.0707581968022L650,566.8207581968022C345,566.8207581968022 345,426.2500000000002 40,426.2500000000002Z" style="stroke: rgb(68, 68, 68); stroke-opacity: 1; fill: rgb(254, 254, 189); fill-opacity: 0.15; stroke-width: 0; opacity: 1;"/><path class="sankey-link" d="M40,1175.0000000000005C345,1175.0000000000005 345,1199.3207581968022 650,1199.3207581968022L650,1243.0707581968022C345,1243.0707581968022 345,1218.7500000000005 40,1218.7500000000005Z" style="stroke: rgb(68, 68, 68); stroke-opacity: 1; fill: rgb(254, 254, 189); fill-opacity: 0.15; stroke-width: 0; opacity: 1;"/><path class="sankey-link" d="M40,191.25000000000023C345,191.25000000000023 345,391.8207581968023 650,391.8207581968023L650,435.5707581968023C345,435.5707581968023 345,235.00000000000023 40,235.00000000000023Z" style="stroke: rgb(68, 68, 68); stroke-opacity: 1; fill: rgb(254, 254, 189); fill-opacity: 0.15; stroke-width: 0; opacity: 1;"/><path class="sankey-link" d="M40,1047.5C345,1047.5 345,1111.8207581968022 650,1111.8207581968022L650,1155.5707581968022C345,1155.5707581968022 345,1091.25 40,1091.25Z" style="stroke: rgb(68, 68, 68); stroke-opacity: 1; fill: rgb(254, 254, 189); fill-opacity: 0.15; stroke-width: 0; opacity: 1;"/><path class="sankey-link" d="M40,1625C345,1625 345,1374.3207581968022 650,1374.3207581968022L650,1418.0707581968022C345,1418.0707581968022 345,1668.75 40,1668.75Z" style="stroke: rgb(68, 68, 68); stroke-opacity: 1; fill: rgb(254, 254, 189); fill-opacity: 0.15; stroke-width: 0; opacity: 1;"/><path class="sankey-link" d="M40,533.7500000000002C345,533.7500000000002 345,849.3207581968022 650,849.3207581968022L650,893.0707581968022C345,893.0707581968022 345,577.5000000000002 40,577.5000000000002Z" style="stroke: rgb(68, 68, 68); stroke-opacity: 1; fill: rgb(254, 254, 189); fill-opacity: 0.15; stroke-width: 0; opacity: 1;"/><path class="sankey-link" d="M690,1763.015492281366C995,1763.015492281366 995,1756.2499999996758 1300,1756.2499999996758L1300,1799.9999999996758C995,1799.9999999996758 995,1806.765492281366 690,1806.765492281366Z" style="stroke: rgb(68, 68, 68); stroke-opacity: 1; fill: rgb(207, 207, 207); fill-opacity: 0.25; stroke-width: 0; opacity: 1;"/><path class="sankey-link" d="M690,1481.8207581968022C995,1481.8207581968022 995,1513.3928571428567 1300,1513.3928571428567L1300,1557.1428571428567C995,1557.1428571428567 995,1525.5707581968022 690,1525.5707581968022Z" style="stroke: rgb(68, 68, 68); stroke-opacity: 1; fill: rgb(254, 254, 189); fill-opacity: 0.25; stroke-width: 0; opacity: 1;"/><path class="sankey-link" d="M690,1609.3207581968027C995,1609.3207581968027 995,1668.7499999996758 1300,1668.7499999996758L1300,1756.2499999996758C995,1756.2499999996758 995,1696.8207581968027 690,1696.8207581968027Z" style="stroke: rgb(68, 68, 68); stroke-opacity: 1; fill: rgb(207, 207, 207); fill-opacity: 0.25; stroke-width: 0; opacity: 1;"/><path class="sankey-link" d="M690,1545.5707581968022C995,1545.5707581968022 995,1624.9999999996758 1300,1624.9999999996758L1300,1668.7499999996758C995,1668.7499999996758 995,1589.3207581968022 690,1589.3207581968022Z" style="stroke: rgb(68, 68, 68); stroke-opacity: 1; fill: rgb(207, 207, 207); fill-opacity: 0.25; stroke-width: 0; opacity: 1;"/><path class="sankey-link" d="M690,805.5707581968022C995,805.5707581968022 995,857.1428571428567 1300,857.1428571428567L1300,1513.3928571428567C995,1513.3928571428567 995,1461.8207581968022 690,1461.8207581968022Z" style="stroke: rgb(68, 68, 68); stroke-opacity: 1; fill: rgb(254, 254, 189); fill-opacity: 0.25; stroke-width: 0; opacity: 1;"/><path class="sankey-link" d="M690,260.5707581968022C995,260.5707581968022 995,332.14285714285666 1300,332.14285714285666L1300,857.1428571428567C995,857.1428571428567 995,785.5707581968022 690,785.5707581968022Z" style="stroke: rgb(68, 68, 68); stroke-opacity: 1; fill: rgb(254, 254, 189); fill-opacity: 0.25; stroke-width: 0; opacity: 1;"/></g><g class="sankey-node-set" style="cursor: move;"><g class="sankey-node" transform="translate(0.000,382.500)" style="opacity: 1;"><rect class="node-rect" width="40" height="87.5" style="stroke-width: 0.5; stroke: rgb(68, 68, 68); stroke-opacity: 1; fill: rgb(254, 254, 189); fill-opacity: 0.8;"/><text class="node-label" data-notex="1" x="0" y="0" text-anchor="start" transform="translate(43.25,50.75)" style="cursor: default; font-family: 'Open Sans', verdana, arial, sans-serif; font-size: 20px; fill: rgb(42, 63, 95); fill-opacity: 1; white-space: pre; text-shadow: white 1px 1px 1px, white -1px -1px 1px, white 1px -1px 1px, white -1px 1px 1px;">INO80D</text></g><g class="sankey-node" transform="translate(0.000,490.000)" style="opacity: 1;"><rect class="node-rect" width="40" height="87.50000000000045" style="stroke-width: 0.5; stroke: rgb(68, 68, 68); stroke-opacity: 1; fill: rgb(254, 254, 189); fill-opacity: 0.8;"/><text class="node-label" data-notex="1" x="0" y="0" text-anchor="start" transform="translate(43.25,50.75000000000023)" style="cursor: default; font-family: 'Open Sans', verdana, arial, sans-serif; font-size: 20px; fill: rgb(42, 63, 95); fill-opacity: 1; white-space: pre; text-shadow: white 1px 1px 1px, white -1px -1px 1px, white 1px -1px 1px, white -1px 1px 1px;">SEPTIN11</text></g><g class="sankey-node" transform="translate(0.000,1625.000)" style="opacity: 1;"><rect class="node-rect" width="40" height="87.5" style="stroke-width: 0.5; stroke: rgb(68, 68, 68); stroke-opacity: 1; fill: rgb(230, 230, 198); fill-opacity: 0.8;"/><text class="node-label" data-notex="1" x="0" y="0" text-anchor="start" transform="translate(43.25,50.75)" style="cursor: default; font-family: 'Open Sans', verdana, arial, sans-serif; font-size: 20px; fill: rgb(42, 63, 95); fill-opacity: 1; white-space: pre; text-shadow: white 1px 1px 1px, white -1px -1px 1px, white 1px -1px 1px, white -1px 1px 1px;">CALM2</text></g><g class="sankey-node" transform="translate(0.000,0.000)" style="opacity: 1;"><rect class="node-rect" width="40" height="43.75" style="stroke-width: 0.5; stroke: rgb(68, 68, 68); stroke-opacity: 1; fill: rgb(254, 254, 189); fill-opacity: 0.8;"/><text class="node-label" data-notex="1" x="0" y="0" text-anchor="start" transform="translate(43.25,28.875)" style="cursor: default; font-family: 'Open Sans', verdana, arial, sans-serif; font-size: 20px; fill: rgb(42, 63, 95); fill-opacity: 1; white-space: pre; text-shadow: white 1px 1px 1px, white -1px -1px 1px, white 1px -1px 1px, white -1px 1px 1px;">RABGEF1</text></g><g class="sankey-node" transform="translate(0.000,920.000)" style="opacity: 1;"><rect class="node-rect" width="40" height="43.75" style="stroke-width: 0.5; stroke: rgb(68, 68, 68); stroke-opacity: 1; fill: rgb(254, 254, 189); fill-opacity: 0.8;"/><text class="node-label" data-notex="1" x="0" y="0" text-anchor="start" transform="translate(43.25,28.875)" style="cursor: default; font-family: 'Open Sans', verdana, arial, sans-serif; font-size: 20px; fill: rgb(42, 63, 95); fill-opacity: 1; white-space: pre; text-shadow: white 1px 1px 1px, white -1px -1px 1px, white 1px -1px 1px, white -1px 1px 1px;">MT-ATP6</text></g><g class="sankey-node" transform="translate(0.000,597.500)" style="opacity: 1;"><rect class="node-rect" width="40" height="87.5" style="stroke-width: 0.5; stroke: rgb(68, 68, 68); stroke-opacity: 1; fill: rgb(254, 254, 189); fill-opacity: 0.8;"/><text class="node-label" data-notex="1" x="0" y="0" text-anchor="start" transform="translate(43.25,50.75)" style="cursor: default; font-family: 'Open Sans', verdana, arial, sans-serif; font-size: 20px; fill: rgb(42, 63, 95); fill-opacity: 1; white-space: pre; text-shadow: white 1px 1px 1px, white -1px -1px 1px, white 1px -1px 1px, white -1px 1px 1px;">MRTFB</text></g><g class="sankey-node" transform="translate(0.000,983.750)" style="opacity: 1;"><rect class="node-rect" width="40" height="43.74999999999932" style="stroke-width: 0.5; stroke: rgb(68, 68, 68); stroke-opacity: 1; fill: rgb(254, 254, 189); fill-opacity: 0.8;"/><text class="node-label" data-notex="1" x="0" y="0" text-anchor="start" transform="translate(43.25,28.87499999999966)" style="cursor: default; font-family: 'Open Sans', verdana, arial, sans-serif; font-size: 20px; fill: rgb(42, 63, 95); fill-opacity: 1; white-space: pre; text-shadow: white 1px 1px 1px, white -1px -1px 1px, white 1px -1px 1px, white -1px 1px 1px;">MT-ND3</text></g><g class="sankey-node" transform="translate(0.000,705.000)" style="opacity: 1;"><rect class="node-rect" width="40" height="87.5" style="stroke-width: 0.5; stroke: rgb(68, 68, 68); stroke-opacity: 1; fill: rgb(254, 254, 189); fill-opacity: 0.8;"/><text class="node-label" data-notex="1" x="0" y="0" text-anchor="start" transform="translate(43.25,50.75)" style="cursor: default; font-family: 'Open Sans', verdana, arial, sans-serif; font-size: 20px; fill: rgb(42, 63, 95); fill-opacity: 1; white-space: pre; text-shadow: white 1px 1px 1px, white -1px -1px 1px, white 1px -1px 1px, white -1px 1px 1px;">CTNNA2</text></g><g class="sankey-node" transform="translate(0.000,63.750)" style="opacity: 1;"><rect class="node-rect" width="40" height="43.75" style="stroke-width: 0.5; stroke: rgb(68, 68, 68); stroke-opacity: 1; fill: rgb(254, 254, 189); fill-opacity: 0.8;"/><text class="node-label" data-notex="1" x="0" y="0" text-anchor="start" transform="translate(43.25,28.875)" style="cursor: default; font-family: 'Open Sans', verdana, arial, sans-serif; font-size: 20px; fill: rgb(42, 63, 95); fill-opacity: 1; white-space: pre; text-shadow: white 1px 1px 1px, white -1px -1px 1px, white 1px -1px 1px, white -1px 1px 1px;">MT-ND5</text></g><g class="sankey-node" transform="translate(0.000,1047.500)" style="opacity: 1;"><rect class="node-rect" width="40" height="43.750000000000455" style="stroke-width: 0.5; stroke: rgb(68, 68, 68); stroke-opacity: 1; fill: rgb(254, 254, 189); fill-opacity: 0.8;"/><text class="node-label" data-notex="1" x="0" y="0" text-anchor="start" transform="translate(43.25,28.875000000000227)" style="cursor: default; font-family: 'Open Sans', verdana, arial, sans-serif; font-size: 20px; fill: rgb(42, 63, 95); fill-opacity: 1; white-space: pre; text-shadow: white 1px 1px 1px, white -1px -1px 1px, white 1px -1px 1px, white -1px 1px 1px;">TASOR2</text></g><g class="sankey-node" transform="translate(0.000,1111.250)" style="opacity: 1;"><rect class="node-rect" width="40" height="43.75" style="stroke-width: 0.5; stroke: rgb(68, 68, 68); stroke-opacity: 1; fill: rgb(254, 254, 189); fill-opacity: 0.8;"/><text class="node-label" data-notex="1" x="0" y="0" text-anchor="start" transform="translate(43.25,28.875)" style="cursor: default; font-family: 'Open Sans', verdana, arial, sans-serif; font-size: 20px; fill: rgb(42, 63, 95); fill-opacity: 1; white-space: pre; text-shadow: white 1px 1px 1px, white -1px -1px 1px, white 1px -1px 1px, white -1px 1px 1px;">CDK19</text></g><g class="sankey-node" transform="translate(0.000,127.500)" style="opacity: 1;"><rect class="node-rect" width="40" height="43.75" style="stroke-width: 0.5; stroke: rgb(68, 68, 68); stroke-opacity: 1; fill: rgb(254, 254, 189); fill-opacity: 0.8;"/><text class="node-label" data-notex="1" x="0" y="0" text-anchor="start" transform="translate(43.25,28.875)" style="cursor: default; font-family: 'Open Sans', verdana, arial, sans-serif; font-size: 20px; fill: rgb(42, 63, 95); fill-opacity: 1; white-space: pre; text-shadow: white 1px 1px 1px, white -1px -1px 1px, white 1px -1px 1px, white -1px 1px 1px;">BCAS3</text></g><g class="sankey-node" transform="translate(0.000,1175.000)" style="opacity: 1;"><rect class="node-rect" width="40" height="43.75000000000091" style="stroke-width: 0.5; stroke: rgb(68, 68, 68); stroke-opacity: 1; fill: rgb(254, 254, 189); fill-opacity: 0.8;"/><text class="node-label" data-notex="1" x="0" y="0" text-anchor="start" transform="translate(43.25,28.875000000000455)" style="cursor: default; font-family: 'Open Sans', verdana, arial, sans-serif; font-size: 20px; fill: rgb(42, 63, 95); fill-opacity: 1; white-space: pre; text-shadow: white 1px 1px 1px, white -1px -1px 1px, white 1px -1px 1px, white -1px 1px 1px;">SEPTIN7</text></g><g class="sankey-node" transform="translate(0.000,1430.000)" style="opacity: 1;"><rect class="node-rect" width="40" height="174.99999999999955" style="stroke-width: 0.5; stroke: rgb(68, 68, 68); stroke-opacity: 1; fill: rgb(230, 230, 198); fill-opacity: 0.8;"/><text class="node-label" data-notex="1" x="0" y="0" text-anchor="start" transform="translate(43.25,94.49999999999977)" style="cursor: default; font-family: 'Open Sans', verdana, arial, sans-serif; font-size: 20px; fill: rgb(42, 63, 95); fill-opacity: 1; white-space: pre; text-shadow: white 1px 1px 1px, white -1px -1px 1px, white 1px -1px 1px, white -1px 1px 1px;">SRSF7</text></g><g class="sankey-node" transform="translate(0.000,191.250)" style="opacity: 1;"><rect class="node-rect" width="40" height="43.75" style="stroke-width: 0.5; stroke: rgb(68, 68, 68); stroke-opacity: 1; fill: rgb(254, 254, 189); fill-opacity: 0.8;"/><text class="node-label" data-notex="1" x="0" y="0" text-anchor="start" transform="translate(43.25,28.875)" style="cursor: default; font-family: 'Open Sans', verdana, arial, sans-serif; font-size: 20px; fill: rgb(42, 63, 95); fill-opacity: 1; white-space: pre; text-shadow: white 1px 1px 1px, white -1px -1px 1px, white 1px -1px 1px, white -1px 1px 1px;">COL18A1</text></g><g class="sankey-node" transform="translate(0.000,812.500)" style="opacity: 1;"><rect class="node-rect" width="40" height="87.5" style="stroke-width: 0.5; stroke: rgb(68, 68, 68); stroke-opacity: 1; fill: rgb(254, 254, 189); fill-opacity: 0.8;"/><text class="node-label" data-notex="1" x="0" y="0" text-anchor="start" transform="translate(43.25,50.75)" style="cursor: default; font-family: 'Open Sans', verdana, arial, sans-serif; font-size: 20px; fill: rgb(42, 63, 95); fill-opacity: 1; white-space: pre; text-shadow: white 1px 1px 1px, white -1px -1px 1px, white 1px -1px 1px, white -1px 1px 1px;">SPECC1L</text></g><g class="sankey-node" transform="translate(0.000,1238.750)" style="opacity: 1;"><rect class="node-rect" width="40" height="43.74999999999909" style="stroke-width: 0.5; stroke: rgb(68, 68, 68); stroke-opacity: 1; fill: rgb(254, 254, 189); fill-opacity: 0.8;"/><text class="node-label" data-notex="1" x="0" y="0" text-anchor="start" transform="translate(43.25,28.874999999999545)" style="cursor: default; font-family: 'Open Sans', verdana, arial, sans-serif; font-size: 20px; fill: rgb(42, 63, 95); fill-opacity: 1; white-space: pre; text-shadow: white 1px 1px 1px, white -1px -1px 1px, white 1px -1px 1px, white -1px 1px 1px;">MIB1</text></g><g class="sankey-node" transform="translate(0.000,255.000)" style="opacity: 1;"><rect class="node-rect" width="40" height="43.75" style="stroke-width: 0.5; stroke: rgb(68, 68, 68); stroke-opacity: 1; fill: rgb(254, 254, 189); fill-opacity: 0.8;"/><text class="node-label" data-notex="1" x="0" y="0" text-anchor="start" transform="translate(43.25,28.875)" style="cursor: default; font-family: 'Open Sans', verdana, arial, sans-serif; font-size: 20px; fill: rgb(42, 63, 95); fill-opacity: 1; white-space: pre; text-shadow: white 1px 1px 1px, white -1px -1px 1px, white 1px -1px 1px, white -1px 1px 1px;">CEBPD</text></g><g class="sankey-node" transform="translate(0.000,1366.250)" style="opacity: 1;"><rect class="node-rect" width="40" height="43.749999999999545" style="stroke-width: 0.5; stroke: rgb(68, 68, 68); stroke-opacity: 1; fill: rgb(254, 254, 189); fill-opacity: 0.8;"/><text class="node-label" data-notex="1" x="0" y="0" text-anchor="start" transform="translate(43.25,28.874999999999773)" style="cursor: default; font-family: 'Open Sans', verdana, arial, sans-serif; font-size: 20px; fill: rgb(42, 63, 95); fill-opacity: 1; white-space: pre; text-shadow: white 1px 1px 1px, white -1px -1px 1px, white 1px -1px 1px, white -1px 1px 1px;">PRKCA</text></g><g class="sankey-node" transform="translate(0.000,318.750)" style="opacity: 1;"><rect class="node-rect" width="40" height="43.75" style="stroke-width: 0.5; stroke: rgb(68, 68, 68); stroke-opacity: 1; fill: rgb(254, 254, 189); fill-opacity: 0.8;"/><text class="node-label" data-notex="1" x="0" y="0" text-anchor="start" transform="translate(43.25,28.875)" style="cursor: default; font-family: 'Open Sans', verdana, arial, sans-serif; font-size: 20px; fill: rgb(42, 63, 95); fill-opacity: 1; white-space: pre; text-shadow: white 1px 1px 1px, white -1px -1px 1px, white 1px -1px 1px, white -1px 1px 1px;">FHL2</text></g><g class="sankey-node" transform="translate(0.000,1302.500)" style="opacity: 1;"><rect class="node-rect" width="40" height="43.750000000000455" style="stroke-width: 0.5; stroke: rgb(68, 68, 68); stroke-opacity: 1; fill: rgb(254, 254, 189); fill-opacity: 0.8;"/><text class="node-label" data-notex="1" x="0" y="0" text-anchor="start" transform="translate(43.25,28.875000000000227)" style="cursor: default; font-family: 'Open Sans', verdana, arial, sans-serif; font-size: 20px; fill: rgb(42, 63, 95); fill-opacity: 1; white-space: pre; text-shadow: white 1px 1px 1px, white -1px -1px 1px, white 1px -1px 1px, white -1px 1px 1px;">LPP</text></g><g class="sankey-node" transform="translate(0.000,1732.500)" style="opacity: 1;"><rect class="node-rect" width="40" height="87.5" style="stroke-width: 0.5; stroke: rgb(68, 68, 68); stroke-opacity: 1; fill: rgb(230, 230, 198); fill-opacity: 0.8;"/><text class="node-label" data-notex="1" x="0" y="0" text-anchor="start" transform="translate(43.25,50.75)" style="cursor: default; font-family: 'Open Sans', verdana, arial, sans-serif; font-size: 20px; fill: rgb(42, 63, 95); fill-opacity: 1; white-space: pre; text-shadow: white 1px 1px 1px, white -1px -1px 1px, white 1px -1px 1px, white -1px 1px 1px;">RBFOX1</text></g><g class="sankey-node" transform="translate(650.000,260.571)" style="opacity: 1;"><rect class="node-rect" width="40" height="525" style="stroke-width: 0.5; stroke: rgb(68, 68, 68); stroke-opacity: 1; fill: rgb(254, 254, 189); fill-opacity: 0.8;"/><text class="node-label" data-notex="1" x="0" y="0" text-anchor="start" transform="translate(43.25,269.5)" style="cursor: default; font-family: 'Open Sans', verdana, arial, sans-serif; font-size: 20px; fill: rgb(42, 63, 95); fill-opacity: 1; white-space: pre; text-shadow: white 1px 1px 1px, white -1px -1px 1px, white 1px -1px 1px, white -1px 1px 1px;">ESR1</text></g><g class="sankey-node" transform="translate(650.000,805.571)" style="opacity: 1;"><rect class="node-rect" width="40" height="656.25" style="stroke-width: 0.5; stroke: rgb(68, 68, 68); stroke-opacity: 1; fill: rgb(254, 254, 189); fill-opacity: 0.8;"/><text class="node-label" data-notex="1" x="0" y="0" text-anchor="start" transform="translate(43.25,335.125)" style="cursor: default; font-family: 'Open Sans', verdana, arial, sans-serif; font-size: 20px; fill: rgb(42, 63, 95); fill-opacity: 1; white-space: pre; text-shadow: white 1px 1px 1px, white -1px -1px 1px, white 1px -1px 1px, white -1px 1px 1px;">ESR2</text></g><g class="sankey-node" transform="translate(650.000,1763.015)" style="opacity: 1;"><rect class="node-rect" width="40" height="43.75000000000023" style="stroke-width: 0.5; stroke: rgb(68, 68, 68); stroke-opacity: 1; fill: rgb(207, 207, 207); fill-opacity: 0.8;"/><text class="node-label" data-notex="1" x="0" y="0" text-anchor="start" transform="translate(43.25,28.875000000000114)" style="cursor: default; font-family: 'Open Sans', verdana, arial, sans-serif; font-size: 20px; fill: rgb(42, 63, 95); fill-opacity: 1; white-space: pre; text-shadow: white 1px 1px 1px, white -1px -1px 1px, white 1px -1px 1px, white -1px 1px 1px;">IL1B</text></g><g class="sankey-node" transform="translate(650.000,1481.821)" style="opacity: 1;"><rect class="node-rect" width="40" height="43.75" style="stroke-width: 0.5; stroke: rgb(68, 68, 68); stroke-opacity: 1; fill: rgb(254, 254, 189); fill-opacity: 0.8;"/><text class="node-label" data-notex="1" x="0" y="0" text-anchor="start" transform="translate(43.25,28.875)" style="cursor: default; font-family: 'Open Sans', verdana, arial, sans-serif; font-size: 20px; fill: rgb(42, 63, 95); fill-opacity: 1; white-space: pre; text-shadow: white 1px 1px 1px, white -1px -1px 1px, white 1px -1px 1px, white -1px 1px 1px;">NR1I2</text></g><g class="sankey-node" transform="translate(650.000,1609.321)" style="opacity: 1;"><rect class="node-rect" width="40" height="87.5" style="stroke-width: 0.5; stroke: rgb(68, 68, 68); stroke-opacity: 1; fill: rgb(207, 207, 207); fill-opacity: 0.8;"/><text class="node-label" data-notex="1" x="0" y="0" text-anchor="start" transform="translate(43.25,50.75)" style="cursor: default; font-family: 'Open Sans', verdana, arial, sans-serif; font-size: 20px; fill: rgb(42, 63, 95); fill-opacity: 1; white-space: pre; text-shadow: white 1px 1px 1px, white -1px -1px 1px, white 1px -1px 1px, white -1px 1px 1px;">TNF</text></g><g class="sankey-node" transform="translate(650.000,1545.571)" style="opacity: 1;"><rect class="node-rect" width="40" height="43.750000000000455" style="stroke-width: 0.5; stroke: rgb(68, 68, 68); stroke-opacity: 1; fill: rgb(207, 207, 207); fill-opacity: 0.8;"/><text class="node-label" data-notex="1" x="0" y="0" text-anchor="start" transform="translate(43.25,28.875000000000227)" style="cursor: default; font-family: 'Open Sans', verdana, arial, sans-serif; font-size: 20px; fill: rgb(42, 63, 95); fill-opacity: 1; white-space: pre; text-shadow: white 1px 1px 1px, white -1px -1px 1px, white 1px -1px 1px, white -1px 1px 1px;">MAPK14</text></g><g class="sankey-node" transform="translate(1300.000,332.143)" style="opacity: 1;"><rect class="node-rect" width="40" height="1224.9999999999998" style="stroke-width: 0.5; stroke: rgb(68, 68, 68); stroke-opacity: 1; fill: rgb(254, 254, 189); fill-opacity: 0.8;"/><text class="node-label" data-notex="1" x="0" y="0" text-anchor="end" transform="translate(-3.25,619.4999999999999)" style="cursor: default; font-family: 'Open Sans', verdana, arial, sans-serif; font-size: 20px; fill: rgb(42, 63, 95); fill-opacity: 1; white-space: pre; text-shadow: white 1px 1px 1px, white -1px -1px 1px, white 1px -1px 1px, white -1px 1px 1px;"><tspan style="font-weight:bold">DB00783</tspan> (Estradiol, IGSEA FDR: 0.00557)</text></g><g class="sankey-node" transform="translate(1300.000,1625.000)" style="opacity: 1;"><rect class="node-rect" width="40" height="175" style="stroke-width: 0.5; stroke: rgb(68, 68, 68); stroke-opacity: 1; fill: rgb(207, 207, 207); fill-opacity: 0.8;"/><text class="node-label" data-notex="1" x="0" y="0" text-anchor="end" transform="translate(-3.25,94.5)" style="cursor: default; font-family: 'Open Sans', verdana, arial, sans-serif; font-size: 20px; fill: rgb(42, 63, 95); fill-opacity: 1; white-space: pre; text-shadow: white 1px 1px 1px, white -1px -1px 1px, white 1px -1px 1px, white -1px 1px 1px;"><tspan style="font-weight:bold">DB05412</tspan> (Talmapimod, IGSEA FDR: 0.00944)</text></g></g></g><defs id="topdefs-ad9481"><g class="clips"/></defs><g class="layer-above"><g class="imagelayer"/><g class="shapelayer"/></g><g class="infolayer"><g class="g-gtitle"/><g class="first-render"/></g></svg>