<?xml version="1.0" encoding="utf-8" standalone="no"?>
<!DOCTYPE svg PUBLIC "-//W3C//DTD SVG 1.1//EN"
  "http://www.w3.org/Graphics/SVG/1.1/DTD/svg11.dtd">
<svg xmlns:xlink="http://www.w3.org/1999/xlink" width="640.579375pt" height="325.986375pt" viewBox="0 0 640.579375 325.986375" xmlns="http://www.w3.org/2000/svg" version="1.1">
 <metadata>
  <rdf:RDF xmlns:dc="http://purl.org/dc/elements/1.1/" xmlns:cc="http://creativecommons.org/ns#" xmlns:rdf="http://www.w3.org/1999/02/22-rdf-syntax-ns#">
   <cc:Work>
    <dc:type rdf:resource="http://purl.org/dc/dcmitype/StillImage"/>
    <dc:date>2025-12-12T08:23:47.473773</dc:date>
    <dc:format>image/svg+xml</dc:format>
    <dc:creator>
     <cc:Agent>
      <dc:title>Matplotlib v3.10.7, https://matplotlib.org/</dc:title>
     </cc:Agent>
    </dc:creator>
   </cc:Work>
  </rdf:RDF>
 </metadata>
 <defs>
  <style type="text/css">*{stroke-linejoin: round; stroke-linecap: butt}</style>
 </defs>
 <g id="figure_1">
  <g id="patch_1">
   <path d="M 0 325.986375 
L 640.579375 325.986375 
L 640.579375 0 
L 0 0 
z
" style="fill: #ffffff"/>
  </g>
  <g id="axes_1">
   <g id="patch_2">
    <path d="M 180.020312 288.430125 
L 537.140312 288.430125 
L 537.140312 22.318125 
L 180.020312 22.318125 
z
" style="fill: #ffffff"/>
   </g>
   <g id="PathCollection_1">
    <path d="M 520.907585 37.068183 
C 521.61145 37.068183 522.28658 36.788535 522.784288 36.290828 
C 523.281995 35.79312 523.561643 35.117989 523.561643 34.414125 
C 523.561643 33.710261 523.281995 33.03513 522.784288 32.537422 
C 522.28658 32.039715 521.61145 31.760067 520.907585 31.760067 
C 520.203721 31.760067 519.52859 32.039715 519.030883 32.537422 
C 518.533175 33.03513 518.253527 33.710261 518.253527 34.414125 
C 518.253527 35.117989 518.533175 35.79312 519.030883 36.290828 
C 519.52859 36.788535 520.203721 37.068183 520.907585 37.068183 
z
" clip-path="url(#p3b80c69023)" style="fill: #688aef; stroke: #ffffff; stroke-width: 0.371406"/>
    <path d="M 455.045235 50.662221 
C 455.977547 50.662221 456.871799 50.29181 457.531044 49.632565 
C 458.190288 48.973321 458.560699 48.079069 458.560699 47.146757 
C 458.560699 46.214444 458.190288 45.320192 457.531044 44.660948 
C 456.871799 44.001704 455.977547 43.631292 455.045235 43.631292 
C 454.112923 43.631292 453.21867 44.001704 452.559426 44.660948 
C 451.900182 45.320192 451.52977 46.214444 451.52977 47.146757 
C 451.52977 48.079069 451.900182 48.973321 452.559426 49.632565 
C 453.21867 50.29181 454.112923 50.662221 455.045235 50.662221 
z
" clip-path="url(#p3b80c69023)" style="fill: #adc9fd; stroke: #ffffff; stroke-width: 0.371406"/>
    <path d="M 450.68501 64.478062 
C 451.904592 64.478062 453.074388 63.993516 453.936763 63.131141 
C 454.799138 62.268766 455.283683 61.098971 455.283683 59.879388 
C 455.283683 58.659806 454.799138 57.49001 453.936763 56.627635 
C 453.074388 55.76526 451.904592 55.280715 450.68501 55.280715 
C 449.465427 55.280715 448.295631 55.76526 447.433256 56.627635 
C 446.570881 57.49001 446.086336 58.659806 446.086336 59.879388 
C 446.086336 61.098971 446.570881 62.268766 447.433256 63.131141 
C 448.295631 63.993516 449.465427 64.478062 450.68501 64.478062 
z
" clip-path="url(#p3b80c69023)" style="fill: #f7aa8c; stroke: #ffffff; stroke-width: 0.371406"/>
    <path d="M 403.862898 74.937704 
C 404.479677 74.937704 405.071276 74.692655 405.507405 74.256527 
C 405.943533 73.820398 406.188582 73.228798 406.188582 72.61202 
C 406.188582 71.995241 405.943533 71.403641 405.507405 70.967513 
C 405.071276 70.531385 404.479677 70.286336 403.862898 70.286336 
C 403.246119 70.286336 402.654519 70.531385 402.218391 70.967513 
C 401.782263 71.403641 401.537214 71.995241 401.537214 72.61202 
C 401.537214 73.228798 401.782263 73.820398 402.218391 74.256527 
C 402.654519 74.692655 403.246119 74.937704 403.862898 74.937704 
z
" clip-path="url(#p3b80c69023)" style="fill: #445acc; stroke: #ffffff; stroke-width: 0.371406"/>
    <path d="M 381.60269 87.625967 
C 382.207702 87.625967 382.788016 87.385593 383.215824 86.957785 
C 383.643632 86.529977 383.884006 85.949663 383.884006 85.344651 
C 383.884006 84.739639 383.643632 84.159325 383.215824 83.731517 
C 382.788016 83.303709 382.207702 83.063335 381.60269 83.063335 
C 380.997678 83.063335 380.417364 83.303709 379.989556 83.731517 
C 379.561748 84.159325 379.321374 84.739639 379.321374 85.344651 
C 379.321374 85.949663 379.561748 86.529977 379.989556 86.957785 
C 380.417364 87.385593 380.997678 87.625967 381.60269 87.625967 
z
" clip-path="url(#p3b80c69023)" style="fill: #3f53c6; stroke: #ffffff; stroke-width: 0.371406"/>
    <path d="M 363.480504 100.988441 
C 364.252552 100.988441 364.993083 100.681703 365.539004 100.135783 
C 366.084924 99.589862 366.391662 98.849331 366.391662 98.077283 
C 366.391662 97.305235 366.084924 96.564704 365.539004 96.018783 
C 364.993083 95.472863 364.252552 95.166125 363.480504 95.166125 
C 362.708456 95.166125 361.967925 95.472863 361.422004 96.018783 
C 360.876083 96.564704 360.569345 97.305235 360.569345 98.077283 
C 360.569345 98.849331 360.876083 99.589862 361.422004 100.135783 
C 361.967925 100.681703 362.708456 100.988441 363.480504 100.988441 
z
" clip-path="url(#p3b80c69023)" style="fill: #6180e9; stroke: #ffffff; stroke-width: 0.371406"/>
    <path d="M 346.312117 113.045982 
C 346.905129 113.045982 347.473933 112.810376 347.893256 112.391053 
C 348.312578 111.97173 348.548185 111.402927 348.548185 110.809914 
C 348.548185 110.216902 348.312578 109.648099 347.893256 109.228776 
C 347.473933 108.809453 346.905129 108.573846 346.312117 108.573846 
C 345.719105 108.573846 345.150301 108.809453 344.730978 109.228776 
C 344.311655 109.648099 344.076049 110.216902 344.076049 110.809914 
C 344.076049 111.402927 344.311655 111.97173 344.730978 112.391053 
C 345.150301 112.810376 345.719105 113.045982 346.312117 113.045982 
z
" clip-path="url(#p3b80c69023)" style="fill: #3b4cc0; stroke: #ffffff; stroke-width: 0.371406"/>
    <path d="M 316.322702 127.5727 
C 317.391512 127.5727 318.416689 127.148057 319.172451 126.392295 
C 319.928214 125.636533 320.352856 124.611355 320.352856 123.542546 
C 320.352856 122.473737 319.928214 121.448559 319.172451 120.692797 
C 318.416689 119.937035 317.391512 119.512392 316.322702 119.512392 
C 315.253893 119.512392 314.228716 119.937035 313.472953 120.692797 
C 312.717191 121.448559 312.292549 122.473737 312.292549 123.542546 
C 312.292549 124.611355 312.717191 125.636533 313.472953 126.392295 
C 314.228716 127.148057 315.253893 127.5727 316.322702 127.5727 
z
" clip-path="url(#p3b80c69023)" style="fill: #aec9fc; stroke: #ffffff; stroke-width: 0.371406"/>
    <path d="M 315.023567 138.929236 
C 315.727432 138.929236 316.402562 138.649588 316.90027 138.15188 
C 317.397977 137.654173 317.677625 136.979042 317.677625 136.275178 
C 317.677625 135.571313 317.397977 134.896182 316.90027 134.398475 
C 316.402562 133.900768 315.727432 133.621119 315.023567 133.621119 
C 314.319703 133.621119 313.644572 133.900768 313.146864 134.398475 
C 312.649157 134.896182 312.369509 135.571313 312.369509 136.275178 
C 312.369509 136.979042 312.649157 137.654173 313.146864 138.15188 
C 313.644572 138.649588 314.319703 138.929236 315.023567 138.929236 
z
" clip-path="url(#p3b80c69023)" style="fill: #4a63d3; stroke: #ffffff; stroke-width: 0.371406"/>
    <path d="M 298.628953 155.131534 
C 300.252984 155.131534 301.810717 154.486299 302.95908 153.337936 
C 304.107443 152.189573 304.752678 150.63184 304.752678 149.007809 
C 304.752678 147.383779 304.107443 145.826045 302.95908 144.677682 
C 301.810717 143.529319 300.252984 142.884085 298.628953 142.884085 
C 297.004923 142.884085 295.447189 143.529319 294.298826 144.677682 
C 293.150463 145.826045 292.505229 147.383779 292.505229 149.007809 
C 292.505229 150.63184 293.150463 152.189573 294.298826 153.337936 
C 295.447189 154.486299 297.004923 155.131534 298.628953 155.131534 
z
" clip-path="url(#p3b80c69023)" style="fill: #b40426; stroke: #ffffff; stroke-width: 0.371406"/>
    <path d="M 274.984079 165.284858 
C 275.92407 165.284858 276.825687 164.911396 277.490361 164.246722 
C 278.155034 163.582049 278.528497 162.680431 278.528497 161.740441 
C 278.528497 160.80045 278.155034 159.898833 277.490361 159.234159 
C 276.825687 158.569486 275.92407 158.196024 274.984079 158.196024 
C 274.044089 158.196024 273.142472 158.569486 272.477798 159.234159 
C 271.813124 159.898833 271.439662 160.80045 271.439662 161.740441 
C 271.439662 162.680431 271.813124 163.582049 272.477798 164.246722 
C 273.142472 164.911396 274.044089 165.284858 274.984079 165.284858 
z
" clip-path="url(#p3b80c69023)" style="fill: #799cf8; stroke: #ffffff; stroke-width: 0.371406"/>
    <path d="M 272.172257 177.313149 
C 272.925454 177.313149 273.647903 177.013901 274.180494 176.48131 
C 274.713085 175.948719 275.012334 175.22627 275.012334 174.473072 
C 275.012334 173.719875 274.713085 172.997425 274.180494 172.464835 
C 273.647903 171.932244 272.925454 171.632995 272.172257 171.632995 
C 271.419059 171.632995 270.69661 171.932244 270.164019 172.464835 
C 269.631428 172.997425 269.332179 173.719875 269.332179 174.473072 
C 269.332179 175.22627 269.631428 175.948719 270.164019 176.48131 
C 270.69661 177.013901 271.419059 177.313149 272.172257 177.313149 
z
" clip-path="url(#p3b80c69023)" style="fill: #4c66d6; stroke: #ffffff; stroke-width: 0.371406"/>
    <path d="M 270.084478 189.820971 
C 270.778055 189.820971 271.443318 189.54541 271.933751 189.054977 
C 272.424184 188.564544 272.699745 187.899281 272.699745 187.205704 
C 272.699745 186.512127 272.424184 185.846864 271.933751 185.356431 
C 271.443318 184.865998 270.778055 184.590437 270.084478 184.590437 
C 269.390901 184.590437 268.725638 184.865998 268.235205 185.356431 
C 267.744772 185.846864 267.469211 186.512127 267.469211 187.205704 
C 267.469211 187.899281 267.744772 188.564544 268.235205 189.054977 
C 268.725638 189.54541 269.390901 189.820971 270.084478 189.820971 
z
" clip-path="url(#p3b80c69023)" style="fill: #4358cb; stroke: #ffffff; stroke-width: 0.371406"/>
    <path d="M 266.546917 205.102313 
C 267.91642 205.102313 269.230016 204.558204 270.198401 203.589819 
C 271.166786 202.621434 271.710895 201.307838 271.710895 199.938336 
C 271.710895 198.568833 271.166786 197.255237 270.198401 196.286852 
C 269.230016 195.318467 267.91642 194.774358 266.546917 194.774358 
C 265.177414 194.774358 263.863818 195.318467 262.895433 196.286852 
C 261.927048 197.255237 261.382939 198.568833 261.382939 199.938336 
C 261.382939 201.307838 261.927048 202.621434 262.895433 203.589819 
C 263.863818 204.558204 265.177414 205.102313 266.546917 205.102313 
z
" clip-path="url(#p3b80c69023)" style="fill: #f0cdbb; stroke: #ffffff; stroke-width: 0.371406"/>
    <path d="M 261.326654 215.785651 
C 262.152678 215.785651 262.944981 215.457469 263.529068 214.873381 
C 264.113156 214.289294 264.441338 213.496991 264.441338 212.670967 
C 264.441338 211.844943 264.113156 211.05264 263.529068 210.468553 
C 262.944981 209.884466 262.152678 209.556283 261.326654 209.556283 
C 260.50063 209.556283 259.708327 209.884466 259.12424 210.468553 
C 258.540153 211.05264 258.21197 211.844943 258.21197 212.670967 
C 258.21197 213.496991 258.540153 214.289294 259.12424 214.873381 
C 259.708327 215.457469 260.50063 215.785651 261.326654 215.785651 
z
" clip-path="url(#p3b80c69023)" style="fill: #5977e3; stroke: #ffffff; stroke-width: 0.371406"/>
    <path d="M 240.951854 228.384144 
C 241.742304 228.384144 242.500485 228.070095 243.059418 227.511162 
C 243.61835 226.95223 243.932399 226.194048 243.932399 225.403599 
C 243.932399 224.613149 243.61835 223.854968 243.059418 223.296035 
C 242.500485 222.737103 241.742304 222.423054 240.951854 222.423054 
C 240.161404 222.423054 239.403223 222.737103 238.844291 223.296035 
C 238.285358 223.854968 237.971309 224.613149 237.971309 225.403599 
C 237.971309 226.194048 238.285358 226.95223 238.844291 227.511162 
C 239.403223 228.070095 240.161404 228.384144 240.951854 228.384144 
z
" clip-path="url(#p3b80c69023)" style="fill: #4e68d8; stroke: #ffffff; stroke-width: 0.371406"/>
    <path d="M 239.842251 240.903401 
C 240.576113 240.903401 241.280017 240.611834 241.798936 240.092915 
C 242.317855 239.573996 242.609422 238.870092 242.609422 238.13623 
C 242.609422 237.402368 242.317855 236.698464 241.798936 236.179545 
C 241.280017 235.660626 240.576113 235.36906 239.842251 235.36906 
C 239.108389 235.36906 238.404485 235.660626 237.885566 236.179545 
C 237.366647 236.698464 237.075081 237.402368 237.075081 238.13623 
C 237.075081 238.870092 237.366647 239.573996 237.885566 240.092915 
C 238.404485 240.611834 239.108389 240.903401 239.842251 240.903401 
z
" clip-path="url(#p3b80c69023)" style="fill: #445acc; stroke: #ffffff; stroke-width: 0.371406"/>
    <path d="M 218.542143 254.325694 
C 219.458906 254.325694 220.338243 253.96146 220.986492 253.313211 
C 221.634741 252.664962 221.998975 251.785624 221.998975 250.868862 
C 221.998975 249.952099 221.634741 249.072762 220.986492 248.424513 
C 220.338243 247.776264 219.458906 247.41203 218.542143 247.41203 
C 217.625381 247.41203 216.746043 247.776264 216.097794 248.424513 
C 215.449545 249.072762 215.085311 249.952099 215.085311 250.868862 
C 215.085311 251.785624 215.449545 252.664962 216.097794 253.313211 
C 216.746043 253.96146 217.625381 254.325694 218.542143 254.325694 
z
" clip-path="url(#p3b80c69023)" style="fill: #6180e9; stroke: #ffffff; stroke-width: 0.371406"/>
    <path d="M 206.959596 268.155502 
C 208.167333 268.155502 209.325767 267.675663 210.179766 266.821664 
C 211.033765 265.967665 211.513605 264.809231 211.513605 263.601493 
C 211.513605 262.393756 211.033765 261.235322 210.179766 260.381323 
C 209.325767 259.527324 208.167333 259.047485 206.959596 259.047485 
C 205.751859 259.047485 204.593425 259.527324 203.739426 260.381323 
C 202.885427 261.235322 202.405587 262.393756 202.405587 263.601493 
C 202.405587 264.809231 202.885427 265.967665 203.739426 266.821664 
C 204.593425 267.675663 205.751859 268.155502 206.959596 268.155502 
z
" clip-path="url(#p3b80c69023)" style="fill: #a7c5fe; stroke: #ffffff; stroke-width: 0.371406"/>
    <path d="M 196.25304 281.57667 
C 197.643379 281.57667 198.976961 281.024282 199.960079 280.041164 
C 200.943197 279.058046 201.495585 277.724464 201.495585 276.334125 
C 201.495585 274.943786 200.943197 273.610204 199.960079 272.627086 
C 198.976961 271.643968 197.643379 271.09158 196.25304 271.09158 
C 194.862701 271.09158 193.529119 271.643968 192.546001 272.627086 
C 191.562883 273.610204 191.010495 274.943786 191.010495 276.334125 
C 191.010495 277.724464 191.562883 279.058046 192.546001 280.041164 
C 193.529119 281.024282 194.862701 281.57667 196.25304 281.57667 
z
" clip-path="url(#p3b80c69023)" style="fill: #d4dbe6; stroke: #ffffff; stroke-width: 0.371406"/>
   </g>
   <g id="matplotlib.axis_1">
    <g id="xtick_1">
     <g id="line2d_1">
      <defs>
       <path id="mf1370d2189" d="M 0 0 
L 0 3.5 
" style="stroke: #000000; stroke-width: 0.8"/>
      </defs>
      <g>
       <use xlink:href="#mf1370d2189" x="200.782537" y="288.430125" style="stroke: #000000; stroke-width: 0.8"/>
      </g>
     </g>
     <g id="text_1">
      <!-- 2.4 -->
      <g transform="translate(192.830975 303.028562) scale(0.1 -0.1)">
       <defs>
        <path id="DejaVuSans-32" d="M 1228 531 
L 3431 531 
L 3431 0 
L 469 0 
L 469 531 
Q 828 903 1448 1529 
Q 2069 2156 2228 2338 
Q 2531 2678 2651 2914 
Q 2772 3150 2772 3378 
Q 2772 3750 2511 3984 
Q 2250 4219 1831 4219 
Q 1534 4219 1204 4116 
Q 875 4013 500 3803 
L 500 4441 
Q 881 4594 1212 4672 
Q 1544 4750 1819 4750 
Q 2544 4750 2975 4387 
Q 3406 4025 3406 3419 
Q 3406 3131 3298 2873 
Q 3191 2616 2906 2266 
Q 2828 2175 2409 1742 
Q 1991 1309 1228 531 
z
" transform="scale(0.015625)"/>
        <path id="DejaVuSans-2e" d="M 684 794 
L 1344 794 
L 1344 0 
L 684 0 
L 684 794 
z
" transform="scale(0.015625)"/>
        <path id="DejaVuSans-34" d="M 2419 4116 
L 825 1625 
L 2419 1625 
L 2419 4116 
z
M 2253 4666 
L 3047 4666 
L 3047 1625 
L 3713 1625 
L 3713 1100 
L 3047 1100 
L 3047 0 
L 2419 0 
L 2419 1100 
L 313 1100 
L 313 1709 
L 2253 4666 
z
" transform="scale(0.015625)"/>
       </defs>
       <use xlink:href="#DejaVuSans-32"/>
       <use xlink:href="#DejaVuSans-2e" transform="translate(63.623047 0)"/>
       <use xlink:href="#DejaVuSans-34" transform="translate(95.410156 0)"/>
      </g>
     </g>
    </g>
    <g id="xtick_2">
     <g id="line2d_2">
      <g>
       <use xlink:href="#mf1370d2189" x="253.354457" y="288.430125" style="stroke: #000000; stroke-width: 0.8"/>
      </g>
     </g>
     <g id="text_2">
      <!-- 2.6 -->
      <g transform="translate(245.402895 303.028562) scale(0.1 -0.1)">
       <defs>
        <path id="DejaVuSans-36" d="M 2113 2584 
Q 1688 2584 1439 2293 
Q 1191 2003 1191 1497 
Q 1191 994 1439 701 
Q 1688 409 2113 409 
Q 2538 409 2786 701 
Q 3034 994 3034 1497 
Q 3034 2003 2786 2293 
Q 2538 2584 2113 2584 
z
M 3366 4563 
L 3366 3988 
Q 3128 4100 2886 4159 
Q 2644 4219 2406 4219 
Q 1781 4219 1451 3797 
Q 1122 3375 1075 2522 
Q 1259 2794 1537 2939 
Q 1816 3084 2150 3084 
Q 2853 3084 3261 2657 
Q 3669 2231 3669 1497 
Q 3669 778 3244 343 
Q 2819 -91 2113 -91 
Q 1303 -91 875 529 
Q 447 1150 447 2328 
Q 447 3434 972 4092 
Q 1497 4750 2381 4750 
Q 2619 4750 2861 4703 
Q 3103 4656 3366 4563 
z
" transform="scale(0.015625)"/>
       </defs>
       <use xlink:href="#DejaVuSans-32"/>
       <use xlink:href="#DejaVuSans-2e" transform="translate(63.623047 0)"/>
       <use xlink:href="#DejaVuSans-36" transform="translate(95.410156 0)"/>
      </g>
     </g>
    </g>
    <g id="xtick_3">
     <g id="line2d_3">
      <g>
       <use xlink:href="#mf1370d2189" x="305.926377" y="288.430125" style="stroke: #000000; stroke-width: 0.8"/>
      </g>
     </g>
     <g id="text_3">
      <!-- 2.8 -->
      <g transform="translate(297.974814 303.028562) scale(0.1 -0.1)">
       <defs>
        <path id="DejaVuSans-38" d="M 2034 2216 
Q 1584 2216 1326 1975 
Q 1069 1734 1069 1313 
Q 1069 891 1326 650 
Q 1584 409 2034 409 
Q 2484 409 2743 651 
Q 3003 894 3003 1313 
Q 3003 1734 2745 1975 
Q 2488 2216 2034 2216 
z
M 1403 2484 
Q 997 2584 770 2862 
Q 544 3141 544 3541 
Q 544 4100 942 4425 
Q 1341 4750 2034 4750 
Q 2731 4750 3128 4425 
Q 3525 4100 3525 3541 
Q 3525 3141 3298 2862 
Q 3072 2584 2669 2484 
Q 3125 2378 3379 2068 
Q 3634 1759 3634 1313 
Q 3634 634 3220 271 
Q 2806 -91 2034 -91 
Q 1263 -91 848 271 
Q 434 634 434 1313 
Q 434 1759 690 2068 
Q 947 2378 1403 2484 
z
M 1172 3481 
Q 1172 3119 1398 2916 
Q 1625 2713 2034 2713 
Q 2441 2713 2670 2916 
Q 2900 3119 2900 3481 
Q 2900 3844 2670 4047 
Q 2441 4250 2034 4250 
Q 1625 4250 1398 4047 
Q 1172 3844 1172 3481 
z
" transform="scale(0.015625)"/>
       </defs>
       <use xlink:href="#DejaVuSans-32"/>
       <use xlink:href="#DejaVuSans-2e" transform="translate(63.623047 0)"/>
       <use xlink:href="#DejaVuSans-38" transform="translate(95.410156 0)"/>
      </g>
     </g>
    </g>
    <g id="xtick_4">
     <g id="line2d_4">
      <g>
       <use xlink:href="#mf1370d2189" x="358.498296" y="288.430125" style="stroke: #000000; stroke-width: 0.8"/>
      </g>
     </g>
     <g id="text_4">
      <!-- 3.0 -->
      <g transform="translate(350.546734 303.028562) scale(0.1 -0.1)">
       <defs>
        <path id="DejaVuSans-33" d="M 2597 2516 
Q 3050 2419 3304 2112 
Q 3559 1806 3559 1356 
Q 3559 666 3084 287 
Q 2609 -91 1734 -91 
Q 1441 -91 1130 -33 
Q 819 25 488 141 
L 488 750 
Q 750 597 1062 519 
Q 1375 441 1716 441 
Q 2309 441 2620 675 
Q 2931 909 2931 1356 
Q 2931 1769 2642 2001 
Q 2353 2234 1838 2234 
L 1294 2234 
L 1294 2753 
L 1863 2753 
Q 2328 2753 2575 2939 
Q 2822 3125 2822 3475 
Q 2822 3834 2567 4026 
Q 2313 4219 1838 4219 
Q 1578 4219 1281 4162 
Q 984 4106 628 3988 
L 628 4550 
Q 988 4650 1302 4700 
Q 1616 4750 1894 4750 
Q 2613 4750 3031 4423 
Q 3450 4097 3450 3541 
Q 3450 3153 3228 2886 
Q 3006 2619 2597 2516 
z
" transform="scale(0.015625)"/>
        <path id="DejaVuSans-30" d="M 2034 4250 
Q 1547 4250 1301 3770 
Q 1056 3291 1056 2328 
Q 1056 1369 1301 889 
Q 1547 409 2034 409 
Q 2525 409 2770 889 
Q 3016 1369 3016 2328 
Q 3016 3291 2770 3770 
Q 2525 4250 2034 4250 
z
M 2034 4750 
Q 2819 4750 3233 4129 
Q 3647 3509 3647 2328 
Q 3647 1150 3233 529 
Q 2819 -91 2034 -91 
Q 1250 -91 836 529 
Q 422 1150 422 2328 
Q 422 3509 836 4129 
Q 1250 4750 2034 4750 
z
" transform="scale(0.015625)"/>
       </defs>
       <use xlink:href="#DejaVuSans-33"/>
       <use xlink:href="#DejaVuSans-2e" transform="translate(63.623047 0)"/>
       <use xlink:href="#DejaVuSans-30" transform="translate(95.410156 0)"/>
      </g>
     </g>
    </g>
    <g id="xtick_5">
     <g id="line2d_5">
      <g>
       <use xlink:href="#mf1370d2189" x="411.070216" y="288.430125" style="stroke: #000000; stroke-width: 0.8"/>
      </g>
     </g>
     <g id="text_5">
      <!-- 3.2 -->
      <g transform="translate(403.118654 303.028562) scale(0.1 -0.1)">
       <use xlink:href="#DejaVuSans-33"/>
       <use xlink:href="#DejaVuSans-2e" transform="translate(63.623047 0)"/>
       <use xlink:href="#DejaVuSans-32" transform="translate(95.410156 0)"/>
      </g>
     </g>
    </g>
    <g id="xtick_6">
     <g id="line2d_6">
      <g>
       <use xlink:href="#mf1370d2189" x="463.642136" y="288.430125" style="stroke: #000000; stroke-width: 0.8"/>
      </g>
     </g>
     <g id="text_6">
      <!-- 3.4 -->
      <g transform="translate(455.690573 303.028562) scale(0.1 -0.1)">
       <use xlink:href="#DejaVuSans-33"/>
       <use xlink:href="#DejaVuSans-2e" transform="translate(63.623047 0)"/>
       <use xlink:href="#DejaVuSans-34" transform="translate(95.410156 0)"/>
      </g>
     </g>
    </g>
    <g id="xtick_7">
     <g id="line2d_7">
      <g>
       <use xlink:href="#mf1370d2189" x="516.214055" y="288.430125" style="stroke: #000000; stroke-width: 0.8"/>
      </g>
     </g>
     <g id="text_7">
      <!-- 3.6 -->
      <g transform="translate(508.262493 303.028562) scale(0.1 -0.1)">
       <use xlink:href="#DejaVuSans-33"/>
       <use xlink:href="#DejaVuSans-2e" transform="translate(63.623047 0)"/>
       <use xlink:href="#DejaVuSans-36" transform="translate(95.410156 0)"/>
      </g>
     </g>
    </g>
    <g id="text_8">
     <!-- Fold Enrichment -->
     <g transform="translate(317.907656 316.706687) scale(0.1 -0.1)">
      <defs>
       <path id="DejaVuSans-46" d="M 628 4666 
L 3309 4666 
L 3309 4134 
L 1259 4134 
L 1259 2759 
L 3109 2759 
L 3109 2228 
L 1259 2228 
L 1259 0 
L 628 0 
L 628 4666 
z
" transform="scale(0.015625)"/>
       <path id="DejaVuSans-6f" d="M 1959 3097 
Q 1497 3097 1228 2736 
Q 959 2375 959 1747 
Q 959 1119 1226 758 
Q 1494 397 1959 397 
Q 2419 397 2687 759 
Q 2956 1122 2956 1747 
Q 2956 2369 2687 2733 
Q 2419 3097 1959 3097 
z
M 1959 3584 
Q 2709 3584 3137 3096 
Q 3566 2609 3566 1747 
Q 3566 888 3137 398 
Q 2709 -91 1959 -91 
Q 1206 -91 779 398 
Q 353 888 353 1747 
Q 353 2609 779 3096 
Q 1206 3584 1959 3584 
z
" transform="scale(0.015625)"/>
       <path id="DejaVuSans-6c" d="M 603 4863 
L 1178 4863 
L 1178 0 
L 603 0 
L 603 4863 
z
" transform="scale(0.015625)"/>
       <path id="DejaVuSans-64" d="M 2906 2969 
L 2906 4863 
L 3481 4863 
L 3481 0 
L 2906 0 
L 2906 525 
Q 2725 213 2448 61 
Q 2172 -91 1784 -91 
Q 1150 -91 751 415 
Q 353 922 353 1747 
Q 353 2572 751 3078 
Q 1150 3584 1784 3584 
Q 2172 3584 2448 3432 
Q 2725 3281 2906 2969 
z
M 947 1747 
Q 947 1113 1208 752 
Q 1469 391 1925 391 
Q 2381 391 2643 752 
Q 2906 1113 2906 1747 
Q 2906 2381 2643 2742 
Q 2381 3103 1925 3103 
Q 1469 3103 1208 2742 
Q 947 2381 947 1747 
z
" transform="scale(0.015625)"/>
       <path id="DejaVuSans-20" transform="scale(0.015625)"/>
       <path id="DejaVuSans-45" d="M 628 4666 
L 3578 4666 
L 3578 4134 
L 1259 4134 
L 1259 2753 
L 3481 2753 
L 3481 2222 
L 1259 2222 
L 1259 531 
L 3634 531 
L 3634 0 
L 628 0 
L 628 4666 
z
" transform="scale(0.015625)"/>
       <path id="DejaVuSans-6e" d="M 3513 2113 
L 3513 0 
L 2938 0 
L 2938 2094 
Q 2938 2591 2744 2837 
Q 2550 3084 2163 3084 
Q 1697 3084 1428 2787 
Q 1159 2491 1159 1978 
L 1159 0 
L 581 0 
L 581 3500 
L 1159 3500 
L 1159 2956 
Q 1366 3272 1645 3428 
Q 1925 3584 2291 3584 
Q 2894 3584 3203 3211 
Q 3513 2838 3513 2113 
z
" transform="scale(0.015625)"/>
       <path id="DejaVuSans-72" d="M 2631 2963 
Q 2534 3019 2420 3045 
Q 2306 3072 2169 3072 
Q 1681 3072 1420 2755 
Q 1159 2438 1159 1844 
L 1159 0 
L 581 0 
L 581 3500 
L 1159 3500 
L 1159 2956 
Q 1341 3275 1631 3429 
Q 1922 3584 2338 3584 
Q 2397 3584 2469 3576 
Q 2541 3569 2628 3553 
L 2631 2963 
z
" transform="scale(0.015625)"/>
       <path id="DejaVuSans-69" d="M 603 3500 
L 1178 3500 
L 1178 0 
L 603 0 
L 603 3500 
z
M 603 4863 
L 1178 4863 
L 1178 4134 
L 603 4134 
L 603 4863 
z
" transform="scale(0.015625)"/>
       <path id="DejaVuSans-63" d="M 3122 3366 
L 3122 2828 
Q 2878 2963 2633 3030 
Q 2388 3097 2138 3097 
Q 1578 3097 1268 2742 
Q 959 2388 959 1747 
Q 959 1106 1268 751 
Q 1578 397 2138 397 
Q 2388 397 2633 464 
Q 2878 531 3122 666 
L 3122 134 
Q 2881 22 2623 -34 
Q 2366 -91 2075 -91 
Q 1284 -91 818 406 
Q 353 903 353 1747 
Q 353 2603 823 3093 
Q 1294 3584 2113 3584 
Q 2378 3584 2631 3529 
Q 2884 3475 3122 3366 
z
" transform="scale(0.015625)"/>
       <path id="DejaVuSans-68" d="M 3513 2113 
L 3513 0 
L 2938 0 
L 2938 2094 
Q 2938 2591 2744 2837 
Q 2550 3084 2163 3084 
Q 1697 3084 1428 2787 
Q 1159 2491 1159 1978 
L 1159 0 
L 581 0 
L 581 4863 
L 1159 4863 
L 1159 2956 
Q 1366 3272 1645 3428 
Q 1925 3584 2291 3584 
Q 2894 3584 3203 3211 
Q 3513 2838 3513 2113 
z
" transform="scale(0.015625)"/>
       <path id="DejaVuSans-6d" d="M 3328 2828 
Q 3544 3216 3844 3400 
Q 4144 3584 4550 3584 
Q 5097 3584 5394 3201 
Q 5691 2819 5691 2113 
L 5691 0 
L 5113 0 
L 5113 2094 
Q 5113 2597 4934 2840 
Q 4756 3084 4391 3084 
Q 3944 3084 3684 2787 
Q 3425 2491 3425 1978 
L 3425 0 
L 2847 0 
L 2847 2094 
Q 2847 2600 2669 2842 
Q 2491 3084 2119 3084 
Q 1678 3084 1418 2786 
Q 1159 2488 1159 1978 
L 1159 0 
L 581 0 
L 581 3500 
L 1159 3500 
L 1159 2956 
Q 1356 3278 1631 3431 
Q 1906 3584 2284 3584 
Q 2666 3584 2933 3390 
Q 3200 3197 3328 2828 
z
" transform="scale(0.015625)"/>
       <path id="DejaVuSans-65" d="M 3597 1894 
L 3597 1613 
L 953 1613 
Q 991 1019 1311 708 
Q 1631 397 2203 397 
Q 2534 397 2845 478 
Q 3156 559 3463 722 
L 3463 178 
Q 3153 47 2828 -22 
Q 2503 -91 2169 -91 
Q 1331 -91 842 396 
Q 353 884 353 1716 
Q 353 2575 817 3079 
Q 1281 3584 2069 3584 
Q 2775 3584 3186 3129 
Q 3597 2675 3597 1894 
z
M 3022 2063 
Q 3016 2534 2758 2815 
Q 2500 3097 2075 3097 
Q 1594 3097 1305 2825 
Q 1016 2553 972 2059 
L 3022 2063 
z
" transform="scale(0.015625)"/>
       <path id="DejaVuSans-74" d="M 1172 4494 
L 1172 3500 
L 2356 3500 
L 2356 3053 
L 1172 3053 
L 1172 1153 
Q 1172 725 1289 603 
Q 1406 481 1766 481 
L 2356 481 
L 2356 0 
L 1766 0 
Q 1100 0 847 248 
Q 594 497 594 1153 
L 594 3053 
L 172 3053 
L 172 3500 
L 594 3500 
L 594 4494 
L 1172 4494 
z
" transform="scale(0.015625)"/>
      </defs>
      <use xlink:href="#DejaVuSans-46"/>
      <use xlink:href="#DejaVuSans-6f" transform="translate(53.894531 0)"/>
      <use xlink:href="#DejaVuSans-6c" transform="translate(115.076172 0)"/>
      <use xlink:href="#DejaVuSans-64" transform="translate(142.859375 0)"/>
      <use xlink:href="#DejaVuSans-20" transform="translate(206.335938 0)"/>
      <use xlink:href="#DejaVuSans-45" transform="translate(238.123047 0)"/>
      <use xlink:href="#DejaVuSans-6e" transform="translate(301.306641 0)"/>
      <use xlink:href="#DejaVuSans-72" transform="translate(364.685547 0)"/>
      <use xlink:href="#DejaVuSans-69" transform="translate(405.798828 0)"/>
      <use xlink:href="#DejaVuSans-63" transform="translate(433.582031 0)"/>
      <use xlink:href="#DejaVuSans-68" transform="translate(488.5625 0)"/>
      <use xlink:href="#DejaVuSans-6d" transform="translate(551.941406 0)"/>
      <use xlink:href="#DejaVuSans-65" transform="translate(649.353516 0)"/>
      <use xlink:href="#DejaVuSans-6e" transform="translate(710.876953 0)"/>
      <use xlink:href="#DejaVuSans-74" transform="translate(774.255859 0)"/>
     </g>
    </g>
   </g>
   <g id="matplotlib.axis_2">
    <g id="ytick_1">
     <g id="line2d_8">
      <defs>
       <path id="mc9385788d1" d="M 0 0 
L -3.5 0 
" style="stroke: #000000; stroke-width: 0.8"/>
      </defs>
      <g>
       <use xlink:href="#mc9385788d1" x="180.020312" y="34.414125" style="stroke: #000000; stroke-width: 0.8"/>
      </g>
     </g>
     <g id="text_9">
      <!-- clathrin-coated vesicle -->
      <g transform="translate(59.689062 38.213344) scale(0.1 -0.1)">
       <defs>
        <path id="DejaVuSans-61" d="M 2194 1759 
Q 1497 1759 1228 1600 
Q 959 1441 959 1056 
Q 959 750 1161 570 
Q 1363 391 1709 391 
Q 2188 391 2477 730 
Q 2766 1069 2766 1631 
L 2766 1759 
L 2194 1759 
z
M 3341 1997 
L 3341 0 
L 2766 0 
L 2766 531 
Q 2569 213 2275 61 
Q 1981 -91 1556 -91 
Q 1019 -91 701 211 
Q 384 513 384 1019 
Q 384 1609 779 1909 
Q 1175 2209 1959 2209 
L 2766 2209 
L 2766 2266 
Q 2766 2663 2505 2880 
Q 2244 3097 1772 3097 
Q 1472 3097 1187 3025 
Q 903 2953 641 2809 
L 641 3341 
Q 956 3463 1253 3523 
Q 1550 3584 1831 3584 
Q 2591 3584 2966 3190 
Q 3341 2797 3341 1997 
z
" transform="scale(0.015625)"/>
        <path id="DejaVuSans-2d" d="M 313 2009 
L 1997 2009 
L 1997 1497 
L 313 1497 
L 313 2009 
z
" transform="scale(0.015625)"/>
        <path id="DejaVuSans-76" d="M 191 3500 
L 800 3500 
L 1894 563 
L 2988 3500 
L 3597 3500 
L 2284 0 
L 1503 0 
L 191 3500 
z
" transform="scale(0.015625)"/>
        <path id="DejaVuSans-73" d="M 2834 3397 
L 2834 2853 
Q 2591 2978 2328 3040 
Q 2066 3103 1784 3103 
Q 1356 3103 1142 2972 
Q 928 2841 928 2578 
Q 928 2378 1081 2264 
Q 1234 2150 1697 2047 
L 1894 2003 
Q 2506 1872 2764 1633 
Q 3022 1394 3022 966 
Q 3022 478 2636 193 
Q 2250 -91 1575 -91 
Q 1294 -91 989 -36 
Q 684 19 347 128 
L 347 722 
Q 666 556 975 473 
Q 1284 391 1588 391 
Q 1994 391 2212 530 
Q 2431 669 2431 922 
Q 2431 1156 2273 1281 
Q 2116 1406 1581 1522 
L 1381 1569 
Q 847 1681 609 1914 
Q 372 2147 372 2553 
Q 372 3047 722 3315 
Q 1072 3584 1716 3584 
Q 2034 3584 2315 3537 
Q 2597 3491 2834 3397 
z
" transform="scale(0.015625)"/>
       </defs>
       <use xlink:href="#DejaVuSans-63"/>
       <use xlink:href="#DejaVuSans-6c" transform="translate(54.980469 0)"/>
       <use xlink:href="#DejaVuSans-61" transform="translate(82.763672 0)"/>
       <use xlink:href="#DejaVuSans-74" transform="translate(144.042969 0)"/>
       <use xlink:href="#DejaVuSans-68" transform="translate(183.251953 0)"/>
       <use xlink:href="#DejaVuSans-72" transform="translate(246.630859 0)"/>
       <use xlink:href="#DejaVuSans-69" transform="translate(287.744141 0)"/>
       <use xlink:href="#DejaVuSans-6e" transform="translate(315.527344 0)"/>
       <use xlink:href="#DejaVuSans-2d" transform="translate(378.90625 0)"/>
       <use xlink:href="#DejaVuSans-63" transform="translate(414.990234 0)"/>
       <use xlink:href="#DejaVuSans-6f" transform="translate(469.970703 0)"/>
       <use xlink:href="#DejaVuSans-61" transform="translate(531.152344 0)"/>
       <use xlink:href="#DejaVuSans-74" transform="translate(592.431641 0)"/>
       <use xlink:href="#DejaVuSans-65" transform="translate(631.640625 0)"/>
       <use xlink:href="#DejaVuSans-64" transform="translate(693.164062 0)"/>
       <use xlink:href="#DejaVuSans-20" transform="translate(756.640625 0)"/>
       <use xlink:href="#DejaVuSans-76" transform="translate(788.427734 0)"/>
       <use xlink:href="#DejaVuSans-65" transform="translate(847.607422 0)"/>
       <use xlink:href="#DejaVuSans-73" transform="translate(909.130859 0)"/>
       <use xlink:href="#DejaVuSans-69" transform="translate(961.230469 0)"/>
       <use xlink:href="#DejaVuSans-63" transform="translate(989.013672 0)"/>
       <use xlink:href="#DejaVuSans-6c" transform="translate(1043.994141 0)"/>
       <use xlink:href="#DejaVuSans-65" transform="translate(1071.777344 0)"/>
      </g>
     </g>
    </g>
    <g id="ytick_2">
     <g id="line2d_9">
      <g>
       <use xlink:href="#mc9385788d1" x="180.020312" y="47.146757" style="stroke: #000000; stroke-width: 0.8"/>
      </g>
     </g>
     <g id="text_10">
      <!-- dendritic spine -->
      <g transform="translate(98.742187 50.945975) scale(0.1 -0.1)">
       <defs>
        <path id="DejaVuSans-70" d="M 1159 525 
L 1159 -1331 
L 581 -1331 
L 581 3500 
L 1159 3500 
L 1159 2969 
Q 1341 3281 1617 3432 
Q 1894 3584 2278 3584 
Q 2916 3584 3314 3078 
Q 3713 2572 3713 1747 
Q 3713 922 3314 415 
Q 2916 -91 2278 -91 
Q 1894 -91 1617 61 
Q 1341 213 1159 525 
z
M 3116 1747 
Q 3116 2381 2855 2742 
Q 2594 3103 2138 3103 
Q 1681 3103 1420 2742 
Q 1159 2381 1159 1747 
Q 1159 1113 1420 752 
Q 1681 391 2138 391 
Q 2594 391 2855 752 
Q 3116 1113 3116 1747 
z
" transform="scale(0.015625)"/>
       </defs>
       <use xlink:href="#DejaVuSans-64"/>
       <use xlink:href="#DejaVuSans-65" transform="translate(63.476562 0)"/>
       <use xlink:href="#DejaVuSans-6e" transform="translate(125 0)"/>
       <use xlink:href="#DejaVuSans-64" transform="translate(188.378906 0)"/>
       <use xlink:href="#DejaVuSans-72" transform="translate(251.855469 0)"/>
       <use xlink:href="#DejaVuSans-69" transform="translate(292.96875 0)"/>
       <use xlink:href="#DejaVuSans-74" transform="translate(320.751953 0)"/>
       <use xlink:href="#DejaVuSans-69" transform="translate(359.960938 0)"/>
       <use xlink:href="#DejaVuSans-63" transform="translate(387.744141 0)"/>
       <use xlink:href="#DejaVuSans-20" transform="translate(442.724609 0)"/>
       <use xlink:href="#DejaVuSans-73" transform="translate(474.511719 0)"/>
       <use xlink:href="#DejaVuSans-70" transform="translate(526.611328 0)"/>
       <use xlink:href="#DejaVuSans-69" transform="translate(590.087891 0)"/>
       <use xlink:href="#DejaVuSans-6e" transform="translate(617.871094 0)"/>
       <use xlink:href="#DejaVuSans-65" transform="translate(681.25 0)"/>
      </g>
     </g>
    </g>
    <g id="ytick_3">
     <g id="line2d_10">
      <g>
       <use xlink:href="#mc9385788d1" x="180.020312" y="59.879388" style="stroke: #000000; stroke-width: 0.8"/>
      </g>
     </g>
     <g id="text_11">
      <!-- postsynaptic density -->
      <g transform="translate(69.440625 63.678607) scale(0.1 -0.1)">
       <defs>
        <path id="DejaVuSans-79" d="M 2059 -325 
Q 1816 -950 1584 -1140 
Q 1353 -1331 966 -1331 
L 506 -1331 
L 506 -850 
L 844 -850 
Q 1081 -850 1212 -737 
Q 1344 -625 1503 -206 
L 1606 56 
L 191 3500 
L 800 3500 
L 1894 763 
L 2988 3500 
L 3597 3500 
L 2059 -325 
z
" transform="scale(0.015625)"/>
       </defs>
       <use xlink:href="#DejaVuSans-70"/>
       <use xlink:href="#DejaVuSans-6f" transform="translate(63.476562 0)"/>
       <use xlink:href="#DejaVuSans-73" transform="translate(124.658203 0)"/>
       <use xlink:href="#DejaVuSans-74" transform="translate(176.757812 0)"/>
       <use xlink:href="#DejaVuSans-73" transform="translate(215.966797 0)"/>
       <use xlink:href="#DejaVuSans-79" transform="translate(268.066406 0)"/>
       <use xlink:href="#DejaVuSans-6e" transform="translate(327.246094 0)"/>
       <use xlink:href="#DejaVuSans-61" transform="translate(390.625 0)"/>
       <use xlink:href="#DejaVuSans-70" transform="translate(451.904297 0)"/>
       <use xlink:href="#DejaVuSans-74" transform="translate(515.380859 0)"/>
       <use xlink:href="#DejaVuSans-69" transform="translate(554.589844 0)"/>
       <use xlink:href="#DejaVuSans-63" transform="translate(582.373047 0)"/>
       <use xlink:href="#DejaVuSans-20" transform="translate(637.353516 0)"/>
       <use xlink:href="#DejaVuSans-64" transform="translate(669.140625 0)"/>
       <use xlink:href="#DejaVuSans-65" transform="translate(732.617188 0)"/>
       <use xlink:href="#DejaVuSans-6e" transform="translate(794.140625 0)"/>
       <use xlink:href="#DejaVuSans-73" transform="translate(857.519531 0)"/>
       <use xlink:href="#DejaVuSans-69" transform="translate(909.619141 0)"/>
       <use xlink:href="#DejaVuSans-74" transform="translate(937.402344 0)"/>
       <use xlink:href="#DejaVuSans-79" transform="translate(976.611328 0)"/>
      </g>
     </g>
    </g>
    <g id="ytick_4">
     <g id="line2d_11">
      <g>
       <use xlink:href="#mc9385788d1" x="180.020312" y="72.61202" style="stroke: #000000; stroke-width: 0.8"/>
      </g>
     </g>
     <g id="text_12">
      <!-- synaptic membrane -->
      <g transform="translate(72.990625 76.411238) scale(0.1 -0.1)">
       <defs>
        <path id="DejaVuSans-62" d="M 3116 1747 
Q 3116 2381 2855 2742 
Q 2594 3103 2138 3103 
Q 1681 3103 1420 2742 
Q 1159 2381 1159 1747 
Q 1159 1113 1420 752 
Q 1681 391 2138 391 
Q 2594 391 2855 752 
Q 3116 1113 3116 1747 
z
M 1159 2969 
Q 1341 3281 1617 3432 
Q 1894 3584 2278 3584 
Q 2916 3584 3314 3078 
Q 3713 2572 3713 1747 
Q 3713 922 3314 415 
Q 2916 -91 2278 -91 
Q 1894 -91 1617 61 
Q 1341 213 1159 525 
L 1159 0 
L 581 0 
L 581 4863 
L 1159 4863 
L 1159 2969 
z
" transform="scale(0.015625)"/>
       </defs>
       <use xlink:href="#DejaVuSans-73"/>
       <use xlink:href="#DejaVuSans-79" transform="translate(52.099609 0)"/>
       <use xlink:href="#DejaVuSans-6e" transform="translate(111.279297 0)"/>
       <use xlink:href="#DejaVuSans-61" transform="translate(174.658203 0)"/>
       <use xlink:href="#DejaVuSans-70" transform="translate(235.9375 0)"/>
       <use xlink:href="#DejaVuSans-74" transform="translate(299.414062 0)"/>
       <use xlink:href="#DejaVuSans-69" transform="translate(338.623047 0)"/>
       <use xlink:href="#DejaVuSans-63" transform="translate(366.40625 0)"/>
       <use xlink:href="#DejaVuSans-20" transform="translate(421.386719 0)"/>
       <use xlink:href="#DejaVuSans-6d" transform="translate(453.173828 0)"/>
       <use xlink:href="#DejaVuSans-65" transform="translate(550.585938 0)"/>
       <use xlink:href="#DejaVuSans-6d" transform="translate(612.109375 0)"/>
       <use xlink:href="#DejaVuSans-62" transform="translate(709.521484 0)"/>
       <use xlink:href="#DejaVuSans-72" transform="translate(772.998047 0)"/>
       <use xlink:href="#DejaVuSans-61" transform="translate(814.111328 0)"/>
       <use xlink:href="#DejaVuSans-6e" transform="translate(875.390625 0)"/>
       <use xlink:href="#DejaVuSans-65" transform="translate(938.769531 0)"/>
      </g>
     </g>
    </g>
    <g id="ytick_5">
     <g id="line2d_12">
      <g>
       <use xlink:href="#mc9385788d1" x="180.020312" y="85.344651" style="stroke: #000000; stroke-width: 0.8"/>
      </g>
     </g>
     <g id="text_13">
      <!-- cell leading edge -->
      <g transform="translate(87.58125 89.14387) scale(0.1 -0.1)">
       <defs>
        <path id="DejaVuSans-67" d="M 2906 1791 
Q 2906 2416 2648 2759 
Q 2391 3103 1925 3103 
Q 1463 3103 1205 2759 
Q 947 2416 947 1791 
Q 947 1169 1205 825 
Q 1463 481 1925 481 
Q 2391 481 2648 825 
Q 2906 1169 2906 1791 
z
M 3481 434 
Q 3481 -459 3084 -895 
Q 2688 -1331 1869 -1331 
Q 1566 -1331 1297 -1286 
Q 1028 -1241 775 -1147 
L 775 -588 
Q 1028 -725 1275 -790 
Q 1522 -856 1778 -856 
Q 2344 -856 2625 -561 
Q 2906 -266 2906 331 
L 2906 616 
Q 2728 306 2450 153 
Q 2172 0 1784 0 
Q 1141 0 747 490 
Q 353 981 353 1791 
Q 353 2603 747 3093 
Q 1141 3584 1784 3584 
Q 2172 3584 2450 3431 
Q 2728 3278 2906 2969 
L 2906 3500 
L 3481 3500 
L 3481 434 
z
" transform="scale(0.015625)"/>
       </defs>
       <use xlink:href="#DejaVuSans-63"/>
       <use xlink:href="#DejaVuSans-65" transform="translate(54.980469 0)"/>
       <use xlink:href="#DejaVuSans-6c" transform="translate(116.503906 0)"/>
       <use xlink:href="#DejaVuSans-6c" transform="translate(144.287109 0)"/>
       <use xlink:href="#DejaVuSans-20" transform="translate(172.070312 0)"/>
       <use xlink:href="#DejaVuSans-6c" transform="translate(203.857422 0)"/>
       <use xlink:href="#DejaVuSans-65" transform="translate(231.640625 0)"/>
       <use xlink:href="#DejaVuSans-61" transform="translate(293.164062 0)"/>
       <use xlink:href="#DejaVuSans-64" transform="translate(354.443359 0)"/>
       <use xlink:href="#DejaVuSans-69" transform="translate(417.919922 0)"/>
       <use xlink:href="#DejaVuSans-6e" transform="translate(445.703125 0)"/>
       <use xlink:href="#DejaVuSans-67" transform="translate(509.082031 0)"/>
       <use xlink:href="#DejaVuSans-20" transform="translate(572.558594 0)"/>
       <use xlink:href="#DejaVuSans-65" transform="translate(604.345703 0)"/>
       <use xlink:href="#DejaVuSans-64" transform="translate(665.869141 0)"/>
       <use xlink:href="#DejaVuSans-67" transform="translate(729.345703 0)"/>
       <use xlink:href="#DejaVuSans-65" transform="translate(792.822266 0)"/>
      </g>
     </g>
    </g>
    <g id="ytick_6">
     <g id="line2d_13">
      <g>
       <use xlink:href="#mc9385788d1" x="180.020312" y="98.077283" style="stroke: #000000; stroke-width: 0.8"/>
      </g>
     </g>
     <g id="text_14">
      <!-- GABA-ergic synapse -->
      <g transform="translate(72.15 101.876502) scale(0.1 -0.1)">
       <defs>
        <path id="DejaVuSans-47" d="M 3809 666 
L 3809 1919 
L 2778 1919 
L 2778 2438 
L 4434 2438 
L 4434 434 
Q 4069 175 3628 42 
Q 3188 -91 2688 -91 
Q 1594 -91 976 548 
Q 359 1188 359 2328 
Q 359 3472 976 4111 
Q 1594 4750 2688 4750 
Q 3144 4750 3555 4637 
Q 3966 4525 4313 4306 
L 4313 3634 
Q 3963 3931 3569 4081 
Q 3175 4231 2741 4231 
Q 1884 4231 1454 3753 
Q 1025 3275 1025 2328 
Q 1025 1384 1454 906 
Q 1884 428 2741 428 
Q 3075 428 3337 486 
Q 3600 544 3809 666 
z
" transform="scale(0.015625)"/>
        <path id="DejaVuSans-41" d="M 2188 4044 
L 1331 1722 
L 3047 1722 
L 2188 4044 
z
M 1831 4666 
L 2547 4666 
L 4325 0 
L 3669 0 
L 3244 1197 
L 1141 1197 
L 716 0 
L 50 0 
L 1831 4666 
z
" transform="scale(0.015625)"/>
        <path id="DejaVuSans-42" d="M 1259 2228 
L 1259 519 
L 2272 519 
Q 2781 519 3026 730 
Q 3272 941 3272 1375 
Q 3272 1813 3026 2020 
Q 2781 2228 2272 2228 
L 1259 2228 
z
M 1259 4147 
L 1259 2741 
L 2194 2741 
Q 2656 2741 2882 2914 
Q 3109 3088 3109 3444 
Q 3109 3797 2882 3972 
Q 2656 4147 2194 4147 
L 1259 4147 
z
M 628 4666 
L 2241 4666 
Q 2963 4666 3353 4366 
Q 3744 4066 3744 3513 
Q 3744 3084 3544 2831 
Q 3344 2578 2956 2516 
Q 3422 2416 3680 2098 
Q 3938 1781 3938 1306 
Q 3938 681 3513 340 
Q 3088 0 2303 0 
L 628 0 
L 628 4666 
z
" transform="scale(0.015625)"/>
       </defs>
       <use xlink:href="#DejaVuSans-47"/>
       <use xlink:href="#DejaVuSans-41" transform="translate(77.490234 0)"/>
       <use xlink:href="#DejaVuSans-42" transform="translate(145.898438 0)"/>
       <use xlink:href="#DejaVuSans-41" transform="translate(214.501953 0)"/>
       <use xlink:href="#DejaVuSans-2d" transform="translate(280.660156 0)"/>
       <use xlink:href="#DejaVuSans-65" transform="translate(316.744141 0)"/>
       <use xlink:href="#DejaVuSans-72" transform="translate(378.267578 0)"/>
       <use xlink:href="#DejaVuSans-67" transform="translate(417.630859 0)"/>
       <use xlink:href="#DejaVuSans-69" transform="translate(481.107422 0)"/>
       <use xlink:href="#DejaVuSans-63" transform="translate(508.890625 0)"/>
       <use xlink:href="#DejaVuSans-20" transform="translate(563.871094 0)"/>
       <use xlink:href="#DejaVuSans-73" transform="translate(595.658203 0)"/>
       <use xlink:href="#DejaVuSans-79" transform="translate(647.757812 0)"/>
       <use xlink:href="#DejaVuSans-6e" transform="translate(706.9375 0)"/>
       <use xlink:href="#DejaVuSans-61" transform="translate(770.316406 0)"/>
       <use xlink:href="#DejaVuSans-70" transform="translate(831.595703 0)"/>
       <use xlink:href="#DejaVuSans-73" transform="translate(895.072266 0)"/>
       <use xlink:href="#DejaVuSans-65" transform="translate(947.171875 0)"/>
      </g>
     </g>
    </g>
    <g id="ytick_7">
     <g id="line2d_14">
      <g>
       <use xlink:href="#mc9385788d1" x="180.020312" y="110.809914" style="stroke: #000000; stroke-width: 0.8"/>
      </g>
     </g>
     <g id="text_15">
      <!-- axon cytoplasm -->
      <g transform="translate(93.990625 114.609133) scale(0.1 -0.1)">
       <defs>
        <path id="DejaVuSans-78" d="M 3513 3500 
L 2247 1797 
L 3578 0 
L 2900 0 
L 1881 1375 
L 863 0 
L 184 0 
L 1544 1831 
L 300 3500 
L 978 3500 
L 1906 2253 
L 2834 3500 
L 3513 3500 
z
" transform="scale(0.015625)"/>
       </defs>
       <use xlink:href="#DejaVuSans-61"/>
       <use xlink:href="#DejaVuSans-78" transform="translate(61.279297 0)"/>
       <use xlink:href="#DejaVuSans-6f" transform="translate(117.333984 0)"/>
       <use xlink:href="#DejaVuSans-6e" transform="translate(178.515625 0)"/>
       <use xlink:href="#DejaVuSans-20" transform="translate(241.894531 0)"/>
       <use xlink:href="#DejaVuSans-63" transform="translate(273.681641 0)"/>
       <use xlink:href="#DejaVuSans-79" transform="translate(328.662109 0)"/>
       <use xlink:href="#DejaVuSans-74" transform="translate(387.841797 0)"/>
       <use xlink:href="#DejaVuSans-6f" transform="translate(427.050781 0)"/>
       <use xlink:href="#DejaVuSans-70" transform="translate(488.232422 0)"/>
       <use xlink:href="#DejaVuSans-6c" transform="translate(551.708984 0)"/>
       <use xlink:href="#DejaVuSans-61" transform="translate(579.492188 0)"/>
       <use xlink:href="#DejaVuSans-73" transform="translate(640.771484 0)"/>
       <use xlink:href="#DejaVuSans-6d" transform="translate(692.871094 0)"/>
      </g>
     </g>
    </g>
    <g id="ytick_8">
     <g id="line2d_15">
      <g>
       <use xlink:href="#mc9385788d1" x="180.020312" y="123.542546" style="stroke: #000000; stroke-width: 0.8"/>
      </g>
     </g>
     <g id="text_16">
      <!-- postsynapse -->
      <g transform="translate(110.11875 127.341765) scale(0.1 -0.1)">
       <use xlink:href="#DejaVuSans-70"/>
       <use xlink:href="#DejaVuSans-6f" transform="translate(63.476562 0)"/>
       <use xlink:href="#DejaVuSans-73" transform="translate(124.658203 0)"/>
       <use xlink:href="#DejaVuSans-74" transform="translate(176.757812 0)"/>
       <use xlink:href="#DejaVuSans-73" transform="translate(215.966797 0)"/>
       <use xlink:href="#DejaVuSans-79" transform="translate(268.066406 0)"/>
       <use xlink:href="#DejaVuSans-6e" transform="translate(327.246094 0)"/>
       <use xlink:href="#DejaVuSans-61" transform="translate(390.625 0)"/>
       <use xlink:href="#DejaVuSans-70" transform="translate(451.904297 0)"/>
       <use xlink:href="#DejaVuSans-73" transform="translate(515.380859 0)"/>
       <use xlink:href="#DejaVuSans-65" transform="translate(567.480469 0)"/>
      </g>
     </g>
    </g>
    <g id="ytick_9">
     <g id="line2d_16">
      <g>
       <use xlink:href="#mc9385788d1" x="180.020312" y="136.275178" style="stroke: #000000; stroke-width: 0.8"/>
      </g>
     </g>
     <g id="text_17">
      <!-- cytoplasmic stress granule -->
      <g transform="translate(38.945312 140.074396) scale(0.1 -0.1)">
       <defs>
        <path id="DejaVuSans-75" d="M 544 1381 
L 544 3500 
L 1119 3500 
L 1119 1403 
Q 1119 906 1312 657 
Q 1506 409 1894 409 
Q 2359 409 2629 706 
Q 2900 1003 2900 1516 
L 2900 3500 
L 3475 3500 
L 3475 0 
L 2900 0 
L 2900 538 
Q 2691 219 2414 64 
Q 2138 -91 1772 -91 
Q 1169 -91 856 284 
Q 544 659 544 1381 
z
M 1991 3584 
L 1991 3584 
z
" transform="scale(0.015625)"/>
       </defs>
       <use xlink:href="#DejaVuSans-63"/>
       <use xlink:href="#DejaVuSans-79" transform="translate(54.980469 0)"/>
       <use xlink:href="#DejaVuSans-74" transform="translate(114.160156 0)"/>
       <use xlink:href="#DejaVuSans-6f" transform="translate(153.369141 0)"/>
       <use xlink:href="#DejaVuSans-70" transform="translate(214.550781 0)"/>
       <use xlink:href="#DejaVuSans-6c" transform="translate(278.027344 0)"/>
       <use xlink:href="#DejaVuSans-61" transform="translate(305.810547 0)"/>
       <use xlink:href="#DejaVuSans-73" transform="translate(367.089844 0)"/>
       <use xlink:href="#DejaVuSans-6d" transform="translate(419.189453 0)"/>
       <use xlink:href="#DejaVuSans-69" transform="translate(516.601562 0)"/>
       <use xlink:href="#DejaVuSans-63" transform="translate(544.384766 0)"/>
       <use xlink:href="#DejaVuSans-20" transform="translate(599.365234 0)"/>
       <use xlink:href="#DejaVuSans-73" transform="translate(631.152344 0)"/>
       <use xlink:href="#DejaVuSans-74" transform="translate(683.251953 0)"/>
       <use xlink:href="#DejaVuSans-72" transform="translate(722.460938 0)"/>
       <use xlink:href="#DejaVuSans-65" transform="translate(761.324219 0)"/>
       <use xlink:href="#DejaVuSans-73" transform="translate(822.847656 0)"/>
       <use xlink:href="#DejaVuSans-73" transform="translate(874.947266 0)"/>
       <use xlink:href="#DejaVuSans-20" transform="translate(927.046875 0)"/>
       <use xlink:href="#DejaVuSans-67" transform="translate(958.833984 0)"/>
       <use xlink:href="#DejaVuSans-72" transform="translate(1022.310547 0)"/>
       <use xlink:href="#DejaVuSans-61" transform="translate(1063.423828 0)"/>
       <use xlink:href="#DejaVuSans-6e" transform="translate(1124.703125 0)"/>
       <use xlink:href="#DejaVuSans-75" transform="translate(1188.082031 0)"/>
       <use xlink:href="#DejaVuSans-6c" transform="translate(1251.460938 0)"/>
       <use xlink:href="#DejaVuSans-65" transform="translate(1279.244141 0)"/>
      </g>
     </g>
    </g>
    <g id="ytick_10">
     <g id="line2d_17">
      <g>
       <use xlink:href="#mc9385788d1" x="180.020312" y="149.007809" style="stroke: #000000; stroke-width: 0.8"/>
      </g>
     </g>
     <g id="text_18">
      <!-- glutamatergic synapse -->
      <g transform="translate(58.521875 152.807028) scale(0.1 -0.1)">
       <use xlink:href="#DejaVuSans-67"/>
       <use xlink:href="#DejaVuSans-6c" transform="translate(63.476562 0)"/>
       <use xlink:href="#DejaVuSans-75" transform="translate(91.259766 0)"/>
       <use xlink:href="#DejaVuSans-74" transform="translate(154.638672 0)"/>
       <use xlink:href="#DejaVuSans-61" transform="translate(193.847656 0)"/>
       <use xlink:href="#DejaVuSans-6d" transform="translate(255.126953 0)"/>
       <use xlink:href="#DejaVuSans-61" transform="translate(352.539062 0)"/>
       <use xlink:href="#DejaVuSans-74" transform="translate(413.818359 0)"/>
       <use xlink:href="#DejaVuSans-65" transform="translate(453.027344 0)"/>
       <use xlink:href="#DejaVuSans-72" transform="translate(514.550781 0)"/>
       <use xlink:href="#DejaVuSans-67" transform="translate(553.914062 0)"/>
       <use xlink:href="#DejaVuSans-69" transform="translate(617.390625 0)"/>
       <use xlink:href="#DejaVuSans-63" transform="translate(645.173828 0)"/>
       <use xlink:href="#DejaVuSans-20" transform="translate(700.154297 0)"/>
       <use xlink:href="#DejaVuSans-73" transform="translate(731.941406 0)"/>
       <use xlink:href="#DejaVuSans-79" transform="translate(784.041016 0)"/>
       <use xlink:href="#DejaVuSans-6e" transform="translate(843.220703 0)"/>
       <use xlink:href="#DejaVuSans-61" transform="translate(906.599609 0)"/>
       <use xlink:href="#DejaVuSans-70" transform="translate(967.878906 0)"/>
       <use xlink:href="#DejaVuSans-73" transform="translate(1031.355469 0)"/>
       <use xlink:href="#DejaVuSans-65" transform="translate(1083.455078 0)"/>
      </g>
     </g>
    </g>
    <g id="ytick_11">
     <g id="line2d_18">
      <g>
       <use xlink:href="#mc9385788d1" x="180.020312" y="161.740441" style="stroke: #000000; stroke-width: 0.8"/>
      </g>
     </g>
     <g id="text_19">
      <!-- cell cortex -->
      <g transform="translate(121.089062 165.53966) scale(0.1 -0.1)">
       <use xlink:href="#DejaVuSans-63"/>
       <use xlink:href="#DejaVuSans-65" transform="translate(54.980469 0)"/>
       <use xlink:href="#DejaVuSans-6c" transform="translate(116.503906 0)"/>
       <use xlink:href="#DejaVuSans-6c" transform="translate(144.287109 0)"/>
       <use xlink:href="#DejaVuSans-20" transform="translate(172.070312 0)"/>
       <use xlink:href="#DejaVuSans-63" transform="translate(203.857422 0)"/>
       <use xlink:href="#DejaVuSans-6f" transform="translate(258.837891 0)"/>
       <use xlink:href="#DejaVuSans-72" transform="translate(320.019531 0)"/>
       <use xlink:href="#DejaVuSans-74" transform="translate(361.132812 0)"/>
       <use xlink:href="#DejaVuSans-65" transform="translate(400.341797 0)"/>
       <use xlink:href="#DejaVuSans-78" transform="translate(460.115234 0)"/>
      </g>
     </g>
    </g>
    <g id="ytick_12">
     <g id="line2d_19">
      <g>
       <use xlink:href="#mc9385788d1" x="180.020312" y="174.473072" style="stroke: #000000; stroke-width: 0.8"/>
      </g>
     </g>
     <g id="text_20">
      <!-- postsynaptic density membrane -->
      <g transform="translate(11.55 178.272291) scale(0.1 -0.1)">
       <use xlink:href="#DejaVuSans-70"/>
       <use xlink:href="#DejaVuSans-6f" transform="translate(63.476562 0)"/>
       <use xlink:href="#DejaVuSans-73" transform="translate(124.658203 0)"/>
       <use xlink:href="#DejaVuSans-74" transform="translate(176.757812 0)"/>
       <use xlink:href="#DejaVuSans-73" transform="translate(215.966797 0)"/>
       <use xlink:href="#DejaVuSans-79" transform="translate(268.066406 0)"/>
       <use xlink:href="#DejaVuSans-6e" transform="translate(327.246094 0)"/>
       <use xlink:href="#DejaVuSans-61" transform="translate(390.625 0)"/>
       <use xlink:href="#DejaVuSans-70" transform="translate(451.904297 0)"/>
       <use xlink:href="#DejaVuSans-74" transform="translate(515.380859 0)"/>
       <use xlink:href="#DejaVuSans-69" transform="translate(554.589844 0)"/>
       <use xlink:href="#DejaVuSans-63" transform="translate(582.373047 0)"/>
       <use xlink:href="#DejaVuSans-20" transform="translate(637.353516 0)"/>
       <use xlink:href="#DejaVuSans-64" transform="translate(669.140625 0)"/>
       <use xlink:href="#DejaVuSans-65" transform="translate(732.617188 0)"/>
       <use xlink:href="#DejaVuSans-6e" transform="translate(794.140625 0)"/>
       <use xlink:href="#DejaVuSans-73" transform="translate(857.519531 0)"/>
       <use xlink:href="#DejaVuSans-69" transform="translate(909.619141 0)"/>
       <use xlink:href="#DejaVuSans-74" transform="translate(937.402344 0)"/>
       <use xlink:href="#DejaVuSans-79" transform="translate(976.611328 0)"/>
       <use xlink:href="#DejaVuSans-20" transform="translate(1035.791016 0)"/>
       <use xlink:href="#DejaVuSans-6d" transform="translate(1067.578125 0)"/>
       <use xlink:href="#DejaVuSans-65" transform="translate(1164.990234 0)"/>
       <use xlink:href="#DejaVuSans-6d" transform="translate(1226.513672 0)"/>
       <use xlink:href="#DejaVuSans-62" transform="translate(1323.925781 0)"/>
       <use xlink:href="#DejaVuSans-72" transform="translate(1387.402344 0)"/>
       <use xlink:href="#DejaVuSans-61" transform="translate(1428.515625 0)"/>
       <use xlink:href="#DejaVuSans-6e" transform="translate(1489.794922 0)"/>
       <use xlink:href="#DejaVuSans-65" transform="translate(1553.173828 0)"/>
      </g>
     </g>
    </g>
    <g id="ytick_13">
     <g id="line2d_20">
      <g>
       <use xlink:href="#mc9385788d1" x="180.020312" y="187.205704" style="stroke: #000000; stroke-width: 0.8"/>
      </g>
     </g>
     <g id="text_21">
      <!-- Schaffer collateral - CA1 synapse -->
      <g transform="translate(7.2 191.004923) scale(0.1 -0.1)">
       <defs>
        <path id="DejaVuSans-53" d="M 3425 4513 
L 3425 3897 
Q 3066 4069 2747 4153 
Q 2428 4238 2131 4238 
Q 1616 4238 1336 4038 
Q 1056 3838 1056 3469 
Q 1056 3159 1242 3001 
Q 1428 2844 1947 2747 
L 2328 2669 
Q 3034 2534 3370 2195 
Q 3706 1856 3706 1288 
Q 3706 609 3251 259 
Q 2797 -91 1919 -91 
Q 1588 -91 1214 -16 
Q 841 59 441 206 
L 441 856 
Q 825 641 1194 531 
Q 1563 422 1919 422 
Q 2459 422 2753 634 
Q 3047 847 3047 1241 
Q 3047 1584 2836 1778 
Q 2625 1972 2144 2069 
L 1759 2144 
Q 1053 2284 737 2584 
Q 422 2884 422 3419 
Q 422 4038 858 4394 
Q 1294 4750 2059 4750 
Q 2388 4750 2728 4690 
Q 3069 4631 3425 4513 
z
" transform="scale(0.015625)"/>
        <path id="DejaVuSans-66" d="M 2375 4863 
L 2375 4384 
L 1825 4384 
Q 1516 4384 1395 4259 
Q 1275 4134 1275 3809 
L 1275 3500 
L 2222 3500 
L 2222 3053 
L 1275 3053 
L 1275 0 
L 697 0 
L 697 3053 
L 147 3053 
L 147 3500 
L 697 3500 
L 697 3744 
Q 697 4328 969 4595 
Q 1241 4863 1831 4863 
L 2375 4863 
z
" transform="scale(0.015625)"/>
        <path id="DejaVuSans-43" d="M 4122 4306 
L 4122 3641 
Q 3803 3938 3442 4084 
Q 3081 4231 2675 4231 
Q 1875 4231 1450 3742 
Q 1025 3253 1025 2328 
Q 1025 1406 1450 917 
Q 1875 428 2675 428 
Q 3081 428 3442 575 
Q 3803 722 4122 1019 
L 4122 359 
Q 3791 134 3420 21 
Q 3050 -91 2638 -91 
Q 1578 -91 968 557 
Q 359 1206 359 2328 
Q 359 3453 968 4101 
Q 1578 4750 2638 4750 
Q 3056 4750 3426 4639 
Q 3797 4528 4122 4306 
z
" transform="scale(0.015625)"/>
        <path id="DejaVuSans-31" d="M 794 531 
L 1825 531 
L 1825 4091 
L 703 3866 
L 703 4441 
L 1819 4666 
L 2450 4666 
L 2450 531 
L 3481 531 
L 3481 0 
L 794 0 
L 794 531 
z
" transform="scale(0.015625)"/>
       </defs>
       <use xlink:href="#DejaVuSans-53"/>
       <use xlink:href="#DejaVuSans-63" transform="translate(63.476562 0)"/>
       <use xlink:href="#DejaVuSans-68" transform="translate(118.457031 0)"/>
       <use xlink:href="#DejaVuSans-61" transform="translate(181.835938 0)"/>
       <use xlink:href="#DejaVuSans-66" transform="translate(243.115234 0)"/>
       <use xlink:href="#DejaVuSans-66" transform="translate(278.320312 0)"/>
       <use xlink:href="#DejaVuSans-65" transform="translate(313.525391 0)"/>
       <use xlink:href="#DejaVuSans-72" transform="translate(375.048828 0)"/>
       <use xlink:href="#DejaVuSans-20" transform="translate(416.162109 0)"/>
       <use xlink:href="#DejaVuSans-63" transform="translate(447.949219 0)"/>
       <use xlink:href="#DejaVuSans-6f" transform="translate(502.929688 0)"/>
       <use xlink:href="#DejaVuSans-6c" transform="translate(564.111328 0)"/>
       <use xlink:href="#DejaVuSans-6c" transform="translate(591.894531 0)"/>
       <use xlink:href="#DejaVuSans-61" transform="translate(619.677734 0)"/>
       <use xlink:href="#DejaVuSans-74" transform="translate(680.957031 0)"/>
       <use xlink:href="#DejaVuSans-65" transform="translate(720.166016 0)"/>
       <use xlink:href="#DejaVuSans-72" transform="translate(781.689453 0)"/>
       <use xlink:href="#DejaVuSans-61" transform="translate(822.802734 0)"/>
       <use xlink:href="#DejaVuSans-6c" transform="translate(884.082031 0)"/>
       <use xlink:href="#DejaVuSans-20" transform="translate(911.865234 0)"/>
       <use xlink:href="#DejaVuSans-2d" transform="translate(943.652344 0)"/>
       <use xlink:href="#DejaVuSans-20" transform="translate(979.736328 0)"/>
       <use xlink:href="#DejaVuSans-43" transform="translate(1011.523438 0)"/>
       <use xlink:href="#DejaVuSans-41" transform="translate(1081.347656 0)"/>
       <use xlink:href="#DejaVuSans-31" transform="translate(1149.755859 0)"/>
       <use xlink:href="#DejaVuSans-20" transform="translate(1213.378906 0)"/>
       <use xlink:href="#DejaVuSans-73" transform="translate(1245.166016 0)"/>
       <use xlink:href="#DejaVuSans-79" transform="translate(1297.265625 0)"/>
       <use xlink:href="#DejaVuSans-6e" transform="translate(1356.445312 0)"/>
       <use xlink:href="#DejaVuSans-61" transform="translate(1419.824219 0)"/>
       <use xlink:href="#DejaVuSans-70" transform="translate(1481.103516 0)"/>
       <use xlink:href="#DejaVuSans-73" transform="translate(1544.580078 0)"/>
       <use xlink:href="#DejaVuSans-65" transform="translate(1596.679688 0)"/>
      </g>
     </g>
    </g>
    <g id="ytick_14">
     <g id="line2d_21">
      <g>
       <use xlink:href="#mc9385788d1" x="180.020312" y="199.938336" style="stroke: #000000; stroke-width: 0.8"/>
      </g>
     </g>
     <g id="text_22">
      <!-- axon -->
      <g transform="translate(148.829687 203.737554) scale(0.1 -0.1)">
       <use xlink:href="#DejaVuSans-61"/>
       <use xlink:href="#DejaVuSans-78" transform="translate(61.279297 0)"/>
       <use xlink:href="#DejaVuSans-6f" transform="translate(117.333984 0)"/>
       <use xlink:href="#DejaVuSans-6e" transform="translate(178.515625 0)"/>
      </g>
     </g>
    </g>
    <g id="ytick_15">
     <g id="line2d_22">
      <g>
       <use xlink:href="#mc9385788d1" x="180.020312" y="212.670967" style="stroke: #000000; stroke-width: 0.8"/>
      </g>
     </g>
     <g id="text_23">
      <!-- presynaptic membrane -->
      <g transform="translate(56.603125 216.470186) scale(0.1 -0.1)">
       <use xlink:href="#DejaVuSans-70"/>
       <use xlink:href="#DejaVuSans-72" transform="translate(63.476562 0)"/>
       <use xlink:href="#DejaVuSans-65" transform="translate(102.339844 0)"/>
       <use xlink:href="#DejaVuSans-73" transform="translate(163.863281 0)"/>
       <use xlink:href="#DejaVuSans-79" transform="translate(215.962891 0)"/>
       <use xlink:href="#DejaVuSans-6e" transform="translate(275.142578 0)"/>
       <use xlink:href="#DejaVuSans-61" transform="translate(338.521484 0)"/>
       <use xlink:href="#DejaVuSans-70" transform="translate(399.800781 0)"/>
       <use xlink:href="#DejaVuSans-74" transform="translate(463.277344 0)"/>
       <use xlink:href="#DejaVuSans-69" transform="translate(502.486328 0)"/>
       <use xlink:href="#DejaVuSans-63" transform="translate(530.269531 0)"/>
       <use xlink:href="#DejaVuSans-20" transform="translate(585.25 0)"/>
       <use xlink:href="#DejaVuSans-6d" transform="translate(617.037109 0)"/>
       <use xlink:href="#DejaVuSans-65" transform="translate(714.449219 0)"/>
       <use xlink:href="#DejaVuSans-6d" transform="translate(775.972656 0)"/>
       <use xlink:href="#DejaVuSans-62" transform="translate(873.384766 0)"/>
       <use xlink:href="#DejaVuSans-72" transform="translate(936.861328 0)"/>
       <use xlink:href="#DejaVuSans-61" transform="translate(977.974609 0)"/>
       <use xlink:href="#DejaVuSans-6e" transform="translate(1039.253906 0)"/>
       <use xlink:href="#DejaVuSans-65" transform="translate(1102.632812 0)"/>
      </g>
     </g>
    </g>
    <g id="ytick_16">
     <g id="line2d_23">
      <g>
       <use xlink:href="#mc9385788d1" x="180.020312" y="225.403599" style="stroke: #000000; stroke-width: 0.8"/>
      </g>
     </g>
     <g id="text_24">
      <!-- growth cone -->
      <g transform="translate(110.945312 229.202817) scale(0.1 -0.1)">
       <defs>
        <path id="DejaVuSans-77" d="M 269 3500 
L 844 3500 
L 1563 769 
L 2278 3500 
L 2956 3500 
L 3675 769 
L 4391 3500 
L 4966 3500 
L 4050 0 
L 3372 0 
L 2619 2869 
L 1863 0 
L 1184 0 
L 269 3500 
z
" transform="scale(0.015625)"/>
       </defs>
       <use xlink:href="#DejaVuSans-67"/>
       <use xlink:href="#DejaVuSans-72" transform="translate(63.476562 0)"/>
       <use xlink:href="#DejaVuSans-6f" transform="translate(102.339844 0)"/>
       <use xlink:href="#DejaVuSans-77" transform="translate(163.521484 0)"/>
       <use xlink:href="#DejaVuSans-74" transform="translate(245.308594 0)"/>
       <use xlink:href="#DejaVuSans-68" transform="translate(284.517578 0)"/>
       <use xlink:href="#DejaVuSans-20" transform="translate(347.896484 0)"/>
       <use xlink:href="#DejaVuSans-63" transform="translate(379.683594 0)"/>
       <use xlink:href="#DejaVuSans-6f" transform="translate(434.664062 0)"/>
       <use xlink:href="#DejaVuSans-6e" transform="translate(495.845703 0)"/>
       <use xlink:href="#DejaVuSans-65" transform="translate(559.224609 0)"/>
      </g>
     </g>
    </g>
    <g id="ytick_17">
     <g id="line2d_24">
      <g>
       <use xlink:href="#mc9385788d1" x="180.020312" y="238.13623" style="stroke: #000000; stroke-width: 0.8"/>
      </g>
     </g>
     <g id="text_25">
      <!-- ubiquitin ligase complex -->
      <g transform="translate(50.923437 241.935449) scale(0.1 -0.1)">
       <defs>
        <path id="DejaVuSans-71" d="M 947 1747 
Q 947 1113 1208 752 
Q 1469 391 1925 391 
Q 2381 391 2643 752 
Q 2906 1113 2906 1747 
Q 2906 2381 2643 2742 
Q 2381 3103 1925 3103 
Q 1469 3103 1208 2742 
Q 947 2381 947 1747 
z
M 2906 525 
Q 2725 213 2448 61 
Q 2172 -91 1784 -91 
Q 1150 -91 751 415 
Q 353 922 353 1747 
Q 353 2572 751 3078 
Q 1150 3584 1784 3584 
Q 2172 3584 2448 3432 
Q 2725 3281 2906 2969 
L 2906 3500 
L 3481 3500 
L 3481 -1331 
L 2906 -1331 
L 2906 525 
z
" transform="scale(0.015625)"/>
       </defs>
       <use xlink:href="#DejaVuSans-75"/>
       <use xlink:href="#DejaVuSans-62" transform="translate(63.378906 0)"/>
       <use xlink:href="#DejaVuSans-69" transform="translate(126.855469 0)"/>
       <use xlink:href="#DejaVuSans-71" transform="translate(154.638672 0)"/>
       <use xlink:href="#DejaVuSans-75" transform="translate(218.115234 0)"/>
       <use xlink:href="#DejaVuSans-69" transform="translate(281.494141 0)"/>
       <use xlink:href="#DejaVuSans-74" transform="translate(309.277344 0)"/>
       <use xlink:href="#DejaVuSans-69" transform="translate(348.486328 0)"/>
       <use xlink:href="#DejaVuSans-6e" transform="translate(376.269531 0)"/>
       <use xlink:href="#DejaVuSans-20" transform="translate(439.648438 0)"/>
       <use xlink:href="#DejaVuSans-6c" transform="translate(471.435547 0)"/>
       <use xlink:href="#DejaVuSans-69" transform="translate(499.21875 0)"/>
       <use xlink:href="#DejaVuSans-67" transform="translate(527.001953 0)"/>
       <use xlink:href="#DejaVuSans-61" transform="translate(590.478516 0)"/>
       <use xlink:href="#DejaVuSans-73" transform="translate(651.757812 0)"/>
       <use xlink:href="#DejaVuSans-65" transform="translate(703.857422 0)"/>
       <use xlink:href="#DejaVuSans-20" transform="translate(765.380859 0)"/>
       <use xlink:href="#DejaVuSans-63" transform="translate(797.167969 0)"/>
       <use xlink:href="#DejaVuSans-6f" transform="translate(852.148438 0)"/>
       <use xlink:href="#DejaVuSans-6d" transform="translate(913.330078 0)"/>
       <use xlink:href="#DejaVuSans-70" transform="translate(1010.742188 0)"/>
       <use xlink:href="#DejaVuSans-6c" transform="translate(1074.21875 0)"/>
       <use xlink:href="#DejaVuSans-65" transform="translate(1102.001953 0)"/>
       <use xlink:href="#DejaVuSans-78" transform="translate(1161.775391 0)"/>
      </g>
     </g>
    </g>
    <g id="ytick_18">
     <g id="line2d_25">
      <g>
       <use xlink:href="#mc9385788d1" x="180.020312" y="250.868862" style="stroke: #000000; stroke-width: 0.8"/>
      </g>
     </g>
     <g id="text_26">
      <!-- adherens junction -->
      <g transform="translate(83.182812 254.668081) scale(0.1 -0.1)">
       <defs>
        <path id="DejaVuSans-6a" d="M 603 3500 
L 1178 3500 
L 1178 -63 
Q 1178 -731 923 -1031 
Q 669 -1331 103 -1331 
L -116 -1331 
L -116 -844 
L 38 -844 
Q 366 -844 484 -692 
Q 603 -541 603 -63 
L 603 3500 
z
M 603 4863 
L 1178 4863 
L 1178 4134 
L 603 4134 
L 603 4863 
z
" transform="scale(0.015625)"/>
       </defs>
       <use xlink:href="#DejaVuSans-61"/>
       <use xlink:href="#DejaVuSans-64" transform="translate(61.279297 0)"/>
       <use xlink:href="#DejaVuSans-68" transform="translate(124.755859 0)"/>
       <use xlink:href="#DejaVuSans-65" transform="translate(188.134766 0)"/>
       <use xlink:href="#DejaVuSans-72" transform="translate(249.658203 0)"/>
       <use xlink:href="#DejaVuSans-65" transform="translate(288.521484 0)"/>
       <use xlink:href="#DejaVuSans-6e" transform="translate(350.044922 0)"/>
       <use xlink:href="#DejaVuSans-73" transform="translate(413.423828 0)"/>
       <use xlink:href="#DejaVuSans-20" transform="translate(465.523438 0)"/>
       <use xlink:href="#DejaVuSans-6a" transform="translate(497.310547 0)"/>
       <use xlink:href="#DejaVuSans-75" transform="translate(525.09375 0)"/>
       <use xlink:href="#DejaVuSans-6e" transform="translate(588.472656 0)"/>
       <use xlink:href="#DejaVuSans-63" transform="translate(651.851562 0)"/>
       <use xlink:href="#DejaVuSans-74" transform="translate(706.832031 0)"/>
       <use xlink:href="#DejaVuSans-69" transform="translate(746.041016 0)"/>
       <use xlink:href="#DejaVuSans-6f" transform="translate(773.824219 0)"/>
       <use xlink:href="#DejaVuSans-6e" transform="translate(835.005859 0)"/>
      </g>
     </g>
    </g>
    <g id="ytick_19">
     <g id="line2d_26">
      <g>
       <use xlink:href="#mc9385788d1" x="180.020312" y="263.601493" style="stroke: #000000; stroke-width: 0.8"/>
      </g>
     </g>
     <g id="text_27">
      <!-- neuron projection -->
      <g transform="translate(84.734375 267.400712) scale(0.1 -0.1)">
       <use xlink:href="#DejaVuSans-6e"/>
       <use xlink:href="#DejaVuSans-65" transform="translate(63.378906 0)"/>
       <use xlink:href="#DejaVuSans-75" transform="translate(124.902344 0)"/>
       <use xlink:href="#DejaVuSans-72" transform="translate(188.28125 0)"/>
       <use xlink:href="#DejaVuSans-6f" transform="translate(227.144531 0)"/>
       <use xlink:href="#DejaVuSans-6e" transform="translate(288.326172 0)"/>
       <use xlink:href="#DejaVuSans-20" transform="translate(351.705078 0)"/>
       <use xlink:href="#DejaVuSans-70" transform="translate(383.492188 0)"/>
       <use xlink:href="#DejaVuSans-72" transform="translate(446.96875 0)"/>
       <use xlink:href="#DejaVuSans-6f" transform="translate(485.832031 0)"/>
       <use xlink:href="#DejaVuSans-6a" transform="translate(547.013672 0)"/>
       <use xlink:href="#DejaVuSans-65" transform="translate(574.796875 0)"/>
       <use xlink:href="#DejaVuSans-63" transform="translate(636.320312 0)"/>
       <use xlink:href="#DejaVuSans-74" transform="translate(691.300781 0)"/>
       <use xlink:href="#DejaVuSans-69" transform="translate(730.509766 0)"/>
       <use xlink:href="#DejaVuSans-6f" transform="translate(758.292969 0)"/>
       <use xlink:href="#DejaVuSans-6e" transform="translate(819.474609 0)"/>
      </g>
     </g>
    </g>
    <g id="ytick_20">
     <g id="line2d_27">
      <g>
       <use xlink:href="#mc9385788d1" x="180.020312" y="276.334125" style="stroke: #000000; stroke-width: 0.8"/>
      </g>
     </g>
     <g id="text_28">
      <!-- dendrite -->
      <g transform="translate(130.870312 280.133344) scale(0.1 -0.1)">
       <use xlink:href="#DejaVuSans-64"/>
       <use xlink:href="#DejaVuSans-65" transform="translate(63.476562 0)"/>
       <use xlink:href="#DejaVuSans-6e" transform="translate(125 0)"/>
       <use xlink:href="#DejaVuSans-64" transform="translate(188.378906 0)"/>
       <use xlink:href="#DejaVuSans-72" transform="translate(251.855469 0)"/>
       <use xlink:href="#DejaVuSans-69" transform="translate(292.96875 0)"/>
       <use xlink:href="#DejaVuSans-74" transform="translate(320.751953 0)"/>
       <use xlink:href="#DejaVuSans-65" transform="translate(359.960938 0)"/>
      </g>
     </g>
    </g>
   </g>
   <g id="line2d_28"/>
   <g id="line2d_29"/>
   <g id="line2d_30"/>
   <g id="line2d_31"/>
   <g id="line2d_32"/>
   <g id="line2d_33"/>
   <g id="line2d_34"/>
   <g id="line2d_35"/>
   <g id="line2d_36"/>
   <g id="line2d_37"/>
   <g id="line2d_38"/>
   <g id="line2d_39"/>
   <g id="line2d_40"/>
   <g id="patch_3">
    <path d="M 180.020312 288.430125 
L 180.020312 22.318125 
" style="fill: none; stroke: #000000; stroke-width: 0.8; stroke-linejoin: miter; stroke-linecap: square"/>
   </g>
   <g id="patch_4">
    <path d="M 537.140312 288.430125 
L 537.140312 22.318125 
" style="fill: none; stroke: #000000; stroke-width: 0.8; stroke-linejoin: miter; stroke-linecap: square"/>
   </g>
   <g id="patch_5">
    <path d="M 180.020312 288.430125 
L 537.140312 288.430125 
" style="fill: none; stroke: #000000; stroke-width: 0.8; stroke-linejoin: miter; stroke-linecap: square"/>
   </g>
   <g id="patch_6">
    <path d="M 180.020312 22.318125 
L 537.140312 22.318125 
" style="fill: none; stroke: #000000; stroke-width: 0.8; stroke-linejoin: miter; stroke-linecap: square"/>
   </g>
   <g id="text_29">
    <!-- Top 20 Enriched Cellular Components -->
    <g transform="translate(246.074687 16.318125) scale(0.12 -0.12)">
     <defs>
      <path id="DejaVuSans-54" d="M -19 4666 
L 3928 4666 
L 3928 4134 
L 2272 4134 
L 2272 0 
L 1638 0 
L 1638 4134 
L -19 4134 
L -19 4666 
z
" transform="scale(0.015625)"/>
     </defs>
     <use xlink:href="#DejaVuSans-54"/>
     <use xlink:href="#DejaVuSans-6f" transform="translate(44.083984 0)"/>
     <use xlink:href="#DejaVuSans-70" transform="translate(105.265625 0)"/>
     <use xlink:href="#DejaVuSans-20" transform="translate(168.742188 0)"/>
     <use xlink:href="#DejaVuSans-32" transform="translate(200.529297 0)"/>
     <use xlink:href="#DejaVuSans-30" transform="translate(264.152344 0)"/>
     <use xlink:href="#DejaVuSans-20" transform="translate(327.775391 0)"/>
     <use xlink:href="#DejaVuSans-45" transform="translate(359.5625 0)"/>
     <use xlink:href="#DejaVuSans-6e" transform="translate(422.746094 0)"/>
     <use xlink:href="#DejaVuSans-72" transform="translate(486.125 0)"/>
     <use xlink:href="#DejaVuSans-69" transform="translate(527.238281 0)"/>
     <use xlink:href="#DejaVuSans-63" transform="translate(555.021484 0)"/>
     <use xlink:href="#DejaVuSans-68" transform="translate(610.001953 0)"/>
     <use xlink:href="#DejaVuSans-65" transform="translate(673.380859 0)"/>
     <use xlink:href="#DejaVuSans-64" transform="translate(734.904297 0)"/>
     <use xlink:href="#DejaVuSans-20" transform="translate(798.380859 0)"/>
     <use xlink:href="#DejaVuSans-43" transform="translate(830.167969 0)"/>
     <use xlink:href="#DejaVuSans-65" transform="translate(899.992188 0)"/>
     <use xlink:href="#DejaVuSans-6c" transform="translate(961.515625 0)"/>
     <use xlink:href="#DejaVuSans-6c" transform="translate(989.298828 0)"/>
     <use xlink:href="#DejaVuSans-75" transform="translate(1017.082031 0)"/>
     <use xlink:href="#DejaVuSans-6c" transform="translate(1080.460938 0)"/>
     <use xlink:href="#DejaVuSans-61" transform="translate(1108.244141 0)"/>
     <use xlink:href="#DejaVuSans-72" transform="translate(1169.523438 0)"/>
     <use xlink:href="#DejaVuSans-20" transform="translate(1210.636719 0)"/>
     <use xlink:href="#DejaVuSans-43" transform="translate(1242.423828 0)"/>
     <use xlink:href="#DejaVuSans-6f" transform="translate(1312.248047 0)"/>
     <use xlink:href="#DejaVuSans-6d" transform="translate(1373.429688 0)"/>
     <use xlink:href="#DejaVuSans-70" transform="translate(1470.841797 0)"/>
     <use xlink:href="#DejaVuSans-6f" transform="translate(1534.318359 0)"/>
     <use xlink:href="#DejaVuSans-6e" transform="translate(1595.5 0)"/>
     <use xlink:href="#DejaVuSans-65" transform="translate(1658.878906 0)"/>
     <use xlink:href="#DejaVuSans-6e" transform="translate(1720.402344 0)"/>
     <use xlink:href="#DejaVuSans-74" transform="translate(1783.78125 0)"/>
     <use xlink:href="#DejaVuSans-73" transform="translate(1822.990234 0)"/>
    </g>
   </g>
   <g id="legend_1">
    <g id="patch_7">
     <path d="M 544.140312 221.13375 
L 631.379375 221.13375 
Q 633.379375 221.13375 633.379375 219.13375 
L 633.379375 29.318125 
Q 633.379375 27.318125 631.379375 27.318125 
L 544.140312 27.318125 
Q 542.140312 27.318125 542.140312 29.318125 
L 542.140312 219.13375 
Q 542.140312 221.13375 544.140312 221.13375 
z
" style="fill: #ffffff; opacity: 0.8; stroke: #cccccc; stroke-linejoin: miter"/>
    </g>
    <g id="line2d_41"/>
    <g id="text_30">
     <!-- -log10 FDR -->
     <g transform="translate(574.140312 38.916562) scale(0.1 -0.1)">
      <defs>
       <path id="DejaVuSans-44" d="M 1259 4147 
L 1259 519 
L 2022 519 
Q 2988 519 3436 956 
Q 3884 1394 3884 2338 
Q 3884 3275 3436 3711 
Q 2988 4147 2022 4147 
L 1259 4147 
z
M 628 4666 
L 1925 4666 
Q 3281 4666 3915 4102 
Q 4550 3538 4550 2338 
Q 4550 1131 3912 565 
Q 3275 0 1925 0 
L 628 0 
L 628 4666 
z
" transform="scale(0.015625)"/>
       <path id="DejaVuSans-52" d="M 2841 2188 
Q 3044 2119 3236 1894 
Q 3428 1669 3622 1275 
L 4263 0 
L 3584 0 
L 2988 1197 
Q 2756 1666 2539 1819 
Q 2322 1972 1947 1972 
L 1259 1972 
L 1259 0 
L 628 0 
L 628 4666 
L 2053 4666 
Q 2853 4666 3247 4331 
Q 3641 3997 3641 3322 
Q 3641 2881 3436 2590 
Q 3231 2300 2841 2188 
z
M 1259 4147 
L 1259 2491 
L 2053 2491 
Q 2509 2491 2742 2702 
Q 2975 2913 2975 3322 
Q 2975 3731 2742 3939 
Q 2509 4147 2053 4147 
L 1259 4147 
z
" transform="scale(0.015625)"/>
      </defs>
      <use xlink:href="#DejaVuSans-2d"/>
      <use xlink:href="#DejaVuSans-6c" transform="translate(36.083984 0)"/>
      <use xlink:href="#DejaVuSans-6f" transform="translate(63.867188 0)"/>
      <use xlink:href="#DejaVuSans-67" transform="translate(125.048828 0)"/>
      <use xlink:href="#DejaVuSans-31" transform="translate(188.525391 0)"/>
      <use xlink:href="#DejaVuSans-30" transform="translate(252.148438 0)"/>
      <use xlink:href="#DejaVuSans-20" transform="translate(315.771484 0)"/>
      <use xlink:href="#DejaVuSans-46" transform="translate(347.558594 0)"/>
      <use xlink:href="#DejaVuSans-44" transform="translate(405.078125 0)"/>
      <use xlink:href="#DejaVuSans-52" transform="translate(482.080078 0)"/>
     </g>
    </g>
    <g id="line2d_42">
     <defs>
      <path id="ma1d5f6268e" d="M 0 3 
C 0.795609 3 1.55874 2.683901 2.12132 2.12132 
C 2.683901 1.55874 3 0.795609 3 0 
C 3 -0.795609 2.683901 -1.55874 2.12132 -2.12132 
C 1.55874 -2.683901 0.795609 -3 0 -3 
C -0.795609 -3 -1.55874 -2.683901 -2.12132 -2.12132 
C -2.683901 -1.55874 -3 -0.795609 -3 0 
C -3 0.795609 -2.683901 1.55874 -2.12132 2.12132 
C -1.55874 2.683901 -0.795609 3 0 3 
z
" style="stroke: #ffffff; stroke-width: 0.371406"/>
     </defs>
     <g>
      <use xlink:href="#ma1d5f6268e" x="556.140312" y="50.094688" style="fill: #4b64d5; stroke: #ffffff; stroke-width: 0.371406"/>
     </g>
    </g>
    <g id="text_31">
     <!-- 6 -->
     <g transform="translate(574.140312 53.594688) scale(0.1 -0.1)">
      <use xlink:href="#DejaVuSans-36"/>
     </g>
    </g>
    <g id="line2d_43">
     <defs>
      <path id="m5da0504bb8" d="M 0 3 
C 0.795609 3 1.55874 2.683901 2.12132 2.12132 
C 2.683901 1.55874 3 0.795609 3 0 
C 3 -0.795609 2.683901 -1.55874 2.12132 -2.12132 
C 1.55874 -2.683901 0.795609 -3 0 -3 
C -0.795609 -3 -1.55874 -2.683901 -2.12132 -2.12132 
C -2.683901 -1.55874 -3 -0.795609 -3 0 
C -3 0.795609 -2.683901 1.55874 -2.12132 2.12132 
C -1.55874 2.683901 -0.795609 3 0 3 
z
" style="stroke: #ffffff; stroke-width: 0.371406"/>
     </defs>
     <g>
      <use xlink:href="#m5da0504bb8" x="556.140312" y="64.772812" style="fill: #89acfd; stroke: #ffffff; stroke-width: 0.371406"/>
     </g>
    </g>
    <g id="text_32">
     <!-- 12 -->
     <g transform="translate(574.140312 68.272812) scale(0.1 -0.1)">
      <use xlink:href="#DejaVuSans-31"/>
      <use xlink:href="#DejaVuSans-32" transform="translate(63.623047 0)"/>
     </g>
    </g>
    <g id="line2d_44">
     <defs>
      <path id="m3bc72ac96c" d="M 0 3 
C 0.795609 3 1.55874 2.683901 2.12132 2.12132 
C 2.683901 1.55874 3 0.795609 3 0 
C 3 -0.795609 2.683901 -1.55874 2.12132 -2.12132 
C 1.55874 -2.683901 0.795609 -3 0 -3 
C -0.795609 -3 -1.55874 -2.683901 -2.12132 -2.12132 
C -2.683901 -1.55874 -3 -0.795609 -3 0 
C -3 0.795609 -2.683901 1.55874 -2.12132 2.12132 
C -1.55874 2.683901 -0.795609 3 0 3 
z
" style="stroke: #ffffff; stroke-width: 0.371406"/>
     </defs>
     <g>
      <use xlink:href="#m3bc72ac96c" x="556.140312" y="79.450938" style="fill: #c9d7f0; stroke: #ffffff; stroke-width: 0.371406"/>
     </g>
    </g>
    <g id="text_33">
     <!-- 18 -->
     <g transform="translate(574.140312 82.950938) scale(0.1 -0.1)">
      <use xlink:href="#DejaVuSans-31"/>
      <use xlink:href="#DejaVuSans-38" transform="translate(63.623047 0)"/>
     </g>
    </g>
    <g id="line2d_45">
     <defs>
      <path id="m9b17128c56" d="M 0 3 
C 0.795609 3 1.55874 2.683901 2.12132 2.12132 
C 2.683901 1.55874 3 0.795609 3 0 
C 3 -0.795609 2.683901 -1.55874 2.12132 -2.12132 
C 1.55874 -2.683901 0.795609 -3 0 -3 
C -0.795609 -3 -1.55874 -2.683901 -2.12132 -2.12132 
C -2.683901 -1.55874 -3 -0.795609 -3 0 
C -3 0.795609 -2.683901 1.55874 -2.12132 2.12132 
C -1.55874 2.683901 -0.795609 3 0 3 
z
" style="stroke: #ffffff; stroke-width: 0.371406"/>
     </defs>
     <g>
      <use xlink:href="#m9b17128c56" x="556.140312" y="94.129063" style="fill: #f3c7b1; stroke: #ffffff; stroke-width: 0.371406"/>
     </g>
    </g>
    <g id="text_34">
     <!-- 24 -->
     <g transform="translate(574.140312 97.629063) scale(0.1 -0.1)">
      <use xlink:href="#DejaVuSans-32"/>
      <use xlink:href="#DejaVuSans-34" transform="translate(63.623047 0)"/>
     </g>
    </g>
    <g id="line2d_46">
     <defs>
      <path id="me76ab2da80" d="M 0 3 
C 0.795609 3 1.55874 2.683901 2.12132 2.12132 
C 2.683901 1.55874 3 0.795609 3 0 
C 3 -0.795609 2.683901 -1.55874 2.12132 -2.12132 
C 1.55874 -2.683901 0.795609 -3 0 -3 
C -0.795609 -3 -1.55874 -2.683901 -2.12132 -2.12132 
C -2.683901 -1.55874 -3 -0.795609 -3 0 
C -3 0.795609 -2.683901 1.55874 -2.12132 2.12132 
C -1.55874 2.683901 -0.795609 3 0 3 
z
" style="stroke: #ffffff; stroke-width: 0.371406"/>
     </defs>
     <g>
      <use xlink:href="#me76ab2da80" x="556.140312" y="108.807187" style="fill: #ed8366; stroke: #ffffff; stroke-width: 0.371406"/>
     </g>
    </g>
    <g id="text_35">
     <!-- 30 -->
     <g transform="translate(574.140312 112.307187) scale(0.1 -0.1)">
      <use xlink:href="#DejaVuSans-33"/>
      <use xlink:href="#DejaVuSans-30" transform="translate(63.623047 0)"/>
     </g>
    </g>
    <g id="line2d_47">
     <defs>
      <path id="med57683616" d="M 0 3 
C 0.795609 3 1.55874 2.683901 2.12132 2.12132 
C 2.683901 1.55874 3 0.795609 3 0 
C 3 -0.795609 2.683901 -1.55874 2.12132 -2.12132 
C 1.55874 -2.683901 0.795609 -3 0 -3 
C -0.795609 -3 -1.55874 -2.683901 -2.12132 -2.12132 
C -2.683901 -1.55874 -3 -0.795609 -3 0 
C -3 0.795609 -2.683901 1.55874 -2.12132 2.12132 
C -1.55874 2.683901 -0.795609 3 0 3 
z
" style="stroke: #ffffff; stroke-width: 0.371406"/>
     </defs>
     <g>
      <use xlink:href="#med57683616" x="556.140312" y="123.485313" style="fill: #b70d28; stroke: #ffffff; stroke-width: 0.371406"/>
     </g>
    </g>
    <g id="text_36">
     <!-- 36 -->
     <g transform="translate(574.140312 126.985313) scale(0.1 -0.1)">
      <use xlink:href="#DejaVuSans-33"/>
      <use xlink:href="#DejaVuSans-36" transform="translate(63.623047 0)"/>
     </g>
    </g>
    <g id="line2d_48"/>
    <g id="text_37">
     <!-- Gene Ratio -->
     <g transform="translate(574.140312 141.663437) scale(0.1 -0.1)">
      <use xlink:href="#DejaVuSans-47"/>
      <use xlink:href="#DejaVuSans-65" transform="translate(77.490234 0)"/>
      <use xlink:href="#DejaVuSans-6e" transform="translate(139.013672 0)"/>
      <use xlink:href="#DejaVuSans-65" transform="translate(202.392578 0)"/>
      <use xlink:href="#DejaVuSans-20" transform="translate(263.916016 0)"/>
      <use xlink:href="#DejaVuSans-52" transform="translate(295.703125 0)"/>
      <use xlink:href="#DejaVuSans-61" transform="translate(362.935547 0)"/>
      <use xlink:href="#DejaVuSans-74" transform="translate(424.214844 0)"/>
      <use xlink:href="#DejaVuSans-69" transform="translate(463.423828 0)"/>
      <use xlink:href="#DejaVuSans-6f" transform="translate(491.207031 0)"/>
     </g>
    </g>
    <g id="line2d_49">
     <defs>
      <path id="m269053994f" d="M 0 2.80222 
C 0.743157 2.80222 1.455977 2.50696 1.981469 1.981469 
C 2.50696 1.455977 2.80222 0.743157 2.80222 0 
C 2.80222 -0.743157 2.50696 -1.455977 1.981469 -1.981469 
C 1.455977 -2.50696 0.743157 -2.80222 0 -2.80222 
C -0.743157 -2.80222 -1.455977 -2.50696 -1.981469 -1.981469 
C -2.50696 -1.455977 -2.80222 -0.743157 -2.80222 0 
C -2.80222 0.743157 -2.50696 1.455977 -1.981469 1.981469 
C -1.455977 2.50696 -0.743157 2.80222 0 2.80222 
z
" style="stroke: #ffffff; stroke-width: 0.371406"/>
     </defs>
     <g>
      <use xlink:href="#m269053994f" x="556.140312" y="152.841563" style="fill: #333333; stroke: #ffffff; stroke-width: 0.371406"/>
     </g>
    </g>
    <g id="text_38">
     <!-- 0.015 -->
     <g transform="translate(574.140312 156.341563) scale(0.1 -0.1)">
      <defs>
       <path id="DejaVuSans-35" d="M 691 4666 
L 3169 4666 
L 3169 4134 
L 1269 4134 
L 1269 2991 
Q 1406 3038 1543 3061 
Q 1681 3084 1819 3084 
Q 2600 3084 3056 2656 
Q 3513 2228 3513 1497 
Q 3513 744 3044 326 
Q 2575 -91 1722 -91 
Q 1428 -91 1123 -41 
Q 819 9 494 109 
L 494 744 
Q 775 591 1075 516 
Q 1375 441 1709 441 
Q 2250 441 2565 725 
Q 2881 1009 2881 1497 
Q 2881 1984 2565 2268 
Q 2250 2553 1709 2553 
Q 1456 2553 1204 2497 
Q 953 2441 691 2322 
L 691 4666 
z
" transform="scale(0.015625)"/>
      </defs>
      <use xlink:href="#DejaVuSans-30"/>
      <use xlink:href="#DejaVuSans-2e" transform="translate(63.623047 0)"/>
      <use xlink:href="#DejaVuSans-30" transform="translate(95.410156 0)"/>
      <use xlink:href="#DejaVuSans-31" transform="translate(159.033203 0)"/>
      <use xlink:href="#DejaVuSans-35" transform="translate(222.65625 0)"/>
     </g>
    </g>
    <g id="line2d_50">
     <defs>
      <path id="m2ada1fcb65" d="M 0 3.89894 
C 1.034011 3.89894 2.025811 3.488123 2.756967 2.756967 
C 3.488123 2.025811 3.89894 1.034011 3.89894 0 
C 3.89894 -1.034011 3.488123 -2.025811 2.756967 -2.756967 
C 2.025811 -3.488123 1.034011 -3.89894 0 -3.89894 
C -1.034011 -3.89894 -2.025811 -3.488123 -2.756967 -2.756967 
C -3.488123 -2.025811 -3.89894 -1.034011 -3.89894 0 
C -3.89894 1.034011 -3.488123 2.025811 -2.756967 2.756967 
C -2.025811 3.488123 -1.034011 3.89894 0 3.89894 
z
" style="stroke: #ffffff; stroke-width: 0.371406"/>
     </defs>
     <g>
      <use xlink:href="#m2ada1fcb65" x="556.140312" y="167.519687" style="fill: #333333; stroke: #ffffff; stroke-width: 0.371406"/>
     </g>
    </g>
    <g id="text_39">
     <!-- 0.030 -->
     <g transform="translate(574.140312 171.019687) scale(0.1 -0.1)">
      <use xlink:href="#DejaVuSans-30"/>
      <use xlink:href="#DejaVuSans-2e" transform="translate(63.623047 0)"/>
      <use xlink:href="#DejaVuSans-30" transform="translate(95.410156 0)"/>
      <use xlink:href="#DejaVuSans-33" transform="translate(159.033203 0)"/>
      <use xlink:href="#DejaVuSans-30" transform="translate(222.65625 0)"/>
     </g>
    </g>
    <g id="line2d_51">
     <defs>
      <path id="m5776341bc6" d="M 0 4.748792 
C 1.259394 4.748792 2.467377 4.248429 3.357903 3.357903 
C 4.248429 2.467377 4.748792 1.259394 4.748792 0 
C 4.748792 -1.259394 4.248429 -2.467377 3.357903 -3.357903 
C 2.467377 -4.248429 1.259394 -4.748792 0 -4.748792 
C -1.259394 -4.748792 -2.467377 -4.248429 -3.357903 -3.357903 
C -4.248429 -2.467377 -4.748792 -1.259394 -4.748792 0 
C -4.748792 1.259394 -4.248429 2.467377 -3.357903 3.357903 
C -2.467377 4.248429 -1.259394 4.748792 0 4.748792 
z
" style="stroke: #ffffff; stroke-width: 0.371406"/>
     </defs>
     <g>
      <use xlink:href="#m5776341bc6" x="556.140312" y="182.197812" style="fill: #333333; stroke: #ffffff; stroke-width: 0.371406"/>
     </g>
    </g>
    <g id="text_40">
     <!-- 0.045 -->
     <g transform="translate(574.140312 185.697812) scale(0.1 -0.1)">
      <use xlink:href="#DejaVuSans-30"/>
      <use xlink:href="#DejaVuSans-2e" transform="translate(63.623047 0)"/>
      <use xlink:href="#DejaVuSans-30" transform="translate(95.410156 0)"/>
      <use xlink:href="#DejaVuSans-34" transform="translate(159.033203 0)"/>
      <use xlink:href="#DejaVuSans-35" transform="translate(222.65625 0)"/>
     </g>
    </g>
    <g id="line2d_52">
     <defs>
      <path id="mc1f01cf74b" d="M 0 5.468118 
C 1.450162 5.468118 2.841124 4.891963 3.866543 3.866543 
C 4.891963 2.841124 5.468118 1.450162 5.468118 0 
C 5.468118 -1.450162 4.891963 -2.841124 3.866543 -3.866543 
C 2.841124 -4.891963 1.450162 -5.468118 0 -5.468118 
C -1.450162 -5.468118 -2.841124 -4.891963 -3.866543 -3.866543 
C -4.891963 -2.841124 -5.468118 -1.450162 -5.468118 0 
C -5.468118 1.450162 -4.891963 2.841124 -3.866543 3.866543 
C -2.841124 4.891963 -1.450162 5.468118 0 5.468118 
z
" style="stroke: #ffffff; stroke-width: 0.371406"/>
     </defs>
     <g>
      <use xlink:href="#mc1f01cf74b" x="556.140312" y="196.875937" style="fill: #333333; stroke: #ffffff; stroke-width: 0.371406"/>
     </g>
    </g>
    <g id="text_41">
     <!-- 0.060 -->
     <g transform="translate(574.140312 200.375937) scale(0.1 -0.1)">
      <use xlink:href="#DejaVuSans-30"/>
      <use xlink:href="#DejaVuSans-2e" transform="translate(63.623047 0)"/>
      <use xlink:href="#DejaVuSans-30" transform="translate(95.410156 0)"/>
      <use xlink:href="#DejaVuSans-36" transform="translate(159.033203 0)"/>
      <use xlink:href="#DejaVuSans-30" transform="translate(222.65625 0)"/>
     </g>
    </g>
    <g id="line2d_53">
     <defs>
      <path id="md9e001cd43" d="M 0 6.103246 
C 1.6186 6.103246 3.171124 5.460169 4.315646 4.315646 
C 5.460169 3.171124 6.103246 1.6186 6.103246 0 
C 6.103246 -1.6186 5.460169 -3.171124 4.315646 -4.315646 
C 3.171124 -5.460169 1.6186 -6.103246 0 -6.103246 
C -1.6186 -6.103246 -3.171124 -5.460169 -4.315646 -4.315646 
C -5.460169 -3.171124 -6.103246 -1.6186 -6.103246 0 
C -6.103246 1.6186 -5.460169 3.171124 -4.315646 4.315646 
C -3.171124 5.460169 -1.6186 6.103246 0 6.103246 
z
" style="stroke: #ffffff; stroke-width: 0.371406"/>
     </defs>
     <g>
      <use xlink:href="#md9e001cd43" x="556.140312" y="211.554062" style="fill: #333333; stroke: #ffffff; stroke-width: 0.371406"/>
     </g>
    </g>
    <g id="text_42">
     <!-- 0.075 -->
     <g transform="translate(574.140312 215.054062) scale(0.1 -0.1)">
      <defs>
       <path id="DejaVuSans-37" d="M 525 4666 
L 3525 4666 
L 3525 4397 
L 1831 0 
L 1172 0 
L 2766 4134 
L 525 4134 
L 525 4666 
z
" transform="scale(0.015625)"/>
      </defs>
      <use xlink:href="#DejaVuSans-30"/>
      <use xlink:href="#DejaVuSans-2e" transform="translate(63.623047 0)"/>
      <use xlink:href="#DejaVuSans-30" transform="translate(95.410156 0)"/>
      <use xlink:href="#DejaVuSans-37" transform="translate(159.033203 0)"/>
      <use xlink:href="#DejaVuSans-35" transform="translate(222.65625 0)"/>
     </g>
    </g>
   </g>
  </g>
 </g>
 <defs>
  <clipPath id="p3b80c69023">
   <rect x="180.020312" y="22.318125" width="357.12" height="266.112"/>
  </clipPath>
 </defs>
</svg>
