<?xml version="1.0" encoding="utf-8" standalone="no"?>
<!DOCTYPE svg PUBLIC "-//W3C//DTD SVG 1.1//EN"
  "http://www.w3.org/Graphics/SVG/1.1/DTD/svg11.dtd">
<svg xmlns:xlink="http://www.w3.org/1999/xlink" width="640.579375pt" height="325.986375pt" viewBox="0 0 640.579375 325.986375" xmlns="http://www.w3.org/2000/svg" version="1.1">
 <metadata>
  <rdf:RDF xmlns:dc="http://purl.org/dc/elements/1.1/" xmlns:cc="http://creativecommons.org/ns#" xmlns:rdf="http://www.w3.org/1999/02/22-rdf-syntax-ns#">
   <cc:Work>
    <dc:type rdf:resource="http://purl.org/dc/dcmitype/StillImage"/>
    <dc:date>2025-12-15T07:51:50.343055</dc:date>
    <dc:format>image/svg+xml</dc:format>
    <dc:creator>
     <cc:Agent>
      <dc:title>Matplotlib v3.10.7, https://matplotlib.org/</dc:title>
     </cc:Agent>
    </dc:creator>
   </cc:Work>
  </rdf:RDF>
 </metadata>
 <defs>
  <style type="text/css">*{stroke-linejoin: round; stroke-linecap: butt}</style>
 </defs>
 <g id="figure_1">
  <g id="patch_1">
   <path d="M 0 325.986375 
L 640.579375 325.986375 
L 640.579375 0 
L 0 0 
z
" style="fill: #ffffff"/>
  </g>
  <g id="axes_1">
   <g id="patch_2">
    <path d="M 180.020312 288.430125 
L 537.140312 288.430125 
L 537.140312 22.318125 
L 180.020312 22.318125 
z
" style="fill: #ffffff"/>
   </g>
   <g id="PathCollection_1">
    <path d="M 520.907585 36.650193 
C 521.500597 36.650193 522.069401 36.414587 522.488724 35.995264 
C 522.908047 35.575941 523.143653 35.007137 523.143653 34.414125 
C 523.143653 33.821113 522.908047 33.252309 522.488724 32.832986 
C 522.069401 32.413663 521.500597 32.178057 520.907585 32.178057 
C 520.314573 32.178057 519.745769 32.413663 519.326446 32.832986 
C 518.907123 33.252309 518.671517 33.821113 518.671517 34.414125 
C 518.671517 35.007137 518.907123 35.575941 519.326446 35.995264 
C 519.745769 36.414587 520.314573 36.650193 520.907585 36.650193 
z
" clip-path="url(#pcb3b2a1b50)" style="fill: #5470de; stroke: #ffffff; stroke-width: 0.404009"/>
    <path d="M 487.50539 50.0314 
C 488.270407 50.0314 489.004193 49.727456 489.545141 49.186508 
C 490.086089 48.645559 490.390034 47.911773 490.390034 47.146757 
C 490.390034 46.38174 490.086089 45.647954 489.545141 45.107006 
C 489.004193 44.566057 488.270407 44.262113 487.50539 44.262113 
C 486.740374 44.262113 486.006587 44.566057 485.465639 45.107006 
C 484.924691 45.647954 484.620747 46.38174 484.620747 47.146757 
C 484.620747 47.911773 484.924691 48.645559 485.465639 49.186508 
C 486.006587 49.727456 486.740374 50.0314 487.50539 50.0314 
z
" clip-path="url(#pcb3b2a1b50)" style="fill: #93b5fe; stroke: #ffffff; stroke-width: 0.404009"/>
    <path d="M 441.013146 62.804861 
C 441.78899 62.804861 442.533163 62.496615 443.081768 61.94801 
C 443.630373 61.399405 443.938619 60.655233 443.938619 59.879388 
C 443.938619 59.103544 443.630373 58.359371 443.081768 57.810766 
C 442.533163 57.262161 441.78899 56.953915 441.013146 56.953915 
C 440.237301 56.953915 439.493129 57.262161 438.944524 57.810766 
C 438.395919 58.359371 438.087672 59.103544 438.087672 59.879388 
C 438.087672 60.655233 438.395919 61.399405 438.944524 61.94801 
C 439.493129 62.496615 440.237301 62.804861 441.013146 62.804861 
z
" clip-path="url(#pcb3b2a1b50)" style="fill: #86a9fc; stroke: #ffffff; stroke-width: 0.404009"/>
    <path d="M 422.393679 75.918174 
C 423.270481 75.918174 424.11149 75.569817 424.731483 74.949824 
C 425.351476 74.329831 425.699833 73.488822 425.699833 72.61202 
C 425.699833 71.735217 425.351476 70.894208 424.731483 70.274216 
C 424.11149 69.654223 423.270481 69.305865 422.393679 69.305865 
C 421.516876 69.305865 420.675868 69.654223 420.055875 70.274216 
C 419.435882 70.894208 419.087524 71.735217 419.087524 72.61202 
C 419.087524 73.488822 419.435882 74.329831 420.055875 74.949824 
C 420.675868 75.569817 421.516876 75.918174 422.393679 75.918174 
z
" clip-path="url(#pcb3b2a1b50)" style="fill: #a9c6fd; stroke: #ffffff; stroke-width: 0.404009"/>
    <path d="M 392.070547 89.564867 
C 393.189761 89.564867 394.263286 89.120198 395.05469 88.328794 
C 395.846094 87.53739 396.290763 86.463866 396.290763 85.344651 
C 396.290763 84.225437 395.846094 83.151912 395.05469 82.360508 
C 394.263286 81.569104 393.189761 81.124436 392.070547 81.124436 
C 390.951333 81.124436 389.877808 81.569104 389.086404 82.360508 
C 388.295 83.151912 387.850332 84.225437 387.850332 85.344651 
C 387.850332 86.463866 388.295 87.53739 389.086404 88.328794 
C 389.877808 89.120198 390.951333 89.564867 392.070547 89.564867 
z
" clip-path="url(#pcb3b2a1b50)" style="fill: #f4c6af; stroke: #ffffff; stroke-width: 0.404009"/>
    <path d="M 349.554325 100.611717 
C 350.226464 100.611717 350.871166 100.344673 351.34644 99.869399 
C 351.821715 99.394124 352.088759 98.749423 352.088759 98.077283 
C 352.088759 97.405143 351.821715 96.760442 351.34644 96.285167 
C 350.871166 95.809893 350.226464 95.542849 349.554325 95.542849 
C 348.882185 95.542849 348.237483 95.809893 347.762209 96.285167 
C 347.286934 96.760442 347.01989 97.405143 347.01989 98.077283 
C 347.01989 98.749423 347.286934 99.394124 347.762209 99.869399 
C 348.237483 100.344673 348.882185 100.611717 349.554325 100.611717 
z
" clip-path="url(#pcb3b2a1b50)" style="fill: #455cce; stroke: #ffffff; stroke-width: 0.404009"/>
    <path d="M 336.493786 113.525106 
C 337.213863 113.525106 337.904544 113.239016 338.413716 112.729845 
C 338.922887 112.220673 339.208977 111.529992 339.208977 110.809914 
C 339.208977 110.089837 338.922887 109.399156 338.413716 108.889984 
C 337.904544 108.380813 337.213863 108.094723 336.493786 108.094723 
C 335.773708 108.094723 335.083027 108.380813 334.573855 108.889984 
C 334.064684 109.399156 333.778594 110.089837 333.778594 110.809914 
C 333.778594 111.529992 334.064684 112.220673 334.573855 112.729845 
C 335.083027 113.239016 335.773708 113.525106 336.493786 113.525106 
z
" clip-path="url(#pcb3b2a1b50)" style="fill: #4c66d6; stroke: #ffffff; stroke-width: 0.404009"/>
    <path d="M 331.246194 127.286154 
C 332.239011 127.286154 333.191298 126.891704 333.893325 126.189676 
C 334.595352 125.487649 334.989802 124.535362 334.989802 123.542546 
C 334.989802 122.54973 334.595352 121.597443 333.893325 120.895416 
C 333.191298 120.193388 332.239011 119.798938 331.246194 119.798938 
C 330.253378 119.798938 329.301091 120.193388 328.599064 120.895416 
C 327.897037 121.597443 327.502587 122.54973 327.502587 123.542546 
C 327.502587 124.535362 327.897037 125.487649 328.599064 126.189676 
C 329.301091 126.891704 330.253378 127.286154 331.246194 127.286154 
z
" clip-path="url(#pcb3b2a1b50)" style="fill: #a3c2fe; stroke: #ffffff; stroke-width: 0.404009"/>
    <path d="M 328.758875 138.714215 
C 329.405716 138.714215 330.02615 138.457223 330.483536 137.999838 
C 330.940921 137.542453 331.197913 136.922018 331.197913 136.275178 
C 331.197913 135.628337 330.940921 135.007903 330.483536 134.550518 
C 330.02615 134.093132 329.405716 133.83614 328.758875 133.83614 
C 328.112035 133.83614 327.491601 134.093132 327.034215 134.550518 
C 326.57683 135.007903 326.319838 135.628337 326.319838 136.275178 
C 326.319838 136.922018 326.57683 137.542453 327.034215 137.999838 
C 327.491601 138.457223 328.112035 138.714215 328.758875 138.714215 
z
" clip-path="url(#pcb3b2a1b50)" style="fill: #3b4cc0; stroke: #ffffff; stroke-width: 0.404009"/>
    <path d="M 320.494415 154.710287 
C 322.006729 154.710287 323.457307 154.109438 324.526675 153.04007 
C 325.596043 151.970702 326.196892 150.520124 326.196892 149.007809 
C 326.196892 147.495495 325.596043 146.044917 324.526675 144.975549 
C 323.457307 143.906181 322.006729 143.305332 320.494415 143.305332 
C 318.9821 143.305332 317.531522 143.906181 316.462154 144.975549 
C 315.392786 146.044917 314.791937 147.495495 314.791937 149.007809 
C 314.791937 150.520124 315.392786 151.970702 316.462154 153.04007 
C 317.531522 154.109438 318.9821 154.710287 320.494415 154.710287 
z
" clip-path="url(#pcb3b2a1b50)" style="fill: #b40426; stroke: #ffffff; stroke-width: 0.404009"/>
    <path d="M 301.223918 165.355091 
C 302.182534 165.355091 303.102017 164.974228 303.779861 164.296384 
C 304.457705 163.61854 304.838567 162.699057 304.838567 161.740441 
C 304.838567 160.781824 304.457705 159.862341 303.779861 159.184497 
C 303.102017 158.506653 302.182534 158.125791 301.223918 158.125791 
C 300.265301 158.125791 299.345818 158.506653 298.667974 159.184497 
C 297.99013 159.862341 297.609268 160.781824 297.609268 161.740441 
C 297.609268 162.699057 297.99013 163.61854 298.667974 164.296384 
C 299.345818 164.974228 300.265301 165.355091 301.223918 165.355091 
z
" clip-path="url(#pcb3b2a1b50)" style="fill: #82a6fb; stroke: #ffffff; stroke-width: 0.404009"/>
    <path d="M 282.222743 179.146729 
C 283.462211 179.146729 284.651081 178.654283 285.527517 177.777847 
C 286.403954 176.90141 286.8964 175.712541 286.8964 174.473072 
C 286.8964 173.233604 286.403954 172.044734 285.527517 171.168298 
C 284.651081 170.291862 283.462211 169.799416 282.222743 169.799416 
C 280.983275 169.799416 279.794405 170.291862 278.917969 171.168298 
C 278.041532 172.044734 277.549087 173.233604 277.549087 174.473072 
C 277.549087 175.712541 278.041532 176.90141 278.917969 177.777847 
C 279.794405 178.654283 280.983275 179.146729 282.222743 179.146729 
z
" clip-path="url(#pcb3b2a1b50)" style="fill: #d2dbe8; stroke: #ffffff; stroke-width: 0.404009"/>
    <path d="M 279.593768 190.006903 
C 280.336654 190.006903 281.049214 189.711751 281.574515 189.186451 
C 282.099815 188.661151 282.394967 187.948591 282.394967 187.205704 
C 282.394967 186.462817 282.099815 185.750257 281.574515 185.224957 
C 281.049214 184.699657 280.336654 184.404505 279.593768 184.404505 
C 278.850881 184.404505 278.138321 184.699657 277.613021 185.224957 
C 277.087721 185.750257 276.792569 186.462817 276.792569 187.205704 
C 276.792569 187.948591 277.087721 188.661151 277.613021 189.186451 
C 278.138321 189.711751 278.850881 190.006903 279.593768 190.006903 
z
" clip-path="url(#pcb3b2a1b50)" style="fill: #3f53c6; stroke: #ffffff; stroke-width: 0.404009"/>
    <path d="M 273.969929 204.883288 
C 275.281346 204.883288 276.539227 204.362257 277.466538 203.434945 
C 278.39385 202.507633 278.914881 201.249752 278.914881 199.938336 
C 278.914881 198.626919 278.39385 197.369038 277.466538 196.441726 
C 276.539227 195.514414 275.281346 194.993383 273.969929 194.993383 
C 272.658512 194.993383 271.400631 195.514414 270.473319 196.441726 
C 269.546008 197.369038 269.024976 198.626919 269.024976 199.938336 
C 269.024976 201.249752 269.546008 202.507633 270.473319 203.434945 
C 271.400631 204.362257 272.658512 204.883288 273.969929 204.883288 
z
" clip-path="url(#pcb3b2a1b50)" style="fill: #e0dbd8; stroke: #ffffff; stroke-width: 0.404009"/>
    <path d="M 272.487494 216.185795 
C 273.419638 216.185795 274.313728 215.81545 274.972853 215.156326 
C 275.631978 214.497201 276.002322 213.60311 276.002322 212.670967 
C 276.002322 211.738824 275.631978 210.844733 274.972853 210.185609 
C 274.313728 209.526484 273.419638 209.156139 272.487494 209.156139 
C 271.555351 209.156139 270.66126 209.526484 270.002136 210.185609 
C 269.343011 210.844733 268.972666 211.738824 268.972666 212.670967 
C 268.972666 213.60311 269.343011 214.497201 270.002136 215.156326 
C 270.66126 215.81545 271.555351 216.185795 272.487494 216.185795 
z
" clip-path="url(#pcb3b2a1b50)" style="fill: #6788ee; stroke: #ffffff; stroke-width: 0.404009"/>
    <path d="M 262.581098 231.527323 
C 264.205128 231.527323 265.762862 230.882089 266.911225 229.733726 
C 268.059588 228.585363 268.704822 227.027629 268.704822 225.403599 
C 268.704822 223.779568 268.059588 222.221835 266.911225 221.073472 
C 265.762862 219.925109 264.205128 219.279874 262.581098 219.279874 
C 260.957067 219.279874 259.399334 219.925109 258.250971 221.073472 
C 257.102608 222.221835 256.457373 223.779568 256.457373 225.403599 
C 256.457373 227.027629 257.102608 228.585363 258.250971 229.733726 
C 259.399334 230.882089 260.957067 231.527323 262.581098 231.527323 
z
" clip-path="url(#pcb3b2a1b50)" style="fill: #e16751; stroke: #ffffff; stroke-width: 0.404009"/>
    <path d="M 239.234453 242.213495 
C 240.315756 242.213495 241.352918 241.783889 242.117514 241.019292 
C 242.882111 240.254695 243.311718 239.217534 243.311718 238.13623 
C 243.311718 237.054927 242.882111 236.017766 242.117514 235.253169 
C 241.352918 234.488572 240.315756 234.058966 239.234453 234.058966 
C 238.15315 234.058966 237.115988 234.488572 236.351391 235.253169 
C 235.586794 236.017766 235.157188 237.054927 235.157188 238.13623 
C 235.157188 239.217534 235.586794 240.254695 236.351391 241.019292 
C 237.115988 241.783889 238.15315 242.213495 239.234453 242.213495 
z
" clip-path="url(#pcb3b2a1b50)" style="fill: #7295f4; stroke: #ffffff; stroke-width: 0.404009"/>
    <path d="M 233.110473 253.990484 
C 233.938337 253.990484 234.732405 253.66157 235.317793 253.076182 
C 235.903182 252.490794 236.232095 251.696726 236.232095 250.868862 
C 236.232095 250.040998 235.903182 249.24693 235.317793 248.661542 
C 234.732405 248.076153 233.938337 247.74724 233.110473 247.74724 
C 232.282609 247.74724 231.488541 248.076153 230.903153 248.661542 
C 230.317765 249.24693 229.988851 250.040998 229.988851 250.868862 
C 229.988851 251.696726 230.317765 252.490794 230.903153 253.076182 
C 231.488541 253.66157 232.282609 253.990484 233.110473 253.990484 
z
" clip-path="url(#pcb3b2a1b50)" style="fill: #3b4cc0; stroke: #ffffff; stroke-width: 0.404009"/>
    <path d="M 230.565428 267.590529 
C 231.623333 267.590529 232.638051 267.170219 233.386103 266.422168 
C 234.134154 265.674116 234.554464 264.659398 234.554464 263.601493 
C 234.554464 262.543589 234.134154 261.528871 233.386103 260.780819 
C 232.638051 260.032767 231.623333 259.612457 230.565428 259.612457 
C 229.507523 259.612457 228.492805 260.032767 227.744754 260.780819 
C 226.996702 261.528871 226.576392 262.543589 226.576392 263.601493 
C 226.576392 264.659398 226.996702 265.674116 227.744754 266.422168 
C 228.492805 267.170219 229.507523 267.590529 230.565428 267.590529 
z
" clip-path="url(#pcb3b2a1b50)" style="fill: #6788ee; stroke: #ffffff; stroke-width: 0.404009"/>
    <path d="M 196.25304 282.036602 
C 197.765354 282.036602 199.215932 281.435753 200.2853 280.366385 
C 201.354668 279.297017 201.955517 277.84644 201.955517 276.334125 
C 201.955517 274.82181 201.354668 273.371233 200.2853 272.301865 
C 199.215932 271.232497 197.765354 270.631648 196.25304 270.631648 
C 194.740725 270.631648 193.290147 271.232497 192.220779 272.301865 
C 191.151411 273.371233 190.550562 274.82181 190.550562 276.334125 
C 190.550562 277.84644 191.151411 279.297017 192.220779 280.366385 
C 193.290147 281.435753 194.740725 282.036602 196.25304 282.036602 
z
" clip-path="url(#pcb3b2a1b50)" style="fill: #b1cbfc; stroke: #ffffff; stroke-width: 0.404009"/>
   </g>
   <g id="matplotlib.axis_1">
    <g id="xtick_1">
     <g id="line2d_1">
      <defs>
       <path id="mecdf083596" d="M 0 0 
L 0 3.5 
" style="stroke: #000000; stroke-width: 0.8"/>
      </defs>
      <g>
       <use xlink:href="#mecdf083596" x="194.058771" y="288.430125" style="stroke: #000000; stroke-width: 0.8"/>
      </g>
     </g>
     <g id="text_1">
      <!-- 2.0 -->
      <g transform="translate(186.107208 303.028562) scale(0.1 -0.1)">
       <defs>
        <path id="DejaVuSans-32" d="M 1228 531 
L 3431 531 
L 3431 0 
L 469 0 
L 469 531 
Q 828 903 1448 1529 
Q 2069 2156 2228 2338 
Q 2531 2678 2651 2914 
Q 2772 3150 2772 3378 
Q 2772 3750 2511 3984 
Q 2250 4219 1831 4219 
Q 1534 4219 1204 4116 
Q 875 4013 500 3803 
L 500 4441 
Q 881 4594 1212 4672 
Q 1544 4750 1819 4750 
Q 2544 4750 2975 4387 
Q 3406 4025 3406 3419 
Q 3406 3131 3298 2873 
Q 3191 2616 2906 2266 
Q 2828 2175 2409 1742 
Q 1991 1309 1228 531 
z
" transform="scale(0.015625)"/>
        <path id="DejaVuSans-2e" d="M 684 794 
L 1344 794 
L 1344 0 
L 684 0 
L 684 794 
z
" transform="scale(0.015625)"/>
        <path id="DejaVuSans-30" d="M 2034 4250 
Q 1547 4250 1301 3770 
Q 1056 3291 1056 2328 
Q 1056 1369 1301 889 
Q 1547 409 2034 409 
Q 2525 409 2770 889 
Q 3016 1369 3016 2328 
Q 3016 3291 2770 3770 
Q 2525 4250 2034 4250 
z
M 2034 4750 
Q 2819 4750 3233 4129 
Q 3647 3509 3647 2328 
Q 3647 1150 3233 529 
Q 2819 -91 2034 -91 
Q 1250 -91 836 529 
Q 422 1150 422 2328 
Q 422 3509 836 4129 
Q 1250 4750 2034 4750 
z
" transform="scale(0.015625)"/>
       </defs>
       <use xlink:href="#DejaVuSans-32"/>
       <use xlink:href="#DejaVuSans-2e" transform="translate(63.623047 0)"/>
       <use xlink:href="#DejaVuSans-30" transform="translate(95.410156 0)"/>
      </g>
     </g>
    </g>
    <g id="xtick_2">
     <g id="line2d_2">
      <g>
       <use xlink:href="#mecdf083596" x="262.656445" y="288.430125" style="stroke: #000000; stroke-width: 0.8"/>
      </g>
     </g>
     <g id="text_2">
      <!-- 2.5 -->
      <g transform="translate(254.704882 303.028562) scale(0.1 -0.1)">
       <defs>
        <path id="DejaVuSans-35" d="M 691 4666 
L 3169 4666 
L 3169 4134 
L 1269 4134 
L 1269 2991 
Q 1406 3038 1543 3061 
Q 1681 3084 1819 3084 
Q 2600 3084 3056 2656 
Q 3513 2228 3513 1497 
Q 3513 744 3044 326 
Q 2575 -91 1722 -91 
Q 1428 -91 1123 -41 
Q 819 9 494 109 
L 494 744 
Q 775 591 1075 516 
Q 1375 441 1709 441 
Q 2250 441 2565 725 
Q 2881 1009 2881 1497 
Q 2881 1984 2565 2268 
Q 2250 2553 1709 2553 
Q 1456 2553 1204 2497 
Q 953 2441 691 2322 
L 691 4666 
z
" transform="scale(0.015625)"/>
       </defs>
       <use xlink:href="#DejaVuSans-32"/>
       <use xlink:href="#DejaVuSans-2e" transform="translate(63.623047 0)"/>
       <use xlink:href="#DejaVuSans-35" transform="translate(95.410156 0)"/>
      </g>
     </g>
    </g>
    <g id="xtick_3">
     <g id="line2d_3">
      <g>
       <use xlink:href="#mecdf083596" x="331.254119" y="288.430125" style="stroke: #000000; stroke-width: 0.8"/>
      </g>
     </g>
     <g id="text_3">
      <!-- 3.0 -->
      <g transform="translate(323.302556 303.028562) scale(0.1 -0.1)">
       <defs>
        <path id="DejaVuSans-33" d="M 2597 2516 
Q 3050 2419 3304 2112 
Q 3559 1806 3559 1356 
Q 3559 666 3084 287 
Q 2609 -91 1734 -91 
Q 1441 -91 1130 -33 
Q 819 25 488 141 
L 488 750 
Q 750 597 1062 519 
Q 1375 441 1716 441 
Q 2309 441 2620 675 
Q 2931 909 2931 1356 
Q 2931 1769 2642 2001 
Q 2353 2234 1838 2234 
L 1294 2234 
L 1294 2753 
L 1863 2753 
Q 2328 2753 2575 2939 
Q 2822 3125 2822 3475 
Q 2822 3834 2567 4026 
Q 2313 4219 1838 4219 
Q 1578 4219 1281 4162 
Q 984 4106 628 3988 
L 628 4550 
Q 988 4650 1302 4700 
Q 1616 4750 1894 4750 
Q 2613 4750 3031 4423 
Q 3450 4097 3450 3541 
Q 3450 3153 3228 2886 
Q 3006 2619 2597 2516 
z
" transform="scale(0.015625)"/>
       </defs>
       <use xlink:href="#DejaVuSans-33"/>
       <use xlink:href="#DejaVuSans-2e" transform="translate(63.623047 0)"/>
       <use xlink:href="#DejaVuSans-30" transform="translate(95.410156 0)"/>
      </g>
     </g>
    </g>
    <g id="xtick_4">
     <g id="line2d_4">
      <g>
       <use xlink:href="#mecdf083596" x="399.851793" y="288.430125" style="stroke: #000000; stroke-width: 0.8"/>
      </g>
     </g>
     <g id="text_4">
      <!-- 3.5 -->
      <g transform="translate(391.90023 303.028562) scale(0.1 -0.1)">
       <use xlink:href="#DejaVuSans-33"/>
       <use xlink:href="#DejaVuSans-2e" transform="translate(63.623047 0)"/>
       <use xlink:href="#DejaVuSans-35" transform="translate(95.410156 0)"/>
      </g>
     </g>
    </g>
    <g id="xtick_5">
     <g id="line2d_5">
      <g>
       <use xlink:href="#mecdf083596" x="468.449467" y="288.430125" style="stroke: #000000; stroke-width: 0.8"/>
      </g>
     </g>
     <g id="text_5">
      <!-- 4.0 -->
      <g transform="translate(460.497905 303.028562) scale(0.1 -0.1)">
       <defs>
        <path id="DejaVuSans-34" d="M 2419 4116 
L 825 1625 
L 2419 1625 
L 2419 4116 
z
M 2253 4666 
L 3047 4666 
L 3047 1625 
L 3713 1625 
L 3713 1100 
L 3047 1100 
L 3047 0 
L 2419 0 
L 2419 1100 
L 313 1100 
L 313 1709 
L 2253 4666 
z
" transform="scale(0.015625)"/>
       </defs>
       <use xlink:href="#DejaVuSans-34"/>
       <use xlink:href="#DejaVuSans-2e" transform="translate(63.623047 0)"/>
       <use xlink:href="#DejaVuSans-30" transform="translate(95.410156 0)"/>
      </g>
     </g>
    </g>
    <g id="xtick_6">
     <g id="line2d_6">
      <g>
       <use xlink:href="#mecdf083596" x="537.047141" y="288.430125" style="stroke: #000000; stroke-width: 0.8"/>
      </g>
     </g>
     <g id="text_6">
      <!-- 4.5 -->
      <g transform="translate(529.095579 303.028562) scale(0.1 -0.1)">
       <use xlink:href="#DejaVuSans-34"/>
       <use xlink:href="#DejaVuSans-2e" transform="translate(63.623047 0)"/>
       <use xlink:href="#DejaVuSans-35" transform="translate(95.410156 0)"/>
      </g>
     </g>
    </g>
    <g id="text_7">
     <!-- Fold Enrichment -->
     <g transform="translate(317.907656 316.706687) scale(0.1 -0.1)">
      <defs>
       <path id="DejaVuSans-46" d="M 628 4666 
L 3309 4666 
L 3309 4134 
L 1259 4134 
L 1259 2759 
L 3109 2759 
L 3109 2228 
L 1259 2228 
L 1259 0 
L 628 0 
L 628 4666 
z
" transform="scale(0.015625)"/>
       <path id="DejaVuSans-6f" d="M 1959 3097 
Q 1497 3097 1228 2736 
Q 959 2375 959 1747 
Q 959 1119 1226 758 
Q 1494 397 1959 397 
Q 2419 397 2687 759 
Q 2956 1122 2956 1747 
Q 2956 2369 2687 2733 
Q 2419 3097 1959 3097 
z
M 1959 3584 
Q 2709 3584 3137 3096 
Q 3566 2609 3566 1747 
Q 3566 888 3137 398 
Q 2709 -91 1959 -91 
Q 1206 -91 779 398 
Q 353 888 353 1747 
Q 353 2609 779 3096 
Q 1206 3584 1959 3584 
z
" transform="scale(0.015625)"/>
       <path id="DejaVuSans-6c" d="M 603 4863 
L 1178 4863 
L 1178 0 
L 603 0 
L 603 4863 
z
" transform="scale(0.015625)"/>
       <path id="DejaVuSans-64" d="M 2906 2969 
L 2906 4863 
L 3481 4863 
L 3481 0 
L 2906 0 
L 2906 525 
Q 2725 213 2448 61 
Q 2172 -91 1784 -91 
Q 1150 -91 751 415 
Q 353 922 353 1747 
Q 353 2572 751 3078 
Q 1150 3584 1784 3584 
Q 2172 3584 2448 3432 
Q 2725 3281 2906 2969 
z
M 947 1747 
Q 947 1113 1208 752 
Q 1469 391 1925 391 
Q 2381 391 2643 752 
Q 2906 1113 2906 1747 
Q 2906 2381 2643 2742 
Q 2381 3103 1925 3103 
Q 1469 3103 1208 2742 
Q 947 2381 947 1747 
z
" transform="scale(0.015625)"/>
       <path id="DejaVuSans-20" transform="scale(0.015625)"/>
       <path id="DejaVuSans-45" d="M 628 4666 
L 3578 4666 
L 3578 4134 
L 1259 4134 
L 1259 2753 
L 3481 2753 
L 3481 2222 
L 1259 2222 
L 1259 531 
L 3634 531 
L 3634 0 
L 628 0 
L 628 4666 
z
" transform="scale(0.015625)"/>
       <path id="DejaVuSans-6e" d="M 3513 2113 
L 3513 0 
L 2938 0 
L 2938 2094 
Q 2938 2591 2744 2837 
Q 2550 3084 2163 3084 
Q 1697 3084 1428 2787 
Q 1159 2491 1159 1978 
L 1159 0 
L 581 0 
L 581 3500 
L 1159 3500 
L 1159 2956 
Q 1366 3272 1645 3428 
Q 1925 3584 2291 3584 
Q 2894 3584 3203 3211 
Q 3513 2838 3513 2113 
z
" transform="scale(0.015625)"/>
       <path id="DejaVuSans-72" d="M 2631 2963 
Q 2534 3019 2420 3045 
Q 2306 3072 2169 3072 
Q 1681 3072 1420 2755 
Q 1159 2438 1159 1844 
L 1159 0 
L 581 0 
L 581 3500 
L 1159 3500 
L 1159 2956 
Q 1341 3275 1631 3429 
Q 1922 3584 2338 3584 
Q 2397 3584 2469 3576 
Q 2541 3569 2628 3553 
L 2631 2963 
z
" transform="scale(0.015625)"/>
       <path id="DejaVuSans-69" d="M 603 3500 
L 1178 3500 
L 1178 0 
L 603 0 
L 603 3500 
z
M 603 4863 
L 1178 4863 
L 1178 4134 
L 603 4134 
L 603 4863 
z
" transform="scale(0.015625)"/>
       <path id="DejaVuSans-63" d="M 3122 3366 
L 3122 2828 
Q 2878 2963 2633 3030 
Q 2388 3097 2138 3097 
Q 1578 3097 1268 2742 
Q 959 2388 959 1747 
Q 959 1106 1268 751 
Q 1578 397 2138 397 
Q 2388 397 2633 464 
Q 2878 531 3122 666 
L 3122 134 
Q 2881 22 2623 -34 
Q 2366 -91 2075 -91 
Q 1284 -91 818 406 
Q 353 903 353 1747 
Q 353 2603 823 3093 
Q 1294 3584 2113 3584 
Q 2378 3584 2631 3529 
Q 2884 3475 3122 3366 
z
" transform="scale(0.015625)"/>
       <path id="DejaVuSans-68" d="M 3513 2113 
L 3513 0 
L 2938 0 
L 2938 2094 
Q 2938 2591 2744 2837 
Q 2550 3084 2163 3084 
Q 1697 3084 1428 2787 
Q 1159 2491 1159 1978 
L 1159 0 
L 581 0 
L 581 4863 
L 1159 4863 
L 1159 2956 
Q 1366 3272 1645 3428 
Q 1925 3584 2291 3584 
Q 2894 3584 3203 3211 
Q 3513 2838 3513 2113 
z
" transform="scale(0.015625)"/>
       <path id="DejaVuSans-6d" d="M 3328 2828 
Q 3544 3216 3844 3400 
Q 4144 3584 4550 3584 
Q 5097 3584 5394 3201 
Q 5691 2819 5691 2113 
L 5691 0 
L 5113 0 
L 5113 2094 
Q 5113 2597 4934 2840 
Q 4756 3084 4391 3084 
Q 3944 3084 3684 2787 
Q 3425 2491 3425 1978 
L 3425 0 
L 2847 0 
L 2847 2094 
Q 2847 2600 2669 2842 
Q 2491 3084 2119 3084 
Q 1678 3084 1418 2786 
Q 1159 2488 1159 1978 
L 1159 0 
L 581 0 
L 581 3500 
L 1159 3500 
L 1159 2956 
Q 1356 3278 1631 3431 
Q 1906 3584 2284 3584 
Q 2666 3584 2933 3390 
Q 3200 3197 3328 2828 
z
" transform="scale(0.015625)"/>
       <path id="DejaVuSans-65" d="M 3597 1894 
L 3597 1613 
L 953 1613 
Q 991 1019 1311 708 
Q 1631 397 2203 397 
Q 2534 397 2845 478 
Q 3156 559 3463 722 
L 3463 178 
Q 3153 47 2828 -22 
Q 2503 -91 2169 -91 
Q 1331 -91 842 396 
Q 353 884 353 1716 
Q 353 2575 817 3079 
Q 1281 3584 2069 3584 
Q 2775 3584 3186 3129 
Q 3597 2675 3597 1894 
z
M 3022 2063 
Q 3016 2534 2758 2815 
Q 2500 3097 2075 3097 
Q 1594 3097 1305 2825 
Q 1016 2553 972 2059 
L 3022 2063 
z
" transform="scale(0.015625)"/>
       <path id="DejaVuSans-74" d="M 1172 4494 
L 1172 3500 
L 2356 3500 
L 2356 3053 
L 1172 3053 
L 1172 1153 
Q 1172 725 1289 603 
Q 1406 481 1766 481 
L 2356 481 
L 2356 0 
L 1766 0 
Q 1100 0 847 248 
Q 594 497 594 1153 
L 594 3053 
L 172 3053 
L 172 3500 
L 594 3500 
L 594 4494 
L 1172 4494 
z
" transform="scale(0.015625)"/>
      </defs>
      <use xlink:href="#DejaVuSans-46"/>
      <use xlink:href="#DejaVuSans-6f" transform="translate(53.894531 0)"/>
      <use xlink:href="#DejaVuSans-6c" transform="translate(115.076172 0)"/>
      <use xlink:href="#DejaVuSans-64" transform="translate(142.859375 0)"/>
      <use xlink:href="#DejaVuSans-20" transform="translate(206.335938 0)"/>
      <use xlink:href="#DejaVuSans-45" transform="translate(238.123047 0)"/>
      <use xlink:href="#DejaVuSans-6e" transform="translate(301.306641 0)"/>
      <use xlink:href="#DejaVuSans-72" transform="translate(364.685547 0)"/>
      <use xlink:href="#DejaVuSans-69" transform="translate(405.798828 0)"/>
      <use xlink:href="#DejaVuSans-63" transform="translate(433.582031 0)"/>
      <use xlink:href="#DejaVuSans-68" transform="translate(488.5625 0)"/>
      <use xlink:href="#DejaVuSans-6d" transform="translate(551.941406 0)"/>
      <use xlink:href="#DejaVuSans-65" transform="translate(649.353516 0)"/>
      <use xlink:href="#DejaVuSans-6e" transform="translate(710.876953 0)"/>
      <use xlink:href="#DejaVuSans-74" transform="translate(774.255859 0)"/>
     </g>
    </g>
   </g>
   <g id="matplotlib.axis_2">
    <g id="ytick_1">
     <g id="line2d_7">
      <defs>
       <path id="m1584c2f412" d="M 0 0 
L -3.5 0 
" style="stroke: #000000; stroke-width: 0.8"/>
      </defs>
      <g>
       <use xlink:href="#m1584c2f412" x="180.020312" y="34.414125" style="stroke: #000000; stroke-width: 0.8"/>
      </g>
     </g>
     <g id="text_8">
      <!-- cytosolic large ribosomal subunit -->
      <g transform="translate(7.703125 38.213344) scale(0.1 -0.1)">
       <defs>
        <path id="DejaVuSans-79" d="M 2059 -325 
Q 1816 -950 1584 -1140 
Q 1353 -1331 966 -1331 
L 506 -1331 
L 506 -850 
L 844 -850 
Q 1081 -850 1212 -737 
Q 1344 -625 1503 -206 
L 1606 56 
L 191 3500 
L 800 3500 
L 1894 763 
L 2988 3500 
L 3597 3500 
L 2059 -325 
z
" transform="scale(0.015625)"/>
        <path id="DejaVuSans-73" d="M 2834 3397 
L 2834 2853 
Q 2591 2978 2328 3040 
Q 2066 3103 1784 3103 
Q 1356 3103 1142 2972 
Q 928 2841 928 2578 
Q 928 2378 1081 2264 
Q 1234 2150 1697 2047 
L 1894 2003 
Q 2506 1872 2764 1633 
Q 3022 1394 3022 966 
Q 3022 478 2636 193 
Q 2250 -91 1575 -91 
Q 1294 -91 989 -36 
Q 684 19 347 128 
L 347 722 
Q 666 556 975 473 
Q 1284 391 1588 391 
Q 1994 391 2212 530 
Q 2431 669 2431 922 
Q 2431 1156 2273 1281 
Q 2116 1406 1581 1522 
L 1381 1569 
Q 847 1681 609 1914 
Q 372 2147 372 2553 
Q 372 3047 722 3315 
Q 1072 3584 1716 3584 
Q 2034 3584 2315 3537 
Q 2597 3491 2834 3397 
z
" transform="scale(0.015625)"/>
        <path id="DejaVuSans-61" d="M 2194 1759 
Q 1497 1759 1228 1600 
Q 959 1441 959 1056 
Q 959 750 1161 570 
Q 1363 391 1709 391 
Q 2188 391 2477 730 
Q 2766 1069 2766 1631 
L 2766 1759 
L 2194 1759 
z
M 3341 1997 
L 3341 0 
L 2766 0 
L 2766 531 
Q 2569 213 2275 61 
Q 1981 -91 1556 -91 
Q 1019 -91 701 211 
Q 384 513 384 1019 
Q 384 1609 779 1909 
Q 1175 2209 1959 2209 
L 2766 2209 
L 2766 2266 
Q 2766 2663 2505 2880 
Q 2244 3097 1772 3097 
Q 1472 3097 1187 3025 
Q 903 2953 641 2809 
L 641 3341 
Q 956 3463 1253 3523 
Q 1550 3584 1831 3584 
Q 2591 3584 2966 3190 
Q 3341 2797 3341 1997 
z
" transform="scale(0.015625)"/>
        <path id="DejaVuSans-67" d="M 2906 1791 
Q 2906 2416 2648 2759 
Q 2391 3103 1925 3103 
Q 1463 3103 1205 2759 
Q 947 2416 947 1791 
Q 947 1169 1205 825 
Q 1463 481 1925 481 
Q 2391 481 2648 825 
Q 2906 1169 2906 1791 
z
M 3481 434 
Q 3481 -459 3084 -895 
Q 2688 -1331 1869 -1331 
Q 1566 -1331 1297 -1286 
Q 1028 -1241 775 -1147 
L 775 -588 
Q 1028 -725 1275 -790 
Q 1522 -856 1778 -856 
Q 2344 -856 2625 -561 
Q 2906 -266 2906 331 
L 2906 616 
Q 2728 306 2450 153 
Q 2172 0 1784 0 
Q 1141 0 747 490 
Q 353 981 353 1791 
Q 353 2603 747 3093 
Q 1141 3584 1784 3584 
Q 2172 3584 2450 3431 
Q 2728 3278 2906 2969 
L 2906 3500 
L 3481 3500 
L 3481 434 
z
" transform="scale(0.015625)"/>
        <path id="DejaVuSans-62" d="M 3116 1747 
Q 3116 2381 2855 2742 
Q 2594 3103 2138 3103 
Q 1681 3103 1420 2742 
Q 1159 2381 1159 1747 
Q 1159 1113 1420 752 
Q 1681 391 2138 391 
Q 2594 391 2855 752 
Q 3116 1113 3116 1747 
z
M 1159 2969 
Q 1341 3281 1617 3432 
Q 1894 3584 2278 3584 
Q 2916 3584 3314 3078 
Q 3713 2572 3713 1747 
Q 3713 922 3314 415 
Q 2916 -91 2278 -91 
Q 1894 -91 1617 61 
Q 1341 213 1159 525 
L 1159 0 
L 581 0 
L 581 4863 
L 1159 4863 
L 1159 2969 
z
" transform="scale(0.015625)"/>
        <path id="DejaVuSans-75" d="M 544 1381 
L 544 3500 
L 1119 3500 
L 1119 1403 
Q 1119 906 1312 657 
Q 1506 409 1894 409 
Q 2359 409 2629 706 
Q 2900 1003 2900 1516 
L 2900 3500 
L 3475 3500 
L 3475 0 
L 2900 0 
L 2900 538 
Q 2691 219 2414 64 
Q 2138 -91 1772 -91 
Q 1169 -91 856 284 
Q 544 659 544 1381 
z
M 1991 3584 
L 1991 3584 
z
" transform="scale(0.015625)"/>
       </defs>
       <use xlink:href="#DejaVuSans-63"/>
       <use xlink:href="#DejaVuSans-79" transform="translate(54.980469 0)"/>
       <use xlink:href="#DejaVuSans-74" transform="translate(114.160156 0)"/>
       <use xlink:href="#DejaVuSans-6f" transform="translate(153.369141 0)"/>
       <use xlink:href="#DejaVuSans-73" transform="translate(214.550781 0)"/>
       <use xlink:href="#DejaVuSans-6f" transform="translate(266.650391 0)"/>
       <use xlink:href="#DejaVuSans-6c" transform="translate(327.832031 0)"/>
       <use xlink:href="#DejaVuSans-69" transform="translate(355.615234 0)"/>
       <use xlink:href="#DejaVuSans-63" transform="translate(383.398438 0)"/>
       <use xlink:href="#DejaVuSans-20" transform="translate(438.378906 0)"/>
       <use xlink:href="#DejaVuSans-6c" transform="translate(470.166016 0)"/>
       <use xlink:href="#DejaVuSans-61" transform="translate(497.949219 0)"/>
       <use xlink:href="#DejaVuSans-72" transform="translate(559.228516 0)"/>
       <use xlink:href="#DejaVuSans-67" transform="translate(598.591797 0)"/>
       <use xlink:href="#DejaVuSans-65" transform="translate(662.068359 0)"/>
       <use xlink:href="#DejaVuSans-20" transform="translate(723.591797 0)"/>
       <use xlink:href="#DejaVuSans-72" transform="translate(755.378906 0)"/>
       <use xlink:href="#DejaVuSans-69" transform="translate(796.492188 0)"/>
       <use xlink:href="#DejaVuSans-62" transform="translate(824.275391 0)"/>
       <use xlink:href="#DejaVuSans-6f" transform="translate(887.751953 0)"/>
       <use xlink:href="#DejaVuSans-73" transform="translate(948.933594 0)"/>
       <use xlink:href="#DejaVuSans-6f" transform="translate(1001.033203 0)"/>
       <use xlink:href="#DejaVuSans-6d" transform="translate(1062.214844 0)"/>
       <use xlink:href="#DejaVuSans-61" transform="translate(1159.626953 0)"/>
       <use xlink:href="#DejaVuSans-6c" transform="translate(1220.90625 0)"/>
       <use xlink:href="#DejaVuSans-20" transform="translate(1248.689453 0)"/>
       <use xlink:href="#DejaVuSans-73" transform="translate(1280.476562 0)"/>
       <use xlink:href="#DejaVuSans-75" transform="translate(1332.576172 0)"/>
       <use xlink:href="#DejaVuSans-62" transform="translate(1395.955078 0)"/>
       <use xlink:href="#DejaVuSans-75" transform="translate(1459.431641 0)"/>
       <use xlink:href="#DejaVuSans-6e" transform="translate(1522.810547 0)"/>
       <use xlink:href="#DejaVuSans-69" transform="translate(1586.189453 0)"/>
       <use xlink:href="#DejaVuSans-74" transform="translate(1613.972656 0)"/>
      </g>
     </g>
    </g>
    <g id="ytick_2">
     <g id="line2d_8">
      <g>
       <use xlink:href="#m1584c2f412" x="180.020312" y="47.146757" style="stroke: #000000; stroke-width: 0.8"/>
      </g>
     </g>
     <g id="text_9">
      <!-- cytosolic ribosome -->
      <g transform="translate(79.425 50.945975) scale(0.1 -0.1)">
       <use xlink:href="#DejaVuSans-63"/>
       <use xlink:href="#DejaVuSans-79" transform="translate(54.980469 0)"/>
       <use xlink:href="#DejaVuSans-74" transform="translate(114.160156 0)"/>
       <use xlink:href="#DejaVuSans-6f" transform="translate(153.369141 0)"/>
       <use xlink:href="#DejaVuSans-73" transform="translate(214.550781 0)"/>
       <use xlink:href="#DejaVuSans-6f" transform="translate(266.650391 0)"/>
       <use xlink:href="#DejaVuSans-6c" transform="translate(327.832031 0)"/>
       <use xlink:href="#DejaVuSans-69" transform="translate(355.615234 0)"/>
       <use xlink:href="#DejaVuSans-63" transform="translate(383.398438 0)"/>
       <use xlink:href="#DejaVuSans-20" transform="translate(438.378906 0)"/>
       <use xlink:href="#DejaVuSans-72" transform="translate(470.166016 0)"/>
       <use xlink:href="#DejaVuSans-69" transform="translate(511.279297 0)"/>
       <use xlink:href="#DejaVuSans-62" transform="translate(539.0625 0)"/>
       <use xlink:href="#DejaVuSans-6f" transform="translate(602.539062 0)"/>
       <use xlink:href="#DejaVuSans-73" transform="translate(663.720703 0)"/>
       <use xlink:href="#DejaVuSans-6f" transform="translate(715.820312 0)"/>
       <use xlink:href="#DejaVuSans-6d" transform="translate(777.001953 0)"/>
       <use xlink:href="#DejaVuSans-65" transform="translate(874.414062 0)"/>
      </g>
     </g>
    </g>
    <g id="ytick_3">
     <g id="line2d_9">
      <g>
       <use xlink:href="#m1584c2f412" x="180.020312" y="59.879388" style="stroke: #000000; stroke-width: 0.8"/>
      </g>
     </g>
     <g id="text_10">
      <!-- GABA-ergic synapse -->
      <g transform="translate(72.15 63.678607) scale(0.1 -0.1)">
       <defs>
        <path id="DejaVuSans-47" d="M 3809 666 
L 3809 1919 
L 2778 1919 
L 2778 2438 
L 4434 2438 
L 4434 434 
Q 4069 175 3628 42 
Q 3188 -91 2688 -91 
Q 1594 -91 976 548 
Q 359 1188 359 2328 
Q 359 3472 976 4111 
Q 1594 4750 2688 4750 
Q 3144 4750 3555 4637 
Q 3966 4525 4313 4306 
L 4313 3634 
Q 3963 3931 3569 4081 
Q 3175 4231 2741 4231 
Q 1884 4231 1454 3753 
Q 1025 3275 1025 2328 
Q 1025 1384 1454 906 
Q 1884 428 2741 428 
Q 3075 428 3337 486 
Q 3600 544 3809 666 
z
" transform="scale(0.015625)"/>
        <path id="DejaVuSans-41" d="M 2188 4044 
L 1331 1722 
L 3047 1722 
L 2188 4044 
z
M 1831 4666 
L 2547 4666 
L 4325 0 
L 3669 0 
L 3244 1197 
L 1141 1197 
L 716 0 
L 50 0 
L 1831 4666 
z
" transform="scale(0.015625)"/>
        <path id="DejaVuSans-42" d="M 1259 2228 
L 1259 519 
L 2272 519 
Q 2781 519 3026 730 
Q 3272 941 3272 1375 
Q 3272 1813 3026 2020 
Q 2781 2228 2272 2228 
L 1259 2228 
z
M 1259 4147 
L 1259 2741 
L 2194 2741 
Q 2656 2741 2882 2914 
Q 3109 3088 3109 3444 
Q 3109 3797 2882 3972 
Q 2656 4147 2194 4147 
L 1259 4147 
z
M 628 4666 
L 2241 4666 
Q 2963 4666 3353 4366 
Q 3744 4066 3744 3513 
Q 3744 3084 3544 2831 
Q 3344 2578 2956 2516 
Q 3422 2416 3680 2098 
Q 3938 1781 3938 1306 
Q 3938 681 3513 340 
Q 3088 0 2303 0 
L 628 0 
L 628 4666 
z
" transform="scale(0.015625)"/>
        <path id="DejaVuSans-2d" d="M 313 2009 
L 1997 2009 
L 1997 1497 
L 313 1497 
L 313 2009 
z
" transform="scale(0.015625)"/>
        <path id="DejaVuSans-70" d="M 1159 525 
L 1159 -1331 
L 581 -1331 
L 581 3500 
L 1159 3500 
L 1159 2969 
Q 1341 3281 1617 3432 
Q 1894 3584 2278 3584 
Q 2916 3584 3314 3078 
Q 3713 2572 3713 1747 
Q 3713 922 3314 415 
Q 2916 -91 2278 -91 
Q 1894 -91 1617 61 
Q 1341 213 1159 525 
z
M 3116 1747 
Q 3116 2381 2855 2742 
Q 2594 3103 2138 3103 
Q 1681 3103 1420 2742 
Q 1159 2381 1159 1747 
Q 1159 1113 1420 752 
Q 1681 391 2138 391 
Q 2594 391 2855 752 
Q 3116 1113 3116 1747 
z
" transform="scale(0.015625)"/>
       </defs>
       <use xlink:href="#DejaVuSans-47"/>
       <use xlink:href="#DejaVuSans-41" transform="translate(77.490234 0)"/>
       <use xlink:href="#DejaVuSans-42" transform="translate(145.898438 0)"/>
       <use xlink:href="#DejaVuSans-41" transform="translate(214.501953 0)"/>
       <use xlink:href="#DejaVuSans-2d" transform="translate(280.660156 0)"/>
       <use xlink:href="#DejaVuSans-65" transform="translate(316.744141 0)"/>
       <use xlink:href="#DejaVuSans-72" transform="translate(378.267578 0)"/>
       <use xlink:href="#DejaVuSans-67" transform="translate(417.630859 0)"/>
       <use xlink:href="#DejaVuSans-69" transform="translate(481.107422 0)"/>
       <use xlink:href="#DejaVuSans-63" transform="translate(508.890625 0)"/>
       <use xlink:href="#DejaVuSans-20" transform="translate(563.871094 0)"/>
       <use xlink:href="#DejaVuSans-73" transform="translate(595.658203 0)"/>
       <use xlink:href="#DejaVuSans-79" transform="translate(647.757812 0)"/>
       <use xlink:href="#DejaVuSans-6e" transform="translate(706.9375 0)"/>
       <use xlink:href="#DejaVuSans-61" transform="translate(770.316406 0)"/>
       <use xlink:href="#DejaVuSans-70" transform="translate(831.595703 0)"/>
       <use xlink:href="#DejaVuSans-73" transform="translate(895.072266 0)"/>
       <use xlink:href="#DejaVuSans-65" transform="translate(947.171875 0)"/>
      </g>
     </g>
    </g>
    <g id="ytick_4">
     <g id="line2d_10">
      <g>
       <use xlink:href="#m1584c2f412" x="180.020312" y="72.61202" style="stroke: #000000; stroke-width: 0.8"/>
      </g>
     </g>
     <g id="text_11">
      <!-- dendritic spine -->
      <g transform="translate(98.742187 76.411238) scale(0.1 -0.1)">
       <use xlink:href="#DejaVuSans-64"/>
       <use xlink:href="#DejaVuSans-65" transform="translate(63.476562 0)"/>
       <use xlink:href="#DejaVuSans-6e" transform="translate(125 0)"/>
       <use xlink:href="#DejaVuSans-64" transform="translate(188.378906 0)"/>
       <use xlink:href="#DejaVuSans-72" transform="translate(251.855469 0)"/>
       <use xlink:href="#DejaVuSans-69" transform="translate(292.96875 0)"/>
       <use xlink:href="#DejaVuSans-74" transform="translate(320.751953 0)"/>
       <use xlink:href="#DejaVuSans-69" transform="translate(359.960938 0)"/>
       <use xlink:href="#DejaVuSans-63" transform="translate(387.744141 0)"/>
       <use xlink:href="#DejaVuSans-20" transform="translate(442.724609 0)"/>
       <use xlink:href="#DejaVuSans-73" transform="translate(474.511719 0)"/>
       <use xlink:href="#DejaVuSans-70" transform="translate(526.611328 0)"/>
       <use xlink:href="#DejaVuSans-69" transform="translate(590.087891 0)"/>
       <use xlink:href="#DejaVuSans-6e" transform="translate(617.871094 0)"/>
       <use xlink:href="#DejaVuSans-65" transform="translate(681.25 0)"/>
      </g>
     </g>
    </g>
    <g id="ytick_5">
     <g id="line2d_11">
      <g>
       <use xlink:href="#m1584c2f412" x="180.020312" y="85.344651" style="stroke: #000000; stroke-width: 0.8"/>
      </g>
     </g>
     <g id="text_12">
      <!-- postsynaptic density -->
      <g transform="translate(69.440625 89.14387) scale(0.1 -0.1)">
       <use xlink:href="#DejaVuSans-70"/>
       <use xlink:href="#DejaVuSans-6f" transform="translate(63.476562 0)"/>
       <use xlink:href="#DejaVuSans-73" transform="translate(124.658203 0)"/>
       <use xlink:href="#DejaVuSans-74" transform="translate(176.757812 0)"/>
       <use xlink:href="#DejaVuSans-73" transform="translate(215.966797 0)"/>
       <use xlink:href="#DejaVuSans-79" transform="translate(268.066406 0)"/>
       <use xlink:href="#DejaVuSans-6e" transform="translate(327.246094 0)"/>
       <use xlink:href="#DejaVuSans-61" transform="translate(390.625 0)"/>
       <use xlink:href="#DejaVuSans-70" transform="translate(451.904297 0)"/>
       <use xlink:href="#DejaVuSans-74" transform="translate(515.380859 0)"/>
       <use xlink:href="#DejaVuSans-69" transform="translate(554.589844 0)"/>
       <use xlink:href="#DejaVuSans-63" transform="translate(582.373047 0)"/>
       <use xlink:href="#DejaVuSans-20" transform="translate(637.353516 0)"/>
       <use xlink:href="#DejaVuSans-64" transform="translate(669.140625 0)"/>
       <use xlink:href="#DejaVuSans-65" transform="translate(732.617188 0)"/>
       <use xlink:href="#DejaVuSans-6e" transform="translate(794.140625 0)"/>
       <use xlink:href="#DejaVuSans-73" transform="translate(857.519531 0)"/>
       <use xlink:href="#DejaVuSans-69" transform="translate(909.619141 0)"/>
       <use xlink:href="#DejaVuSans-74" transform="translate(937.402344 0)"/>
       <use xlink:href="#DejaVuSans-79" transform="translate(976.611328 0)"/>
      </g>
     </g>
    </g>
    <g id="ytick_6">
     <g id="line2d_12">
      <g>
       <use xlink:href="#m1584c2f412" x="180.020312" y="98.077283" style="stroke: #000000; stroke-width: 0.8"/>
      </g>
     </g>
     <g id="text_13">
      <!-- Schaffer collateral - CA1 synapse -->
      <g transform="translate(7.2 101.876502) scale(0.1 -0.1)">
       <defs>
        <path id="DejaVuSans-53" d="M 3425 4513 
L 3425 3897 
Q 3066 4069 2747 4153 
Q 2428 4238 2131 4238 
Q 1616 4238 1336 4038 
Q 1056 3838 1056 3469 
Q 1056 3159 1242 3001 
Q 1428 2844 1947 2747 
L 2328 2669 
Q 3034 2534 3370 2195 
Q 3706 1856 3706 1288 
Q 3706 609 3251 259 
Q 2797 -91 1919 -91 
Q 1588 -91 1214 -16 
Q 841 59 441 206 
L 441 856 
Q 825 641 1194 531 
Q 1563 422 1919 422 
Q 2459 422 2753 634 
Q 3047 847 3047 1241 
Q 3047 1584 2836 1778 
Q 2625 1972 2144 2069 
L 1759 2144 
Q 1053 2284 737 2584 
Q 422 2884 422 3419 
Q 422 4038 858 4394 
Q 1294 4750 2059 4750 
Q 2388 4750 2728 4690 
Q 3069 4631 3425 4513 
z
" transform="scale(0.015625)"/>
        <path id="DejaVuSans-66" d="M 2375 4863 
L 2375 4384 
L 1825 4384 
Q 1516 4384 1395 4259 
Q 1275 4134 1275 3809 
L 1275 3500 
L 2222 3500 
L 2222 3053 
L 1275 3053 
L 1275 0 
L 697 0 
L 697 3053 
L 147 3053 
L 147 3500 
L 697 3500 
L 697 3744 
Q 697 4328 969 4595 
Q 1241 4863 1831 4863 
L 2375 4863 
z
" transform="scale(0.015625)"/>
        <path id="DejaVuSans-43" d="M 4122 4306 
L 4122 3641 
Q 3803 3938 3442 4084 
Q 3081 4231 2675 4231 
Q 1875 4231 1450 3742 
Q 1025 3253 1025 2328 
Q 1025 1406 1450 917 
Q 1875 428 2675 428 
Q 3081 428 3442 575 
Q 3803 722 4122 1019 
L 4122 359 
Q 3791 134 3420 21 
Q 3050 -91 2638 -91 
Q 1578 -91 968 557 
Q 359 1206 359 2328 
Q 359 3453 968 4101 
Q 1578 4750 2638 4750 
Q 3056 4750 3426 4639 
Q 3797 4528 4122 4306 
z
" transform="scale(0.015625)"/>
        <path id="DejaVuSans-31" d="M 794 531 
L 1825 531 
L 1825 4091 
L 703 3866 
L 703 4441 
L 1819 4666 
L 2450 4666 
L 2450 531 
L 3481 531 
L 3481 0 
L 794 0 
L 794 531 
z
" transform="scale(0.015625)"/>
       </defs>
       <use xlink:href="#DejaVuSans-53"/>
       <use xlink:href="#DejaVuSans-63" transform="translate(63.476562 0)"/>
       <use xlink:href="#DejaVuSans-68" transform="translate(118.457031 0)"/>
       <use xlink:href="#DejaVuSans-61" transform="translate(181.835938 0)"/>
       <use xlink:href="#DejaVuSans-66" transform="translate(243.115234 0)"/>
       <use xlink:href="#DejaVuSans-66" transform="translate(278.320312 0)"/>
       <use xlink:href="#DejaVuSans-65" transform="translate(313.525391 0)"/>
       <use xlink:href="#DejaVuSans-72" transform="translate(375.048828 0)"/>
       <use xlink:href="#DejaVuSans-20" transform="translate(416.162109 0)"/>
       <use xlink:href="#DejaVuSans-63" transform="translate(447.949219 0)"/>
       <use xlink:href="#DejaVuSans-6f" transform="translate(502.929688 0)"/>
       <use xlink:href="#DejaVuSans-6c" transform="translate(564.111328 0)"/>
       <use xlink:href="#DejaVuSans-6c" transform="translate(591.894531 0)"/>
       <use xlink:href="#DejaVuSans-61" transform="translate(619.677734 0)"/>
       <use xlink:href="#DejaVuSans-74" transform="translate(680.957031 0)"/>
       <use xlink:href="#DejaVuSans-65" transform="translate(720.166016 0)"/>
       <use xlink:href="#DejaVuSans-72" transform="translate(781.689453 0)"/>
       <use xlink:href="#DejaVuSans-61" transform="translate(822.802734 0)"/>
       <use xlink:href="#DejaVuSans-6c" transform="translate(884.082031 0)"/>
       <use xlink:href="#DejaVuSans-20" transform="translate(911.865234 0)"/>
       <use xlink:href="#DejaVuSans-2d" transform="translate(943.652344 0)"/>
       <use xlink:href="#DejaVuSans-20" transform="translate(979.736328 0)"/>
       <use xlink:href="#DejaVuSans-43" transform="translate(1011.523438 0)"/>
       <use xlink:href="#DejaVuSans-41" transform="translate(1081.347656 0)"/>
       <use xlink:href="#DejaVuSans-31" transform="translate(1149.755859 0)"/>
       <use xlink:href="#DejaVuSans-20" transform="translate(1213.378906 0)"/>
       <use xlink:href="#DejaVuSans-73" transform="translate(1245.166016 0)"/>
       <use xlink:href="#DejaVuSans-79" transform="translate(1297.265625 0)"/>
       <use xlink:href="#DejaVuSans-6e" transform="translate(1356.445312 0)"/>
       <use xlink:href="#DejaVuSans-61" transform="translate(1419.824219 0)"/>
       <use xlink:href="#DejaVuSans-70" transform="translate(1481.103516 0)"/>
       <use xlink:href="#DejaVuSans-73" transform="translate(1544.580078 0)"/>
       <use xlink:href="#DejaVuSans-65" transform="translate(1596.679688 0)"/>
      </g>
     </g>
    </g>
    <g id="ytick_7">
     <g id="line2d_13">
      <g>
       <use xlink:href="#m1584c2f412" x="180.020312" y="110.809914" style="stroke: #000000; stroke-width: 0.8"/>
      </g>
     </g>
     <g id="text_14">
      <!-- postsynaptic density membrane -->
      <g transform="translate(11.55 114.609133) scale(0.1 -0.1)">
       <use xlink:href="#DejaVuSans-70"/>
       <use xlink:href="#DejaVuSans-6f" transform="translate(63.476562 0)"/>
       <use xlink:href="#DejaVuSans-73" transform="translate(124.658203 0)"/>
       <use xlink:href="#DejaVuSans-74" transform="translate(176.757812 0)"/>
       <use xlink:href="#DejaVuSans-73" transform="translate(215.966797 0)"/>
       <use xlink:href="#DejaVuSans-79" transform="translate(268.066406 0)"/>
       <use xlink:href="#DejaVuSans-6e" transform="translate(327.246094 0)"/>
       <use xlink:href="#DejaVuSans-61" transform="translate(390.625 0)"/>
       <use xlink:href="#DejaVuSans-70" transform="translate(451.904297 0)"/>
       <use xlink:href="#DejaVuSans-74" transform="translate(515.380859 0)"/>
       <use xlink:href="#DejaVuSans-69" transform="translate(554.589844 0)"/>
       <use xlink:href="#DejaVuSans-63" transform="translate(582.373047 0)"/>
       <use xlink:href="#DejaVuSans-20" transform="translate(637.353516 0)"/>
       <use xlink:href="#DejaVuSans-64" transform="translate(669.140625 0)"/>
       <use xlink:href="#DejaVuSans-65" transform="translate(732.617188 0)"/>
       <use xlink:href="#DejaVuSans-6e" transform="translate(794.140625 0)"/>
       <use xlink:href="#DejaVuSans-73" transform="translate(857.519531 0)"/>
       <use xlink:href="#DejaVuSans-69" transform="translate(909.619141 0)"/>
       <use xlink:href="#DejaVuSans-74" transform="translate(937.402344 0)"/>
       <use xlink:href="#DejaVuSans-79" transform="translate(976.611328 0)"/>
       <use xlink:href="#DejaVuSans-20" transform="translate(1035.791016 0)"/>
       <use xlink:href="#DejaVuSans-6d" transform="translate(1067.578125 0)"/>
       <use xlink:href="#DejaVuSans-65" transform="translate(1164.990234 0)"/>
       <use xlink:href="#DejaVuSans-6d" transform="translate(1226.513672 0)"/>
       <use xlink:href="#DejaVuSans-62" transform="translate(1323.925781 0)"/>
       <use xlink:href="#DejaVuSans-72" transform="translate(1387.402344 0)"/>
       <use xlink:href="#DejaVuSans-61" transform="translate(1428.515625 0)"/>
       <use xlink:href="#DejaVuSans-6e" transform="translate(1489.794922 0)"/>
       <use xlink:href="#DejaVuSans-65" transform="translate(1553.173828 0)"/>
      </g>
     </g>
    </g>
    <g id="ytick_8">
     <g id="line2d_14">
      <g>
       <use xlink:href="#m1584c2f412" x="180.020312" y="123.542546" style="stroke: #000000; stroke-width: 0.8"/>
      </g>
     </g>
     <g id="text_15">
      <!-- postsynapse -->
      <g transform="translate(110.11875 127.341765) scale(0.1 -0.1)">
       <use xlink:href="#DejaVuSans-70"/>
       <use xlink:href="#DejaVuSans-6f" transform="translate(63.476562 0)"/>
       <use xlink:href="#DejaVuSans-73" transform="translate(124.658203 0)"/>
       <use xlink:href="#DejaVuSans-74" transform="translate(176.757812 0)"/>
       <use xlink:href="#DejaVuSans-73" transform="translate(215.966797 0)"/>
       <use xlink:href="#DejaVuSans-79" transform="translate(268.066406 0)"/>
       <use xlink:href="#DejaVuSans-6e" transform="translate(327.246094 0)"/>
       <use xlink:href="#DejaVuSans-61" transform="translate(390.625 0)"/>
       <use xlink:href="#DejaVuSans-70" transform="translate(451.904297 0)"/>
       <use xlink:href="#DejaVuSans-73" transform="translate(515.380859 0)"/>
       <use xlink:href="#DejaVuSans-65" transform="translate(567.480469 0)"/>
      </g>
     </g>
    </g>
    <g id="ytick_9">
     <g id="line2d_15">
      <g>
       <use xlink:href="#m1584c2f412" x="180.020312" y="136.275178" style="stroke: #000000; stroke-width: 0.8"/>
      </g>
     </g>
     <g id="text_16">
      <!-- cytoplasmic stress granule -->
      <g transform="translate(38.945312 140.074396) scale(0.1 -0.1)">
       <use xlink:href="#DejaVuSans-63"/>
       <use xlink:href="#DejaVuSans-79" transform="translate(54.980469 0)"/>
       <use xlink:href="#DejaVuSans-74" transform="translate(114.160156 0)"/>
       <use xlink:href="#DejaVuSans-6f" transform="translate(153.369141 0)"/>
       <use xlink:href="#DejaVuSans-70" transform="translate(214.550781 0)"/>
       <use xlink:href="#DejaVuSans-6c" transform="translate(278.027344 0)"/>
       <use xlink:href="#DejaVuSans-61" transform="translate(305.810547 0)"/>
       <use xlink:href="#DejaVuSans-73" transform="translate(367.089844 0)"/>
       <use xlink:href="#DejaVuSans-6d" transform="translate(419.189453 0)"/>
       <use xlink:href="#DejaVuSans-69" transform="translate(516.601562 0)"/>
       <use xlink:href="#DejaVuSans-63" transform="translate(544.384766 0)"/>
       <use xlink:href="#DejaVuSans-20" transform="translate(599.365234 0)"/>
       <use xlink:href="#DejaVuSans-73" transform="translate(631.152344 0)"/>
       <use xlink:href="#DejaVuSans-74" transform="translate(683.251953 0)"/>
       <use xlink:href="#DejaVuSans-72" transform="translate(722.460938 0)"/>
       <use xlink:href="#DejaVuSans-65" transform="translate(761.324219 0)"/>
       <use xlink:href="#DejaVuSans-73" transform="translate(822.847656 0)"/>
       <use xlink:href="#DejaVuSans-73" transform="translate(874.947266 0)"/>
       <use xlink:href="#DejaVuSans-20" transform="translate(927.046875 0)"/>
       <use xlink:href="#DejaVuSans-67" transform="translate(958.833984 0)"/>
       <use xlink:href="#DejaVuSans-72" transform="translate(1022.310547 0)"/>
       <use xlink:href="#DejaVuSans-61" transform="translate(1063.423828 0)"/>
       <use xlink:href="#DejaVuSans-6e" transform="translate(1124.703125 0)"/>
       <use xlink:href="#DejaVuSans-75" transform="translate(1188.082031 0)"/>
       <use xlink:href="#DejaVuSans-6c" transform="translate(1251.460938 0)"/>
       <use xlink:href="#DejaVuSans-65" transform="translate(1279.244141 0)"/>
      </g>
     </g>
    </g>
    <g id="ytick_10">
     <g id="line2d_16">
      <g>
       <use xlink:href="#m1584c2f412" x="180.020312" y="149.007809" style="stroke: #000000; stroke-width: 0.8"/>
      </g>
     </g>
     <g id="text_17">
      <!-- glutamatergic synapse -->
      <g transform="translate(58.521875 152.807028) scale(0.1 -0.1)">
       <use xlink:href="#DejaVuSans-67"/>
       <use xlink:href="#DejaVuSans-6c" transform="translate(63.476562 0)"/>
       <use xlink:href="#DejaVuSans-75" transform="translate(91.259766 0)"/>
       <use xlink:href="#DejaVuSans-74" transform="translate(154.638672 0)"/>
       <use xlink:href="#DejaVuSans-61" transform="translate(193.847656 0)"/>
       <use xlink:href="#DejaVuSans-6d" transform="translate(255.126953 0)"/>
       <use xlink:href="#DejaVuSans-61" transform="translate(352.539062 0)"/>
       <use xlink:href="#DejaVuSans-74" transform="translate(413.818359 0)"/>
       <use xlink:href="#DejaVuSans-65" transform="translate(453.027344 0)"/>
       <use xlink:href="#DejaVuSans-72" transform="translate(514.550781 0)"/>
       <use xlink:href="#DejaVuSans-67" transform="translate(553.914062 0)"/>
       <use xlink:href="#DejaVuSans-69" transform="translate(617.390625 0)"/>
       <use xlink:href="#DejaVuSans-63" transform="translate(645.173828 0)"/>
       <use xlink:href="#DejaVuSans-20" transform="translate(700.154297 0)"/>
       <use xlink:href="#DejaVuSans-73" transform="translate(731.941406 0)"/>
       <use xlink:href="#DejaVuSans-79" transform="translate(784.041016 0)"/>
       <use xlink:href="#DejaVuSans-6e" transform="translate(843.220703 0)"/>
       <use xlink:href="#DejaVuSans-61" transform="translate(906.599609 0)"/>
       <use xlink:href="#DejaVuSans-70" transform="translate(967.878906 0)"/>
       <use xlink:href="#DejaVuSans-73" transform="translate(1031.355469 0)"/>
       <use xlink:href="#DejaVuSans-65" transform="translate(1083.455078 0)"/>
      </g>
     </g>
    </g>
    <g id="ytick_11">
     <g id="line2d_17">
      <g>
       <use xlink:href="#m1584c2f412" x="180.020312" y="161.740441" style="stroke: #000000; stroke-width: 0.8"/>
      </g>
     </g>
     <g id="text_18">
      <!-- postsynaptic membrane -->
      <g transform="translate(51.39375 165.53966) scale(0.1 -0.1)">
       <use xlink:href="#DejaVuSans-70"/>
       <use xlink:href="#DejaVuSans-6f" transform="translate(63.476562 0)"/>
       <use xlink:href="#DejaVuSans-73" transform="translate(124.658203 0)"/>
       <use xlink:href="#DejaVuSans-74" transform="translate(176.757812 0)"/>
       <use xlink:href="#DejaVuSans-73" transform="translate(215.966797 0)"/>
       <use xlink:href="#DejaVuSans-79" transform="translate(268.066406 0)"/>
       <use xlink:href="#DejaVuSans-6e" transform="translate(327.246094 0)"/>
       <use xlink:href="#DejaVuSans-61" transform="translate(390.625 0)"/>
       <use xlink:href="#DejaVuSans-70" transform="translate(451.904297 0)"/>
       <use xlink:href="#DejaVuSans-74" transform="translate(515.380859 0)"/>
       <use xlink:href="#DejaVuSans-69" transform="translate(554.589844 0)"/>
       <use xlink:href="#DejaVuSans-63" transform="translate(582.373047 0)"/>
       <use xlink:href="#DejaVuSans-20" transform="translate(637.353516 0)"/>
       <use xlink:href="#DejaVuSans-6d" transform="translate(669.140625 0)"/>
       <use xlink:href="#DejaVuSans-65" transform="translate(766.552734 0)"/>
       <use xlink:href="#DejaVuSans-6d" transform="translate(828.076172 0)"/>
       <use xlink:href="#DejaVuSans-62" transform="translate(925.488281 0)"/>
       <use xlink:href="#DejaVuSans-72" transform="translate(988.964844 0)"/>
       <use xlink:href="#DejaVuSans-61" transform="translate(1030.078125 0)"/>
       <use xlink:href="#DejaVuSans-6e" transform="translate(1091.357422 0)"/>
       <use xlink:href="#DejaVuSans-65" transform="translate(1154.736328 0)"/>
      </g>
     </g>
    </g>
    <g id="ytick_12">
     <g id="line2d_18">
      <g>
       <use xlink:href="#m1584c2f412" x="180.020312" y="174.473072" style="stroke: #000000; stroke-width: 0.8"/>
      </g>
     </g>
     <g id="text_19">
      <!-- axon -->
      <g transform="translate(148.829687 178.272291) scale(0.1 -0.1)">
       <defs>
        <path id="DejaVuSans-78" d="M 3513 3500 
L 2247 1797 
L 3578 0 
L 2900 0 
L 1881 1375 
L 863 0 
L 184 0 
L 1544 1831 
L 300 3500 
L 978 3500 
L 1906 2253 
L 2834 3500 
L 3513 3500 
z
" transform="scale(0.015625)"/>
       </defs>
       <use xlink:href="#DejaVuSans-61"/>
       <use xlink:href="#DejaVuSans-78" transform="translate(61.279297 0)"/>
       <use xlink:href="#DejaVuSans-6f" transform="translate(117.333984 0)"/>
       <use xlink:href="#DejaVuSans-6e" transform="translate(178.515625 0)"/>
      </g>
     </g>
    </g>
    <g id="ytick_13">
     <g id="line2d_19">
      <g>
       <use xlink:href="#m1584c2f412" x="180.020312" y="187.205704" style="stroke: #000000; stroke-width: 0.8"/>
      </g>
     </g>
     <g id="text_20">
      <!-- presynaptic membrane -->
      <g transform="translate(56.603125 191.004923) scale(0.1 -0.1)">
       <use xlink:href="#DejaVuSans-70"/>
       <use xlink:href="#DejaVuSans-72" transform="translate(63.476562 0)"/>
       <use xlink:href="#DejaVuSans-65" transform="translate(102.339844 0)"/>
       <use xlink:href="#DejaVuSans-73" transform="translate(163.863281 0)"/>
       <use xlink:href="#DejaVuSans-79" transform="translate(215.962891 0)"/>
       <use xlink:href="#DejaVuSans-6e" transform="translate(275.142578 0)"/>
       <use xlink:href="#DejaVuSans-61" transform="translate(338.521484 0)"/>
       <use xlink:href="#DejaVuSans-70" transform="translate(399.800781 0)"/>
       <use xlink:href="#DejaVuSans-74" transform="translate(463.277344 0)"/>
       <use xlink:href="#DejaVuSans-69" transform="translate(502.486328 0)"/>
       <use xlink:href="#DejaVuSans-63" transform="translate(530.269531 0)"/>
       <use xlink:href="#DejaVuSans-20" transform="translate(585.25 0)"/>
       <use xlink:href="#DejaVuSans-6d" transform="translate(617.037109 0)"/>
       <use xlink:href="#DejaVuSans-65" transform="translate(714.449219 0)"/>
       <use xlink:href="#DejaVuSans-6d" transform="translate(775.972656 0)"/>
       <use xlink:href="#DejaVuSans-62" transform="translate(873.384766 0)"/>
       <use xlink:href="#DejaVuSans-72" transform="translate(936.861328 0)"/>
       <use xlink:href="#DejaVuSans-61" transform="translate(977.974609 0)"/>
       <use xlink:href="#DejaVuSans-6e" transform="translate(1039.253906 0)"/>
       <use xlink:href="#DejaVuSans-65" transform="translate(1102.632812 0)"/>
      </g>
     </g>
    </g>
    <g id="ytick_14">
     <g id="line2d_20">
      <g>
       <use xlink:href="#m1584c2f412" x="180.020312" y="199.938336" style="stroke: #000000; stroke-width: 0.8"/>
      </g>
     </g>
     <g id="text_21">
      <!-- dendrite -->
      <g transform="translate(130.870312 203.737554) scale(0.1 -0.1)">
       <use xlink:href="#DejaVuSans-64"/>
       <use xlink:href="#DejaVuSans-65" transform="translate(63.476562 0)"/>
       <use xlink:href="#DejaVuSans-6e" transform="translate(125 0)"/>
       <use xlink:href="#DejaVuSans-64" transform="translate(188.378906 0)"/>
       <use xlink:href="#DejaVuSans-72" transform="translate(251.855469 0)"/>
       <use xlink:href="#DejaVuSans-69" transform="translate(292.96875 0)"/>
       <use xlink:href="#DejaVuSans-74" transform="translate(320.751953 0)"/>
       <use xlink:href="#DejaVuSans-65" transform="translate(359.960938 0)"/>
      </g>
     </g>
    </g>
    <g id="ytick_15">
     <g id="line2d_21">
      <g>
       <use xlink:href="#m1584c2f412" x="180.020312" y="212.670967" style="stroke: #000000; stroke-width: 0.8"/>
      </g>
     </g>
     <g id="text_22">
      <!-- presynapse -->
      <g transform="translate(115.328125 216.470186) scale(0.1 -0.1)">
       <use xlink:href="#DejaVuSans-70"/>
       <use xlink:href="#DejaVuSans-72" transform="translate(63.476562 0)"/>
       <use xlink:href="#DejaVuSans-65" transform="translate(102.339844 0)"/>
       <use xlink:href="#DejaVuSans-73" transform="translate(163.863281 0)"/>
       <use xlink:href="#DejaVuSans-79" transform="translate(215.962891 0)"/>
       <use xlink:href="#DejaVuSans-6e" transform="translate(275.142578 0)"/>
       <use xlink:href="#DejaVuSans-61" transform="translate(338.521484 0)"/>
       <use xlink:href="#DejaVuSans-70" transform="translate(399.800781 0)"/>
       <use xlink:href="#DejaVuSans-73" transform="translate(463.277344 0)"/>
       <use xlink:href="#DejaVuSans-65" transform="translate(515.376953 0)"/>
      </g>
     </g>
    </g>
    <g id="ytick_16">
     <g id="line2d_22">
      <g>
       <use xlink:href="#m1584c2f412" x="180.020312" y="225.403599" style="stroke: #000000; stroke-width: 0.8"/>
      </g>
     </g>
     <g id="text_23">
      <!-- synapse -->
      <g transform="translate(131.715625 229.202817) scale(0.1 -0.1)">
       <use xlink:href="#DejaVuSans-73"/>
       <use xlink:href="#DejaVuSans-79" transform="translate(52.099609 0)"/>
       <use xlink:href="#DejaVuSans-6e" transform="translate(111.279297 0)"/>
       <use xlink:href="#DejaVuSans-61" transform="translate(174.658203 0)"/>
       <use xlink:href="#DejaVuSans-70" transform="translate(235.9375 0)"/>
       <use xlink:href="#DejaVuSans-73" transform="translate(299.414062 0)"/>
       <use xlink:href="#DejaVuSans-65" transform="translate(351.513672 0)"/>
      </g>
     </g>
    </g>
    <g id="ytick_17">
     <g id="line2d_23">
      <g>
       <use xlink:href="#m1584c2f412" x="180.020312" y="238.13623" style="stroke: #000000; stroke-width: 0.8"/>
      </g>
     </g>
     <g id="text_24">
      <!-- neuronal cell body -->
      <g transform="translate(80.645312 241.935449) scale(0.1 -0.1)">
       <use xlink:href="#DejaVuSans-6e"/>
       <use xlink:href="#DejaVuSans-65" transform="translate(63.378906 0)"/>
       <use xlink:href="#DejaVuSans-75" transform="translate(124.902344 0)"/>
       <use xlink:href="#DejaVuSans-72" transform="translate(188.28125 0)"/>
       <use xlink:href="#DejaVuSans-6f" transform="translate(227.144531 0)"/>
       <use xlink:href="#DejaVuSans-6e" transform="translate(288.326172 0)"/>
       <use xlink:href="#DejaVuSans-61" transform="translate(351.705078 0)"/>
       <use xlink:href="#DejaVuSans-6c" transform="translate(412.984375 0)"/>
       <use xlink:href="#DejaVuSans-20" transform="translate(440.767578 0)"/>
       <use xlink:href="#DejaVuSans-63" transform="translate(472.554688 0)"/>
       <use xlink:href="#DejaVuSans-65" transform="translate(527.535156 0)"/>
       <use xlink:href="#DejaVuSans-6c" transform="translate(589.058594 0)"/>
       <use xlink:href="#DejaVuSans-6c" transform="translate(616.841797 0)"/>
       <use xlink:href="#DejaVuSans-20" transform="translate(644.625 0)"/>
       <use xlink:href="#DejaVuSans-62" transform="translate(676.412109 0)"/>
       <use xlink:href="#DejaVuSans-6f" transform="translate(739.888672 0)"/>
       <use xlink:href="#DejaVuSans-64" transform="translate(801.070312 0)"/>
       <use xlink:href="#DejaVuSans-79" transform="translate(864.546875 0)"/>
      </g>
     </g>
    </g>
    <g id="ytick_18">
     <g id="line2d_24">
      <g>
       <use xlink:href="#m1584c2f412" x="180.020312" y="250.868862" style="stroke: #000000; stroke-width: 0.8"/>
      </g>
     </g>
     <g id="text_25">
      <!-- microtubule cytoskeleton -->
      <g transform="translate(46.390625 254.668081) scale(0.1 -0.1)">
       <defs>
        <path id="DejaVuSans-6b" d="M 581 4863 
L 1159 4863 
L 1159 1991 
L 2875 3500 
L 3609 3500 
L 1753 1863 
L 3688 0 
L 2938 0 
L 1159 1709 
L 1159 0 
L 581 0 
L 581 4863 
z
" transform="scale(0.015625)"/>
       </defs>
       <use xlink:href="#DejaVuSans-6d"/>
       <use xlink:href="#DejaVuSans-69" transform="translate(97.412109 0)"/>
       <use xlink:href="#DejaVuSans-63" transform="translate(125.195312 0)"/>
       <use xlink:href="#DejaVuSans-72" transform="translate(180.175781 0)"/>
       <use xlink:href="#DejaVuSans-6f" transform="translate(219.039062 0)"/>
       <use xlink:href="#DejaVuSans-74" transform="translate(280.220703 0)"/>
       <use xlink:href="#DejaVuSans-75" transform="translate(319.429688 0)"/>
       <use xlink:href="#DejaVuSans-62" transform="translate(382.808594 0)"/>
       <use xlink:href="#DejaVuSans-75" transform="translate(446.285156 0)"/>
       <use xlink:href="#DejaVuSans-6c" transform="translate(509.664062 0)"/>
       <use xlink:href="#DejaVuSans-65" transform="translate(537.447266 0)"/>
       <use xlink:href="#DejaVuSans-20" transform="translate(598.970703 0)"/>
       <use xlink:href="#DejaVuSans-63" transform="translate(630.757812 0)"/>
       <use xlink:href="#DejaVuSans-79" transform="translate(685.738281 0)"/>
       <use xlink:href="#DejaVuSans-74" transform="translate(744.917969 0)"/>
       <use xlink:href="#DejaVuSans-6f" transform="translate(784.126953 0)"/>
       <use xlink:href="#DejaVuSans-73" transform="translate(845.308594 0)"/>
       <use xlink:href="#DejaVuSans-6b" transform="translate(897.408203 0)"/>
       <use xlink:href="#DejaVuSans-65" transform="translate(951.693359 0)"/>
       <use xlink:href="#DejaVuSans-6c" transform="translate(1013.216797 0)"/>
       <use xlink:href="#DejaVuSans-65" transform="translate(1041 0)"/>
       <use xlink:href="#DejaVuSans-74" transform="translate(1102.523438 0)"/>
       <use xlink:href="#DejaVuSans-6f" transform="translate(1141.732422 0)"/>
       <use xlink:href="#DejaVuSans-6e" transform="translate(1202.914062 0)"/>
      </g>
     </g>
    </g>
    <g id="ytick_19">
     <g id="line2d_25">
      <g>
       <use xlink:href="#m1584c2f412" x="180.020312" y="263.601493" style="stroke: #000000; stroke-width: 0.8"/>
      </g>
     </g>
     <g id="text_26">
      <!-- neuron projection -->
      <g transform="translate(84.734375 267.400712) scale(0.1 -0.1)">
       <defs>
        <path id="DejaVuSans-6a" d="M 603 3500 
L 1178 3500 
L 1178 -63 
Q 1178 -731 923 -1031 
Q 669 -1331 103 -1331 
L -116 -1331 
L -116 -844 
L 38 -844 
Q 366 -844 484 -692 
Q 603 -541 603 -63 
L 603 3500 
z
M 603 4863 
L 1178 4863 
L 1178 4134 
L 603 4134 
L 603 4863 
z
" transform="scale(0.015625)"/>
       </defs>
       <use xlink:href="#DejaVuSans-6e"/>
       <use xlink:href="#DejaVuSans-65" transform="translate(63.378906 0)"/>
       <use xlink:href="#DejaVuSans-75" transform="translate(124.902344 0)"/>
       <use xlink:href="#DejaVuSans-72" transform="translate(188.28125 0)"/>
       <use xlink:href="#DejaVuSans-6f" transform="translate(227.144531 0)"/>
       <use xlink:href="#DejaVuSans-6e" transform="translate(288.326172 0)"/>
       <use xlink:href="#DejaVuSans-20" transform="translate(351.705078 0)"/>
       <use xlink:href="#DejaVuSans-70" transform="translate(383.492188 0)"/>
       <use xlink:href="#DejaVuSans-72" transform="translate(446.96875 0)"/>
       <use xlink:href="#DejaVuSans-6f" transform="translate(485.832031 0)"/>
       <use xlink:href="#DejaVuSans-6a" transform="translate(547.013672 0)"/>
       <use xlink:href="#DejaVuSans-65" transform="translate(574.796875 0)"/>
       <use xlink:href="#DejaVuSans-63" transform="translate(636.320312 0)"/>
       <use xlink:href="#DejaVuSans-74" transform="translate(691.300781 0)"/>
       <use xlink:href="#DejaVuSans-69" transform="translate(730.509766 0)"/>
       <use xlink:href="#DejaVuSans-6f" transform="translate(758.292969 0)"/>
       <use xlink:href="#DejaVuSans-6e" transform="translate(819.474609 0)"/>
      </g>
     </g>
    </g>
    <g id="ytick_20">
     <g id="line2d_26">
      <g>
       <use xlink:href="#m1584c2f412" x="180.020312" y="276.334125" style="stroke: #000000; stroke-width: 0.8"/>
      </g>
     </g>
     <g id="text_27">
      <!-- cytoskeleton -->
      <g transform="translate(109.465625 280.133344) scale(0.1 -0.1)">
       <use xlink:href="#DejaVuSans-63"/>
       <use xlink:href="#DejaVuSans-79" transform="translate(54.980469 0)"/>
       <use xlink:href="#DejaVuSans-74" transform="translate(114.160156 0)"/>
       <use xlink:href="#DejaVuSans-6f" transform="translate(153.369141 0)"/>
       <use xlink:href="#DejaVuSans-73" transform="translate(214.550781 0)"/>
       <use xlink:href="#DejaVuSans-6b" transform="translate(266.650391 0)"/>
       <use xlink:href="#DejaVuSans-65" transform="translate(320.935547 0)"/>
       <use xlink:href="#DejaVuSans-6c" transform="translate(382.458984 0)"/>
       <use xlink:href="#DejaVuSans-65" transform="translate(410.242188 0)"/>
       <use xlink:href="#DejaVuSans-74" transform="translate(471.765625 0)"/>
       <use xlink:href="#DejaVuSans-6f" transform="translate(510.974609 0)"/>
       <use xlink:href="#DejaVuSans-6e" transform="translate(572.15625 0)"/>
      </g>
     </g>
    </g>
   </g>
   <g id="line2d_27"/>
   <g id="line2d_28"/>
   <g id="line2d_29"/>
   <g id="line2d_30"/>
   <g id="line2d_31"/>
   <g id="line2d_32"/>
   <g id="line2d_33"/>
   <g id="line2d_34"/>
   <g id="line2d_35"/>
   <g id="line2d_36"/>
   <g id="line2d_37"/>
   <g id="line2d_38"/>
   <g id="line2d_39"/>
   <g id="patch_3">
    <path d="M 180.020312 288.430125 
L 180.020312 22.318125 
" style="fill: none; stroke: #000000; stroke-width: 0.8; stroke-linejoin: miter; stroke-linecap: square"/>
   </g>
   <g id="patch_4">
    <path d="M 537.140312 288.430125 
L 537.140312 22.318125 
" style="fill: none; stroke: #000000; stroke-width: 0.8; stroke-linejoin: miter; stroke-linecap: square"/>
   </g>
   <g id="patch_5">
    <path d="M 180.020312 288.430125 
L 537.140312 288.430125 
" style="fill: none; stroke: #000000; stroke-width: 0.8; stroke-linejoin: miter; stroke-linecap: square"/>
   </g>
   <g id="patch_6">
    <path d="M 180.020312 22.318125 
L 537.140312 22.318125 
" style="fill: none; stroke: #000000; stroke-width: 0.8; stroke-linejoin: miter; stroke-linecap: square"/>
   </g>
   <g id="text_28">
    <!-- Top 20 Enriched Cellular Components -->
    <g transform="translate(246.074687 16.318125) scale(0.12 -0.12)">
     <defs>
      <path id="DejaVuSans-54" d="M -19 4666 
L 3928 4666 
L 3928 4134 
L 2272 4134 
L 2272 0 
L 1638 0 
L 1638 4134 
L -19 4134 
L -19 4666 
z
" transform="scale(0.015625)"/>
     </defs>
     <use xlink:href="#DejaVuSans-54"/>
     <use xlink:href="#DejaVuSans-6f" transform="translate(44.083984 0)"/>
     <use xlink:href="#DejaVuSans-70" transform="translate(105.265625 0)"/>
     <use xlink:href="#DejaVuSans-20" transform="translate(168.742188 0)"/>
     <use xlink:href="#DejaVuSans-32" transform="translate(200.529297 0)"/>
     <use xlink:href="#DejaVuSans-30" transform="translate(264.152344 0)"/>
     <use xlink:href="#DejaVuSans-20" transform="translate(327.775391 0)"/>
     <use xlink:href="#DejaVuSans-45" transform="translate(359.5625 0)"/>
     <use xlink:href="#DejaVuSans-6e" transform="translate(422.746094 0)"/>
     <use xlink:href="#DejaVuSans-72" transform="translate(486.125 0)"/>
     <use xlink:href="#DejaVuSans-69" transform="translate(527.238281 0)"/>
     <use xlink:href="#DejaVuSans-63" transform="translate(555.021484 0)"/>
     <use xlink:href="#DejaVuSans-68" transform="translate(610.001953 0)"/>
     <use xlink:href="#DejaVuSans-65" transform="translate(673.380859 0)"/>
     <use xlink:href="#DejaVuSans-64" transform="translate(734.904297 0)"/>
     <use xlink:href="#DejaVuSans-20" transform="translate(798.380859 0)"/>
     <use xlink:href="#DejaVuSans-43" transform="translate(830.167969 0)"/>
     <use xlink:href="#DejaVuSans-65" transform="translate(899.992188 0)"/>
     <use xlink:href="#DejaVuSans-6c" transform="translate(961.515625 0)"/>
     <use xlink:href="#DejaVuSans-6c" transform="translate(989.298828 0)"/>
     <use xlink:href="#DejaVuSans-75" transform="translate(1017.082031 0)"/>
     <use xlink:href="#DejaVuSans-6c" transform="translate(1080.460938 0)"/>
     <use xlink:href="#DejaVuSans-61" transform="translate(1108.244141 0)"/>
     <use xlink:href="#DejaVuSans-72" transform="translate(1169.523438 0)"/>
     <use xlink:href="#DejaVuSans-20" transform="translate(1210.636719 0)"/>
     <use xlink:href="#DejaVuSans-43" transform="translate(1242.423828 0)"/>
     <use xlink:href="#DejaVuSans-6f" transform="translate(1312.248047 0)"/>
     <use xlink:href="#DejaVuSans-6d" transform="translate(1373.429688 0)"/>
     <use xlink:href="#DejaVuSans-70" transform="translate(1470.841797 0)"/>
     <use xlink:href="#DejaVuSans-6f" transform="translate(1534.318359 0)"/>
     <use xlink:href="#DejaVuSans-6e" transform="translate(1595.5 0)"/>
     <use xlink:href="#DejaVuSans-65" transform="translate(1658.878906 0)"/>
     <use xlink:href="#DejaVuSans-6e" transform="translate(1720.402344 0)"/>
     <use xlink:href="#DejaVuSans-74" transform="translate(1783.78125 0)"/>
     <use xlink:href="#DejaVuSans-73" transform="translate(1822.990234 0)"/>
    </g>
   </g>
   <g id="legend_1">
    <g id="patch_7">
     <path d="M 544.140312 221.13375 
L 631.379375 221.13375 
Q 633.379375 221.13375 633.379375 219.13375 
L 633.379375 29.318125 
Q 633.379375 27.318125 631.379375 27.318125 
L 544.140312 27.318125 
Q 542.140312 27.318125 542.140312 29.318125 
L 542.140312 219.13375 
Q 542.140312 221.13375 544.140312 221.13375 
z
" style="fill: #ffffff; opacity: 0.8; stroke: #cccccc; stroke-linejoin: miter"/>
    </g>
    <g id="line2d_40"/>
    <g id="text_29">
     <!-- -log10 FDR -->
     <g transform="translate(574.140312 38.916562) scale(0.1 -0.1)">
      <defs>
       <path id="DejaVuSans-44" d="M 1259 4147 
L 1259 519 
L 2022 519 
Q 2988 519 3436 956 
Q 3884 1394 3884 2338 
Q 3884 3275 3436 3711 
Q 2988 4147 2022 4147 
L 1259 4147 
z
M 628 4666 
L 1925 4666 
Q 3281 4666 3915 4102 
Q 4550 3538 4550 2338 
Q 4550 1131 3912 565 
Q 3275 0 1925 0 
L 628 0 
L 628 4666 
z
" transform="scale(0.015625)"/>
       <path id="DejaVuSans-52" d="M 2841 2188 
Q 3044 2119 3236 1894 
Q 3428 1669 3622 1275 
L 4263 0 
L 3584 0 
L 2988 1197 
Q 2756 1666 2539 1819 
Q 2322 1972 1947 1972 
L 1259 1972 
L 1259 0 
L 628 0 
L 628 4666 
L 2053 4666 
Q 2853 4666 3247 4331 
Q 3641 3997 3641 3322 
Q 3641 2881 3436 2590 
Q 3231 2300 2841 2188 
z
M 1259 4147 
L 1259 2491 
L 2053 2491 
Q 2509 2491 2742 2702 
Q 2975 2913 2975 3322 
Q 2975 3731 2742 3939 
Q 2509 4147 2053 4147 
L 1259 4147 
z
" transform="scale(0.015625)"/>
      </defs>
      <use xlink:href="#DejaVuSans-2d"/>
      <use xlink:href="#DejaVuSans-6c" transform="translate(36.083984 0)"/>
      <use xlink:href="#DejaVuSans-6f" transform="translate(63.867188 0)"/>
      <use xlink:href="#DejaVuSans-67" transform="translate(125.048828 0)"/>
      <use xlink:href="#DejaVuSans-31" transform="translate(188.525391 0)"/>
      <use xlink:href="#DejaVuSans-30" transform="translate(252.148438 0)"/>
      <use xlink:href="#DejaVuSans-20" transform="translate(315.771484 0)"/>
      <use xlink:href="#DejaVuSans-46" transform="translate(347.558594 0)"/>
      <use xlink:href="#DejaVuSans-44" transform="translate(405.078125 0)"/>
      <use xlink:href="#DejaVuSans-52" transform="translate(482.080078 0)"/>
     </g>
    </g>
    <g id="line2d_41">
     <defs>
      <path id="md73e092398" d="M 0 3 
C 0.795609 3 1.55874 2.683901 2.12132 2.12132 
C 2.683901 1.55874 3 0.795609 3 0 
C 3 -0.795609 2.683901 -1.55874 2.12132 -2.12132 
C 1.55874 -2.683901 0.795609 -3 0 -3 
C -0.795609 -3 -1.55874 -2.683901 -2.12132 -2.12132 
C -2.683901 -1.55874 -3 -0.795609 -3 0 
C -3 0.795609 -2.683901 1.55874 -2.12132 2.12132 
C -1.55874 2.683901 -0.795609 3 0 3 
z
" style="stroke: #ffffff; stroke-width: 0.404009"/>
     </defs>
     <g>
      <use xlink:href="#md73e092398" x="556.140312" y="50.094688" style="fill: #6c8ff1; stroke: #ffffff; stroke-width: 0.404009"/>
     </g>
    </g>
    <g id="text_30">
     <!-- 8 -->
     <g transform="translate(574.140312 53.594688) scale(0.1 -0.1)">
      <defs>
       <path id="DejaVuSans-38" d="M 2034 2216 
Q 1584 2216 1326 1975 
Q 1069 1734 1069 1313 
Q 1069 891 1326 650 
Q 1584 409 2034 409 
Q 2484 409 2743 651 
Q 3003 894 3003 1313 
Q 3003 1734 2745 1975 
Q 2488 2216 2034 2216 
z
M 1403 2484 
Q 997 2584 770 2862 
Q 544 3141 544 3541 
Q 544 4100 942 4425 
Q 1341 4750 2034 4750 
Q 2731 4750 3128 4425 
Q 3525 4100 3525 3541 
Q 3525 3141 3298 2862 
Q 3072 2584 2669 2484 
Q 3125 2378 3379 2068 
Q 3634 1759 3634 1313 
Q 3634 634 3220 271 
Q 2806 -91 2034 -91 
Q 1263 -91 848 271 
Q 434 634 434 1313 
Q 434 1759 690 2068 
Q 947 2378 1403 2484 
z
M 1172 3481 
Q 1172 3119 1398 2916 
Q 1625 2713 2034 2713 
Q 2441 2713 2670 2916 
Q 2900 3119 2900 3481 
Q 2900 3844 2670 4047 
Q 2441 4250 2034 4250 
Q 1625 4250 1398 4047 
Q 1172 3844 1172 3481 
z
" transform="scale(0.015625)"/>
      </defs>
      <use xlink:href="#DejaVuSans-38"/>
     </g>
    </g>
    <g id="line2d_42">
     <defs>
      <path id="mbebe948fba" d="M 0 3 
C 0.795609 3 1.55874 2.683901 2.12132 2.12132 
C 2.683901 1.55874 3 0.795609 3 0 
C 3 -0.795609 2.683901 -1.55874 2.12132 -2.12132 
C 1.55874 -2.683901 0.795609 -3 0 -3 
C -0.795609 -3 -1.55874 -2.683901 -2.12132 -2.12132 
C -2.683901 -1.55874 -3 -0.795609 -3 0 
C -3 0.795609 -2.683901 1.55874 -2.12132 2.12132 
C -1.55874 2.683901 -0.795609 3 0 3 
z
" style="stroke: #ffffff; stroke-width: 0.404009"/>
     </defs>
     <g>
      <use xlink:href="#mbebe948fba" x="556.140312" y="64.772812" style="fill: #a9c6fd; stroke: #ffffff; stroke-width: 0.404009"/>
     </g>
    </g>
    <g id="text_31">
     <!-- 12 -->
     <g transform="translate(574.140312 68.272812) scale(0.1 -0.1)">
      <use xlink:href="#DejaVuSans-31"/>
      <use xlink:href="#DejaVuSans-32" transform="translate(63.623047 0)"/>
     </g>
    </g>
    <g id="line2d_43">
     <defs>
      <path id="m810349d5e4" d="M 0 3 
C 0.795609 3 1.55874 2.683901 2.12132 2.12132 
C 2.683901 1.55874 3 0.795609 3 0 
C 3 -0.795609 2.683901 -1.55874 2.12132 -2.12132 
C 1.55874 -2.683901 0.795609 -3 0 -3 
C -0.795609 -3 -1.55874 -2.683901 -2.12132 -2.12132 
C -2.683901 -1.55874 -3 -0.795609 -3 0 
C -3 0.795609 -2.683901 1.55874 -2.12132 2.12132 
C -1.55874 2.683901 -0.795609 3 0 3 
z
" style="stroke: #ffffff; stroke-width: 0.404009"/>
     </defs>
     <g>
      <use xlink:href="#m810349d5e4" x="556.140312" y="79.450938" style="fill: #dddcdc; stroke: #ffffff; stroke-width: 0.404009"/>
     </g>
    </g>
    <g id="text_32">
     <!-- 16 -->
     <g transform="translate(574.140312 82.950938) scale(0.1 -0.1)">
      <defs>
       <path id="DejaVuSans-36" d="M 2113 2584 
Q 1688 2584 1439 2293 
Q 1191 2003 1191 1497 
Q 1191 994 1439 701 
Q 1688 409 2113 409 
Q 2538 409 2786 701 
Q 3034 994 3034 1497 
Q 3034 2003 2786 2293 
Q 2538 2584 2113 2584 
z
M 3366 4563 
L 3366 3988 
Q 3128 4100 2886 4159 
Q 2644 4219 2406 4219 
Q 1781 4219 1451 3797 
Q 1122 3375 1075 2522 
Q 1259 2794 1537 2939 
Q 1816 3084 2150 3084 
Q 2853 3084 3261 2657 
Q 3669 2231 3669 1497 
Q 3669 778 3244 343 
Q 2819 -91 2113 -91 
Q 1303 -91 875 529 
Q 447 1150 447 2328 
Q 447 3434 972 4092 
Q 1497 4750 2381 4750 
Q 2619 4750 2861 4703 
Q 3103 4656 3366 4563 
z
" transform="scale(0.015625)"/>
      </defs>
      <use xlink:href="#DejaVuSans-31"/>
      <use xlink:href="#DejaVuSans-36" transform="translate(63.623047 0)"/>
     </g>
    </g>
    <g id="line2d_44">
     <defs>
      <path id="m341b83af22" d="M 0 3 
C 0.795609 3 1.55874 2.683901 2.12132 2.12132 
C 2.683901 1.55874 3 0.795609 3 0 
C 3 -0.795609 2.683901 -1.55874 2.12132 -2.12132 
C 1.55874 -2.683901 0.795609 -3 0 -3 
C -0.795609 -3 -1.55874 -2.683901 -2.12132 -2.12132 
C -2.683901 -1.55874 -3 -0.795609 -3 0 
C -3 0.795609 -2.683901 1.55874 -2.12132 2.12132 
C -1.55874 2.683901 -0.795609 3 0 3 
z
" style="stroke: #ffffff; stroke-width: 0.404009"/>
     </defs>
     <g>
      <use xlink:href="#m341b83af22" x="556.140312" y="94.129063" style="fill: #f7b79b; stroke: #ffffff; stroke-width: 0.404009"/>
     </g>
    </g>
    <g id="text_33">
     <!-- 20 -->
     <g transform="translate(574.140312 97.629063) scale(0.1 -0.1)">
      <use xlink:href="#DejaVuSans-32"/>
      <use xlink:href="#DejaVuSans-30" transform="translate(63.623047 0)"/>
     </g>
    </g>
    <g id="line2d_45">
     <defs>
      <path id="m5c7149e309" d="M 0 3 
C 0.795609 3 1.55874 2.683901 2.12132 2.12132 
C 2.683901 1.55874 3 0.795609 3 0 
C 3 -0.795609 2.683901 -1.55874 2.12132 -2.12132 
C 1.55874 -2.683901 0.795609 -3 0 -3 
C -0.795609 -3 -1.55874 -2.683901 -2.12132 -2.12132 
C -2.683901 -1.55874 -3 -0.795609 -3 0 
C -3 0.795609 -2.683901 1.55874 -2.12132 2.12132 
C -1.55874 2.683901 -0.795609 3 0 3 
z
" style="stroke: #ffffff; stroke-width: 0.404009"/>
     </defs>
     <g>
      <use xlink:href="#m5c7149e309" x="556.140312" y="108.807187" style="fill: #e57058; stroke: #ffffff; stroke-width: 0.404009"/>
     </g>
    </g>
    <g id="text_34">
     <!-- 24 -->
     <g transform="translate(574.140312 112.307187) scale(0.1 -0.1)">
      <use xlink:href="#DejaVuSans-32"/>
      <use xlink:href="#DejaVuSans-34" transform="translate(63.623047 0)"/>
     </g>
    </g>
    <g id="line2d_46"/>
    <g id="text_35">
     <!-- Gene Ratio -->
     <g transform="translate(574.140312 126.985313) scale(0.1 -0.1)">
      <use xlink:href="#DejaVuSans-47"/>
      <use xlink:href="#DejaVuSans-65" transform="translate(77.490234 0)"/>
      <use xlink:href="#DejaVuSans-6e" transform="translate(139.013672 0)"/>
      <use xlink:href="#DejaVuSans-65" transform="translate(202.392578 0)"/>
      <use xlink:href="#DejaVuSans-20" transform="translate(263.916016 0)"/>
      <use xlink:href="#DejaVuSans-52" transform="translate(295.703125 0)"/>
      <use xlink:href="#DejaVuSans-61" transform="translate(362.935547 0)"/>
      <use xlink:href="#DejaVuSans-74" transform="translate(424.214844 0)"/>
      <use xlink:href="#DejaVuSans-69" transform="translate(463.423828 0)"/>
      <use xlink:href="#DejaVuSans-6f" transform="translate(491.207031 0)"/>
     </g>
    </g>
    <g id="line2d_47">
     <defs>
      <path id="m54e43569ce" d="M 0 2.517294 
C 0.667594 2.517294 1.307935 2.252056 1.779996 1.779996 
C 2.252056 1.307935 2.517294 0.667594 2.517294 0 
C 2.517294 -0.667594 2.252056 -1.307935 1.779996 -1.779996 
C 1.307935 -2.252056 0.667594 -2.517294 0 -2.517294 
C -0.667594 -2.517294 -1.307935 -2.252056 -1.779996 -1.779996 
C -2.252056 -1.307935 -2.517294 -0.667594 -2.517294 0 
C -2.517294 0.667594 -2.252056 1.307935 -1.779996 1.779996 
C -1.307935 2.252056 -0.667594 2.517294 0 2.517294 
z
" style="stroke: #ffffff; stroke-width: 0.404009"/>
     </defs>
     <g>
      <use xlink:href="#m54e43569ce" x="556.140312" y="138.163437" style="fill: #333333; stroke: #ffffff; stroke-width: 0.404009"/>
     </g>
    </g>
    <g id="text_36">
     <!-- 0.015 -->
     <g transform="translate(574.140312 141.663437) scale(0.1 -0.1)">
      <use xlink:href="#DejaVuSans-30"/>
      <use xlink:href="#DejaVuSans-2e" transform="translate(63.623047 0)"/>
      <use xlink:href="#DejaVuSans-30" transform="translate(95.410156 0)"/>
      <use xlink:href="#DejaVuSans-31" transform="translate(159.033203 0)"/>
      <use xlink:href="#DejaVuSans-35" transform="translate(222.65625 0)"/>
     </g>
    </g>
    <g id="line2d_48">
     <defs>
      <path id="m71fedc6a9f" d="M 0 3.523928 
C 0.934557 3.523928 1.830962 3.152624 2.491793 2.491793 
C 3.152624 1.830962 3.523928 0.934557 3.523928 0 
C 3.523928 -0.934557 3.152624 -1.830962 2.491793 -2.491793 
C 1.830962 -3.152624 0.934557 -3.523928 0 -3.523928 
C -0.934557 -3.523928 -1.830962 -3.152624 -2.491793 -2.491793 
C -3.152624 -1.830962 -3.523928 -0.934557 -3.523928 0 
C -3.523928 0.934557 -3.152624 1.830962 -2.491793 2.491793 
C -1.830962 3.152624 -0.934557 3.523928 0 3.523928 
z
" style="stroke: #ffffff; stroke-width: 0.404009"/>
     </defs>
     <g>
      <use xlink:href="#m71fedc6a9f" x="556.140312" y="152.841563" style="fill: #333333; stroke: #ffffff; stroke-width: 0.404009"/>
     </g>
    </g>
    <g id="text_37">
     <!-- 0.030 -->
     <g transform="translate(574.140312 156.341563) scale(0.1 -0.1)">
      <use xlink:href="#DejaVuSans-30"/>
      <use xlink:href="#DejaVuSans-2e" transform="translate(63.623047 0)"/>
      <use xlink:href="#DejaVuSans-30" transform="translate(95.410156 0)"/>
      <use xlink:href="#DejaVuSans-33" transform="translate(159.033203 0)"/>
      <use xlink:href="#DejaVuSans-30" transform="translate(222.65625 0)"/>
     </g>
    </g>
    <g id="line2d_49">
     <defs>
      <path id="m822c45c716" d="M 0 4.301088 
C 1.140662 4.301088 2.234759 3.847899 3.041329 3.041329 
C 3.847899 2.234759 4.301088 1.140662 4.301088 0 
C 4.301088 -1.140662 3.847899 -2.234759 3.041329 -3.041329 
C 2.234759 -3.847899 1.140662 -4.301088 0 -4.301088 
C -1.140662 -4.301088 -2.234759 -3.847899 -3.041329 -3.041329 
C -3.847899 -2.234759 -4.301088 -1.140662 -4.301088 0 
C -4.301088 1.140662 -3.847899 2.234759 -3.041329 3.041329 
C -2.234759 3.847899 -1.140662 4.301088 0 4.301088 
z
" style="stroke: #ffffff; stroke-width: 0.404009"/>
     </defs>
     <g>
      <use xlink:href="#m822c45c716" x="556.140312" y="167.519687" style="fill: #333333; stroke: #ffffff; stroke-width: 0.404009"/>
     </g>
    </g>
    <g id="text_38">
     <!-- 0.045 -->
     <g transform="translate(574.140312 171.019687) scale(0.1 -0.1)">
      <use xlink:href="#DejaVuSans-30"/>
      <use xlink:href="#DejaVuSans-2e" transform="translate(63.623047 0)"/>
      <use xlink:href="#DejaVuSans-30" transform="translate(95.410156 0)"/>
      <use xlink:href="#DejaVuSans-34" transform="translate(159.033203 0)"/>
      <use xlink:href="#DejaVuSans-35" transform="translate(222.65625 0)"/>
     </g>
    </g>
    <g id="line2d_50">
     <defs>
      <path id="m28d929cd21" d="M 0 4.957888 
C 1.314847 4.957888 2.576019 4.435494 3.505756 3.505756 
C 4.435494 2.576019 4.957888 1.314847 4.957888 0 
C 4.957888 -1.314847 4.435494 -2.576019 3.505756 -3.505756 
C 2.576019 -4.435494 1.314847 -4.957888 0 -4.957888 
C -1.314847 -4.957888 -2.576019 -4.435494 -3.505756 -3.505756 
C -4.435494 -2.576019 -4.957888 -1.314847 -4.957888 0 
C -4.957888 1.314847 -4.435494 2.576019 -3.505756 3.505756 
C -2.576019 4.435494 -1.314847 4.957888 0 4.957888 
z
" style="stroke: #ffffff; stroke-width: 0.404009"/>
     </defs>
     <g>
      <use xlink:href="#m28d929cd21" x="556.140312" y="182.197812" style="fill: #333333; stroke: #ffffff; stroke-width: 0.404009"/>
     </g>
    </g>
    <g id="text_39">
     <!-- 0.060 -->
     <g transform="translate(574.140312 185.697812) scale(0.1 -0.1)">
      <use xlink:href="#DejaVuSans-30"/>
      <use xlink:href="#DejaVuSans-2e" transform="translate(63.623047 0)"/>
      <use xlink:href="#DejaVuSans-30" transform="translate(95.410156 0)"/>
      <use xlink:href="#DejaVuSans-36" transform="translate(159.033203 0)"/>
      <use xlink:href="#DejaVuSans-30" transform="translate(222.65625 0)"/>
     </g>
    </g>
    <g id="line2d_51">
     <defs>
      <path id="mce9c748da2" d="M 0 5.537324 
C 1.468515 5.537324 2.877082 4.953876 3.915479 3.915479 
C 4.953876 2.877082 5.537324 1.468515 5.537324 0 
C 5.537324 -1.468515 4.953876 -2.877082 3.915479 -3.915479 
C 2.877082 -4.953876 1.468515 -5.537324 0 -5.537324 
C -1.468515 -5.537324 -2.877082 -4.953876 -3.915479 -3.915479 
C -4.953876 -2.877082 -5.537324 -1.468515 -5.537324 0 
C -5.537324 1.468515 -4.953876 2.877082 -3.915479 3.915479 
C -2.877082 4.953876 -1.468515 5.537324 0 5.537324 
z
" style="stroke: #ffffff; stroke-width: 0.404009"/>
     </defs>
     <g>
      <use xlink:href="#mce9c748da2" x="556.140312" y="196.875937" style="fill: #333333; stroke: #ffffff; stroke-width: 0.404009"/>
     </g>
    </g>
    <g id="text_40">
     <!-- 0.075 -->
     <g transform="translate(574.140312 200.375937) scale(0.1 -0.1)">
      <defs>
       <path id="DejaVuSans-37" d="M 525 4666 
L 3525 4666 
L 3525 4397 
L 1831 0 
L 1172 0 
L 2766 4134 
L 525 4134 
L 525 4666 
z
" transform="scale(0.015625)"/>
      </defs>
      <use xlink:href="#DejaVuSans-30"/>
      <use xlink:href="#DejaVuSans-2e" transform="translate(63.623047 0)"/>
      <use xlink:href="#DejaVuSans-30" transform="translate(95.410156 0)"/>
      <use xlink:href="#DejaVuSans-37" transform="translate(159.033203 0)"/>
      <use xlink:href="#DejaVuSans-35" transform="translate(222.65625 0)"/>
     </g>
    </g>
    <g id="line2d_52">
     <defs>
      <path id="m97ab7b5a47" d="M 0 6.061621 
C 1.607561 6.061621 3.149496 5.42293 4.286213 4.286213 
C 5.42293 3.149496 6.061621 1.607561 6.061621 0 
C 6.061621 -1.607561 5.42293 -3.149496 4.286213 -4.286213 
C 3.149496 -5.42293 1.607561 -6.061621 0 -6.061621 
C -1.607561 -6.061621 -3.149496 -5.42293 -4.286213 -4.286213 
C -5.42293 -3.149496 -6.061621 -1.607561 -6.061621 0 
C -6.061621 1.607561 -5.42293 3.149496 -4.286213 4.286213 
C -3.149496 5.42293 -1.607561 6.061621 0 6.061621 
z
" style="stroke: #ffffff; stroke-width: 0.404009"/>
     </defs>
     <g>
      <use xlink:href="#m97ab7b5a47" x="556.140312" y="211.554062" style="fill: #333333; stroke: #ffffff; stroke-width: 0.404009"/>
     </g>
    </g>
    <g id="text_41">
     <!-- 0.090 -->
     <g transform="translate(574.140312 215.054062) scale(0.1 -0.1)">
      <defs>
       <path id="DejaVuSans-39" d="M 703 97 
L 703 672 
Q 941 559 1184 500 
Q 1428 441 1663 441 
Q 2288 441 2617 861 
Q 2947 1281 2994 2138 
Q 2813 1869 2534 1725 
Q 2256 1581 1919 1581 
Q 1219 1581 811 2004 
Q 403 2428 403 3163 
Q 403 3881 828 4315 
Q 1253 4750 1959 4750 
Q 2769 4750 3195 4129 
Q 3622 3509 3622 2328 
Q 3622 1225 3098 567 
Q 2575 -91 1691 -91 
Q 1453 -91 1209 -44 
Q 966 3 703 97 
z
M 1959 2075 
Q 2384 2075 2632 2365 
Q 2881 2656 2881 3163 
Q 2881 3666 2632 3958 
Q 2384 4250 1959 4250 
Q 1534 4250 1286 3958 
Q 1038 3666 1038 3163 
Q 1038 2656 1286 2365 
Q 1534 2075 1959 2075 
z
" transform="scale(0.015625)"/>
      </defs>
      <use xlink:href="#DejaVuSans-30"/>
      <use xlink:href="#DejaVuSans-2e" transform="translate(63.623047 0)"/>
      <use xlink:href="#DejaVuSans-30" transform="translate(95.410156 0)"/>
      <use xlink:href="#DejaVuSans-39" transform="translate(159.033203 0)"/>
      <use xlink:href="#DejaVuSans-30" transform="translate(222.65625 0)"/>
     </g>
    </g>
   </g>
  </g>
 </g>
 <defs>
  <clipPath id="pcb3b2a1b50">
   <rect x="180.020312" y="22.318125" width="357.12" height="266.112"/>
  </clipPath>
 </defs>
</svg>
