<?xml version="1.0" encoding="utf-8" standalone="no"?>
<!DOCTYPE svg PUBLIC "-//W3C//DTD SVG 1.1//EN"
  "http://www.w3.org/Graphics/SVG/1.1/DTD/svg11.dtd">
<svg xmlns:xlink="http://www.w3.org/1999/xlink" width="640.579375pt" height="325.986375pt" viewBox="0 0 640.579375 325.986375" xmlns="http://www.w3.org/2000/svg" version="1.1">
 <metadata>
  <rdf:RDF xmlns:dc="http://purl.org/dc/elements/1.1/" xmlns:cc="http://creativecommons.org/ns#" xmlns:rdf="http://www.w3.org/1999/02/22-rdf-syntax-ns#">
   <cc:Work>
    <dc:type rdf:resource="http://purl.org/dc/dcmitype/StillImage"/>
    <dc:date>2025-12-11T11:30:20.982275</dc:date>
    <dc:format>image/svg+xml</dc:format>
    <dc:creator>
     <cc:Agent>
      <dc:title>Matplotlib v3.10.7, https://matplotlib.org/</dc:title>
     </cc:Agent>
    </dc:creator>
   </cc:Work>
  </rdf:RDF>
 </metadata>
 <defs>
  <style type="text/css">*{stroke-linejoin: round; stroke-linecap: butt}</style>
 </defs>
 <g id="figure_1">
  <g id="patch_1">
   <path d="M 0 325.986375 
L 640.579375 325.986375 
L 640.579375 0 
L 0 0 
z
" style="fill: #ffffff"/>
  </g>
  <g id="axes_1">
   <g id="patch_2">
    <path d="M 180.020312 288.430125 
L 537.140312 288.430125 
L 537.140312 22.318125 
L 180.020312 22.318125 
z
" style="fill: #ffffff"/>
   </g>
   <g id="PathCollection_1">
    <path d="M 520.907585 36.904849 
C 521.568133 36.904849 522.201715 36.64241 522.668793 36.175332 
C 523.13587 35.708255 523.398309 35.074673 523.398309 34.414125 
C 523.398309 33.753577 523.13587 33.119995 522.668793 32.652918 
C 522.201715 32.18584 521.568133 31.923401 520.907585 31.923401 
C 520.247038 31.923401 519.613455 32.18584 519.146378 32.652918 
C 518.6793 33.119995 518.416862 33.753577 518.416862 34.414125 
C 518.416862 35.074673 518.6793 35.708255 519.146378 36.175332 
C 519.613455 36.64241 520.247038 36.904849 520.907585 36.904849 
z
" clip-path="url(#p10ef4638e2)" style="fill: #536edd; stroke: #ffffff; stroke-width: 0.427301"/>
    <path d="M 449.957076 50.081226 
C 450.735306 50.081226 451.481767 49.772032 452.032059 49.22174 
C 452.582351 48.671448 452.891545 47.924987 452.891545 47.146757 
C 452.891545 46.368526 452.582351 45.622065 452.032059 45.071773 
C 451.481767 44.521481 450.735306 44.212287 449.957076 44.212287 
C 449.178845 44.212287 448.432384 44.521481 447.882092 45.071773 
C 447.3318 45.622065 447.022606 46.368526 447.022606 47.146757 
C 447.022606 47.924987 447.3318 48.671448 447.882092 49.22174 
C 448.432384 49.772032 449.178845 50.081226 449.957076 50.081226 
z
" clip-path="url(#p10ef4638e2)" style="fill: #6a8bef; stroke: #ffffff; stroke-width: 0.427301"/>
    <path d="M 442.440014 62.115456 
C 443.033026 62.115456 443.60183 61.87985 444.021153 61.460527 
C 444.440476 61.041204 444.676082 60.4724 444.676082 59.879388 
C 444.676082 59.286376 444.440476 58.717572 444.021153 58.298249 
C 443.60183 57.878926 443.033026 57.64332 442.440014 57.64332 
C 441.847002 57.64332 441.278198 57.878926 440.858875 58.298249 
C 440.439552 58.717572 440.203946 59.286376 440.203946 59.879388 
C 440.203946 60.4724 440.439552 61.041204 440.858875 61.460527 
C 441.278198 61.87985 441.847002 62.115456 442.440014 62.115456 
z
" clip-path="url(#p10ef4638e2)" style="fill: #3b4cc0; stroke: #ffffff; stroke-width: 0.427301"/>
    <path d="M 434.381183 75.826158 
C 435.233582 75.826158 436.051184 75.487497 436.653922 74.884759 
C 437.256659 74.282022 437.595321 73.464419 437.595321 72.61202 
C 437.595321 71.75962 437.256659 70.942018 436.653922 70.33928 
C 436.051184 69.736543 435.233582 69.397881 434.381183 69.397881 
C 433.528783 69.397881 432.711181 69.736543 432.108443 70.33928 
C 431.505706 70.942018 431.167044 71.75962 431.167044 72.61202 
C 431.167044 73.464419 431.505706 74.282022 432.108443 74.884759 
C 432.711181 75.487497 433.528783 75.826158 434.381183 75.826158 
z
" clip-path="url(#p10ef4638e2)" style="fill: #7ea1fa; stroke: #ffffff; stroke-width: 0.427301"/>
    <path d="M 430.512943 88.03453 
C 431.226308 88.03453 431.91055 87.751108 432.414975 87.246683 
C 432.9194 86.742258 433.202822 86.058016 433.202822 85.344651 
C 433.202822 84.631287 432.9194 83.947044 432.414975 83.44262 
C 431.91055 82.938195 431.226308 82.654772 430.512943 82.654772 
C 429.799579 82.654772 429.115336 82.938195 428.610912 83.44262 
C 428.106487 83.947044 427.823064 84.631287 427.823064 85.344651 
C 427.823064 86.058016 428.106487 86.742258 428.610912 87.246683 
C 429.115336 87.751108 429.799579 88.03453 430.512943 88.03453 
z
" clip-path="url(#p10ef4638e2)" style="fill: #5470de; stroke: #ffffff; stroke-width: 0.427301"/>
    <path d="M 404.448379 102.183994 
C 405.537492 102.183994 406.582144 101.751285 407.352263 100.981166 
C 408.122382 100.211048 408.555091 99.166396 408.555091 98.077283 
C 408.555091 96.98817 408.122382 95.943518 407.352263 95.173399 
C 406.582144 94.40328 405.537492 93.970571 404.448379 93.970571 
C 403.359267 93.970571 402.314615 94.40328 401.544496 95.173399 
C 400.774377 95.943518 400.341668 96.98817 400.341668 98.077283 
C 400.341668 99.166396 400.774377 100.211048 401.544496 100.981166 
C 402.314615 101.751285 403.359267 102.183994 404.448379 102.183994 
z
" clip-path="url(#p10ef4638e2)" style="fill: #ccd9ed; stroke: #ffffff; stroke-width: 0.427301"/>
    <path d="M 386.028193 113.562979 
C 386.758314 113.562979 387.45863 113.272899 387.974903 112.756625 
C 388.491177 112.240351 388.781257 111.540036 388.781257 110.809914 
C 388.781257 110.079793 388.491177 109.379477 387.974903 108.863204 
C 387.45863 108.34693 386.758314 108.05685 386.028193 108.05685 
C 385.298071 108.05685 384.597756 108.34693 384.081482 108.863204 
C 383.565208 109.379477 383.275128 110.079793 383.275128 110.809914 
C 383.275128 111.540036 383.565208 112.240351 384.081482 112.756625 
C 384.597756 113.272899 385.298071 113.562979 386.028193 113.562979 
z
" clip-path="url(#p10ef4638e2)" style="fill: #516ddb; stroke: #ffffff; stroke-width: 0.427301"/>
    <path d="M 360.056058 129.349174 
C 361.595994 129.349174 363.073065 128.737351 364.161964 127.648452 
C 365.250863 126.559553 365.862686 125.082482 365.862686 123.542546 
C 365.862686 122.00261 365.250863 120.525539 364.161964 119.43664 
C 363.073065 118.347741 361.595994 117.735918 360.056058 117.735918 
C 358.516122 117.735918 357.039051 118.347741 355.950152 119.43664 
C 354.861253 120.525539 354.24943 122.00261 354.24943 123.542546 
C 354.24943 125.082482 354.861253 126.559553 355.950152 127.648452 
C 357.039051 128.737351 358.516122 129.349174 360.056058 129.349174 
z
" clip-path="url(#p10ef4638e2)" style="fill: #b40426; stroke: #ffffff; stroke-width: 0.427301"/>
    <path d="M 297.254466 139.620395 
C 298.141628 139.620395 298.992574 139.267921 299.619892 138.640603 
C 300.24721 138.013285 300.599683 137.16234 300.599683 136.275178 
C 300.599683 135.388016 300.24721 134.53707 299.619892 133.909752 
C 298.992574 133.282434 298.141628 132.929961 297.254466 132.929961 
C 296.367304 132.929961 295.516359 133.282434 294.889041 133.909752 
C 294.261723 134.53707 293.909249 135.388016 293.909249 136.275178 
C 293.909249 137.16234 294.261723 138.013285 294.889041 138.640603 
C 295.516359 139.267921 296.367304 139.620395 297.254466 139.620395 
z
" clip-path="url(#p10ef4638e2)" style="fill: #6485ec; stroke: #ffffff; stroke-width: 0.427301"/>
    <path d="M 295.878551 151.697688 
C 296.591915 151.697688 297.276158 151.414266 297.780583 150.909841 
C 298.285007 150.405416 298.56843 149.721173 298.56843 149.007809 
C 298.56843 148.294445 298.285007 147.610202 297.780583 147.105777 
C 297.276158 146.601353 296.591915 146.31793 295.878551 146.31793 
C 295.165187 146.31793 294.480944 146.601353 293.976519 147.105777 
C 293.472094 147.610202 293.188672 148.294445 293.188672 149.007809 
C 293.188672 149.721173 293.472094 150.405416 293.976519 150.909841 
C 294.480944 151.414266 295.165187 151.697688 295.878551 151.697688 
z
" clip-path="url(#p10ef4638e2)" style="fill: #3e51c5; stroke: #ffffff; stroke-width: 0.427301"/>
    <path d="M 272.155931 166.488038 
C 273.415009 166.488038 274.622687 165.987802 275.512989 165.097499 
C 276.403292 164.207197 276.903528 162.999518 276.903528 161.740441 
C 276.903528 160.481363 276.403292 159.273685 275.512989 158.383382 
C 274.622687 157.49308 273.415009 156.992843 272.155931 156.992843 
C 270.896853 156.992843 269.689175 157.49308 268.798872 158.383382 
C 267.90857 159.273685 267.408333 160.481363 267.408333 161.740441 
C 267.408333 162.999518 267.90857 164.207197 268.798872 165.097499 
C 269.689175 165.987802 270.896853 166.488038 272.155931 166.488038 
z
" clip-path="url(#p10ef4638e2)" style="fill: #cad8ef; stroke: #ffffff; stroke-width: 0.427301"/>
    <path d="M 256.619708 177.287905 
C 257.36621 177.287905 258.082238 176.991316 258.610095 176.463459 
C 259.137952 175.935603 259.43454 175.219575 259.43454 174.473072 
C 259.43454 173.72657 259.137952 173.010542 258.610095 172.482685 
C 258.082238 171.954829 257.36621 171.65824 256.619708 171.65824 
C 255.873206 171.65824 255.157178 171.954829 254.629321 172.482685 
C 254.101464 173.010542 253.804876 173.72657 253.804876 174.473072 
C 253.804876 175.219575 254.101464 175.935603 254.629321 176.463459 
C 255.157178 176.991316 255.873206 177.287905 256.619708 177.287905 
z
" clip-path="url(#p10ef4638e2)" style="fill: #3d50c3; stroke: #ffffff; stroke-width: 0.427301"/>
    <path d="M 254.699085 190.446482 
C 255.558549 190.446482 256.382928 190.105014 256.990661 189.49728 
C 257.598394 188.889547 257.939863 188.065168 257.939863 187.205704 
C 257.939863 186.346239 257.598394 185.521861 256.990661 184.914127 
C 256.382928 184.306394 255.558549 183.964925 254.699085 183.964925 
C 253.83962 183.964925 253.015241 184.306394 252.407508 184.914127 
C 251.799775 185.521861 251.458306 186.346239 251.458306 187.205704 
C 251.458306 188.065168 251.799775 188.889547 252.407508 189.49728 
C 253.015241 190.105014 253.83962 190.446482 254.699085 190.446482 
z
" clip-path="url(#p10ef4638e2)" style="fill: #536edd; stroke: #ffffff; stroke-width: 0.427301"/>
    <path d="M 236.138439 204.249328 
C 237.281728 204.249328 238.378344 203.795095 239.186771 202.986668 
C 239.995198 202.17824 240.449432 201.081624 240.449432 199.938336 
C 240.449432 198.795047 239.995198 197.698431 239.186771 196.890004 
C 238.378344 196.081576 237.281728 195.627343 236.138439 195.627343 
C 234.995151 195.627343 233.898534 196.081576 233.090107 196.890004 
C 232.28168 197.698431 231.827447 198.795047 231.827447 199.938336 
C 231.827447 201.081624 232.28168 202.17824 233.090107 202.986668 
C 233.898534 203.795095 234.995151 204.249328 236.138439 204.249328 
z
" clip-path="url(#p10ef4638e2)" style="fill: #93b5fe; stroke: #ffffff; stroke-width: 0.427301"/>
    <path d="M 227.75274 215.938168 
C 228.619211 215.938168 229.450312 215.593915 230.063 214.981227 
C 230.675688 214.368539 231.019941 213.537439 231.019941 212.670967 
C 231.019941 211.804495 230.675688 210.973395 230.063 210.360707 
C 229.450312 209.748019 228.619211 209.403766 227.75274 209.403766 
C 226.886268 209.403766 226.055168 209.748019 225.44248 210.360707 
C 224.829791 210.973395 224.485538 211.804495 224.485538 212.670967 
C 224.485538 213.537439 224.829791 214.368539 225.44248 214.981227 
C 226.055168 215.593915 226.886268 215.938168 227.75274 215.938168 
z
" clip-path="url(#p10ef4638e2)" style="fill: #4e68d8; stroke: #ffffff; stroke-width: 0.427301"/>
    <path d="M 223.606419 228.899628 
C 224.533577 228.899628 225.422885 228.531264 226.078485 227.875665 
C 226.734085 227.220065 227.102448 226.330757 227.102448 225.403599 
C 227.102448 224.476441 226.734085 223.587132 226.078485 222.931533 
C 225.422885 222.275933 224.533577 221.907569 223.606419 221.907569 
C 222.679261 221.907569 221.789952 222.275933 221.134353 222.931533 
C 220.478753 223.587132 220.110389 224.476441 220.110389 225.403599 
C 220.110389 226.330757 220.478753 227.220065 221.134353 227.875665 
C 221.789952 228.531264 222.679261 228.899628 223.606419 228.899628 
z
" clip-path="url(#p10ef4638e2)" style="fill: #5875e1; stroke: #ffffff; stroke-width: 0.427301"/>
    <path d="M 219.102856 244.259955 
C 220.726887 244.259955 222.28462 243.61472 223.432983 242.466357 
C 224.581346 241.317994 225.22658 239.760261 225.22658 238.13623 
C 225.22658 236.5122 224.581346 234.954466 223.432983 233.806103 
C 222.28462 232.65774 220.726887 232.012506 219.102856 232.012506 
C 217.478825 232.012506 215.921092 232.65774 214.772729 233.806103 
C 213.624366 234.954466 212.979132 236.5122 212.979132 238.13623 
C 212.979132 239.760261 213.624366 241.317994 214.772729 242.466357 
C 215.921092 243.61472 217.478825 244.259955 219.102856 244.259955 
z
" clip-path="url(#p10ef4638e2)" style="fill: #f7a889; stroke: #ffffff; stroke-width: 0.427301"/>
    <path d="M 210.524748 254.340211 
C 211.445361 254.340211 212.328392 253.974448 212.979363 253.323476 
C 213.630334 252.672505 213.996098 251.789474 213.996098 250.868862 
C 213.996098 249.948249 213.630334 249.065219 212.979363 248.414247 
C 212.328392 247.763276 211.445361 247.397513 210.524748 247.397513 
C 209.604136 247.397513 208.721105 247.763276 208.070134 248.414247 
C 207.419163 249.065219 207.053399 249.948249 207.053399 250.868862 
C 207.053399 251.789474 207.419163 252.672505 208.070134 253.323476 
C 208.721105 253.974448 209.604136 254.340211 210.524748 254.340211 
z
" clip-path="url(#p10ef4638e2)" style="fill: #536edd; stroke: #ffffff; stroke-width: 0.427301"/>
    <path d="M 199.388361 268.420986 
C 200.666506 268.420986 201.892473 267.913174 202.796257 267.00939 
C 203.700042 266.105605 204.207854 264.879638 204.207854 263.601493 
C 204.207854 262.323349 203.700042 261.097382 202.796257 260.193597 
C 201.892473 259.289813 200.666506 258.782 199.388361 258.782 
C 198.110217 258.782 196.88425 259.289813 195.980465 260.193597 
C 195.07668 261.097382 194.568868 262.323349 194.568868 263.601493 
C 194.568868 264.879638 195.07668 266.105605 195.980465 267.00939 
C 196.88425 267.913174 198.110217 268.420986 199.388361 268.420986 
z
" clip-path="url(#p10ef4638e2)" style="fill: #a5c3fe; stroke: #ffffff; stroke-width: 0.427301"/>
    <path d="M 196.25304 279.494311 
C 197.091131 279.494311 197.895009 279.161333 198.487628 278.568714 
C 199.080248 277.976094 199.413225 277.172216 199.413225 276.334125 
C 199.413225 275.496034 199.080248 274.692156 198.487628 274.099536 
C 197.895009 273.506917 197.091131 273.173939 196.25304 273.173939 
C 195.414949 273.173939 194.611071 273.506917 194.018451 274.099536 
C 193.425831 274.692156 193.092854 275.496034 193.092854 276.334125 
C 193.092854 277.172216 193.425831 277.976094 194.018451 278.568714 
C 194.611071 279.161333 195.414949 279.494311 196.25304 279.494311 
z
" clip-path="url(#p10ef4638e2)" style="fill: #4257c9; stroke: #ffffff; stroke-width: 0.427301"/>
   </g>
   <g id="matplotlib.axis_1">
    <g id="xtick_1">
     <g id="line2d_1">
      <defs>
       <path id="m929f28890e" d="M 0 0 
L 0 3.5 
" style="stroke: #000000; stroke-width: 0.8"/>
      </defs>
      <g>
       <use xlink:href="#m929f28890e" x="225.684207" y="288.430125" style="stroke: #000000; stroke-width: 0.8"/>
      </g>
     </g>
     <g id="text_1">
      <!-- 2.2 -->
      <g transform="translate(217.732645 303.028562) scale(0.1 -0.1)">
       <defs>
        <path id="DejaVuSans-32" d="M 1228 531 
L 3431 531 
L 3431 0 
L 469 0 
L 469 531 
Q 828 903 1448 1529 
Q 2069 2156 2228 2338 
Q 2531 2678 2651 2914 
Q 2772 3150 2772 3378 
Q 2772 3750 2511 3984 
Q 2250 4219 1831 4219 
Q 1534 4219 1204 4116 
Q 875 4013 500 3803 
L 500 4441 
Q 881 4594 1212 4672 
Q 1544 4750 1819 4750 
Q 2544 4750 2975 4387 
Q 3406 4025 3406 3419 
Q 3406 3131 3298 2873 
Q 3191 2616 2906 2266 
Q 2828 2175 2409 1742 
Q 1991 1309 1228 531 
z
" transform="scale(0.015625)"/>
        <path id="DejaVuSans-2e" d="M 684 794 
L 1344 794 
L 1344 0 
L 684 0 
L 684 794 
z
" transform="scale(0.015625)"/>
       </defs>
       <use xlink:href="#DejaVuSans-32"/>
       <use xlink:href="#DejaVuSans-2e" transform="translate(63.623047 0)"/>
       <use xlink:href="#DejaVuSans-32" transform="translate(95.410156 0)"/>
      </g>
     </g>
    </g>
    <g id="xtick_2">
     <g id="line2d_2">
      <g>
       <use xlink:href="#m929f28890e" x="287.300071" y="288.430125" style="stroke: #000000; stroke-width: 0.8"/>
      </g>
     </g>
     <g id="text_2">
      <!-- 2.4 -->
      <g transform="translate(279.348508 303.028562) scale(0.1 -0.1)">
       <defs>
        <path id="DejaVuSans-34" d="M 2419 4116 
L 825 1625 
L 2419 1625 
L 2419 4116 
z
M 2253 4666 
L 3047 4666 
L 3047 1625 
L 3713 1625 
L 3713 1100 
L 3047 1100 
L 3047 0 
L 2419 0 
L 2419 1100 
L 313 1100 
L 313 1709 
L 2253 4666 
z
" transform="scale(0.015625)"/>
       </defs>
       <use xlink:href="#DejaVuSans-32"/>
       <use xlink:href="#DejaVuSans-2e" transform="translate(63.623047 0)"/>
       <use xlink:href="#DejaVuSans-34" transform="translate(95.410156 0)"/>
      </g>
     </g>
    </g>
    <g id="xtick_3">
     <g id="line2d_3">
      <g>
       <use xlink:href="#m929f28890e" x="348.915935" y="288.430125" style="stroke: #000000; stroke-width: 0.8"/>
      </g>
     </g>
     <g id="text_3">
      <!-- 2.6 -->
      <g transform="translate(340.964372 303.028562) scale(0.1 -0.1)">
       <defs>
        <path id="DejaVuSans-36" d="M 2113 2584 
Q 1688 2584 1439 2293 
Q 1191 2003 1191 1497 
Q 1191 994 1439 701 
Q 1688 409 2113 409 
Q 2538 409 2786 701 
Q 3034 994 3034 1497 
Q 3034 2003 2786 2293 
Q 2538 2584 2113 2584 
z
M 3366 4563 
L 3366 3988 
Q 3128 4100 2886 4159 
Q 2644 4219 2406 4219 
Q 1781 4219 1451 3797 
Q 1122 3375 1075 2522 
Q 1259 2794 1537 2939 
Q 1816 3084 2150 3084 
Q 2853 3084 3261 2657 
Q 3669 2231 3669 1497 
Q 3669 778 3244 343 
Q 2819 -91 2113 -91 
Q 1303 -91 875 529 
Q 447 1150 447 2328 
Q 447 3434 972 4092 
Q 1497 4750 2381 4750 
Q 2619 4750 2861 4703 
Q 3103 4656 3366 4563 
z
" transform="scale(0.015625)"/>
       </defs>
       <use xlink:href="#DejaVuSans-32"/>
       <use xlink:href="#DejaVuSans-2e" transform="translate(63.623047 0)"/>
       <use xlink:href="#DejaVuSans-36" transform="translate(95.410156 0)"/>
      </g>
     </g>
    </g>
    <g id="xtick_4">
     <g id="line2d_4">
      <g>
       <use xlink:href="#m929f28890e" x="410.531799" y="288.430125" style="stroke: #000000; stroke-width: 0.8"/>
      </g>
     </g>
     <g id="text_4">
      <!-- 2.8 -->
      <g transform="translate(402.580236 303.028562) scale(0.1 -0.1)">
       <defs>
        <path id="DejaVuSans-38" d="M 2034 2216 
Q 1584 2216 1326 1975 
Q 1069 1734 1069 1313 
Q 1069 891 1326 650 
Q 1584 409 2034 409 
Q 2484 409 2743 651 
Q 3003 894 3003 1313 
Q 3003 1734 2745 1975 
Q 2488 2216 2034 2216 
z
M 1403 2484 
Q 997 2584 770 2862 
Q 544 3141 544 3541 
Q 544 4100 942 4425 
Q 1341 4750 2034 4750 
Q 2731 4750 3128 4425 
Q 3525 4100 3525 3541 
Q 3525 3141 3298 2862 
Q 3072 2584 2669 2484 
Q 3125 2378 3379 2068 
Q 3634 1759 3634 1313 
Q 3634 634 3220 271 
Q 2806 -91 2034 -91 
Q 1263 -91 848 271 
Q 434 634 434 1313 
Q 434 1759 690 2068 
Q 947 2378 1403 2484 
z
M 1172 3481 
Q 1172 3119 1398 2916 
Q 1625 2713 2034 2713 
Q 2441 2713 2670 2916 
Q 2900 3119 2900 3481 
Q 2900 3844 2670 4047 
Q 2441 4250 2034 4250 
Q 1625 4250 1398 4047 
Q 1172 3844 1172 3481 
z
" transform="scale(0.015625)"/>
       </defs>
       <use xlink:href="#DejaVuSans-32"/>
       <use xlink:href="#DejaVuSans-2e" transform="translate(63.623047 0)"/>
       <use xlink:href="#DejaVuSans-38" transform="translate(95.410156 0)"/>
      </g>
     </g>
    </g>
    <g id="xtick_5">
     <g id="line2d_5">
      <g>
       <use xlink:href="#m929f28890e" x="472.147663" y="288.430125" style="stroke: #000000; stroke-width: 0.8"/>
      </g>
     </g>
     <g id="text_5">
      <!-- 3.0 -->
      <g transform="translate(464.1961 303.028562) scale(0.1 -0.1)">
       <defs>
        <path id="DejaVuSans-33" d="M 2597 2516 
Q 3050 2419 3304 2112 
Q 3559 1806 3559 1356 
Q 3559 666 3084 287 
Q 2609 -91 1734 -91 
Q 1441 -91 1130 -33 
Q 819 25 488 141 
L 488 750 
Q 750 597 1062 519 
Q 1375 441 1716 441 
Q 2309 441 2620 675 
Q 2931 909 2931 1356 
Q 2931 1769 2642 2001 
Q 2353 2234 1838 2234 
L 1294 2234 
L 1294 2753 
L 1863 2753 
Q 2328 2753 2575 2939 
Q 2822 3125 2822 3475 
Q 2822 3834 2567 4026 
Q 2313 4219 1838 4219 
Q 1578 4219 1281 4162 
Q 984 4106 628 3988 
L 628 4550 
Q 988 4650 1302 4700 
Q 1616 4750 1894 4750 
Q 2613 4750 3031 4423 
Q 3450 4097 3450 3541 
Q 3450 3153 3228 2886 
Q 3006 2619 2597 2516 
z
" transform="scale(0.015625)"/>
        <path id="DejaVuSans-30" d="M 2034 4250 
Q 1547 4250 1301 3770 
Q 1056 3291 1056 2328 
Q 1056 1369 1301 889 
Q 1547 409 2034 409 
Q 2525 409 2770 889 
Q 3016 1369 3016 2328 
Q 3016 3291 2770 3770 
Q 2525 4250 2034 4250 
z
M 2034 4750 
Q 2819 4750 3233 4129 
Q 3647 3509 3647 2328 
Q 3647 1150 3233 529 
Q 2819 -91 2034 -91 
Q 1250 -91 836 529 
Q 422 1150 422 2328 
Q 422 3509 836 4129 
Q 1250 4750 2034 4750 
z
" transform="scale(0.015625)"/>
       </defs>
       <use xlink:href="#DejaVuSans-33"/>
       <use xlink:href="#DejaVuSans-2e" transform="translate(63.623047 0)"/>
       <use xlink:href="#DejaVuSans-30" transform="translate(95.410156 0)"/>
      </g>
     </g>
    </g>
    <g id="xtick_6">
     <g id="line2d_6">
      <g>
       <use xlink:href="#m929f28890e" x="533.763527" y="288.430125" style="stroke: #000000; stroke-width: 0.8"/>
      </g>
     </g>
     <g id="text_6">
      <!-- 3.2 -->
      <g transform="translate(525.811964 303.028562) scale(0.1 -0.1)">
       <use xlink:href="#DejaVuSans-33"/>
       <use xlink:href="#DejaVuSans-2e" transform="translate(63.623047 0)"/>
       <use xlink:href="#DejaVuSans-32" transform="translate(95.410156 0)"/>
      </g>
     </g>
    </g>
    <g id="text_7">
     <!-- Fold Enrichment -->
     <g transform="translate(317.907656 316.706687) scale(0.1 -0.1)">
      <defs>
       <path id="DejaVuSans-46" d="M 628 4666 
L 3309 4666 
L 3309 4134 
L 1259 4134 
L 1259 2759 
L 3109 2759 
L 3109 2228 
L 1259 2228 
L 1259 0 
L 628 0 
L 628 4666 
z
" transform="scale(0.015625)"/>
       <path id="DejaVuSans-6f" d="M 1959 3097 
Q 1497 3097 1228 2736 
Q 959 2375 959 1747 
Q 959 1119 1226 758 
Q 1494 397 1959 397 
Q 2419 397 2687 759 
Q 2956 1122 2956 1747 
Q 2956 2369 2687 2733 
Q 2419 3097 1959 3097 
z
M 1959 3584 
Q 2709 3584 3137 3096 
Q 3566 2609 3566 1747 
Q 3566 888 3137 398 
Q 2709 -91 1959 -91 
Q 1206 -91 779 398 
Q 353 888 353 1747 
Q 353 2609 779 3096 
Q 1206 3584 1959 3584 
z
" transform="scale(0.015625)"/>
       <path id="DejaVuSans-6c" d="M 603 4863 
L 1178 4863 
L 1178 0 
L 603 0 
L 603 4863 
z
" transform="scale(0.015625)"/>
       <path id="DejaVuSans-64" d="M 2906 2969 
L 2906 4863 
L 3481 4863 
L 3481 0 
L 2906 0 
L 2906 525 
Q 2725 213 2448 61 
Q 2172 -91 1784 -91 
Q 1150 -91 751 415 
Q 353 922 353 1747 
Q 353 2572 751 3078 
Q 1150 3584 1784 3584 
Q 2172 3584 2448 3432 
Q 2725 3281 2906 2969 
z
M 947 1747 
Q 947 1113 1208 752 
Q 1469 391 1925 391 
Q 2381 391 2643 752 
Q 2906 1113 2906 1747 
Q 2906 2381 2643 2742 
Q 2381 3103 1925 3103 
Q 1469 3103 1208 2742 
Q 947 2381 947 1747 
z
" transform="scale(0.015625)"/>
       <path id="DejaVuSans-20" transform="scale(0.015625)"/>
       <path id="DejaVuSans-45" d="M 628 4666 
L 3578 4666 
L 3578 4134 
L 1259 4134 
L 1259 2753 
L 3481 2753 
L 3481 2222 
L 1259 2222 
L 1259 531 
L 3634 531 
L 3634 0 
L 628 0 
L 628 4666 
z
" transform="scale(0.015625)"/>
       <path id="DejaVuSans-6e" d="M 3513 2113 
L 3513 0 
L 2938 0 
L 2938 2094 
Q 2938 2591 2744 2837 
Q 2550 3084 2163 3084 
Q 1697 3084 1428 2787 
Q 1159 2491 1159 1978 
L 1159 0 
L 581 0 
L 581 3500 
L 1159 3500 
L 1159 2956 
Q 1366 3272 1645 3428 
Q 1925 3584 2291 3584 
Q 2894 3584 3203 3211 
Q 3513 2838 3513 2113 
z
" transform="scale(0.015625)"/>
       <path id="DejaVuSans-72" d="M 2631 2963 
Q 2534 3019 2420 3045 
Q 2306 3072 2169 3072 
Q 1681 3072 1420 2755 
Q 1159 2438 1159 1844 
L 1159 0 
L 581 0 
L 581 3500 
L 1159 3500 
L 1159 2956 
Q 1341 3275 1631 3429 
Q 1922 3584 2338 3584 
Q 2397 3584 2469 3576 
Q 2541 3569 2628 3553 
L 2631 2963 
z
" transform="scale(0.015625)"/>
       <path id="DejaVuSans-69" d="M 603 3500 
L 1178 3500 
L 1178 0 
L 603 0 
L 603 3500 
z
M 603 4863 
L 1178 4863 
L 1178 4134 
L 603 4134 
L 603 4863 
z
" transform="scale(0.015625)"/>
       <path id="DejaVuSans-63" d="M 3122 3366 
L 3122 2828 
Q 2878 2963 2633 3030 
Q 2388 3097 2138 3097 
Q 1578 3097 1268 2742 
Q 959 2388 959 1747 
Q 959 1106 1268 751 
Q 1578 397 2138 397 
Q 2388 397 2633 464 
Q 2878 531 3122 666 
L 3122 134 
Q 2881 22 2623 -34 
Q 2366 -91 2075 -91 
Q 1284 -91 818 406 
Q 353 903 353 1747 
Q 353 2603 823 3093 
Q 1294 3584 2113 3584 
Q 2378 3584 2631 3529 
Q 2884 3475 3122 3366 
z
" transform="scale(0.015625)"/>
       <path id="DejaVuSans-68" d="M 3513 2113 
L 3513 0 
L 2938 0 
L 2938 2094 
Q 2938 2591 2744 2837 
Q 2550 3084 2163 3084 
Q 1697 3084 1428 2787 
Q 1159 2491 1159 1978 
L 1159 0 
L 581 0 
L 581 4863 
L 1159 4863 
L 1159 2956 
Q 1366 3272 1645 3428 
Q 1925 3584 2291 3584 
Q 2894 3584 3203 3211 
Q 3513 2838 3513 2113 
z
" transform="scale(0.015625)"/>
       <path id="DejaVuSans-6d" d="M 3328 2828 
Q 3544 3216 3844 3400 
Q 4144 3584 4550 3584 
Q 5097 3584 5394 3201 
Q 5691 2819 5691 2113 
L 5691 0 
L 5113 0 
L 5113 2094 
Q 5113 2597 4934 2840 
Q 4756 3084 4391 3084 
Q 3944 3084 3684 2787 
Q 3425 2491 3425 1978 
L 3425 0 
L 2847 0 
L 2847 2094 
Q 2847 2600 2669 2842 
Q 2491 3084 2119 3084 
Q 1678 3084 1418 2786 
Q 1159 2488 1159 1978 
L 1159 0 
L 581 0 
L 581 3500 
L 1159 3500 
L 1159 2956 
Q 1356 3278 1631 3431 
Q 1906 3584 2284 3584 
Q 2666 3584 2933 3390 
Q 3200 3197 3328 2828 
z
" transform="scale(0.015625)"/>
       <path id="DejaVuSans-65" d="M 3597 1894 
L 3597 1613 
L 953 1613 
Q 991 1019 1311 708 
Q 1631 397 2203 397 
Q 2534 397 2845 478 
Q 3156 559 3463 722 
L 3463 178 
Q 3153 47 2828 -22 
Q 2503 -91 2169 -91 
Q 1331 -91 842 396 
Q 353 884 353 1716 
Q 353 2575 817 3079 
Q 1281 3584 2069 3584 
Q 2775 3584 3186 3129 
Q 3597 2675 3597 1894 
z
M 3022 2063 
Q 3016 2534 2758 2815 
Q 2500 3097 2075 3097 
Q 1594 3097 1305 2825 
Q 1016 2553 972 2059 
L 3022 2063 
z
" transform="scale(0.015625)"/>
       <path id="DejaVuSans-74" d="M 1172 4494 
L 1172 3500 
L 2356 3500 
L 2356 3053 
L 1172 3053 
L 1172 1153 
Q 1172 725 1289 603 
Q 1406 481 1766 481 
L 2356 481 
L 2356 0 
L 1766 0 
Q 1100 0 847 248 
Q 594 497 594 1153 
L 594 3053 
L 172 3053 
L 172 3500 
L 594 3500 
L 594 4494 
L 1172 4494 
z
" transform="scale(0.015625)"/>
      </defs>
      <use xlink:href="#DejaVuSans-46"/>
      <use xlink:href="#DejaVuSans-6f" transform="translate(53.894531 0)"/>
      <use xlink:href="#DejaVuSans-6c" transform="translate(115.076172 0)"/>
      <use xlink:href="#DejaVuSans-64" transform="translate(142.859375 0)"/>
      <use xlink:href="#DejaVuSans-20" transform="translate(206.335938 0)"/>
      <use xlink:href="#DejaVuSans-45" transform="translate(238.123047 0)"/>
      <use xlink:href="#DejaVuSans-6e" transform="translate(301.306641 0)"/>
      <use xlink:href="#DejaVuSans-72" transform="translate(364.685547 0)"/>
      <use xlink:href="#DejaVuSans-69" transform="translate(405.798828 0)"/>
      <use xlink:href="#DejaVuSans-63" transform="translate(433.582031 0)"/>
      <use xlink:href="#DejaVuSans-68" transform="translate(488.5625 0)"/>
      <use xlink:href="#DejaVuSans-6d" transform="translate(551.941406 0)"/>
      <use xlink:href="#DejaVuSans-65" transform="translate(649.353516 0)"/>
      <use xlink:href="#DejaVuSans-6e" transform="translate(710.876953 0)"/>
      <use xlink:href="#DejaVuSans-74" transform="translate(774.255859 0)"/>
     </g>
    </g>
   </g>
   <g id="matplotlib.axis_2">
    <g id="ytick_1">
     <g id="line2d_7">
      <defs>
       <path id="m964bb9fa85" d="M 0 0 
L -3.5 0 
" style="stroke: #000000; stroke-width: 0.8"/>
      </defs>
      <g>
       <use xlink:href="#m964bb9fa85" x="180.020312" y="34.414125" style="stroke: #000000; stroke-width: 0.8"/>
      </g>
     </g>
     <g id="text_8">
      <!-- clathrin-coated vesicle -->
      <g transform="translate(59.689062 38.213344) scale(0.1 -0.1)">
       <defs>
        <path id="DejaVuSans-61" d="M 2194 1759 
Q 1497 1759 1228 1600 
Q 959 1441 959 1056 
Q 959 750 1161 570 
Q 1363 391 1709 391 
Q 2188 391 2477 730 
Q 2766 1069 2766 1631 
L 2766 1759 
L 2194 1759 
z
M 3341 1997 
L 3341 0 
L 2766 0 
L 2766 531 
Q 2569 213 2275 61 
Q 1981 -91 1556 -91 
Q 1019 -91 701 211 
Q 384 513 384 1019 
Q 384 1609 779 1909 
Q 1175 2209 1959 2209 
L 2766 2209 
L 2766 2266 
Q 2766 2663 2505 2880 
Q 2244 3097 1772 3097 
Q 1472 3097 1187 3025 
Q 903 2953 641 2809 
L 641 3341 
Q 956 3463 1253 3523 
Q 1550 3584 1831 3584 
Q 2591 3584 2966 3190 
Q 3341 2797 3341 1997 
z
" transform="scale(0.015625)"/>
        <path id="DejaVuSans-2d" d="M 313 2009 
L 1997 2009 
L 1997 1497 
L 313 1497 
L 313 2009 
z
" transform="scale(0.015625)"/>
        <path id="DejaVuSans-76" d="M 191 3500 
L 800 3500 
L 1894 563 
L 2988 3500 
L 3597 3500 
L 2284 0 
L 1503 0 
L 191 3500 
z
" transform="scale(0.015625)"/>
        <path id="DejaVuSans-73" d="M 2834 3397 
L 2834 2853 
Q 2591 2978 2328 3040 
Q 2066 3103 1784 3103 
Q 1356 3103 1142 2972 
Q 928 2841 928 2578 
Q 928 2378 1081 2264 
Q 1234 2150 1697 2047 
L 1894 2003 
Q 2506 1872 2764 1633 
Q 3022 1394 3022 966 
Q 3022 478 2636 193 
Q 2250 -91 1575 -91 
Q 1294 -91 989 -36 
Q 684 19 347 128 
L 347 722 
Q 666 556 975 473 
Q 1284 391 1588 391 
Q 1994 391 2212 530 
Q 2431 669 2431 922 
Q 2431 1156 2273 1281 
Q 2116 1406 1581 1522 
L 1381 1569 
Q 847 1681 609 1914 
Q 372 2147 372 2553 
Q 372 3047 722 3315 
Q 1072 3584 1716 3584 
Q 2034 3584 2315 3537 
Q 2597 3491 2834 3397 
z
" transform="scale(0.015625)"/>
       </defs>
       <use xlink:href="#DejaVuSans-63"/>
       <use xlink:href="#DejaVuSans-6c" transform="translate(54.980469 0)"/>
       <use xlink:href="#DejaVuSans-61" transform="translate(82.763672 0)"/>
       <use xlink:href="#DejaVuSans-74" transform="translate(144.042969 0)"/>
       <use xlink:href="#DejaVuSans-68" transform="translate(183.251953 0)"/>
       <use xlink:href="#DejaVuSans-72" transform="translate(246.630859 0)"/>
       <use xlink:href="#DejaVuSans-69" transform="translate(287.744141 0)"/>
       <use xlink:href="#DejaVuSans-6e" transform="translate(315.527344 0)"/>
       <use xlink:href="#DejaVuSans-2d" transform="translate(378.90625 0)"/>
       <use xlink:href="#DejaVuSans-63" transform="translate(414.990234 0)"/>
       <use xlink:href="#DejaVuSans-6f" transform="translate(469.970703 0)"/>
       <use xlink:href="#DejaVuSans-61" transform="translate(531.152344 0)"/>
       <use xlink:href="#DejaVuSans-74" transform="translate(592.431641 0)"/>
       <use xlink:href="#DejaVuSans-65" transform="translate(631.640625 0)"/>
       <use xlink:href="#DejaVuSans-64" transform="translate(693.164062 0)"/>
       <use xlink:href="#DejaVuSans-20" transform="translate(756.640625 0)"/>
       <use xlink:href="#DejaVuSans-76" transform="translate(788.427734 0)"/>
       <use xlink:href="#DejaVuSans-65" transform="translate(847.607422 0)"/>
       <use xlink:href="#DejaVuSans-73" transform="translate(909.130859 0)"/>
       <use xlink:href="#DejaVuSans-69" transform="translate(961.230469 0)"/>
       <use xlink:href="#DejaVuSans-63" transform="translate(989.013672 0)"/>
       <use xlink:href="#DejaVuSans-6c" transform="translate(1043.994141 0)"/>
       <use xlink:href="#DejaVuSans-65" transform="translate(1071.777344 0)"/>
      </g>
     </g>
    </g>
    <g id="ytick_2">
     <g id="line2d_8">
      <g>
       <use xlink:href="#m964bb9fa85" x="180.020312" y="47.146757" style="stroke: #000000; stroke-width: 0.8"/>
      </g>
     </g>
     <g id="text_9">
      <!-- postsynaptic density membrane -->
      <g transform="translate(11.55 50.945975) scale(0.1 -0.1)">
       <defs>
        <path id="DejaVuSans-70" d="M 1159 525 
L 1159 -1331 
L 581 -1331 
L 581 3500 
L 1159 3500 
L 1159 2969 
Q 1341 3281 1617 3432 
Q 1894 3584 2278 3584 
Q 2916 3584 3314 3078 
Q 3713 2572 3713 1747 
Q 3713 922 3314 415 
Q 2916 -91 2278 -91 
Q 1894 -91 1617 61 
Q 1341 213 1159 525 
z
M 3116 1747 
Q 3116 2381 2855 2742 
Q 2594 3103 2138 3103 
Q 1681 3103 1420 2742 
Q 1159 2381 1159 1747 
Q 1159 1113 1420 752 
Q 1681 391 2138 391 
Q 2594 391 2855 752 
Q 3116 1113 3116 1747 
z
" transform="scale(0.015625)"/>
        <path id="DejaVuSans-79" d="M 2059 -325 
Q 1816 -950 1584 -1140 
Q 1353 -1331 966 -1331 
L 506 -1331 
L 506 -850 
L 844 -850 
Q 1081 -850 1212 -737 
Q 1344 -625 1503 -206 
L 1606 56 
L 191 3500 
L 800 3500 
L 1894 763 
L 2988 3500 
L 3597 3500 
L 2059 -325 
z
" transform="scale(0.015625)"/>
        <path id="DejaVuSans-62" d="M 3116 1747 
Q 3116 2381 2855 2742 
Q 2594 3103 2138 3103 
Q 1681 3103 1420 2742 
Q 1159 2381 1159 1747 
Q 1159 1113 1420 752 
Q 1681 391 2138 391 
Q 2594 391 2855 752 
Q 3116 1113 3116 1747 
z
M 1159 2969 
Q 1341 3281 1617 3432 
Q 1894 3584 2278 3584 
Q 2916 3584 3314 3078 
Q 3713 2572 3713 1747 
Q 3713 922 3314 415 
Q 2916 -91 2278 -91 
Q 1894 -91 1617 61 
Q 1341 213 1159 525 
L 1159 0 
L 581 0 
L 581 4863 
L 1159 4863 
L 1159 2969 
z
" transform="scale(0.015625)"/>
       </defs>
       <use xlink:href="#DejaVuSans-70"/>
       <use xlink:href="#DejaVuSans-6f" transform="translate(63.476562 0)"/>
       <use xlink:href="#DejaVuSans-73" transform="translate(124.658203 0)"/>
       <use xlink:href="#DejaVuSans-74" transform="translate(176.757812 0)"/>
       <use xlink:href="#DejaVuSans-73" transform="translate(215.966797 0)"/>
       <use xlink:href="#DejaVuSans-79" transform="translate(268.066406 0)"/>
       <use xlink:href="#DejaVuSans-6e" transform="translate(327.246094 0)"/>
       <use xlink:href="#DejaVuSans-61" transform="translate(390.625 0)"/>
       <use xlink:href="#DejaVuSans-70" transform="translate(451.904297 0)"/>
       <use xlink:href="#DejaVuSans-74" transform="translate(515.380859 0)"/>
       <use xlink:href="#DejaVuSans-69" transform="translate(554.589844 0)"/>
       <use xlink:href="#DejaVuSans-63" transform="translate(582.373047 0)"/>
       <use xlink:href="#DejaVuSans-20" transform="translate(637.353516 0)"/>
       <use xlink:href="#DejaVuSans-64" transform="translate(669.140625 0)"/>
       <use xlink:href="#DejaVuSans-65" transform="translate(732.617188 0)"/>
       <use xlink:href="#DejaVuSans-6e" transform="translate(794.140625 0)"/>
       <use xlink:href="#DejaVuSans-73" transform="translate(857.519531 0)"/>
       <use xlink:href="#DejaVuSans-69" transform="translate(909.619141 0)"/>
       <use xlink:href="#DejaVuSans-74" transform="translate(937.402344 0)"/>
       <use xlink:href="#DejaVuSans-79" transform="translate(976.611328 0)"/>
       <use xlink:href="#DejaVuSans-20" transform="translate(1035.791016 0)"/>
       <use xlink:href="#DejaVuSans-6d" transform="translate(1067.578125 0)"/>
       <use xlink:href="#DejaVuSans-65" transform="translate(1164.990234 0)"/>
       <use xlink:href="#DejaVuSans-6d" transform="translate(1226.513672 0)"/>
       <use xlink:href="#DejaVuSans-62" transform="translate(1323.925781 0)"/>
       <use xlink:href="#DejaVuSans-72" transform="translate(1387.402344 0)"/>
       <use xlink:href="#DejaVuSans-61" transform="translate(1428.515625 0)"/>
       <use xlink:href="#DejaVuSans-6e" transform="translate(1489.794922 0)"/>
       <use xlink:href="#DejaVuSans-65" transform="translate(1553.173828 0)"/>
      </g>
     </g>
    </g>
    <g id="ytick_3">
     <g id="line2d_9">
      <g>
       <use xlink:href="#m964bb9fa85" x="180.020312" y="59.879388" style="stroke: #000000; stroke-width: 0.8"/>
      </g>
     </g>
     <g id="text_10">
      <!-- axon cytoplasm -->
      <g transform="translate(93.990625 63.678607) scale(0.1 -0.1)">
       <defs>
        <path id="DejaVuSans-78" d="M 3513 3500 
L 2247 1797 
L 3578 0 
L 2900 0 
L 1881 1375 
L 863 0 
L 184 0 
L 1544 1831 
L 300 3500 
L 978 3500 
L 1906 2253 
L 2834 3500 
L 3513 3500 
z
" transform="scale(0.015625)"/>
       </defs>
       <use xlink:href="#DejaVuSans-61"/>
       <use xlink:href="#DejaVuSans-78" transform="translate(61.279297 0)"/>
       <use xlink:href="#DejaVuSans-6f" transform="translate(117.333984 0)"/>
       <use xlink:href="#DejaVuSans-6e" transform="translate(178.515625 0)"/>
       <use xlink:href="#DejaVuSans-20" transform="translate(241.894531 0)"/>
       <use xlink:href="#DejaVuSans-63" transform="translate(273.681641 0)"/>
       <use xlink:href="#DejaVuSans-79" transform="translate(328.662109 0)"/>
       <use xlink:href="#DejaVuSans-74" transform="translate(387.841797 0)"/>
       <use xlink:href="#DejaVuSans-6f" transform="translate(427.050781 0)"/>
       <use xlink:href="#DejaVuSans-70" transform="translate(488.232422 0)"/>
       <use xlink:href="#DejaVuSans-6c" transform="translate(551.708984 0)"/>
       <use xlink:href="#DejaVuSans-61" transform="translate(579.492188 0)"/>
       <use xlink:href="#DejaVuSans-73" transform="translate(640.771484 0)"/>
       <use xlink:href="#DejaVuSans-6d" transform="translate(692.871094 0)"/>
      </g>
     </g>
    </g>
    <g id="ytick_4">
     <g id="line2d_10">
      <g>
       <use xlink:href="#m964bb9fa85" x="180.020312" y="72.61202" style="stroke: #000000; stroke-width: 0.8"/>
      </g>
     </g>
     <g id="text_11">
      <!-- dendritic spine -->
      <g transform="translate(98.742187 76.411238) scale(0.1 -0.1)">
       <use xlink:href="#DejaVuSans-64"/>
       <use xlink:href="#DejaVuSans-65" transform="translate(63.476562 0)"/>
       <use xlink:href="#DejaVuSans-6e" transform="translate(125 0)"/>
       <use xlink:href="#DejaVuSans-64" transform="translate(188.378906 0)"/>
       <use xlink:href="#DejaVuSans-72" transform="translate(251.855469 0)"/>
       <use xlink:href="#DejaVuSans-69" transform="translate(292.96875 0)"/>
       <use xlink:href="#DejaVuSans-74" transform="translate(320.751953 0)"/>
       <use xlink:href="#DejaVuSans-69" transform="translate(359.960938 0)"/>
       <use xlink:href="#DejaVuSans-63" transform="translate(387.744141 0)"/>
       <use xlink:href="#DejaVuSans-20" transform="translate(442.724609 0)"/>
       <use xlink:href="#DejaVuSans-73" transform="translate(474.511719 0)"/>
       <use xlink:href="#DejaVuSans-70" transform="translate(526.611328 0)"/>
       <use xlink:href="#DejaVuSans-69" transform="translate(590.087891 0)"/>
       <use xlink:href="#DejaVuSans-6e" transform="translate(617.871094 0)"/>
       <use xlink:href="#DejaVuSans-65" transform="translate(681.25 0)"/>
      </g>
     </g>
    </g>
    <g id="ytick_5">
     <g id="line2d_11">
      <g>
       <use xlink:href="#m964bb9fa85" x="180.020312" y="85.344651" style="stroke: #000000; stroke-width: 0.8"/>
      </g>
     </g>
     <g id="text_12">
      <!-- Schaffer collateral - CA1 synapse -->
      <g transform="translate(7.2 89.14387) scale(0.1 -0.1)">
       <defs>
        <path id="DejaVuSans-53" d="M 3425 4513 
L 3425 3897 
Q 3066 4069 2747 4153 
Q 2428 4238 2131 4238 
Q 1616 4238 1336 4038 
Q 1056 3838 1056 3469 
Q 1056 3159 1242 3001 
Q 1428 2844 1947 2747 
L 2328 2669 
Q 3034 2534 3370 2195 
Q 3706 1856 3706 1288 
Q 3706 609 3251 259 
Q 2797 -91 1919 -91 
Q 1588 -91 1214 -16 
Q 841 59 441 206 
L 441 856 
Q 825 641 1194 531 
Q 1563 422 1919 422 
Q 2459 422 2753 634 
Q 3047 847 3047 1241 
Q 3047 1584 2836 1778 
Q 2625 1972 2144 2069 
L 1759 2144 
Q 1053 2284 737 2584 
Q 422 2884 422 3419 
Q 422 4038 858 4394 
Q 1294 4750 2059 4750 
Q 2388 4750 2728 4690 
Q 3069 4631 3425 4513 
z
" transform="scale(0.015625)"/>
        <path id="DejaVuSans-66" d="M 2375 4863 
L 2375 4384 
L 1825 4384 
Q 1516 4384 1395 4259 
Q 1275 4134 1275 3809 
L 1275 3500 
L 2222 3500 
L 2222 3053 
L 1275 3053 
L 1275 0 
L 697 0 
L 697 3053 
L 147 3053 
L 147 3500 
L 697 3500 
L 697 3744 
Q 697 4328 969 4595 
Q 1241 4863 1831 4863 
L 2375 4863 
z
" transform="scale(0.015625)"/>
        <path id="DejaVuSans-43" d="M 4122 4306 
L 4122 3641 
Q 3803 3938 3442 4084 
Q 3081 4231 2675 4231 
Q 1875 4231 1450 3742 
Q 1025 3253 1025 2328 
Q 1025 1406 1450 917 
Q 1875 428 2675 428 
Q 3081 428 3442 575 
Q 3803 722 4122 1019 
L 4122 359 
Q 3791 134 3420 21 
Q 3050 -91 2638 -91 
Q 1578 -91 968 557 
Q 359 1206 359 2328 
Q 359 3453 968 4101 
Q 1578 4750 2638 4750 
Q 3056 4750 3426 4639 
Q 3797 4528 4122 4306 
z
" transform="scale(0.015625)"/>
        <path id="DejaVuSans-41" d="M 2188 4044 
L 1331 1722 
L 3047 1722 
L 2188 4044 
z
M 1831 4666 
L 2547 4666 
L 4325 0 
L 3669 0 
L 3244 1197 
L 1141 1197 
L 716 0 
L 50 0 
L 1831 4666 
z
" transform="scale(0.015625)"/>
        <path id="DejaVuSans-31" d="M 794 531 
L 1825 531 
L 1825 4091 
L 703 3866 
L 703 4441 
L 1819 4666 
L 2450 4666 
L 2450 531 
L 3481 531 
L 3481 0 
L 794 0 
L 794 531 
z
" transform="scale(0.015625)"/>
       </defs>
       <use xlink:href="#DejaVuSans-53"/>
       <use xlink:href="#DejaVuSans-63" transform="translate(63.476562 0)"/>
       <use xlink:href="#DejaVuSans-68" transform="translate(118.457031 0)"/>
       <use xlink:href="#DejaVuSans-61" transform="translate(181.835938 0)"/>
       <use xlink:href="#DejaVuSans-66" transform="translate(243.115234 0)"/>
       <use xlink:href="#DejaVuSans-66" transform="translate(278.320312 0)"/>
       <use xlink:href="#DejaVuSans-65" transform="translate(313.525391 0)"/>
       <use xlink:href="#DejaVuSans-72" transform="translate(375.048828 0)"/>
       <use xlink:href="#DejaVuSans-20" transform="translate(416.162109 0)"/>
       <use xlink:href="#DejaVuSans-63" transform="translate(447.949219 0)"/>
       <use xlink:href="#DejaVuSans-6f" transform="translate(502.929688 0)"/>
       <use xlink:href="#DejaVuSans-6c" transform="translate(564.111328 0)"/>
       <use xlink:href="#DejaVuSans-6c" transform="translate(591.894531 0)"/>
       <use xlink:href="#DejaVuSans-61" transform="translate(619.677734 0)"/>
       <use xlink:href="#DejaVuSans-74" transform="translate(680.957031 0)"/>
       <use xlink:href="#DejaVuSans-65" transform="translate(720.166016 0)"/>
       <use xlink:href="#DejaVuSans-72" transform="translate(781.689453 0)"/>
       <use xlink:href="#DejaVuSans-61" transform="translate(822.802734 0)"/>
       <use xlink:href="#DejaVuSans-6c" transform="translate(884.082031 0)"/>
       <use xlink:href="#DejaVuSans-20" transform="translate(911.865234 0)"/>
       <use xlink:href="#DejaVuSans-2d" transform="translate(943.652344 0)"/>
       <use xlink:href="#DejaVuSans-20" transform="translate(979.736328 0)"/>
       <use xlink:href="#DejaVuSans-43" transform="translate(1011.523438 0)"/>
       <use xlink:href="#DejaVuSans-41" transform="translate(1081.347656 0)"/>
       <use xlink:href="#DejaVuSans-31" transform="translate(1149.755859 0)"/>
       <use xlink:href="#DejaVuSans-20" transform="translate(1213.378906 0)"/>
       <use xlink:href="#DejaVuSans-73" transform="translate(1245.166016 0)"/>
       <use xlink:href="#DejaVuSans-79" transform="translate(1297.265625 0)"/>
       <use xlink:href="#DejaVuSans-6e" transform="translate(1356.445312 0)"/>
       <use xlink:href="#DejaVuSans-61" transform="translate(1419.824219 0)"/>
       <use xlink:href="#DejaVuSans-70" transform="translate(1481.103516 0)"/>
       <use xlink:href="#DejaVuSans-73" transform="translate(1544.580078 0)"/>
       <use xlink:href="#DejaVuSans-65" transform="translate(1596.679688 0)"/>
      </g>
     </g>
    </g>
    <g id="ytick_6">
     <g id="line2d_12">
      <g>
       <use xlink:href="#m964bb9fa85" x="180.020312" y="98.077283" style="stroke: #000000; stroke-width: 0.8"/>
      </g>
     </g>
     <g id="text_13">
      <!-- postsynaptic density -->
      <g transform="translate(69.440625 101.876502) scale(0.1 -0.1)">
       <use xlink:href="#DejaVuSans-70"/>
       <use xlink:href="#DejaVuSans-6f" transform="translate(63.476562 0)"/>
       <use xlink:href="#DejaVuSans-73" transform="translate(124.658203 0)"/>
       <use xlink:href="#DejaVuSans-74" transform="translate(176.757812 0)"/>
       <use xlink:href="#DejaVuSans-73" transform="translate(215.966797 0)"/>
       <use xlink:href="#DejaVuSans-79" transform="translate(268.066406 0)"/>
       <use xlink:href="#DejaVuSans-6e" transform="translate(327.246094 0)"/>
       <use xlink:href="#DejaVuSans-61" transform="translate(390.625 0)"/>
       <use xlink:href="#DejaVuSans-70" transform="translate(451.904297 0)"/>
       <use xlink:href="#DejaVuSans-74" transform="translate(515.380859 0)"/>
       <use xlink:href="#DejaVuSans-69" transform="translate(554.589844 0)"/>
       <use xlink:href="#DejaVuSans-63" transform="translate(582.373047 0)"/>
       <use xlink:href="#DejaVuSans-20" transform="translate(637.353516 0)"/>
       <use xlink:href="#DejaVuSans-64" transform="translate(669.140625 0)"/>
       <use xlink:href="#DejaVuSans-65" transform="translate(732.617188 0)"/>
       <use xlink:href="#DejaVuSans-6e" transform="translate(794.140625 0)"/>
       <use xlink:href="#DejaVuSans-73" transform="translate(857.519531 0)"/>
       <use xlink:href="#DejaVuSans-69" transform="translate(909.619141 0)"/>
       <use xlink:href="#DejaVuSans-74" transform="translate(937.402344 0)"/>
       <use xlink:href="#DejaVuSans-79" transform="translate(976.611328 0)"/>
      </g>
     </g>
    </g>
    <g id="ytick_7">
     <g id="line2d_13">
      <g>
       <use xlink:href="#m964bb9fa85" x="180.020312" y="110.809914" style="stroke: #000000; stroke-width: 0.8"/>
      </g>
     </g>
     <g id="text_14">
      <!-- GABA-ergic synapse -->
      <g transform="translate(72.15 114.609133) scale(0.1 -0.1)">
       <defs>
        <path id="DejaVuSans-47" d="M 3809 666 
L 3809 1919 
L 2778 1919 
L 2778 2438 
L 4434 2438 
L 4434 434 
Q 4069 175 3628 42 
Q 3188 -91 2688 -91 
Q 1594 -91 976 548 
Q 359 1188 359 2328 
Q 359 3472 976 4111 
Q 1594 4750 2688 4750 
Q 3144 4750 3555 4637 
Q 3966 4525 4313 4306 
L 4313 3634 
Q 3963 3931 3569 4081 
Q 3175 4231 2741 4231 
Q 1884 4231 1454 3753 
Q 1025 3275 1025 2328 
Q 1025 1384 1454 906 
Q 1884 428 2741 428 
Q 3075 428 3337 486 
Q 3600 544 3809 666 
z
" transform="scale(0.015625)"/>
        <path id="DejaVuSans-42" d="M 1259 2228 
L 1259 519 
L 2272 519 
Q 2781 519 3026 730 
Q 3272 941 3272 1375 
Q 3272 1813 3026 2020 
Q 2781 2228 2272 2228 
L 1259 2228 
z
M 1259 4147 
L 1259 2741 
L 2194 2741 
Q 2656 2741 2882 2914 
Q 3109 3088 3109 3444 
Q 3109 3797 2882 3972 
Q 2656 4147 2194 4147 
L 1259 4147 
z
M 628 4666 
L 2241 4666 
Q 2963 4666 3353 4366 
Q 3744 4066 3744 3513 
Q 3744 3084 3544 2831 
Q 3344 2578 2956 2516 
Q 3422 2416 3680 2098 
Q 3938 1781 3938 1306 
Q 3938 681 3513 340 
Q 3088 0 2303 0 
L 628 0 
L 628 4666 
z
" transform="scale(0.015625)"/>
        <path id="DejaVuSans-67" d="M 2906 1791 
Q 2906 2416 2648 2759 
Q 2391 3103 1925 3103 
Q 1463 3103 1205 2759 
Q 947 2416 947 1791 
Q 947 1169 1205 825 
Q 1463 481 1925 481 
Q 2391 481 2648 825 
Q 2906 1169 2906 1791 
z
M 3481 434 
Q 3481 -459 3084 -895 
Q 2688 -1331 1869 -1331 
Q 1566 -1331 1297 -1286 
Q 1028 -1241 775 -1147 
L 775 -588 
Q 1028 -725 1275 -790 
Q 1522 -856 1778 -856 
Q 2344 -856 2625 -561 
Q 2906 -266 2906 331 
L 2906 616 
Q 2728 306 2450 153 
Q 2172 0 1784 0 
Q 1141 0 747 490 
Q 353 981 353 1791 
Q 353 2603 747 3093 
Q 1141 3584 1784 3584 
Q 2172 3584 2450 3431 
Q 2728 3278 2906 2969 
L 2906 3500 
L 3481 3500 
L 3481 434 
z
" transform="scale(0.015625)"/>
       </defs>
       <use xlink:href="#DejaVuSans-47"/>
       <use xlink:href="#DejaVuSans-41" transform="translate(77.490234 0)"/>
       <use xlink:href="#DejaVuSans-42" transform="translate(145.898438 0)"/>
       <use xlink:href="#DejaVuSans-41" transform="translate(214.501953 0)"/>
       <use xlink:href="#DejaVuSans-2d" transform="translate(280.660156 0)"/>
       <use xlink:href="#DejaVuSans-65" transform="translate(316.744141 0)"/>
       <use xlink:href="#DejaVuSans-72" transform="translate(378.267578 0)"/>
       <use xlink:href="#DejaVuSans-67" transform="translate(417.630859 0)"/>
       <use xlink:href="#DejaVuSans-69" transform="translate(481.107422 0)"/>
       <use xlink:href="#DejaVuSans-63" transform="translate(508.890625 0)"/>
       <use xlink:href="#DejaVuSans-20" transform="translate(563.871094 0)"/>
       <use xlink:href="#DejaVuSans-73" transform="translate(595.658203 0)"/>
       <use xlink:href="#DejaVuSans-79" transform="translate(647.757812 0)"/>
       <use xlink:href="#DejaVuSans-6e" transform="translate(706.9375 0)"/>
       <use xlink:href="#DejaVuSans-61" transform="translate(770.316406 0)"/>
       <use xlink:href="#DejaVuSans-70" transform="translate(831.595703 0)"/>
       <use xlink:href="#DejaVuSans-73" transform="translate(895.072266 0)"/>
       <use xlink:href="#DejaVuSans-65" transform="translate(947.171875 0)"/>
      </g>
     </g>
    </g>
    <g id="ytick_8">
     <g id="line2d_14">
      <g>
       <use xlink:href="#m964bb9fa85" x="180.020312" y="123.542546" style="stroke: #000000; stroke-width: 0.8"/>
      </g>
     </g>
     <g id="text_15">
      <!-- glutamatergic synapse -->
      <g transform="translate(58.521875 127.341765) scale(0.1 -0.1)">
       <defs>
        <path id="DejaVuSans-75" d="M 544 1381 
L 544 3500 
L 1119 3500 
L 1119 1403 
Q 1119 906 1312 657 
Q 1506 409 1894 409 
Q 2359 409 2629 706 
Q 2900 1003 2900 1516 
L 2900 3500 
L 3475 3500 
L 3475 0 
L 2900 0 
L 2900 538 
Q 2691 219 2414 64 
Q 2138 -91 1772 -91 
Q 1169 -91 856 284 
Q 544 659 544 1381 
z
M 1991 3584 
L 1991 3584 
z
" transform="scale(0.015625)"/>
       </defs>
       <use xlink:href="#DejaVuSans-67"/>
       <use xlink:href="#DejaVuSans-6c" transform="translate(63.476562 0)"/>
       <use xlink:href="#DejaVuSans-75" transform="translate(91.259766 0)"/>
       <use xlink:href="#DejaVuSans-74" transform="translate(154.638672 0)"/>
       <use xlink:href="#DejaVuSans-61" transform="translate(193.847656 0)"/>
       <use xlink:href="#DejaVuSans-6d" transform="translate(255.126953 0)"/>
       <use xlink:href="#DejaVuSans-61" transform="translate(352.539062 0)"/>
       <use xlink:href="#DejaVuSans-74" transform="translate(413.818359 0)"/>
       <use xlink:href="#DejaVuSans-65" transform="translate(453.027344 0)"/>
       <use xlink:href="#DejaVuSans-72" transform="translate(514.550781 0)"/>
       <use xlink:href="#DejaVuSans-67" transform="translate(553.914062 0)"/>
       <use xlink:href="#DejaVuSans-69" transform="translate(617.390625 0)"/>
       <use xlink:href="#DejaVuSans-63" transform="translate(645.173828 0)"/>
       <use xlink:href="#DejaVuSans-20" transform="translate(700.154297 0)"/>
       <use xlink:href="#DejaVuSans-73" transform="translate(731.941406 0)"/>
       <use xlink:href="#DejaVuSans-79" transform="translate(784.041016 0)"/>
       <use xlink:href="#DejaVuSans-6e" transform="translate(843.220703 0)"/>
       <use xlink:href="#DejaVuSans-61" transform="translate(906.599609 0)"/>
       <use xlink:href="#DejaVuSans-70" transform="translate(967.878906 0)"/>
       <use xlink:href="#DejaVuSans-73" transform="translate(1031.355469 0)"/>
       <use xlink:href="#DejaVuSans-65" transform="translate(1083.455078 0)"/>
      </g>
     </g>
    </g>
    <g id="ytick_9">
     <g id="line2d_15">
      <g>
       <use xlink:href="#m964bb9fa85" x="180.020312" y="136.275178" style="stroke: #000000; stroke-width: 0.8"/>
      </g>
     </g>
     <g id="text_16">
      <!-- lamellipodium -->
      <g transform="translate(102.214062 140.074396) scale(0.1 -0.1)">
       <use xlink:href="#DejaVuSans-6c"/>
       <use xlink:href="#DejaVuSans-61" transform="translate(27.783203 0)"/>
       <use xlink:href="#DejaVuSans-6d" transform="translate(89.0625 0)"/>
       <use xlink:href="#DejaVuSans-65" transform="translate(186.474609 0)"/>
       <use xlink:href="#DejaVuSans-6c" transform="translate(247.998047 0)"/>
       <use xlink:href="#DejaVuSans-6c" transform="translate(275.78125 0)"/>
       <use xlink:href="#DejaVuSans-69" transform="translate(303.564453 0)"/>
       <use xlink:href="#DejaVuSans-70" transform="translate(331.347656 0)"/>
       <use xlink:href="#DejaVuSans-6f" transform="translate(394.824219 0)"/>
       <use xlink:href="#DejaVuSans-64" transform="translate(456.005859 0)"/>
       <use xlink:href="#DejaVuSans-69" transform="translate(519.482422 0)"/>
       <use xlink:href="#DejaVuSans-75" transform="translate(547.265625 0)"/>
       <use xlink:href="#DejaVuSans-6d" transform="translate(610.644531 0)"/>
      </g>
     </g>
    </g>
    <g id="ytick_10">
     <g id="line2d_16">
      <g>
       <use xlink:href="#m964bb9fa85" x="180.020312" y="149.007809" style="stroke: #000000; stroke-width: 0.8"/>
      </g>
     </g>
     <g id="text_17">
      <!-- ubiquitin ligase complex -->
      <g transform="translate(50.923437 152.807028) scale(0.1 -0.1)">
       <defs>
        <path id="DejaVuSans-71" d="M 947 1747 
Q 947 1113 1208 752 
Q 1469 391 1925 391 
Q 2381 391 2643 752 
Q 2906 1113 2906 1747 
Q 2906 2381 2643 2742 
Q 2381 3103 1925 3103 
Q 1469 3103 1208 2742 
Q 947 2381 947 1747 
z
M 2906 525 
Q 2725 213 2448 61 
Q 2172 -91 1784 -91 
Q 1150 -91 751 415 
Q 353 922 353 1747 
Q 353 2572 751 3078 
Q 1150 3584 1784 3584 
Q 2172 3584 2448 3432 
Q 2725 3281 2906 2969 
L 2906 3500 
L 3481 3500 
L 3481 -1331 
L 2906 -1331 
L 2906 525 
z
" transform="scale(0.015625)"/>
       </defs>
       <use xlink:href="#DejaVuSans-75"/>
       <use xlink:href="#DejaVuSans-62" transform="translate(63.378906 0)"/>
       <use xlink:href="#DejaVuSans-69" transform="translate(126.855469 0)"/>
       <use xlink:href="#DejaVuSans-71" transform="translate(154.638672 0)"/>
       <use xlink:href="#DejaVuSans-75" transform="translate(218.115234 0)"/>
       <use xlink:href="#DejaVuSans-69" transform="translate(281.494141 0)"/>
       <use xlink:href="#DejaVuSans-74" transform="translate(309.277344 0)"/>
       <use xlink:href="#DejaVuSans-69" transform="translate(348.486328 0)"/>
       <use xlink:href="#DejaVuSans-6e" transform="translate(376.269531 0)"/>
       <use xlink:href="#DejaVuSans-20" transform="translate(439.648438 0)"/>
       <use xlink:href="#DejaVuSans-6c" transform="translate(471.435547 0)"/>
       <use xlink:href="#DejaVuSans-69" transform="translate(499.21875 0)"/>
       <use xlink:href="#DejaVuSans-67" transform="translate(527.001953 0)"/>
       <use xlink:href="#DejaVuSans-61" transform="translate(590.478516 0)"/>
       <use xlink:href="#DejaVuSans-73" transform="translate(651.757812 0)"/>
       <use xlink:href="#DejaVuSans-65" transform="translate(703.857422 0)"/>
       <use xlink:href="#DejaVuSans-20" transform="translate(765.380859 0)"/>
       <use xlink:href="#DejaVuSans-63" transform="translate(797.167969 0)"/>
       <use xlink:href="#DejaVuSans-6f" transform="translate(852.148438 0)"/>
       <use xlink:href="#DejaVuSans-6d" transform="translate(913.330078 0)"/>
       <use xlink:href="#DejaVuSans-70" transform="translate(1010.742188 0)"/>
       <use xlink:href="#DejaVuSans-6c" transform="translate(1074.21875 0)"/>
       <use xlink:href="#DejaVuSans-65" transform="translate(1102.001953 0)"/>
       <use xlink:href="#DejaVuSans-78" transform="translate(1161.775391 0)"/>
      </g>
     </g>
    </g>
    <g id="ytick_11">
     <g id="line2d_17">
      <g>
       <use xlink:href="#m964bb9fa85" x="180.020312" y="161.740441" style="stroke: #000000; stroke-width: 0.8"/>
      </g>
     </g>
     <g id="text_18">
      <!-- axon -->
      <g transform="translate(148.829687 165.53966) scale(0.1 -0.1)">
       <use xlink:href="#DejaVuSans-61"/>
       <use xlink:href="#DejaVuSans-78" transform="translate(61.279297 0)"/>
       <use xlink:href="#DejaVuSans-6f" transform="translate(117.333984 0)"/>
       <use xlink:href="#DejaVuSans-6e" transform="translate(178.515625 0)"/>
      </g>
     </g>
    </g>
    <g id="ytick_12">
     <g id="line2d_18">
      <g>
       <use xlink:href="#m964bb9fa85" x="180.020312" y="174.473072" style="stroke: #000000; stroke-width: 0.8"/>
      </g>
     </g>
     <g id="text_19">
      <!-- growth cone -->
      <g transform="translate(110.945312 178.272291) scale(0.1 -0.1)">
       <defs>
        <path id="DejaVuSans-77" d="M 269 3500 
L 844 3500 
L 1563 769 
L 2278 3500 
L 2956 3500 
L 3675 769 
L 4391 3500 
L 4966 3500 
L 4050 0 
L 3372 0 
L 2619 2869 
L 1863 0 
L 1184 0 
L 269 3500 
z
" transform="scale(0.015625)"/>
       </defs>
       <use xlink:href="#DejaVuSans-67"/>
       <use xlink:href="#DejaVuSans-72" transform="translate(63.476562 0)"/>
       <use xlink:href="#DejaVuSans-6f" transform="translate(102.339844 0)"/>
       <use xlink:href="#DejaVuSans-77" transform="translate(163.521484 0)"/>
       <use xlink:href="#DejaVuSans-74" transform="translate(245.308594 0)"/>
       <use xlink:href="#DejaVuSans-68" transform="translate(284.517578 0)"/>
       <use xlink:href="#DejaVuSans-20" transform="translate(347.896484 0)"/>
       <use xlink:href="#DejaVuSans-63" transform="translate(379.683594 0)"/>
       <use xlink:href="#DejaVuSans-6f" transform="translate(434.664062 0)"/>
       <use xlink:href="#DejaVuSans-6e" transform="translate(495.845703 0)"/>
       <use xlink:href="#DejaVuSans-65" transform="translate(559.224609 0)"/>
      </g>
     </g>
    </g>
    <g id="ytick_13">
     <g id="line2d_19">
      <g>
       <use xlink:href="#m964bb9fa85" x="180.020312" y="187.205704" style="stroke: #000000; stroke-width: 0.8"/>
      </g>
     </g>
     <g id="text_20">
      <!-- cell cortex -->
      <g transform="translate(121.089062 191.004923) scale(0.1 -0.1)">
       <use xlink:href="#DejaVuSans-63"/>
       <use xlink:href="#DejaVuSans-65" transform="translate(54.980469 0)"/>
       <use xlink:href="#DejaVuSans-6c" transform="translate(116.503906 0)"/>
       <use xlink:href="#DejaVuSans-6c" transform="translate(144.287109 0)"/>
       <use xlink:href="#DejaVuSans-20" transform="translate(172.070312 0)"/>
       <use xlink:href="#DejaVuSans-63" transform="translate(203.857422 0)"/>
       <use xlink:href="#DejaVuSans-6f" transform="translate(258.837891 0)"/>
       <use xlink:href="#DejaVuSans-72" transform="translate(320.019531 0)"/>
       <use xlink:href="#DejaVuSans-74" transform="translate(361.132812 0)"/>
       <use xlink:href="#DejaVuSans-65" transform="translate(400.341797 0)"/>
       <use xlink:href="#DejaVuSans-78" transform="translate(460.115234 0)"/>
      </g>
     </g>
    </g>
    <g id="ytick_14">
     <g id="line2d_20">
      <g>
       <use xlink:href="#m964bb9fa85" x="180.020312" y="199.938336" style="stroke: #000000; stroke-width: 0.8"/>
      </g>
     </g>
     <g id="text_21">
      <!-- neuronal cell body -->
      <g transform="translate(80.645312 203.737554) scale(0.1 -0.1)">
       <use xlink:href="#DejaVuSans-6e"/>
       <use xlink:href="#DejaVuSans-65" transform="translate(63.378906 0)"/>
       <use xlink:href="#DejaVuSans-75" transform="translate(124.902344 0)"/>
       <use xlink:href="#DejaVuSans-72" transform="translate(188.28125 0)"/>
       <use xlink:href="#DejaVuSans-6f" transform="translate(227.144531 0)"/>
       <use xlink:href="#DejaVuSans-6e" transform="translate(288.326172 0)"/>
       <use xlink:href="#DejaVuSans-61" transform="translate(351.705078 0)"/>
       <use xlink:href="#DejaVuSans-6c" transform="translate(412.984375 0)"/>
       <use xlink:href="#DejaVuSans-20" transform="translate(440.767578 0)"/>
       <use xlink:href="#DejaVuSans-63" transform="translate(472.554688 0)"/>
       <use xlink:href="#DejaVuSans-65" transform="translate(527.535156 0)"/>
       <use xlink:href="#DejaVuSans-6c" transform="translate(589.058594 0)"/>
       <use xlink:href="#DejaVuSans-6c" transform="translate(616.841797 0)"/>
       <use xlink:href="#DejaVuSans-20" transform="translate(644.625 0)"/>
       <use xlink:href="#DejaVuSans-62" transform="translate(676.412109 0)"/>
       <use xlink:href="#DejaVuSans-6f" transform="translate(739.888672 0)"/>
       <use xlink:href="#DejaVuSans-64" transform="translate(801.070312 0)"/>
       <use xlink:href="#DejaVuSans-79" transform="translate(864.546875 0)"/>
      </g>
     </g>
    </g>
    <g id="ytick_15">
     <g id="line2d_21">
      <g>
       <use xlink:href="#m964bb9fa85" x="180.020312" y="212.670967" style="stroke: #000000; stroke-width: 0.8"/>
      </g>
     </g>
     <g id="text_22">
      <!-- trans-Golgi network -->
      <g transform="translate(73.784375 216.470186) scale(0.1 -0.1)">
       <defs>
        <path id="DejaVuSans-6b" d="M 581 4863 
L 1159 4863 
L 1159 1991 
L 2875 3500 
L 3609 3500 
L 1753 1863 
L 3688 0 
L 2938 0 
L 1159 1709 
L 1159 0 
L 581 0 
L 581 4863 
z
" transform="scale(0.015625)"/>
       </defs>
       <use xlink:href="#DejaVuSans-74"/>
       <use xlink:href="#DejaVuSans-72" transform="translate(39.208984 0)"/>
       <use xlink:href="#DejaVuSans-61" transform="translate(80.322266 0)"/>
       <use xlink:href="#DejaVuSans-6e" transform="translate(141.601562 0)"/>
       <use xlink:href="#DejaVuSans-73" transform="translate(204.980469 0)"/>
       <use xlink:href="#DejaVuSans-2d" transform="translate(257.080078 0)"/>
       <use xlink:href="#DejaVuSans-47" transform="translate(296.789062 0)"/>
       <use xlink:href="#DejaVuSans-6f" transform="translate(374.279297 0)"/>
       <use xlink:href="#DejaVuSans-6c" transform="translate(435.460938 0)"/>
       <use xlink:href="#DejaVuSans-67" transform="translate(463.244141 0)"/>
       <use xlink:href="#DejaVuSans-69" transform="translate(526.720703 0)"/>
       <use xlink:href="#DejaVuSans-20" transform="translate(554.503906 0)"/>
       <use xlink:href="#DejaVuSans-6e" transform="translate(586.291016 0)"/>
       <use xlink:href="#DejaVuSans-65" transform="translate(649.669922 0)"/>
       <use xlink:href="#DejaVuSans-74" transform="translate(711.193359 0)"/>
       <use xlink:href="#DejaVuSans-77" transform="translate(750.402344 0)"/>
       <use xlink:href="#DejaVuSans-6f" transform="translate(832.189453 0)"/>
       <use xlink:href="#DejaVuSans-72" transform="translate(893.371094 0)"/>
       <use xlink:href="#DejaVuSans-6b" transform="translate(934.484375 0)"/>
      </g>
     </g>
    </g>
    <g id="ytick_16">
     <g id="line2d_22">
      <g>
       <use xlink:href="#m964bb9fa85" x="180.020312" y="225.403599" style="stroke: #000000; stroke-width: 0.8"/>
      </g>
     </g>
     <g id="text_23">
      <!-- postsynapse -->
      <g transform="translate(110.11875 229.202817) scale(0.1 -0.1)">
       <use xlink:href="#DejaVuSans-70"/>
       <use xlink:href="#DejaVuSans-6f" transform="translate(63.476562 0)"/>
       <use xlink:href="#DejaVuSans-73" transform="translate(124.658203 0)"/>
       <use xlink:href="#DejaVuSans-74" transform="translate(176.757812 0)"/>
       <use xlink:href="#DejaVuSans-73" transform="translate(215.966797 0)"/>
       <use xlink:href="#DejaVuSans-79" transform="translate(268.066406 0)"/>
       <use xlink:href="#DejaVuSans-6e" transform="translate(327.246094 0)"/>
       <use xlink:href="#DejaVuSans-61" transform="translate(390.625 0)"/>
       <use xlink:href="#DejaVuSans-70" transform="translate(451.904297 0)"/>
       <use xlink:href="#DejaVuSans-73" transform="translate(515.380859 0)"/>
       <use xlink:href="#DejaVuSans-65" transform="translate(567.480469 0)"/>
      </g>
     </g>
    </g>
    <g id="ytick_17">
     <g id="line2d_23">
      <g>
       <use xlink:href="#m964bb9fa85" x="180.020312" y="238.13623" style="stroke: #000000; stroke-width: 0.8"/>
      </g>
     </g>
     <g id="text_24">
      <!-- synapse -->
      <g transform="translate(131.715625 241.935449) scale(0.1 -0.1)">
       <use xlink:href="#DejaVuSans-73"/>
       <use xlink:href="#DejaVuSans-79" transform="translate(52.099609 0)"/>
       <use xlink:href="#DejaVuSans-6e" transform="translate(111.279297 0)"/>
       <use xlink:href="#DejaVuSans-61" transform="translate(174.658203 0)"/>
       <use xlink:href="#DejaVuSans-70" transform="translate(235.9375 0)"/>
       <use xlink:href="#DejaVuSans-73" transform="translate(299.414062 0)"/>
       <use xlink:href="#DejaVuSans-65" transform="translate(351.513672 0)"/>
      </g>
     </g>
    </g>
    <g id="ytick_18">
     <g id="line2d_24">
      <g>
       <use xlink:href="#m964bb9fa85" x="180.020312" y="250.868862" style="stroke: #000000; stroke-width: 0.8"/>
      </g>
     </g>
     <g id="text_25">
      <!-- postsynaptic membrane -->
      <g transform="translate(51.39375 254.668081) scale(0.1 -0.1)">
       <use xlink:href="#DejaVuSans-70"/>
       <use xlink:href="#DejaVuSans-6f" transform="translate(63.476562 0)"/>
       <use xlink:href="#DejaVuSans-73" transform="translate(124.658203 0)"/>
       <use xlink:href="#DejaVuSans-74" transform="translate(176.757812 0)"/>
       <use xlink:href="#DejaVuSans-73" transform="translate(215.966797 0)"/>
       <use xlink:href="#DejaVuSans-79" transform="translate(268.066406 0)"/>
       <use xlink:href="#DejaVuSans-6e" transform="translate(327.246094 0)"/>
       <use xlink:href="#DejaVuSans-61" transform="translate(390.625 0)"/>
       <use xlink:href="#DejaVuSans-70" transform="translate(451.904297 0)"/>
       <use xlink:href="#DejaVuSans-74" transform="translate(515.380859 0)"/>
       <use xlink:href="#DejaVuSans-69" transform="translate(554.589844 0)"/>
       <use xlink:href="#DejaVuSans-63" transform="translate(582.373047 0)"/>
       <use xlink:href="#DejaVuSans-20" transform="translate(637.353516 0)"/>
       <use xlink:href="#DejaVuSans-6d" transform="translate(669.140625 0)"/>
       <use xlink:href="#DejaVuSans-65" transform="translate(766.552734 0)"/>
       <use xlink:href="#DejaVuSans-6d" transform="translate(828.076172 0)"/>
       <use xlink:href="#DejaVuSans-62" transform="translate(925.488281 0)"/>
       <use xlink:href="#DejaVuSans-72" transform="translate(988.964844 0)"/>
       <use xlink:href="#DejaVuSans-61" transform="translate(1030.078125 0)"/>
       <use xlink:href="#DejaVuSans-6e" transform="translate(1091.357422 0)"/>
       <use xlink:href="#DejaVuSans-65" transform="translate(1154.736328 0)"/>
      </g>
     </g>
    </g>
    <g id="ytick_19">
     <g id="line2d_25">
      <g>
       <use xlink:href="#m964bb9fa85" x="180.020312" y="263.601493" style="stroke: #000000; stroke-width: 0.8"/>
      </g>
     </g>
     <g id="text_26">
      <!-- dendrite -->
      <g transform="translate(130.870312 267.400712) scale(0.1 -0.1)">
       <use xlink:href="#DejaVuSans-64"/>
       <use xlink:href="#DejaVuSans-65" transform="translate(63.476562 0)"/>
       <use xlink:href="#DejaVuSans-6e" transform="translate(125 0)"/>
       <use xlink:href="#DejaVuSans-64" transform="translate(188.378906 0)"/>
       <use xlink:href="#DejaVuSans-72" transform="translate(251.855469 0)"/>
       <use xlink:href="#DejaVuSans-69" transform="translate(292.96875 0)"/>
       <use xlink:href="#DejaVuSans-74" transform="translate(320.751953 0)"/>
       <use xlink:href="#DejaVuSans-65" transform="translate(359.960938 0)"/>
      </g>
     </g>
    </g>
    <g id="ytick_20">
     <g id="line2d_26">
      <g>
       <use xlink:href="#m964bb9fa85" x="180.020312" y="276.334125" style="stroke: #000000; stroke-width: 0.8"/>
      </g>
     </g>
     <g id="text_27">
      <!-- adherens junction -->
      <g transform="translate(83.182812 280.133344) scale(0.1 -0.1)">
       <defs>
        <path id="DejaVuSans-6a" d="M 603 3500 
L 1178 3500 
L 1178 -63 
Q 1178 -731 923 -1031 
Q 669 -1331 103 -1331 
L -116 -1331 
L -116 -844 
L 38 -844 
Q 366 -844 484 -692 
Q 603 -541 603 -63 
L 603 3500 
z
M 603 4863 
L 1178 4863 
L 1178 4134 
L 603 4134 
L 603 4863 
z
" transform="scale(0.015625)"/>
       </defs>
       <use xlink:href="#DejaVuSans-61"/>
       <use xlink:href="#DejaVuSans-64" transform="translate(61.279297 0)"/>
       <use xlink:href="#DejaVuSans-68" transform="translate(124.755859 0)"/>
       <use xlink:href="#DejaVuSans-65" transform="translate(188.134766 0)"/>
       <use xlink:href="#DejaVuSans-72" transform="translate(249.658203 0)"/>
       <use xlink:href="#DejaVuSans-65" transform="translate(288.521484 0)"/>
       <use xlink:href="#DejaVuSans-6e" transform="translate(350.044922 0)"/>
       <use xlink:href="#DejaVuSans-73" transform="translate(413.423828 0)"/>
       <use xlink:href="#DejaVuSans-20" transform="translate(465.523438 0)"/>
       <use xlink:href="#DejaVuSans-6a" transform="translate(497.310547 0)"/>
       <use xlink:href="#DejaVuSans-75" transform="translate(525.09375 0)"/>
       <use xlink:href="#DejaVuSans-6e" transform="translate(588.472656 0)"/>
       <use xlink:href="#DejaVuSans-63" transform="translate(651.851562 0)"/>
       <use xlink:href="#DejaVuSans-74" transform="translate(706.832031 0)"/>
       <use xlink:href="#DejaVuSans-69" transform="translate(746.041016 0)"/>
       <use xlink:href="#DejaVuSans-6f" transform="translate(773.824219 0)"/>
       <use xlink:href="#DejaVuSans-6e" transform="translate(835.005859 0)"/>
      </g>
     </g>
    </g>
   </g>
   <g id="line2d_27"/>
   <g id="line2d_28"/>
   <g id="line2d_29"/>
   <g id="line2d_30"/>
   <g id="line2d_31"/>
   <g id="line2d_32"/>
   <g id="line2d_33"/>
   <g id="line2d_34"/>
   <g id="line2d_35"/>
   <g id="line2d_36"/>
   <g id="line2d_37"/>
   <g id="line2d_38"/>
   <g id="patch_3">
    <path d="M 180.020312 288.430125 
L 180.020312 22.318125 
" style="fill: none; stroke: #000000; stroke-width: 0.8; stroke-linejoin: miter; stroke-linecap: square"/>
   </g>
   <g id="patch_4">
    <path d="M 537.140312 288.430125 
L 537.140312 22.318125 
" style="fill: none; stroke: #000000; stroke-width: 0.8; stroke-linejoin: miter; stroke-linecap: square"/>
   </g>
   <g id="patch_5">
    <path d="M 180.020312 288.430125 
L 537.140312 288.430125 
" style="fill: none; stroke: #000000; stroke-width: 0.8; stroke-linejoin: miter; stroke-linecap: square"/>
   </g>
   <g id="patch_6">
    <path d="M 180.020312 22.318125 
L 537.140312 22.318125 
" style="fill: none; stroke: #000000; stroke-width: 0.8; stroke-linejoin: miter; stroke-linecap: square"/>
   </g>
   <g id="text_28">
    <!-- Top 20 Enriched Cellular Components -->
    <g transform="translate(246.074687 16.318125) scale(0.12 -0.12)">
     <defs>
      <path id="DejaVuSans-54" d="M -19 4666 
L 3928 4666 
L 3928 4134 
L 2272 4134 
L 2272 0 
L 1638 0 
L 1638 4134 
L -19 4134 
L -19 4666 
z
" transform="scale(0.015625)"/>
     </defs>
     <use xlink:href="#DejaVuSans-54"/>
     <use xlink:href="#DejaVuSans-6f" transform="translate(44.083984 0)"/>
     <use xlink:href="#DejaVuSans-70" transform="translate(105.265625 0)"/>
     <use xlink:href="#DejaVuSans-20" transform="translate(168.742188 0)"/>
     <use xlink:href="#DejaVuSans-32" transform="translate(200.529297 0)"/>
     <use xlink:href="#DejaVuSans-30" transform="translate(264.152344 0)"/>
     <use xlink:href="#DejaVuSans-20" transform="translate(327.775391 0)"/>
     <use xlink:href="#DejaVuSans-45" transform="translate(359.5625 0)"/>
     <use xlink:href="#DejaVuSans-6e" transform="translate(422.746094 0)"/>
     <use xlink:href="#DejaVuSans-72" transform="translate(486.125 0)"/>
     <use xlink:href="#DejaVuSans-69" transform="translate(527.238281 0)"/>
     <use xlink:href="#DejaVuSans-63" transform="translate(555.021484 0)"/>
     <use xlink:href="#DejaVuSans-68" transform="translate(610.001953 0)"/>
     <use xlink:href="#DejaVuSans-65" transform="translate(673.380859 0)"/>
     <use xlink:href="#DejaVuSans-64" transform="translate(734.904297 0)"/>
     <use xlink:href="#DejaVuSans-20" transform="translate(798.380859 0)"/>
     <use xlink:href="#DejaVuSans-43" transform="translate(830.167969 0)"/>
     <use xlink:href="#DejaVuSans-65" transform="translate(899.992188 0)"/>
     <use xlink:href="#DejaVuSans-6c" transform="translate(961.515625 0)"/>
     <use xlink:href="#DejaVuSans-6c" transform="translate(989.298828 0)"/>
     <use xlink:href="#DejaVuSans-75" transform="translate(1017.082031 0)"/>
     <use xlink:href="#DejaVuSans-6c" transform="translate(1080.460938 0)"/>
     <use xlink:href="#DejaVuSans-61" transform="translate(1108.244141 0)"/>
     <use xlink:href="#DejaVuSans-72" transform="translate(1169.523438 0)"/>
     <use xlink:href="#DejaVuSans-20" transform="translate(1210.636719 0)"/>
     <use xlink:href="#DejaVuSans-43" transform="translate(1242.423828 0)"/>
     <use xlink:href="#DejaVuSans-6f" transform="translate(1312.248047 0)"/>
     <use xlink:href="#DejaVuSans-6d" transform="translate(1373.429688 0)"/>
     <use xlink:href="#DejaVuSans-70" transform="translate(1470.841797 0)"/>
     <use xlink:href="#DejaVuSans-6f" transform="translate(1534.318359 0)"/>
     <use xlink:href="#DejaVuSans-6e" transform="translate(1595.5 0)"/>
     <use xlink:href="#DejaVuSans-65" transform="translate(1658.878906 0)"/>
     <use xlink:href="#DejaVuSans-6e" transform="translate(1720.402344 0)"/>
     <use xlink:href="#DejaVuSans-74" transform="translate(1783.78125 0)"/>
     <use xlink:href="#DejaVuSans-73" transform="translate(1822.990234 0)"/>
    </g>
   </g>
   <g id="legend_1">
    <g id="patch_7">
     <path d="M 544.140312 206.455625 
L 631.379375 206.455625 
Q 633.379375 206.455625 633.379375 204.455625 
L 633.379375 29.318125 
Q 633.379375 27.318125 631.379375 27.318125 
L 544.140312 27.318125 
Q 542.140312 27.318125 542.140312 29.318125 
L 542.140312 204.455625 
Q 542.140312 206.455625 544.140312 206.455625 
z
" style="fill: #ffffff; opacity: 0.8; stroke: #cccccc; stroke-linejoin: miter"/>
    </g>
    <g id="line2d_39"/>
    <g id="text_29">
     <!-- -log10 FDR -->
     <g transform="translate(574.140312 38.916562) scale(0.1 -0.1)">
      <defs>
       <path id="DejaVuSans-44" d="M 1259 4147 
L 1259 519 
L 2022 519 
Q 2988 519 3436 956 
Q 3884 1394 3884 2338 
Q 3884 3275 3436 3711 
Q 2988 4147 2022 4147 
L 1259 4147 
z
M 628 4666 
L 1925 4666 
Q 3281 4666 3915 4102 
Q 4550 3538 4550 2338 
Q 4550 1131 3912 565 
Q 3275 0 1925 0 
L 628 0 
L 628 4666 
z
" transform="scale(0.015625)"/>
       <path id="DejaVuSans-52" d="M 2841 2188 
Q 3044 2119 3236 1894 
Q 3428 1669 3622 1275 
L 4263 0 
L 3584 0 
L 2988 1197 
Q 2756 1666 2539 1819 
Q 2322 1972 1947 1972 
L 1259 1972 
L 1259 0 
L 628 0 
L 628 4666 
L 2053 4666 
Q 2853 4666 3247 4331 
Q 3641 3997 3641 3322 
Q 3641 2881 3436 2590 
Q 3231 2300 2841 2188 
z
M 1259 4147 
L 1259 2491 
L 2053 2491 
Q 2509 2491 2742 2702 
Q 2975 2913 2975 3322 
Q 2975 3731 2742 3939 
Q 2509 4147 2053 4147 
L 1259 4147 
z
" transform="scale(0.015625)"/>
      </defs>
      <use xlink:href="#DejaVuSans-2d"/>
      <use xlink:href="#DejaVuSans-6c" transform="translate(36.083984 0)"/>
      <use xlink:href="#DejaVuSans-6f" transform="translate(63.867188 0)"/>
      <use xlink:href="#DejaVuSans-67" transform="translate(125.048828 0)"/>
      <use xlink:href="#DejaVuSans-31" transform="translate(188.525391 0)"/>
      <use xlink:href="#DejaVuSans-30" transform="translate(252.148438 0)"/>
      <use xlink:href="#DejaVuSans-20" transform="translate(315.771484 0)"/>
      <use xlink:href="#DejaVuSans-46" transform="translate(347.558594 0)"/>
      <use xlink:href="#DejaVuSans-44" transform="translate(405.078125 0)"/>
      <use xlink:href="#DejaVuSans-52" transform="translate(482.080078 0)"/>
     </g>
    </g>
    <g id="line2d_40">
     <defs>
      <path id="m109b211332" d="M 0 3 
C 0.795609 3 1.55874 2.683901 2.12132 2.12132 
C 2.683901 1.55874 3 0.795609 3 0 
C 3 -0.795609 2.683901 -1.55874 2.12132 -2.12132 
C 1.55874 -2.683901 0.795609 -3 0 -3 
C -0.795609 -3 -1.55874 -2.683901 -2.12132 -2.12132 
C -2.683901 -1.55874 -3 -0.795609 -3 0 
C -3 0.795609 -2.683901 1.55874 -2.12132 2.12132 
C -1.55874 2.683901 -0.795609 3 0 3 
z
" style="stroke: #ffffff; stroke-width: 0.427301"/>
     </defs>
     <g>
      <use xlink:href="#m109b211332" x="556.140312" y="50.094688" style="fill: #485fd1; stroke: #ffffff; stroke-width: 0.427301"/>
     </g>
    </g>
    <g id="text_30">
     <!-- 6 -->
     <g transform="translate(574.140312 53.594688) scale(0.1 -0.1)">
      <use xlink:href="#DejaVuSans-36"/>
     </g>
    </g>
    <g id="line2d_41">
     <defs>
      <path id="m1bc7e6a385" d="M 0 3 
C 0.795609 3 1.55874 2.683901 2.12132 2.12132 
C 2.683901 1.55874 3 0.795609 3 0 
C 3 -0.795609 2.683901 -1.55874 2.12132 -2.12132 
C 1.55874 -2.683901 0.795609 -3 0 -3 
C -0.795609 -3 -1.55874 -2.683901 -2.12132 -2.12132 
C -2.683901 -1.55874 -3 -0.795609 -3 0 
C -3 0.795609 -2.683901 1.55874 -2.12132 2.12132 
C -1.55874 2.683901 -0.795609 3 0 3 
z
" style="stroke: #ffffff; stroke-width: 0.427301"/>
     </defs>
     <g>
      <use xlink:href="#m1bc7e6a385" x="556.140312" y="64.772812" style="fill: #89acfd; stroke: #ffffff; stroke-width: 0.427301"/>
     </g>
    </g>
    <g id="text_31">
     <!-- 12 -->
     <g transform="translate(574.140312 68.272812) scale(0.1 -0.1)">
      <use xlink:href="#DejaVuSans-31"/>
      <use xlink:href="#DejaVuSans-32" transform="translate(63.623047 0)"/>
     </g>
    </g>
    <g id="line2d_42">
     <defs>
      <path id="mf7aa22a75e" d="M 0 3 
C 0.795609 3 1.55874 2.683901 2.12132 2.12132 
C 2.683901 1.55874 3 0.795609 3 0 
C 3 -0.795609 2.683901 -1.55874 2.12132 -2.12132 
C 1.55874 -2.683901 0.795609 -3 0 -3 
C -0.795609 -3 -1.55874 -2.683901 -2.12132 -2.12132 
C -2.683901 -1.55874 -3 -0.795609 -3 0 
C -3 0.795609 -2.683901 1.55874 -2.12132 2.12132 
C -1.55874 2.683901 -0.795609 3 0 3 
z
" style="stroke: #ffffff; stroke-width: 0.427301"/>
     </defs>
     <g>
      <use xlink:href="#mf7aa22a75e" x="556.140312" y="79.450938" style="fill: #cad8ef; stroke: #ffffff; stroke-width: 0.427301"/>
     </g>
    </g>
    <g id="text_32">
     <!-- 18 -->
     <g transform="translate(574.140312 82.950938) scale(0.1 -0.1)">
      <use xlink:href="#DejaVuSans-31"/>
      <use xlink:href="#DejaVuSans-38" transform="translate(63.623047 0)"/>
     </g>
    </g>
    <g id="line2d_43">
     <defs>
      <path id="m84aadc3c25" d="M 0 3 
C 0.795609 3 1.55874 2.683901 2.12132 2.12132 
C 2.683901 1.55874 3 0.795609 3 0 
C 3 -0.795609 2.683901 -1.55874 2.12132 -2.12132 
C 1.55874 -2.683901 0.795609 -3 0 -3 
C -0.795609 -3 -1.55874 -2.683901 -2.12132 -2.12132 
C -2.683901 -1.55874 -3 -0.795609 -3 0 
C -3 0.795609 -2.683901 1.55874 -2.12132 2.12132 
C -1.55874 2.683901 -0.795609 3 0 3 
z
" style="stroke: #ffffff; stroke-width: 0.427301"/>
     </defs>
     <g>
      <use xlink:href="#m84aadc3c25" x="556.140312" y="94.129063" style="fill: #f5c4ac; stroke: #ffffff; stroke-width: 0.427301"/>
     </g>
    </g>
    <g id="text_33">
     <!-- 24 -->
     <g transform="translate(574.140312 97.629063) scale(0.1 -0.1)">
      <use xlink:href="#DejaVuSans-32"/>
      <use xlink:href="#DejaVuSans-34" transform="translate(63.623047 0)"/>
     </g>
    </g>
    <g id="line2d_44">
     <defs>
      <path id="mca81b55dfb" d="M 0 3 
C 0.795609 3 1.55874 2.683901 2.12132 2.12132 
C 2.683901 1.55874 3 0.795609 3 0 
C 3 -0.795609 2.683901 -1.55874 2.12132 -2.12132 
C 1.55874 -2.683901 0.795609 -3 0 -3 
C -0.795609 -3 -1.55874 -2.683901 -2.12132 -2.12132 
C -2.683901 -1.55874 -3 -0.795609 -3 0 
C -3 0.795609 -2.683901 1.55874 -2.12132 2.12132 
C -1.55874 2.683901 -0.795609 3 0 3 
z
" style="stroke: #ffffff; stroke-width: 0.427301"/>
     </defs>
     <g>
      <use xlink:href="#mca81b55dfb" x="556.140312" y="108.807187" style="fill: #ea7b60; stroke: #ffffff; stroke-width: 0.427301"/>
     </g>
    </g>
    <g id="text_34">
     <!-- 30 -->
     <g transform="translate(574.140312 112.307187) scale(0.1 -0.1)">
      <use xlink:href="#DejaVuSans-33"/>
      <use xlink:href="#DejaVuSans-30" transform="translate(63.623047 0)"/>
     </g>
    </g>
    <g id="line2d_45"/>
    <g id="text_35">
     <!-- Gene Ratio -->
     <g transform="translate(574.140312 126.985313) scale(0.1 -0.1)">
      <use xlink:href="#DejaVuSans-47"/>
      <use xlink:href="#DejaVuSans-65" transform="translate(77.490234 0)"/>
      <use xlink:href="#DejaVuSans-6e" transform="translate(139.013672 0)"/>
      <use xlink:href="#DejaVuSans-65" transform="translate(202.392578 0)"/>
      <use xlink:href="#DejaVuSans-20" transform="translate(263.916016 0)"/>
      <use xlink:href="#DejaVuSans-52" transform="translate(295.703125 0)"/>
      <use xlink:href="#DejaVuSans-61" transform="translate(362.935547 0)"/>
      <use xlink:href="#DejaVuSans-74" transform="translate(424.214844 0)"/>
      <use xlink:href="#DejaVuSans-69" transform="translate(463.423828 0)"/>
      <use xlink:href="#DejaVuSans-6f" transform="translate(491.207031 0)"/>
     </g>
    </g>
    <g id="line2d_46">
     <defs>
      <path id="m133320128f" d="M 0 2.78103 
C 0.737538 2.78103 1.444967 2.488003 1.966485 1.966485 
C 2.488003 1.444967 2.78103 0.737538 2.78103 0 
C 2.78103 -0.737538 2.488003 -1.444967 1.966485 -1.966485 
C 1.444967 -2.488003 0.737538 -2.78103 0 -2.78103 
C -0.737538 -2.78103 -1.444967 -2.488003 -1.966485 -1.966485 
C -2.488003 -1.444967 -2.78103 -0.737538 -2.78103 0 
C -2.78103 0.737538 -2.488003 1.444967 -1.966485 1.966485 
C -1.444967 2.488003 -0.737538 2.78103 0 2.78103 
z
" style="stroke: #ffffff; stroke-width: 0.427301"/>
     </defs>
     <g>
      <use xlink:href="#m133320128f" x="556.140312" y="138.163437" style="fill: #333333; stroke: #ffffff; stroke-width: 0.427301"/>
     </g>
    </g>
    <g id="text_36">
     <!-- 0.015 -->
     <g transform="translate(574.140312 141.663437) scale(0.1 -0.1)">
      <defs>
       <path id="DejaVuSans-35" d="M 691 4666 
L 3169 4666 
L 3169 4134 
L 1269 4134 
L 1269 2991 
Q 1406 3038 1543 3061 
Q 1681 3084 1819 3084 
Q 2600 3084 3056 2656 
Q 3513 2228 3513 1497 
Q 3513 744 3044 326 
Q 2575 -91 1722 -91 
Q 1428 -91 1123 -41 
Q 819 9 494 109 
L 494 744 
Q 775 591 1075 516 
Q 1375 441 1709 441 
Q 2250 441 2565 725 
Q 2881 1009 2881 1497 
Q 2881 1984 2565 2268 
Q 2250 2553 1709 2553 
Q 1456 2553 1204 2497 
Q 953 2441 691 2322 
L 691 4666 
z
" transform="scale(0.015625)"/>
      </defs>
      <use xlink:href="#DejaVuSans-30"/>
      <use xlink:href="#DejaVuSans-2e" transform="translate(63.623047 0)"/>
      <use xlink:href="#DejaVuSans-30" transform="translate(95.410156 0)"/>
      <use xlink:href="#DejaVuSans-31" transform="translate(159.033203 0)"/>
      <use xlink:href="#DejaVuSans-35" transform="translate(222.65625 0)"/>
     </g>
    </g>
    <g id="line2d_47">
     <defs>
      <path id="m0cba8691e0" d="M 0 3.820371 
C 1.013174 3.820371 1.984988 3.417833 2.701411 2.701411 
C 3.417833 1.984988 3.820371 1.013174 3.820371 0 
C 3.820371 -1.013174 3.417833 -1.984988 2.701411 -2.701411 
C 1.984988 -3.417833 1.013174 -3.820371 0 -3.820371 
C -1.013174 -3.820371 -1.984988 -3.417833 -2.701411 -2.701411 
C -3.417833 -1.984988 -3.820371 -1.013174 -3.820371 0 
C -3.820371 1.013174 -3.417833 1.984988 -2.701411 2.701411 
C -1.984988 3.417833 -1.013174 3.820371 0 3.820371 
z
" style="stroke: #ffffff; stroke-width: 0.427301"/>
     </defs>
     <g>
      <use xlink:href="#m0cba8691e0" x="556.140312" y="152.841563" style="fill: #333333; stroke: #ffffff; stroke-width: 0.427301"/>
     </g>
    </g>
    <g id="text_37">
     <!-- 0.030 -->
     <g transform="translate(574.140312 156.341563) scale(0.1 -0.1)">
      <use xlink:href="#DejaVuSans-30"/>
      <use xlink:href="#DejaVuSans-2e" transform="translate(63.623047 0)"/>
      <use xlink:href="#DejaVuSans-30" transform="translate(95.410156 0)"/>
      <use xlink:href="#DejaVuSans-33" transform="translate(159.033203 0)"/>
      <use xlink:href="#DejaVuSans-30" transform="translate(222.65625 0)"/>
     </g>
    </g>
    <g id="line2d_48">
     <defs>
      <path id="mb554cd6cd6" d="M 0 4.6321 
C 1.228447 4.6321 2.406746 4.144033 3.275389 3.275389 
C 4.144033 2.406746 4.6321 1.228447 4.6321 0 
C 4.6321 -1.228447 4.144033 -2.406746 3.275389 -3.275389 
C 2.406746 -4.144033 1.228447 -4.6321 0 -4.6321 
C -1.228447 -4.6321 -2.406746 -4.144033 -3.275389 -3.275389 
C -4.144033 -2.406746 -4.6321 -1.228447 -4.6321 0 
C -4.6321 1.228447 -4.144033 2.406746 -3.275389 3.275389 
C -2.406746 4.144033 -1.228447 4.6321 0 4.6321 
z
" style="stroke: #ffffff; stroke-width: 0.427301"/>
     </defs>
     <g>
      <use xlink:href="#mb554cd6cd6" x="556.140312" y="167.519687" style="fill: #333333; stroke: #ffffff; stroke-width: 0.427301"/>
     </g>
    </g>
    <g id="text_38">
     <!-- 0.045 -->
     <g transform="translate(574.140312 171.019687) scale(0.1 -0.1)">
      <use xlink:href="#DejaVuSans-30"/>
      <use xlink:href="#DejaVuSans-2e" transform="translate(63.623047 0)"/>
      <use xlink:href="#DejaVuSans-30" transform="translate(95.410156 0)"/>
      <use xlink:href="#DejaVuSans-34" transform="translate(159.033203 0)"/>
      <use xlink:href="#DejaVuSans-35" transform="translate(222.65625 0)"/>
     </g>
    </g>
    <g id="line2d_49">
     <defs>
      <path id="m4afc36afdf" d="M 0 5.321415 
C 1.411256 5.321415 2.7649 4.760717 3.762809 3.762809 
C 4.760717 2.7649 5.321415 1.411256 5.321415 0 
C 5.321415 -1.411256 4.760717 -2.7649 3.762809 -3.762809 
C 2.7649 -4.760717 1.411256 -5.321415 0 -5.321415 
C -1.411256 -5.321415 -2.7649 -4.760717 -3.762809 -3.762809 
C -4.760717 -2.7649 -5.321415 -1.411256 -5.321415 0 
C -5.321415 1.411256 -4.760717 2.7649 -3.762809 3.762809 
C -2.7649 4.760717 -1.411256 5.321415 0 5.321415 
z
" style="stroke: #ffffff; stroke-width: 0.427301"/>
     </defs>
     <g>
      <use xlink:href="#m4afc36afdf" x="556.140312" y="182.197812" style="fill: #333333; stroke: #ffffff; stroke-width: 0.427301"/>
     </g>
    </g>
    <g id="text_39">
     <!-- 0.060 -->
     <g transform="translate(574.140312 185.697812) scale(0.1 -0.1)">
      <use xlink:href="#DejaVuSans-30"/>
      <use xlink:href="#DejaVuSans-2e" transform="translate(63.623047 0)"/>
      <use xlink:href="#DejaVuSans-30" transform="translate(95.410156 0)"/>
      <use xlink:href="#DejaVuSans-36" transform="translate(159.033203 0)"/>
      <use xlink:href="#DejaVuSans-30" transform="translate(222.65625 0)"/>
     </g>
    </g>
    <g id="line2d_50">
     <defs>
      <path id="mbcdad20265" d="M 0 5.931153 
C 1.57296 5.931153 3.081708 5.306209 4.193958 4.193958 
C 5.306209 3.081708 5.931153 1.57296 5.931153 0 
C 5.931153 -1.57296 5.306209 -3.081708 4.193958 -4.193958 
C 3.081708 -5.306209 1.57296 -5.931153 0 -5.931153 
C -1.57296 -5.931153 -3.081708 -5.306209 -4.193958 -4.193958 
C -5.306209 -3.081708 -5.931153 -1.57296 -5.931153 0 
C -5.931153 1.57296 -5.306209 3.081708 -4.193958 4.193958 
C -3.081708 5.306209 -1.57296 5.931153 0 5.931153 
z
" style="stroke: #ffffff; stroke-width: 0.427301"/>
     </defs>
     <g>
      <use xlink:href="#mbcdad20265" x="556.140312" y="196.875937" style="fill: #333333; stroke: #ffffff; stroke-width: 0.427301"/>
     </g>
    </g>
    <g id="text_40">
     <!-- 0.075 -->
     <g transform="translate(574.140312 200.375937) scale(0.1 -0.1)">
      <defs>
       <path id="DejaVuSans-37" d="M 525 4666 
L 3525 4666 
L 3525 4397 
L 1831 0 
L 1172 0 
L 2766 4134 
L 525 4134 
L 525 4666 
z
" transform="scale(0.015625)"/>
      </defs>
      <use xlink:href="#DejaVuSans-30"/>
      <use xlink:href="#DejaVuSans-2e" transform="translate(63.623047 0)"/>
      <use xlink:href="#DejaVuSans-30" transform="translate(95.410156 0)"/>
      <use xlink:href="#DejaVuSans-37" transform="translate(159.033203 0)"/>
      <use xlink:href="#DejaVuSans-35" transform="translate(222.65625 0)"/>
     </g>
    </g>
   </g>
  </g>
 </g>
 <defs>
  <clipPath id="p10ef4638e2">
   <rect x="180.020312" y="22.318125" width="357.12" height="266.112"/>
  </clipPath>
 </defs>
</svg>
