<?xml version="1.0" encoding="utf-8" standalone="no"?>
<!DOCTYPE svg PUBLIC "-//W3C//DTD SVG 1.1//EN"
  "http://www.w3.org/Graphics/SVG/1.1/DTD/svg11.dtd">
<svg xmlns:xlink="http://www.w3.org/1999/xlink" width="687.604375pt" height="325.986375pt" viewBox="0 0 687.604375 325.986375" xmlns="http://www.w3.org/2000/svg" version="1.1">
 <metadata>
  <rdf:RDF xmlns:dc="http://purl.org/dc/elements/1.1/" xmlns:cc="http://creativecommons.org/ns#" xmlns:rdf="http://www.w3.org/1999/02/22-rdf-syntax-ns#">
   <cc:Work>
    <dc:type rdf:resource="http://purl.org/dc/dcmitype/StillImage"/>
    <dc:date>2025-12-27T19:19:32.707184</dc:date>
    <dc:format>image/svg+xml</dc:format>
    <dc:creator>
     <cc:Agent>
      <dc:title>Matplotlib v3.10.7, https://matplotlib.org/</dc:title>
     </cc:Agent>
    </dc:creator>
   </cc:Work>
  </rdf:RDF>
 </metadata>
 <defs>
  <style type="text/css">*{stroke-linejoin: round; stroke-linecap: butt}</style>
 </defs>
 <g id="figure_1">
  <g id="patch_1">
   <path d="M -0 325.986375 
L 687.604375 325.986375 
L 687.604375 0 
L -0 0 
z
" style="fill: #ffffff"/>
  </g>
  <g id="axes_1">
   <g id="patch_2">
    <path d="M 227.045313 288.430125 
L 584.165313 288.430125 
L 584.165313 22.318125 
L 227.045313 22.318125 
z
" style="fill: #ffffff"/>
   </g>
   <g id="PathCollection_1">
    <path d="M 567.932585 36.796788 
C 568.564475 36.796788 569.170569 36.545736 569.617382 36.098922 
C 570.064196 35.652109 570.315248 35.046015 570.315248 34.414125 
C 570.315248 33.782235 570.064196 33.176141 569.617382 32.729328 
C 569.170569 32.282514 568.564475 32.031462 567.932585 32.031462 
C 567.300696 32.031462 566.694601 32.282514 566.247788 32.729328 
C 565.800975 33.176141 565.549922 33.782235 565.549922 34.414125 
C 565.549922 35.046015 565.800975 35.652109 566.247788 36.098922 
C 566.694601 36.545736 567.300696 36.796788 567.932585 36.796788 
z
" clip-path="url(#pfa30d31081)" style="fill: #506bda; stroke: #ffffff; stroke-width: 0.378946"/>
    <path d="M 549.025147 49.382825 
C 549.618159 49.382825 550.186963 49.147218 550.606286 48.727895 
C 551.025609 48.308572 551.261215 47.739769 551.261215 47.146757 
C 551.261215 46.553744 551.025609 45.984941 550.606286 45.565618 
C 550.186963 45.146295 549.618159 44.910689 549.025147 44.910689 
C 548.432135 44.910689 547.863331 45.146295 547.444008 45.565618 
C 547.024685 45.984941 546.789079 46.553744 546.789079 47.146757 
C 546.789079 47.739769 547.024685 48.308572 547.444008 48.727895 
C 547.863331 49.147218 548.432135 49.382825 549.025147 49.382825 
z
" clip-path="url(#pfa30d31081)" style="fill: #3d50c3; stroke: #ffffff; stroke-width: 0.378946"/>
    <path d="M 549.025147 62.115456 
C 549.618159 62.115456 550.186963 61.87985 550.606286 61.460527 
C 551.025609 61.041204 551.261215 60.4724 551.261215 59.879388 
C 551.261215 59.286376 551.025609 58.717572 550.606286 58.298249 
C 550.186963 57.878926 549.618159 57.64332 549.025147 57.64332 
C 548.432135 57.64332 547.863331 57.878926 547.444008 58.298249 
C 547.024685 58.717572 546.789079 59.286376 546.789079 59.879388 
C 546.789079 60.4724 547.024685 61.041204 547.444008 61.460527 
C 547.863331 61.87985 548.432135 62.115456 549.025147 62.115456 
z
" clip-path="url(#pfa30d31081)" style="fill: #3d50c3; stroke: #ffffff; stroke-width: 0.378946"/>
    <path d="M 549.025147 75.26367 
C 549.728373 75.26367 550.402891 74.984276 550.900147 74.48702 
C 551.397403 73.989764 551.676798 73.315246 551.676798 72.61202 
C 551.676798 71.908794 551.397403 71.234276 550.900147 70.73702 
C 550.402891 70.239764 549.728373 69.960369 549.025147 69.960369 
C 548.321921 69.960369 547.647403 70.239764 547.150147 70.73702 
C 546.652891 71.234276 546.373497 71.908794 546.373497 72.61202 
C 546.373497 73.315246 546.652891 73.989764 547.150147 74.48702 
C 547.647403 74.984276 548.321921 75.26367 549.025147 75.26367 
z
" clip-path="url(#pfa30d31081)" style="fill: #6c8ff1; stroke: #ffffff; stroke-width: 0.378946"/>
    <path d="M 432.595134 87.996302 
C 433.29836 87.996302 433.972878 87.716907 434.470134 87.219651 
C 434.96739 86.722396 435.246785 86.047877 435.246785 85.344651 
C 435.246785 84.641425 434.96739 83.966907 434.470134 83.469651 
C 433.972878 82.972396 433.29836 82.693001 432.595134 82.693001 
C 431.891908 82.693001 431.21739 82.972396 430.720134 83.469651 
C 430.222878 83.966907 429.943484 84.641425 429.943484 85.344651 
C 429.943484 86.047877 430.222878 86.722396 430.720134 87.219651 
C 431.21739 87.716907 431.891908 87.996302 432.595134 87.996302 
z
" clip-path="url(#pfa30d31081)" style="fill: #4a63d3; stroke: #ffffff; stroke-width: 0.378946"/>
    <path d="M 420.274498 100.853671 
C 421.010805 100.853671 421.717053 100.561134 422.237701 100.040486 
C 422.758349 99.519838 423.050886 98.81359 423.050886 98.077283 
C 423.050886 97.340976 422.758349 96.634727 422.237701 96.11408 
C 421.717053 95.593432 421.010805 95.300894 420.274498 95.300894 
C 419.538191 95.300894 418.831942 95.593432 418.311295 96.11408 
C 417.790647 96.634727 417.498109 97.340976 417.498109 98.077283 
C 417.498109 98.81359 417.790647 99.519838 418.311295 100.040486 
C 418.831942 100.561134 419.538191 100.853671 420.274498 100.853671 
z
" clip-path="url(#pfa30d31081)" style="fill: #536edd; stroke: #ffffff; stroke-width: 0.378946"/>
    <path d="M 373.45608 113.461565 
C 374.159306 113.461565 374.833824 113.18217 375.33108 112.684914 
C 375.828336 112.187659 376.10773 111.51314 376.10773 110.809914 
C 376.10773 110.106689 375.828336 109.43217 375.33108 108.934914 
C 374.833824 108.437659 374.159306 108.158264 373.45608 108.158264 
C 372.752854 108.158264 372.078336 108.437659 371.58108 108.934914 
C 371.083824 109.43217 370.804429 110.106689 370.804429 110.809914 
C 370.804429 111.51314 371.083824 112.187659 371.58108 112.684914 
C 372.078336 113.18217 372.752854 113.461565 373.45608 113.461565 
z
" clip-path="url(#pfa30d31081)" style="fill: #3b4cc0; stroke: #ffffff; stroke-width: 0.378946"/>
    <path d="M 357.849941 127.070707 
C 358.78562 127.070707 359.683102 126.698957 360.344727 126.037332 
C 361.006352 125.375707 361.378101 124.478225 361.378101 123.542546 
C 361.378101 122.606867 361.006352 121.709385 360.344727 121.04776 
C 359.683102 120.386135 358.78562 120.014386 357.849941 120.014386 
C 356.914261 120.014386 356.016779 120.386135 355.355154 121.04776 
C 354.693529 121.709385 354.32178 122.606867 354.32178 123.542546 
C 354.32178 124.478225 354.693529 125.375707 355.355154 126.037332 
C 356.016779 126.698957 356.914261 127.070707 357.849941 127.070707 
z
" clip-path="url(#pfa30d31081)" style="fill: #90b2fe; stroke: #ffffff; stroke-width: 0.378946"/>
    <path d="M 354.975125 139.898022 
C 355.935915 139.898022 356.857482 139.516296 357.536863 138.836915 
C 358.216244 138.157535 358.59797 137.235967 358.59797 136.275178 
C 358.59797 135.314388 358.216244 134.392821 357.536863 133.71344 
C 356.857482 133.034059 355.935915 132.652333 354.975125 132.652333 
C 354.014336 132.652333 353.092769 133.034059 352.413388 133.71344 
C 351.734007 134.392821 351.352281 135.314388 351.352281 136.275178 
C 351.352281 137.235967 351.734007 138.157535 352.413388 138.836915 
C 353.092769 139.516296 354.014336 139.898022 354.975125 139.898022 
z
" clip-path="url(#pfa30d31081)" style="fill: #9abbff; stroke: #ffffff; stroke-width: 0.378946"/>
    <path d="M 338.342266 152.018208 
C 339.140634 152.018208 339.906409 151.701013 340.47094 151.136483 
C 341.035471 150.571952 341.352665 149.806176 341.352665 149.007809 
C 341.352665 148.209442 341.035471 147.443667 340.47094 146.879136 
C 339.906409 146.314605 339.140634 145.997411 338.342266 145.997411 
C 337.543899 145.997411 336.778124 146.314605 336.213593 146.879136 
C 335.649062 147.443667 335.331868 148.209442 335.331868 149.007809 
C 335.331868 149.806176 335.649062 150.571952 336.213593 151.136483 
C 336.778124 151.701013 337.543899 152.018208 338.342266 152.018208 
z
" clip-path="url(#pfa30d31081)" style="fill: #4e68d8; stroke: #ffffff; stroke-width: 0.378946"/>
    <path d="M 338.342266 164.750839 
C 339.140634 164.750839 339.906409 164.433645 340.47094 163.869114 
C 341.035471 163.304583 341.352665 162.538808 341.352665 161.740441 
C 341.352665 160.942074 341.035471 160.176298 340.47094 159.611767 
C 339.906409 159.047237 339.140634 158.730042 338.342266 158.730042 
C 337.543899 158.730042 336.778124 159.047237 336.213593 159.611767 
C 335.649062 160.176298 335.331868 160.942074 335.331868 161.740441 
C 335.331868 162.538808 335.649062 163.304583 336.213593 163.869114 
C 336.778124 164.433645 337.543899 164.750839 338.342266 164.750839 
z
" clip-path="url(#pfa30d31081)" style="fill: #4e68d8; stroke: #ffffff; stroke-width: 0.378946"/>
    <path d="M 321.435616 177.368831 
C 322.20358 177.368831 322.940193 177.063715 323.483226 176.520683 
C 324.026259 175.97765 324.331374 175.241036 324.331374 174.473072 
C 324.331374 173.705108 324.026259 172.968495 323.483226 172.425462 
C 322.940193 171.882429 322.20358 171.577314 321.435616 171.577314 
C 320.667651 171.577314 319.931038 171.882429 319.388005 172.425462 
C 318.844973 172.968495 318.539857 173.705108 318.539857 174.473072 
C 318.539857 175.241036 318.844973 175.97765 319.388005 176.520683 
C 319.931038 177.063715 320.667651 177.368831 321.435616 177.368831 
z
" clip-path="url(#pfa30d31081)" style="fill: #3e51c5; stroke: #ffffff; stroke-width: 0.378946"/>
    <path d="M 321.435616 190.101462 
C 322.20358 190.101462 322.940193 189.796347 323.483226 189.253314 
C 324.026259 188.710282 324.331374 187.973668 324.331374 187.205704 
C 324.331374 186.43774 324.026259 185.701126 323.483226 185.158094 
C 322.940193 184.615061 322.20358 184.309946 321.435616 184.309946 
C 320.667651 184.309946 319.931038 184.615061 319.388005 185.158094 
C 318.844973 185.701126 318.539857 186.43774 318.539857 187.205704 
C 318.539857 187.973668 318.844973 188.710282 319.388005 189.253314 
C 319.931038 189.796347 320.667651 190.101462 321.435616 190.101462 
z
" clip-path="url(#pfa30d31081)" style="fill: #3e51c5; stroke: #ffffff; stroke-width: 0.378946"/>
    <path d="M 321.435616 202.834094 
C 322.20358 202.834094 322.940193 202.528979 323.483226 201.985946 
C 324.026259 201.442913 324.331374 200.7063 324.331374 199.938336 
C 324.331374 199.170371 324.026259 198.433758 323.483226 197.890725 
C 322.940193 197.347693 322.20358 197.042577 321.435616 197.042577 
C 320.667651 197.042577 319.931038 197.347693 319.388005 197.890725 
C 318.844973 198.433758 318.539857 199.170371 318.539857 199.938336 
C 318.539857 200.7063 318.844973 201.442913 319.388005 201.985946 
C 319.931038 202.528979 320.667651 202.834094 321.435616 202.834094 
z
" clip-path="url(#pfa30d31081)" style="fill: #3e51c5; stroke: #ffffff; stroke-width: 0.378946"/>
    <path d="M 267.258205 216.101832 
C 268.168081 216.101832 269.040813 215.740334 269.684193 215.096955 
C 270.327572 214.453575 270.68907 213.580843 270.68907 212.670967 
C 270.68907 211.761091 270.327572 210.888359 269.684193 210.244979 
C 269.040813 209.6016 268.168081 209.240102 267.258205 209.240102 
C 266.348329 209.240102 265.475597 209.6016 264.832217 210.244979 
C 264.188838 210.888359 263.82734 211.761091 263.82734 212.670967 
C 263.82734 213.580843 264.188838 214.453575 264.832217 215.096955 
C 265.475597 215.740334 266.348329 216.101832 267.258205 216.101832 
z
" clip-path="url(#pfa30d31081)" style="fill: #5470de; stroke: #ffffff; stroke-width: 0.378946"/>
    <path d="M 266.814128 229.382711 
C 267.869401 229.382711 268.881594 228.963446 269.627785 228.217256 
C 270.373976 227.471065 270.79324 226.458872 270.79324 225.403599 
C 270.79324 224.348326 270.373976 223.336132 269.627785 222.589942 
C 268.881594 221.843751 267.869401 221.424487 266.814128 221.424487 
C 265.758855 221.424487 264.746661 221.843751 264.000471 222.589942 
C 263.25428 223.336132 262.835016 224.348326 262.835016 225.403599 
C 262.835016 226.458872 263.25428 227.471065 264.000471 228.217256 
C 264.746661 228.963446 265.758855 229.382711 266.814128 229.382711 
z
" clip-path="url(#pfa30d31081)" style="fill: #8caffe; stroke: #ffffff; stroke-width: 0.378946"/>
    <path d="M 263.36953 242.818867 
C 264.611379 242.818867 265.802533 242.325475 266.680654 241.447354 
C 267.558774 240.569234 268.052166 239.37808 268.052166 238.13623 
C 268.052166 236.894381 267.558774 235.703227 266.680654 234.825106 
C 265.802533 233.946986 264.611379 233.453594 263.36953 233.453594 
C 262.12768 233.453594 260.936526 233.946986 260.058406 234.825106 
C 259.180285 235.703227 258.686893 236.894381 258.686893 238.13623 
C 258.686893 239.37808 259.180285 240.569234 260.058406 241.447354 
C 260.936526 242.325475 262.12768 242.818867 263.36953 242.818867 
z
" clip-path="url(#pfa30d31081)" style="fill: #d7dce3; stroke: #ffffff; stroke-width: 0.378946"/>
    <path d="M 249.923146 255.763587 
C 251.221242 255.763587 252.466346 255.247848 253.384239 254.329955 
C 254.302132 253.412062 254.817871 252.166958 254.817871 250.868862 
C 254.817871 249.570766 254.302132 248.325661 253.384239 247.407769 
C 252.466346 246.489876 251.221242 245.974137 249.923146 245.974137 
C 248.62505 245.974137 247.379945 246.489876 246.462053 247.407769 
C 245.54416 248.325661 245.028421 249.570766 245.028421 250.868862 
C 245.028421 252.166958 245.54416 253.412062 246.462053 254.329955 
C 247.379945 255.247848 248.62505 255.763587 249.923146 255.763587 
z
" clip-path="url(#pfa30d31081)" style="fill: #e0dbd8; stroke: #ffffff; stroke-width: 0.378946"/>
    <path d="M 246.066431 269.725218 
C 247.690462 269.725218 249.248195 269.079984 250.396558 267.93162 
C 251.544921 266.783257 252.190155 265.225524 252.190155 263.601493 
C 252.190155 261.977463 251.544921 260.41973 250.396558 259.271366 
C 249.248195 258.123003 247.690462 257.477769 246.066431 257.477769 
C 244.4424 257.477769 242.884667 258.123003 241.736304 259.271366 
C 240.587941 260.41973 239.942707 261.977463 239.942707 263.601493 
C 239.942707 265.225524 240.587941 266.783257 241.736304 267.93162 
C 242.884667 269.079984 244.4424 269.725218 246.066431 269.725218 
z
" clip-path="url(#pfa30d31081)" style="fill: #b40426; stroke: #ffffff; stroke-width: 0.378946"/>
    <path d="M 243.27804 279.664853 
C 244.161359 279.664853 245.008619 279.313907 245.63322 278.689305 
C 246.257821 278.064704 246.608768 277.217444 246.608768 276.334125 
C 246.608768 275.450806 246.257821 274.603546 245.63322 273.978945 
C 245.008619 273.354343 244.161359 273.003397 243.27804 273.003397 
C 242.39472 273.003397 241.54746 273.354343 240.922859 273.978945 
C 240.298258 274.603546 239.947312 275.450806 239.947312 276.334125 
C 239.947312 277.217444 240.298258 278.064704 240.922859 278.689305 
C 241.54746 279.313907 242.39472 279.664853 243.27804 279.664853 
z
" clip-path="url(#pfa30d31081)" style="fill: #4257c9; stroke: #ffffff; stroke-width: 0.378946"/>
   </g>
   <g id="matplotlib.axis_1">
    <g id="xtick_1">
     <g id="line2d_1">
      <defs>
       <path id="me41a1151d9" d="M 0 0 
L 0 3.5 
" style="stroke: #000000; stroke-width: 0.8"/>
      </defs>
      <g>
       <use xlink:href="#me41a1151d9" x="256.064512" y="288.430125" style="stroke: #000000; stroke-width: 0.8"/>
      </g>
     </g>
     <g id="text_1">
      <!-- 3.5 -->
      <g transform="translate(248.112949 303.028562) scale(0.1 -0.1)">
       <defs>
        <path id="DejaVuSans-33" d="M 2597 2516 
Q 3050 2419 3304 2112 
Q 3559 1806 3559 1356 
Q 3559 666 3084 287 
Q 2609 -91 1734 -91 
Q 1441 -91 1130 -33 
Q 819 25 488 141 
L 488 750 
Q 750 597 1062 519 
Q 1375 441 1716 441 
Q 2309 441 2620 675 
Q 2931 909 2931 1356 
Q 2931 1769 2642 2001 
Q 2353 2234 1838 2234 
L 1294 2234 
L 1294 2753 
L 1863 2753 
Q 2328 2753 2575 2939 
Q 2822 3125 2822 3475 
Q 2822 3834 2567 4026 
Q 2313 4219 1838 4219 
Q 1578 4219 1281 4162 
Q 984 4106 628 3988 
L 628 4550 
Q 988 4650 1302 4700 
Q 1616 4750 1894 4750 
Q 2613 4750 3031 4423 
Q 3450 4097 3450 3541 
Q 3450 3153 3228 2886 
Q 3006 2619 2597 2516 
z
" transform="scale(0.015625)"/>
        <path id="DejaVuSans-2e" d="M 684 794 
L 1344 794 
L 1344 0 
L 684 0 
L 684 794 
z
" transform="scale(0.015625)"/>
        <path id="DejaVuSans-35" d="M 691 4666 
L 3169 4666 
L 3169 4134 
L 1269 4134 
L 1269 2991 
Q 1406 3038 1543 3061 
Q 1681 3084 1819 3084 
Q 2600 3084 3056 2656 
Q 3513 2228 3513 1497 
Q 3513 744 3044 326 
Q 2575 -91 1722 -91 
Q 1428 -91 1123 -41 
Q 819 9 494 109 
L 494 744 
Q 775 591 1075 516 
Q 1375 441 1709 441 
Q 2250 441 2565 725 
Q 2881 1009 2881 1497 
Q 2881 1984 2565 2268 
Q 2250 2553 1709 2553 
Q 1456 2553 1204 2497 
Q 953 2441 691 2322 
L 691 4666 
z
" transform="scale(0.015625)"/>
       </defs>
       <use xlink:href="#DejaVuSans-33"/>
       <use xlink:href="#DejaVuSans-2e" transform="translate(63.623047 0)"/>
       <use xlink:href="#DejaVuSans-35" transform="translate(95.410156 0)"/>
      </g>
     </g>
    </g>
    <g id="xtick_2">
     <g id="line2d_2">
      <g>
       <use xlink:href="#me41a1151d9" x="319.554433" y="288.430125" style="stroke: #000000; stroke-width: 0.8"/>
      </g>
     </g>
     <g id="text_2">
      <!-- 4.0 -->
      <g transform="translate(311.60287 303.028562) scale(0.1 -0.1)">
       <defs>
        <path id="DejaVuSans-34" d="M 2419 4116 
L 825 1625 
L 2419 1625 
L 2419 4116 
z
M 2253 4666 
L 3047 4666 
L 3047 1625 
L 3713 1625 
L 3713 1100 
L 3047 1100 
L 3047 0 
L 2419 0 
L 2419 1100 
L 313 1100 
L 313 1709 
L 2253 4666 
z
" transform="scale(0.015625)"/>
        <path id="DejaVuSans-30" d="M 2034 4250 
Q 1547 4250 1301 3770 
Q 1056 3291 1056 2328 
Q 1056 1369 1301 889 
Q 1547 409 2034 409 
Q 2525 409 2770 889 
Q 3016 1369 3016 2328 
Q 3016 3291 2770 3770 
Q 2525 4250 2034 4250 
z
M 2034 4750 
Q 2819 4750 3233 4129 
Q 3647 3509 3647 2328 
Q 3647 1150 3233 529 
Q 2819 -91 2034 -91 
Q 1250 -91 836 529 
Q 422 1150 422 2328 
Q 422 3509 836 4129 
Q 1250 4750 2034 4750 
z
" transform="scale(0.015625)"/>
       </defs>
       <use xlink:href="#DejaVuSans-34"/>
       <use xlink:href="#DejaVuSans-2e" transform="translate(63.623047 0)"/>
       <use xlink:href="#DejaVuSans-30" transform="translate(95.410156 0)"/>
      </g>
     </g>
    </g>
    <g id="xtick_3">
     <g id="line2d_3">
      <g>
       <use xlink:href="#me41a1151d9" x="383.044354" y="288.430125" style="stroke: #000000; stroke-width: 0.8"/>
      </g>
     </g>
     <g id="text_3">
      <!-- 4.5 -->
      <g transform="translate(375.092791 303.028562) scale(0.1 -0.1)">
       <use xlink:href="#DejaVuSans-34"/>
       <use xlink:href="#DejaVuSans-2e" transform="translate(63.623047 0)"/>
       <use xlink:href="#DejaVuSans-35" transform="translate(95.410156 0)"/>
      </g>
     </g>
    </g>
    <g id="xtick_4">
     <g id="line2d_4">
      <g>
       <use xlink:href="#me41a1151d9" x="446.534275" y="288.430125" style="stroke: #000000; stroke-width: 0.8"/>
      </g>
     </g>
     <g id="text_4">
      <!-- 5.0 -->
      <g transform="translate(438.582712 303.028562) scale(0.1 -0.1)">
       <use xlink:href="#DejaVuSans-35"/>
       <use xlink:href="#DejaVuSans-2e" transform="translate(63.623047 0)"/>
       <use xlink:href="#DejaVuSans-30" transform="translate(95.410156 0)"/>
      </g>
     </g>
    </g>
    <g id="xtick_5">
     <g id="line2d_5">
      <g>
       <use xlink:href="#me41a1151d9" x="510.024196" y="288.430125" style="stroke: #000000; stroke-width: 0.8"/>
      </g>
     </g>
     <g id="text_5">
      <!-- 5.5 -->
      <g transform="translate(502.072633 303.028562) scale(0.1 -0.1)">
       <use xlink:href="#DejaVuSans-35"/>
       <use xlink:href="#DejaVuSans-2e" transform="translate(63.623047 0)"/>
       <use xlink:href="#DejaVuSans-35" transform="translate(95.410156 0)"/>
      </g>
     </g>
    </g>
    <g id="xtick_6">
     <g id="line2d_6">
      <g>
       <use xlink:href="#me41a1151d9" x="573.514117" y="288.430125" style="stroke: #000000; stroke-width: 0.8"/>
      </g>
     </g>
     <g id="text_6">
      <!-- 6.0 -->
      <g transform="translate(565.562554 303.028562) scale(0.1 -0.1)">
       <defs>
        <path id="DejaVuSans-36" d="M 2113 2584 
Q 1688 2584 1439 2293 
Q 1191 2003 1191 1497 
Q 1191 994 1439 701 
Q 1688 409 2113 409 
Q 2538 409 2786 701 
Q 3034 994 3034 1497 
Q 3034 2003 2786 2293 
Q 2538 2584 2113 2584 
z
M 3366 4563 
L 3366 3988 
Q 3128 4100 2886 4159 
Q 2644 4219 2406 4219 
Q 1781 4219 1451 3797 
Q 1122 3375 1075 2522 
Q 1259 2794 1537 2939 
Q 1816 3084 2150 3084 
Q 2853 3084 3261 2657 
Q 3669 2231 3669 1497 
Q 3669 778 3244 343 
Q 2819 -91 2113 -91 
Q 1303 -91 875 529 
Q 447 1150 447 2328 
Q 447 3434 972 4092 
Q 1497 4750 2381 4750 
Q 2619 4750 2861 4703 
Q 3103 4656 3366 4563 
z
" transform="scale(0.015625)"/>
       </defs>
       <use xlink:href="#DejaVuSans-36"/>
       <use xlink:href="#DejaVuSans-2e" transform="translate(63.623047 0)"/>
       <use xlink:href="#DejaVuSans-30" transform="translate(95.410156 0)"/>
      </g>
     </g>
    </g>
    <g id="text_7">
     <!-- Fold Enrichment -->
     <g transform="translate(364.932656 316.706687) scale(0.1 -0.1)">
      <defs>
       <path id="DejaVuSans-46" d="M 628 4666 
L 3309 4666 
L 3309 4134 
L 1259 4134 
L 1259 2759 
L 3109 2759 
L 3109 2228 
L 1259 2228 
L 1259 0 
L 628 0 
L 628 4666 
z
" transform="scale(0.015625)"/>
       <path id="DejaVuSans-6f" d="M 1959 3097 
Q 1497 3097 1228 2736 
Q 959 2375 959 1747 
Q 959 1119 1226 758 
Q 1494 397 1959 397 
Q 2419 397 2687 759 
Q 2956 1122 2956 1747 
Q 2956 2369 2687 2733 
Q 2419 3097 1959 3097 
z
M 1959 3584 
Q 2709 3584 3137 3096 
Q 3566 2609 3566 1747 
Q 3566 888 3137 398 
Q 2709 -91 1959 -91 
Q 1206 -91 779 398 
Q 353 888 353 1747 
Q 353 2609 779 3096 
Q 1206 3584 1959 3584 
z
" transform="scale(0.015625)"/>
       <path id="DejaVuSans-6c" d="M 603 4863 
L 1178 4863 
L 1178 0 
L 603 0 
L 603 4863 
z
" transform="scale(0.015625)"/>
       <path id="DejaVuSans-64" d="M 2906 2969 
L 2906 4863 
L 3481 4863 
L 3481 0 
L 2906 0 
L 2906 525 
Q 2725 213 2448 61 
Q 2172 -91 1784 -91 
Q 1150 -91 751 415 
Q 353 922 353 1747 
Q 353 2572 751 3078 
Q 1150 3584 1784 3584 
Q 2172 3584 2448 3432 
Q 2725 3281 2906 2969 
z
M 947 1747 
Q 947 1113 1208 752 
Q 1469 391 1925 391 
Q 2381 391 2643 752 
Q 2906 1113 2906 1747 
Q 2906 2381 2643 2742 
Q 2381 3103 1925 3103 
Q 1469 3103 1208 2742 
Q 947 2381 947 1747 
z
" transform="scale(0.015625)"/>
       <path id="DejaVuSans-20" transform="scale(0.015625)"/>
       <path id="DejaVuSans-45" d="M 628 4666 
L 3578 4666 
L 3578 4134 
L 1259 4134 
L 1259 2753 
L 3481 2753 
L 3481 2222 
L 1259 2222 
L 1259 531 
L 3634 531 
L 3634 0 
L 628 0 
L 628 4666 
z
" transform="scale(0.015625)"/>
       <path id="DejaVuSans-6e" d="M 3513 2113 
L 3513 0 
L 2938 0 
L 2938 2094 
Q 2938 2591 2744 2837 
Q 2550 3084 2163 3084 
Q 1697 3084 1428 2787 
Q 1159 2491 1159 1978 
L 1159 0 
L 581 0 
L 581 3500 
L 1159 3500 
L 1159 2956 
Q 1366 3272 1645 3428 
Q 1925 3584 2291 3584 
Q 2894 3584 3203 3211 
Q 3513 2838 3513 2113 
z
" transform="scale(0.015625)"/>
       <path id="DejaVuSans-72" d="M 2631 2963 
Q 2534 3019 2420 3045 
Q 2306 3072 2169 3072 
Q 1681 3072 1420 2755 
Q 1159 2438 1159 1844 
L 1159 0 
L 581 0 
L 581 3500 
L 1159 3500 
L 1159 2956 
Q 1341 3275 1631 3429 
Q 1922 3584 2338 3584 
Q 2397 3584 2469 3576 
Q 2541 3569 2628 3553 
L 2631 2963 
z
" transform="scale(0.015625)"/>
       <path id="DejaVuSans-69" d="M 603 3500 
L 1178 3500 
L 1178 0 
L 603 0 
L 603 3500 
z
M 603 4863 
L 1178 4863 
L 1178 4134 
L 603 4134 
L 603 4863 
z
" transform="scale(0.015625)"/>
       <path id="DejaVuSans-63" d="M 3122 3366 
L 3122 2828 
Q 2878 2963 2633 3030 
Q 2388 3097 2138 3097 
Q 1578 3097 1268 2742 
Q 959 2388 959 1747 
Q 959 1106 1268 751 
Q 1578 397 2138 397 
Q 2388 397 2633 464 
Q 2878 531 3122 666 
L 3122 134 
Q 2881 22 2623 -34 
Q 2366 -91 2075 -91 
Q 1284 -91 818 406 
Q 353 903 353 1747 
Q 353 2603 823 3093 
Q 1294 3584 2113 3584 
Q 2378 3584 2631 3529 
Q 2884 3475 3122 3366 
z
" transform="scale(0.015625)"/>
       <path id="DejaVuSans-68" d="M 3513 2113 
L 3513 0 
L 2938 0 
L 2938 2094 
Q 2938 2591 2744 2837 
Q 2550 3084 2163 3084 
Q 1697 3084 1428 2787 
Q 1159 2491 1159 1978 
L 1159 0 
L 581 0 
L 581 4863 
L 1159 4863 
L 1159 2956 
Q 1366 3272 1645 3428 
Q 1925 3584 2291 3584 
Q 2894 3584 3203 3211 
Q 3513 2838 3513 2113 
z
" transform="scale(0.015625)"/>
       <path id="DejaVuSans-6d" d="M 3328 2828 
Q 3544 3216 3844 3400 
Q 4144 3584 4550 3584 
Q 5097 3584 5394 3201 
Q 5691 2819 5691 2113 
L 5691 0 
L 5113 0 
L 5113 2094 
Q 5113 2597 4934 2840 
Q 4756 3084 4391 3084 
Q 3944 3084 3684 2787 
Q 3425 2491 3425 1978 
L 3425 0 
L 2847 0 
L 2847 2094 
Q 2847 2600 2669 2842 
Q 2491 3084 2119 3084 
Q 1678 3084 1418 2786 
Q 1159 2488 1159 1978 
L 1159 0 
L 581 0 
L 581 3500 
L 1159 3500 
L 1159 2956 
Q 1356 3278 1631 3431 
Q 1906 3584 2284 3584 
Q 2666 3584 2933 3390 
Q 3200 3197 3328 2828 
z
" transform="scale(0.015625)"/>
       <path id="DejaVuSans-65" d="M 3597 1894 
L 3597 1613 
L 953 1613 
Q 991 1019 1311 708 
Q 1631 397 2203 397 
Q 2534 397 2845 478 
Q 3156 559 3463 722 
L 3463 178 
Q 3153 47 2828 -22 
Q 2503 -91 2169 -91 
Q 1331 -91 842 396 
Q 353 884 353 1716 
Q 353 2575 817 3079 
Q 1281 3584 2069 3584 
Q 2775 3584 3186 3129 
Q 3597 2675 3597 1894 
z
M 3022 2063 
Q 3016 2534 2758 2815 
Q 2500 3097 2075 3097 
Q 1594 3097 1305 2825 
Q 1016 2553 972 2059 
L 3022 2063 
z
" transform="scale(0.015625)"/>
       <path id="DejaVuSans-74" d="M 1172 4494 
L 1172 3500 
L 2356 3500 
L 2356 3053 
L 1172 3053 
L 1172 1153 
Q 1172 725 1289 603 
Q 1406 481 1766 481 
L 2356 481 
L 2356 0 
L 1766 0 
Q 1100 0 847 248 
Q 594 497 594 1153 
L 594 3053 
L 172 3053 
L 172 3500 
L 594 3500 
L 594 4494 
L 1172 4494 
z
" transform="scale(0.015625)"/>
      </defs>
      <use xlink:href="#DejaVuSans-46"/>
      <use xlink:href="#DejaVuSans-6f" transform="translate(53.894531 0)"/>
      <use xlink:href="#DejaVuSans-6c" transform="translate(115.076172 0)"/>
      <use xlink:href="#DejaVuSans-64" transform="translate(142.859375 0)"/>
      <use xlink:href="#DejaVuSans-20" transform="translate(206.335938 0)"/>
      <use xlink:href="#DejaVuSans-45" transform="translate(238.123047 0)"/>
      <use xlink:href="#DejaVuSans-6e" transform="translate(301.306641 0)"/>
      <use xlink:href="#DejaVuSans-72" transform="translate(364.685547 0)"/>
      <use xlink:href="#DejaVuSans-69" transform="translate(405.798828 0)"/>
      <use xlink:href="#DejaVuSans-63" transform="translate(433.582031 0)"/>
      <use xlink:href="#DejaVuSans-68" transform="translate(488.5625 0)"/>
      <use xlink:href="#DejaVuSans-6d" transform="translate(551.941406 0)"/>
      <use xlink:href="#DejaVuSans-65" transform="translate(649.353516 0)"/>
      <use xlink:href="#DejaVuSans-6e" transform="translate(710.876953 0)"/>
      <use xlink:href="#DejaVuSans-74" transform="translate(774.255859 0)"/>
     </g>
    </g>
   </g>
   <g id="matplotlib.axis_2">
    <g id="ytick_1">
     <g id="line2d_7">
      <defs>
       <path id="mf6ee6e351a" d="M 0 0 
L -3.5 0 
" style="stroke: #000000; stroke-width: 0.8"/>
      </defs>
      <g>
       <use xlink:href="#mf6ee6e351a" x="227.045313" y="34.414125" style="stroke: #000000; stroke-width: 0.8"/>
      </g>
     </g>
     <g id="text_8">
      <!-- Centrocecal scotoma -->
      <g transform="translate(114.678125 38.213344) scale(0.1 -0.1)">
       <defs>
        <path id="DejaVuSans-43" d="M 4122 4306 
L 4122 3641 
Q 3803 3938 3442 4084 
Q 3081 4231 2675 4231 
Q 1875 4231 1450 3742 
Q 1025 3253 1025 2328 
Q 1025 1406 1450 917 
Q 1875 428 2675 428 
Q 3081 428 3442 575 
Q 3803 722 4122 1019 
L 4122 359 
Q 3791 134 3420 21 
Q 3050 -91 2638 -91 
Q 1578 -91 968 557 
Q 359 1206 359 2328 
Q 359 3453 968 4101 
Q 1578 4750 2638 4750 
Q 3056 4750 3426 4639 
Q 3797 4528 4122 4306 
z
" transform="scale(0.015625)"/>
        <path id="DejaVuSans-61" d="M 2194 1759 
Q 1497 1759 1228 1600 
Q 959 1441 959 1056 
Q 959 750 1161 570 
Q 1363 391 1709 391 
Q 2188 391 2477 730 
Q 2766 1069 2766 1631 
L 2766 1759 
L 2194 1759 
z
M 3341 1997 
L 3341 0 
L 2766 0 
L 2766 531 
Q 2569 213 2275 61 
Q 1981 -91 1556 -91 
Q 1019 -91 701 211 
Q 384 513 384 1019 
Q 384 1609 779 1909 
Q 1175 2209 1959 2209 
L 2766 2209 
L 2766 2266 
Q 2766 2663 2505 2880 
Q 2244 3097 1772 3097 
Q 1472 3097 1187 3025 
Q 903 2953 641 2809 
L 641 3341 
Q 956 3463 1253 3523 
Q 1550 3584 1831 3584 
Q 2591 3584 2966 3190 
Q 3341 2797 3341 1997 
z
" transform="scale(0.015625)"/>
        <path id="DejaVuSans-73" d="M 2834 3397 
L 2834 2853 
Q 2591 2978 2328 3040 
Q 2066 3103 1784 3103 
Q 1356 3103 1142 2972 
Q 928 2841 928 2578 
Q 928 2378 1081 2264 
Q 1234 2150 1697 2047 
L 1894 2003 
Q 2506 1872 2764 1633 
Q 3022 1394 3022 966 
Q 3022 478 2636 193 
Q 2250 -91 1575 -91 
Q 1294 -91 989 -36 
Q 684 19 347 128 
L 347 722 
Q 666 556 975 473 
Q 1284 391 1588 391 
Q 1994 391 2212 530 
Q 2431 669 2431 922 
Q 2431 1156 2273 1281 
Q 2116 1406 1581 1522 
L 1381 1569 
Q 847 1681 609 1914 
Q 372 2147 372 2553 
Q 372 3047 722 3315 
Q 1072 3584 1716 3584 
Q 2034 3584 2315 3537 
Q 2597 3491 2834 3397 
z
" transform="scale(0.015625)"/>
       </defs>
       <use xlink:href="#DejaVuSans-43"/>
       <use xlink:href="#DejaVuSans-65" transform="translate(69.824219 0)"/>
       <use xlink:href="#DejaVuSans-6e" transform="translate(131.347656 0)"/>
       <use xlink:href="#DejaVuSans-74" transform="translate(194.726562 0)"/>
       <use xlink:href="#DejaVuSans-72" transform="translate(233.935547 0)"/>
       <use xlink:href="#DejaVuSans-6f" transform="translate(272.798828 0)"/>
       <use xlink:href="#DejaVuSans-63" transform="translate(333.980469 0)"/>
       <use xlink:href="#DejaVuSans-65" transform="translate(388.960938 0)"/>
       <use xlink:href="#DejaVuSans-63" transform="translate(450.484375 0)"/>
       <use xlink:href="#DejaVuSans-61" transform="translate(505.464844 0)"/>
       <use xlink:href="#DejaVuSans-6c" transform="translate(566.744141 0)"/>
       <use xlink:href="#DejaVuSans-20" transform="translate(594.527344 0)"/>
       <use xlink:href="#DejaVuSans-73" transform="translate(626.314453 0)"/>
       <use xlink:href="#DejaVuSans-63" transform="translate(678.414062 0)"/>
       <use xlink:href="#DejaVuSans-6f" transform="translate(733.394531 0)"/>
       <use xlink:href="#DejaVuSans-74" transform="translate(794.576172 0)"/>
       <use xlink:href="#DejaVuSans-6f" transform="translate(833.785156 0)"/>
       <use xlink:href="#DejaVuSans-6d" transform="translate(894.966797 0)"/>
       <use xlink:href="#DejaVuSans-61" transform="translate(992.378906 0)"/>
      </g>
     </g>
    </g>
    <g id="ytick_2">
     <g id="line2d_8">
      <g>
       <use xlink:href="#mf6ee6e351a" x="227.045313" y="47.146757" style="stroke: #000000; stroke-width: 0.8"/>
      </g>
     </g>
     <g id="text_9">
      <!-- Central retinal vessel vascular tortuosity -->
      <g transform="translate(17.05625 50.945975) scale(0.1 -0.1)">
       <defs>
        <path id="DejaVuSans-76" d="M 191 3500 
L 800 3500 
L 1894 563 
L 2988 3500 
L 3597 3500 
L 2284 0 
L 1503 0 
L 191 3500 
z
" transform="scale(0.015625)"/>
        <path id="DejaVuSans-75" d="M 544 1381 
L 544 3500 
L 1119 3500 
L 1119 1403 
Q 1119 906 1312 657 
Q 1506 409 1894 409 
Q 2359 409 2629 706 
Q 2900 1003 2900 1516 
L 2900 3500 
L 3475 3500 
L 3475 0 
L 2900 0 
L 2900 538 
Q 2691 219 2414 64 
Q 2138 -91 1772 -91 
Q 1169 -91 856 284 
Q 544 659 544 1381 
z
M 1991 3584 
L 1991 3584 
z
" transform="scale(0.015625)"/>
        <path id="DejaVuSans-79" d="M 2059 -325 
Q 1816 -950 1584 -1140 
Q 1353 -1331 966 -1331 
L 506 -1331 
L 506 -850 
L 844 -850 
Q 1081 -850 1212 -737 
Q 1344 -625 1503 -206 
L 1606 56 
L 191 3500 
L 800 3500 
L 1894 763 
L 2988 3500 
L 3597 3500 
L 2059 -325 
z
" transform="scale(0.015625)"/>
       </defs>
       <use xlink:href="#DejaVuSans-43"/>
       <use xlink:href="#DejaVuSans-65" transform="translate(69.824219 0)"/>
       <use xlink:href="#DejaVuSans-6e" transform="translate(131.347656 0)"/>
       <use xlink:href="#DejaVuSans-74" transform="translate(194.726562 0)"/>
       <use xlink:href="#DejaVuSans-72" transform="translate(233.935547 0)"/>
       <use xlink:href="#DejaVuSans-61" transform="translate(275.048828 0)"/>
       <use xlink:href="#DejaVuSans-6c" transform="translate(336.328125 0)"/>
       <use xlink:href="#DejaVuSans-20" transform="translate(364.111328 0)"/>
       <use xlink:href="#DejaVuSans-72" transform="translate(395.898438 0)"/>
       <use xlink:href="#DejaVuSans-65" transform="translate(434.761719 0)"/>
       <use xlink:href="#DejaVuSans-74" transform="translate(496.285156 0)"/>
       <use xlink:href="#DejaVuSans-69" transform="translate(535.494141 0)"/>
       <use xlink:href="#DejaVuSans-6e" transform="translate(563.277344 0)"/>
       <use xlink:href="#DejaVuSans-61" transform="translate(626.65625 0)"/>
       <use xlink:href="#DejaVuSans-6c" transform="translate(687.935547 0)"/>
       <use xlink:href="#DejaVuSans-20" transform="translate(715.71875 0)"/>
       <use xlink:href="#DejaVuSans-76" transform="translate(747.505859 0)"/>
       <use xlink:href="#DejaVuSans-65" transform="translate(806.685547 0)"/>
       <use xlink:href="#DejaVuSans-73" transform="translate(868.208984 0)"/>
       <use xlink:href="#DejaVuSans-73" transform="translate(920.308594 0)"/>
       <use xlink:href="#DejaVuSans-65" transform="translate(972.408203 0)"/>
       <use xlink:href="#DejaVuSans-6c" transform="translate(1033.931641 0)"/>
       <use xlink:href="#DejaVuSans-20" transform="translate(1061.714844 0)"/>
       <use xlink:href="#DejaVuSans-76" transform="translate(1093.501953 0)"/>
       <use xlink:href="#DejaVuSans-61" transform="translate(1152.681641 0)"/>
       <use xlink:href="#DejaVuSans-73" transform="translate(1213.960938 0)"/>
       <use xlink:href="#DejaVuSans-63" transform="translate(1266.060547 0)"/>
       <use xlink:href="#DejaVuSans-75" transform="translate(1321.041016 0)"/>
       <use xlink:href="#DejaVuSans-6c" transform="translate(1384.419922 0)"/>
       <use xlink:href="#DejaVuSans-61" transform="translate(1412.203125 0)"/>
       <use xlink:href="#DejaVuSans-72" transform="translate(1473.482422 0)"/>
       <use xlink:href="#DejaVuSans-20" transform="translate(1514.595703 0)"/>
       <use xlink:href="#DejaVuSans-74" transform="translate(1546.382812 0)"/>
       <use xlink:href="#DejaVuSans-6f" transform="translate(1585.591797 0)"/>
       <use xlink:href="#DejaVuSans-72" transform="translate(1646.773438 0)"/>
       <use xlink:href="#DejaVuSans-74" transform="translate(1687.886719 0)"/>
       <use xlink:href="#DejaVuSans-75" transform="translate(1727.095703 0)"/>
       <use xlink:href="#DejaVuSans-6f" transform="translate(1790.474609 0)"/>
       <use xlink:href="#DejaVuSans-73" transform="translate(1851.65625 0)"/>
       <use xlink:href="#DejaVuSans-69" transform="translate(1903.755859 0)"/>
       <use xlink:href="#DejaVuSans-74" transform="translate(1931.539062 0)"/>
       <use xlink:href="#DejaVuSans-79" transform="translate(1970.748047 0)"/>
      </g>
     </g>
    </g>
    <g id="ytick_3">
     <g id="line2d_9">
      <g>
       <use xlink:href="#mf6ee6e351a" x="227.045313" y="59.879388" style="stroke: #000000; stroke-width: 0.8"/>
      </g>
     </g>
     <g id="text_10">
      <!-- Reduced contrast sensitivity -->
      <g transform="translate(78.185938 63.678607) scale(0.1 -0.1)">
       <defs>
        <path id="DejaVuSans-52" d="M 2841 2188 
Q 3044 2119 3236 1894 
Q 3428 1669 3622 1275 
L 4263 0 
L 3584 0 
L 2988 1197 
Q 2756 1666 2539 1819 
Q 2322 1972 1947 1972 
L 1259 1972 
L 1259 0 
L 628 0 
L 628 4666 
L 2053 4666 
Q 2853 4666 3247 4331 
Q 3641 3997 3641 3322 
Q 3641 2881 3436 2590 
Q 3231 2300 2841 2188 
z
M 1259 4147 
L 1259 2491 
L 2053 2491 
Q 2509 2491 2742 2702 
Q 2975 2913 2975 3322 
Q 2975 3731 2742 3939 
Q 2509 4147 2053 4147 
L 1259 4147 
z
" transform="scale(0.015625)"/>
       </defs>
       <use xlink:href="#DejaVuSans-52"/>
       <use xlink:href="#DejaVuSans-65" transform="translate(64.982422 0)"/>
       <use xlink:href="#DejaVuSans-64" transform="translate(126.505859 0)"/>
       <use xlink:href="#DejaVuSans-75" transform="translate(189.982422 0)"/>
       <use xlink:href="#DejaVuSans-63" transform="translate(253.361328 0)"/>
       <use xlink:href="#DejaVuSans-65" transform="translate(308.341797 0)"/>
       <use xlink:href="#DejaVuSans-64" transform="translate(369.865234 0)"/>
       <use xlink:href="#DejaVuSans-20" transform="translate(433.341797 0)"/>
       <use xlink:href="#DejaVuSans-63" transform="translate(465.128906 0)"/>
       <use xlink:href="#DejaVuSans-6f" transform="translate(520.109375 0)"/>
       <use xlink:href="#DejaVuSans-6e" transform="translate(581.291016 0)"/>
       <use xlink:href="#DejaVuSans-74" transform="translate(644.669922 0)"/>
       <use xlink:href="#DejaVuSans-72" transform="translate(683.878906 0)"/>
       <use xlink:href="#DejaVuSans-61" transform="translate(724.992188 0)"/>
       <use xlink:href="#DejaVuSans-73" transform="translate(786.271484 0)"/>
       <use xlink:href="#DejaVuSans-74" transform="translate(838.371094 0)"/>
       <use xlink:href="#DejaVuSans-20" transform="translate(877.580078 0)"/>
       <use xlink:href="#DejaVuSans-73" transform="translate(909.367188 0)"/>
       <use xlink:href="#DejaVuSans-65" transform="translate(961.466797 0)"/>
       <use xlink:href="#DejaVuSans-6e" transform="translate(1022.990234 0)"/>
       <use xlink:href="#DejaVuSans-73" transform="translate(1086.369141 0)"/>
       <use xlink:href="#DejaVuSans-69" transform="translate(1138.46875 0)"/>
       <use xlink:href="#DejaVuSans-74" transform="translate(1166.251953 0)"/>
       <use xlink:href="#DejaVuSans-69" transform="translate(1205.460938 0)"/>
       <use xlink:href="#DejaVuSans-76" transform="translate(1233.244141 0)"/>
       <use xlink:href="#DejaVuSans-69" transform="translate(1292.423828 0)"/>
       <use xlink:href="#DejaVuSans-74" transform="translate(1320.207031 0)"/>
       <use xlink:href="#DejaVuSans-79" transform="translate(1359.416016 0)"/>
      </g>
     </g>
    </g>
    <g id="ytick_4">
     <g id="line2d_10">
      <g>
       <use xlink:href="#mf6ee6e351a" x="227.045313" y="72.61202" style="stroke: #000000; stroke-width: 0.8"/>
      </g>
     </g>
     <g id="text_11">
      <!-- Tics -->
      <g transform="translate(200.764063 76.411238) scale(0.1 -0.1)">
       <defs>
        <path id="DejaVuSans-54" d="M -19 4666 
L 3928 4666 
L 3928 4134 
L 2272 4134 
L 2272 0 
L 1638 0 
L 1638 4134 
L -19 4134 
L -19 4666 
z
" transform="scale(0.015625)"/>
       </defs>
       <use xlink:href="#DejaVuSans-54"/>
       <use xlink:href="#DejaVuSans-69" transform="translate(57.958984 0)"/>
       <use xlink:href="#DejaVuSans-63" transform="translate(85.742188 0)"/>
       <use xlink:href="#DejaVuSans-73" transform="translate(140.722656 0)"/>
      </g>
     </g>
    </g>
    <g id="ytick_5">
     <g id="line2d_11">
      <g>
       <use xlink:href="#mf6ee6e351a" x="227.045313" y="85.344651" style="stroke: #000000; stroke-width: 0.8"/>
      </g>
     </g>
     <g id="text_12">
      <!-- Mitochondrial respiratory chain defects -->
      <g transform="translate(24.064063 89.14387) scale(0.1 -0.1)">
       <defs>
        <path id="DejaVuSans-4d" d="M 628 4666 
L 1569 4666 
L 2759 1491 
L 3956 4666 
L 4897 4666 
L 4897 0 
L 4281 0 
L 4281 4097 
L 3078 897 
L 2444 897 
L 1241 4097 
L 1241 0 
L 628 0 
L 628 4666 
z
" transform="scale(0.015625)"/>
        <path id="DejaVuSans-70" d="M 1159 525 
L 1159 -1331 
L 581 -1331 
L 581 3500 
L 1159 3500 
L 1159 2969 
Q 1341 3281 1617 3432 
Q 1894 3584 2278 3584 
Q 2916 3584 3314 3078 
Q 3713 2572 3713 1747 
Q 3713 922 3314 415 
Q 2916 -91 2278 -91 
Q 1894 -91 1617 61 
Q 1341 213 1159 525 
z
M 3116 1747 
Q 3116 2381 2855 2742 
Q 2594 3103 2138 3103 
Q 1681 3103 1420 2742 
Q 1159 2381 1159 1747 
Q 1159 1113 1420 752 
Q 1681 391 2138 391 
Q 2594 391 2855 752 
Q 3116 1113 3116 1747 
z
" transform="scale(0.015625)"/>
        <path id="DejaVuSans-66" d="M 2375 4863 
L 2375 4384 
L 1825 4384 
Q 1516 4384 1395 4259 
Q 1275 4134 1275 3809 
L 1275 3500 
L 2222 3500 
L 2222 3053 
L 1275 3053 
L 1275 0 
L 697 0 
L 697 3053 
L 147 3053 
L 147 3500 
L 697 3500 
L 697 3744 
Q 697 4328 969 4595 
Q 1241 4863 1831 4863 
L 2375 4863 
z
" transform="scale(0.015625)"/>
       </defs>
       <use xlink:href="#DejaVuSans-4d"/>
       <use xlink:href="#DejaVuSans-69" transform="translate(86.279297 0)"/>
       <use xlink:href="#DejaVuSans-74" transform="translate(114.0625 0)"/>
       <use xlink:href="#DejaVuSans-6f" transform="translate(153.271484 0)"/>
       <use xlink:href="#DejaVuSans-63" transform="translate(214.453125 0)"/>
       <use xlink:href="#DejaVuSans-68" transform="translate(269.433594 0)"/>
       <use xlink:href="#DejaVuSans-6f" transform="translate(332.8125 0)"/>
       <use xlink:href="#DejaVuSans-6e" transform="translate(393.994141 0)"/>
       <use xlink:href="#DejaVuSans-64" transform="translate(457.373047 0)"/>
       <use xlink:href="#DejaVuSans-72" transform="translate(520.849609 0)"/>
       <use xlink:href="#DejaVuSans-69" transform="translate(561.962891 0)"/>
       <use xlink:href="#DejaVuSans-61" transform="translate(589.746094 0)"/>
       <use xlink:href="#DejaVuSans-6c" transform="translate(651.025391 0)"/>
       <use xlink:href="#DejaVuSans-20" transform="translate(678.808594 0)"/>
       <use xlink:href="#DejaVuSans-72" transform="translate(710.595703 0)"/>
       <use xlink:href="#DejaVuSans-65" transform="translate(749.458984 0)"/>
       <use xlink:href="#DejaVuSans-73" transform="translate(810.982422 0)"/>
       <use xlink:href="#DejaVuSans-70" transform="translate(863.082031 0)"/>
       <use xlink:href="#DejaVuSans-69" transform="translate(926.558594 0)"/>
       <use xlink:href="#DejaVuSans-72" transform="translate(954.341797 0)"/>
       <use xlink:href="#DejaVuSans-61" transform="translate(995.455078 0)"/>
       <use xlink:href="#DejaVuSans-74" transform="translate(1056.734375 0)"/>
       <use xlink:href="#DejaVuSans-6f" transform="translate(1095.943359 0)"/>
       <use xlink:href="#DejaVuSans-72" transform="translate(1157.125 0)"/>
       <use xlink:href="#DejaVuSans-79" transform="translate(1198.238281 0)"/>
       <use xlink:href="#DejaVuSans-20" transform="translate(1257.417969 0)"/>
       <use xlink:href="#DejaVuSans-63" transform="translate(1289.205078 0)"/>
       <use xlink:href="#DejaVuSans-68" transform="translate(1344.185547 0)"/>
       <use xlink:href="#DejaVuSans-61" transform="translate(1407.564453 0)"/>
       <use xlink:href="#DejaVuSans-69" transform="translate(1468.84375 0)"/>
       <use xlink:href="#DejaVuSans-6e" transform="translate(1496.626953 0)"/>
       <use xlink:href="#DejaVuSans-20" transform="translate(1560.005859 0)"/>
       <use xlink:href="#DejaVuSans-64" transform="translate(1591.792969 0)"/>
       <use xlink:href="#DejaVuSans-65" transform="translate(1655.269531 0)"/>
       <use xlink:href="#DejaVuSans-66" transform="translate(1716.792969 0)"/>
       <use xlink:href="#DejaVuSans-65" transform="translate(1751.998047 0)"/>
       <use xlink:href="#DejaVuSans-63" transform="translate(1813.521484 0)"/>
       <use xlink:href="#DejaVuSans-74" transform="translate(1868.501953 0)"/>
       <use xlink:href="#DejaVuSans-73" transform="translate(1907.710938 0)"/>
      </g>
     </g>
    </g>
    <g id="ytick_6">
     <g id="line2d_12">
      <g>
       <use xlink:href="#mf6ee6e351a" x="227.045313" y="98.077283" style="stroke: #000000; stroke-width: 0.8"/>
      </g>
     </g>
     <g id="text_13">
      <!-- Happy demeanor -->
      <g transform="translate(133.5125 101.876502) scale(0.1 -0.1)">
       <defs>
        <path id="DejaVuSans-48" d="M 628 4666 
L 1259 4666 
L 1259 2753 
L 3553 2753 
L 3553 4666 
L 4184 4666 
L 4184 0 
L 3553 0 
L 3553 2222 
L 1259 2222 
L 1259 0 
L 628 0 
L 628 4666 
z
" transform="scale(0.015625)"/>
       </defs>
       <use xlink:href="#DejaVuSans-48"/>
       <use xlink:href="#DejaVuSans-61" transform="translate(75.195312 0)"/>
       <use xlink:href="#DejaVuSans-70" transform="translate(136.474609 0)"/>
       <use xlink:href="#DejaVuSans-70" transform="translate(199.951172 0)"/>
       <use xlink:href="#DejaVuSans-79" transform="translate(263.427734 0)"/>
       <use xlink:href="#DejaVuSans-20" transform="translate(322.607422 0)"/>
       <use xlink:href="#DejaVuSans-64" transform="translate(354.394531 0)"/>
       <use xlink:href="#DejaVuSans-65" transform="translate(417.871094 0)"/>
       <use xlink:href="#DejaVuSans-6d" transform="translate(479.394531 0)"/>
       <use xlink:href="#DejaVuSans-65" transform="translate(576.806641 0)"/>
       <use xlink:href="#DejaVuSans-61" transform="translate(638.330078 0)"/>
       <use xlink:href="#DejaVuSans-6e" transform="translate(699.609375 0)"/>
       <use xlink:href="#DejaVuSans-6f" transform="translate(762.988281 0)"/>
       <use xlink:href="#DejaVuSans-72" transform="translate(824.169922 0)"/>
      </g>
     </g>
    </g>
    <g id="ytick_7">
     <g id="line2d_13">
      <g>
       <use xlink:href="#mf6ee6e351a" x="227.045313" y="110.809914" style="stroke: #000000; stroke-width: 0.8"/>
      </g>
     </g>
     <g id="text_14">
      <!-- Focal T2 hyperintense basal ganglia lesion -->
      <g transform="translate(7.2 114.609133) scale(0.1 -0.1)">
       <defs>
        <path id="DejaVuSans-32" d="M 1228 531 
L 3431 531 
L 3431 0 
L 469 0 
L 469 531 
Q 828 903 1448 1529 
Q 2069 2156 2228 2338 
Q 2531 2678 2651 2914 
Q 2772 3150 2772 3378 
Q 2772 3750 2511 3984 
Q 2250 4219 1831 4219 
Q 1534 4219 1204 4116 
Q 875 4013 500 3803 
L 500 4441 
Q 881 4594 1212 4672 
Q 1544 4750 1819 4750 
Q 2544 4750 2975 4387 
Q 3406 4025 3406 3419 
Q 3406 3131 3298 2873 
Q 3191 2616 2906 2266 
Q 2828 2175 2409 1742 
Q 1991 1309 1228 531 
z
" transform="scale(0.015625)"/>
        <path id="DejaVuSans-62" d="M 3116 1747 
Q 3116 2381 2855 2742 
Q 2594 3103 2138 3103 
Q 1681 3103 1420 2742 
Q 1159 2381 1159 1747 
Q 1159 1113 1420 752 
Q 1681 391 2138 391 
Q 2594 391 2855 752 
Q 3116 1113 3116 1747 
z
M 1159 2969 
Q 1341 3281 1617 3432 
Q 1894 3584 2278 3584 
Q 2916 3584 3314 3078 
Q 3713 2572 3713 1747 
Q 3713 922 3314 415 
Q 2916 -91 2278 -91 
Q 1894 -91 1617 61 
Q 1341 213 1159 525 
L 1159 0 
L 581 0 
L 581 4863 
L 1159 4863 
L 1159 2969 
z
" transform="scale(0.015625)"/>
        <path id="DejaVuSans-67" d="M 2906 1791 
Q 2906 2416 2648 2759 
Q 2391 3103 1925 3103 
Q 1463 3103 1205 2759 
Q 947 2416 947 1791 
Q 947 1169 1205 825 
Q 1463 481 1925 481 
Q 2391 481 2648 825 
Q 2906 1169 2906 1791 
z
M 3481 434 
Q 3481 -459 3084 -895 
Q 2688 -1331 1869 -1331 
Q 1566 -1331 1297 -1286 
Q 1028 -1241 775 -1147 
L 775 -588 
Q 1028 -725 1275 -790 
Q 1522 -856 1778 -856 
Q 2344 -856 2625 -561 
Q 2906 -266 2906 331 
L 2906 616 
Q 2728 306 2450 153 
Q 2172 0 1784 0 
Q 1141 0 747 490 
Q 353 981 353 1791 
Q 353 2603 747 3093 
Q 1141 3584 1784 3584 
Q 2172 3584 2450 3431 
Q 2728 3278 2906 2969 
L 2906 3500 
L 3481 3500 
L 3481 434 
z
" transform="scale(0.015625)"/>
       </defs>
       <use xlink:href="#DejaVuSans-46"/>
       <use xlink:href="#DejaVuSans-6f" transform="translate(53.894531 0)"/>
       <use xlink:href="#DejaVuSans-63" transform="translate(115.076172 0)"/>
       <use xlink:href="#DejaVuSans-61" transform="translate(170.056641 0)"/>
       <use xlink:href="#DejaVuSans-6c" transform="translate(231.335938 0)"/>
       <use xlink:href="#DejaVuSans-20" transform="translate(259.119141 0)"/>
       <use xlink:href="#DejaVuSans-54" transform="translate(290.90625 0)"/>
       <use xlink:href="#DejaVuSans-32" transform="translate(351.990234 0)"/>
       <use xlink:href="#DejaVuSans-20" transform="translate(415.613281 0)"/>
       <use xlink:href="#DejaVuSans-68" transform="translate(447.400391 0)"/>
       <use xlink:href="#DejaVuSans-79" transform="translate(510.779297 0)"/>
       <use xlink:href="#DejaVuSans-70" transform="translate(569.958984 0)"/>
       <use xlink:href="#DejaVuSans-65" transform="translate(633.435547 0)"/>
       <use xlink:href="#DejaVuSans-72" transform="translate(694.958984 0)"/>
       <use xlink:href="#DejaVuSans-69" transform="translate(736.072266 0)"/>
       <use xlink:href="#DejaVuSans-6e" transform="translate(763.855469 0)"/>
       <use xlink:href="#DejaVuSans-74" transform="translate(827.234375 0)"/>
       <use xlink:href="#DejaVuSans-65" transform="translate(866.443359 0)"/>
       <use xlink:href="#DejaVuSans-6e" transform="translate(927.966797 0)"/>
       <use xlink:href="#DejaVuSans-73" transform="translate(991.345703 0)"/>
       <use xlink:href="#DejaVuSans-65" transform="translate(1043.445312 0)"/>
       <use xlink:href="#DejaVuSans-20" transform="translate(1104.96875 0)"/>
       <use xlink:href="#DejaVuSans-62" transform="translate(1136.755859 0)"/>
       <use xlink:href="#DejaVuSans-61" transform="translate(1200.232422 0)"/>
       <use xlink:href="#DejaVuSans-73" transform="translate(1261.511719 0)"/>
       <use xlink:href="#DejaVuSans-61" transform="translate(1313.611328 0)"/>
       <use xlink:href="#DejaVuSans-6c" transform="translate(1374.890625 0)"/>
       <use xlink:href="#DejaVuSans-20" transform="translate(1402.673828 0)"/>
       <use xlink:href="#DejaVuSans-67" transform="translate(1434.460938 0)"/>
       <use xlink:href="#DejaVuSans-61" transform="translate(1497.9375 0)"/>
       <use xlink:href="#DejaVuSans-6e" transform="translate(1559.216797 0)"/>
       <use xlink:href="#DejaVuSans-67" transform="translate(1622.595703 0)"/>
       <use xlink:href="#DejaVuSans-6c" transform="translate(1686.072266 0)"/>
       <use xlink:href="#DejaVuSans-69" transform="translate(1713.855469 0)"/>
       <use xlink:href="#DejaVuSans-61" transform="translate(1741.638672 0)"/>
       <use xlink:href="#DejaVuSans-20" transform="translate(1802.917969 0)"/>
       <use xlink:href="#DejaVuSans-6c" transform="translate(1834.705078 0)"/>
       <use xlink:href="#DejaVuSans-65" transform="translate(1862.488281 0)"/>
       <use xlink:href="#DejaVuSans-73" transform="translate(1924.011719 0)"/>
       <use xlink:href="#DejaVuSans-69" transform="translate(1976.111328 0)"/>
       <use xlink:href="#DejaVuSans-6f" transform="translate(2003.894531 0)"/>
       <use xlink:href="#DejaVuSans-6e" transform="translate(2065.076172 0)"/>
      </g>
     </g>
    </g>
    <g id="ytick_8">
     <g id="line2d_14">
      <g>
       <use xlink:href="#mf6ee6e351a" x="227.045313" y="123.542546" style="stroke: #000000; stroke-width: 0.8"/>
      </g>
     </g>
     <g id="text_15">
      <!-- Atypical absence seizure -->
      <g transform="translate(96.059375 127.341765) scale(0.1 -0.1)">
       <defs>
        <path id="DejaVuSans-41" d="M 2188 4044 
L 1331 1722 
L 3047 1722 
L 2188 4044 
z
M 1831 4666 
L 2547 4666 
L 4325 0 
L 3669 0 
L 3244 1197 
L 1141 1197 
L 716 0 
L 50 0 
L 1831 4666 
z
" transform="scale(0.015625)"/>
        <path id="DejaVuSans-7a" d="M 353 3500 
L 3084 3500 
L 3084 2975 
L 922 459 
L 3084 459 
L 3084 0 
L 275 0 
L 275 525 
L 2438 3041 
L 353 3041 
L 353 3500 
z
" transform="scale(0.015625)"/>
       </defs>
       <use xlink:href="#DejaVuSans-41"/>
       <use xlink:href="#DejaVuSans-74" transform="translate(66.658203 0)"/>
       <use xlink:href="#DejaVuSans-79" transform="translate(105.867188 0)"/>
       <use xlink:href="#DejaVuSans-70" transform="translate(165.046875 0)"/>
       <use xlink:href="#DejaVuSans-69" transform="translate(228.523438 0)"/>
       <use xlink:href="#DejaVuSans-63" transform="translate(256.306641 0)"/>
       <use xlink:href="#DejaVuSans-61" transform="translate(311.287109 0)"/>
       <use xlink:href="#DejaVuSans-6c" transform="translate(372.566406 0)"/>
       <use xlink:href="#DejaVuSans-20" transform="translate(400.349609 0)"/>
       <use xlink:href="#DejaVuSans-61" transform="translate(432.136719 0)"/>
       <use xlink:href="#DejaVuSans-62" transform="translate(493.416016 0)"/>
       <use xlink:href="#DejaVuSans-73" transform="translate(556.892578 0)"/>
       <use xlink:href="#DejaVuSans-65" transform="translate(608.992188 0)"/>
       <use xlink:href="#DejaVuSans-6e" transform="translate(670.515625 0)"/>
       <use xlink:href="#DejaVuSans-63" transform="translate(733.894531 0)"/>
       <use xlink:href="#DejaVuSans-65" transform="translate(788.875 0)"/>
       <use xlink:href="#DejaVuSans-20" transform="translate(850.398438 0)"/>
       <use xlink:href="#DejaVuSans-73" transform="translate(882.185547 0)"/>
       <use xlink:href="#DejaVuSans-65" transform="translate(934.285156 0)"/>
       <use xlink:href="#DejaVuSans-69" transform="translate(995.808594 0)"/>
       <use xlink:href="#DejaVuSans-7a" transform="translate(1023.591797 0)"/>
       <use xlink:href="#DejaVuSans-75" transform="translate(1076.082031 0)"/>
       <use xlink:href="#DejaVuSans-72" transform="translate(1139.460938 0)"/>
       <use xlink:href="#DejaVuSans-65" transform="translate(1178.324219 0)"/>
      </g>
     </g>
    </g>
    <g id="ytick_9">
     <g id="line2d_15">
      <g>
       <use xlink:href="#mf6ee6e351a" x="227.045313" y="136.275178" style="stroke: #000000; stroke-width: 0.8"/>
      </g>
     </g>
     <g id="text_16">
      <!-- Thick nasal alae -->
      <g transform="translate(139.407813 140.074396) scale(0.1 -0.1)">
       <defs>
        <path id="DejaVuSans-6b" d="M 581 4863 
L 1159 4863 
L 1159 1991 
L 2875 3500 
L 3609 3500 
L 1753 1863 
L 3688 0 
L 2938 0 
L 1159 1709 
L 1159 0 
L 581 0 
L 581 4863 
z
" transform="scale(0.015625)"/>
       </defs>
       <use xlink:href="#DejaVuSans-54"/>
       <use xlink:href="#DejaVuSans-68" transform="translate(61.083984 0)"/>
       <use xlink:href="#DejaVuSans-69" transform="translate(124.462891 0)"/>
       <use xlink:href="#DejaVuSans-63" transform="translate(152.246094 0)"/>
       <use xlink:href="#DejaVuSans-6b" transform="translate(207.226562 0)"/>
       <use xlink:href="#DejaVuSans-20" transform="translate(265.136719 0)"/>
       <use xlink:href="#DejaVuSans-6e" transform="translate(296.923828 0)"/>
       <use xlink:href="#DejaVuSans-61" transform="translate(360.302734 0)"/>
       <use xlink:href="#DejaVuSans-73" transform="translate(421.582031 0)"/>
       <use xlink:href="#DejaVuSans-61" transform="translate(473.681641 0)"/>
       <use xlink:href="#DejaVuSans-6c" transform="translate(534.960938 0)"/>
       <use xlink:href="#DejaVuSans-20" transform="translate(562.744141 0)"/>
       <use xlink:href="#DejaVuSans-61" transform="translate(594.53125 0)"/>
       <use xlink:href="#DejaVuSans-6c" transform="translate(655.810547 0)"/>
       <use xlink:href="#DejaVuSans-61" transform="translate(683.59375 0)"/>
       <use xlink:href="#DejaVuSans-65" transform="translate(744.873047 0)"/>
      </g>
     </g>
    </g>
    <g id="ytick_10">
     <g id="line2d_16">
      <g>
       <use xlink:href="#mf6ee6e351a" x="227.045313" y="149.007809" style="stroke: #000000; stroke-width: 0.8"/>
      </g>
     </g>
     <g id="text_17">
      <!-- Broad eyebrow -->
      <g transform="translate(144.76875 152.807028) scale(0.1 -0.1)">
       <defs>
        <path id="DejaVuSans-42" d="M 1259 2228 
L 1259 519 
L 2272 519 
Q 2781 519 3026 730 
Q 3272 941 3272 1375 
Q 3272 1813 3026 2020 
Q 2781 2228 2272 2228 
L 1259 2228 
z
M 1259 4147 
L 1259 2741 
L 2194 2741 
Q 2656 2741 2882 2914 
Q 3109 3088 3109 3444 
Q 3109 3797 2882 3972 
Q 2656 4147 2194 4147 
L 1259 4147 
z
M 628 4666 
L 2241 4666 
Q 2963 4666 3353 4366 
Q 3744 4066 3744 3513 
Q 3744 3084 3544 2831 
Q 3344 2578 2956 2516 
Q 3422 2416 3680 2098 
Q 3938 1781 3938 1306 
Q 3938 681 3513 340 
Q 3088 0 2303 0 
L 628 0 
L 628 4666 
z
" transform="scale(0.015625)"/>
        <path id="DejaVuSans-77" d="M 269 3500 
L 844 3500 
L 1563 769 
L 2278 3500 
L 2956 3500 
L 3675 769 
L 4391 3500 
L 4966 3500 
L 4050 0 
L 3372 0 
L 2619 2869 
L 1863 0 
L 1184 0 
L 269 3500 
z
" transform="scale(0.015625)"/>
       </defs>
       <use xlink:href="#DejaVuSans-42"/>
       <use xlink:href="#DejaVuSans-72" transform="translate(68.603516 0)"/>
       <use xlink:href="#DejaVuSans-6f" transform="translate(107.466797 0)"/>
       <use xlink:href="#DejaVuSans-61" transform="translate(168.648438 0)"/>
       <use xlink:href="#DejaVuSans-64" transform="translate(229.927734 0)"/>
       <use xlink:href="#DejaVuSans-20" transform="translate(293.404297 0)"/>
       <use xlink:href="#DejaVuSans-65" transform="translate(325.191406 0)"/>
       <use xlink:href="#DejaVuSans-79" transform="translate(386.714844 0)"/>
       <use xlink:href="#DejaVuSans-65" transform="translate(445.894531 0)"/>
       <use xlink:href="#DejaVuSans-62" transform="translate(507.417969 0)"/>
       <use xlink:href="#DejaVuSans-72" transform="translate(570.894531 0)"/>
       <use xlink:href="#DejaVuSans-6f" transform="translate(609.757812 0)"/>
       <use xlink:href="#DejaVuSans-77" transform="translate(670.939453 0)"/>
      </g>
     </g>
    </g>
    <g id="ytick_11">
     <g id="line2d_17">
      <g>
       <use xlink:href="#mf6ee6e351a" x="227.045313" y="161.740441" style="stroke: #000000; stroke-width: 0.8"/>
      </g>
     </g>
     <g id="text_18">
      <!-- Cardiac conduction abnormality -->
      <g transform="translate(60.4625 165.53966) scale(0.1 -0.1)">
       <use xlink:href="#DejaVuSans-43"/>
       <use xlink:href="#DejaVuSans-61" transform="translate(69.824219 0)"/>
       <use xlink:href="#DejaVuSans-72" transform="translate(131.103516 0)"/>
       <use xlink:href="#DejaVuSans-64" transform="translate(170.466797 0)"/>
       <use xlink:href="#DejaVuSans-69" transform="translate(233.943359 0)"/>
       <use xlink:href="#DejaVuSans-61" transform="translate(261.726562 0)"/>
       <use xlink:href="#DejaVuSans-63" transform="translate(323.005859 0)"/>
       <use xlink:href="#DejaVuSans-20" transform="translate(377.986328 0)"/>
       <use xlink:href="#DejaVuSans-63" transform="translate(409.773438 0)"/>
       <use xlink:href="#DejaVuSans-6f" transform="translate(464.753906 0)"/>
       <use xlink:href="#DejaVuSans-6e" transform="translate(525.935547 0)"/>
       <use xlink:href="#DejaVuSans-64" transform="translate(589.314453 0)"/>
       <use xlink:href="#DejaVuSans-75" transform="translate(652.791016 0)"/>
       <use xlink:href="#DejaVuSans-63" transform="translate(716.169922 0)"/>
       <use xlink:href="#DejaVuSans-74" transform="translate(771.150391 0)"/>
       <use xlink:href="#DejaVuSans-69" transform="translate(810.359375 0)"/>
       <use xlink:href="#DejaVuSans-6f" transform="translate(838.142578 0)"/>
       <use xlink:href="#DejaVuSans-6e" transform="translate(899.324219 0)"/>
       <use xlink:href="#DejaVuSans-20" transform="translate(962.703125 0)"/>
       <use xlink:href="#DejaVuSans-61" transform="translate(994.490234 0)"/>
       <use xlink:href="#DejaVuSans-62" transform="translate(1055.769531 0)"/>
       <use xlink:href="#DejaVuSans-6e" transform="translate(1119.246094 0)"/>
       <use xlink:href="#DejaVuSans-6f" transform="translate(1182.625 0)"/>
       <use xlink:href="#DejaVuSans-72" transform="translate(1243.806641 0)"/>
       <use xlink:href="#DejaVuSans-6d" transform="translate(1283.169922 0)"/>
       <use xlink:href="#DejaVuSans-61" transform="translate(1380.582031 0)"/>
       <use xlink:href="#DejaVuSans-6c" transform="translate(1441.861328 0)"/>
       <use xlink:href="#DejaVuSans-69" transform="translate(1469.644531 0)"/>
       <use xlink:href="#DejaVuSans-74" transform="translate(1497.427734 0)"/>
       <use xlink:href="#DejaVuSans-79" transform="translate(1536.636719 0)"/>
      </g>
     </g>
    </g>
    <g id="ytick_12">
     <g id="line2d_18">
      <g>
       <use xlink:href="#mf6ee6e351a" x="227.045313" y="174.473072" style="stroke: #000000; stroke-width: 0.8"/>
      </g>
     </g>
     <g id="text_19">
      <!-- Frontal upsweep of hair -->
      <g transform="translate(102.59375 178.272291) scale(0.1 -0.1)">
       <use xlink:href="#DejaVuSans-46"/>
       <use xlink:href="#DejaVuSans-72" transform="translate(50.269531 0)"/>
       <use xlink:href="#DejaVuSans-6f" transform="translate(89.132812 0)"/>
       <use xlink:href="#DejaVuSans-6e" transform="translate(150.314453 0)"/>
       <use xlink:href="#DejaVuSans-74" transform="translate(213.693359 0)"/>
       <use xlink:href="#DejaVuSans-61" transform="translate(252.902344 0)"/>
       <use xlink:href="#DejaVuSans-6c" transform="translate(314.181641 0)"/>
       <use xlink:href="#DejaVuSans-20" transform="translate(341.964844 0)"/>
       <use xlink:href="#DejaVuSans-75" transform="translate(373.751953 0)"/>
       <use xlink:href="#DejaVuSans-70" transform="translate(437.130859 0)"/>
       <use xlink:href="#DejaVuSans-73" transform="translate(500.607422 0)"/>
       <use xlink:href="#DejaVuSans-77" transform="translate(552.707031 0)"/>
       <use xlink:href="#DejaVuSans-65" transform="translate(634.494141 0)"/>
       <use xlink:href="#DejaVuSans-65" transform="translate(696.017578 0)"/>
       <use xlink:href="#DejaVuSans-70" transform="translate(757.541016 0)"/>
       <use xlink:href="#DejaVuSans-20" transform="translate(821.017578 0)"/>
       <use xlink:href="#DejaVuSans-6f" transform="translate(852.804688 0)"/>
       <use xlink:href="#DejaVuSans-66" transform="translate(913.986328 0)"/>
       <use xlink:href="#DejaVuSans-20" transform="translate(949.191406 0)"/>
       <use xlink:href="#DejaVuSans-68" transform="translate(980.978516 0)"/>
       <use xlink:href="#DejaVuSans-61" transform="translate(1044.357422 0)"/>
       <use xlink:href="#DejaVuSans-69" transform="translate(1105.636719 0)"/>
       <use xlink:href="#DejaVuSans-72" transform="translate(1133.419922 0)"/>
      </g>
     </g>
    </g>
    <g id="ytick_13">
     <g id="line2d_19">
      <g>
       <use xlink:href="#mf6ee6e351a" x="227.045313" y="187.205704" style="stroke: #000000; stroke-width: 0.8"/>
      </g>
     </g>
     <g id="text_20">
      <!-- Clonic seizure -->
      <g transform="translate(150.607813 191.004923) scale(0.1 -0.1)">
       <use xlink:href="#DejaVuSans-43"/>
       <use xlink:href="#DejaVuSans-6c" transform="translate(69.824219 0)"/>
       <use xlink:href="#DejaVuSans-6f" transform="translate(97.607422 0)"/>
       <use xlink:href="#DejaVuSans-6e" transform="translate(158.789062 0)"/>
       <use xlink:href="#DejaVuSans-69" transform="translate(222.167969 0)"/>
       <use xlink:href="#DejaVuSans-63" transform="translate(249.951172 0)"/>
       <use xlink:href="#DejaVuSans-20" transform="translate(304.931641 0)"/>
       <use xlink:href="#DejaVuSans-73" transform="translate(336.71875 0)"/>
       <use xlink:href="#DejaVuSans-65" transform="translate(388.818359 0)"/>
       <use xlink:href="#DejaVuSans-69" transform="translate(450.341797 0)"/>
       <use xlink:href="#DejaVuSans-7a" transform="translate(478.125 0)"/>
       <use xlink:href="#DejaVuSans-75" transform="translate(530.615234 0)"/>
       <use xlink:href="#DejaVuSans-72" transform="translate(593.994141 0)"/>
       <use xlink:href="#DejaVuSans-65" transform="translate(632.857422 0)"/>
      </g>
     </g>
    </g>
    <g id="ytick_14">
     <g id="line2d_20">
      <g>
       <use xlink:href="#mf6ee6e351a" x="227.045313" y="199.938336" style="stroke: #000000; stroke-width: 0.8"/>
      </g>
     </g>
     <g id="text_21">
      <!-- Tooth malposition -->
      <g transform="translate(131.707813 203.737554) scale(0.1 -0.1)">
       <use xlink:href="#DejaVuSans-54"/>
       <use xlink:href="#DejaVuSans-6f" transform="translate(44.083984 0)"/>
       <use xlink:href="#DejaVuSans-6f" transform="translate(105.265625 0)"/>
       <use xlink:href="#DejaVuSans-74" transform="translate(166.447266 0)"/>
       <use xlink:href="#DejaVuSans-68" transform="translate(205.65625 0)"/>
       <use xlink:href="#DejaVuSans-20" transform="translate(269.035156 0)"/>
       <use xlink:href="#DejaVuSans-6d" transform="translate(300.822266 0)"/>
       <use xlink:href="#DejaVuSans-61" transform="translate(398.234375 0)"/>
       <use xlink:href="#DejaVuSans-6c" transform="translate(459.513672 0)"/>
       <use xlink:href="#DejaVuSans-70" transform="translate(487.296875 0)"/>
       <use xlink:href="#DejaVuSans-6f" transform="translate(550.773438 0)"/>
       <use xlink:href="#DejaVuSans-73" transform="translate(611.955078 0)"/>
       <use xlink:href="#DejaVuSans-69" transform="translate(664.054688 0)"/>
       <use xlink:href="#DejaVuSans-74" transform="translate(691.837891 0)"/>
       <use xlink:href="#DejaVuSans-69" transform="translate(731.046875 0)"/>
       <use xlink:href="#DejaVuSans-6f" transform="translate(758.830078 0)"/>
       <use xlink:href="#DejaVuSans-6e" transform="translate(820.011719 0)"/>
      </g>
     </g>
    </g>
    <g id="ytick_15">
     <g id="line2d_21">
      <g>
       <use xlink:href="#mf6ee6e351a" x="227.045313" y="212.670967" style="stroke: #000000; stroke-width: 0.8"/>
      </g>
     </g>
     <g id="text_22">
      <!-- Exaggerated cupid's bow -->
      <g transform="translate(93.898438 216.470186) scale(0.1 -0.1)">
       <defs>
        <path id="DejaVuSans-78" d="M 3513 3500 
L 2247 1797 
L 3578 0 
L 2900 0 
L 1881 1375 
L 863 0 
L 184 0 
L 1544 1831 
L 300 3500 
L 978 3500 
L 1906 2253 
L 2834 3500 
L 3513 3500 
z
" transform="scale(0.015625)"/>
        <path id="DejaVuSans-27" d="M 1147 4666 
L 1147 2931 
L 616 2931 
L 616 4666 
L 1147 4666 
z
" transform="scale(0.015625)"/>
       </defs>
       <use xlink:href="#DejaVuSans-45"/>
       <use xlink:href="#DejaVuSans-78" transform="translate(63.183594 0)"/>
       <use xlink:href="#DejaVuSans-61" transform="translate(122.363281 0)"/>
       <use xlink:href="#DejaVuSans-67" transform="translate(183.642578 0)"/>
       <use xlink:href="#DejaVuSans-67" transform="translate(247.119141 0)"/>
       <use xlink:href="#DejaVuSans-65" transform="translate(310.595703 0)"/>
       <use xlink:href="#DejaVuSans-72" transform="translate(372.119141 0)"/>
       <use xlink:href="#DejaVuSans-61" transform="translate(413.232422 0)"/>
       <use xlink:href="#DejaVuSans-74" transform="translate(474.511719 0)"/>
       <use xlink:href="#DejaVuSans-65" transform="translate(513.720703 0)"/>
       <use xlink:href="#DejaVuSans-64" transform="translate(575.244141 0)"/>
       <use xlink:href="#DejaVuSans-20" transform="translate(638.720703 0)"/>
       <use xlink:href="#DejaVuSans-63" transform="translate(670.507812 0)"/>
       <use xlink:href="#DejaVuSans-75" transform="translate(725.488281 0)"/>
       <use xlink:href="#DejaVuSans-70" transform="translate(788.867188 0)"/>
       <use xlink:href="#DejaVuSans-69" transform="translate(852.34375 0)"/>
       <use xlink:href="#DejaVuSans-64" transform="translate(880.126953 0)"/>
       <use xlink:href="#DejaVuSans-27" transform="translate(943.603516 0)"/>
       <use xlink:href="#DejaVuSans-73" transform="translate(971.09375 0)"/>
       <use xlink:href="#DejaVuSans-20" transform="translate(1023.193359 0)"/>
       <use xlink:href="#DejaVuSans-62" transform="translate(1054.980469 0)"/>
       <use xlink:href="#DejaVuSans-6f" transform="translate(1118.457031 0)"/>
       <use xlink:href="#DejaVuSans-77" transform="translate(1179.638672 0)"/>
      </g>
     </g>
    </g>
    <g id="ytick_16">
     <g id="line2d_22">
      <g>
       <use xlink:href="#mf6ee6e351a" x="227.045313" y="225.403599" style="stroke: #000000; stroke-width: 0.8"/>
      </g>
     </g>
     <g id="text_23">
      <!-- Focal motor seizure -->
      <g transform="translate(122.001563 229.202817) scale(0.1 -0.1)">
       <use xlink:href="#DejaVuSans-46"/>
       <use xlink:href="#DejaVuSans-6f" transform="translate(53.894531 0)"/>
       <use xlink:href="#DejaVuSans-63" transform="translate(115.076172 0)"/>
       <use xlink:href="#DejaVuSans-61" transform="translate(170.056641 0)"/>
       <use xlink:href="#DejaVuSans-6c" transform="translate(231.335938 0)"/>
       <use xlink:href="#DejaVuSans-20" transform="translate(259.119141 0)"/>
       <use xlink:href="#DejaVuSans-6d" transform="translate(290.90625 0)"/>
       <use xlink:href="#DejaVuSans-6f" transform="translate(388.318359 0)"/>
       <use xlink:href="#DejaVuSans-74" transform="translate(449.5 0)"/>
       <use xlink:href="#DejaVuSans-6f" transform="translate(488.708984 0)"/>
       <use xlink:href="#DejaVuSans-72" transform="translate(549.890625 0)"/>
       <use xlink:href="#DejaVuSans-20" transform="translate(591.003906 0)"/>
       <use xlink:href="#DejaVuSans-73" transform="translate(622.791016 0)"/>
       <use xlink:href="#DejaVuSans-65" transform="translate(674.890625 0)"/>
       <use xlink:href="#DejaVuSans-69" transform="translate(736.414062 0)"/>
       <use xlink:href="#DejaVuSans-7a" transform="translate(764.197266 0)"/>
       <use xlink:href="#DejaVuSans-75" transform="translate(816.6875 0)"/>
       <use xlink:href="#DejaVuSans-72" transform="translate(880.066406 0)"/>
       <use xlink:href="#DejaVuSans-65" transform="translate(918.929688 0)"/>
      </g>
     </g>
    </g>
    <g id="ytick_17">
     <g id="line2d_23">
      <g>
       <use xlink:href="#mf6ee6e351a" x="227.045313" y="238.13623" style="stroke: #000000; stroke-width: 0.8"/>
      </g>
     </g>
     <g id="text_24">
      <!-- Epileptic spasm -->
      <g transform="translate(141.309375 241.935449) scale(0.1 -0.1)">
       <use xlink:href="#DejaVuSans-45"/>
       <use xlink:href="#DejaVuSans-70" transform="translate(63.183594 0)"/>
       <use xlink:href="#DejaVuSans-69" transform="translate(126.660156 0)"/>
       <use xlink:href="#DejaVuSans-6c" transform="translate(154.443359 0)"/>
       <use xlink:href="#DejaVuSans-65" transform="translate(182.226562 0)"/>
       <use xlink:href="#DejaVuSans-70" transform="translate(243.75 0)"/>
       <use xlink:href="#DejaVuSans-74" transform="translate(307.226562 0)"/>
       <use xlink:href="#DejaVuSans-69" transform="translate(346.435547 0)"/>
       <use xlink:href="#DejaVuSans-63" transform="translate(374.21875 0)"/>
       <use xlink:href="#DejaVuSans-20" transform="translate(429.199219 0)"/>
       <use xlink:href="#DejaVuSans-73" transform="translate(460.986328 0)"/>
       <use xlink:href="#DejaVuSans-70" transform="translate(513.085938 0)"/>
       <use xlink:href="#DejaVuSans-61" transform="translate(576.5625 0)"/>
       <use xlink:href="#DejaVuSans-73" transform="translate(637.841797 0)"/>
       <use xlink:href="#DejaVuSans-6d" transform="translate(689.941406 0)"/>
      </g>
     </g>
    </g>
    <g id="ytick_18">
     <g id="line2d_24">
      <g>
       <use xlink:href="#mf6ee6e351a" x="227.045313" y="250.868862" style="stroke: #000000; stroke-width: 0.8"/>
      </g>
     </g>
     <g id="text_25">
      <!-- Tonic seizure -->
      <g transform="translate(155.960938 254.668081) scale(0.1 -0.1)">
       <use xlink:href="#DejaVuSans-54"/>
       <use xlink:href="#DejaVuSans-6f" transform="translate(44.083984 0)"/>
       <use xlink:href="#DejaVuSans-6e" transform="translate(105.265625 0)"/>
       <use xlink:href="#DejaVuSans-69" transform="translate(168.644531 0)"/>
       <use xlink:href="#DejaVuSans-63" transform="translate(196.427734 0)"/>
       <use xlink:href="#DejaVuSans-20" transform="translate(251.408203 0)"/>
       <use xlink:href="#DejaVuSans-73" transform="translate(283.195312 0)"/>
       <use xlink:href="#DejaVuSans-65" transform="translate(335.294922 0)"/>
       <use xlink:href="#DejaVuSans-69" transform="translate(396.818359 0)"/>
       <use xlink:href="#DejaVuSans-7a" transform="translate(424.601562 0)"/>
       <use xlink:href="#DejaVuSans-75" transform="translate(477.091797 0)"/>
       <use xlink:href="#DejaVuSans-72" transform="translate(540.470703 0)"/>
       <use xlink:href="#DejaVuSans-65" transform="translate(579.333984 0)"/>
      </g>
     </g>
    </g>
    <g id="ytick_19">
     <g id="line2d_25">
      <g>
       <use xlink:href="#mf6ee6e351a" x="227.045313" y="263.601493" style="stroke: #000000; stroke-width: 0.8"/>
      </g>
     </g>
     <g id="text_26">
      <!-- Epileptic encephalopathy -->
      <g transform="translate(93.439063 267.400712) scale(0.1 -0.1)">
       <use xlink:href="#DejaVuSans-45"/>
       <use xlink:href="#DejaVuSans-70" transform="translate(63.183594 0)"/>
       <use xlink:href="#DejaVuSans-69" transform="translate(126.660156 0)"/>
       <use xlink:href="#DejaVuSans-6c" transform="translate(154.443359 0)"/>
       <use xlink:href="#DejaVuSans-65" transform="translate(182.226562 0)"/>
       <use xlink:href="#DejaVuSans-70" transform="translate(243.75 0)"/>
       <use xlink:href="#DejaVuSans-74" transform="translate(307.226562 0)"/>
       <use xlink:href="#DejaVuSans-69" transform="translate(346.435547 0)"/>
       <use xlink:href="#DejaVuSans-63" transform="translate(374.21875 0)"/>
       <use xlink:href="#DejaVuSans-20" transform="translate(429.199219 0)"/>
       <use xlink:href="#DejaVuSans-65" transform="translate(460.986328 0)"/>
       <use xlink:href="#DejaVuSans-6e" transform="translate(522.509766 0)"/>
       <use xlink:href="#DejaVuSans-63" transform="translate(585.888672 0)"/>
       <use xlink:href="#DejaVuSans-65" transform="translate(640.869141 0)"/>
       <use xlink:href="#DejaVuSans-70" transform="translate(702.392578 0)"/>
       <use xlink:href="#DejaVuSans-68" transform="translate(765.869141 0)"/>
       <use xlink:href="#DejaVuSans-61" transform="translate(829.248047 0)"/>
       <use xlink:href="#DejaVuSans-6c" transform="translate(890.527344 0)"/>
       <use xlink:href="#DejaVuSans-6f" transform="translate(918.310547 0)"/>
       <use xlink:href="#DejaVuSans-70" transform="translate(979.492188 0)"/>
       <use xlink:href="#DejaVuSans-61" transform="translate(1042.96875 0)"/>
       <use xlink:href="#DejaVuSans-74" transform="translate(1104.248047 0)"/>
       <use xlink:href="#DejaVuSans-68" transform="translate(1143.457031 0)"/>
       <use xlink:href="#DejaVuSans-79" transform="translate(1206.835938 0)"/>
      </g>
     </g>
    </g>
    <g id="ytick_20">
     <g id="line2d_26">
      <g>
       <use xlink:href="#mf6ee6e351a" x="227.045313" y="276.334125" style="stroke: #000000; stroke-width: 0.8"/>
      </g>
     </g>
     <g id="text_27">
      <!-- Gaze-evoked nystagmus -->
      <g transform="translate(96.710938 280.133344) scale(0.1 -0.1)">
       <defs>
        <path id="DejaVuSans-47" d="M 3809 666 
L 3809 1919 
L 2778 1919 
L 2778 2438 
L 4434 2438 
L 4434 434 
Q 4069 175 3628 42 
Q 3188 -91 2688 -91 
Q 1594 -91 976 548 
Q 359 1188 359 2328 
Q 359 3472 976 4111 
Q 1594 4750 2688 4750 
Q 3144 4750 3555 4637 
Q 3966 4525 4313 4306 
L 4313 3634 
Q 3963 3931 3569 4081 
Q 3175 4231 2741 4231 
Q 1884 4231 1454 3753 
Q 1025 3275 1025 2328 
Q 1025 1384 1454 906 
Q 1884 428 2741 428 
Q 3075 428 3337 486 
Q 3600 544 3809 666 
z
" transform="scale(0.015625)"/>
        <path id="DejaVuSans-2d" d="M 313 2009 
L 1997 2009 
L 1997 1497 
L 313 1497 
L 313 2009 
z
" transform="scale(0.015625)"/>
       </defs>
       <use xlink:href="#DejaVuSans-47"/>
       <use xlink:href="#DejaVuSans-61" transform="translate(77.490234 0)"/>
       <use xlink:href="#DejaVuSans-7a" transform="translate(138.769531 0)"/>
       <use xlink:href="#DejaVuSans-65" transform="translate(191.259766 0)"/>
       <use xlink:href="#DejaVuSans-2d" transform="translate(252.783203 0)"/>
       <use xlink:href="#DejaVuSans-65" transform="translate(288.867188 0)"/>
       <use xlink:href="#DejaVuSans-76" transform="translate(350.390625 0)"/>
       <use xlink:href="#DejaVuSans-6f" transform="translate(409.570312 0)"/>
       <use xlink:href="#DejaVuSans-6b" transform="translate(470.751953 0)"/>
       <use xlink:href="#DejaVuSans-65" transform="translate(525.037109 0)"/>
       <use xlink:href="#DejaVuSans-64" transform="translate(586.560547 0)"/>
       <use xlink:href="#DejaVuSans-20" transform="translate(650.037109 0)"/>
       <use xlink:href="#DejaVuSans-6e" transform="translate(681.824219 0)"/>
       <use xlink:href="#DejaVuSans-79" transform="translate(745.203125 0)"/>
       <use xlink:href="#DejaVuSans-73" transform="translate(804.382812 0)"/>
       <use xlink:href="#DejaVuSans-74" transform="translate(856.482422 0)"/>
       <use xlink:href="#DejaVuSans-61" transform="translate(895.691406 0)"/>
       <use xlink:href="#DejaVuSans-67" transform="translate(956.970703 0)"/>
       <use xlink:href="#DejaVuSans-6d" transform="translate(1020.447266 0)"/>
       <use xlink:href="#DejaVuSans-75" transform="translate(1117.859375 0)"/>
       <use xlink:href="#DejaVuSans-73" transform="translate(1181.238281 0)"/>
      </g>
     </g>
    </g>
   </g>
   <g id="line2d_27"/>
   <g id="line2d_28"/>
   <g id="line2d_29"/>
   <g id="line2d_30"/>
   <g id="line2d_31"/>
   <g id="line2d_32"/>
   <g id="line2d_33"/>
   <g id="line2d_34"/>
   <g id="line2d_35"/>
   <g id="line2d_36"/>
   <g id="line2d_37"/>
   <g id="line2d_38"/>
   <g id="patch_3">
    <path d="M 227.045313 288.430125 
L 227.045313 22.318125 
" style="fill: none; stroke: #000000; stroke-width: 0.8; stroke-linejoin: miter; stroke-linecap: square"/>
   </g>
   <g id="patch_4">
    <path d="M 584.165313 288.430125 
L 584.165313 22.318125 
" style="fill: none; stroke: #000000; stroke-width: 0.8; stroke-linejoin: miter; stroke-linecap: square"/>
   </g>
   <g id="patch_5">
    <path d="M 227.045313 288.430125 
L 584.165313 288.430125 
" style="fill: none; stroke: #000000; stroke-width: 0.8; stroke-linejoin: miter; stroke-linecap: square"/>
   </g>
   <g id="patch_6">
    <path d="M 227.045313 22.318125 
L 584.165313 22.318125 
" style="fill: none; stroke: #000000; stroke-width: 0.8; stroke-linejoin: miter; stroke-linecap: square"/>
   </g>
   <g id="text_28">
    <!-- Top 20 Enriched Phenotypes -->
    <g transform="translate(320.679063 16.318125) scale(0.12 -0.12)">
     <defs>
      <path id="DejaVuSans-50" d="M 1259 4147 
L 1259 2394 
L 2053 2394 
Q 2494 2394 2734 2622 
Q 2975 2850 2975 3272 
Q 2975 3691 2734 3919 
Q 2494 4147 2053 4147 
L 1259 4147 
z
M 628 4666 
L 2053 4666 
Q 2838 4666 3239 4311 
Q 3641 3956 3641 3272 
Q 3641 2581 3239 2228 
Q 2838 1875 2053 1875 
L 1259 1875 
L 1259 0 
L 628 0 
L 628 4666 
z
" transform="scale(0.015625)"/>
     </defs>
     <use xlink:href="#DejaVuSans-54"/>
     <use xlink:href="#DejaVuSans-6f" transform="translate(44.083984 0)"/>
     <use xlink:href="#DejaVuSans-70" transform="translate(105.265625 0)"/>
     <use xlink:href="#DejaVuSans-20" transform="translate(168.742188 0)"/>
     <use xlink:href="#DejaVuSans-32" transform="translate(200.529297 0)"/>
     <use xlink:href="#DejaVuSans-30" transform="translate(264.152344 0)"/>
     <use xlink:href="#DejaVuSans-20" transform="translate(327.775391 0)"/>
     <use xlink:href="#DejaVuSans-45" transform="translate(359.5625 0)"/>
     <use xlink:href="#DejaVuSans-6e" transform="translate(422.746094 0)"/>
     <use xlink:href="#DejaVuSans-72" transform="translate(486.125 0)"/>
     <use xlink:href="#DejaVuSans-69" transform="translate(527.238281 0)"/>
     <use xlink:href="#DejaVuSans-63" transform="translate(555.021484 0)"/>
     <use xlink:href="#DejaVuSans-68" transform="translate(610.001953 0)"/>
     <use xlink:href="#DejaVuSans-65" transform="translate(673.380859 0)"/>
     <use xlink:href="#DejaVuSans-64" transform="translate(734.904297 0)"/>
     <use xlink:href="#DejaVuSans-20" transform="translate(798.380859 0)"/>
     <use xlink:href="#DejaVuSans-50" transform="translate(830.167969 0)"/>
     <use xlink:href="#DejaVuSans-68" transform="translate(890.470703 0)"/>
     <use xlink:href="#DejaVuSans-65" transform="translate(953.849609 0)"/>
     <use xlink:href="#DejaVuSans-6e" transform="translate(1015.373047 0)"/>
     <use xlink:href="#DejaVuSans-6f" transform="translate(1078.751953 0)"/>
     <use xlink:href="#DejaVuSans-74" transform="translate(1139.933594 0)"/>
     <use xlink:href="#DejaVuSans-79" transform="translate(1179.142578 0)"/>
     <use xlink:href="#DejaVuSans-70" transform="translate(1238.322266 0)"/>
     <use xlink:href="#DejaVuSans-65" transform="translate(1301.798828 0)"/>
     <use xlink:href="#DejaVuSans-73" transform="translate(1363.322266 0)"/>
    </g>
   </g>
   <g id="legend_1">
    <g id="patch_7">
     <path d="M 591.165313 206.455625 
L 678.404375 206.455625 
Q 680.404375 206.455625 680.404375 204.455625 
L 680.404375 29.318125 
Q 680.404375 27.318125 678.404375 27.318125 
L 591.165313 27.318125 
Q 589.165313 27.318125 589.165313 29.318125 
L 589.165313 204.455625 
Q 589.165313 206.455625 591.165313 206.455625 
z
" style="fill: #ffffff; opacity: 0.8; stroke: #cccccc; stroke-linejoin: miter"/>
    </g>
    <g id="line2d_39"/>
    <g id="text_29">
     <!-- -log10 FDR -->
     <g transform="translate(621.165313 38.916562) scale(0.1 -0.1)">
      <defs>
       <path id="DejaVuSans-31" d="M 794 531 
L 1825 531 
L 1825 4091 
L 703 3866 
L 703 4441 
L 1819 4666 
L 2450 4666 
L 2450 531 
L 3481 531 
L 3481 0 
L 794 0 
L 794 531 
z
" transform="scale(0.015625)"/>
       <path id="DejaVuSans-44" d="M 1259 4147 
L 1259 519 
L 2022 519 
Q 2988 519 3436 956 
Q 3884 1394 3884 2338 
Q 3884 3275 3436 3711 
Q 2988 4147 2022 4147 
L 1259 4147 
z
M 628 4666 
L 1925 4666 
Q 3281 4666 3915 4102 
Q 4550 3538 4550 2338 
Q 4550 1131 3912 565 
Q 3275 0 1925 0 
L 628 0 
L 628 4666 
z
" transform="scale(0.015625)"/>
      </defs>
      <use xlink:href="#DejaVuSans-2d"/>
      <use xlink:href="#DejaVuSans-6c" transform="translate(36.083984 0)"/>
      <use xlink:href="#DejaVuSans-6f" transform="translate(63.867188 0)"/>
      <use xlink:href="#DejaVuSans-67" transform="translate(125.048828 0)"/>
      <use xlink:href="#DejaVuSans-31" transform="translate(188.525391 0)"/>
      <use xlink:href="#DejaVuSans-30" transform="translate(252.148438 0)"/>
      <use xlink:href="#DejaVuSans-20" transform="translate(315.771484 0)"/>
      <use xlink:href="#DejaVuSans-46" transform="translate(347.558594 0)"/>
      <use xlink:href="#DejaVuSans-44" transform="translate(405.078125 0)"/>
      <use xlink:href="#DejaVuSans-52" transform="translate(482.080078 0)"/>
     </g>
    </g>
    <g id="line2d_40">
     <defs>
      <path id="m57b28421fb" d="M 0 3 
C 0.795609 3 1.55874 2.683901 2.12132 2.12132 
C 2.683901 1.55874 3 0.795609 3 0 
C 3 -0.795609 2.683901 -1.55874 2.12132 -2.12132 
C 1.55874 -2.683901 0.795609 -3 0 -3 
C -0.795609 -3 -1.55874 -2.683901 -2.12132 -2.12132 
C -2.683901 -1.55874 -3 -0.795609 -3 0 
C -3 0.795609 -2.683901 1.55874 -2.12132 2.12132 
C -1.55874 2.683901 -0.795609 3 0 3 
z
" style="stroke: #ffffff; stroke-width: 0.378946"/>
     </defs>
     <g>
      <use xlink:href="#m57b28421fb" x="603.165313" y="50.094688" style="fill: #7295f4; stroke: #ffffff; stroke-width: 0.378946"/>
     </g>
    </g>
    <g id="text_30">
     <!-- 6 -->
     <g transform="translate(621.165313 53.594688) scale(0.1 -0.1)">
      <use xlink:href="#DejaVuSans-36"/>
     </g>
    </g>
    <g id="line2d_41">
     <defs>
      <path id="m69bf4cf310" d="M 0 3 
C 0.795609 3 1.55874 2.683901 2.12132 2.12132 
C 2.683901 1.55874 3 0.795609 3 0 
C 3 -0.795609 2.683901 -1.55874 2.12132 -2.12132 
C 1.55874 -2.683901 0.795609 -3 0 -3 
C -0.795609 -3 -1.55874 -2.683901 -2.12132 -2.12132 
C -2.683901 -1.55874 -3 -0.795609 -3 0 
C -3 0.795609 -2.683901 1.55874 -2.12132 2.12132 
C -1.55874 2.683901 -0.795609 3 0 3 
z
" style="stroke: #ffffff; stroke-width: 0.378946"/>
     </defs>
     <g>
      <use xlink:href="#m69bf4cf310" x="603.165313" y="64.772812" style="fill: #b1cbfc; stroke: #ffffff; stroke-width: 0.378946"/>
     </g>
    </g>
    <g id="text_31">
     <!-- 8 -->
     <g transform="translate(621.165313 68.272812) scale(0.1 -0.1)">
      <defs>
       <path id="DejaVuSans-38" d="M 2034 2216 
Q 1584 2216 1326 1975 
Q 1069 1734 1069 1313 
Q 1069 891 1326 650 
Q 1584 409 2034 409 
Q 2484 409 2743 651 
Q 3003 894 3003 1313 
Q 3003 1734 2745 1975 
Q 2488 2216 2034 2216 
z
M 1403 2484 
Q 997 2584 770 2862 
Q 544 3141 544 3541 
Q 544 4100 942 4425 
Q 1341 4750 2034 4750 
Q 2731 4750 3128 4425 
Q 3525 4100 3525 3541 
Q 3525 3141 3298 2862 
Q 3072 2584 2669 2484 
Q 3125 2378 3379 2068 
Q 3634 1759 3634 1313 
Q 3634 634 3220 271 
Q 2806 -91 2034 -91 
Q 1263 -91 848 271 
Q 434 634 434 1313 
Q 434 1759 690 2068 
Q 947 2378 1403 2484 
z
M 1172 3481 
Q 1172 3119 1398 2916 
Q 1625 2713 2034 2713 
Q 2441 2713 2670 2916 
Q 2900 3119 2900 3481 
Q 2900 3844 2670 4047 
Q 2441 4250 2034 4250 
Q 1625 4250 1398 4047 
Q 1172 3844 1172 3481 
z
" transform="scale(0.015625)"/>
      </defs>
      <use xlink:href="#DejaVuSans-38"/>
     </g>
    </g>
    <g id="line2d_42">
     <defs>
      <path id="mebf3fb24b9" d="M 0 3 
C 0.795609 3 1.55874 2.683901 2.12132 2.12132 
C 2.683901 1.55874 3 0.795609 3 0 
C 3 -0.795609 2.683901 -1.55874 2.12132 -2.12132 
C 1.55874 -2.683901 0.795609 -3 0 -3 
C -0.795609 -3 -1.55874 -2.683901 -2.12132 -2.12132 
C -2.683901 -1.55874 -3 -0.795609 -3 0 
C -3 0.795609 -2.683901 1.55874 -2.12132 2.12132 
C -1.55874 2.683901 -0.795609 3 0 3 
z
" style="stroke: #ffffff; stroke-width: 0.378946"/>
     </defs>
     <g>
      <use xlink:href="#mebf3fb24b9" x="603.165313" y="79.450938" style="fill: #e4d9d2; stroke: #ffffff; stroke-width: 0.378946"/>
     </g>
    </g>
    <g id="text_32">
     <!-- 10 -->
     <g transform="translate(621.165313 82.950938) scale(0.1 -0.1)">
      <use xlink:href="#DejaVuSans-31"/>
      <use xlink:href="#DejaVuSans-30" transform="translate(63.623047 0)"/>
     </g>
    </g>
    <g id="line2d_43">
     <defs>
      <path id="mb749837b24" d="M 0 3 
C 0.795609 3 1.55874 2.683901 2.12132 2.12132 
C 2.683901 1.55874 3 0.795609 3 0 
C 3 -0.795609 2.683901 -1.55874 2.12132 -2.12132 
C 1.55874 -2.683901 0.795609 -3 0 -3 
C -0.795609 -3 -1.55874 -2.683901 -2.12132 -2.12132 
C -2.683901 -1.55874 -3 -0.795609 -3 0 
C -3 0.795609 -2.683901 1.55874 -2.12132 2.12132 
C -1.55874 2.683901 -0.795609 3 0 3 
z
" style="stroke: #ffffff; stroke-width: 0.378946"/>
     </defs>
     <g>
      <use xlink:href="#mb749837b24" x="603.165313" y="94.129063" style="fill: #f7a98b; stroke: #ffffff; stroke-width: 0.378946"/>
     </g>
    </g>
    <g id="text_33">
     <!-- 12 -->
     <g transform="translate(621.165313 97.629063) scale(0.1 -0.1)">
      <use xlink:href="#DejaVuSans-31"/>
      <use xlink:href="#DejaVuSans-32" transform="translate(63.623047 0)"/>
     </g>
    </g>
    <g id="line2d_44">
     <defs>
      <path id="m1d8bb14e53" d="M 0 3 
C 0.795609 3 1.55874 2.683901 2.12132 2.12132 
C 2.683901 1.55874 3 0.795609 3 0 
C 3 -0.795609 2.683901 -1.55874 2.12132 -2.12132 
C 1.55874 -2.683901 0.795609 -3 0 -3 
C -0.795609 -3 -1.55874 -2.683901 -2.12132 -2.12132 
C -2.683901 -1.55874 -3 -0.795609 -3 0 
C -3 0.795609 -2.683901 1.55874 -2.12132 2.12132 
C -1.55874 2.683901 -0.795609 3 0 3 
z
" style="stroke: #ffffff; stroke-width: 0.378946"/>
     </defs>
     <g>
      <use xlink:href="#m1d8bb14e53" x="603.165313" y="108.807187" style="fill: #d95847; stroke: #ffffff; stroke-width: 0.378946"/>
     </g>
    </g>
    <g id="text_34">
     <!-- 14 -->
     <g transform="translate(621.165313 112.307187) scale(0.1 -0.1)">
      <use xlink:href="#DejaVuSans-31"/>
      <use xlink:href="#DejaVuSans-34" transform="translate(63.623047 0)"/>
     </g>
    </g>
    <g id="line2d_45"/>
    <g id="text_35">
     <!-- Gene Ratio -->
     <g transform="translate(621.165313 126.985313) scale(0.1 -0.1)">
      <use xlink:href="#DejaVuSans-47"/>
      <use xlink:href="#DejaVuSans-65" transform="translate(77.490234 0)"/>
      <use xlink:href="#DejaVuSans-6e" transform="translate(139.013672 0)"/>
      <use xlink:href="#DejaVuSans-65" transform="translate(202.392578 0)"/>
      <use xlink:href="#DejaVuSans-20" transform="translate(263.916016 0)"/>
      <use xlink:href="#DejaVuSans-52" transform="translate(295.703125 0)"/>
      <use xlink:href="#DejaVuSans-61" transform="translate(362.935547 0)"/>
      <use xlink:href="#DejaVuSans-74" transform="translate(424.214844 0)"/>
      <use xlink:href="#DejaVuSans-69" transform="translate(463.423828 0)"/>
      <use xlink:href="#DejaVuSans-6f" transform="translate(491.207031 0)"/>
     </g>
    </g>
    <g id="line2d_46">
     <defs>
      <path id="m6b4b382aad" d="M 0 2.471926 
C 0.655562 2.471926 1.284363 2.211468 1.747915 1.747915 
C 2.211468 1.284363 2.471926 0.655562 2.471926 0 
C 2.471926 -0.655562 2.211468 -1.284363 1.747915 -1.747915 
C 1.284363 -2.211468 0.655562 -2.471926 0 -2.471926 
C -0.655562 -2.471926 -1.284363 -2.211468 -1.747915 -1.747915 
C -2.211468 -1.284363 -2.471926 -0.655562 -2.471926 0 
C -2.471926 0.655562 -2.211468 1.284363 -1.747915 1.747915 
C -1.284363 2.211468 -0.655562 2.471926 0 2.471926 
z
" style="stroke: #ffffff; stroke-width: 0.378946"/>
     </defs>
     <g>
      <use xlink:href="#m6b4b382aad" x="603.165313" y="138.163437" style="fill: #333333; stroke: #ffffff; stroke-width: 0.378946"/>
     </g>
    </g>
    <g id="text_36">
     <!-- 0.004 -->
     <g transform="translate(621.165313 141.663437) scale(0.1 -0.1)">
      <use xlink:href="#DejaVuSans-30"/>
      <use xlink:href="#DejaVuSans-2e" transform="translate(63.623047 0)"/>
      <use xlink:href="#DejaVuSans-30" transform="translate(95.410156 0)"/>
      <use xlink:href="#DejaVuSans-30" transform="translate(159.033203 0)"/>
      <use xlink:href="#DejaVuSans-34" transform="translate(222.65625 0)"/>
     </g>
    </g>
    <g id="line2d_47">
     <defs>
      <path id="mbf4c3811ca" d="M 0 3.648915 
C 0.967704 3.648915 1.895903 3.264443 2.580173 2.580173 
C 3.264443 1.895903 3.648915 0.967704 3.648915 0 
C 3.648915 -0.967704 3.264443 -1.895903 2.580173 -2.580173 
C 1.895903 -3.264443 0.967704 -3.648915 0 -3.648915 
C -0.967704 -3.648915 -1.895903 -3.264443 -2.580173 -2.580173 
C -3.264443 -1.895903 -3.648915 -0.967704 -3.648915 0 
C -3.648915 0.967704 -3.264443 1.895903 -2.580173 2.580173 
C -1.895903 3.264443 -0.967704 3.648915 0 3.648915 
z
" style="stroke: #ffffff; stroke-width: 0.378946"/>
     </defs>
     <g>
      <use xlink:href="#mbf4c3811ca" x="603.165313" y="152.841563" style="fill: #333333; stroke: #ffffff; stroke-width: 0.378946"/>
     </g>
    </g>
    <g id="text_37">
     <!-- 0.008 -->
     <g transform="translate(621.165313 156.341563) scale(0.1 -0.1)">
      <use xlink:href="#DejaVuSans-30"/>
      <use xlink:href="#DejaVuSans-2e" transform="translate(63.623047 0)"/>
      <use xlink:href="#DejaVuSans-30" transform="translate(95.410156 0)"/>
      <use xlink:href="#DejaVuSans-30" transform="translate(159.033203 0)"/>
      <use xlink:href="#DejaVuSans-38" transform="translate(222.65625 0)"/>
     </g>
    </g>
    <g id="line2d_48">
     <defs>
      <path id="m4e27a507b9" d="M 0 4.529763 
C 1.201307 4.529763 2.353574 4.052478 3.203026 3.203026 
C 4.052478 2.353574 4.529763 1.201307 4.529763 0 
C 4.529763 -1.201307 4.052478 -2.353574 3.203026 -3.203026 
C 2.353574 -4.052478 1.201307 -4.529763 0 -4.529763 
C -1.201307 -4.529763 -2.353574 -4.052478 -3.203026 -3.203026 
C -4.052478 -2.353574 -4.529763 -1.201307 -4.529763 0 
C -4.529763 1.201307 -4.052478 2.353574 -3.203026 3.203026 
C -2.353574 4.052478 -1.201307 4.529763 0 4.529763 
z
" style="stroke: #ffffff; stroke-width: 0.378946"/>
     </defs>
     <g>
      <use xlink:href="#m4e27a507b9" x="603.165313" y="167.519687" style="fill: #333333; stroke: #ffffff; stroke-width: 0.378946"/>
     </g>
    </g>
    <g id="text_38">
     <!-- 0.012 -->
     <g transform="translate(621.165313 171.019687) scale(0.1 -0.1)">
      <use xlink:href="#DejaVuSans-30"/>
      <use xlink:href="#DejaVuSans-2e" transform="translate(63.623047 0)"/>
      <use xlink:href="#DejaVuSans-30" transform="translate(95.410156 0)"/>
      <use xlink:href="#DejaVuSans-31" transform="translate(159.033203 0)"/>
      <use xlink:href="#DejaVuSans-32" transform="translate(222.65625 0)"/>
     </g>
    </g>
    <g id="line2d_49">
     <defs>
      <path id="m072bcb4909" d="M 0 5.265256 
C 1.396362 5.265256 2.735721 4.710475 3.723098 3.723098 
C 4.710475 2.735721 5.265256 1.396362 5.265256 0 
C 5.265256 -1.396362 4.710475 -2.735721 3.723098 -3.723098 
C 2.735721 -4.710475 1.396362 -5.265256 0 -5.265256 
C -1.396362 -5.265256 -2.735721 -4.710475 -3.723098 -3.723098 
C -4.710475 -2.735721 -5.265256 -1.396362 -5.265256 0 
C -5.265256 1.396362 -4.710475 2.735721 -3.723098 3.723098 
C -2.735721 4.710475 -1.396362 5.265256 0 5.265256 
z
" style="stroke: #ffffff; stroke-width: 0.378946"/>
     </defs>
     <g>
      <use xlink:href="#m072bcb4909" x="603.165313" y="182.197812" style="fill: #333333; stroke: #ffffff; stroke-width: 0.378946"/>
     </g>
    </g>
    <g id="text_39">
     <!-- 0.016 -->
     <g transform="translate(621.165313 185.697812) scale(0.1 -0.1)">
      <use xlink:href="#DejaVuSans-30"/>
      <use xlink:href="#DejaVuSans-2e" transform="translate(63.623047 0)"/>
      <use xlink:href="#DejaVuSans-30" transform="translate(95.410156 0)"/>
      <use xlink:href="#DejaVuSans-31" transform="translate(159.033203 0)"/>
      <use xlink:href="#DejaVuSans-36" transform="translate(222.65625 0)"/>
     </g>
    </g>
    <g id="line2d_50">
     <defs>
      <path id="m0209d75c48" d="M 0 5.909914 
C 1.567328 5.909914 3.070672 5.287208 4.17894 4.17894 
C 5.287208 3.070672 5.909914 1.567328 5.909914 0 
C 5.909914 -1.567328 5.287208 -3.070672 4.17894 -4.17894 
C 3.070672 -5.287208 1.567328 -5.909914 0 -5.909914 
C -1.567328 -5.909914 -3.070672 -5.287208 -4.17894 -4.17894 
C -5.287208 -3.070672 -5.909914 -1.567328 -5.909914 0 
C -5.909914 1.567328 -5.287208 3.070672 -4.17894 4.17894 
C -3.070672 5.287208 -1.567328 5.909914 0 5.909914 
z
" style="stroke: #ffffff; stroke-width: 0.378946"/>
     </defs>
     <g>
      <use xlink:href="#m0209d75c48" x="603.165313" y="196.875937" style="fill: #333333; stroke: #ffffff; stroke-width: 0.378946"/>
     </g>
    </g>
    <g id="text_40">
     <!-- 0.020 -->
     <g transform="translate(621.165313 200.375937) scale(0.1 -0.1)">
      <use xlink:href="#DejaVuSans-30"/>
      <use xlink:href="#DejaVuSans-2e" transform="translate(63.623047 0)"/>
      <use xlink:href="#DejaVuSans-30" transform="translate(95.410156 0)"/>
      <use xlink:href="#DejaVuSans-32" transform="translate(159.033203 0)"/>
      <use xlink:href="#DejaVuSans-30" transform="translate(222.65625 0)"/>
     </g>
    </g>
   </g>
  </g>
 </g>
 <defs>
  <clipPath id="pfa30d31081">
   <rect x="227.045313" y="22.318125" width="357.12" height="266.112"/>
  </clipPath>
 </defs>
</svg>
