<?xml version="1.0" encoding="utf-8" standalone="no"?>
<!DOCTYPE svg PUBLIC "-//W3C//DTD SVG 1.1//EN"
  "http://www.w3.org/Graphics/SVG/1.1/DTD/svg11.dtd">
<svg xmlns:xlink="http://www.w3.org/1999/xlink" width="666.723125pt" height="325.986375pt" viewBox="0 0 666.723125 325.986375" xmlns="http://www.w3.org/2000/svg" version="1.1">
 <metadata>
  <rdf:RDF xmlns:dc="http://purl.org/dc/elements/1.1/" xmlns:cc="http://creativecommons.org/ns#" xmlns:rdf="http://www.w3.org/1999/02/22-rdf-syntax-ns#">
   <cc:Work>
    <dc:type rdf:resource="http://purl.org/dc/dcmitype/StillImage"/>
    <dc:date>2025-12-14T19:11:01.038416</dc:date>
    <dc:format>image/svg+xml</dc:format>
    <dc:creator>
     <cc:Agent>
      <dc:title>Matplotlib v3.10.7, https://matplotlib.org/</dc:title>
     </cc:Agent>
    </dc:creator>
   </cc:Work>
  </rdf:RDF>
 </metadata>
 <defs>
  <style type="text/css">*{stroke-linejoin: round; stroke-linecap: butt}</style>
 </defs>
 <g id="figure_1">
  <g id="patch_1">
   <path d="M -0 325.986375 
L 666.723125 325.986375 
L 666.723125 0 
L -0 0 
z
" style="fill: #ffffff"/>
  </g>
  <g id="axes_1">
   <g id="patch_2">
    <path d="M 206.164062 288.430125 
L 563.284063 288.430125 
L 563.284063 22.318125 
L 206.164062 22.318125 
z
" style="fill: #ffffff"/>
   </g>
   <g id="PathCollection_1">
    <path d="M 547.051335 36.650193 
C 547.644347 36.650193 548.213151 36.414587 548.632474 35.995264 
C 549.051797 35.575941 549.287403 35.007137 549.287403 34.414125 
C 549.287403 33.821113 549.051797 33.252309 548.632474 32.832986 
C 548.213151 32.413663 547.644347 32.178057 547.051335 32.178057 
C 546.458323 32.178057 545.889519 32.413663 545.470196 32.832986 
C 545.050873 33.252309 544.815267 33.821113 544.815267 34.414125 
C 544.815267 35.007137 545.050873 35.575941 545.470196 35.995264 
C 545.889519 36.414587 546.458323 36.650193 547.051335 36.650193 
z
" clip-path="url(#pe2f79f85c4)" style="fill: #3b4cc0; stroke: #ffffff; stroke-width: 0.436348"/>
    <path d="M 547.051335 49.768779 
C 547.746704 49.768779 548.413685 49.492506 548.905385 49.000806 
C 549.397085 48.509106 549.673357 47.842125 549.673357 47.146757 
C 549.673357 46.451388 549.397085 45.784407 548.905385 45.292707 
C 548.413685 44.801007 547.746704 44.524734 547.051335 44.524734 
C 546.355967 44.524734 545.688985 44.801007 545.197286 45.292707 
C 544.705586 45.784407 544.429313 46.451388 544.429313 47.146757 
C 544.429313 47.842125 544.705586 48.509106 545.197286 49.000806 
C 545.688985 49.492506 546.355967 49.768779 547.051335 49.768779 
z
" clip-path="url(#pe2f79f85c4)" style="fill: #5f7fe8; stroke: #ffffff; stroke-width: 0.436348"/>
    <path d="M 457.175218 62.729827 
C 457.931163 62.729827 458.656249 62.429487 459.190783 61.894953 
C 459.725316 61.360419 460.025657 60.635333 460.025657 59.879388 
C 460.025657 59.123443 459.725316 58.398358 459.190783 57.863824 
C 458.656249 57.32929 457.931163 57.02895 457.175218 57.02895 
C 456.419273 57.02895 455.694188 57.32929 455.159654 57.863824 
C 454.62512 58.398358 454.32478 59.123443 454.32478 59.879388 
C 454.32478 60.635333 454.62512 61.360419 455.159654 61.894953 
C 455.694188 62.429487 456.419273 62.729827 457.175218 62.729827 
z
" clip-path="url(#pe2f79f85c4)" style="fill: #6282ea; stroke: #ffffff; stroke-width: 0.436348"/>
    <path d="M 375.469657 75.350633 
C 376.195946 75.350633 376.892585 75.062075 377.406149 74.548511 
C 377.919712 74.034948 378.20827 73.338308 378.20827 72.61202 
C 378.20827 71.885731 377.919712 71.189092 377.406149 70.675528 
C 376.892585 70.161964 376.195946 69.873407 375.469657 69.873407 
C 374.743369 69.873407 374.046729 70.161964 373.533165 70.675528 
C 373.019602 71.189092 372.731044 71.885731 372.731044 72.61202 
C 372.731044 73.338308 373.019602 74.034948 373.533165 74.548511 
C 374.046729 75.062075 374.743369 75.350633 375.469657 75.350633 
z
" clip-path="url(#pe2f79f85c4)" style="fill: #455cce; stroke: #ffffff; stroke-width: 0.436348"/>
    <path d="M 367.299101 88.880185 
C 368.236736 88.880185 369.136093 88.507659 369.799101 87.844651 
C 370.462109 87.181644 370.834635 86.282286 370.834635 85.344651 
C 370.834635 84.407017 370.462109 83.507659 369.799101 82.844651 
C 369.136093 82.181644 368.236736 81.809117 367.299101 81.809117 
C 366.361466 81.809117 365.462109 82.181644 364.799101 82.844651 
C 364.136093 83.507659 363.763567 84.407017 363.763567 85.344651 
C 363.763567 86.282286 364.136093 87.181644 364.799101 87.844651 
C 365.462109 88.507659 366.361466 88.880185 367.299101 88.880185 
z
" clip-path="url(#pe2f79f85c4)" style="fill: #92b4fe; stroke: #ffffff; stroke-width: 0.436348"/>
    <path d="M 337.340395 101.035323 
C 338.124877 101.035323 338.877333 100.723645 339.432045 100.168933 
C 339.986757 99.614221 340.298435 98.861764 340.298435 98.077283 
C 340.298435 97.292802 339.986757 96.540345 339.432045 95.985633 
C 338.877333 95.430921 338.124877 95.119243 337.340395 95.119243 
C 336.555914 95.119243 335.803457 95.430921 335.248745 95.985633 
C 334.694033 96.540345 334.382355 97.292802 334.382355 98.077283 
C 334.382355 98.861764 334.694033 99.614221 335.248745 100.168933 
C 335.803457 100.723645 336.555914 101.035323 337.340395 101.035323 
z
" clip-path="url(#pe2f79f85c4)" style="fill: #4e68d8; stroke: #ffffff; stroke-width: 0.436348"/>
    <path d="M 328.296258 114.993215 
C 329.405682 114.993215 330.469816 114.552436 331.254298 113.767954 
C 332.038779 112.983473 332.479558 111.919339 332.479558 110.809914 
C 332.479558 109.70049 332.038779 108.636356 331.254298 107.851875 
C 330.469816 107.067393 329.405682 106.626614 328.296258 106.626614 
C 327.186834 106.626614 326.122699 107.067393 325.338218 107.851875 
C 324.553737 108.636356 324.112958 109.70049 324.112958 110.809914 
C 324.112958 111.919339 324.553737 112.983473 325.338218 113.767954 
C 326.122699 114.552436 327.186834 114.993215 328.296258 114.993215 
z
" clip-path="url(#pe2f79f85c4)" style="fill: #cad8ef; stroke: #ffffff; stroke-width: 0.436348"/>
    <path d="M 322.902465 128.78659 
C 324.293202 128.78659 325.627165 128.234045 326.610564 127.250645 
C 327.593964 126.267246 328.146509 124.933283 328.146509 123.542546 
C 328.146509 122.151809 327.593964 120.817846 326.610564 119.834447 
C 325.627165 118.851047 324.293202 118.298502 322.902465 118.298502 
C 321.511728 118.298502 320.177765 118.851047 319.194366 119.834447 
C 318.210966 120.817846 317.658421 122.151809 317.658421 123.542546 
C 317.658421 124.933283 318.210966 126.267246 319.194366 127.250645 
C 320.177765 128.234045 321.511728 128.78659 322.902465 128.78659 
z
" clip-path="url(#pe2f79f85c4)" style="fill: #e57058; stroke: #ffffff; stroke-width: 0.436348"/>
    <path d="M 306.836986 140.458478 
C 307.94641 140.458478 309.010544 140.017699 309.795026 139.233218 
C 310.579507 138.448736 311.020286 137.384602 311.020286 136.275178 
C 311.020286 135.165753 310.579507 134.101619 309.795026 133.317138 
C 309.010544 132.532656 307.94641 132.091877 306.836986 132.091877 
C 305.727562 132.091877 304.663427 132.532656 303.878946 133.317138 
C 303.094465 134.101619 302.653686 135.165753 302.653686 136.275178 
C 302.653686 137.384602 303.094465 138.448736 303.878946 139.233218 
C 304.663427 140.017699 305.727562 140.458478 306.836986 140.458478 
z
" clip-path="url(#pe2f79f85c4)" style="fill: #bfd3f6; stroke: #ffffff; stroke-width: 0.436348"/>
    <path d="M 301.568806 153.617581 
C 302.791332 153.617581 303.963951 153.131867 304.828408 152.26741 
C 305.692864 151.402954 306.178579 150.230335 306.178579 149.007809 
C 306.178579 147.785283 305.692864 146.612664 304.828408 145.748208 
C 303.963951 144.883752 302.791332 144.398037 301.568806 144.398037 
C 300.346281 144.398037 299.173662 144.883752 298.309205 145.748208 
C 297.444749 146.612664 296.959034 147.785283 296.959034 149.007809 
C 296.959034 150.230335 297.444749 151.402954 298.309205 152.26741 
C 299.173662 153.131867 300.346281 153.617581 301.568806 153.617581 
z
" clip-path="url(#pe2f79f85c4)" style="fill: #e6d7cf; stroke: #ffffff; stroke-width: 0.436348"/>
    <path d="M 290.575586 165.275975 
C 291.513221 165.275975 292.412579 164.903449 293.075586 164.240441 
C 293.738594 163.577433 294.11112 162.678075 294.11112 161.740441 
C 294.11112 160.802806 293.738594 159.903449 293.075586 159.240441 
C 292.412579 158.577433 291.513221 158.204907 290.575586 158.204907 
C 289.637952 158.204907 288.738594 158.577433 288.075586 159.240441 
C 287.412579 159.903449 287.040053 160.802806 287.040053 161.740441 
C 287.040053 162.678075 287.412579 163.577433 288.075586 164.240441 
C 288.738594 164.903449 289.637952 165.275975 290.575586 165.275975 
z
" clip-path="url(#pe2f79f85c4)" style="fill: #7295f4; stroke: #ffffff; stroke-width: 0.436348"/>
    <path d="M 277.422984 177.534935 
C 278.234999 177.534935 279.013866 177.212317 279.588047 176.638136 
C 280.162229 176.063954 280.484846 175.285088 280.484846 174.473072 
C 280.484846 173.661057 280.162229 172.88219 279.588047 172.308009 
C 279.013866 171.733827 278.234999 171.41121 277.422984 171.41121 
C 276.610969 171.41121 275.832102 171.733827 275.25792 172.308009 
C 274.683739 172.88219 274.361122 173.661057 274.361122 174.473072 
C 274.361122 175.285088 274.683739 176.063954 275.25792 176.638136 
C 275.832102 177.212317 276.610969 177.534935 277.422984 177.534935 
z
" clip-path="url(#pe2f79f85c4)" style="fill: #455cce; stroke: #ffffff; stroke-width: 0.436348"/>
    <path d="M 253.97704 191.67784 
C 255.163065 191.67784 256.300672 191.206627 257.139318 190.367982 
C 257.977964 189.529336 258.449176 188.391728 258.449176 187.205704 
C 258.449176 186.01968 257.977964 184.882072 257.139318 184.043426 
C 256.300672 183.20478 255.163065 182.733568 253.97704 182.733568 
C 252.791016 182.733568 251.653409 183.20478 250.814763 184.043426 
C 249.976117 184.882072 249.504904 186.01968 249.504904 187.205704 
C 249.504904 188.391728 249.976117 189.529336 250.814763 190.367982 
C 251.653409 191.206627 252.791016 191.67784 253.97704 191.67784 
z
" clip-path="url(#pe2f79f85c4)" style="fill: #bfd3f6; stroke: #ffffff; stroke-width: 0.436348"/>
    <path d="M 250.460149 203.292437 
C 251.349667 203.292437 252.202873 202.939028 252.831857 202.310044 
C 253.460841 201.681059 253.814251 200.827854 253.814251 199.938336 
C 253.814251 199.048817 253.460841 198.195612 252.831857 197.566627 
C 252.202873 196.937643 251.349667 196.584234 250.460149 196.584234 
C 249.570631 196.584234 248.717425 196.937643 248.088441 197.566627 
C 247.459456 198.195612 247.106047 199.048817 247.106047 199.938336 
C 247.106047 200.827854 247.459456 201.681059 248.088441 202.310044 
C 248.717425 202.939028 249.570631 203.292437 250.460149 203.292437 
z
" clip-path="url(#pe2f79f85c4)" style="fill: #536edd; stroke: #ffffff; stroke-width: 0.436348"/>
    <path d="M 249.041052 215.930568 
C 249.905509 215.930568 250.734675 215.587116 251.345938 214.975853 
C 251.957201 214.36459 252.300653 213.535423 252.300653 212.670967 
C 252.300653 211.806511 251.957201 210.977344 251.345938 210.366081 
C 250.734675 209.754818 249.905509 209.411366 249.041052 209.411366 
C 248.176596 209.411366 247.347429 209.754818 246.736166 210.366081 
C 246.124903 210.977344 245.781451 211.806511 245.781451 212.670967 
C 245.781451 213.535423 246.124903 214.36459 246.736166 214.975853 
C 247.347429 215.587116 248.176596 215.930568 249.041052 215.930568 
z
" clip-path="url(#pe2f79f85c4)" style="fill: #4b64d5; stroke: #ffffff; stroke-width: 0.436348"/>
    <path d="M 248.160992 231.527323 
C 249.785023 231.527323 251.342756 230.882089 252.491119 229.733726 
C 253.639482 228.585363 254.284717 227.027629 254.284717 225.403599 
C 254.284717 223.779568 253.639482 222.221835 252.491119 221.073472 
C 251.342756 219.925109 249.785023 219.279874 248.160992 219.279874 
C 246.536962 219.279874 244.979228 219.925109 243.830865 221.073472 
C 242.682502 222.221835 242.037268 223.779568 242.037268 225.403599 
C 242.037268 227.027629 242.682502 228.585363 243.830865 229.733726 
C 244.979228 230.882089 246.536962 231.527323 248.160992 231.527323 
z
" clip-path="url(#pe2f79f85c4)" style="fill: #b40426; stroke: #ffffff; stroke-width: 0.436348"/>
    <path d="M 245.702001 241.198092 
C 246.514017 241.198092 247.292883 240.875475 247.867065 240.301294 
C 248.441246 239.727112 248.763864 238.948246 248.763864 238.13623 
C 248.763864 237.324215 248.441246 236.545348 247.867065 235.971167 
C 247.292883 235.396985 246.514017 235.074368 245.702001 235.074368 
C 244.889986 235.074368 244.111119 235.396985 243.536938 235.971167 
C 242.962756 236.545348 242.640139 237.324215 242.640139 238.13623 
C 242.640139 238.948246 242.962756 239.727112 243.536938 240.301294 
C 244.111119 240.875475 244.889986 241.198092 245.702001 241.198092 
z
" clip-path="url(#pe2f79f85c4)" style="fill: #3d50c3; stroke: #ffffff; stroke-width: 0.436348"/>
    <path d="M 228.399647 254.741845 
C 229.426775 254.741845 230.411972 254.333763 231.13826 253.607475 
C 231.864549 252.881186 232.272631 251.895989 232.272631 250.868862 
C 232.272631 249.841735 231.864549 248.856538 231.13826 248.130249 
C 230.411972 247.40396 229.426775 246.995878 228.399647 246.995878 
C 227.37252 246.995878 226.387323 247.40396 225.661035 248.130249 
C 224.934746 248.856538 224.526664 249.841735 224.526664 250.868862 
C 224.526664 251.895989 224.934746 252.881186 225.661035 253.607475 
C 226.387323 254.333763 227.37252 254.741845 228.399647 254.741845 
z
" clip-path="url(#pe2f79f85c4)" style="fill: #7597f6; stroke: #ffffff; stroke-width: 0.436348"/>
    <path d="M 222.715782 267.93162 
C 223.864145 267.93162 224.965629 267.475371 225.777644 266.663356 
C 226.58966 265.85134 227.045909 264.749857 227.045909 263.601493 
C 227.045909 262.45313 226.58966 261.351647 225.777644 260.539631 
C 224.965629 259.727616 223.864145 259.271366 222.715782 259.271366 
C 221.567419 259.271366 220.465935 259.727616 219.65392 260.539631 
C 218.841905 261.351647 218.385655 262.45313 218.385655 263.601493 
C 218.385655 264.749857 218.841905 265.85134 219.65392 266.663356 
C 220.465935 267.475371 221.567419 267.93162 222.715782 267.93162 
z
" clip-path="url(#pe2f79f85c4)" style="fill: #9dbdff; stroke: #ffffff; stroke-width: 0.436348"/>
    <path d="M 222.39679 279.956969 
C 223.357579 279.956969 224.279147 279.575243 224.958527 278.895863 
C 225.637908 278.216482 226.019634 277.294915 226.019634 276.334125 
C 226.019634 275.373335 225.637908 274.451768 224.958527 273.772387 
C 224.279147 273.093007 223.357579 272.711281 222.39679 272.711281 
C 221.436 272.711281 220.514433 273.093007 219.835052 273.772387 
C 219.155671 274.451768 218.773946 275.373335 218.773946 276.334125 
C 218.773946 277.294915 219.155671 278.216482 219.835052 278.895863 
C 220.514433 279.575243 221.436 279.956969 222.39679 279.956969 
z
" clip-path="url(#pe2f79f85c4)" style="fill: #5d7ce6; stroke: #ffffff; stroke-width: 0.436348"/>
   </g>
   <g id="matplotlib.axis_1">
    <g id="xtick_1">
     <g id="line2d_1">
      <defs>
       <path id="ma61d938e12" d="M 0 0 
L 0 3.5 
" style="stroke: #000000; stroke-width: 0.8"/>
      </defs>
      <g>
       <use xlink:href="#ma61d938e12" x="211.390482" y="288.430125" style="stroke: #000000; stroke-width: 0.8"/>
      </g>
     </g>
     <g id="text_1">
      <!-- 3.5 -->
      <g transform="translate(203.43892 303.028562) scale(0.1 -0.1)">
       <defs>
        <path id="DejaVuSans-33" d="M 2597 2516 
Q 3050 2419 3304 2112 
Q 3559 1806 3559 1356 
Q 3559 666 3084 287 
Q 2609 -91 1734 -91 
Q 1441 -91 1130 -33 
Q 819 25 488 141 
L 488 750 
Q 750 597 1062 519 
Q 1375 441 1716 441 
Q 2309 441 2620 675 
Q 2931 909 2931 1356 
Q 2931 1769 2642 2001 
Q 2353 2234 1838 2234 
L 1294 2234 
L 1294 2753 
L 1863 2753 
Q 2328 2753 2575 2939 
Q 2822 3125 2822 3475 
Q 2822 3834 2567 4026 
Q 2313 4219 1838 4219 
Q 1578 4219 1281 4162 
Q 984 4106 628 3988 
L 628 4550 
Q 988 4650 1302 4700 
Q 1616 4750 1894 4750 
Q 2613 4750 3031 4423 
Q 3450 4097 3450 3541 
Q 3450 3153 3228 2886 
Q 3006 2619 2597 2516 
z
" transform="scale(0.015625)"/>
        <path id="DejaVuSans-2e" d="M 684 794 
L 1344 794 
L 1344 0 
L 684 0 
L 684 794 
z
" transform="scale(0.015625)"/>
        <path id="DejaVuSans-35" d="M 691 4666 
L 3169 4666 
L 3169 4134 
L 1269 4134 
L 1269 2991 
Q 1406 3038 1543 3061 
Q 1681 3084 1819 3084 
Q 2600 3084 3056 2656 
Q 3513 2228 3513 1497 
Q 3513 744 3044 326 
Q 2575 -91 1722 -91 
Q 1428 -91 1123 -41 
Q 819 9 494 109 
L 494 744 
Q 775 591 1075 516 
Q 1375 441 1709 441 
Q 2250 441 2565 725 
Q 2881 1009 2881 1497 
Q 2881 1984 2565 2268 
Q 2250 2553 1709 2553 
Q 1456 2553 1204 2497 
Q 953 2441 691 2322 
L 691 4666 
z
" transform="scale(0.015625)"/>
       </defs>
       <use xlink:href="#DejaVuSans-33"/>
       <use xlink:href="#DejaVuSans-2e" transform="translate(63.623047 0)"/>
       <use xlink:href="#DejaVuSans-35" transform="translate(95.410156 0)"/>
      </g>
     </g>
    </g>
    <g id="xtick_2">
     <g id="line2d_2">
      <g>
       <use xlink:href="#ma61d938e12" x="278.99394" y="288.430125" style="stroke: #000000; stroke-width: 0.8"/>
      </g>
     </g>
     <g id="text_2">
      <!-- 4.0 -->
      <g transform="translate(271.042377 303.028562) scale(0.1 -0.1)">
       <defs>
        <path id="DejaVuSans-34" d="M 2419 4116 
L 825 1625 
L 2419 1625 
L 2419 4116 
z
M 2253 4666 
L 3047 4666 
L 3047 1625 
L 3713 1625 
L 3713 1100 
L 3047 1100 
L 3047 0 
L 2419 0 
L 2419 1100 
L 313 1100 
L 313 1709 
L 2253 4666 
z
" transform="scale(0.015625)"/>
        <path id="DejaVuSans-30" d="M 2034 4250 
Q 1547 4250 1301 3770 
Q 1056 3291 1056 2328 
Q 1056 1369 1301 889 
Q 1547 409 2034 409 
Q 2525 409 2770 889 
Q 3016 1369 3016 2328 
Q 3016 3291 2770 3770 
Q 2525 4250 2034 4250 
z
M 2034 4750 
Q 2819 4750 3233 4129 
Q 3647 3509 3647 2328 
Q 3647 1150 3233 529 
Q 2819 -91 2034 -91 
Q 1250 -91 836 529 
Q 422 1150 422 2328 
Q 422 3509 836 4129 
Q 1250 4750 2034 4750 
z
" transform="scale(0.015625)"/>
       </defs>
       <use xlink:href="#DejaVuSans-34"/>
       <use xlink:href="#DejaVuSans-2e" transform="translate(63.623047 0)"/>
       <use xlink:href="#DejaVuSans-30" transform="translate(95.410156 0)"/>
      </g>
     </g>
    </g>
    <g id="xtick_3">
     <g id="line2d_3">
      <g>
       <use xlink:href="#ma61d938e12" x="346.597397" y="288.430125" style="stroke: #000000; stroke-width: 0.8"/>
      </g>
     </g>
     <g id="text_3">
      <!-- 4.5 -->
      <g transform="translate(338.645834 303.028562) scale(0.1 -0.1)">
       <use xlink:href="#DejaVuSans-34"/>
       <use xlink:href="#DejaVuSans-2e" transform="translate(63.623047 0)"/>
       <use xlink:href="#DejaVuSans-35" transform="translate(95.410156 0)"/>
      </g>
     </g>
    </g>
    <g id="xtick_4">
     <g id="line2d_4">
      <g>
       <use xlink:href="#ma61d938e12" x="414.200854" y="288.430125" style="stroke: #000000; stroke-width: 0.8"/>
      </g>
     </g>
     <g id="text_4">
      <!-- 5.0 -->
      <g transform="translate(406.249292 303.028562) scale(0.1 -0.1)">
       <use xlink:href="#DejaVuSans-35"/>
       <use xlink:href="#DejaVuSans-2e" transform="translate(63.623047 0)"/>
       <use xlink:href="#DejaVuSans-30" transform="translate(95.410156 0)"/>
      </g>
     </g>
    </g>
    <g id="xtick_5">
     <g id="line2d_5">
      <g>
       <use xlink:href="#ma61d938e12" x="481.804311" y="288.430125" style="stroke: #000000; stroke-width: 0.8"/>
      </g>
     </g>
     <g id="text_5">
      <!-- 5.5 -->
      <g transform="translate(473.852749 303.028562) scale(0.1 -0.1)">
       <use xlink:href="#DejaVuSans-35"/>
       <use xlink:href="#DejaVuSans-2e" transform="translate(63.623047 0)"/>
       <use xlink:href="#DejaVuSans-35" transform="translate(95.410156 0)"/>
      </g>
     </g>
    </g>
    <g id="xtick_6">
     <g id="line2d_6">
      <g>
       <use xlink:href="#ma61d938e12" x="549.407769" y="288.430125" style="stroke: #000000; stroke-width: 0.8"/>
      </g>
     </g>
     <g id="text_6">
      <!-- 6.0 -->
      <g transform="translate(541.456206 303.028562) scale(0.1 -0.1)">
       <defs>
        <path id="DejaVuSans-36" d="M 2113 2584 
Q 1688 2584 1439 2293 
Q 1191 2003 1191 1497 
Q 1191 994 1439 701 
Q 1688 409 2113 409 
Q 2538 409 2786 701 
Q 3034 994 3034 1497 
Q 3034 2003 2786 2293 
Q 2538 2584 2113 2584 
z
M 3366 4563 
L 3366 3988 
Q 3128 4100 2886 4159 
Q 2644 4219 2406 4219 
Q 1781 4219 1451 3797 
Q 1122 3375 1075 2522 
Q 1259 2794 1537 2939 
Q 1816 3084 2150 3084 
Q 2853 3084 3261 2657 
Q 3669 2231 3669 1497 
Q 3669 778 3244 343 
Q 2819 -91 2113 -91 
Q 1303 -91 875 529 
Q 447 1150 447 2328 
Q 447 3434 972 4092 
Q 1497 4750 2381 4750 
Q 2619 4750 2861 4703 
Q 3103 4656 3366 4563 
z
" transform="scale(0.015625)"/>
       </defs>
       <use xlink:href="#DejaVuSans-36"/>
       <use xlink:href="#DejaVuSans-2e" transform="translate(63.623047 0)"/>
       <use xlink:href="#DejaVuSans-30" transform="translate(95.410156 0)"/>
      </g>
     </g>
    </g>
    <g id="text_7">
     <!-- Fold Enrichment -->
     <g transform="translate(344.051406 316.706687) scale(0.1 -0.1)">
      <defs>
       <path id="DejaVuSans-46" d="M 628 4666 
L 3309 4666 
L 3309 4134 
L 1259 4134 
L 1259 2759 
L 3109 2759 
L 3109 2228 
L 1259 2228 
L 1259 0 
L 628 0 
L 628 4666 
z
" transform="scale(0.015625)"/>
       <path id="DejaVuSans-6f" d="M 1959 3097 
Q 1497 3097 1228 2736 
Q 959 2375 959 1747 
Q 959 1119 1226 758 
Q 1494 397 1959 397 
Q 2419 397 2687 759 
Q 2956 1122 2956 1747 
Q 2956 2369 2687 2733 
Q 2419 3097 1959 3097 
z
M 1959 3584 
Q 2709 3584 3137 3096 
Q 3566 2609 3566 1747 
Q 3566 888 3137 398 
Q 2709 -91 1959 -91 
Q 1206 -91 779 398 
Q 353 888 353 1747 
Q 353 2609 779 3096 
Q 1206 3584 1959 3584 
z
" transform="scale(0.015625)"/>
       <path id="DejaVuSans-6c" d="M 603 4863 
L 1178 4863 
L 1178 0 
L 603 0 
L 603 4863 
z
" transform="scale(0.015625)"/>
       <path id="DejaVuSans-64" d="M 2906 2969 
L 2906 4863 
L 3481 4863 
L 3481 0 
L 2906 0 
L 2906 525 
Q 2725 213 2448 61 
Q 2172 -91 1784 -91 
Q 1150 -91 751 415 
Q 353 922 353 1747 
Q 353 2572 751 3078 
Q 1150 3584 1784 3584 
Q 2172 3584 2448 3432 
Q 2725 3281 2906 2969 
z
M 947 1747 
Q 947 1113 1208 752 
Q 1469 391 1925 391 
Q 2381 391 2643 752 
Q 2906 1113 2906 1747 
Q 2906 2381 2643 2742 
Q 2381 3103 1925 3103 
Q 1469 3103 1208 2742 
Q 947 2381 947 1747 
z
" transform="scale(0.015625)"/>
       <path id="DejaVuSans-20" transform="scale(0.015625)"/>
       <path id="DejaVuSans-45" d="M 628 4666 
L 3578 4666 
L 3578 4134 
L 1259 4134 
L 1259 2753 
L 3481 2753 
L 3481 2222 
L 1259 2222 
L 1259 531 
L 3634 531 
L 3634 0 
L 628 0 
L 628 4666 
z
" transform="scale(0.015625)"/>
       <path id="DejaVuSans-6e" d="M 3513 2113 
L 3513 0 
L 2938 0 
L 2938 2094 
Q 2938 2591 2744 2837 
Q 2550 3084 2163 3084 
Q 1697 3084 1428 2787 
Q 1159 2491 1159 1978 
L 1159 0 
L 581 0 
L 581 3500 
L 1159 3500 
L 1159 2956 
Q 1366 3272 1645 3428 
Q 1925 3584 2291 3584 
Q 2894 3584 3203 3211 
Q 3513 2838 3513 2113 
z
" transform="scale(0.015625)"/>
       <path id="DejaVuSans-72" d="M 2631 2963 
Q 2534 3019 2420 3045 
Q 2306 3072 2169 3072 
Q 1681 3072 1420 2755 
Q 1159 2438 1159 1844 
L 1159 0 
L 581 0 
L 581 3500 
L 1159 3500 
L 1159 2956 
Q 1341 3275 1631 3429 
Q 1922 3584 2338 3584 
Q 2397 3584 2469 3576 
Q 2541 3569 2628 3553 
L 2631 2963 
z
" transform="scale(0.015625)"/>
       <path id="DejaVuSans-69" d="M 603 3500 
L 1178 3500 
L 1178 0 
L 603 0 
L 603 3500 
z
M 603 4863 
L 1178 4863 
L 1178 4134 
L 603 4134 
L 603 4863 
z
" transform="scale(0.015625)"/>
       <path id="DejaVuSans-63" d="M 3122 3366 
L 3122 2828 
Q 2878 2963 2633 3030 
Q 2388 3097 2138 3097 
Q 1578 3097 1268 2742 
Q 959 2388 959 1747 
Q 959 1106 1268 751 
Q 1578 397 2138 397 
Q 2388 397 2633 464 
Q 2878 531 3122 666 
L 3122 134 
Q 2881 22 2623 -34 
Q 2366 -91 2075 -91 
Q 1284 -91 818 406 
Q 353 903 353 1747 
Q 353 2603 823 3093 
Q 1294 3584 2113 3584 
Q 2378 3584 2631 3529 
Q 2884 3475 3122 3366 
z
" transform="scale(0.015625)"/>
       <path id="DejaVuSans-68" d="M 3513 2113 
L 3513 0 
L 2938 0 
L 2938 2094 
Q 2938 2591 2744 2837 
Q 2550 3084 2163 3084 
Q 1697 3084 1428 2787 
Q 1159 2491 1159 1978 
L 1159 0 
L 581 0 
L 581 4863 
L 1159 4863 
L 1159 2956 
Q 1366 3272 1645 3428 
Q 1925 3584 2291 3584 
Q 2894 3584 3203 3211 
Q 3513 2838 3513 2113 
z
" transform="scale(0.015625)"/>
       <path id="DejaVuSans-6d" d="M 3328 2828 
Q 3544 3216 3844 3400 
Q 4144 3584 4550 3584 
Q 5097 3584 5394 3201 
Q 5691 2819 5691 2113 
L 5691 0 
L 5113 0 
L 5113 2094 
Q 5113 2597 4934 2840 
Q 4756 3084 4391 3084 
Q 3944 3084 3684 2787 
Q 3425 2491 3425 1978 
L 3425 0 
L 2847 0 
L 2847 2094 
Q 2847 2600 2669 2842 
Q 2491 3084 2119 3084 
Q 1678 3084 1418 2786 
Q 1159 2488 1159 1978 
L 1159 0 
L 581 0 
L 581 3500 
L 1159 3500 
L 1159 2956 
Q 1356 3278 1631 3431 
Q 1906 3584 2284 3584 
Q 2666 3584 2933 3390 
Q 3200 3197 3328 2828 
z
" transform="scale(0.015625)"/>
       <path id="DejaVuSans-65" d="M 3597 1894 
L 3597 1613 
L 953 1613 
Q 991 1019 1311 708 
Q 1631 397 2203 397 
Q 2534 397 2845 478 
Q 3156 559 3463 722 
L 3463 178 
Q 3153 47 2828 -22 
Q 2503 -91 2169 -91 
Q 1331 -91 842 396 
Q 353 884 353 1716 
Q 353 2575 817 3079 
Q 1281 3584 2069 3584 
Q 2775 3584 3186 3129 
Q 3597 2675 3597 1894 
z
M 3022 2063 
Q 3016 2534 2758 2815 
Q 2500 3097 2075 3097 
Q 1594 3097 1305 2825 
Q 1016 2553 972 2059 
L 3022 2063 
z
" transform="scale(0.015625)"/>
       <path id="DejaVuSans-74" d="M 1172 4494 
L 1172 3500 
L 2356 3500 
L 2356 3053 
L 1172 3053 
L 1172 1153 
Q 1172 725 1289 603 
Q 1406 481 1766 481 
L 2356 481 
L 2356 0 
L 1766 0 
Q 1100 0 847 248 
Q 594 497 594 1153 
L 594 3053 
L 172 3053 
L 172 3500 
L 594 3500 
L 594 4494 
L 1172 4494 
z
" transform="scale(0.015625)"/>
      </defs>
      <use xlink:href="#DejaVuSans-46"/>
      <use xlink:href="#DejaVuSans-6f" transform="translate(53.894531 0)"/>
      <use xlink:href="#DejaVuSans-6c" transform="translate(115.076172 0)"/>
      <use xlink:href="#DejaVuSans-64" transform="translate(142.859375 0)"/>
      <use xlink:href="#DejaVuSans-20" transform="translate(206.335938 0)"/>
      <use xlink:href="#DejaVuSans-45" transform="translate(238.123047 0)"/>
      <use xlink:href="#DejaVuSans-6e" transform="translate(301.306641 0)"/>
      <use xlink:href="#DejaVuSans-72" transform="translate(364.685547 0)"/>
      <use xlink:href="#DejaVuSans-69" transform="translate(405.798828 0)"/>
      <use xlink:href="#DejaVuSans-63" transform="translate(433.582031 0)"/>
      <use xlink:href="#DejaVuSans-68" transform="translate(488.5625 0)"/>
      <use xlink:href="#DejaVuSans-6d" transform="translate(551.941406 0)"/>
      <use xlink:href="#DejaVuSans-65" transform="translate(649.353516 0)"/>
      <use xlink:href="#DejaVuSans-6e" transform="translate(710.876953 0)"/>
      <use xlink:href="#DejaVuSans-74" transform="translate(774.255859 0)"/>
     </g>
    </g>
   </g>
   <g id="matplotlib.axis_2">
    <g id="ytick_1">
     <g id="line2d_7">
      <defs>
       <path id="m9d6080279b" d="M 0 0 
L -3.5 0 
" style="stroke: #000000; stroke-width: 0.8"/>
      </defs>
      <g>
       <use xlink:href="#m9d6080279b" x="206.164062" y="34.414125" style="stroke: #000000; stroke-width: 0.8"/>
      </g>
     </g>
     <g id="text_8">
      <!-- Severe expressive language delay -->
      <g transform="translate(27.578125 38.213344) scale(0.1 -0.1)">
       <defs>
        <path id="DejaVuSans-53" d="M 3425 4513 
L 3425 3897 
Q 3066 4069 2747 4153 
Q 2428 4238 2131 4238 
Q 1616 4238 1336 4038 
Q 1056 3838 1056 3469 
Q 1056 3159 1242 3001 
Q 1428 2844 1947 2747 
L 2328 2669 
Q 3034 2534 3370 2195 
Q 3706 1856 3706 1288 
Q 3706 609 3251 259 
Q 2797 -91 1919 -91 
Q 1588 -91 1214 -16 
Q 841 59 441 206 
L 441 856 
Q 825 641 1194 531 
Q 1563 422 1919 422 
Q 2459 422 2753 634 
Q 3047 847 3047 1241 
Q 3047 1584 2836 1778 
Q 2625 1972 2144 2069 
L 1759 2144 
Q 1053 2284 737 2584 
Q 422 2884 422 3419 
Q 422 4038 858 4394 
Q 1294 4750 2059 4750 
Q 2388 4750 2728 4690 
Q 3069 4631 3425 4513 
z
" transform="scale(0.015625)"/>
        <path id="DejaVuSans-76" d="M 191 3500 
L 800 3500 
L 1894 563 
L 2988 3500 
L 3597 3500 
L 2284 0 
L 1503 0 
L 191 3500 
z
" transform="scale(0.015625)"/>
        <path id="DejaVuSans-78" d="M 3513 3500 
L 2247 1797 
L 3578 0 
L 2900 0 
L 1881 1375 
L 863 0 
L 184 0 
L 1544 1831 
L 300 3500 
L 978 3500 
L 1906 2253 
L 2834 3500 
L 3513 3500 
z
" transform="scale(0.015625)"/>
        <path id="DejaVuSans-70" d="M 1159 525 
L 1159 -1331 
L 581 -1331 
L 581 3500 
L 1159 3500 
L 1159 2969 
Q 1341 3281 1617 3432 
Q 1894 3584 2278 3584 
Q 2916 3584 3314 3078 
Q 3713 2572 3713 1747 
Q 3713 922 3314 415 
Q 2916 -91 2278 -91 
Q 1894 -91 1617 61 
Q 1341 213 1159 525 
z
M 3116 1747 
Q 3116 2381 2855 2742 
Q 2594 3103 2138 3103 
Q 1681 3103 1420 2742 
Q 1159 2381 1159 1747 
Q 1159 1113 1420 752 
Q 1681 391 2138 391 
Q 2594 391 2855 752 
Q 3116 1113 3116 1747 
z
" transform="scale(0.015625)"/>
        <path id="DejaVuSans-73" d="M 2834 3397 
L 2834 2853 
Q 2591 2978 2328 3040 
Q 2066 3103 1784 3103 
Q 1356 3103 1142 2972 
Q 928 2841 928 2578 
Q 928 2378 1081 2264 
Q 1234 2150 1697 2047 
L 1894 2003 
Q 2506 1872 2764 1633 
Q 3022 1394 3022 966 
Q 3022 478 2636 193 
Q 2250 -91 1575 -91 
Q 1294 -91 989 -36 
Q 684 19 347 128 
L 347 722 
Q 666 556 975 473 
Q 1284 391 1588 391 
Q 1994 391 2212 530 
Q 2431 669 2431 922 
Q 2431 1156 2273 1281 
Q 2116 1406 1581 1522 
L 1381 1569 
Q 847 1681 609 1914 
Q 372 2147 372 2553 
Q 372 3047 722 3315 
Q 1072 3584 1716 3584 
Q 2034 3584 2315 3537 
Q 2597 3491 2834 3397 
z
" transform="scale(0.015625)"/>
        <path id="DejaVuSans-61" d="M 2194 1759 
Q 1497 1759 1228 1600 
Q 959 1441 959 1056 
Q 959 750 1161 570 
Q 1363 391 1709 391 
Q 2188 391 2477 730 
Q 2766 1069 2766 1631 
L 2766 1759 
L 2194 1759 
z
M 3341 1997 
L 3341 0 
L 2766 0 
L 2766 531 
Q 2569 213 2275 61 
Q 1981 -91 1556 -91 
Q 1019 -91 701 211 
Q 384 513 384 1019 
Q 384 1609 779 1909 
Q 1175 2209 1959 2209 
L 2766 2209 
L 2766 2266 
Q 2766 2663 2505 2880 
Q 2244 3097 1772 3097 
Q 1472 3097 1187 3025 
Q 903 2953 641 2809 
L 641 3341 
Q 956 3463 1253 3523 
Q 1550 3584 1831 3584 
Q 2591 3584 2966 3190 
Q 3341 2797 3341 1997 
z
" transform="scale(0.015625)"/>
        <path id="DejaVuSans-67" d="M 2906 1791 
Q 2906 2416 2648 2759 
Q 2391 3103 1925 3103 
Q 1463 3103 1205 2759 
Q 947 2416 947 1791 
Q 947 1169 1205 825 
Q 1463 481 1925 481 
Q 2391 481 2648 825 
Q 2906 1169 2906 1791 
z
M 3481 434 
Q 3481 -459 3084 -895 
Q 2688 -1331 1869 -1331 
Q 1566 -1331 1297 -1286 
Q 1028 -1241 775 -1147 
L 775 -588 
Q 1028 -725 1275 -790 
Q 1522 -856 1778 -856 
Q 2344 -856 2625 -561 
Q 2906 -266 2906 331 
L 2906 616 
Q 2728 306 2450 153 
Q 2172 0 1784 0 
Q 1141 0 747 490 
Q 353 981 353 1791 
Q 353 2603 747 3093 
Q 1141 3584 1784 3584 
Q 2172 3584 2450 3431 
Q 2728 3278 2906 2969 
L 2906 3500 
L 3481 3500 
L 3481 434 
z
" transform="scale(0.015625)"/>
        <path id="DejaVuSans-75" d="M 544 1381 
L 544 3500 
L 1119 3500 
L 1119 1403 
Q 1119 906 1312 657 
Q 1506 409 1894 409 
Q 2359 409 2629 706 
Q 2900 1003 2900 1516 
L 2900 3500 
L 3475 3500 
L 3475 0 
L 2900 0 
L 2900 538 
Q 2691 219 2414 64 
Q 2138 -91 1772 -91 
Q 1169 -91 856 284 
Q 544 659 544 1381 
z
M 1991 3584 
L 1991 3584 
z
" transform="scale(0.015625)"/>
        <path id="DejaVuSans-79" d="M 2059 -325 
Q 1816 -950 1584 -1140 
Q 1353 -1331 966 -1331 
L 506 -1331 
L 506 -850 
L 844 -850 
Q 1081 -850 1212 -737 
Q 1344 -625 1503 -206 
L 1606 56 
L 191 3500 
L 800 3500 
L 1894 763 
L 2988 3500 
L 3597 3500 
L 2059 -325 
z
" transform="scale(0.015625)"/>
       </defs>
       <use xlink:href="#DejaVuSans-53"/>
       <use xlink:href="#DejaVuSans-65" transform="translate(63.476562 0)"/>
       <use xlink:href="#DejaVuSans-76" transform="translate(125 0)"/>
       <use xlink:href="#DejaVuSans-65" transform="translate(184.179688 0)"/>
       <use xlink:href="#DejaVuSans-72" transform="translate(245.703125 0)"/>
       <use xlink:href="#DejaVuSans-65" transform="translate(284.566406 0)"/>
       <use xlink:href="#DejaVuSans-20" transform="translate(346.089844 0)"/>
       <use xlink:href="#DejaVuSans-65" transform="translate(377.876953 0)"/>
       <use xlink:href="#DejaVuSans-78" transform="translate(437.650391 0)"/>
       <use xlink:href="#DejaVuSans-70" transform="translate(496.830078 0)"/>
       <use xlink:href="#DejaVuSans-72" transform="translate(560.306641 0)"/>
       <use xlink:href="#DejaVuSans-65" transform="translate(599.169922 0)"/>
       <use xlink:href="#DejaVuSans-73" transform="translate(660.693359 0)"/>
       <use xlink:href="#DejaVuSans-73" transform="translate(712.792969 0)"/>
       <use xlink:href="#DejaVuSans-69" transform="translate(764.892578 0)"/>
       <use xlink:href="#DejaVuSans-76" transform="translate(792.675781 0)"/>
       <use xlink:href="#DejaVuSans-65" transform="translate(851.855469 0)"/>
       <use xlink:href="#DejaVuSans-20" transform="translate(913.378906 0)"/>
       <use xlink:href="#DejaVuSans-6c" transform="translate(945.166016 0)"/>
       <use xlink:href="#DejaVuSans-61" transform="translate(972.949219 0)"/>
       <use xlink:href="#DejaVuSans-6e" transform="translate(1034.228516 0)"/>
       <use xlink:href="#DejaVuSans-67" transform="translate(1097.607422 0)"/>
       <use xlink:href="#DejaVuSans-75" transform="translate(1161.083984 0)"/>
       <use xlink:href="#DejaVuSans-61" transform="translate(1224.462891 0)"/>
       <use xlink:href="#DejaVuSans-67" transform="translate(1285.742188 0)"/>
       <use xlink:href="#DejaVuSans-65" transform="translate(1349.21875 0)"/>
       <use xlink:href="#DejaVuSans-20" transform="translate(1410.742188 0)"/>
       <use xlink:href="#DejaVuSans-64" transform="translate(1442.529297 0)"/>
       <use xlink:href="#DejaVuSans-65" transform="translate(1506.005859 0)"/>
       <use xlink:href="#DejaVuSans-6c" transform="translate(1567.529297 0)"/>
       <use xlink:href="#DejaVuSans-61" transform="translate(1595.3125 0)"/>
       <use xlink:href="#DejaVuSans-79" transform="translate(1656.591797 0)"/>
      </g>
     </g>
    </g>
    <g id="ytick_2">
     <g id="line2d_8">
      <g>
       <use xlink:href="#m9d6080279b" x="206.164062" y="47.146757" style="stroke: #000000; stroke-width: 0.8"/>
      </g>
     </g>
     <g id="text_9">
      <!-- Tics -->
      <g transform="translate(179.882812 50.945975) scale(0.1 -0.1)">
       <defs>
        <path id="DejaVuSans-54" d="M -19 4666 
L 3928 4666 
L 3928 4134 
L 2272 4134 
L 2272 0 
L 1638 0 
L 1638 4134 
L -19 4134 
L -19 4666 
z
" transform="scale(0.015625)"/>
       </defs>
       <use xlink:href="#DejaVuSans-54"/>
       <use xlink:href="#DejaVuSans-69" transform="translate(57.958984 0)"/>
       <use xlink:href="#DejaVuSans-63" transform="translate(85.742188 0)"/>
       <use xlink:href="#DejaVuSans-73" transform="translate(140.722656 0)"/>
      </g>
     </g>
    </g>
    <g id="ytick_3">
     <g id="line2d_9">
      <g>
       <use xlink:href="#m9d6080279b" x="206.164062" y="59.879388" style="stroke: #000000; stroke-width: 0.8"/>
      </g>
     </g>
     <g id="text_10">
      <!-- Happy demeanor -->
      <g transform="translate(112.63125 63.678607) scale(0.1 -0.1)">
       <defs>
        <path id="DejaVuSans-48" d="M 628 4666 
L 1259 4666 
L 1259 2753 
L 3553 2753 
L 3553 4666 
L 4184 4666 
L 4184 0 
L 3553 0 
L 3553 2222 
L 1259 2222 
L 1259 0 
L 628 0 
L 628 4666 
z
" transform="scale(0.015625)"/>
       </defs>
       <use xlink:href="#DejaVuSans-48"/>
       <use xlink:href="#DejaVuSans-61" transform="translate(75.195312 0)"/>
       <use xlink:href="#DejaVuSans-70" transform="translate(136.474609 0)"/>
       <use xlink:href="#DejaVuSans-70" transform="translate(199.951172 0)"/>
       <use xlink:href="#DejaVuSans-79" transform="translate(263.427734 0)"/>
       <use xlink:href="#DejaVuSans-20" transform="translate(322.607422 0)"/>
       <use xlink:href="#DejaVuSans-64" transform="translate(354.394531 0)"/>
       <use xlink:href="#DejaVuSans-65" transform="translate(417.871094 0)"/>
       <use xlink:href="#DejaVuSans-6d" transform="translate(479.394531 0)"/>
       <use xlink:href="#DejaVuSans-65" transform="translate(576.806641 0)"/>
       <use xlink:href="#DejaVuSans-61" transform="translate(638.330078 0)"/>
       <use xlink:href="#DejaVuSans-6e" transform="translate(699.609375 0)"/>
       <use xlink:href="#DejaVuSans-6f" transform="translate(762.988281 0)"/>
       <use xlink:href="#DejaVuSans-72" transform="translate(824.169922 0)"/>
      </g>
     </g>
    </g>
    <g id="ytick_4">
     <g id="line2d_10">
      <g>
       <use xlink:href="#m9d6080279b" x="206.164062" y="72.61202" style="stroke: #000000; stroke-width: 0.8"/>
      </g>
     </g>
     <g id="text_11">
      <!-- Talipes valgus -->
      <g transform="translate(129.4125 76.411238) scale(0.1 -0.1)">
       <use xlink:href="#DejaVuSans-54"/>
       <use xlink:href="#DejaVuSans-61" transform="translate(44.583984 0)"/>
       <use xlink:href="#DejaVuSans-6c" transform="translate(105.863281 0)"/>
       <use xlink:href="#DejaVuSans-69" transform="translate(133.646484 0)"/>
       <use xlink:href="#DejaVuSans-70" transform="translate(161.429688 0)"/>
       <use xlink:href="#DejaVuSans-65" transform="translate(224.90625 0)"/>
       <use xlink:href="#DejaVuSans-73" transform="translate(286.429688 0)"/>
       <use xlink:href="#DejaVuSans-20" transform="translate(338.529297 0)"/>
       <use xlink:href="#DejaVuSans-76" transform="translate(370.316406 0)"/>
       <use xlink:href="#DejaVuSans-61" transform="translate(429.496094 0)"/>
       <use xlink:href="#DejaVuSans-6c" transform="translate(490.775391 0)"/>
       <use xlink:href="#DejaVuSans-67" transform="translate(518.558594 0)"/>
       <use xlink:href="#DejaVuSans-75" transform="translate(582.035156 0)"/>
       <use xlink:href="#DejaVuSans-73" transform="translate(645.414062 0)"/>
      </g>
     </g>
    </g>
    <g id="ytick_5">
     <g id="line2d_11">
      <g>
       <use xlink:href="#m9d6080279b" x="206.164062" y="85.344651" style="stroke: #000000; stroke-width: 0.8"/>
      </g>
     </g>
     <g id="text_12">
      <!-- Atypical absence seizure -->
      <g transform="translate(75.178125 89.14387) scale(0.1 -0.1)">
       <defs>
        <path id="DejaVuSans-41" d="M 2188 4044 
L 1331 1722 
L 3047 1722 
L 2188 4044 
z
M 1831 4666 
L 2547 4666 
L 4325 0 
L 3669 0 
L 3244 1197 
L 1141 1197 
L 716 0 
L 50 0 
L 1831 4666 
z
" transform="scale(0.015625)"/>
        <path id="DejaVuSans-62" d="M 3116 1747 
Q 3116 2381 2855 2742 
Q 2594 3103 2138 3103 
Q 1681 3103 1420 2742 
Q 1159 2381 1159 1747 
Q 1159 1113 1420 752 
Q 1681 391 2138 391 
Q 2594 391 2855 752 
Q 3116 1113 3116 1747 
z
M 1159 2969 
Q 1341 3281 1617 3432 
Q 1894 3584 2278 3584 
Q 2916 3584 3314 3078 
Q 3713 2572 3713 1747 
Q 3713 922 3314 415 
Q 2916 -91 2278 -91 
Q 1894 -91 1617 61 
Q 1341 213 1159 525 
L 1159 0 
L 581 0 
L 581 4863 
L 1159 4863 
L 1159 2969 
z
" transform="scale(0.015625)"/>
        <path id="DejaVuSans-7a" d="M 353 3500 
L 3084 3500 
L 3084 2975 
L 922 459 
L 3084 459 
L 3084 0 
L 275 0 
L 275 525 
L 2438 3041 
L 353 3041 
L 353 3500 
z
" transform="scale(0.015625)"/>
       </defs>
       <use xlink:href="#DejaVuSans-41"/>
       <use xlink:href="#DejaVuSans-74" transform="translate(66.658203 0)"/>
       <use xlink:href="#DejaVuSans-79" transform="translate(105.867188 0)"/>
       <use xlink:href="#DejaVuSans-70" transform="translate(165.046875 0)"/>
       <use xlink:href="#DejaVuSans-69" transform="translate(228.523438 0)"/>
       <use xlink:href="#DejaVuSans-63" transform="translate(256.306641 0)"/>
       <use xlink:href="#DejaVuSans-61" transform="translate(311.287109 0)"/>
       <use xlink:href="#DejaVuSans-6c" transform="translate(372.566406 0)"/>
       <use xlink:href="#DejaVuSans-20" transform="translate(400.349609 0)"/>
       <use xlink:href="#DejaVuSans-61" transform="translate(432.136719 0)"/>
       <use xlink:href="#DejaVuSans-62" transform="translate(493.416016 0)"/>
       <use xlink:href="#DejaVuSans-73" transform="translate(556.892578 0)"/>
       <use xlink:href="#DejaVuSans-65" transform="translate(608.992188 0)"/>
       <use xlink:href="#DejaVuSans-6e" transform="translate(670.515625 0)"/>
       <use xlink:href="#DejaVuSans-63" transform="translate(733.894531 0)"/>
       <use xlink:href="#DejaVuSans-65" transform="translate(788.875 0)"/>
       <use xlink:href="#DejaVuSans-20" transform="translate(850.398438 0)"/>
       <use xlink:href="#DejaVuSans-73" transform="translate(882.185547 0)"/>
       <use xlink:href="#DejaVuSans-65" transform="translate(934.285156 0)"/>
       <use xlink:href="#DejaVuSans-69" transform="translate(995.808594 0)"/>
       <use xlink:href="#DejaVuSans-7a" transform="translate(1023.591797 0)"/>
       <use xlink:href="#DejaVuSans-75" transform="translate(1076.082031 0)"/>
       <use xlink:href="#DejaVuSans-72" transform="translate(1139.460938 0)"/>
       <use xlink:href="#DejaVuSans-65" transform="translate(1178.324219 0)"/>
      </g>
     </g>
    </g>
    <g id="ytick_6">
     <g id="line2d_12">
      <g>
       <use xlink:href="#m9d6080279b" x="206.164062" y="98.077283" style="stroke: #000000; stroke-width: 0.8"/>
      </g>
     </g>
     <g id="text_13">
      <!-- Frontal upsweep of hair -->
      <g transform="translate(81.7125 101.876502) scale(0.1 -0.1)">
       <defs>
        <path id="DejaVuSans-77" d="M 269 3500 
L 844 3500 
L 1563 769 
L 2278 3500 
L 2956 3500 
L 3675 769 
L 4391 3500 
L 4966 3500 
L 4050 0 
L 3372 0 
L 2619 2869 
L 1863 0 
L 1184 0 
L 269 3500 
z
" transform="scale(0.015625)"/>
        <path id="DejaVuSans-66" d="M 2375 4863 
L 2375 4384 
L 1825 4384 
Q 1516 4384 1395 4259 
Q 1275 4134 1275 3809 
L 1275 3500 
L 2222 3500 
L 2222 3053 
L 1275 3053 
L 1275 0 
L 697 0 
L 697 3053 
L 147 3053 
L 147 3500 
L 697 3500 
L 697 3744 
Q 697 4328 969 4595 
Q 1241 4863 1831 4863 
L 2375 4863 
z
" transform="scale(0.015625)"/>
       </defs>
       <use xlink:href="#DejaVuSans-46"/>
       <use xlink:href="#DejaVuSans-72" transform="translate(50.269531 0)"/>
       <use xlink:href="#DejaVuSans-6f" transform="translate(89.132812 0)"/>
       <use xlink:href="#DejaVuSans-6e" transform="translate(150.314453 0)"/>
       <use xlink:href="#DejaVuSans-74" transform="translate(213.693359 0)"/>
       <use xlink:href="#DejaVuSans-61" transform="translate(252.902344 0)"/>
       <use xlink:href="#DejaVuSans-6c" transform="translate(314.181641 0)"/>
       <use xlink:href="#DejaVuSans-20" transform="translate(341.964844 0)"/>
       <use xlink:href="#DejaVuSans-75" transform="translate(373.751953 0)"/>
       <use xlink:href="#DejaVuSans-70" transform="translate(437.130859 0)"/>
       <use xlink:href="#DejaVuSans-73" transform="translate(500.607422 0)"/>
       <use xlink:href="#DejaVuSans-77" transform="translate(552.707031 0)"/>
       <use xlink:href="#DejaVuSans-65" transform="translate(634.494141 0)"/>
       <use xlink:href="#DejaVuSans-65" transform="translate(696.017578 0)"/>
       <use xlink:href="#DejaVuSans-70" transform="translate(757.541016 0)"/>
       <use xlink:href="#DejaVuSans-20" transform="translate(821.017578 0)"/>
       <use xlink:href="#DejaVuSans-6f" transform="translate(852.804688 0)"/>
       <use xlink:href="#DejaVuSans-66" transform="translate(913.986328 0)"/>
       <use xlink:href="#DejaVuSans-20" transform="translate(949.191406 0)"/>
       <use xlink:href="#DejaVuSans-68" transform="translate(980.978516 0)"/>
       <use xlink:href="#DejaVuSans-61" transform="translate(1044.357422 0)"/>
       <use xlink:href="#DejaVuSans-69" transform="translate(1105.636719 0)"/>
       <use xlink:href="#DejaVuSans-72" transform="translate(1133.419922 0)"/>
      </g>
     </g>
    </g>
    <g id="ytick_7">
     <g id="line2d_13">
      <g>
       <use xlink:href="#m9d6080279b" x="206.164062" y="110.809914" style="stroke: #000000; stroke-width: 0.8"/>
      </g>
     </g>
     <g id="text_14">
      <!-- EEG with multifocal slow activity -->
      <g transform="translate(36.107812 114.609133) scale(0.1 -0.1)">
       <defs>
        <path id="DejaVuSans-47" d="M 3809 666 
L 3809 1919 
L 2778 1919 
L 2778 2438 
L 4434 2438 
L 4434 434 
Q 4069 175 3628 42 
Q 3188 -91 2688 -91 
Q 1594 -91 976 548 
Q 359 1188 359 2328 
Q 359 3472 976 4111 
Q 1594 4750 2688 4750 
Q 3144 4750 3555 4637 
Q 3966 4525 4313 4306 
L 4313 3634 
Q 3963 3931 3569 4081 
Q 3175 4231 2741 4231 
Q 1884 4231 1454 3753 
Q 1025 3275 1025 2328 
Q 1025 1384 1454 906 
Q 1884 428 2741 428 
Q 3075 428 3337 486 
Q 3600 544 3809 666 
z
" transform="scale(0.015625)"/>
       </defs>
       <use xlink:href="#DejaVuSans-45"/>
       <use xlink:href="#DejaVuSans-45" transform="translate(63.183594 0)"/>
       <use xlink:href="#DejaVuSans-47" transform="translate(126.367188 0)"/>
       <use xlink:href="#DejaVuSans-20" transform="translate(203.857422 0)"/>
       <use xlink:href="#DejaVuSans-77" transform="translate(235.644531 0)"/>
       <use xlink:href="#DejaVuSans-69" transform="translate(317.431641 0)"/>
       <use xlink:href="#DejaVuSans-74" transform="translate(345.214844 0)"/>
       <use xlink:href="#DejaVuSans-68" transform="translate(384.423828 0)"/>
       <use xlink:href="#DejaVuSans-20" transform="translate(447.802734 0)"/>
       <use xlink:href="#DejaVuSans-6d" transform="translate(479.589844 0)"/>
       <use xlink:href="#DejaVuSans-75" transform="translate(577.001953 0)"/>
       <use xlink:href="#DejaVuSans-6c" transform="translate(640.380859 0)"/>
       <use xlink:href="#DejaVuSans-74" transform="translate(668.164062 0)"/>
       <use xlink:href="#DejaVuSans-69" transform="translate(707.373047 0)"/>
       <use xlink:href="#DejaVuSans-66" transform="translate(735.15625 0)"/>
       <use xlink:href="#DejaVuSans-6f" transform="translate(770.361328 0)"/>
       <use xlink:href="#DejaVuSans-63" transform="translate(831.542969 0)"/>
       <use xlink:href="#DejaVuSans-61" transform="translate(886.523438 0)"/>
       <use xlink:href="#DejaVuSans-6c" transform="translate(947.802734 0)"/>
       <use xlink:href="#DejaVuSans-20" transform="translate(975.585938 0)"/>
       <use xlink:href="#DejaVuSans-73" transform="translate(1007.373047 0)"/>
       <use xlink:href="#DejaVuSans-6c" transform="translate(1059.472656 0)"/>
       <use xlink:href="#DejaVuSans-6f" transform="translate(1087.255859 0)"/>
       <use xlink:href="#DejaVuSans-77" transform="translate(1148.4375 0)"/>
       <use xlink:href="#DejaVuSans-20" transform="translate(1230.224609 0)"/>
       <use xlink:href="#DejaVuSans-61" transform="translate(1262.011719 0)"/>
       <use xlink:href="#DejaVuSans-63" transform="translate(1323.291016 0)"/>
       <use xlink:href="#DejaVuSans-74" transform="translate(1378.271484 0)"/>
       <use xlink:href="#DejaVuSans-69" transform="translate(1417.480469 0)"/>
       <use xlink:href="#DejaVuSans-76" transform="translate(1445.263672 0)"/>
       <use xlink:href="#DejaVuSans-69" transform="translate(1504.443359 0)"/>
       <use xlink:href="#DejaVuSans-74" transform="translate(1532.226562 0)"/>
       <use xlink:href="#DejaVuSans-79" transform="translate(1571.435547 0)"/>
      </g>
     </g>
    </g>
    <g id="ytick_8">
     <g id="line2d_14">
      <g>
       <use xlink:href="#m9d6080279b" x="206.164062" y="123.542546" style="stroke: #000000; stroke-width: 0.8"/>
      </g>
     </g>
     <g id="text_15">
      <!-- Tonic seizure -->
      <g transform="translate(135.079687 127.341765) scale(0.1 -0.1)">
       <use xlink:href="#DejaVuSans-54"/>
       <use xlink:href="#DejaVuSans-6f" transform="translate(44.083984 0)"/>
       <use xlink:href="#DejaVuSans-6e" transform="translate(105.265625 0)"/>
       <use xlink:href="#DejaVuSans-69" transform="translate(168.644531 0)"/>
       <use xlink:href="#DejaVuSans-63" transform="translate(196.427734 0)"/>
       <use xlink:href="#DejaVuSans-20" transform="translate(251.408203 0)"/>
       <use xlink:href="#DejaVuSans-73" transform="translate(283.195312 0)"/>
       <use xlink:href="#DejaVuSans-65" transform="translate(335.294922 0)"/>
       <use xlink:href="#DejaVuSans-69" transform="translate(396.818359 0)"/>
       <use xlink:href="#DejaVuSans-7a" transform="translate(424.601562 0)"/>
       <use xlink:href="#DejaVuSans-75" transform="translate(477.091797 0)"/>
       <use xlink:href="#DejaVuSans-72" transform="translate(540.470703 0)"/>
       <use xlink:href="#DejaVuSans-65" transform="translate(579.333984 0)"/>
      </g>
     </g>
    </g>
    <g id="ytick_9">
     <g id="line2d_15">
      <g>
       <use xlink:href="#m9d6080279b" x="206.164062" y="136.275178" style="stroke: #000000; stroke-width: 0.8"/>
      </g>
     </g>
     <g id="text_16">
      <!-- Abnormality of coordination -->
      <g transform="translate(59.904687 140.074396) scale(0.1 -0.1)">
       <use xlink:href="#DejaVuSans-41"/>
       <use xlink:href="#DejaVuSans-62" transform="translate(68.408203 0)"/>
       <use xlink:href="#DejaVuSans-6e" transform="translate(131.884766 0)"/>
       <use xlink:href="#DejaVuSans-6f" transform="translate(195.263672 0)"/>
       <use xlink:href="#DejaVuSans-72" transform="translate(256.445312 0)"/>
       <use xlink:href="#DejaVuSans-6d" transform="translate(295.808594 0)"/>
       <use xlink:href="#DejaVuSans-61" transform="translate(393.220703 0)"/>
       <use xlink:href="#DejaVuSans-6c" transform="translate(454.5 0)"/>
       <use xlink:href="#DejaVuSans-69" transform="translate(482.283203 0)"/>
       <use xlink:href="#DejaVuSans-74" transform="translate(510.066406 0)"/>
       <use xlink:href="#DejaVuSans-79" transform="translate(549.275391 0)"/>
       <use xlink:href="#DejaVuSans-20" transform="translate(608.455078 0)"/>
       <use xlink:href="#DejaVuSans-6f" transform="translate(640.242188 0)"/>
       <use xlink:href="#DejaVuSans-66" transform="translate(701.423828 0)"/>
       <use xlink:href="#DejaVuSans-20" transform="translate(736.628906 0)"/>
       <use xlink:href="#DejaVuSans-63" transform="translate(768.416016 0)"/>
       <use xlink:href="#DejaVuSans-6f" transform="translate(823.396484 0)"/>
       <use xlink:href="#DejaVuSans-6f" transform="translate(884.578125 0)"/>
       <use xlink:href="#DejaVuSans-72" transform="translate(945.759766 0)"/>
       <use xlink:href="#DejaVuSans-64" transform="translate(985.123047 0)"/>
       <use xlink:href="#DejaVuSans-69" transform="translate(1048.599609 0)"/>
       <use xlink:href="#DejaVuSans-6e" transform="translate(1076.382812 0)"/>
       <use xlink:href="#DejaVuSans-61" transform="translate(1139.761719 0)"/>
       <use xlink:href="#DejaVuSans-74" transform="translate(1201.041016 0)"/>
       <use xlink:href="#DejaVuSans-69" transform="translate(1240.25 0)"/>
       <use xlink:href="#DejaVuSans-6f" transform="translate(1268.033203 0)"/>
       <use xlink:href="#DejaVuSans-6e" transform="translate(1329.214844 0)"/>
      </g>
     </g>
    </g>
    <g id="ytick_10">
     <g id="line2d_16">
      <g>
       <use xlink:href="#m9d6080279b" x="206.164062" y="149.007809" style="stroke: #000000; stroke-width: 0.8"/>
      </g>
     </g>
     <g id="text_17">
      <!-- Abnormal involuntary eye movements -->
      <g transform="translate(7.2 152.807028) scale(0.1 -0.1)">
       <use xlink:href="#DejaVuSans-41"/>
       <use xlink:href="#DejaVuSans-62" transform="translate(68.408203 0)"/>
       <use xlink:href="#DejaVuSans-6e" transform="translate(131.884766 0)"/>
       <use xlink:href="#DejaVuSans-6f" transform="translate(195.263672 0)"/>
       <use xlink:href="#DejaVuSans-72" transform="translate(256.445312 0)"/>
       <use xlink:href="#DejaVuSans-6d" transform="translate(295.808594 0)"/>
       <use xlink:href="#DejaVuSans-61" transform="translate(393.220703 0)"/>
       <use xlink:href="#DejaVuSans-6c" transform="translate(454.5 0)"/>
       <use xlink:href="#DejaVuSans-20" transform="translate(482.283203 0)"/>
       <use xlink:href="#DejaVuSans-69" transform="translate(514.070312 0)"/>
       <use xlink:href="#DejaVuSans-6e" transform="translate(541.853516 0)"/>
       <use xlink:href="#DejaVuSans-76" transform="translate(605.232422 0)"/>
       <use xlink:href="#DejaVuSans-6f" transform="translate(664.412109 0)"/>
       <use xlink:href="#DejaVuSans-6c" transform="translate(725.59375 0)"/>
       <use xlink:href="#DejaVuSans-75" transform="translate(753.376953 0)"/>
       <use xlink:href="#DejaVuSans-6e" transform="translate(816.755859 0)"/>
       <use xlink:href="#DejaVuSans-74" transform="translate(880.134766 0)"/>
       <use xlink:href="#DejaVuSans-61" transform="translate(919.34375 0)"/>
       <use xlink:href="#DejaVuSans-72" transform="translate(980.623047 0)"/>
       <use xlink:href="#DejaVuSans-79" transform="translate(1021.736328 0)"/>
       <use xlink:href="#DejaVuSans-20" transform="translate(1080.916016 0)"/>
       <use xlink:href="#DejaVuSans-65" transform="translate(1112.703125 0)"/>
       <use xlink:href="#DejaVuSans-79" transform="translate(1174.226562 0)"/>
       <use xlink:href="#DejaVuSans-65" transform="translate(1233.40625 0)"/>
       <use xlink:href="#DejaVuSans-20" transform="translate(1294.929688 0)"/>
       <use xlink:href="#DejaVuSans-6d" transform="translate(1326.716797 0)"/>
       <use xlink:href="#DejaVuSans-6f" transform="translate(1424.128906 0)"/>
       <use xlink:href="#DejaVuSans-76" transform="translate(1485.310547 0)"/>
       <use xlink:href="#DejaVuSans-65" transform="translate(1544.490234 0)"/>
       <use xlink:href="#DejaVuSans-6d" transform="translate(1606.013672 0)"/>
       <use xlink:href="#DejaVuSans-65" transform="translate(1703.425781 0)"/>
       <use xlink:href="#DejaVuSans-6e" transform="translate(1764.949219 0)"/>
       <use xlink:href="#DejaVuSans-74" transform="translate(1828.328125 0)"/>
       <use xlink:href="#DejaVuSans-73" transform="translate(1867.537109 0)"/>
      </g>
     </g>
    </g>
    <g id="ytick_11">
     <g id="line2d_17">
      <g>
       <use xlink:href="#m9d6080279b" x="206.164062" y="161.740441" style="stroke: #000000; stroke-width: 0.8"/>
      </g>
     </g>
     <g id="text_18">
      <!-- Exaggerated cupid's bow -->
      <g transform="translate(73.017187 165.53966) scale(0.1 -0.1)">
       <defs>
        <path id="DejaVuSans-27" d="M 1147 4666 
L 1147 2931 
L 616 2931 
L 616 4666 
L 1147 4666 
z
" transform="scale(0.015625)"/>
       </defs>
       <use xlink:href="#DejaVuSans-45"/>
       <use xlink:href="#DejaVuSans-78" transform="translate(63.183594 0)"/>
       <use xlink:href="#DejaVuSans-61" transform="translate(122.363281 0)"/>
       <use xlink:href="#DejaVuSans-67" transform="translate(183.642578 0)"/>
       <use xlink:href="#DejaVuSans-67" transform="translate(247.119141 0)"/>
       <use xlink:href="#DejaVuSans-65" transform="translate(310.595703 0)"/>
       <use xlink:href="#DejaVuSans-72" transform="translate(372.119141 0)"/>
       <use xlink:href="#DejaVuSans-61" transform="translate(413.232422 0)"/>
       <use xlink:href="#DejaVuSans-74" transform="translate(474.511719 0)"/>
       <use xlink:href="#DejaVuSans-65" transform="translate(513.720703 0)"/>
       <use xlink:href="#DejaVuSans-64" transform="translate(575.244141 0)"/>
       <use xlink:href="#DejaVuSans-20" transform="translate(638.720703 0)"/>
       <use xlink:href="#DejaVuSans-63" transform="translate(670.507812 0)"/>
       <use xlink:href="#DejaVuSans-75" transform="translate(725.488281 0)"/>
       <use xlink:href="#DejaVuSans-70" transform="translate(788.867188 0)"/>
       <use xlink:href="#DejaVuSans-69" transform="translate(852.34375 0)"/>
       <use xlink:href="#DejaVuSans-64" transform="translate(880.126953 0)"/>
       <use xlink:href="#DejaVuSans-27" transform="translate(943.603516 0)"/>
       <use xlink:href="#DejaVuSans-73" transform="translate(971.09375 0)"/>
       <use xlink:href="#DejaVuSans-20" transform="translate(1023.193359 0)"/>
       <use xlink:href="#DejaVuSans-62" transform="translate(1054.980469 0)"/>
       <use xlink:href="#DejaVuSans-6f" transform="translate(1118.457031 0)"/>
       <use xlink:href="#DejaVuSans-77" transform="translate(1179.638672 0)"/>
      </g>
     </g>
    </g>
    <g id="ytick_12">
     <g id="line2d_18">
      <g>
       <use xlink:href="#m9d6080279b" x="206.164062" y="174.473072" style="stroke: #000000; stroke-width: 0.8"/>
      </g>
     </g>
     <g id="text_19">
      <!-- Stereotypical hand wringing -->
      <g transform="translate(58.489062 178.272291) scale(0.1 -0.1)">
       <use xlink:href="#DejaVuSans-53"/>
       <use xlink:href="#DejaVuSans-74" transform="translate(63.476562 0)"/>
       <use xlink:href="#DejaVuSans-65" transform="translate(102.685547 0)"/>
       <use xlink:href="#DejaVuSans-72" transform="translate(164.208984 0)"/>
       <use xlink:href="#DejaVuSans-65" transform="translate(203.072266 0)"/>
       <use xlink:href="#DejaVuSans-6f" transform="translate(264.595703 0)"/>
       <use xlink:href="#DejaVuSans-74" transform="translate(325.777344 0)"/>
       <use xlink:href="#DejaVuSans-79" transform="translate(364.986328 0)"/>
       <use xlink:href="#DejaVuSans-70" transform="translate(424.166016 0)"/>
       <use xlink:href="#DejaVuSans-69" transform="translate(487.642578 0)"/>
       <use xlink:href="#DejaVuSans-63" transform="translate(515.425781 0)"/>
       <use xlink:href="#DejaVuSans-61" transform="translate(570.40625 0)"/>
       <use xlink:href="#DejaVuSans-6c" transform="translate(631.685547 0)"/>
       <use xlink:href="#DejaVuSans-20" transform="translate(659.46875 0)"/>
       <use xlink:href="#DejaVuSans-68" transform="translate(691.255859 0)"/>
       <use xlink:href="#DejaVuSans-61" transform="translate(754.634766 0)"/>
       <use xlink:href="#DejaVuSans-6e" transform="translate(815.914062 0)"/>
       <use xlink:href="#DejaVuSans-64" transform="translate(879.292969 0)"/>
       <use xlink:href="#DejaVuSans-20" transform="translate(942.769531 0)"/>
       <use xlink:href="#DejaVuSans-77" transform="translate(974.556641 0)"/>
       <use xlink:href="#DejaVuSans-72" transform="translate(1056.34375 0)"/>
       <use xlink:href="#DejaVuSans-69" transform="translate(1097.457031 0)"/>
       <use xlink:href="#DejaVuSans-6e" transform="translate(1125.240234 0)"/>
       <use xlink:href="#DejaVuSans-67" transform="translate(1188.619141 0)"/>
       <use xlink:href="#DejaVuSans-69" transform="translate(1252.095703 0)"/>
       <use xlink:href="#DejaVuSans-6e" transform="translate(1279.878906 0)"/>
       <use xlink:href="#DejaVuSans-67" transform="translate(1343.257812 0)"/>
      </g>
     </g>
    </g>
    <g id="ytick_13">
     <g id="line2d_19">
      <g>
       <use xlink:href="#m9d6080279b" x="206.164062" y="187.205704" style="stroke: #000000; stroke-width: 0.8"/>
      </g>
     </g>
     <g id="text_20">
      <!-- Abnormal myelination -->
      <g transform="translate(88.76875 191.004923) scale(0.1 -0.1)">
       <use xlink:href="#DejaVuSans-41"/>
       <use xlink:href="#DejaVuSans-62" transform="translate(68.408203 0)"/>
       <use xlink:href="#DejaVuSans-6e" transform="translate(131.884766 0)"/>
       <use xlink:href="#DejaVuSans-6f" transform="translate(195.263672 0)"/>
       <use xlink:href="#DejaVuSans-72" transform="translate(256.445312 0)"/>
       <use xlink:href="#DejaVuSans-6d" transform="translate(295.808594 0)"/>
       <use xlink:href="#DejaVuSans-61" transform="translate(393.220703 0)"/>
       <use xlink:href="#DejaVuSans-6c" transform="translate(454.5 0)"/>
       <use xlink:href="#DejaVuSans-20" transform="translate(482.283203 0)"/>
       <use xlink:href="#DejaVuSans-6d" transform="translate(514.070312 0)"/>
       <use xlink:href="#DejaVuSans-79" transform="translate(611.482422 0)"/>
       <use xlink:href="#DejaVuSans-65" transform="translate(670.662109 0)"/>
       <use xlink:href="#DejaVuSans-6c" transform="translate(732.185547 0)"/>
       <use xlink:href="#DejaVuSans-69" transform="translate(759.96875 0)"/>
       <use xlink:href="#DejaVuSans-6e" transform="translate(787.751953 0)"/>
       <use xlink:href="#DejaVuSans-61" transform="translate(851.130859 0)"/>
       <use xlink:href="#DejaVuSans-74" transform="translate(912.410156 0)"/>
       <use xlink:href="#DejaVuSans-69" transform="translate(951.619141 0)"/>
       <use xlink:href="#DejaVuSans-6f" transform="translate(979.402344 0)"/>
       <use xlink:href="#DejaVuSans-6e" transform="translate(1040.583984 0)"/>
      </g>
     </g>
    </g>
    <g id="ytick_14">
     <g id="line2d_20">
      <g>
       <use xlink:href="#m9d6080279b" x="206.164062" y="199.938336" style="stroke: #000000; stroke-width: 0.8"/>
      </g>
     </g>
     <g id="text_21">
      <!-- Bruxism -->
      <g transform="translate(158.207812 203.737554) scale(0.1 -0.1)">
       <defs>
        <path id="DejaVuSans-42" d="M 1259 2228 
L 1259 519 
L 2272 519 
Q 2781 519 3026 730 
Q 3272 941 3272 1375 
Q 3272 1813 3026 2020 
Q 2781 2228 2272 2228 
L 1259 2228 
z
M 1259 4147 
L 1259 2741 
L 2194 2741 
Q 2656 2741 2882 2914 
Q 3109 3088 3109 3444 
Q 3109 3797 2882 3972 
Q 2656 4147 2194 4147 
L 1259 4147 
z
M 628 4666 
L 2241 4666 
Q 2963 4666 3353 4366 
Q 3744 4066 3744 3513 
Q 3744 3084 3544 2831 
Q 3344 2578 2956 2516 
Q 3422 2416 3680 2098 
Q 3938 1781 3938 1306 
Q 3938 681 3513 340 
Q 3088 0 2303 0 
L 628 0 
L 628 4666 
z
" transform="scale(0.015625)"/>
       </defs>
       <use xlink:href="#DejaVuSans-42"/>
       <use xlink:href="#DejaVuSans-72" transform="translate(68.603516 0)"/>
       <use xlink:href="#DejaVuSans-75" transform="translate(109.716797 0)"/>
       <use xlink:href="#DejaVuSans-78" transform="translate(173.095703 0)"/>
       <use xlink:href="#DejaVuSans-69" transform="translate(232.275391 0)"/>
       <use xlink:href="#DejaVuSans-73" transform="translate(260.058594 0)"/>
       <use xlink:href="#DejaVuSans-6d" transform="translate(312.158203 0)"/>
      </g>
     </g>
    </g>
    <g id="ytick_15">
     <g id="line2d_21">
      <g>
       <use xlink:href="#m9d6080279b" x="206.164062" y="212.670967" style="stroke: #000000; stroke-width: 0.8"/>
      </g>
     </g>
     <g id="text_22">
      <!-- Thick nasal alae -->
      <g transform="translate(118.526562 216.470186) scale(0.1 -0.1)">
       <defs>
        <path id="DejaVuSans-6b" d="M 581 4863 
L 1159 4863 
L 1159 1991 
L 2875 3500 
L 3609 3500 
L 1753 1863 
L 3688 0 
L 2938 0 
L 1159 1709 
L 1159 0 
L 581 0 
L 581 4863 
z
" transform="scale(0.015625)"/>
       </defs>
       <use xlink:href="#DejaVuSans-54"/>
       <use xlink:href="#DejaVuSans-68" transform="translate(61.083984 0)"/>
       <use xlink:href="#DejaVuSans-69" transform="translate(124.462891 0)"/>
       <use xlink:href="#DejaVuSans-63" transform="translate(152.246094 0)"/>
       <use xlink:href="#DejaVuSans-6b" transform="translate(207.226562 0)"/>
       <use xlink:href="#DejaVuSans-20" transform="translate(265.136719 0)"/>
       <use xlink:href="#DejaVuSans-6e" transform="translate(296.923828 0)"/>
       <use xlink:href="#DejaVuSans-61" transform="translate(360.302734 0)"/>
       <use xlink:href="#DejaVuSans-73" transform="translate(421.582031 0)"/>
       <use xlink:href="#DejaVuSans-61" transform="translate(473.681641 0)"/>
       <use xlink:href="#DejaVuSans-6c" transform="translate(534.960938 0)"/>
       <use xlink:href="#DejaVuSans-20" transform="translate(562.744141 0)"/>
       <use xlink:href="#DejaVuSans-61" transform="translate(594.53125 0)"/>
       <use xlink:href="#DejaVuSans-6c" transform="translate(655.810547 0)"/>
       <use xlink:href="#DejaVuSans-61" transform="translate(683.59375 0)"/>
       <use xlink:href="#DejaVuSans-65" transform="translate(744.873047 0)"/>
      </g>
     </g>
    </g>
    <g id="ytick_16">
     <g id="line2d_22">
      <g>
       <use xlink:href="#m9d6080279b" x="206.164062" y="225.403599" style="stroke: #000000; stroke-width: 0.8"/>
      </g>
     </g>
     <g id="text_23">
      <!-- Epileptic encephalopathy -->
      <g transform="translate(72.557812 229.202817) scale(0.1 -0.1)">
       <use xlink:href="#DejaVuSans-45"/>
       <use xlink:href="#DejaVuSans-70" transform="translate(63.183594 0)"/>
       <use xlink:href="#DejaVuSans-69" transform="translate(126.660156 0)"/>
       <use xlink:href="#DejaVuSans-6c" transform="translate(154.443359 0)"/>
       <use xlink:href="#DejaVuSans-65" transform="translate(182.226562 0)"/>
       <use xlink:href="#DejaVuSans-70" transform="translate(243.75 0)"/>
       <use xlink:href="#DejaVuSans-74" transform="translate(307.226562 0)"/>
       <use xlink:href="#DejaVuSans-69" transform="translate(346.435547 0)"/>
       <use xlink:href="#DejaVuSans-63" transform="translate(374.21875 0)"/>
       <use xlink:href="#DejaVuSans-20" transform="translate(429.199219 0)"/>
       <use xlink:href="#DejaVuSans-65" transform="translate(460.986328 0)"/>
       <use xlink:href="#DejaVuSans-6e" transform="translate(522.509766 0)"/>
       <use xlink:href="#DejaVuSans-63" transform="translate(585.888672 0)"/>
       <use xlink:href="#DejaVuSans-65" transform="translate(640.869141 0)"/>
       <use xlink:href="#DejaVuSans-70" transform="translate(702.392578 0)"/>
       <use xlink:href="#DejaVuSans-68" transform="translate(765.869141 0)"/>
       <use xlink:href="#DejaVuSans-61" transform="translate(829.248047 0)"/>
       <use xlink:href="#DejaVuSans-6c" transform="translate(890.527344 0)"/>
       <use xlink:href="#DejaVuSans-6f" transform="translate(918.310547 0)"/>
       <use xlink:href="#DejaVuSans-70" transform="translate(979.492188 0)"/>
       <use xlink:href="#DejaVuSans-61" transform="translate(1042.96875 0)"/>
       <use xlink:href="#DejaVuSans-74" transform="translate(1104.248047 0)"/>
       <use xlink:href="#DejaVuSans-68" transform="translate(1143.457031 0)"/>
       <use xlink:href="#DejaVuSans-79" transform="translate(1206.835938 0)"/>
      </g>
     </g>
    </g>
    <g id="ytick_17">
     <g id="line2d_23">
      <g>
       <use xlink:href="#m9d6080279b" x="206.164062" y="238.13623" style="stroke: #000000; stroke-width: 0.8"/>
      </g>
     </g>
     <g id="text_24">
      <!-- Colpocephaly -->
      <g transform="translate(131.654687 241.935449) scale(0.1 -0.1)">
       <defs>
        <path id="DejaVuSans-43" d="M 4122 4306 
L 4122 3641 
Q 3803 3938 3442 4084 
Q 3081 4231 2675 4231 
Q 1875 4231 1450 3742 
Q 1025 3253 1025 2328 
Q 1025 1406 1450 917 
Q 1875 428 2675 428 
Q 3081 428 3442 575 
Q 3803 722 4122 1019 
L 4122 359 
Q 3791 134 3420 21 
Q 3050 -91 2638 -91 
Q 1578 -91 968 557 
Q 359 1206 359 2328 
Q 359 3453 968 4101 
Q 1578 4750 2638 4750 
Q 3056 4750 3426 4639 
Q 3797 4528 4122 4306 
z
" transform="scale(0.015625)"/>
       </defs>
       <use xlink:href="#DejaVuSans-43"/>
       <use xlink:href="#DejaVuSans-6f" transform="translate(69.824219 0)"/>
       <use xlink:href="#DejaVuSans-6c" transform="translate(131.005859 0)"/>
       <use xlink:href="#DejaVuSans-70" transform="translate(158.789062 0)"/>
       <use xlink:href="#DejaVuSans-6f" transform="translate(222.265625 0)"/>
       <use xlink:href="#DejaVuSans-63" transform="translate(283.447266 0)"/>
       <use xlink:href="#DejaVuSans-65" transform="translate(338.427734 0)"/>
       <use xlink:href="#DejaVuSans-70" transform="translate(399.951172 0)"/>
       <use xlink:href="#DejaVuSans-68" transform="translate(463.427734 0)"/>
       <use xlink:href="#DejaVuSans-61" transform="translate(526.806641 0)"/>
       <use xlink:href="#DejaVuSans-6c" transform="translate(588.085938 0)"/>
       <use xlink:href="#DejaVuSans-79" transform="translate(615.869141 0)"/>
      </g>
     </g>
    </g>
    <g id="ytick_18">
     <g id="line2d_24">
      <g>
       <use xlink:href="#m9d6080279b" x="206.164062" y="250.868862" style="stroke: #000000; stroke-width: 0.8"/>
      </g>
     </g>
     <g id="text_25">
      <!-- Multifocal epileptiform discharges -->
      <g transform="translate(29.801562 254.668081) scale(0.1 -0.1)">
       <defs>
        <path id="DejaVuSans-4d" d="M 628 4666 
L 1569 4666 
L 2759 1491 
L 3956 4666 
L 4897 4666 
L 4897 0 
L 4281 0 
L 4281 4097 
L 3078 897 
L 2444 897 
L 1241 4097 
L 1241 0 
L 628 0 
L 628 4666 
z
" transform="scale(0.015625)"/>
       </defs>
       <use xlink:href="#DejaVuSans-4d"/>
       <use xlink:href="#DejaVuSans-75" transform="translate(86.279297 0)"/>
       <use xlink:href="#DejaVuSans-6c" transform="translate(149.658203 0)"/>
       <use xlink:href="#DejaVuSans-74" transform="translate(177.441406 0)"/>
       <use xlink:href="#DejaVuSans-69" transform="translate(216.650391 0)"/>
       <use xlink:href="#DejaVuSans-66" transform="translate(244.433594 0)"/>
       <use xlink:href="#DejaVuSans-6f" transform="translate(279.638672 0)"/>
       <use xlink:href="#DejaVuSans-63" transform="translate(340.820312 0)"/>
       <use xlink:href="#DejaVuSans-61" transform="translate(395.800781 0)"/>
       <use xlink:href="#DejaVuSans-6c" transform="translate(457.080078 0)"/>
       <use xlink:href="#DejaVuSans-20" transform="translate(484.863281 0)"/>
       <use xlink:href="#DejaVuSans-65" transform="translate(516.650391 0)"/>
       <use xlink:href="#DejaVuSans-70" transform="translate(578.173828 0)"/>
       <use xlink:href="#DejaVuSans-69" transform="translate(641.650391 0)"/>
       <use xlink:href="#DejaVuSans-6c" transform="translate(669.433594 0)"/>
       <use xlink:href="#DejaVuSans-65" transform="translate(697.216797 0)"/>
       <use xlink:href="#DejaVuSans-70" transform="translate(758.740234 0)"/>
       <use xlink:href="#DejaVuSans-74" transform="translate(822.216797 0)"/>
       <use xlink:href="#DejaVuSans-69" transform="translate(861.425781 0)"/>
       <use xlink:href="#DejaVuSans-66" transform="translate(889.208984 0)"/>
       <use xlink:href="#DejaVuSans-6f" transform="translate(924.414062 0)"/>
       <use xlink:href="#DejaVuSans-72" transform="translate(985.595703 0)"/>
       <use xlink:href="#DejaVuSans-6d" transform="translate(1024.958984 0)"/>
       <use xlink:href="#DejaVuSans-20" transform="translate(1122.371094 0)"/>
       <use xlink:href="#DejaVuSans-64" transform="translate(1154.158203 0)"/>
       <use xlink:href="#DejaVuSans-69" transform="translate(1217.634766 0)"/>
       <use xlink:href="#DejaVuSans-73" transform="translate(1245.417969 0)"/>
       <use xlink:href="#DejaVuSans-63" transform="translate(1297.517578 0)"/>
       <use xlink:href="#DejaVuSans-68" transform="translate(1352.498047 0)"/>
       <use xlink:href="#DejaVuSans-61" transform="translate(1415.876953 0)"/>
       <use xlink:href="#DejaVuSans-72" transform="translate(1477.15625 0)"/>
       <use xlink:href="#DejaVuSans-67" transform="translate(1516.519531 0)"/>
       <use xlink:href="#DejaVuSans-65" transform="translate(1579.996094 0)"/>
       <use xlink:href="#DejaVuSans-73" transform="translate(1641.519531 0)"/>
      </g>
     </g>
    </g>
    <g id="ytick_19">
     <g id="line2d_25">
      <g>
       <use xlink:href="#m9d6080279b" x="206.164062" y="263.601493" style="stroke: #000000; stroke-width: 0.8"/>
      </g>
     </g>
     <g id="text_26">
      <!-- Reduced social responsiveness -->
      <g transform="translate(43.9375 267.400712) scale(0.1 -0.1)">
       <defs>
        <path id="DejaVuSans-52" d="M 2841 2188 
Q 3044 2119 3236 1894 
Q 3428 1669 3622 1275 
L 4263 0 
L 3584 0 
L 2988 1197 
Q 2756 1666 2539 1819 
Q 2322 1972 1947 1972 
L 1259 1972 
L 1259 0 
L 628 0 
L 628 4666 
L 2053 4666 
Q 2853 4666 3247 4331 
Q 3641 3997 3641 3322 
Q 3641 2881 3436 2590 
Q 3231 2300 2841 2188 
z
M 1259 4147 
L 1259 2491 
L 2053 2491 
Q 2509 2491 2742 2702 
Q 2975 2913 2975 3322 
Q 2975 3731 2742 3939 
Q 2509 4147 2053 4147 
L 1259 4147 
z
" transform="scale(0.015625)"/>
       </defs>
       <use xlink:href="#DejaVuSans-52"/>
       <use xlink:href="#DejaVuSans-65" transform="translate(64.982422 0)"/>
       <use xlink:href="#DejaVuSans-64" transform="translate(126.505859 0)"/>
       <use xlink:href="#DejaVuSans-75" transform="translate(189.982422 0)"/>
       <use xlink:href="#DejaVuSans-63" transform="translate(253.361328 0)"/>
       <use xlink:href="#DejaVuSans-65" transform="translate(308.341797 0)"/>
       <use xlink:href="#DejaVuSans-64" transform="translate(369.865234 0)"/>
       <use xlink:href="#DejaVuSans-20" transform="translate(433.341797 0)"/>
       <use xlink:href="#DejaVuSans-73" transform="translate(465.128906 0)"/>
       <use xlink:href="#DejaVuSans-6f" transform="translate(517.228516 0)"/>
       <use xlink:href="#DejaVuSans-63" transform="translate(578.410156 0)"/>
       <use xlink:href="#DejaVuSans-69" transform="translate(633.390625 0)"/>
       <use xlink:href="#DejaVuSans-61" transform="translate(661.173828 0)"/>
       <use xlink:href="#DejaVuSans-6c" transform="translate(722.453125 0)"/>
       <use xlink:href="#DejaVuSans-20" transform="translate(750.236328 0)"/>
       <use xlink:href="#DejaVuSans-72" transform="translate(782.023438 0)"/>
       <use xlink:href="#DejaVuSans-65" transform="translate(820.886719 0)"/>
       <use xlink:href="#DejaVuSans-73" transform="translate(882.410156 0)"/>
       <use xlink:href="#DejaVuSans-70" transform="translate(934.509766 0)"/>
       <use xlink:href="#DejaVuSans-6f" transform="translate(997.986328 0)"/>
       <use xlink:href="#DejaVuSans-6e" transform="translate(1059.167969 0)"/>
       <use xlink:href="#DejaVuSans-73" transform="translate(1122.546875 0)"/>
       <use xlink:href="#DejaVuSans-69" transform="translate(1174.646484 0)"/>
       <use xlink:href="#DejaVuSans-76" transform="translate(1202.429688 0)"/>
       <use xlink:href="#DejaVuSans-65" transform="translate(1261.609375 0)"/>
       <use xlink:href="#DejaVuSans-6e" transform="translate(1323.132812 0)"/>
       <use xlink:href="#DejaVuSans-65" transform="translate(1386.511719 0)"/>
       <use xlink:href="#DejaVuSans-73" transform="translate(1448.035156 0)"/>
       <use xlink:href="#DejaVuSans-73" transform="translate(1500.134766 0)"/>
      </g>
     </g>
    </g>
    <g id="ytick_20">
     <g id="line2d_26">
      <g>
       <use xlink:href="#m9d6080279b" x="206.164062" y="276.334125" style="stroke: #000000; stroke-width: 0.8"/>
      </g>
     </g>
     <g id="text_27">
      <!-- Interictal epileptiform activity -->
      <g transform="translate(50.798438 280.133344) scale(0.1 -0.1)">
       <defs>
        <path id="DejaVuSans-49" d="M 628 4666 
L 1259 4666 
L 1259 0 
L 628 0 
L 628 4666 
z
" transform="scale(0.015625)"/>
       </defs>
       <use xlink:href="#DejaVuSans-49"/>
       <use xlink:href="#DejaVuSans-6e" transform="translate(29.492188 0)"/>
       <use xlink:href="#DejaVuSans-74" transform="translate(92.871094 0)"/>
       <use xlink:href="#DejaVuSans-65" transform="translate(132.080078 0)"/>
       <use xlink:href="#DejaVuSans-72" transform="translate(193.603516 0)"/>
       <use xlink:href="#DejaVuSans-69" transform="translate(234.716797 0)"/>
       <use xlink:href="#DejaVuSans-63" transform="translate(262.5 0)"/>
       <use xlink:href="#DejaVuSans-74" transform="translate(317.480469 0)"/>
       <use xlink:href="#DejaVuSans-61" transform="translate(356.689453 0)"/>
       <use xlink:href="#DejaVuSans-6c" transform="translate(417.96875 0)"/>
       <use xlink:href="#DejaVuSans-20" transform="translate(445.751953 0)"/>
       <use xlink:href="#DejaVuSans-65" transform="translate(477.539062 0)"/>
       <use xlink:href="#DejaVuSans-70" transform="translate(539.0625 0)"/>
       <use xlink:href="#DejaVuSans-69" transform="translate(602.539062 0)"/>
       <use xlink:href="#DejaVuSans-6c" transform="translate(630.322266 0)"/>
       <use xlink:href="#DejaVuSans-65" transform="translate(658.105469 0)"/>
       <use xlink:href="#DejaVuSans-70" transform="translate(719.628906 0)"/>
       <use xlink:href="#DejaVuSans-74" transform="translate(783.105469 0)"/>
       <use xlink:href="#DejaVuSans-69" transform="translate(822.314453 0)"/>
       <use xlink:href="#DejaVuSans-66" transform="translate(850.097656 0)"/>
       <use xlink:href="#DejaVuSans-6f" transform="translate(885.302734 0)"/>
       <use xlink:href="#DejaVuSans-72" transform="translate(946.484375 0)"/>
       <use xlink:href="#DejaVuSans-6d" transform="translate(985.847656 0)"/>
       <use xlink:href="#DejaVuSans-20" transform="translate(1083.259766 0)"/>
       <use xlink:href="#DejaVuSans-61" transform="translate(1115.046875 0)"/>
       <use xlink:href="#DejaVuSans-63" transform="translate(1176.326172 0)"/>
       <use xlink:href="#DejaVuSans-74" transform="translate(1231.306641 0)"/>
       <use xlink:href="#DejaVuSans-69" transform="translate(1270.515625 0)"/>
       <use xlink:href="#DejaVuSans-76" transform="translate(1298.298828 0)"/>
       <use xlink:href="#DejaVuSans-69" transform="translate(1357.478516 0)"/>
       <use xlink:href="#DejaVuSans-74" transform="translate(1385.261719 0)"/>
       <use xlink:href="#DejaVuSans-79" transform="translate(1424.470703 0)"/>
      </g>
     </g>
    </g>
   </g>
   <g id="line2d_27"/>
   <g id="line2d_28"/>
   <g id="line2d_29"/>
   <g id="line2d_30"/>
   <g id="line2d_31"/>
   <g id="line2d_32"/>
   <g id="line2d_33"/>
   <g id="line2d_34"/>
   <g id="line2d_35"/>
   <g id="line2d_36"/>
   <g id="line2d_37"/>
   <g id="line2d_38"/>
   <g id="line2d_39"/>
   <g id="patch_3">
    <path d="M 206.164062 288.430125 
L 206.164062 22.318125 
" style="fill: none; stroke: #000000; stroke-width: 0.8; stroke-linejoin: miter; stroke-linecap: square"/>
   </g>
   <g id="patch_4">
    <path d="M 563.284063 288.430125 
L 563.284063 22.318125 
" style="fill: none; stroke: #000000; stroke-width: 0.8; stroke-linejoin: miter; stroke-linecap: square"/>
   </g>
   <g id="patch_5">
    <path d="M 206.164062 288.430125 
L 563.284063 288.430125 
" style="fill: none; stroke: #000000; stroke-width: 0.8; stroke-linejoin: miter; stroke-linecap: square"/>
   </g>
   <g id="patch_6">
    <path d="M 206.164062 22.318125 
L 563.284063 22.318125 
" style="fill: none; stroke: #000000; stroke-width: 0.8; stroke-linejoin: miter; stroke-linecap: square"/>
   </g>
   <g id="text_28">
    <!-- Top 20 Enriched Phenotypes -->
    <g transform="translate(299.797813 16.318125) scale(0.12 -0.12)">
     <defs>
      <path id="DejaVuSans-32" d="M 1228 531 
L 3431 531 
L 3431 0 
L 469 0 
L 469 531 
Q 828 903 1448 1529 
Q 2069 2156 2228 2338 
Q 2531 2678 2651 2914 
Q 2772 3150 2772 3378 
Q 2772 3750 2511 3984 
Q 2250 4219 1831 4219 
Q 1534 4219 1204 4116 
Q 875 4013 500 3803 
L 500 4441 
Q 881 4594 1212 4672 
Q 1544 4750 1819 4750 
Q 2544 4750 2975 4387 
Q 3406 4025 3406 3419 
Q 3406 3131 3298 2873 
Q 3191 2616 2906 2266 
Q 2828 2175 2409 1742 
Q 1991 1309 1228 531 
z
" transform="scale(0.015625)"/>
      <path id="DejaVuSans-50" d="M 1259 4147 
L 1259 2394 
L 2053 2394 
Q 2494 2394 2734 2622 
Q 2975 2850 2975 3272 
Q 2975 3691 2734 3919 
Q 2494 4147 2053 4147 
L 1259 4147 
z
M 628 4666 
L 2053 4666 
Q 2838 4666 3239 4311 
Q 3641 3956 3641 3272 
Q 3641 2581 3239 2228 
Q 2838 1875 2053 1875 
L 1259 1875 
L 1259 0 
L 628 0 
L 628 4666 
z
" transform="scale(0.015625)"/>
     </defs>
     <use xlink:href="#DejaVuSans-54"/>
     <use xlink:href="#DejaVuSans-6f" transform="translate(44.083984 0)"/>
     <use xlink:href="#DejaVuSans-70" transform="translate(105.265625 0)"/>
     <use xlink:href="#DejaVuSans-20" transform="translate(168.742188 0)"/>
     <use xlink:href="#DejaVuSans-32" transform="translate(200.529297 0)"/>
     <use xlink:href="#DejaVuSans-30" transform="translate(264.152344 0)"/>
     <use xlink:href="#DejaVuSans-20" transform="translate(327.775391 0)"/>
     <use xlink:href="#DejaVuSans-45" transform="translate(359.5625 0)"/>
     <use xlink:href="#DejaVuSans-6e" transform="translate(422.746094 0)"/>
     <use xlink:href="#DejaVuSans-72" transform="translate(486.125 0)"/>
     <use xlink:href="#DejaVuSans-69" transform="translate(527.238281 0)"/>
     <use xlink:href="#DejaVuSans-63" transform="translate(555.021484 0)"/>
     <use xlink:href="#DejaVuSans-68" transform="translate(610.001953 0)"/>
     <use xlink:href="#DejaVuSans-65" transform="translate(673.380859 0)"/>
     <use xlink:href="#DejaVuSans-64" transform="translate(734.904297 0)"/>
     <use xlink:href="#DejaVuSans-20" transform="translate(798.380859 0)"/>
     <use xlink:href="#DejaVuSans-50" transform="translate(830.167969 0)"/>
     <use xlink:href="#DejaVuSans-68" transform="translate(890.470703 0)"/>
     <use xlink:href="#DejaVuSans-65" transform="translate(953.849609 0)"/>
     <use xlink:href="#DejaVuSans-6e" transform="translate(1015.373047 0)"/>
     <use xlink:href="#DejaVuSans-6f" transform="translate(1078.751953 0)"/>
     <use xlink:href="#DejaVuSans-74" transform="translate(1139.933594 0)"/>
     <use xlink:href="#DejaVuSans-79" transform="translate(1179.142578 0)"/>
     <use xlink:href="#DejaVuSans-70" transform="translate(1238.322266 0)"/>
     <use xlink:href="#DejaVuSans-65" transform="translate(1301.798828 0)"/>
     <use xlink:href="#DejaVuSans-73" transform="translate(1363.322266 0)"/>
    </g>
   </g>
   <g id="legend_1">
    <g id="patch_7">
     <path d="M 570.284063 221.13375 
L 657.523125 221.13375 
Q 659.523125 221.13375 659.523125 219.13375 
L 659.523125 29.318125 
Q 659.523125 27.318125 657.523125 27.318125 
L 570.284063 27.318125 
Q 568.284063 27.318125 568.284063 29.318125 
L 568.284063 219.13375 
Q 568.284063 221.13375 570.284063 221.13375 
z
" style="fill: #ffffff; opacity: 0.8; stroke: #cccccc; stroke-linejoin: miter"/>
    </g>
    <g id="line2d_40"/>
    <g id="text_29">
     <!-- -log10 FDR -->
     <g transform="translate(600.284063 38.916562) scale(0.1 -0.1)">
      <defs>
       <path id="DejaVuSans-2d" d="M 313 2009 
L 1997 2009 
L 1997 1497 
L 313 1497 
L 313 2009 
z
" transform="scale(0.015625)"/>
       <path id="DejaVuSans-31" d="M 794 531 
L 1825 531 
L 1825 4091 
L 703 3866 
L 703 4441 
L 1819 4666 
L 2450 4666 
L 2450 531 
L 3481 531 
L 3481 0 
L 794 0 
L 794 531 
z
" transform="scale(0.015625)"/>
       <path id="DejaVuSans-44" d="M 1259 4147 
L 1259 519 
L 2022 519 
Q 2988 519 3436 956 
Q 3884 1394 3884 2338 
Q 3884 3275 3436 3711 
Q 2988 4147 2022 4147 
L 1259 4147 
z
M 628 4666 
L 1925 4666 
Q 3281 4666 3915 4102 
Q 4550 3538 4550 2338 
Q 4550 1131 3912 565 
Q 3275 0 1925 0 
L 628 0 
L 628 4666 
z
" transform="scale(0.015625)"/>
      </defs>
      <use xlink:href="#DejaVuSans-2d"/>
      <use xlink:href="#DejaVuSans-6c" transform="translate(36.083984 0)"/>
      <use xlink:href="#DejaVuSans-6f" transform="translate(63.867188 0)"/>
      <use xlink:href="#DejaVuSans-67" transform="translate(125.048828 0)"/>
      <use xlink:href="#DejaVuSans-31" transform="translate(188.525391 0)"/>
      <use xlink:href="#DejaVuSans-30" transform="translate(252.148438 0)"/>
      <use xlink:href="#DejaVuSans-20" transform="translate(315.771484 0)"/>
      <use xlink:href="#DejaVuSans-46" transform="translate(347.558594 0)"/>
      <use xlink:href="#DejaVuSans-44" transform="translate(405.078125 0)"/>
      <use xlink:href="#DejaVuSans-52" transform="translate(482.080078 0)"/>
     </g>
    </g>
    <g id="line2d_41">
     <defs>
      <path id="m1ddd433f9b" d="M 0 3 
C 0.795609 3 1.55874 2.683901 2.12132 2.12132 
C 2.683901 1.55874 3 0.795609 3 0 
C 3 -0.795609 2.683901 -1.55874 2.12132 -2.12132 
C 1.55874 -2.683901 0.795609 -3 0 -3 
C -0.795609 -3 -1.55874 -2.683901 -2.12132 -2.12132 
C -2.683901 -1.55874 -3 -0.795609 -3 0 
C -3 0.795609 -2.683901 1.55874 -2.12132 2.12132 
C -1.55874 2.683901 -0.795609 3 0 3 
z
" style="stroke: #ffffff; stroke-width: 0.436348"/>
     </defs>
     <g>
      <use xlink:href="#m1ddd433f9b" x="582.284063" y="50.094688" style="fill: #4961d2; stroke: #ffffff; stroke-width: 0.436348"/>
     </g>
    </g>
    <g id="text_30">
     <!-- 5.0 -->
     <g transform="translate(600.284063 53.594688) scale(0.1 -0.1)">
      <use xlink:href="#DejaVuSans-35"/>
      <use xlink:href="#DejaVuSans-2e" transform="translate(63.623047 0)"/>
      <use xlink:href="#DejaVuSans-30" transform="translate(95.410156 0)"/>
     </g>
    </g>
    <g id="line2d_42">
     <defs>
      <path id="m4a16fe3fe7" d="M 0 3 
C 0.795609 3 1.55874 2.683901 2.12132 2.12132 
C 2.683901 1.55874 3 0.795609 3 0 
C 3 -0.795609 2.683901 -1.55874 2.12132 -2.12132 
C 1.55874 -2.683901 0.795609 -3 0 -3 
C -0.795609 -3 -1.55874 -2.683901 -2.12132 -2.12132 
C -2.683901 -1.55874 -3 -0.795609 -3 0 
C -3 0.795609 -2.683901 1.55874 -2.12132 2.12132 
C -1.55874 2.683901 -0.795609 3 0 3 
z
" style="stroke: #ffffff; stroke-width: 0.436348"/>
     </defs>
     <g>
      <use xlink:href="#m4a16fe3fe7" x="582.284063" y="64.772812" style="fill: #82a6fb; stroke: #ffffff; stroke-width: 0.436348"/>
     </g>
    </g>
    <g id="text_31">
     <!-- 7.5 -->
     <g transform="translate(600.284063 68.272812) scale(0.1 -0.1)">
      <defs>
       <path id="DejaVuSans-37" d="M 525 4666 
L 3525 4666 
L 3525 4397 
L 1831 0 
L 1172 0 
L 2766 4134 
L 525 4134 
L 525 4666 
z
" transform="scale(0.015625)"/>
      </defs>
      <use xlink:href="#DejaVuSans-37"/>
      <use xlink:href="#DejaVuSans-2e" transform="translate(63.623047 0)"/>
      <use xlink:href="#DejaVuSans-35" transform="translate(95.410156 0)"/>
     </g>
    </g>
    <g id="line2d_43">
     <defs>
      <path id="mce43f4757b" d="M 0 3 
C 0.795609 3 1.55874 2.683901 2.12132 2.12132 
C 2.683901 1.55874 3 0.795609 3 0 
C 3 -0.795609 2.683901 -1.55874 2.12132 -2.12132 
C 1.55874 -2.683901 0.795609 -3 0 -3 
C -0.795609 -3 -1.55874 -2.683901 -2.12132 -2.12132 
C -2.683901 -1.55874 -3 -0.795609 -3 0 
C -3 0.795609 -2.683901 1.55874 -2.12132 2.12132 
C -1.55874 2.683901 -0.795609 3 0 3 
z
" style="stroke: #ffffff; stroke-width: 0.436348"/>
     </defs>
     <g>
      <use xlink:href="#mce43f4757b" x="582.284063" y="79.450938" style="fill: #bed2f6; stroke: #ffffff; stroke-width: 0.436348"/>
     </g>
    </g>
    <g id="text_32">
     <!-- 10.0 -->
     <g transform="translate(600.284063 82.950938) scale(0.1 -0.1)">
      <use xlink:href="#DejaVuSans-31"/>
      <use xlink:href="#DejaVuSans-30" transform="translate(63.623047 0)"/>
      <use xlink:href="#DejaVuSans-2e" transform="translate(127.246094 0)"/>
      <use xlink:href="#DejaVuSans-30" transform="translate(159.033203 0)"/>
     </g>
    </g>
    <g id="line2d_44">
     <defs>
      <path id="m75aac44f47" d="M 0 3 
C 0.795609 3 1.55874 2.683901 2.12132 2.12132 
C 2.683901 1.55874 3 0.795609 3 0 
C 3 -0.795609 2.683901 -1.55874 2.12132 -2.12132 
C 1.55874 -2.683901 0.795609 -3 0 -3 
C -0.795609 -3 -1.55874 -2.683901 -2.12132 -2.12132 
C -2.683901 -1.55874 -3 -0.795609 -3 0 
C -3 0.795609 -2.683901 1.55874 -2.12132 2.12132 
C -1.55874 2.683901 -0.795609 3 0 3 
z
" style="stroke: #ffffff; stroke-width: 0.436348"/>
     </defs>
     <g>
      <use xlink:href="#m75aac44f47" x="582.284063" y="94.129063" style="fill: #ebd3c6; stroke: #ffffff; stroke-width: 0.436348"/>
     </g>
    </g>
    <g id="text_33">
     <!-- 12.5 -->
     <g transform="translate(600.284063 97.629063) scale(0.1 -0.1)">
      <use xlink:href="#DejaVuSans-31"/>
      <use xlink:href="#DejaVuSans-32" transform="translate(63.623047 0)"/>
      <use xlink:href="#DejaVuSans-2e" transform="translate(127.246094 0)"/>
      <use xlink:href="#DejaVuSans-35" transform="translate(159.033203 0)"/>
     </g>
    </g>
    <g id="line2d_45">
     <defs>
      <path id="m9a284efbde" d="M 0 3 
C 0.795609 3 1.55874 2.683901 2.12132 2.12132 
C 2.683901 1.55874 3 0.795609 3 0 
C 3 -0.795609 2.683901 -1.55874 2.12132 -2.12132 
C 1.55874 -2.683901 0.795609 -3 0 -3 
C -0.795609 -3 -1.55874 -2.683901 -2.12132 -2.12132 
C -2.683901 -1.55874 -3 -0.795609 -3 0 
C -3 0.795609 -2.683901 1.55874 -2.12132 2.12132 
C -1.55874 2.683901 -0.795609 3 0 3 
z
" style="stroke: #ffffff; stroke-width: 0.436348"/>
     </defs>
     <g>
      <use xlink:href="#m9a284efbde" x="582.284063" y="108.807187" style="fill: #f5a081; stroke: #ffffff; stroke-width: 0.436348"/>
     </g>
    </g>
    <g id="text_34">
     <!-- 15.0 -->
     <g transform="translate(600.284063 112.307187) scale(0.1 -0.1)">
      <use xlink:href="#DejaVuSans-31"/>
      <use xlink:href="#DejaVuSans-35" transform="translate(63.623047 0)"/>
      <use xlink:href="#DejaVuSans-2e" transform="translate(127.246094 0)"/>
      <use xlink:href="#DejaVuSans-30" transform="translate(159.033203 0)"/>
     </g>
    </g>
    <g id="line2d_46">
     <defs>
      <path id="md871219480" d="M 0 3 
C 0.795609 3 1.55874 2.683901 2.12132 2.12132 
C 2.683901 1.55874 3 0.795609 3 0 
C 3 -0.795609 2.683901 -1.55874 2.12132 -2.12132 
C 1.55874 -2.683901 0.795609 -3 0 -3 
C -0.795609 -3 -1.55874 -2.683901 -2.12132 -2.12132 
C -2.683901 -1.55874 -3 -0.795609 -3 0 
C -3 0.795609 -2.683901 1.55874 -2.12132 2.12132 
C -1.55874 2.683901 -0.795609 3 0 3 
z
" style="stroke: #ffffff; stroke-width: 0.436348"/>
     </defs>
     <g>
      <use xlink:href="#md871219480" x="582.284063" y="123.485313" style="fill: #d55042; stroke: #ffffff; stroke-width: 0.436348"/>
     </g>
    </g>
    <g id="text_35">
     <!-- 17.5 -->
     <g transform="translate(600.284063 126.985313) scale(0.1 -0.1)">
      <use xlink:href="#DejaVuSans-31"/>
      <use xlink:href="#DejaVuSans-37" transform="translate(63.623047 0)"/>
      <use xlink:href="#DejaVuSans-2e" transform="translate(127.246094 0)"/>
      <use xlink:href="#DejaVuSans-35" transform="translate(159.033203 0)"/>
     </g>
    </g>
    <g id="line2d_47"/>
    <g id="text_36">
     <!-- Gene Ratio -->
     <g transform="translate(600.284063 141.663437) scale(0.1 -0.1)">
      <use xlink:href="#DejaVuSans-47"/>
      <use xlink:href="#DejaVuSans-65" transform="translate(77.490234 0)"/>
      <use xlink:href="#DejaVuSans-6e" transform="translate(139.013672 0)"/>
      <use xlink:href="#DejaVuSans-65" transform="translate(202.392578 0)"/>
      <use xlink:href="#DejaVuSans-20" transform="translate(263.916016 0)"/>
      <use xlink:href="#DejaVuSans-52" transform="translate(295.703125 0)"/>
      <use xlink:href="#DejaVuSans-61" transform="translate(362.935547 0)"/>
      <use xlink:href="#DejaVuSans-74" transform="translate(424.214844 0)"/>
      <use xlink:href="#DejaVuSans-69" transform="translate(463.423828 0)"/>
      <use xlink:href="#DejaVuSans-6f" transform="translate(491.207031 0)"/>
     </g>
    </g>
    <g id="line2d_48">
     <defs>
      <path id="md609560a1e" d="M 0 2.414539 
C 0.640343 2.414539 1.254546 2.160128 1.707337 1.707337 
C 2.160128 1.254546 2.414539 0.640343 2.414539 0 
C 2.414539 -0.640343 2.160128 -1.254546 1.707337 -1.707337 
C 1.254546 -2.160128 0.640343 -2.414539 0 -2.414539 
C -0.640343 -2.414539 -1.254546 -2.160128 -1.707337 -1.707337 
C -2.160128 -1.254546 -2.414539 -0.640343 -2.414539 0 
C -2.414539 0.640343 -2.160128 1.254546 -1.707337 1.707337 
C -1.254546 2.160128 -0.640343 2.414539 0 2.414539 
z
" style="stroke: #ffffff; stroke-width: 0.436348"/>
     </defs>
     <g>
      <use xlink:href="#md609560a1e" x="582.284063" y="152.841563" style="fill: #333333; stroke: #ffffff; stroke-width: 0.436348"/>
     </g>
    </g>
    <g id="text_37">
     <!-- 0.004 -->
     <g transform="translate(600.284063 156.341563) scale(0.1 -0.1)">
      <use xlink:href="#DejaVuSans-30"/>
      <use xlink:href="#DejaVuSans-2e" transform="translate(63.623047 0)"/>
      <use xlink:href="#DejaVuSans-30" transform="translate(95.410156 0)"/>
      <use xlink:href="#DejaVuSans-30" transform="translate(159.033203 0)"/>
      <use xlink:href="#DejaVuSans-34" transform="translate(222.65625 0)"/>
     </g>
    </g>
    <g id="line2d_49">
     <defs>
      <path id="mf6f6957818" d="M 0 3.504996 
C 0.929536 3.504996 1.821126 3.135688 2.478407 2.478407 
C 3.135688 1.821126 3.504996 0.929536 3.504996 0 
C 3.504996 -0.929536 3.135688 -1.821126 2.478407 -2.478407 
C 1.821126 -3.135688 0.929536 -3.504996 0 -3.504996 
C -0.929536 -3.504996 -1.821126 -3.135688 -2.478407 -2.478407 
C -3.135688 -1.821126 -3.504996 -0.929536 -3.504996 0 
C -3.504996 0.929536 -3.135688 1.821126 -2.478407 2.478407 
C -1.821126 3.135688 -0.929536 3.504996 0 3.504996 
z
" style="stroke: #ffffff; stroke-width: 0.436348"/>
     </defs>
     <g>
      <use xlink:href="#mf6f6957818" x="582.284063" y="167.519687" style="fill: #333333; stroke: #ffffff; stroke-width: 0.436348"/>
     </g>
    </g>
    <g id="text_38">
     <!-- 0.008 -->
     <g transform="translate(600.284063 171.019687) scale(0.1 -0.1)">
      <defs>
       <path id="DejaVuSans-38" d="M 2034 2216 
Q 1584 2216 1326 1975 
Q 1069 1734 1069 1313 
Q 1069 891 1326 650 
Q 1584 409 2034 409 
Q 2484 409 2743 651 
Q 3003 894 3003 1313 
Q 3003 1734 2745 1975 
Q 2488 2216 2034 2216 
z
M 1403 2484 
Q 997 2584 770 2862 
Q 544 3141 544 3541 
Q 544 4100 942 4425 
Q 1341 4750 2034 4750 
Q 2731 4750 3128 4425 
Q 3525 4100 3525 3541 
Q 3525 3141 3298 2862 
Q 3072 2584 2669 2484 
Q 3125 2378 3379 2068 
Q 3634 1759 3634 1313 
Q 3634 634 3220 271 
Q 2806 -91 2034 -91 
Q 1263 -91 848 271 
Q 434 634 434 1313 
Q 434 1759 690 2068 
Q 947 2378 1403 2484 
z
M 1172 3481 
Q 1172 3119 1398 2916 
Q 1625 2713 2034 2713 
Q 2441 2713 2670 2916 
Q 2900 3119 2900 3481 
Q 2900 3844 2670 4047 
Q 2441 4250 2034 4250 
Q 1625 4250 1398 4047 
Q 1172 3844 1172 3481 
z
" transform="scale(0.015625)"/>
      </defs>
      <use xlink:href="#DejaVuSans-30"/>
      <use xlink:href="#DejaVuSans-2e" transform="translate(63.623047 0)"/>
      <use xlink:href="#DejaVuSans-30" transform="translate(95.410156 0)"/>
      <use xlink:href="#DejaVuSans-30" transform="translate(159.033203 0)"/>
      <use xlink:href="#DejaVuSans-38" transform="translate(222.65625 0)"/>
     </g>
    </g>
    <g id="line2d_50">
     <defs>
      <path id="ma568cdea95" d="M 0 4.328972 
C 1.148057 4.328972 2.249247 3.872844 3.061046 3.061046 
C 3.872844 2.249247 4.328972 1.148057 4.328972 0 
C 4.328972 -1.148057 3.872844 -2.249247 3.061046 -3.061046 
C 2.249247 -3.872844 1.148057 -4.328972 0 -4.328972 
C -1.148057 -4.328972 -2.249247 -3.872844 -3.061046 -3.061046 
C -3.872844 -2.249247 -4.328972 -1.148057 -4.328972 0 
C -4.328972 1.148057 -3.872844 2.249247 -3.061046 3.061046 
C -2.249247 3.872844 -1.148057 4.328972 0 4.328972 
z
" style="stroke: #ffffff; stroke-width: 0.436348"/>
     </defs>
     <g>
      <use xlink:href="#ma568cdea95" x="582.284063" y="182.197812" style="fill: #333333; stroke: #ffffff; stroke-width: 0.436348"/>
     </g>
    </g>
    <g id="text_39">
     <!-- 0.012 -->
     <g transform="translate(600.284063 185.697812) scale(0.1 -0.1)">
      <use xlink:href="#DejaVuSans-30"/>
      <use xlink:href="#DejaVuSans-2e" transform="translate(63.623047 0)"/>
      <use xlink:href="#DejaVuSans-30" transform="translate(95.410156 0)"/>
      <use xlink:href="#DejaVuSans-31" transform="translate(159.033203 0)"/>
      <use xlink:href="#DejaVuSans-32" transform="translate(222.65625 0)"/>
     </g>
    </g>
    <g id="line2d_51">
     <defs>
      <path id="m998a1e738a" d="M 0 5.019462 
C 1.331177 5.019462 2.608011 4.49058 3.549296 3.549296 
C 4.49058 2.608011 5.019462 1.331177 5.019462 0 
C 5.019462 -1.331177 4.49058 -2.608011 3.549296 -3.549296 
C 2.608011 -4.49058 1.331177 -5.019462 0 -5.019462 
C -1.331177 -5.019462 -2.608011 -4.49058 -3.549296 -3.549296 
C -4.49058 -2.608011 -5.019462 -1.331177 -5.019462 0 
C -5.019462 1.331177 -4.49058 2.608011 -3.549296 3.549296 
C -2.608011 4.49058 -1.331177 5.019462 0 5.019462 
z
" style="stroke: #ffffff; stroke-width: 0.436348"/>
     </defs>
     <g>
      <use xlink:href="#m998a1e738a" x="582.284063" y="196.875937" style="fill: #333333; stroke: #ffffff; stroke-width: 0.436348"/>
     </g>
    </g>
    <g id="text_40">
     <!-- 0.016 -->
     <g transform="translate(600.284063 200.375937) scale(0.1 -0.1)">
      <use xlink:href="#DejaVuSans-30"/>
      <use xlink:href="#DejaVuSans-2e" transform="translate(63.623047 0)"/>
      <use xlink:href="#DejaVuSans-30" transform="translate(95.410156 0)"/>
      <use xlink:href="#DejaVuSans-31" transform="translate(159.033203 0)"/>
      <use xlink:href="#DejaVuSans-36" transform="translate(222.65625 0)"/>
     </g>
    </g>
    <g id="line2d_52">
     <defs>
      <path id="m9b6c1347a7" d="M 0 5.625833 
C 1.491988 5.625833 2.92307 5.03306 3.978065 3.978065 
C 5.03306 2.92307 5.625833 1.491988 5.625833 0 
C 5.625833 -1.491988 5.03306 -2.92307 3.978065 -3.978065 
C 2.92307 -5.03306 1.491988 -5.625833 0 -5.625833 
C -1.491988 -5.625833 -2.92307 -5.03306 -3.978065 -3.978065 
C -5.03306 -2.92307 -5.625833 -1.491988 -5.625833 0 
C -5.625833 1.491988 -5.03306 2.92307 -3.978065 3.978065 
C -2.92307 5.03306 -1.491988 5.625833 0 5.625833 
z
" style="stroke: #ffffff; stroke-width: 0.436348"/>
     </defs>
     <g>
      <use xlink:href="#m9b6c1347a7" x="582.284063" y="211.554062" style="fill: #333333; stroke: #ffffff; stroke-width: 0.436348"/>
     </g>
    </g>
    <g id="text_41">
     <!-- 0.020 -->
     <g transform="translate(600.284063 215.054062) scale(0.1 -0.1)">
      <use xlink:href="#DejaVuSans-30"/>
      <use xlink:href="#DejaVuSans-2e" transform="translate(63.623047 0)"/>
      <use xlink:href="#DejaVuSans-30" transform="translate(95.410156 0)"/>
      <use xlink:href="#DejaVuSans-32" transform="translate(159.033203 0)"/>
      <use xlink:href="#DejaVuSans-30" transform="translate(222.65625 0)"/>
     </g>
    </g>
   </g>
  </g>
 </g>
 <defs>
  <clipPath id="pe2f79f85c4">
   <rect x="206.164062" y="22.318125" width="357.12" height="266.112"/>
  </clipPath>
 </defs>
</svg>
