<?xml version="1.0" encoding="utf-8" standalone="no"?>
<!DOCTYPE svg PUBLIC "-//W3C//DTD SVG 1.1//EN"
  "http://www.w3.org/Graphics/SVG/1.1/DTD/svg11.dtd">
<svg xmlns:xlink="http://www.w3.org/1999/xlink" width="677.748125pt" height="325.986375pt" viewBox="0 0 677.748125 325.986375" xmlns="http://www.w3.org/2000/svg" version="1.1">
 <metadata>
  <rdf:RDF xmlns:dc="http://purl.org/dc/elements/1.1/" xmlns:cc="http://creativecommons.org/ns#" xmlns:rdf="http://www.w3.org/1999/02/22-rdf-syntax-ns#">
   <cc:Work>
    <dc:type rdf:resource="http://purl.org/dc/dcmitype/StillImage"/>
    <dc:date>2025-12-27T19:30:13.434816</dc:date>
    <dc:format>image/svg+xml</dc:format>
    <dc:creator>
     <cc:Agent>
      <dc:title>Matplotlib v3.10.7, https://matplotlib.org/</dc:title>
     </cc:Agent>
    </dc:creator>
   </cc:Work>
  </rdf:RDF>
 </metadata>
 <defs>
  <style type="text/css">*{stroke-linejoin: round; stroke-linecap: butt}</style>
 </defs>
 <g id="figure_1">
  <g id="patch_1">
   <path d="M 0 325.986375 
L 677.748125 325.986375 
L 677.748125 0 
L 0 0 
z
" style="fill: #ffffff"/>
  </g>
  <g id="axes_1">
   <g id="patch_2">
    <path d="M 217.189063 288.430125 
L 574.309062 288.430125 
L 574.309062 22.318125 
L 217.189063 22.318125 
z
" style="fill: #ffffff"/>
   </g>
   <g id="PathCollection_1">
    <path d="M 558.076335 36.650193 
C 558.669347 36.650193 559.238151 36.414587 559.657474 35.995264 
C 560.076797 35.575941 560.312403 35.007137 560.312403 34.414125 
C 560.312403 33.821113 560.076797 33.252309 559.657474 32.832986 
C 559.238151 32.413663 558.669347 32.178057 558.076335 32.178057 
C 557.483323 32.178057 556.914519 32.413663 556.495196 32.832986 
C 556.075873 33.252309 555.840267 33.821113 555.840267 34.414125 
C 555.840267 35.007137 556.075873 35.575941 556.495196 35.995264 
C 556.914519 36.414587 557.483323 36.650193 558.076335 36.650193 
z
" clip-path="url(#p60f27e4a5e)" style="fill: #3d50c3; stroke: #ffffff; stroke-width: 0.43226"/>
    <path d="M 469.955816 49.712953 
C 470.636379 49.712953 471.28916 49.442563 471.770391 48.961332 
C 472.251622 48.480101 472.522013 47.82732 472.522013 47.146757 
C 472.522013 46.466193 472.251622 45.813412 471.770391 45.332181 
C 471.28916 44.85095 470.636379 44.58056 469.955816 44.58056 
C 469.275252 44.58056 468.622472 44.85095 468.141241 45.332181 
C 467.66001 45.813412 467.389619 46.466193 467.389619 47.146757 
C 467.389619 47.82732 467.66001 48.480101 468.141241 48.961332 
C 468.622472 49.442563 469.275252 49.712953 469.955816 49.712953 
z
" clip-path="url(#p60f27e4a5e)" style="fill: #4358cb; stroke: #ffffff; stroke-width: 0.43226"/>
    <path d="M 400.386985 62.595645 
C 401.107344 62.595645 401.798297 62.309443 402.307668 61.800071 
C 402.817039 61.2907 403.103241 60.599748 403.103241 59.879388 
C 403.103241 59.159029 402.817039 58.468076 402.307668 57.958705 
C 401.798297 57.449334 401.107344 57.163132 400.386985 57.163132 
C 399.666625 57.163132 398.975672 57.449334 398.466301 57.958705 
C 397.95693 58.468076 397.670728 59.159029 397.670728 59.879388 
C 397.670728 60.599748 397.95693 61.2907 398.466301 61.800071 
C 398.975672 62.309443 399.666625 62.595645 400.386985 62.595645 
z
" clip-path="url(#p60f27e4a5e)" style="fill: #3c4ec2; stroke: #ffffff; stroke-width: 0.43226"/>
    <path d="M 381.835296 75.470469 
C 382.593366 75.470469 383.320489 75.169285 383.856525 74.633249 
C 384.392561 74.097212 384.693745 73.370089 384.693745 72.61202 
C 384.693745 71.85395 384.392561 71.126827 383.856525 70.590791 
C 383.320489 70.054755 382.593366 69.753571 381.835296 69.753571 
C 381.077227 69.753571 380.350104 70.054755 379.814067 70.590791 
C 379.278031 71.126827 378.976847 71.85395 378.976847 72.61202 
C 378.976847 73.370089 379.278031 74.097212 379.814067 74.633249 
C 380.350104 75.169285 381.077227 75.470469 381.835296 75.470469 
z
" clip-path="url(#p60f27e4a5e)" style="fill: #4257c9; stroke: #ffffff; stroke-width: 0.43226"/>
    <path d="M 329.999697 89.048637 
C 330.982005 89.048637 331.924213 88.658362 332.61881 87.963765 
C 333.313407 87.269168 333.703683 86.32696 333.703683 85.344651 
C 333.703683 84.362343 333.313407 83.420135 332.61881 82.725538 
C 331.924213 82.030941 330.982005 81.640665 329.999697 81.640665 
C 329.017388 81.640665 328.07518 82.030941 327.380583 82.725538 
C 326.685986 83.420135 326.295711 84.362343 326.295711 85.344651 
C 326.295711 86.32696 326.685986 87.269168 327.380583 87.963765 
C 328.07518 88.658362 329.017388 89.048637 329.999697 89.048637 
z
" clip-path="url(#p60f27e4a5e)" style="fill: #7a9df8; stroke: #ffffff; stroke-width: 0.43226"/>
    <path d="M 324.287202 102.643864 
C 325.498273 102.643864 326.659905 102.1627 327.516262 101.306343 
C 328.372619 100.449986 328.853783 99.288354 328.853783 98.077283 
C 328.853783 96.866212 328.372619 95.70458 327.516262 94.848223 
C 326.659905 93.991866 325.498273 93.510702 324.287202 93.510702 
C 323.076131 93.510702 321.914499 93.991866 321.058142 94.848223 
C 320.201785 95.70458 319.720621 96.866212 319.720621 98.077283 
C 319.720621 99.288354 320.201785 100.449986 321.058142 101.306343 
C 321.914499 102.1627 323.076131 102.643864 324.287202 102.643864 
z
" clip-path="url(#p60f27e4a5e)" style="fill: #d7dce3; stroke: #ffffff; stroke-width: 0.43226"/>
    <path d="M 323.088283 114.619402 
C 324.098571 114.619402 325.067616 114.21801 325.781998 113.503629 
C 326.496379 112.789248 326.897771 111.820202 326.897771 110.809914 
C 326.897771 109.799627 326.496379 108.830581 325.781998 108.1162 
C 325.067616 107.401819 324.098571 107.000427 323.088283 107.000427 
C 322.077995 107.000427 321.10895 107.401819 320.394569 108.1162 
C 319.680187 108.830581 319.278796 109.799627 319.278796 110.809914 
C 319.278796 111.820202 319.680187 112.789248 320.394569 113.503629 
C 321.10895 114.21801 322.077995 114.619402 323.088283 114.619402 
z
" clip-path="url(#p60f27e4a5e)" style="fill: #81a4fb; stroke: #ffffff; stroke-width: 0.43226"/>
    <path d="M 303.505946 126.666021 
C 304.334301 126.666021 305.12884 126.336912 305.714576 125.751177 
C 306.300312 125.165441 306.629421 124.370901 306.629421 123.542546 
C 306.629421 122.714191 306.300312 121.919651 305.714576 121.333916 
C 305.12884 120.74818 304.334301 120.419071 303.505946 120.419071 
C 302.67759 120.419071 301.883051 120.74818 301.297315 121.333916 
C 300.711579 121.919651 300.38247 122.714191 300.38247 123.542546 
C 300.38247 124.370901 300.711579 125.165441 301.297315 125.751177 
C 301.883051 126.336912 302.67759 126.666021 303.505946 126.666021 
z
" clip-path="url(#p60f27e4a5e)" style="fill: #3c4ec2; stroke: #ffffff; stroke-width: 0.43226"/>
    <path d="M 303.505946 139.398653 
C 304.334301 139.398653 305.12884 139.069544 305.714576 138.483808 
C 306.300312 137.898072 306.629421 137.103533 306.629421 136.275178 
C 306.629421 135.446822 306.300312 134.652283 305.714576 134.066547 
C 305.12884 133.480811 304.334301 133.151702 303.505946 133.151702 
C 302.67759 133.151702 301.883051 133.480811 301.297315 134.066547 
C 300.711579 134.652283 300.38247 135.446822 300.38247 136.275178 
C 300.38247 137.103533 300.711579 137.898072 301.297315 138.483808 
C 301.883051 139.069544 302.67759 139.398653 303.505946 139.398653 
z
" clip-path="url(#p60f27e4a5e)" style="fill: #3c4ec2; stroke: #ffffff; stroke-width: 0.43226"/>
    <path d="M 301.146628 155.000691 
C 302.735959 155.000691 304.260409 154.369243 305.384235 153.245417 
C 306.508062 152.12159 307.13951 150.59714 307.13951 149.007809 
C 307.13951 147.418478 306.508062 145.894028 305.384235 144.770202 
C 304.260409 143.646375 302.735959 143.014927 301.146628 143.014927 
C 299.557297 143.014927 298.032847 143.646375 296.90902 144.770202 
C 295.785194 145.894028 295.153746 147.418478 295.153746 149.007809 
C 295.153746 150.59714 295.785194 152.12159 296.90902 153.245417 
C 298.032847 154.369243 299.557297 155.000691 301.146628 155.000691 
z
" clip-path="url(#p60f27e4a5e)" style="fill: #b40426; stroke: #ffffff; stroke-width: 0.43226"/>
    <path d="M 277.692864 165.850215 
C 278.782789 165.850215 279.82822 165.417183 280.598913 164.64649 
C 281.369607 163.875797 281.802638 162.830366 281.802638 161.740441 
C 281.802638 160.650516 281.369607 159.605085 280.598913 158.834392 
C 279.82822 158.063698 278.782789 157.630667 277.692864 157.630667 
C 276.602939 157.630667 275.557508 158.063698 274.786815 158.834392 
C 274.016122 159.605085 273.58309 160.650516 273.58309 161.740441 
C 273.58309 162.830366 274.016122 163.875797 274.786815 164.64649 
C 275.557508 165.417183 276.602939 165.850215 277.692864 165.850215 
z
" clip-path="url(#p60f27e4a5e)" style="fill: #85a8fc; stroke: #ffffff; stroke-width: 0.43226"/>
    <path d="M 276.090673 177.720961 
C 276.952023 177.720961 277.77821 177.378743 278.387277 176.769676 
C 278.996343 176.16061 279.338562 175.334422 279.338562 174.473072 
C 279.338562 173.611722 278.996343 172.785535 278.387277 172.176468 
C 277.77821 171.567402 276.952023 171.225184 276.090673 171.225184 
C 275.229323 171.225184 274.403135 171.567402 273.794069 172.176468 
C 273.185002 172.785535 272.842784 173.611722 272.842784 174.473072 
C 272.842784 175.334422 273.185002 176.16061 273.794069 176.769676 
C 274.403135 177.378743 275.229323 177.720961 276.090673 177.720961 
z
" clip-path="url(#p60f27e4a5e)" style="fill: #3b4cc0; stroke: #ffffff; stroke-width: 0.43226"/>
    <path d="M 275.425612 191.772285 
C 276.636684 191.772285 277.798316 191.291121 278.654672 190.434764 
C 279.511029 189.578407 279.992193 188.416775 279.992193 187.205704 
C 279.992193 185.994633 279.511029 184.833001 278.654672 183.976644 
C 277.798316 183.120287 276.636684 182.639123 275.425612 182.639123 
C 274.214541 182.639123 273.052909 183.120287 272.196552 183.976644 
C 271.340195 184.833001 270.859032 185.994633 270.859032 187.205704 
C 270.859032 188.416775 271.340195 189.578407 272.196552 190.434764 
C 273.052909 191.291121 274.214541 191.772285 275.425612 191.772285 
z
" clip-path="url(#p60f27e4a5e)" style="fill: #b5cdfa; stroke: #ffffff; stroke-width: 0.43226"/>
    <path d="M 272.88629 204.590898 
C 274.120164 204.590898 275.303668 204.100675 276.176149 203.228194 
C 277.04863 202.355714 277.538853 201.17221 277.538853 199.938336 
C 277.538853 198.704461 277.04863 197.520958 276.176149 196.648477 
C 275.303668 195.775996 274.120164 195.285773 272.88629 195.285773 
C 271.652416 195.285773 270.468912 195.775996 269.596432 196.648477 
C 268.723951 197.520958 268.233727 198.704461 268.233727 199.938336 
C 268.233727 201.17221 268.723951 202.355714 269.596432 203.228194 
C 270.468912 204.100675 271.652416 204.590898 272.88629 204.590898 
z
" clip-path="url(#p60f27e4a5e)" style="fill: #bcd2f7; stroke: #ffffff; stroke-width: 0.43226"/>
    <path d="M 267.796977 216.154377 
C 268.720788 216.154377 269.606887 215.787343 270.26012 215.13411 
C 270.913353 214.480877 271.280387 213.594778 271.280387 212.670967 
C 271.280387 211.747156 270.913353 210.861057 270.26012 210.207824 
C 269.606887 209.554591 268.720788 209.187557 267.796977 209.187557 
C 266.873166 209.187557 265.987067 209.554591 265.333834 210.207824 
C 264.680601 210.861057 264.313567 211.747156 264.313567 212.670967 
C 264.313567 213.594778 264.680601 214.480877 265.333834 215.13411 
C 265.987067 215.787343 266.873166 216.154377 267.796977 216.154377 
z
" clip-path="url(#p60f27e4a5e)" style="fill: #485fd1; stroke: #ffffff; stroke-width: 0.43226"/>
    <path d="M 259.232834 230.618493 
C 260.61584 230.618493 261.942388 230.069019 262.920321 229.091086 
C 263.898254 228.113153 264.447729 226.786605 264.447729 225.403599 
C 264.447729 224.020593 263.898254 222.694045 262.920321 221.716112 
C 261.942388 220.738179 260.61584 220.188704 259.232834 220.188704 
C 257.849828 220.188704 256.52328 220.738179 255.545347 221.716112 
C 254.567414 222.694045 254.01794 224.020593 254.01794 225.403599 
C 254.01794 226.786605 254.567414 228.113153 255.545347 229.091086 
C 256.52328 230.069019 257.849828 230.618493 259.232834 230.618493 
z
" clip-path="url(#p60f27e4a5e)" style="fill: #e8d6cc; stroke: #ffffff; stroke-width: 0.43226"/>
    <path d="M 248.463699 241.73162 
C 249.417208 241.73162 250.331791 241.352787 251.006024 240.678555 
C 251.680256 240.004323 252.059089 239.089739 252.059089 238.13623 
C 252.059089 237.182722 251.680256 236.268138 251.006024 235.593906 
C 250.331791 234.919673 249.417208 234.54084 248.463699 234.54084 
C 247.510191 234.54084 246.595607 234.919673 245.921375 235.593906 
C 245.247142 236.268138 244.868309 237.182722 244.868309 238.13623 
C 244.868309 239.089739 245.247142 240.004323 245.921375 240.678555 
C 246.595607 241.352787 247.510191 241.73162 248.463699 241.73162 
z
" clip-path="url(#p60f27e4a5e)" style="fill: #465ecf; stroke: #ffffff; stroke-width: 0.43226"/>
    <path d="M 238.639452 256.992586 
C 240.263483 256.992586 241.821216 256.347352 242.969579 255.198989 
C 244.117942 254.050626 244.763176 252.492893 244.763176 250.868862 
C 244.763176 249.244831 244.117942 247.687098 242.969579 246.538735 
C 241.821216 245.390372 240.263483 244.745137 238.639452 244.745137 
C 237.015421 244.745137 235.457688 245.390372 234.309325 246.538735 
C 233.160962 247.687098 232.515728 249.244831 232.515728 250.868862 
C 232.515728 252.492893 233.160962 254.050626 234.309325 255.198989 
C 235.457688 256.347352 237.015421 256.992586 238.639452 256.992586 
z
" clip-path="url(#p60f27e4a5e)" style="fill: #ea7b60; stroke: #ffffff; stroke-width: 0.43226"/>
    <path d="M 234.173885 268.891844 
C 235.576903 268.891844 236.922645 268.334419 237.914728 267.342336 
C 238.906811 266.350253 239.464235 265.004511 239.464235 263.601493 
C 239.464235 262.198476 238.906811 260.852734 237.914728 259.860651 
C 236.922645 258.868568 235.576903 258.311143 234.173885 258.311143 
C 232.770868 258.311143 231.425126 258.868568 230.433043 259.860651 
C 229.44096 260.852734 228.883535 262.198476 228.883535 263.601493 
C 228.883535 265.004511 229.44096 266.350253 230.433043 267.342336 
C 231.425126 268.334419 232.770868 268.891844 234.173885 268.891844 
z
" clip-path="url(#p60f27e4a5e)" style="fill: #dcdddd; stroke: #ffffff; stroke-width: 0.43226"/>
    <path d="M 233.42179 279.929515 
C 234.375298 279.929515 235.289882 279.550682 235.964114 278.87645 
C 236.638347 278.202217 237.01718 277.287634 237.01718 276.334125 
C 237.01718 275.380616 236.638347 274.466033 235.964114 273.7918 
C 235.289882 273.117568 234.375298 272.738735 233.42179 272.738735 
C 232.468281 272.738735 231.553697 273.117568 230.879465 273.7918 
C 230.205233 274.466033 229.8264 275.380616 229.8264 276.334125 
C 229.8264 277.287634 230.205233 278.202217 230.879465 278.87645 
C 231.553697 279.550682 232.468281 279.929515 233.42179 279.929515 
z
" clip-path="url(#p60f27e4a5e)" style="fill: #4055c8; stroke: #ffffff; stroke-width: 0.43226"/>
   </g>
   <g id="matplotlib.axis_1">
    <g id="xtick_1">
     <g id="line2d_1">
      <defs>
       <path id="ma8ee450ac4" d="M 0 0 
L 0 3.5 
" style="stroke: #000000; stroke-width: 0.8"/>
      </defs>
      <g>
       <use xlink:href="#ma8ee450ac4" x="234.75669" y="288.430125" style="stroke: #000000; stroke-width: 0.8"/>
      </g>
     </g>
     <g id="text_1">
      <!-- 3.00 -->
      <g transform="translate(223.623877 303.028562) scale(0.1 -0.1)">
       <defs>
        <path id="DejaVuSans-33" d="M 2597 2516 
Q 3050 2419 3304 2112 
Q 3559 1806 3559 1356 
Q 3559 666 3084 287 
Q 2609 -91 1734 -91 
Q 1441 -91 1130 -33 
Q 819 25 488 141 
L 488 750 
Q 750 597 1062 519 
Q 1375 441 1716 441 
Q 2309 441 2620 675 
Q 2931 909 2931 1356 
Q 2931 1769 2642 2001 
Q 2353 2234 1838 2234 
L 1294 2234 
L 1294 2753 
L 1863 2753 
Q 2328 2753 2575 2939 
Q 2822 3125 2822 3475 
Q 2822 3834 2567 4026 
Q 2313 4219 1838 4219 
Q 1578 4219 1281 4162 
Q 984 4106 628 3988 
L 628 4550 
Q 988 4650 1302 4700 
Q 1616 4750 1894 4750 
Q 2613 4750 3031 4423 
Q 3450 4097 3450 3541 
Q 3450 3153 3228 2886 
Q 3006 2619 2597 2516 
z
" transform="scale(0.015625)"/>
        <path id="DejaVuSans-2e" d="M 684 794 
L 1344 794 
L 1344 0 
L 684 0 
L 684 794 
z
" transform="scale(0.015625)"/>
        <path id="DejaVuSans-30" d="M 2034 4250 
Q 1547 4250 1301 3770 
Q 1056 3291 1056 2328 
Q 1056 1369 1301 889 
Q 1547 409 2034 409 
Q 2525 409 2770 889 
Q 3016 1369 3016 2328 
Q 3016 3291 2770 3770 
Q 2525 4250 2034 4250 
z
M 2034 4750 
Q 2819 4750 3233 4129 
Q 3647 3509 3647 2328 
Q 3647 1150 3233 529 
Q 2819 -91 2034 -91 
Q 1250 -91 836 529 
Q 422 1150 422 2328 
Q 422 3509 836 4129 
Q 1250 4750 2034 4750 
z
" transform="scale(0.015625)"/>
       </defs>
       <use xlink:href="#DejaVuSans-33"/>
       <use xlink:href="#DejaVuSans-2e" transform="translate(63.623047 0)"/>
       <use xlink:href="#DejaVuSans-30" transform="translate(95.410156 0)"/>
       <use xlink:href="#DejaVuSans-30" transform="translate(159.033203 0)"/>
      </g>
     </g>
    </g>
    <g id="xtick_2">
     <g id="line2d_2">
      <g>
       <use xlink:href="#ma8ee450ac4" x="281.247152" y="288.430125" style="stroke: #000000; stroke-width: 0.8"/>
      </g>
     </g>
     <g id="text_2">
      <!-- 3.25 -->
      <g transform="translate(270.11434 303.028562) scale(0.1 -0.1)">
       <defs>
        <path id="DejaVuSans-32" d="M 1228 531 
L 3431 531 
L 3431 0 
L 469 0 
L 469 531 
Q 828 903 1448 1529 
Q 2069 2156 2228 2338 
Q 2531 2678 2651 2914 
Q 2772 3150 2772 3378 
Q 2772 3750 2511 3984 
Q 2250 4219 1831 4219 
Q 1534 4219 1204 4116 
Q 875 4013 500 3803 
L 500 4441 
Q 881 4594 1212 4672 
Q 1544 4750 1819 4750 
Q 2544 4750 2975 4387 
Q 3406 4025 3406 3419 
Q 3406 3131 3298 2873 
Q 3191 2616 2906 2266 
Q 2828 2175 2409 1742 
Q 1991 1309 1228 531 
z
" transform="scale(0.015625)"/>
        <path id="DejaVuSans-35" d="M 691 4666 
L 3169 4666 
L 3169 4134 
L 1269 4134 
L 1269 2991 
Q 1406 3038 1543 3061 
Q 1681 3084 1819 3084 
Q 2600 3084 3056 2656 
Q 3513 2228 3513 1497 
Q 3513 744 3044 326 
Q 2575 -91 1722 -91 
Q 1428 -91 1123 -41 
Q 819 9 494 109 
L 494 744 
Q 775 591 1075 516 
Q 1375 441 1709 441 
Q 2250 441 2565 725 
Q 2881 1009 2881 1497 
Q 2881 1984 2565 2268 
Q 2250 2553 1709 2553 
Q 1456 2553 1204 2497 
Q 953 2441 691 2322 
L 691 4666 
z
" transform="scale(0.015625)"/>
       </defs>
       <use xlink:href="#DejaVuSans-33"/>
       <use xlink:href="#DejaVuSans-2e" transform="translate(63.623047 0)"/>
       <use xlink:href="#DejaVuSans-32" transform="translate(95.410156 0)"/>
       <use xlink:href="#DejaVuSans-35" transform="translate(159.033203 0)"/>
      </g>
     </g>
    </g>
    <g id="xtick_3">
     <g id="line2d_3">
      <g>
       <use xlink:href="#ma8ee450ac4" x="327.737615" y="288.430125" style="stroke: #000000; stroke-width: 0.8"/>
      </g>
     </g>
     <g id="text_3">
      <!-- 3.50 -->
      <g transform="translate(316.604802 303.028562) scale(0.1 -0.1)">
       <use xlink:href="#DejaVuSans-33"/>
       <use xlink:href="#DejaVuSans-2e" transform="translate(63.623047 0)"/>
       <use xlink:href="#DejaVuSans-35" transform="translate(95.410156 0)"/>
       <use xlink:href="#DejaVuSans-30" transform="translate(159.033203 0)"/>
      </g>
     </g>
    </g>
    <g id="xtick_4">
     <g id="line2d_4">
      <g>
       <use xlink:href="#ma8ee450ac4" x="374.228077" y="288.430125" style="stroke: #000000; stroke-width: 0.8"/>
      </g>
     </g>
     <g id="text_4">
      <!-- 3.75 -->
      <g transform="translate(363.095265 303.028562) scale(0.1 -0.1)">
       <defs>
        <path id="DejaVuSans-37" d="M 525 4666 
L 3525 4666 
L 3525 4397 
L 1831 0 
L 1172 0 
L 2766 4134 
L 525 4134 
L 525 4666 
z
" transform="scale(0.015625)"/>
       </defs>
       <use xlink:href="#DejaVuSans-33"/>
       <use xlink:href="#DejaVuSans-2e" transform="translate(63.623047 0)"/>
       <use xlink:href="#DejaVuSans-37" transform="translate(95.410156 0)"/>
       <use xlink:href="#DejaVuSans-35" transform="translate(159.033203 0)"/>
      </g>
     </g>
    </g>
    <g id="xtick_5">
     <g id="line2d_5">
      <g>
       <use xlink:href="#ma8ee450ac4" x="420.71854" y="288.430125" style="stroke: #000000; stroke-width: 0.8"/>
      </g>
     </g>
     <g id="text_5">
      <!-- 4.00 -->
      <g transform="translate(409.585727 303.028562) scale(0.1 -0.1)">
       <defs>
        <path id="DejaVuSans-34" d="M 2419 4116 
L 825 1625 
L 2419 1625 
L 2419 4116 
z
M 2253 4666 
L 3047 4666 
L 3047 1625 
L 3713 1625 
L 3713 1100 
L 3047 1100 
L 3047 0 
L 2419 0 
L 2419 1100 
L 313 1100 
L 313 1709 
L 2253 4666 
z
" transform="scale(0.015625)"/>
       </defs>
       <use xlink:href="#DejaVuSans-34"/>
       <use xlink:href="#DejaVuSans-2e" transform="translate(63.623047 0)"/>
       <use xlink:href="#DejaVuSans-30" transform="translate(95.410156 0)"/>
       <use xlink:href="#DejaVuSans-30" transform="translate(159.033203 0)"/>
      </g>
     </g>
    </g>
    <g id="xtick_6">
     <g id="line2d_6">
      <g>
       <use xlink:href="#ma8ee450ac4" x="467.209002" y="288.430125" style="stroke: #000000; stroke-width: 0.8"/>
      </g>
     </g>
     <g id="text_6">
      <!-- 4.25 -->
      <g transform="translate(456.07619 303.028562) scale(0.1 -0.1)">
       <use xlink:href="#DejaVuSans-34"/>
       <use xlink:href="#DejaVuSans-2e" transform="translate(63.623047 0)"/>
       <use xlink:href="#DejaVuSans-32" transform="translate(95.410156 0)"/>
       <use xlink:href="#DejaVuSans-35" transform="translate(159.033203 0)"/>
      </g>
     </g>
    </g>
    <g id="xtick_7">
     <g id="line2d_7">
      <g>
       <use xlink:href="#ma8ee450ac4" x="513.699465" y="288.430125" style="stroke: #000000; stroke-width: 0.8"/>
      </g>
     </g>
     <g id="text_7">
      <!-- 4.50 -->
      <g transform="translate(502.566652 303.028562) scale(0.1 -0.1)">
       <use xlink:href="#DejaVuSans-34"/>
       <use xlink:href="#DejaVuSans-2e" transform="translate(63.623047 0)"/>
       <use xlink:href="#DejaVuSans-35" transform="translate(95.410156 0)"/>
       <use xlink:href="#DejaVuSans-30" transform="translate(159.033203 0)"/>
      </g>
     </g>
    </g>
    <g id="xtick_8">
     <g id="line2d_8">
      <g>
       <use xlink:href="#ma8ee450ac4" x="560.189927" y="288.430125" style="stroke: #000000; stroke-width: 0.8"/>
      </g>
     </g>
     <g id="text_8">
      <!-- 4.75 -->
      <g transform="translate(549.057115 303.028562) scale(0.1 -0.1)">
       <use xlink:href="#DejaVuSans-34"/>
       <use xlink:href="#DejaVuSans-2e" transform="translate(63.623047 0)"/>
       <use xlink:href="#DejaVuSans-37" transform="translate(95.410156 0)"/>
       <use xlink:href="#DejaVuSans-35" transform="translate(159.033203 0)"/>
      </g>
     </g>
    </g>
    <g id="text_9">
     <!-- Fold Enrichment -->
     <g transform="translate(355.076406 316.706687) scale(0.1 -0.1)">
      <defs>
       <path id="DejaVuSans-46" d="M 628 4666 
L 3309 4666 
L 3309 4134 
L 1259 4134 
L 1259 2759 
L 3109 2759 
L 3109 2228 
L 1259 2228 
L 1259 0 
L 628 0 
L 628 4666 
z
" transform="scale(0.015625)"/>
       <path id="DejaVuSans-6f" d="M 1959 3097 
Q 1497 3097 1228 2736 
Q 959 2375 959 1747 
Q 959 1119 1226 758 
Q 1494 397 1959 397 
Q 2419 397 2687 759 
Q 2956 1122 2956 1747 
Q 2956 2369 2687 2733 
Q 2419 3097 1959 3097 
z
M 1959 3584 
Q 2709 3584 3137 3096 
Q 3566 2609 3566 1747 
Q 3566 888 3137 398 
Q 2709 -91 1959 -91 
Q 1206 -91 779 398 
Q 353 888 353 1747 
Q 353 2609 779 3096 
Q 1206 3584 1959 3584 
z
" transform="scale(0.015625)"/>
       <path id="DejaVuSans-6c" d="M 603 4863 
L 1178 4863 
L 1178 0 
L 603 0 
L 603 4863 
z
" transform="scale(0.015625)"/>
       <path id="DejaVuSans-64" d="M 2906 2969 
L 2906 4863 
L 3481 4863 
L 3481 0 
L 2906 0 
L 2906 525 
Q 2725 213 2448 61 
Q 2172 -91 1784 -91 
Q 1150 -91 751 415 
Q 353 922 353 1747 
Q 353 2572 751 3078 
Q 1150 3584 1784 3584 
Q 2172 3584 2448 3432 
Q 2725 3281 2906 2969 
z
M 947 1747 
Q 947 1113 1208 752 
Q 1469 391 1925 391 
Q 2381 391 2643 752 
Q 2906 1113 2906 1747 
Q 2906 2381 2643 2742 
Q 2381 3103 1925 3103 
Q 1469 3103 1208 2742 
Q 947 2381 947 1747 
z
" transform="scale(0.015625)"/>
       <path id="DejaVuSans-20" transform="scale(0.015625)"/>
       <path id="DejaVuSans-45" d="M 628 4666 
L 3578 4666 
L 3578 4134 
L 1259 4134 
L 1259 2753 
L 3481 2753 
L 3481 2222 
L 1259 2222 
L 1259 531 
L 3634 531 
L 3634 0 
L 628 0 
L 628 4666 
z
" transform="scale(0.015625)"/>
       <path id="DejaVuSans-6e" d="M 3513 2113 
L 3513 0 
L 2938 0 
L 2938 2094 
Q 2938 2591 2744 2837 
Q 2550 3084 2163 3084 
Q 1697 3084 1428 2787 
Q 1159 2491 1159 1978 
L 1159 0 
L 581 0 
L 581 3500 
L 1159 3500 
L 1159 2956 
Q 1366 3272 1645 3428 
Q 1925 3584 2291 3584 
Q 2894 3584 3203 3211 
Q 3513 2838 3513 2113 
z
" transform="scale(0.015625)"/>
       <path id="DejaVuSans-72" d="M 2631 2963 
Q 2534 3019 2420 3045 
Q 2306 3072 2169 3072 
Q 1681 3072 1420 2755 
Q 1159 2438 1159 1844 
L 1159 0 
L 581 0 
L 581 3500 
L 1159 3500 
L 1159 2956 
Q 1341 3275 1631 3429 
Q 1922 3584 2338 3584 
Q 2397 3584 2469 3576 
Q 2541 3569 2628 3553 
L 2631 2963 
z
" transform="scale(0.015625)"/>
       <path id="DejaVuSans-69" d="M 603 3500 
L 1178 3500 
L 1178 0 
L 603 0 
L 603 3500 
z
M 603 4863 
L 1178 4863 
L 1178 4134 
L 603 4134 
L 603 4863 
z
" transform="scale(0.015625)"/>
       <path id="DejaVuSans-63" d="M 3122 3366 
L 3122 2828 
Q 2878 2963 2633 3030 
Q 2388 3097 2138 3097 
Q 1578 3097 1268 2742 
Q 959 2388 959 1747 
Q 959 1106 1268 751 
Q 1578 397 2138 397 
Q 2388 397 2633 464 
Q 2878 531 3122 666 
L 3122 134 
Q 2881 22 2623 -34 
Q 2366 -91 2075 -91 
Q 1284 -91 818 406 
Q 353 903 353 1747 
Q 353 2603 823 3093 
Q 1294 3584 2113 3584 
Q 2378 3584 2631 3529 
Q 2884 3475 3122 3366 
z
" transform="scale(0.015625)"/>
       <path id="DejaVuSans-68" d="M 3513 2113 
L 3513 0 
L 2938 0 
L 2938 2094 
Q 2938 2591 2744 2837 
Q 2550 3084 2163 3084 
Q 1697 3084 1428 2787 
Q 1159 2491 1159 1978 
L 1159 0 
L 581 0 
L 581 4863 
L 1159 4863 
L 1159 2956 
Q 1366 3272 1645 3428 
Q 1925 3584 2291 3584 
Q 2894 3584 3203 3211 
Q 3513 2838 3513 2113 
z
" transform="scale(0.015625)"/>
       <path id="DejaVuSans-6d" d="M 3328 2828 
Q 3544 3216 3844 3400 
Q 4144 3584 4550 3584 
Q 5097 3584 5394 3201 
Q 5691 2819 5691 2113 
L 5691 0 
L 5113 0 
L 5113 2094 
Q 5113 2597 4934 2840 
Q 4756 3084 4391 3084 
Q 3944 3084 3684 2787 
Q 3425 2491 3425 1978 
L 3425 0 
L 2847 0 
L 2847 2094 
Q 2847 2600 2669 2842 
Q 2491 3084 2119 3084 
Q 1678 3084 1418 2786 
Q 1159 2488 1159 1978 
L 1159 0 
L 581 0 
L 581 3500 
L 1159 3500 
L 1159 2956 
Q 1356 3278 1631 3431 
Q 1906 3584 2284 3584 
Q 2666 3584 2933 3390 
Q 3200 3197 3328 2828 
z
" transform="scale(0.015625)"/>
       <path id="DejaVuSans-65" d="M 3597 1894 
L 3597 1613 
L 953 1613 
Q 991 1019 1311 708 
Q 1631 397 2203 397 
Q 2534 397 2845 478 
Q 3156 559 3463 722 
L 3463 178 
Q 3153 47 2828 -22 
Q 2503 -91 2169 -91 
Q 1331 -91 842 396 
Q 353 884 353 1716 
Q 353 2575 817 3079 
Q 1281 3584 2069 3584 
Q 2775 3584 3186 3129 
Q 3597 2675 3597 1894 
z
M 3022 2063 
Q 3016 2534 2758 2815 
Q 2500 3097 2075 3097 
Q 1594 3097 1305 2825 
Q 1016 2553 972 2059 
L 3022 2063 
z
" transform="scale(0.015625)"/>
       <path id="DejaVuSans-74" d="M 1172 4494 
L 1172 3500 
L 2356 3500 
L 2356 3053 
L 1172 3053 
L 1172 1153 
Q 1172 725 1289 603 
Q 1406 481 1766 481 
L 2356 481 
L 2356 0 
L 1766 0 
Q 1100 0 847 248 
Q 594 497 594 1153 
L 594 3053 
L 172 3053 
L 172 3500 
L 594 3500 
L 594 4494 
L 1172 4494 
z
" transform="scale(0.015625)"/>
      </defs>
      <use xlink:href="#DejaVuSans-46"/>
      <use xlink:href="#DejaVuSans-6f" transform="translate(53.894531 0)"/>
      <use xlink:href="#DejaVuSans-6c" transform="translate(115.076172 0)"/>
      <use xlink:href="#DejaVuSans-64" transform="translate(142.859375 0)"/>
      <use xlink:href="#DejaVuSans-20" transform="translate(206.335938 0)"/>
      <use xlink:href="#DejaVuSans-45" transform="translate(238.123047 0)"/>
      <use xlink:href="#DejaVuSans-6e" transform="translate(301.306641 0)"/>
      <use xlink:href="#DejaVuSans-72" transform="translate(364.685547 0)"/>
      <use xlink:href="#DejaVuSans-69" transform="translate(405.798828 0)"/>
      <use xlink:href="#DejaVuSans-63" transform="translate(433.582031 0)"/>
      <use xlink:href="#DejaVuSans-68" transform="translate(488.5625 0)"/>
      <use xlink:href="#DejaVuSans-6d" transform="translate(551.941406 0)"/>
      <use xlink:href="#DejaVuSans-65" transform="translate(649.353516 0)"/>
      <use xlink:href="#DejaVuSans-6e" transform="translate(710.876953 0)"/>
      <use xlink:href="#DejaVuSans-74" transform="translate(774.255859 0)"/>
     </g>
    </g>
   </g>
   <g id="matplotlib.axis_2">
    <g id="ytick_1">
     <g id="line2d_9">
      <defs>
       <path id="m87bb3bc8f7" d="M 0 0 
L -3.5 0 
" style="stroke: #000000; stroke-width: 0.8"/>
      </defs>
      <g>
       <use xlink:href="#m87bb3bc8f7" x="217.189063" y="34.414125" style="stroke: #000000; stroke-width: 0.8"/>
      </g>
     </g>
     <g id="text_10">
      <!-- Central retinal vessel vascular tortuosity -->
      <g transform="translate(7.2 38.213344) scale(0.1 -0.1)">
       <defs>
        <path id="DejaVuSans-43" d="M 4122 4306 
L 4122 3641 
Q 3803 3938 3442 4084 
Q 3081 4231 2675 4231 
Q 1875 4231 1450 3742 
Q 1025 3253 1025 2328 
Q 1025 1406 1450 917 
Q 1875 428 2675 428 
Q 3081 428 3442 575 
Q 3803 722 4122 1019 
L 4122 359 
Q 3791 134 3420 21 
Q 3050 -91 2638 -91 
Q 1578 -91 968 557 
Q 359 1206 359 2328 
Q 359 3453 968 4101 
Q 1578 4750 2638 4750 
Q 3056 4750 3426 4639 
Q 3797 4528 4122 4306 
z
" transform="scale(0.015625)"/>
        <path id="DejaVuSans-61" d="M 2194 1759 
Q 1497 1759 1228 1600 
Q 959 1441 959 1056 
Q 959 750 1161 570 
Q 1363 391 1709 391 
Q 2188 391 2477 730 
Q 2766 1069 2766 1631 
L 2766 1759 
L 2194 1759 
z
M 3341 1997 
L 3341 0 
L 2766 0 
L 2766 531 
Q 2569 213 2275 61 
Q 1981 -91 1556 -91 
Q 1019 -91 701 211 
Q 384 513 384 1019 
Q 384 1609 779 1909 
Q 1175 2209 1959 2209 
L 2766 2209 
L 2766 2266 
Q 2766 2663 2505 2880 
Q 2244 3097 1772 3097 
Q 1472 3097 1187 3025 
Q 903 2953 641 2809 
L 641 3341 
Q 956 3463 1253 3523 
Q 1550 3584 1831 3584 
Q 2591 3584 2966 3190 
Q 3341 2797 3341 1997 
z
" transform="scale(0.015625)"/>
        <path id="DejaVuSans-76" d="M 191 3500 
L 800 3500 
L 1894 563 
L 2988 3500 
L 3597 3500 
L 2284 0 
L 1503 0 
L 191 3500 
z
" transform="scale(0.015625)"/>
        <path id="DejaVuSans-73" d="M 2834 3397 
L 2834 2853 
Q 2591 2978 2328 3040 
Q 2066 3103 1784 3103 
Q 1356 3103 1142 2972 
Q 928 2841 928 2578 
Q 928 2378 1081 2264 
Q 1234 2150 1697 2047 
L 1894 2003 
Q 2506 1872 2764 1633 
Q 3022 1394 3022 966 
Q 3022 478 2636 193 
Q 2250 -91 1575 -91 
Q 1294 -91 989 -36 
Q 684 19 347 128 
L 347 722 
Q 666 556 975 473 
Q 1284 391 1588 391 
Q 1994 391 2212 530 
Q 2431 669 2431 922 
Q 2431 1156 2273 1281 
Q 2116 1406 1581 1522 
L 1381 1569 
Q 847 1681 609 1914 
Q 372 2147 372 2553 
Q 372 3047 722 3315 
Q 1072 3584 1716 3584 
Q 2034 3584 2315 3537 
Q 2597 3491 2834 3397 
z
" transform="scale(0.015625)"/>
        <path id="DejaVuSans-75" d="M 544 1381 
L 544 3500 
L 1119 3500 
L 1119 1403 
Q 1119 906 1312 657 
Q 1506 409 1894 409 
Q 2359 409 2629 706 
Q 2900 1003 2900 1516 
L 2900 3500 
L 3475 3500 
L 3475 0 
L 2900 0 
L 2900 538 
Q 2691 219 2414 64 
Q 2138 -91 1772 -91 
Q 1169 -91 856 284 
Q 544 659 544 1381 
z
M 1991 3584 
L 1991 3584 
z
" transform="scale(0.015625)"/>
        <path id="DejaVuSans-79" d="M 2059 -325 
Q 1816 -950 1584 -1140 
Q 1353 -1331 966 -1331 
L 506 -1331 
L 506 -850 
L 844 -850 
Q 1081 -850 1212 -737 
Q 1344 -625 1503 -206 
L 1606 56 
L 191 3500 
L 800 3500 
L 1894 763 
L 2988 3500 
L 3597 3500 
L 2059 -325 
z
" transform="scale(0.015625)"/>
       </defs>
       <use xlink:href="#DejaVuSans-43"/>
       <use xlink:href="#DejaVuSans-65" transform="translate(69.824219 0)"/>
       <use xlink:href="#DejaVuSans-6e" transform="translate(131.347656 0)"/>
       <use xlink:href="#DejaVuSans-74" transform="translate(194.726562 0)"/>
       <use xlink:href="#DejaVuSans-72" transform="translate(233.935547 0)"/>
       <use xlink:href="#DejaVuSans-61" transform="translate(275.048828 0)"/>
       <use xlink:href="#DejaVuSans-6c" transform="translate(336.328125 0)"/>
       <use xlink:href="#DejaVuSans-20" transform="translate(364.111328 0)"/>
       <use xlink:href="#DejaVuSans-72" transform="translate(395.898438 0)"/>
       <use xlink:href="#DejaVuSans-65" transform="translate(434.761719 0)"/>
       <use xlink:href="#DejaVuSans-74" transform="translate(496.285156 0)"/>
       <use xlink:href="#DejaVuSans-69" transform="translate(535.494141 0)"/>
       <use xlink:href="#DejaVuSans-6e" transform="translate(563.277344 0)"/>
       <use xlink:href="#DejaVuSans-61" transform="translate(626.65625 0)"/>
       <use xlink:href="#DejaVuSans-6c" transform="translate(687.935547 0)"/>
       <use xlink:href="#DejaVuSans-20" transform="translate(715.71875 0)"/>
       <use xlink:href="#DejaVuSans-76" transform="translate(747.505859 0)"/>
       <use xlink:href="#DejaVuSans-65" transform="translate(806.685547 0)"/>
       <use xlink:href="#DejaVuSans-73" transform="translate(868.208984 0)"/>
       <use xlink:href="#DejaVuSans-73" transform="translate(920.308594 0)"/>
       <use xlink:href="#DejaVuSans-65" transform="translate(972.408203 0)"/>
       <use xlink:href="#DejaVuSans-6c" transform="translate(1033.931641 0)"/>
       <use xlink:href="#DejaVuSans-20" transform="translate(1061.714844 0)"/>
       <use xlink:href="#DejaVuSans-76" transform="translate(1093.501953 0)"/>
       <use xlink:href="#DejaVuSans-61" transform="translate(1152.681641 0)"/>
       <use xlink:href="#DejaVuSans-73" transform="translate(1213.960938 0)"/>
       <use xlink:href="#DejaVuSans-63" transform="translate(1266.060547 0)"/>
       <use xlink:href="#DejaVuSans-75" transform="translate(1321.041016 0)"/>
       <use xlink:href="#DejaVuSans-6c" transform="translate(1384.419922 0)"/>
       <use xlink:href="#DejaVuSans-61" transform="translate(1412.203125 0)"/>
       <use xlink:href="#DejaVuSans-72" transform="translate(1473.482422 0)"/>
       <use xlink:href="#DejaVuSans-20" transform="translate(1514.595703 0)"/>
       <use xlink:href="#DejaVuSans-74" transform="translate(1546.382812 0)"/>
       <use xlink:href="#DejaVuSans-6f" transform="translate(1585.591797 0)"/>
       <use xlink:href="#DejaVuSans-72" transform="translate(1646.773438 0)"/>
       <use xlink:href="#DejaVuSans-74" transform="translate(1687.886719 0)"/>
       <use xlink:href="#DejaVuSans-75" transform="translate(1727.095703 0)"/>
       <use xlink:href="#DejaVuSans-6f" transform="translate(1790.474609 0)"/>
       <use xlink:href="#DejaVuSans-73" transform="translate(1851.65625 0)"/>
       <use xlink:href="#DejaVuSans-69" transform="translate(1903.755859 0)"/>
       <use xlink:href="#DejaVuSans-74" transform="translate(1931.539062 0)"/>
       <use xlink:href="#DejaVuSans-79" transform="translate(1970.748047 0)"/>
      </g>
     </g>
    </g>
    <g id="ytick_2">
     <g id="line2d_10">
      <g>
       <use xlink:href="#m87bb3bc8f7" x="217.189063" y="47.146757" style="stroke: #000000; stroke-width: 0.8"/>
      </g>
     </g>
     <g id="text_11">
      <!-- Tics -->
      <g transform="translate(190.907813 50.945975) scale(0.1 -0.1)">
       <defs>
        <path id="DejaVuSans-54" d="M -19 4666 
L 3928 4666 
L 3928 4134 
L 2272 4134 
L 2272 0 
L 1638 0 
L 1638 4134 
L -19 4134 
L -19 4666 
z
" transform="scale(0.015625)"/>
       </defs>
       <use xlink:href="#DejaVuSans-54"/>
       <use xlink:href="#DejaVuSans-69" transform="translate(57.958984 0)"/>
       <use xlink:href="#DejaVuSans-63" transform="translate(85.742188 0)"/>
       <use xlink:href="#DejaVuSans-73" transform="translate(140.722656 0)"/>
      </g>
     </g>
    </g>
    <g id="ytick_3">
     <g id="line2d_11">
      <g>
       <use xlink:href="#m87bb3bc8f7" x="217.189063" y="59.879388" style="stroke: #000000; stroke-width: 0.8"/>
      </g>
     </g>
     <g id="text_12">
      <!-- Mitochondrial respiratory chain defects -->
      <g transform="translate(14.207812 63.678607) scale(0.1 -0.1)">
       <defs>
        <path id="DejaVuSans-4d" d="M 628 4666 
L 1569 4666 
L 2759 1491 
L 3956 4666 
L 4897 4666 
L 4897 0 
L 4281 0 
L 4281 4097 
L 3078 897 
L 2444 897 
L 1241 4097 
L 1241 0 
L 628 0 
L 628 4666 
z
" transform="scale(0.015625)"/>
        <path id="DejaVuSans-70" d="M 1159 525 
L 1159 -1331 
L 581 -1331 
L 581 3500 
L 1159 3500 
L 1159 2969 
Q 1341 3281 1617 3432 
Q 1894 3584 2278 3584 
Q 2916 3584 3314 3078 
Q 3713 2572 3713 1747 
Q 3713 922 3314 415 
Q 2916 -91 2278 -91 
Q 1894 -91 1617 61 
Q 1341 213 1159 525 
z
M 3116 1747 
Q 3116 2381 2855 2742 
Q 2594 3103 2138 3103 
Q 1681 3103 1420 2742 
Q 1159 2381 1159 1747 
Q 1159 1113 1420 752 
Q 1681 391 2138 391 
Q 2594 391 2855 752 
Q 3116 1113 3116 1747 
z
" transform="scale(0.015625)"/>
        <path id="DejaVuSans-66" d="M 2375 4863 
L 2375 4384 
L 1825 4384 
Q 1516 4384 1395 4259 
Q 1275 4134 1275 3809 
L 1275 3500 
L 2222 3500 
L 2222 3053 
L 1275 3053 
L 1275 0 
L 697 0 
L 697 3053 
L 147 3053 
L 147 3500 
L 697 3500 
L 697 3744 
Q 697 4328 969 4595 
Q 1241 4863 1831 4863 
L 2375 4863 
z
" transform="scale(0.015625)"/>
       </defs>
       <use xlink:href="#DejaVuSans-4d"/>
       <use xlink:href="#DejaVuSans-69" transform="translate(86.279297 0)"/>
       <use xlink:href="#DejaVuSans-74" transform="translate(114.0625 0)"/>
       <use xlink:href="#DejaVuSans-6f" transform="translate(153.271484 0)"/>
       <use xlink:href="#DejaVuSans-63" transform="translate(214.453125 0)"/>
       <use xlink:href="#DejaVuSans-68" transform="translate(269.433594 0)"/>
       <use xlink:href="#DejaVuSans-6f" transform="translate(332.8125 0)"/>
       <use xlink:href="#DejaVuSans-6e" transform="translate(393.994141 0)"/>
       <use xlink:href="#DejaVuSans-64" transform="translate(457.373047 0)"/>
       <use xlink:href="#DejaVuSans-72" transform="translate(520.849609 0)"/>
       <use xlink:href="#DejaVuSans-69" transform="translate(561.962891 0)"/>
       <use xlink:href="#DejaVuSans-61" transform="translate(589.746094 0)"/>
       <use xlink:href="#DejaVuSans-6c" transform="translate(651.025391 0)"/>
       <use xlink:href="#DejaVuSans-20" transform="translate(678.808594 0)"/>
       <use xlink:href="#DejaVuSans-72" transform="translate(710.595703 0)"/>
       <use xlink:href="#DejaVuSans-65" transform="translate(749.458984 0)"/>
       <use xlink:href="#DejaVuSans-73" transform="translate(810.982422 0)"/>
       <use xlink:href="#DejaVuSans-70" transform="translate(863.082031 0)"/>
       <use xlink:href="#DejaVuSans-69" transform="translate(926.558594 0)"/>
       <use xlink:href="#DejaVuSans-72" transform="translate(954.341797 0)"/>
       <use xlink:href="#DejaVuSans-61" transform="translate(995.455078 0)"/>
       <use xlink:href="#DejaVuSans-74" transform="translate(1056.734375 0)"/>
       <use xlink:href="#DejaVuSans-6f" transform="translate(1095.943359 0)"/>
       <use xlink:href="#DejaVuSans-72" transform="translate(1157.125 0)"/>
       <use xlink:href="#DejaVuSans-79" transform="translate(1198.238281 0)"/>
       <use xlink:href="#DejaVuSans-20" transform="translate(1257.417969 0)"/>
       <use xlink:href="#DejaVuSans-63" transform="translate(1289.205078 0)"/>
       <use xlink:href="#DejaVuSans-68" transform="translate(1344.185547 0)"/>
       <use xlink:href="#DejaVuSans-61" transform="translate(1407.564453 0)"/>
       <use xlink:href="#DejaVuSans-69" transform="translate(1468.84375 0)"/>
       <use xlink:href="#DejaVuSans-6e" transform="translate(1496.626953 0)"/>
       <use xlink:href="#DejaVuSans-20" transform="translate(1560.005859 0)"/>
       <use xlink:href="#DejaVuSans-64" transform="translate(1591.792969 0)"/>
       <use xlink:href="#DejaVuSans-65" transform="translate(1655.269531 0)"/>
       <use xlink:href="#DejaVuSans-66" transform="translate(1716.792969 0)"/>
       <use xlink:href="#DejaVuSans-65" transform="translate(1751.998047 0)"/>
       <use xlink:href="#DejaVuSans-63" transform="translate(1813.521484 0)"/>
       <use xlink:href="#DejaVuSans-74" transform="translate(1868.501953 0)"/>
       <use xlink:href="#DejaVuSans-73" transform="translate(1907.710938 0)"/>
      </g>
     </g>
    </g>
    <g id="ytick_4">
     <g id="line2d_12">
      <g>
       <use xlink:href="#m87bb3bc8f7" x="217.189063" y="72.61202" style="stroke: #000000; stroke-width: 0.8"/>
      </g>
     </g>
     <g id="text_13">
      <!-- Happy demeanor -->
      <g transform="translate(123.65625 76.411238) scale(0.1 -0.1)">
       <defs>
        <path id="DejaVuSans-48" d="M 628 4666 
L 1259 4666 
L 1259 2753 
L 3553 2753 
L 3553 4666 
L 4184 4666 
L 4184 0 
L 3553 0 
L 3553 2222 
L 1259 2222 
L 1259 0 
L 628 0 
L 628 4666 
z
" transform="scale(0.015625)"/>
       </defs>
       <use xlink:href="#DejaVuSans-48"/>
       <use xlink:href="#DejaVuSans-61" transform="translate(75.195312 0)"/>
       <use xlink:href="#DejaVuSans-70" transform="translate(136.474609 0)"/>
       <use xlink:href="#DejaVuSans-70" transform="translate(199.951172 0)"/>
       <use xlink:href="#DejaVuSans-79" transform="translate(263.427734 0)"/>
       <use xlink:href="#DejaVuSans-20" transform="translate(322.607422 0)"/>
       <use xlink:href="#DejaVuSans-64" transform="translate(354.394531 0)"/>
       <use xlink:href="#DejaVuSans-65" transform="translate(417.871094 0)"/>
       <use xlink:href="#DejaVuSans-6d" transform="translate(479.394531 0)"/>
       <use xlink:href="#DejaVuSans-65" transform="translate(576.806641 0)"/>
       <use xlink:href="#DejaVuSans-61" transform="translate(638.330078 0)"/>
       <use xlink:href="#DejaVuSans-6e" transform="translate(699.609375 0)"/>
       <use xlink:href="#DejaVuSans-6f" transform="translate(762.988281 0)"/>
       <use xlink:href="#DejaVuSans-72" transform="translate(824.169922 0)"/>
      </g>
     </g>
    </g>
    <g id="ytick_5">
     <g id="line2d_13">
      <g>
       <use xlink:href="#m87bb3bc8f7" x="217.189063" y="85.344651" style="stroke: #000000; stroke-width: 0.8"/>
      </g>
     </g>
     <g id="text_14">
      <!-- Hyperventilation -->
      <g transform="translate(126.96875 89.14387) scale(0.1 -0.1)">
       <use xlink:href="#DejaVuSans-48"/>
       <use xlink:href="#DejaVuSans-79" transform="translate(75.195312 0)"/>
       <use xlink:href="#DejaVuSans-70" transform="translate(134.375 0)"/>
       <use xlink:href="#DejaVuSans-65" transform="translate(197.851562 0)"/>
       <use xlink:href="#DejaVuSans-72" transform="translate(259.375 0)"/>
       <use xlink:href="#DejaVuSans-76" transform="translate(300.488281 0)"/>
       <use xlink:href="#DejaVuSans-65" transform="translate(359.667969 0)"/>
       <use xlink:href="#DejaVuSans-6e" transform="translate(421.191406 0)"/>
       <use xlink:href="#DejaVuSans-74" transform="translate(484.570312 0)"/>
       <use xlink:href="#DejaVuSans-69" transform="translate(523.779297 0)"/>
       <use xlink:href="#DejaVuSans-6c" transform="translate(551.5625 0)"/>
       <use xlink:href="#DejaVuSans-61" transform="translate(579.345703 0)"/>
       <use xlink:href="#DejaVuSans-74" transform="translate(640.625 0)"/>
       <use xlink:href="#DejaVuSans-69" transform="translate(679.833984 0)"/>
       <use xlink:href="#DejaVuSans-6f" transform="translate(707.617188 0)"/>
       <use xlink:href="#DejaVuSans-6e" transform="translate(768.798828 0)"/>
      </g>
     </g>
    </g>
    <g id="ytick_6">
     <g id="line2d_14">
      <g>
       <use xlink:href="#m87bb3bc8f7" x="217.189063" y="98.077283" style="stroke: #000000; stroke-width: 0.8"/>
      </g>
     </g>
     <g id="text_15">
      <!-- Interictal epileptiform activity -->
      <g transform="translate(61.823438 101.876502) scale(0.1 -0.1)">
       <defs>
        <path id="DejaVuSans-49" d="M 628 4666 
L 1259 4666 
L 1259 0 
L 628 0 
L 628 4666 
z
" transform="scale(0.015625)"/>
       </defs>
       <use xlink:href="#DejaVuSans-49"/>
       <use xlink:href="#DejaVuSans-6e" transform="translate(29.492188 0)"/>
       <use xlink:href="#DejaVuSans-74" transform="translate(92.871094 0)"/>
       <use xlink:href="#DejaVuSans-65" transform="translate(132.080078 0)"/>
       <use xlink:href="#DejaVuSans-72" transform="translate(193.603516 0)"/>
       <use xlink:href="#DejaVuSans-69" transform="translate(234.716797 0)"/>
       <use xlink:href="#DejaVuSans-63" transform="translate(262.5 0)"/>
       <use xlink:href="#DejaVuSans-74" transform="translate(317.480469 0)"/>
       <use xlink:href="#DejaVuSans-61" transform="translate(356.689453 0)"/>
       <use xlink:href="#DejaVuSans-6c" transform="translate(417.96875 0)"/>
       <use xlink:href="#DejaVuSans-20" transform="translate(445.751953 0)"/>
       <use xlink:href="#DejaVuSans-65" transform="translate(477.539062 0)"/>
       <use xlink:href="#DejaVuSans-70" transform="translate(539.0625 0)"/>
       <use xlink:href="#DejaVuSans-69" transform="translate(602.539062 0)"/>
       <use xlink:href="#DejaVuSans-6c" transform="translate(630.322266 0)"/>
       <use xlink:href="#DejaVuSans-65" transform="translate(658.105469 0)"/>
       <use xlink:href="#DejaVuSans-70" transform="translate(719.628906 0)"/>
       <use xlink:href="#DejaVuSans-74" transform="translate(783.105469 0)"/>
       <use xlink:href="#DejaVuSans-69" transform="translate(822.314453 0)"/>
       <use xlink:href="#DejaVuSans-66" transform="translate(850.097656 0)"/>
       <use xlink:href="#DejaVuSans-6f" transform="translate(885.302734 0)"/>
       <use xlink:href="#DejaVuSans-72" transform="translate(946.484375 0)"/>
       <use xlink:href="#DejaVuSans-6d" transform="translate(985.847656 0)"/>
       <use xlink:href="#DejaVuSans-20" transform="translate(1083.259766 0)"/>
       <use xlink:href="#DejaVuSans-61" transform="translate(1115.046875 0)"/>
       <use xlink:href="#DejaVuSans-63" transform="translate(1176.326172 0)"/>
       <use xlink:href="#DejaVuSans-74" transform="translate(1231.306641 0)"/>
       <use xlink:href="#DejaVuSans-69" transform="translate(1270.515625 0)"/>
       <use xlink:href="#DejaVuSans-76" transform="translate(1298.298828 0)"/>
       <use xlink:href="#DejaVuSans-69" transform="translate(1357.478516 0)"/>
       <use xlink:href="#DejaVuSans-74" transform="translate(1385.261719 0)"/>
       <use xlink:href="#DejaVuSans-79" transform="translate(1424.470703 0)"/>
      </g>
     </g>
    </g>
    <g id="ytick_7">
     <g id="line2d_15">
      <g>
       <use xlink:href="#m87bb3bc8f7" x="217.189063" y="110.809914" style="stroke: #000000; stroke-width: 0.8"/>
      </g>
     </g>
     <g id="text_16">
      <!-- Atypical absence seizure -->
      <g transform="translate(86.203125 114.609133) scale(0.1 -0.1)">
       <defs>
        <path id="DejaVuSans-41" d="M 2188 4044 
L 1331 1722 
L 3047 1722 
L 2188 4044 
z
M 1831 4666 
L 2547 4666 
L 4325 0 
L 3669 0 
L 3244 1197 
L 1141 1197 
L 716 0 
L 50 0 
L 1831 4666 
z
" transform="scale(0.015625)"/>
        <path id="DejaVuSans-62" d="M 3116 1747 
Q 3116 2381 2855 2742 
Q 2594 3103 2138 3103 
Q 1681 3103 1420 2742 
Q 1159 2381 1159 1747 
Q 1159 1113 1420 752 
Q 1681 391 2138 391 
Q 2594 391 2855 752 
Q 3116 1113 3116 1747 
z
M 1159 2969 
Q 1341 3281 1617 3432 
Q 1894 3584 2278 3584 
Q 2916 3584 3314 3078 
Q 3713 2572 3713 1747 
Q 3713 922 3314 415 
Q 2916 -91 2278 -91 
Q 1894 -91 1617 61 
Q 1341 213 1159 525 
L 1159 0 
L 581 0 
L 581 4863 
L 1159 4863 
L 1159 2969 
z
" transform="scale(0.015625)"/>
        <path id="DejaVuSans-7a" d="M 353 3500 
L 3084 3500 
L 3084 2975 
L 922 459 
L 3084 459 
L 3084 0 
L 275 0 
L 275 525 
L 2438 3041 
L 353 3041 
L 353 3500 
z
" transform="scale(0.015625)"/>
       </defs>
       <use xlink:href="#DejaVuSans-41"/>
       <use xlink:href="#DejaVuSans-74" transform="translate(66.658203 0)"/>
       <use xlink:href="#DejaVuSans-79" transform="translate(105.867188 0)"/>
       <use xlink:href="#DejaVuSans-70" transform="translate(165.046875 0)"/>
       <use xlink:href="#DejaVuSans-69" transform="translate(228.523438 0)"/>
       <use xlink:href="#DejaVuSans-63" transform="translate(256.306641 0)"/>
       <use xlink:href="#DejaVuSans-61" transform="translate(311.287109 0)"/>
       <use xlink:href="#DejaVuSans-6c" transform="translate(372.566406 0)"/>
       <use xlink:href="#DejaVuSans-20" transform="translate(400.349609 0)"/>
       <use xlink:href="#DejaVuSans-61" transform="translate(432.136719 0)"/>
       <use xlink:href="#DejaVuSans-62" transform="translate(493.416016 0)"/>
       <use xlink:href="#DejaVuSans-73" transform="translate(556.892578 0)"/>
       <use xlink:href="#DejaVuSans-65" transform="translate(608.992188 0)"/>
       <use xlink:href="#DejaVuSans-6e" transform="translate(670.515625 0)"/>
       <use xlink:href="#DejaVuSans-63" transform="translate(733.894531 0)"/>
       <use xlink:href="#DejaVuSans-65" transform="translate(788.875 0)"/>
       <use xlink:href="#DejaVuSans-20" transform="translate(850.398438 0)"/>
       <use xlink:href="#DejaVuSans-73" transform="translate(882.185547 0)"/>
       <use xlink:href="#DejaVuSans-65" transform="translate(934.285156 0)"/>
       <use xlink:href="#DejaVuSans-69" transform="translate(995.808594 0)"/>
       <use xlink:href="#DejaVuSans-7a" transform="translate(1023.591797 0)"/>
       <use xlink:href="#DejaVuSans-75" transform="translate(1076.082031 0)"/>
       <use xlink:href="#DejaVuSans-72" transform="translate(1139.460938 0)"/>
       <use xlink:href="#DejaVuSans-65" transform="translate(1178.324219 0)"/>
      </g>
     </g>
    </g>
    <g id="ytick_8">
     <g id="line2d_16">
      <g>
       <use xlink:href="#m87bb3bc8f7" x="217.189063" y="123.542546" style="stroke: #000000; stroke-width: 0.8"/>
      </g>
     </g>
     <g id="text_17">
      <!-- Frontal upsweep of hair -->
      <g transform="translate(92.7375 127.341765) scale(0.1 -0.1)">
       <defs>
        <path id="DejaVuSans-77" d="M 269 3500 
L 844 3500 
L 1563 769 
L 2278 3500 
L 2956 3500 
L 3675 769 
L 4391 3500 
L 4966 3500 
L 4050 0 
L 3372 0 
L 2619 2869 
L 1863 0 
L 1184 0 
L 269 3500 
z
" transform="scale(0.015625)"/>
       </defs>
       <use xlink:href="#DejaVuSans-46"/>
       <use xlink:href="#DejaVuSans-72" transform="translate(50.269531 0)"/>
       <use xlink:href="#DejaVuSans-6f" transform="translate(89.132812 0)"/>
       <use xlink:href="#DejaVuSans-6e" transform="translate(150.314453 0)"/>
       <use xlink:href="#DejaVuSans-74" transform="translate(213.693359 0)"/>
       <use xlink:href="#DejaVuSans-61" transform="translate(252.902344 0)"/>
       <use xlink:href="#DejaVuSans-6c" transform="translate(314.181641 0)"/>
       <use xlink:href="#DejaVuSans-20" transform="translate(341.964844 0)"/>
       <use xlink:href="#DejaVuSans-75" transform="translate(373.751953 0)"/>
       <use xlink:href="#DejaVuSans-70" transform="translate(437.130859 0)"/>
       <use xlink:href="#DejaVuSans-73" transform="translate(500.607422 0)"/>
       <use xlink:href="#DejaVuSans-77" transform="translate(552.707031 0)"/>
       <use xlink:href="#DejaVuSans-65" transform="translate(634.494141 0)"/>
       <use xlink:href="#DejaVuSans-65" transform="translate(696.017578 0)"/>
       <use xlink:href="#DejaVuSans-70" transform="translate(757.541016 0)"/>
       <use xlink:href="#DejaVuSans-20" transform="translate(821.017578 0)"/>
       <use xlink:href="#DejaVuSans-6f" transform="translate(852.804688 0)"/>
       <use xlink:href="#DejaVuSans-66" transform="translate(913.986328 0)"/>
       <use xlink:href="#DejaVuSans-20" transform="translate(949.191406 0)"/>
       <use xlink:href="#DejaVuSans-68" transform="translate(980.978516 0)"/>
       <use xlink:href="#DejaVuSans-61" transform="translate(1044.357422 0)"/>
       <use xlink:href="#DejaVuSans-69" transform="translate(1105.636719 0)"/>
       <use xlink:href="#DejaVuSans-72" transform="translate(1133.419922 0)"/>
      </g>
     </g>
    </g>
    <g id="ytick_9">
     <g id="line2d_17">
      <g>
       <use xlink:href="#m87bb3bc8f7" x="217.189063" y="136.275178" style="stroke: #000000; stroke-width: 0.8"/>
      </g>
     </g>
     <g id="text_18">
      <!-- Clonic seizure -->
      <g transform="translate(140.751563 140.074396) scale(0.1 -0.1)">
       <use xlink:href="#DejaVuSans-43"/>
       <use xlink:href="#DejaVuSans-6c" transform="translate(69.824219 0)"/>
       <use xlink:href="#DejaVuSans-6f" transform="translate(97.607422 0)"/>
       <use xlink:href="#DejaVuSans-6e" transform="translate(158.789062 0)"/>
       <use xlink:href="#DejaVuSans-69" transform="translate(222.167969 0)"/>
       <use xlink:href="#DejaVuSans-63" transform="translate(249.951172 0)"/>
       <use xlink:href="#DejaVuSans-20" transform="translate(304.931641 0)"/>
       <use xlink:href="#DejaVuSans-73" transform="translate(336.71875 0)"/>
       <use xlink:href="#DejaVuSans-65" transform="translate(388.818359 0)"/>
       <use xlink:href="#DejaVuSans-69" transform="translate(450.341797 0)"/>
       <use xlink:href="#DejaVuSans-7a" transform="translate(478.125 0)"/>
       <use xlink:href="#DejaVuSans-75" transform="translate(530.615234 0)"/>
       <use xlink:href="#DejaVuSans-72" transform="translate(593.994141 0)"/>
       <use xlink:href="#DejaVuSans-65" transform="translate(632.857422 0)"/>
      </g>
     </g>
    </g>
    <g id="ytick_10">
     <g id="line2d_18">
      <g>
       <use xlink:href="#m87bb3bc8f7" x="217.189063" y="149.007809" style="stroke: #000000; stroke-width: 0.8"/>
      </g>
     </g>
     <g id="text_19">
      <!-- Tonic seizure -->
      <g transform="translate(146.104688 152.807028) scale(0.1 -0.1)">
       <use xlink:href="#DejaVuSans-54"/>
       <use xlink:href="#DejaVuSans-6f" transform="translate(44.083984 0)"/>
       <use xlink:href="#DejaVuSans-6e" transform="translate(105.265625 0)"/>
       <use xlink:href="#DejaVuSans-69" transform="translate(168.644531 0)"/>
       <use xlink:href="#DejaVuSans-63" transform="translate(196.427734 0)"/>
       <use xlink:href="#DejaVuSans-20" transform="translate(251.408203 0)"/>
       <use xlink:href="#DejaVuSans-73" transform="translate(283.195312 0)"/>
       <use xlink:href="#DejaVuSans-65" transform="translate(335.294922 0)"/>
       <use xlink:href="#DejaVuSans-69" transform="translate(396.818359 0)"/>
       <use xlink:href="#DejaVuSans-7a" transform="translate(424.601562 0)"/>
       <use xlink:href="#DejaVuSans-75" transform="translate(477.091797 0)"/>
       <use xlink:href="#DejaVuSans-72" transform="translate(540.470703 0)"/>
       <use xlink:href="#DejaVuSans-65" transform="translate(579.333984 0)"/>
      </g>
     </g>
    </g>
    <g id="ytick_11">
     <g id="line2d_19">
      <g>
       <use xlink:href="#m87bb3bc8f7" x="217.189063" y="161.740441" style="stroke: #000000; stroke-width: 0.8"/>
      </g>
     </g>
     <g id="text_20">
      <!-- Hyperkinetic movements -->
      <g transform="translate(84.410938 165.53966) scale(0.1 -0.1)">
       <defs>
        <path id="DejaVuSans-6b" d="M 581 4863 
L 1159 4863 
L 1159 1991 
L 2875 3500 
L 3609 3500 
L 1753 1863 
L 3688 0 
L 2938 0 
L 1159 1709 
L 1159 0 
L 581 0 
L 581 4863 
z
" transform="scale(0.015625)"/>
       </defs>
       <use xlink:href="#DejaVuSans-48"/>
       <use xlink:href="#DejaVuSans-79" transform="translate(75.195312 0)"/>
       <use xlink:href="#DejaVuSans-70" transform="translate(134.375 0)"/>
       <use xlink:href="#DejaVuSans-65" transform="translate(197.851562 0)"/>
       <use xlink:href="#DejaVuSans-72" transform="translate(259.375 0)"/>
       <use xlink:href="#DejaVuSans-6b" transform="translate(300.488281 0)"/>
       <use xlink:href="#DejaVuSans-69" transform="translate(358.398438 0)"/>
       <use xlink:href="#DejaVuSans-6e" transform="translate(386.181641 0)"/>
       <use xlink:href="#DejaVuSans-65" transform="translate(449.560547 0)"/>
       <use xlink:href="#DejaVuSans-74" transform="translate(511.083984 0)"/>
       <use xlink:href="#DejaVuSans-69" transform="translate(550.292969 0)"/>
       <use xlink:href="#DejaVuSans-63" transform="translate(578.076172 0)"/>
       <use xlink:href="#DejaVuSans-20" transform="translate(633.056641 0)"/>
       <use xlink:href="#DejaVuSans-6d" transform="translate(664.84375 0)"/>
       <use xlink:href="#DejaVuSans-6f" transform="translate(762.255859 0)"/>
       <use xlink:href="#DejaVuSans-76" transform="translate(823.4375 0)"/>
       <use xlink:href="#DejaVuSans-65" transform="translate(882.617188 0)"/>
       <use xlink:href="#DejaVuSans-6d" transform="translate(944.140625 0)"/>
       <use xlink:href="#DejaVuSans-65" transform="translate(1041.552734 0)"/>
       <use xlink:href="#DejaVuSans-6e" transform="translate(1103.076172 0)"/>
       <use xlink:href="#DejaVuSans-74" transform="translate(1166.455078 0)"/>
       <use xlink:href="#DejaVuSans-73" transform="translate(1205.664062 0)"/>
      </g>
     </g>
    </g>
    <g id="ytick_12">
     <g id="line2d_20">
      <g>
       <use xlink:href="#m87bb3bc8f7" x="217.189063" y="174.473072" style="stroke: #000000; stroke-width: 0.8"/>
      </g>
     </g>
     <g id="text_21">
      <!-- Recurrent hand flapping -->
      <g transform="translate(89.373437 178.272291) scale(0.1 -0.1)">
       <defs>
        <path id="DejaVuSans-52" d="M 2841 2188 
Q 3044 2119 3236 1894 
Q 3428 1669 3622 1275 
L 4263 0 
L 3584 0 
L 2988 1197 
Q 2756 1666 2539 1819 
Q 2322 1972 1947 1972 
L 1259 1972 
L 1259 0 
L 628 0 
L 628 4666 
L 2053 4666 
Q 2853 4666 3247 4331 
Q 3641 3997 3641 3322 
Q 3641 2881 3436 2590 
Q 3231 2300 2841 2188 
z
M 1259 4147 
L 1259 2491 
L 2053 2491 
Q 2509 2491 2742 2702 
Q 2975 2913 2975 3322 
Q 2975 3731 2742 3939 
Q 2509 4147 2053 4147 
L 1259 4147 
z
" transform="scale(0.015625)"/>
        <path id="DejaVuSans-67" d="M 2906 1791 
Q 2906 2416 2648 2759 
Q 2391 3103 1925 3103 
Q 1463 3103 1205 2759 
Q 947 2416 947 1791 
Q 947 1169 1205 825 
Q 1463 481 1925 481 
Q 2391 481 2648 825 
Q 2906 1169 2906 1791 
z
M 3481 434 
Q 3481 -459 3084 -895 
Q 2688 -1331 1869 -1331 
Q 1566 -1331 1297 -1286 
Q 1028 -1241 775 -1147 
L 775 -588 
Q 1028 -725 1275 -790 
Q 1522 -856 1778 -856 
Q 2344 -856 2625 -561 
Q 2906 -266 2906 331 
L 2906 616 
Q 2728 306 2450 153 
Q 2172 0 1784 0 
Q 1141 0 747 490 
Q 353 981 353 1791 
Q 353 2603 747 3093 
Q 1141 3584 1784 3584 
Q 2172 3584 2450 3431 
Q 2728 3278 2906 2969 
L 2906 3500 
L 3481 3500 
L 3481 434 
z
" transform="scale(0.015625)"/>
       </defs>
       <use xlink:href="#DejaVuSans-52"/>
       <use xlink:href="#DejaVuSans-65" transform="translate(64.982422 0)"/>
       <use xlink:href="#DejaVuSans-63" transform="translate(126.505859 0)"/>
       <use xlink:href="#DejaVuSans-75" transform="translate(181.486328 0)"/>
       <use xlink:href="#DejaVuSans-72" transform="translate(244.865234 0)"/>
       <use xlink:href="#DejaVuSans-72" transform="translate(284.228516 0)"/>
       <use xlink:href="#DejaVuSans-65" transform="translate(323.091797 0)"/>
       <use xlink:href="#DejaVuSans-6e" transform="translate(384.615234 0)"/>
       <use xlink:href="#DejaVuSans-74" transform="translate(447.994141 0)"/>
       <use xlink:href="#DejaVuSans-20" transform="translate(487.203125 0)"/>
       <use xlink:href="#DejaVuSans-68" transform="translate(518.990234 0)"/>
       <use xlink:href="#DejaVuSans-61" transform="translate(582.369141 0)"/>
       <use xlink:href="#DejaVuSans-6e" transform="translate(643.648438 0)"/>
       <use xlink:href="#DejaVuSans-64" transform="translate(707.027344 0)"/>
       <use xlink:href="#DejaVuSans-20" transform="translate(770.503906 0)"/>
       <use xlink:href="#DejaVuSans-66" transform="translate(802.291016 0)"/>
       <use xlink:href="#DejaVuSans-6c" transform="translate(837.496094 0)"/>
       <use xlink:href="#DejaVuSans-61" transform="translate(865.279297 0)"/>
       <use xlink:href="#DejaVuSans-70" transform="translate(926.558594 0)"/>
       <use xlink:href="#DejaVuSans-70" transform="translate(990.035156 0)"/>
       <use xlink:href="#DejaVuSans-69" transform="translate(1053.511719 0)"/>
       <use xlink:href="#DejaVuSans-6e" transform="translate(1081.294922 0)"/>
       <use xlink:href="#DejaVuSans-67" transform="translate(1144.673828 0)"/>
      </g>
     </g>
    </g>
    <g id="ytick_13">
     <g id="line2d_21">
      <g>
       <use xlink:href="#m87bb3bc8f7" x="217.189063" y="187.205704" style="stroke: #000000; stroke-width: 0.8"/>
      </g>
     </g>
     <g id="text_22">
      <!-- EEG with multifocal slow activity -->
      <g transform="translate(47.132812 191.004923) scale(0.1 -0.1)">
       <defs>
        <path id="DejaVuSans-47" d="M 3809 666 
L 3809 1919 
L 2778 1919 
L 2778 2438 
L 4434 2438 
L 4434 434 
Q 4069 175 3628 42 
Q 3188 -91 2688 -91 
Q 1594 -91 976 548 
Q 359 1188 359 2328 
Q 359 3472 976 4111 
Q 1594 4750 2688 4750 
Q 3144 4750 3555 4637 
Q 3966 4525 4313 4306 
L 4313 3634 
Q 3963 3931 3569 4081 
Q 3175 4231 2741 4231 
Q 1884 4231 1454 3753 
Q 1025 3275 1025 2328 
Q 1025 1384 1454 906 
Q 1884 428 2741 428 
Q 3075 428 3337 486 
Q 3600 544 3809 666 
z
" transform="scale(0.015625)"/>
       </defs>
       <use xlink:href="#DejaVuSans-45"/>
       <use xlink:href="#DejaVuSans-45" transform="translate(63.183594 0)"/>
       <use xlink:href="#DejaVuSans-47" transform="translate(126.367188 0)"/>
       <use xlink:href="#DejaVuSans-20" transform="translate(203.857422 0)"/>
       <use xlink:href="#DejaVuSans-77" transform="translate(235.644531 0)"/>
       <use xlink:href="#DejaVuSans-69" transform="translate(317.431641 0)"/>
       <use xlink:href="#DejaVuSans-74" transform="translate(345.214844 0)"/>
       <use xlink:href="#DejaVuSans-68" transform="translate(384.423828 0)"/>
       <use xlink:href="#DejaVuSans-20" transform="translate(447.802734 0)"/>
       <use xlink:href="#DejaVuSans-6d" transform="translate(479.589844 0)"/>
       <use xlink:href="#DejaVuSans-75" transform="translate(577.001953 0)"/>
       <use xlink:href="#DejaVuSans-6c" transform="translate(640.380859 0)"/>
       <use xlink:href="#DejaVuSans-74" transform="translate(668.164062 0)"/>
       <use xlink:href="#DejaVuSans-69" transform="translate(707.373047 0)"/>
       <use xlink:href="#DejaVuSans-66" transform="translate(735.15625 0)"/>
       <use xlink:href="#DejaVuSans-6f" transform="translate(770.361328 0)"/>
       <use xlink:href="#DejaVuSans-63" transform="translate(831.542969 0)"/>
       <use xlink:href="#DejaVuSans-61" transform="translate(886.523438 0)"/>
       <use xlink:href="#DejaVuSans-6c" transform="translate(947.802734 0)"/>
       <use xlink:href="#DejaVuSans-20" transform="translate(975.585938 0)"/>
       <use xlink:href="#DejaVuSans-73" transform="translate(1007.373047 0)"/>
       <use xlink:href="#DejaVuSans-6c" transform="translate(1059.472656 0)"/>
       <use xlink:href="#DejaVuSans-6f" transform="translate(1087.255859 0)"/>
       <use xlink:href="#DejaVuSans-77" transform="translate(1148.4375 0)"/>
       <use xlink:href="#DejaVuSans-20" transform="translate(1230.224609 0)"/>
       <use xlink:href="#DejaVuSans-61" transform="translate(1262.011719 0)"/>
       <use xlink:href="#DejaVuSans-63" transform="translate(1323.291016 0)"/>
       <use xlink:href="#DejaVuSans-74" transform="translate(1378.271484 0)"/>
       <use xlink:href="#DejaVuSans-69" transform="translate(1417.480469 0)"/>
       <use xlink:href="#DejaVuSans-76" transform="translate(1445.263672 0)"/>
       <use xlink:href="#DejaVuSans-69" transform="translate(1504.443359 0)"/>
       <use xlink:href="#DejaVuSans-74" transform="translate(1532.226562 0)"/>
       <use xlink:href="#DejaVuSans-79" transform="translate(1571.435547 0)"/>
      </g>
     </g>
    </g>
    <g id="ytick_14">
     <g id="line2d_22">
      <g>
       <use xlink:href="#m87bb3bc8f7" x="217.189063" y="199.938336" style="stroke: #000000; stroke-width: 0.8"/>
      </g>
     </g>
     <g id="text_23">
      <!-- Abnormality of coordination -->
      <g transform="translate(70.929688 203.737554) scale(0.1 -0.1)">
       <use xlink:href="#DejaVuSans-41"/>
       <use xlink:href="#DejaVuSans-62" transform="translate(68.408203 0)"/>
       <use xlink:href="#DejaVuSans-6e" transform="translate(131.884766 0)"/>
       <use xlink:href="#DejaVuSans-6f" transform="translate(195.263672 0)"/>
       <use xlink:href="#DejaVuSans-72" transform="translate(256.445312 0)"/>
       <use xlink:href="#DejaVuSans-6d" transform="translate(295.808594 0)"/>
       <use xlink:href="#DejaVuSans-61" transform="translate(393.220703 0)"/>
       <use xlink:href="#DejaVuSans-6c" transform="translate(454.5 0)"/>
       <use xlink:href="#DejaVuSans-69" transform="translate(482.283203 0)"/>
       <use xlink:href="#DejaVuSans-74" transform="translate(510.066406 0)"/>
       <use xlink:href="#DejaVuSans-79" transform="translate(549.275391 0)"/>
       <use xlink:href="#DejaVuSans-20" transform="translate(608.455078 0)"/>
       <use xlink:href="#DejaVuSans-6f" transform="translate(640.242188 0)"/>
       <use xlink:href="#DejaVuSans-66" transform="translate(701.423828 0)"/>
       <use xlink:href="#DejaVuSans-20" transform="translate(736.628906 0)"/>
       <use xlink:href="#DejaVuSans-63" transform="translate(768.416016 0)"/>
       <use xlink:href="#DejaVuSans-6f" transform="translate(823.396484 0)"/>
       <use xlink:href="#DejaVuSans-6f" transform="translate(884.578125 0)"/>
       <use xlink:href="#DejaVuSans-72" transform="translate(945.759766 0)"/>
       <use xlink:href="#DejaVuSans-64" transform="translate(985.123047 0)"/>
       <use xlink:href="#DejaVuSans-69" transform="translate(1048.599609 0)"/>
       <use xlink:href="#DejaVuSans-6e" transform="translate(1076.382812 0)"/>
       <use xlink:href="#DejaVuSans-61" transform="translate(1139.761719 0)"/>
       <use xlink:href="#DejaVuSans-74" transform="translate(1201.041016 0)"/>
       <use xlink:href="#DejaVuSans-69" transform="translate(1240.25 0)"/>
       <use xlink:href="#DejaVuSans-6f" transform="translate(1268.033203 0)"/>
       <use xlink:href="#DejaVuSans-6e" transform="translate(1329.214844 0)"/>
      </g>
     </g>
    </g>
    <g id="ytick_15">
     <g id="line2d_23">
      <g>
       <use xlink:href="#m87bb3bc8f7" x="217.189063" y="212.670967" style="stroke: #000000; stroke-width: 0.8"/>
      </g>
     </g>
     <g id="text_24">
      <!-- Obsessive-compulsive trait -->
      <g transform="translate(74.8125 216.470186) scale(0.1 -0.1)">
       <defs>
        <path id="DejaVuSans-4f" d="M 2522 4238 
Q 1834 4238 1429 3725 
Q 1025 3213 1025 2328 
Q 1025 1447 1429 934 
Q 1834 422 2522 422 
Q 3209 422 3611 934 
Q 4013 1447 4013 2328 
Q 4013 3213 3611 3725 
Q 3209 4238 2522 4238 
z
M 2522 4750 
Q 3503 4750 4090 4092 
Q 4678 3434 4678 2328 
Q 4678 1225 4090 567 
Q 3503 -91 2522 -91 
Q 1538 -91 948 565 
Q 359 1222 359 2328 
Q 359 3434 948 4092 
Q 1538 4750 2522 4750 
z
" transform="scale(0.015625)"/>
        <path id="DejaVuSans-2d" d="M 313 2009 
L 1997 2009 
L 1997 1497 
L 313 1497 
L 313 2009 
z
" transform="scale(0.015625)"/>
       </defs>
       <use xlink:href="#DejaVuSans-4f"/>
       <use xlink:href="#DejaVuSans-62" transform="translate(78.710938 0)"/>
       <use xlink:href="#DejaVuSans-73" transform="translate(142.1875 0)"/>
       <use xlink:href="#DejaVuSans-65" transform="translate(194.287109 0)"/>
       <use xlink:href="#DejaVuSans-73" transform="translate(255.810547 0)"/>
       <use xlink:href="#DejaVuSans-73" transform="translate(307.910156 0)"/>
       <use xlink:href="#DejaVuSans-69" transform="translate(360.009766 0)"/>
       <use xlink:href="#DejaVuSans-76" transform="translate(387.792969 0)"/>
       <use xlink:href="#DejaVuSans-65" transform="translate(446.972656 0)"/>
       <use xlink:href="#DejaVuSans-2d" transform="translate(508.496094 0)"/>
       <use xlink:href="#DejaVuSans-63" transform="translate(544.580078 0)"/>
       <use xlink:href="#DejaVuSans-6f" transform="translate(599.560547 0)"/>
       <use xlink:href="#DejaVuSans-6d" transform="translate(660.742188 0)"/>
       <use xlink:href="#DejaVuSans-70" transform="translate(758.154297 0)"/>
       <use xlink:href="#DejaVuSans-75" transform="translate(821.630859 0)"/>
       <use xlink:href="#DejaVuSans-6c" transform="translate(885.009766 0)"/>
       <use xlink:href="#DejaVuSans-73" transform="translate(912.792969 0)"/>
       <use xlink:href="#DejaVuSans-69" transform="translate(964.892578 0)"/>
       <use xlink:href="#DejaVuSans-76" transform="translate(992.675781 0)"/>
       <use xlink:href="#DejaVuSans-65" transform="translate(1051.855469 0)"/>
       <use xlink:href="#DejaVuSans-20" transform="translate(1113.378906 0)"/>
       <use xlink:href="#DejaVuSans-74" transform="translate(1145.166016 0)"/>
       <use xlink:href="#DejaVuSans-72" transform="translate(1184.375 0)"/>
       <use xlink:href="#DejaVuSans-61" transform="translate(1225.488281 0)"/>
       <use xlink:href="#DejaVuSans-69" transform="translate(1286.767578 0)"/>
       <use xlink:href="#DejaVuSans-74" transform="translate(1314.550781 0)"/>
      </g>
     </g>
    </g>
    <g id="ytick_16">
     <g id="line2d_24">
      <g>
       <use xlink:href="#m87bb3bc8f7" x="217.189063" y="225.403599" style="stroke: #000000; stroke-width: 0.8"/>
      </g>
     </g>
     <g id="text_25">
      <!-- Abnormal myelination -->
      <g transform="translate(99.79375 229.202817) scale(0.1 -0.1)">
       <use xlink:href="#DejaVuSans-41"/>
       <use xlink:href="#DejaVuSans-62" transform="translate(68.408203 0)"/>
       <use xlink:href="#DejaVuSans-6e" transform="translate(131.884766 0)"/>
       <use xlink:href="#DejaVuSans-6f" transform="translate(195.263672 0)"/>
       <use xlink:href="#DejaVuSans-72" transform="translate(256.445312 0)"/>
       <use xlink:href="#DejaVuSans-6d" transform="translate(295.808594 0)"/>
       <use xlink:href="#DejaVuSans-61" transform="translate(393.220703 0)"/>
       <use xlink:href="#DejaVuSans-6c" transform="translate(454.5 0)"/>
       <use xlink:href="#DejaVuSans-20" transform="translate(482.283203 0)"/>
       <use xlink:href="#DejaVuSans-6d" transform="translate(514.070312 0)"/>
       <use xlink:href="#DejaVuSans-79" transform="translate(611.482422 0)"/>
       <use xlink:href="#DejaVuSans-65" transform="translate(670.662109 0)"/>
       <use xlink:href="#DejaVuSans-6c" transform="translate(732.185547 0)"/>
       <use xlink:href="#DejaVuSans-69" transform="translate(759.96875 0)"/>
       <use xlink:href="#DejaVuSans-6e" transform="translate(787.751953 0)"/>
       <use xlink:href="#DejaVuSans-61" transform="translate(851.130859 0)"/>
       <use xlink:href="#DejaVuSans-74" transform="translate(912.410156 0)"/>
       <use xlink:href="#DejaVuSans-69" transform="translate(951.619141 0)"/>
       <use xlink:href="#DejaVuSans-6f" transform="translate(979.402344 0)"/>
       <use xlink:href="#DejaVuSans-6e" transform="translate(1040.583984 0)"/>
      </g>
     </g>
    </g>
    <g id="ytick_17">
     <g id="line2d_25">
      <g>
       <use xlink:href="#m87bb3bc8f7" x="217.189063" y="238.13623" style="stroke: #000000; stroke-width: 0.8"/>
      </g>
     </g>
     <g id="text_26">
      <!-- Focal tonic seizure -->
      <g transform="translate(117.501563 241.935449) scale(0.1 -0.1)">
       <use xlink:href="#DejaVuSans-46"/>
       <use xlink:href="#DejaVuSans-6f" transform="translate(53.894531 0)"/>
       <use xlink:href="#DejaVuSans-63" transform="translate(115.076172 0)"/>
       <use xlink:href="#DejaVuSans-61" transform="translate(170.056641 0)"/>
       <use xlink:href="#DejaVuSans-6c" transform="translate(231.335938 0)"/>
       <use xlink:href="#DejaVuSans-20" transform="translate(259.119141 0)"/>
       <use xlink:href="#DejaVuSans-74" transform="translate(290.90625 0)"/>
       <use xlink:href="#DejaVuSans-6f" transform="translate(330.115234 0)"/>
       <use xlink:href="#DejaVuSans-6e" transform="translate(391.296875 0)"/>
       <use xlink:href="#DejaVuSans-69" transform="translate(454.675781 0)"/>
       <use xlink:href="#DejaVuSans-63" transform="translate(482.458984 0)"/>
       <use xlink:href="#DejaVuSans-20" transform="translate(537.439453 0)"/>
       <use xlink:href="#DejaVuSans-73" transform="translate(569.226562 0)"/>
       <use xlink:href="#DejaVuSans-65" transform="translate(621.326172 0)"/>
       <use xlink:href="#DejaVuSans-69" transform="translate(682.849609 0)"/>
       <use xlink:href="#DejaVuSans-7a" transform="translate(710.632812 0)"/>
       <use xlink:href="#DejaVuSans-75" transform="translate(763.123047 0)"/>
       <use xlink:href="#DejaVuSans-72" transform="translate(826.501953 0)"/>
       <use xlink:href="#DejaVuSans-65" transform="translate(865.365234 0)"/>
      </g>
     </g>
    </g>
    <g id="ytick_18">
     <g id="line2d_26">
      <g>
       <use xlink:href="#m87bb3bc8f7" x="217.189063" y="250.868862" style="stroke: #000000; stroke-width: 0.8"/>
      </g>
     </g>
     <g id="text_27">
      <!-- Atonic seizure -->
      <g transform="translate(139.926562 254.668081) scale(0.1 -0.1)">
       <use xlink:href="#DejaVuSans-41"/>
       <use xlink:href="#DejaVuSans-74" transform="translate(66.658203 0)"/>
       <use xlink:href="#DejaVuSans-6f" transform="translate(105.867188 0)"/>
       <use xlink:href="#DejaVuSans-6e" transform="translate(167.048828 0)"/>
       <use xlink:href="#DejaVuSans-69" transform="translate(230.427734 0)"/>
       <use xlink:href="#DejaVuSans-63" transform="translate(258.210938 0)"/>
       <use xlink:href="#DejaVuSans-20" transform="translate(313.191406 0)"/>
       <use xlink:href="#DejaVuSans-73" transform="translate(344.978516 0)"/>
       <use xlink:href="#DejaVuSans-65" transform="translate(397.078125 0)"/>
       <use xlink:href="#DejaVuSans-69" transform="translate(458.601562 0)"/>
       <use xlink:href="#DejaVuSans-7a" transform="translate(486.384766 0)"/>
       <use xlink:href="#DejaVuSans-75" transform="translate(538.875 0)"/>
       <use xlink:href="#DejaVuSans-72" transform="translate(602.253906 0)"/>
       <use xlink:href="#DejaVuSans-65" transform="translate(641.117188 0)"/>
      </g>
     </g>
    </g>
    <g id="ytick_19">
     <g id="line2d_27">
      <g>
       <use xlink:href="#m87bb3bc8f7" x="217.189063" y="263.601493" style="stroke: #000000; stroke-width: 0.8"/>
      </g>
     </g>
     <g id="text_28">
      <!-- Epileptic spasm -->
      <g transform="translate(131.453125 267.400712) scale(0.1 -0.1)">
       <use xlink:href="#DejaVuSans-45"/>
       <use xlink:href="#DejaVuSans-70" transform="translate(63.183594 0)"/>
       <use xlink:href="#DejaVuSans-69" transform="translate(126.660156 0)"/>
       <use xlink:href="#DejaVuSans-6c" transform="translate(154.443359 0)"/>
       <use xlink:href="#DejaVuSans-65" transform="translate(182.226562 0)"/>
       <use xlink:href="#DejaVuSans-70" transform="translate(243.75 0)"/>
       <use xlink:href="#DejaVuSans-74" transform="translate(307.226562 0)"/>
       <use xlink:href="#DejaVuSans-69" transform="translate(346.435547 0)"/>
       <use xlink:href="#DejaVuSans-63" transform="translate(374.21875 0)"/>
       <use xlink:href="#DejaVuSans-20" transform="translate(429.199219 0)"/>
       <use xlink:href="#DejaVuSans-73" transform="translate(460.986328 0)"/>
       <use xlink:href="#DejaVuSans-70" transform="translate(513.085938 0)"/>
       <use xlink:href="#DejaVuSans-61" transform="translate(576.5625 0)"/>
       <use xlink:href="#DejaVuSans-73" transform="translate(637.841797 0)"/>
       <use xlink:href="#DejaVuSans-6d" transform="translate(689.941406 0)"/>
      </g>
     </g>
    </g>
    <g id="ytick_20">
     <g id="line2d_28">
      <g>
       <use xlink:href="#m87bb3bc8f7" x="217.189063" y="276.334125" style="stroke: #000000; stroke-width: 0.8"/>
      </g>
     </g>
     <g id="text_29">
      <!-- Thick nasal alae -->
      <g transform="translate(129.551562 280.133344) scale(0.1 -0.1)">
       <use xlink:href="#DejaVuSans-54"/>
       <use xlink:href="#DejaVuSans-68" transform="translate(61.083984 0)"/>
       <use xlink:href="#DejaVuSans-69" transform="translate(124.462891 0)"/>
       <use xlink:href="#DejaVuSans-63" transform="translate(152.246094 0)"/>
       <use xlink:href="#DejaVuSans-6b" transform="translate(207.226562 0)"/>
       <use xlink:href="#DejaVuSans-20" transform="translate(265.136719 0)"/>
       <use xlink:href="#DejaVuSans-6e" transform="translate(296.923828 0)"/>
       <use xlink:href="#DejaVuSans-61" transform="translate(360.302734 0)"/>
       <use xlink:href="#DejaVuSans-73" transform="translate(421.582031 0)"/>
       <use xlink:href="#DejaVuSans-61" transform="translate(473.681641 0)"/>
       <use xlink:href="#DejaVuSans-6c" transform="translate(534.960938 0)"/>
       <use xlink:href="#DejaVuSans-20" transform="translate(562.744141 0)"/>
       <use xlink:href="#DejaVuSans-61" transform="translate(594.53125 0)"/>
       <use xlink:href="#DejaVuSans-6c" transform="translate(655.810547 0)"/>
       <use xlink:href="#DejaVuSans-61" transform="translate(683.59375 0)"/>
       <use xlink:href="#DejaVuSans-65" transform="translate(744.873047 0)"/>
      </g>
     </g>
    </g>
   </g>
   <g id="line2d_29"/>
   <g id="line2d_30"/>
   <g id="line2d_31"/>
   <g id="line2d_32"/>
   <g id="line2d_33"/>
   <g id="line2d_34"/>
   <g id="line2d_35"/>
   <g id="line2d_36"/>
   <g id="line2d_37"/>
   <g id="line2d_38"/>
   <g id="line2d_39"/>
   <g id="line2d_40"/>
   <g id="line2d_41"/>
   <g id="patch_3">
    <path d="M 217.189063 288.430125 
L 217.189063 22.318125 
" style="fill: none; stroke: #000000; stroke-width: 0.8; stroke-linejoin: miter; stroke-linecap: square"/>
   </g>
   <g id="patch_4">
    <path d="M 574.309062 288.430125 
L 574.309062 22.318125 
" style="fill: none; stroke: #000000; stroke-width: 0.8; stroke-linejoin: miter; stroke-linecap: square"/>
   </g>
   <g id="patch_5">
    <path d="M 217.189063 288.430125 
L 574.309063 288.430125 
" style="fill: none; stroke: #000000; stroke-width: 0.8; stroke-linejoin: miter; stroke-linecap: square"/>
   </g>
   <g id="patch_6">
    <path d="M 217.189063 22.318125 
L 574.309063 22.318125 
" style="fill: none; stroke: #000000; stroke-width: 0.8; stroke-linejoin: miter; stroke-linecap: square"/>
   </g>
   <g id="text_30">
    <!-- Top 20 Enriched Phenotypes -->
    <g transform="translate(310.822813 16.318125) scale(0.12 -0.12)">
     <defs>
      <path id="DejaVuSans-50" d="M 1259 4147 
L 1259 2394 
L 2053 2394 
Q 2494 2394 2734 2622 
Q 2975 2850 2975 3272 
Q 2975 3691 2734 3919 
Q 2494 4147 2053 4147 
L 1259 4147 
z
M 628 4666 
L 2053 4666 
Q 2838 4666 3239 4311 
Q 3641 3956 3641 3272 
Q 3641 2581 3239 2228 
Q 2838 1875 2053 1875 
L 1259 1875 
L 1259 0 
L 628 0 
L 628 4666 
z
" transform="scale(0.015625)"/>
     </defs>
     <use xlink:href="#DejaVuSans-54"/>
     <use xlink:href="#DejaVuSans-6f" transform="translate(44.083984 0)"/>
     <use xlink:href="#DejaVuSans-70" transform="translate(105.265625 0)"/>
     <use xlink:href="#DejaVuSans-20" transform="translate(168.742188 0)"/>
     <use xlink:href="#DejaVuSans-32" transform="translate(200.529297 0)"/>
     <use xlink:href="#DejaVuSans-30" transform="translate(264.152344 0)"/>
     <use xlink:href="#DejaVuSans-20" transform="translate(327.775391 0)"/>
     <use xlink:href="#DejaVuSans-45" transform="translate(359.5625 0)"/>
     <use xlink:href="#DejaVuSans-6e" transform="translate(422.746094 0)"/>
     <use xlink:href="#DejaVuSans-72" transform="translate(486.125 0)"/>
     <use xlink:href="#DejaVuSans-69" transform="translate(527.238281 0)"/>
     <use xlink:href="#DejaVuSans-63" transform="translate(555.021484 0)"/>
     <use xlink:href="#DejaVuSans-68" transform="translate(610.001953 0)"/>
     <use xlink:href="#DejaVuSans-65" transform="translate(673.380859 0)"/>
     <use xlink:href="#DejaVuSans-64" transform="translate(734.904297 0)"/>
     <use xlink:href="#DejaVuSans-20" transform="translate(798.380859 0)"/>
     <use xlink:href="#DejaVuSans-50" transform="translate(830.167969 0)"/>
     <use xlink:href="#DejaVuSans-68" transform="translate(890.470703 0)"/>
     <use xlink:href="#DejaVuSans-65" transform="translate(953.849609 0)"/>
     <use xlink:href="#DejaVuSans-6e" transform="translate(1015.373047 0)"/>
     <use xlink:href="#DejaVuSans-6f" transform="translate(1078.751953 0)"/>
     <use xlink:href="#DejaVuSans-74" transform="translate(1139.933594 0)"/>
     <use xlink:href="#DejaVuSans-79" transform="translate(1179.142578 0)"/>
     <use xlink:href="#DejaVuSans-70" transform="translate(1238.322266 0)"/>
     <use xlink:href="#DejaVuSans-65" transform="translate(1301.798828 0)"/>
     <use xlink:href="#DejaVuSans-73" transform="translate(1363.322266 0)"/>
    </g>
   </g>
   <g id="legend_1">
    <g id="patch_7">
     <path d="M 581.309062 221.13375 
L 668.548125 221.13375 
Q 670.548125 221.13375 670.548125 219.13375 
L 670.548125 29.318125 
Q 670.548125 27.318125 668.548125 27.318125 
L 581.309062 27.318125 
Q 579.309062 27.318125 579.309062 29.318125 
L 579.309062 219.13375 
Q 579.309062 221.13375 581.309062 221.13375 
z
" style="fill: #ffffff; opacity: 0.8; stroke: #cccccc; stroke-linejoin: miter"/>
    </g>
    <g id="line2d_42"/>
    <g id="text_31">
     <!-- -log10 FDR -->
     <g transform="translate(611.309062 38.916562) scale(0.1 -0.1)">
      <defs>
       <path id="DejaVuSans-31" d="M 794 531 
L 1825 531 
L 1825 4091 
L 703 3866 
L 703 4441 
L 1819 4666 
L 2450 4666 
L 2450 531 
L 3481 531 
L 3481 0 
L 794 0 
L 794 531 
z
" transform="scale(0.015625)"/>
       <path id="DejaVuSans-44" d="M 1259 4147 
L 1259 519 
L 2022 519 
Q 2988 519 3436 956 
Q 3884 1394 3884 2338 
Q 3884 3275 3436 3711 
Q 2988 4147 2022 4147 
L 1259 4147 
z
M 628 4666 
L 1925 4666 
Q 3281 4666 3915 4102 
Q 4550 3538 4550 2338 
Q 4550 1131 3912 565 
Q 3275 0 1925 0 
L 628 0 
L 628 4666 
z
" transform="scale(0.015625)"/>
      </defs>
      <use xlink:href="#DejaVuSans-2d"/>
      <use xlink:href="#DejaVuSans-6c" transform="translate(36.083984 0)"/>
      <use xlink:href="#DejaVuSans-6f" transform="translate(63.867188 0)"/>
      <use xlink:href="#DejaVuSans-67" transform="translate(125.048828 0)"/>
      <use xlink:href="#DejaVuSans-31" transform="translate(188.525391 0)"/>
      <use xlink:href="#DejaVuSans-30" transform="translate(252.148438 0)"/>
      <use xlink:href="#DejaVuSans-20" transform="translate(315.771484 0)"/>
      <use xlink:href="#DejaVuSans-46" transform="translate(347.558594 0)"/>
      <use xlink:href="#DejaVuSans-44" transform="translate(405.078125 0)"/>
      <use xlink:href="#DejaVuSans-52" transform="translate(482.080078 0)"/>
     </g>
    </g>
    <g id="line2d_43">
     <defs>
      <path id="m880333bcac" d="M 0 3 
C 0.795609 3 1.55874 2.683901 2.12132 2.12132 
C 2.683901 1.55874 3 0.795609 3 0 
C 3 -0.795609 2.683901 -1.55874 2.12132 -2.12132 
C 1.55874 -2.683901 0.795609 -3 0 -3 
C -0.795609 -3 -1.55874 -2.683901 -2.12132 -2.12132 
C -2.683901 -1.55874 -3 -0.795609 -3 0 
C -3 0.795609 -2.683901 1.55874 -2.12132 2.12132 
C -1.55874 2.683901 -0.795609 3 0 3 
z
" style="stroke: #ffffff; stroke-width: 0.43226"/>
     </defs>
     <g>
      <use xlink:href="#m880333bcac" x="593.309062" y="50.094688" style="fill: #7597f6; stroke: #ffffff; stroke-width: 0.43226"/>
     </g>
    </g>
    <g id="text_32">
     <!-- 6 -->
     <g transform="translate(611.309062 53.594688) scale(0.1 -0.1)">
      <defs>
       <path id="DejaVuSans-36" d="M 2113 2584 
Q 1688 2584 1439 2293 
Q 1191 2003 1191 1497 
Q 1191 994 1439 701 
Q 1688 409 2113 409 
Q 2538 409 2786 701 
Q 3034 994 3034 1497 
Q 3034 2003 2786 2293 
Q 2538 2584 2113 2584 
z
M 3366 4563 
L 3366 3988 
Q 3128 4100 2886 4159 
Q 2644 4219 2406 4219 
Q 1781 4219 1451 3797 
Q 1122 3375 1075 2522 
Q 1259 2794 1537 2939 
Q 1816 3084 2150 3084 
Q 2853 3084 3261 2657 
Q 3669 2231 3669 1497 
Q 3669 778 3244 343 
Q 2819 -91 2113 -91 
Q 1303 -91 875 529 
Q 447 1150 447 2328 
Q 447 3434 972 4092 
Q 1497 4750 2381 4750 
Q 2619 4750 2861 4703 
Q 3103 4656 3366 4563 
z
" transform="scale(0.015625)"/>
      </defs>
      <use xlink:href="#DejaVuSans-36"/>
     </g>
    </g>
    <g id="line2d_44">
     <defs>
      <path id="mfe68ea170e" d="M 0 3 
C 0.795609 3 1.55874 2.683901 2.12132 2.12132 
C 2.683901 1.55874 3 0.795609 3 0 
C 3 -0.795609 2.683901 -1.55874 2.12132 -2.12132 
C 1.55874 -2.683901 0.795609 -3 0 -3 
C -0.795609 -3 -1.55874 -2.683901 -2.12132 -2.12132 
C -2.683901 -1.55874 -3 -0.795609 -3 0 
C -3 0.795609 -2.683901 1.55874 -2.12132 2.12132 
C -1.55874 2.683901 -0.795609 3 0 3 
z
" style="stroke: #ffffff; stroke-width: 0.43226"/>
     </defs>
     <g>
      <use xlink:href="#mfe68ea170e" x="593.309062" y="64.772812" style="fill: #bad0f8; stroke: #ffffff; stroke-width: 0.43226"/>
     </g>
    </g>
    <g id="text_33">
     <!-- 8 -->
     <g transform="translate(611.309062 68.272812) scale(0.1 -0.1)">
      <defs>
       <path id="DejaVuSans-38" d="M 2034 2216 
Q 1584 2216 1326 1975 
Q 1069 1734 1069 1313 
Q 1069 891 1326 650 
Q 1584 409 2034 409 
Q 2484 409 2743 651 
Q 3003 894 3003 1313 
Q 3003 1734 2745 1975 
Q 2488 2216 2034 2216 
z
M 1403 2484 
Q 997 2584 770 2862 
Q 544 3141 544 3541 
Q 544 4100 942 4425 
Q 1341 4750 2034 4750 
Q 2731 4750 3128 4425 
Q 3525 4100 3525 3541 
Q 3525 3141 3298 2862 
Q 3072 2584 2669 2484 
Q 3125 2378 3379 2068 
Q 3634 1759 3634 1313 
Q 3634 634 3220 271 
Q 2806 -91 2034 -91 
Q 1263 -91 848 271 
Q 434 634 434 1313 
Q 434 1759 690 2068 
Q 947 2378 1403 2484 
z
M 1172 3481 
Q 1172 3119 1398 2916 
Q 1625 2713 2034 2713 
Q 2441 2713 2670 2916 
Q 2900 3119 2900 3481 
Q 2900 3844 2670 4047 
Q 2441 4250 2034 4250 
Q 1625 4250 1398 4047 
Q 1172 3844 1172 3481 
z
" transform="scale(0.015625)"/>
      </defs>
      <use xlink:href="#DejaVuSans-38"/>
     </g>
    </g>
    <g id="line2d_45">
     <defs>
      <path id="mc31e255b5f" d="M 0 3 
C 0.795609 3 1.55874 2.683901 2.12132 2.12132 
C 2.683901 1.55874 3 0.795609 3 0 
C 3 -0.795609 2.683901 -1.55874 2.12132 -2.12132 
C 1.55874 -2.683901 0.795609 -3 0 -3 
C -0.795609 -3 -1.55874 -2.683901 -2.12132 -2.12132 
C -2.683901 -1.55874 -3 -0.795609 -3 0 
C -3 0.795609 -2.683901 1.55874 -2.12132 2.12132 
C -1.55874 2.683901 -0.795609 3 0 3 
z
" style="stroke: #ffffff; stroke-width: 0.43226"/>
     </defs>
     <g>
      <use xlink:href="#mc31e255b5f" x="593.309062" y="79.450938" style="fill: #efcfbf; stroke: #ffffff; stroke-width: 0.43226"/>
     </g>
    </g>
    <g id="text_34">
     <!-- 10 -->
     <g transform="translate(611.309062 82.950938) scale(0.1 -0.1)">
      <use xlink:href="#DejaVuSans-31"/>
      <use xlink:href="#DejaVuSans-30" transform="translate(63.623047 0)"/>
     </g>
    </g>
    <g id="line2d_46">
     <defs>
      <path id="mf392eea86c" d="M 0 3 
C 0.795609 3 1.55874 2.683901 2.12132 2.12132 
C 2.683901 1.55874 3 0.795609 3 0 
C 3 -0.795609 2.683901 -1.55874 2.12132 -2.12132 
C 1.55874 -2.683901 0.795609 -3 0 -3 
C -0.795609 -3 -1.55874 -2.683901 -2.12132 -2.12132 
C -2.683901 -1.55874 -3 -0.795609 -3 0 
C -3 0.795609 -2.683901 1.55874 -2.12132 2.12132 
C -1.55874 2.683901 -0.795609 3 0 3 
z
" style="stroke: #ffffff; stroke-width: 0.43226"/>
     </defs>
     <g>
      <use xlink:href="#mf392eea86c" x="593.309062" y="94.129063" style="fill: #f18d6f; stroke: #ffffff; stroke-width: 0.43226"/>
     </g>
    </g>
    <g id="text_35">
     <!-- 12 -->
     <g transform="translate(611.309062 97.629063) scale(0.1 -0.1)">
      <use xlink:href="#DejaVuSans-31"/>
      <use xlink:href="#DejaVuSans-32" transform="translate(63.623047 0)"/>
     </g>
    </g>
    <g id="line2d_47">
     <defs>
      <path id="mcae0328bc8" d="M 0 3 
C 0.795609 3 1.55874 2.683901 2.12132 2.12132 
C 2.683901 1.55874 3 0.795609 3 0 
C 3 -0.795609 2.683901 -1.55874 2.12132 -2.12132 
C 1.55874 -2.683901 0.795609 -3 0 -3 
C -0.795609 -3 -1.55874 -2.683901 -2.12132 -2.12132 
C -2.683901 -1.55874 -3 -0.795609 -3 0 
C -3 0.795609 -2.683901 1.55874 -2.12132 2.12132 
C -1.55874 2.683901 -0.795609 3 0 3 
z
" style="stroke: #ffffff; stroke-width: 0.43226"/>
     </defs>
     <g>
      <use xlink:href="#mcae0328bc8" x="593.309062" y="108.807187" style="fill: #bb1b2c; stroke: #ffffff; stroke-width: 0.43226"/>
     </g>
    </g>
    <g id="text_36">
     <!-- 14 -->
     <g transform="translate(611.309062 112.307187) scale(0.1 -0.1)">
      <use xlink:href="#DejaVuSans-31"/>
      <use xlink:href="#DejaVuSans-34" transform="translate(63.623047 0)"/>
     </g>
    </g>
    <g id="line2d_48"/>
    <g id="text_37">
     <!-- Gene Ratio -->
     <g transform="translate(611.309062 126.985313) scale(0.1 -0.1)">
      <use xlink:href="#DejaVuSans-47"/>
      <use xlink:href="#DejaVuSans-65" transform="translate(77.490234 0)"/>
      <use xlink:href="#DejaVuSans-6e" transform="translate(139.013672 0)"/>
      <use xlink:href="#DejaVuSans-65" transform="translate(202.392578 0)"/>
      <use xlink:href="#DejaVuSans-20" transform="translate(263.916016 0)"/>
      <use xlink:href="#DejaVuSans-52" transform="translate(295.703125 0)"/>
      <use xlink:href="#DejaVuSans-61" transform="translate(362.935547 0)"/>
      <use xlink:href="#DejaVuSans-74" transform="translate(424.214844 0)"/>
      <use xlink:href="#DejaVuSans-69" transform="translate(463.423828 0)"/>
      <use xlink:href="#DejaVuSans-6f" transform="translate(491.207031 0)"/>
     </g>
    </g>
    <g id="line2d_49">
     <defs>
      <path id="m7008ef8225" d="M 0 2.925331 
C 0.775807 2.925331 1.519943 2.6171 2.068521 2.068521 
C 2.6171 1.519943 2.925331 0.775807 2.925331 0 
C 2.925331 -0.775807 2.6171 -1.519943 2.068521 -2.068521 
C 1.519943 -2.6171 0.775807 -2.925331 0 -2.925331 
C -0.775807 -2.925331 -1.519943 -2.6171 -2.068521 -2.068521 
C -2.6171 -1.519943 -2.925331 -0.775807 -2.925331 0 
C -2.925331 0.775807 -2.6171 1.519943 -2.068521 2.068521 
C -1.519943 2.6171 -0.775807 2.925331 0 2.925331 
z
" style="stroke: #ffffff; stroke-width: 0.43226"/>
     </defs>
     <g>
      <use xlink:href="#m7008ef8225" x="593.309062" y="138.163437" style="fill: #333333; stroke: #ffffff; stroke-width: 0.43226"/>
     </g>
    </g>
    <g id="text_38">
     <!-- 0.004 -->
     <g transform="translate(611.309062 141.663437) scale(0.1 -0.1)">
      <use xlink:href="#DejaVuSans-30"/>
      <use xlink:href="#DejaVuSans-2e" transform="translate(63.623047 0)"/>
      <use xlink:href="#DejaVuSans-30" transform="translate(95.410156 0)"/>
      <use xlink:href="#DejaVuSans-30" transform="translate(159.033203 0)"/>
      <use xlink:href="#DejaVuSans-34" transform="translate(222.65625 0)"/>
     </g>
    </g>
    <g id="line2d_50">
     <defs>
      <path id="m46e4bdf286" d="M 0 3.781502 
C 1.002866 3.781502 1.964792 3.383059 2.673926 2.673926 
C 3.383059 1.964792 3.781502 1.002866 3.781502 0 
C 3.781502 -1.002866 3.383059 -1.964792 2.673926 -2.673926 
C 1.964792 -3.383059 1.002866 -3.781502 0 -3.781502 
C -1.002866 -3.781502 -1.964792 -3.383059 -2.673926 -2.673926 
C -3.383059 -1.964792 -3.781502 -1.002866 -3.781502 0 
C -3.781502 1.002866 -3.383059 1.964792 -2.673926 2.673926 
C -1.964792 3.383059 -1.002866 3.781502 0 3.781502 
z
" style="stroke: #ffffff; stroke-width: 0.43226"/>
     </defs>
     <g>
      <use xlink:href="#m46e4bdf286" x="593.309062" y="152.841563" style="fill: #333333; stroke: #ffffff; stroke-width: 0.43226"/>
     </g>
    </g>
    <g id="text_39">
     <!-- 0.006 -->
     <g transform="translate(611.309062 156.341563) scale(0.1 -0.1)">
      <use xlink:href="#DejaVuSans-30"/>
      <use xlink:href="#DejaVuSans-2e" transform="translate(63.623047 0)"/>
      <use xlink:href="#DejaVuSans-30" transform="translate(95.410156 0)"/>
      <use xlink:href="#DejaVuSans-30" transform="translate(159.033203 0)"/>
      <use xlink:href="#DejaVuSans-36" transform="translate(222.65625 0)"/>
     </g>
    </g>
    <g id="line2d_51">
     <defs>
      <path id="mea502dd6ed" d="M 0 4.476824 
C 1.187268 4.476824 2.326068 4.005117 3.165592 3.165592 
C 4.005117 2.326068 4.476824 1.187268 4.476824 0 
C 4.476824 -1.187268 4.005117 -2.326068 3.165592 -3.165592 
C 2.326068 -4.005117 1.187268 -4.476824 0 -4.476824 
C -1.187268 -4.476824 -2.326068 -4.005117 -3.165592 -3.165592 
C -4.005117 -2.326068 -4.476824 -1.187268 -4.476824 0 
C -4.476824 1.187268 -4.005117 2.326068 -3.165592 3.165592 
C -2.326068 4.005117 -1.187268 4.476824 0 4.476824 
z
" style="stroke: #ffffff; stroke-width: 0.43226"/>
     </defs>
     <g>
      <use xlink:href="#mea502dd6ed" x="593.309062" y="167.519687" style="fill: #333333; stroke: #ffffff; stroke-width: 0.43226"/>
     </g>
    </g>
    <g id="text_40">
     <!-- 0.008 -->
     <g transform="translate(611.309062 171.019687) scale(0.1 -0.1)">
      <use xlink:href="#DejaVuSans-30"/>
      <use xlink:href="#DejaVuSans-2e" transform="translate(63.623047 0)"/>
      <use xlink:href="#DejaVuSans-30" transform="translate(95.410156 0)"/>
      <use xlink:href="#DejaVuSans-30" transform="translate(159.033203 0)"/>
      <use xlink:href="#DejaVuSans-38" transform="translate(222.65625 0)"/>
     </g>
    </g>
    <g id="line2d_52">
     <defs>
      <path id="m7253386749" d="M 0 5.077809 
C 1.346651 5.077809 2.638327 4.542779 3.590553 3.590553 
C 4.542779 2.638327 5.077809 1.346651 5.077809 0 
C 5.077809 -1.346651 4.542779 -2.638327 3.590553 -3.590553 
C 2.638327 -4.542779 1.346651 -5.077809 0 -5.077809 
C -1.346651 -5.077809 -2.638327 -4.542779 -3.590553 -3.590553 
C -4.542779 -2.638327 -5.077809 -1.346651 -5.077809 0 
C -5.077809 1.346651 -4.542779 2.638327 -3.590553 3.590553 
C -2.638327 4.542779 -1.346651 5.077809 0 5.077809 
z
" style="stroke: #ffffff; stroke-width: 0.43226"/>
     </defs>
     <g>
      <use xlink:href="#m7253386749" x="593.309062" y="182.197812" style="fill: #333333; stroke: #ffffff; stroke-width: 0.43226"/>
     </g>
    </g>
    <g id="text_41">
     <!-- 0.010 -->
     <g transform="translate(611.309062 185.697812) scale(0.1 -0.1)">
      <use xlink:href="#DejaVuSans-30"/>
      <use xlink:href="#DejaVuSans-2e" transform="translate(63.623047 0)"/>
      <use xlink:href="#DejaVuSans-30" transform="translate(95.410156 0)"/>
      <use xlink:href="#DejaVuSans-31" transform="translate(159.033203 0)"/>
      <use xlink:href="#DejaVuSans-30" transform="translate(222.65625 0)"/>
     </g>
    </g>
    <g id="line2d_53">
     <defs>
      <path id="mb4e32256de" d="M 0 5.614832 
C 1.489071 5.614832 2.917354 5.023218 3.970286 3.970286 
C 5.023218 2.917354 5.614832 1.489071 5.614832 0 
C 5.614832 -1.489071 5.023218 -2.917354 3.970286 -3.970286 
C 2.917354 -5.023218 1.489071 -5.614832 0 -5.614832 
C -1.489071 -5.614832 -2.917354 -5.023218 -3.970286 -3.970286 
C -5.023218 -2.917354 -5.614832 -1.489071 -5.614832 0 
C -5.614832 1.489071 -5.023218 2.917354 -3.970286 3.970286 
C -2.917354 5.023218 -1.489071 5.614832 0 5.614832 
z
" style="stroke: #ffffff; stroke-width: 0.43226"/>
     </defs>
     <g>
      <use xlink:href="#mb4e32256de" x="593.309062" y="196.875937" style="fill: #333333; stroke: #ffffff; stroke-width: 0.43226"/>
     </g>
    </g>
    <g id="text_42">
     <!-- 0.012 -->
     <g transform="translate(611.309062 200.375937) scale(0.1 -0.1)">
      <use xlink:href="#DejaVuSans-30"/>
      <use xlink:href="#DejaVuSans-2e" transform="translate(63.623047 0)"/>
      <use xlink:href="#DejaVuSans-30" transform="translate(95.410156 0)"/>
      <use xlink:href="#DejaVuSans-31" transform="translate(159.033203 0)"/>
      <use xlink:href="#DejaVuSans-32" transform="translate(222.65625 0)"/>
     </g>
    </g>
    <g id="line2d_54">
     <defs>
      <path id="m166fc03ba9" d="M 0 6.104796 
C 1.619011 6.104796 3.171929 5.461556 4.316743 4.316743 
C 5.461556 3.171929 6.104796 1.619011 6.104796 0 
C 6.104796 -1.619011 5.461556 -3.171929 4.316743 -4.316743 
C 3.171929 -5.461556 1.619011 -6.104796 0 -6.104796 
C -1.619011 -6.104796 -3.171929 -5.461556 -4.316743 -4.316743 
C -5.461556 -3.171929 -6.104796 -1.619011 -6.104796 0 
C -6.104796 1.619011 -5.461556 3.171929 -4.316743 4.316743 
C -3.171929 5.461556 -1.619011 6.104796 0 6.104796 
z
" style="stroke: #ffffff; stroke-width: 0.43226"/>
     </defs>
     <g>
      <use xlink:href="#m166fc03ba9" x="593.309062" y="211.554062" style="fill: #333333; stroke: #ffffff; stroke-width: 0.43226"/>
     </g>
    </g>
    <g id="text_43">
     <!-- 0.014 -->
     <g transform="translate(611.309062 215.054062) scale(0.1 -0.1)">
      <use xlink:href="#DejaVuSans-30"/>
      <use xlink:href="#DejaVuSans-2e" transform="translate(63.623047 0)"/>
      <use xlink:href="#DejaVuSans-30" transform="translate(95.410156 0)"/>
      <use xlink:href="#DejaVuSans-31" transform="translate(159.033203 0)"/>
      <use xlink:href="#DejaVuSans-34" transform="translate(222.65625 0)"/>
     </g>
    </g>
   </g>
  </g>
 </g>
 <defs>
  <clipPath id="p60f27e4a5e">
   <rect x="217.189063" y="22.318125" width="357.12" height="266.112"/>
  </clipPath>
 </defs>
</svg>
