<?xml version="1.0" encoding="utf-8" standalone="no"?>
<!DOCTYPE svg PUBLIC "-//W3C//DTD SVG 1.1//EN"
  "http://www.w3.org/Graphics/SVG/1.1/DTD/svg11.dtd">
<svg xmlns:xlink="http://www.w3.org/1999/xlink" width="640.579375pt" height="325.986375pt" viewBox="0 0 640.579375 325.986375" xmlns="http://www.w3.org/2000/svg" version="1.1">
 <metadata>
  <rdf:RDF xmlns:dc="http://purl.org/dc/elements/1.1/" xmlns:cc="http://creativecommons.org/ns#" xmlns:rdf="http://www.w3.org/1999/02/22-rdf-syntax-ns#">
   <cc:Work>
    <dc:type rdf:resource="http://purl.org/dc/dcmitype/StillImage"/>
    <dc:date>2025-12-27T19:59:07.606102</dc:date>
    <dc:format>image/svg+xml</dc:format>
    <dc:creator>
     <cc:Agent>
      <dc:title>Matplotlib v3.10.7, https://matplotlib.org/</dc:title>
     </cc:Agent>
    </dc:creator>
   </cc:Work>
  </rdf:RDF>
 </metadata>
 <defs>
  <style type="text/css">*{stroke-linejoin: round; stroke-linecap: butt}</style>
 </defs>
 <g id="figure_1">
  <g id="patch_1">
   <path d="M 0 325.986375 
L 640.579375 325.986375 
L 640.579375 0 
L 0 0 
z
" style="fill: #ffffff"/>
  </g>
  <g id="axes_1">
   <g id="patch_2">
    <path d="M 180.020312 288.430125 
L 537.140312 288.430125 
L 537.140312 22.318125 
L 180.020312 22.318125 
z
" style="fill: #ffffff"/>
   </g>
   <g id="PathCollection_1">
    <path d="M 520.907585 36.650193 
C 521.500597 36.650193 522.069401 36.414587 522.488724 35.995264 
C 522.908047 35.575941 523.143653 35.007137 523.143653 34.414125 
C 523.143653 33.821113 522.908047 33.252309 522.488724 32.832986 
C 522.069401 32.413663 521.500597 32.178057 520.907585 32.178057 
C 520.314573 32.178057 519.745769 32.413663 519.326446 32.832986 
C 518.907123 33.252309 518.671517 33.821113 518.671517 34.414125 
C 518.671517 35.007137 518.907123 35.575941 519.326446 35.995264 
C 519.745769 36.414587 520.314573 36.650193 520.907585 36.650193 
z
" clip-path="url(#p4fdf252836)" style="fill: #3b4cc0; stroke: #ffffff; stroke-width: 0.390991"/>
    <path d="M 369.05767 49.631245 
C 369.716564 49.631245 370.34856 49.369463 370.814468 48.903555 
C 371.280376 48.437647 371.542158 47.80565 371.542158 47.146757 
C 371.542158 46.487863 371.280376 45.855867 370.814468 45.389958 
C 370.34856 44.92405 369.716564 44.662269 369.05767 44.662269 
C 368.398776 44.662269 367.76678 44.92405 367.300871 45.389958 
C 366.834963 45.855867 366.573182 46.487863 366.573182 47.146757 
C 366.573182 47.80565 366.834963 48.437647 367.300871 48.903555 
C 367.76678 49.369463 368.398776 49.631245 369.05767 49.631245 
z
" clip-path="url(#p4fdf252836)" style="fill: #445acc; stroke: #ffffff; stroke-width: 0.390991"/>
    <path d="M 361.355138 62.260586 
C 361.986639 62.260586 362.59236 62.009688 363.038899 61.563149 
C 363.485437 61.116611 363.736336 60.510889 363.736336 59.879388 
C 363.736336 59.247887 363.485437 58.642166 363.038899 58.195627 
C 362.59236 57.749088 361.986639 57.49819 361.355138 57.49819 
C 360.723637 57.49819 360.117915 57.749088 359.671377 58.195627 
C 359.224838 58.642166 358.97394 59.247887 358.97394 59.879388 
C 358.97394 60.510889 359.224838 61.116611 359.671377 61.563149 
C 360.117915 62.009688 360.723637 62.260586 361.355138 62.260586 
z
" clip-path="url(#p4fdf252836)" style="fill: #3b4cc0; stroke: #ffffff; stroke-width: 0.390991"/>
    <path d="M 342.648989 75.062561 
C 343.29888 75.062561 343.922241 74.804357 344.381783 74.344814 
C 344.841326 73.885272 345.09953 73.261911 345.09953 72.61202 
C 345.09953 71.962128 344.841326 71.338768 344.381783 70.879225 
C 343.922241 70.419683 343.29888 70.161478 342.648989 70.161478 
C 341.999097 70.161478 341.375737 70.419683 340.916194 70.879225 
C 340.456651 71.338768 340.198447 71.962128 340.198447 72.61202 
C 340.198447 73.261911 340.456651 73.885272 340.916194 74.344814 
C 341.375737 74.804357 341.999097 75.062561 342.648989 75.062561 
z
" clip-path="url(#p4fdf252836)" style="fill: #3e51c5; stroke: #ffffff; stroke-width: 0.390991"/>
    <path d="M 311.210083 87.960523 
C 311.90382 87.960523 312.569237 87.684898 313.059783 87.194352 
C 313.550329 86.703805 313.825954 86.038389 313.825954 85.344651 
C 313.825954 84.650914 313.550329 83.985497 313.059783 83.494951 
C 312.569237 83.004405 311.90382 82.72878 311.210083 82.72878 
C 310.516346 82.72878 309.850929 83.004405 309.360382 83.494951 
C 308.869836 83.985497 308.594211 84.650914 308.594211 85.344651 
C 308.594211 86.038389 308.869836 86.703805 309.360382 87.194352 
C 309.850929 87.684898 310.516346 87.960523 311.210083 87.960523 
z
" clip-path="url(#p4fdf252836)" style="fill: #455cce; stroke: #ffffff; stroke-width: 0.390991"/>
    <path d="M 289.136661 101.108478 
C 289.940544 101.108478 290.711609 100.789092 291.28004 100.220662 
C 291.848471 99.652231 292.167857 98.881165 292.167857 98.077283 
C 292.167857 97.273401 291.848471 96.502335 291.28004 95.933904 
C 290.711609 95.365474 289.940544 95.046088 289.136661 95.046088 
C 288.332779 95.046088 287.561713 95.365474 286.993283 95.933904 
C 286.424852 96.502335 286.105466 97.273401 286.105466 98.077283 
C 286.105466 98.881165 286.424852 99.652231 286.993283 100.220662 
C 287.561713 100.789092 288.332779 101.108478 289.136661 101.108478 
z
" clip-path="url(#p4fdf252836)" style="fill: #6282ea; stroke: #ffffff; stroke-width: 0.390991"/>
    <path d="M 272.523234 114.557766 
C 273.517176 114.557766 274.470543 114.162869 275.173366 113.460046 
C 275.876189 112.757223 276.271086 111.803856 276.271086 110.809914 
C 276.271086 109.815973 275.876189 108.862606 275.173366 108.159783 
C 274.470543 107.45696 273.517176 107.062063 272.523234 107.062063 
C 271.529293 107.062063 270.575926 107.45696 269.873103 108.159783 
C 269.17028 108.862606 268.775383 109.815973 268.775383 110.809914 
C 268.775383 111.803856 269.17028 112.757223 269.873103 113.460046 
C 270.575926 114.162869 271.529293 114.557766 272.523234 114.557766 
z
" clip-path="url(#p4fdf252836)" style="fill: #a5c3fe; stroke: #ffffff; stroke-width: 0.390991"/>
    <path d="M 270.798343 126.913893 
C 271.692435 126.913893 272.550027 126.558667 273.182245 125.926448 
C 273.814464 125.29423 274.16969 124.436638 274.16969 123.542546 
C 274.16969 122.648454 273.814464 121.790862 273.182245 121.158644 
C 272.550027 120.526426 271.692435 120.171199 270.798343 120.171199 
C 269.904251 120.171199 269.046659 120.526426 268.414441 121.158644 
C 267.782223 121.790862 267.426996 122.648454 267.426996 123.542546 
C 267.426996 124.436638 267.782223 125.29423 268.414441 125.926448 
C 269.046659 126.558667 269.904251 126.913893 270.798343 126.913893 
z
" clip-path="url(#p4fdf252836)" style="fill: #7b9ff9; stroke: #ffffff; stroke-width: 0.390991"/>
    <path d="M 242.562307 139.621587 
C 243.449785 139.621587 244.301034 139.268988 244.928576 138.641446 
C 245.556117 138.013904 245.908716 137.162656 245.908716 136.275178 
C 245.908716 135.3877 245.556117 134.536451 244.928576 133.908909 
C 244.301034 133.281367 243.449785 132.928769 242.562307 132.928769 
C 241.674829 132.928769 240.82358 133.281367 240.196038 133.908909 
C 239.568497 134.536451 239.215898 135.3877 239.215898 136.275178 
C 239.215898 137.162656 239.568497 138.013904 240.196038 138.641446 
C 240.82358 139.268988 241.674829 139.621587 242.562307 139.621587 
z
" clip-path="url(#p4fdf252836)" style="fill: #6a8bef; stroke: #ffffff; stroke-width: 0.390991"/>
    <path d="M 242.21443 153.507236 
C 243.407692 153.507236 244.552242 153.033148 245.396005 152.189385 
C 246.239769 151.345621 246.713857 150.201071 246.713857 149.007809 
C 246.713857 147.814547 246.239769 146.669997 245.396005 145.826234 
C 244.552242 144.98247 243.407692 144.508382 242.21443 144.508382 
C 241.021168 144.508382 239.876618 144.98247 239.032854 145.826234 
C 238.189091 146.669997 237.715003 147.814547 237.715003 149.007809 
C 237.715003 150.201071 238.189091 151.345621 239.032854 152.189385 
C 239.876618 153.033148 241.021168 153.507236 242.21443 153.507236 
z
" clip-path="url(#p4fdf252836)" style="fill: #d7dce3; stroke: #ffffff; stroke-width: 0.390991"/>
    <path d="M 235.767503 166.010632 
C 236.899971 166.010632 237.986209 165.560698 238.786984 164.759922 
C 239.58776 163.959146 240.037695 162.872909 240.037695 161.740441 
C 240.037695 160.607973 239.58776 159.521735 238.786984 158.720959 
C 237.986209 157.920184 236.899971 157.470249 235.767503 157.470249 
C 234.635035 157.470249 233.548797 157.920184 232.748022 158.720959 
C 231.947246 159.521735 231.497311 160.607973 231.497311 161.740441 
C 231.497311 162.872909 231.947246 163.959146 232.748022 164.759922 
C 233.548797 165.560698 234.635035 166.010632 235.767503 166.010632 
z
" clip-path="url(#p4fdf252836)" style="fill: #bcd2f7; stroke: #ffffff; stroke-width: 0.390991"/>
    <path d="M 233.71318 177.214037 
C 234.440092 177.214037 235.13733 176.925232 235.651334 176.411227 
C 236.165339 175.897222 236.454144 175.199985 236.454144 174.473072 
C 236.454144 173.74616 236.165339 173.048922 235.651334 172.534918 
C 235.13733 172.020913 234.440092 171.732108 233.71318 171.732108 
C 232.986267 171.732108 232.28903 172.020913 231.775025 172.534918 
C 231.26102 173.048922 230.972215 173.74616 230.972215 174.473072 
C 230.972215 175.199985 231.26102 175.897222 231.775025 176.411227 
C 232.28903 176.925232 232.986267 177.214037 233.71318 177.214037 
z
" clip-path="url(#p4fdf252836)" style="fill: #3e51c5; stroke: #ffffff; stroke-width: 0.390991"/>
    <path d="M 229.883921 190.318696 
C 230.709496 190.318696 231.501369 189.990692 232.085139 189.406922 
C 232.668909 188.823152 232.996913 188.031279 232.996913 187.205704 
C 232.996913 186.380129 232.668909 185.588256 232.085139 185.004486 
C 231.501369 184.420716 230.709496 184.092712 229.883921 184.092712 
C 229.058346 184.092712 228.266473 184.420716 227.682703 185.004486 
C 227.098933 185.588256 226.770928 186.380129 226.770928 187.205704 
C 226.770928 188.031279 227.098933 188.823152 227.682703 189.406922 
C 228.266473 189.990692 229.058346 190.318696 229.883921 190.318696 
z
" clip-path="url(#p4fdf252836)" style="fill: #5470de; stroke: #ffffff; stroke-width: 0.390991"/>
    <path d="M 223.645164 206.06206 
C 225.269195 206.06206 226.826928 205.416826 227.975291 204.268463 
C 229.123654 203.120099 229.768889 201.562366 229.768889 199.938336 
C 229.768889 198.314305 229.123654 196.756572 227.975291 195.608209 
C 226.826928 194.459845 225.269195 193.814611 223.645164 193.814611 
C 222.021134 193.814611 220.4634 194.459845 219.315037 195.608209 
C 218.166674 196.756572 217.52144 198.314305 217.52144 199.938336 
C 217.52144 201.562366 218.166674 203.120099 219.315037 204.268463 
C 220.4634 205.416826 222.021134 206.06206 223.645164 206.06206 
z
" clip-path="url(#p4fdf252836)" style="fill: #b40426; stroke: #ffffff; stroke-width: 0.390991"/>
    <path d="M 221.746746 215.3812 
C 222.465508 215.3812 223.154928 215.095633 223.66317 214.587391 
C 224.171411 214.079149 224.456979 213.389729 224.456979 212.670967 
C 224.456979 211.952205 224.171411 211.262785 223.66317 210.754543 
C 223.154928 210.246302 222.465508 209.960734 221.746746 209.960734 
C 221.027984 209.960734 220.338564 210.246302 219.830322 210.754543 
C 219.322081 211.262785 219.036513 211.952205 219.036513 212.670967 
C 219.036513 213.389729 219.322081 214.079149 219.830322 214.587391 
C 220.338564 215.095633 221.027984 215.3812 221.746746 215.3812 
z
" clip-path="url(#p4fdf252836)" style="fill: #3b4cc0; stroke: #ffffff; stroke-width: 0.390991"/>
    <path d="M 219.28789 228.205016 
C 220.030834 228.205016 220.74345 227.909841 221.268791 227.3845 
C 221.794132 226.859159 222.089307 226.146543 222.089307 225.403599 
C 222.089307 224.660654 221.794132 223.948039 221.268791 223.422698 
C 220.74345 222.897357 220.030834 222.602182 219.28789 222.602182 
C 218.544945 222.602182 217.83233 222.897357 217.306989 223.422698 
C 216.781648 223.948039 216.486473 224.660654 216.486473 225.403599 
C 216.486473 226.146543 216.781648 226.859159 217.306989 227.3845 
C 217.83233 227.909841 218.544945 228.205016 219.28789 228.205016 
z
" clip-path="url(#p4fdf252836)" style="fill: #3e51c5; stroke: #ffffff; stroke-width: 0.390991"/>
    <path d="M 204.8784 243.327172 
C 206.255054 243.327172 207.575509 242.780222 208.54895 241.80678 
C 209.522391 240.833339 210.069342 239.512884 210.069342 238.13623 
C 210.069342 236.759576 209.522391 235.439121 208.54895 234.46568 
C 207.575509 233.492239 206.255054 232.945289 204.8784 232.945289 
C 203.501746 232.945289 202.181291 233.492239 201.20785 234.46568 
C 200.234409 235.439121 199.687458 236.759576 199.687458 238.13623 
C 199.687458 239.512884 200.234409 240.833339 201.20785 241.80678 
C 202.181291 242.780222 203.501746 243.327172 204.8784 243.327172 
z
" clip-path="url(#p4fdf252836)" style="fill: #ead5c9; stroke: #ffffff; stroke-width: 0.390991"/>
    <path d="M 199.121136 256.327233 
C 200.568713 256.327233 201.957196 255.752104 202.980788 254.728513 
C 204.004379 253.704922 204.579507 252.316439 204.579507 250.868862 
C 204.579507 249.421285 204.004379 248.032802 202.980788 247.009211 
C 201.957196 245.985619 200.568713 245.410491 199.121136 245.410491 
C 197.673559 245.410491 196.285077 245.985619 195.261485 247.009211 
C 194.237894 248.032802 193.662765 249.421285 193.662765 250.868862 
C 193.662765 252.316439 194.237894 253.704922 195.261485 254.728513 
C 196.285077 255.752104 197.673559 256.327233 199.121136 256.327233 
z
" clip-path="url(#p4fdf252836)" style="fill: #f2cab5; stroke: #ffffff; stroke-width: 0.390991"/>
    <path d="M 196.592814 266.997595 
C 197.493471 266.997595 198.35736 266.63976 198.994221 266.0029 
C 199.631081 265.366039 199.988916 264.50215 199.988916 263.601493 
C 199.988916 262.700837 199.631081 261.836947 198.994221 261.200087 
C 198.35736 260.563227 197.493471 260.205392 196.592814 260.205392 
C 195.692158 260.205392 194.828268 260.563227 194.191408 261.200087 
C 193.554547 261.836947 193.196713 262.700837 193.196713 263.601493 
C 193.196713 264.50215 193.554547 265.366039 194.191408 266.0029 
C 194.828268 266.63976 195.692158 266.997595 196.592814 266.997595 
z
" clip-path="url(#p4fdf252836)" style="fill: #5673e0; stroke: #ffffff; stroke-width: 0.390991"/>
    <path d="M 196.25304 279.655409 
C 197.133855 279.655409 197.978712 279.305458 198.601542 278.682627 
C 199.224372 278.059797 199.574324 277.21494 199.574324 276.334125 
C 199.574324 275.45331 199.224372 274.608453 198.601542 273.985623 
C 197.978712 273.362792 197.133855 273.012841 196.25304 273.012841 
C 195.372225 273.012841 194.527367 273.362792 193.904537 273.985623 
C 193.281707 274.608453 192.931756 275.45331 192.931756 276.334125 
C 192.931756 277.21494 193.281707 278.059797 193.904537 278.682627 
C 194.527367 279.305458 195.372225 279.655409 196.25304 279.655409 
z
" clip-path="url(#p4fdf252836)" style="fill: #516ddb; stroke: #ffffff; stroke-width: 0.390991"/>
   </g>
   <g id="matplotlib.axis_1">
    <g id="xtick_1">
     <g id="line2d_1">
      <defs>
       <path id="m2a1188b211" d="M 0 0 
L 0 3.5 
" style="stroke: #000000; stroke-width: 0.8"/>
      </defs>
      <g>
       <use xlink:href="#m2a1188b211" x="186.544655" y="288.430125" style="stroke: #000000; stroke-width: 0.8"/>
      </g>
     </g>
     <g id="text_1">
      <!-- 2.5 -->
      <g transform="translate(178.593092 303.028562) scale(0.1 -0.1)">
       <defs>
        <path id="DejaVuSans-32" d="M 1228 531 
L 3431 531 
L 3431 0 
L 469 0 
L 469 531 
Q 828 903 1448 1529 
Q 2069 2156 2228 2338 
Q 2531 2678 2651 2914 
Q 2772 3150 2772 3378 
Q 2772 3750 2511 3984 
Q 2250 4219 1831 4219 
Q 1534 4219 1204 4116 
Q 875 4013 500 3803 
L 500 4441 
Q 881 4594 1212 4672 
Q 1544 4750 1819 4750 
Q 2544 4750 2975 4387 
Q 3406 4025 3406 3419 
Q 3406 3131 3298 2873 
Q 3191 2616 2906 2266 
Q 2828 2175 2409 1742 
Q 1991 1309 1228 531 
z
" transform="scale(0.015625)"/>
        <path id="DejaVuSans-2e" d="M 684 794 
L 1344 794 
L 1344 0 
L 684 0 
L 684 794 
z
" transform="scale(0.015625)"/>
        <path id="DejaVuSans-35" d="M 691 4666 
L 3169 4666 
L 3169 4134 
L 1269 4134 
L 1269 2991 
Q 1406 3038 1543 3061 
Q 1681 3084 1819 3084 
Q 2600 3084 3056 2656 
Q 3513 2228 3513 1497 
Q 3513 744 3044 326 
Q 2575 -91 1722 -91 
Q 1428 -91 1123 -41 
Q 819 9 494 109 
L 494 744 
Q 775 591 1075 516 
Q 1375 441 1709 441 
Q 2250 441 2565 725 
Q 2881 1009 2881 1497 
Q 2881 1984 2565 2268 
Q 2250 2553 1709 2553 
Q 1456 2553 1204 2497 
Q 953 2441 691 2322 
L 691 4666 
z
" transform="scale(0.015625)"/>
       </defs>
       <use xlink:href="#DejaVuSans-32"/>
       <use xlink:href="#DejaVuSans-2e" transform="translate(63.623047 0)"/>
       <use xlink:href="#DejaVuSans-35" transform="translate(95.410156 0)"/>
      </g>
     </g>
    </g>
    <g id="xtick_2">
     <g id="line2d_2">
      <g>
       <use xlink:href="#m2a1188b211" x="234.549831" y="288.430125" style="stroke: #000000; stroke-width: 0.8"/>
      </g>
     </g>
     <g id="text_2">
      <!-- 3.0 -->
      <g transform="translate(226.598268 303.028562) scale(0.1 -0.1)">
       <defs>
        <path id="DejaVuSans-33" d="M 2597 2516 
Q 3050 2419 3304 2112 
Q 3559 1806 3559 1356 
Q 3559 666 3084 287 
Q 2609 -91 1734 -91 
Q 1441 -91 1130 -33 
Q 819 25 488 141 
L 488 750 
Q 750 597 1062 519 
Q 1375 441 1716 441 
Q 2309 441 2620 675 
Q 2931 909 2931 1356 
Q 2931 1769 2642 2001 
Q 2353 2234 1838 2234 
L 1294 2234 
L 1294 2753 
L 1863 2753 
Q 2328 2753 2575 2939 
Q 2822 3125 2822 3475 
Q 2822 3834 2567 4026 
Q 2313 4219 1838 4219 
Q 1578 4219 1281 4162 
Q 984 4106 628 3988 
L 628 4550 
Q 988 4650 1302 4700 
Q 1616 4750 1894 4750 
Q 2613 4750 3031 4423 
Q 3450 4097 3450 3541 
Q 3450 3153 3228 2886 
Q 3006 2619 2597 2516 
z
" transform="scale(0.015625)"/>
        <path id="DejaVuSans-30" d="M 2034 4250 
Q 1547 4250 1301 3770 
Q 1056 3291 1056 2328 
Q 1056 1369 1301 889 
Q 1547 409 2034 409 
Q 2525 409 2770 889 
Q 3016 1369 3016 2328 
Q 3016 3291 2770 3770 
Q 2525 4250 2034 4250 
z
M 2034 4750 
Q 2819 4750 3233 4129 
Q 3647 3509 3647 2328 
Q 3647 1150 3233 529 
Q 2819 -91 2034 -91 
Q 1250 -91 836 529 
Q 422 1150 422 2328 
Q 422 3509 836 4129 
Q 1250 4750 2034 4750 
z
" transform="scale(0.015625)"/>
       </defs>
       <use xlink:href="#DejaVuSans-33"/>
       <use xlink:href="#DejaVuSans-2e" transform="translate(63.623047 0)"/>
       <use xlink:href="#DejaVuSans-30" transform="translate(95.410156 0)"/>
      </g>
     </g>
    </g>
    <g id="xtick_3">
     <g id="line2d_3">
      <g>
       <use xlink:href="#m2a1188b211" x="282.555007" y="288.430125" style="stroke: #000000; stroke-width: 0.8"/>
      </g>
     </g>
     <g id="text_3">
      <!-- 3.5 -->
      <g transform="translate(274.603444 303.028562) scale(0.1 -0.1)">
       <use xlink:href="#DejaVuSans-33"/>
       <use xlink:href="#DejaVuSans-2e" transform="translate(63.623047 0)"/>
       <use xlink:href="#DejaVuSans-35" transform="translate(95.410156 0)"/>
      </g>
     </g>
    </g>
    <g id="xtick_4">
     <g id="line2d_4">
      <g>
       <use xlink:href="#m2a1188b211" x="330.560183" y="288.430125" style="stroke: #000000; stroke-width: 0.8"/>
      </g>
     </g>
     <g id="text_4">
      <!-- 4.0 -->
      <g transform="translate(322.60862 303.028562) scale(0.1 -0.1)">
       <defs>
        <path id="DejaVuSans-34" d="M 2419 4116 
L 825 1625 
L 2419 1625 
L 2419 4116 
z
M 2253 4666 
L 3047 4666 
L 3047 1625 
L 3713 1625 
L 3713 1100 
L 3047 1100 
L 3047 0 
L 2419 0 
L 2419 1100 
L 313 1100 
L 313 1709 
L 2253 4666 
z
" transform="scale(0.015625)"/>
       </defs>
       <use xlink:href="#DejaVuSans-34"/>
       <use xlink:href="#DejaVuSans-2e" transform="translate(63.623047 0)"/>
       <use xlink:href="#DejaVuSans-30" transform="translate(95.410156 0)"/>
      </g>
     </g>
    </g>
    <g id="xtick_5">
     <g id="line2d_5">
      <g>
       <use xlink:href="#m2a1188b211" x="378.565359" y="288.430125" style="stroke: #000000; stroke-width: 0.8"/>
      </g>
     </g>
     <g id="text_5">
      <!-- 4.5 -->
      <g transform="translate(370.613796 303.028562) scale(0.1 -0.1)">
       <use xlink:href="#DejaVuSans-34"/>
       <use xlink:href="#DejaVuSans-2e" transform="translate(63.623047 0)"/>
       <use xlink:href="#DejaVuSans-35" transform="translate(95.410156 0)"/>
      </g>
     </g>
    </g>
    <g id="xtick_6">
     <g id="line2d_6">
      <g>
       <use xlink:href="#m2a1188b211" x="426.570535" y="288.430125" style="stroke: #000000; stroke-width: 0.8"/>
      </g>
     </g>
     <g id="text_6">
      <!-- 5.0 -->
      <g transform="translate(418.618973 303.028562) scale(0.1 -0.1)">
       <use xlink:href="#DejaVuSans-35"/>
       <use xlink:href="#DejaVuSans-2e" transform="translate(63.623047 0)"/>
       <use xlink:href="#DejaVuSans-30" transform="translate(95.410156 0)"/>
      </g>
     </g>
    </g>
    <g id="xtick_7">
     <g id="line2d_7">
      <g>
       <use xlink:href="#m2a1188b211" x="474.575711" y="288.430125" style="stroke: #000000; stroke-width: 0.8"/>
      </g>
     </g>
     <g id="text_7">
      <!-- 5.5 -->
      <g transform="translate(466.624149 303.028562) scale(0.1 -0.1)">
       <use xlink:href="#DejaVuSans-35"/>
       <use xlink:href="#DejaVuSans-2e" transform="translate(63.623047 0)"/>
       <use xlink:href="#DejaVuSans-35" transform="translate(95.410156 0)"/>
      </g>
     </g>
    </g>
    <g id="xtick_8">
     <g id="line2d_8">
      <g>
       <use xlink:href="#m2a1188b211" x="522.580887" y="288.430125" style="stroke: #000000; stroke-width: 0.8"/>
      </g>
     </g>
     <g id="text_8">
      <!-- 6.0 -->
      <g transform="translate(514.629325 303.028562) scale(0.1 -0.1)">
       <defs>
        <path id="DejaVuSans-36" d="M 2113 2584 
Q 1688 2584 1439 2293 
Q 1191 2003 1191 1497 
Q 1191 994 1439 701 
Q 1688 409 2113 409 
Q 2538 409 2786 701 
Q 3034 994 3034 1497 
Q 3034 2003 2786 2293 
Q 2538 2584 2113 2584 
z
M 3366 4563 
L 3366 3988 
Q 3128 4100 2886 4159 
Q 2644 4219 2406 4219 
Q 1781 4219 1451 3797 
Q 1122 3375 1075 2522 
Q 1259 2794 1537 2939 
Q 1816 3084 2150 3084 
Q 2853 3084 3261 2657 
Q 3669 2231 3669 1497 
Q 3669 778 3244 343 
Q 2819 -91 2113 -91 
Q 1303 -91 875 529 
Q 447 1150 447 2328 
Q 447 3434 972 4092 
Q 1497 4750 2381 4750 
Q 2619 4750 2861 4703 
Q 3103 4656 3366 4563 
z
" transform="scale(0.015625)"/>
       </defs>
       <use xlink:href="#DejaVuSans-36"/>
       <use xlink:href="#DejaVuSans-2e" transform="translate(63.623047 0)"/>
       <use xlink:href="#DejaVuSans-30" transform="translate(95.410156 0)"/>
      </g>
     </g>
    </g>
    <g id="text_9">
     <!-- Fold Enrichment -->
     <g transform="translate(317.907656 316.706687) scale(0.1 -0.1)">
      <defs>
       <path id="DejaVuSans-46" d="M 628 4666 
L 3309 4666 
L 3309 4134 
L 1259 4134 
L 1259 2759 
L 3109 2759 
L 3109 2228 
L 1259 2228 
L 1259 0 
L 628 0 
L 628 4666 
z
" transform="scale(0.015625)"/>
       <path id="DejaVuSans-6f" d="M 1959 3097 
Q 1497 3097 1228 2736 
Q 959 2375 959 1747 
Q 959 1119 1226 758 
Q 1494 397 1959 397 
Q 2419 397 2687 759 
Q 2956 1122 2956 1747 
Q 2956 2369 2687 2733 
Q 2419 3097 1959 3097 
z
M 1959 3584 
Q 2709 3584 3137 3096 
Q 3566 2609 3566 1747 
Q 3566 888 3137 398 
Q 2709 -91 1959 -91 
Q 1206 -91 779 398 
Q 353 888 353 1747 
Q 353 2609 779 3096 
Q 1206 3584 1959 3584 
z
" transform="scale(0.015625)"/>
       <path id="DejaVuSans-6c" d="M 603 4863 
L 1178 4863 
L 1178 0 
L 603 0 
L 603 4863 
z
" transform="scale(0.015625)"/>
       <path id="DejaVuSans-64" d="M 2906 2969 
L 2906 4863 
L 3481 4863 
L 3481 0 
L 2906 0 
L 2906 525 
Q 2725 213 2448 61 
Q 2172 -91 1784 -91 
Q 1150 -91 751 415 
Q 353 922 353 1747 
Q 353 2572 751 3078 
Q 1150 3584 1784 3584 
Q 2172 3584 2448 3432 
Q 2725 3281 2906 2969 
z
M 947 1747 
Q 947 1113 1208 752 
Q 1469 391 1925 391 
Q 2381 391 2643 752 
Q 2906 1113 2906 1747 
Q 2906 2381 2643 2742 
Q 2381 3103 1925 3103 
Q 1469 3103 1208 2742 
Q 947 2381 947 1747 
z
" transform="scale(0.015625)"/>
       <path id="DejaVuSans-20" transform="scale(0.015625)"/>
       <path id="DejaVuSans-45" d="M 628 4666 
L 3578 4666 
L 3578 4134 
L 1259 4134 
L 1259 2753 
L 3481 2753 
L 3481 2222 
L 1259 2222 
L 1259 531 
L 3634 531 
L 3634 0 
L 628 0 
L 628 4666 
z
" transform="scale(0.015625)"/>
       <path id="DejaVuSans-6e" d="M 3513 2113 
L 3513 0 
L 2938 0 
L 2938 2094 
Q 2938 2591 2744 2837 
Q 2550 3084 2163 3084 
Q 1697 3084 1428 2787 
Q 1159 2491 1159 1978 
L 1159 0 
L 581 0 
L 581 3500 
L 1159 3500 
L 1159 2956 
Q 1366 3272 1645 3428 
Q 1925 3584 2291 3584 
Q 2894 3584 3203 3211 
Q 3513 2838 3513 2113 
z
" transform="scale(0.015625)"/>
       <path id="DejaVuSans-72" d="M 2631 2963 
Q 2534 3019 2420 3045 
Q 2306 3072 2169 3072 
Q 1681 3072 1420 2755 
Q 1159 2438 1159 1844 
L 1159 0 
L 581 0 
L 581 3500 
L 1159 3500 
L 1159 2956 
Q 1341 3275 1631 3429 
Q 1922 3584 2338 3584 
Q 2397 3584 2469 3576 
Q 2541 3569 2628 3553 
L 2631 2963 
z
" transform="scale(0.015625)"/>
       <path id="DejaVuSans-69" d="M 603 3500 
L 1178 3500 
L 1178 0 
L 603 0 
L 603 3500 
z
M 603 4863 
L 1178 4863 
L 1178 4134 
L 603 4134 
L 603 4863 
z
" transform="scale(0.015625)"/>
       <path id="DejaVuSans-63" d="M 3122 3366 
L 3122 2828 
Q 2878 2963 2633 3030 
Q 2388 3097 2138 3097 
Q 1578 3097 1268 2742 
Q 959 2388 959 1747 
Q 959 1106 1268 751 
Q 1578 397 2138 397 
Q 2388 397 2633 464 
Q 2878 531 3122 666 
L 3122 134 
Q 2881 22 2623 -34 
Q 2366 -91 2075 -91 
Q 1284 -91 818 406 
Q 353 903 353 1747 
Q 353 2603 823 3093 
Q 1294 3584 2113 3584 
Q 2378 3584 2631 3529 
Q 2884 3475 3122 3366 
z
" transform="scale(0.015625)"/>
       <path id="DejaVuSans-68" d="M 3513 2113 
L 3513 0 
L 2938 0 
L 2938 2094 
Q 2938 2591 2744 2837 
Q 2550 3084 2163 3084 
Q 1697 3084 1428 2787 
Q 1159 2491 1159 1978 
L 1159 0 
L 581 0 
L 581 4863 
L 1159 4863 
L 1159 2956 
Q 1366 3272 1645 3428 
Q 1925 3584 2291 3584 
Q 2894 3584 3203 3211 
Q 3513 2838 3513 2113 
z
" transform="scale(0.015625)"/>
       <path id="DejaVuSans-6d" d="M 3328 2828 
Q 3544 3216 3844 3400 
Q 4144 3584 4550 3584 
Q 5097 3584 5394 3201 
Q 5691 2819 5691 2113 
L 5691 0 
L 5113 0 
L 5113 2094 
Q 5113 2597 4934 2840 
Q 4756 3084 4391 3084 
Q 3944 3084 3684 2787 
Q 3425 2491 3425 1978 
L 3425 0 
L 2847 0 
L 2847 2094 
Q 2847 2600 2669 2842 
Q 2491 3084 2119 3084 
Q 1678 3084 1418 2786 
Q 1159 2488 1159 1978 
L 1159 0 
L 581 0 
L 581 3500 
L 1159 3500 
L 1159 2956 
Q 1356 3278 1631 3431 
Q 1906 3584 2284 3584 
Q 2666 3584 2933 3390 
Q 3200 3197 3328 2828 
z
" transform="scale(0.015625)"/>
       <path id="DejaVuSans-65" d="M 3597 1894 
L 3597 1613 
L 953 1613 
Q 991 1019 1311 708 
Q 1631 397 2203 397 
Q 2534 397 2845 478 
Q 3156 559 3463 722 
L 3463 178 
Q 3153 47 2828 -22 
Q 2503 -91 2169 -91 
Q 1331 -91 842 396 
Q 353 884 353 1716 
Q 353 2575 817 3079 
Q 1281 3584 2069 3584 
Q 2775 3584 3186 3129 
Q 3597 2675 3597 1894 
z
M 3022 2063 
Q 3016 2534 2758 2815 
Q 2500 3097 2075 3097 
Q 1594 3097 1305 2825 
Q 1016 2553 972 2059 
L 3022 2063 
z
" transform="scale(0.015625)"/>
       <path id="DejaVuSans-74" d="M 1172 4494 
L 1172 3500 
L 2356 3500 
L 2356 3053 
L 1172 3053 
L 1172 1153 
Q 1172 725 1289 603 
Q 1406 481 1766 481 
L 2356 481 
L 2356 0 
L 1766 0 
Q 1100 0 847 248 
Q 594 497 594 1153 
L 594 3053 
L 172 3053 
L 172 3500 
L 594 3500 
L 594 4494 
L 1172 4494 
z
" transform="scale(0.015625)"/>
      </defs>
      <use xlink:href="#DejaVuSans-46"/>
      <use xlink:href="#DejaVuSans-6f" transform="translate(53.894531 0)"/>
      <use xlink:href="#DejaVuSans-6c" transform="translate(115.076172 0)"/>
      <use xlink:href="#DejaVuSans-64" transform="translate(142.859375 0)"/>
      <use xlink:href="#DejaVuSans-20" transform="translate(206.335938 0)"/>
      <use xlink:href="#DejaVuSans-45" transform="translate(238.123047 0)"/>
      <use xlink:href="#DejaVuSans-6e" transform="translate(301.306641 0)"/>
      <use xlink:href="#DejaVuSans-72" transform="translate(364.685547 0)"/>
      <use xlink:href="#DejaVuSans-69" transform="translate(405.798828 0)"/>
      <use xlink:href="#DejaVuSans-63" transform="translate(433.582031 0)"/>
      <use xlink:href="#DejaVuSans-68" transform="translate(488.5625 0)"/>
      <use xlink:href="#DejaVuSans-6d" transform="translate(551.941406 0)"/>
      <use xlink:href="#DejaVuSans-65" transform="translate(649.353516 0)"/>
      <use xlink:href="#DejaVuSans-6e" transform="translate(710.876953 0)"/>
      <use xlink:href="#DejaVuSans-74" transform="translate(774.255859 0)"/>
     </g>
    </g>
   </g>
   <g id="matplotlib.axis_2">
    <g id="ytick_1">
     <g id="line2d_9">
      <defs>
       <path id="m0b272f56da" d="M 0 0 
L -3.5 0 
" style="stroke: #000000; stroke-width: 0.8"/>
      </defs>
      <g>
       <use xlink:href="#m0b272f56da" x="180.020312" y="34.414125" style="stroke: #000000; stroke-width: 0.8"/>
      </g>
     </g>
     <g id="text_10">
      <!-- nuclear inclusion body -->
      <g transform="translate(60.4125 38.213344) scale(0.1 -0.1)">
       <defs>
        <path id="DejaVuSans-75" d="M 544 1381 
L 544 3500 
L 1119 3500 
L 1119 1403 
Q 1119 906 1312 657 
Q 1506 409 1894 409 
Q 2359 409 2629 706 
Q 2900 1003 2900 1516 
L 2900 3500 
L 3475 3500 
L 3475 0 
L 2900 0 
L 2900 538 
Q 2691 219 2414 64 
Q 2138 -91 1772 -91 
Q 1169 -91 856 284 
Q 544 659 544 1381 
z
M 1991 3584 
L 1991 3584 
z
" transform="scale(0.015625)"/>
        <path id="DejaVuSans-61" d="M 2194 1759 
Q 1497 1759 1228 1600 
Q 959 1441 959 1056 
Q 959 750 1161 570 
Q 1363 391 1709 391 
Q 2188 391 2477 730 
Q 2766 1069 2766 1631 
L 2766 1759 
L 2194 1759 
z
M 3341 1997 
L 3341 0 
L 2766 0 
L 2766 531 
Q 2569 213 2275 61 
Q 1981 -91 1556 -91 
Q 1019 -91 701 211 
Q 384 513 384 1019 
Q 384 1609 779 1909 
Q 1175 2209 1959 2209 
L 2766 2209 
L 2766 2266 
Q 2766 2663 2505 2880 
Q 2244 3097 1772 3097 
Q 1472 3097 1187 3025 
Q 903 2953 641 2809 
L 641 3341 
Q 956 3463 1253 3523 
Q 1550 3584 1831 3584 
Q 2591 3584 2966 3190 
Q 3341 2797 3341 1997 
z
" transform="scale(0.015625)"/>
        <path id="DejaVuSans-73" d="M 2834 3397 
L 2834 2853 
Q 2591 2978 2328 3040 
Q 2066 3103 1784 3103 
Q 1356 3103 1142 2972 
Q 928 2841 928 2578 
Q 928 2378 1081 2264 
Q 1234 2150 1697 2047 
L 1894 2003 
Q 2506 1872 2764 1633 
Q 3022 1394 3022 966 
Q 3022 478 2636 193 
Q 2250 -91 1575 -91 
Q 1294 -91 989 -36 
Q 684 19 347 128 
L 347 722 
Q 666 556 975 473 
Q 1284 391 1588 391 
Q 1994 391 2212 530 
Q 2431 669 2431 922 
Q 2431 1156 2273 1281 
Q 2116 1406 1581 1522 
L 1381 1569 
Q 847 1681 609 1914 
Q 372 2147 372 2553 
Q 372 3047 722 3315 
Q 1072 3584 1716 3584 
Q 2034 3584 2315 3537 
Q 2597 3491 2834 3397 
z
" transform="scale(0.015625)"/>
        <path id="DejaVuSans-62" d="M 3116 1747 
Q 3116 2381 2855 2742 
Q 2594 3103 2138 3103 
Q 1681 3103 1420 2742 
Q 1159 2381 1159 1747 
Q 1159 1113 1420 752 
Q 1681 391 2138 391 
Q 2594 391 2855 752 
Q 3116 1113 3116 1747 
z
M 1159 2969 
Q 1341 3281 1617 3432 
Q 1894 3584 2278 3584 
Q 2916 3584 3314 3078 
Q 3713 2572 3713 1747 
Q 3713 922 3314 415 
Q 2916 -91 2278 -91 
Q 1894 -91 1617 61 
Q 1341 213 1159 525 
L 1159 0 
L 581 0 
L 581 4863 
L 1159 4863 
L 1159 2969 
z
" transform="scale(0.015625)"/>
        <path id="DejaVuSans-79" d="M 2059 -325 
Q 1816 -950 1584 -1140 
Q 1353 -1331 966 -1331 
L 506 -1331 
L 506 -850 
L 844 -850 
Q 1081 -850 1212 -737 
Q 1344 -625 1503 -206 
L 1606 56 
L 191 3500 
L 800 3500 
L 1894 763 
L 2988 3500 
L 3597 3500 
L 2059 -325 
z
" transform="scale(0.015625)"/>
       </defs>
       <use xlink:href="#DejaVuSans-6e"/>
       <use xlink:href="#DejaVuSans-75" transform="translate(63.378906 0)"/>
       <use xlink:href="#DejaVuSans-63" transform="translate(126.757812 0)"/>
       <use xlink:href="#DejaVuSans-6c" transform="translate(181.738281 0)"/>
       <use xlink:href="#DejaVuSans-65" transform="translate(209.521484 0)"/>
       <use xlink:href="#DejaVuSans-61" transform="translate(271.044922 0)"/>
       <use xlink:href="#DejaVuSans-72" transform="translate(332.324219 0)"/>
       <use xlink:href="#DejaVuSans-20" transform="translate(373.4375 0)"/>
       <use xlink:href="#DejaVuSans-69" transform="translate(405.224609 0)"/>
       <use xlink:href="#DejaVuSans-6e" transform="translate(433.007812 0)"/>
       <use xlink:href="#DejaVuSans-63" transform="translate(496.386719 0)"/>
       <use xlink:href="#DejaVuSans-6c" transform="translate(551.367188 0)"/>
       <use xlink:href="#DejaVuSans-75" transform="translate(579.150391 0)"/>
       <use xlink:href="#DejaVuSans-73" transform="translate(642.529297 0)"/>
       <use xlink:href="#DejaVuSans-69" transform="translate(694.628906 0)"/>
       <use xlink:href="#DejaVuSans-6f" transform="translate(722.412109 0)"/>
       <use xlink:href="#DejaVuSans-6e" transform="translate(783.59375 0)"/>
       <use xlink:href="#DejaVuSans-20" transform="translate(846.972656 0)"/>
       <use xlink:href="#DejaVuSans-62" transform="translate(878.759766 0)"/>
       <use xlink:href="#DejaVuSans-6f" transform="translate(942.236328 0)"/>
       <use xlink:href="#DejaVuSans-64" transform="translate(1003.417969 0)"/>
       <use xlink:href="#DejaVuSans-79" transform="translate(1066.894531 0)"/>
      </g>
     </g>
    </g>
    <g id="ytick_2">
     <g id="line2d_10">
      <g>
       <use xlink:href="#m0b272f56da" x="180.020312" y="47.146757" style="stroke: #000000; stroke-width: 0.8"/>
      </g>
     </g>
     <g id="text_11">
      <!-- presynaptic cytosol -->
      <g transform="translate(75.753125 50.945975) scale(0.1 -0.1)">
       <defs>
        <path id="DejaVuSans-70" d="M 1159 525 
L 1159 -1331 
L 581 -1331 
L 581 3500 
L 1159 3500 
L 1159 2969 
Q 1341 3281 1617 3432 
Q 1894 3584 2278 3584 
Q 2916 3584 3314 3078 
Q 3713 2572 3713 1747 
Q 3713 922 3314 415 
Q 2916 -91 2278 -91 
Q 1894 -91 1617 61 
Q 1341 213 1159 525 
z
M 3116 1747 
Q 3116 2381 2855 2742 
Q 2594 3103 2138 3103 
Q 1681 3103 1420 2742 
Q 1159 2381 1159 1747 
Q 1159 1113 1420 752 
Q 1681 391 2138 391 
Q 2594 391 2855 752 
Q 3116 1113 3116 1747 
z
" transform="scale(0.015625)"/>
       </defs>
       <use xlink:href="#DejaVuSans-70"/>
       <use xlink:href="#DejaVuSans-72" transform="translate(63.476562 0)"/>
       <use xlink:href="#DejaVuSans-65" transform="translate(102.339844 0)"/>
       <use xlink:href="#DejaVuSans-73" transform="translate(163.863281 0)"/>
       <use xlink:href="#DejaVuSans-79" transform="translate(215.962891 0)"/>
       <use xlink:href="#DejaVuSans-6e" transform="translate(275.142578 0)"/>
       <use xlink:href="#DejaVuSans-61" transform="translate(338.521484 0)"/>
       <use xlink:href="#DejaVuSans-70" transform="translate(399.800781 0)"/>
       <use xlink:href="#DejaVuSans-74" transform="translate(463.277344 0)"/>
       <use xlink:href="#DejaVuSans-69" transform="translate(502.486328 0)"/>
       <use xlink:href="#DejaVuSans-63" transform="translate(530.269531 0)"/>
       <use xlink:href="#DejaVuSans-20" transform="translate(585.25 0)"/>
       <use xlink:href="#DejaVuSans-63" transform="translate(617.037109 0)"/>
       <use xlink:href="#DejaVuSans-79" transform="translate(672.017578 0)"/>
       <use xlink:href="#DejaVuSans-74" transform="translate(731.197266 0)"/>
       <use xlink:href="#DejaVuSans-6f" transform="translate(770.40625 0)"/>
       <use xlink:href="#DejaVuSans-73" transform="translate(831.587891 0)"/>
       <use xlink:href="#DejaVuSans-6f" transform="translate(883.6875 0)"/>
       <use xlink:href="#DejaVuSans-6c" transform="translate(944.869141 0)"/>
      </g>
     </g>
    </g>
    <g id="ytick_3">
     <g id="line2d_11">
      <g>
       <use xlink:href="#m0b272f56da" x="180.020312" y="59.879388" style="stroke: #000000; stroke-width: 0.8"/>
      </g>
     </g>
     <g id="text_12">
      <!-- axon initial segment -->
      <g transform="translate(71.1125 63.678607) scale(0.1 -0.1)">
       <defs>
        <path id="DejaVuSans-78" d="M 3513 3500 
L 2247 1797 
L 3578 0 
L 2900 0 
L 1881 1375 
L 863 0 
L 184 0 
L 1544 1831 
L 300 3500 
L 978 3500 
L 1906 2253 
L 2834 3500 
L 3513 3500 
z
" transform="scale(0.015625)"/>
        <path id="DejaVuSans-67" d="M 2906 1791 
Q 2906 2416 2648 2759 
Q 2391 3103 1925 3103 
Q 1463 3103 1205 2759 
Q 947 2416 947 1791 
Q 947 1169 1205 825 
Q 1463 481 1925 481 
Q 2391 481 2648 825 
Q 2906 1169 2906 1791 
z
M 3481 434 
Q 3481 -459 3084 -895 
Q 2688 -1331 1869 -1331 
Q 1566 -1331 1297 -1286 
Q 1028 -1241 775 -1147 
L 775 -588 
Q 1028 -725 1275 -790 
Q 1522 -856 1778 -856 
Q 2344 -856 2625 -561 
Q 2906 -266 2906 331 
L 2906 616 
Q 2728 306 2450 153 
Q 2172 0 1784 0 
Q 1141 0 747 490 
Q 353 981 353 1791 
Q 353 2603 747 3093 
Q 1141 3584 1784 3584 
Q 2172 3584 2450 3431 
Q 2728 3278 2906 2969 
L 2906 3500 
L 3481 3500 
L 3481 434 
z
" transform="scale(0.015625)"/>
       </defs>
       <use xlink:href="#DejaVuSans-61"/>
       <use xlink:href="#DejaVuSans-78" transform="translate(61.279297 0)"/>
       <use xlink:href="#DejaVuSans-6f" transform="translate(117.333984 0)"/>
       <use xlink:href="#DejaVuSans-6e" transform="translate(178.515625 0)"/>
       <use xlink:href="#DejaVuSans-20" transform="translate(241.894531 0)"/>
       <use xlink:href="#DejaVuSans-69" transform="translate(273.681641 0)"/>
       <use xlink:href="#DejaVuSans-6e" transform="translate(301.464844 0)"/>
       <use xlink:href="#DejaVuSans-69" transform="translate(364.84375 0)"/>
       <use xlink:href="#DejaVuSans-74" transform="translate(392.626953 0)"/>
       <use xlink:href="#DejaVuSans-69" transform="translate(431.835938 0)"/>
       <use xlink:href="#DejaVuSans-61" transform="translate(459.619141 0)"/>
       <use xlink:href="#DejaVuSans-6c" transform="translate(520.898438 0)"/>
       <use xlink:href="#DejaVuSans-20" transform="translate(548.681641 0)"/>
       <use xlink:href="#DejaVuSans-73" transform="translate(580.46875 0)"/>
       <use xlink:href="#DejaVuSans-65" transform="translate(632.568359 0)"/>
       <use xlink:href="#DejaVuSans-67" transform="translate(694.091797 0)"/>
       <use xlink:href="#DejaVuSans-6d" transform="translate(757.568359 0)"/>
       <use xlink:href="#DejaVuSans-65" transform="translate(854.980469 0)"/>
       <use xlink:href="#DejaVuSans-6e" transform="translate(916.503906 0)"/>
       <use xlink:href="#DejaVuSans-74" transform="translate(979.882812 0)"/>
      </g>
     </g>
    </g>
    <g id="ytick_4">
     <g id="line2d_12">
      <g>
       <use xlink:href="#m0b272f56da" x="180.020312" y="72.61202" style="stroke: #000000; stroke-width: 0.8"/>
      </g>
     </g>
     <g id="text_13">
      <!-- postsynaptic cytosol -->
      <g transform="translate(70.54375 76.411238) scale(0.1 -0.1)">
       <use xlink:href="#DejaVuSans-70"/>
       <use xlink:href="#DejaVuSans-6f" transform="translate(63.476562 0)"/>
       <use xlink:href="#DejaVuSans-73" transform="translate(124.658203 0)"/>
       <use xlink:href="#DejaVuSans-74" transform="translate(176.757812 0)"/>
       <use xlink:href="#DejaVuSans-73" transform="translate(215.966797 0)"/>
       <use xlink:href="#DejaVuSans-79" transform="translate(268.066406 0)"/>
       <use xlink:href="#DejaVuSans-6e" transform="translate(327.246094 0)"/>
       <use xlink:href="#DejaVuSans-61" transform="translate(390.625 0)"/>
       <use xlink:href="#DejaVuSans-70" transform="translate(451.904297 0)"/>
       <use xlink:href="#DejaVuSans-74" transform="translate(515.380859 0)"/>
       <use xlink:href="#DejaVuSans-69" transform="translate(554.589844 0)"/>
       <use xlink:href="#DejaVuSans-63" transform="translate(582.373047 0)"/>
       <use xlink:href="#DejaVuSans-20" transform="translate(637.353516 0)"/>
       <use xlink:href="#DejaVuSans-63" transform="translate(669.140625 0)"/>
       <use xlink:href="#DejaVuSans-79" transform="translate(724.121094 0)"/>
       <use xlink:href="#DejaVuSans-74" transform="translate(783.300781 0)"/>
       <use xlink:href="#DejaVuSans-6f" transform="translate(822.509766 0)"/>
       <use xlink:href="#DejaVuSans-73" transform="translate(883.691406 0)"/>
       <use xlink:href="#DejaVuSans-6f" transform="translate(935.791016 0)"/>
       <use xlink:href="#DejaVuSans-6c" transform="translate(996.972656 0)"/>
      </g>
     </g>
    </g>
    <g id="ytick_5">
     <g id="line2d_13">
      <g>
       <use xlink:href="#m0b272f56da" x="180.020312" y="85.344651" style="stroke: #000000; stroke-width: 0.8"/>
      </g>
     </g>
     <g id="text_14">
      <!-- dendritic shaft -->
      <g transform="translate(100.628125 89.14387) scale(0.1 -0.1)">
       <defs>
        <path id="DejaVuSans-66" d="M 2375 4863 
L 2375 4384 
L 1825 4384 
Q 1516 4384 1395 4259 
Q 1275 4134 1275 3809 
L 1275 3500 
L 2222 3500 
L 2222 3053 
L 1275 3053 
L 1275 0 
L 697 0 
L 697 3053 
L 147 3053 
L 147 3500 
L 697 3500 
L 697 3744 
Q 697 4328 969 4595 
Q 1241 4863 1831 4863 
L 2375 4863 
z
" transform="scale(0.015625)"/>
       </defs>
       <use xlink:href="#DejaVuSans-64"/>
       <use xlink:href="#DejaVuSans-65" transform="translate(63.476562 0)"/>
       <use xlink:href="#DejaVuSans-6e" transform="translate(125 0)"/>
       <use xlink:href="#DejaVuSans-64" transform="translate(188.378906 0)"/>
       <use xlink:href="#DejaVuSans-72" transform="translate(251.855469 0)"/>
       <use xlink:href="#DejaVuSans-69" transform="translate(292.96875 0)"/>
       <use xlink:href="#DejaVuSans-74" transform="translate(320.751953 0)"/>
       <use xlink:href="#DejaVuSans-69" transform="translate(359.960938 0)"/>
       <use xlink:href="#DejaVuSans-63" transform="translate(387.744141 0)"/>
       <use xlink:href="#DejaVuSans-20" transform="translate(442.724609 0)"/>
       <use xlink:href="#DejaVuSans-73" transform="translate(474.511719 0)"/>
       <use xlink:href="#DejaVuSans-68" transform="translate(526.611328 0)"/>
       <use xlink:href="#DejaVuSans-61" transform="translate(589.990234 0)"/>
       <use xlink:href="#DejaVuSans-66" transform="translate(651.269531 0)"/>
       <use xlink:href="#DejaVuSans-74" transform="translate(684.724609 0)"/>
      </g>
     </g>
    </g>
    <g id="ytick_6">
     <g id="line2d_14">
      <g>
       <use xlink:href="#m0b272f56da" x="180.020312" y="98.077283" style="stroke: #000000; stroke-width: 0.8"/>
      </g>
     </g>
     <g id="text_15">
      <!-- clathrin-coated vesicle -->
      <g transform="translate(59.689062 101.876502) scale(0.1 -0.1)">
       <defs>
        <path id="DejaVuSans-2d" d="M 313 2009 
L 1997 2009 
L 1997 1497 
L 313 1497 
L 313 2009 
z
" transform="scale(0.015625)"/>
        <path id="DejaVuSans-76" d="M 191 3500 
L 800 3500 
L 1894 563 
L 2988 3500 
L 3597 3500 
L 2284 0 
L 1503 0 
L 191 3500 
z
" transform="scale(0.015625)"/>
       </defs>
       <use xlink:href="#DejaVuSans-63"/>
       <use xlink:href="#DejaVuSans-6c" transform="translate(54.980469 0)"/>
       <use xlink:href="#DejaVuSans-61" transform="translate(82.763672 0)"/>
       <use xlink:href="#DejaVuSans-74" transform="translate(144.042969 0)"/>
       <use xlink:href="#DejaVuSans-68" transform="translate(183.251953 0)"/>
       <use xlink:href="#DejaVuSans-72" transform="translate(246.630859 0)"/>
       <use xlink:href="#DejaVuSans-69" transform="translate(287.744141 0)"/>
       <use xlink:href="#DejaVuSans-6e" transform="translate(315.527344 0)"/>
       <use xlink:href="#DejaVuSans-2d" transform="translate(378.90625 0)"/>
       <use xlink:href="#DejaVuSans-63" transform="translate(414.990234 0)"/>
       <use xlink:href="#DejaVuSans-6f" transform="translate(469.970703 0)"/>
       <use xlink:href="#DejaVuSans-61" transform="translate(531.152344 0)"/>
       <use xlink:href="#DejaVuSans-74" transform="translate(592.431641 0)"/>
       <use xlink:href="#DejaVuSans-65" transform="translate(631.640625 0)"/>
       <use xlink:href="#DejaVuSans-64" transform="translate(693.164062 0)"/>
       <use xlink:href="#DejaVuSans-20" transform="translate(756.640625 0)"/>
       <use xlink:href="#DejaVuSans-76" transform="translate(788.427734 0)"/>
       <use xlink:href="#DejaVuSans-65" transform="translate(847.607422 0)"/>
       <use xlink:href="#DejaVuSans-73" transform="translate(909.130859 0)"/>
       <use xlink:href="#DejaVuSans-69" transform="translate(961.230469 0)"/>
       <use xlink:href="#DejaVuSans-63" transform="translate(989.013672 0)"/>
       <use xlink:href="#DejaVuSans-6c" transform="translate(1043.994141 0)"/>
       <use xlink:href="#DejaVuSans-65" transform="translate(1071.777344 0)"/>
      </g>
     </g>
    </g>
    <g id="ytick_7">
     <g id="line2d_15">
      <g>
       <use xlink:href="#m0b272f56da" x="180.020312" y="110.809914" style="stroke: #000000; stroke-width: 0.8"/>
      </g>
     </g>
     <g id="text_16">
      <!-- dendritic spine -->
      <g transform="translate(98.742187 114.609133) scale(0.1 -0.1)">
       <use xlink:href="#DejaVuSans-64"/>
       <use xlink:href="#DejaVuSans-65" transform="translate(63.476562 0)"/>
       <use xlink:href="#DejaVuSans-6e" transform="translate(125 0)"/>
       <use xlink:href="#DejaVuSans-64" transform="translate(188.378906 0)"/>
       <use xlink:href="#DejaVuSans-72" transform="translate(251.855469 0)"/>
       <use xlink:href="#DejaVuSans-69" transform="translate(292.96875 0)"/>
       <use xlink:href="#DejaVuSans-74" transform="translate(320.751953 0)"/>
       <use xlink:href="#DejaVuSans-69" transform="translate(359.960938 0)"/>
       <use xlink:href="#DejaVuSans-63" transform="translate(387.744141 0)"/>
       <use xlink:href="#DejaVuSans-20" transform="translate(442.724609 0)"/>
       <use xlink:href="#DejaVuSans-73" transform="translate(474.511719 0)"/>
       <use xlink:href="#DejaVuSans-70" transform="translate(526.611328 0)"/>
       <use xlink:href="#DejaVuSans-69" transform="translate(590.087891 0)"/>
       <use xlink:href="#DejaVuSans-6e" transform="translate(617.871094 0)"/>
       <use xlink:href="#DejaVuSans-65" transform="translate(681.25 0)"/>
      </g>
     </g>
    </g>
    <g id="ytick_8">
     <g id="line2d_16">
      <g>
       <use xlink:href="#m0b272f56da" x="180.020312" y="123.542546" style="stroke: #000000; stroke-width: 0.8"/>
      </g>
     </g>
     <g id="text_17">
      <!-- GABA-ergic synapse -->
      <g transform="translate(72.15 127.341765) scale(0.1 -0.1)">
       <defs>
        <path id="DejaVuSans-47" d="M 3809 666 
L 3809 1919 
L 2778 1919 
L 2778 2438 
L 4434 2438 
L 4434 434 
Q 4069 175 3628 42 
Q 3188 -91 2688 -91 
Q 1594 -91 976 548 
Q 359 1188 359 2328 
Q 359 3472 976 4111 
Q 1594 4750 2688 4750 
Q 3144 4750 3555 4637 
Q 3966 4525 4313 4306 
L 4313 3634 
Q 3963 3931 3569 4081 
Q 3175 4231 2741 4231 
Q 1884 4231 1454 3753 
Q 1025 3275 1025 2328 
Q 1025 1384 1454 906 
Q 1884 428 2741 428 
Q 3075 428 3337 486 
Q 3600 544 3809 666 
z
" transform="scale(0.015625)"/>
        <path id="DejaVuSans-41" d="M 2188 4044 
L 1331 1722 
L 3047 1722 
L 2188 4044 
z
M 1831 4666 
L 2547 4666 
L 4325 0 
L 3669 0 
L 3244 1197 
L 1141 1197 
L 716 0 
L 50 0 
L 1831 4666 
z
" transform="scale(0.015625)"/>
        <path id="DejaVuSans-42" d="M 1259 2228 
L 1259 519 
L 2272 519 
Q 2781 519 3026 730 
Q 3272 941 3272 1375 
Q 3272 1813 3026 2020 
Q 2781 2228 2272 2228 
L 1259 2228 
z
M 1259 4147 
L 1259 2741 
L 2194 2741 
Q 2656 2741 2882 2914 
Q 3109 3088 3109 3444 
Q 3109 3797 2882 3972 
Q 2656 4147 2194 4147 
L 1259 4147 
z
M 628 4666 
L 2241 4666 
Q 2963 4666 3353 4366 
Q 3744 4066 3744 3513 
Q 3744 3084 3544 2831 
Q 3344 2578 2956 2516 
Q 3422 2416 3680 2098 
Q 3938 1781 3938 1306 
Q 3938 681 3513 340 
Q 3088 0 2303 0 
L 628 0 
L 628 4666 
z
" transform="scale(0.015625)"/>
       </defs>
       <use xlink:href="#DejaVuSans-47"/>
       <use xlink:href="#DejaVuSans-41" transform="translate(77.490234 0)"/>
       <use xlink:href="#DejaVuSans-42" transform="translate(145.898438 0)"/>
       <use xlink:href="#DejaVuSans-41" transform="translate(214.501953 0)"/>
       <use xlink:href="#DejaVuSans-2d" transform="translate(280.660156 0)"/>
       <use xlink:href="#DejaVuSans-65" transform="translate(316.744141 0)"/>
       <use xlink:href="#DejaVuSans-72" transform="translate(378.267578 0)"/>
       <use xlink:href="#DejaVuSans-67" transform="translate(417.630859 0)"/>
       <use xlink:href="#DejaVuSans-69" transform="translate(481.107422 0)"/>
       <use xlink:href="#DejaVuSans-63" transform="translate(508.890625 0)"/>
       <use xlink:href="#DejaVuSans-20" transform="translate(563.871094 0)"/>
       <use xlink:href="#DejaVuSans-73" transform="translate(595.658203 0)"/>
       <use xlink:href="#DejaVuSans-79" transform="translate(647.757812 0)"/>
       <use xlink:href="#DejaVuSans-6e" transform="translate(706.9375 0)"/>
       <use xlink:href="#DejaVuSans-61" transform="translate(770.316406 0)"/>
       <use xlink:href="#DejaVuSans-70" transform="translate(831.595703 0)"/>
       <use xlink:href="#DejaVuSans-73" transform="translate(895.072266 0)"/>
       <use xlink:href="#DejaVuSans-65" transform="translate(947.171875 0)"/>
      </g>
     </g>
    </g>
    <g id="ytick_9">
     <g id="line2d_17">
      <g>
       <use xlink:href="#m0b272f56da" x="180.020312" y="136.275178" style="stroke: #000000; stroke-width: 0.8"/>
      </g>
     </g>
     <g id="text_18">
      <!-- postsynaptic density membrane -->
      <g transform="translate(11.55 140.074396) scale(0.1 -0.1)">
       <use xlink:href="#DejaVuSans-70"/>
       <use xlink:href="#DejaVuSans-6f" transform="translate(63.476562 0)"/>
       <use xlink:href="#DejaVuSans-73" transform="translate(124.658203 0)"/>
       <use xlink:href="#DejaVuSans-74" transform="translate(176.757812 0)"/>
       <use xlink:href="#DejaVuSans-73" transform="translate(215.966797 0)"/>
       <use xlink:href="#DejaVuSans-79" transform="translate(268.066406 0)"/>
       <use xlink:href="#DejaVuSans-6e" transform="translate(327.246094 0)"/>
       <use xlink:href="#DejaVuSans-61" transform="translate(390.625 0)"/>
       <use xlink:href="#DejaVuSans-70" transform="translate(451.904297 0)"/>
       <use xlink:href="#DejaVuSans-74" transform="translate(515.380859 0)"/>
       <use xlink:href="#DejaVuSans-69" transform="translate(554.589844 0)"/>
       <use xlink:href="#DejaVuSans-63" transform="translate(582.373047 0)"/>
       <use xlink:href="#DejaVuSans-20" transform="translate(637.353516 0)"/>
       <use xlink:href="#DejaVuSans-64" transform="translate(669.140625 0)"/>
       <use xlink:href="#DejaVuSans-65" transform="translate(732.617188 0)"/>
       <use xlink:href="#DejaVuSans-6e" transform="translate(794.140625 0)"/>
       <use xlink:href="#DejaVuSans-73" transform="translate(857.519531 0)"/>
       <use xlink:href="#DejaVuSans-69" transform="translate(909.619141 0)"/>
       <use xlink:href="#DejaVuSans-74" transform="translate(937.402344 0)"/>
       <use xlink:href="#DejaVuSans-79" transform="translate(976.611328 0)"/>
       <use xlink:href="#DejaVuSans-20" transform="translate(1035.791016 0)"/>
       <use xlink:href="#DejaVuSans-6d" transform="translate(1067.578125 0)"/>
       <use xlink:href="#DejaVuSans-65" transform="translate(1164.990234 0)"/>
       <use xlink:href="#DejaVuSans-6d" transform="translate(1226.513672 0)"/>
       <use xlink:href="#DejaVuSans-62" transform="translate(1323.925781 0)"/>
       <use xlink:href="#DejaVuSans-72" transform="translate(1387.402344 0)"/>
       <use xlink:href="#DejaVuSans-61" transform="translate(1428.515625 0)"/>
       <use xlink:href="#DejaVuSans-6e" transform="translate(1489.794922 0)"/>
       <use xlink:href="#DejaVuSans-65" transform="translate(1553.173828 0)"/>
      </g>
     </g>
    </g>
    <g id="ytick_10">
     <g id="line2d_18">
      <g>
       <use xlink:href="#m0b272f56da" x="180.020312" y="149.007809" style="stroke: #000000; stroke-width: 0.8"/>
      </g>
     </g>
     <g id="text_19">
      <!-- postsynaptic density -->
      <g transform="translate(69.440625 152.807028) scale(0.1 -0.1)">
       <use xlink:href="#DejaVuSans-70"/>
       <use xlink:href="#DejaVuSans-6f" transform="translate(63.476562 0)"/>
       <use xlink:href="#DejaVuSans-73" transform="translate(124.658203 0)"/>
       <use xlink:href="#DejaVuSans-74" transform="translate(176.757812 0)"/>
       <use xlink:href="#DejaVuSans-73" transform="translate(215.966797 0)"/>
       <use xlink:href="#DejaVuSans-79" transform="translate(268.066406 0)"/>
       <use xlink:href="#DejaVuSans-6e" transform="translate(327.246094 0)"/>
       <use xlink:href="#DejaVuSans-61" transform="translate(390.625 0)"/>
       <use xlink:href="#DejaVuSans-70" transform="translate(451.904297 0)"/>
       <use xlink:href="#DejaVuSans-74" transform="translate(515.380859 0)"/>
       <use xlink:href="#DejaVuSans-69" transform="translate(554.589844 0)"/>
       <use xlink:href="#DejaVuSans-63" transform="translate(582.373047 0)"/>
       <use xlink:href="#DejaVuSans-20" transform="translate(637.353516 0)"/>
       <use xlink:href="#DejaVuSans-64" transform="translate(669.140625 0)"/>
       <use xlink:href="#DejaVuSans-65" transform="translate(732.617188 0)"/>
       <use xlink:href="#DejaVuSans-6e" transform="translate(794.140625 0)"/>
       <use xlink:href="#DejaVuSans-73" transform="translate(857.519531 0)"/>
       <use xlink:href="#DejaVuSans-69" transform="translate(909.619141 0)"/>
       <use xlink:href="#DejaVuSans-74" transform="translate(937.402344 0)"/>
       <use xlink:href="#DejaVuSans-79" transform="translate(976.611328 0)"/>
      </g>
     </g>
    </g>
    <g id="ytick_11">
     <g id="line2d_19">
      <g>
       <use xlink:href="#m0b272f56da" x="180.020312" y="161.740441" style="stroke: #000000; stroke-width: 0.8"/>
      </g>
     </g>
     <g id="text_20">
      <!-- postsynapse -->
      <g transform="translate(110.11875 165.53966) scale(0.1 -0.1)">
       <use xlink:href="#DejaVuSans-70"/>
       <use xlink:href="#DejaVuSans-6f" transform="translate(63.476562 0)"/>
       <use xlink:href="#DejaVuSans-73" transform="translate(124.658203 0)"/>
       <use xlink:href="#DejaVuSans-74" transform="translate(176.757812 0)"/>
       <use xlink:href="#DejaVuSans-73" transform="translate(215.966797 0)"/>
       <use xlink:href="#DejaVuSans-79" transform="translate(268.066406 0)"/>
       <use xlink:href="#DejaVuSans-6e" transform="translate(327.246094 0)"/>
       <use xlink:href="#DejaVuSans-61" transform="translate(390.625 0)"/>
       <use xlink:href="#DejaVuSans-70" transform="translate(451.904297 0)"/>
       <use xlink:href="#DejaVuSans-73" transform="translate(515.380859 0)"/>
       <use xlink:href="#DejaVuSans-65" transform="translate(567.480469 0)"/>
      </g>
     </g>
    </g>
    <g id="ytick_12">
     <g id="line2d_20">
      <g>
       <use xlink:href="#m0b272f56da" x="180.020312" y="174.473072" style="stroke: #000000; stroke-width: 0.8"/>
      </g>
     </g>
     <g id="text_21">
      <!-- cell leading edge -->
      <g transform="translate(87.58125 178.272291) scale(0.1 -0.1)">
       <use xlink:href="#DejaVuSans-63"/>
       <use xlink:href="#DejaVuSans-65" transform="translate(54.980469 0)"/>
       <use xlink:href="#DejaVuSans-6c" transform="translate(116.503906 0)"/>
       <use xlink:href="#DejaVuSans-6c" transform="translate(144.287109 0)"/>
       <use xlink:href="#DejaVuSans-20" transform="translate(172.070312 0)"/>
       <use xlink:href="#DejaVuSans-6c" transform="translate(203.857422 0)"/>
       <use xlink:href="#DejaVuSans-65" transform="translate(231.640625 0)"/>
       <use xlink:href="#DejaVuSans-61" transform="translate(293.164062 0)"/>
       <use xlink:href="#DejaVuSans-64" transform="translate(354.443359 0)"/>
       <use xlink:href="#DejaVuSans-69" transform="translate(417.919922 0)"/>
       <use xlink:href="#DejaVuSans-6e" transform="translate(445.703125 0)"/>
       <use xlink:href="#DejaVuSans-67" transform="translate(509.082031 0)"/>
       <use xlink:href="#DejaVuSans-20" transform="translate(572.558594 0)"/>
       <use xlink:href="#DejaVuSans-65" transform="translate(604.345703 0)"/>
       <use xlink:href="#DejaVuSans-64" transform="translate(665.869141 0)"/>
       <use xlink:href="#DejaVuSans-67" transform="translate(729.345703 0)"/>
       <use xlink:href="#DejaVuSans-65" transform="translate(792.822266 0)"/>
      </g>
     </g>
    </g>
    <g id="ytick_13">
     <g id="line2d_21">
      <g>
       <use xlink:href="#m0b272f56da" x="180.020312" y="187.205704" style="stroke: #000000; stroke-width: 0.8"/>
      </g>
     </g>
     <g id="text_22">
      <!-- Schaffer collateral - CA1 synapse -->
      <g transform="translate(7.2 191.004923) scale(0.1 -0.1)">
       <defs>
        <path id="DejaVuSans-53" d="M 3425 4513 
L 3425 3897 
Q 3066 4069 2747 4153 
Q 2428 4238 2131 4238 
Q 1616 4238 1336 4038 
Q 1056 3838 1056 3469 
Q 1056 3159 1242 3001 
Q 1428 2844 1947 2747 
L 2328 2669 
Q 3034 2534 3370 2195 
Q 3706 1856 3706 1288 
Q 3706 609 3251 259 
Q 2797 -91 1919 -91 
Q 1588 -91 1214 -16 
Q 841 59 441 206 
L 441 856 
Q 825 641 1194 531 
Q 1563 422 1919 422 
Q 2459 422 2753 634 
Q 3047 847 3047 1241 
Q 3047 1584 2836 1778 
Q 2625 1972 2144 2069 
L 1759 2144 
Q 1053 2284 737 2584 
Q 422 2884 422 3419 
Q 422 4038 858 4394 
Q 1294 4750 2059 4750 
Q 2388 4750 2728 4690 
Q 3069 4631 3425 4513 
z
" transform="scale(0.015625)"/>
        <path id="DejaVuSans-43" d="M 4122 4306 
L 4122 3641 
Q 3803 3938 3442 4084 
Q 3081 4231 2675 4231 
Q 1875 4231 1450 3742 
Q 1025 3253 1025 2328 
Q 1025 1406 1450 917 
Q 1875 428 2675 428 
Q 3081 428 3442 575 
Q 3803 722 4122 1019 
L 4122 359 
Q 3791 134 3420 21 
Q 3050 -91 2638 -91 
Q 1578 -91 968 557 
Q 359 1206 359 2328 
Q 359 3453 968 4101 
Q 1578 4750 2638 4750 
Q 3056 4750 3426 4639 
Q 3797 4528 4122 4306 
z
" transform="scale(0.015625)"/>
        <path id="DejaVuSans-31" d="M 794 531 
L 1825 531 
L 1825 4091 
L 703 3866 
L 703 4441 
L 1819 4666 
L 2450 4666 
L 2450 531 
L 3481 531 
L 3481 0 
L 794 0 
L 794 531 
z
" transform="scale(0.015625)"/>
       </defs>
       <use xlink:href="#DejaVuSans-53"/>
       <use xlink:href="#DejaVuSans-63" transform="translate(63.476562 0)"/>
       <use xlink:href="#DejaVuSans-68" transform="translate(118.457031 0)"/>
       <use xlink:href="#DejaVuSans-61" transform="translate(181.835938 0)"/>
       <use xlink:href="#DejaVuSans-66" transform="translate(243.115234 0)"/>
       <use xlink:href="#DejaVuSans-66" transform="translate(278.320312 0)"/>
       <use xlink:href="#DejaVuSans-65" transform="translate(313.525391 0)"/>
       <use xlink:href="#DejaVuSans-72" transform="translate(375.048828 0)"/>
       <use xlink:href="#DejaVuSans-20" transform="translate(416.162109 0)"/>
       <use xlink:href="#DejaVuSans-63" transform="translate(447.949219 0)"/>
       <use xlink:href="#DejaVuSans-6f" transform="translate(502.929688 0)"/>
       <use xlink:href="#DejaVuSans-6c" transform="translate(564.111328 0)"/>
       <use xlink:href="#DejaVuSans-6c" transform="translate(591.894531 0)"/>
       <use xlink:href="#DejaVuSans-61" transform="translate(619.677734 0)"/>
       <use xlink:href="#DejaVuSans-74" transform="translate(680.957031 0)"/>
       <use xlink:href="#DejaVuSans-65" transform="translate(720.166016 0)"/>
       <use xlink:href="#DejaVuSans-72" transform="translate(781.689453 0)"/>
       <use xlink:href="#DejaVuSans-61" transform="translate(822.802734 0)"/>
       <use xlink:href="#DejaVuSans-6c" transform="translate(884.082031 0)"/>
       <use xlink:href="#DejaVuSans-20" transform="translate(911.865234 0)"/>
       <use xlink:href="#DejaVuSans-2d" transform="translate(943.652344 0)"/>
       <use xlink:href="#DejaVuSans-20" transform="translate(979.736328 0)"/>
       <use xlink:href="#DejaVuSans-43" transform="translate(1011.523438 0)"/>
       <use xlink:href="#DejaVuSans-41" transform="translate(1081.347656 0)"/>
       <use xlink:href="#DejaVuSans-31" transform="translate(1149.755859 0)"/>
       <use xlink:href="#DejaVuSans-20" transform="translate(1213.378906 0)"/>
       <use xlink:href="#DejaVuSans-73" transform="translate(1245.166016 0)"/>
       <use xlink:href="#DejaVuSans-79" transform="translate(1297.265625 0)"/>
       <use xlink:href="#DejaVuSans-6e" transform="translate(1356.445312 0)"/>
       <use xlink:href="#DejaVuSans-61" transform="translate(1419.824219 0)"/>
       <use xlink:href="#DejaVuSans-70" transform="translate(1481.103516 0)"/>
       <use xlink:href="#DejaVuSans-73" transform="translate(1544.580078 0)"/>
       <use xlink:href="#DejaVuSans-65" transform="translate(1596.679688 0)"/>
      </g>
     </g>
    </g>
    <g id="ytick_14">
     <g id="line2d_22">
      <g>
       <use xlink:href="#m0b272f56da" x="180.020312" y="199.938336" style="stroke: #000000; stroke-width: 0.8"/>
      </g>
     </g>
     <g id="text_23">
      <!-- glutamatergic synapse -->
      <g transform="translate(58.521875 203.737554) scale(0.1 -0.1)">
       <use xlink:href="#DejaVuSans-67"/>
       <use xlink:href="#DejaVuSans-6c" transform="translate(63.476562 0)"/>
       <use xlink:href="#DejaVuSans-75" transform="translate(91.259766 0)"/>
       <use xlink:href="#DejaVuSans-74" transform="translate(154.638672 0)"/>
       <use xlink:href="#DejaVuSans-61" transform="translate(193.847656 0)"/>
       <use xlink:href="#DejaVuSans-6d" transform="translate(255.126953 0)"/>
       <use xlink:href="#DejaVuSans-61" transform="translate(352.539062 0)"/>
       <use xlink:href="#DejaVuSans-74" transform="translate(413.818359 0)"/>
       <use xlink:href="#DejaVuSans-65" transform="translate(453.027344 0)"/>
       <use xlink:href="#DejaVuSans-72" transform="translate(514.550781 0)"/>
       <use xlink:href="#DejaVuSans-67" transform="translate(553.914062 0)"/>
       <use xlink:href="#DejaVuSans-69" transform="translate(617.390625 0)"/>
       <use xlink:href="#DejaVuSans-63" transform="translate(645.173828 0)"/>
       <use xlink:href="#DejaVuSans-20" transform="translate(700.154297 0)"/>
       <use xlink:href="#DejaVuSans-73" transform="translate(731.941406 0)"/>
       <use xlink:href="#DejaVuSans-79" transform="translate(784.041016 0)"/>
       <use xlink:href="#DejaVuSans-6e" transform="translate(843.220703 0)"/>
       <use xlink:href="#DejaVuSans-61" transform="translate(906.599609 0)"/>
       <use xlink:href="#DejaVuSans-70" transform="translate(967.878906 0)"/>
       <use xlink:href="#DejaVuSans-73" transform="translate(1031.355469 0)"/>
       <use xlink:href="#DejaVuSans-65" transform="translate(1083.455078 0)"/>
      </g>
     </g>
    </g>
    <g id="ytick_15">
     <g id="line2d_23">
      <g>
       <use xlink:href="#m0b272f56da" x="180.020312" y="212.670967" style="stroke: #000000; stroke-width: 0.8"/>
      </g>
     </g>
     <g id="text_24">
      <!-- axon cytoplasm -->
      <g transform="translate(93.990625 216.470186) scale(0.1 -0.1)">
       <use xlink:href="#DejaVuSans-61"/>
       <use xlink:href="#DejaVuSans-78" transform="translate(61.279297 0)"/>
       <use xlink:href="#DejaVuSans-6f" transform="translate(117.333984 0)"/>
       <use xlink:href="#DejaVuSans-6e" transform="translate(178.515625 0)"/>
       <use xlink:href="#DejaVuSans-20" transform="translate(241.894531 0)"/>
       <use xlink:href="#DejaVuSans-63" transform="translate(273.681641 0)"/>
       <use xlink:href="#DejaVuSans-79" transform="translate(328.662109 0)"/>
       <use xlink:href="#DejaVuSans-74" transform="translate(387.841797 0)"/>
       <use xlink:href="#DejaVuSans-6f" transform="translate(427.050781 0)"/>
       <use xlink:href="#DejaVuSans-70" transform="translate(488.232422 0)"/>
       <use xlink:href="#DejaVuSans-6c" transform="translate(551.708984 0)"/>
       <use xlink:href="#DejaVuSans-61" transform="translate(579.492188 0)"/>
       <use xlink:href="#DejaVuSans-73" transform="translate(640.771484 0)"/>
       <use xlink:href="#DejaVuSans-6d" transform="translate(692.871094 0)"/>
      </g>
     </g>
    </g>
    <g id="ytick_16">
     <g id="line2d_24">
      <g>
       <use xlink:href="#m0b272f56da" x="180.020312" y="225.403599" style="stroke: #000000; stroke-width: 0.8"/>
      </g>
     </g>
     <g id="text_25">
      <!-- clathrin-coated pit -->
      <g transform="translate(81.13125 229.202817) scale(0.1 -0.1)">
       <use xlink:href="#DejaVuSans-63"/>
       <use xlink:href="#DejaVuSans-6c" transform="translate(54.980469 0)"/>
       <use xlink:href="#DejaVuSans-61" transform="translate(82.763672 0)"/>
       <use xlink:href="#DejaVuSans-74" transform="translate(144.042969 0)"/>
       <use xlink:href="#DejaVuSans-68" transform="translate(183.251953 0)"/>
       <use xlink:href="#DejaVuSans-72" transform="translate(246.630859 0)"/>
       <use xlink:href="#DejaVuSans-69" transform="translate(287.744141 0)"/>
       <use xlink:href="#DejaVuSans-6e" transform="translate(315.527344 0)"/>
       <use xlink:href="#DejaVuSans-2d" transform="translate(378.90625 0)"/>
       <use xlink:href="#DejaVuSans-63" transform="translate(414.990234 0)"/>
       <use xlink:href="#DejaVuSans-6f" transform="translate(469.970703 0)"/>
       <use xlink:href="#DejaVuSans-61" transform="translate(531.152344 0)"/>
       <use xlink:href="#DejaVuSans-74" transform="translate(592.431641 0)"/>
       <use xlink:href="#DejaVuSans-65" transform="translate(631.640625 0)"/>
       <use xlink:href="#DejaVuSans-64" transform="translate(693.164062 0)"/>
       <use xlink:href="#DejaVuSans-20" transform="translate(756.640625 0)"/>
       <use xlink:href="#DejaVuSans-70" transform="translate(788.427734 0)"/>
       <use xlink:href="#DejaVuSans-69" transform="translate(851.904297 0)"/>
       <use xlink:href="#DejaVuSans-74" transform="translate(879.6875 0)"/>
      </g>
     </g>
    </g>
    <g id="ytick_17">
     <g id="line2d_25">
      <g>
       <use xlink:href="#m0b272f56da" x="180.020312" y="238.13623" style="stroke: #000000; stroke-width: 0.8"/>
      </g>
     </g>
     <g id="text_26">
      <!-- axon -->
      <g transform="translate(148.829687 241.935449) scale(0.1 -0.1)">
       <use xlink:href="#DejaVuSans-61"/>
       <use xlink:href="#DejaVuSans-78" transform="translate(61.279297 0)"/>
       <use xlink:href="#DejaVuSans-6f" transform="translate(117.333984 0)"/>
       <use xlink:href="#DejaVuSans-6e" transform="translate(178.515625 0)"/>
      </g>
     </g>
    </g>
    <g id="ytick_18">
     <g id="line2d_26">
      <g>
       <use xlink:href="#m0b272f56da" x="180.020312" y="250.868862" style="stroke: #000000; stroke-width: 0.8"/>
      </g>
     </g>
     <g id="text_27">
      <!-- dendrite -->
      <g transform="translate(130.870312 254.668081) scale(0.1 -0.1)">
       <use xlink:href="#DejaVuSans-64"/>
       <use xlink:href="#DejaVuSans-65" transform="translate(63.476562 0)"/>
       <use xlink:href="#DejaVuSans-6e" transform="translate(125 0)"/>
       <use xlink:href="#DejaVuSans-64" transform="translate(188.378906 0)"/>
       <use xlink:href="#DejaVuSans-72" transform="translate(251.855469 0)"/>
       <use xlink:href="#DejaVuSans-69" transform="translate(292.96875 0)"/>
       <use xlink:href="#DejaVuSans-74" transform="translate(320.751953 0)"/>
       <use xlink:href="#DejaVuSans-65" transform="translate(359.960938 0)"/>
      </g>
     </g>
    </g>
    <g id="ytick_19">
     <g id="line2d_27">
      <g>
       <use xlink:href="#m0b272f56da" x="180.020312" y="263.601493" style="stroke: #000000; stroke-width: 0.8"/>
      </g>
     </g>
     <g id="text_28">
      <!-- presynaptic membrane -->
      <g transform="translate(56.603125 267.400712) scale(0.1 -0.1)">
       <use xlink:href="#DejaVuSans-70"/>
       <use xlink:href="#DejaVuSans-72" transform="translate(63.476562 0)"/>
       <use xlink:href="#DejaVuSans-65" transform="translate(102.339844 0)"/>
       <use xlink:href="#DejaVuSans-73" transform="translate(163.863281 0)"/>
       <use xlink:href="#DejaVuSans-79" transform="translate(215.962891 0)"/>
       <use xlink:href="#DejaVuSans-6e" transform="translate(275.142578 0)"/>
       <use xlink:href="#DejaVuSans-61" transform="translate(338.521484 0)"/>
       <use xlink:href="#DejaVuSans-70" transform="translate(399.800781 0)"/>
       <use xlink:href="#DejaVuSans-74" transform="translate(463.277344 0)"/>
       <use xlink:href="#DejaVuSans-69" transform="translate(502.486328 0)"/>
       <use xlink:href="#DejaVuSans-63" transform="translate(530.269531 0)"/>
       <use xlink:href="#DejaVuSans-20" transform="translate(585.25 0)"/>
       <use xlink:href="#DejaVuSans-6d" transform="translate(617.037109 0)"/>
       <use xlink:href="#DejaVuSans-65" transform="translate(714.449219 0)"/>
       <use xlink:href="#DejaVuSans-6d" transform="translate(775.972656 0)"/>
       <use xlink:href="#DejaVuSans-62" transform="translate(873.384766 0)"/>
       <use xlink:href="#DejaVuSans-72" transform="translate(936.861328 0)"/>
       <use xlink:href="#DejaVuSans-61" transform="translate(977.974609 0)"/>
       <use xlink:href="#DejaVuSans-6e" transform="translate(1039.253906 0)"/>
       <use xlink:href="#DejaVuSans-65" transform="translate(1102.632812 0)"/>
      </g>
     </g>
    </g>
    <g id="ytick_20">
     <g id="line2d_28">
      <g>
       <use xlink:href="#m0b272f56da" x="180.020312" y="276.334125" style="stroke: #000000; stroke-width: 0.8"/>
      </g>
     </g>
     <g id="text_29">
      <!-- growth cone -->
      <g transform="translate(110.945312 280.133344) scale(0.1 -0.1)">
       <defs>
        <path id="DejaVuSans-77" d="M 269 3500 
L 844 3500 
L 1563 769 
L 2278 3500 
L 2956 3500 
L 3675 769 
L 4391 3500 
L 4966 3500 
L 4050 0 
L 3372 0 
L 2619 2869 
L 1863 0 
L 1184 0 
L 269 3500 
z
" transform="scale(0.015625)"/>
       </defs>
       <use xlink:href="#DejaVuSans-67"/>
       <use xlink:href="#DejaVuSans-72" transform="translate(63.476562 0)"/>
       <use xlink:href="#DejaVuSans-6f" transform="translate(102.339844 0)"/>
       <use xlink:href="#DejaVuSans-77" transform="translate(163.521484 0)"/>
       <use xlink:href="#DejaVuSans-74" transform="translate(245.308594 0)"/>
       <use xlink:href="#DejaVuSans-68" transform="translate(284.517578 0)"/>
       <use xlink:href="#DejaVuSans-20" transform="translate(347.896484 0)"/>
       <use xlink:href="#DejaVuSans-63" transform="translate(379.683594 0)"/>
       <use xlink:href="#DejaVuSans-6f" transform="translate(434.664062 0)"/>
       <use xlink:href="#DejaVuSans-6e" transform="translate(495.845703 0)"/>
       <use xlink:href="#DejaVuSans-65" transform="translate(559.224609 0)"/>
      </g>
     </g>
    </g>
   </g>
   <g id="line2d_29"/>
   <g id="line2d_30"/>
   <g id="line2d_31"/>
   <g id="line2d_32"/>
   <g id="line2d_33"/>
   <g id="line2d_34"/>
   <g id="line2d_35"/>
   <g id="line2d_36"/>
   <g id="line2d_37"/>
   <g id="line2d_38"/>
   <g id="line2d_39"/>
   <g id="line2d_40"/>
   <g id="patch_3">
    <path d="M 180.020312 288.430125 
L 180.020312 22.318125 
" style="fill: none; stroke: #000000; stroke-width: 0.8; stroke-linejoin: miter; stroke-linecap: square"/>
   </g>
   <g id="patch_4">
    <path d="M 537.140312 288.430125 
L 537.140312 22.318125 
" style="fill: none; stroke: #000000; stroke-width: 0.8; stroke-linejoin: miter; stroke-linecap: square"/>
   </g>
   <g id="patch_5">
    <path d="M 180.020312 288.430125 
L 537.140312 288.430125 
" style="fill: none; stroke: #000000; stroke-width: 0.8; stroke-linejoin: miter; stroke-linecap: square"/>
   </g>
   <g id="patch_6">
    <path d="M 180.020312 22.318125 
L 537.140312 22.318125 
" style="fill: none; stroke: #000000; stroke-width: 0.8; stroke-linejoin: miter; stroke-linecap: square"/>
   </g>
   <g id="text_30">
    <!-- Top 20 Enriched Cellular Components -->
    <g transform="translate(246.074687 16.318125) scale(0.12 -0.12)">
     <defs>
      <path id="DejaVuSans-54" d="M -19 4666 
L 3928 4666 
L 3928 4134 
L 2272 4134 
L 2272 0 
L 1638 0 
L 1638 4134 
L -19 4134 
L -19 4666 
z
" transform="scale(0.015625)"/>
     </defs>
     <use xlink:href="#DejaVuSans-54"/>
     <use xlink:href="#DejaVuSans-6f" transform="translate(44.083984 0)"/>
     <use xlink:href="#DejaVuSans-70" transform="translate(105.265625 0)"/>
     <use xlink:href="#DejaVuSans-20" transform="translate(168.742188 0)"/>
     <use xlink:href="#DejaVuSans-32" transform="translate(200.529297 0)"/>
     <use xlink:href="#DejaVuSans-30" transform="translate(264.152344 0)"/>
     <use xlink:href="#DejaVuSans-20" transform="translate(327.775391 0)"/>
     <use xlink:href="#DejaVuSans-45" transform="translate(359.5625 0)"/>
     <use xlink:href="#DejaVuSans-6e" transform="translate(422.746094 0)"/>
     <use xlink:href="#DejaVuSans-72" transform="translate(486.125 0)"/>
     <use xlink:href="#DejaVuSans-69" transform="translate(527.238281 0)"/>
     <use xlink:href="#DejaVuSans-63" transform="translate(555.021484 0)"/>
     <use xlink:href="#DejaVuSans-68" transform="translate(610.001953 0)"/>
     <use xlink:href="#DejaVuSans-65" transform="translate(673.380859 0)"/>
     <use xlink:href="#DejaVuSans-64" transform="translate(734.904297 0)"/>
     <use xlink:href="#DejaVuSans-20" transform="translate(798.380859 0)"/>
     <use xlink:href="#DejaVuSans-43" transform="translate(830.167969 0)"/>
     <use xlink:href="#DejaVuSans-65" transform="translate(899.992188 0)"/>
     <use xlink:href="#DejaVuSans-6c" transform="translate(961.515625 0)"/>
     <use xlink:href="#DejaVuSans-6c" transform="translate(989.298828 0)"/>
     <use xlink:href="#DejaVuSans-75" transform="translate(1017.082031 0)"/>
     <use xlink:href="#DejaVuSans-6c" transform="translate(1080.460938 0)"/>
     <use xlink:href="#DejaVuSans-61" transform="translate(1108.244141 0)"/>
     <use xlink:href="#DejaVuSans-72" transform="translate(1169.523438 0)"/>
     <use xlink:href="#DejaVuSans-20" transform="translate(1210.636719 0)"/>
     <use xlink:href="#DejaVuSans-43" transform="translate(1242.423828 0)"/>
     <use xlink:href="#DejaVuSans-6f" transform="translate(1312.248047 0)"/>
     <use xlink:href="#DejaVuSans-6d" transform="translate(1373.429688 0)"/>
     <use xlink:href="#DejaVuSans-70" transform="translate(1470.841797 0)"/>
     <use xlink:href="#DejaVuSans-6f" transform="translate(1534.318359 0)"/>
     <use xlink:href="#DejaVuSans-6e" transform="translate(1595.5 0)"/>
     <use xlink:href="#DejaVuSans-65" transform="translate(1658.878906 0)"/>
     <use xlink:href="#DejaVuSans-6e" transform="translate(1720.402344 0)"/>
     <use xlink:href="#DejaVuSans-74" transform="translate(1783.78125 0)"/>
     <use xlink:href="#DejaVuSans-73" transform="translate(1822.990234 0)"/>
    </g>
   </g>
   <g id="legend_1">
    <g id="patch_7">
     <path d="M 544.140312 206.455625 
L 631.379375 206.455625 
Q 633.379375 206.455625 633.379375 204.455625 
L 633.379375 29.318125 
Q 633.379375 27.318125 631.379375 27.318125 
L 544.140312 27.318125 
Q 542.140312 27.318125 542.140312 29.318125 
L 542.140312 204.455625 
Q 542.140312 206.455625 544.140312 206.455625 
z
" style="fill: #ffffff; opacity: 0.8; stroke: #cccccc; stroke-linejoin: miter"/>
    </g>
    <g id="line2d_41"/>
    <g id="text_31">
     <!-- -log10 FDR -->
     <g transform="translate(574.140312 38.916562) scale(0.1 -0.1)">
      <defs>
       <path id="DejaVuSans-44" d="M 1259 4147 
L 1259 519 
L 2022 519 
Q 2988 519 3436 956 
Q 3884 1394 3884 2338 
Q 3884 3275 3436 3711 
Q 2988 4147 2022 4147 
L 1259 4147 
z
M 628 4666 
L 1925 4666 
Q 3281 4666 3915 4102 
Q 4550 3538 4550 2338 
Q 4550 1131 3912 565 
Q 3275 0 1925 0 
L 628 0 
L 628 4666 
z
" transform="scale(0.015625)"/>
       <path id="DejaVuSans-52" d="M 2841 2188 
Q 3044 2119 3236 1894 
Q 3428 1669 3622 1275 
L 4263 0 
L 3584 0 
L 2988 1197 
Q 2756 1666 2539 1819 
Q 2322 1972 1947 1972 
L 1259 1972 
L 1259 0 
L 628 0 
L 628 4666 
L 2053 4666 
Q 2853 4666 3247 4331 
Q 3641 3997 3641 3322 
Q 3641 2881 3436 2590 
Q 3231 2300 2841 2188 
z
M 1259 4147 
L 1259 2491 
L 2053 2491 
Q 2509 2491 2742 2702 
Q 2975 2913 2975 3322 
Q 2975 3731 2742 3939 
Q 2509 4147 2053 4147 
L 1259 4147 
z
" transform="scale(0.015625)"/>
      </defs>
      <use xlink:href="#DejaVuSans-2d"/>
      <use xlink:href="#DejaVuSans-6c" transform="translate(36.083984 0)"/>
      <use xlink:href="#DejaVuSans-6f" transform="translate(63.867188 0)"/>
      <use xlink:href="#DejaVuSans-67" transform="translate(125.048828 0)"/>
      <use xlink:href="#DejaVuSans-31" transform="translate(188.525391 0)"/>
      <use xlink:href="#DejaVuSans-30" transform="translate(252.148438 0)"/>
      <use xlink:href="#DejaVuSans-20" transform="translate(315.771484 0)"/>
      <use xlink:href="#DejaVuSans-46" transform="translate(347.558594 0)"/>
      <use xlink:href="#DejaVuSans-44" transform="translate(405.078125 0)"/>
      <use xlink:href="#DejaVuSans-52" transform="translate(482.080078 0)"/>
     </g>
    </g>
    <g id="line2d_42">
     <defs>
      <path id="mffd9982f1a" d="M 0 3 
C 0.795609 3 1.55874 2.683901 2.12132 2.12132 
C 2.683901 1.55874 3 0.795609 3 0 
C 3 -0.795609 2.683901 -1.55874 2.12132 -2.12132 
C 1.55874 -2.683901 0.795609 -3 0 -3 
C -0.795609 -3 -1.55874 -2.683901 -2.12132 -2.12132 
C -2.683901 -1.55874 -3 -0.795609 -3 0 
C -3 0.795609 -2.683901 1.55874 -2.12132 2.12132 
C -1.55874 2.683901 -0.795609 3 0 3 
z
" style="stroke: #ffffff; stroke-width: 0.390991"/>
     </defs>
     <g>
      <use xlink:href="#mffd9982f1a" x="556.140312" y="50.094688" style="fill: #5673e0; stroke: #ffffff; stroke-width: 0.390991"/>
     </g>
    </g>
    <g id="text_32">
     <!-- 8 -->
     <g transform="translate(574.140312 53.594688) scale(0.1 -0.1)">
      <defs>
       <path id="DejaVuSans-38" d="M 2034 2216 
Q 1584 2216 1326 1975 
Q 1069 1734 1069 1313 
Q 1069 891 1326 650 
Q 1584 409 2034 409 
Q 2484 409 2743 651 
Q 3003 894 3003 1313 
Q 3003 1734 2745 1975 
Q 2488 2216 2034 2216 
z
M 1403 2484 
Q 997 2584 770 2862 
Q 544 3141 544 3541 
Q 544 4100 942 4425 
Q 1341 4750 2034 4750 
Q 2731 4750 3128 4425 
Q 3525 4100 3525 3541 
Q 3525 3141 3298 2862 
Q 3072 2584 2669 2484 
Q 3125 2378 3379 2068 
Q 3634 1759 3634 1313 
Q 3634 634 3220 271 
Q 2806 -91 2034 -91 
Q 1263 -91 848 271 
Q 434 634 434 1313 
Q 434 1759 690 2068 
Q 947 2378 1403 2484 
z
M 1172 3481 
Q 1172 3119 1398 2916 
Q 1625 2713 2034 2713 
Q 2441 2713 2670 2916 
Q 2900 3119 2900 3481 
Q 2900 3844 2670 4047 
Q 2441 4250 2034 4250 
Q 1625 4250 1398 4047 
Q 1172 3844 1172 3481 
z
" transform="scale(0.015625)"/>
      </defs>
      <use xlink:href="#DejaVuSans-38"/>
     </g>
    </g>
    <g id="line2d_43">
     <defs>
      <path id="mbdc75b87bd" d="M 0 3 
C 0.795609 3 1.55874 2.683901 2.12132 2.12132 
C 2.683901 1.55874 3 0.795609 3 0 
C 3 -0.795609 2.683901 -1.55874 2.12132 -2.12132 
C 1.55874 -2.683901 0.795609 -3 0 -3 
C -0.795609 -3 -1.55874 -2.683901 -2.12132 -2.12132 
C -2.683901 -1.55874 -3 -0.795609 -3 0 
C -3 0.795609 -2.683901 1.55874 -2.12132 2.12132 
C -1.55874 2.683901 -0.795609 3 0 3 
z
" style="stroke: #ffffff; stroke-width: 0.390991"/>
     </defs>
     <g>
      <use xlink:href="#mbdc75b87bd" x="556.140312" y="64.772812" style="fill: #9abbff; stroke: #ffffff; stroke-width: 0.390991"/>
     </g>
    </g>
    <g id="text_33">
     <!-- 16 -->
     <g transform="translate(574.140312 68.272812) scale(0.1 -0.1)">
      <use xlink:href="#DejaVuSans-31"/>
      <use xlink:href="#DejaVuSans-36" transform="translate(63.623047 0)"/>
     </g>
    </g>
    <g id="line2d_44">
     <defs>
      <path id="m068c6029f0" d="M 0 3 
C 0.795609 3 1.55874 2.683901 2.12132 2.12132 
C 2.683901 1.55874 3 0.795609 3 0 
C 3 -0.795609 2.683901 -1.55874 2.12132 -2.12132 
C 1.55874 -2.683901 0.795609 -3 0 -3 
C -0.795609 -3 -1.55874 -2.683901 -2.12132 -2.12132 
C -2.683901 -1.55874 -3 -0.795609 -3 0 
C -3 0.795609 -2.683901 1.55874 -2.12132 2.12132 
C -1.55874 2.683901 -0.795609 3 0 3 
z
" style="stroke: #ffffff; stroke-width: 0.390991"/>
     </defs>
     <g>
      <use xlink:href="#m068c6029f0" x="556.140312" y="79.450938" style="fill: #d9dce1; stroke: #ffffff; stroke-width: 0.390991"/>
     </g>
    </g>
    <g id="text_34">
     <!-- 24 -->
     <g transform="translate(574.140312 82.950938) scale(0.1 -0.1)">
      <use xlink:href="#DejaVuSans-32"/>
      <use xlink:href="#DejaVuSans-34" transform="translate(63.623047 0)"/>
     </g>
    </g>
    <g id="line2d_45">
     <defs>
      <path id="m7f00264c00" d="M 0 3 
C 0.795609 3 1.55874 2.683901 2.12132 2.12132 
C 2.683901 1.55874 3 0.795609 3 0 
C 3 -0.795609 2.683901 -1.55874 2.12132 -2.12132 
C 1.55874 -2.683901 0.795609 -3 0 -3 
C -0.795609 -3 -1.55874 -2.683901 -2.12132 -2.12132 
C -2.683901 -1.55874 -3 -0.795609 -3 0 
C -3 0.795609 -2.683901 1.55874 -2.12132 2.12132 
C -1.55874 2.683901 -0.795609 3 0 3 
z
" style="stroke: #ffffff; stroke-width: 0.390991"/>
     </defs>
     <g>
      <use xlink:href="#m7f00264c00" x="556.140312" y="94.129063" style="fill: #f7b194; stroke: #ffffff; stroke-width: 0.390991"/>
     </g>
    </g>
    <g id="text_35">
     <!-- 32 -->
     <g transform="translate(574.140312 97.629063) scale(0.1 -0.1)">
      <use xlink:href="#DejaVuSans-33"/>
      <use xlink:href="#DejaVuSans-32" transform="translate(63.623047 0)"/>
     </g>
    </g>
    <g id="line2d_46">
     <defs>
      <path id="m006ac9a590" d="M 0 3 
C 0.795609 3 1.55874 2.683901 2.12132 2.12132 
C 2.683901 1.55874 3 0.795609 3 0 
C 3 -0.795609 2.683901 -1.55874 2.12132 -2.12132 
C 1.55874 -2.683901 0.795609 -3 0 -3 
C -0.795609 -3 -1.55874 -2.683901 -2.12132 -2.12132 
C -2.683901 -1.55874 -3 -0.795609 -3 0 
C -3 0.795609 -2.683901 1.55874 -2.12132 2.12132 
C -1.55874 2.683901 -0.795609 3 0 3 
z
" style="stroke: #ffffff; stroke-width: 0.390991"/>
     </defs>
     <g>
      <use xlink:href="#m006ac9a590" x="556.140312" y="108.807187" style="fill: #da5a49; stroke: #ffffff; stroke-width: 0.390991"/>
     </g>
    </g>
    <g id="text_36">
     <!-- 40 -->
     <g transform="translate(574.140312 112.307187) scale(0.1 -0.1)">
      <use xlink:href="#DejaVuSans-34"/>
      <use xlink:href="#DejaVuSans-30" transform="translate(63.623047 0)"/>
     </g>
    </g>
    <g id="line2d_47"/>
    <g id="text_37">
     <!-- Gene Ratio -->
     <g transform="translate(574.140312 126.985313) scale(0.1 -0.1)">
      <use xlink:href="#DejaVuSans-47"/>
      <use xlink:href="#DejaVuSans-65" transform="translate(77.490234 0)"/>
      <use xlink:href="#DejaVuSans-6e" transform="translate(139.013672 0)"/>
      <use xlink:href="#DejaVuSans-65" transform="translate(202.392578 0)"/>
      <use xlink:href="#DejaVuSans-20" transform="translate(263.916016 0)"/>
      <use xlink:href="#DejaVuSans-52" transform="translate(295.703125 0)"/>
      <use xlink:href="#DejaVuSans-61" transform="translate(362.935547 0)"/>
      <use xlink:href="#DejaVuSans-74" transform="translate(424.214844 0)"/>
      <use xlink:href="#DejaVuSans-69" transform="translate(463.423828 0)"/>
      <use xlink:href="#DejaVuSans-6f" transform="translate(491.207031 0)"/>
     </g>
    </g>
    <g id="line2d_48">
     <defs>
      <path id="mc097f34398" d="M 0 3.159199 
C 0.837829 3.159199 1.641456 2.826326 2.233891 2.233891 
C 2.826326 1.641456 3.159199 0.837829 3.159199 0 
C 3.159199 -0.837829 2.826326 -1.641456 2.233891 -2.233891 
C 1.641456 -2.826326 0.837829 -3.159199 0 -3.159199 
C -0.837829 -3.159199 -1.641456 -2.826326 -2.233891 -2.233891 
C -2.826326 -1.641456 -3.159199 -0.837829 -3.159199 0 
C -3.159199 0.837829 -2.826326 1.641456 -2.233891 2.233891 
C -1.641456 2.826326 -0.837829 3.159199 0 3.159199 
z
" style="stroke: #ffffff; stroke-width: 0.390991"/>
     </defs>
     <g>
      <use xlink:href="#mc097f34398" x="556.140312" y="138.163437" style="fill: #333333; stroke: #ffffff; stroke-width: 0.390991"/>
     </g>
    </g>
    <g id="text_38">
     <!-- 0.015 -->
     <g transform="translate(574.140312 141.663437) scale(0.1 -0.1)">
      <use xlink:href="#DejaVuSans-30"/>
      <use xlink:href="#DejaVuSans-2e" transform="translate(63.623047 0)"/>
      <use xlink:href="#DejaVuSans-30" transform="translate(95.410156 0)"/>
      <use xlink:href="#DejaVuSans-31" transform="translate(159.033203 0)"/>
      <use xlink:href="#DejaVuSans-35" transform="translate(222.65625 0)"/>
     </g>
    </g>
    <g id="line2d_49">
     <defs>
      <path id="m6a8930561a" d="M 0 4.058179 
C 1.076242 4.058179 2.108548 3.630583 2.869566 2.869566 
C 3.630583 2.108548 4.058179 1.076242 4.058179 0 
C 4.058179 -1.076242 3.630583 -2.108548 2.869566 -2.869566 
C 2.108548 -3.630583 1.076242 -4.058179 0 -4.058179 
C -1.076242 -4.058179 -2.108548 -3.630583 -2.869566 -2.869566 
C -3.630583 -2.108548 -4.058179 -1.076242 -4.058179 0 
C -4.058179 1.076242 -3.630583 2.108548 -2.869566 2.869566 
C -2.108548 3.630583 -1.076242 4.058179 0 4.058179 
z
" style="stroke: #ffffff; stroke-width: 0.390991"/>
     </defs>
     <g>
      <use xlink:href="#m6a8930561a" x="556.140312" y="152.841563" style="fill: #333333; stroke: #ffffff; stroke-width: 0.390991"/>
     </g>
    </g>
    <g id="text_39">
     <!-- 0.030 -->
     <g transform="translate(574.140312 156.341563) scale(0.1 -0.1)">
      <use xlink:href="#DejaVuSans-30"/>
      <use xlink:href="#DejaVuSans-2e" transform="translate(63.623047 0)"/>
      <use xlink:href="#DejaVuSans-30" transform="translate(95.410156 0)"/>
      <use xlink:href="#DejaVuSans-33" transform="translate(159.033203 0)"/>
      <use xlink:href="#DejaVuSans-30" transform="translate(222.65625 0)"/>
     </g>
    </g>
    <g id="line2d_50">
     <defs>
      <path id="mebb8cf8552" d="M 0 4.791356 
C 1.270682 4.791356 2.489492 4.286508 3.388 3.388 
C 4.286508 2.489492 4.791356 1.270682 4.791356 0 
C 4.791356 -1.270682 4.286508 -2.489492 3.388 -3.388 
C 2.489492 -4.286508 1.270682 -4.791356 0 -4.791356 
C -1.270682 -4.791356 -2.489492 -4.286508 -3.388 -3.388 
C -4.286508 -2.489492 -4.791356 -1.270682 -4.791356 0 
C -4.791356 1.270682 -4.286508 2.489492 -3.388 3.388 
C -2.489492 4.286508 -1.270682 4.791356 0 4.791356 
z
" style="stroke: #ffffff; stroke-width: 0.390991"/>
     </defs>
     <g>
      <use xlink:href="#mebb8cf8552" x="556.140312" y="167.519687" style="fill: #333333; stroke: #ffffff; stroke-width: 0.390991"/>
     </g>
    </g>
    <g id="text_40">
     <!-- 0.045 -->
     <g transform="translate(574.140312 171.019687) scale(0.1 -0.1)">
      <use xlink:href="#DejaVuSans-30"/>
      <use xlink:href="#DejaVuSans-2e" transform="translate(63.623047 0)"/>
      <use xlink:href="#DejaVuSans-30" transform="translate(95.410156 0)"/>
      <use xlink:href="#DejaVuSans-34" transform="translate(159.033203 0)"/>
      <use xlink:href="#DejaVuSans-35" transform="translate(222.65625 0)"/>
     </g>
    </g>
    <g id="line2d_51">
     <defs>
      <path id="m5b72163788" d="M 0 5.426358 
C 1.439087 5.426358 2.819426 4.854603 3.837015 3.837015 
C 4.854603 2.819426 5.426358 1.439087 5.426358 0 
C 5.426358 -1.439087 4.854603 -2.819426 3.837015 -3.837015 
C 2.819426 -4.854603 1.439087 -5.426358 0 -5.426358 
C -1.439087 -5.426358 -2.819426 -4.854603 -3.837015 -3.837015 
C -4.854603 -2.819426 -5.426358 -1.439087 -5.426358 0 
C -5.426358 1.439087 -4.854603 2.819426 -3.837015 3.837015 
C -2.819426 4.854603 -1.439087 5.426358 0 5.426358 
z
" style="stroke: #ffffff; stroke-width: 0.390991"/>
     </defs>
     <g>
      <use xlink:href="#m5b72163788" x="556.140312" y="182.197812" style="fill: #333333; stroke: #ffffff; stroke-width: 0.390991"/>
     </g>
    </g>
    <g id="text_41">
     <!-- 0.060 -->
     <g transform="translate(574.140312 185.697812) scale(0.1 -0.1)">
      <use xlink:href="#DejaVuSans-30"/>
      <use xlink:href="#DejaVuSans-2e" transform="translate(63.623047 0)"/>
      <use xlink:href="#DejaVuSans-30" transform="translate(95.410156 0)"/>
      <use xlink:href="#DejaVuSans-36" transform="translate(159.033203 0)"/>
      <use xlink:href="#DejaVuSans-30" transform="translate(222.65625 0)"/>
     </g>
    </g>
    <g id="line2d_52">
     <defs>
      <path id="m7e08370e5a" d="M 0 5.994467 
C 1.589751 5.994467 3.114604 5.362852 4.238728 4.238728 
C 5.362852 3.114604 5.994467 1.589751 5.994467 0 
C 5.994467 -1.589751 5.362852 -3.114604 4.238728 -4.238728 
C 3.114604 -5.362852 1.589751 -5.994467 0 -5.994467 
C -1.589751 -5.994467 -3.114604 -5.362852 -4.238728 -4.238728 
C -5.362852 -3.114604 -5.994467 -1.589751 -5.994467 0 
C -5.994467 1.589751 -5.362852 3.114604 -4.238728 4.238728 
C -3.114604 5.362852 -1.589751 5.994467 0 5.994467 
z
" style="stroke: #ffffff; stroke-width: 0.390991"/>
     </defs>
     <g>
      <use xlink:href="#m7e08370e5a" x="556.140312" y="196.875937" style="fill: #333333; stroke: #ffffff; stroke-width: 0.390991"/>
     </g>
    </g>
    <g id="text_42">
     <!-- 0.075 -->
     <g transform="translate(574.140312 200.375937) scale(0.1 -0.1)">
      <defs>
       <path id="DejaVuSans-37" d="M 525 4666 
L 3525 4666 
L 3525 4397 
L 1831 0 
L 1172 0 
L 2766 4134 
L 525 4134 
L 525 4666 
z
" transform="scale(0.015625)"/>
      </defs>
      <use xlink:href="#DejaVuSans-30"/>
      <use xlink:href="#DejaVuSans-2e" transform="translate(63.623047 0)"/>
      <use xlink:href="#DejaVuSans-30" transform="translate(95.410156 0)"/>
      <use xlink:href="#DejaVuSans-37" transform="translate(159.033203 0)"/>
      <use xlink:href="#DejaVuSans-35" transform="translate(222.65625 0)"/>
     </g>
    </g>
   </g>
  </g>
 </g>
 <defs>
  <clipPath id="p4fdf252836">
   <rect x="180.020312" y="22.318125" width="357.12" height="266.112"/>
  </clipPath>
 </defs>
</svg>
