<?xml version="1.0" encoding="utf-8" standalone="no"?>
<!DOCTYPE svg PUBLIC "-//W3C//DTD SVG 1.1//EN"
  "http://www.w3.org/Graphics/SVG/1.1/DTD/svg11.dtd">
<svg xmlns:xlink="http://www.w3.org/1999/xlink" width="677.748125pt" height="325.986375pt" viewBox="0 0 677.748125 325.986375" xmlns="http://www.w3.org/2000/svg" version="1.1">
 <metadata>
  <rdf:RDF xmlns:dc="http://purl.org/dc/elements/1.1/" xmlns:cc="http://creativecommons.org/ns#" xmlns:rdf="http://www.w3.org/1999/02/22-rdf-syntax-ns#">
   <cc:Work>
    <dc:type rdf:resource="http://purl.org/dc/dcmitype/StillImage"/>
    <dc:date>2025-12-27T19:25:06.340184</dc:date>
    <dc:format>image/svg+xml</dc:format>
    <dc:creator>
     <cc:Agent>
      <dc:title>Matplotlib v3.10.7, https://matplotlib.org/</dc:title>
     </cc:Agent>
    </dc:creator>
   </cc:Work>
  </rdf:RDF>
 </metadata>
 <defs>
  <style type="text/css">*{stroke-linejoin: round; stroke-linecap: butt}</style>
 </defs>
 <g id="figure_1">
  <g id="patch_1">
   <path d="M 0 325.986375 
L 677.748125 325.986375 
L 677.748125 0 
L 0 0 
z
" style="fill: #ffffff"/>
  </g>
  <g id="axes_1">
   <g id="patch_2">
    <path d="M 217.189063 288.430125 
L 574.309062 288.430125 
L 574.309062 22.318125 
L 217.189063 22.318125 
z
" style="fill: #ffffff"/>
   </g>
   <g id="PathCollection_1">
    <path d="M 558.076335 36.650193 
C 558.669347 36.650193 559.238151 36.414587 559.657474 35.995264 
C 560.076797 35.575941 560.312403 35.007137 560.312403 34.414125 
C 560.312403 33.821113 560.076797 33.252309 559.657474 32.832986 
C 559.238151 32.413663 558.669347 32.178057 558.076335 32.178057 
C 557.483323 32.178057 556.914519 32.413663 556.495196 32.832986 
C 556.075873 33.252309 555.840267 33.821113 555.840267 34.414125 
C 555.840267 35.007137 556.075873 35.575941 556.495196 35.995264 
C 556.914519 36.414587 557.483323 36.650193 558.076335 36.650193 
z
" clip-path="url(#pb5018f904e)" style="fill: #3e51c5; stroke: #ffffff; stroke-width: 0.381226"/>
    <path d="M 530.774877 49.667504 
C 531.443387 49.667504 532.084607 49.401902 532.557315 48.929194 
C 533.030023 48.456486 533.295625 47.815267 533.295625 47.146757 
C 533.295625 46.478247 533.030023 45.837027 532.557315 45.364319 
C 532.084607 44.891611 531.443387 44.626009 530.774877 44.626009 
C 530.106367 44.626009 529.465148 44.891611 528.99244 45.364319 
C 528.519732 45.837027 528.25413 46.478247 528.25413 47.146757 
C 528.25413 47.815267 528.519732 48.456486 528.99244 48.929194 
C 529.465148 49.401902 530.106367 49.667504 530.774877 49.667504 
z
" clip-path="url(#pb5018f904e)" style="fill: #5977e3; stroke: #ffffff; stroke-width: 0.381226"/>
    <path d="M 513.711466 62.655777 
C 514.447773 62.655777 515.154022 62.363239 515.674669 61.842591 
C 516.195317 61.321944 516.487855 60.615695 516.487855 59.879388 
C 516.487855 59.143081 516.195317 58.436833 515.674669 57.916185 
C 515.154022 57.395537 514.447773 57.103 513.711466 57.103 
C 512.975159 57.103 512.268911 57.395537 511.748263 57.916185 
C 511.227615 58.436833 510.935078 59.143081 510.935078 59.879388 
C 510.935078 60.615695 511.227615 61.321944 511.748263 61.842591 
C 512.268911 62.363239 512.975159 62.655777 513.711466 62.655777 
z
" clip-path="url(#pb5018f904e)" style="fill: #7597f6; stroke: #ffffff; stroke-width: 0.381226"/>
    <path d="M 513.711466 74.994683 
C 514.343356 74.994683 514.94945 74.74363 515.396263 74.296817 
C 515.843077 73.850004 516.094129 73.243909 516.094129 72.61202 
C 516.094129 71.98013 515.843077 71.374036 515.396263 70.927223 
C 514.94945 70.480409 514.343356 70.229357 513.711466 70.229357 
C 513.079577 70.229357 512.473482 70.480409 512.026669 70.927223 
C 511.579856 71.374036 511.328803 71.98013 511.328803 72.61202 
C 511.328803 73.243909 511.579856 73.850004 512.026669 74.296817 
C 512.473482 74.74363 513.079577 74.994683 513.711466 74.994683 
z
" clip-path="url(#pb5018f904e)" style="fill: #455cce; stroke: #ffffff; stroke-width: 0.381226"/>
    <path d="M 513.711466 87.727314 
C 514.343356 87.727314 514.94945 87.476262 515.396263 87.029449 
C 515.843077 86.582635 516.094129 85.976541 516.094129 85.344651 
C 516.094129 84.712762 515.843077 84.106668 515.396263 83.659854 
C 514.94945 83.213041 514.343356 82.961988 513.711466 82.961988 
C 513.079577 82.961988 512.473482 83.213041 512.026669 83.659854 
C 511.579856 84.106668 511.328803 84.712762 511.328803 85.344651 
C 511.328803 85.976541 511.579856 86.582635 512.026669 87.029449 
C 512.473482 87.476262 513.079577 87.727314 513.711466 87.727314 
z
" clip-path="url(#pb5018f904e)" style="fill: #455cce; stroke: #ffffff; stroke-width: 0.381226"/>
    <path d="M 462.521233 100.459946 
C 463.153122 100.459946 463.759216 100.208894 464.20603 99.76208 
C 464.652843 99.315267 464.903896 98.709173 464.903896 98.077283 
C 464.903896 97.445393 464.652843 96.839299 464.20603 96.392486 
C 463.759216 95.945672 463.153122 95.69462 462.521233 95.69462 
C 461.889343 95.69462 461.283249 95.945672 460.836435 96.392486 
C 460.389622 96.839299 460.13857 97.445393 460.13857 98.077283 
C 460.13857 98.709173 460.389622 99.315267 460.836435 99.76208 
C 461.283249 100.208894 461.889343 100.459946 462.521233 100.459946 
z
" clip-path="url(#pb5018f904e)" style="fill: #3b4cc0; stroke: #ffffff; stroke-width: 0.381226"/>
    <path d="M 455.336639 113.705673 
C 456.104603 113.705673 456.841216 113.400557 457.384249 112.857525 
C 457.927282 112.314492 458.232397 111.577879 458.232397 110.809914 
C 458.232397 110.04195 457.927282 109.305337 457.384249 108.762304 
C 456.841216 108.219271 456.104603 107.914156 455.336639 107.914156 
C 454.568674 107.914156 453.832061 108.219271 453.289028 108.762304 
C 452.745996 109.305337 452.44088 110.04195 452.44088 110.809914 
C 452.44088 111.577879 452.745996 112.314492 453.289028 112.857525 
C 453.832061 113.400557 454.568674 113.705673 455.336639 113.705673 
z
" clip-path="url(#pb5018f904e)" style="fill: #7093f3; stroke: #ffffff; stroke-width: 0.381226"/>
    <path d="M 406.907152 126.873274 
C 407.790471 126.873274 408.637731 126.522328 409.262332 125.897727 
C 409.886933 125.273125 410.23788 124.425865 410.23788 123.542546 
C 410.23788 122.659227 409.886933 121.811967 409.262332 121.187366 
C 408.637731 120.562764 407.790471 120.211818 406.907152 120.211818 
C 406.023832 120.211818 405.176573 120.562764 404.551971 121.187366 
C 403.92737 121.811967 403.576424 122.659227 403.576424 123.542546 
C 403.576424 124.425865 403.92737 125.273125 404.551971 125.897727 
C 405.176573 126.522328 406.023832 126.873274 406.907152 126.873274 
z
" clip-path="url(#pb5018f904e)" style="fill: #97b8ff; stroke: #ffffff; stroke-width: 0.381226"/>
    <path d="M 355.265505 139.051566 
C 356.001812 139.051566 356.708061 138.759028 357.228709 138.238381 
C 357.749356 137.717733 358.041894 137.011484 358.041894 136.275178 
C 358.041894 135.538871 357.749356 134.832622 357.228709 134.311974 
C 356.708061 133.791327 356.001812 133.498789 355.265505 133.498789 
C 354.529199 133.498789 353.82295 133.791327 353.302302 134.311974 
C 352.781655 134.832622 352.489117 135.538871 352.489117 136.275178 
C 352.489117 137.011484 352.781655 137.717733 353.302302 138.238381 
C 353.82295 138.759028 354.529199 139.051566 355.265505 139.051566 
z
" clip-path="url(#pb5018f904e)" style="fill: #455cce; stroke: #ffffff; stroke-width: 0.381226"/>
    <path d="M 308.318554 152.018208 
C 309.116921 152.018208 309.882697 151.701013 310.447227 151.136483 
C 311.011758 150.571952 311.328953 149.806176 311.328953 149.007809 
C 311.328953 148.209442 311.011758 147.443667 310.447227 146.879136 
C 309.882697 146.314605 309.116921 145.997411 308.318554 145.997411 
C 307.520187 145.997411 306.754411 146.314605 306.189881 146.879136 
C 305.62535 147.443667 305.308155 148.209442 305.308155 149.007809 
C 305.308155 149.806176 305.62535 150.571952 306.189881 151.136483 
C 306.754411 151.701013 307.520187 152.018208 308.318554 152.018208 
z
" clip-path="url(#pb5018f904e)" style="fill: #4a63d3; stroke: #ffffff; stroke-width: 0.381226"/>
    <path d="M 291.887121 164.750839 
C 292.685488 164.750839 293.451264 164.433645 294.015794 163.869114 
C 294.580325 163.304583 294.89752 162.538808 294.89752 161.740441 
C 294.89752 160.942074 294.580325 160.176298 294.015794 159.611767 
C 293.451264 159.047237 292.685488 158.730042 291.887121 158.730042 
C 291.088754 158.730042 290.322979 159.047237 289.758448 159.611767 
C 289.193917 160.176298 288.876722 160.942074 288.876722 161.740441 
C 288.876722 162.538808 289.193917 163.304583 289.758448 163.869114 
C 290.322979 164.433645 291.088754 164.750839 291.887121 164.750839 
z
" clip-path="url(#pb5018f904e)" style="fill: #455cce; stroke: #ffffff; stroke-width: 0.381226"/>
    <path d="M 291.887121 177.803801 
C 292.77044 177.803801 293.6177 177.452854 294.242302 176.828253 
C 294.866903 176.203652 295.217849 175.356392 295.217849 174.473072 
C 295.217849 173.589753 294.866903 172.742493 294.242302 172.117892 
C 293.6177 171.493291 292.77044 171.142344 291.887121 171.142344 
C 291.003802 171.142344 290.156542 171.493291 289.531941 172.117892 
C 288.907339 172.742493 288.556393 173.589753 288.556393 174.473072 
C 288.556393 175.356392 288.907339 176.203652 289.531941 176.828253 
C 290.156542 177.452854 291.003802 177.803801 291.887121 177.803801 
z
" clip-path="url(#pb5018f904e)" style="fill: #6180e9; stroke: #ffffff; stroke-width: 0.381226"/>
    <path d="M 269.704687 190.733864 
C 270.640366 190.733864 271.537848 190.362115 272.199473 189.70049 
C 272.861098 189.038865 273.232847 188.141383 273.232847 187.205704 
C 273.232847 186.270025 272.861098 185.372543 272.199473 184.710918 
C 271.537848 184.049293 270.640366 183.677543 269.704687 183.677543 
C 268.769007 183.677543 267.871525 184.049293 267.2099 184.710918 
C 266.548275 185.372543 266.176526 186.270025 266.176526 187.205704 
C 266.176526 188.141383 266.548275 189.038865 267.2099 189.70049 
C 267.871525 190.362115 268.769007 190.733864 269.704687 190.733864 
z
" clip-path="url(#pb5018f904e)" style="fill: #688aef; stroke: #ffffff; stroke-width: 0.381226"/>
    <path d="M 265.161296 205.036333 
C 266.513301 205.036333 267.810113 204.499176 268.766125 203.543164 
C 269.722137 202.587153 270.259294 201.29034 270.259294 199.938336 
C 270.259294 198.586331 269.722137 197.289518 268.766125 196.333507 
C 267.810113 195.377495 266.513301 194.840338 265.161296 194.840338 
C 263.809291 194.840338 262.512479 195.377495 261.556467 196.333507 
C 260.600456 197.289518 260.063298 198.586331 260.063298 199.938336 
C 260.063298 201.29034 260.600456 202.587153 261.556467 203.543164 
C 262.512479 204.499176 263.809291 205.036333 265.161296 205.036333 
z
" clip-path="url(#pb5018f904e)" style="fill: #f7b194; stroke: #ffffff; stroke-width: 0.381226"/>
    <path d="M 259.425022 216.199128 
C 260.360701 216.199128 261.258183 215.827378 261.919808 215.165753 
C 262.581433 214.504128 262.953182 213.606646 262.953182 212.670967 
C 262.953182 211.735288 262.581433 210.837806 261.919808 210.176181 
C 261.258183 209.514556 260.360701 209.142807 259.425022 209.142807 
C 258.489343 209.142807 257.591861 209.514556 256.930236 210.176181 
C 256.26861 210.837806 255.896861 211.735288 255.896861 212.670967 
C 255.896861 213.606646 256.26861 214.504128 256.930236 215.165753 
C 257.591861 215.827378 258.489343 216.199128 259.425022 216.199128 
z
" clip-path="url(#pb5018f904e)" style="fill: #6384eb; stroke: #ffffff; stroke-width: 0.381226"/>
    <path d="M 242.592822 228.631085 
C 243.448761 228.631085 244.269759 228.291017 244.874999 227.685776 
C 245.48024 227.080536 245.820308 226.259538 245.820308 225.403599 
C 245.820308 224.547659 245.48024 223.726662 244.874999 223.121421 
C 244.269759 222.516181 243.448761 222.176113 242.592822 222.176113 
C 241.736883 222.176113 240.915885 222.516181 240.310645 223.121421 
C 239.705404 223.726662 239.365336 224.547659 239.365336 225.403599 
C 239.365336 226.259538 239.705404 227.080536 240.310645 227.685776 
C 240.915885 228.291017 241.736883 228.631085 242.592822 228.631085 
z
" clip-path="url(#pb5018f904e)" style="fill: #4358cb; stroke: #ffffff; stroke-width: 0.381226"/>
    <path d="M 242.592822 242.115342 
C 243.648095 242.115342 244.660289 241.696078 245.406479 240.949887 
C 246.15267 240.203697 246.571934 239.191503 246.571934 238.13623 
C 246.571934 237.080957 246.15267 236.068764 245.406479 235.322573 
C 244.660289 234.576382 243.648095 234.157118 242.592822 234.157118 
C 241.537549 234.157118 240.525356 234.576382 239.779165 235.322573 
C 239.032974 236.068764 238.61371 237.080957 238.61371 238.13623 
C 238.61371 239.191503 239.032974 240.203697 239.779165 240.949887 
C 240.525356 241.696078 241.537549 242.115342 242.592822 242.115342 
z
" clip-path="url(#pb5018f904e)" style="fill: #85a8fc; stroke: #ffffff; stroke-width: 0.381226"/>
    <path d="M 239.693157 253.989692 
C 240.520811 253.989692 241.314678 253.660862 241.899918 253.075622 
C 242.485158 252.490383 242.813988 251.696516 242.813988 250.868862 
C 242.813988 250.041208 242.485158 249.247341 241.899918 248.662101 
C 241.314678 248.076862 240.520811 247.748031 239.693157 247.748031 
C 238.865504 247.748031 238.071637 248.076862 237.486397 248.662101 
C 236.901157 249.247341 236.572327 250.041208 236.572327 250.868862 
C 236.572327 251.696516 236.901157 252.490383 237.486397 253.075622 
C 238.071637 253.660862 238.865504 253.989692 239.693157 253.989692 
z
" clip-path="url(#pb5018f904e)" style="fill: #3b4cc0; stroke: #ffffff; stroke-width: 0.381226"/>
    <path d="M 234.019901 268.061968 
C 235.202832 268.061968 236.337473 267.591984 237.173932 266.755525 
C 238.010391 265.919066 238.480375 264.784425 238.480375 263.601493 
C 238.480375 262.418562 238.010391 261.283921 237.173932 260.447462 
C 236.337473 259.611003 235.202832 259.141019 234.019901 259.141019 
C 232.836969 259.141019 231.702328 259.611003 230.865869 260.447462 
C 230.02941 261.283921 229.559426 262.418562 229.559426 263.601493 
C 229.559426 264.784425 230.02941 265.919066 230.865869 266.755525 
C 231.702328 267.591984 232.836969 268.061968 234.019901 268.061968 
z
" clip-path="url(#pb5018f904e)" style="fill: #b3cdfb; stroke: #ffffff; stroke-width: 0.381226"/>
    <path d="M 233.42179 282.457849 
C 235.04582 282.457849 236.603554 281.812615 237.751917 280.664252 
C 238.90028 279.515889 239.545514 277.958156 239.545514 276.334125 
C 239.545514 274.710094 238.90028 273.152361 237.751917 272.003998 
C 236.603554 270.855635 235.04582 270.210401 233.42179 270.210401 
C 231.797759 270.210401 230.240026 270.855635 229.091663 272.003998 
C 227.9433 273.152361 227.298065 274.710094 227.298065 276.334125 
C 227.298065 277.958156 227.9433 279.515889 229.091663 280.664252 
C 230.240026 281.812615 231.797759 282.457849 233.42179 282.457849 
z
" clip-path="url(#pb5018f904e)" style="fill: #b40426; stroke: #ffffff; stroke-width: 0.381226"/>
   </g>
   <g id="matplotlib.axis_1">
    <g id="xtick_1">
     <g id="line2d_1">
      <defs>
       <path id="mbb6b9eb7d6" d="M 0 0 
L 0 3.5 
" style="stroke: #000000; stroke-width: 0.8"/>
      </defs>
      <g>
       <use xlink:href="#mbb6b9eb7d6" x="261.299573" y="288.430125" style="stroke: #000000; stroke-width: 0.8"/>
      </g>
     </g>
     <g id="text_1">
      <!-- 4.0 -->
      <g transform="translate(253.34801 303.028562) scale(0.1 -0.1)">
       <defs>
        <path id="DejaVuSans-34" d="M 2419 4116 
L 825 1625 
L 2419 1625 
L 2419 4116 
z
M 2253 4666 
L 3047 4666 
L 3047 1625 
L 3713 1625 
L 3713 1100 
L 3047 1100 
L 3047 0 
L 2419 0 
L 2419 1100 
L 313 1100 
L 313 1709 
L 2253 4666 
z
" transform="scale(0.015625)"/>
        <path id="DejaVuSans-2e" d="M 684 794 
L 1344 794 
L 1344 0 
L 684 0 
L 684 794 
z
" transform="scale(0.015625)"/>
        <path id="DejaVuSans-30" d="M 2034 4250 
Q 1547 4250 1301 3770 
Q 1056 3291 1056 2328 
Q 1056 1369 1301 889 
Q 1547 409 2034 409 
Q 2525 409 2770 889 
Q 3016 1369 3016 2328 
Q 3016 3291 2770 3770 
Q 2525 4250 2034 4250 
z
M 2034 4750 
Q 2819 4750 3233 4129 
Q 3647 3509 3647 2328 
Q 3647 1150 3233 529 
Q 2819 -91 2034 -91 
Q 1250 -91 836 529 
Q 422 1150 422 2328 
Q 422 3509 836 4129 
Q 1250 4750 2034 4750 
z
" transform="scale(0.015625)"/>
       </defs>
       <use xlink:href="#DejaVuSans-34"/>
       <use xlink:href="#DejaVuSans-2e" transform="translate(63.623047 0)"/>
       <use xlink:href="#DejaVuSans-30" transform="translate(95.410156 0)"/>
      </g>
     </g>
    </g>
    <g id="xtick_2">
     <g id="line2d_2">
      <g>
       <use xlink:href="#mbb6b9eb7d6" x="312.932216" y="288.430125" style="stroke: #000000; stroke-width: 0.8"/>
      </g>
     </g>
     <g id="text_2">
      <!-- 4.5 -->
      <g transform="translate(304.980653 303.028562) scale(0.1 -0.1)">
       <defs>
        <path id="DejaVuSans-35" d="M 691 4666 
L 3169 4666 
L 3169 4134 
L 1269 4134 
L 1269 2991 
Q 1406 3038 1543 3061 
Q 1681 3084 1819 3084 
Q 2600 3084 3056 2656 
Q 3513 2228 3513 1497 
Q 3513 744 3044 326 
Q 2575 -91 1722 -91 
Q 1428 -91 1123 -41 
Q 819 9 494 109 
L 494 744 
Q 775 591 1075 516 
Q 1375 441 1709 441 
Q 2250 441 2565 725 
Q 2881 1009 2881 1497 
Q 2881 1984 2565 2268 
Q 2250 2553 1709 2553 
Q 1456 2553 1204 2497 
Q 953 2441 691 2322 
L 691 4666 
z
" transform="scale(0.015625)"/>
       </defs>
       <use xlink:href="#DejaVuSans-34"/>
       <use xlink:href="#DejaVuSans-2e" transform="translate(63.623047 0)"/>
       <use xlink:href="#DejaVuSans-35" transform="translate(95.410156 0)"/>
      </g>
     </g>
    </g>
    <g id="xtick_3">
     <g id="line2d_3">
      <g>
       <use xlink:href="#mbb6b9eb7d6" x="364.564859" y="288.430125" style="stroke: #000000; stroke-width: 0.8"/>
      </g>
     </g>
     <g id="text_3">
      <!-- 5.0 -->
      <g transform="translate(356.613296 303.028562) scale(0.1 -0.1)">
       <use xlink:href="#DejaVuSans-35"/>
       <use xlink:href="#DejaVuSans-2e" transform="translate(63.623047 0)"/>
       <use xlink:href="#DejaVuSans-30" transform="translate(95.410156 0)"/>
      </g>
     </g>
    </g>
    <g id="xtick_4">
     <g id="line2d_4">
      <g>
       <use xlink:href="#mbb6b9eb7d6" x="416.197501" y="288.430125" style="stroke: #000000; stroke-width: 0.8"/>
      </g>
     </g>
     <g id="text_4">
      <!-- 5.5 -->
      <g transform="translate(408.245939 303.028562) scale(0.1 -0.1)">
       <use xlink:href="#DejaVuSans-35"/>
       <use xlink:href="#DejaVuSans-2e" transform="translate(63.623047 0)"/>
       <use xlink:href="#DejaVuSans-35" transform="translate(95.410156 0)"/>
      </g>
     </g>
    </g>
    <g id="xtick_5">
     <g id="line2d_5">
      <g>
       <use xlink:href="#mbb6b9eb7d6" x="467.830144" y="288.430125" style="stroke: #000000; stroke-width: 0.8"/>
      </g>
     </g>
     <g id="text_5">
      <!-- 6.0 -->
      <g transform="translate(459.878582 303.028562) scale(0.1 -0.1)">
       <defs>
        <path id="DejaVuSans-36" d="M 2113 2584 
Q 1688 2584 1439 2293 
Q 1191 2003 1191 1497 
Q 1191 994 1439 701 
Q 1688 409 2113 409 
Q 2538 409 2786 701 
Q 3034 994 3034 1497 
Q 3034 2003 2786 2293 
Q 2538 2584 2113 2584 
z
M 3366 4563 
L 3366 3988 
Q 3128 4100 2886 4159 
Q 2644 4219 2406 4219 
Q 1781 4219 1451 3797 
Q 1122 3375 1075 2522 
Q 1259 2794 1537 2939 
Q 1816 3084 2150 3084 
Q 2853 3084 3261 2657 
Q 3669 2231 3669 1497 
Q 3669 778 3244 343 
Q 2819 -91 2113 -91 
Q 1303 -91 875 529 
Q 447 1150 447 2328 
Q 447 3434 972 4092 
Q 1497 4750 2381 4750 
Q 2619 4750 2861 4703 
Q 3103 4656 3366 4563 
z
" transform="scale(0.015625)"/>
       </defs>
       <use xlink:href="#DejaVuSans-36"/>
       <use xlink:href="#DejaVuSans-2e" transform="translate(63.623047 0)"/>
       <use xlink:href="#DejaVuSans-30" transform="translate(95.410156 0)"/>
      </g>
     </g>
    </g>
    <g id="xtick_6">
     <g id="line2d_6">
      <g>
       <use xlink:href="#mbb6b9eb7d6" x="519.462787" y="288.430125" style="stroke: #000000; stroke-width: 0.8"/>
      </g>
     </g>
     <g id="text_6">
      <!-- 6.5 -->
      <g transform="translate(511.511224 303.028562) scale(0.1 -0.1)">
       <use xlink:href="#DejaVuSans-36"/>
       <use xlink:href="#DejaVuSans-2e" transform="translate(63.623047 0)"/>
       <use xlink:href="#DejaVuSans-35" transform="translate(95.410156 0)"/>
      </g>
     </g>
    </g>
    <g id="xtick_7">
     <g id="line2d_7">
      <g>
       <use xlink:href="#mbb6b9eb7d6" x="571.09543" y="288.430125" style="stroke: #000000; stroke-width: 0.8"/>
      </g>
     </g>
     <g id="text_7">
      <!-- 7.0 -->
      <g transform="translate(563.143867 303.028562) scale(0.1 -0.1)">
       <defs>
        <path id="DejaVuSans-37" d="M 525 4666 
L 3525 4666 
L 3525 4397 
L 1831 0 
L 1172 0 
L 2766 4134 
L 525 4134 
L 525 4666 
z
" transform="scale(0.015625)"/>
       </defs>
       <use xlink:href="#DejaVuSans-37"/>
       <use xlink:href="#DejaVuSans-2e" transform="translate(63.623047 0)"/>
       <use xlink:href="#DejaVuSans-30" transform="translate(95.410156 0)"/>
      </g>
     </g>
    </g>
    <g id="text_8">
     <!-- Fold Enrichment -->
     <g transform="translate(355.076406 316.706687) scale(0.1 -0.1)">
      <defs>
       <path id="DejaVuSans-46" d="M 628 4666 
L 3309 4666 
L 3309 4134 
L 1259 4134 
L 1259 2759 
L 3109 2759 
L 3109 2228 
L 1259 2228 
L 1259 0 
L 628 0 
L 628 4666 
z
" transform="scale(0.015625)"/>
       <path id="DejaVuSans-6f" d="M 1959 3097 
Q 1497 3097 1228 2736 
Q 959 2375 959 1747 
Q 959 1119 1226 758 
Q 1494 397 1959 397 
Q 2419 397 2687 759 
Q 2956 1122 2956 1747 
Q 2956 2369 2687 2733 
Q 2419 3097 1959 3097 
z
M 1959 3584 
Q 2709 3584 3137 3096 
Q 3566 2609 3566 1747 
Q 3566 888 3137 398 
Q 2709 -91 1959 -91 
Q 1206 -91 779 398 
Q 353 888 353 1747 
Q 353 2609 779 3096 
Q 1206 3584 1959 3584 
z
" transform="scale(0.015625)"/>
       <path id="DejaVuSans-6c" d="M 603 4863 
L 1178 4863 
L 1178 0 
L 603 0 
L 603 4863 
z
" transform="scale(0.015625)"/>
       <path id="DejaVuSans-64" d="M 2906 2969 
L 2906 4863 
L 3481 4863 
L 3481 0 
L 2906 0 
L 2906 525 
Q 2725 213 2448 61 
Q 2172 -91 1784 -91 
Q 1150 -91 751 415 
Q 353 922 353 1747 
Q 353 2572 751 3078 
Q 1150 3584 1784 3584 
Q 2172 3584 2448 3432 
Q 2725 3281 2906 2969 
z
M 947 1747 
Q 947 1113 1208 752 
Q 1469 391 1925 391 
Q 2381 391 2643 752 
Q 2906 1113 2906 1747 
Q 2906 2381 2643 2742 
Q 2381 3103 1925 3103 
Q 1469 3103 1208 2742 
Q 947 2381 947 1747 
z
" transform="scale(0.015625)"/>
       <path id="DejaVuSans-20" transform="scale(0.015625)"/>
       <path id="DejaVuSans-45" d="M 628 4666 
L 3578 4666 
L 3578 4134 
L 1259 4134 
L 1259 2753 
L 3481 2753 
L 3481 2222 
L 1259 2222 
L 1259 531 
L 3634 531 
L 3634 0 
L 628 0 
L 628 4666 
z
" transform="scale(0.015625)"/>
       <path id="DejaVuSans-6e" d="M 3513 2113 
L 3513 0 
L 2938 0 
L 2938 2094 
Q 2938 2591 2744 2837 
Q 2550 3084 2163 3084 
Q 1697 3084 1428 2787 
Q 1159 2491 1159 1978 
L 1159 0 
L 581 0 
L 581 3500 
L 1159 3500 
L 1159 2956 
Q 1366 3272 1645 3428 
Q 1925 3584 2291 3584 
Q 2894 3584 3203 3211 
Q 3513 2838 3513 2113 
z
" transform="scale(0.015625)"/>
       <path id="DejaVuSans-72" d="M 2631 2963 
Q 2534 3019 2420 3045 
Q 2306 3072 2169 3072 
Q 1681 3072 1420 2755 
Q 1159 2438 1159 1844 
L 1159 0 
L 581 0 
L 581 3500 
L 1159 3500 
L 1159 2956 
Q 1341 3275 1631 3429 
Q 1922 3584 2338 3584 
Q 2397 3584 2469 3576 
Q 2541 3569 2628 3553 
L 2631 2963 
z
" transform="scale(0.015625)"/>
       <path id="DejaVuSans-69" d="M 603 3500 
L 1178 3500 
L 1178 0 
L 603 0 
L 603 3500 
z
M 603 4863 
L 1178 4863 
L 1178 4134 
L 603 4134 
L 603 4863 
z
" transform="scale(0.015625)"/>
       <path id="DejaVuSans-63" d="M 3122 3366 
L 3122 2828 
Q 2878 2963 2633 3030 
Q 2388 3097 2138 3097 
Q 1578 3097 1268 2742 
Q 959 2388 959 1747 
Q 959 1106 1268 751 
Q 1578 397 2138 397 
Q 2388 397 2633 464 
Q 2878 531 3122 666 
L 3122 134 
Q 2881 22 2623 -34 
Q 2366 -91 2075 -91 
Q 1284 -91 818 406 
Q 353 903 353 1747 
Q 353 2603 823 3093 
Q 1294 3584 2113 3584 
Q 2378 3584 2631 3529 
Q 2884 3475 3122 3366 
z
" transform="scale(0.015625)"/>
       <path id="DejaVuSans-68" d="M 3513 2113 
L 3513 0 
L 2938 0 
L 2938 2094 
Q 2938 2591 2744 2837 
Q 2550 3084 2163 3084 
Q 1697 3084 1428 2787 
Q 1159 2491 1159 1978 
L 1159 0 
L 581 0 
L 581 4863 
L 1159 4863 
L 1159 2956 
Q 1366 3272 1645 3428 
Q 1925 3584 2291 3584 
Q 2894 3584 3203 3211 
Q 3513 2838 3513 2113 
z
" transform="scale(0.015625)"/>
       <path id="DejaVuSans-6d" d="M 3328 2828 
Q 3544 3216 3844 3400 
Q 4144 3584 4550 3584 
Q 5097 3584 5394 3201 
Q 5691 2819 5691 2113 
L 5691 0 
L 5113 0 
L 5113 2094 
Q 5113 2597 4934 2840 
Q 4756 3084 4391 3084 
Q 3944 3084 3684 2787 
Q 3425 2491 3425 1978 
L 3425 0 
L 2847 0 
L 2847 2094 
Q 2847 2600 2669 2842 
Q 2491 3084 2119 3084 
Q 1678 3084 1418 2786 
Q 1159 2488 1159 1978 
L 1159 0 
L 581 0 
L 581 3500 
L 1159 3500 
L 1159 2956 
Q 1356 3278 1631 3431 
Q 1906 3584 2284 3584 
Q 2666 3584 2933 3390 
Q 3200 3197 3328 2828 
z
" transform="scale(0.015625)"/>
       <path id="DejaVuSans-65" d="M 3597 1894 
L 3597 1613 
L 953 1613 
Q 991 1019 1311 708 
Q 1631 397 2203 397 
Q 2534 397 2845 478 
Q 3156 559 3463 722 
L 3463 178 
Q 3153 47 2828 -22 
Q 2503 -91 2169 -91 
Q 1331 -91 842 396 
Q 353 884 353 1716 
Q 353 2575 817 3079 
Q 1281 3584 2069 3584 
Q 2775 3584 3186 3129 
Q 3597 2675 3597 1894 
z
M 3022 2063 
Q 3016 2534 2758 2815 
Q 2500 3097 2075 3097 
Q 1594 3097 1305 2825 
Q 1016 2553 972 2059 
L 3022 2063 
z
" transform="scale(0.015625)"/>
       <path id="DejaVuSans-74" d="M 1172 4494 
L 1172 3500 
L 2356 3500 
L 2356 3053 
L 1172 3053 
L 1172 1153 
Q 1172 725 1289 603 
Q 1406 481 1766 481 
L 2356 481 
L 2356 0 
L 1766 0 
Q 1100 0 847 248 
Q 594 497 594 1153 
L 594 3053 
L 172 3053 
L 172 3500 
L 594 3500 
L 594 4494 
L 1172 4494 
z
" transform="scale(0.015625)"/>
      </defs>
      <use xlink:href="#DejaVuSans-46"/>
      <use xlink:href="#DejaVuSans-6f" transform="translate(53.894531 0)"/>
      <use xlink:href="#DejaVuSans-6c" transform="translate(115.076172 0)"/>
      <use xlink:href="#DejaVuSans-64" transform="translate(142.859375 0)"/>
      <use xlink:href="#DejaVuSans-20" transform="translate(206.335938 0)"/>
      <use xlink:href="#DejaVuSans-45" transform="translate(238.123047 0)"/>
      <use xlink:href="#DejaVuSans-6e" transform="translate(301.306641 0)"/>
      <use xlink:href="#DejaVuSans-72" transform="translate(364.685547 0)"/>
      <use xlink:href="#DejaVuSans-69" transform="translate(405.798828 0)"/>
      <use xlink:href="#DejaVuSans-63" transform="translate(433.582031 0)"/>
      <use xlink:href="#DejaVuSans-68" transform="translate(488.5625 0)"/>
      <use xlink:href="#DejaVuSans-6d" transform="translate(551.941406 0)"/>
      <use xlink:href="#DejaVuSans-65" transform="translate(649.353516 0)"/>
      <use xlink:href="#DejaVuSans-6e" transform="translate(710.876953 0)"/>
      <use xlink:href="#DejaVuSans-74" transform="translate(774.255859 0)"/>
     </g>
    </g>
   </g>
   <g id="matplotlib.axis_2">
    <g id="ytick_1">
     <g id="line2d_8">
      <defs>
       <path id="mb9903a1395" d="M 0 0 
L -3.5 0 
" style="stroke: #000000; stroke-width: 0.8"/>
      </defs>
      <g>
       <use xlink:href="#mb9903a1395" x="217.189063" y="34.414125" style="stroke: #000000; stroke-width: 0.8"/>
      </g>
     </g>
     <g id="text_9">
      <!-- Leber optic atrophy -->
      <g transform="translate(112.348438 38.213344) scale(0.1 -0.1)">
       <defs>
        <path id="DejaVuSans-4c" d="M 628 4666 
L 1259 4666 
L 1259 531 
L 3531 531 
L 3531 0 
L 628 0 
L 628 4666 
z
" transform="scale(0.015625)"/>
        <path id="DejaVuSans-62" d="M 3116 1747 
Q 3116 2381 2855 2742 
Q 2594 3103 2138 3103 
Q 1681 3103 1420 2742 
Q 1159 2381 1159 1747 
Q 1159 1113 1420 752 
Q 1681 391 2138 391 
Q 2594 391 2855 752 
Q 3116 1113 3116 1747 
z
M 1159 2969 
Q 1341 3281 1617 3432 
Q 1894 3584 2278 3584 
Q 2916 3584 3314 3078 
Q 3713 2572 3713 1747 
Q 3713 922 3314 415 
Q 2916 -91 2278 -91 
Q 1894 -91 1617 61 
Q 1341 213 1159 525 
L 1159 0 
L 581 0 
L 581 4863 
L 1159 4863 
L 1159 2969 
z
" transform="scale(0.015625)"/>
        <path id="DejaVuSans-70" d="M 1159 525 
L 1159 -1331 
L 581 -1331 
L 581 3500 
L 1159 3500 
L 1159 2969 
Q 1341 3281 1617 3432 
Q 1894 3584 2278 3584 
Q 2916 3584 3314 3078 
Q 3713 2572 3713 1747 
Q 3713 922 3314 415 
Q 2916 -91 2278 -91 
Q 1894 -91 1617 61 
Q 1341 213 1159 525 
z
M 3116 1747 
Q 3116 2381 2855 2742 
Q 2594 3103 2138 3103 
Q 1681 3103 1420 2742 
Q 1159 2381 1159 1747 
Q 1159 1113 1420 752 
Q 1681 391 2138 391 
Q 2594 391 2855 752 
Q 3116 1113 3116 1747 
z
" transform="scale(0.015625)"/>
        <path id="DejaVuSans-61" d="M 2194 1759 
Q 1497 1759 1228 1600 
Q 959 1441 959 1056 
Q 959 750 1161 570 
Q 1363 391 1709 391 
Q 2188 391 2477 730 
Q 2766 1069 2766 1631 
L 2766 1759 
L 2194 1759 
z
M 3341 1997 
L 3341 0 
L 2766 0 
L 2766 531 
Q 2569 213 2275 61 
Q 1981 -91 1556 -91 
Q 1019 -91 701 211 
Q 384 513 384 1019 
Q 384 1609 779 1909 
Q 1175 2209 1959 2209 
L 2766 2209 
L 2766 2266 
Q 2766 2663 2505 2880 
Q 2244 3097 1772 3097 
Q 1472 3097 1187 3025 
Q 903 2953 641 2809 
L 641 3341 
Q 956 3463 1253 3523 
Q 1550 3584 1831 3584 
Q 2591 3584 2966 3190 
Q 3341 2797 3341 1997 
z
" transform="scale(0.015625)"/>
        <path id="DejaVuSans-79" d="M 2059 -325 
Q 1816 -950 1584 -1140 
Q 1353 -1331 966 -1331 
L 506 -1331 
L 506 -850 
L 844 -850 
Q 1081 -850 1212 -737 
Q 1344 -625 1503 -206 
L 1606 56 
L 191 3500 
L 800 3500 
L 1894 763 
L 2988 3500 
L 3597 3500 
L 2059 -325 
z
" transform="scale(0.015625)"/>
       </defs>
       <use xlink:href="#DejaVuSans-4c"/>
       <use xlink:href="#DejaVuSans-65" transform="translate(53.962891 0)"/>
       <use xlink:href="#DejaVuSans-62" transform="translate(115.486328 0)"/>
       <use xlink:href="#DejaVuSans-65" transform="translate(178.962891 0)"/>
       <use xlink:href="#DejaVuSans-72" transform="translate(240.486328 0)"/>
       <use xlink:href="#DejaVuSans-20" transform="translate(281.599609 0)"/>
       <use xlink:href="#DejaVuSans-6f" transform="translate(313.386719 0)"/>
       <use xlink:href="#DejaVuSans-70" transform="translate(374.568359 0)"/>
       <use xlink:href="#DejaVuSans-74" transform="translate(438.044922 0)"/>
       <use xlink:href="#DejaVuSans-69" transform="translate(477.253906 0)"/>
       <use xlink:href="#DejaVuSans-63" transform="translate(505.037109 0)"/>
       <use xlink:href="#DejaVuSans-20" transform="translate(560.017578 0)"/>
       <use xlink:href="#DejaVuSans-61" transform="translate(591.804688 0)"/>
       <use xlink:href="#DejaVuSans-74" transform="translate(653.083984 0)"/>
       <use xlink:href="#DejaVuSans-72" transform="translate(692.292969 0)"/>
       <use xlink:href="#DejaVuSans-6f" transform="translate(731.15625 0)"/>
       <use xlink:href="#DejaVuSans-70" transform="translate(792.337891 0)"/>
       <use xlink:href="#DejaVuSans-68" transform="translate(855.814453 0)"/>
       <use xlink:href="#DejaVuSans-79" transform="translate(919.193359 0)"/>
      </g>
     </g>
    </g>
    <g id="ytick_2">
     <g id="line2d_9">
      <g>
       <use xlink:href="#mb9903a1395" x="217.189063" y="47.146757" style="stroke: #000000; stroke-width: 0.8"/>
      </g>
     </g>
     <g id="text_10">
      <!-- Centrocecal scotoma -->
      <g transform="translate(104.821875 50.945975) scale(0.1 -0.1)">
       <defs>
        <path id="DejaVuSans-43" d="M 4122 4306 
L 4122 3641 
Q 3803 3938 3442 4084 
Q 3081 4231 2675 4231 
Q 1875 4231 1450 3742 
Q 1025 3253 1025 2328 
Q 1025 1406 1450 917 
Q 1875 428 2675 428 
Q 3081 428 3442 575 
Q 3803 722 4122 1019 
L 4122 359 
Q 3791 134 3420 21 
Q 3050 -91 2638 -91 
Q 1578 -91 968 557 
Q 359 1206 359 2328 
Q 359 3453 968 4101 
Q 1578 4750 2638 4750 
Q 3056 4750 3426 4639 
Q 3797 4528 4122 4306 
z
" transform="scale(0.015625)"/>
        <path id="DejaVuSans-73" d="M 2834 3397 
L 2834 2853 
Q 2591 2978 2328 3040 
Q 2066 3103 1784 3103 
Q 1356 3103 1142 2972 
Q 928 2841 928 2578 
Q 928 2378 1081 2264 
Q 1234 2150 1697 2047 
L 1894 2003 
Q 2506 1872 2764 1633 
Q 3022 1394 3022 966 
Q 3022 478 2636 193 
Q 2250 -91 1575 -91 
Q 1294 -91 989 -36 
Q 684 19 347 128 
L 347 722 
Q 666 556 975 473 
Q 1284 391 1588 391 
Q 1994 391 2212 530 
Q 2431 669 2431 922 
Q 2431 1156 2273 1281 
Q 2116 1406 1581 1522 
L 1381 1569 
Q 847 1681 609 1914 
Q 372 2147 372 2553 
Q 372 3047 722 3315 
Q 1072 3584 1716 3584 
Q 2034 3584 2315 3537 
Q 2597 3491 2834 3397 
z
" transform="scale(0.015625)"/>
       </defs>
       <use xlink:href="#DejaVuSans-43"/>
       <use xlink:href="#DejaVuSans-65" transform="translate(69.824219 0)"/>
       <use xlink:href="#DejaVuSans-6e" transform="translate(131.347656 0)"/>
       <use xlink:href="#DejaVuSans-74" transform="translate(194.726562 0)"/>
       <use xlink:href="#DejaVuSans-72" transform="translate(233.935547 0)"/>
       <use xlink:href="#DejaVuSans-6f" transform="translate(272.798828 0)"/>
       <use xlink:href="#DejaVuSans-63" transform="translate(333.980469 0)"/>
       <use xlink:href="#DejaVuSans-65" transform="translate(388.960938 0)"/>
       <use xlink:href="#DejaVuSans-63" transform="translate(450.484375 0)"/>
       <use xlink:href="#DejaVuSans-61" transform="translate(505.464844 0)"/>
       <use xlink:href="#DejaVuSans-6c" transform="translate(566.744141 0)"/>
       <use xlink:href="#DejaVuSans-20" transform="translate(594.527344 0)"/>
       <use xlink:href="#DejaVuSans-73" transform="translate(626.314453 0)"/>
       <use xlink:href="#DejaVuSans-63" transform="translate(678.414062 0)"/>
       <use xlink:href="#DejaVuSans-6f" transform="translate(733.394531 0)"/>
       <use xlink:href="#DejaVuSans-74" transform="translate(794.576172 0)"/>
       <use xlink:href="#DejaVuSans-6f" transform="translate(833.785156 0)"/>
       <use xlink:href="#DejaVuSans-6d" transform="translate(894.966797 0)"/>
       <use xlink:href="#DejaVuSans-61" transform="translate(992.378906 0)"/>
      </g>
     </g>
    </g>
    <g id="ytick_3">
     <g id="line2d_10">
      <g>
       <use xlink:href="#mb9903a1395" x="217.189063" y="59.879388" style="stroke: #000000; stroke-width: 0.8"/>
      </g>
     </g>
     <g id="text_11">
      <!-- Tics -->
      <g transform="translate(190.907813 63.678607) scale(0.1 -0.1)">
       <defs>
        <path id="DejaVuSans-54" d="M -19 4666 
L 3928 4666 
L 3928 4134 
L 2272 4134 
L 2272 0 
L 1638 0 
L 1638 4134 
L -19 4134 
L -19 4666 
z
" transform="scale(0.015625)"/>
       </defs>
       <use xlink:href="#DejaVuSans-54"/>
       <use xlink:href="#DejaVuSans-69" transform="translate(57.958984 0)"/>
       <use xlink:href="#DejaVuSans-63" transform="translate(85.742188 0)"/>
       <use xlink:href="#DejaVuSans-73" transform="translate(140.722656 0)"/>
      </g>
     </g>
    </g>
    <g id="ytick_4">
     <g id="line2d_11">
      <g>
       <use xlink:href="#mb9903a1395" x="217.189063" y="72.61202" style="stroke: #000000; stroke-width: 0.8"/>
      </g>
     </g>
     <g id="text_12">
      <!-- Reduced contrast sensitivity -->
      <g transform="translate(68.329688 76.411238) scale(0.1 -0.1)">
       <defs>
        <path id="DejaVuSans-52" d="M 2841 2188 
Q 3044 2119 3236 1894 
Q 3428 1669 3622 1275 
L 4263 0 
L 3584 0 
L 2988 1197 
Q 2756 1666 2539 1819 
Q 2322 1972 1947 1972 
L 1259 1972 
L 1259 0 
L 628 0 
L 628 4666 
L 2053 4666 
Q 2853 4666 3247 4331 
Q 3641 3997 3641 3322 
Q 3641 2881 3436 2590 
Q 3231 2300 2841 2188 
z
M 1259 4147 
L 1259 2491 
L 2053 2491 
Q 2509 2491 2742 2702 
Q 2975 2913 2975 3322 
Q 2975 3731 2742 3939 
Q 2509 4147 2053 4147 
L 1259 4147 
z
" transform="scale(0.015625)"/>
        <path id="DejaVuSans-75" d="M 544 1381 
L 544 3500 
L 1119 3500 
L 1119 1403 
Q 1119 906 1312 657 
Q 1506 409 1894 409 
Q 2359 409 2629 706 
Q 2900 1003 2900 1516 
L 2900 3500 
L 3475 3500 
L 3475 0 
L 2900 0 
L 2900 538 
Q 2691 219 2414 64 
Q 2138 -91 1772 -91 
Q 1169 -91 856 284 
Q 544 659 544 1381 
z
M 1991 3584 
L 1991 3584 
z
" transform="scale(0.015625)"/>
        <path id="DejaVuSans-76" d="M 191 3500 
L 800 3500 
L 1894 563 
L 2988 3500 
L 3597 3500 
L 2284 0 
L 1503 0 
L 191 3500 
z
" transform="scale(0.015625)"/>
       </defs>
       <use xlink:href="#DejaVuSans-52"/>
       <use xlink:href="#DejaVuSans-65" transform="translate(64.982422 0)"/>
       <use xlink:href="#DejaVuSans-64" transform="translate(126.505859 0)"/>
       <use xlink:href="#DejaVuSans-75" transform="translate(189.982422 0)"/>
       <use xlink:href="#DejaVuSans-63" transform="translate(253.361328 0)"/>
       <use xlink:href="#DejaVuSans-65" transform="translate(308.341797 0)"/>
       <use xlink:href="#DejaVuSans-64" transform="translate(369.865234 0)"/>
       <use xlink:href="#DejaVuSans-20" transform="translate(433.341797 0)"/>
       <use xlink:href="#DejaVuSans-63" transform="translate(465.128906 0)"/>
       <use xlink:href="#DejaVuSans-6f" transform="translate(520.109375 0)"/>
       <use xlink:href="#DejaVuSans-6e" transform="translate(581.291016 0)"/>
       <use xlink:href="#DejaVuSans-74" transform="translate(644.669922 0)"/>
       <use xlink:href="#DejaVuSans-72" transform="translate(683.878906 0)"/>
       <use xlink:href="#DejaVuSans-61" transform="translate(724.992188 0)"/>
       <use xlink:href="#DejaVuSans-73" transform="translate(786.271484 0)"/>
       <use xlink:href="#DejaVuSans-74" transform="translate(838.371094 0)"/>
       <use xlink:href="#DejaVuSans-20" transform="translate(877.580078 0)"/>
       <use xlink:href="#DejaVuSans-73" transform="translate(909.367188 0)"/>
       <use xlink:href="#DejaVuSans-65" transform="translate(961.466797 0)"/>
       <use xlink:href="#DejaVuSans-6e" transform="translate(1022.990234 0)"/>
       <use xlink:href="#DejaVuSans-73" transform="translate(1086.369141 0)"/>
       <use xlink:href="#DejaVuSans-69" transform="translate(1138.46875 0)"/>
       <use xlink:href="#DejaVuSans-74" transform="translate(1166.251953 0)"/>
       <use xlink:href="#DejaVuSans-69" transform="translate(1205.460938 0)"/>
       <use xlink:href="#DejaVuSans-76" transform="translate(1233.244141 0)"/>
       <use xlink:href="#DejaVuSans-69" transform="translate(1292.423828 0)"/>
       <use xlink:href="#DejaVuSans-74" transform="translate(1320.207031 0)"/>
       <use xlink:href="#DejaVuSans-79" transform="translate(1359.416016 0)"/>
      </g>
     </g>
    </g>
    <g id="ytick_5">
     <g id="line2d_12">
      <g>
       <use xlink:href="#mb9903a1395" x="217.189063" y="85.344651" style="stroke: #000000; stroke-width: 0.8"/>
      </g>
     </g>
     <g id="text_13">
      <!-- Central retinal vessel vascular tortuosity -->
      <g transform="translate(7.2 89.14387) scale(0.1 -0.1)">
       <use xlink:href="#DejaVuSans-43"/>
       <use xlink:href="#DejaVuSans-65" transform="translate(69.824219 0)"/>
       <use xlink:href="#DejaVuSans-6e" transform="translate(131.347656 0)"/>
       <use xlink:href="#DejaVuSans-74" transform="translate(194.726562 0)"/>
       <use xlink:href="#DejaVuSans-72" transform="translate(233.935547 0)"/>
       <use xlink:href="#DejaVuSans-61" transform="translate(275.048828 0)"/>
       <use xlink:href="#DejaVuSans-6c" transform="translate(336.328125 0)"/>
       <use xlink:href="#DejaVuSans-20" transform="translate(364.111328 0)"/>
       <use xlink:href="#DejaVuSans-72" transform="translate(395.898438 0)"/>
       <use xlink:href="#DejaVuSans-65" transform="translate(434.761719 0)"/>
       <use xlink:href="#DejaVuSans-74" transform="translate(496.285156 0)"/>
       <use xlink:href="#DejaVuSans-69" transform="translate(535.494141 0)"/>
       <use xlink:href="#DejaVuSans-6e" transform="translate(563.277344 0)"/>
       <use xlink:href="#DejaVuSans-61" transform="translate(626.65625 0)"/>
       <use xlink:href="#DejaVuSans-6c" transform="translate(687.935547 0)"/>
       <use xlink:href="#DejaVuSans-20" transform="translate(715.71875 0)"/>
       <use xlink:href="#DejaVuSans-76" transform="translate(747.505859 0)"/>
       <use xlink:href="#DejaVuSans-65" transform="translate(806.685547 0)"/>
       <use xlink:href="#DejaVuSans-73" transform="translate(868.208984 0)"/>
       <use xlink:href="#DejaVuSans-73" transform="translate(920.308594 0)"/>
       <use xlink:href="#DejaVuSans-65" transform="translate(972.408203 0)"/>
       <use xlink:href="#DejaVuSans-6c" transform="translate(1033.931641 0)"/>
       <use xlink:href="#DejaVuSans-20" transform="translate(1061.714844 0)"/>
       <use xlink:href="#DejaVuSans-76" transform="translate(1093.501953 0)"/>
       <use xlink:href="#DejaVuSans-61" transform="translate(1152.681641 0)"/>
       <use xlink:href="#DejaVuSans-73" transform="translate(1213.960938 0)"/>
       <use xlink:href="#DejaVuSans-63" transform="translate(1266.060547 0)"/>
       <use xlink:href="#DejaVuSans-75" transform="translate(1321.041016 0)"/>
       <use xlink:href="#DejaVuSans-6c" transform="translate(1384.419922 0)"/>
       <use xlink:href="#DejaVuSans-61" transform="translate(1412.203125 0)"/>
       <use xlink:href="#DejaVuSans-72" transform="translate(1473.482422 0)"/>
       <use xlink:href="#DejaVuSans-20" transform="translate(1514.595703 0)"/>
       <use xlink:href="#DejaVuSans-74" transform="translate(1546.382812 0)"/>
       <use xlink:href="#DejaVuSans-6f" transform="translate(1585.591797 0)"/>
       <use xlink:href="#DejaVuSans-72" transform="translate(1646.773438 0)"/>
       <use xlink:href="#DejaVuSans-74" transform="translate(1687.886719 0)"/>
       <use xlink:href="#DejaVuSans-75" transform="translate(1727.095703 0)"/>
       <use xlink:href="#DejaVuSans-6f" transform="translate(1790.474609 0)"/>
       <use xlink:href="#DejaVuSans-73" transform="translate(1851.65625 0)"/>
       <use xlink:href="#DejaVuSans-69" transform="translate(1903.755859 0)"/>
       <use xlink:href="#DejaVuSans-74" transform="translate(1931.539062 0)"/>
       <use xlink:href="#DejaVuSans-79" transform="translate(1970.748047 0)"/>
      </g>
     </g>
    </g>
    <g id="ytick_6">
     <g id="line2d_13">
      <g>
       <use xlink:href="#mb9903a1395" x="217.189063" y="98.077283" style="stroke: #000000; stroke-width: 0.8"/>
      </g>
     </g>
     <g id="text_14">
      <!-- Ventricular preexcitation -->
      <g transform="translate(87.203125 101.876502) scale(0.1 -0.1)">
       <defs>
        <path id="DejaVuSans-56" d="M 1831 0 
L 50 4666 
L 709 4666 
L 2188 738 
L 3669 4666 
L 4325 4666 
L 2547 0 
L 1831 0 
z
" transform="scale(0.015625)"/>
        <path id="DejaVuSans-78" d="M 3513 3500 
L 2247 1797 
L 3578 0 
L 2900 0 
L 1881 1375 
L 863 0 
L 184 0 
L 1544 1831 
L 300 3500 
L 978 3500 
L 1906 2253 
L 2834 3500 
L 3513 3500 
z
" transform="scale(0.015625)"/>
       </defs>
       <use xlink:href="#DejaVuSans-56"/>
       <use xlink:href="#DejaVuSans-65" transform="translate(60.658203 0)"/>
       <use xlink:href="#DejaVuSans-6e" transform="translate(122.181641 0)"/>
       <use xlink:href="#DejaVuSans-74" transform="translate(185.560547 0)"/>
       <use xlink:href="#DejaVuSans-72" transform="translate(224.769531 0)"/>
       <use xlink:href="#DejaVuSans-69" transform="translate(265.882812 0)"/>
       <use xlink:href="#DejaVuSans-63" transform="translate(293.666016 0)"/>
       <use xlink:href="#DejaVuSans-75" transform="translate(348.646484 0)"/>
       <use xlink:href="#DejaVuSans-6c" transform="translate(412.025391 0)"/>
       <use xlink:href="#DejaVuSans-61" transform="translate(439.808594 0)"/>
       <use xlink:href="#DejaVuSans-72" transform="translate(501.087891 0)"/>
       <use xlink:href="#DejaVuSans-20" transform="translate(542.201172 0)"/>
       <use xlink:href="#DejaVuSans-70" transform="translate(573.988281 0)"/>
       <use xlink:href="#DejaVuSans-72" transform="translate(637.464844 0)"/>
       <use xlink:href="#DejaVuSans-65" transform="translate(676.328125 0)"/>
       <use xlink:href="#DejaVuSans-65" transform="translate(737.851562 0)"/>
       <use xlink:href="#DejaVuSans-78" transform="translate(797.625 0)"/>
       <use xlink:href="#DejaVuSans-63" transform="translate(855.054688 0)"/>
       <use xlink:href="#DejaVuSans-69" transform="translate(910.035156 0)"/>
       <use xlink:href="#DejaVuSans-74" transform="translate(937.818359 0)"/>
       <use xlink:href="#DejaVuSans-61" transform="translate(977.027344 0)"/>
       <use xlink:href="#DejaVuSans-74" transform="translate(1038.306641 0)"/>
       <use xlink:href="#DejaVuSans-69" transform="translate(1077.515625 0)"/>
       <use xlink:href="#DejaVuSans-6f" transform="translate(1105.298828 0)"/>
       <use xlink:href="#DejaVuSans-6e" transform="translate(1166.480469 0)"/>
      </g>
     </g>
    </g>
    <g id="ytick_7">
     <g id="line2d_14">
      <g>
       <use xlink:href="#mb9903a1395" x="217.189063" y="110.809914" style="stroke: #000000; stroke-width: 0.8"/>
      </g>
     </g>
     <g id="text_15">
      <!-- Mitochondrial respiratory chain defects -->
      <g transform="translate(14.207812 114.609133) scale(0.1 -0.1)">
       <defs>
        <path id="DejaVuSans-4d" d="M 628 4666 
L 1569 4666 
L 2759 1491 
L 3956 4666 
L 4897 4666 
L 4897 0 
L 4281 0 
L 4281 4097 
L 3078 897 
L 2444 897 
L 1241 4097 
L 1241 0 
L 628 0 
L 628 4666 
z
" transform="scale(0.015625)"/>
        <path id="DejaVuSans-66" d="M 2375 4863 
L 2375 4384 
L 1825 4384 
Q 1516 4384 1395 4259 
Q 1275 4134 1275 3809 
L 1275 3500 
L 2222 3500 
L 2222 3053 
L 1275 3053 
L 1275 0 
L 697 0 
L 697 3053 
L 147 3053 
L 147 3500 
L 697 3500 
L 697 3744 
Q 697 4328 969 4595 
Q 1241 4863 1831 4863 
L 2375 4863 
z
" transform="scale(0.015625)"/>
       </defs>
       <use xlink:href="#DejaVuSans-4d"/>
       <use xlink:href="#DejaVuSans-69" transform="translate(86.279297 0)"/>
       <use xlink:href="#DejaVuSans-74" transform="translate(114.0625 0)"/>
       <use xlink:href="#DejaVuSans-6f" transform="translate(153.271484 0)"/>
       <use xlink:href="#DejaVuSans-63" transform="translate(214.453125 0)"/>
       <use xlink:href="#DejaVuSans-68" transform="translate(269.433594 0)"/>
       <use xlink:href="#DejaVuSans-6f" transform="translate(332.8125 0)"/>
       <use xlink:href="#DejaVuSans-6e" transform="translate(393.994141 0)"/>
       <use xlink:href="#DejaVuSans-64" transform="translate(457.373047 0)"/>
       <use xlink:href="#DejaVuSans-72" transform="translate(520.849609 0)"/>
       <use xlink:href="#DejaVuSans-69" transform="translate(561.962891 0)"/>
       <use xlink:href="#DejaVuSans-61" transform="translate(589.746094 0)"/>
       <use xlink:href="#DejaVuSans-6c" transform="translate(651.025391 0)"/>
       <use xlink:href="#DejaVuSans-20" transform="translate(678.808594 0)"/>
       <use xlink:href="#DejaVuSans-72" transform="translate(710.595703 0)"/>
       <use xlink:href="#DejaVuSans-65" transform="translate(749.458984 0)"/>
       <use xlink:href="#DejaVuSans-73" transform="translate(810.982422 0)"/>
       <use xlink:href="#DejaVuSans-70" transform="translate(863.082031 0)"/>
       <use xlink:href="#DejaVuSans-69" transform="translate(926.558594 0)"/>
       <use xlink:href="#DejaVuSans-72" transform="translate(954.341797 0)"/>
       <use xlink:href="#DejaVuSans-61" transform="translate(995.455078 0)"/>
       <use xlink:href="#DejaVuSans-74" transform="translate(1056.734375 0)"/>
       <use xlink:href="#DejaVuSans-6f" transform="translate(1095.943359 0)"/>
       <use xlink:href="#DejaVuSans-72" transform="translate(1157.125 0)"/>
       <use xlink:href="#DejaVuSans-79" transform="translate(1198.238281 0)"/>
       <use xlink:href="#DejaVuSans-20" transform="translate(1257.417969 0)"/>
       <use xlink:href="#DejaVuSans-63" transform="translate(1289.205078 0)"/>
       <use xlink:href="#DejaVuSans-68" transform="translate(1344.185547 0)"/>
       <use xlink:href="#DejaVuSans-61" transform="translate(1407.564453 0)"/>
       <use xlink:href="#DejaVuSans-69" transform="translate(1468.84375 0)"/>
       <use xlink:href="#DejaVuSans-6e" transform="translate(1496.626953 0)"/>
       <use xlink:href="#DejaVuSans-20" transform="translate(1560.005859 0)"/>
       <use xlink:href="#DejaVuSans-64" transform="translate(1591.792969 0)"/>
       <use xlink:href="#DejaVuSans-65" transform="translate(1655.269531 0)"/>
       <use xlink:href="#DejaVuSans-66" transform="translate(1716.792969 0)"/>
       <use xlink:href="#DejaVuSans-65" transform="translate(1751.998047 0)"/>
       <use xlink:href="#DejaVuSans-63" transform="translate(1813.521484 0)"/>
       <use xlink:href="#DejaVuSans-74" transform="translate(1868.501953 0)"/>
       <use xlink:href="#DejaVuSans-73" transform="translate(1907.710938 0)"/>
      </g>
     </g>
    </g>
    <g id="ytick_8">
     <g id="line2d_15">
      <g>
       <use xlink:href="#mb9903a1395" x="217.189063" y="123.542546" style="stroke: #000000; stroke-width: 0.8"/>
      </g>
     </g>
     <g id="text_16">
      <!-- Frontal upsweep of hair -->
      <g transform="translate(92.7375 127.341765) scale(0.1 -0.1)">
       <defs>
        <path id="DejaVuSans-77" d="M 269 3500 
L 844 3500 
L 1563 769 
L 2278 3500 
L 2956 3500 
L 3675 769 
L 4391 3500 
L 4966 3500 
L 4050 0 
L 3372 0 
L 2619 2869 
L 1863 0 
L 1184 0 
L 269 3500 
z
" transform="scale(0.015625)"/>
       </defs>
       <use xlink:href="#DejaVuSans-46"/>
       <use xlink:href="#DejaVuSans-72" transform="translate(50.269531 0)"/>
       <use xlink:href="#DejaVuSans-6f" transform="translate(89.132812 0)"/>
       <use xlink:href="#DejaVuSans-6e" transform="translate(150.314453 0)"/>
       <use xlink:href="#DejaVuSans-74" transform="translate(213.693359 0)"/>
       <use xlink:href="#DejaVuSans-61" transform="translate(252.902344 0)"/>
       <use xlink:href="#DejaVuSans-6c" transform="translate(314.181641 0)"/>
       <use xlink:href="#DejaVuSans-20" transform="translate(341.964844 0)"/>
       <use xlink:href="#DejaVuSans-75" transform="translate(373.751953 0)"/>
       <use xlink:href="#DejaVuSans-70" transform="translate(437.130859 0)"/>
       <use xlink:href="#DejaVuSans-73" transform="translate(500.607422 0)"/>
       <use xlink:href="#DejaVuSans-77" transform="translate(552.707031 0)"/>
       <use xlink:href="#DejaVuSans-65" transform="translate(634.494141 0)"/>
       <use xlink:href="#DejaVuSans-65" transform="translate(696.017578 0)"/>
       <use xlink:href="#DejaVuSans-70" transform="translate(757.541016 0)"/>
       <use xlink:href="#DejaVuSans-20" transform="translate(821.017578 0)"/>
       <use xlink:href="#DejaVuSans-6f" transform="translate(852.804688 0)"/>
       <use xlink:href="#DejaVuSans-66" transform="translate(913.986328 0)"/>
       <use xlink:href="#DejaVuSans-20" transform="translate(949.191406 0)"/>
       <use xlink:href="#DejaVuSans-68" transform="translate(980.978516 0)"/>
       <use xlink:href="#DejaVuSans-61" transform="translate(1044.357422 0)"/>
       <use xlink:href="#DejaVuSans-69" transform="translate(1105.636719 0)"/>
       <use xlink:href="#DejaVuSans-72" transform="translate(1133.419922 0)"/>
      </g>
     </g>
    </g>
    <g id="ytick_9">
     <g id="line2d_16">
      <g>
       <use xlink:href="#mb9903a1395" x="217.189063" y="136.275178" style="stroke: #000000; stroke-width: 0.8"/>
      </g>
     </g>
     <g id="text_17">
      <!-- Happy demeanor -->
      <g transform="translate(123.65625 140.074396) scale(0.1 -0.1)">
       <defs>
        <path id="DejaVuSans-48" d="M 628 4666 
L 1259 4666 
L 1259 2753 
L 3553 2753 
L 3553 4666 
L 4184 4666 
L 4184 0 
L 3553 0 
L 3553 2222 
L 1259 2222 
L 1259 0 
L 628 0 
L 628 4666 
z
" transform="scale(0.015625)"/>
       </defs>
       <use xlink:href="#DejaVuSans-48"/>
       <use xlink:href="#DejaVuSans-61" transform="translate(75.195312 0)"/>
       <use xlink:href="#DejaVuSans-70" transform="translate(136.474609 0)"/>
       <use xlink:href="#DejaVuSans-70" transform="translate(199.951172 0)"/>
       <use xlink:href="#DejaVuSans-79" transform="translate(263.427734 0)"/>
       <use xlink:href="#DejaVuSans-20" transform="translate(322.607422 0)"/>
       <use xlink:href="#DejaVuSans-64" transform="translate(354.394531 0)"/>
       <use xlink:href="#DejaVuSans-65" transform="translate(417.871094 0)"/>
       <use xlink:href="#DejaVuSans-6d" transform="translate(479.394531 0)"/>
       <use xlink:href="#DejaVuSans-65" transform="translate(576.806641 0)"/>
       <use xlink:href="#DejaVuSans-61" transform="translate(638.330078 0)"/>
       <use xlink:href="#DejaVuSans-6e" transform="translate(699.609375 0)"/>
       <use xlink:href="#DejaVuSans-6f" transform="translate(762.988281 0)"/>
       <use xlink:href="#DejaVuSans-72" transform="translate(824.169922 0)"/>
      </g>
     </g>
    </g>
    <g id="ytick_10">
     <g id="line2d_17">
      <g>
       <use xlink:href="#mb9903a1395" x="217.189063" y="149.007809" style="stroke: #000000; stroke-width: 0.8"/>
      </g>
     </g>
     <g id="text_18">
      <!-- Tooth malposition -->
      <g transform="translate(121.851562 152.807028) scale(0.1 -0.1)">
       <use xlink:href="#DejaVuSans-54"/>
       <use xlink:href="#DejaVuSans-6f" transform="translate(44.083984 0)"/>
       <use xlink:href="#DejaVuSans-6f" transform="translate(105.265625 0)"/>
       <use xlink:href="#DejaVuSans-74" transform="translate(166.447266 0)"/>
       <use xlink:href="#DejaVuSans-68" transform="translate(205.65625 0)"/>
       <use xlink:href="#DejaVuSans-20" transform="translate(269.035156 0)"/>
       <use xlink:href="#DejaVuSans-6d" transform="translate(300.822266 0)"/>
       <use xlink:href="#DejaVuSans-61" transform="translate(398.234375 0)"/>
       <use xlink:href="#DejaVuSans-6c" transform="translate(459.513672 0)"/>
       <use xlink:href="#DejaVuSans-70" transform="translate(487.296875 0)"/>
       <use xlink:href="#DejaVuSans-6f" transform="translate(550.773438 0)"/>
       <use xlink:href="#DejaVuSans-73" transform="translate(611.955078 0)"/>
       <use xlink:href="#DejaVuSans-69" transform="translate(664.054688 0)"/>
       <use xlink:href="#DejaVuSans-74" transform="translate(691.837891 0)"/>
       <use xlink:href="#DejaVuSans-69" transform="translate(731.046875 0)"/>
       <use xlink:href="#DejaVuSans-6f" transform="translate(758.830078 0)"/>
       <use xlink:href="#DejaVuSans-6e" transform="translate(820.011719 0)"/>
      </g>
     </g>
    </g>
    <g id="ytick_11">
     <g id="line2d_18">
      <g>
       <use xlink:href="#mb9903a1395" x="217.189063" y="161.740441" style="stroke: #000000; stroke-width: 0.8"/>
      </g>
     </g>
     <g id="text_19">
      <!-- Broad eyebrow -->
      <g transform="translate(134.9125 165.53966) scale(0.1 -0.1)">
       <defs>
        <path id="DejaVuSans-42" d="M 1259 2228 
L 1259 519 
L 2272 519 
Q 2781 519 3026 730 
Q 3272 941 3272 1375 
Q 3272 1813 3026 2020 
Q 2781 2228 2272 2228 
L 1259 2228 
z
M 1259 4147 
L 1259 2741 
L 2194 2741 
Q 2656 2741 2882 2914 
Q 3109 3088 3109 3444 
Q 3109 3797 2882 3972 
Q 2656 4147 2194 4147 
L 1259 4147 
z
M 628 4666 
L 2241 4666 
Q 2963 4666 3353 4366 
Q 3744 4066 3744 3513 
Q 3744 3084 3544 2831 
Q 3344 2578 2956 2516 
Q 3422 2416 3680 2098 
Q 3938 1781 3938 1306 
Q 3938 681 3513 340 
Q 3088 0 2303 0 
L 628 0 
L 628 4666 
z
" transform="scale(0.015625)"/>
       </defs>
       <use xlink:href="#DejaVuSans-42"/>
       <use xlink:href="#DejaVuSans-72" transform="translate(68.603516 0)"/>
       <use xlink:href="#DejaVuSans-6f" transform="translate(107.466797 0)"/>
       <use xlink:href="#DejaVuSans-61" transform="translate(168.648438 0)"/>
       <use xlink:href="#DejaVuSans-64" transform="translate(229.927734 0)"/>
       <use xlink:href="#DejaVuSans-20" transform="translate(293.404297 0)"/>
       <use xlink:href="#DejaVuSans-65" transform="translate(325.191406 0)"/>
       <use xlink:href="#DejaVuSans-79" transform="translate(386.714844 0)"/>
       <use xlink:href="#DejaVuSans-65" transform="translate(445.894531 0)"/>
       <use xlink:href="#DejaVuSans-62" transform="translate(507.417969 0)"/>
       <use xlink:href="#DejaVuSans-72" transform="translate(570.894531 0)"/>
       <use xlink:href="#DejaVuSans-6f" transform="translate(609.757812 0)"/>
       <use xlink:href="#DejaVuSans-77" transform="translate(670.939453 0)"/>
      </g>
     </g>
    </g>
    <g id="ytick_12">
     <g id="line2d_19">
      <g>
       <use xlink:href="#mb9903a1395" x="217.189063" y="174.473072" style="stroke: #000000; stroke-width: 0.8"/>
      </g>
     </g>
     <g id="text_20">
      <!-- Hyperventilation -->
      <g transform="translate(126.96875 178.272291) scale(0.1 -0.1)">
       <use xlink:href="#DejaVuSans-48"/>
       <use xlink:href="#DejaVuSans-79" transform="translate(75.195312 0)"/>
       <use xlink:href="#DejaVuSans-70" transform="translate(134.375 0)"/>
       <use xlink:href="#DejaVuSans-65" transform="translate(197.851562 0)"/>
       <use xlink:href="#DejaVuSans-72" transform="translate(259.375 0)"/>
       <use xlink:href="#DejaVuSans-76" transform="translate(300.488281 0)"/>
       <use xlink:href="#DejaVuSans-65" transform="translate(359.667969 0)"/>
       <use xlink:href="#DejaVuSans-6e" transform="translate(421.191406 0)"/>
       <use xlink:href="#DejaVuSans-74" transform="translate(484.570312 0)"/>
       <use xlink:href="#DejaVuSans-69" transform="translate(523.779297 0)"/>
       <use xlink:href="#DejaVuSans-6c" transform="translate(551.5625 0)"/>
       <use xlink:href="#DejaVuSans-61" transform="translate(579.345703 0)"/>
       <use xlink:href="#DejaVuSans-74" transform="translate(640.625 0)"/>
       <use xlink:href="#DejaVuSans-69" transform="translate(679.833984 0)"/>
       <use xlink:href="#DejaVuSans-6f" transform="translate(707.617188 0)"/>
       <use xlink:href="#DejaVuSans-6e" transform="translate(768.798828 0)"/>
      </g>
     </g>
    </g>
    <g id="ytick_13">
     <g id="line2d_20">
      <g>
       <use xlink:href="#mb9903a1395" x="217.189063" y="187.205704" style="stroke: #000000; stroke-width: 0.8"/>
      </g>
     </g>
     <g id="text_21">
      <!-- Bruxism -->
      <g transform="translate(169.232812 191.004923) scale(0.1 -0.1)">
       <use xlink:href="#DejaVuSans-42"/>
       <use xlink:href="#DejaVuSans-72" transform="translate(68.603516 0)"/>
       <use xlink:href="#DejaVuSans-75" transform="translate(109.716797 0)"/>
       <use xlink:href="#DejaVuSans-78" transform="translate(173.095703 0)"/>
       <use xlink:href="#DejaVuSans-69" transform="translate(232.275391 0)"/>
       <use xlink:href="#DejaVuSans-73" transform="translate(260.058594 0)"/>
       <use xlink:href="#DejaVuSans-6d" transform="translate(312.158203 0)"/>
      </g>
     </g>
    </g>
    <g id="ytick_14">
     <g id="line2d_21">
      <g>
       <use xlink:href="#mb9903a1395" x="217.189063" y="199.938336" style="stroke: #000000; stroke-width: 0.8"/>
      </g>
     </g>
     <g id="text_22">
      <!-- Tonic seizure -->
      <g transform="translate(146.104688 203.737554) scale(0.1 -0.1)">
       <defs>
        <path id="DejaVuSans-7a" d="M 353 3500 
L 3084 3500 
L 3084 2975 
L 922 459 
L 3084 459 
L 3084 0 
L 275 0 
L 275 525 
L 2438 3041 
L 353 3041 
L 353 3500 
z
" transform="scale(0.015625)"/>
       </defs>
       <use xlink:href="#DejaVuSans-54"/>
       <use xlink:href="#DejaVuSans-6f" transform="translate(44.083984 0)"/>
       <use xlink:href="#DejaVuSans-6e" transform="translate(105.265625 0)"/>
       <use xlink:href="#DejaVuSans-69" transform="translate(168.644531 0)"/>
       <use xlink:href="#DejaVuSans-63" transform="translate(196.427734 0)"/>
       <use xlink:href="#DejaVuSans-20" transform="translate(251.408203 0)"/>
       <use xlink:href="#DejaVuSans-73" transform="translate(283.195312 0)"/>
       <use xlink:href="#DejaVuSans-65" transform="translate(335.294922 0)"/>
       <use xlink:href="#DejaVuSans-69" transform="translate(396.818359 0)"/>
       <use xlink:href="#DejaVuSans-7a" transform="translate(424.601562 0)"/>
       <use xlink:href="#DejaVuSans-75" transform="translate(477.091797 0)"/>
       <use xlink:href="#DejaVuSans-72" transform="translate(540.470703 0)"/>
       <use xlink:href="#DejaVuSans-65" transform="translate(579.333984 0)"/>
      </g>
     </g>
    </g>
    <g id="ytick_15">
     <g id="line2d_22">
      <g>
       <use xlink:href="#mb9903a1395" x="217.189063" y="212.670967" style="stroke: #000000; stroke-width: 0.8"/>
      </g>
     </g>
     <g id="text_23">
      <!-- Exaggerated cupid's bow -->
      <g transform="translate(84.042187 216.470186) scale(0.1 -0.1)">
       <defs>
        <path id="DejaVuSans-67" d="M 2906 1791 
Q 2906 2416 2648 2759 
Q 2391 3103 1925 3103 
Q 1463 3103 1205 2759 
Q 947 2416 947 1791 
Q 947 1169 1205 825 
Q 1463 481 1925 481 
Q 2391 481 2648 825 
Q 2906 1169 2906 1791 
z
M 3481 434 
Q 3481 -459 3084 -895 
Q 2688 -1331 1869 -1331 
Q 1566 -1331 1297 -1286 
Q 1028 -1241 775 -1147 
L 775 -588 
Q 1028 -725 1275 -790 
Q 1522 -856 1778 -856 
Q 2344 -856 2625 -561 
Q 2906 -266 2906 331 
L 2906 616 
Q 2728 306 2450 153 
Q 2172 0 1784 0 
Q 1141 0 747 490 
Q 353 981 353 1791 
Q 353 2603 747 3093 
Q 1141 3584 1784 3584 
Q 2172 3584 2450 3431 
Q 2728 3278 2906 2969 
L 2906 3500 
L 3481 3500 
L 3481 434 
z
" transform="scale(0.015625)"/>
        <path id="DejaVuSans-27" d="M 1147 4666 
L 1147 2931 
L 616 2931 
L 616 4666 
L 1147 4666 
z
" transform="scale(0.015625)"/>
       </defs>
       <use xlink:href="#DejaVuSans-45"/>
       <use xlink:href="#DejaVuSans-78" transform="translate(63.183594 0)"/>
       <use xlink:href="#DejaVuSans-61" transform="translate(122.363281 0)"/>
       <use xlink:href="#DejaVuSans-67" transform="translate(183.642578 0)"/>
       <use xlink:href="#DejaVuSans-67" transform="translate(247.119141 0)"/>
       <use xlink:href="#DejaVuSans-65" transform="translate(310.595703 0)"/>
       <use xlink:href="#DejaVuSans-72" transform="translate(372.119141 0)"/>
       <use xlink:href="#DejaVuSans-61" transform="translate(413.232422 0)"/>
       <use xlink:href="#DejaVuSans-74" transform="translate(474.511719 0)"/>
       <use xlink:href="#DejaVuSans-65" transform="translate(513.720703 0)"/>
       <use xlink:href="#DejaVuSans-64" transform="translate(575.244141 0)"/>
       <use xlink:href="#DejaVuSans-20" transform="translate(638.720703 0)"/>
       <use xlink:href="#DejaVuSans-63" transform="translate(670.507812 0)"/>
       <use xlink:href="#DejaVuSans-75" transform="translate(725.488281 0)"/>
       <use xlink:href="#DejaVuSans-70" transform="translate(788.867188 0)"/>
       <use xlink:href="#DejaVuSans-69" transform="translate(852.34375 0)"/>
       <use xlink:href="#DejaVuSans-64" transform="translate(880.126953 0)"/>
       <use xlink:href="#DejaVuSans-27" transform="translate(943.603516 0)"/>
       <use xlink:href="#DejaVuSans-73" transform="translate(971.09375 0)"/>
       <use xlink:href="#DejaVuSans-20" transform="translate(1023.193359 0)"/>
       <use xlink:href="#DejaVuSans-62" transform="translate(1054.980469 0)"/>
       <use xlink:href="#DejaVuSans-6f" transform="translate(1118.457031 0)"/>
       <use xlink:href="#DejaVuSans-77" transform="translate(1179.638672 0)"/>
      </g>
     </g>
    </g>
    <g id="ytick_16">
     <g id="line2d_23">
      <g>
       <use xlink:href="#mb9903a1395" x="217.189063" y="225.403599" style="stroke: #000000; stroke-width: 0.8"/>
      </g>
     </g>
     <g id="text_24">
      <!-- Atypical absence seizure -->
      <g transform="translate(86.203125 229.202817) scale(0.1 -0.1)">
       <defs>
        <path id="DejaVuSans-41" d="M 2188 4044 
L 1331 1722 
L 3047 1722 
L 2188 4044 
z
M 1831 4666 
L 2547 4666 
L 4325 0 
L 3669 0 
L 3244 1197 
L 1141 1197 
L 716 0 
L 50 0 
L 1831 4666 
z
" transform="scale(0.015625)"/>
       </defs>
       <use xlink:href="#DejaVuSans-41"/>
       <use xlink:href="#DejaVuSans-74" transform="translate(66.658203 0)"/>
       <use xlink:href="#DejaVuSans-79" transform="translate(105.867188 0)"/>
       <use xlink:href="#DejaVuSans-70" transform="translate(165.046875 0)"/>
       <use xlink:href="#DejaVuSans-69" transform="translate(228.523438 0)"/>
       <use xlink:href="#DejaVuSans-63" transform="translate(256.306641 0)"/>
       <use xlink:href="#DejaVuSans-61" transform="translate(311.287109 0)"/>
       <use xlink:href="#DejaVuSans-6c" transform="translate(372.566406 0)"/>
       <use xlink:href="#DejaVuSans-20" transform="translate(400.349609 0)"/>
       <use xlink:href="#DejaVuSans-61" transform="translate(432.136719 0)"/>
       <use xlink:href="#DejaVuSans-62" transform="translate(493.416016 0)"/>
       <use xlink:href="#DejaVuSans-73" transform="translate(556.892578 0)"/>
       <use xlink:href="#DejaVuSans-65" transform="translate(608.992188 0)"/>
       <use xlink:href="#DejaVuSans-6e" transform="translate(670.515625 0)"/>
       <use xlink:href="#DejaVuSans-63" transform="translate(733.894531 0)"/>
       <use xlink:href="#DejaVuSans-65" transform="translate(788.875 0)"/>
       <use xlink:href="#DejaVuSans-20" transform="translate(850.398438 0)"/>
       <use xlink:href="#DejaVuSans-73" transform="translate(882.185547 0)"/>
       <use xlink:href="#DejaVuSans-65" transform="translate(934.285156 0)"/>
       <use xlink:href="#DejaVuSans-69" transform="translate(995.808594 0)"/>
       <use xlink:href="#DejaVuSans-7a" transform="translate(1023.591797 0)"/>
       <use xlink:href="#DejaVuSans-75" transform="translate(1076.082031 0)"/>
       <use xlink:href="#DejaVuSans-72" transform="translate(1139.460938 0)"/>
       <use xlink:href="#DejaVuSans-65" transform="translate(1178.324219 0)"/>
      </g>
     </g>
    </g>
    <g id="ytick_17">
     <g id="line2d_24">
      <g>
       <use xlink:href="#mb9903a1395" x="217.189063" y="238.13623" style="stroke: #000000; stroke-width: 0.8"/>
      </g>
     </g>
     <g id="text_25">
      <!-- Focal motor seizure -->
      <g transform="translate(112.145313 241.935449) scale(0.1 -0.1)">
       <use xlink:href="#DejaVuSans-46"/>
       <use xlink:href="#DejaVuSans-6f" transform="translate(53.894531 0)"/>
       <use xlink:href="#DejaVuSans-63" transform="translate(115.076172 0)"/>
       <use xlink:href="#DejaVuSans-61" transform="translate(170.056641 0)"/>
       <use xlink:href="#DejaVuSans-6c" transform="translate(231.335938 0)"/>
       <use xlink:href="#DejaVuSans-20" transform="translate(259.119141 0)"/>
       <use xlink:href="#DejaVuSans-6d" transform="translate(290.90625 0)"/>
       <use xlink:href="#DejaVuSans-6f" transform="translate(388.318359 0)"/>
       <use xlink:href="#DejaVuSans-74" transform="translate(449.5 0)"/>
       <use xlink:href="#DejaVuSans-6f" transform="translate(488.708984 0)"/>
       <use xlink:href="#DejaVuSans-72" transform="translate(549.890625 0)"/>
       <use xlink:href="#DejaVuSans-20" transform="translate(591.003906 0)"/>
       <use xlink:href="#DejaVuSans-73" transform="translate(622.791016 0)"/>
       <use xlink:href="#DejaVuSans-65" transform="translate(674.890625 0)"/>
       <use xlink:href="#DejaVuSans-69" transform="translate(736.414062 0)"/>
       <use xlink:href="#DejaVuSans-7a" transform="translate(764.197266 0)"/>
       <use xlink:href="#DejaVuSans-75" transform="translate(816.6875 0)"/>
       <use xlink:href="#DejaVuSans-72" transform="translate(880.066406 0)"/>
       <use xlink:href="#DejaVuSans-65" transform="translate(918.929688 0)"/>
      </g>
     </g>
    </g>
    <g id="ytick_18">
     <g id="line2d_25">
      <g>
       <use xlink:href="#mb9903a1395" x="217.189063" y="250.868862" style="stroke: #000000; stroke-width: 0.8"/>
      </g>
     </g>
     <g id="text_26">
      <!-- Increased body weight -->
      <g transform="translate(96.71875 254.668081) scale(0.1 -0.1)">
       <defs>
        <path id="DejaVuSans-49" d="M 628 4666 
L 1259 4666 
L 1259 0 
L 628 0 
L 628 4666 
z
" transform="scale(0.015625)"/>
       </defs>
       <use xlink:href="#DejaVuSans-49"/>
       <use xlink:href="#DejaVuSans-6e" transform="translate(29.492188 0)"/>
       <use xlink:href="#DejaVuSans-63" transform="translate(92.871094 0)"/>
       <use xlink:href="#DejaVuSans-72" transform="translate(147.851562 0)"/>
       <use xlink:href="#DejaVuSans-65" transform="translate(186.714844 0)"/>
       <use xlink:href="#DejaVuSans-61" transform="translate(248.238281 0)"/>
       <use xlink:href="#DejaVuSans-73" transform="translate(309.517578 0)"/>
       <use xlink:href="#DejaVuSans-65" transform="translate(361.617188 0)"/>
       <use xlink:href="#DejaVuSans-64" transform="translate(423.140625 0)"/>
       <use xlink:href="#DejaVuSans-20" transform="translate(486.617188 0)"/>
       <use xlink:href="#DejaVuSans-62" transform="translate(518.404297 0)"/>
       <use xlink:href="#DejaVuSans-6f" transform="translate(581.880859 0)"/>
       <use xlink:href="#DejaVuSans-64" transform="translate(643.0625 0)"/>
       <use xlink:href="#DejaVuSans-79" transform="translate(706.539062 0)"/>
       <use xlink:href="#DejaVuSans-20" transform="translate(765.71875 0)"/>
       <use xlink:href="#DejaVuSans-77" transform="translate(797.505859 0)"/>
       <use xlink:href="#DejaVuSans-65" transform="translate(879.292969 0)"/>
       <use xlink:href="#DejaVuSans-69" transform="translate(940.816406 0)"/>
       <use xlink:href="#DejaVuSans-67" transform="translate(968.599609 0)"/>
       <use xlink:href="#DejaVuSans-68" transform="translate(1032.076172 0)"/>
       <use xlink:href="#DejaVuSans-74" transform="translate(1095.455078 0)"/>
      </g>
     </g>
    </g>
    <g id="ytick_19">
     <g id="line2d_26">
      <g>
       <use xlink:href="#mb9903a1395" x="217.189063" y="263.601493" style="stroke: #000000; stroke-width: 0.8"/>
      </g>
     </g>
     <g id="text_27">
      <!-- Reduced social responsiveness -->
      <g transform="translate(54.9625 267.400712) scale(0.1 -0.1)">
       <use xlink:href="#DejaVuSans-52"/>
       <use xlink:href="#DejaVuSans-65" transform="translate(64.982422 0)"/>
       <use xlink:href="#DejaVuSans-64" transform="translate(126.505859 0)"/>
       <use xlink:href="#DejaVuSans-75" transform="translate(189.982422 0)"/>
       <use xlink:href="#DejaVuSans-63" transform="translate(253.361328 0)"/>
       <use xlink:href="#DejaVuSans-65" transform="translate(308.341797 0)"/>
       <use xlink:href="#DejaVuSans-64" transform="translate(369.865234 0)"/>
       <use xlink:href="#DejaVuSans-20" transform="translate(433.341797 0)"/>
       <use xlink:href="#DejaVuSans-73" transform="translate(465.128906 0)"/>
       <use xlink:href="#DejaVuSans-6f" transform="translate(517.228516 0)"/>
       <use xlink:href="#DejaVuSans-63" transform="translate(578.410156 0)"/>
       <use xlink:href="#DejaVuSans-69" transform="translate(633.390625 0)"/>
       <use xlink:href="#DejaVuSans-61" transform="translate(661.173828 0)"/>
       <use xlink:href="#DejaVuSans-6c" transform="translate(722.453125 0)"/>
       <use xlink:href="#DejaVuSans-20" transform="translate(750.236328 0)"/>
       <use xlink:href="#DejaVuSans-72" transform="translate(782.023438 0)"/>
       <use xlink:href="#DejaVuSans-65" transform="translate(820.886719 0)"/>
       <use xlink:href="#DejaVuSans-73" transform="translate(882.410156 0)"/>
       <use xlink:href="#DejaVuSans-70" transform="translate(934.509766 0)"/>
       <use xlink:href="#DejaVuSans-6f" transform="translate(997.986328 0)"/>
       <use xlink:href="#DejaVuSans-6e" transform="translate(1059.167969 0)"/>
       <use xlink:href="#DejaVuSans-73" transform="translate(1122.546875 0)"/>
       <use xlink:href="#DejaVuSans-69" transform="translate(1174.646484 0)"/>
       <use xlink:href="#DejaVuSans-76" transform="translate(1202.429688 0)"/>
       <use xlink:href="#DejaVuSans-65" transform="translate(1261.609375 0)"/>
       <use xlink:href="#DejaVuSans-6e" transform="translate(1323.132812 0)"/>
       <use xlink:href="#DejaVuSans-65" transform="translate(1386.511719 0)"/>
       <use xlink:href="#DejaVuSans-73" transform="translate(1448.035156 0)"/>
       <use xlink:href="#DejaVuSans-73" transform="translate(1500.134766 0)"/>
      </g>
     </g>
    </g>
    <g id="ytick_20">
     <g id="line2d_27">
      <g>
       <use xlink:href="#mb9903a1395" x="217.189063" y="276.334125" style="stroke: #000000; stroke-width: 0.8"/>
      </g>
     </g>
     <g id="text_28">
      <!-- Epileptic encephalopathy -->
      <g transform="translate(83.582813 280.133344) scale(0.1 -0.1)">
       <use xlink:href="#DejaVuSans-45"/>
       <use xlink:href="#DejaVuSans-70" transform="translate(63.183594 0)"/>
       <use xlink:href="#DejaVuSans-69" transform="translate(126.660156 0)"/>
       <use xlink:href="#DejaVuSans-6c" transform="translate(154.443359 0)"/>
       <use xlink:href="#DejaVuSans-65" transform="translate(182.226562 0)"/>
       <use xlink:href="#DejaVuSans-70" transform="translate(243.75 0)"/>
       <use xlink:href="#DejaVuSans-74" transform="translate(307.226562 0)"/>
       <use xlink:href="#DejaVuSans-69" transform="translate(346.435547 0)"/>
       <use xlink:href="#DejaVuSans-63" transform="translate(374.21875 0)"/>
       <use xlink:href="#DejaVuSans-20" transform="translate(429.199219 0)"/>
       <use xlink:href="#DejaVuSans-65" transform="translate(460.986328 0)"/>
       <use xlink:href="#DejaVuSans-6e" transform="translate(522.509766 0)"/>
       <use xlink:href="#DejaVuSans-63" transform="translate(585.888672 0)"/>
       <use xlink:href="#DejaVuSans-65" transform="translate(640.869141 0)"/>
       <use xlink:href="#DejaVuSans-70" transform="translate(702.392578 0)"/>
       <use xlink:href="#DejaVuSans-68" transform="translate(765.869141 0)"/>
       <use xlink:href="#DejaVuSans-61" transform="translate(829.248047 0)"/>
       <use xlink:href="#DejaVuSans-6c" transform="translate(890.527344 0)"/>
       <use xlink:href="#DejaVuSans-6f" transform="translate(918.310547 0)"/>
       <use xlink:href="#DejaVuSans-70" transform="translate(979.492188 0)"/>
       <use xlink:href="#DejaVuSans-61" transform="translate(1042.96875 0)"/>
       <use xlink:href="#DejaVuSans-74" transform="translate(1104.248047 0)"/>
       <use xlink:href="#DejaVuSans-68" transform="translate(1143.457031 0)"/>
       <use xlink:href="#DejaVuSans-79" transform="translate(1206.835938 0)"/>
      </g>
     </g>
    </g>
   </g>
   <g id="line2d_28"/>
   <g id="line2d_29"/>
   <g id="line2d_30"/>
   <g id="line2d_31"/>
   <g id="line2d_32"/>
   <g id="line2d_33"/>
   <g id="line2d_34"/>
   <g id="line2d_35"/>
   <g id="line2d_36"/>
   <g id="line2d_37"/>
   <g id="line2d_38"/>
   <g id="line2d_39"/>
   <g id="patch_3">
    <path d="M 217.189063 288.430125 
L 217.189063 22.318125 
" style="fill: none; stroke: #000000; stroke-width: 0.8; stroke-linejoin: miter; stroke-linecap: square"/>
   </g>
   <g id="patch_4">
    <path d="M 574.309062 288.430125 
L 574.309062 22.318125 
" style="fill: none; stroke: #000000; stroke-width: 0.8; stroke-linejoin: miter; stroke-linecap: square"/>
   </g>
   <g id="patch_5">
    <path d="M 217.189063 288.430125 
L 574.309063 288.430125 
" style="fill: none; stroke: #000000; stroke-width: 0.8; stroke-linejoin: miter; stroke-linecap: square"/>
   </g>
   <g id="patch_6">
    <path d="M 217.189063 22.318125 
L 574.309063 22.318125 
" style="fill: none; stroke: #000000; stroke-width: 0.8; stroke-linejoin: miter; stroke-linecap: square"/>
   </g>
   <g id="text_29">
    <!-- Top 20 Enriched Phenotypes -->
    <g transform="translate(310.822813 16.318125) scale(0.12 -0.12)">
     <defs>
      <path id="DejaVuSans-32" d="M 1228 531 
L 3431 531 
L 3431 0 
L 469 0 
L 469 531 
Q 828 903 1448 1529 
Q 2069 2156 2228 2338 
Q 2531 2678 2651 2914 
Q 2772 3150 2772 3378 
Q 2772 3750 2511 3984 
Q 2250 4219 1831 4219 
Q 1534 4219 1204 4116 
Q 875 4013 500 3803 
L 500 4441 
Q 881 4594 1212 4672 
Q 1544 4750 1819 4750 
Q 2544 4750 2975 4387 
Q 3406 4025 3406 3419 
Q 3406 3131 3298 2873 
Q 3191 2616 2906 2266 
Q 2828 2175 2409 1742 
Q 1991 1309 1228 531 
z
" transform="scale(0.015625)"/>
      <path id="DejaVuSans-50" d="M 1259 4147 
L 1259 2394 
L 2053 2394 
Q 2494 2394 2734 2622 
Q 2975 2850 2975 3272 
Q 2975 3691 2734 3919 
Q 2494 4147 2053 4147 
L 1259 4147 
z
M 628 4666 
L 2053 4666 
Q 2838 4666 3239 4311 
Q 3641 3956 3641 3272 
Q 3641 2581 3239 2228 
Q 2838 1875 2053 1875 
L 1259 1875 
L 1259 0 
L 628 0 
L 628 4666 
z
" transform="scale(0.015625)"/>
     </defs>
     <use xlink:href="#DejaVuSans-54"/>
     <use xlink:href="#DejaVuSans-6f" transform="translate(44.083984 0)"/>
     <use xlink:href="#DejaVuSans-70" transform="translate(105.265625 0)"/>
     <use xlink:href="#DejaVuSans-20" transform="translate(168.742188 0)"/>
     <use xlink:href="#DejaVuSans-32" transform="translate(200.529297 0)"/>
     <use xlink:href="#DejaVuSans-30" transform="translate(264.152344 0)"/>
     <use xlink:href="#DejaVuSans-20" transform="translate(327.775391 0)"/>
     <use xlink:href="#DejaVuSans-45" transform="translate(359.5625 0)"/>
     <use xlink:href="#DejaVuSans-6e" transform="translate(422.746094 0)"/>
     <use xlink:href="#DejaVuSans-72" transform="translate(486.125 0)"/>
     <use xlink:href="#DejaVuSans-69" transform="translate(527.238281 0)"/>
     <use xlink:href="#DejaVuSans-63" transform="translate(555.021484 0)"/>
     <use xlink:href="#DejaVuSans-68" transform="translate(610.001953 0)"/>
     <use xlink:href="#DejaVuSans-65" transform="translate(673.380859 0)"/>
     <use xlink:href="#DejaVuSans-64" transform="translate(734.904297 0)"/>
     <use xlink:href="#DejaVuSans-20" transform="translate(798.380859 0)"/>
     <use xlink:href="#DejaVuSans-50" transform="translate(830.167969 0)"/>
     <use xlink:href="#DejaVuSans-68" transform="translate(890.470703 0)"/>
     <use xlink:href="#DejaVuSans-65" transform="translate(953.849609 0)"/>
     <use xlink:href="#DejaVuSans-6e" transform="translate(1015.373047 0)"/>
     <use xlink:href="#DejaVuSans-6f" transform="translate(1078.751953 0)"/>
     <use xlink:href="#DejaVuSans-74" transform="translate(1139.933594 0)"/>
     <use xlink:href="#DejaVuSans-79" transform="translate(1179.142578 0)"/>
     <use xlink:href="#DejaVuSans-70" transform="translate(1238.322266 0)"/>
     <use xlink:href="#DejaVuSans-65" transform="translate(1301.798828 0)"/>
     <use xlink:href="#DejaVuSans-73" transform="translate(1363.322266 0)"/>
    </g>
   </g>
   <g id="legend_1">
    <g id="patch_7">
     <path d="M 581.309062 206.455625 
L 668.548125 206.455625 
Q 670.548125 206.455625 670.548125 204.455625 
L 670.548125 29.318125 
Q 670.548125 27.318125 668.548125 27.318125 
L 581.309062 27.318125 
Q 579.309062 27.318125 579.309062 29.318125 
L 579.309062 204.455625 
Q 579.309062 206.455625 581.309062 206.455625 
z
" style="fill: #ffffff; opacity: 0.8; stroke: #cccccc; stroke-linejoin: miter"/>
    </g>
    <g id="line2d_40"/>
    <g id="text_30">
     <!-- -log10 FDR -->
     <g transform="translate(611.309062 38.916562) scale(0.1 -0.1)">
      <defs>
       <path id="DejaVuSans-2d" d="M 313 2009 
L 1997 2009 
L 1997 1497 
L 313 1497 
L 313 2009 
z
" transform="scale(0.015625)"/>
       <path id="DejaVuSans-31" d="M 794 531 
L 1825 531 
L 1825 4091 
L 703 3866 
L 703 4441 
L 1819 4666 
L 2450 4666 
L 2450 531 
L 3481 531 
L 3481 0 
L 794 0 
L 794 531 
z
" transform="scale(0.015625)"/>
       <path id="DejaVuSans-44" d="M 1259 4147 
L 1259 519 
L 2022 519 
Q 2988 519 3436 956 
Q 3884 1394 3884 2338 
Q 3884 3275 3436 3711 
Q 2988 4147 2022 4147 
L 1259 4147 
z
M 628 4666 
L 1925 4666 
Q 3281 4666 3915 4102 
Q 4550 3538 4550 2338 
Q 4550 1131 3912 565 
Q 3275 0 1925 0 
L 628 0 
L 628 4666 
z
" transform="scale(0.015625)"/>
      </defs>
      <use xlink:href="#DejaVuSans-2d"/>
      <use xlink:href="#DejaVuSans-6c" transform="translate(36.083984 0)"/>
      <use xlink:href="#DejaVuSans-6f" transform="translate(63.867188 0)"/>
      <use xlink:href="#DejaVuSans-67" transform="translate(125.048828 0)"/>
      <use xlink:href="#DejaVuSans-31" transform="translate(188.525391 0)"/>
      <use xlink:href="#DejaVuSans-30" transform="translate(252.148438 0)"/>
      <use xlink:href="#DejaVuSans-20" transform="translate(315.771484 0)"/>
      <use xlink:href="#DejaVuSans-46" transform="translate(347.558594 0)"/>
      <use xlink:href="#DejaVuSans-44" transform="translate(405.078125 0)"/>
      <use xlink:href="#DejaVuSans-52" transform="translate(482.080078 0)"/>
     </g>
    </g>
    <g id="line2d_41">
     <defs>
      <path id="mef99ec5797" d="M 0 3 
C 0.795609 3 1.55874 2.683901 2.12132 2.12132 
C 2.683901 1.55874 3 0.795609 3 0 
C 3 -0.795609 2.683901 -1.55874 2.12132 -2.12132 
C 1.55874 -2.683901 0.795609 -3 0 -3 
C -0.795609 -3 -1.55874 -2.683901 -2.12132 -2.12132 
C -2.683901 -1.55874 -3 -0.795609 -3 0 
C -3 0.795609 -2.683901 1.55874 -2.12132 2.12132 
C -1.55874 2.683901 -0.795609 3 0 3 
z
" style="stroke: #ffffff; stroke-width: 0.381226"/>
     </defs>
     <g>
      <use xlink:href="#mef99ec5797" x="593.309062" y="50.094688" style="fill: #506bda; stroke: #ffffff; stroke-width: 0.381226"/>
     </g>
    </g>
    <g id="text_31">
     <!-- 5.0 -->
     <g transform="translate(611.309062 53.594688) scale(0.1 -0.1)">
      <use xlink:href="#DejaVuSans-35"/>
      <use xlink:href="#DejaVuSans-2e" transform="translate(63.623047 0)"/>
      <use xlink:href="#DejaVuSans-30" transform="translate(95.410156 0)"/>
     </g>
    </g>
    <g id="line2d_42">
     <defs>
      <path id="mdc021e67e1" d="M 0 3 
C 0.795609 3 1.55874 2.683901 2.12132 2.12132 
C 2.683901 1.55874 3 0.795609 3 0 
C 3 -0.795609 2.683901 -1.55874 2.12132 -2.12132 
C 1.55874 -2.683901 0.795609 -3 0 -3 
C -0.795609 -3 -1.55874 -2.683901 -2.12132 -2.12132 
C -2.683901 -1.55874 -3 -0.795609 -3 0 
C -3 0.795609 -2.683901 1.55874 -2.12132 2.12132 
C -1.55874 2.683901 -0.795609 3 0 3 
z
" style="stroke: #ffffff; stroke-width: 0.381226"/>
     </defs>
     <g>
      <use xlink:href="#mdc021e67e1" x="593.309062" y="64.772812" style="fill: #94b6ff; stroke: #ffffff; stroke-width: 0.381226"/>
     </g>
    </g>
    <g id="text_32">
     <!-- 7.5 -->
     <g transform="translate(611.309062 68.272812) scale(0.1 -0.1)">
      <use xlink:href="#DejaVuSans-37"/>
      <use xlink:href="#DejaVuSans-2e" transform="translate(63.623047 0)"/>
      <use xlink:href="#DejaVuSans-35" transform="translate(95.410156 0)"/>
     </g>
    </g>
    <g id="line2d_43">
     <defs>
      <path id="m030ac70007" d="M 0 3 
C 0.795609 3 1.55874 2.683901 2.12132 2.12132 
C 2.683901 1.55874 3 0.795609 3 0 
C 3 -0.795609 2.683901 -1.55874 2.12132 -2.12132 
C 1.55874 -2.683901 0.795609 -3 0 -3 
C -0.795609 -3 -1.55874 -2.683901 -2.12132 -2.12132 
C -2.683901 -1.55874 -3 -0.795609 -3 0 
C -3 0.795609 -2.683901 1.55874 -2.12132 2.12132 
C -1.55874 2.683901 -0.795609 3 0 3 
z
" style="stroke: #ffffff; stroke-width: 0.381226"/>
     </defs>
     <g>
      <use xlink:href="#m030ac70007" x="593.309062" y="79.450938" style="fill: #d5dbe5; stroke: #ffffff; stroke-width: 0.381226"/>
     </g>
    </g>
    <g id="text_33">
     <!-- 10.0 -->
     <g transform="translate(611.309062 82.950938) scale(0.1 -0.1)">
      <use xlink:href="#DejaVuSans-31"/>
      <use xlink:href="#DejaVuSans-30" transform="translate(63.623047 0)"/>
      <use xlink:href="#DejaVuSans-2e" transform="translate(127.246094 0)"/>
      <use xlink:href="#DejaVuSans-30" transform="translate(159.033203 0)"/>
     </g>
    </g>
    <g id="line2d_44">
     <defs>
      <path id="m0fcce2fbb8" d="M 0 3 
C 0.795609 3 1.55874 2.683901 2.12132 2.12132 
C 2.683901 1.55874 3 0.795609 3 0 
C 3 -0.795609 2.683901 -1.55874 2.12132 -2.12132 
C 1.55874 -2.683901 0.795609 -3 0 -3 
C -0.795609 -3 -1.55874 -2.683901 -2.12132 -2.12132 
C -2.683901 -1.55874 -3 -0.795609 -3 0 
C -3 0.795609 -2.683901 1.55874 -2.12132 2.12132 
C -1.55874 2.683901 -0.795609 3 0 3 
z
" style="stroke: #ffffff; stroke-width: 0.381226"/>
     </defs>
     <g>
      <use xlink:href="#m0fcce2fbb8" x="593.309062" y="94.129063" style="fill: #f7b79b; stroke: #ffffff; stroke-width: 0.381226"/>
     </g>
    </g>
    <g id="text_34">
     <!-- 12.5 -->
     <g transform="translate(611.309062 97.629063) scale(0.1 -0.1)">
      <use xlink:href="#DejaVuSans-31"/>
      <use xlink:href="#DejaVuSans-32" transform="translate(63.623047 0)"/>
      <use xlink:href="#DejaVuSans-2e" transform="translate(127.246094 0)"/>
      <use xlink:href="#DejaVuSans-35" transform="translate(159.033203 0)"/>
     </g>
    </g>
    <g id="line2d_45">
     <defs>
      <path id="me086b47739" d="M 0 3 
C 0.795609 3 1.55874 2.683901 2.12132 2.12132 
C 2.683901 1.55874 3 0.795609 3 0 
C 3 -0.795609 2.683901 -1.55874 2.12132 -2.12132 
C 1.55874 -2.683901 0.795609 -3 0 -3 
C -0.795609 -3 -1.55874 -2.683901 -2.12132 -2.12132 
C -2.683901 -1.55874 -3 -0.795609 -3 0 
C -3 0.795609 -2.683901 1.55874 -2.12132 2.12132 
C -1.55874 2.683901 -0.795609 3 0 3 
z
" style="stroke: #ffffff; stroke-width: 0.381226"/>
     </defs>
     <g>
      <use xlink:href="#me086b47739" x="593.309062" y="108.807187" style="fill: #df634e; stroke: #ffffff; stroke-width: 0.381226"/>
     </g>
    </g>
    <g id="text_35">
     <!-- 15.0 -->
     <g transform="translate(611.309062 112.307187) scale(0.1 -0.1)">
      <use xlink:href="#DejaVuSans-31"/>
      <use xlink:href="#DejaVuSans-35" transform="translate(63.623047 0)"/>
      <use xlink:href="#DejaVuSans-2e" transform="translate(127.246094 0)"/>
      <use xlink:href="#DejaVuSans-30" transform="translate(159.033203 0)"/>
     </g>
    </g>
    <g id="line2d_46"/>
    <g id="text_36">
     <!-- Gene Ratio -->
     <g transform="translate(611.309062 126.985313) scale(0.1 -0.1)">
      <defs>
       <path id="DejaVuSans-47" d="M 3809 666 
L 3809 1919 
L 2778 1919 
L 2778 2438 
L 4434 2438 
L 4434 434 
Q 4069 175 3628 42 
Q 3188 -91 2688 -91 
Q 1594 -91 976 548 
Q 359 1188 359 2328 
Q 359 3472 976 4111 
Q 1594 4750 2688 4750 
Q 3144 4750 3555 4637 
Q 3966 4525 4313 4306 
L 4313 3634 
Q 3963 3931 3569 4081 
Q 3175 4231 2741 4231 
Q 1884 4231 1454 3753 
Q 1025 3275 1025 2328 
Q 1025 1384 1454 906 
Q 1884 428 2741 428 
Q 3075 428 3337 486 
Q 3600 544 3809 666 
z
" transform="scale(0.015625)"/>
      </defs>
      <use xlink:href="#DejaVuSans-47"/>
      <use xlink:href="#DejaVuSans-65" transform="translate(77.490234 0)"/>
      <use xlink:href="#DejaVuSans-6e" transform="translate(139.013672 0)"/>
      <use xlink:href="#DejaVuSans-65" transform="translate(202.392578 0)"/>
      <use xlink:href="#DejaVuSans-20" transform="translate(263.916016 0)"/>
      <use xlink:href="#DejaVuSans-52" transform="translate(295.703125 0)"/>
      <use xlink:href="#DejaVuSans-61" transform="translate(362.935547 0)"/>
      <use xlink:href="#DejaVuSans-74" transform="translate(424.214844 0)"/>
      <use xlink:href="#DejaVuSans-69" transform="translate(463.423828 0)"/>
      <use xlink:href="#DejaVuSans-6f" transform="translate(491.207031 0)"/>
     </g>
    </g>
    <g id="line2d_47">
     <defs>
      <path id="mebd307278a" d="M 0 2.464794 
C 0.653671 2.464794 1.280657 2.205088 1.742872 1.742872 
C 2.205088 1.280657 2.464794 0.653671 2.464794 0 
C 2.464794 -0.653671 2.205088 -1.280657 1.742872 -1.742872 
C 1.280657 -2.205088 0.653671 -2.464794 0 -2.464794 
C -0.653671 -2.464794 -1.280657 -2.205088 -1.742872 -1.742872 
C -2.205088 -1.280657 -2.464794 -0.653671 -2.464794 0 
C -2.464794 0.653671 -2.205088 1.280657 -1.742872 1.742872 
C -1.280657 2.205088 -0.653671 2.464794 0 2.464794 
z
" style="stroke: #ffffff; stroke-width: 0.381226"/>
     </defs>
     <g>
      <use xlink:href="#mebd307278a" x="593.309062" y="138.163437" style="fill: #333333; stroke: #ffffff; stroke-width: 0.381226"/>
     </g>
    </g>
    <g id="text_37">
     <!-- 0.004 -->
     <g transform="translate(611.309062 141.663437) scale(0.1 -0.1)">
      <use xlink:href="#DejaVuSans-30"/>
      <use xlink:href="#DejaVuSans-2e" transform="translate(63.623047 0)"/>
      <use xlink:href="#DejaVuSans-30" transform="translate(95.410156 0)"/>
      <use xlink:href="#DejaVuSans-30" transform="translate(159.033203 0)"/>
      <use xlink:href="#DejaVuSans-34" transform="translate(222.65625 0)"/>
     </g>
    </g>
    <g id="line2d_48">
     <defs>
      <path id="m90ae65bd9e" d="M 0 3.545008 
C 0.940147 3.545008 1.841915 3.171484 2.506699 2.506699 
C 3.171484 1.841915 3.545008 0.940147 3.545008 0 
C 3.545008 -0.940147 3.171484 -1.841915 2.506699 -2.506699 
C 1.841915 -3.171484 0.940147 -3.545008 0 -3.545008 
C -0.940147 -3.545008 -1.841915 -3.171484 -2.506699 -2.506699 
C -3.171484 -1.841915 -3.545008 -0.940147 -3.545008 0 
C -3.545008 0.940147 -3.171484 1.841915 -2.506699 2.506699 
C -1.841915 3.171484 -0.940147 3.545008 0 3.545008 
z
" style="stroke: #ffffff; stroke-width: 0.381226"/>
     </defs>
     <g>
      <use xlink:href="#m90ae65bd9e" x="593.309062" y="152.841563" style="fill: #333333; stroke: #ffffff; stroke-width: 0.381226"/>
     </g>
    </g>
    <g id="text_38">
     <!-- 0.008 -->
     <g transform="translate(611.309062 156.341563) scale(0.1 -0.1)">
      <defs>
       <path id="DejaVuSans-38" d="M 2034 2216 
Q 1584 2216 1326 1975 
Q 1069 1734 1069 1313 
Q 1069 891 1326 650 
Q 1584 409 2034 409 
Q 2484 409 2743 651 
Q 3003 894 3003 1313 
Q 3003 1734 2745 1975 
Q 2488 2216 2034 2216 
z
M 1403 2484 
Q 997 2584 770 2862 
Q 544 3141 544 3541 
Q 544 4100 942 4425 
Q 1341 4750 2034 4750 
Q 2731 4750 3128 4425 
Q 3525 4100 3525 3541 
Q 3525 3141 3298 2862 
Q 3072 2584 2669 2484 
Q 3125 2378 3379 2068 
Q 3634 1759 3634 1313 
Q 3634 634 3220 271 
Q 2806 -91 2034 -91 
Q 1263 -91 848 271 
Q 434 634 434 1313 
Q 434 1759 690 2068 
Q 947 2378 1403 2484 
z
M 1172 3481 
Q 1172 3119 1398 2916 
Q 1625 2713 2034 2713 
Q 2441 2713 2670 2916 
Q 2900 3119 2900 3481 
Q 2900 3844 2670 4047 
Q 2441 4250 2034 4250 
Q 1625 4250 1398 4047 
Q 1172 3844 1172 3481 
z
" transform="scale(0.015625)"/>
      </defs>
      <use xlink:href="#DejaVuSans-30"/>
      <use xlink:href="#DejaVuSans-2e" transform="translate(63.623047 0)"/>
      <use xlink:href="#DejaVuSans-30" transform="translate(95.410156 0)"/>
      <use xlink:href="#DejaVuSans-30" transform="translate(159.033203 0)"/>
      <use xlink:href="#DejaVuSans-38" transform="translate(222.65625 0)"/>
     </g>
    </g>
    <g id="line2d_49">
     <defs>
      <path id="mcce1ac1cfd" d="M 0 4.365657 
C 1.157786 4.365657 2.268307 3.905664 3.086985 3.086985 
C 3.905664 2.268307 4.365657 1.157786 4.365657 0 
C 4.365657 -1.157786 3.905664 -2.268307 3.086985 -3.086985 
C 2.268307 -3.905664 1.157786 -4.365657 0 -4.365657 
C -1.157786 -4.365657 -2.268307 -3.905664 -3.086985 -3.086985 
C -3.905664 -2.268307 -4.365657 -1.157786 -4.365657 0 
C -4.365657 1.157786 -3.905664 2.268307 -3.086985 3.086985 
C -2.268307 3.905664 -1.157786 4.365657 0 4.365657 
z
" style="stroke: #ffffff; stroke-width: 0.381226"/>
     </defs>
     <g>
      <use xlink:href="#mcce1ac1cfd" x="593.309062" y="167.519687" style="fill: #333333; stroke: #ffffff; stroke-width: 0.381226"/>
     </g>
    </g>
    <g id="text_39">
     <!-- 0.012 -->
     <g transform="translate(611.309062 171.019687) scale(0.1 -0.1)">
      <use xlink:href="#DejaVuSans-30"/>
      <use xlink:href="#DejaVuSans-2e" transform="translate(63.623047 0)"/>
      <use xlink:href="#DejaVuSans-30" transform="translate(95.410156 0)"/>
      <use xlink:href="#DejaVuSans-31" transform="translate(159.033203 0)"/>
      <use xlink:href="#DejaVuSans-32" transform="translate(222.65625 0)"/>
     </g>
    </g>
    <g id="line2d_50">
     <defs>
      <path id="m38d2013ebc" d="M 0 5.054783 
C 1.340544 5.054783 2.626364 4.522179 3.574271 3.574271 
C 4.522179 2.626364 5.054783 1.340544 5.054783 0 
C 5.054783 -1.340544 4.522179 -2.626364 3.574271 -3.574271 
C 2.626364 -4.522179 1.340544 -5.054783 0 -5.054783 
C -1.340544 -5.054783 -2.626364 -4.522179 -3.574271 -3.574271 
C -4.522179 -2.626364 -5.054783 -1.340544 -5.054783 0 
C -5.054783 1.340544 -4.522179 2.626364 -3.574271 3.574271 
C -2.626364 4.522179 -1.340544 5.054783 0 5.054783 
z
" style="stroke: #ffffff; stroke-width: 0.381226"/>
     </defs>
     <g>
      <use xlink:href="#m38d2013ebc" x="593.309062" y="182.197812" style="fill: #333333; stroke: #ffffff; stroke-width: 0.381226"/>
     </g>
    </g>
    <g id="text_40">
     <!-- 0.016 -->
     <g transform="translate(611.309062 185.697812) scale(0.1 -0.1)">
      <use xlink:href="#DejaVuSans-30"/>
      <use xlink:href="#DejaVuSans-2e" transform="translate(63.623047 0)"/>
      <use xlink:href="#DejaVuSans-30" transform="translate(95.410156 0)"/>
      <use xlink:href="#DejaVuSans-31" transform="translate(159.033203 0)"/>
      <use xlink:href="#DejaVuSans-36" transform="translate(222.65625 0)"/>
     </g>
    </g>
    <g id="line2d_51">
     <defs>
      <path id="m300b59de04" d="M 0 5.660628 
C 1.501216 5.660628 2.941148 5.064188 4.002668 4.002668 
C 5.064188 2.941148 5.660628 1.501216 5.660628 0 
C 5.660628 -1.501216 5.064188 -2.941148 4.002668 -4.002668 
C 2.941148 -5.064188 1.501216 -5.660628 0 -5.660628 
C -1.501216 -5.660628 -2.941148 -5.064188 -4.002668 -4.002668 
C -5.064188 -2.941148 -5.660628 -1.501216 -5.660628 0 
C -5.660628 1.501216 -5.064188 2.941148 -4.002668 4.002668 
C -2.941148 5.064188 -1.501216 5.660628 0 5.660628 
z
" style="stroke: #ffffff; stroke-width: 0.381226"/>
     </defs>
     <g>
      <use xlink:href="#m300b59de04" x="593.309062" y="196.875937" style="fill: #333333; stroke: #ffffff; stroke-width: 0.381226"/>
     </g>
    </g>
    <g id="text_41">
     <!-- 0.020 -->
     <g transform="translate(611.309062 200.375937) scale(0.1 -0.1)">
      <use xlink:href="#DejaVuSans-30"/>
      <use xlink:href="#DejaVuSans-2e" transform="translate(63.623047 0)"/>
      <use xlink:href="#DejaVuSans-30" transform="translate(95.410156 0)"/>
      <use xlink:href="#DejaVuSans-32" transform="translate(159.033203 0)"/>
      <use xlink:href="#DejaVuSans-30" transform="translate(222.65625 0)"/>
     </g>
    </g>
   </g>
  </g>
 </g>
 <defs>
  <clipPath id="pb5018f904e">
   <rect x="217.189063" y="22.318125" width="357.12" height="266.112"/>
  </clipPath>
 </defs>
</svg>
