<?xml version="1.0" encoding="utf-8" standalone="no"?>
<!DOCTYPE svg PUBLIC "-//W3C//DTD SVG 1.1//EN"
  "http://www.w3.org/Graphics/SVG/1.1/DTD/svg11.dtd">
<svg xmlns:xlink="http://www.w3.org/1999/xlink" width="398.560625pt" height="325.986375pt" viewBox="0 0 398.560625 325.986375" xmlns="http://www.w3.org/2000/svg" version="1.1">
 <metadata>
  <rdf:RDF xmlns:dc="http://purl.org/dc/elements/1.1/" xmlns:cc="http://creativecommons.org/ns#" xmlns:rdf="http://www.w3.org/1999/02/22-rdf-syntax-ns#">
   <cc:Work>
    <dc:type rdf:resource="http://purl.org/dc/dcmitype/StillImage"/>
    <dc:date>2025-12-12T03:35:31.366485</dc:date>
    <dc:format>image/svg+xml</dc:format>
    <dc:creator>
     <cc:Agent>
      <dc:title>Matplotlib v3.10.7, https://matplotlib.org/</dc:title>
     </cc:Agent>
    </dc:creator>
   </cc:Work>
  </rdf:RDF>
 </metadata>
 <defs>
  <style type="text/css">*{stroke-linejoin: round; stroke-linecap: butt}</style>
 </defs>
 <g id="figure_1">
  <g id="patch_1">
   <path d="M 0 325.986375 
L 398.560625 325.986375 
L 398.560625 0 
L 0 0 
z
" style="fill: #ffffff"/>
  </g>
  <g id="axes_1">
   <g id="patch_2">
    <path d="M 34.240625 288.430125 
L 391.360625 288.430125 
L 391.360625 22.318125 
L 34.240625 22.318125 
z
" style="fill: #ffffff"/>
   </g>
   <g id="patch_3">
    <path d="M 50.473352 288.430125 
L 308.099003 288.430125 
L 308.099003 22.318125 
L 50.473352 22.318125 
z
" clip-path="url(#p6ca506dd1f)" style="fill: #029e73; opacity: 0.1"/>
   </g>
   <g id="matplotlib.axis_1">
    <g id="xtick_1">
     <g id="line2d_1">
      <defs>
       <path id="mce6d34af5e" d="M 0 0 
L 0 3.5 
" style="stroke: #000000; stroke-width: 0.8"/>
      </defs>
      <g>
       <use xlink:href="#mce6d34af5e" x="90.571271" y="288.430125" style="stroke: #000000; stroke-width: 0.8"/>
      </g>
     </g>
     <g id="text_1">
      <!-- −6 -->
      <g transform="translate(83.200177 303.028562) scale(0.1 -0.1)">
       <defs>
        <path id="DejaVuSans-2212" d="M 678 2272 
L 4684 2272 
L 4684 1741 
L 678 1741 
L 678 2272 
z
" transform="scale(0.015625)"/>
        <path id="DejaVuSans-36" d="M 2113 2584 
Q 1688 2584 1439 2293 
Q 1191 2003 1191 1497 
Q 1191 994 1439 701 
Q 1688 409 2113 409 
Q 2538 409 2786 701 
Q 3034 994 3034 1497 
Q 3034 2003 2786 2293 
Q 2538 2584 2113 2584 
z
M 3366 4563 
L 3366 3988 
Q 3128 4100 2886 4159 
Q 2644 4219 2406 4219 
Q 1781 4219 1451 3797 
Q 1122 3375 1075 2522 
Q 1259 2794 1537 2939 
Q 1816 3084 2150 3084 
Q 2853 3084 3261 2657 
Q 3669 2231 3669 1497 
Q 3669 778 3244 343 
Q 2819 -91 2113 -91 
Q 1303 -91 875 529 
Q 447 1150 447 2328 
Q 447 3434 972 4092 
Q 1497 4750 2381 4750 
Q 2619 4750 2861 4703 
Q 3103 4656 3366 4563 
z
" transform="scale(0.015625)"/>
       </defs>
       <use xlink:href="#DejaVuSans-2212"/>
       <use xlink:href="#DejaVuSans-36" transform="translate(83.789062 0)"/>
      </g>
     </g>
    </g>
    <g id="xtick_2">
     <g id="line2d_2">
      <g>
       <use xlink:href="#mce6d34af5e" x="153.806077" y="288.430125" style="stroke: #000000; stroke-width: 0.8"/>
      </g>
     </g>
     <g id="text_2">
      <!-- −4 -->
      <g transform="translate(146.434983 303.028562) scale(0.1 -0.1)">
       <defs>
        <path id="DejaVuSans-34" d="M 2419 4116 
L 825 1625 
L 2419 1625 
L 2419 4116 
z
M 2253 4666 
L 3047 4666 
L 3047 1625 
L 3713 1625 
L 3713 1100 
L 3047 1100 
L 3047 0 
L 2419 0 
L 2419 1100 
L 313 1100 
L 313 1709 
L 2253 4666 
z
" transform="scale(0.015625)"/>
       </defs>
       <use xlink:href="#DejaVuSans-2212"/>
       <use xlink:href="#DejaVuSans-34" transform="translate(83.789062 0)"/>
      </g>
     </g>
    </g>
    <g id="xtick_3">
     <g id="line2d_3">
      <g>
       <use xlink:href="#mce6d34af5e" x="217.040883" y="288.430125" style="stroke: #000000; stroke-width: 0.8"/>
      </g>
     </g>
     <g id="text_3">
      <!-- −2 -->
      <g transform="translate(209.669789 303.028562) scale(0.1 -0.1)">
       <defs>
        <path id="DejaVuSans-32" d="M 1228 531 
L 3431 531 
L 3431 0 
L 469 0 
L 469 531 
Q 828 903 1448 1529 
Q 2069 2156 2228 2338 
Q 2531 2678 2651 2914 
Q 2772 3150 2772 3378 
Q 2772 3750 2511 3984 
Q 2250 4219 1831 4219 
Q 1534 4219 1204 4116 
Q 875 4013 500 3803 
L 500 4441 
Q 881 4594 1212 4672 
Q 1544 4750 1819 4750 
Q 2544 4750 2975 4387 
Q 3406 4025 3406 3419 
Q 3406 3131 3298 2873 
Q 3191 2616 2906 2266 
Q 2828 2175 2409 1742 
Q 1991 1309 1228 531 
z
" transform="scale(0.015625)"/>
       </defs>
       <use xlink:href="#DejaVuSans-2212"/>
       <use xlink:href="#DejaVuSans-32" transform="translate(83.789062 0)"/>
      </g>
     </g>
    </g>
    <g id="xtick_4">
     <g id="line2d_4">
      <g>
       <use xlink:href="#mce6d34af5e" x="280.275689" y="288.430125" style="stroke: #000000; stroke-width: 0.8"/>
      </g>
     </g>
     <g id="text_4">
      <!-- 0 -->
      <g transform="translate(277.094439 303.028562) scale(0.1 -0.1)">
       <defs>
        <path id="DejaVuSans-30" d="M 2034 4250 
Q 1547 4250 1301 3770 
Q 1056 3291 1056 2328 
Q 1056 1369 1301 889 
Q 1547 409 2034 409 
Q 2525 409 2770 889 
Q 3016 1369 3016 2328 
Q 3016 3291 2770 3770 
Q 2525 4250 2034 4250 
z
M 2034 4750 
Q 2819 4750 3233 4129 
Q 3647 3509 3647 2328 
Q 3647 1150 3233 529 
Q 2819 -91 2034 -91 
Q 1250 -91 836 529 
Q 422 1150 422 2328 
Q 422 3509 836 4129 
Q 1250 4750 2034 4750 
z
" transform="scale(0.015625)"/>
       </defs>
       <use xlink:href="#DejaVuSans-30"/>
      </g>
     </g>
    </g>
    <g id="xtick_5">
     <g id="line2d_5">
      <g>
       <use xlink:href="#mce6d34af5e" x="343.510495" y="288.430125" style="stroke: #000000; stroke-width: 0.8"/>
      </g>
     </g>
     <g id="text_5">
      <!-- 2 -->
      <g transform="translate(340.329245 303.028562) scale(0.1 -0.1)">
       <use xlink:href="#DejaVuSans-32"/>
      </g>
     </g>
    </g>
    <g id="text_6">
     <!-- Distance -->
     <g transform="translate(190.938125 316.706687) scale(0.1 -0.1)">
      <defs>
       <path id="DejaVuSans-44" d="M 1259 4147 
L 1259 519 
L 2022 519 
Q 2988 519 3436 956 
Q 3884 1394 3884 2338 
Q 3884 3275 3436 3711 
Q 2988 4147 2022 4147 
L 1259 4147 
z
M 628 4666 
L 1925 4666 
Q 3281 4666 3915 4102 
Q 4550 3538 4550 2338 
Q 4550 1131 3912 565 
Q 3275 0 1925 0 
L 628 0 
L 628 4666 
z
" transform="scale(0.015625)"/>
       <path id="DejaVuSans-69" d="M 603 3500 
L 1178 3500 
L 1178 0 
L 603 0 
L 603 3500 
z
M 603 4863 
L 1178 4863 
L 1178 4134 
L 603 4134 
L 603 4863 
z
" transform="scale(0.015625)"/>
       <path id="DejaVuSans-73" d="M 2834 3397 
L 2834 2853 
Q 2591 2978 2328 3040 
Q 2066 3103 1784 3103 
Q 1356 3103 1142 2972 
Q 928 2841 928 2578 
Q 928 2378 1081 2264 
Q 1234 2150 1697 2047 
L 1894 2003 
Q 2506 1872 2764 1633 
Q 3022 1394 3022 966 
Q 3022 478 2636 193 
Q 2250 -91 1575 -91 
Q 1294 -91 989 -36 
Q 684 19 347 128 
L 347 722 
Q 666 556 975 473 
Q 1284 391 1588 391 
Q 1994 391 2212 530 
Q 2431 669 2431 922 
Q 2431 1156 2273 1281 
Q 2116 1406 1581 1522 
L 1381 1569 
Q 847 1681 609 1914 
Q 372 2147 372 2553 
Q 372 3047 722 3315 
Q 1072 3584 1716 3584 
Q 2034 3584 2315 3537 
Q 2597 3491 2834 3397 
z
" transform="scale(0.015625)"/>
       <path id="DejaVuSans-74" d="M 1172 4494 
L 1172 3500 
L 2356 3500 
L 2356 3053 
L 1172 3053 
L 1172 1153 
Q 1172 725 1289 603 
Q 1406 481 1766 481 
L 2356 481 
L 2356 0 
L 1766 0 
Q 1100 0 847 248 
Q 594 497 594 1153 
L 594 3053 
L 172 3053 
L 172 3500 
L 594 3500 
L 594 4494 
L 1172 4494 
z
" transform="scale(0.015625)"/>
       <path id="DejaVuSans-61" d="M 2194 1759 
Q 1497 1759 1228 1600 
Q 959 1441 959 1056 
Q 959 750 1161 570 
Q 1363 391 1709 391 
Q 2188 391 2477 730 
Q 2766 1069 2766 1631 
L 2766 1759 
L 2194 1759 
z
M 3341 1997 
L 3341 0 
L 2766 0 
L 2766 531 
Q 2569 213 2275 61 
Q 1981 -91 1556 -91 
Q 1019 -91 701 211 
Q 384 513 384 1019 
Q 384 1609 779 1909 
Q 1175 2209 1959 2209 
L 2766 2209 
L 2766 2266 
Q 2766 2663 2505 2880 
Q 2244 3097 1772 3097 
Q 1472 3097 1187 3025 
Q 903 2953 641 2809 
L 641 3341 
Q 956 3463 1253 3523 
Q 1550 3584 1831 3584 
Q 2591 3584 2966 3190 
Q 3341 2797 3341 1997 
z
" transform="scale(0.015625)"/>
       <path id="DejaVuSans-6e" d="M 3513 2113 
L 3513 0 
L 2938 0 
L 2938 2094 
Q 2938 2591 2744 2837 
Q 2550 3084 2163 3084 
Q 1697 3084 1428 2787 
Q 1159 2491 1159 1978 
L 1159 0 
L 581 0 
L 581 3500 
L 1159 3500 
L 1159 2956 
Q 1366 3272 1645 3428 
Q 1925 3584 2291 3584 
Q 2894 3584 3203 3211 
Q 3513 2838 3513 2113 
z
" transform="scale(0.015625)"/>
       <path id="DejaVuSans-63" d="M 3122 3366 
L 3122 2828 
Q 2878 2963 2633 3030 
Q 2388 3097 2138 3097 
Q 1578 3097 1268 2742 
Q 959 2388 959 1747 
Q 959 1106 1268 751 
Q 1578 397 2138 397 
Q 2388 397 2633 464 
Q 2878 531 3122 666 
L 3122 134 
Q 2881 22 2623 -34 
Q 2366 -91 2075 -91 
Q 1284 -91 818 406 
Q 353 903 353 1747 
Q 353 2603 823 3093 
Q 1294 3584 2113 3584 
Q 2378 3584 2631 3529 
Q 2884 3475 3122 3366 
z
" transform="scale(0.015625)"/>
       <path id="DejaVuSans-65" d="M 3597 1894 
L 3597 1613 
L 953 1613 
Q 991 1019 1311 708 
Q 1631 397 2203 397 
Q 2534 397 2845 478 
Q 3156 559 3463 722 
L 3463 178 
Q 3153 47 2828 -22 
Q 2503 -91 2169 -91 
Q 1331 -91 842 396 
Q 353 884 353 1716 
Q 353 2575 817 3079 
Q 1281 3584 2069 3584 
Q 2775 3584 3186 3129 
Q 3597 2675 3597 1894 
z
M 3022 2063 
Q 3016 2534 2758 2815 
Q 2500 3097 2075 3097 
Q 1594 3097 1305 2825 
Q 1016 2553 972 2059 
L 3022 2063 
z
" transform="scale(0.015625)"/>
      </defs>
      <use xlink:href="#DejaVuSans-44"/>
      <use xlink:href="#DejaVuSans-69" transform="translate(77.001953 0)"/>
      <use xlink:href="#DejaVuSans-73" transform="translate(104.785156 0)"/>
      <use xlink:href="#DejaVuSans-74" transform="translate(156.884766 0)"/>
      <use xlink:href="#DejaVuSans-61" transform="translate(196.09375 0)"/>
      <use xlink:href="#DejaVuSans-6e" transform="translate(257.373047 0)"/>
      <use xlink:href="#DejaVuSans-63" transform="translate(320.751953 0)"/>
      <use xlink:href="#DejaVuSans-65" transform="translate(375.732422 0)"/>
     </g>
    </g>
   </g>
   <g id="matplotlib.axis_2">
    <g id="ytick_1">
     <g id="line2d_6">
      <defs>
       <path id="mad9088c71e" d="M 0 0 
L -3.5 0 
" style="stroke: #000000; stroke-width: 0.8"/>
      </defs>
      <g>
       <use xlink:href="#mad9088c71e" x="34.240625" y="276.334125" style="stroke: #000000; stroke-width: 0.8"/>
      </g>
     </g>
     <g id="text_7">
      <!-- 0 -->
      <g transform="translate(20.878125 280.133344) scale(0.1 -0.1)">
       <use xlink:href="#DejaVuSans-30"/>
      </g>
     </g>
    </g>
    <g id="ytick_2">
     <g id="line2d_7">
      <g>
       <use xlink:href="#mad9088c71e" x="34.240625" y="220.230055" style="stroke: #000000; stroke-width: 0.8"/>
      </g>
     </g>
     <g id="text_8">
      <!-- 1 -->
      <g transform="translate(20.878125 224.029274) scale(0.1 -0.1)">
       <defs>
        <path id="DejaVuSans-31" d="M 794 531 
L 1825 531 
L 1825 4091 
L 703 3866 
L 703 4441 
L 1819 4666 
L 2450 4666 
L 2450 531 
L 3481 531 
L 3481 0 
L 794 0 
L 794 531 
z
" transform="scale(0.015625)"/>
       </defs>
       <use xlink:href="#DejaVuSans-31"/>
      </g>
     </g>
    </g>
    <g id="ytick_3">
     <g id="line2d_8">
      <g>
       <use xlink:href="#mad9088c71e" x="34.240625" y="164.125985" style="stroke: #000000; stroke-width: 0.8"/>
      </g>
     </g>
     <g id="text_9">
      <!-- 2 -->
      <g transform="translate(20.878125 167.925204) scale(0.1 -0.1)">
       <use xlink:href="#DejaVuSans-32"/>
      </g>
     </g>
    </g>
    <g id="ytick_4">
     <g id="line2d_9">
      <g>
       <use xlink:href="#mad9088c71e" x="34.240625" y="108.021915" style="stroke: #000000; stroke-width: 0.8"/>
      </g>
     </g>
     <g id="text_10">
      <!-- 3 -->
      <g transform="translate(20.878125 111.821134) scale(0.1 -0.1)">
       <defs>
        <path id="DejaVuSans-33" d="M 2597 2516 
Q 3050 2419 3304 2112 
Q 3559 1806 3559 1356 
Q 3559 666 3084 287 
Q 2609 -91 1734 -91 
Q 1441 -91 1130 -33 
Q 819 25 488 141 
L 488 750 
Q 750 597 1062 519 
Q 1375 441 1716 441 
Q 2309 441 2620 675 
Q 2931 909 2931 1356 
Q 2931 1769 2642 2001 
Q 2353 2234 1838 2234 
L 1294 2234 
L 1294 2753 
L 1863 2753 
Q 2328 2753 2575 2939 
Q 2822 3125 2822 3475 
Q 2822 3834 2567 4026 
Q 2313 4219 1838 4219 
Q 1578 4219 1281 4162 
Q 984 4106 628 3988 
L 628 4550 
Q 988 4650 1302 4700 
Q 1616 4750 1894 4750 
Q 2613 4750 3031 4423 
Q 3450 4097 3450 3541 
Q 3450 3153 3228 2886 
Q 3006 2619 2597 2516 
z
" transform="scale(0.015625)"/>
       </defs>
       <use xlink:href="#DejaVuSans-33"/>
      </g>
     </g>
    </g>
    <g id="ytick_5">
     <g id="line2d_10">
      <g>
       <use xlink:href="#mad9088c71e" x="34.240625" y="51.917846" style="stroke: #000000; stroke-width: 0.8"/>
      </g>
     </g>
     <g id="text_11">
      <!-- 4 -->
      <g transform="translate(20.878125 55.717064) scale(0.1 -0.1)">
       <use xlink:href="#DejaVuSans-34"/>
      </g>
     </g>
    </g>
    <g id="text_12">
     <!-- Density -->
     <g transform="translate(14.798438 174.382719) rotate(-90) scale(0.1 -0.1)">
      <defs>
       <path id="DejaVuSans-79" d="M 2059 -325 
Q 1816 -950 1584 -1140 
Q 1353 -1331 966 -1331 
L 506 -1331 
L 506 -850 
L 844 -850 
Q 1081 -850 1212 -737 
Q 1344 -625 1503 -206 
L 1606 56 
L 191 3500 
L 800 3500 
L 1894 763 
L 2988 3500 
L 3597 3500 
L 2059 -325 
z
" transform="scale(0.015625)"/>
      </defs>
      <use xlink:href="#DejaVuSans-44"/>
      <use xlink:href="#DejaVuSans-65" transform="translate(77.001953 0)"/>
      <use xlink:href="#DejaVuSans-6e" transform="translate(138.525391 0)"/>
      <use xlink:href="#DejaVuSans-73" transform="translate(201.904297 0)"/>
      <use xlink:href="#DejaVuSans-69" transform="translate(254.003906 0)"/>
      <use xlink:href="#DejaVuSans-74" transform="translate(281.787109 0)"/>
      <use xlink:href="#DejaVuSans-79" transform="translate(320.996094 0)"/>
     </g>
    </g>
   </g>
   <g id="line2d_11">
    <path d="M 50.473352 276.334125 
L 56.969691 276.236027 
L 57.781734 276.01508 
L 58.593776 275.5488 
L 60.542678 274.144977 
L 61.029903 274.132779 
L 61.517129 274.331755 
L 62.329171 274.965838 
L 63.46603 275.831319 
L 64.278073 276.158024 
L 65.252524 276.299092 
L 67.526242 276.316745 
L 72.885722 276.316501 
L 79.706878 276.334125 
L 115.76156 276.242824 
L 116.898419 275.999983 
L 118.847321 275.4669 
L 119.659363 275.530486 
L 121.12104 275.985358 
L 122.257899 276.227671 
L 123.719575 276.28257 
L 128.104604 276.316765 
L 131.352774 276.279868 
L 132.81445 276.066009 
L 134.600943 275.778661 
L 135.575394 275.863609 
L 137.524296 276.134119 
L 138.336338 276.019164 
L 139.310789 275.651497 
L 140.610057 275.170931 
L 141.259691 275.167264 
L 142.071733 275.42251 
L 144.020635 276.172307 
L 145.319903 276.313168 
L 149.055298 276.334114 
L 153.927552 276.234723 
L 156.526088 276.111409 
L 161.235934 276.288041 
L 164.646512 276.293256 
L 168.05709 276.289748 
L 171.467668 276.292314 
L 176.50233 276.333978 
L 180.237725 276.230409 
L 184.460346 275.679243 
L 186.246839 275.294162 
L 187.058881 275.422789 
L 190.144642 276.281393 
L 192.093544 276.285097 
L 197.453024 276.031237 
L 199.239517 275.72635 
L 200.538785 275.776045 
L 207.684758 276.333619 
L 214.018689 276.231069 
L 216.617224 276.167768 
L 221.651887 276.114967 
L 223.925606 276.006168 
L 231.071579 276.213231 
L 237.405509 276.058652 
L 238.867186 275.935964 
L 240.328862 276.082573 
L 242.277764 276.232655 
L 246.987609 276.211986 
L 248.124469 276.053406 
L 248.936511 275.746235 
L 251.372638 274.564482 
L 252.022272 274.701316 
L 254.458399 275.627045 
L 255.270442 275.504092 
L 256.732118 275.224966 
L 257.54416 275.342748 
L 259.005837 275.903727 
L 260.142696 276.200883 
L 261.441964 276.272371 
L 265.502176 276.086238 
L 267.126261 275.786482 
L 268.425528 275.595001 
L 269.724796 275.654449 
L 273.460191 275.963791 
L 277.357995 276.020995 
L 279.306896 275.801449 
L 281.743023 275.473481 
L 282.879883 275.615217 
L 285.31601 275.996614 
L 286.940095 276.035319 
L 290.837898 275.893675 
L 292.624391 275.98541 
L 294.248476 275.82744 
L 295.547744 275.513189 
L 297.659054 274.880743 
L 298.471097 274.945125 
L 301.394449 275.5703 
L 303.505759 275.563413 
L 305.61707 275.733093 
L 306.104295 275.566313 
L 306.429112 275.294941 
L 306.753929 274.775638 
L 307.078746 273.823415 
L 307.403563 272.145332 
L 307.72838 269.306719 
L 308.053197 264.713888 
L 308.378014 257.626242 
L 308.865239 240.52449 
L 309.352465 213.602164 
L 310.002098 162.022022 
L 311.301366 51.524829 
L 311.626183 37.91055 
L 311.788592 34.837248 
L 311.951 34.414125 
L 312.113409 36.653501 
L 312.438226 48.730273 
L 312.925451 82.39872 
L 314.711944 227.959275 
L 315.19917 248.04816 
L 315.686395 259.287258 
L 316.011212 263.209916 
L 316.336029 265.194329 
L 316.660846 265.884572 
L 316.823254 265.904668 
L 317.148071 265.523608 
L 317.635297 264.38592 
L 319.584199 259.372537 
L 321.857917 254.276083 
L 322.182734 254.209008 
L 322.507551 254.526831 
L 322.832368 255.222288 
L 323.482002 257.409761 
L 324.131636 259.502987 
L 324.456453 259.979392 
L 324.618861 259.985854 
L 324.78127 259.810881 
L 325.106087 258.863167 
L 325.430904 257.087902 
L 325.918129 253.059576 
L 327.217397 241.2898 
L 327.542214 240.225629 
L 327.704622 240.170482 
L 327.867031 240.466677 
L 328.191848 242.018113 
L 328.679073 246.37428 
L 330.303158 263.507814 
L 330.790384 265.970169 
L 331.1152 266.808111 
L 331.440017 267.159761 
L 331.764834 267.192664 
L 332.739285 266.924119 
L 333.064102 267.072089 
L 333.551328 267.652477 
L 334.200962 268.948891 
L 335.825046 272.427734 
L 336.799497 273.897039 
L 337.61154 274.712357 
L 338.098765 274.931914 
L 338.423582 274.890618 
L 338.748399 274.609222 
L 339.073216 273.956006 
L 339.398033 272.733329 
L 339.72285 270.669847 
L 340.047667 267.429507 
L 340.534892 259.566033 
L 341.022118 247.227996 
L 341.671751 223.874382 
L 342.808611 179.930242 
L 343.133428 172.532106 
L 343.458245 169.434199 
L 343.620653 169.648023 
L 343.783062 171.040905 
L 344.107879 177.14363 
L 344.595104 192.911891 
L 346.219189 253.630974 
L 346.706414 263.970262 
L 347.19364 270.243449 
L 347.680865 273.620041 
L 348.168091 275.240025 
L 348.655316 275.934894 
L 349.142541 276.20158 
L 349.954584 276.312953 
L 352.065894 276.264946 
L 354.989247 276.20234 
L 359.374275 276.333727 
L 375.127898 276.334125 
L 375.127898 276.334125 
" clip-path="url(#p6ca506dd1f)" style="fill: none; stroke: #0173b2; stroke-linecap: square"/>
   </g>
   <g id="line2d_12">
    <path d="M 50.473352 276.320905 
L 100.332755 276.232436 
L 103.580924 276.234234 
L 107.965953 276.23601 
L 115.274335 276.189915 
L 119.496955 276.186482 
L 125.181252 276.225351 
L 139.960423 276.134962 
L 158.799806 276.173563 
L 163.184835 276.220342 
L 171.792485 276.235907 
L 179.912908 276.202823 
L 193.880037 276.225412 
L 198.265066 276.25564 
L 229.285085 276.091431 
L 232.208438 276.137548 
L 235.294199 276.087725 
L 238.055143 276.106838 
L 242.764989 276.147546 
L 267.775894 276.025944 
L 288.888996 275.88766 
L 305.292253 275.628724 
L 306.104295 275.483799 
L 306.59152 275.176404 
L 306.916337 274.72496 
L 307.241154 273.897012 
L 307.565971 272.444822 
L 307.890788 270.015677 
L 308.215605 266.148805 
L 308.702831 256.454969 
L 309.190056 240.501471 
L 309.83969 208.211646 
L 311.301366 123.127079 
L 311.626183 113.874109 
L 311.788592 111.792915 
L 311.951 111.518442 
L 312.113409 113.069334 
L 312.438226 121.357753 
L 312.925451 144.407908 
L 314.711944 244.239487 
L 315.19917 258.246858 
L 315.686395 266.275378 
L 316.173621 270.157542 
L 316.498438 271.277632 
L 316.823254 271.667552 
L 317.148071 271.590478 
L 317.472888 271.221678 
L 318.122522 270.010654 
L 319.096973 267.634996 
L 320.071424 264.665197 
L 322.182734 257.498502 
L 322.507551 257.140948 
L 322.832368 257.118141 
L 323.157185 257.35773 
L 323.806819 258.030757 
L 324.131636 258.036502 
L 324.456453 257.51167 
L 324.78127 256.23693 
L 325.106087 254.058427 
L 325.593312 249.00737 
L 326.567763 234.948802 
L 327.217397 227.41709 
L 327.542214 225.705178 
L 327.704622 225.480381 
L 327.867031 225.728138 
L 328.191848 227.505011 
L 328.679073 232.831553 
L 330.303158 254.131285 
L 330.790384 256.987703 
L 331.1152 257.817379 
L 331.440017 258.004442 
L 331.764834 257.7823 
L 332.576877 256.937858 
L 332.901694 256.954806 
L 333.226511 257.315721 
L 333.713736 258.484338 
L 334.525778 261.488692 
L 335.662638 265.709619 
L 336.799497 268.985431 
L 337.773948 271.219053 
L 338.261173 271.920689 
L 338.58599 272.041193 
L 338.748399 271.936002 
L 339.073216 271.240901 
L 339.398033 269.620527 
L 339.72285 266.638136 
L 340.047667 261.765417 
L 340.534892 249.667994 
L 341.022118 230.484679 
L 341.671751 194.01912 
L 342.808611 125.246755 
L 343.133428 113.678657 
L 343.458245 108.836342 
L 343.620653 109.172466 
L 343.783062 111.355894 
L 344.107879 120.919107 
L 344.595104 145.625825 
L 346.219189 240.756079 
L 346.706414 256.951676 
L 347.19364 266.77609 
L 347.680865 272.059987 
L 348.168091 274.591213 
L 348.655316 275.672163 
L 349.142541 276.082 
L 349.792175 276.23527 
L 351.41626 276.240696 
L 358.562233 275.959383 
L 359.699092 275.925814 
L 361.485586 276.177789 
L 363.272079 276.317215 
L 368.956376 276.333504 
L 371.392503 276.242549 
L 372.366954 275.985354 
L 373.341404 275.444771 
L 374.640672 274.674166 
L 375.127898 274.588801 
L 375.127898 274.588801 
" clip-path="url(#p6ca506dd1f)" style="fill: none; stroke-dasharray: 3.7,1.6; stroke-dashoffset: 0; stroke: #d55e00"/>
   </g>
   <g id="patch_4">
    <path d="M 34.240625 288.430125 
L 34.240625 22.318125 
" style="fill: none; stroke: #000000; stroke-width: 0.8; stroke-linejoin: miter; stroke-linecap: square"/>
   </g>
   <g id="patch_5">
    <path d="M 391.360625 288.430125 
L 391.360625 22.318125 
" style="fill: none; stroke: #000000; stroke-width: 0.8; stroke-linejoin: miter; stroke-linecap: square"/>
   </g>
   <g id="patch_6">
    <path d="M 34.240625 288.430125 
L 391.360625 288.430125 
" style="fill: none; stroke: #000000; stroke-width: 0.8; stroke-linejoin: miter; stroke-linecap: square"/>
   </g>
   <g id="patch_7">
    <path d="M 34.240625 22.318125 
L 391.360625 22.318125 
" style="fill: none; stroke: #000000; stroke-width: 0.8; stroke-linejoin: miter; stroke-linecap: square"/>
   </g>
   <g id="text_13">
    <!-- Distance Distributions -->
    <g transform="translate(146.530625 16.318125) scale(0.12 -0.12)">
     <defs>
      <path id="DejaVuSans-20" transform="scale(0.015625)"/>
      <path id="DejaVuSans-72" d="M 2631 2963 
Q 2534 3019 2420 3045 
Q 2306 3072 2169 3072 
Q 1681 3072 1420 2755 
Q 1159 2438 1159 1844 
L 1159 0 
L 581 0 
L 581 3500 
L 1159 3500 
L 1159 2956 
Q 1341 3275 1631 3429 
Q 1922 3584 2338 3584 
Q 2397 3584 2469 3576 
Q 2541 3569 2628 3553 
L 2631 2963 
z
" transform="scale(0.015625)"/>
      <path id="DejaVuSans-62" d="M 3116 1747 
Q 3116 2381 2855 2742 
Q 2594 3103 2138 3103 
Q 1681 3103 1420 2742 
Q 1159 2381 1159 1747 
Q 1159 1113 1420 752 
Q 1681 391 2138 391 
Q 2594 391 2855 752 
Q 3116 1113 3116 1747 
z
M 1159 2969 
Q 1341 3281 1617 3432 
Q 1894 3584 2278 3584 
Q 2916 3584 3314 3078 
Q 3713 2572 3713 1747 
Q 3713 922 3314 415 
Q 2916 -91 2278 -91 
Q 1894 -91 1617 61 
Q 1341 213 1159 525 
L 1159 0 
L 581 0 
L 581 4863 
L 1159 4863 
L 1159 2969 
z
" transform="scale(0.015625)"/>
      <path id="DejaVuSans-75" d="M 544 1381 
L 544 3500 
L 1119 3500 
L 1119 1403 
Q 1119 906 1312 657 
Q 1506 409 1894 409 
Q 2359 409 2629 706 
Q 2900 1003 2900 1516 
L 2900 3500 
L 3475 3500 
L 3475 0 
L 2900 0 
L 2900 538 
Q 2691 219 2414 64 
Q 2138 -91 1772 -91 
Q 1169 -91 856 284 
Q 544 659 544 1381 
z
M 1991 3584 
L 1991 3584 
z
" transform="scale(0.015625)"/>
      <path id="DejaVuSans-6f" d="M 1959 3097 
Q 1497 3097 1228 2736 
Q 959 2375 959 1747 
Q 959 1119 1226 758 
Q 1494 397 1959 397 
Q 2419 397 2687 759 
Q 2956 1122 2956 1747 
Q 2956 2369 2687 2733 
Q 2419 3097 1959 3097 
z
M 1959 3584 
Q 2709 3584 3137 3096 
Q 3566 2609 3566 1747 
Q 3566 888 3137 398 
Q 2709 -91 1959 -91 
Q 1206 -91 779 398 
Q 353 888 353 1747 
Q 353 2609 779 3096 
Q 1206 3584 1959 3584 
z
" transform="scale(0.015625)"/>
     </defs>
     <use xlink:href="#DejaVuSans-44"/>
     <use xlink:href="#DejaVuSans-69" transform="translate(77.001953 0)"/>
     <use xlink:href="#DejaVuSans-73" transform="translate(104.785156 0)"/>
     <use xlink:href="#DejaVuSans-74" transform="translate(156.884766 0)"/>
     <use xlink:href="#DejaVuSans-61" transform="translate(196.09375 0)"/>
     <use xlink:href="#DejaVuSans-6e" transform="translate(257.373047 0)"/>
     <use xlink:href="#DejaVuSans-63" transform="translate(320.751953 0)"/>
     <use xlink:href="#DejaVuSans-65" transform="translate(375.732422 0)"/>
     <use xlink:href="#DejaVuSans-20" transform="translate(437.255859 0)"/>
     <use xlink:href="#DejaVuSans-44" transform="translate(469.042969 0)"/>
     <use xlink:href="#DejaVuSans-69" transform="translate(546.044922 0)"/>
     <use xlink:href="#DejaVuSans-73" transform="translate(573.828125 0)"/>
     <use xlink:href="#DejaVuSans-74" transform="translate(625.927734 0)"/>
     <use xlink:href="#DejaVuSans-72" transform="translate(665.136719 0)"/>
     <use xlink:href="#DejaVuSans-69" transform="translate(706.25 0)"/>
     <use xlink:href="#DejaVuSans-62" transform="translate(734.033203 0)"/>
     <use xlink:href="#DejaVuSans-75" transform="translate(797.509766 0)"/>
     <use xlink:href="#DejaVuSans-74" transform="translate(860.888672 0)"/>
     <use xlink:href="#DejaVuSans-69" transform="translate(900.097656 0)"/>
     <use xlink:href="#DejaVuSans-6f" transform="translate(927.880859 0)"/>
     <use xlink:href="#DejaVuSans-6e" transform="translate(989.0625 0)"/>
     <use xlink:href="#DejaVuSans-73" transform="translate(1052.441406 0)"/>
    </g>
   </g>
   <g id="legend_1">
    <g id="patch_8">
     <path d="M 41.240625 59.674375 
L 123.59375 59.674375 
Q 125.59375 59.674375 125.59375 57.674375 
L 125.59375 29.318125 
Q 125.59375 27.318125 123.59375 27.318125 
L 41.240625 27.318125 
Q 39.240625 27.318125 39.240625 29.318125 
L 39.240625 57.674375 
Q 39.240625 59.674375 41.240625 59.674375 
z
" style="fill: #ffffff; opacity: 0.8; stroke: #cccccc; stroke-linejoin: miter"/>
    </g>
    <g id="line2d_13">
     <path d="M 43.240625 35.416562 
L 53.240625 35.416562 
L 63.240625 35.416562 
" style="fill: none; stroke: #0173b2; stroke-linecap: square"/>
    </g>
    <g id="text_14">
     <!-- Drugs -->
     <g transform="translate(71.240625 38.916562) scale(0.1 -0.1)">
      <defs>
       <path id="DejaVuSans-67" d="M 2906 1791 
Q 2906 2416 2648 2759 
Q 2391 3103 1925 3103 
Q 1463 3103 1205 2759 
Q 947 2416 947 1791 
Q 947 1169 1205 825 
Q 1463 481 1925 481 
Q 2391 481 2648 825 
Q 2906 1169 2906 1791 
z
M 3481 434 
Q 3481 -459 3084 -895 
Q 2688 -1331 1869 -1331 
Q 1566 -1331 1297 -1286 
Q 1028 -1241 775 -1147 
L 775 -588 
Q 1028 -725 1275 -790 
Q 1522 -856 1778 -856 
Q 2344 -856 2625 -561 
Q 2906 -266 2906 331 
L 2906 616 
Q 2728 306 2450 153 
Q 2172 0 1784 0 
Q 1141 0 747 490 
Q 353 981 353 1791 
Q 353 2603 747 3093 
Q 1141 3584 1784 3584 
Q 2172 3584 2450 3431 
Q 2728 3278 2906 2969 
L 2906 3500 
L 3481 3500 
L 3481 434 
z
" transform="scale(0.015625)"/>
      </defs>
      <use xlink:href="#DejaVuSans-44"/>
      <use xlink:href="#DejaVuSans-72" transform="translate(77.001953 0)"/>
      <use xlink:href="#DejaVuSans-75" transform="translate(118.115234 0)"/>
      <use xlink:href="#DejaVuSans-67" transform="translate(181.494141 0)"/>
      <use xlink:href="#DejaVuSans-73" transform="translate(244.970703 0)"/>
     </g>
    </g>
    <g id="line2d_14">
     <path d="M 43.240625 50.094687 
L 53.240625 50.094687 
L 63.240625 50.094687 
" style="fill: none; stroke-dasharray: 3.7,1.6; stroke-dashoffset: 0; stroke: #d55e00"/>
    </g>
    <g id="text_15">
     <!-- Reference -->
     <g transform="translate(71.240625 53.594687) scale(0.1 -0.1)">
      <defs>
       <path id="DejaVuSans-52" d="M 2841 2188 
Q 3044 2119 3236 1894 
Q 3428 1669 3622 1275 
L 4263 0 
L 3584 0 
L 2988 1197 
Q 2756 1666 2539 1819 
Q 2322 1972 1947 1972 
L 1259 1972 
L 1259 0 
L 628 0 
L 628 4666 
L 2053 4666 
Q 2853 4666 3247 4331 
Q 3641 3997 3641 3322 
Q 3641 2881 3436 2590 
Q 3231 2300 2841 2188 
z
M 1259 4147 
L 1259 2491 
L 2053 2491 
Q 2509 2491 2742 2702 
Q 2975 2913 2975 3322 
Q 2975 3731 2742 3939 
Q 2509 4147 2053 4147 
L 1259 4147 
z
" transform="scale(0.015625)"/>
       <path id="DejaVuSans-66" d="M 2375 4863 
L 2375 4384 
L 1825 4384 
Q 1516 4384 1395 4259 
Q 1275 4134 1275 3809 
L 1275 3500 
L 2222 3500 
L 2222 3053 
L 1275 3053 
L 1275 0 
L 697 0 
L 697 3053 
L 147 3053 
L 147 3500 
L 697 3500 
L 697 3744 
Q 697 4328 969 4595 
Q 1241 4863 1831 4863 
L 2375 4863 
z
" transform="scale(0.015625)"/>
      </defs>
      <use xlink:href="#DejaVuSans-52"/>
      <use xlink:href="#DejaVuSans-65" transform="translate(64.982422 0)"/>
      <use xlink:href="#DejaVuSans-66" transform="translate(126.505859 0)"/>
      <use xlink:href="#DejaVuSans-65" transform="translate(161.710938 0)"/>
      <use xlink:href="#DejaVuSans-72" transform="translate(223.234375 0)"/>
      <use xlink:href="#DejaVuSans-65" transform="translate(262.097656 0)"/>
      <use xlink:href="#DejaVuSans-6e" transform="translate(323.621094 0)"/>
      <use xlink:href="#DejaVuSans-63" transform="translate(387 0)"/>
      <use xlink:href="#DejaVuSans-65" transform="translate(441.980469 0)"/>
     </g>
    </g>
   </g>
   <g id="line2d_15">
    <path d="M 308.099003 288.430125 
L 308.099003 22.318125 
" clip-path="url(#p6ca506dd1f)" style="fill: none; stroke: #029e73; stroke-width: 1.5; stroke-linecap: square"/>
   </g>
  </g>
 </g>
 <defs>
  <clipPath id="p6ca506dd1f">
   <rect x="34.240625" y="22.318125" width="357.12" height="266.112"/>
  </clipPath>
 </defs>
</svg>
