<?xml version="1.0" encoding="utf-8" standalone="no"?>
<!DOCTYPE svg PUBLIC "-//W3C//DTD SVG 1.1//EN"
  "http://www.w3.org/Graphics/SVG/1.1/DTD/svg11.dtd">
<svg xmlns:xlink="http://www.w3.org/1999/xlink" width="778.846563pt" height="325.986375pt" viewBox="0 0 778.846563 325.986375" xmlns="http://www.w3.org/2000/svg" version="1.1">
 <metadata>
  <rdf:RDF xmlns:dc="http://purl.org/dc/elements/1.1/" xmlns:cc="http://creativecommons.org/ns#" xmlns:rdf="http://www.w3.org/1999/02/22-rdf-syntax-ns#">
   <cc:Work>
    <dc:type rdf:resource="http://purl.org/dc/dcmitype/StillImage"/>
    <dc:date>2025-12-11T23:37:25.017622</dc:date>
    <dc:format>image/svg+xml</dc:format>
    <dc:creator>
     <cc:Agent>
      <dc:title>Matplotlib v3.10.7, https://matplotlib.org/</dc:title>
     </cc:Agent>
    </dc:creator>
   </cc:Work>
  </rdf:RDF>
 </metadata>
 <defs>
  <style type="text/css">*{stroke-linejoin: round; stroke-linecap: butt}</style>
 </defs>
 <g id="figure_1">
  <g id="patch_1">
   <path d="M 0 325.986375 
L 778.846563 325.986375 
L 778.846563 0 
L 0 0 
z
" style="fill: #ffffff"/>
  </g>
  <g id="axes_1">
   <g id="patch_2">
    <path d="M 318.2875 288.430125 
L 675.4075 288.430125 
L 675.4075 22.318125 
L 318.2875 22.318125 
z
" style="fill: #ffffff"/>
   </g>
   <g id="PathCollection_1">
    <path d="M 659.174773 37.091188 
C 659.884738 37.091188 660.565721 36.809116 661.067742 36.307094 
C 661.569764 35.805073 661.851836 35.12409 661.851836 34.414125 
C 661.851836 33.70416 661.569764 33.023177 661.067742 32.521156 
C 660.565721 32.019134 659.884738 31.737062 659.174773 31.737062 
C 658.464807 31.737062 657.783825 32.019134 657.281803 32.521156 
C 656.779782 33.023177 656.49771 33.70416 656.49771 34.414125 
C 656.49771 35.12409 656.779782 35.805073 657.281803 36.307094 
C 657.783825 36.809116 658.464807 37.091188 659.174773 37.091188 
z
" clip-path="url(#p22e6970693)" style="fill: #dddcdc; stroke: #ffffff; stroke-width: 0.357771"/>
    <path d="M 567.193862 50.201807 
C 568.004071 50.201807 568.781205 49.879908 569.354109 49.307003 
C 569.927013 48.734099 570.248912 47.956965 570.248912 47.146757 
C 570.248912 46.336548 569.927013 45.559414 569.354109 44.98651 
C 568.781205 44.413606 568.004071 44.091706 567.193862 44.091706 
C 566.383653 44.091706 565.606519 44.413606 565.033615 44.98651 
C 564.460711 45.559414 564.138811 46.336548 564.138811 47.146757 
C 564.138811 47.956965 564.460711 48.734099 565.033615 49.307003 
C 565.606519 49.879908 566.383653 50.201807 567.193862 50.201807 
z
" clip-path="url(#p22e6970693)" style="fill: #cfdaea; stroke: #ffffff; stroke-width: 0.357771"/>
    <path d="M 563.023508 62.115456 
C 563.61652 62.115456 564.185324 61.87985 564.604647 61.460527 
C 565.02397 61.041204 565.259576 60.4724 565.259576 59.879388 
C 565.259576 59.286376 565.02397 58.717572 564.604647 58.298249 
C 564.185324 57.878926 563.61652 57.64332 563.023508 57.64332 
C 562.430496 57.64332 561.861692 57.878926 561.442369 58.298249 
C 561.023046 58.717572 560.78744 59.286376 560.78744 59.879388 
C 560.78744 60.4724 561.023046 61.041204 561.442369 61.460527 
C 561.861692 61.87985 562.430496 62.115456 563.023508 62.115456 
z
" clip-path="url(#p22e6970693)" style="fill: #516ddb; stroke: #ffffff; stroke-width: 0.357771"/>
    <path d="M 556.668683 74.848088 
C 557.261695 74.848088 557.830499 74.612481 558.249822 74.193159 
C 558.669145 73.773836 558.904751 73.205032 558.904751 72.61202 
C 558.904751 72.019008 558.669145 71.450204 558.249822 71.030881 
C 557.830499 70.611558 557.261695 70.375952 556.668683 70.375952 
C 556.075671 70.375952 555.506867 70.611558 555.087544 71.030881 
C 554.668221 71.450204 554.432615 72.019008 554.432615 72.61202 
C 554.432615 73.205032 554.668221 73.773836 555.087544 74.193159 
C 555.506867 74.612481 556.075671 74.848088 556.668683 74.848088 
z
" clip-path="url(#p22e6970693)" style="fill: #4c66d6; stroke: #ffffff; stroke-width: 0.357771"/>
    <path d="M 550.544943 87.580719 
C 551.137955 87.580719 551.706759 87.345113 552.126081 86.92579 
C 552.545404 86.506467 552.781011 85.937663 552.781011 85.344651 
C 552.781011 84.751639 552.545404 84.182835 552.126081 83.763512 
C 551.706759 83.34419 551.137955 83.108583 550.544943 83.108583 
C 549.95193 83.108583 549.383127 83.34419 548.963804 83.763512 
C 548.544481 84.182835 548.308875 84.751639 548.308875 85.344651 
C 548.308875 85.937663 548.544481 86.506467 548.963804 86.92579 
C 549.383127 87.345113 549.95193 87.580719 550.544943 87.580719 
z
" clip-path="url(#p22e6970693)" style="fill: #4a63d3; stroke: #ffffff; stroke-width: 0.357771"/>
    <path d="M 514.567968 102.056395 
C 515.623241 102.056395 516.635434 101.637131 517.381625 100.89094 
C 518.127815 100.144749 518.54708 99.132556 518.54708 98.077283 
C 518.54708 97.02201 518.127815 96.009816 517.381625 95.263626 
C 516.635434 94.517435 515.623241 94.098171 514.567968 94.098171 
C 513.512695 94.098171 512.500501 94.517435 511.75431 95.263626 
C 511.00812 96.009816 510.588856 97.02201 510.588856 98.077283 
C 510.588856 99.132556 511.00812 100.144749 511.75431 100.89094 
C 512.500501 101.637131 513.512695 102.056395 514.567968 102.056395 
z
" clip-path="url(#p22e6970693)" style="fill: #f7b599; stroke: #ffffff; stroke-width: 0.357771"/>
    <path d="M 512.737502 113.486978 
C 513.447467 113.486978 514.12845 113.204905 514.630471 112.702884 
C 515.132493 112.200863 515.414565 111.51988 515.414565 110.809914 
C 515.414565 110.099949 515.132493 109.418966 514.630471 108.916945 
C 514.12845 108.414924 513.447467 108.132851 512.737502 108.132851 
C 512.027536 108.132851 511.346554 108.414924 510.844532 108.916945 
C 510.342511 109.418966 510.060439 110.099949 510.060439 110.809914 
C 510.060439 111.51988 510.342511 112.200863 510.844532 112.702884 
C 511.346554 113.204905 512.027536 113.486978 512.737502 113.486978 
z
" clip-path="url(#p22e6970693)" style="fill: #516ddb; stroke: #ffffff; stroke-width: 0.357771"/>
    <path d="M 470.509079 128.033277 
C 471.700035 128.033277 472.842373 127.560105 473.684506 126.717973 
C 474.526639 125.87584 474.999811 124.733502 474.999811 123.542546 
C 474.999811 122.35159 474.526639 121.209253 473.684506 120.36712 
C 472.842373 119.524987 471.700035 119.051815 470.509079 119.051815 
C 469.318124 119.051815 468.175786 119.524987 467.333653 120.36712 
C 466.49152 121.209253 466.018348 122.35159 466.018348 123.542546 
C 466.018348 124.733502 466.49152 125.87584 467.333653 126.717973 
C 468.175786 127.560105 469.318124 128.033277 470.509079 128.033277 
z
" clip-path="url(#p22e6970693)" style="fill: #f7b396; stroke: #ffffff; stroke-width: 0.357771"/>
    <path d="M 451.761982 140.25429 
C 452.817255 140.25429 453.829449 139.835025 454.57564 139.088835 
C 455.32183 138.342644 455.741094 137.330451 455.741094 136.275178 
C 455.741094 135.219905 455.32183 134.207711 454.57564 133.46152 
C 453.829449 132.71533 452.817255 132.296066 451.761982 132.296066 
C 450.706709 132.296066 449.694516 132.71533 448.948325 133.46152 
C 448.202135 134.207711 447.78287 135.219905 447.78287 136.275178 
C 447.78287 137.330451 448.202135 138.342644 448.948325 139.088835 
C 449.694516 139.835025 450.706709 140.25429 451.761982 140.25429 
z
" clip-path="url(#p22e6970693)" style="fill: #bcd2f7; stroke: #ffffff; stroke-width: 0.357771"/>
    <path d="M 441.122194 153.25045 
C 442.247356 153.25045 443.326585 152.803419 444.122194 152.007809 
C 444.917803 151.2122 445.364835 150.132971 445.364835 149.007809 
C 445.364835 147.882648 444.917803 146.803419 444.122194 146.007809 
C 443.326585 145.2122 442.247356 144.765169 441.122194 144.765169 
C 439.997033 144.765169 438.917803 145.2122 438.122194 146.007809 
C 437.326585 146.803419 436.879553 147.882648 436.879553 149.007809 
C 436.879553 150.132971 437.326585 151.2122 438.122194 152.007809 
C 438.917803 152.803419 439.997033 153.25045 441.122194 153.25045 
z
" clip-path="url(#p22e6970693)" style="fill: #cfdaea; stroke: #ffffff; stroke-width: 0.357771"/>
    <path d="M 440.719172 167.110109 
C 442.143224 167.110109 443.509143 166.544327 444.5161 165.537369 
C 445.523058 164.530412 446.08884 163.164493 446.08884 161.740441 
C 446.08884 160.316388 445.523058 158.950469 444.5161 157.943512 
C 443.509143 156.936555 442.143224 156.370773 440.719172 156.370773 
C 439.295119 156.370773 437.9292 156.936555 436.922243 157.943512 
C 435.915286 158.950469 435.349504 160.316388 435.349504 161.740441 
C 435.349504 163.164493 435.915286 164.530412 436.922243 165.537369 
C 437.9292 166.544327 439.295119 167.110109 440.719172 167.110109 
z
" clip-path="url(#p22e6970693)" style="fill: #b40426; stroke: #ffffff; stroke-width: 0.357771"/>
    <path d="M 408.861855 178.169918 
C 409.84227 178.169918 410.782661 177.780395 411.475919 177.087137 
C 412.169177 176.393879 412.5587 175.453487 412.5587 174.473072 
C 412.5587 173.492657 412.169177 172.552266 411.475919 171.859008 
C 410.782661 171.16575 409.84227 170.776227 408.861855 170.776227 
C 407.88144 170.776227 406.941048 171.16575 406.24779 171.859008 
C 405.554532 172.552266 405.165009 173.492657 405.165009 174.473072 
C 405.165009 175.453487 405.554532 176.393879 406.24779 177.087137 
C 406.941048 177.780395 407.88144 178.169918 408.861855 178.169918 
z
" clip-path="url(#p22e6970693)" style="fill: #3b4cc0; stroke: #ffffff; stroke-width: 0.357771"/>
    <path d="M 408.861855 190.902549 
C 409.84227 190.902549 410.782661 190.513026 411.475919 189.819768 
C 412.169177 189.12651 412.5587 188.186119 412.5587 187.205704 
C 412.5587 186.225289 412.169177 185.284897 411.475919 184.591639 
C 410.782661 183.898381 409.84227 183.508858 408.861855 183.508858 
C 407.88144 183.508858 406.941048 183.898381 406.24779 184.591639 
C 405.554532 185.284897 405.165009 186.225289 405.165009 187.205704 
C 405.165009 188.186119 405.554532 189.12651 406.24779 189.819768 
C 406.941048 190.513026 407.88144 190.902549 408.861855 190.902549 
z
" clip-path="url(#p22e6970693)" style="fill: #3b4cc0; stroke: #ffffff; stroke-width: 0.357771"/>
    <path d="M 405.992438 203.917448 
C 407.047711 203.917448 408.059905 203.498183 408.806096 202.751993 
C 409.552286 202.005802 409.971551 200.993608 409.971551 199.938336 
C 409.971551 198.883063 409.552286 197.870869 408.806096 197.124678 
C 408.059905 196.378488 407.047711 195.959223 405.992438 195.959223 
C 404.937166 195.959223 403.924972 196.378488 403.178781 197.124678 
C 402.432591 197.870869 402.013326 198.883063 402.013326 199.938336 
C 402.013326 200.993608 402.432591 202.005802 403.178781 202.751993 
C 403.924972 203.498183 404.937166 203.917448 405.992438 203.917448 
z
" clip-path="url(#p22e6970693)" style="fill: #516ddb; stroke: #ffffff; stroke-width: 0.357771"/>
    <path d="M 394.637822 217.161698 
C 395.828777 217.161698 396.971115 216.688527 397.813248 215.846394 
C 398.655381 215.004261 399.128553 213.861923 399.128553 212.670967 
C 399.128553 211.480011 398.655381 210.337674 397.813248 209.495541 
C 396.971115 208.653408 395.828777 208.180236 394.637822 208.180236 
C 393.446866 208.180236 392.304528 208.653408 391.462395 209.495541 
C 390.620262 210.337674 390.14709 211.480011 390.14709 212.670967 
C 390.14709 213.861923 390.620262 215.004261 391.462395 215.846394 
C 392.304528 216.688527 393.446866 217.161698 394.637822 217.161698 
z
" clip-path="url(#p22e6970693)" style="fill: #779af7; stroke: #ffffff; stroke-width: 0.357771"/>
    <path d="M 382.342103 229.89433 
C 383.533058 229.89433 384.675396 229.421158 385.517529 228.579025 
C 386.359662 227.736892 386.832834 226.594555 386.832834 225.403599 
C 386.832834 224.212643 386.359662 223.070305 385.517529 222.228172 
C 384.675396 221.386039 383.533058 220.912867 382.342103 220.912867 
C 381.151147 220.912867 380.008809 221.386039 379.166676 222.228172 
C 378.324543 223.070305 377.851371 224.212643 377.851371 225.403599 
C 377.851371 226.594555 378.324543 227.736892 379.166676 228.579025 
C 380.008809 229.421158 381.151147 229.89433 382.342103 229.89433 
z
" clip-path="url(#p22e6970693)" style="fill: #536edd; stroke: #ffffff; stroke-width: 0.357771"/>
    <path d="M 371.662722 242.626961 
C 372.853678 242.626961 373.996016 242.15379 374.838149 241.311657 
C 375.680282 240.469524 376.153454 239.327186 376.153454 238.13623 
C 376.153454 236.945274 375.680282 235.802937 374.838149 234.960804 
C 373.996016 234.118671 372.853678 233.645499 371.662722 233.645499 
C 370.471767 233.645499 369.329429 234.118671 368.487296 234.960804 
C 367.645163 235.802937 367.171991 236.945274 367.171991 238.13623 
C 367.171991 239.327186 367.645163 240.469524 368.487296 241.311657 
C 369.329429 242.15379 370.471767 242.626961 371.662722 242.626961 
z
" clip-path="url(#p22e6970693)" style="fill: #3d50c3; stroke: #ffffff; stroke-width: 0.357771"/>
    <path d="M 363.76138 256.813047 
C 365.337796 256.813047 366.849859 256.18673 367.964554 255.072035 
C 369.079248 253.957341 369.705565 252.445278 369.705565 250.868862 
C 369.705565 249.292446 369.079248 247.780383 367.964554 246.665688 
C 366.849859 245.550994 365.337796 244.924677 363.76138 244.924677 
C 362.184964 244.924677 360.672901 245.550994 359.558207 246.665688 
C 358.443512 247.780383 357.817195 249.292446 357.817195 250.868862 
C 357.817195 252.445278 358.443512 253.957341 359.558207 255.072035 
C 360.672901 256.18673 362.184964 256.813047 363.76138 256.813047 
z
" clip-path="url(#p22e6970693)" style="fill: #dddcdc; stroke: #ffffff; stroke-width: 0.357771"/>
    <path d="M 356.868678 269.725218 
C 358.492708 269.725218 360.050442 269.079984 361.198805 267.93162 
C 362.347168 266.783257 362.992402 265.225524 362.992402 263.601493 
C 362.992402 261.977463 362.347168 260.41973 361.198805 259.271366 
C 360.050442 258.123003 358.492708 257.477769 356.868678 257.477769 
C 355.244647 257.477769 353.686914 258.123003 352.538551 259.271366 
C 351.390188 260.41973 350.744953 261.977463 350.744953 263.601493 
C 350.744953 265.225524 351.390188 266.783257 352.538551 267.93162 
C 353.686914 269.079984 355.244647 269.725218 356.868678 269.725218 
z
" clip-path="url(#p22e6970693)" style="fill: #dddcdc; stroke: #ffffff; stroke-width: 0.357771"/>
    <path d="M 334.520227 282.457849 
C 336.144258 282.457849 337.701991 281.812615 338.850354 280.664252 
C 339.998717 279.515889 340.643952 277.958156 340.643952 276.334125 
C 340.643952 274.710094 339.998717 273.152361 338.850354 272.003998 
C 337.701991 270.855635 336.144258 270.210401 334.520227 270.210401 
C 332.896197 270.210401 331.338463 270.855635 330.1901 272.003998 
C 329.041737 273.152361 328.396503 274.710094 328.396503 276.334125 
C 328.396503 277.958156 329.041737 279.515889 330.1901 280.664252 
C 331.338463 281.812615 332.896197 282.457849 334.520227 282.457849 
z
" clip-path="url(#p22e6970693)" style="fill: #6788ee; stroke: #ffffff; stroke-width: 0.357771"/>
   </g>
   <g id="matplotlib.axis_1">
    <g id="xtick_1">
     <g id="line2d_1">
      <defs>
       <path id="m68354ec82f" d="M 0 0 
L 0 3.5 
" style="stroke: #000000; stroke-width: 0.8"/>
      </defs>
      <g>
       <use xlink:href="#m68354ec82f" x="343.883867" y="288.430125" style="stroke: #000000; stroke-width: 0.8"/>
      </g>
     </g>
     <g id="text_1">
      <!-- 4 -->
      <g transform="translate(340.702617 303.028562) scale(0.1 -0.1)">
       <defs>
        <path id="DejaVuSans-34" d="M 2419 4116 
L 825 1625 
L 2419 1625 
L 2419 4116 
z
M 2253 4666 
L 3047 4666 
L 3047 1625 
L 3713 1625 
L 3713 1100 
L 3047 1100 
L 3047 0 
L 2419 0 
L 2419 1100 
L 313 1100 
L 313 1709 
L 2253 4666 
z
" transform="scale(0.015625)"/>
       </defs>
       <use xlink:href="#DejaVuSans-34"/>
      </g>
     </g>
    </g>
    <g id="xtick_2">
     <g id="line2d_2">
      <g>
       <use xlink:href="#m68354ec82f" x="405.894321" y="288.430125" style="stroke: #000000; stroke-width: 0.8"/>
      </g>
     </g>
     <g id="text_2">
      <!-- 6 -->
      <g transform="translate(402.713071 303.028562) scale(0.1 -0.1)">
       <defs>
        <path id="DejaVuSans-36" d="M 2113 2584 
Q 1688 2584 1439 2293 
Q 1191 2003 1191 1497 
Q 1191 994 1439 701 
Q 1688 409 2113 409 
Q 2538 409 2786 701 
Q 3034 994 3034 1497 
Q 3034 2003 2786 2293 
Q 2538 2584 2113 2584 
z
M 3366 4563 
L 3366 3988 
Q 3128 4100 2886 4159 
Q 2644 4219 2406 4219 
Q 1781 4219 1451 3797 
Q 1122 3375 1075 2522 
Q 1259 2794 1537 2939 
Q 1816 3084 2150 3084 
Q 2853 3084 3261 2657 
Q 3669 2231 3669 1497 
Q 3669 778 3244 343 
Q 2819 -91 2113 -91 
Q 1303 -91 875 529 
Q 447 1150 447 2328 
Q 447 3434 972 4092 
Q 1497 4750 2381 4750 
Q 2619 4750 2861 4703 
Q 3103 4656 3366 4563 
z
" transform="scale(0.015625)"/>
       </defs>
       <use xlink:href="#DejaVuSans-36"/>
      </g>
     </g>
    </g>
    <g id="xtick_3">
     <g id="line2d_3">
      <g>
       <use xlink:href="#m68354ec82f" x="467.904774" y="288.430125" style="stroke: #000000; stroke-width: 0.8"/>
      </g>
     </g>
     <g id="text_3">
      <!-- 8 -->
      <g transform="translate(464.723524 303.028562) scale(0.1 -0.1)">
       <defs>
        <path id="DejaVuSans-38" d="M 2034 2216 
Q 1584 2216 1326 1975 
Q 1069 1734 1069 1313 
Q 1069 891 1326 650 
Q 1584 409 2034 409 
Q 2484 409 2743 651 
Q 3003 894 3003 1313 
Q 3003 1734 2745 1975 
Q 2488 2216 2034 2216 
z
M 1403 2484 
Q 997 2584 770 2862 
Q 544 3141 544 3541 
Q 544 4100 942 4425 
Q 1341 4750 2034 4750 
Q 2731 4750 3128 4425 
Q 3525 4100 3525 3541 
Q 3525 3141 3298 2862 
Q 3072 2584 2669 2484 
Q 3125 2378 3379 2068 
Q 3634 1759 3634 1313 
Q 3634 634 3220 271 
Q 2806 -91 2034 -91 
Q 1263 -91 848 271 
Q 434 634 434 1313 
Q 434 1759 690 2068 
Q 947 2378 1403 2484 
z
M 1172 3481 
Q 1172 3119 1398 2916 
Q 1625 2713 2034 2713 
Q 2441 2713 2670 2916 
Q 2900 3119 2900 3481 
Q 2900 3844 2670 4047 
Q 2441 4250 2034 4250 
Q 1625 4250 1398 4047 
Q 1172 3844 1172 3481 
z
" transform="scale(0.015625)"/>
       </defs>
       <use xlink:href="#DejaVuSans-38"/>
      </g>
     </g>
    </g>
    <g id="xtick_4">
     <g id="line2d_4">
      <g>
       <use xlink:href="#m68354ec82f" x="529.915228" y="288.430125" style="stroke: #000000; stroke-width: 0.8"/>
      </g>
     </g>
     <g id="text_4">
      <!-- 10 -->
      <g transform="translate(523.552728 303.028562) scale(0.1 -0.1)">
       <defs>
        <path id="DejaVuSans-31" d="M 794 531 
L 1825 531 
L 1825 4091 
L 703 3866 
L 703 4441 
L 1819 4666 
L 2450 4666 
L 2450 531 
L 3481 531 
L 3481 0 
L 794 0 
L 794 531 
z
" transform="scale(0.015625)"/>
        <path id="DejaVuSans-30" d="M 2034 4250 
Q 1547 4250 1301 3770 
Q 1056 3291 1056 2328 
Q 1056 1369 1301 889 
Q 1547 409 2034 409 
Q 2525 409 2770 889 
Q 3016 1369 3016 2328 
Q 3016 3291 2770 3770 
Q 2525 4250 2034 4250 
z
M 2034 4750 
Q 2819 4750 3233 4129 
Q 3647 3509 3647 2328 
Q 3647 1150 3233 529 
Q 2819 -91 2034 -91 
Q 1250 -91 836 529 
Q 422 1150 422 2328 
Q 422 3509 836 4129 
Q 1250 4750 2034 4750 
z
" transform="scale(0.015625)"/>
       </defs>
       <use xlink:href="#DejaVuSans-31"/>
       <use xlink:href="#DejaVuSans-30" transform="translate(63.623047 0)"/>
      </g>
     </g>
    </g>
    <g id="xtick_5">
     <g id="line2d_5">
      <g>
       <use xlink:href="#m68354ec82f" x="591.925681" y="288.430125" style="stroke: #000000; stroke-width: 0.8"/>
      </g>
     </g>
     <g id="text_5">
      <!-- 12 -->
      <g transform="translate(585.563181 303.028562) scale(0.1 -0.1)">
       <defs>
        <path id="DejaVuSans-32" d="M 1228 531 
L 3431 531 
L 3431 0 
L 469 0 
L 469 531 
Q 828 903 1448 1529 
Q 2069 2156 2228 2338 
Q 2531 2678 2651 2914 
Q 2772 3150 2772 3378 
Q 2772 3750 2511 3984 
Q 2250 4219 1831 4219 
Q 1534 4219 1204 4116 
Q 875 4013 500 3803 
L 500 4441 
Q 881 4594 1212 4672 
Q 1544 4750 1819 4750 
Q 2544 4750 2975 4387 
Q 3406 4025 3406 3419 
Q 3406 3131 3298 2873 
Q 3191 2616 2906 2266 
Q 2828 2175 2409 1742 
Q 1991 1309 1228 531 
z
" transform="scale(0.015625)"/>
       </defs>
       <use xlink:href="#DejaVuSans-31"/>
       <use xlink:href="#DejaVuSans-32" transform="translate(63.623047 0)"/>
      </g>
     </g>
    </g>
    <g id="xtick_6">
     <g id="line2d_6">
      <g>
       <use xlink:href="#m68354ec82f" x="653.936135" y="288.430125" style="stroke: #000000; stroke-width: 0.8"/>
      </g>
     </g>
     <g id="text_6">
      <!-- 14 -->
      <g transform="translate(647.573635 303.028562) scale(0.1 -0.1)">
       <use xlink:href="#DejaVuSans-31"/>
       <use xlink:href="#DejaVuSans-34" transform="translate(63.623047 0)"/>
      </g>
     </g>
    </g>
    <g id="text_7">
     <!-- Fold Enrichment -->
     <g transform="translate(456.174844 316.706687) scale(0.1 -0.1)">
      <defs>
       <path id="DejaVuSans-46" d="M 628 4666 
L 3309 4666 
L 3309 4134 
L 1259 4134 
L 1259 2759 
L 3109 2759 
L 3109 2228 
L 1259 2228 
L 1259 0 
L 628 0 
L 628 4666 
z
" transform="scale(0.015625)"/>
       <path id="DejaVuSans-6f" d="M 1959 3097 
Q 1497 3097 1228 2736 
Q 959 2375 959 1747 
Q 959 1119 1226 758 
Q 1494 397 1959 397 
Q 2419 397 2687 759 
Q 2956 1122 2956 1747 
Q 2956 2369 2687 2733 
Q 2419 3097 1959 3097 
z
M 1959 3584 
Q 2709 3584 3137 3096 
Q 3566 2609 3566 1747 
Q 3566 888 3137 398 
Q 2709 -91 1959 -91 
Q 1206 -91 779 398 
Q 353 888 353 1747 
Q 353 2609 779 3096 
Q 1206 3584 1959 3584 
z
" transform="scale(0.015625)"/>
       <path id="DejaVuSans-6c" d="M 603 4863 
L 1178 4863 
L 1178 0 
L 603 0 
L 603 4863 
z
" transform="scale(0.015625)"/>
       <path id="DejaVuSans-64" d="M 2906 2969 
L 2906 4863 
L 3481 4863 
L 3481 0 
L 2906 0 
L 2906 525 
Q 2725 213 2448 61 
Q 2172 -91 1784 -91 
Q 1150 -91 751 415 
Q 353 922 353 1747 
Q 353 2572 751 3078 
Q 1150 3584 1784 3584 
Q 2172 3584 2448 3432 
Q 2725 3281 2906 2969 
z
M 947 1747 
Q 947 1113 1208 752 
Q 1469 391 1925 391 
Q 2381 391 2643 752 
Q 2906 1113 2906 1747 
Q 2906 2381 2643 2742 
Q 2381 3103 1925 3103 
Q 1469 3103 1208 2742 
Q 947 2381 947 1747 
z
" transform="scale(0.015625)"/>
       <path id="DejaVuSans-20" transform="scale(0.015625)"/>
       <path id="DejaVuSans-45" d="M 628 4666 
L 3578 4666 
L 3578 4134 
L 1259 4134 
L 1259 2753 
L 3481 2753 
L 3481 2222 
L 1259 2222 
L 1259 531 
L 3634 531 
L 3634 0 
L 628 0 
L 628 4666 
z
" transform="scale(0.015625)"/>
       <path id="DejaVuSans-6e" d="M 3513 2113 
L 3513 0 
L 2938 0 
L 2938 2094 
Q 2938 2591 2744 2837 
Q 2550 3084 2163 3084 
Q 1697 3084 1428 2787 
Q 1159 2491 1159 1978 
L 1159 0 
L 581 0 
L 581 3500 
L 1159 3500 
L 1159 2956 
Q 1366 3272 1645 3428 
Q 1925 3584 2291 3584 
Q 2894 3584 3203 3211 
Q 3513 2838 3513 2113 
z
" transform="scale(0.015625)"/>
       <path id="DejaVuSans-72" d="M 2631 2963 
Q 2534 3019 2420 3045 
Q 2306 3072 2169 3072 
Q 1681 3072 1420 2755 
Q 1159 2438 1159 1844 
L 1159 0 
L 581 0 
L 581 3500 
L 1159 3500 
L 1159 2956 
Q 1341 3275 1631 3429 
Q 1922 3584 2338 3584 
Q 2397 3584 2469 3576 
Q 2541 3569 2628 3553 
L 2631 2963 
z
" transform="scale(0.015625)"/>
       <path id="DejaVuSans-69" d="M 603 3500 
L 1178 3500 
L 1178 0 
L 603 0 
L 603 3500 
z
M 603 4863 
L 1178 4863 
L 1178 4134 
L 603 4134 
L 603 4863 
z
" transform="scale(0.015625)"/>
       <path id="DejaVuSans-63" d="M 3122 3366 
L 3122 2828 
Q 2878 2963 2633 3030 
Q 2388 3097 2138 3097 
Q 1578 3097 1268 2742 
Q 959 2388 959 1747 
Q 959 1106 1268 751 
Q 1578 397 2138 397 
Q 2388 397 2633 464 
Q 2878 531 3122 666 
L 3122 134 
Q 2881 22 2623 -34 
Q 2366 -91 2075 -91 
Q 1284 -91 818 406 
Q 353 903 353 1747 
Q 353 2603 823 3093 
Q 1294 3584 2113 3584 
Q 2378 3584 2631 3529 
Q 2884 3475 3122 3366 
z
" transform="scale(0.015625)"/>
       <path id="DejaVuSans-68" d="M 3513 2113 
L 3513 0 
L 2938 0 
L 2938 2094 
Q 2938 2591 2744 2837 
Q 2550 3084 2163 3084 
Q 1697 3084 1428 2787 
Q 1159 2491 1159 1978 
L 1159 0 
L 581 0 
L 581 4863 
L 1159 4863 
L 1159 2956 
Q 1366 3272 1645 3428 
Q 1925 3584 2291 3584 
Q 2894 3584 3203 3211 
Q 3513 2838 3513 2113 
z
" transform="scale(0.015625)"/>
       <path id="DejaVuSans-6d" d="M 3328 2828 
Q 3544 3216 3844 3400 
Q 4144 3584 4550 3584 
Q 5097 3584 5394 3201 
Q 5691 2819 5691 2113 
L 5691 0 
L 5113 0 
L 5113 2094 
Q 5113 2597 4934 2840 
Q 4756 3084 4391 3084 
Q 3944 3084 3684 2787 
Q 3425 2491 3425 1978 
L 3425 0 
L 2847 0 
L 2847 2094 
Q 2847 2600 2669 2842 
Q 2491 3084 2119 3084 
Q 1678 3084 1418 2786 
Q 1159 2488 1159 1978 
L 1159 0 
L 581 0 
L 581 3500 
L 1159 3500 
L 1159 2956 
Q 1356 3278 1631 3431 
Q 1906 3584 2284 3584 
Q 2666 3584 2933 3390 
Q 3200 3197 3328 2828 
z
" transform="scale(0.015625)"/>
       <path id="DejaVuSans-65" d="M 3597 1894 
L 3597 1613 
L 953 1613 
Q 991 1019 1311 708 
Q 1631 397 2203 397 
Q 2534 397 2845 478 
Q 3156 559 3463 722 
L 3463 178 
Q 3153 47 2828 -22 
Q 2503 -91 2169 -91 
Q 1331 -91 842 396 
Q 353 884 353 1716 
Q 353 2575 817 3079 
Q 1281 3584 2069 3584 
Q 2775 3584 3186 3129 
Q 3597 2675 3597 1894 
z
M 3022 2063 
Q 3016 2534 2758 2815 
Q 2500 3097 2075 3097 
Q 1594 3097 1305 2825 
Q 1016 2553 972 2059 
L 3022 2063 
z
" transform="scale(0.015625)"/>
       <path id="DejaVuSans-74" d="M 1172 4494 
L 1172 3500 
L 2356 3500 
L 2356 3053 
L 1172 3053 
L 1172 1153 
Q 1172 725 1289 603 
Q 1406 481 1766 481 
L 2356 481 
L 2356 0 
L 1766 0 
Q 1100 0 847 248 
Q 594 497 594 1153 
L 594 3053 
L 172 3053 
L 172 3500 
L 594 3500 
L 594 4494 
L 1172 4494 
z
" transform="scale(0.015625)"/>
      </defs>
      <use xlink:href="#DejaVuSans-46"/>
      <use xlink:href="#DejaVuSans-6f" transform="translate(53.894531 0)"/>
      <use xlink:href="#DejaVuSans-6c" transform="translate(115.076172 0)"/>
      <use xlink:href="#DejaVuSans-64" transform="translate(142.859375 0)"/>
      <use xlink:href="#DejaVuSans-20" transform="translate(206.335938 0)"/>
      <use xlink:href="#DejaVuSans-45" transform="translate(238.123047 0)"/>
      <use xlink:href="#DejaVuSans-6e" transform="translate(301.306641 0)"/>
      <use xlink:href="#DejaVuSans-72" transform="translate(364.685547 0)"/>
      <use xlink:href="#DejaVuSans-69" transform="translate(405.798828 0)"/>
      <use xlink:href="#DejaVuSans-63" transform="translate(433.582031 0)"/>
      <use xlink:href="#DejaVuSans-68" transform="translate(488.5625 0)"/>
      <use xlink:href="#DejaVuSans-6d" transform="translate(551.941406 0)"/>
      <use xlink:href="#DejaVuSans-65" transform="translate(649.353516 0)"/>
      <use xlink:href="#DejaVuSans-6e" transform="translate(710.876953 0)"/>
      <use xlink:href="#DejaVuSans-74" transform="translate(774.255859 0)"/>
     </g>
    </g>
   </g>
   <g id="matplotlib.axis_2">
    <g id="ytick_1">
     <g id="line2d_7">
      <defs>
       <path id="mddbf9d1536" d="M 0 0 
L -3.5 0 
" style="stroke: #000000; stroke-width: 0.8"/>
      </defs>
      <g>
       <use xlink:href="#mddbf9d1536" x="318.2875" y="34.414125" style="stroke: #000000; stroke-width: 0.8"/>
      </g>
     </g>
     <g id="text_8">
      <!-- EEG with spike-wave complexes -->
      <g transform="translate(150.81875 38.213344) scale(0.1 -0.1)">
       <defs>
        <path id="DejaVuSans-47" d="M 3809 666 
L 3809 1919 
L 2778 1919 
L 2778 2438 
L 4434 2438 
L 4434 434 
Q 4069 175 3628 42 
Q 3188 -91 2688 -91 
Q 1594 -91 976 548 
Q 359 1188 359 2328 
Q 359 3472 976 4111 
Q 1594 4750 2688 4750 
Q 3144 4750 3555 4637 
Q 3966 4525 4313 4306 
L 4313 3634 
Q 3963 3931 3569 4081 
Q 3175 4231 2741 4231 
Q 1884 4231 1454 3753 
Q 1025 3275 1025 2328 
Q 1025 1384 1454 906 
Q 1884 428 2741 428 
Q 3075 428 3337 486 
Q 3600 544 3809 666 
z
" transform="scale(0.015625)"/>
        <path id="DejaVuSans-77" d="M 269 3500 
L 844 3500 
L 1563 769 
L 2278 3500 
L 2956 3500 
L 3675 769 
L 4391 3500 
L 4966 3500 
L 4050 0 
L 3372 0 
L 2619 2869 
L 1863 0 
L 1184 0 
L 269 3500 
z
" transform="scale(0.015625)"/>
        <path id="DejaVuSans-73" d="M 2834 3397 
L 2834 2853 
Q 2591 2978 2328 3040 
Q 2066 3103 1784 3103 
Q 1356 3103 1142 2972 
Q 928 2841 928 2578 
Q 928 2378 1081 2264 
Q 1234 2150 1697 2047 
L 1894 2003 
Q 2506 1872 2764 1633 
Q 3022 1394 3022 966 
Q 3022 478 2636 193 
Q 2250 -91 1575 -91 
Q 1294 -91 989 -36 
Q 684 19 347 128 
L 347 722 
Q 666 556 975 473 
Q 1284 391 1588 391 
Q 1994 391 2212 530 
Q 2431 669 2431 922 
Q 2431 1156 2273 1281 
Q 2116 1406 1581 1522 
L 1381 1569 
Q 847 1681 609 1914 
Q 372 2147 372 2553 
Q 372 3047 722 3315 
Q 1072 3584 1716 3584 
Q 2034 3584 2315 3537 
Q 2597 3491 2834 3397 
z
" transform="scale(0.015625)"/>
        <path id="DejaVuSans-70" d="M 1159 525 
L 1159 -1331 
L 581 -1331 
L 581 3500 
L 1159 3500 
L 1159 2969 
Q 1341 3281 1617 3432 
Q 1894 3584 2278 3584 
Q 2916 3584 3314 3078 
Q 3713 2572 3713 1747 
Q 3713 922 3314 415 
Q 2916 -91 2278 -91 
Q 1894 -91 1617 61 
Q 1341 213 1159 525 
z
M 3116 1747 
Q 3116 2381 2855 2742 
Q 2594 3103 2138 3103 
Q 1681 3103 1420 2742 
Q 1159 2381 1159 1747 
Q 1159 1113 1420 752 
Q 1681 391 2138 391 
Q 2594 391 2855 752 
Q 3116 1113 3116 1747 
z
" transform="scale(0.015625)"/>
        <path id="DejaVuSans-6b" d="M 581 4863 
L 1159 4863 
L 1159 1991 
L 2875 3500 
L 3609 3500 
L 1753 1863 
L 3688 0 
L 2938 0 
L 1159 1709 
L 1159 0 
L 581 0 
L 581 4863 
z
" transform="scale(0.015625)"/>
        <path id="DejaVuSans-2d" d="M 313 2009 
L 1997 2009 
L 1997 1497 
L 313 1497 
L 313 2009 
z
" transform="scale(0.015625)"/>
        <path id="DejaVuSans-61" d="M 2194 1759 
Q 1497 1759 1228 1600 
Q 959 1441 959 1056 
Q 959 750 1161 570 
Q 1363 391 1709 391 
Q 2188 391 2477 730 
Q 2766 1069 2766 1631 
L 2766 1759 
L 2194 1759 
z
M 3341 1997 
L 3341 0 
L 2766 0 
L 2766 531 
Q 2569 213 2275 61 
Q 1981 -91 1556 -91 
Q 1019 -91 701 211 
Q 384 513 384 1019 
Q 384 1609 779 1909 
Q 1175 2209 1959 2209 
L 2766 2209 
L 2766 2266 
Q 2766 2663 2505 2880 
Q 2244 3097 1772 3097 
Q 1472 3097 1187 3025 
Q 903 2953 641 2809 
L 641 3341 
Q 956 3463 1253 3523 
Q 1550 3584 1831 3584 
Q 2591 3584 2966 3190 
Q 3341 2797 3341 1997 
z
" transform="scale(0.015625)"/>
        <path id="DejaVuSans-76" d="M 191 3500 
L 800 3500 
L 1894 563 
L 2988 3500 
L 3597 3500 
L 2284 0 
L 1503 0 
L 191 3500 
z
" transform="scale(0.015625)"/>
        <path id="DejaVuSans-78" d="M 3513 3500 
L 2247 1797 
L 3578 0 
L 2900 0 
L 1881 1375 
L 863 0 
L 184 0 
L 1544 1831 
L 300 3500 
L 978 3500 
L 1906 2253 
L 2834 3500 
L 3513 3500 
z
" transform="scale(0.015625)"/>
       </defs>
       <use xlink:href="#DejaVuSans-45"/>
       <use xlink:href="#DejaVuSans-45" transform="translate(63.183594 0)"/>
       <use xlink:href="#DejaVuSans-47" transform="translate(126.367188 0)"/>
       <use xlink:href="#DejaVuSans-20" transform="translate(203.857422 0)"/>
       <use xlink:href="#DejaVuSans-77" transform="translate(235.644531 0)"/>
       <use xlink:href="#DejaVuSans-69" transform="translate(317.431641 0)"/>
       <use xlink:href="#DejaVuSans-74" transform="translate(345.214844 0)"/>
       <use xlink:href="#DejaVuSans-68" transform="translate(384.423828 0)"/>
       <use xlink:href="#DejaVuSans-20" transform="translate(447.802734 0)"/>
       <use xlink:href="#DejaVuSans-73" transform="translate(479.589844 0)"/>
       <use xlink:href="#DejaVuSans-70" transform="translate(531.689453 0)"/>
       <use xlink:href="#DejaVuSans-69" transform="translate(595.166016 0)"/>
       <use xlink:href="#DejaVuSans-6b" transform="translate(622.949219 0)"/>
       <use xlink:href="#DejaVuSans-65" transform="translate(677.234375 0)"/>
       <use xlink:href="#DejaVuSans-2d" transform="translate(738.757812 0)"/>
       <use xlink:href="#DejaVuSans-77" transform="translate(774.841797 0)"/>
       <use xlink:href="#DejaVuSans-61" transform="translate(856.628906 0)"/>
       <use xlink:href="#DejaVuSans-76" transform="translate(917.908203 0)"/>
       <use xlink:href="#DejaVuSans-65" transform="translate(977.087891 0)"/>
       <use xlink:href="#DejaVuSans-20" transform="translate(1038.611328 0)"/>
       <use xlink:href="#DejaVuSans-63" transform="translate(1070.398438 0)"/>
       <use xlink:href="#DejaVuSans-6f" transform="translate(1125.378906 0)"/>
       <use xlink:href="#DejaVuSans-6d" transform="translate(1186.560547 0)"/>
       <use xlink:href="#DejaVuSans-70" transform="translate(1283.972656 0)"/>
       <use xlink:href="#DejaVuSans-6c" transform="translate(1347.449219 0)"/>
       <use xlink:href="#DejaVuSans-65" transform="translate(1375.232422 0)"/>
       <use xlink:href="#DejaVuSans-78" transform="translate(1435.005859 0)"/>
       <use xlink:href="#DejaVuSans-65" transform="translate(1491.060547 0)"/>
       <use xlink:href="#DejaVuSans-73" transform="translate(1552.583984 0)"/>
      </g>
     </g>
    </g>
    <g id="ytick_2">
     <g id="line2d_8">
      <g>
       <use xlink:href="#mddbf9d1536" x="318.2875" y="47.146757" style="stroke: #000000; stroke-width: 0.8"/>
      </g>
     </g>
     <g id="text_9">
      <!-- Generalized tonic seizure -->
      <g transform="translate(184.575 50.945975) scale(0.1 -0.1)">
       <defs>
        <path id="DejaVuSans-7a" d="M 353 3500 
L 3084 3500 
L 3084 2975 
L 922 459 
L 3084 459 
L 3084 0 
L 275 0 
L 275 525 
L 2438 3041 
L 353 3041 
L 353 3500 
z
" transform="scale(0.015625)"/>
        <path id="DejaVuSans-75" d="M 544 1381 
L 544 3500 
L 1119 3500 
L 1119 1403 
Q 1119 906 1312 657 
Q 1506 409 1894 409 
Q 2359 409 2629 706 
Q 2900 1003 2900 1516 
L 2900 3500 
L 3475 3500 
L 3475 0 
L 2900 0 
L 2900 538 
Q 2691 219 2414 64 
Q 2138 -91 1772 -91 
Q 1169 -91 856 284 
Q 544 659 544 1381 
z
M 1991 3584 
L 1991 3584 
z
" transform="scale(0.015625)"/>
       </defs>
       <use xlink:href="#DejaVuSans-47"/>
       <use xlink:href="#DejaVuSans-65" transform="translate(77.490234 0)"/>
       <use xlink:href="#DejaVuSans-6e" transform="translate(139.013672 0)"/>
       <use xlink:href="#DejaVuSans-65" transform="translate(202.392578 0)"/>
       <use xlink:href="#DejaVuSans-72" transform="translate(263.916016 0)"/>
       <use xlink:href="#DejaVuSans-61" transform="translate(305.029297 0)"/>
       <use xlink:href="#DejaVuSans-6c" transform="translate(366.308594 0)"/>
       <use xlink:href="#DejaVuSans-69" transform="translate(394.091797 0)"/>
       <use xlink:href="#DejaVuSans-7a" transform="translate(421.875 0)"/>
       <use xlink:href="#DejaVuSans-65" transform="translate(474.365234 0)"/>
       <use xlink:href="#DejaVuSans-64" transform="translate(535.888672 0)"/>
       <use xlink:href="#DejaVuSans-20" transform="translate(599.365234 0)"/>
       <use xlink:href="#DejaVuSans-74" transform="translate(631.152344 0)"/>
       <use xlink:href="#DejaVuSans-6f" transform="translate(670.361328 0)"/>
       <use xlink:href="#DejaVuSans-6e" transform="translate(731.542969 0)"/>
       <use xlink:href="#DejaVuSans-69" transform="translate(794.921875 0)"/>
       <use xlink:href="#DejaVuSans-63" transform="translate(822.705078 0)"/>
       <use xlink:href="#DejaVuSans-20" transform="translate(877.685547 0)"/>
       <use xlink:href="#DejaVuSans-73" transform="translate(909.472656 0)"/>
       <use xlink:href="#DejaVuSans-65" transform="translate(961.572266 0)"/>
       <use xlink:href="#DejaVuSans-69" transform="translate(1023.095703 0)"/>
       <use xlink:href="#DejaVuSans-7a" transform="translate(1050.878906 0)"/>
       <use xlink:href="#DejaVuSans-75" transform="translate(1103.369141 0)"/>
       <use xlink:href="#DejaVuSans-72" transform="translate(1166.748047 0)"/>
       <use xlink:href="#DejaVuSans-65" transform="translate(1205.611328 0)"/>
      </g>
     </g>
    </g>
    <g id="ytick_3">
     <g id="line2d_9">
      <g>
       <use xlink:href="#mddbf9d1536" x="318.2875" y="59.879388" style="stroke: #000000; stroke-width: 0.8"/>
      </g>
     </g>
     <g id="text_10">
      <!-- EEG with multifocal slow activity -->
      <g transform="translate(148.23125 63.678607) scale(0.1 -0.1)">
       <defs>
        <path id="DejaVuSans-66" d="M 2375 4863 
L 2375 4384 
L 1825 4384 
Q 1516 4384 1395 4259 
Q 1275 4134 1275 3809 
L 1275 3500 
L 2222 3500 
L 2222 3053 
L 1275 3053 
L 1275 0 
L 697 0 
L 697 3053 
L 147 3053 
L 147 3500 
L 697 3500 
L 697 3744 
Q 697 4328 969 4595 
Q 1241 4863 1831 4863 
L 2375 4863 
z
" transform="scale(0.015625)"/>
        <path id="DejaVuSans-79" d="M 2059 -325 
Q 1816 -950 1584 -1140 
Q 1353 -1331 966 -1331 
L 506 -1331 
L 506 -850 
L 844 -850 
Q 1081 -850 1212 -737 
Q 1344 -625 1503 -206 
L 1606 56 
L 191 3500 
L 800 3500 
L 1894 763 
L 2988 3500 
L 3597 3500 
L 2059 -325 
z
" transform="scale(0.015625)"/>
       </defs>
       <use xlink:href="#DejaVuSans-45"/>
       <use xlink:href="#DejaVuSans-45" transform="translate(63.183594 0)"/>
       <use xlink:href="#DejaVuSans-47" transform="translate(126.367188 0)"/>
       <use xlink:href="#DejaVuSans-20" transform="translate(203.857422 0)"/>
       <use xlink:href="#DejaVuSans-77" transform="translate(235.644531 0)"/>
       <use xlink:href="#DejaVuSans-69" transform="translate(317.431641 0)"/>
       <use xlink:href="#DejaVuSans-74" transform="translate(345.214844 0)"/>
       <use xlink:href="#DejaVuSans-68" transform="translate(384.423828 0)"/>
       <use xlink:href="#DejaVuSans-20" transform="translate(447.802734 0)"/>
       <use xlink:href="#DejaVuSans-6d" transform="translate(479.589844 0)"/>
       <use xlink:href="#DejaVuSans-75" transform="translate(577.001953 0)"/>
       <use xlink:href="#DejaVuSans-6c" transform="translate(640.380859 0)"/>
       <use xlink:href="#DejaVuSans-74" transform="translate(668.164062 0)"/>
       <use xlink:href="#DejaVuSans-69" transform="translate(707.373047 0)"/>
       <use xlink:href="#DejaVuSans-66" transform="translate(735.15625 0)"/>
       <use xlink:href="#DejaVuSans-6f" transform="translate(770.361328 0)"/>
       <use xlink:href="#DejaVuSans-63" transform="translate(831.542969 0)"/>
       <use xlink:href="#DejaVuSans-61" transform="translate(886.523438 0)"/>
       <use xlink:href="#DejaVuSans-6c" transform="translate(947.802734 0)"/>
       <use xlink:href="#DejaVuSans-20" transform="translate(975.585938 0)"/>
       <use xlink:href="#DejaVuSans-73" transform="translate(1007.373047 0)"/>
       <use xlink:href="#DejaVuSans-6c" transform="translate(1059.472656 0)"/>
       <use xlink:href="#DejaVuSans-6f" transform="translate(1087.255859 0)"/>
       <use xlink:href="#DejaVuSans-77" transform="translate(1148.4375 0)"/>
       <use xlink:href="#DejaVuSans-20" transform="translate(1230.224609 0)"/>
       <use xlink:href="#DejaVuSans-61" transform="translate(1262.011719 0)"/>
       <use xlink:href="#DejaVuSans-63" transform="translate(1323.291016 0)"/>
       <use xlink:href="#DejaVuSans-74" transform="translate(1378.271484 0)"/>
       <use xlink:href="#DejaVuSans-69" transform="translate(1417.480469 0)"/>
       <use xlink:href="#DejaVuSans-76" transform="translate(1445.263672 0)"/>
       <use xlink:href="#DejaVuSans-69" transform="translate(1504.443359 0)"/>
       <use xlink:href="#DejaVuSans-74" transform="translate(1532.226562 0)"/>
       <use xlink:href="#DejaVuSans-79" transform="translate(1571.435547 0)"/>
      </g>
     </g>
    </g>
    <g id="ytick_4">
     <g id="line2d_10">
      <g>
       <use xlink:href="#mddbf9d1536" x="318.2875" y="72.61202" style="stroke: #000000; stroke-width: 0.8"/>
      </g>
     </g>
     <g id="text_11">
      <!-- Focal motor seizure -->
      <g transform="translate(213.24375 76.411238) scale(0.1 -0.1)">
       <use xlink:href="#DejaVuSans-46"/>
       <use xlink:href="#DejaVuSans-6f" transform="translate(53.894531 0)"/>
       <use xlink:href="#DejaVuSans-63" transform="translate(115.076172 0)"/>
       <use xlink:href="#DejaVuSans-61" transform="translate(170.056641 0)"/>
       <use xlink:href="#DejaVuSans-6c" transform="translate(231.335938 0)"/>
       <use xlink:href="#DejaVuSans-20" transform="translate(259.119141 0)"/>
       <use xlink:href="#DejaVuSans-6d" transform="translate(290.90625 0)"/>
       <use xlink:href="#DejaVuSans-6f" transform="translate(388.318359 0)"/>
       <use xlink:href="#DejaVuSans-74" transform="translate(449.5 0)"/>
       <use xlink:href="#DejaVuSans-6f" transform="translate(488.708984 0)"/>
       <use xlink:href="#DejaVuSans-72" transform="translate(549.890625 0)"/>
       <use xlink:href="#DejaVuSans-20" transform="translate(591.003906 0)"/>
       <use xlink:href="#DejaVuSans-73" transform="translate(622.791016 0)"/>
       <use xlink:href="#DejaVuSans-65" transform="translate(674.890625 0)"/>
       <use xlink:href="#DejaVuSans-69" transform="translate(736.414062 0)"/>
       <use xlink:href="#DejaVuSans-7a" transform="translate(764.197266 0)"/>
       <use xlink:href="#DejaVuSans-75" transform="translate(816.6875 0)"/>
       <use xlink:href="#DejaVuSans-72" transform="translate(880.066406 0)"/>
       <use xlink:href="#DejaVuSans-65" transform="translate(918.929688 0)"/>
      </g>
     </g>
    </g>
    <g id="ytick_5">
     <g id="line2d_11">
      <g>
       <use xlink:href="#mddbf9d1536" x="318.2875" y="85.344651" style="stroke: #000000; stroke-width: 0.8"/>
      </g>
     </g>
     <g id="text_12">
      <!-- Abnormality of coordination -->
      <g transform="translate(172.028125 89.14387) scale(0.1 -0.1)">
       <defs>
        <path id="DejaVuSans-41" d="M 2188 4044 
L 1331 1722 
L 3047 1722 
L 2188 4044 
z
M 1831 4666 
L 2547 4666 
L 4325 0 
L 3669 0 
L 3244 1197 
L 1141 1197 
L 716 0 
L 50 0 
L 1831 4666 
z
" transform="scale(0.015625)"/>
        <path id="DejaVuSans-62" d="M 3116 1747 
Q 3116 2381 2855 2742 
Q 2594 3103 2138 3103 
Q 1681 3103 1420 2742 
Q 1159 2381 1159 1747 
Q 1159 1113 1420 752 
Q 1681 391 2138 391 
Q 2594 391 2855 752 
Q 3116 1113 3116 1747 
z
M 1159 2969 
Q 1341 3281 1617 3432 
Q 1894 3584 2278 3584 
Q 2916 3584 3314 3078 
Q 3713 2572 3713 1747 
Q 3713 922 3314 415 
Q 2916 -91 2278 -91 
Q 1894 -91 1617 61 
Q 1341 213 1159 525 
L 1159 0 
L 581 0 
L 581 4863 
L 1159 4863 
L 1159 2969 
z
" transform="scale(0.015625)"/>
       </defs>
       <use xlink:href="#DejaVuSans-41"/>
       <use xlink:href="#DejaVuSans-62" transform="translate(68.408203 0)"/>
       <use xlink:href="#DejaVuSans-6e" transform="translate(131.884766 0)"/>
       <use xlink:href="#DejaVuSans-6f" transform="translate(195.263672 0)"/>
       <use xlink:href="#DejaVuSans-72" transform="translate(256.445312 0)"/>
       <use xlink:href="#DejaVuSans-6d" transform="translate(295.808594 0)"/>
       <use xlink:href="#DejaVuSans-61" transform="translate(393.220703 0)"/>
       <use xlink:href="#DejaVuSans-6c" transform="translate(454.5 0)"/>
       <use xlink:href="#DejaVuSans-69" transform="translate(482.283203 0)"/>
       <use xlink:href="#DejaVuSans-74" transform="translate(510.066406 0)"/>
       <use xlink:href="#DejaVuSans-79" transform="translate(549.275391 0)"/>
       <use xlink:href="#DejaVuSans-20" transform="translate(608.455078 0)"/>
       <use xlink:href="#DejaVuSans-6f" transform="translate(640.242188 0)"/>
       <use xlink:href="#DejaVuSans-66" transform="translate(701.423828 0)"/>
       <use xlink:href="#DejaVuSans-20" transform="translate(736.628906 0)"/>
       <use xlink:href="#DejaVuSans-63" transform="translate(768.416016 0)"/>
       <use xlink:href="#DejaVuSans-6f" transform="translate(823.396484 0)"/>
       <use xlink:href="#DejaVuSans-6f" transform="translate(884.578125 0)"/>
       <use xlink:href="#DejaVuSans-72" transform="translate(945.759766 0)"/>
       <use xlink:href="#DejaVuSans-64" transform="translate(985.123047 0)"/>
       <use xlink:href="#DejaVuSans-69" transform="translate(1048.599609 0)"/>
       <use xlink:href="#DejaVuSans-6e" transform="translate(1076.382812 0)"/>
       <use xlink:href="#DejaVuSans-61" transform="translate(1139.761719 0)"/>
       <use xlink:href="#DejaVuSans-74" transform="translate(1201.041016 0)"/>
       <use xlink:href="#DejaVuSans-69" transform="translate(1240.25 0)"/>
       <use xlink:href="#DejaVuSans-6f" transform="translate(1268.033203 0)"/>
       <use xlink:href="#DejaVuSans-6e" transform="translate(1329.214844 0)"/>
      </g>
     </g>
    </g>
    <g id="ytick_6">
     <g id="line2d_12">
      <g>
       <use xlink:href="#mddbf9d1536" x="318.2875" y="98.077283" style="stroke: #000000; stroke-width: 0.8"/>
      </g>
     </g>
     <g id="text_13">
      <!-- Atonic seizure -->
      <g transform="translate(241.025 101.876502) scale(0.1 -0.1)">
       <use xlink:href="#DejaVuSans-41"/>
       <use xlink:href="#DejaVuSans-74" transform="translate(66.658203 0)"/>
       <use xlink:href="#DejaVuSans-6f" transform="translate(105.867188 0)"/>
       <use xlink:href="#DejaVuSans-6e" transform="translate(167.048828 0)"/>
       <use xlink:href="#DejaVuSans-69" transform="translate(230.427734 0)"/>
       <use xlink:href="#DejaVuSans-63" transform="translate(258.210938 0)"/>
       <use xlink:href="#DejaVuSans-20" transform="translate(313.191406 0)"/>
       <use xlink:href="#DejaVuSans-73" transform="translate(344.978516 0)"/>
       <use xlink:href="#DejaVuSans-65" transform="translate(397.078125 0)"/>
       <use xlink:href="#DejaVuSans-69" transform="translate(458.601562 0)"/>
       <use xlink:href="#DejaVuSans-7a" transform="translate(486.384766 0)"/>
       <use xlink:href="#DejaVuSans-75" transform="translate(538.875 0)"/>
       <use xlink:href="#DejaVuSans-72" transform="translate(602.253906 0)"/>
       <use xlink:href="#DejaVuSans-65" transform="translate(641.117188 0)"/>
      </g>
     </g>
    </g>
    <g id="ytick_7">
     <g id="line2d_13">
      <g>
       <use xlink:href="#mddbf9d1536" x="318.2875" y="110.809914" style="stroke: #000000; stroke-width: 0.8"/>
      </g>
     </g>
     <g id="text_14">
      <!-- Abnormal myelination -->
      <g transform="translate(200.892188 114.609133) scale(0.1 -0.1)">
       <use xlink:href="#DejaVuSans-41"/>
       <use xlink:href="#DejaVuSans-62" transform="translate(68.408203 0)"/>
       <use xlink:href="#DejaVuSans-6e" transform="translate(131.884766 0)"/>
       <use xlink:href="#DejaVuSans-6f" transform="translate(195.263672 0)"/>
       <use xlink:href="#DejaVuSans-72" transform="translate(256.445312 0)"/>
       <use xlink:href="#DejaVuSans-6d" transform="translate(295.808594 0)"/>
       <use xlink:href="#DejaVuSans-61" transform="translate(393.220703 0)"/>
       <use xlink:href="#DejaVuSans-6c" transform="translate(454.5 0)"/>
       <use xlink:href="#DejaVuSans-20" transform="translate(482.283203 0)"/>
       <use xlink:href="#DejaVuSans-6d" transform="translate(514.070312 0)"/>
       <use xlink:href="#DejaVuSans-79" transform="translate(611.482422 0)"/>
       <use xlink:href="#DejaVuSans-65" transform="translate(670.662109 0)"/>
       <use xlink:href="#DejaVuSans-6c" transform="translate(732.185547 0)"/>
       <use xlink:href="#DejaVuSans-69" transform="translate(759.96875 0)"/>
       <use xlink:href="#DejaVuSans-6e" transform="translate(787.751953 0)"/>
       <use xlink:href="#DejaVuSans-61" transform="translate(851.130859 0)"/>
       <use xlink:href="#DejaVuSans-74" transform="translate(912.410156 0)"/>
       <use xlink:href="#DejaVuSans-69" transform="translate(951.619141 0)"/>
       <use xlink:href="#DejaVuSans-6f" transform="translate(979.402344 0)"/>
       <use xlink:href="#DejaVuSans-6e" transform="translate(1040.583984 0)"/>
      </g>
     </g>
    </g>
    <g id="ytick_8">
     <g id="line2d_14">
      <g>
       <use xlink:href="#mddbf9d1536" x="318.2875" y="123.542546" style="stroke: #000000; stroke-width: 0.8"/>
      </g>
     </g>
     <g id="text_15">
      <!-- Epileptic encephalopathy -->
      <g transform="translate(184.68125 127.341765) scale(0.1 -0.1)">
       <use xlink:href="#DejaVuSans-45"/>
       <use xlink:href="#DejaVuSans-70" transform="translate(63.183594 0)"/>
       <use xlink:href="#DejaVuSans-69" transform="translate(126.660156 0)"/>
       <use xlink:href="#DejaVuSans-6c" transform="translate(154.443359 0)"/>
       <use xlink:href="#DejaVuSans-65" transform="translate(182.226562 0)"/>
       <use xlink:href="#DejaVuSans-70" transform="translate(243.75 0)"/>
       <use xlink:href="#DejaVuSans-74" transform="translate(307.226562 0)"/>
       <use xlink:href="#DejaVuSans-69" transform="translate(346.435547 0)"/>
       <use xlink:href="#DejaVuSans-63" transform="translate(374.21875 0)"/>
       <use xlink:href="#DejaVuSans-20" transform="translate(429.199219 0)"/>
       <use xlink:href="#DejaVuSans-65" transform="translate(460.986328 0)"/>
       <use xlink:href="#DejaVuSans-6e" transform="translate(522.509766 0)"/>
       <use xlink:href="#DejaVuSans-63" transform="translate(585.888672 0)"/>
       <use xlink:href="#DejaVuSans-65" transform="translate(640.869141 0)"/>
       <use xlink:href="#DejaVuSans-70" transform="translate(702.392578 0)"/>
       <use xlink:href="#DejaVuSans-68" transform="translate(765.869141 0)"/>
       <use xlink:href="#DejaVuSans-61" transform="translate(829.248047 0)"/>
       <use xlink:href="#DejaVuSans-6c" transform="translate(890.527344 0)"/>
       <use xlink:href="#DejaVuSans-6f" transform="translate(918.310547 0)"/>
       <use xlink:href="#DejaVuSans-70" transform="translate(979.492188 0)"/>
       <use xlink:href="#DejaVuSans-61" transform="translate(1042.96875 0)"/>
       <use xlink:href="#DejaVuSans-74" transform="translate(1104.248047 0)"/>
       <use xlink:href="#DejaVuSans-68" transform="translate(1143.457031 0)"/>
       <use xlink:href="#DejaVuSans-79" transform="translate(1206.835938 0)"/>
      </g>
     </g>
    </g>
    <g id="ytick_9">
     <g id="line2d_15">
      <g>
       <use xlink:href="#mddbf9d1536" x="318.2875" y="136.275178" style="stroke: #000000; stroke-width: 0.8"/>
      </g>
     </g>
     <g id="text_16">
      <!-- Febrile seizure (within the age range of 3 months to 6 years) -->
      <g transform="translate(7.2 140.074396) scale(0.1 -0.1)">
       <defs>
        <path id="DejaVuSans-28" d="M 1984 4856 
Q 1566 4138 1362 3434 
Q 1159 2731 1159 2009 
Q 1159 1288 1364 580 
Q 1569 -128 1984 -844 
L 1484 -844 
Q 1016 -109 783 600 
Q 550 1309 550 2009 
Q 550 2706 781 3412 
Q 1013 4119 1484 4856 
L 1984 4856 
z
" transform="scale(0.015625)"/>
        <path id="DejaVuSans-67" d="M 2906 1791 
Q 2906 2416 2648 2759 
Q 2391 3103 1925 3103 
Q 1463 3103 1205 2759 
Q 947 2416 947 1791 
Q 947 1169 1205 825 
Q 1463 481 1925 481 
Q 2391 481 2648 825 
Q 2906 1169 2906 1791 
z
M 3481 434 
Q 3481 -459 3084 -895 
Q 2688 -1331 1869 -1331 
Q 1566 -1331 1297 -1286 
Q 1028 -1241 775 -1147 
L 775 -588 
Q 1028 -725 1275 -790 
Q 1522 -856 1778 -856 
Q 2344 -856 2625 -561 
Q 2906 -266 2906 331 
L 2906 616 
Q 2728 306 2450 153 
Q 2172 0 1784 0 
Q 1141 0 747 490 
Q 353 981 353 1791 
Q 353 2603 747 3093 
Q 1141 3584 1784 3584 
Q 2172 3584 2450 3431 
Q 2728 3278 2906 2969 
L 2906 3500 
L 3481 3500 
L 3481 434 
z
" transform="scale(0.015625)"/>
        <path id="DejaVuSans-33" d="M 2597 2516 
Q 3050 2419 3304 2112 
Q 3559 1806 3559 1356 
Q 3559 666 3084 287 
Q 2609 -91 1734 -91 
Q 1441 -91 1130 -33 
Q 819 25 488 141 
L 488 750 
Q 750 597 1062 519 
Q 1375 441 1716 441 
Q 2309 441 2620 675 
Q 2931 909 2931 1356 
Q 2931 1769 2642 2001 
Q 2353 2234 1838 2234 
L 1294 2234 
L 1294 2753 
L 1863 2753 
Q 2328 2753 2575 2939 
Q 2822 3125 2822 3475 
Q 2822 3834 2567 4026 
Q 2313 4219 1838 4219 
Q 1578 4219 1281 4162 
Q 984 4106 628 3988 
L 628 4550 
Q 988 4650 1302 4700 
Q 1616 4750 1894 4750 
Q 2613 4750 3031 4423 
Q 3450 4097 3450 3541 
Q 3450 3153 3228 2886 
Q 3006 2619 2597 2516 
z
" transform="scale(0.015625)"/>
        <path id="DejaVuSans-29" d="M 513 4856 
L 1013 4856 
Q 1481 4119 1714 3412 
Q 1947 2706 1947 2009 
Q 1947 1309 1714 600 
Q 1481 -109 1013 -844 
L 513 -844 
Q 928 -128 1133 580 
Q 1338 1288 1338 2009 
Q 1338 2731 1133 3434 
Q 928 4138 513 4856 
z
" transform="scale(0.015625)"/>
       </defs>
       <use xlink:href="#DejaVuSans-46"/>
       <use xlink:href="#DejaVuSans-65" transform="translate(52.019531 0)"/>
       <use xlink:href="#DejaVuSans-62" transform="translate(113.542969 0)"/>
       <use xlink:href="#DejaVuSans-72" transform="translate(177.019531 0)"/>
       <use xlink:href="#DejaVuSans-69" transform="translate(218.132812 0)"/>
       <use xlink:href="#DejaVuSans-6c" transform="translate(245.916016 0)"/>
       <use xlink:href="#DejaVuSans-65" transform="translate(273.699219 0)"/>
       <use xlink:href="#DejaVuSans-20" transform="translate(335.222656 0)"/>
       <use xlink:href="#DejaVuSans-73" transform="translate(367.009766 0)"/>
       <use xlink:href="#DejaVuSans-65" transform="translate(419.109375 0)"/>
       <use xlink:href="#DejaVuSans-69" transform="translate(480.632812 0)"/>
       <use xlink:href="#DejaVuSans-7a" transform="translate(508.416016 0)"/>
       <use xlink:href="#DejaVuSans-75" transform="translate(560.90625 0)"/>
       <use xlink:href="#DejaVuSans-72" transform="translate(624.285156 0)"/>
       <use xlink:href="#DejaVuSans-65" transform="translate(663.148438 0)"/>
       <use xlink:href="#DejaVuSans-20" transform="translate(724.671875 0)"/>
       <use xlink:href="#DejaVuSans-28" transform="translate(756.458984 0)"/>
       <use xlink:href="#DejaVuSans-77" transform="translate(795.472656 0)"/>
       <use xlink:href="#DejaVuSans-69" transform="translate(877.259766 0)"/>
       <use xlink:href="#DejaVuSans-74" transform="translate(905.042969 0)"/>
       <use xlink:href="#DejaVuSans-68" transform="translate(944.251953 0)"/>
       <use xlink:href="#DejaVuSans-69" transform="translate(1007.630859 0)"/>
       <use xlink:href="#DejaVuSans-6e" transform="translate(1035.414062 0)"/>
       <use xlink:href="#DejaVuSans-20" transform="translate(1098.792969 0)"/>
       <use xlink:href="#DejaVuSans-74" transform="translate(1130.580078 0)"/>
       <use xlink:href="#DejaVuSans-68" transform="translate(1169.789062 0)"/>
       <use xlink:href="#DejaVuSans-65" transform="translate(1233.167969 0)"/>
       <use xlink:href="#DejaVuSans-20" transform="translate(1294.691406 0)"/>
       <use xlink:href="#DejaVuSans-61" transform="translate(1326.478516 0)"/>
       <use xlink:href="#DejaVuSans-67" transform="translate(1387.757812 0)"/>
       <use xlink:href="#DejaVuSans-65" transform="translate(1451.234375 0)"/>
       <use xlink:href="#DejaVuSans-20" transform="translate(1512.757812 0)"/>
       <use xlink:href="#DejaVuSans-72" transform="translate(1544.544922 0)"/>
       <use xlink:href="#DejaVuSans-61" transform="translate(1585.658203 0)"/>
       <use xlink:href="#DejaVuSans-6e" transform="translate(1646.9375 0)"/>
       <use xlink:href="#DejaVuSans-67" transform="translate(1710.316406 0)"/>
       <use xlink:href="#DejaVuSans-65" transform="translate(1773.792969 0)"/>
       <use xlink:href="#DejaVuSans-20" transform="translate(1835.316406 0)"/>
       <use xlink:href="#DejaVuSans-6f" transform="translate(1867.103516 0)"/>
       <use xlink:href="#DejaVuSans-66" transform="translate(1928.285156 0)"/>
       <use xlink:href="#DejaVuSans-20" transform="translate(1963.490234 0)"/>
       <use xlink:href="#DejaVuSans-33" transform="translate(1995.277344 0)"/>
       <use xlink:href="#DejaVuSans-20" transform="translate(2058.900391 0)"/>
       <use xlink:href="#DejaVuSans-6d" transform="translate(2090.6875 0)"/>
       <use xlink:href="#DejaVuSans-6f" transform="translate(2188.099609 0)"/>
       <use xlink:href="#DejaVuSans-6e" transform="translate(2249.28125 0)"/>
       <use xlink:href="#DejaVuSans-74" transform="translate(2312.660156 0)"/>
       <use xlink:href="#DejaVuSans-68" transform="translate(2351.869141 0)"/>
       <use xlink:href="#DejaVuSans-73" transform="translate(2415.248047 0)"/>
       <use xlink:href="#DejaVuSans-20" transform="translate(2467.347656 0)"/>
       <use xlink:href="#DejaVuSans-74" transform="translate(2499.134766 0)"/>
       <use xlink:href="#DejaVuSans-6f" transform="translate(2538.34375 0)"/>
       <use xlink:href="#DejaVuSans-20" transform="translate(2599.525391 0)"/>
       <use xlink:href="#DejaVuSans-36" transform="translate(2631.3125 0)"/>
       <use xlink:href="#DejaVuSans-20" transform="translate(2694.935547 0)"/>
       <use xlink:href="#DejaVuSans-79" transform="translate(2726.722656 0)"/>
       <use xlink:href="#DejaVuSans-65" transform="translate(2785.902344 0)"/>
       <use xlink:href="#DejaVuSans-61" transform="translate(2847.425781 0)"/>
       <use xlink:href="#DejaVuSans-72" transform="translate(2908.705078 0)"/>
       <use xlink:href="#DejaVuSans-73" transform="translate(2949.818359 0)"/>
       <use xlink:href="#DejaVuSans-29" transform="translate(3001.917969 0)"/>
      </g>
     </g>
    </g>
    <g id="ytick_10">
     <g id="line2d_16">
      <g>
       <use xlink:href="#mddbf9d1536" x="318.2875" y="149.007809" style="stroke: #000000; stroke-width: 0.8"/>
      </g>
     </g>
     <g id="text_17">
      <!-- Generalized non-motor (absence) seizure -->
      <g transform="translate(104.007813 152.807028) scale(0.1 -0.1)">
       <use xlink:href="#DejaVuSans-47"/>
       <use xlink:href="#DejaVuSans-65" transform="translate(77.490234 0)"/>
       <use xlink:href="#DejaVuSans-6e" transform="translate(139.013672 0)"/>
       <use xlink:href="#DejaVuSans-65" transform="translate(202.392578 0)"/>
       <use xlink:href="#DejaVuSans-72" transform="translate(263.916016 0)"/>
       <use xlink:href="#DejaVuSans-61" transform="translate(305.029297 0)"/>
       <use xlink:href="#DejaVuSans-6c" transform="translate(366.308594 0)"/>
       <use xlink:href="#DejaVuSans-69" transform="translate(394.091797 0)"/>
       <use xlink:href="#DejaVuSans-7a" transform="translate(421.875 0)"/>
       <use xlink:href="#DejaVuSans-65" transform="translate(474.365234 0)"/>
       <use xlink:href="#DejaVuSans-64" transform="translate(535.888672 0)"/>
       <use xlink:href="#DejaVuSans-20" transform="translate(599.365234 0)"/>
       <use xlink:href="#DejaVuSans-6e" transform="translate(631.152344 0)"/>
       <use xlink:href="#DejaVuSans-6f" transform="translate(694.53125 0)"/>
       <use xlink:href="#DejaVuSans-6e" transform="translate(755.712891 0)"/>
       <use xlink:href="#DejaVuSans-2d" transform="translate(819.091797 0)"/>
       <use xlink:href="#DejaVuSans-6d" transform="translate(855.175781 0)"/>
       <use xlink:href="#DejaVuSans-6f" transform="translate(952.587891 0)"/>
       <use xlink:href="#DejaVuSans-74" transform="translate(1013.769531 0)"/>
       <use xlink:href="#DejaVuSans-6f" transform="translate(1052.978516 0)"/>
       <use xlink:href="#DejaVuSans-72" transform="translate(1114.160156 0)"/>
       <use xlink:href="#DejaVuSans-20" transform="translate(1155.273438 0)"/>
       <use xlink:href="#DejaVuSans-28" transform="translate(1187.060547 0)"/>
       <use xlink:href="#DejaVuSans-61" transform="translate(1226.074219 0)"/>
       <use xlink:href="#DejaVuSans-62" transform="translate(1287.353516 0)"/>
       <use xlink:href="#DejaVuSans-73" transform="translate(1350.830078 0)"/>
       <use xlink:href="#DejaVuSans-65" transform="translate(1402.929688 0)"/>
       <use xlink:href="#DejaVuSans-6e" transform="translate(1464.453125 0)"/>
       <use xlink:href="#DejaVuSans-63" transform="translate(1527.832031 0)"/>
       <use xlink:href="#DejaVuSans-65" transform="translate(1582.8125 0)"/>
       <use xlink:href="#DejaVuSans-29" transform="translate(1644.335938 0)"/>
       <use xlink:href="#DejaVuSans-20" transform="translate(1683.349609 0)"/>
       <use xlink:href="#DejaVuSans-73" transform="translate(1715.136719 0)"/>
       <use xlink:href="#DejaVuSans-65" transform="translate(1767.236328 0)"/>
       <use xlink:href="#DejaVuSans-69" transform="translate(1828.759766 0)"/>
       <use xlink:href="#DejaVuSans-7a" transform="translate(1856.542969 0)"/>
       <use xlink:href="#DejaVuSans-75" transform="translate(1909.033203 0)"/>
       <use xlink:href="#DejaVuSans-72" transform="translate(1972.412109 0)"/>
       <use xlink:href="#DejaVuSans-65" transform="translate(2011.275391 0)"/>
      </g>
     </g>
    </g>
    <g id="ytick_11">
     <g id="line2d_17">
      <g>
       <use xlink:href="#mddbf9d1536" x="318.2875" y="161.740441" style="stroke: #000000; stroke-width: 0.8"/>
      </g>
     </g>
     <g id="text_18">
      <!-- Dyskinesia -->
      <g transform="translate(257.284375 165.53966) scale(0.1 -0.1)">
       <defs>
        <path id="DejaVuSans-44" d="M 1259 4147 
L 1259 519 
L 2022 519 
Q 2988 519 3436 956 
Q 3884 1394 3884 2338 
Q 3884 3275 3436 3711 
Q 2988 4147 2022 4147 
L 1259 4147 
z
M 628 4666 
L 1925 4666 
Q 3281 4666 3915 4102 
Q 4550 3538 4550 2338 
Q 4550 1131 3912 565 
Q 3275 0 1925 0 
L 628 0 
L 628 4666 
z
" transform="scale(0.015625)"/>
       </defs>
       <use xlink:href="#DejaVuSans-44"/>
       <use xlink:href="#DejaVuSans-79" transform="translate(77.001953 0)"/>
       <use xlink:href="#DejaVuSans-73" transform="translate(136.181641 0)"/>
       <use xlink:href="#DejaVuSans-6b" transform="translate(188.28125 0)"/>
       <use xlink:href="#DejaVuSans-69" transform="translate(246.191406 0)"/>
       <use xlink:href="#DejaVuSans-6e" transform="translate(273.974609 0)"/>
       <use xlink:href="#DejaVuSans-65" transform="translate(337.353516 0)"/>
       <use xlink:href="#DejaVuSans-73" transform="translate(398.876953 0)"/>
       <use xlink:href="#DejaVuSans-69" transform="translate(450.976562 0)"/>
       <use xlink:href="#DejaVuSans-61" transform="translate(478.759766 0)"/>
      </g>
     </g>
    </g>
    <g id="ytick_12">
     <g id="line2d_18">
      <g>
       <use xlink:href="#mddbf9d1536" x="318.2875" y="174.473072" style="stroke: #000000; stroke-width: 0.8"/>
      </g>
     </g>
     <g id="text_19">
      <!-- Involuntary movements -->
      <g transform="translate(191.960938 178.272291) scale(0.1 -0.1)">
       <defs>
        <path id="DejaVuSans-49" d="M 628 4666 
L 1259 4666 
L 1259 0 
L 628 0 
L 628 4666 
z
" transform="scale(0.015625)"/>
       </defs>
       <use xlink:href="#DejaVuSans-49"/>
       <use xlink:href="#DejaVuSans-6e" transform="translate(29.492188 0)"/>
       <use xlink:href="#DejaVuSans-76" transform="translate(92.871094 0)"/>
       <use xlink:href="#DejaVuSans-6f" transform="translate(152.050781 0)"/>
       <use xlink:href="#DejaVuSans-6c" transform="translate(213.232422 0)"/>
       <use xlink:href="#DejaVuSans-75" transform="translate(241.015625 0)"/>
       <use xlink:href="#DejaVuSans-6e" transform="translate(304.394531 0)"/>
       <use xlink:href="#DejaVuSans-74" transform="translate(367.773438 0)"/>
       <use xlink:href="#DejaVuSans-61" transform="translate(406.982422 0)"/>
       <use xlink:href="#DejaVuSans-72" transform="translate(468.261719 0)"/>
       <use xlink:href="#DejaVuSans-79" transform="translate(509.375 0)"/>
       <use xlink:href="#DejaVuSans-20" transform="translate(568.554688 0)"/>
       <use xlink:href="#DejaVuSans-6d" transform="translate(600.341797 0)"/>
       <use xlink:href="#DejaVuSans-6f" transform="translate(697.753906 0)"/>
       <use xlink:href="#DejaVuSans-76" transform="translate(758.935547 0)"/>
       <use xlink:href="#DejaVuSans-65" transform="translate(818.115234 0)"/>
       <use xlink:href="#DejaVuSans-6d" transform="translate(879.638672 0)"/>
       <use xlink:href="#DejaVuSans-65" transform="translate(977.050781 0)"/>
       <use xlink:href="#DejaVuSans-6e" transform="translate(1038.574219 0)"/>
       <use xlink:href="#DejaVuSans-74" transform="translate(1101.953125 0)"/>
       <use xlink:href="#DejaVuSans-73" transform="translate(1141.162109 0)"/>
      </g>
     </g>
    </g>
    <g id="ytick_13">
     <g id="line2d_19">
      <g>
       <use xlink:href="#mddbf9d1536" x="318.2875" y="187.205704" style="stroke: #000000; stroke-width: 0.8"/>
      </g>
     </g>
     <g id="text_20">
      <!-- Myoclonic seizure -->
      <g transform="translate(222.66875 191.004923) scale(0.1 -0.1)">
       <defs>
        <path id="DejaVuSans-4d" d="M 628 4666 
L 1569 4666 
L 2759 1491 
L 3956 4666 
L 4897 4666 
L 4897 0 
L 4281 0 
L 4281 4097 
L 3078 897 
L 2444 897 
L 1241 4097 
L 1241 0 
L 628 0 
L 628 4666 
z
" transform="scale(0.015625)"/>
       </defs>
       <use xlink:href="#DejaVuSans-4d"/>
       <use xlink:href="#DejaVuSans-79" transform="translate(86.279297 0)"/>
       <use xlink:href="#DejaVuSans-6f" transform="translate(145.458984 0)"/>
       <use xlink:href="#DejaVuSans-63" transform="translate(206.640625 0)"/>
       <use xlink:href="#DejaVuSans-6c" transform="translate(261.621094 0)"/>
       <use xlink:href="#DejaVuSans-6f" transform="translate(289.404297 0)"/>
       <use xlink:href="#DejaVuSans-6e" transform="translate(350.585938 0)"/>
       <use xlink:href="#DejaVuSans-69" transform="translate(413.964844 0)"/>
       <use xlink:href="#DejaVuSans-63" transform="translate(441.748047 0)"/>
       <use xlink:href="#DejaVuSans-20" transform="translate(496.728516 0)"/>
       <use xlink:href="#DejaVuSans-73" transform="translate(528.515625 0)"/>
       <use xlink:href="#DejaVuSans-65" transform="translate(580.615234 0)"/>
       <use xlink:href="#DejaVuSans-69" transform="translate(642.138672 0)"/>
       <use xlink:href="#DejaVuSans-7a" transform="translate(669.921875 0)"/>
       <use xlink:href="#DejaVuSans-75" transform="translate(722.412109 0)"/>
       <use xlink:href="#DejaVuSans-72" transform="translate(785.791016 0)"/>
       <use xlink:href="#DejaVuSans-65" transform="translate(824.654297 0)"/>
      </g>
     </g>
    </g>
    <g id="ytick_14">
     <g id="line2d_20">
      <g>
       <use xlink:href="#mddbf9d1536" x="318.2875" y="199.938336" style="stroke: #000000; stroke-width: 0.8"/>
      </g>
     </g>
     <g id="text_21">
      <!-- Impulsivity -->
      <g transform="translate(256.609375 203.737554) scale(0.1 -0.1)">
       <use xlink:href="#DejaVuSans-49"/>
       <use xlink:href="#DejaVuSans-6d" transform="translate(29.492188 0)"/>
       <use xlink:href="#DejaVuSans-70" transform="translate(126.904297 0)"/>
       <use xlink:href="#DejaVuSans-75" transform="translate(190.380859 0)"/>
       <use xlink:href="#DejaVuSans-6c" transform="translate(253.759766 0)"/>
       <use xlink:href="#DejaVuSans-73" transform="translate(281.542969 0)"/>
       <use xlink:href="#DejaVuSans-69" transform="translate(333.642578 0)"/>
       <use xlink:href="#DejaVuSans-76" transform="translate(361.425781 0)"/>
       <use xlink:href="#DejaVuSans-69" transform="translate(420.605469 0)"/>
       <use xlink:href="#DejaVuSans-74" transform="translate(448.388672 0)"/>
       <use xlink:href="#DejaVuSans-79" transform="translate(487.597656 0)"/>
      </g>
     </g>
    </g>
    <g id="ytick_15">
     <g id="line2d_21">
      <g>
       <use xlink:href="#mddbf9d1536" x="318.2875" y="212.670967" style="stroke: #000000; stroke-width: 0.8"/>
      </g>
     </g>
     <g id="text_22">
      <!-- Hypsarrhythmia -->
      <g transform="translate(231.129688 216.470186) scale(0.1 -0.1)">
       <defs>
        <path id="DejaVuSans-48" d="M 628 4666 
L 1259 4666 
L 1259 2753 
L 3553 2753 
L 3553 4666 
L 4184 4666 
L 4184 0 
L 3553 0 
L 3553 2222 
L 1259 2222 
L 1259 0 
L 628 0 
L 628 4666 
z
" transform="scale(0.015625)"/>
       </defs>
       <use xlink:href="#DejaVuSans-48"/>
       <use xlink:href="#DejaVuSans-79" transform="translate(75.195312 0)"/>
       <use xlink:href="#DejaVuSans-70" transform="translate(134.375 0)"/>
       <use xlink:href="#DejaVuSans-73" transform="translate(197.851562 0)"/>
       <use xlink:href="#DejaVuSans-61" transform="translate(249.951172 0)"/>
       <use xlink:href="#DejaVuSans-72" transform="translate(311.230469 0)"/>
       <use xlink:href="#DejaVuSans-72" transform="translate(350.59375 0)"/>
       <use xlink:href="#DejaVuSans-68" transform="translate(389.957031 0)"/>
       <use xlink:href="#DejaVuSans-79" transform="translate(453.335938 0)"/>
       <use xlink:href="#DejaVuSans-74" transform="translate(512.515625 0)"/>
       <use xlink:href="#DejaVuSans-68" transform="translate(551.724609 0)"/>
       <use xlink:href="#DejaVuSans-6d" transform="translate(615.103516 0)"/>
       <use xlink:href="#DejaVuSans-69" transform="translate(712.515625 0)"/>
       <use xlink:href="#DejaVuSans-61" transform="translate(740.298828 0)"/>
      </g>
     </g>
    </g>
    <g id="ytick_16">
     <g id="line2d_22">
      <g>
       <use xlink:href="#mddbf9d1536" x="318.2875" y="225.403599" style="stroke: #000000; stroke-width: 0.8"/>
      </g>
     </g>
     <g id="text_23">
      <!-- Focal-onset seizure -->
      <g transform="translate(214.896875 229.202817) scale(0.1 -0.1)">
       <use xlink:href="#DejaVuSans-46"/>
       <use xlink:href="#DejaVuSans-6f" transform="translate(53.894531 0)"/>
       <use xlink:href="#DejaVuSans-63" transform="translate(115.076172 0)"/>
       <use xlink:href="#DejaVuSans-61" transform="translate(170.056641 0)"/>
       <use xlink:href="#DejaVuSans-6c" transform="translate(231.335938 0)"/>
       <use xlink:href="#DejaVuSans-2d" transform="translate(259.119141 0)"/>
       <use xlink:href="#DejaVuSans-6f" transform="translate(297.078125 0)"/>
       <use xlink:href="#DejaVuSans-6e" transform="translate(358.259766 0)"/>
       <use xlink:href="#DejaVuSans-73" transform="translate(421.638672 0)"/>
       <use xlink:href="#DejaVuSans-65" transform="translate(473.738281 0)"/>
       <use xlink:href="#DejaVuSans-74" transform="translate(535.261719 0)"/>
       <use xlink:href="#DejaVuSans-20" transform="translate(574.470703 0)"/>
       <use xlink:href="#DejaVuSans-73" transform="translate(606.257812 0)"/>
       <use xlink:href="#DejaVuSans-65" transform="translate(658.357422 0)"/>
       <use xlink:href="#DejaVuSans-69" transform="translate(719.880859 0)"/>
       <use xlink:href="#DejaVuSans-7a" transform="translate(747.664062 0)"/>
       <use xlink:href="#DejaVuSans-75" transform="translate(800.154297 0)"/>
       <use xlink:href="#DejaVuSans-72" transform="translate(863.533203 0)"/>
       <use xlink:href="#DejaVuSans-65" transform="translate(902.396484 0)"/>
      </g>
     </g>
    </g>
    <g id="ytick_17">
     <g id="line2d_23">
      <g>
       <use xlink:href="#mddbf9d1536" x="318.2875" y="238.13623" style="stroke: #000000; stroke-width: 0.8"/>
      </g>
     </g>
     <g id="text_24">
      <!-- Hyperactivity -->
      <g transform="translate(244.375 241.935449) scale(0.1 -0.1)">
       <use xlink:href="#DejaVuSans-48"/>
       <use xlink:href="#DejaVuSans-79" transform="translate(75.195312 0)"/>
       <use xlink:href="#DejaVuSans-70" transform="translate(134.375 0)"/>
       <use xlink:href="#DejaVuSans-65" transform="translate(197.851562 0)"/>
       <use xlink:href="#DejaVuSans-72" transform="translate(259.375 0)"/>
       <use xlink:href="#DejaVuSans-61" transform="translate(300.488281 0)"/>
       <use xlink:href="#DejaVuSans-63" transform="translate(361.767578 0)"/>
       <use xlink:href="#DejaVuSans-74" transform="translate(416.748047 0)"/>
       <use xlink:href="#DejaVuSans-69" transform="translate(455.957031 0)"/>
       <use xlink:href="#DejaVuSans-76" transform="translate(483.740234 0)"/>
       <use xlink:href="#DejaVuSans-69" transform="translate(542.919922 0)"/>
       <use xlink:href="#DejaVuSans-74" transform="translate(570.703125 0)"/>
       <use xlink:href="#DejaVuSans-79" transform="translate(609.912109 0)"/>
      </g>
     </g>
    </g>
    <g id="ytick_18">
     <g id="line2d_24">
      <g>
       <use xlink:href="#mddbf9d1536" x="318.2875" y="250.868862" style="stroke: #000000; stroke-width: 0.8"/>
      </g>
     </g>
     <g id="text_25">
      <!-- Myoclonus -->
      <g transform="translate(258.342188 254.668081) scale(0.1 -0.1)">
       <use xlink:href="#DejaVuSans-4d"/>
       <use xlink:href="#DejaVuSans-79" transform="translate(86.279297 0)"/>
       <use xlink:href="#DejaVuSans-6f" transform="translate(145.458984 0)"/>
       <use xlink:href="#DejaVuSans-63" transform="translate(206.640625 0)"/>
       <use xlink:href="#DejaVuSans-6c" transform="translate(261.621094 0)"/>
       <use xlink:href="#DejaVuSans-6f" transform="translate(289.404297 0)"/>
       <use xlink:href="#DejaVuSans-6e" transform="translate(350.585938 0)"/>
       <use xlink:href="#DejaVuSans-75" transform="translate(413.964844 0)"/>
       <use xlink:href="#DejaVuSans-73" transform="translate(477.34375 0)"/>
      </g>
     </g>
    </g>
    <g id="ytick_19">
     <g id="line2d_25">
      <g>
       <use xlink:href="#mddbf9d1536" x="318.2875" y="263.601493" style="stroke: #000000; stroke-width: 0.8"/>
      </g>
     </g>
     <g id="text_26">
      <!-- Bilateral tonic-clonic seizure -->
      <g transform="translate(170.259375 267.400712) scale(0.1 -0.1)">
       <defs>
        <path id="DejaVuSans-42" d="M 1259 2228 
L 1259 519 
L 2272 519 
Q 2781 519 3026 730 
Q 3272 941 3272 1375 
Q 3272 1813 3026 2020 
Q 2781 2228 2272 2228 
L 1259 2228 
z
M 1259 4147 
L 1259 2741 
L 2194 2741 
Q 2656 2741 2882 2914 
Q 3109 3088 3109 3444 
Q 3109 3797 2882 3972 
Q 2656 4147 2194 4147 
L 1259 4147 
z
M 628 4666 
L 2241 4666 
Q 2963 4666 3353 4366 
Q 3744 4066 3744 3513 
Q 3744 3084 3544 2831 
Q 3344 2578 2956 2516 
Q 3422 2416 3680 2098 
Q 3938 1781 3938 1306 
Q 3938 681 3513 340 
Q 3088 0 2303 0 
L 628 0 
L 628 4666 
z
" transform="scale(0.015625)"/>
       </defs>
       <use xlink:href="#DejaVuSans-42"/>
       <use xlink:href="#DejaVuSans-69" transform="translate(68.603516 0)"/>
       <use xlink:href="#DejaVuSans-6c" transform="translate(96.386719 0)"/>
       <use xlink:href="#DejaVuSans-61" transform="translate(124.169922 0)"/>
       <use xlink:href="#DejaVuSans-74" transform="translate(185.449219 0)"/>
       <use xlink:href="#DejaVuSans-65" transform="translate(224.658203 0)"/>
       <use xlink:href="#DejaVuSans-72" transform="translate(286.181641 0)"/>
       <use xlink:href="#DejaVuSans-61" transform="translate(327.294922 0)"/>
       <use xlink:href="#DejaVuSans-6c" transform="translate(388.574219 0)"/>
       <use xlink:href="#DejaVuSans-20" transform="translate(416.357422 0)"/>
       <use xlink:href="#DejaVuSans-74" transform="translate(448.144531 0)"/>
       <use xlink:href="#DejaVuSans-6f" transform="translate(487.353516 0)"/>
       <use xlink:href="#DejaVuSans-6e" transform="translate(548.535156 0)"/>
       <use xlink:href="#DejaVuSans-69" transform="translate(611.914062 0)"/>
       <use xlink:href="#DejaVuSans-63" transform="translate(639.697266 0)"/>
       <use xlink:href="#DejaVuSans-2d" transform="translate(694.677734 0)"/>
       <use xlink:href="#DejaVuSans-63" transform="translate(730.761719 0)"/>
       <use xlink:href="#DejaVuSans-6c" transform="translate(785.742188 0)"/>
       <use xlink:href="#DejaVuSans-6f" transform="translate(813.525391 0)"/>
       <use xlink:href="#DejaVuSans-6e" transform="translate(874.707031 0)"/>
       <use xlink:href="#DejaVuSans-69" transform="translate(938.085938 0)"/>
       <use xlink:href="#DejaVuSans-63" transform="translate(965.869141 0)"/>
       <use xlink:href="#DejaVuSans-20" transform="translate(1020.849609 0)"/>
       <use xlink:href="#DejaVuSans-73" transform="translate(1052.636719 0)"/>
       <use xlink:href="#DejaVuSans-65" transform="translate(1104.736328 0)"/>
       <use xlink:href="#DejaVuSans-69" transform="translate(1166.259766 0)"/>
       <use xlink:href="#DejaVuSans-7a" transform="translate(1194.042969 0)"/>
       <use xlink:href="#DejaVuSans-75" transform="translate(1246.533203 0)"/>
       <use xlink:href="#DejaVuSans-72" transform="translate(1309.912109 0)"/>
       <use xlink:href="#DejaVuSans-65" transform="translate(1348.775391 0)"/>
      </g>
     </g>
    </g>
    <g id="ytick_20">
     <g id="line2d_26">
      <g>
       <use xlink:href="#mddbf9d1536" x="318.2875" y="276.334125" style="stroke: #000000; stroke-width: 0.8"/>
      </g>
     </g>
     <g id="text_27">
      <!-- Developmental regression -->
      <g transform="translate(179.801563 280.133344) scale(0.1 -0.1)">
       <use xlink:href="#DejaVuSans-44"/>
       <use xlink:href="#DejaVuSans-65" transform="translate(77.001953 0)"/>
       <use xlink:href="#DejaVuSans-76" transform="translate(138.525391 0)"/>
       <use xlink:href="#DejaVuSans-65" transform="translate(197.705078 0)"/>
       <use xlink:href="#DejaVuSans-6c" transform="translate(259.228516 0)"/>
       <use xlink:href="#DejaVuSans-6f" transform="translate(287.011719 0)"/>
       <use xlink:href="#DejaVuSans-70" transform="translate(348.193359 0)"/>
       <use xlink:href="#DejaVuSans-6d" transform="translate(411.669922 0)"/>
       <use xlink:href="#DejaVuSans-65" transform="translate(509.082031 0)"/>
       <use xlink:href="#DejaVuSans-6e" transform="translate(570.605469 0)"/>
       <use xlink:href="#DejaVuSans-74" transform="translate(633.984375 0)"/>
       <use xlink:href="#DejaVuSans-61" transform="translate(673.193359 0)"/>
       <use xlink:href="#DejaVuSans-6c" transform="translate(734.472656 0)"/>
       <use xlink:href="#DejaVuSans-20" transform="translate(762.255859 0)"/>
       <use xlink:href="#DejaVuSans-72" transform="translate(794.042969 0)"/>
       <use xlink:href="#DejaVuSans-65" transform="translate(832.90625 0)"/>
       <use xlink:href="#DejaVuSans-67" transform="translate(894.429688 0)"/>
       <use xlink:href="#DejaVuSans-72" transform="translate(957.90625 0)"/>
       <use xlink:href="#DejaVuSans-65" transform="translate(996.769531 0)"/>
       <use xlink:href="#DejaVuSans-73" transform="translate(1058.292969 0)"/>
       <use xlink:href="#DejaVuSans-73" transform="translate(1110.392578 0)"/>
       <use xlink:href="#DejaVuSans-69" transform="translate(1162.492188 0)"/>
       <use xlink:href="#DejaVuSans-6f" transform="translate(1190.275391 0)"/>
       <use xlink:href="#DejaVuSans-6e" transform="translate(1251.457031 0)"/>
      </g>
     </g>
    </g>
   </g>
   <g id="line2d_27"/>
   <g id="line2d_28"/>
   <g id="line2d_29"/>
   <g id="line2d_30"/>
   <g id="line2d_31"/>
   <g id="line2d_32"/>
   <g id="line2d_33"/>
   <g id="line2d_34"/>
   <g id="line2d_35"/>
   <g id="line2d_36"/>
   <g id="line2d_37"/>
   <g id="line2d_38"/>
   <g id="line2d_39"/>
   <g id="patch_3">
    <path d="M 318.2875 288.430125 
L 318.2875 22.318125 
" style="fill: none; stroke: #000000; stroke-width: 0.8; stroke-linejoin: miter; stroke-linecap: square"/>
   </g>
   <g id="patch_4">
    <path d="M 675.4075 288.430125 
L 675.4075 22.318125 
" style="fill: none; stroke: #000000; stroke-width: 0.8; stroke-linejoin: miter; stroke-linecap: square"/>
   </g>
   <g id="patch_5">
    <path d="M 318.2875 288.430125 
L 675.4075 288.430125 
" style="fill: none; stroke: #000000; stroke-width: 0.8; stroke-linejoin: miter; stroke-linecap: square"/>
   </g>
   <g id="patch_6">
    <path d="M 318.2875 22.318125 
L 675.4075 22.318125 
" style="fill: none; stroke: #000000; stroke-width: 0.8; stroke-linejoin: miter; stroke-linecap: square"/>
   </g>
   <g id="text_28">
    <!-- Top 20 Enriched Phenotypes -->
    <g transform="translate(411.92125 16.318125) scale(0.12 -0.12)">
     <defs>
      <path id="DejaVuSans-54" d="M -19 4666 
L 3928 4666 
L 3928 4134 
L 2272 4134 
L 2272 0 
L 1638 0 
L 1638 4134 
L -19 4134 
L -19 4666 
z
" transform="scale(0.015625)"/>
      <path id="DejaVuSans-50" d="M 1259 4147 
L 1259 2394 
L 2053 2394 
Q 2494 2394 2734 2622 
Q 2975 2850 2975 3272 
Q 2975 3691 2734 3919 
Q 2494 4147 2053 4147 
L 1259 4147 
z
M 628 4666 
L 2053 4666 
Q 2838 4666 3239 4311 
Q 3641 3956 3641 3272 
Q 3641 2581 3239 2228 
Q 2838 1875 2053 1875 
L 1259 1875 
L 1259 0 
L 628 0 
L 628 4666 
z
" transform="scale(0.015625)"/>
     </defs>
     <use xlink:href="#DejaVuSans-54"/>
     <use xlink:href="#DejaVuSans-6f" transform="translate(44.083984 0)"/>
     <use xlink:href="#DejaVuSans-70" transform="translate(105.265625 0)"/>
     <use xlink:href="#DejaVuSans-20" transform="translate(168.742188 0)"/>
     <use xlink:href="#DejaVuSans-32" transform="translate(200.529297 0)"/>
     <use xlink:href="#DejaVuSans-30" transform="translate(264.152344 0)"/>
     <use xlink:href="#DejaVuSans-20" transform="translate(327.775391 0)"/>
     <use xlink:href="#DejaVuSans-45" transform="translate(359.5625 0)"/>
     <use xlink:href="#DejaVuSans-6e" transform="translate(422.746094 0)"/>
     <use xlink:href="#DejaVuSans-72" transform="translate(486.125 0)"/>
     <use xlink:href="#DejaVuSans-69" transform="translate(527.238281 0)"/>
     <use xlink:href="#DejaVuSans-63" transform="translate(555.021484 0)"/>
     <use xlink:href="#DejaVuSans-68" transform="translate(610.001953 0)"/>
     <use xlink:href="#DejaVuSans-65" transform="translate(673.380859 0)"/>
     <use xlink:href="#DejaVuSans-64" transform="translate(734.904297 0)"/>
     <use xlink:href="#DejaVuSans-20" transform="translate(798.380859 0)"/>
     <use xlink:href="#DejaVuSans-50" transform="translate(830.167969 0)"/>
     <use xlink:href="#DejaVuSans-68" transform="translate(890.470703 0)"/>
     <use xlink:href="#DejaVuSans-65" transform="translate(953.849609 0)"/>
     <use xlink:href="#DejaVuSans-6e" transform="translate(1015.373047 0)"/>
     <use xlink:href="#DejaVuSans-6f" transform="translate(1078.751953 0)"/>
     <use xlink:href="#DejaVuSans-74" transform="translate(1139.933594 0)"/>
     <use xlink:href="#DejaVuSans-79" transform="translate(1179.142578 0)"/>
     <use xlink:href="#DejaVuSans-70" transform="translate(1238.322266 0)"/>
     <use xlink:href="#DejaVuSans-65" transform="translate(1301.798828 0)"/>
     <use xlink:href="#DejaVuSans-73" transform="translate(1363.322266 0)"/>
    </g>
   </g>
   <g id="legend_1">
    <g id="patch_7">
     <path d="M 682.4075 221.13375 
L 769.646563 221.13375 
Q 771.646563 221.13375 771.646563 219.13375 
L 771.646563 29.318125 
Q 771.646563 27.318125 769.646563 27.318125 
L 682.4075 27.318125 
Q 680.4075 27.318125 680.4075 29.318125 
L 680.4075 219.13375 
Q 680.4075 221.13375 682.4075 221.13375 
z
" style="fill: #ffffff; opacity: 0.8; stroke: #cccccc; stroke-linejoin: miter"/>
    </g>
    <g id="line2d_40"/>
    <g id="text_29">
     <!-- -log10 FDR -->
     <g transform="translate(712.4075 38.916562) scale(0.1 -0.1)">
      <defs>
       <path id="DejaVuSans-52" d="M 2841 2188 
Q 3044 2119 3236 1894 
Q 3428 1669 3622 1275 
L 4263 0 
L 3584 0 
L 2988 1197 
Q 2756 1666 2539 1819 
Q 2322 1972 1947 1972 
L 1259 1972 
L 1259 0 
L 628 0 
L 628 4666 
L 2053 4666 
Q 2853 4666 3247 4331 
Q 3641 3997 3641 3322 
Q 3641 2881 3436 2590 
Q 3231 2300 2841 2188 
z
M 1259 4147 
L 1259 2491 
L 2053 2491 
Q 2509 2491 2742 2702 
Q 2975 2913 2975 3322 
Q 2975 3731 2742 3939 
Q 2509 4147 2053 4147 
L 1259 4147 
z
" transform="scale(0.015625)"/>
      </defs>
      <use xlink:href="#DejaVuSans-2d"/>
      <use xlink:href="#DejaVuSans-6c" transform="translate(36.083984 0)"/>
      <use xlink:href="#DejaVuSans-6f" transform="translate(63.867188 0)"/>
      <use xlink:href="#DejaVuSans-67" transform="translate(125.048828 0)"/>
      <use xlink:href="#DejaVuSans-31" transform="translate(188.525391 0)"/>
      <use xlink:href="#DejaVuSans-30" transform="translate(252.148438 0)"/>
      <use xlink:href="#DejaVuSans-20" transform="translate(315.771484 0)"/>
      <use xlink:href="#DejaVuSans-46" transform="translate(347.558594 0)"/>
      <use xlink:href="#DejaVuSans-44" transform="translate(405.078125 0)"/>
      <use xlink:href="#DejaVuSans-52" transform="translate(482.080078 0)"/>
     </g>
    </g>
    <g id="line2d_41">
     <defs>
      <path id="m2aa0ca5528" d="M 0 3 
C 0.795609 3 1.55874 2.683901 2.12132 2.12132 
C 2.683901 1.55874 3 0.795609 3 0 
C 3 -0.795609 2.683901 -1.55874 2.12132 -2.12132 
C 1.55874 -2.683901 0.795609 -3 0 -3 
C -0.795609 -3 -1.55874 -2.683901 -2.12132 -2.12132 
C -2.683901 -1.55874 -3 -0.795609 -3 0 
C -3 0.795609 -2.683901 1.55874 -2.12132 2.12132 
C -1.55874 2.683901 -0.795609 3 0 3 
z
" style="stroke: #ffffff; stroke-width: 0.357771"/>
     </defs>
     <g>
      <use xlink:href="#m2aa0ca5528" x="694.4075" y="50.094688" style="fill: #4c66d6; stroke: #ffffff; stroke-width: 0.357771"/>
     </g>
    </g>
    <g id="text_30">
     <!-- 4.2 -->
     <g transform="translate(712.4075 53.594688) scale(0.1 -0.1)">
      <defs>
       <path id="DejaVuSans-2e" d="M 684 794 
L 1344 794 
L 1344 0 
L 684 0 
L 684 794 
z
" transform="scale(0.015625)"/>
      </defs>
      <use xlink:href="#DejaVuSans-34"/>
      <use xlink:href="#DejaVuSans-2e" transform="translate(63.623047 0)"/>
      <use xlink:href="#DejaVuSans-32" transform="translate(95.410156 0)"/>
     </g>
    </g>
    <g id="line2d_42">
     <defs>
      <path id="m4c1dc6a204" d="M 0 3 
C 0.795609 3 1.55874 2.683901 2.12132 2.12132 
C 2.683901 1.55874 3 0.795609 3 0 
C 3 -0.795609 2.683901 -1.55874 2.12132 -2.12132 
C 1.55874 -2.683901 0.795609 -3 0 -3 
C -0.795609 -3 -1.55874 -2.683901 -2.12132 -2.12132 
C -2.683901 -1.55874 -3 -0.795609 -3 0 
C -3 0.795609 -2.683901 1.55874 -2.12132 2.12132 
C -1.55874 2.683901 -0.795609 3 0 3 
z
" style="stroke: #ffffff; stroke-width: 0.357771"/>
     </defs>
     <g>
      <use xlink:href="#m4c1dc6a204" x="694.4075" y="64.772812" style="fill: #8db0fe; stroke: #ffffff; stroke-width: 0.357771"/>
     </g>
    </g>
    <g id="text_31">
     <!-- 4.8 -->
     <g transform="translate(712.4075 68.272812) scale(0.1 -0.1)">
      <use xlink:href="#DejaVuSans-34"/>
      <use xlink:href="#DejaVuSans-2e" transform="translate(63.623047 0)"/>
      <use xlink:href="#DejaVuSans-38" transform="translate(95.410156 0)"/>
     </g>
    </g>
    <g id="line2d_43">
     <defs>
      <path id="mf552c29390" d="M 0 3 
C 0.795609 3 1.55874 2.683901 2.12132 2.12132 
C 2.683901 1.55874 3 0.795609 3 0 
C 3 -0.795609 2.683901 -1.55874 2.12132 -2.12132 
C 1.55874 -2.683901 0.795609 -3 0 -3 
C -0.795609 -3 -1.55874 -2.683901 -2.12132 -2.12132 
C -2.683901 -1.55874 -3 -0.795609 -3 0 
C -3 0.795609 -2.683901 1.55874 -2.12132 2.12132 
C -1.55874 2.683901 -0.795609 3 0 3 
z
" style="stroke: #ffffff; stroke-width: 0.357771"/>
     </defs>
     <g>
      <use xlink:href="#mf552c29390" x="694.4075" y="79.450938" style="fill: #cedaeb; stroke: #ffffff; stroke-width: 0.357771"/>
     </g>
    </g>
    <g id="text_32">
     <!-- 5.4 -->
     <g transform="translate(712.4075 82.950938) scale(0.1 -0.1)">
      <defs>
       <path id="DejaVuSans-35" d="M 691 4666 
L 3169 4666 
L 3169 4134 
L 1269 4134 
L 1269 2991 
Q 1406 3038 1543 3061 
Q 1681 3084 1819 3084 
Q 2600 3084 3056 2656 
Q 3513 2228 3513 1497 
Q 3513 744 3044 326 
Q 2575 -91 1722 -91 
Q 1428 -91 1123 -41 
Q 819 9 494 109 
L 494 744 
Q 775 591 1075 516 
Q 1375 441 1709 441 
Q 2250 441 2565 725 
Q 2881 1009 2881 1497 
Q 2881 1984 2565 2268 
Q 2250 2553 1709 2553 
Q 1456 2553 1204 2497 
Q 953 2441 691 2322 
L 691 4666 
z
" transform="scale(0.015625)"/>
      </defs>
      <use xlink:href="#DejaVuSans-35"/>
      <use xlink:href="#DejaVuSans-2e" transform="translate(63.623047 0)"/>
      <use xlink:href="#DejaVuSans-34" transform="translate(95.410156 0)"/>
     </g>
    </g>
    <g id="line2d_44">
     <defs>
      <path id="m2a602d27aa" d="M 0 3 
C 0.795609 3 1.55874 2.683901 2.12132 2.12132 
C 2.683901 1.55874 3 0.795609 3 0 
C 3 -0.795609 2.683901 -1.55874 2.12132 -2.12132 
C 1.55874 -2.683901 0.795609 -3 0 -3 
C -0.795609 -3 -1.55874 -2.683901 -2.12132 -2.12132 
C -2.683901 -1.55874 -3 -0.795609 -3 0 
C -3 0.795609 -2.683901 1.55874 -2.12132 2.12132 
C -1.55874 2.683901 -0.795609 3 0 3 
z
" style="stroke: #ffffff; stroke-width: 0.357771"/>
     </defs>
     <g>
      <use xlink:href="#m2a602d27aa" x="694.4075" y="94.129063" style="fill: #f5c0a7; stroke: #ffffff; stroke-width: 0.357771"/>
     </g>
    </g>
    <g id="text_33">
     <!-- 6.0 -->
     <g transform="translate(712.4075 97.629063) scale(0.1 -0.1)">
      <use xlink:href="#DejaVuSans-36"/>
      <use xlink:href="#DejaVuSans-2e" transform="translate(63.623047 0)"/>
      <use xlink:href="#DejaVuSans-30" transform="translate(95.410156 0)"/>
     </g>
    </g>
    <g id="line2d_45">
     <defs>
      <path id="m4e6e4f7207" d="M 0 3 
C 0.795609 3 1.55874 2.683901 2.12132 2.12132 
C 2.683901 1.55874 3 0.795609 3 0 
C 3 -0.795609 2.683901 -1.55874 2.12132 -2.12132 
C 1.55874 -2.683901 0.795609 -3 0 -3 
C -0.795609 -3 -1.55874 -2.683901 -2.12132 -2.12132 
C -2.683901 -1.55874 -3 -0.795609 -3 0 
C -3 0.795609 -2.683901 1.55874 -2.12132 2.12132 
C -1.55874 2.683901 -0.795609 3 0 3 
z
" style="stroke: #ffffff; stroke-width: 0.357771"/>
     </defs>
     <g>
      <use xlink:href="#m4e6e4f7207" x="694.4075" y="108.807187" style="fill: #e7745b; stroke: #ffffff; stroke-width: 0.357771"/>
     </g>
    </g>
    <g id="text_34">
     <!-- 6.6 -->
     <g transform="translate(712.4075 112.307187) scale(0.1 -0.1)">
      <use xlink:href="#DejaVuSans-36"/>
      <use xlink:href="#DejaVuSans-2e" transform="translate(63.623047 0)"/>
      <use xlink:href="#DejaVuSans-36" transform="translate(95.410156 0)"/>
     </g>
    </g>
    <g id="line2d_46"/>
    <g id="text_35">
     <!-- Gene Ratio -->
     <g transform="translate(712.4075 126.985313) scale(0.1 -0.1)">
      <use xlink:href="#DejaVuSans-47"/>
      <use xlink:href="#DejaVuSans-65" transform="translate(77.490234 0)"/>
      <use xlink:href="#DejaVuSans-6e" transform="translate(139.013672 0)"/>
      <use xlink:href="#DejaVuSans-65" transform="translate(202.392578 0)"/>
      <use xlink:href="#DejaVuSans-20" transform="translate(263.916016 0)"/>
      <use xlink:href="#DejaVuSans-52" transform="translate(295.703125 0)"/>
      <use xlink:href="#DejaVuSans-61" transform="translate(362.935547 0)"/>
      <use xlink:href="#DejaVuSans-74" transform="translate(424.214844 0)"/>
      <use xlink:href="#DejaVuSans-69" transform="translate(463.423828 0)"/>
      <use xlink:href="#DejaVuSans-6f" transform="translate(491.207031 0)"/>
     </g>
    </g>
    <g id="line2d_47">
     <defs>
      <path id="ma943206ac6" d="M 0 2.722009 
C 0.721885 2.722009 1.414301 2.435201 1.924751 1.924751 
C 2.435201 1.414301 2.722009 0.721885 2.722009 0 
C 2.722009 -0.721885 2.435201 -1.414301 1.924751 -1.924751 
C 1.414301 -2.435201 0.721885 -2.722009 0 -2.722009 
C -0.721885 -2.722009 -1.414301 -2.435201 -1.924751 -1.924751 
C -2.435201 -1.414301 -2.722009 -0.721885 -2.722009 0 
C -2.722009 0.721885 -2.435201 1.414301 -1.924751 1.924751 
C -1.414301 2.435201 -0.721885 2.722009 0 2.722009 
z
" style="stroke: #ffffff; stroke-width: 0.357771"/>
     </defs>
     <g>
      <use xlink:href="#ma943206ac6" x="694.4075" y="138.163437" style="fill: #333333; stroke: #ffffff; stroke-width: 0.357771"/>
     </g>
    </g>
    <g id="text_36">
     <!-- 0.032 -->
     <g transform="translate(712.4075 141.663437) scale(0.1 -0.1)">
      <use xlink:href="#DejaVuSans-30"/>
      <use xlink:href="#DejaVuSans-2e" transform="translate(63.623047 0)"/>
      <use xlink:href="#DejaVuSans-30" transform="translate(95.410156 0)"/>
      <use xlink:href="#DejaVuSans-33" transform="translate(159.033203 0)"/>
      <use xlink:href="#DejaVuSans-32" transform="translate(222.65625 0)"/>
     </g>
    </g>
    <g id="line2d_48">
     <defs>
      <path id="mc2a32a368e" d="M 0 3.5898 
C 0.952026 3.5898 1.865188 3.211556 2.538372 2.538372 
C 3.211556 1.865188 3.5898 0.952026 3.5898 0 
C 3.5898 -0.952026 3.211556 -1.865188 2.538372 -2.538372 
C 1.865188 -3.211556 0.952026 -3.5898 0 -3.5898 
C -0.952026 -3.5898 -1.865188 -3.211556 -2.538372 -2.538372 
C -3.211556 -1.865188 -3.5898 -0.952026 -3.5898 0 
C -3.5898 0.952026 -3.211556 1.865188 -2.538372 2.538372 
C -1.865188 3.211556 -0.952026 3.5898 0 3.5898 
z
" style="stroke: #ffffff; stroke-width: 0.357771"/>
     </defs>
     <g>
      <use xlink:href="#mc2a32a368e" x="694.4075" y="152.841563" style="fill: #333333; stroke: #ffffff; stroke-width: 0.357771"/>
     </g>
    </g>
    <g id="text_37">
     <!-- 0.040 -->
     <g transform="translate(712.4075 156.341563) scale(0.1 -0.1)">
      <use xlink:href="#DejaVuSans-30"/>
      <use xlink:href="#DejaVuSans-2e" transform="translate(63.623047 0)"/>
      <use xlink:href="#DejaVuSans-30" transform="translate(95.410156 0)"/>
      <use xlink:href="#DejaVuSans-34" transform="translate(159.033203 0)"/>
      <use xlink:href="#DejaVuSans-30" transform="translate(222.65625 0)"/>
     </g>
    </g>
    <g id="line2d_49">
     <defs>
      <path id="m951aa3d580" d="M 0 4.285324 
C 1.136481 4.285324 2.226568 3.833795 3.030182 3.030182 
C 3.833795 2.226568 4.285324 1.136481 4.285324 0 
C 4.285324 -1.136481 3.833795 -2.226568 3.030182 -3.030182 
C 2.226568 -3.833795 1.136481 -4.285324 0 -4.285324 
C -1.136481 -4.285324 -2.226568 -3.833795 -3.030182 -3.030182 
C -3.833795 -2.226568 -4.285324 -1.136481 -4.285324 0 
C -4.285324 1.136481 -3.833795 2.226568 -3.030182 3.030182 
C -2.226568 3.833795 -1.136481 4.285324 0 4.285324 
z
" style="stroke: #ffffff; stroke-width: 0.357771"/>
     </defs>
     <g>
      <use xlink:href="#m951aa3d580" x="694.4075" y="167.519687" style="fill: #333333; stroke: #ffffff; stroke-width: 0.357771"/>
     </g>
    </g>
    <g id="text_38">
     <!-- 0.048 -->
     <g transform="translate(712.4075 171.019687) scale(0.1 -0.1)">
      <use xlink:href="#DejaVuSans-30"/>
      <use xlink:href="#DejaVuSans-2e" transform="translate(63.623047 0)"/>
      <use xlink:href="#DejaVuSans-30" transform="translate(95.410156 0)"/>
      <use xlink:href="#DejaVuSans-34" transform="translate(159.033203 0)"/>
      <use xlink:href="#DejaVuSans-38" transform="translate(222.65625 0)"/>
     </g>
    </g>
    <g id="line2d_50">
     <defs>
      <path id="m784974d7ae" d="M 0 4.882759 
C 1.294923 4.882759 2.536983 4.368281 3.452632 3.452632 
C 4.368281 2.536983 4.882759 1.294923 4.882759 0 
C 4.882759 -1.294923 4.368281 -2.536983 3.452632 -3.452632 
C 2.536983 -4.368281 1.294923 -4.882759 0 -4.882759 
C -1.294923 -4.882759 -2.536983 -4.368281 -3.452632 -3.452632 
C -4.368281 -2.536983 -4.882759 -1.294923 -4.882759 0 
C -4.882759 1.294923 -4.368281 2.536983 -3.452632 3.452632 
C -2.536983 4.368281 -1.294923 4.882759 0 4.882759 
z
" style="stroke: #ffffff; stroke-width: 0.357771"/>
     </defs>
     <g>
      <use xlink:href="#m784974d7ae" x="694.4075" y="182.197812" style="fill: #333333; stroke: #ffffff; stroke-width: 0.357771"/>
     </g>
    </g>
    <g id="text_39">
     <!-- 0.056 -->
     <g transform="translate(712.4075 185.697812) scale(0.1 -0.1)">
      <use xlink:href="#DejaVuSans-30"/>
      <use xlink:href="#DejaVuSans-2e" transform="translate(63.623047 0)"/>
      <use xlink:href="#DejaVuSans-30" transform="translate(95.410156 0)"/>
      <use xlink:href="#DejaVuSans-35" transform="translate(159.033203 0)"/>
      <use xlink:href="#DejaVuSans-36" transform="translate(222.65625 0)"/>
     </g>
    </g>
    <g id="line2d_51">
     <defs>
      <path id="mc840f57f32" d="M 0 5.414671 
C 1.435988 5.414671 2.813354 4.844147 3.828751 3.828751 
C 4.844147 2.813354 5.414671 1.435988 5.414671 0 
C 5.414671 -1.435988 4.844147 -2.813354 3.828751 -3.828751 
C 2.813354 -4.844147 1.435988 -5.414671 0 -5.414671 
C -1.435988 -5.414671 -2.813354 -4.844147 -3.828751 -3.828751 
C -4.844147 -2.813354 -5.414671 -1.435988 -5.414671 0 
C -5.414671 1.435988 -4.844147 2.813354 -3.828751 3.828751 
C -2.813354 4.844147 -1.435988 5.414671 0 5.414671 
z
" style="stroke: #ffffff; stroke-width: 0.357771"/>
     </defs>
     <g>
      <use xlink:href="#mc840f57f32" x="694.4075" y="196.875937" style="fill: #333333; stroke: #ffffff; stroke-width: 0.357771"/>
     </g>
    </g>
    <g id="text_40">
     <!-- 0.064 -->
     <g transform="translate(712.4075 200.375937) scale(0.1 -0.1)">
      <use xlink:href="#DejaVuSans-30"/>
      <use xlink:href="#DejaVuSans-2e" transform="translate(63.623047 0)"/>
      <use xlink:href="#DejaVuSans-30" transform="translate(95.410156 0)"/>
      <use xlink:href="#DejaVuSans-36" transform="translate(159.033203 0)"/>
      <use xlink:href="#DejaVuSans-34" transform="translate(222.65625 0)"/>
     </g>
    </g>
    <g id="line2d_52">
     <defs>
      <path id="me25f7adcb8" d="M 0 5.898813 
C 1.564384 5.898813 3.064905 5.277277 4.171091 4.171091 
C 5.277277 3.064905 5.898813 1.564384 5.898813 0 
C 5.898813 -1.564384 5.277277 -3.064905 4.171091 -4.171091 
C 3.064905 -5.277277 1.564384 -5.898813 0 -5.898813 
C -1.564384 -5.898813 -3.064905 -5.277277 -4.171091 -4.171091 
C -5.277277 -3.064905 -5.898813 -1.564384 -5.898813 0 
C -5.898813 1.564384 -5.277277 3.064905 -4.171091 4.171091 
C -3.064905 5.277277 -1.564384 5.898813 0 5.898813 
z
" style="stroke: #ffffff; stroke-width: 0.357771"/>
     </defs>
     <g>
      <use xlink:href="#me25f7adcb8" x="694.4075" y="211.554062" style="fill: #333333; stroke: #ffffff; stroke-width: 0.357771"/>
     </g>
    </g>
    <g id="text_41">
     <!-- 0.072 -->
     <g transform="translate(712.4075 215.054062) scale(0.1 -0.1)">
      <defs>
       <path id="DejaVuSans-37" d="M 525 4666 
L 3525 4666 
L 3525 4397 
L 1831 0 
L 1172 0 
L 2766 4134 
L 525 4134 
L 525 4666 
z
" transform="scale(0.015625)"/>
      </defs>
      <use xlink:href="#DejaVuSans-30"/>
      <use xlink:href="#DejaVuSans-2e" transform="translate(63.623047 0)"/>
      <use xlink:href="#DejaVuSans-30" transform="translate(95.410156 0)"/>
      <use xlink:href="#DejaVuSans-37" transform="translate(159.033203 0)"/>
      <use xlink:href="#DejaVuSans-32" transform="translate(222.65625 0)"/>
     </g>
    </g>
   </g>
  </g>
 </g>
 <defs>
  <clipPath id="p22e6970693">
   <rect x="318.2875" y="22.318125" width="357.12" height="266.112"/>
  </clipPath>
 </defs>
</svg>
