<?xml version="1.0" encoding="utf-8" standalone="no"?>
<!DOCTYPE svg PUBLIC "-//W3C//DTD SVG 1.1//EN"
  "http://www.w3.org/Graphics/SVG/1.1/DTD/svg11.dtd">
<svg xmlns:xlink="http://www.w3.org/1999/xlink" width="687.604375pt" height="325.986375pt" viewBox="0 0 687.604375 325.986375" xmlns="http://www.w3.org/2000/svg" version="1.1">
 <metadata>
  <rdf:RDF xmlns:dc="http://purl.org/dc/elements/1.1/" xmlns:cc="http://creativecommons.org/ns#" xmlns:rdf="http://www.w3.org/1999/02/22-rdf-syntax-ns#">
   <cc:Work>
    <dc:type rdf:resource="http://purl.org/dc/dcmitype/StillImage"/>
    <dc:date>2025-12-27T19:38:42.784788</dc:date>
    <dc:format>image/svg+xml</dc:format>
    <dc:creator>
     <cc:Agent>
      <dc:title>Matplotlib v3.10.7, https://matplotlib.org/</dc:title>
     </cc:Agent>
    </dc:creator>
   </cc:Work>
  </rdf:RDF>
 </metadata>
 <defs>
  <style type="text/css">*{stroke-linejoin: round; stroke-linecap: butt}</style>
 </defs>
 <g id="figure_1">
  <g id="patch_1">
   <path d="M -0 325.986375 
L 687.604375 325.986375 
L 687.604375 0 
L -0 0 
z
" style="fill: #ffffff"/>
  </g>
  <g id="axes_1">
   <g id="patch_2">
    <path d="M 227.045313 288.430125 
L 584.165313 288.430125 
L 584.165313 22.318125 
L 227.045313 22.318125 
z
" style="fill: #ffffff"/>
   </g>
   <g id="PathCollection_1">
    <path d="M 567.932585 36.650193 
C 568.525597 36.650193 569.094401 36.414587 569.513724 35.995264 
C 569.933047 35.575941 570.168653 35.007137 570.168653 34.414125 
C 570.168653 33.821113 569.933047 33.252309 569.513724 32.832986 
C 569.094401 32.413663 568.525597 32.178057 567.932585 32.178057 
C 567.339573 32.178057 566.770769 32.413663 566.351446 32.832986 
C 565.932123 33.252309 565.696517 33.821113 565.696517 34.414125 
C 565.696517 35.007137 565.932123 35.575941 566.351446 35.995264 
C 566.770769 36.414587 567.339573 36.650193 567.932585 36.650193 
z
" clip-path="url(#p7f1e9876b0)" style="fill: #5a78e4; stroke: #ffffff; stroke-width: 0.4159"/>
    <path d="M 455.889644 49.746133 
C 456.579007 49.746133 457.240228 49.472246 457.727681 48.984793 
C 458.215134 48.49734 458.489021 47.836119 458.489021 47.146757 
C 458.489021 46.457394 458.215134 45.796173 457.727681 45.30872 
C 457.240228 44.821267 456.579007 44.54738 455.889644 44.54738 
C 455.200282 44.54738 454.539061 44.821267 454.051608 45.30872 
C 453.564155 45.796173 453.290268 46.457394 453.290268 47.146757 
C 453.290268 47.836119 453.564155 48.49734 454.051608 48.984793 
C 454.539061 49.472246 455.200282 49.746133 455.889644 49.746133 
z
" clip-path="url(#p7f1e9876b0)" style="fill: #485fd1; stroke: #ffffff; stroke-width: 0.4159"/>
    <path d="M 455.889644 62.478764 
C 456.579007 62.478764 457.240228 62.204878 457.727681 61.717425 
C 458.215134 61.229972 458.489021 60.568751 458.489021 59.879388 
C 458.489021 59.190026 458.215134 58.528805 457.727681 58.041352 
C 457.240228 57.553899 456.579007 57.280012 455.889644 57.280012 
C 455.200282 57.280012 454.539061 57.553899 454.051608 58.041352 
C 453.564155 58.528805 453.290268 59.190026 453.290268 59.879388 
C 453.290268 60.568751 453.564155 61.229972 454.051608 61.717425 
C 454.539061 62.204878 455.200282 62.478764 455.889644 62.478764 
z
" clip-path="url(#p7f1e9876b0)" style="fill: #485fd1; stroke: #ffffff; stroke-width: 0.4159"/>
    <path d="M 406.092782 75.676639 
C 406.905528 75.676639 407.685096 75.353731 408.259795 74.779033 
C 408.834494 74.204334 409.157401 73.424766 409.157401 72.61202 
C 409.157401 71.799273 408.834494 71.019705 408.259795 70.445007 
C 407.685096 69.870308 406.905528 69.5474 406.092782 69.5474 
C 405.280035 69.5474 404.500467 69.870308 403.925769 70.445007 
C 403.35107 71.019705 403.028162 71.799273 403.028162 72.61202 
C 403.028162 73.424766 403.35107 74.204334 403.925769 74.779033 
C 404.500467 75.353731 405.280035 75.676639 406.092782 75.676639 
z
" clip-path="url(#p7f1e9876b0)" style="fill: #6b8df0; stroke: #ffffff; stroke-width: 0.4159"/>
    <path d="M 394.532796 88.683611 
C 395.418298 88.683611 396.267652 88.331797 396.893797 87.705652 
C 397.519941 87.079507 397.871755 86.230154 397.871755 85.344651 
C 397.871755 84.459149 397.519941 83.609795 396.893797 82.983651 
C 396.267652 82.357506 395.418298 82.005692 394.532796 82.005692 
C 393.647293 82.005692 392.79794 82.357506 392.171795 82.983651 
C 391.54565 83.609795 391.193837 84.459149 391.193837 85.344651 
C 391.193837 86.230154 391.54565 87.079507 392.171795 87.705652 
C 392.79794 88.331797 393.647293 88.683611 394.532796 88.683611 
z
" clip-path="url(#p7f1e9876b0)" style="fill: #92b4fe; stroke: #ffffff; stroke-width: 0.4159"/>
    <path d="M 376.280186 101.141902 
C 377.092933 101.141902 377.872501 100.818995 378.4472 100.244296 
C 379.021898 99.669597 379.344806 98.890029 379.344806 98.077283 
C 379.344806 97.264536 379.021898 96.484968 378.4472 95.91027 
C 377.872501 95.335571 377.092933 95.012664 376.280186 95.012664 
C 375.46744 95.012664 374.687872 95.335571 374.113173 95.91027 
C 373.538475 96.484968 373.215567 97.264536 373.215567 98.077283 
C 373.215567 98.890029 373.538475 99.669597 374.113173 100.244296 
C 374.687872 100.818995 375.46744 101.141902 376.280186 101.141902 
z
" clip-path="url(#p7f1e9876b0)" style="fill: #506bda; stroke: #ffffff; stroke-width: 0.4159"/>
    <path d="M 359.852838 114.014641 
C 360.702741 114.014641 361.517949 113.676971 362.118922 113.075998 
C 362.719894 112.475026 363.057564 111.659818 363.057564 110.809914 
C 363.057564 109.960011 362.719894 109.144803 362.118922 108.543831 
C 361.517949 107.942858 360.702741 107.605188 359.852838 107.605188 
C 359.002935 107.605188 358.187727 107.942858 357.586754 108.543831 
C 356.985782 109.144803 356.648112 109.960011 356.648112 110.809914 
C 356.648112 111.659818 356.985782 112.475026 357.586754 113.075998 
C 358.187727 113.676971 359.002935 114.014641 359.852838 114.014641 
z
" clip-path="url(#p7f1e9876b0)" style="fill: #5673e0; stroke: #ffffff; stroke-width: 0.4159"/>
    <path d="M 352.146181 127.255198 
C 353.130787 127.255198 354.0752 126.864009 354.771422 126.167787 
C 355.467644 125.471565 355.858832 124.527153 355.858832 123.542546 
C 355.858832 122.557939 355.467644 121.613527 354.771422 120.917305 
C 354.0752 120.221083 353.130787 119.829894 352.146181 119.829894 
C 351.161574 119.829894 350.217161 120.221083 349.520939 120.917305 
C 348.824717 121.613527 348.433529 122.557939 348.433529 123.542546 
C 348.433529 124.527153 348.824717 125.471565 349.520939 126.167787 
C 350.217161 126.864009 351.161574 127.255198 352.146181 127.255198 
z
" clip-path="url(#p7f1e9876b0)" style="fill: #a5c3fe; stroke: #ffffff; stroke-width: 0.4159"/>
    <path d="M 307.832901 139.867587 
C 308.785619 139.867587 309.699445 139.489068 310.373118 138.815395 
C 311.046792 138.141721 311.425311 137.227896 311.425311 136.275178 
C 311.425311 135.32246 311.046792 134.408634 310.373118 133.734961 
C 309.699445 133.061287 308.785619 132.682768 307.832901 132.682768 
C 306.880183 132.682768 305.966358 133.061287 305.292684 133.734961 
C 304.619011 134.408634 304.240492 135.32246 304.240492 136.275178 
C 304.240492 137.227896 304.619011 138.141721 305.292684 138.815395 
C 305.966358 139.489068 306.880183 139.867587 307.832901 139.867587 
z
" clip-path="url(#p7f1e9876b0)" style="fill: #5977e3; stroke: #ffffff; stroke-width: 0.4159"/>
    <path d="M 304.942905 153.166811 
C 306.045885 153.166811 307.103838 152.728592 307.883763 151.948668 
C 308.663688 151.168743 309.101907 150.110789 309.101907 149.007809 
C 309.101907 147.904829 308.663688 146.846876 307.883763 146.066951 
C 307.103838 145.287026 306.045885 144.848807 304.942905 144.848807 
C 303.839924 144.848807 302.781971 145.287026 302.002046 146.066951 
C 301.222121 146.846876 300.783903 147.904829 300.783903 149.007809 
C 300.783903 150.110789 301.222121 151.168743 302.002046 151.948668 
C 302.781971 152.728592 303.839924 153.166811 304.942905 153.166811 
z
" clip-path="url(#p7f1e9876b0)" style="fill: #afcafc; stroke: #ffffff; stroke-width: 0.4159"/>
    <path d="M 285.538642 166.582542 
C 286.822783 166.582542 288.054501 166.072348 288.962525 165.164324 
C 289.87055 164.256299 290.380744 163.024581 290.380744 161.740441 
C 290.380744 160.4563 289.87055 159.224582 288.962525 158.316558 
C 288.054501 157.408534 286.822783 156.898339 285.538642 156.898339 
C 284.254502 156.898339 283.022784 157.408534 282.11476 158.316558 
C 281.206735 159.224582 280.696541 160.4563 280.696541 161.740441 
C 280.696541 163.024581 281.206735 164.256299 282.11476 165.164324 
C 283.022784 166.072348 284.254502 166.582542 285.538642 166.582542 
z
" clip-path="url(#p7f1e9876b0)" style="fill: #f2c9b4; stroke: #ffffff; stroke-width: 0.4159"/>
    <path d="M 284.712929 178.525099 
C 285.787539 178.525099 286.818281 178.098152 287.578145 177.338288 
C 288.338009 176.578424 288.764956 175.547682 288.764956 174.473072 
C 288.764956 173.398462 288.338009 172.367721 287.578145 171.607857 
C 286.818281 170.847993 285.787539 170.421046 284.712929 170.421046 
C 283.638319 170.421046 282.607578 170.847993 281.847714 171.607857 
C 281.08785 172.367721 280.660903 173.398462 280.660903 174.473072 
C 280.660903 175.547682 281.08785 176.578424 281.847714 177.338288 
C 282.607578 178.098152 283.638319 178.525099 284.712929 178.525099 
z
" clip-path="url(#p7f1e9876b0)" style="fill: #7ea1fa; stroke: #ffffff; stroke-width: 0.4159"/>
    <path d="M 272.684295 191.25773 
C 273.758905 191.25773 274.789647 190.830783 275.549511 190.070919 
C 276.309375 189.311055 276.736322 188.280314 276.736322 187.205704 
C 276.736322 186.131094 276.309375 185.100353 275.549511 184.340489 
C 274.789647 183.580625 273.758905 183.153677 272.684295 183.153677 
C 271.609685 183.153677 270.578944 183.580625 269.81908 184.340489 
C 269.059216 185.100353 268.632269 186.131094 268.632269 187.205704 
C 268.632269 188.280314 269.059216 189.311055 269.81908 190.070919 
C 270.578944 190.830783 271.609685 191.25773 272.684295 191.25773 
z
" clip-path="url(#p7f1e9876b0)" style="fill: #6c8ff1; stroke: #ffffff; stroke-width: 0.4159"/>
    <path d="M 265.963196 204.20163 
C 267.093835 204.20163 268.178318 203.752422 268.9778 202.95294 
C 269.777282 202.153457 270.22649 201.068974 270.22649 199.938336 
C 270.22649 198.807697 269.777282 197.723214 268.9778 196.923731 
C 268.178318 196.124249 267.093835 195.675042 265.963196 195.675042 
C 264.832557 195.675042 263.748074 196.124249 262.948592 196.923731 
C 262.149109 197.723214 261.699902 198.807697 261.699902 199.938336 
C 261.699902 201.068974 262.149109 202.153457 262.948592 202.95294 
C 263.748074 203.752422 264.832557 204.20163 265.963196 204.20163 
z
" clip-path="url(#p7f1e9876b0)" style="fill: #82a6fb; stroke: #ffffff; stroke-width: 0.4159"/>
    <path d="M 260.436959 217.135542 
C 261.620978 217.135542 262.756662 216.665127 263.59389 215.827899 
C 264.431118 214.990671 264.901534 213.854986 264.901534 212.670967 
C 264.901534 211.486948 264.431118 210.351264 263.59389 209.514036 
C 262.756662 208.676808 261.620978 208.206392 260.436959 208.206392 
C 259.252939 208.206392 258.117255 208.676808 257.280027 209.514036 
C 256.442799 210.351264 255.972383 211.486948 255.972383 212.670967 
C 255.972383 213.854986 256.442799 214.990671 257.280027 215.827899 
C 258.117255 216.665127 259.252939 217.135542 260.436959 217.135542 
z
" clip-path="url(#p7f1e9876b0)" style="fill: #98b9ff; stroke: #ffffff; stroke-width: 0.4159"/>
    <path d="M 258.965688 230.923832 
C 260.429671 230.923832 261.83389 230.342185 262.869082 229.306993 
C 263.904274 228.271801 264.485921 226.867582 264.485921 225.403599 
C 264.485921 223.939616 263.904274 222.535397 262.869082 221.500204 
C 261.83389 220.465012 260.429671 219.883366 258.965688 219.883366 
C 257.501705 219.883366 256.097486 220.465012 255.062294 221.500204 
C 254.027101 222.535397 253.445455 223.939616 253.445455 225.403599 
C 253.445455 226.867582 254.027101 228.271801 255.062294 229.306993 
C 256.097486 230.342185 257.501705 230.923832 258.965688 230.923832 
z
" clip-path="url(#p7f1e9876b0)" style="fill: #ee8669; stroke: #ffffff; stroke-width: 0.4159"/>
    <path d="M 255.812964 241.965351 
C 256.828459 241.965351 257.802498 241.56189 258.520561 240.843827 
C 259.238624 240.125764 259.642085 239.151725 259.642085 238.13623 
C 259.642085 237.120736 259.238624 236.146696 258.520561 235.428633 
C 257.802498 234.71057 256.828459 234.30711 255.812964 234.30711 
C 254.79747 234.30711 253.82343 234.71057 253.105367 235.428633 
C 252.387304 236.146696 251.983844 237.120736 251.983844 238.13623 
C 251.983844 239.151725 252.387304 240.125764 253.105367 240.843827 
C 253.82343 241.56189 254.79747 241.965351 255.812964 241.965351 
z
" clip-path="url(#p7f1e9876b0)" style="fill: #3b4cc0; stroke: #ffffff; stroke-width: 0.4159"/>
    <path d="M 251.289492 256.46809 
C 252.774424 256.46809 254.198738 255.87812 255.248743 254.828114 
C 256.298749 253.778108 256.888719 252.353794 256.888719 250.868862 
C 256.888719 249.383929 256.298749 247.959616 255.248743 246.90961 
C 254.198738 245.859604 252.774424 245.269634 251.289492 245.269634 
C 249.804559 245.269634 248.380246 245.859604 247.33024 246.90961 
C 246.280234 247.959616 245.690264 249.383929 245.690264 250.868862 
C 245.690264 252.353794 246.280234 253.778108 247.33024 254.828114 
C 248.380246 255.87812 249.804559 256.46809 251.289492 256.46809 
z
" clip-path="url(#p7f1e9876b0)" style="fill: #f18d6f; stroke: #ffffff; stroke-width: 0.4159"/>
    <path d="M 248.200291 267.760495 
C 249.303271 267.760495 250.361224 267.322277 251.141149 266.542352 
C 251.921074 265.762427 252.359293 264.704474 252.359293 263.601493 
C 252.359293 262.498513 251.921074 261.44056 251.141149 260.660635 
C 250.361224 259.88071 249.303271 259.442491 248.200291 259.442491 
C 247.09731 259.442491 246.039357 259.88071 245.259432 260.660635 
C 244.479507 261.44056 244.041289 262.498513 244.041289 263.601493 
C 244.041289 264.704474 244.479507 265.762427 245.259432 266.542352 
C 246.039357 267.322277 247.09731 267.760495 248.200291 267.760495 
z
" clip-path="url(#p7f1e9876b0)" style="fill: #5977e3; stroke: #ffffff; stroke-width: 0.4159"/>
    <path d="M 243.27804 282.457849 
C 244.90207 282.457849 246.459804 281.812615 247.608167 280.664252 
C 248.75653 279.515889 249.401764 277.958156 249.401764 276.334125 
C 249.401764 274.710094 248.75653 273.152361 247.608167 272.003998 
C 246.459804 270.855635 244.90207 270.210401 243.27804 270.210401 
C 241.654009 270.210401 240.096276 270.855635 238.947913 272.003998 
C 237.79955 273.152361 237.154315 274.710094 237.154315 276.334125 
C 237.154315 277.958156 237.79955 279.515889 238.947913 280.664252 
C 240.096276 281.812615 241.654009 282.457849 243.27804 282.457849 
z
" clip-path="url(#p7f1e9876b0)" style="fill: #b40426; stroke: #ffffff; stroke-width: 0.4159"/>
   </g>
   <g id="matplotlib.axis_1">
    <g id="xtick_1">
     <g id="line2d_1">
      <defs>
       <path id="m4f88ab35e8" d="M 0 0 
L 0 3.5 
" style="stroke: #000000; stroke-width: 0.8"/>
      </defs>
      <g>
       <use xlink:href="#m4f88ab35e8" x="296.96721" y="288.430125" style="stroke: #000000; stroke-width: 0.8"/>
      </g>
     </g>
     <g id="text_1">
      <!-- 3.0 -->
      <g transform="translate(289.015648 303.028562) scale(0.1 -0.1)">
       <defs>
        <path id="DejaVuSans-33" d="M 2597 2516 
Q 3050 2419 3304 2112 
Q 3559 1806 3559 1356 
Q 3559 666 3084 287 
Q 2609 -91 1734 -91 
Q 1441 -91 1130 -33 
Q 819 25 488 141 
L 488 750 
Q 750 597 1062 519 
Q 1375 441 1716 441 
Q 2309 441 2620 675 
Q 2931 909 2931 1356 
Q 2931 1769 2642 2001 
Q 2353 2234 1838 2234 
L 1294 2234 
L 1294 2753 
L 1863 2753 
Q 2328 2753 2575 2939 
Q 2822 3125 2822 3475 
Q 2822 3834 2567 4026 
Q 2313 4219 1838 4219 
Q 1578 4219 1281 4162 
Q 984 4106 628 3988 
L 628 4550 
Q 988 4650 1302 4700 
Q 1616 4750 1894 4750 
Q 2613 4750 3031 4423 
Q 3450 4097 3450 3541 
Q 3450 3153 3228 2886 
Q 3006 2619 2597 2516 
z
" transform="scale(0.015625)"/>
        <path id="DejaVuSans-2e" d="M 684 794 
L 1344 794 
L 1344 0 
L 684 0 
L 684 794 
z
" transform="scale(0.015625)"/>
        <path id="DejaVuSans-30" d="M 2034 4250 
Q 1547 4250 1301 3770 
Q 1056 3291 1056 2328 
Q 1056 1369 1301 889 
Q 1547 409 2034 409 
Q 2525 409 2770 889 
Q 3016 1369 3016 2328 
Q 3016 3291 2770 3770 
Q 2525 4250 2034 4250 
z
M 2034 4750 
Q 2819 4750 3233 4129 
Q 3647 3509 3647 2328 
Q 3647 1150 3233 529 
Q 2819 -91 2034 -91 
Q 1250 -91 836 529 
Q 422 1150 422 2328 
Q 422 3509 836 4129 
Q 1250 4750 2034 4750 
z
" transform="scale(0.015625)"/>
       </defs>
       <use xlink:href="#DejaVuSans-33"/>
       <use xlink:href="#DejaVuSans-2e" transform="translate(63.623047 0)"/>
       <use xlink:href="#DejaVuSans-30" transform="translate(95.410156 0)"/>
      </g>
     </g>
    </g>
    <g id="xtick_2">
     <g id="line2d_2">
      <g>
       <use xlink:href="#m4f88ab35e8" x="373.186167" y="288.430125" style="stroke: #000000; stroke-width: 0.8"/>
      </g>
     </g>
     <g id="text_2">
      <!-- 3.5 -->
      <g transform="translate(365.234605 303.028562) scale(0.1 -0.1)">
       <defs>
        <path id="DejaVuSans-35" d="M 691 4666 
L 3169 4666 
L 3169 4134 
L 1269 4134 
L 1269 2991 
Q 1406 3038 1543 3061 
Q 1681 3084 1819 3084 
Q 2600 3084 3056 2656 
Q 3513 2228 3513 1497 
Q 3513 744 3044 326 
Q 2575 -91 1722 -91 
Q 1428 -91 1123 -41 
Q 819 9 494 109 
L 494 744 
Q 775 591 1075 516 
Q 1375 441 1709 441 
Q 2250 441 2565 725 
Q 2881 1009 2881 1497 
Q 2881 1984 2565 2268 
Q 2250 2553 1709 2553 
Q 1456 2553 1204 2497 
Q 953 2441 691 2322 
L 691 4666 
z
" transform="scale(0.015625)"/>
       </defs>
       <use xlink:href="#DejaVuSans-33"/>
       <use xlink:href="#DejaVuSans-2e" transform="translate(63.623047 0)"/>
       <use xlink:href="#DejaVuSans-35" transform="translate(95.410156 0)"/>
      </g>
     </g>
    </g>
    <g id="xtick_3">
     <g id="line2d_3">
      <g>
       <use xlink:href="#m4f88ab35e8" x="449.405124" y="288.430125" style="stroke: #000000; stroke-width: 0.8"/>
      </g>
     </g>
     <g id="text_3">
      <!-- 4.0 -->
      <g transform="translate(441.453561 303.028562) scale(0.1 -0.1)">
       <defs>
        <path id="DejaVuSans-34" d="M 2419 4116 
L 825 1625 
L 2419 1625 
L 2419 4116 
z
M 2253 4666 
L 3047 4666 
L 3047 1625 
L 3713 1625 
L 3713 1100 
L 3047 1100 
L 3047 0 
L 2419 0 
L 2419 1100 
L 313 1100 
L 313 1709 
L 2253 4666 
z
" transform="scale(0.015625)"/>
       </defs>
       <use xlink:href="#DejaVuSans-34"/>
       <use xlink:href="#DejaVuSans-2e" transform="translate(63.623047 0)"/>
       <use xlink:href="#DejaVuSans-30" transform="translate(95.410156 0)"/>
      </g>
     </g>
    </g>
    <g id="xtick_4">
     <g id="line2d_4">
      <g>
       <use xlink:href="#m4f88ab35e8" x="525.624081" y="288.430125" style="stroke: #000000; stroke-width: 0.8"/>
      </g>
     </g>
     <g id="text_4">
      <!-- 4.5 -->
      <g transform="translate(517.672518 303.028562) scale(0.1 -0.1)">
       <use xlink:href="#DejaVuSans-34"/>
       <use xlink:href="#DejaVuSans-2e" transform="translate(63.623047 0)"/>
       <use xlink:href="#DejaVuSans-35" transform="translate(95.410156 0)"/>
      </g>
     </g>
    </g>
    <g id="text_5">
     <!-- Fold Enrichment -->
     <g transform="translate(364.932656 316.706687) scale(0.1 -0.1)">
      <defs>
       <path id="DejaVuSans-46" d="M 628 4666 
L 3309 4666 
L 3309 4134 
L 1259 4134 
L 1259 2759 
L 3109 2759 
L 3109 2228 
L 1259 2228 
L 1259 0 
L 628 0 
L 628 4666 
z
" transform="scale(0.015625)"/>
       <path id="DejaVuSans-6f" d="M 1959 3097 
Q 1497 3097 1228 2736 
Q 959 2375 959 1747 
Q 959 1119 1226 758 
Q 1494 397 1959 397 
Q 2419 397 2687 759 
Q 2956 1122 2956 1747 
Q 2956 2369 2687 2733 
Q 2419 3097 1959 3097 
z
M 1959 3584 
Q 2709 3584 3137 3096 
Q 3566 2609 3566 1747 
Q 3566 888 3137 398 
Q 2709 -91 1959 -91 
Q 1206 -91 779 398 
Q 353 888 353 1747 
Q 353 2609 779 3096 
Q 1206 3584 1959 3584 
z
" transform="scale(0.015625)"/>
       <path id="DejaVuSans-6c" d="M 603 4863 
L 1178 4863 
L 1178 0 
L 603 0 
L 603 4863 
z
" transform="scale(0.015625)"/>
       <path id="DejaVuSans-64" d="M 2906 2969 
L 2906 4863 
L 3481 4863 
L 3481 0 
L 2906 0 
L 2906 525 
Q 2725 213 2448 61 
Q 2172 -91 1784 -91 
Q 1150 -91 751 415 
Q 353 922 353 1747 
Q 353 2572 751 3078 
Q 1150 3584 1784 3584 
Q 2172 3584 2448 3432 
Q 2725 3281 2906 2969 
z
M 947 1747 
Q 947 1113 1208 752 
Q 1469 391 1925 391 
Q 2381 391 2643 752 
Q 2906 1113 2906 1747 
Q 2906 2381 2643 2742 
Q 2381 3103 1925 3103 
Q 1469 3103 1208 2742 
Q 947 2381 947 1747 
z
" transform="scale(0.015625)"/>
       <path id="DejaVuSans-20" transform="scale(0.015625)"/>
       <path id="DejaVuSans-45" d="M 628 4666 
L 3578 4666 
L 3578 4134 
L 1259 4134 
L 1259 2753 
L 3481 2753 
L 3481 2222 
L 1259 2222 
L 1259 531 
L 3634 531 
L 3634 0 
L 628 0 
L 628 4666 
z
" transform="scale(0.015625)"/>
       <path id="DejaVuSans-6e" d="M 3513 2113 
L 3513 0 
L 2938 0 
L 2938 2094 
Q 2938 2591 2744 2837 
Q 2550 3084 2163 3084 
Q 1697 3084 1428 2787 
Q 1159 2491 1159 1978 
L 1159 0 
L 581 0 
L 581 3500 
L 1159 3500 
L 1159 2956 
Q 1366 3272 1645 3428 
Q 1925 3584 2291 3584 
Q 2894 3584 3203 3211 
Q 3513 2838 3513 2113 
z
" transform="scale(0.015625)"/>
       <path id="DejaVuSans-72" d="M 2631 2963 
Q 2534 3019 2420 3045 
Q 2306 3072 2169 3072 
Q 1681 3072 1420 2755 
Q 1159 2438 1159 1844 
L 1159 0 
L 581 0 
L 581 3500 
L 1159 3500 
L 1159 2956 
Q 1341 3275 1631 3429 
Q 1922 3584 2338 3584 
Q 2397 3584 2469 3576 
Q 2541 3569 2628 3553 
L 2631 2963 
z
" transform="scale(0.015625)"/>
       <path id="DejaVuSans-69" d="M 603 3500 
L 1178 3500 
L 1178 0 
L 603 0 
L 603 3500 
z
M 603 4863 
L 1178 4863 
L 1178 4134 
L 603 4134 
L 603 4863 
z
" transform="scale(0.015625)"/>
       <path id="DejaVuSans-63" d="M 3122 3366 
L 3122 2828 
Q 2878 2963 2633 3030 
Q 2388 3097 2138 3097 
Q 1578 3097 1268 2742 
Q 959 2388 959 1747 
Q 959 1106 1268 751 
Q 1578 397 2138 397 
Q 2388 397 2633 464 
Q 2878 531 3122 666 
L 3122 134 
Q 2881 22 2623 -34 
Q 2366 -91 2075 -91 
Q 1284 -91 818 406 
Q 353 903 353 1747 
Q 353 2603 823 3093 
Q 1294 3584 2113 3584 
Q 2378 3584 2631 3529 
Q 2884 3475 3122 3366 
z
" transform="scale(0.015625)"/>
       <path id="DejaVuSans-68" d="M 3513 2113 
L 3513 0 
L 2938 0 
L 2938 2094 
Q 2938 2591 2744 2837 
Q 2550 3084 2163 3084 
Q 1697 3084 1428 2787 
Q 1159 2491 1159 1978 
L 1159 0 
L 581 0 
L 581 4863 
L 1159 4863 
L 1159 2956 
Q 1366 3272 1645 3428 
Q 1925 3584 2291 3584 
Q 2894 3584 3203 3211 
Q 3513 2838 3513 2113 
z
" transform="scale(0.015625)"/>
       <path id="DejaVuSans-6d" d="M 3328 2828 
Q 3544 3216 3844 3400 
Q 4144 3584 4550 3584 
Q 5097 3584 5394 3201 
Q 5691 2819 5691 2113 
L 5691 0 
L 5113 0 
L 5113 2094 
Q 5113 2597 4934 2840 
Q 4756 3084 4391 3084 
Q 3944 3084 3684 2787 
Q 3425 2491 3425 1978 
L 3425 0 
L 2847 0 
L 2847 2094 
Q 2847 2600 2669 2842 
Q 2491 3084 2119 3084 
Q 1678 3084 1418 2786 
Q 1159 2488 1159 1978 
L 1159 0 
L 581 0 
L 581 3500 
L 1159 3500 
L 1159 2956 
Q 1356 3278 1631 3431 
Q 1906 3584 2284 3584 
Q 2666 3584 2933 3390 
Q 3200 3197 3328 2828 
z
" transform="scale(0.015625)"/>
       <path id="DejaVuSans-65" d="M 3597 1894 
L 3597 1613 
L 953 1613 
Q 991 1019 1311 708 
Q 1631 397 2203 397 
Q 2534 397 2845 478 
Q 3156 559 3463 722 
L 3463 178 
Q 3153 47 2828 -22 
Q 2503 -91 2169 -91 
Q 1331 -91 842 396 
Q 353 884 353 1716 
Q 353 2575 817 3079 
Q 1281 3584 2069 3584 
Q 2775 3584 3186 3129 
Q 3597 2675 3597 1894 
z
M 3022 2063 
Q 3016 2534 2758 2815 
Q 2500 3097 2075 3097 
Q 1594 3097 1305 2825 
Q 1016 2553 972 2059 
L 3022 2063 
z
" transform="scale(0.015625)"/>
       <path id="DejaVuSans-74" d="M 1172 4494 
L 1172 3500 
L 2356 3500 
L 2356 3053 
L 1172 3053 
L 1172 1153 
Q 1172 725 1289 603 
Q 1406 481 1766 481 
L 2356 481 
L 2356 0 
L 1766 0 
Q 1100 0 847 248 
Q 594 497 594 1153 
L 594 3053 
L 172 3053 
L 172 3500 
L 594 3500 
L 594 4494 
L 1172 4494 
z
" transform="scale(0.015625)"/>
      </defs>
      <use xlink:href="#DejaVuSans-46"/>
      <use xlink:href="#DejaVuSans-6f" transform="translate(53.894531 0)"/>
      <use xlink:href="#DejaVuSans-6c" transform="translate(115.076172 0)"/>
      <use xlink:href="#DejaVuSans-64" transform="translate(142.859375 0)"/>
      <use xlink:href="#DejaVuSans-20" transform="translate(206.335938 0)"/>
      <use xlink:href="#DejaVuSans-45" transform="translate(238.123047 0)"/>
      <use xlink:href="#DejaVuSans-6e" transform="translate(301.306641 0)"/>
      <use xlink:href="#DejaVuSans-72" transform="translate(364.685547 0)"/>
      <use xlink:href="#DejaVuSans-69" transform="translate(405.798828 0)"/>
      <use xlink:href="#DejaVuSans-63" transform="translate(433.582031 0)"/>
      <use xlink:href="#DejaVuSans-68" transform="translate(488.5625 0)"/>
      <use xlink:href="#DejaVuSans-6d" transform="translate(551.941406 0)"/>
      <use xlink:href="#DejaVuSans-65" transform="translate(649.353516 0)"/>
      <use xlink:href="#DejaVuSans-6e" transform="translate(710.876953 0)"/>
      <use xlink:href="#DejaVuSans-74" transform="translate(774.255859 0)"/>
     </g>
    </g>
   </g>
   <g id="matplotlib.axis_2">
    <g id="ytick_1">
     <g id="line2d_5">
      <defs>
       <path id="mcaafa8b2aa" d="M 0 0 
L -3.5 0 
" style="stroke: #000000; stroke-width: 0.8"/>
      </defs>
      <g>
       <use xlink:href="#mcaafa8b2aa" x="227.045313" y="34.414125" style="stroke: #000000; stroke-width: 0.8"/>
      </g>
     </g>
     <g id="text_6">
      <!-- Hyporeflexia of upper limbs -->
      <g transform="translate(81.671875 38.213344) scale(0.1 -0.1)">
       <defs>
        <path id="DejaVuSans-48" d="M 628 4666 
L 1259 4666 
L 1259 2753 
L 3553 2753 
L 3553 4666 
L 4184 4666 
L 4184 0 
L 3553 0 
L 3553 2222 
L 1259 2222 
L 1259 0 
L 628 0 
L 628 4666 
z
" transform="scale(0.015625)"/>
        <path id="DejaVuSans-79" d="M 2059 -325 
Q 1816 -950 1584 -1140 
Q 1353 -1331 966 -1331 
L 506 -1331 
L 506 -850 
L 844 -850 
Q 1081 -850 1212 -737 
Q 1344 -625 1503 -206 
L 1606 56 
L 191 3500 
L 800 3500 
L 1894 763 
L 2988 3500 
L 3597 3500 
L 2059 -325 
z
" transform="scale(0.015625)"/>
        <path id="DejaVuSans-70" d="M 1159 525 
L 1159 -1331 
L 581 -1331 
L 581 3500 
L 1159 3500 
L 1159 2969 
Q 1341 3281 1617 3432 
Q 1894 3584 2278 3584 
Q 2916 3584 3314 3078 
Q 3713 2572 3713 1747 
Q 3713 922 3314 415 
Q 2916 -91 2278 -91 
Q 1894 -91 1617 61 
Q 1341 213 1159 525 
z
M 3116 1747 
Q 3116 2381 2855 2742 
Q 2594 3103 2138 3103 
Q 1681 3103 1420 2742 
Q 1159 2381 1159 1747 
Q 1159 1113 1420 752 
Q 1681 391 2138 391 
Q 2594 391 2855 752 
Q 3116 1113 3116 1747 
z
" transform="scale(0.015625)"/>
        <path id="DejaVuSans-66" d="M 2375 4863 
L 2375 4384 
L 1825 4384 
Q 1516 4384 1395 4259 
Q 1275 4134 1275 3809 
L 1275 3500 
L 2222 3500 
L 2222 3053 
L 1275 3053 
L 1275 0 
L 697 0 
L 697 3053 
L 147 3053 
L 147 3500 
L 697 3500 
L 697 3744 
Q 697 4328 969 4595 
Q 1241 4863 1831 4863 
L 2375 4863 
z
" transform="scale(0.015625)"/>
        <path id="DejaVuSans-78" d="M 3513 3500 
L 2247 1797 
L 3578 0 
L 2900 0 
L 1881 1375 
L 863 0 
L 184 0 
L 1544 1831 
L 300 3500 
L 978 3500 
L 1906 2253 
L 2834 3500 
L 3513 3500 
z
" transform="scale(0.015625)"/>
        <path id="DejaVuSans-61" d="M 2194 1759 
Q 1497 1759 1228 1600 
Q 959 1441 959 1056 
Q 959 750 1161 570 
Q 1363 391 1709 391 
Q 2188 391 2477 730 
Q 2766 1069 2766 1631 
L 2766 1759 
L 2194 1759 
z
M 3341 1997 
L 3341 0 
L 2766 0 
L 2766 531 
Q 2569 213 2275 61 
Q 1981 -91 1556 -91 
Q 1019 -91 701 211 
Q 384 513 384 1019 
Q 384 1609 779 1909 
Q 1175 2209 1959 2209 
L 2766 2209 
L 2766 2266 
Q 2766 2663 2505 2880 
Q 2244 3097 1772 3097 
Q 1472 3097 1187 3025 
Q 903 2953 641 2809 
L 641 3341 
Q 956 3463 1253 3523 
Q 1550 3584 1831 3584 
Q 2591 3584 2966 3190 
Q 3341 2797 3341 1997 
z
" transform="scale(0.015625)"/>
        <path id="DejaVuSans-75" d="M 544 1381 
L 544 3500 
L 1119 3500 
L 1119 1403 
Q 1119 906 1312 657 
Q 1506 409 1894 409 
Q 2359 409 2629 706 
Q 2900 1003 2900 1516 
L 2900 3500 
L 3475 3500 
L 3475 0 
L 2900 0 
L 2900 538 
Q 2691 219 2414 64 
Q 2138 -91 1772 -91 
Q 1169 -91 856 284 
Q 544 659 544 1381 
z
M 1991 3584 
L 1991 3584 
z
" transform="scale(0.015625)"/>
        <path id="DejaVuSans-62" d="M 3116 1747 
Q 3116 2381 2855 2742 
Q 2594 3103 2138 3103 
Q 1681 3103 1420 2742 
Q 1159 2381 1159 1747 
Q 1159 1113 1420 752 
Q 1681 391 2138 391 
Q 2594 391 2855 752 
Q 3116 1113 3116 1747 
z
M 1159 2969 
Q 1341 3281 1617 3432 
Q 1894 3584 2278 3584 
Q 2916 3584 3314 3078 
Q 3713 2572 3713 1747 
Q 3713 922 3314 415 
Q 2916 -91 2278 -91 
Q 1894 -91 1617 61 
Q 1341 213 1159 525 
L 1159 0 
L 581 0 
L 581 4863 
L 1159 4863 
L 1159 2969 
z
" transform="scale(0.015625)"/>
        <path id="DejaVuSans-73" d="M 2834 3397 
L 2834 2853 
Q 2591 2978 2328 3040 
Q 2066 3103 1784 3103 
Q 1356 3103 1142 2972 
Q 928 2841 928 2578 
Q 928 2378 1081 2264 
Q 1234 2150 1697 2047 
L 1894 2003 
Q 2506 1872 2764 1633 
Q 3022 1394 3022 966 
Q 3022 478 2636 193 
Q 2250 -91 1575 -91 
Q 1294 -91 989 -36 
Q 684 19 347 128 
L 347 722 
Q 666 556 975 473 
Q 1284 391 1588 391 
Q 1994 391 2212 530 
Q 2431 669 2431 922 
Q 2431 1156 2273 1281 
Q 2116 1406 1581 1522 
L 1381 1569 
Q 847 1681 609 1914 
Q 372 2147 372 2553 
Q 372 3047 722 3315 
Q 1072 3584 1716 3584 
Q 2034 3584 2315 3537 
Q 2597 3491 2834 3397 
z
" transform="scale(0.015625)"/>
       </defs>
       <use xlink:href="#DejaVuSans-48"/>
       <use xlink:href="#DejaVuSans-79" transform="translate(75.195312 0)"/>
       <use xlink:href="#DejaVuSans-70" transform="translate(134.375 0)"/>
       <use xlink:href="#DejaVuSans-6f" transform="translate(197.851562 0)"/>
       <use xlink:href="#DejaVuSans-72" transform="translate(259.033203 0)"/>
       <use xlink:href="#DejaVuSans-65" transform="translate(297.896484 0)"/>
       <use xlink:href="#DejaVuSans-66" transform="translate(359.419922 0)"/>
       <use xlink:href="#DejaVuSans-6c" transform="translate(394.625 0)"/>
       <use xlink:href="#DejaVuSans-65" transform="translate(422.408203 0)"/>
       <use xlink:href="#DejaVuSans-78" transform="translate(482.181641 0)"/>
       <use xlink:href="#DejaVuSans-69" transform="translate(541.361328 0)"/>
       <use xlink:href="#DejaVuSans-61" transform="translate(569.144531 0)"/>
       <use xlink:href="#DejaVuSans-20" transform="translate(630.423828 0)"/>
       <use xlink:href="#DejaVuSans-6f" transform="translate(662.210938 0)"/>
       <use xlink:href="#DejaVuSans-66" transform="translate(723.392578 0)"/>
       <use xlink:href="#DejaVuSans-20" transform="translate(758.597656 0)"/>
       <use xlink:href="#DejaVuSans-75" transform="translate(790.384766 0)"/>
       <use xlink:href="#DejaVuSans-70" transform="translate(853.763672 0)"/>
       <use xlink:href="#DejaVuSans-70" transform="translate(917.240234 0)"/>
       <use xlink:href="#DejaVuSans-65" transform="translate(980.716797 0)"/>
       <use xlink:href="#DejaVuSans-72" transform="translate(1042.240234 0)"/>
       <use xlink:href="#DejaVuSans-20" transform="translate(1083.353516 0)"/>
       <use xlink:href="#DejaVuSans-6c" transform="translate(1115.140625 0)"/>
       <use xlink:href="#DejaVuSans-69" transform="translate(1142.923828 0)"/>
       <use xlink:href="#DejaVuSans-6d" transform="translate(1170.707031 0)"/>
       <use xlink:href="#DejaVuSans-62" transform="translate(1268.119141 0)"/>
       <use xlink:href="#DejaVuSans-73" transform="translate(1331.595703 0)"/>
      </g>
     </g>
    </g>
    <g id="ytick_2">
     <g id="line2d_6">
      <g>
       <use xlink:href="#mcaafa8b2aa" x="227.045313" y="47.146757" style="stroke: #000000; stroke-width: 0.8"/>
      </g>
     </g>
     <g id="text_7">
      <!-- Ventricular preexcitation -->
      <g transform="translate(97.059375 50.945975) scale(0.1 -0.1)">
       <defs>
        <path id="DejaVuSans-56" d="M 1831 0 
L 50 4666 
L 709 4666 
L 2188 738 
L 3669 4666 
L 4325 4666 
L 2547 0 
L 1831 0 
z
" transform="scale(0.015625)"/>
       </defs>
       <use xlink:href="#DejaVuSans-56"/>
       <use xlink:href="#DejaVuSans-65" transform="translate(60.658203 0)"/>
       <use xlink:href="#DejaVuSans-6e" transform="translate(122.181641 0)"/>
       <use xlink:href="#DejaVuSans-74" transform="translate(185.560547 0)"/>
       <use xlink:href="#DejaVuSans-72" transform="translate(224.769531 0)"/>
       <use xlink:href="#DejaVuSans-69" transform="translate(265.882812 0)"/>
       <use xlink:href="#DejaVuSans-63" transform="translate(293.666016 0)"/>
       <use xlink:href="#DejaVuSans-75" transform="translate(348.646484 0)"/>
       <use xlink:href="#DejaVuSans-6c" transform="translate(412.025391 0)"/>
       <use xlink:href="#DejaVuSans-61" transform="translate(439.808594 0)"/>
       <use xlink:href="#DejaVuSans-72" transform="translate(501.087891 0)"/>
       <use xlink:href="#DejaVuSans-20" transform="translate(542.201172 0)"/>
       <use xlink:href="#DejaVuSans-70" transform="translate(573.988281 0)"/>
       <use xlink:href="#DejaVuSans-72" transform="translate(637.464844 0)"/>
       <use xlink:href="#DejaVuSans-65" transform="translate(676.328125 0)"/>
       <use xlink:href="#DejaVuSans-65" transform="translate(737.851562 0)"/>
       <use xlink:href="#DejaVuSans-78" transform="translate(797.625 0)"/>
       <use xlink:href="#DejaVuSans-63" transform="translate(855.054688 0)"/>
       <use xlink:href="#DejaVuSans-69" transform="translate(910.035156 0)"/>
       <use xlink:href="#DejaVuSans-74" transform="translate(937.818359 0)"/>
       <use xlink:href="#DejaVuSans-61" transform="translate(977.027344 0)"/>
       <use xlink:href="#DejaVuSans-74" transform="translate(1038.306641 0)"/>
       <use xlink:href="#DejaVuSans-69" transform="translate(1077.515625 0)"/>
       <use xlink:href="#DejaVuSans-6f" transform="translate(1105.298828 0)"/>
       <use xlink:href="#DejaVuSans-6e" transform="translate(1166.480469 0)"/>
      </g>
     </g>
    </g>
    <g id="ytick_3">
     <g id="line2d_7">
      <g>
       <use xlink:href="#mcaafa8b2aa" x="227.045313" y="59.879388" style="stroke: #000000; stroke-width: 0.8"/>
      </g>
     </g>
     <g id="text_8">
      <!-- Centrocecal scotoma -->
      <g transform="translate(114.678125 63.678607) scale(0.1 -0.1)">
       <defs>
        <path id="DejaVuSans-43" d="M 4122 4306 
L 4122 3641 
Q 3803 3938 3442 4084 
Q 3081 4231 2675 4231 
Q 1875 4231 1450 3742 
Q 1025 3253 1025 2328 
Q 1025 1406 1450 917 
Q 1875 428 2675 428 
Q 3081 428 3442 575 
Q 3803 722 4122 1019 
L 4122 359 
Q 3791 134 3420 21 
Q 3050 -91 2638 -91 
Q 1578 -91 968 557 
Q 359 1206 359 2328 
Q 359 3453 968 4101 
Q 1578 4750 2638 4750 
Q 3056 4750 3426 4639 
Q 3797 4528 4122 4306 
z
" transform="scale(0.015625)"/>
       </defs>
       <use xlink:href="#DejaVuSans-43"/>
       <use xlink:href="#DejaVuSans-65" transform="translate(69.824219 0)"/>
       <use xlink:href="#DejaVuSans-6e" transform="translate(131.347656 0)"/>
       <use xlink:href="#DejaVuSans-74" transform="translate(194.726562 0)"/>
       <use xlink:href="#DejaVuSans-72" transform="translate(233.935547 0)"/>
       <use xlink:href="#DejaVuSans-6f" transform="translate(272.798828 0)"/>
       <use xlink:href="#DejaVuSans-63" transform="translate(333.980469 0)"/>
       <use xlink:href="#DejaVuSans-65" transform="translate(388.960938 0)"/>
       <use xlink:href="#DejaVuSans-63" transform="translate(450.484375 0)"/>
       <use xlink:href="#DejaVuSans-61" transform="translate(505.464844 0)"/>
       <use xlink:href="#DejaVuSans-6c" transform="translate(566.744141 0)"/>
       <use xlink:href="#DejaVuSans-20" transform="translate(594.527344 0)"/>
       <use xlink:href="#DejaVuSans-73" transform="translate(626.314453 0)"/>
       <use xlink:href="#DejaVuSans-63" transform="translate(678.414062 0)"/>
       <use xlink:href="#DejaVuSans-6f" transform="translate(733.394531 0)"/>
       <use xlink:href="#DejaVuSans-74" transform="translate(794.576172 0)"/>
       <use xlink:href="#DejaVuSans-6f" transform="translate(833.785156 0)"/>
       <use xlink:href="#DejaVuSans-6d" transform="translate(894.966797 0)"/>
       <use xlink:href="#DejaVuSans-61" transform="translate(992.378906 0)"/>
      </g>
     </g>
    </g>
    <g id="ytick_4">
     <g id="line2d_8">
      <g>
       <use xlink:href="#mcaafa8b2aa" x="227.045313" y="72.61202" style="stroke: #000000; stroke-width: 0.8"/>
      </g>
     </g>
     <g id="text_9">
      <!-- Juvenile myelomonocytic leukemia -->
      <g transform="translate(46.146875 76.411238) scale(0.1 -0.1)">
       <defs>
        <path id="DejaVuSans-4a" d="M 628 4666 
L 1259 4666 
L 1259 325 
Q 1259 -519 939 -900 
Q 619 -1281 -91 -1281 
L -331 -1281 
L -331 -750 
L -134 -750 
Q 284 -750 456 -515 
Q 628 -281 628 325 
L 628 4666 
z
" transform="scale(0.015625)"/>
        <path id="DejaVuSans-76" d="M 191 3500 
L 800 3500 
L 1894 563 
L 2988 3500 
L 3597 3500 
L 2284 0 
L 1503 0 
L 191 3500 
z
" transform="scale(0.015625)"/>
        <path id="DejaVuSans-6b" d="M 581 4863 
L 1159 4863 
L 1159 1991 
L 2875 3500 
L 3609 3500 
L 1753 1863 
L 3688 0 
L 2938 0 
L 1159 1709 
L 1159 0 
L 581 0 
L 581 4863 
z
" transform="scale(0.015625)"/>
       </defs>
       <use xlink:href="#DejaVuSans-4a"/>
       <use xlink:href="#DejaVuSans-75" transform="translate(29.492188 0)"/>
       <use xlink:href="#DejaVuSans-76" transform="translate(92.871094 0)"/>
       <use xlink:href="#DejaVuSans-65" transform="translate(152.050781 0)"/>
       <use xlink:href="#DejaVuSans-6e" transform="translate(213.574219 0)"/>
       <use xlink:href="#DejaVuSans-69" transform="translate(276.953125 0)"/>
       <use xlink:href="#DejaVuSans-6c" transform="translate(304.736328 0)"/>
       <use xlink:href="#DejaVuSans-65" transform="translate(332.519531 0)"/>
       <use xlink:href="#DejaVuSans-20" transform="translate(394.042969 0)"/>
       <use xlink:href="#DejaVuSans-6d" transform="translate(425.830078 0)"/>
       <use xlink:href="#DejaVuSans-79" transform="translate(523.242188 0)"/>
       <use xlink:href="#DejaVuSans-65" transform="translate(582.421875 0)"/>
       <use xlink:href="#DejaVuSans-6c" transform="translate(643.945312 0)"/>
       <use xlink:href="#DejaVuSans-6f" transform="translate(671.728516 0)"/>
       <use xlink:href="#DejaVuSans-6d" transform="translate(732.910156 0)"/>
       <use xlink:href="#DejaVuSans-6f" transform="translate(830.322266 0)"/>
       <use xlink:href="#DejaVuSans-6e" transform="translate(891.503906 0)"/>
       <use xlink:href="#DejaVuSans-6f" transform="translate(954.882812 0)"/>
       <use xlink:href="#DejaVuSans-63" transform="translate(1016.064453 0)"/>
       <use xlink:href="#DejaVuSans-79" transform="translate(1071.044922 0)"/>
       <use xlink:href="#DejaVuSans-74" transform="translate(1130.224609 0)"/>
       <use xlink:href="#DejaVuSans-69" transform="translate(1169.433594 0)"/>
       <use xlink:href="#DejaVuSans-63" transform="translate(1197.216797 0)"/>
       <use xlink:href="#DejaVuSans-20" transform="translate(1252.197266 0)"/>
       <use xlink:href="#DejaVuSans-6c" transform="translate(1283.984375 0)"/>
       <use xlink:href="#DejaVuSans-65" transform="translate(1311.767578 0)"/>
       <use xlink:href="#DejaVuSans-75" transform="translate(1373.291016 0)"/>
       <use xlink:href="#DejaVuSans-6b" transform="translate(1436.669922 0)"/>
       <use xlink:href="#DejaVuSans-65" transform="translate(1490.955078 0)"/>
       <use xlink:href="#DejaVuSans-6d" transform="translate(1552.478516 0)"/>
       <use xlink:href="#DejaVuSans-69" transform="translate(1649.890625 0)"/>
       <use xlink:href="#DejaVuSans-61" transform="translate(1677.673828 0)"/>
      </g>
     </g>
    </g>
    <g id="ytick_5">
     <g id="line2d_9">
      <g>
       <use xlink:href="#mcaafa8b2aa" x="227.045313" y="85.344651" style="stroke: #000000; stroke-width: 0.8"/>
      </g>
     </g>
     <g id="text_10">
      <!-- Happy demeanor -->
      <g transform="translate(133.5125 89.14387) scale(0.1 -0.1)">
       <use xlink:href="#DejaVuSans-48"/>
       <use xlink:href="#DejaVuSans-61" transform="translate(75.195312 0)"/>
       <use xlink:href="#DejaVuSans-70" transform="translate(136.474609 0)"/>
       <use xlink:href="#DejaVuSans-70" transform="translate(199.951172 0)"/>
       <use xlink:href="#DejaVuSans-79" transform="translate(263.427734 0)"/>
       <use xlink:href="#DejaVuSans-20" transform="translate(322.607422 0)"/>
       <use xlink:href="#DejaVuSans-64" transform="translate(354.394531 0)"/>
       <use xlink:href="#DejaVuSans-65" transform="translate(417.871094 0)"/>
       <use xlink:href="#DejaVuSans-6d" transform="translate(479.394531 0)"/>
       <use xlink:href="#DejaVuSans-65" transform="translate(576.806641 0)"/>
       <use xlink:href="#DejaVuSans-61" transform="translate(638.330078 0)"/>
       <use xlink:href="#DejaVuSans-6e" transform="translate(699.609375 0)"/>
       <use xlink:href="#DejaVuSans-6f" transform="translate(762.988281 0)"/>
       <use xlink:href="#DejaVuSans-72" transform="translate(824.169922 0)"/>
      </g>
     </g>
    </g>
    <g id="ytick_6">
     <g id="line2d_10">
      <g>
       <use xlink:href="#mcaafa8b2aa" x="227.045313" y="98.077283" style="stroke: #000000; stroke-width: 0.8"/>
      </g>
     </g>
     <g id="text_11">
      <!-- Mitochondrial respiratory chain defects -->
      <g transform="translate(24.064063 101.876502) scale(0.1 -0.1)">
       <defs>
        <path id="DejaVuSans-4d" d="M 628 4666 
L 1569 4666 
L 2759 1491 
L 3956 4666 
L 4897 4666 
L 4897 0 
L 4281 0 
L 4281 4097 
L 3078 897 
L 2444 897 
L 1241 4097 
L 1241 0 
L 628 0 
L 628 4666 
z
" transform="scale(0.015625)"/>
       </defs>
       <use xlink:href="#DejaVuSans-4d"/>
       <use xlink:href="#DejaVuSans-69" transform="translate(86.279297 0)"/>
       <use xlink:href="#DejaVuSans-74" transform="translate(114.0625 0)"/>
       <use xlink:href="#DejaVuSans-6f" transform="translate(153.271484 0)"/>
       <use xlink:href="#DejaVuSans-63" transform="translate(214.453125 0)"/>
       <use xlink:href="#DejaVuSans-68" transform="translate(269.433594 0)"/>
       <use xlink:href="#DejaVuSans-6f" transform="translate(332.8125 0)"/>
       <use xlink:href="#DejaVuSans-6e" transform="translate(393.994141 0)"/>
       <use xlink:href="#DejaVuSans-64" transform="translate(457.373047 0)"/>
       <use xlink:href="#DejaVuSans-72" transform="translate(520.849609 0)"/>
       <use xlink:href="#DejaVuSans-69" transform="translate(561.962891 0)"/>
       <use xlink:href="#DejaVuSans-61" transform="translate(589.746094 0)"/>
       <use xlink:href="#DejaVuSans-6c" transform="translate(651.025391 0)"/>
       <use xlink:href="#DejaVuSans-20" transform="translate(678.808594 0)"/>
       <use xlink:href="#DejaVuSans-72" transform="translate(710.595703 0)"/>
       <use xlink:href="#DejaVuSans-65" transform="translate(749.458984 0)"/>
       <use xlink:href="#DejaVuSans-73" transform="translate(810.982422 0)"/>
       <use xlink:href="#DejaVuSans-70" transform="translate(863.082031 0)"/>
       <use xlink:href="#DejaVuSans-69" transform="translate(926.558594 0)"/>
       <use xlink:href="#DejaVuSans-72" transform="translate(954.341797 0)"/>
       <use xlink:href="#DejaVuSans-61" transform="translate(995.455078 0)"/>
       <use xlink:href="#DejaVuSans-74" transform="translate(1056.734375 0)"/>
       <use xlink:href="#DejaVuSans-6f" transform="translate(1095.943359 0)"/>
       <use xlink:href="#DejaVuSans-72" transform="translate(1157.125 0)"/>
       <use xlink:href="#DejaVuSans-79" transform="translate(1198.238281 0)"/>
       <use xlink:href="#DejaVuSans-20" transform="translate(1257.417969 0)"/>
       <use xlink:href="#DejaVuSans-63" transform="translate(1289.205078 0)"/>
       <use xlink:href="#DejaVuSans-68" transform="translate(1344.185547 0)"/>
       <use xlink:href="#DejaVuSans-61" transform="translate(1407.564453 0)"/>
       <use xlink:href="#DejaVuSans-69" transform="translate(1468.84375 0)"/>
       <use xlink:href="#DejaVuSans-6e" transform="translate(1496.626953 0)"/>
       <use xlink:href="#DejaVuSans-20" transform="translate(1560.005859 0)"/>
       <use xlink:href="#DejaVuSans-64" transform="translate(1591.792969 0)"/>
       <use xlink:href="#DejaVuSans-65" transform="translate(1655.269531 0)"/>
       <use xlink:href="#DejaVuSans-66" transform="translate(1716.792969 0)"/>
       <use xlink:href="#DejaVuSans-65" transform="translate(1751.998047 0)"/>
       <use xlink:href="#DejaVuSans-63" transform="translate(1813.521484 0)"/>
       <use xlink:href="#DejaVuSans-74" transform="translate(1868.501953 0)"/>
       <use xlink:href="#DejaVuSans-73" transform="translate(1907.710938 0)"/>
      </g>
     </g>
    </g>
    <g id="ytick_7">
     <g id="line2d_11">
      <g>
       <use xlink:href="#mcaafa8b2aa" x="227.045313" y="110.809914" style="stroke: #000000; stroke-width: 0.8"/>
      </g>
     </g>
     <g id="text_12">
      <!-- Focal T2 hyperintense basal ganglia lesion -->
      <g transform="translate(7.2 114.609133) scale(0.1 -0.1)">
       <defs>
        <path id="DejaVuSans-54" d="M -19 4666 
L 3928 4666 
L 3928 4134 
L 2272 4134 
L 2272 0 
L 1638 0 
L 1638 4134 
L -19 4134 
L -19 4666 
z
" transform="scale(0.015625)"/>
        <path id="DejaVuSans-32" d="M 1228 531 
L 3431 531 
L 3431 0 
L 469 0 
L 469 531 
Q 828 903 1448 1529 
Q 2069 2156 2228 2338 
Q 2531 2678 2651 2914 
Q 2772 3150 2772 3378 
Q 2772 3750 2511 3984 
Q 2250 4219 1831 4219 
Q 1534 4219 1204 4116 
Q 875 4013 500 3803 
L 500 4441 
Q 881 4594 1212 4672 
Q 1544 4750 1819 4750 
Q 2544 4750 2975 4387 
Q 3406 4025 3406 3419 
Q 3406 3131 3298 2873 
Q 3191 2616 2906 2266 
Q 2828 2175 2409 1742 
Q 1991 1309 1228 531 
z
" transform="scale(0.015625)"/>
        <path id="DejaVuSans-67" d="M 2906 1791 
Q 2906 2416 2648 2759 
Q 2391 3103 1925 3103 
Q 1463 3103 1205 2759 
Q 947 2416 947 1791 
Q 947 1169 1205 825 
Q 1463 481 1925 481 
Q 2391 481 2648 825 
Q 2906 1169 2906 1791 
z
M 3481 434 
Q 3481 -459 3084 -895 
Q 2688 -1331 1869 -1331 
Q 1566 -1331 1297 -1286 
Q 1028 -1241 775 -1147 
L 775 -588 
Q 1028 -725 1275 -790 
Q 1522 -856 1778 -856 
Q 2344 -856 2625 -561 
Q 2906 -266 2906 331 
L 2906 616 
Q 2728 306 2450 153 
Q 2172 0 1784 0 
Q 1141 0 747 490 
Q 353 981 353 1791 
Q 353 2603 747 3093 
Q 1141 3584 1784 3584 
Q 2172 3584 2450 3431 
Q 2728 3278 2906 2969 
L 2906 3500 
L 3481 3500 
L 3481 434 
z
" transform="scale(0.015625)"/>
       </defs>
       <use xlink:href="#DejaVuSans-46"/>
       <use xlink:href="#DejaVuSans-6f" transform="translate(53.894531 0)"/>
       <use xlink:href="#DejaVuSans-63" transform="translate(115.076172 0)"/>
       <use xlink:href="#DejaVuSans-61" transform="translate(170.056641 0)"/>
       <use xlink:href="#DejaVuSans-6c" transform="translate(231.335938 0)"/>
       <use xlink:href="#DejaVuSans-20" transform="translate(259.119141 0)"/>
       <use xlink:href="#DejaVuSans-54" transform="translate(290.90625 0)"/>
       <use xlink:href="#DejaVuSans-32" transform="translate(351.990234 0)"/>
       <use xlink:href="#DejaVuSans-20" transform="translate(415.613281 0)"/>
       <use xlink:href="#DejaVuSans-68" transform="translate(447.400391 0)"/>
       <use xlink:href="#DejaVuSans-79" transform="translate(510.779297 0)"/>
       <use xlink:href="#DejaVuSans-70" transform="translate(569.958984 0)"/>
       <use xlink:href="#DejaVuSans-65" transform="translate(633.435547 0)"/>
       <use xlink:href="#DejaVuSans-72" transform="translate(694.958984 0)"/>
       <use xlink:href="#DejaVuSans-69" transform="translate(736.072266 0)"/>
       <use xlink:href="#DejaVuSans-6e" transform="translate(763.855469 0)"/>
       <use xlink:href="#DejaVuSans-74" transform="translate(827.234375 0)"/>
       <use xlink:href="#DejaVuSans-65" transform="translate(866.443359 0)"/>
       <use xlink:href="#DejaVuSans-6e" transform="translate(927.966797 0)"/>
       <use xlink:href="#DejaVuSans-73" transform="translate(991.345703 0)"/>
       <use xlink:href="#DejaVuSans-65" transform="translate(1043.445312 0)"/>
       <use xlink:href="#DejaVuSans-20" transform="translate(1104.96875 0)"/>
       <use xlink:href="#DejaVuSans-62" transform="translate(1136.755859 0)"/>
       <use xlink:href="#DejaVuSans-61" transform="translate(1200.232422 0)"/>
       <use xlink:href="#DejaVuSans-73" transform="translate(1261.511719 0)"/>
       <use xlink:href="#DejaVuSans-61" transform="translate(1313.611328 0)"/>
       <use xlink:href="#DejaVuSans-6c" transform="translate(1374.890625 0)"/>
       <use xlink:href="#DejaVuSans-20" transform="translate(1402.673828 0)"/>
       <use xlink:href="#DejaVuSans-67" transform="translate(1434.460938 0)"/>
       <use xlink:href="#DejaVuSans-61" transform="translate(1497.9375 0)"/>
       <use xlink:href="#DejaVuSans-6e" transform="translate(1559.216797 0)"/>
       <use xlink:href="#DejaVuSans-67" transform="translate(1622.595703 0)"/>
       <use xlink:href="#DejaVuSans-6c" transform="translate(1686.072266 0)"/>
       <use xlink:href="#DejaVuSans-69" transform="translate(1713.855469 0)"/>
       <use xlink:href="#DejaVuSans-61" transform="translate(1741.638672 0)"/>
       <use xlink:href="#DejaVuSans-20" transform="translate(1802.917969 0)"/>
       <use xlink:href="#DejaVuSans-6c" transform="translate(1834.705078 0)"/>
       <use xlink:href="#DejaVuSans-65" transform="translate(1862.488281 0)"/>
       <use xlink:href="#DejaVuSans-73" transform="translate(1924.011719 0)"/>
       <use xlink:href="#DejaVuSans-69" transform="translate(1976.111328 0)"/>
       <use xlink:href="#DejaVuSans-6f" transform="translate(2003.894531 0)"/>
       <use xlink:href="#DejaVuSans-6e" transform="translate(2065.076172 0)"/>
      </g>
     </g>
    </g>
    <g id="ytick_8">
     <g id="line2d_12">
      <g>
       <use xlink:href="#mcaafa8b2aa" x="227.045313" y="123.542546" style="stroke: #000000; stroke-width: 0.8"/>
      </g>
     </g>
     <g id="text_13">
      <!-- Frontal upsweep of hair -->
      <g transform="translate(102.59375 127.341765) scale(0.1 -0.1)">
       <defs>
        <path id="DejaVuSans-77" d="M 269 3500 
L 844 3500 
L 1563 769 
L 2278 3500 
L 2956 3500 
L 3675 769 
L 4391 3500 
L 4966 3500 
L 4050 0 
L 3372 0 
L 2619 2869 
L 1863 0 
L 1184 0 
L 269 3500 
z
" transform="scale(0.015625)"/>
       </defs>
       <use xlink:href="#DejaVuSans-46"/>
       <use xlink:href="#DejaVuSans-72" transform="translate(50.269531 0)"/>
       <use xlink:href="#DejaVuSans-6f" transform="translate(89.132812 0)"/>
       <use xlink:href="#DejaVuSans-6e" transform="translate(150.314453 0)"/>
       <use xlink:href="#DejaVuSans-74" transform="translate(213.693359 0)"/>
       <use xlink:href="#DejaVuSans-61" transform="translate(252.902344 0)"/>
       <use xlink:href="#DejaVuSans-6c" transform="translate(314.181641 0)"/>
       <use xlink:href="#DejaVuSans-20" transform="translate(341.964844 0)"/>
       <use xlink:href="#DejaVuSans-75" transform="translate(373.751953 0)"/>
       <use xlink:href="#DejaVuSans-70" transform="translate(437.130859 0)"/>
       <use xlink:href="#DejaVuSans-73" transform="translate(500.607422 0)"/>
       <use xlink:href="#DejaVuSans-77" transform="translate(552.707031 0)"/>
       <use xlink:href="#DejaVuSans-65" transform="translate(634.494141 0)"/>
       <use xlink:href="#DejaVuSans-65" transform="translate(696.017578 0)"/>
       <use xlink:href="#DejaVuSans-70" transform="translate(757.541016 0)"/>
       <use xlink:href="#DejaVuSans-20" transform="translate(821.017578 0)"/>
       <use xlink:href="#DejaVuSans-6f" transform="translate(852.804688 0)"/>
       <use xlink:href="#DejaVuSans-66" transform="translate(913.986328 0)"/>
       <use xlink:href="#DejaVuSans-20" transform="translate(949.191406 0)"/>
       <use xlink:href="#DejaVuSans-68" transform="translate(980.978516 0)"/>
       <use xlink:href="#DejaVuSans-61" transform="translate(1044.357422 0)"/>
       <use xlink:href="#DejaVuSans-69" transform="translate(1105.636719 0)"/>
       <use xlink:href="#DejaVuSans-72" transform="translate(1133.419922 0)"/>
      </g>
     </g>
    </g>
    <g id="ytick_9">
     <g id="line2d_13">
      <g>
       <use xlink:href="#mcaafa8b2aa" x="227.045313" y="136.275178" style="stroke: #000000; stroke-width: 0.8"/>
      </g>
     </g>
     <g id="text_14">
      <!-- Orofacial dyskinesia -->
      <g transform="translate(119.507813 140.074396) scale(0.1 -0.1)">
       <defs>
        <path id="DejaVuSans-4f" d="M 2522 4238 
Q 1834 4238 1429 3725 
Q 1025 3213 1025 2328 
Q 1025 1447 1429 934 
Q 1834 422 2522 422 
Q 3209 422 3611 934 
Q 4013 1447 4013 2328 
Q 4013 3213 3611 3725 
Q 3209 4238 2522 4238 
z
M 2522 4750 
Q 3503 4750 4090 4092 
Q 4678 3434 4678 2328 
Q 4678 1225 4090 567 
Q 3503 -91 2522 -91 
Q 1538 -91 948 565 
Q 359 1222 359 2328 
Q 359 3434 948 4092 
Q 1538 4750 2522 4750 
z
" transform="scale(0.015625)"/>
       </defs>
       <use xlink:href="#DejaVuSans-4f"/>
       <use xlink:href="#DejaVuSans-72" transform="translate(78.710938 0)"/>
       <use xlink:href="#DejaVuSans-6f" transform="translate(117.574219 0)"/>
       <use xlink:href="#DejaVuSans-66" transform="translate(178.755859 0)"/>
       <use xlink:href="#DejaVuSans-61" transform="translate(213.960938 0)"/>
       <use xlink:href="#DejaVuSans-63" transform="translate(275.240234 0)"/>
       <use xlink:href="#DejaVuSans-69" transform="translate(330.220703 0)"/>
       <use xlink:href="#DejaVuSans-61" transform="translate(358.003906 0)"/>
       <use xlink:href="#DejaVuSans-6c" transform="translate(419.283203 0)"/>
       <use xlink:href="#DejaVuSans-20" transform="translate(447.066406 0)"/>
       <use xlink:href="#DejaVuSans-64" transform="translate(478.853516 0)"/>
       <use xlink:href="#DejaVuSans-79" transform="translate(542.330078 0)"/>
       <use xlink:href="#DejaVuSans-73" transform="translate(601.509766 0)"/>
       <use xlink:href="#DejaVuSans-6b" transform="translate(653.609375 0)"/>
       <use xlink:href="#DejaVuSans-69" transform="translate(711.519531 0)"/>
       <use xlink:href="#DejaVuSans-6e" transform="translate(739.302734 0)"/>
       <use xlink:href="#DejaVuSans-65" transform="translate(802.681641 0)"/>
       <use xlink:href="#DejaVuSans-73" transform="translate(864.205078 0)"/>
       <use xlink:href="#DejaVuSans-69" transform="translate(916.304688 0)"/>
       <use xlink:href="#DejaVuSans-61" transform="translate(944.087891 0)"/>
      </g>
     </g>
    </g>
    <g id="ytick_10">
     <g id="line2d_14">
      <g>
       <use xlink:href="#mcaafa8b2aa" x="227.045313" y="149.007809" style="stroke: #000000; stroke-width: 0.8"/>
      </g>
     </g>
     <g id="text_15">
      <!-- Atypical absence seizure -->
      <g transform="translate(96.059375 152.807028) scale(0.1 -0.1)">
       <defs>
        <path id="DejaVuSans-41" d="M 2188 4044 
L 1331 1722 
L 3047 1722 
L 2188 4044 
z
M 1831 4666 
L 2547 4666 
L 4325 0 
L 3669 0 
L 3244 1197 
L 1141 1197 
L 716 0 
L 50 0 
L 1831 4666 
z
" transform="scale(0.015625)"/>
        <path id="DejaVuSans-7a" d="M 353 3500 
L 3084 3500 
L 3084 2975 
L 922 459 
L 3084 459 
L 3084 0 
L 275 0 
L 275 525 
L 2438 3041 
L 353 3041 
L 353 3500 
z
" transform="scale(0.015625)"/>
       </defs>
       <use xlink:href="#DejaVuSans-41"/>
       <use xlink:href="#DejaVuSans-74" transform="translate(66.658203 0)"/>
       <use xlink:href="#DejaVuSans-79" transform="translate(105.867188 0)"/>
       <use xlink:href="#DejaVuSans-70" transform="translate(165.046875 0)"/>
       <use xlink:href="#DejaVuSans-69" transform="translate(228.523438 0)"/>
       <use xlink:href="#DejaVuSans-63" transform="translate(256.306641 0)"/>
       <use xlink:href="#DejaVuSans-61" transform="translate(311.287109 0)"/>
       <use xlink:href="#DejaVuSans-6c" transform="translate(372.566406 0)"/>
       <use xlink:href="#DejaVuSans-20" transform="translate(400.349609 0)"/>
       <use xlink:href="#DejaVuSans-61" transform="translate(432.136719 0)"/>
       <use xlink:href="#DejaVuSans-62" transform="translate(493.416016 0)"/>
       <use xlink:href="#DejaVuSans-73" transform="translate(556.892578 0)"/>
       <use xlink:href="#DejaVuSans-65" transform="translate(608.992188 0)"/>
       <use xlink:href="#DejaVuSans-6e" transform="translate(670.515625 0)"/>
       <use xlink:href="#DejaVuSans-63" transform="translate(733.894531 0)"/>
       <use xlink:href="#DejaVuSans-65" transform="translate(788.875 0)"/>
       <use xlink:href="#DejaVuSans-20" transform="translate(850.398438 0)"/>
       <use xlink:href="#DejaVuSans-73" transform="translate(882.185547 0)"/>
       <use xlink:href="#DejaVuSans-65" transform="translate(934.285156 0)"/>
       <use xlink:href="#DejaVuSans-69" transform="translate(995.808594 0)"/>
       <use xlink:href="#DejaVuSans-7a" transform="translate(1023.591797 0)"/>
       <use xlink:href="#DejaVuSans-75" transform="translate(1076.082031 0)"/>
       <use xlink:href="#DejaVuSans-72" transform="translate(1139.460938 0)"/>
       <use xlink:href="#DejaVuSans-65" transform="translate(1178.324219 0)"/>
      </g>
     </g>
    </g>
    <g id="ytick_11">
     <g id="line2d_15">
      <g>
       <use xlink:href="#mcaafa8b2aa" x="227.045313" y="161.740441" style="stroke: #000000; stroke-width: 0.8"/>
      </g>
     </g>
     <g id="text_16">
      <!-- Thickened helices -->
      <g transform="translate(130.817188 165.53966) scale(0.1 -0.1)">
       <use xlink:href="#DejaVuSans-54"/>
       <use xlink:href="#DejaVuSans-68" transform="translate(61.083984 0)"/>
       <use xlink:href="#DejaVuSans-69" transform="translate(124.462891 0)"/>
       <use xlink:href="#DejaVuSans-63" transform="translate(152.246094 0)"/>
       <use xlink:href="#DejaVuSans-6b" transform="translate(207.226562 0)"/>
       <use xlink:href="#DejaVuSans-65" transform="translate(261.511719 0)"/>
       <use xlink:href="#DejaVuSans-6e" transform="translate(323.035156 0)"/>
       <use xlink:href="#DejaVuSans-65" transform="translate(386.414062 0)"/>
       <use xlink:href="#DejaVuSans-64" transform="translate(447.9375 0)"/>
       <use xlink:href="#DejaVuSans-20" transform="translate(511.414062 0)"/>
       <use xlink:href="#DejaVuSans-68" transform="translate(543.201172 0)"/>
       <use xlink:href="#DejaVuSans-65" transform="translate(606.580078 0)"/>
       <use xlink:href="#DejaVuSans-6c" transform="translate(668.103516 0)"/>
       <use xlink:href="#DejaVuSans-69" transform="translate(695.886719 0)"/>
       <use xlink:href="#DejaVuSans-63" transform="translate(723.669922 0)"/>
       <use xlink:href="#DejaVuSans-65" transform="translate(778.650391 0)"/>
       <use xlink:href="#DejaVuSans-73" transform="translate(840.173828 0)"/>
      </g>
     </g>
    </g>
    <g id="ytick_12">
     <g id="line2d_16">
      <g>
       <use xlink:href="#mcaafa8b2aa" x="227.045313" y="174.473072" style="stroke: #000000; stroke-width: 0.8"/>
      </g>
     </g>
     <g id="text_17">
      <!-- Medial flaring of the eyebrow -->
      <g transform="translate(73.710938 178.272291) scale(0.1 -0.1)">
       <use xlink:href="#DejaVuSans-4d"/>
       <use xlink:href="#DejaVuSans-65" transform="translate(86.279297 0)"/>
       <use xlink:href="#DejaVuSans-64" transform="translate(147.802734 0)"/>
       <use xlink:href="#DejaVuSans-69" transform="translate(211.279297 0)"/>
       <use xlink:href="#DejaVuSans-61" transform="translate(239.0625 0)"/>
       <use xlink:href="#DejaVuSans-6c" transform="translate(300.341797 0)"/>
       <use xlink:href="#DejaVuSans-20" transform="translate(328.125 0)"/>
       <use xlink:href="#DejaVuSans-66" transform="translate(359.912109 0)"/>
       <use xlink:href="#DejaVuSans-6c" transform="translate(395.117188 0)"/>
       <use xlink:href="#DejaVuSans-61" transform="translate(422.900391 0)"/>
       <use xlink:href="#DejaVuSans-72" transform="translate(484.179688 0)"/>
       <use xlink:href="#DejaVuSans-69" transform="translate(525.292969 0)"/>
       <use xlink:href="#DejaVuSans-6e" transform="translate(553.076172 0)"/>
       <use xlink:href="#DejaVuSans-67" transform="translate(616.455078 0)"/>
       <use xlink:href="#DejaVuSans-20" transform="translate(679.931641 0)"/>
       <use xlink:href="#DejaVuSans-6f" transform="translate(711.71875 0)"/>
       <use xlink:href="#DejaVuSans-66" transform="translate(772.900391 0)"/>
       <use xlink:href="#DejaVuSans-20" transform="translate(808.105469 0)"/>
       <use xlink:href="#DejaVuSans-74" transform="translate(839.892578 0)"/>
       <use xlink:href="#DejaVuSans-68" transform="translate(879.101562 0)"/>
       <use xlink:href="#DejaVuSans-65" transform="translate(942.480469 0)"/>
       <use xlink:href="#DejaVuSans-20" transform="translate(1004.003906 0)"/>
       <use xlink:href="#DejaVuSans-65" transform="translate(1035.791016 0)"/>
       <use xlink:href="#DejaVuSans-79" transform="translate(1097.314453 0)"/>
       <use xlink:href="#DejaVuSans-65" transform="translate(1156.494141 0)"/>
       <use xlink:href="#DejaVuSans-62" transform="translate(1218.017578 0)"/>
       <use xlink:href="#DejaVuSans-72" transform="translate(1281.494141 0)"/>
       <use xlink:href="#DejaVuSans-6f" transform="translate(1320.357422 0)"/>
       <use xlink:href="#DejaVuSans-77" transform="translate(1381.539062 0)"/>
      </g>
     </g>
    </g>
    <g id="ytick_13">
     <g id="line2d_17">
      <g>
       <use xlink:href="#mcaafa8b2aa" x="227.045313" y="187.205704" style="stroke: #000000; stroke-width: 0.8"/>
      </g>
     </g>
     <g id="text_18">
      <!-- Nephronophthisis -->
      <g transform="translate(132.345313 191.004923) scale(0.1 -0.1)">
       <defs>
        <path id="DejaVuSans-4e" d="M 628 4666 
L 1478 4666 
L 3547 763 
L 3547 4666 
L 4159 4666 
L 4159 0 
L 3309 0 
L 1241 3903 
L 1241 0 
L 628 0 
L 628 4666 
z
" transform="scale(0.015625)"/>
       </defs>
       <use xlink:href="#DejaVuSans-4e"/>
       <use xlink:href="#DejaVuSans-65" transform="translate(74.804688 0)"/>
       <use xlink:href="#DejaVuSans-70" transform="translate(136.328125 0)"/>
       <use xlink:href="#DejaVuSans-68" transform="translate(199.804688 0)"/>
       <use xlink:href="#DejaVuSans-72" transform="translate(263.183594 0)"/>
       <use xlink:href="#DejaVuSans-6f" transform="translate(302.046875 0)"/>
       <use xlink:href="#DejaVuSans-6e" transform="translate(363.228516 0)"/>
       <use xlink:href="#DejaVuSans-6f" transform="translate(426.607422 0)"/>
       <use xlink:href="#DejaVuSans-70" transform="translate(487.789062 0)"/>
       <use xlink:href="#DejaVuSans-68" transform="translate(551.265625 0)"/>
       <use xlink:href="#DejaVuSans-74" transform="translate(614.644531 0)"/>
       <use xlink:href="#DejaVuSans-68" transform="translate(653.853516 0)"/>
       <use xlink:href="#DejaVuSans-69" transform="translate(717.232422 0)"/>
       <use xlink:href="#DejaVuSans-73" transform="translate(745.015625 0)"/>
       <use xlink:href="#DejaVuSans-69" transform="translate(797.115234 0)"/>
       <use xlink:href="#DejaVuSans-73" transform="translate(824.898438 0)"/>
      </g>
     </g>
    </g>
    <g id="ytick_14">
     <g id="line2d_18">
      <g>
       <use xlink:href="#mcaafa8b2aa" x="227.045313" y="199.938336" style="stroke: #000000; stroke-width: 0.8"/>
      </g>
     </g>
     <g id="text_19">
      <!-- Gaze-evoked nystagmus -->
      <g transform="translate(96.710938 203.737554) scale(0.1 -0.1)">
       <defs>
        <path id="DejaVuSans-47" d="M 3809 666 
L 3809 1919 
L 2778 1919 
L 2778 2438 
L 4434 2438 
L 4434 434 
Q 4069 175 3628 42 
Q 3188 -91 2688 -91 
Q 1594 -91 976 548 
Q 359 1188 359 2328 
Q 359 3472 976 4111 
Q 1594 4750 2688 4750 
Q 3144 4750 3555 4637 
Q 3966 4525 4313 4306 
L 4313 3634 
Q 3963 3931 3569 4081 
Q 3175 4231 2741 4231 
Q 1884 4231 1454 3753 
Q 1025 3275 1025 2328 
Q 1025 1384 1454 906 
Q 1884 428 2741 428 
Q 3075 428 3337 486 
Q 3600 544 3809 666 
z
" transform="scale(0.015625)"/>
        <path id="DejaVuSans-2d" d="M 313 2009 
L 1997 2009 
L 1997 1497 
L 313 1497 
L 313 2009 
z
" transform="scale(0.015625)"/>
       </defs>
       <use xlink:href="#DejaVuSans-47"/>
       <use xlink:href="#DejaVuSans-61" transform="translate(77.490234 0)"/>
       <use xlink:href="#DejaVuSans-7a" transform="translate(138.769531 0)"/>
       <use xlink:href="#DejaVuSans-65" transform="translate(191.259766 0)"/>
       <use xlink:href="#DejaVuSans-2d" transform="translate(252.783203 0)"/>
       <use xlink:href="#DejaVuSans-65" transform="translate(288.867188 0)"/>
       <use xlink:href="#DejaVuSans-76" transform="translate(350.390625 0)"/>
       <use xlink:href="#DejaVuSans-6f" transform="translate(409.570312 0)"/>
       <use xlink:href="#DejaVuSans-6b" transform="translate(470.751953 0)"/>
       <use xlink:href="#DejaVuSans-65" transform="translate(525.037109 0)"/>
       <use xlink:href="#DejaVuSans-64" transform="translate(586.560547 0)"/>
       <use xlink:href="#DejaVuSans-20" transform="translate(650.037109 0)"/>
       <use xlink:href="#DejaVuSans-6e" transform="translate(681.824219 0)"/>
       <use xlink:href="#DejaVuSans-79" transform="translate(745.203125 0)"/>
       <use xlink:href="#DejaVuSans-73" transform="translate(804.382812 0)"/>
       <use xlink:href="#DejaVuSans-74" transform="translate(856.482422 0)"/>
       <use xlink:href="#DejaVuSans-61" transform="translate(895.691406 0)"/>
       <use xlink:href="#DejaVuSans-67" transform="translate(956.970703 0)"/>
       <use xlink:href="#DejaVuSans-6d" transform="translate(1020.447266 0)"/>
       <use xlink:href="#DejaVuSans-75" transform="translate(1117.859375 0)"/>
       <use xlink:href="#DejaVuSans-73" transform="translate(1181.238281 0)"/>
      </g>
     </g>
    </g>
    <g id="ytick_15">
     <g id="line2d_19">
      <g>
       <use xlink:href="#mcaafa8b2aa" x="227.045313" y="212.670967" style="stroke: #000000; stroke-width: 0.8"/>
      </g>
     </g>
     <g id="text_20">
      <!-- Cortical dysplasia -->
      <g transform="translate(131.704688 216.470186) scale(0.1 -0.1)">
       <use xlink:href="#DejaVuSans-43"/>
       <use xlink:href="#DejaVuSans-6f" transform="translate(69.824219 0)"/>
       <use xlink:href="#DejaVuSans-72" transform="translate(131.005859 0)"/>
       <use xlink:href="#DejaVuSans-74" transform="translate(172.119141 0)"/>
       <use xlink:href="#DejaVuSans-69" transform="translate(211.328125 0)"/>
       <use xlink:href="#DejaVuSans-63" transform="translate(239.111328 0)"/>
       <use xlink:href="#DejaVuSans-61" transform="translate(294.091797 0)"/>
       <use xlink:href="#DejaVuSans-6c" transform="translate(355.371094 0)"/>
       <use xlink:href="#DejaVuSans-20" transform="translate(383.154297 0)"/>
       <use xlink:href="#DejaVuSans-64" transform="translate(414.941406 0)"/>
       <use xlink:href="#DejaVuSans-79" transform="translate(478.417969 0)"/>
       <use xlink:href="#DejaVuSans-73" transform="translate(537.597656 0)"/>
       <use xlink:href="#DejaVuSans-70" transform="translate(589.697266 0)"/>
       <use xlink:href="#DejaVuSans-6c" transform="translate(653.173828 0)"/>
       <use xlink:href="#DejaVuSans-61" transform="translate(680.957031 0)"/>
       <use xlink:href="#DejaVuSans-73" transform="translate(742.236328 0)"/>
       <use xlink:href="#DejaVuSans-69" transform="translate(794.335938 0)"/>
       <use xlink:href="#DejaVuSans-61" transform="translate(822.119141 0)"/>
      </g>
     </g>
    </g>
    <g id="ytick_16">
     <g id="line2d_20">
      <g>
       <use xlink:href="#mcaafa8b2aa" x="227.045313" y="225.403599" style="stroke: #000000; stroke-width: 0.8"/>
      </g>
     </g>
     <g id="text_21">
      <!-- Neurogenic bladder -->
      <g transform="translate(121.559375 229.202817) scale(0.1 -0.1)">
       <use xlink:href="#DejaVuSans-4e"/>
       <use xlink:href="#DejaVuSans-65" transform="translate(74.804688 0)"/>
       <use xlink:href="#DejaVuSans-75" transform="translate(136.328125 0)"/>
       <use xlink:href="#DejaVuSans-72" transform="translate(199.707031 0)"/>
       <use xlink:href="#DejaVuSans-6f" transform="translate(238.570312 0)"/>
       <use xlink:href="#DejaVuSans-67" transform="translate(299.751953 0)"/>
       <use xlink:href="#DejaVuSans-65" transform="translate(363.228516 0)"/>
       <use xlink:href="#DejaVuSans-6e" transform="translate(424.751953 0)"/>
       <use xlink:href="#DejaVuSans-69" transform="translate(488.130859 0)"/>
       <use xlink:href="#DejaVuSans-63" transform="translate(515.914062 0)"/>
       <use xlink:href="#DejaVuSans-20" transform="translate(570.894531 0)"/>
       <use xlink:href="#DejaVuSans-62" transform="translate(602.681641 0)"/>
       <use xlink:href="#DejaVuSans-6c" transform="translate(666.158203 0)"/>
       <use xlink:href="#DejaVuSans-61" transform="translate(693.941406 0)"/>
       <use xlink:href="#DejaVuSans-64" transform="translate(755.220703 0)"/>
       <use xlink:href="#DejaVuSans-64" transform="translate(818.697266 0)"/>
       <use xlink:href="#DejaVuSans-65" transform="translate(882.173828 0)"/>
       <use xlink:href="#DejaVuSans-72" transform="translate(943.697266 0)"/>
      </g>
     </g>
    </g>
    <g id="ytick_17">
     <g id="line2d_21">
      <g>
       <use xlink:href="#mcaafa8b2aa" x="227.045313" y="238.13623" style="stroke: #000000; stroke-width: 0.8"/>
      </g>
     </g>
     <g id="text_22">
      <!-- Abnormality of the genital system -->
      <g transform="translate(49.842188 241.935449) scale(0.1 -0.1)">
       <use xlink:href="#DejaVuSans-41"/>
       <use xlink:href="#DejaVuSans-62" transform="translate(68.408203 0)"/>
       <use xlink:href="#DejaVuSans-6e" transform="translate(131.884766 0)"/>
       <use xlink:href="#DejaVuSans-6f" transform="translate(195.263672 0)"/>
       <use xlink:href="#DejaVuSans-72" transform="translate(256.445312 0)"/>
       <use xlink:href="#DejaVuSans-6d" transform="translate(295.808594 0)"/>
       <use xlink:href="#DejaVuSans-61" transform="translate(393.220703 0)"/>
       <use xlink:href="#DejaVuSans-6c" transform="translate(454.5 0)"/>
       <use xlink:href="#DejaVuSans-69" transform="translate(482.283203 0)"/>
       <use xlink:href="#DejaVuSans-74" transform="translate(510.066406 0)"/>
       <use xlink:href="#DejaVuSans-79" transform="translate(549.275391 0)"/>
       <use xlink:href="#DejaVuSans-20" transform="translate(608.455078 0)"/>
       <use xlink:href="#DejaVuSans-6f" transform="translate(640.242188 0)"/>
       <use xlink:href="#DejaVuSans-66" transform="translate(701.423828 0)"/>
       <use xlink:href="#DejaVuSans-20" transform="translate(736.628906 0)"/>
       <use xlink:href="#DejaVuSans-74" transform="translate(768.416016 0)"/>
       <use xlink:href="#DejaVuSans-68" transform="translate(807.625 0)"/>
       <use xlink:href="#DejaVuSans-65" transform="translate(871.003906 0)"/>
       <use xlink:href="#DejaVuSans-20" transform="translate(932.527344 0)"/>
       <use xlink:href="#DejaVuSans-67" transform="translate(964.314453 0)"/>
       <use xlink:href="#DejaVuSans-65" transform="translate(1027.791016 0)"/>
       <use xlink:href="#DejaVuSans-6e" transform="translate(1089.314453 0)"/>
       <use xlink:href="#DejaVuSans-69" transform="translate(1152.693359 0)"/>
       <use xlink:href="#DejaVuSans-74" transform="translate(1180.476562 0)"/>
       <use xlink:href="#DejaVuSans-61" transform="translate(1219.685547 0)"/>
       <use xlink:href="#DejaVuSans-6c" transform="translate(1280.964844 0)"/>
       <use xlink:href="#DejaVuSans-20" transform="translate(1308.748047 0)"/>
       <use xlink:href="#DejaVuSans-73" transform="translate(1340.535156 0)"/>
       <use xlink:href="#DejaVuSans-79" transform="translate(1392.634766 0)"/>
       <use xlink:href="#DejaVuSans-73" transform="translate(1451.814453 0)"/>
       <use xlink:href="#DejaVuSans-74" transform="translate(1503.914062 0)"/>
       <use xlink:href="#DejaVuSans-65" transform="translate(1543.123047 0)"/>
       <use xlink:href="#DejaVuSans-6d" transform="translate(1604.646484 0)"/>
      </g>
     </g>
    </g>
    <g id="ytick_18">
     <g id="line2d_22">
      <g>
       <use xlink:href="#mcaafa8b2aa" x="227.045313" y="250.868862" style="stroke: #000000; stroke-width: 0.8"/>
      </g>
     </g>
     <g id="text_23">
      <!-- Abnormal myelination -->
      <g transform="translate(109.65 254.668081) scale(0.1 -0.1)">
       <use xlink:href="#DejaVuSans-41"/>
       <use xlink:href="#DejaVuSans-62" transform="translate(68.408203 0)"/>
       <use xlink:href="#DejaVuSans-6e" transform="translate(131.884766 0)"/>
       <use xlink:href="#DejaVuSans-6f" transform="translate(195.263672 0)"/>
       <use xlink:href="#DejaVuSans-72" transform="translate(256.445312 0)"/>
       <use xlink:href="#DejaVuSans-6d" transform="translate(295.808594 0)"/>
       <use xlink:href="#DejaVuSans-61" transform="translate(393.220703 0)"/>
       <use xlink:href="#DejaVuSans-6c" transform="translate(454.5 0)"/>
       <use xlink:href="#DejaVuSans-20" transform="translate(482.283203 0)"/>
       <use xlink:href="#DejaVuSans-6d" transform="translate(514.070312 0)"/>
       <use xlink:href="#DejaVuSans-79" transform="translate(611.482422 0)"/>
       <use xlink:href="#DejaVuSans-65" transform="translate(670.662109 0)"/>
       <use xlink:href="#DejaVuSans-6c" transform="translate(732.185547 0)"/>
       <use xlink:href="#DejaVuSans-69" transform="translate(759.96875 0)"/>
       <use xlink:href="#DejaVuSans-6e" transform="translate(787.751953 0)"/>
       <use xlink:href="#DejaVuSans-61" transform="translate(851.130859 0)"/>
       <use xlink:href="#DejaVuSans-74" transform="translate(912.410156 0)"/>
       <use xlink:href="#DejaVuSans-69" transform="translate(951.619141 0)"/>
       <use xlink:href="#DejaVuSans-6f" transform="translate(979.402344 0)"/>
       <use xlink:href="#DejaVuSans-6e" transform="translate(1040.583984 0)"/>
      </g>
     </g>
    </g>
    <g id="ytick_19">
     <g id="line2d_23">
      <g>
       <use xlink:href="#mcaafa8b2aa" x="227.045313" y="263.601493" style="stroke: #000000; stroke-width: 0.8"/>
      </g>
     </g>
     <g id="text_24">
      <!-- Exaggerated cupid's bow -->
      <g transform="translate(93.898438 267.400712) scale(0.1 -0.1)">
       <defs>
        <path id="DejaVuSans-27" d="M 1147 4666 
L 1147 2931 
L 616 2931 
L 616 4666 
L 1147 4666 
z
" transform="scale(0.015625)"/>
       </defs>
       <use xlink:href="#DejaVuSans-45"/>
       <use xlink:href="#DejaVuSans-78" transform="translate(63.183594 0)"/>
       <use xlink:href="#DejaVuSans-61" transform="translate(122.363281 0)"/>
       <use xlink:href="#DejaVuSans-67" transform="translate(183.642578 0)"/>
       <use xlink:href="#DejaVuSans-67" transform="translate(247.119141 0)"/>
       <use xlink:href="#DejaVuSans-65" transform="translate(310.595703 0)"/>
       <use xlink:href="#DejaVuSans-72" transform="translate(372.119141 0)"/>
       <use xlink:href="#DejaVuSans-61" transform="translate(413.232422 0)"/>
       <use xlink:href="#DejaVuSans-74" transform="translate(474.511719 0)"/>
       <use xlink:href="#DejaVuSans-65" transform="translate(513.720703 0)"/>
       <use xlink:href="#DejaVuSans-64" transform="translate(575.244141 0)"/>
       <use xlink:href="#DejaVuSans-20" transform="translate(638.720703 0)"/>
       <use xlink:href="#DejaVuSans-63" transform="translate(670.507812 0)"/>
       <use xlink:href="#DejaVuSans-75" transform="translate(725.488281 0)"/>
       <use xlink:href="#DejaVuSans-70" transform="translate(788.867188 0)"/>
       <use xlink:href="#DejaVuSans-69" transform="translate(852.34375 0)"/>
       <use xlink:href="#DejaVuSans-64" transform="translate(880.126953 0)"/>
       <use xlink:href="#DejaVuSans-27" transform="translate(943.603516 0)"/>
       <use xlink:href="#DejaVuSans-73" transform="translate(971.09375 0)"/>
       <use xlink:href="#DejaVuSans-20" transform="translate(1023.193359 0)"/>
       <use xlink:href="#DejaVuSans-62" transform="translate(1054.980469 0)"/>
       <use xlink:href="#DejaVuSans-6f" transform="translate(1118.457031 0)"/>
       <use xlink:href="#DejaVuSans-77" transform="translate(1179.638672 0)"/>
      </g>
     </g>
    </g>
    <g id="ytick_20">
     <g id="line2d_24">
      <g>
       <use xlink:href="#mcaafa8b2aa" x="227.045313" y="276.334125" style="stroke: #000000; stroke-width: 0.8"/>
      </g>
     </g>
     <g id="text_25">
      <!-- Tonic seizure -->
      <g transform="translate(155.960938 280.133344) scale(0.1 -0.1)">
       <use xlink:href="#DejaVuSans-54"/>
       <use xlink:href="#DejaVuSans-6f" transform="translate(44.083984 0)"/>
       <use xlink:href="#DejaVuSans-6e" transform="translate(105.265625 0)"/>
       <use xlink:href="#DejaVuSans-69" transform="translate(168.644531 0)"/>
       <use xlink:href="#DejaVuSans-63" transform="translate(196.427734 0)"/>
       <use xlink:href="#DejaVuSans-20" transform="translate(251.408203 0)"/>
       <use xlink:href="#DejaVuSans-73" transform="translate(283.195312 0)"/>
       <use xlink:href="#DejaVuSans-65" transform="translate(335.294922 0)"/>
       <use xlink:href="#DejaVuSans-69" transform="translate(396.818359 0)"/>
       <use xlink:href="#DejaVuSans-7a" transform="translate(424.601562 0)"/>
       <use xlink:href="#DejaVuSans-75" transform="translate(477.091797 0)"/>
       <use xlink:href="#DejaVuSans-72" transform="translate(540.470703 0)"/>
       <use xlink:href="#DejaVuSans-65" transform="translate(579.333984 0)"/>
      </g>
     </g>
    </g>
   </g>
   <g id="line2d_25"/>
   <g id="line2d_26"/>
   <g id="line2d_27"/>
   <g id="line2d_28"/>
   <g id="line2d_29"/>
   <g id="line2d_30"/>
   <g id="line2d_31"/>
   <g id="line2d_32"/>
   <g id="line2d_33"/>
   <g id="line2d_34"/>
   <g id="line2d_35"/>
   <g id="line2d_36"/>
   <g id="line2d_37"/>
   <g id="patch_3">
    <path d="M 227.045313 288.430125 
L 227.045313 22.318125 
" style="fill: none; stroke: #000000; stroke-width: 0.8; stroke-linejoin: miter; stroke-linecap: square"/>
   </g>
   <g id="patch_4">
    <path d="M 584.165313 288.430125 
L 584.165313 22.318125 
" style="fill: none; stroke: #000000; stroke-width: 0.8; stroke-linejoin: miter; stroke-linecap: square"/>
   </g>
   <g id="patch_5">
    <path d="M 227.045313 288.430125 
L 584.165313 288.430125 
" style="fill: none; stroke: #000000; stroke-width: 0.8; stroke-linejoin: miter; stroke-linecap: square"/>
   </g>
   <g id="patch_6">
    <path d="M 227.045313 22.318125 
L 584.165313 22.318125 
" style="fill: none; stroke: #000000; stroke-width: 0.8; stroke-linejoin: miter; stroke-linecap: square"/>
   </g>
   <g id="text_26">
    <!-- Top 20 Enriched Phenotypes -->
    <g transform="translate(320.679063 16.318125) scale(0.12 -0.12)">
     <defs>
      <path id="DejaVuSans-50" d="M 1259 4147 
L 1259 2394 
L 2053 2394 
Q 2494 2394 2734 2622 
Q 2975 2850 2975 3272 
Q 2975 3691 2734 3919 
Q 2494 4147 2053 4147 
L 1259 4147 
z
M 628 4666 
L 2053 4666 
Q 2838 4666 3239 4311 
Q 3641 3956 3641 3272 
Q 3641 2581 3239 2228 
Q 2838 1875 2053 1875 
L 1259 1875 
L 1259 0 
L 628 0 
L 628 4666 
z
" transform="scale(0.015625)"/>
     </defs>
     <use xlink:href="#DejaVuSans-54"/>
     <use xlink:href="#DejaVuSans-6f" transform="translate(44.083984 0)"/>
     <use xlink:href="#DejaVuSans-70" transform="translate(105.265625 0)"/>
     <use xlink:href="#DejaVuSans-20" transform="translate(168.742188 0)"/>
     <use xlink:href="#DejaVuSans-32" transform="translate(200.529297 0)"/>
     <use xlink:href="#DejaVuSans-30" transform="translate(264.152344 0)"/>
     <use xlink:href="#DejaVuSans-20" transform="translate(327.775391 0)"/>
     <use xlink:href="#DejaVuSans-45" transform="translate(359.5625 0)"/>
     <use xlink:href="#DejaVuSans-6e" transform="translate(422.746094 0)"/>
     <use xlink:href="#DejaVuSans-72" transform="translate(486.125 0)"/>
     <use xlink:href="#DejaVuSans-69" transform="translate(527.238281 0)"/>
     <use xlink:href="#DejaVuSans-63" transform="translate(555.021484 0)"/>
     <use xlink:href="#DejaVuSans-68" transform="translate(610.001953 0)"/>
     <use xlink:href="#DejaVuSans-65" transform="translate(673.380859 0)"/>
     <use xlink:href="#DejaVuSans-64" transform="translate(734.904297 0)"/>
     <use xlink:href="#DejaVuSans-20" transform="translate(798.380859 0)"/>
     <use xlink:href="#DejaVuSans-50" transform="translate(830.167969 0)"/>
     <use xlink:href="#DejaVuSans-68" transform="translate(890.470703 0)"/>
     <use xlink:href="#DejaVuSans-65" transform="translate(953.849609 0)"/>
     <use xlink:href="#DejaVuSans-6e" transform="translate(1015.373047 0)"/>
     <use xlink:href="#DejaVuSans-6f" transform="translate(1078.751953 0)"/>
     <use xlink:href="#DejaVuSans-74" transform="translate(1139.933594 0)"/>
     <use xlink:href="#DejaVuSans-79" transform="translate(1179.142578 0)"/>
     <use xlink:href="#DejaVuSans-70" transform="translate(1238.322266 0)"/>
     <use xlink:href="#DejaVuSans-65" transform="translate(1301.798828 0)"/>
     <use xlink:href="#DejaVuSans-73" transform="translate(1363.322266 0)"/>
    </g>
   </g>
   <g id="legend_1">
    <g id="patch_7">
     <path d="M 591.165313 221.13375 
L 678.404375 221.13375 
Q 680.404375 221.13375 680.404375 219.13375 
L 680.404375 29.318125 
Q 680.404375 27.318125 678.404375 27.318125 
L 591.165313 27.318125 
Q 589.165313 27.318125 589.165313 29.318125 
L 589.165313 219.13375 
Q 589.165313 221.13375 591.165313 221.13375 
z
" style="fill: #ffffff; opacity: 0.8; stroke: #cccccc; stroke-linejoin: miter"/>
    </g>
    <g id="line2d_38"/>
    <g id="text_27">
     <!-- -log10 FDR -->
     <g transform="translate(621.165313 38.916562) scale(0.1 -0.1)">
      <defs>
       <path id="DejaVuSans-31" d="M 794 531 
L 1825 531 
L 1825 4091 
L 703 3866 
L 703 4441 
L 1819 4666 
L 2450 4666 
L 2450 531 
L 3481 531 
L 3481 0 
L 794 0 
L 794 531 
z
" transform="scale(0.015625)"/>
       <path id="DejaVuSans-44" d="M 1259 4147 
L 1259 519 
L 2022 519 
Q 2988 519 3436 956 
Q 3884 1394 3884 2338 
Q 3884 3275 3436 3711 
Q 2988 4147 2022 4147 
L 1259 4147 
z
M 628 4666 
L 1925 4666 
Q 3281 4666 3915 4102 
Q 4550 3538 4550 2338 
Q 4550 1131 3912 565 
Q 3275 0 1925 0 
L 628 0 
L 628 4666 
z
" transform="scale(0.015625)"/>
       <path id="DejaVuSans-52" d="M 2841 2188 
Q 3044 2119 3236 1894 
Q 3428 1669 3622 1275 
L 4263 0 
L 3584 0 
L 2988 1197 
Q 2756 1666 2539 1819 
Q 2322 1972 1947 1972 
L 1259 1972 
L 1259 0 
L 628 0 
L 628 4666 
L 2053 4666 
Q 2853 4666 3247 4331 
Q 3641 3997 3641 3322 
Q 3641 2881 3436 2590 
Q 3231 2300 2841 2188 
z
M 1259 4147 
L 1259 2491 
L 2053 2491 
Q 2509 2491 2742 2702 
Q 2975 2913 2975 3322 
Q 2975 3731 2742 3939 
Q 2509 4147 2053 4147 
L 1259 4147 
z
" transform="scale(0.015625)"/>
      </defs>
      <use xlink:href="#DejaVuSans-2d"/>
      <use xlink:href="#DejaVuSans-6c" transform="translate(36.083984 0)"/>
      <use xlink:href="#DejaVuSans-6f" transform="translate(63.867188 0)"/>
      <use xlink:href="#DejaVuSans-67" transform="translate(125.048828 0)"/>
      <use xlink:href="#DejaVuSans-31" transform="translate(188.525391 0)"/>
      <use xlink:href="#DejaVuSans-30" transform="translate(252.148438 0)"/>
      <use xlink:href="#DejaVuSans-20" transform="translate(315.771484 0)"/>
      <use xlink:href="#DejaVuSans-46" transform="translate(347.558594 0)"/>
      <use xlink:href="#DejaVuSans-44" transform="translate(405.078125 0)"/>
      <use xlink:href="#DejaVuSans-52" transform="translate(482.080078 0)"/>
     </g>
    </g>
    <g id="line2d_39">
     <defs>
      <path id="m2363895373" d="M 0 3 
C 0.795609 3 1.55874 2.683901 2.12132 2.12132 
C 2.683901 1.55874 3 0.795609 3 0 
C 3 -0.795609 2.683901 -1.55874 2.12132 -2.12132 
C 1.55874 -2.683901 0.795609 -3 0 -3 
C -0.795609 -3 -1.55874 -2.683901 -2.12132 -2.12132 
C -2.683901 -1.55874 -3 -0.795609 -3 0 
C -3 0.795609 -2.683901 1.55874 -2.12132 2.12132 
C -1.55874 2.683901 -0.795609 3 0 3 
z
" style="stroke: #ffffff; stroke-width: 0.4159"/>
     </defs>
     <g>
      <use xlink:href="#m2363895373" x="603.165313" y="50.094688" style="fill: #7295f4; stroke: #ffffff; stroke-width: 0.4159"/>
     </g>
    </g>
    <g id="text_28">
     <!-- 5 -->
     <g transform="translate(621.165313 53.594688) scale(0.1 -0.1)">
      <use xlink:href="#DejaVuSans-35"/>
     </g>
    </g>
    <g id="line2d_40">
     <defs>
      <path id="mfb7e43cac7" d="M 0 3 
C 0.795609 3 1.55874 2.683901 2.12132 2.12132 
C 2.683901 1.55874 3 0.795609 3 0 
C 3 -0.795609 2.683901 -1.55874 2.12132 -2.12132 
C 1.55874 -2.683901 0.795609 -3 0 -3 
C -0.795609 -3 -1.55874 -2.683901 -2.12132 -2.12132 
C -2.683901 -1.55874 -3 -0.795609 -3 0 
C -3 0.795609 -2.683901 1.55874 -2.12132 2.12132 
C -1.55874 2.683901 -0.795609 3 0 3 
z
" style="stroke: #ffffff; stroke-width: 0.4159"/>
     </defs>
     <g>
      <use xlink:href="#mfb7e43cac7" x="603.165313" y="64.772812" style="fill: #b3cdfb; stroke: #ffffff; stroke-width: 0.4159"/>
     </g>
    </g>
    <g id="text_29">
     <!-- 6 -->
     <g transform="translate(621.165313 68.272812) scale(0.1 -0.1)">
      <defs>
       <path id="DejaVuSans-36" d="M 2113 2584 
Q 1688 2584 1439 2293 
Q 1191 2003 1191 1497 
Q 1191 994 1439 701 
Q 1688 409 2113 409 
Q 2538 409 2786 701 
Q 3034 994 3034 1497 
Q 3034 2003 2786 2293 
Q 2538 2584 2113 2584 
z
M 3366 4563 
L 3366 3988 
Q 3128 4100 2886 4159 
Q 2644 4219 2406 4219 
Q 1781 4219 1451 3797 
Q 1122 3375 1075 2522 
Q 1259 2794 1537 2939 
Q 1816 3084 2150 3084 
Q 2853 3084 3261 2657 
Q 3669 2231 3669 1497 
Q 3669 778 3244 343 
Q 2819 -91 2113 -91 
Q 1303 -91 875 529 
Q 447 1150 447 2328 
Q 447 3434 972 4092 
Q 1497 4750 2381 4750 
Q 2619 4750 2861 4703 
Q 3103 4656 3366 4563 
z
" transform="scale(0.015625)"/>
      </defs>
      <use xlink:href="#DejaVuSans-36"/>
     </g>
    </g>
    <g id="line2d_41">
     <defs>
      <path id="m598754356c" d="M 0 3 
C 0.795609 3 1.55874 2.683901 2.12132 2.12132 
C 2.683901 1.55874 3 0.795609 3 0 
C 3 -0.795609 2.683901 -1.55874 2.12132 -2.12132 
C 1.55874 -2.683901 0.795609 -3 0 -3 
C -0.795609 -3 -1.55874 -2.683901 -2.12132 -2.12132 
C -2.683901 -1.55874 -3 -0.795609 -3 0 
C -3 0.795609 -2.683901 1.55874 -2.12132 2.12132 
C -1.55874 2.683901 -0.795609 3 0 3 
z
" style="stroke: #ffffff; stroke-width: 0.4159"/>
     </defs>
     <g>
      <use xlink:href="#m598754356c" x="603.165313" y="79.450938" style="fill: #ead5c9; stroke: #ffffff; stroke-width: 0.4159"/>
     </g>
    </g>
    <g id="text_30">
     <!-- 7 -->
     <g transform="translate(621.165313 82.950938) scale(0.1 -0.1)">
      <defs>
       <path id="DejaVuSans-37" d="M 525 4666 
L 3525 4666 
L 3525 4397 
L 1831 0 
L 1172 0 
L 2766 4134 
L 525 4134 
L 525 4666 
z
" transform="scale(0.015625)"/>
      </defs>
      <use xlink:href="#DejaVuSans-37"/>
     </g>
    </g>
    <g id="line2d_42">
     <defs>
      <path id="mc3a55f73bb" d="M 0 3 
C 0.795609 3 1.55874 2.683901 2.12132 2.12132 
C 2.683901 1.55874 3 0.795609 3 0 
C 3 -0.795609 2.683901 -1.55874 2.12132 -2.12132 
C 1.55874 -2.683901 0.795609 -3 0 -3 
C -0.795609 -3 -1.55874 -2.683901 -2.12132 -2.12132 
C -2.683901 -1.55874 -3 -0.795609 -3 0 
C -3 0.795609 -2.683901 1.55874 -2.12132 2.12132 
C -1.55874 2.683901 -0.795609 3 0 3 
z
" style="stroke: #ffffff; stroke-width: 0.4159"/>
     </defs>
     <g>
      <use xlink:href="#mc3a55f73bb" x="603.165313" y="94.129063" style="fill: #f59d7e; stroke: #ffffff; stroke-width: 0.4159"/>
     </g>
    </g>
    <g id="text_31">
     <!-- 8 -->
     <g transform="translate(621.165313 97.629063) scale(0.1 -0.1)">
      <defs>
       <path id="DejaVuSans-38" d="M 2034 2216 
Q 1584 2216 1326 1975 
Q 1069 1734 1069 1313 
Q 1069 891 1326 650 
Q 1584 409 2034 409 
Q 2484 409 2743 651 
Q 3003 894 3003 1313 
Q 3003 1734 2745 1975 
Q 2488 2216 2034 2216 
z
M 1403 2484 
Q 997 2584 770 2862 
Q 544 3141 544 3541 
Q 544 4100 942 4425 
Q 1341 4750 2034 4750 
Q 2731 4750 3128 4425 
Q 3525 4100 3525 3541 
Q 3525 3141 3298 2862 
Q 3072 2584 2669 2484 
Q 3125 2378 3379 2068 
Q 3634 1759 3634 1313 
Q 3634 634 3220 271 
Q 2806 -91 2034 -91 
Q 1263 -91 848 271 
Q 434 634 434 1313 
Q 434 1759 690 2068 
Q 947 2378 1403 2484 
z
M 1172 3481 
Q 1172 3119 1398 2916 
Q 1625 2713 2034 2713 
Q 2441 2713 2670 2916 
Q 2900 3119 2900 3481 
Q 2900 3844 2670 4047 
Q 2441 4250 2034 4250 
Q 1625 4250 1398 4047 
Q 1172 3844 1172 3481 
z
" transform="scale(0.015625)"/>
      </defs>
      <use xlink:href="#DejaVuSans-38"/>
     </g>
    </g>
    <g id="line2d_43">
     <defs>
      <path id="m34cdcdb56f" d="M 0 3 
C 0.795609 3 1.55874 2.683901 2.12132 2.12132 
C 2.683901 1.55874 3 0.795609 3 0 
C 3 -0.795609 2.683901 -1.55874 2.12132 -2.12132 
C 1.55874 -2.683901 0.795609 -3 0 -3 
C -0.795609 -3 -1.55874 -2.683901 -2.12132 -2.12132 
C -2.683901 -1.55874 -3 -0.795609 -3 0 
C -3 0.795609 -2.683901 1.55874 -2.12132 2.12132 
C -1.55874 2.683901 -0.795609 3 0 3 
z
" style="stroke: #ffffff; stroke-width: 0.4159"/>
     </defs>
     <g>
      <use xlink:href="#m34cdcdb56f" x="603.165313" y="108.807187" style="fill: #cd423b; stroke: #ffffff; stroke-width: 0.4159"/>
     </g>
    </g>
    <g id="text_32">
     <!-- 9 -->
     <g transform="translate(621.165313 112.307187) scale(0.1 -0.1)">
      <defs>
       <path id="DejaVuSans-39" d="M 703 97 
L 703 672 
Q 941 559 1184 500 
Q 1428 441 1663 441 
Q 2288 441 2617 861 
Q 2947 1281 2994 2138 
Q 2813 1869 2534 1725 
Q 2256 1581 1919 1581 
Q 1219 1581 811 2004 
Q 403 2428 403 3163 
Q 403 3881 828 4315 
Q 1253 4750 1959 4750 
Q 2769 4750 3195 4129 
Q 3622 3509 3622 2328 
Q 3622 1225 3098 567 
Q 2575 -91 1691 -91 
Q 1453 -91 1209 -44 
Q 966 3 703 97 
z
M 1959 2075 
Q 2384 2075 2632 2365 
Q 2881 2656 2881 3163 
Q 2881 3666 2632 3958 
Q 2384 4250 1959 4250 
Q 1534 4250 1286 3958 
Q 1038 3666 1038 3163 
Q 1038 2656 1286 2365 
Q 1534 2075 1959 2075 
z
" transform="scale(0.015625)"/>
      </defs>
      <use xlink:href="#DejaVuSans-39"/>
     </g>
    </g>
    <g id="line2d_44"/>
    <g id="text_33">
     <!-- Gene Ratio -->
     <g transform="translate(621.165313 126.985313) scale(0.1 -0.1)">
      <use xlink:href="#DejaVuSans-47"/>
      <use xlink:href="#DejaVuSans-65" transform="translate(77.490234 0)"/>
      <use xlink:href="#DejaVuSans-6e" transform="translate(139.013672 0)"/>
      <use xlink:href="#DejaVuSans-65" transform="translate(202.392578 0)"/>
      <use xlink:href="#DejaVuSans-20" transform="translate(263.916016 0)"/>
      <use xlink:href="#DejaVuSans-52" transform="translate(295.703125 0)"/>
      <use xlink:href="#DejaVuSans-61" transform="translate(362.935547 0)"/>
      <use xlink:href="#DejaVuSans-74" transform="translate(424.214844 0)"/>
      <use xlink:href="#DejaVuSans-69" transform="translate(463.423828 0)"/>
      <use xlink:href="#DejaVuSans-6f" transform="translate(491.207031 0)"/>
     </g>
    </g>
    <g id="line2d_45">
     <defs>
      <path id="m2f16d239d9" d="M 0 2.90769 
C 0.771128 2.90769 1.510777 2.601318 2.056047 2.056047 
C 2.601318 1.510777 2.90769 0.771128 2.90769 0 
C 2.90769 -0.771128 2.601318 -1.510777 2.056047 -2.056047 
C 1.510777 -2.601318 0.771128 -2.90769 0 -2.90769 
C -0.771128 -2.90769 -1.510777 -2.601318 -2.056047 -2.056047 
C -2.601318 -1.510777 -2.90769 -0.771128 -2.90769 0 
C -2.90769 0.771128 -2.601318 1.510777 -2.056047 2.056047 
C -1.510777 2.601318 -0.771128 2.90769 0 2.90769 
z
" style="stroke: #ffffff; stroke-width: 0.4159"/>
     </defs>
     <g>
      <use xlink:href="#m2f16d239d9" x="603.165313" y="138.163437" style="fill: #333333; stroke: #ffffff; stroke-width: 0.4159"/>
     </g>
    </g>
    <g id="text_34">
     <!-- 0.0030 -->
     <g transform="translate(621.165313 141.663437) scale(0.1 -0.1)">
      <use xlink:href="#DejaVuSans-30"/>
      <use xlink:href="#DejaVuSans-2e" transform="translate(63.623047 0)"/>
      <use xlink:href="#DejaVuSans-30" transform="translate(95.410156 0)"/>
      <use xlink:href="#DejaVuSans-30" transform="translate(159.033203 0)"/>
      <use xlink:href="#DejaVuSans-33" transform="translate(222.65625 0)"/>
      <use xlink:href="#DejaVuSans-30" transform="translate(286.279297 0)"/>
     </g>
    </g>
    <g id="line2d_46">
     <defs>
      <path id="m1f5885a2fe" d="M 0 3.759614 
C 0.997061 3.759614 1.95342 3.363477 2.658448 2.658448 
C 3.363477 1.95342 3.759614 0.997061 3.759614 0 
C 3.759614 -0.997061 3.363477 -1.95342 2.658448 -2.658448 
C 1.95342 -3.363477 0.997061 -3.759614 0 -3.759614 
C -0.997061 -3.759614 -1.95342 -3.363477 -2.658448 -2.658448 
C -3.363477 -1.95342 -3.759614 -0.997061 -3.759614 0 
C -3.759614 0.997061 -3.363477 1.95342 -2.658448 2.658448 
C -1.95342 3.363477 -0.997061 3.759614 0 3.759614 
z
" style="stroke: #ffffff; stroke-width: 0.4159"/>
     </defs>
     <g>
      <use xlink:href="#m1f5885a2fe" x="603.165313" y="152.841563" style="fill: #333333; stroke: #ffffff; stroke-width: 0.4159"/>
     </g>
    </g>
    <g id="text_35">
     <!-- 0.0045 -->
     <g transform="translate(621.165313 156.341563) scale(0.1 -0.1)">
      <use xlink:href="#DejaVuSans-30"/>
      <use xlink:href="#DejaVuSans-2e" transform="translate(63.623047 0)"/>
      <use xlink:href="#DejaVuSans-30" transform="translate(95.410156 0)"/>
      <use xlink:href="#DejaVuSans-30" transform="translate(159.033203 0)"/>
      <use xlink:href="#DejaVuSans-34" transform="translate(222.65625 0)"/>
      <use xlink:href="#DejaVuSans-35" transform="translate(286.279297 0)"/>
     </g>
    </g>
    <g id="line2d_47">
     <defs>
      <path id="m18113639b7" d="M 0 4.451374 
C 1.180518 4.451374 2.312844 3.982349 3.147597 3.147597 
C 3.982349 2.312844 4.451374 1.180518 4.451374 0 
C 4.451374 -1.180518 3.982349 -2.312844 3.147597 -3.147597 
C 2.312844 -3.982349 1.180518 -4.451374 0 -4.451374 
C -1.180518 -4.451374 -2.312844 -3.982349 -3.147597 -3.147597 
C -3.982349 -2.312844 -4.451374 -1.180518 -4.451374 0 
C -4.451374 1.180518 -3.982349 2.312844 -3.147597 3.147597 
C -2.312844 3.982349 -1.180518 4.451374 0 4.451374 
z
" style="stroke: #ffffff; stroke-width: 0.4159"/>
     </defs>
     <g>
      <use xlink:href="#m18113639b7" x="603.165313" y="167.519687" style="fill: #333333; stroke: #ffffff; stroke-width: 0.4159"/>
     </g>
    </g>
    <g id="text_36">
     <!-- 0.0060 -->
     <g transform="translate(621.165313 171.019687) scale(0.1 -0.1)">
      <use xlink:href="#DejaVuSans-30"/>
      <use xlink:href="#DejaVuSans-2e" transform="translate(63.623047 0)"/>
      <use xlink:href="#DejaVuSans-30" transform="translate(95.410156 0)"/>
      <use xlink:href="#DejaVuSans-30" transform="translate(159.033203 0)"/>
      <use xlink:href="#DejaVuSans-36" transform="translate(222.65625 0)"/>
      <use xlink:href="#DejaVuSans-30" transform="translate(286.279297 0)"/>
     </g>
    </g>
    <g id="line2d_48">
     <defs>
      <path id="m989ca031ee" d="M 0 5.049234 
C 1.339072 5.049234 2.62348 4.517215 3.570348 3.570348 
C 4.517215 2.62348 5.049234 1.339072 5.049234 0 
C 5.049234 -1.339072 4.517215 -2.62348 3.570348 -3.570348 
C 2.62348 -4.517215 1.339072 -5.049234 0 -5.049234 
C -1.339072 -5.049234 -2.62348 -4.517215 -3.570348 -3.570348 
C -4.517215 -2.62348 -5.049234 -1.339072 -5.049234 0 
C -5.049234 1.339072 -4.517215 2.62348 -3.570348 3.570348 
C -2.62348 4.517215 -1.339072 5.049234 0 5.049234 
z
" style="stroke: #ffffff; stroke-width: 0.4159"/>
     </defs>
     <g>
      <use xlink:href="#m989ca031ee" x="603.165313" y="182.197812" style="fill: #333333; stroke: #ffffff; stroke-width: 0.4159"/>
     </g>
    </g>
    <g id="text_37">
     <!-- 0.0075 -->
     <g transform="translate(621.165313 185.697812) scale(0.1 -0.1)">
      <use xlink:href="#DejaVuSans-30"/>
      <use xlink:href="#DejaVuSans-2e" transform="translate(63.623047 0)"/>
      <use xlink:href="#DejaVuSans-30" transform="translate(95.410156 0)"/>
      <use xlink:href="#DejaVuSans-30" transform="translate(159.033203 0)"/>
      <use xlink:href="#DejaVuSans-37" transform="translate(222.65625 0)"/>
      <use xlink:href="#DejaVuSans-35" transform="translate(286.279297 0)"/>
     </g>
    </g>
    <g id="line2d_49">
     <defs>
      <path id="m5e1d14494b" d="M 0 5.58344 
C 1.480745 5.58344 2.901043 4.995133 3.948088 3.948088 
C 4.995133 2.901043 5.58344 1.480745 5.58344 0 
C 5.58344 -1.480745 4.995133 -2.901043 3.948088 -3.948088 
C 2.901043 -4.995133 1.480745 -5.58344 0 -5.58344 
C -1.480745 -5.58344 -2.901043 -4.995133 -3.948088 -3.948088 
C -4.995133 -2.901043 -5.58344 -1.480745 -5.58344 0 
C -5.58344 1.480745 -4.995133 2.901043 -3.948088 3.948088 
C -2.901043 4.995133 -1.480745 5.58344 0 5.58344 
z
" style="stroke: #ffffff; stroke-width: 0.4159"/>
     </defs>
     <g>
      <use xlink:href="#m5e1d14494b" x="603.165313" y="196.875937" style="fill: #333333; stroke: #ffffff; stroke-width: 0.4159"/>
     </g>
    </g>
    <g id="text_38">
     <!-- 0.0090 -->
     <g transform="translate(621.165313 200.375937) scale(0.1 -0.1)">
      <use xlink:href="#DejaVuSans-30"/>
      <use xlink:href="#DejaVuSans-2e" transform="translate(63.623047 0)"/>
      <use xlink:href="#DejaVuSans-30" transform="translate(95.410156 0)"/>
      <use xlink:href="#DejaVuSans-30" transform="translate(159.033203 0)"/>
      <use xlink:href="#DejaVuSans-39" transform="translate(222.65625 0)"/>
      <use xlink:href="#DejaVuSans-30" transform="translate(286.279297 0)"/>
     </g>
    </g>
    <g id="line2d_50">
     <defs>
      <path id="m33a3e92614" d="M 0 6.070818 
C 1.61 6.070818 3.154275 5.431158 4.292717 4.292717 
C 5.431158 3.154275 6.070818 1.61 6.070818 0 
C 6.070818 -1.61 5.431158 -3.154275 4.292717 -4.292717 
C 3.154275 -5.431158 1.61 -6.070818 0 -6.070818 
C -1.61 -6.070818 -3.154275 -5.431158 -4.292717 -4.292717 
C -5.431158 -3.154275 -6.070818 -1.61 -6.070818 0 
C -6.070818 1.61 -5.431158 3.154275 -4.292717 4.292717 
C -3.154275 5.431158 -1.61 6.070818 0 6.070818 
z
" style="stroke: #ffffff; stroke-width: 0.4159"/>
     </defs>
     <g>
      <use xlink:href="#m33a3e92614" x="603.165313" y="211.554062" style="fill: #333333; stroke: #ffffff; stroke-width: 0.4159"/>
     </g>
    </g>
    <g id="text_39">
     <!-- 0.0105 -->
     <g transform="translate(621.165313 215.054062) scale(0.1 -0.1)">
      <use xlink:href="#DejaVuSans-30"/>
      <use xlink:href="#DejaVuSans-2e" transform="translate(63.623047 0)"/>
      <use xlink:href="#DejaVuSans-30" transform="translate(95.410156 0)"/>
      <use xlink:href="#DejaVuSans-31" transform="translate(159.033203 0)"/>
      <use xlink:href="#DejaVuSans-30" transform="translate(222.65625 0)"/>
      <use xlink:href="#DejaVuSans-35" transform="translate(286.279297 0)"/>
     </g>
    </g>
   </g>
  </g>
 </g>
 <defs>
  <clipPath id="p7f1e9876b0">
   <rect x="227.045313" y="22.318125" width="357.12" height="266.112"/>
  </clipPath>
 </defs>
</svg>
