<?xml version="1.0" encoding="utf-8" standalone="no"?>
<!DOCTYPE svg PUBLIC "-//W3C//DTD SVG 1.1//EN"
  "http://www.w3.org/Graphics/SVG/1.1/DTD/svg11.dtd">
<svg xmlns:xlink="http://www.w3.org/1999/xlink" width="667.368438pt" height="325.986375pt" viewBox="0 0 667.368438 325.986375" xmlns="http://www.w3.org/2000/svg" version="1.1">
 <metadata>
  <rdf:RDF xmlns:dc="http://purl.org/dc/elements/1.1/" xmlns:cc="http://creativecommons.org/ns#" xmlns:rdf="http://www.w3.org/1999/02/22-rdf-syntax-ns#">
   <cc:Work>
    <dc:type rdf:resource="http://purl.org/dc/dcmitype/StillImage"/>
    <dc:date>2025-12-10T00:53:21.273108</dc:date>
    <dc:format>image/svg+xml</dc:format>
    <dc:creator>
     <cc:Agent>
      <dc:title>Matplotlib v3.10.7, https://matplotlib.org/</dc:title>
     </cc:Agent>
    </dc:creator>
   </cc:Work>
  </rdf:RDF>
 </metadata>
 <defs>
  <style type="text/css">*{stroke-linejoin: round; stroke-linecap: butt}</style>
 </defs>
 <g id="figure_1">
  <g id="patch_1">
   <path d="M 0 325.986375 
L 667.368438 325.986375 
L 667.368438 0 
L 0 0 
z
" style="fill: #ffffff"/>
  </g>
  <g id="axes_1">
   <g id="patch_2">
    <path d="M 206.809375 288.430125 
L 563.929375 288.430125 
L 563.929375 22.318125 
L 206.809375 22.318125 
z
" style="fill: #ffffff"/>
   </g>
   <g id="PathCollection_1">
    <path d="M 547.696648 37.031617 
C 548.390815 37.031617 549.056644 36.755822 549.547494 36.264972 
C 550.038345 35.774121 550.31414 35.108292 550.31414 34.414125 
C 550.31414 33.719958 550.038345 33.054129 549.547494 32.563278 
C 549.056644 32.072428 548.390815 31.796633 547.696648 31.796633 
C 547.002481 31.796633 546.336651 32.072428 545.845801 32.563278 
C 545.354951 33.054129 545.079155 33.719958 545.079155 34.414125 
C 545.079155 35.108292 545.354951 35.774121 545.845801 36.264972 
C 546.336651 36.755822 547.002481 37.031617 547.696648 37.031617 
z
" clip-path="url(#pf016daf30a)" style="fill: #7ea1fa; stroke: #ffffff; stroke-width: 0.377815"/>
    <path d="M 545.792474 49.382825 
C 546.385486 49.382825 546.95429 49.147218 547.373613 48.727895 
C 547.792936 48.308572 548.028542 47.739769 548.028542 47.146757 
C 548.028542 46.553744 547.792936 45.984941 547.373613 45.565618 
C 546.95429 45.146295 546.385486 44.910689 545.792474 44.910689 
C 545.199462 44.910689 544.630658 45.146295 544.211336 45.565618 
C 543.792013 45.984941 543.556406 46.553744 543.556406 47.146757 
C 543.556406 47.739769 543.792013 48.308572 544.211336 48.727895 
C 544.630658 49.147218 545.199462 49.382825 545.792474 49.382825 
z
" clip-path="url(#pf016daf30a)" style="fill: #4a63d3; stroke: #ffffff; stroke-width: 0.377815"/>
    <path d="M 535.509938 62.864054 
C 536.301481 62.864054 537.06071 62.54957 537.620415 61.989865 
C 538.18012 61.43016 538.494603 60.670931 538.494603 59.879388 
C 538.494603 59.087846 538.18012 58.328616 537.620415 57.768911 
C 537.06071 57.209206 536.301481 56.894723 535.509938 56.894723 
C 534.718395 56.894723 533.959166 57.209206 533.399461 57.768911 
C 532.839756 58.328616 532.525273 59.087846 532.525273 59.879388 
C 532.525273 60.670931 532.839756 61.43016 533.399461 61.989865 
C 533.959166 62.54957 534.718395 62.864054 535.509938 62.864054 
z
" clip-path="url(#pf016daf30a)" style="fill: #b5cdfa; stroke: #ffffff; stroke-width: 0.377815"/>
    <path d="M 505.597105 75.923393 
C 506.475291 75.923393 507.317628 75.574485 507.938599 74.953514 
C 508.559571 74.332542 508.908478 73.490206 508.908478 72.61202 
C 508.908478 71.733833 508.559571 70.891497 507.938599 70.270526 
C 507.317628 69.649554 506.475291 69.300647 505.597105 69.300647 
C 504.718919 69.300647 503.876582 69.649554 503.255611 70.270526 
C 502.634639 70.891497 502.285732 71.733833 502.285732 72.61202 
C 502.285732 73.490206 502.634639 74.332542 503.255611 74.953514 
C 503.876582 75.574485 504.718919 75.923393 505.597105 75.923393 
z
" clip-path="url(#pf016daf30a)" style="fill: #dadce0; stroke: #ffffff; stroke-width: 0.377815"/>
    <path d="M 500.611633 89.558102 
C 501.729053 89.558102 502.800857 89.114146 503.590992 88.324011 
C 504.381128 87.533875 504.825083 86.462071 504.825083 85.344651 
C 504.825083 84.227231 504.381128 83.155427 503.590992 82.365292 
C 502.800857 81.575157 501.729053 81.131201 500.611633 81.131201 
C 499.494213 81.131201 498.422409 81.575157 497.632274 82.365292 
C 496.842138 83.155427 496.398183 84.227231 496.398183 85.344651 
C 496.398183 86.462071 496.842138 87.533875 497.632274 88.324011 
C 498.422409 89.114146 499.494213 89.558102 500.611633 89.558102 
z
" clip-path="url(#pf016daf30a)" style="fill: #b40426; stroke: #ffffff; stroke-width: 0.377815"/>
    <path d="M 400.90219 100.358882 
C 401.507277 100.358882 402.087663 100.118479 402.515524 99.690617 
C 402.943386 99.262756 403.183789 98.68237 403.183789 98.077283 
C 403.183789 97.472196 402.943386 96.89181 402.515524 96.463948 
C 402.087663 96.036087 401.507277 95.795683 400.90219 95.795683 
C 400.297103 95.795683 399.716717 96.036087 399.288855 96.463948 
C 398.860994 96.89181 398.62059 97.472196 398.62059 98.077283 
C 398.62059 98.68237 398.860994 99.262756 399.288855 99.690617 
C 399.716717 100.118479 400.297103 100.358882 400.90219 100.358882 
z
" clip-path="url(#pf016daf30a)" style="fill: #3b4cc0; stroke: #ffffff; stroke-width: 0.377815"/>
    <path d="M 364.896002 113.179954 
C 365.524544 113.179954 366.127427 112.930232 366.571873 112.485786 
C 367.01632 112.041339 367.266042 111.438456 367.266042 110.809914 
C 367.266042 110.181373 367.01632 109.57849 366.571873 109.134043 
C 366.127427 108.689597 365.524544 108.439875 364.896002 108.439875 
C 364.26746 108.439875 363.664577 108.689597 363.220131 109.134043 
C 362.775685 109.57849 362.525962 110.181373 362.525962 110.809914 
C 362.525962 111.438456 362.775685 112.041339 363.220131 112.485786 
C 363.664577 112.930232 364.26746 113.179954 364.896002 113.179954 
z
" clip-path="url(#pf016daf30a)" style="fill: #3c4ec2; stroke: #ffffff; stroke-width: 0.377815"/>
    <path d="M 313.656427 126.628857 
C 314.474926 126.628857 315.260012 126.303664 315.838779 125.724898 
C 316.417545 125.146131 316.742738 124.361045 316.742738 123.542546 
C 316.742738 122.724047 316.417545 121.938961 315.838779 121.360195 
C 315.260012 120.781428 314.474926 120.456235 313.656427 120.456235 
C 312.837928 120.456235 312.052842 120.781428 311.474076 121.360195 
C 310.895309 121.938961 310.570116 122.724047 310.570116 123.542546 
C 310.570116 124.361045 310.895309 125.146131 311.474076 125.724898 
C 312.052842 126.303664 312.837928 126.628857 313.656427 126.628857 
z
" clip-path="url(#pf016daf30a)" style="fill: #6788ee; stroke: #ffffff; stroke-width: 0.377815"/>
    <path d="M 310.376511 138.812868 
C 311.049515 138.812868 311.695044 138.545481 312.17093 138.069596 
C 312.646815 137.593711 312.914202 136.948181 312.914202 136.275178 
C 312.914202 135.602174 312.646815 134.956645 312.17093 134.480759 
C 311.695044 134.004874 311.049515 133.737487 310.376511 133.737487 
C 309.703508 133.737487 309.057978 134.004874 308.582093 134.480759 
C 308.106208 134.956645 307.838821 135.602174 307.838821 136.275178 
C 307.838821 136.948181 308.106208 137.593711 308.582093 138.069596 
C 309.057978 138.545481 309.703508 138.812868 310.376511 138.812868 
z
" clip-path="url(#pf016daf30a)" style="fill: #3d50c3; stroke: #ffffff; stroke-width: 0.377815"/>
    <path d="M 301.582237 152.026737 
C 302.382866 152.026737 303.150811 151.708644 303.716941 151.142513 
C 304.283071 150.576383 304.601164 149.808438 304.601164 149.007809 
C 304.601164 148.20718 304.283071 147.439235 303.716941 146.873105 
C 303.150811 146.306975 302.382866 145.988882 301.582237 145.988882 
C 300.781608 145.988882 300.013663 146.306975 299.447533 146.873105 
C 298.881402 147.439235 298.563309 148.20718 298.563309 149.007809 
C 298.563309 149.808438 298.881402 150.576383 299.447533 151.142513 
C 300.013663 151.708644 300.781608 152.026737 301.582237 152.026737 
z
" clip-path="url(#pf016daf30a)" style="fill: #5d7ce6; stroke: #ffffff; stroke-width: 0.377815"/>
    <path d="M 299.552789 164.957287 
C 300.405907 164.957287 301.224198 164.61834 301.827443 164.015095 
C 302.430688 163.411849 302.769635 162.593558 302.769635 161.740441 
C 302.769635 160.887323 302.430688 160.069032 301.827443 159.465787 
C 301.224198 158.862542 300.405907 158.523594 299.552789 158.523594 
C 298.699671 158.523594 297.88138 158.862542 297.278135 159.465787 
C 296.67489 160.069032 296.335942 160.887323 296.335942 161.740441 
C 296.335942 162.593558 296.67489 163.411849 297.278135 164.015095 
C 297.88138 164.61834 298.699671 164.957287 299.552789 164.957287 
z
" clip-path="url(#pf016daf30a)" style="fill: #6c8ff1; stroke: #ffffff; stroke-width: 0.377815"/>
    <path d="M 297.869099 177.129567 
C 298.573609 177.129567 299.24936 176.849662 299.747524 176.351498 
C 300.245688 175.853333 300.525593 175.177583 300.525593 174.473072 
C 300.525593 173.768562 300.245688 173.092811 299.747524 172.594647 
C 299.24936 172.096483 298.573609 171.816578 297.869099 171.816578 
C 297.164588 171.816578 296.488838 172.096483 295.990674 172.594647 
C 295.492509 173.092811 295.212604 173.768562 295.212604 174.473072 
C 295.212604 175.177583 295.492509 175.853333 295.990674 176.351498 
C 296.488838 176.849662 297.164588 177.129567 297.869099 177.129567 
z
" clip-path="url(#pf016daf30a)" style="fill: #4257c9; stroke: #ffffff; stroke-width: 0.377815"/>
    <path d="M 259.647146 191.815476 
C 260.869671 191.815476 262.04229 191.329761 262.906747 190.465305 
C 263.771203 189.600849 264.256918 188.42823 264.256918 187.205704 
C 264.256918 185.983178 263.771203 184.810559 262.906747 183.946103 
C 262.04229 183.081646 260.869671 182.595932 259.647146 182.595932 
C 258.42462 182.595932 257.252001 183.081646 256.387544 183.946103 
C 255.523088 184.810559 255.037373 185.983178 255.037373 187.205704 
C 255.037373 188.42823 255.523088 189.600849 256.387544 190.465305 
C 257.252001 191.329761 258.42462 191.815476 259.647146 191.815476 
z
" clip-path="url(#pf016daf30a)" style="fill: #d6dce4; stroke: #ffffff; stroke-width: 0.377815"/>
    <path d="M 259.047518 203.34161 
C 259.950077 203.34161 260.815791 202.98302 261.453997 202.344814 
C 262.092203 201.706609 262.450793 200.840895 262.450793 199.938336 
C 262.450793 199.035777 262.092203 198.170063 261.453997 197.531857 
C 260.815791 196.893651 259.950077 196.535061 259.047518 196.535061 
C 258.144959 196.535061 257.279245 196.893651 256.64104 197.531857 
C 256.002834 198.170063 255.644244 199.035777 255.644244 199.938336 
C 255.644244 200.840895 256.002834 201.706609 256.64104 202.344814 
C 257.279245 202.98302 258.144959 203.34161 259.047518 203.34161 
z
" clip-path="url(#pf016daf30a)" style="fill: #688aef; stroke: #ffffff; stroke-width: 0.377815"/>
    <path d="M 242.676008 217.768124 
C 244.02779 217.768124 245.324388 217.231056 246.280243 216.275202 
C 247.236097 215.319347 247.773165 214.022749 247.773165 212.670967 
C 247.773165 211.319185 247.236097 210.022587 246.280243 209.066733 
C 245.324388 208.110878 244.02779 207.57381 242.676008 207.57381 
C 241.324226 207.57381 240.027628 208.110878 239.071774 209.066733 
C 238.115919 210.022587 237.578851 211.319185 237.578851 212.670967 
C 237.578851 214.022749 238.115919 215.319347 239.071774 216.275202 
C 240.027628 217.231056 241.324226 217.768124 242.676008 217.768124 
z
" clip-path="url(#pf016daf30a)" style="fill: #ecd3c5; stroke: #ffffff; stroke-width: 0.377815"/>
    <path d="M 238.020668 228.388264 
C 238.812211 228.388264 239.57144 228.073781 240.131145 227.514076 
C 240.69085 226.954371 241.005334 226.195141 241.005334 225.403599 
C 241.005334 224.612056 240.69085 223.852827 240.131145 223.293122 
C 239.57144 222.733416 238.812211 222.418933 238.020668 222.418933 
C 237.229126 222.418933 236.469896 222.733416 235.910191 223.293122 
C 235.350486 223.852827 235.036003 224.612056 235.036003 225.403599 
C 235.036003 226.195141 235.350486 226.954371 235.910191 227.514076 
C 236.469896 228.073781 237.229126 228.388264 238.020668 228.388264 
z
" clip-path="url(#pf016daf30a)" style="fill: #445acc; stroke: #ffffff; stroke-width: 0.377815"/>
    <path d="M 228.53861 241.222541 
C 229.357109 241.222541 230.142195 240.897348 230.720962 240.318582 
C 231.299728 239.739815 231.624921 238.95473 231.624921 238.13623 
C 231.624921 237.317731 231.299728 236.532645 230.720962 235.953879 
C 230.142195 235.375112 229.357109 235.049919 228.53861 235.049919 
C 227.720111 235.049919 226.935025 235.375112 226.356258 235.953879 
C 225.777492 236.532645 225.452299 237.317731 225.452299 238.13623 
C 225.452299 238.95473 225.777492 239.739815 226.356258 240.318582 
C 226.935025 240.897348 227.720111 241.222541 228.53861 241.222541 
z
" clip-path="url(#pf016daf30a)" style="fill: #465ecf; stroke: #ffffff; stroke-width: 0.377815"/>
    <path d="M 227.589661 254.778441 
C 228.626494 254.778441 229.621 254.366503 230.354151 253.633352 
C 231.087303 252.900201 231.499241 251.905694 231.499241 250.868862 
C 231.499241 249.832029 231.087303 248.837523 230.354151 248.104372 
C 229.621 247.371221 228.626494 246.959283 227.589661 246.959283 
C 226.552829 246.959283 225.558323 247.371221 224.825171 248.104372 
C 224.09202 248.837523 223.680082 249.832029 223.680082 250.868862 
C 223.680082 251.905694 224.09202 252.900201 224.825171 253.633352 
C 225.558323 254.366503 226.552829 254.778441 227.589661 254.778441 
z
" clip-path="url(#pf016daf30a)" style="fill: #7a9df8; stroke: #ffffff; stroke-width: 0.377815"/>
    <path d="M 226.945586 268.364882 
C 228.208852 268.364882 229.420547 267.862982 230.313811 266.969718 
C 231.207075 266.076454 231.708975 264.864759 231.708975 263.601493 
C 231.708975 262.338228 231.207075 261.126532 230.313811 260.233269 
C 229.420547 259.340005 228.208852 258.838105 226.945586 258.838105 
C 225.682321 258.838105 224.470625 259.340005 223.577362 260.233269 
C 222.684098 261.126532 222.182198 262.338228 222.182198 263.601493 
C 222.182198 264.864759 222.684098 266.076454 223.577362 266.969718 
C 224.470625 267.862982 225.682321 268.364882 226.945586 268.364882 
z
" clip-path="url(#pf016daf30a)" style="fill: #c3d5f4; stroke: #ffffff; stroke-width: 0.377815"/>
    <path d="M 223.042102 282.457849 
C 224.666133 282.457849 226.223866 281.812615 227.372229 280.664252 
C 228.520592 279.515889 229.165827 277.958156 229.165827 276.334125 
C 229.165827 274.710094 228.520592 273.152361 227.372229 272.003998 
C 226.223866 270.855635 224.666133 270.210401 223.042102 270.210401 
C 221.418072 270.210401 219.860338 270.855635 218.711975 272.003998 
C 217.563612 273.152361 216.918378 274.710094 216.918378 276.334125 
C 216.918378 277.958156 217.563612 279.515889 218.711975 280.664252 
C 219.860338 281.812615 221.418072 282.457849 223.042102 282.457849 
z
" clip-path="url(#pf016daf30a)" style="fill: #ec7f63; stroke: #ffffff; stroke-width: 0.377815"/>
   </g>
   <g id="matplotlib.axis_1">
    <g id="xtick_1">
     <g id="line2d_1">
      <defs>
       <path id="m6277cd46a3" d="M 0 0 
L 0 3.5 
" style="stroke: #000000; stroke-width: 0.8"/>
      </defs>
      <g>
       <use xlink:href="#m6277cd46a3" x="242.678321" y="288.430125" style="stroke: #000000; stroke-width: 0.8"/>
      </g>
     </g>
     <g id="text_1">
      <!-- 2.5 -->
      <g transform="translate(234.726759 303.028562) scale(0.1 -0.1)">
       <defs>
        <path id="DejaVuSans-32" d="M 1228 531 
L 3431 531 
L 3431 0 
L 469 0 
L 469 531 
Q 828 903 1448 1529 
Q 2069 2156 2228 2338 
Q 2531 2678 2651 2914 
Q 2772 3150 2772 3378 
Q 2772 3750 2511 3984 
Q 2250 4219 1831 4219 
Q 1534 4219 1204 4116 
Q 875 4013 500 3803 
L 500 4441 
Q 881 4594 1212 4672 
Q 1544 4750 1819 4750 
Q 2544 4750 2975 4387 
Q 3406 4025 3406 3419 
Q 3406 3131 3298 2873 
Q 3191 2616 2906 2266 
Q 2828 2175 2409 1742 
Q 1991 1309 1228 531 
z
" transform="scale(0.015625)"/>
        <path id="DejaVuSans-2e" d="M 684 794 
L 1344 794 
L 1344 0 
L 684 0 
L 684 794 
z
" transform="scale(0.015625)"/>
        <path id="DejaVuSans-35" d="M 691 4666 
L 3169 4666 
L 3169 4134 
L 1269 4134 
L 1269 2991 
Q 1406 3038 1543 3061 
Q 1681 3084 1819 3084 
Q 2600 3084 3056 2656 
Q 3513 2228 3513 1497 
Q 3513 744 3044 326 
Q 2575 -91 1722 -91 
Q 1428 -91 1123 -41 
Q 819 9 494 109 
L 494 744 
Q 775 591 1075 516 
Q 1375 441 1709 441 
Q 2250 441 2565 725 
Q 2881 1009 2881 1497 
Q 2881 1984 2565 2268 
Q 2250 2553 1709 2553 
Q 1456 2553 1204 2497 
Q 953 2441 691 2322 
L 691 4666 
z
" transform="scale(0.015625)"/>
       </defs>
       <use xlink:href="#DejaVuSans-32"/>
       <use xlink:href="#DejaVuSans-2e" transform="translate(63.623047 0)"/>
       <use xlink:href="#DejaVuSans-35" transform="translate(95.410156 0)"/>
      </g>
     </g>
    </g>
    <g id="xtick_2">
     <g id="line2d_2">
      <g>
       <use xlink:href="#m6277cd46a3" x="315.728463" y="288.430125" style="stroke: #000000; stroke-width: 0.8"/>
      </g>
     </g>
     <g id="text_2">
      <!-- 3.0 -->
      <g transform="translate(307.7769 303.028562) scale(0.1 -0.1)">
       <defs>
        <path id="DejaVuSans-33" d="M 2597 2516 
Q 3050 2419 3304 2112 
Q 3559 1806 3559 1356 
Q 3559 666 3084 287 
Q 2609 -91 1734 -91 
Q 1441 -91 1130 -33 
Q 819 25 488 141 
L 488 750 
Q 750 597 1062 519 
Q 1375 441 1716 441 
Q 2309 441 2620 675 
Q 2931 909 2931 1356 
Q 2931 1769 2642 2001 
Q 2353 2234 1838 2234 
L 1294 2234 
L 1294 2753 
L 1863 2753 
Q 2328 2753 2575 2939 
Q 2822 3125 2822 3475 
Q 2822 3834 2567 4026 
Q 2313 4219 1838 4219 
Q 1578 4219 1281 4162 
Q 984 4106 628 3988 
L 628 4550 
Q 988 4650 1302 4700 
Q 1616 4750 1894 4750 
Q 2613 4750 3031 4423 
Q 3450 4097 3450 3541 
Q 3450 3153 3228 2886 
Q 3006 2619 2597 2516 
z
" transform="scale(0.015625)"/>
        <path id="DejaVuSans-30" d="M 2034 4250 
Q 1547 4250 1301 3770 
Q 1056 3291 1056 2328 
Q 1056 1369 1301 889 
Q 1547 409 2034 409 
Q 2525 409 2770 889 
Q 3016 1369 3016 2328 
Q 3016 3291 2770 3770 
Q 2525 4250 2034 4250 
z
M 2034 4750 
Q 2819 4750 3233 4129 
Q 3647 3509 3647 2328 
Q 3647 1150 3233 529 
Q 2819 -91 2034 -91 
Q 1250 -91 836 529 
Q 422 1150 422 2328 
Q 422 3509 836 4129 
Q 1250 4750 2034 4750 
z
" transform="scale(0.015625)"/>
       </defs>
       <use xlink:href="#DejaVuSans-33"/>
       <use xlink:href="#DejaVuSans-2e" transform="translate(63.623047 0)"/>
       <use xlink:href="#DejaVuSans-30" transform="translate(95.410156 0)"/>
      </g>
     </g>
    </g>
    <g id="xtick_3">
     <g id="line2d_3">
      <g>
       <use xlink:href="#m6277cd46a3" x="388.778604" y="288.430125" style="stroke: #000000; stroke-width: 0.8"/>
      </g>
     </g>
     <g id="text_3">
      <!-- 3.5 -->
      <g transform="translate(380.827042 303.028562) scale(0.1 -0.1)">
       <use xlink:href="#DejaVuSans-33"/>
       <use xlink:href="#DejaVuSans-2e" transform="translate(63.623047 0)"/>
       <use xlink:href="#DejaVuSans-35" transform="translate(95.410156 0)"/>
      </g>
     </g>
    </g>
    <g id="xtick_4">
     <g id="line2d_4">
      <g>
       <use xlink:href="#m6277cd46a3" x="461.828746" y="288.430125" style="stroke: #000000; stroke-width: 0.8"/>
      </g>
     </g>
     <g id="text_4">
      <!-- 4.0 -->
      <g transform="translate(453.877183 303.028562) scale(0.1 -0.1)">
       <defs>
        <path id="DejaVuSans-34" d="M 2419 4116 
L 825 1625 
L 2419 1625 
L 2419 4116 
z
M 2253 4666 
L 3047 4666 
L 3047 1625 
L 3713 1625 
L 3713 1100 
L 3047 1100 
L 3047 0 
L 2419 0 
L 2419 1100 
L 313 1100 
L 313 1709 
L 2253 4666 
z
" transform="scale(0.015625)"/>
       </defs>
       <use xlink:href="#DejaVuSans-34"/>
       <use xlink:href="#DejaVuSans-2e" transform="translate(63.623047 0)"/>
       <use xlink:href="#DejaVuSans-30" transform="translate(95.410156 0)"/>
      </g>
     </g>
    </g>
    <g id="xtick_5">
     <g id="line2d_5">
      <g>
       <use xlink:href="#m6277cd46a3" x="534.878887" y="288.430125" style="stroke: #000000; stroke-width: 0.8"/>
      </g>
     </g>
     <g id="text_5">
      <!-- 4.5 -->
      <g transform="translate(526.927325 303.028562) scale(0.1 -0.1)">
       <use xlink:href="#DejaVuSans-34"/>
       <use xlink:href="#DejaVuSans-2e" transform="translate(63.623047 0)"/>
       <use xlink:href="#DejaVuSans-35" transform="translate(95.410156 0)"/>
      </g>
     </g>
    </g>
    <g id="text_6">
     <!-- Fold Enrichment -->
     <g transform="translate(344.696719 316.706687) scale(0.1 -0.1)">
      <defs>
       <path id="DejaVuSans-46" d="M 628 4666 
L 3309 4666 
L 3309 4134 
L 1259 4134 
L 1259 2759 
L 3109 2759 
L 3109 2228 
L 1259 2228 
L 1259 0 
L 628 0 
L 628 4666 
z
" transform="scale(0.015625)"/>
       <path id="DejaVuSans-6f" d="M 1959 3097 
Q 1497 3097 1228 2736 
Q 959 2375 959 1747 
Q 959 1119 1226 758 
Q 1494 397 1959 397 
Q 2419 397 2687 759 
Q 2956 1122 2956 1747 
Q 2956 2369 2687 2733 
Q 2419 3097 1959 3097 
z
M 1959 3584 
Q 2709 3584 3137 3096 
Q 3566 2609 3566 1747 
Q 3566 888 3137 398 
Q 2709 -91 1959 -91 
Q 1206 -91 779 398 
Q 353 888 353 1747 
Q 353 2609 779 3096 
Q 1206 3584 1959 3584 
z
" transform="scale(0.015625)"/>
       <path id="DejaVuSans-6c" d="M 603 4863 
L 1178 4863 
L 1178 0 
L 603 0 
L 603 4863 
z
" transform="scale(0.015625)"/>
       <path id="DejaVuSans-64" d="M 2906 2969 
L 2906 4863 
L 3481 4863 
L 3481 0 
L 2906 0 
L 2906 525 
Q 2725 213 2448 61 
Q 2172 -91 1784 -91 
Q 1150 -91 751 415 
Q 353 922 353 1747 
Q 353 2572 751 3078 
Q 1150 3584 1784 3584 
Q 2172 3584 2448 3432 
Q 2725 3281 2906 2969 
z
M 947 1747 
Q 947 1113 1208 752 
Q 1469 391 1925 391 
Q 2381 391 2643 752 
Q 2906 1113 2906 1747 
Q 2906 2381 2643 2742 
Q 2381 3103 1925 3103 
Q 1469 3103 1208 2742 
Q 947 2381 947 1747 
z
" transform="scale(0.015625)"/>
       <path id="DejaVuSans-20" transform="scale(0.015625)"/>
       <path id="DejaVuSans-45" d="M 628 4666 
L 3578 4666 
L 3578 4134 
L 1259 4134 
L 1259 2753 
L 3481 2753 
L 3481 2222 
L 1259 2222 
L 1259 531 
L 3634 531 
L 3634 0 
L 628 0 
L 628 4666 
z
" transform="scale(0.015625)"/>
       <path id="DejaVuSans-6e" d="M 3513 2113 
L 3513 0 
L 2938 0 
L 2938 2094 
Q 2938 2591 2744 2837 
Q 2550 3084 2163 3084 
Q 1697 3084 1428 2787 
Q 1159 2491 1159 1978 
L 1159 0 
L 581 0 
L 581 3500 
L 1159 3500 
L 1159 2956 
Q 1366 3272 1645 3428 
Q 1925 3584 2291 3584 
Q 2894 3584 3203 3211 
Q 3513 2838 3513 2113 
z
" transform="scale(0.015625)"/>
       <path id="DejaVuSans-72" d="M 2631 2963 
Q 2534 3019 2420 3045 
Q 2306 3072 2169 3072 
Q 1681 3072 1420 2755 
Q 1159 2438 1159 1844 
L 1159 0 
L 581 0 
L 581 3500 
L 1159 3500 
L 1159 2956 
Q 1341 3275 1631 3429 
Q 1922 3584 2338 3584 
Q 2397 3584 2469 3576 
Q 2541 3569 2628 3553 
L 2631 2963 
z
" transform="scale(0.015625)"/>
       <path id="DejaVuSans-69" d="M 603 3500 
L 1178 3500 
L 1178 0 
L 603 0 
L 603 3500 
z
M 603 4863 
L 1178 4863 
L 1178 4134 
L 603 4134 
L 603 4863 
z
" transform="scale(0.015625)"/>
       <path id="DejaVuSans-63" d="M 3122 3366 
L 3122 2828 
Q 2878 2963 2633 3030 
Q 2388 3097 2138 3097 
Q 1578 3097 1268 2742 
Q 959 2388 959 1747 
Q 959 1106 1268 751 
Q 1578 397 2138 397 
Q 2388 397 2633 464 
Q 2878 531 3122 666 
L 3122 134 
Q 2881 22 2623 -34 
Q 2366 -91 2075 -91 
Q 1284 -91 818 406 
Q 353 903 353 1747 
Q 353 2603 823 3093 
Q 1294 3584 2113 3584 
Q 2378 3584 2631 3529 
Q 2884 3475 3122 3366 
z
" transform="scale(0.015625)"/>
       <path id="DejaVuSans-68" d="M 3513 2113 
L 3513 0 
L 2938 0 
L 2938 2094 
Q 2938 2591 2744 2837 
Q 2550 3084 2163 3084 
Q 1697 3084 1428 2787 
Q 1159 2491 1159 1978 
L 1159 0 
L 581 0 
L 581 4863 
L 1159 4863 
L 1159 2956 
Q 1366 3272 1645 3428 
Q 1925 3584 2291 3584 
Q 2894 3584 3203 3211 
Q 3513 2838 3513 2113 
z
" transform="scale(0.015625)"/>
       <path id="DejaVuSans-6d" d="M 3328 2828 
Q 3544 3216 3844 3400 
Q 4144 3584 4550 3584 
Q 5097 3584 5394 3201 
Q 5691 2819 5691 2113 
L 5691 0 
L 5113 0 
L 5113 2094 
Q 5113 2597 4934 2840 
Q 4756 3084 4391 3084 
Q 3944 3084 3684 2787 
Q 3425 2491 3425 1978 
L 3425 0 
L 2847 0 
L 2847 2094 
Q 2847 2600 2669 2842 
Q 2491 3084 2119 3084 
Q 1678 3084 1418 2786 
Q 1159 2488 1159 1978 
L 1159 0 
L 581 0 
L 581 3500 
L 1159 3500 
L 1159 2956 
Q 1356 3278 1631 3431 
Q 1906 3584 2284 3584 
Q 2666 3584 2933 3390 
Q 3200 3197 3328 2828 
z
" transform="scale(0.015625)"/>
       <path id="DejaVuSans-65" d="M 3597 1894 
L 3597 1613 
L 953 1613 
Q 991 1019 1311 708 
Q 1631 397 2203 397 
Q 2534 397 2845 478 
Q 3156 559 3463 722 
L 3463 178 
Q 3153 47 2828 -22 
Q 2503 -91 2169 -91 
Q 1331 -91 842 396 
Q 353 884 353 1716 
Q 353 2575 817 3079 
Q 1281 3584 2069 3584 
Q 2775 3584 3186 3129 
Q 3597 2675 3597 1894 
z
M 3022 2063 
Q 3016 2534 2758 2815 
Q 2500 3097 2075 3097 
Q 1594 3097 1305 2825 
Q 1016 2553 972 2059 
L 3022 2063 
z
" transform="scale(0.015625)"/>
       <path id="DejaVuSans-74" d="M 1172 4494 
L 1172 3500 
L 2356 3500 
L 2356 3053 
L 1172 3053 
L 1172 1153 
Q 1172 725 1289 603 
Q 1406 481 1766 481 
L 2356 481 
L 2356 0 
L 1766 0 
Q 1100 0 847 248 
Q 594 497 594 1153 
L 594 3053 
L 172 3053 
L 172 3500 
L 594 3500 
L 594 4494 
L 1172 4494 
z
" transform="scale(0.015625)"/>
      </defs>
      <use xlink:href="#DejaVuSans-46"/>
      <use xlink:href="#DejaVuSans-6f" transform="translate(53.894531 0)"/>
      <use xlink:href="#DejaVuSans-6c" transform="translate(115.076172 0)"/>
      <use xlink:href="#DejaVuSans-64" transform="translate(142.859375 0)"/>
      <use xlink:href="#DejaVuSans-20" transform="translate(206.335938 0)"/>
      <use xlink:href="#DejaVuSans-45" transform="translate(238.123047 0)"/>
      <use xlink:href="#DejaVuSans-6e" transform="translate(301.306641 0)"/>
      <use xlink:href="#DejaVuSans-72" transform="translate(364.685547 0)"/>
      <use xlink:href="#DejaVuSans-69" transform="translate(405.798828 0)"/>
      <use xlink:href="#DejaVuSans-63" transform="translate(433.582031 0)"/>
      <use xlink:href="#DejaVuSans-68" transform="translate(488.5625 0)"/>
      <use xlink:href="#DejaVuSans-6d" transform="translate(551.941406 0)"/>
      <use xlink:href="#DejaVuSans-65" transform="translate(649.353516 0)"/>
      <use xlink:href="#DejaVuSans-6e" transform="translate(710.876953 0)"/>
      <use xlink:href="#DejaVuSans-74" transform="translate(774.255859 0)"/>
     </g>
    </g>
   </g>
   <g id="matplotlib.axis_2">
    <g id="ytick_1">
     <g id="line2d_6">
      <defs>
       <path id="m926cb4eced" d="M 0 0 
L -3.5 0 
" style="stroke: #000000; stroke-width: 0.8"/>
      </defs>
      <g>
       <use xlink:href="#m926cb4eced" x="206.809375" y="34.414125" style="stroke: #000000; stroke-width: 0.8"/>
      </g>
     </g>
     <g id="text_7">
      <!-- small ribosomal subunit -->
      <g transform="translate(80.21875 38.213344) scale(0.1 -0.1)">
       <defs>
        <path id="DejaVuSans-73" d="M 2834 3397 
L 2834 2853 
Q 2591 2978 2328 3040 
Q 2066 3103 1784 3103 
Q 1356 3103 1142 2972 
Q 928 2841 928 2578 
Q 928 2378 1081 2264 
Q 1234 2150 1697 2047 
L 1894 2003 
Q 2506 1872 2764 1633 
Q 3022 1394 3022 966 
Q 3022 478 2636 193 
Q 2250 -91 1575 -91 
Q 1294 -91 989 -36 
Q 684 19 347 128 
L 347 722 
Q 666 556 975 473 
Q 1284 391 1588 391 
Q 1994 391 2212 530 
Q 2431 669 2431 922 
Q 2431 1156 2273 1281 
Q 2116 1406 1581 1522 
L 1381 1569 
Q 847 1681 609 1914 
Q 372 2147 372 2553 
Q 372 3047 722 3315 
Q 1072 3584 1716 3584 
Q 2034 3584 2315 3537 
Q 2597 3491 2834 3397 
z
" transform="scale(0.015625)"/>
        <path id="DejaVuSans-61" d="M 2194 1759 
Q 1497 1759 1228 1600 
Q 959 1441 959 1056 
Q 959 750 1161 570 
Q 1363 391 1709 391 
Q 2188 391 2477 730 
Q 2766 1069 2766 1631 
L 2766 1759 
L 2194 1759 
z
M 3341 1997 
L 3341 0 
L 2766 0 
L 2766 531 
Q 2569 213 2275 61 
Q 1981 -91 1556 -91 
Q 1019 -91 701 211 
Q 384 513 384 1019 
Q 384 1609 779 1909 
Q 1175 2209 1959 2209 
L 2766 2209 
L 2766 2266 
Q 2766 2663 2505 2880 
Q 2244 3097 1772 3097 
Q 1472 3097 1187 3025 
Q 903 2953 641 2809 
L 641 3341 
Q 956 3463 1253 3523 
Q 1550 3584 1831 3584 
Q 2591 3584 2966 3190 
Q 3341 2797 3341 1997 
z
" transform="scale(0.015625)"/>
        <path id="DejaVuSans-62" d="M 3116 1747 
Q 3116 2381 2855 2742 
Q 2594 3103 2138 3103 
Q 1681 3103 1420 2742 
Q 1159 2381 1159 1747 
Q 1159 1113 1420 752 
Q 1681 391 2138 391 
Q 2594 391 2855 752 
Q 3116 1113 3116 1747 
z
M 1159 2969 
Q 1341 3281 1617 3432 
Q 1894 3584 2278 3584 
Q 2916 3584 3314 3078 
Q 3713 2572 3713 1747 
Q 3713 922 3314 415 
Q 2916 -91 2278 -91 
Q 1894 -91 1617 61 
Q 1341 213 1159 525 
L 1159 0 
L 581 0 
L 581 4863 
L 1159 4863 
L 1159 2969 
z
" transform="scale(0.015625)"/>
        <path id="DejaVuSans-75" d="M 544 1381 
L 544 3500 
L 1119 3500 
L 1119 1403 
Q 1119 906 1312 657 
Q 1506 409 1894 409 
Q 2359 409 2629 706 
Q 2900 1003 2900 1516 
L 2900 3500 
L 3475 3500 
L 3475 0 
L 2900 0 
L 2900 538 
Q 2691 219 2414 64 
Q 2138 -91 1772 -91 
Q 1169 -91 856 284 
Q 544 659 544 1381 
z
M 1991 3584 
L 1991 3584 
z
" transform="scale(0.015625)"/>
       </defs>
       <use xlink:href="#DejaVuSans-73"/>
       <use xlink:href="#DejaVuSans-6d" transform="translate(52.099609 0)"/>
       <use xlink:href="#DejaVuSans-61" transform="translate(149.511719 0)"/>
       <use xlink:href="#DejaVuSans-6c" transform="translate(210.791016 0)"/>
       <use xlink:href="#DejaVuSans-6c" transform="translate(238.574219 0)"/>
       <use xlink:href="#DejaVuSans-20" transform="translate(266.357422 0)"/>
       <use xlink:href="#DejaVuSans-72" transform="translate(298.144531 0)"/>
       <use xlink:href="#DejaVuSans-69" transform="translate(339.257812 0)"/>
       <use xlink:href="#DejaVuSans-62" transform="translate(367.041016 0)"/>
       <use xlink:href="#DejaVuSans-6f" transform="translate(430.517578 0)"/>
       <use xlink:href="#DejaVuSans-73" transform="translate(491.699219 0)"/>
       <use xlink:href="#DejaVuSans-6f" transform="translate(543.798828 0)"/>
       <use xlink:href="#DejaVuSans-6d" transform="translate(604.980469 0)"/>
       <use xlink:href="#DejaVuSans-61" transform="translate(702.392578 0)"/>
       <use xlink:href="#DejaVuSans-6c" transform="translate(763.671875 0)"/>
       <use xlink:href="#DejaVuSans-20" transform="translate(791.455078 0)"/>
       <use xlink:href="#DejaVuSans-73" transform="translate(823.242188 0)"/>
       <use xlink:href="#DejaVuSans-75" transform="translate(875.341797 0)"/>
       <use xlink:href="#DejaVuSans-62" transform="translate(938.720703 0)"/>
       <use xlink:href="#DejaVuSans-75" transform="translate(1002.197266 0)"/>
       <use xlink:href="#DejaVuSans-6e" transform="translate(1065.576172 0)"/>
       <use xlink:href="#DejaVuSans-69" transform="translate(1128.955078 0)"/>
       <use xlink:href="#DejaVuSans-74" transform="translate(1156.738281 0)"/>
      </g>
     </g>
    </g>
    <g id="ytick_2">
     <g id="line2d_7">
      <g>
       <use xlink:href="#m926cb4eced" x="206.809375" y="47.146757" style="stroke: #000000; stroke-width: 0.8"/>
      </g>
     </g>
     <g id="text_8">
      <!-- RISC complex -->
      <g transform="translate(131.020312 50.945975) scale(0.1 -0.1)">
       <defs>
        <path id="DejaVuSans-52" d="M 2841 2188 
Q 3044 2119 3236 1894 
Q 3428 1669 3622 1275 
L 4263 0 
L 3584 0 
L 2988 1197 
Q 2756 1666 2539 1819 
Q 2322 1972 1947 1972 
L 1259 1972 
L 1259 0 
L 628 0 
L 628 4666 
L 2053 4666 
Q 2853 4666 3247 4331 
Q 3641 3997 3641 3322 
Q 3641 2881 3436 2590 
Q 3231 2300 2841 2188 
z
M 1259 4147 
L 1259 2491 
L 2053 2491 
Q 2509 2491 2742 2702 
Q 2975 2913 2975 3322 
Q 2975 3731 2742 3939 
Q 2509 4147 2053 4147 
L 1259 4147 
z
" transform="scale(0.015625)"/>
        <path id="DejaVuSans-49" d="M 628 4666 
L 1259 4666 
L 1259 0 
L 628 0 
L 628 4666 
z
" transform="scale(0.015625)"/>
        <path id="DejaVuSans-53" d="M 3425 4513 
L 3425 3897 
Q 3066 4069 2747 4153 
Q 2428 4238 2131 4238 
Q 1616 4238 1336 4038 
Q 1056 3838 1056 3469 
Q 1056 3159 1242 3001 
Q 1428 2844 1947 2747 
L 2328 2669 
Q 3034 2534 3370 2195 
Q 3706 1856 3706 1288 
Q 3706 609 3251 259 
Q 2797 -91 1919 -91 
Q 1588 -91 1214 -16 
Q 841 59 441 206 
L 441 856 
Q 825 641 1194 531 
Q 1563 422 1919 422 
Q 2459 422 2753 634 
Q 3047 847 3047 1241 
Q 3047 1584 2836 1778 
Q 2625 1972 2144 2069 
L 1759 2144 
Q 1053 2284 737 2584 
Q 422 2884 422 3419 
Q 422 4038 858 4394 
Q 1294 4750 2059 4750 
Q 2388 4750 2728 4690 
Q 3069 4631 3425 4513 
z
" transform="scale(0.015625)"/>
        <path id="DejaVuSans-43" d="M 4122 4306 
L 4122 3641 
Q 3803 3938 3442 4084 
Q 3081 4231 2675 4231 
Q 1875 4231 1450 3742 
Q 1025 3253 1025 2328 
Q 1025 1406 1450 917 
Q 1875 428 2675 428 
Q 3081 428 3442 575 
Q 3803 722 4122 1019 
L 4122 359 
Q 3791 134 3420 21 
Q 3050 -91 2638 -91 
Q 1578 -91 968 557 
Q 359 1206 359 2328 
Q 359 3453 968 4101 
Q 1578 4750 2638 4750 
Q 3056 4750 3426 4639 
Q 3797 4528 4122 4306 
z
" transform="scale(0.015625)"/>
        <path id="DejaVuSans-70" d="M 1159 525 
L 1159 -1331 
L 581 -1331 
L 581 3500 
L 1159 3500 
L 1159 2969 
Q 1341 3281 1617 3432 
Q 1894 3584 2278 3584 
Q 2916 3584 3314 3078 
Q 3713 2572 3713 1747 
Q 3713 922 3314 415 
Q 2916 -91 2278 -91 
Q 1894 -91 1617 61 
Q 1341 213 1159 525 
z
M 3116 1747 
Q 3116 2381 2855 2742 
Q 2594 3103 2138 3103 
Q 1681 3103 1420 2742 
Q 1159 2381 1159 1747 
Q 1159 1113 1420 752 
Q 1681 391 2138 391 
Q 2594 391 2855 752 
Q 3116 1113 3116 1747 
z
" transform="scale(0.015625)"/>
        <path id="DejaVuSans-78" d="M 3513 3500 
L 2247 1797 
L 3578 0 
L 2900 0 
L 1881 1375 
L 863 0 
L 184 0 
L 1544 1831 
L 300 3500 
L 978 3500 
L 1906 2253 
L 2834 3500 
L 3513 3500 
z
" transform="scale(0.015625)"/>
       </defs>
       <use xlink:href="#DejaVuSans-52"/>
       <use xlink:href="#DejaVuSans-49" transform="translate(69.482422 0)"/>
       <use xlink:href="#DejaVuSans-53" transform="translate(98.974609 0)"/>
       <use xlink:href="#DejaVuSans-43" transform="translate(162.451172 0)"/>
       <use xlink:href="#DejaVuSans-20" transform="translate(232.275391 0)"/>
       <use xlink:href="#DejaVuSans-63" transform="translate(264.0625 0)"/>
       <use xlink:href="#DejaVuSans-6f" transform="translate(319.042969 0)"/>
       <use xlink:href="#DejaVuSans-6d" transform="translate(380.224609 0)"/>
       <use xlink:href="#DejaVuSans-70" transform="translate(477.636719 0)"/>
       <use xlink:href="#DejaVuSans-6c" transform="translate(541.113281 0)"/>
       <use xlink:href="#DejaVuSans-65" transform="translate(568.896484 0)"/>
       <use xlink:href="#DejaVuSans-78" transform="translate(628.669922 0)"/>
      </g>
     </g>
    </g>
    <g id="ytick_3">
     <g id="line2d_8">
      <g>
       <use xlink:href="#m926cb4eced" x="206.809375" y="59.879388" style="stroke: #000000; stroke-width: 0.8"/>
      </g>
     </g>
     <g id="text_9">
      <!-- cytosolic small ribosomal subunit -->
      <g transform="translate(33.201562 63.678607) scale(0.1 -0.1)">
       <defs>
        <path id="DejaVuSans-79" d="M 2059 -325 
Q 1816 -950 1584 -1140 
Q 1353 -1331 966 -1331 
L 506 -1331 
L 506 -850 
L 844 -850 
Q 1081 -850 1212 -737 
Q 1344 -625 1503 -206 
L 1606 56 
L 191 3500 
L 800 3500 
L 1894 763 
L 2988 3500 
L 3597 3500 
L 2059 -325 
z
" transform="scale(0.015625)"/>
       </defs>
       <use xlink:href="#DejaVuSans-63"/>
       <use xlink:href="#DejaVuSans-79" transform="translate(54.980469 0)"/>
       <use xlink:href="#DejaVuSans-74" transform="translate(114.160156 0)"/>
       <use xlink:href="#DejaVuSans-6f" transform="translate(153.369141 0)"/>
       <use xlink:href="#DejaVuSans-73" transform="translate(214.550781 0)"/>
       <use xlink:href="#DejaVuSans-6f" transform="translate(266.650391 0)"/>
       <use xlink:href="#DejaVuSans-6c" transform="translate(327.832031 0)"/>
       <use xlink:href="#DejaVuSans-69" transform="translate(355.615234 0)"/>
       <use xlink:href="#DejaVuSans-63" transform="translate(383.398438 0)"/>
       <use xlink:href="#DejaVuSans-20" transform="translate(438.378906 0)"/>
       <use xlink:href="#DejaVuSans-73" transform="translate(470.166016 0)"/>
       <use xlink:href="#DejaVuSans-6d" transform="translate(522.265625 0)"/>
       <use xlink:href="#DejaVuSans-61" transform="translate(619.677734 0)"/>
       <use xlink:href="#DejaVuSans-6c" transform="translate(680.957031 0)"/>
       <use xlink:href="#DejaVuSans-6c" transform="translate(708.740234 0)"/>
       <use xlink:href="#DejaVuSans-20" transform="translate(736.523438 0)"/>
       <use xlink:href="#DejaVuSans-72" transform="translate(768.310547 0)"/>
       <use xlink:href="#DejaVuSans-69" transform="translate(809.423828 0)"/>
       <use xlink:href="#DejaVuSans-62" transform="translate(837.207031 0)"/>
       <use xlink:href="#DejaVuSans-6f" transform="translate(900.683594 0)"/>
       <use xlink:href="#DejaVuSans-73" transform="translate(961.865234 0)"/>
       <use xlink:href="#DejaVuSans-6f" transform="translate(1013.964844 0)"/>
       <use xlink:href="#DejaVuSans-6d" transform="translate(1075.146484 0)"/>
       <use xlink:href="#DejaVuSans-61" transform="translate(1172.558594 0)"/>
       <use xlink:href="#DejaVuSans-6c" transform="translate(1233.837891 0)"/>
       <use xlink:href="#DejaVuSans-20" transform="translate(1261.621094 0)"/>
       <use xlink:href="#DejaVuSans-73" transform="translate(1293.408203 0)"/>
       <use xlink:href="#DejaVuSans-75" transform="translate(1345.507812 0)"/>
       <use xlink:href="#DejaVuSans-62" transform="translate(1408.886719 0)"/>
       <use xlink:href="#DejaVuSans-75" transform="translate(1472.363281 0)"/>
       <use xlink:href="#DejaVuSans-6e" transform="translate(1535.742188 0)"/>
       <use xlink:href="#DejaVuSans-69" transform="translate(1599.121094 0)"/>
       <use xlink:href="#DejaVuSans-74" transform="translate(1626.904297 0)"/>
      </g>
     </g>
    </g>
    <g id="ytick_4">
     <g id="line2d_9">
      <g>
       <use xlink:href="#m926cb4eced" x="206.809375" y="72.61202" style="stroke: #000000; stroke-width: 0.8"/>
      </g>
     </g>
     <g id="text_10">
      <!-- cytosolic large ribosomal subunit -->
      <g transform="translate(34.492187 76.411238) scale(0.1 -0.1)">
       <defs>
        <path id="DejaVuSans-67" d="M 2906 1791 
Q 2906 2416 2648 2759 
Q 2391 3103 1925 3103 
Q 1463 3103 1205 2759 
Q 947 2416 947 1791 
Q 947 1169 1205 825 
Q 1463 481 1925 481 
Q 2391 481 2648 825 
Q 2906 1169 2906 1791 
z
M 3481 434 
Q 3481 -459 3084 -895 
Q 2688 -1331 1869 -1331 
Q 1566 -1331 1297 -1286 
Q 1028 -1241 775 -1147 
L 775 -588 
Q 1028 -725 1275 -790 
Q 1522 -856 1778 -856 
Q 2344 -856 2625 -561 
Q 2906 -266 2906 331 
L 2906 616 
Q 2728 306 2450 153 
Q 2172 0 1784 0 
Q 1141 0 747 490 
Q 353 981 353 1791 
Q 353 2603 747 3093 
Q 1141 3584 1784 3584 
Q 2172 3584 2450 3431 
Q 2728 3278 2906 2969 
L 2906 3500 
L 3481 3500 
L 3481 434 
z
" transform="scale(0.015625)"/>
       </defs>
       <use xlink:href="#DejaVuSans-63"/>
       <use xlink:href="#DejaVuSans-79" transform="translate(54.980469 0)"/>
       <use xlink:href="#DejaVuSans-74" transform="translate(114.160156 0)"/>
       <use xlink:href="#DejaVuSans-6f" transform="translate(153.369141 0)"/>
       <use xlink:href="#DejaVuSans-73" transform="translate(214.550781 0)"/>
       <use xlink:href="#DejaVuSans-6f" transform="translate(266.650391 0)"/>
       <use xlink:href="#DejaVuSans-6c" transform="translate(327.832031 0)"/>
       <use xlink:href="#DejaVuSans-69" transform="translate(355.615234 0)"/>
       <use xlink:href="#DejaVuSans-63" transform="translate(383.398438 0)"/>
       <use xlink:href="#DejaVuSans-20" transform="translate(438.378906 0)"/>
       <use xlink:href="#DejaVuSans-6c" transform="translate(470.166016 0)"/>
       <use xlink:href="#DejaVuSans-61" transform="translate(497.949219 0)"/>
       <use xlink:href="#DejaVuSans-72" transform="translate(559.228516 0)"/>
       <use xlink:href="#DejaVuSans-67" transform="translate(598.591797 0)"/>
       <use xlink:href="#DejaVuSans-65" transform="translate(662.068359 0)"/>
       <use xlink:href="#DejaVuSans-20" transform="translate(723.591797 0)"/>
       <use xlink:href="#DejaVuSans-72" transform="translate(755.378906 0)"/>
       <use xlink:href="#DejaVuSans-69" transform="translate(796.492188 0)"/>
       <use xlink:href="#DejaVuSans-62" transform="translate(824.275391 0)"/>
       <use xlink:href="#DejaVuSans-6f" transform="translate(887.751953 0)"/>
       <use xlink:href="#DejaVuSans-73" transform="translate(948.933594 0)"/>
       <use xlink:href="#DejaVuSans-6f" transform="translate(1001.033203 0)"/>
       <use xlink:href="#DejaVuSans-6d" transform="translate(1062.214844 0)"/>
       <use xlink:href="#DejaVuSans-61" transform="translate(1159.626953 0)"/>
       <use xlink:href="#DejaVuSans-6c" transform="translate(1220.90625 0)"/>
       <use xlink:href="#DejaVuSans-20" transform="translate(1248.689453 0)"/>
       <use xlink:href="#DejaVuSans-73" transform="translate(1280.476562 0)"/>
       <use xlink:href="#DejaVuSans-75" transform="translate(1332.576172 0)"/>
       <use xlink:href="#DejaVuSans-62" transform="translate(1395.955078 0)"/>
       <use xlink:href="#DejaVuSans-75" transform="translate(1459.431641 0)"/>
       <use xlink:href="#DejaVuSans-6e" transform="translate(1522.810547 0)"/>
       <use xlink:href="#DejaVuSans-69" transform="translate(1586.189453 0)"/>
       <use xlink:href="#DejaVuSans-74" transform="translate(1613.972656 0)"/>
      </g>
     </g>
    </g>
    <g id="ytick_5">
     <g id="line2d_10">
      <g>
       <use xlink:href="#m926cb4eced" x="206.809375" y="85.344651" style="stroke: #000000; stroke-width: 0.8"/>
      </g>
     </g>
     <g id="text_11">
      <!-- cytosolic ribosome -->
      <g transform="translate(106.214062 89.14387) scale(0.1 -0.1)">
       <use xlink:href="#DejaVuSans-63"/>
       <use xlink:href="#DejaVuSans-79" transform="translate(54.980469 0)"/>
       <use xlink:href="#DejaVuSans-74" transform="translate(114.160156 0)"/>
       <use xlink:href="#DejaVuSans-6f" transform="translate(153.369141 0)"/>
       <use xlink:href="#DejaVuSans-73" transform="translate(214.550781 0)"/>
       <use xlink:href="#DejaVuSans-6f" transform="translate(266.650391 0)"/>
       <use xlink:href="#DejaVuSans-6c" transform="translate(327.832031 0)"/>
       <use xlink:href="#DejaVuSans-69" transform="translate(355.615234 0)"/>
       <use xlink:href="#DejaVuSans-63" transform="translate(383.398438 0)"/>
       <use xlink:href="#DejaVuSans-20" transform="translate(438.378906 0)"/>
       <use xlink:href="#DejaVuSans-72" transform="translate(470.166016 0)"/>
       <use xlink:href="#DejaVuSans-69" transform="translate(511.279297 0)"/>
       <use xlink:href="#DejaVuSans-62" transform="translate(539.0625 0)"/>
       <use xlink:href="#DejaVuSans-6f" transform="translate(602.539062 0)"/>
       <use xlink:href="#DejaVuSans-73" transform="translate(663.720703 0)"/>
       <use xlink:href="#DejaVuSans-6f" transform="translate(715.820312 0)"/>
       <use xlink:href="#DejaVuSans-6d" transform="translate(777.001953 0)"/>
       <use xlink:href="#DejaVuSans-65" transform="translate(874.414062 0)"/>
      </g>
     </g>
    </g>
    <g id="ytick_6">
     <g id="line2d_11">
      <g>
       <use xlink:href="#m926cb4eced" x="206.809375" y="98.077283" style="stroke: #000000; stroke-width: 0.8"/>
      </g>
     </g>
     <g id="text_12">
      <!-- retromer complex -->
      <g transform="translate(110.28125 101.876502) scale(0.1 -0.1)">
       <use xlink:href="#DejaVuSans-72"/>
       <use xlink:href="#DejaVuSans-65" transform="translate(38.863281 0)"/>
       <use xlink:href="#DejaVuSans-74" transform="translate(100.386719 0)"/>
       <use xlink:href="#DejaVuSans-72" transform="translate(139.595703 0)"/>
       <use xlink:href="#DejaVuSans-6f" transform="translate(178.458984 0)"/>
       <use xlink:href="#DejaVuSans-6d" transform="translate(239.640625 0)"/>
       <use xlink:href="#DejaVuSans-65" transform="translate(337.052734 0)"/>
       <use xlink:href="#DejaVuSans-72" transform="translate(398.576172 0)"/>
       <use xlink:href="#DejaVuSans-20" transform="translate(439.689453 0)"/>
       <use xlink:href="#DejaVuSans-63" transform="translate(471.476562 0)"/>
       <use xlink:href="#DejaVuSans-6f" transform="translate(526.457031 0)"/>
       <use xlink:href="#DejaVuSans-6d" transform="translate(587.638672 0)"/>
       <use xlink:href="#DejaVuSans-70" transform="translate(685.050781 0)"/>
       <use xlink:href="#DejaVuSans-6c" transform="translate(748.527344 0)"/>
       <use xlink:href="#DejaVuSans-65" transform="translate(776.310547 0)"/>
       <use xlink:href="#DejaVuSans-78" transform="translate(836.083984 0)"/>
      </g>
     </g>
    </g>
    <g id="ytick_7">
     <g id="line2d_12">
      <g>
       <use xlink:href="#m926cb4eced" x="206.809375" y="110.809914" style="stroke: #000000; stroke-width: 0.8"/>
      </g>
     </g>
     <g id="text_13">
      <!-- dendrite cytoplasm -->
      <g transform="translate(102.820312 114.609133) scale(0.1 -0.1)">
       <use xlink:href="#DejaVuSans-64"/>
       <use xlink:href="#DejaVuSans-65" transform="translate(63.476562 0)"/>
       <use xlink:href="#DejaVuSans-6e" transform="translate(125 0)"/>
       <use xlink:href="#DejaVuSans-64" transform="translate(188.378906 0)"/>
       <use xlink:href="#DejaVuSans-72" transform="translate(251.855469 0)"/>
       <use xlink:href="#DejaVuSans-69" transform="translate(292.96875 0)"/>
       <use xlink:href="#DejaVuSans-74" transform="translate(320.751953 0)"/>
       <use xlink:href="#DejaVuSans-65" transform="translate(359.960938 0)"/>
       <use xlink:href="#DejaVuSans-20" transform="translate(421.484375 0)"/>
       <use xlink:href="#DejaVuSans-63" transform="translate(453.271484 0)"/>
       <use xlink:href="#DejaVuSans-79" transform="translate(508.251953 0)"/>
       <use xlink:href="#DejaVuSans-74" transform="translate(567.431641 0)"/>
       <use xlink:href="#DejaVuSans-6f" transform="translate(606.640625 0)"/>
       <use xlink:href="#DejaVuSans-70" transform="translate(667.822266 0)"/>
       <use xlink:href="#DejaVuSans-6c" transform="translate(731.298828 0)"/>
       <use xlink:href="#DejaVuSans-61" transform="translate(759.082031 0)"/>
       <use xlink:href="#DejaVuSans-73" transform="translate(820.361328 0)"/>
       <use xlink:href="#DejaVuSans-6d" transform="translate(872.460938 0)"/>
      </g>
     </g>
    </g>
    <g id="ytick_8">
     <g id="line2d_13">
      <g>
       <use xlink:href="#m926cb4eced" x="206.809375" y="123.542546" style="stroke: #000000; stroke-width: 0.8"/>
      </g>
     </g>
     <g id="text_14">
      <!-- cytoplasmic ribonucleoprotein granule -->
      <g transform="translate(7.2 127.341765) scale(0.1 -0.1)">
       <use xlink:href="#DejaVuSans-63"/>
       <use xlink:href="#DejaVuSans-79" transform="translate(54.980469 0)"/>
       <use xlink:href="#DejaVuSans-74" transform="translate(114.160156 0)"/>
       <use xlink:href="#DejaVuSans-6f" transform="translate(153.369141 0)"/>
       <use xlink:href="#DejaVuSans-70" transform="translate(214.550781 0)"/>
       <use xlink:href="#DejaVuSans-6c" transform="translate(278.027344 0)"/>
       <use xlink:href="#DejaVuSans-61" transform="translate(305.810547 0)"/>
       <use xlink:href="#DejaVuSans-73" transform="translate(367.089844 0)"/>
       <use xlink:href="#DejaVuSans-6d" transform="translate(419.189453 0)"/>
       <use xlink:href="#DejaVuSans-69" transform="translate(516.601562 0)"/>
       <use xlink:href="#DejaVuSans-63" transform="translate(544.384766 0)"/>
       <use xlink:href="#DejaVuSans-20" transform="translate(599.365234 0)"/>
       <use xlink:href="#DejaVuSans-72" transform="translate(631.152344 0)"/>
       <use xlink:href="#DejaVuSans-69" transform="translate(672.265625 0)"/>
       <use xlink:href="#DejaVuSans-62" transform="translate(700.048828 0)"/>
       <use xlink:href="#DejaVuSans-6f" transform="translate(763.525391 0)"/>
       <use xlink:href="#DejaVuSans-6e" transform="translate(824.707031 0)"/>
       <use xlink:href="#DejaVuSans-75" transform="translate(888.085938 0)"/>
       <use xlink:href="#DejaVuSans-63" transform="translate(951.464844 0)"/>
       <use xlink:href="#DejaVuSans-6c" transform="translate(1006.445312 0)"/>
       <use xlink:href="#DejaVuSans-65" transform="translate(1034.228516 0)"/>
       <use xlink:href="#DejaVuSans-6f" transform="translate(1095.751953 0)"/>
       <use xlink:href="#DejaVuSans-70" transform="translate(1156.933594 0)"/>
       <use xlink:href="#DejaVuSans-72" transform="translate(1220.410156 0)"/>
       <use xlink:href="#DejaVuSans-6f" transform="translate(1259.273438 0)"/>
       <use xlink:href="#DejaVuSans-74" transform="translate(1320.455078 0)"/>
       <use xlink:href="#DejaVuSans-65" transform="translate(1359.664062 0)"/>
       <use xlink:href="#DejaVuSans-69" transform="translate(1421.1875 0)"/>
       <use xlink:href="#DejaVuSans-6e" transform="translate(1448.970703 0)"/>
       <use xlink:href="#DejaVuSans-20" transform="translate(1512.349609 0)"/>
       <use xlink:href="#DejaVuSans-67" transform="translate(1544.136719 0)"/>
       <use xlink:href="#DejaVuSans-72" transform="translate(1607.613281 0)"/>
       <use xlink:href="#DejaVuSans-61" transform="translate(1648.726562 0)"/>
       <use xlink:href="#DejaVuSans-6e" transform="translate(1710.005859 0)"/>
       <use xlink:href="#DejaVuSans-75" transform="translate(1773.384766 0)"/>
       <use xlink:href="#DejaVuSans-6c" transform="translate(1836.763672 0)"/>
       <use xlink:href="#DejaVuSans-65" transform="translate(1864.546875 0)"/>
      </g>
     </g>
    </g>
    <g id="ytick_9">
     <g id="line2d_14">
      <g>
       <use xlink:href="#m926cb4eced" x="206.809375" y="136.275178" style="stroke: #000000; stroke-width: 0.8"/>
      </g>
     </g>
     <g id="text_15">
      <!-- rough endoplasmic reticulum -->
      <g transform="translate(53.55625 140.074396) scale(0.1 -0.1)">
       <use xlink:href="#DejaVuSans-72"/>
       <use xlink:href="#DejaVuSans-6f" transform="translate(38.863281 0)"/>
       <use xlink:href="#DejaVuSans-75" transform="translate(100.044922 0)"/>
       <use xlink:href="#DejaVuSans-67" transform="translate(163.423828 0)"/>
       <use xlink:href="#DejaVuSans-68" transform="translate(226.900391 0)"/>
       <use xlink:href="#DejaVuSans-20" transform="translate(290.279297 0)"/>
       <use xlink:href="#DejaVuSans-65" transform="translate(322.066406 0)"/>
       <use xlink:href="#DejaVuSans-6e" transform="translate(383.589844 0)"/>
       <use xlink:href="#DejaVuSans-64" transform="translate(446.96875 0)"/>
       <use xlink:href="#DejaVuSans-6f" transform="translate(510.445312 0)"/>
       <use xlink:href="#DejaVuSans-70" transform="translate(571.626953 0)"/>
       <use xlink:href="#DejaVuSans-6c" transform="translate(635.103516 0)"/>
       <use xlink:href="#DejaVuSans-61" transform="translate(662.886719 0)"/>
       <use xlink:href="#DejaVuSans-73" transform="translate(724.166016 0)"/>
       <use xlink:href="#DejaVuSans-6d" transform="translate(776.265625 0)"/>
       <use xlink:href="#DejaVuSans-69" transform="translate(873.677734 0)"/>
       <use xlink:href="#DejaVuSans-63" transform="translate(901.460938 0)"/>
       <use xlink:href="#DejaVuSans-20" transform="translate(956.441406 0)"/>
       <use xlink:href="#DejaVuSans-72" transform="translate(988.228516 0)"/>
       <use xlink:href="#DejaVuSans-65" transform="translate(1027.091797 0)"/>
       <use xlink:href="#DejaVuSans-74" transform="translate(1088.615234 0)"/>
       <use xlink:href="#DejaVuSans-69" transform="translate(1127.824219 0)"/>
       <use xlink:href="#DejaVuSans-63" transform="translate(1155.607422 0)"/>
       <use xlink:href="#DejaVuSans-75" transform="translate(1210.587891 0)"/>
       <use xlink:href="#DejaVuSans-6c" transform="translate(1273.966797 0)"/>
       <use xlink:href="#DejaVuSans-75" transform="translate(1301.75 0)"/>
       <use xlink:href="#DejaVuSans-6d" transform="translate(1365.128906 0)"/>
      </g>
     </g>
    </g>
    <g id="ytick_10">
     <g id="line2d_15">
      <g>
       <use xlink:href="#m926cb4eced" x="206.809375" y="149.007809" style="stroke: #000000; stroke-width: 0.8"/>
      </g>
     </g>
     <g id="text_16">
      <!-- cell leading edge -->
      <g transform="translate(114.370312 152.807028) scale(0.1 -0.1)">
       <use xlink:href="#DejaVuSans-63"/>
       <use xlink:href="#DejaVuSans-65" transform="translate(54.980469 0)"/>
       <use xlink:href="#DejaVuSans-6c" transform="translate(116.503906 0)"/>
       <use xlink:href="#DejaVuSans-6c" transform="translate(144.287109 0)"/>
       <use xlink:href="#DejaVuSans-20" transform="translate(172.070312 0)"/>
       <use xlink:href="#DejaVuSans-6c" transform="translate(203.857422 0)"/>
       <use xlink:href="#DejaVuSans-65" transform="translate(231.640625 0)"/>
       <use xlink:href="#DejaVuSans-61" transform="translate(293.164062 0)"/>
       <use xlink:href="#DejaVuSans-64" transform="translate(354.443359 0)"/>
       <use xlink:href="#DejaVuSans-69" transform="translate(417.919922 0)"/>
       <use xlink:href="#DejaVuSans-6e" transform="translate(445.703125 0)"/>
       <use xlink:href="#DejaVuSans-67" transform="translate(509.082031 0)"/>
       <use xlink:href="#DejaVuSans-20" transform="translate(572.558594 0)"/>
       <use xlink:href="#DejaVuSans-65" transform="translate(604.345703 0)"/>
       <use xlink:href="#DejaVuSans-64" transform="translate(665.869141 0)"/>
       <use xlink:href="#DejaVuSans-67" transform="translate(729.345703 0)"/>
       <use xlink:href="#DejaVuSans-65" transform="translate(792.822266 0)"/>
      </g>
     </g>
    </g>
    <g id="ytick_11">
     <g id="line2d_16">
      <g>
       <use xlink:href="#m926cb4eced" x="206.809375" y="161.740441" style="stroke: #000000; stroke-width: 0.8"/>
      </g>
     </g>
     <g id="text_17">
      <!-- clathrin-coated vesicle -->
      <g transform="translate(86.478125 165.53966) scale(0.1 -0.1)">
       <defs>
        <path id="DejaVuSans-2d" d="M 313 2009 
L 1997 2009 
L 1997 1497 
L 313 1497 
L 313 2009 
z
" transform="scale(0.015625)"/>
        <path id="DejaVuSans-76" d="M 191 3500 
L 800 3500 
L 1894 563 
L 2988 3500 
L 3597 3500 
L 2284 0 
L 1503 0 
L 191 3500 
z
" transform="scale(0.015625)"/>
       </defs>
       <use xlink:href="#DejaVuSans-63"/>
       <use xlink:href="#DejaVuSans-6c" transform="translate(54.980469 0)"/>
       <use xlink:href="#DejaVuSans-61" transform="translate(82.763672 0)"/>
       <use xlink:href="#DejaVuSans-74" transform="translate(144.042969 0)"/>
       <use xlink:href="#DejaVuSans-68" transform="translate(183.251953 0)"/>
       <use xlink:href="#DejaVuSans-72" transform="translate(246.630859 0)"/>
       <use xlink:href="#DejaVuSans-69" transform="translate(287.744141 0)"/>
       <use xlink:href="#DejaVuSans-6e" transform="translate(315.527344 0)"/>
       <use xlink:href="#DejaVuSans-2d" transform="translate(378.90625 0)"/>
       <use xlink:href="#DejaVuSans-63" transform="translate(414.990234 0)"/>
       <use xlink:href="#DejaVuSans-6f" transform="translate(469.970703 0)"/>
       <use xlink:href="#DejaVuSans-61" transform="translate(531.152344 0)"/>
       <use xlink:href="#DejaVuSans-74" transform="translate(592.431641 0)"/>
       <use xlink:href="#DejaVuSans-65" transform="translate(631.640625 0)"/>
       <use xlink:href="#DejaVuSans-64" transform="translate(693.164062 0)"/>
       <use xlink:href="#DejaVuSans-20" transform="translate(756.640625 0)"/>
       <use xlink:href="#DejaVuSans-76" transform="translate(788.427734 0)"/>
       <use xlink:href="#DejaVuSans-65" transform="translate(847.607422 0)"/>
       <use xlink:href="#DejaVuSans-73" transform="translate(909.130859 0)"/>
       <use xlink:href="#DejaVuSans-69" transform="translate(961.230469 0)"/>
       <use xlink:href="#DejaVuSans-63" transform="translate(989.013672 0)"/>
       <use xlink:href="#DejaVuSans-6c" transform="translate(1043.994141 0)"/>
       <use xlink:href="#DejaVuSans-65" transform="translate(1071.777344 0)"/>
      </g>
     </g>
    </g>
    <g id="ytick_12">
     <g id="line2d_17">
      <g>
       <use xlink:href="#m926cb4eced" x="206.809375" y="174.473072" style="stroke: #000000; stroke-width: 0.8"/>
      </g>
     </g>
     <g id="text_18">
      <!-- histone deacetylase complex -->
      <g transform="translate(53.828125 178.272291) scale(0.1 -0.1)">
       <use xlink:href="#DejaVuSans-68"/>
       <use xlink:href="#DejaVuSans-69" transform="translate(63.378906 0)"/>
       <use xlink:href="#DejaVuSans-73" transform="translate(91.162109 0)"/>
       <use xlink:href="#DejaVuSans-74" transform="translate(143.261719 0)"/>
       <use xlink:href="#DejaVuSans-6f" transform="translate(182.470703 0)"/>
       <use xlink:href="#DejaVuSans-6e" transform="translate(243.652344 0)"/>
       <use xlink:href="#DejaVuSans-65" transform="translate(307.03125 0)"/>
       <use xlink:href="#DejaVuSans-20" transform="translate(368.554688 0)"/>
       <use xlink:href="#DejaVuSans-64" transform="translate(400.341797 0)"/>
       <use xlink:href="#DejaVuSans-65" transform="translate(463.818359 0)"/>
       <use xlink:href="#DejaVuSans-61" transform="translate(525.341797 0)"/>
       <use xlink:href="#DejaVuSans-63" transform="translate(586.621094 0)"/>
       <use xlink:href="#DejaVuSans-65" transform="translate(641.601562 0)"/>
       <use xlink:href="#DejaVuSans-74" transform="translate(703.125 0)"/>
       <use xlink:href="#DejaVuSans-79" transform="translate(742.333984 0)"/>
       <use xlink:href="#DejaVuSans-6c" transform="translate(801.513672 0)"/>
       <use xlink:href="#DejaVuSans-61" transform="translate(829.296875 0)"/>
       <use xlink:href="#DejaVuSans-73" transform="translate(890.576172 0)"/>
       <use xlink:href="#DejaVuSans-65" transform="translate(942.675781 0)"/>
       <use xlink:href="#DejaVuSans-20" transform="translate(1004.199219 0)"/>
       <use xlink:href="#DejaVuSans-63" transform="translate(1035.986328 0)"/>
       <use xlink:href="#DejaVuSans-6f" transform="translate(1090.966797 0)"/>
       <use xlink:href="#DejaVuSans-6d" transform="translate(1152.148438 0)"/>
       <use xlink:href="#DejaVuSans-70" transform="translate(1249.560547 0)"/>
       <use xlink:href="#DejaVuSans-6c" transform="translate(1313.037109 0)"/>
       <use xlink:href="#DejaVuSans-65" transform="translate(1340.820312 0)"/>
       <use xlink:href="#DejaVuSans-78" transform="translate(1400.59375 0)"/>
      </g>
     </g>
    </g>
    <g id="ytick_13">
     <g id="line2d_18">
      <g>
       <use xlink:href="#m926cb4eced" x="206.809375" y="187.205704" style="stroke: #000000; stroke-width: 0.8"/>
      </g>
     </g>
     <g id="text_19">
      <!-- ribosome -->
      <g transform="translate(153.23125 191.004923) scale(0.1 -0.1)">
       <use xlink:href="#DejaVuSans-72"/>
       <use xlink:href="#DejaVuSans-69" transform="translate(41.113281 0)"/>
       <use xlink:href="#DejaVuSans-62" transform="translate(68.896484 0)"/>
       <use xlink:href="#DejaVuSans-6f" transform="translate(132.373047 0)"/>
       <use xlink:href="#DejaVuSans-73" transform="translate(193.554688 0)"/>
       <use xlink:href="#DejaVuSans-6f" transform="translate(245.654297 0)"/>
       <use xlink:href="#DejaVuSans-6d" transform="translate(306.835938 0)"/>
       <use xlink:href="#DejaVuSans-65" transform="translate(404.248047 0)"/>
      </g>
     </g>
    </g>
    <g id="ytick_14">
     <g id="line2d_19">
      <g>
       <use xlink:href="#m926cb4eced" x="206.809375" y="199.938336" style="stroke: #000000; stroke-width: 0.8"/>
      </g>
     </g>
     <g id="text_20">
      <!-- cytoplasmic stress granule -->
      <g transform="translate(65.734375 203.737554) scale(0.1 -0.1)">
       <use xlink:href="#DejaVuSans-63"/>
       <use xlink:href="#DejaVuSans-79" transform="translate(54.980469 0)"/>
       <use xlink:href="#DejaVuSans-74" transform="translate(114.160156 0)"/>
       <use xlink:href="#DejaVuSans-6f" transform="translate(153.369141 0)"/>
       <use xlink:href="#DejaVuSans-70" transform="translate(214.550781 0)"/>
       <use xlink:href="#DejaVuSans-6c" transform="translate(278.027344 0)"/>
       <use xlink:href="#DejaVuSans-61" transform="translate(305.810547 0)"/>
       <use xlink:href="#DejaVuSans-73" transform="translate(367.089844 0)"/>
       <use xlink:href="#DejaVuSans-6d" transform="translate(419.189453 0)"/>
       <use xlink:href="#DejaVuSans-69" transform="translate(516.601562 0)"/>
       <use xlink:href="#DejaVuSans-63" transform="translate(544.384766 0)"/>
       <use xlink:href="#DejaVuSans-20" transform="translate(599.365234 0)"/>
       <use xlink:href="#DejaVuSans-73" transform="translate(631.152344 0)"/>
       <use xlink:href="#DejaVuSans-74" transform="translate(683.251953 0)"/>
       <use xlink:href="#DejaVuSans-72" transform="translate(722.460938 0)"/>
       <use xlink:href="#DejaVuSans-65" transform="translate(761.324219 0)"/>
       <use xlink:href="#DejaVuSans-73" transform="translate(822.847656 0)"/>
       <use xlink:href="#DejaVuSans-73" transform="translate(874.947266 0)"/>
       <use xlink:href="#DejaVuSans-20" transform="translate(927.046875 0)"/>
       <use xlink:href="#DejaVuSans-67" transform="translate(958.833984 0)"/>
       <use xlink:href="#DejaVuSans-72" transform="translate(1022.310547 0)"/>
       <use xlink:href="#DejaVuSans-61" transform="translate(1063.423828 0)"/>
       <use xlink:href="#DejaVuSans-6e" transform="translate(1124.703125 0)"/>
       <use xlink:href="#DejaVuSans-75" transform="translate(1188.082031 0)"/>
       <use xlink:href="#DejaVuSans-6c" transform="translate(1251.460938 0)"/>
       <use xlink:href="#DejaVuSans-65" transform="translate(1279.244141 0)"/>
      </g>
     </g>
    </g>
    <g id="ytick_15">
     <g id="line2d_20">
      <g>
       <use xlink:href="#m926cb4eced" x="206.809375" y="212.670967" style="stroke: #000000; stroke-width: 0.8"/>
      </g>
     </g>
     <g id="text_21">
      <!-- postsynaptic density -->
      <g transform="translate(96.229687 216.470186) scale(0.1 -0.1)">
       <use xlink:href="#DejaVuSans-70"/>
       <use xlink:href="#DejaVuSans-6f" transform="translate(63.476562 0)"/>
       <use xlink:href="#DejaVuSans-73" transform="translate(124.658203 0)"/>
       <use xlink:href="#DejaVuSans-74" transform="translate(176.757812 0)"/>
       <use xlink:href="#DejaVuSans-73" transform="translate(215.966797 0)"/>
       <use xlink:href="#DejaVuSans-79" transform="translate(268.066406 0)"/>
       <use xlink:href="#DejaVuSans-6e" transform="translate(327.246094 0)"/>
       <use xlink:href="#DejaVuSans-61" transform="translate(390.625 0)"/>
       <use xlink:href="#DejaVuSans-70" transform="translate(451.904297 0)"/>
       <use xlink:href="#DejaVuSans-74" transform="translate(515.380859 0)"/>
       <use xlink:href="#DejaVuSans-69" transform="translate(554.589844 0)"/>
       <use xlink:href="#DejaVuSans-63" transform="translate(582.373047 0)"/>
       <use xlink:href="#DejaVuSans-20" transform="translate(637.353516 0)"/>
       <use xlink:href="#DejaVuSans-64" transform="translate(669.140625 0)"/>
       <use xlink:href="#DejaVuSans-65" transform="translate(732.617188 0)"/>
       <use xlink:href="#DejaVuSans-6e" transform="translate(794.140625 0)"/>
       <use xlink:href="#DejaVuSans-73" transform="translate(857.519531 0)"/>
       <use xlink:href="#DejaVuSans-69" transform="translate(909.619141 0)"/>
       <use xlink:href="#DejaVuSans-74" transform="translate(937.402344 0)"/>
       <use xlink:href="#DejaVuSans-79" transform="translate(976.611328 0)"/>
      </g>
     </g>
    </g>
    <g id="ytick_16">
     <g id="line2d_21">
      <g>
       <use xlink:href="#m926cb4eced" x="206.809375" y="225.403599" style="stroke: #000000; stroke-width: 0.8"/>
      </g>
     </g>
     <g id="text_22">
      <!-- clathrin-coated pit -->
      <g transform="translate(107.920312 229.202817) scale(0.1 -0.1)">
       <use xlink:href="#DejaVuSans-63"/>
       <use xlink:href="#DejaVuSans-6c" transform="translate(54.980469 0)"/>
       <use xlink:href="#DejaVuSans-61" transform="translate(82.763672 0)"/>
       <use xlink:href="#DejaVuSans-74" transform="translate(144.042969 0)"/>
       <use xlink:href="#DejaVuSans-68" transform="translate(183.251953 0)"/>
       <use xlink:href="#DejaVuSans-72" transform="translate(246.630859 0)"/>
       <use xlink:href="#DejaVuSans-69" transform="translate(287.744141 0)"/>
       <use xlink:href="#DejaVuSans-6e" transform="translate(315.527344 0)"/>
       <use xlink:href="#DejaVuSans-2d" transform="translate(378.90625 0)"/>
       <use xlink:href="#DejaVuSans-63" transform="translate(414.990234 0)"/>
       <use xlink:href="#DejaVuSans-6f" transform="translate(469.970703 0)"/>
       <use xlink:href="#DejaVuSans-61" transform="translate(531.152344 0)"/>
       <use xlink:href="#DejaVuSans-74" transform="translate(592.431641 0)"/>
       <use xlink:href="#DejaVuSans-65" transform="translate(631.640625 0)"/>
       <use xlink:href="#DejaVuSans-64" transform="translate(693.164062 0)"/>
       <use xlink:href="#DejaVuSans-20" transform="translate(756.640625 0)"/>
       <use xlink:href="#DejaVuSans-70" transform="translate(788.427734 0)"/>
       <use xlink:href="#DejaVuSans-69" transform="translate(851.904297 0)"/>
       <use xlink:href="#DejaVuSans-74" transform="translate(879.6875 0)"/>
      </g>
     </g>
    </g>
    <g id="ytick_17">
     <g id="line2d_22">
      <g>
       <use xlink:href="#m926cb4eced" x="206.809375" y="238.13623" style="stroke: #000000; stroke-width: 0.8"/>
      </g>
     </g>
     <g id="text_23">
      <!-- phagocytic vesicle -->
      <g transform="translate(107.246875 241.935449) scale(0.1 -0.1)">
       <use xlink:href="#DejaVuSans-70"/>
       <use xlink:href="#DejaVuSans-68" transform="translate(63.476562 0)"/>
       <use xlink:href="#DejaVuSans-61" transform="translate(126.855469 0)"/>
       <use xlink:href="#DejaVuSans-67" transform="translate(188.134766 0)"/>
       <use xlink:href="#DejaVuSans-6f" transform="translate(251.611328 0)"/>
       <use xlink:href="#DejaVuSans-63" transform="translate(312.792969 0)"/>
       <use xlink:href="#DejaVuSans-79" transform="translate(367.773438 0)"/>
       <use xlink:href="#DejaVuSans-74" transform="translate(426.953125 0)"/>
       <use xlink:href="#DejaVuSans-69" transform="translate(466.162109 0)"/>
       <use xlink:href="#DejaVuSans-63" transform="translate(493.945312 0)"/>
       <use xlink:href="#DejaVuSans-20" transform="translate(548.925781 0)"/>
       <use xlink:href="#DejaVuSans-76" transform="translate(580.712891 0)"/>
       <use xlink:href="#DejaVuSans-65" transform="translate(639.892578 0)"/>
       <use xlink:href="#DejaVuSans-73" transform="translate(701.416016 0)"/>
       <use xlink:href="#DejaVuSans-69" transform="translate(753.515625 0)"/>
       <use xlink:href="#DejaVuSans-63" transform="translate(781.298828 0)"/>
       <use xlink:href="#DejaVuSans-6c" transform="translate(836.279297 0)"/>
       <use xlink:href="#DejaVuSans-65" transform="translate(864.0625 0)"/>
      </g>
     </g>
    </g>
    <g id="ytick_18">
     <g id="line2d_23">
      <g>
       <use xlink:href="#m926cb4eced" x="206.809375" y="250.868862" style="stroke: #000000; stroke-width: 0.8"/>
      </g>
     </g>
     <g id="text_24">
      <!-- dendritic spine -->
      <g transform="translate(125.53125 254.668081) scale(0.1 -0.1)">
       <use xlink:href="#DejaVuSans-64"/>
       <use xlink:href="#DejaVuSans-65" transform="translate(63.476562 0)"/>
       <use xlink:href="#DejaVuSans-6e" transform="translate(125 0)"/>
       <use xlink:href="#DejaVuSans-64" transform="translate(188.378906 0)"/>
       <use xlink:href="#DejaVuSans-72" transform="translate(251.855469 0)"/>
       <use xlink:href="#DejaVuSans-69" transform="translate(292.96875 0)"/>
       <use xlink:href="#DejaVuSans-74" transform="translate(320.751953 0)"/>
       <use xlink:href="#DejaVuSans-69" transform="translate(359.960938 0)"/>
       <use xlink:href="#DejaVuSans-63" transform="translate(387.744141 0)"/>
       <use xlink:href="#DejaVuSans-20" transform="translate(442.724609 0)"/>
       <use xlink:href="#DejaVuSans-73" transform="translate(474.511719 0)"/>
       <use xlink:href="#DejaVuSans-70" transform="translate(526.611328 0)"/>
       <use xlink:href="#DejaVuSans-69" transform="translate(590.087891 0)"/>
       <use xlink:href="#DejaVuSans-6e" transform="translate(617.871094 0)"/>
       <use xlink:href="#DejaVuSans-65" transform="translate(681.25 0)"/>
      </g>
     </g>
    </g>
    <g id="ytick_19">
     <g id="line2d_24">
      <g>
       <use xlink:href="#m926cb4eced" x="206.809375" y="263.601493" style="stroke: #000000; stroke-width: 0.8"/>
      </g>
     </g>
     <g id="text_25">
      <!-- postsynapse -->
      <g transform="translate(136.907812 267.400712) scale(0.1 -0.1)">
       <use xlink:href="#DejaVuSans-70"/>
       <use xlink:href="#DejaVuSans-6f" transform="translate(63.476562 0)"/>
       <use xlink:href="#DejaVuSans-73" transform="translate(124.658203 0)"/>
       <use xlink:href="#DejaVuSans-74" transform="translate(176.757812 0)"/>
       <use xlink:href="#DejaVuSans-73" transform="translate(215.966797 0)"/>
       <use xlink:href="#DejaVuSans-79" transform="translate(268.066406 0)"/>
       <use xlink:href="#DejaVuSans-6e" transform="translate(327.246094 0)"/>
       <use xlink:href="#DejaVuSans-61" transform="translate(390.625 0)"/>
       <use xlink:href="#DejaVuSans-70" transform="translate(451.904297 0)"/>
       <use xlink:href="#DejaVuSans-73" transform="translate(515.380859 0)"/>
       <use xlink:href="#DejaVuSans-65" transform="translate(567.480469 0)"/>
      </g>
     </g>
    </g>
    <g id="ytick_20">
     <g id="line2d_25">
      <g>
       <use xlink:href="#m926cb4eced" x="206.809375" y="276.334125" style="stroke: #000000; stroke-width: 0.8"/>
      </g>
     </g>
     <g id="text_26">
      <!-- focal adhesion -->
      <g transform="translate(127.176562 280.133344) scale(0.1 -0.1)">
       <defs>
        <path id="DejaVuSans-66" d="M 2375 4863 
L 2375 4384 
L 1825 4384 
Q 1516 4384 1395 4259 
Q 1275 4134 1275 3809 
L 1275 3500 
L 2222 3500 
L 2222 3053 
L 1275 3053 
L 1275 0 
L 697 0 
L 697 3053 
L 147 3053 
L 147 3500 
L 697 3500 
L 697 3744 
Q 697 4328 969 4595 
Q 1241 4863 1831 4863 
L 2375 4863 
z
" transform="scale(0.015625)"/>
       </defs>
       <use xlink:href="#DejaVuSans-66"/>
       <use xlink:href="#DejaVuSans-6f" transform="translate(35.205078 0)"/>
       <use xlink:href="#DejaVuSans-63" transform="translate(96.386719 0)"/>
       <use xlink:href="#DejaVuSans-61" transform="translate(151.367188 0)"/>
       <use xlink:href="#DejaVuSans-6c" transform="translate(212.646484 0)"/>
       <use xlink:href="#DejaVuSans-20" transform="translate(240.429688 0)"/>
       <use xlink:href="#DejaVuSans-61" transform="translate(272.216797 0)"/>
       <use xlink:href="#DejaVuSans-64" transform="translate(333.496094 0)"/>
       <use xlink:href="#DejaVuSans-68" transform="translate(396.972656 0)"/>
       <use xlink:href="#DejaVuSans-65" transform="translate(460.351562 0)"/>
       <use xlink:href="#DejaVuSans-73" transform="translate(521.875 0)"/>
       <use xlink:href="#DejaVuSans-69" transform="translate(573.974609 0)"/>
       <use xlink:href="#DejaVuSans-6f" transform="translate(601.757812 0)"/>
       <use xlink:href="#DejaVuSans-6e" transform="translate(662.939453 0)"/>
      </g>
     </g>
    </g>
   </g>
   <g id="line2d_26"/>
   <g id="line2d_27"/>
   <g id="line2d_28"/>
   <g id="line2d_29"/>
   <g id="line2d_30"/>
   <g id="line2d_31"/>
   <g id="line2d_32"/>
   <g id="line2d_33"/>
   <g id="line2d_34"/>
   <g id="line2d_35"/>
   <g id="line2d_36"/>
   <g id="line2d_37"/>
   <g id="line2d_38"/>
   <g id="patch_3">
    <path d="M 206.809375 288.430125 
L 206.809375 22.318125 
" style="fill: none; stroke: #000000; stroke-width: 0.8; stroke-linejoin: miter; stroke-linecap: square"/>
   </g>
   <g id="patch_4">
    <path d="M 563.929375 288.430125 
L 563.929375 22.318125 
" style="fill: none; stroke: #000000; stroke-width: 0.8; stroke-linejoin: miter; stroke-linecap: square"/>
   </g>
   <g id="patch_5">
    <path d="M 206.809375 288.430125 
L 563.929375 288.430125 
" style="fill: none; stroke: #000000; stroke-width: 0.8; stroke-linejoin: miter; stroke-linecap: square"/>
   </g>
   <g id="patch_6">
    <path d="M 206.809375 22.318125 
L 563.929375 22.318125 
" style="fill: none; stroke: #000000; stroke-width: 0.8; stroke-linejoin: miter; stroke-linecap: square"/>
   </g>
   <g id="text_27">
    <!-- Top 20 Enriched Cellular Components -->
    <g transform="translate(272.86375 16.318125) scale(0.12 -0.12)">
     <defs>
      <path id="DejaVuSans-54" d="M -19 4666 
L 3928 4666 
L 3928 4134 
L 2272 4134 
L 2272 0 
L 1638 0 
L 1638 4134 
L -19 4134 
L -19 4666 
z
" transform="scale(0.015625)"/>
     </defs>
     <use xlink:href="#DejaVuSans-54"/>
     <use xlink:href="#DejaVuSans-6f" transform="translate(44.083984 0)"/>
     <use xlink:href="#DejaVuSans-70" transform="translate(105.265625 0)"/>
     <use xlink:href="#DejaVuSans-20" transform="translate(168.742188 0)"/>
     <use xlink:href="#DejaVuSans-32" transform="translate(200.529297 0)"/>
     <use xlink:href="#DejaVuSans-30" transform="translate(264.152344 0)"/>
     <use xlink:href="#DejaVuSans-20" transform="translate(327.775391 0)"/>
     <use xlink:href="#DejaVuSans-45" transform="translate(359.5625 0)"/>
     <use xlink:href="#DejaVuSans-6e" transform="translate(422.746094 0)"/>
     <use xlink:href="#DejaVuSans-72" transform="translate(486.125 0)"/>
     <use xlink:href="#DejaVuSans-69" transform="translate(527.238281 0)"/>
     <use xlink:href="#DejaVuSans-63" transform="translate(555.021484 0)"/>
     <use xlink:href="#DejaVuSans-68" transform="translate(610.001953 0)"/>
     <use xlink:href="#DejaVuSans-65" transform="translate(673.380859 0)"/>
     <use xlink:href="#DejaVuSans-64" transform="translate(734.904297 0)"/>
     <use xlink:href="#DejaVuSans-20" transform="translate(798.380859 0)"/>
     <use xlink:href="#DejaVuSans-43" transform="translate(830.167969 0)"/>
     <use xlink:href="#DejaVuSans-65" transform="translate(899.992188 0)"/>
     <use xlink:href="#DejaVuSans-6c" transform="translate(961.515625 0)"/>
     <use xlink:href="#DejaVuSans-6c" transform="translate(989.298828 0)"/>
     <use xlink:href="#DejaVuSans-75" transform="translate(1017.082031 0)"/>
     <use xlink:href="#DejaVuSans-6c" transform="translate(1080.460938 0)"/>
     <use xlink:href="#DejaVuSans-61" transform="translate(1108.244141 0)"/>
     <use xlink:href="#DejaVuSans-72" transform="translate(1169.523438 0)"/>
     <use xlink:href="#DejaVuSans-20" transform="translate(1210.636719 0)"/>
     <use xlink:href="#DejaVuSans-43" transform="translate(1242.423828 0)"/>
     <use xlink:href="#DejaVuSans-6f" transform="translate(1312.248047 0)"/>
     <use xlink:href="#DejaVuSans-6d" transform="translate(1373.429688 0)"/>
     <use xlink:href="#DejaVuSans-70" transform="translate(1470.841797 0)"/>
     <use xlink:href="#DejaVuSans-6f" transform="translate(1534.318359 0)"/>
     <use xlink:href="#DejaVuSans-6e" transform="translate(1595.5 0)"/>
     <use xlink:href="#DejaVuSans-65" transform="translate(1658.878906 0)"/>
     <use xlink:href="#DejaVuSans-6e" transform="translate(1720.402344 0)"/>
     <use xlink:href="#DejaVuSans-74" transform="translate(1783.78125 0)"/>
     <use xlink:href="#DejaVuSans-73" transform="translate(1822.990234 0)"/>
    </g>
   </g>
   <g id="legend_1">
    <g id="patch_7">
     <path d="M 570.929375 221.13375 
L 658.168437 221.13375 
Q 660.168437 221.13375 660.168437 219.13375 
L 660.168437 29.318125 
Q 660.168437 27.318125 658.168437 27.318125 
L 570.929375 27.318125 
Q 568.929375 27.318125 568.929375 29.318125 
L 568.929375 219.13375 
Q 568.929375 221.13375 570.929375 221.13375 
z
" style="fill: #ffffff; opacity: 0.8; stroke: #cccccc; stroke-linejoin: miter"/>
    </g>
    <g id="line2d_39"/>
    <g id="text_28">
     <!-- -log10 FDR -->
     <g transform="translate(600.929375 38.916562) scale(0.1 -0.1)">
      <defs>
       <path id="DejaVuSans-31" d="M 794 531 
L 1825 531 
L 1825 4091 
L 703 3866 
L 703 4441 
L 1819 4666 
L 2450 4666 
L 2450 531 
L 3481 531 
L 3481 0 
L 794 0 
L 794 531 
z
" transform="scale(0.015625)"/>
       <path id="DejaVuSans-44" d="M 1259 4147 
L 1259 519 
L 2022 519 
Q 2988 519 3436 956 
Q 3884 1394 3884 2338 
Q 3884 3275 3436 3711 
Q 2988 4147 2022 4147 
L 1259 4147 
z
M 628 4666 
L 1925 4666 
Q 3281 4666 3915 4102 
Q 4550 3538 4550 2338 
Q 4550 1131 3912 565 
Q 3275 0 1925 0 
L 628 0 
L 628 4666 
z
" transform="scale(0.015625)"/>
      </defs>
      <use xlink:href="#DejaVuSans-2d"/>
      <use xlink:href="#DejaVuSans-6c" transform="translate(36.083984 0)"/>
      <use xlink:href="#DejaVuSans-6f" transform="translate(63.867188 0)"/>
      <use xlink:href="#DejaVuSans-67" transform="translate(125.048828 0)"/>
      <use xlink:href="#DejaVuSans-31" transform="translate(188.525391 0)"/>
      <use xlink:href="#DejaVuSans-30" transform="translate(252.148438 0)"/>
      <use xlink:href="#DejaVuSans-20" transform="translate(315.771484 0)"/>
      <use xlink:href="#DejaVuSans-46" transform="translate(347.558594 0)"/>
      <use xlink:href="#DejaVuSans-44" transform="translate(405.078125 0)"/>
      <use xlink:href="#DejaVuSans-52" transform="translate(482.080078 0)"/>
     </g>
    </g>
    <g id="line2d_40">
     <defs>
      <path id="m9848174035" d="M 0 3 
C 0.795609 3 1.55874 2.683901 2.12132 2.12132 
C 2.683901 1.55874 3 0.795609 3 0 
C 3 -0.795609 2.683901 -1.55874 2.12132 -2.12132 
C 1.55874 -2.683901 0.795609 -3 0 -3 
C -0.795609 -3 -1.55874 -2.683901 -2.12132 -2.12132 
C -2.683901 -1.55874 -3 -0.795609 -3 0 
C -3 0.795609 -2.683901 1.55874 -2.12132 2.12132 
C -1.55874 2.683901 -0.795609 3 0 3 
z
" style="stroke: #ffffff; stroke-width: 0.377815"/>
     </defs>
     <g>
      <use xlink:href="#m9848174035" x="582.929375" y="50.094688" style="fill: #4257c9; stroke: #ffffff; stroke-width: 0.377815"/>
     </g>
    </g>
    <g id="text_29">
     <!-- 5 -->
     <g transform="translate(600.929375 53.594688) scale(0.1 -0.1)">
      <use xlink:href="#DejaVuSans-35"/>
     </g>
    </g>
    <g id="line2d_41">
     <defs>
      <path id="m7445e19dac" d="M 0 3 
C 0.795609 3 1.55874 2.683901 2.12132 2.12132 
C 2.683901 1.55874 3 0.795609 3 0 
C 3 -0.795609 2.683901 -1.55874 2.12132 -2.12132 
C 1.55874 -2.683901 0.795609 -3 0 -3 
C -0.795609 -3 -1.55874 -2.683901 -2.12132 -2.12132 
C -2.683901 -1.55874 -3 -0.795609 -3 0 
C -3 0.795609 -2.683901 1.55874 -2.12132 2.12132 
C -1.55874 2.683901 -0.795609 3 0 3 
z
" style="stroke: #ffffff; stroke-width: 0.377815"/>
     </defs>
     <g>
      <use xlink:href="#m7445e19dac" x="582.929375" y="64.772812" style="fill: #7a9df8; stroke: #ffffff; stroke-width: 0.377815"/>
     </g>
    </g>
    <g id="text_30">
     <!-- 10 -->
     <g transform="translate(600.929375 68.272812) scale(0.1 -0.1)">
      <use xlink:href="#DejaVuSans-31"/>
      <use xlink:href="#DejaVuSans-30" transform="translate(63.623047 0)"/>
     </g>
    </g>
    <g id="line2d_42">
     <defs>
      <path id="m841785bbc3" d="M 0 3 
C 0.795609 3 1.55874 2.683901 2.12132 2.12132 
C 2.683901 1.55874 3 0.795609 3 0 
C 3 -0.795609 2.683901 -1.55874 2.12132 -2.12132 
C 1.55874 -2.683901 0.795609 -3 0 -3 
C -0.795609 -3 -1.55874 -2.683901 -2.12132 -2.12132 
C -2.683901 -1.55874 -3 -0.795609 -3 0 
C -3 0.795609 -2.683901 1.55874 -2.12132 2.12132 
C -1.55874 2.683901 -0.795609 3 0 3 
z
" style="stroke: #ffffff; stroke-width: 0.377815"/>
     </defs>
     <g>
      <use xlink:href="#m841785bbc3" x="582.929375" y="79.450938" style="fill: #b7cff9; stroke: #ffffff; stroke-width: 0.377815"/>
     </g>
    </g>
    <g id="text_31">
     <!-- 15 -->
     <g transform="translate(600.929375 82.950938) scale(0.1 -0.1)">
      <use xlink:href="#DejaVuSans-31"/>
      <use xlink:href="#DejaVuSans-35" transform="translate(63.623047 0)"/>
     </g>
    </g>
    <g id="line2d_43">
     <defs>
      <path id="m39aa497f2e" d="M 0 3 
C 0.795609 3 1.55874 2.683901 2.12132 2.12132 
C 2.683901 1.55874 3 0.795609 3 0 
C 3 -0.795609 2.683901 -1.55874 2.12132 -2.12132 
C 1.55874 -2.683901 0.795609 -3 0 -3 
C -0.795609 -3 -1.55874 -2.683901 -2.12132 -2.12132 
C -2.683901 -1.55874 -3 -0.795609 -3 0 
C -3 0.795609 -2.683901 1.55874 -2.12132 2.12132 
C -1.55874 2.683901 -0.795609 3 0 3 
z
" style="stroke: #ffffff; stroke-width: 0.377815"/>
     </defs>
     <g>
      <use xlink:href="#m39aa497f2e" x="582.929375" y="94.129063" style="fill: #e8d6cc; stroke: #ffffff; stroke-width: 0.377815"/>
     </g>
    </g>
    <g id="text_32">
     <!-- 20 -->
     <g transform="translate(600.929375 97.629063) scale(0.1 -0.1)">
      <use xlink:href="#DejaVuSans-32"/>
      <use xlink:href="#DejaVuSans-30" transform="translate(63.623047 0)"/>
     </g>
    </g>
    <g id="line2d_44">
     <defs>
      <path id="mb46c796560" d="M 0 3 
C 0.795609 3 1.55874 2.683901 2.12132 2.12132 
C 2.683901 1.55874 3 0.795609 3 0 
C 3 -0.795609 2.683901 -1.55874 2.12132 -2.12132 
C 1.55874 -2.683901 0.795609 -3 0 -3 
C -0.795609 -3 -1.55874 -2.683901 -2.12132 -2.12132 
C -2.683901 -1.55874 -3 -0.795609 -3 0 
C -3 0.795609 -2.683901 1.55874 -2.12132 2.12132 
C -1.55874 2.683901 -0.795609 3 0 3 
z
" style="stroke: #ffffff; stroke-width: 0.377815"/>
     </defs>
     <g>
      <use xlink:href="#mb46c796560" x="582.929375" y="108.807187" style="fill: #f7a688; stroke: #ffffff; stroke-width: 0.377815"/>
     </g>
    </g>
    <g id="text_33">
     <!-- 25 -->
     <g transform="translate(600.929375 112.307187) scale(0.1 -0.1)">
      <use xlink:href="#DejaVuSans-32"/>
      <use xlink:href="#DejaVuSans-35" transform="translate(63.623047 0)"/>
     </g>
    </g>
    <g id="line2d_45">
     <defs>
      <path id="m09ca4af470" d="M 0 3 
C 0.795609 3 1.55874 2.683901 2.12132 2.12132 
C 2.683901 1.55874 3 0.795609 3 0 
C 3 -0.795609 2.683901 -1.55874 2.12132 -2.12132 
C 1.55874 -2.683901 0.795609 -3 0 -3 
C -0.795609 -3 -1.55874 -2.683901 -2.12132 -2.12132 
C -2.683901 -1.55874 -3 -0.795609 -3 0 
C -3 0.795609 -2.683901 1.55874 -2.12132 2.12132 
C -1.55874 2.683901 -0.795609 3 0 3 
z
" style="stroke: #ffffff; stroke-width: 0.377815"/>
     </defs>
     <g>
      <use xlink:href="#m09ca4af470" x="582.929375" y="123.485313" style="fill: #d95847; stroke: #ffffff; stroke-width: 0.377815"/>
     </g>
    </g>
    <g id="text_34">
     <!-- 30 -->
     <g transform="translate(600.929375 126.985313) scale(0.1 -0.1)">
      <use xlink:href="#DejaVuSans-33"/>
      <use xlink:href="#DejaVuSans-30" transform="translate(63.623047 0)"/>
     </g>
    </g>
    <g id="line2d_46"/>
    <g id="text_35">
     <!-- Gene Ratio -->
     <g transform="translate(600.929375 141.663437) scale(0.1 -0.1)">
      <defs>
       <path id="DejaVuSans-47" d="M 3809 666 
L 3809 1919 
L 2778 1919 
L 2778 2438 
L 4434 2438 
L 4434 434 
Q 4069 175 3628 42 
Q 3188 -91 2688 -91 
Q 1594 -91 976 548 
Q 359 1188 359 2328 
Q 359 3472 976 4111 
Q 1594 4750 2688 4750 
Q 3144 4750 3555 4637 
Q 3966 4525 4313 4306 
L 4313 3634 
Q 3963 3931 3569 4081 
Q 3175 4231 2741 4231 
Q 1884 4231 1454 3753 
Q 1025 3275 1025 2328 
Q 1025 1384 1454 906 
Q 1884 428 2741 428 
Q 3075 428 3337 486 
Q 3600 544 3809 666 
z
" transform="scale(0.015625)"/>
      </defs>
      <use xlink:href="#DejaVuSans-47"/>
      <use xlink:href="#DejaVuSans-65" transform="translate(77.490234 0)"/>
      <use xlink:href="#DejaVuSans-6e" transform="translate(139.013672 0)"/>
      <use xlink:href="#DejaVuSans-65" transform="translate(202.392578 0)"/>
      <use xlink:href="#DejaVuSans-20" transform="translate(263.916016 0)"/>
      <use xlink:href="#DejaVuSans-52" transform="translate(295.703125 0)"/>
      <use xlink:href="#DejaVuSans-61" transform="translate(362.935547 0)"/>
      <use xlink:href="#DejaVuSans-74" transform="translate(424.214844 0)"/>
      <use xlink:href="#DejaVuSans-69" transform="translate(463.423828 0)"/>
      <use xlink:href="#DejaVuSans-6f" transform="translate(491.207031 0)"/>
     </g>
    </g>
    <g id="line2d_47">
     <defs>
      <path id="mebfb9f987a" d="M 0 2.888848 
C 0.766131 2.888848 1.500987 2.584461 2.042724 2.042724 
C 2.584461 1.500987 2.888848 0.766131 2.888848 0 
C 2.888848 -0.766131 2.584461 -1.500987 2.042724 -2.042724 
C 1.500987 -2.584461 0.766131 -2.888848 0 -2.888848 
C -0.766131 -2.888848 -1.500987 -2.584461 -2.042724 -2.042724 
C -2.584461 -1.500987 -2.888848 -0.766131 -2.888848 0 
C -2.888848 0.766131 -2.584461 1.500987 -2.042724 2.042724 
C -1.500987 2.584461 -0.766131 2.888848 0 2.888848 
z
" style="stroke: #ffffff; stroke-width: 0.377815"/>
     </defs>
     <g>
      <use xlink:href="#mebfb9f987a" x="582.929375" y="152.841563" style="fill: #333333; stroke: #ffffff; stroke-width: 0.377815"/>
     </g>
    </g>
    <g id="text_36">
     <!-- 0.008 -->
     <g transform="translate(600.929375 156.341563) scale(0.1 -0.1)">
      <defs>
       <path id="DejaVuSans-38" d="M 2034 2216 
Q 1584 2216 1326 1975 
Q 1069 1734 1069 1313 
Q 1069 891 1326 650 
Q 1584 409 2034 409 
Q 2484 409 2743 651 
Q 3003 894 3003 1313 
Q 3003 1734 2745 1975 
Q 2488 2216 2034 2216 
z
M 1403 2484 
Q 997 2584 770 2862 
Q 544 3141 544 3541 
Q 544 4100 942 4425 
Q 1341 4750 2034 4750 
Q 2731 4750 3128 4425 
Q 3525 4100 3525 3541 
Q 3525 3141 3298 2862 
Q 3072 2584 2669 2484 
Q 3125 2378 3379 2068 
Q 3634 1759 3634 1313 
Q 3634 634 3220 271 
Q 2806 -91 2034 -91 
Q 1263 -91 848 271 
Q 434 634 434 1313 
Q 434 1759 690 2068 
Q 947 2378 1403 2484 
z
M 1172 3481 
Q 1172 3119 1398 2916 
Q 1625 2713 2034 2713 
Q 2441 2713 2670 2916 
Q 2900 3119 2900 3481 
Q 2900 3844 2670 4047 
Q 2441 4250 2034 4250 
Q 1625 4250 1398 4047 
Q 1172 3844 1172 3481 
z
" transform="scale(0.015625)"/>
      </defs>
      <use xlink:href="#DejaVuSans-30"/>
      <use xlink:href="#DejaVuSans-2e" transform="translate(63.623047 0)"/>
      <use xlink:href="#DejaVuSans-30" transform="translate(95.410156 0)"/>
      <use xlink:href="#DejaVuSans-30" transform="translate(159.033203 0)"/>
      <use xlink:href="#DejaVuSans-38" transform="translate(222.65625 0)"/>
     </g>
    </g>
    <g id="line2d_48">
     <defs>
      <path id="m12d9e97cd8" d="M 0 3.79011 
C 1.005149 3.79011 1.969265 3.39076 2.680013 2.680013 
C 3.39076 1.969265 3.79011 1.005149 3.79011 0 
C 3.79011 -1.005149 3.39076 -1.969265 2.680013 -2.680013 
C 1.969265 -3.39076 1.005149 -3.79011 0 -3.79011 
C -1.005149 -3.79011 -1.969265 -3.39076 -2.680013 -2.680013 
C -3.39076 -1.969265 -3.79011 -1.005149 -3.79011 0 
C -3.79011 1.005149 -3.39076 1.969265 -2.680013 2.680013 
C -1.969265 3.39076 -1.005149 3.79011 0 3.79011 
z
" style="stroke: #ffffff; stroke-width: 0.377815"/>
     </defs>
     <g>
      <use xlink:href="#m12d9e97cd8" x="582.929375" y="167.519687" style="fill: #333333; stroke: #ffffff; stroke-width: 0.377815"/>
     </g>
    </g>
    <g id="text_37">
     <!-- 0.016 -->
     <g transform="translate(600.929375 171.019687) scale(0.1 -0.1)">
      <defs>
       <path id="DejaVuSans-36" d="M 2113 2584 
Q 1688 2584 1439 2293 
Q 1191 2003 1191 1497 
Q 1191 994 1439 701 
Q 1688 409 2113 409 
Q 2538 409 2786 701 
Q 3034 994 3034 1497 
Q 3034 2003 2786 2293 
Q 2538 2584 2113 2584 
z
M 3366 4563 
L 3366 3988 
Q 3128 4100 2886 4159 
Q 2644 4219 2406 4219 
Q 1781 4219 1451 3797 
Q 1122 3375 1075 2522 
Q 1259 2794 1537 2939 
Q 1816 3084 2150 3084 
Q 2853 3084 3261 2657 
Q 3669 2231 3669 1497 
Q 3669 778 3244 343 
Q 2819 -91 2113 -91 
Q 1303 -91 875 529 
Q 447 1150 447 2328 
Q 447 3434 972 4092 
Q 1497 4750 2381 4750 
Q 2619 4750 2861 4703 
Q 3103 4656 3366 4563 
z
" transform="scale(0.015625)"/>
      </defs>
      <use xlink:href="#DejaVuSans-30"/>
      <use xlink:href="#DejaVuSans-2e" transform="translate(63.623047 0)"/>
      <use xlink:href="#DejaVuSans-30" transform="translate(95.410156 0)"/>
      <use xlink:href="#DejaVuSans-31" transform="translate(159.033203 0)"/>
      <use xlink:href="#DejaVuSans-36" transform="translate(222.65625 0)"/>
     </g>
    </g>
    <g id="line2d_49">
     <defs>
      <path id="m8bdaf4143f" d="M 0 4.514912 
C 1.197369 4.514912 2.345857 4.039192 3.192525 3.192525 
C 4.039192 2.345857 4.514912 1.197369 4.514912 0 
C 4.514912 -1.197369 4.039192 -2.345857 3.192525 -3.192525 
C 2.345857 -4.039192 1.197369 -4.514912 0 -4.514912 
C -1.197369 -4.514912 -2.345857 -4.039192 -3.192525 -3.192525 
C -4.039192 -2.345857 -4.514912 -1.197369 -4.514912 0 
C -4.514912 1.197369 -4.039192 2.345857 -3.192525 3.192525 
C -2.345857 4.039192 -1.197369 4.514912 0 4.514912 
z
" style="stroke: #ffffff; stroke-width: 0.377815"/>
     </defs>
     <g>
      <use xlink:href="#m8bdaf4143f" x="582.929375" y="182.197812" style="fill: #333333; stroke: #ffffff; stroke-width: 0.377815"/>
     </g>
    </g>
    <g id="text_38">
     <!-- 0.024 -->
     <g transform="translate(600.929375 185.697812) scale(0.1 -0.1)">
      <use xlink:href="#DejaVuSans-30"/>
      <use xlink:href="#DejaVuSans-2e" transform="translate(63.623047 0)"/>
      <use xlink:href="#DejaVuSans-30" transform="translate(95.410156 0)"/>
      <use xlink:href="#DejaVuSans-32" transform="translate(159.033203 0)"/>
      <use xlink:href="#DejaVuSans-34" transform="translate(222.65625 0)"/>
     </g>
    </g>
    <g id="line2d_50">
     <defs>
      <path id="m9ee693c6a4" d="M 0 5.138475 
C 1.362739 5.138475 2.669848 4.597053 3.63345 3.63345 
C 4.597053 2.669848 5.138475 1.362739 5.138475 0 
C 5.138475 -1.362739 4.597053 -2.669848 3.63345 -3.63345 
C 2.669848 -4.597053 1.362739 -5.138475 0 -5.138475 
C -1.362739 -5.138475 -2.669848 -4.597053 -3.63345 -3.63345 
C -4.597053 -2.669848 -5.138475 -1.362739 -5.138475 0 
C -5.138475 1.362739 -4.597053 2.669848 -3.63345 3.63345 
C -2.669848 4.597053 -1.362739 5.138475 0 5.138475 
z
" style="stroke: #ffffff; stroke-width: 0.377815"/>
     </defs>
     <g>
      <use xlink:href="#m9ee693c6a4" x="582.929375" y="196.875937" style="fill: #333333; stroke: #ffffff; stroke-width: 0.377815"/>
     </g>
    </g>
    <g id="text_39">
     <!-- 0.032 -->
     <g transform="translate(600.929375 200.375937) scale(0.1 -0.1)">
      <use xlink:href="#DejaVuSans-30"/>
      <use xlink:href="#DejaVuSans-2e" transform="translate(63.623047 0)"/>
      <use xlink:href="#DejaVuSans-30" transform="translate(95.410156 0)"/>
      <use xlink:href="#DejaVuSans-33" transform="translate(159.033203 0)"/>
      <use xlink:href="#DejaVuSans-32" transform="translate(222.65625 0)"/>
     </g>
    </g>
    <g id="line2d_51">
     <defs>
      <path id="m84a1fb9885" d="M 0 5.694156 
C 1.510108 5.694156 2.958569 5.094184 4.026377 4.026377 
C 5.094184 2.958569 5.694156 1.510108 5.694156 0 
C 5.694156 -1.510108 5.094184 -2.958569 4.026377 -4.026377 
C 2.958569 -5.094184 1.510108 -5.694156 0 -5.694156 
C -1.510108 -5.694156 -2.958569 -5.094184 -4.026377 -4.026377 
C -5.094184 -2.958569 -5.694156 -1.510108 -5.694156 0 
C -5.694156 1.510108 -5.094184 2.958569 -4.026377 4.026377 
C -2.958569 5.094184 -1.510108 5.694156 0 5.694156 
z
" style="stroke: #ffffff; stroke-width: 0.377815"/>
     </defs>
     <g>
      <use xlink:href="#m84a1fb9885" x="582.929375" y="211.554062" style="fill: #333333; stroke: #ffffff; stroke-width: 0.377815"/>
     </g>
    </g>
    <g id="text_40">
     <!-- 0.040 -->
     <g transform="translate(600.929375 215.054062) scale(0.1 -0.1)">
      <use xlink:href="#DejaVuSans-30"/>
      <use xlink:href="#DejaVuSans-2e" transform="translate(63.623047 0)"/>
      <use xlink:href="#DejaVuSans-30" transform="translate(95.410156 0)"/>
      <use xlink:href="#DejaVuSans-34" transform="translate(159.033203 0)"/>
      <use xlink:href="#DejaVuSans-30" transform="translate(222.65625 0)"/>
     </g>
    </g>
   </g>
  </g>
 </g>
 <defs>
  <clipPath id="pf016daf30a">
   <rect x="206.809375" y="22.318125" width="357.12" height="266.112"/>
  </clipPath>
 </defs>
</svg>
