<?xml version="1.0" encoding="utf-8" standalone="no"?>
<!DOCTYPE svg PUBLIC "-//W3C//DTD SVG 1.1//EN"
  "http://www.w3.org/Graphics/SVG/1.1/DTD/svg11.dtd">
<svg xmlns:xlink="http://www.w3.org/1999/xlink" width="515.407812pt" height="281.634375pt" viewBox="0 0 515.407812 281.634375" xmlns="http://www.w3.org/2000/svg" version="1.1">
 <metadata>
  <rdf:RDF xmlns:dc="http://purl.org/dc/elements/1.1/" xmlns:cc="http://creativecommons.org/ns#" xmlns:rdf="http://www.w3.org/1999/02/22-rdf-syntax-ns#">
   <cc:Work>
    <dc:type rdf:resource="http://purl.org/dc/dcmitype/StillImage"/>
    <dc:date>2025-12-10T14:23:14.042661</dc:date>
    <dc:format>image/svg+xml</dc:format>
    <dc:creator>
     <cc:Agent>
      <dc:title>Matplotlib v3.10.7, https://matplotlib.org/</dc:title>
     </cc:Agent>
    </dc:creator>
   </cc:Work>
  </rdf:RDF>
 </metadata>
 <defs>
  <style type="text/css">*{stroke-linejoin: round; stroke-linecap: butt}</style>
 </defs>
 <g id="figure_1">
  <g id="patch_1">
   <path d="M -0 281.634375 
L 515.407813 281.634375 
L 515.407813 0 
L -0 0 
z
" style="fill: #ffffff"/>
  </g>
  <g id="axes_1">
   <g id="patch_2">
    <path d="M 244.56875 244.078125 
L 411.96875 244.078125 
L 411.96875 22.318125 
L 244.56875 22.318125 
z
" style="fill: #ffffff"/>
   </g>
   <g id="PathCollection_1">
    <path d="M 404.359659 34.634193 
C 404.952671 34.634193 405.521475 34.398587 405.940798 33.979264 
C 406.360121 33.559941 406.595727 32.991137 406.595727 32.398125 
C 406.595727 31.805113 406.360121 31.236309 405.940798 30.816986 
C 405.521475 30.397663 404.952671 30.162057 404.359659 30.162057 
C 403.766647 30.162057 403.197843 30.397663 402.77852 30.816986 
C 402.359197 31.236309 402.123591 31.805113 402.123591 32.398125 
C 402.123591 32.991137 402.359197 33.559941 402.77852 33.979264 
C 403.197843 34.398587 403.766647 34.634193 404.359659 34.634193 
z
" clip-path="url(#p22820d3014)" style="fill: #3b4cc0; stroke: #ffffff; stroke-width: 0.523417"/>
    <path d="M 347.577083 46.280005 
C 348.444656 46.280005 349.276812 45.935314 349.890279 45.321848 
C 350.503746 44.708381 350.848436 43.876224 350.848436 43.008651 
C 350.848436 42.141078 350.503746 41.308922 349.890279 40.695455 
C 349.276812 40.081988 348.444656 39.737298 347.577083 39.737298 
C 346.70951 39.737298 345.877353 40.081988 345.263886 40.695455 
C 344.650419 41.308922 344.305729 42.141078 344.305729 43.008651 
C 344.305729 43.876224 344.650419 44.708381 345.263886 45.321848 
C 345.877353 45.935314 346.70951 46.280005 347.577083 46.280005 
z
" clip-path="url(#p22820d3014)" style="fill: #779af7; stroke: #ffffff; stroke-width: 0.523417"/>
    <path d="M 345.147881 56.976547 
C 346.038266 56.976547 346.892303 56.622793 347.5219 55.993196 
C 348.151497 55.363599 348.505251 54.509562 348.505251 53.619178 
C 348.505251 52.728793 348.151497 51.874756 347.5219 51.245159 
C 346.892303 50.615562 346.038266 50.261808 345.147881 50.261808 
C 344.257497 50.261808 343.40346 50.615562 342.773863 51.245159 
C 342.144266 51.874756 341.790512 52.728793 341.790512 53.619178 
C 341.790512 54.509562 342.144266 55.363599 342.773863 55.993196 
C 343.40346 56.622793 344.257497 56.976547 345.147881 56.976547 
z
" clip-path="url(#p22820d3014)" style="fill: #81a4fb; stroke: #ffffff; stroke-width: 0.523417"/>
    <path d="M 331.811896 67.67094 
C 332.724522 67.67094 333.599893 67.30835 334.245217 66.663025 
C 334.890541 66.017701 335.253132 65.14233 335.253132 64.229704 
C 335.253132 63.317077 334.890541 62.441707 334.245217 61.796383 
C 333.599893 61.151058 332.724522 60.788468 331.811896 60.788468 
C 330.899269 60.788468 330.023899 61.151058 329.378574 61.796383 
C 328.73325 62.441707 328.37066 63.317077 328.37066 64.229704 
C 328.37066 65.14233 328.73325 66.017701 329.378574 66.663025 
C 330.023899 67.30835 330.899269 67.67094 331.811896 67.67094 
z
" clip-path="url(#p22820d3014)" style="fill: #7093f3; stroke: #ffffff; stroke-width: 0.523417"/>
    <path d="M 317.029046 78.111584 
C 317.89662 78.111584 318.728776 77.766893 319.342243 77.153427 
C 319.95571 76.53996 320.3004 75.707803 320.3004 74.84023 
C 320.3004 73.972657 319.95571 73.140501 319.342243 72.527034 
C 318.728776 71.913567 317.89662 71.568877 317.029046 71.568877 
C 316.161473 71.568877 315.329317 71.913567 314.71585 72.527034 
C 314.102383 73.140501 313.757693 73.972657 313.757693 74.84023 
C 313.757693 75.707803 314.102383 76.53996 314.71585 77.153427 
C 315.329317 77.766893 316.161473 78.111584 317.029046 78.111584 
z
" clip-path="url(#p22820d3014)" style="fill: #3d50c3; stroke: #ffffff; stroke-width: 0.523417"/>
    <path d="M 316.951797 89.96681 
C 318.149468 89.96681 319.298247 89.49097 320.145129 88.644088 
C 320.99201 87.797207 321.46785 86.648428 321.46785 85.450757 
C 321.46785 84.253085 320.99201 83.104306 320.145129 82.257425 
C 319.298247 81.410543 318.149468 80.934703 316.951797 80.934703 
C 315.754126 80.934703 314.605347 81.410543 313.758465 82.257425 
C 312.911584 83.104306 312.435744 84.253085 312.435744 85.450757 
C 312.435744 86.648428 312.911584 87.797207 313.758465 88.644088 
C 314.605347 89.49097 315.754126 89.96681 316.951797 89.96681 
z
" clip-path="url(#p22820d3014)" style="fill: #f2cbb7; stroke: #ffffff; stroke-width: 0.523417"/>
    <path d="M 309.722032 99.418652 
C 310.612416 99.418652 311.466453 99.064899 312.09605 98.435302 
C 312.725648 97.805704 313.079401 96.951668 313.079401 96.061283 
C 313.079401 95.170898 312.725648 94.316861 312.09605 93.687264 
C 311.466453 93.057667 310.612416 92.703913 309.722032 92.703913 
C 308.831647 92.703913 307.97761 93.057667 307.348013 93.687264 
C 306.718416 94.316861 306.364662 95.170898 306.364662 96.061283 
C 306.364662 96.951668 306.718416 97.805704 307.348013 98.435302 
C 307.97761 99.064899 308.831647 99.418652 309.722032 99.418652 
z
" clip-path="url(#p22820d3014)" style="fill: #3b4cc0; stroke: #ffffff; stroke-width: 0.523417"/>
    <path d="M 304.045548 110.504952 
C 305.062109 110.504952 306.037172 110.101068 306.755989 109.38225 
C 307.474806 108.663433 307.878691 107.688371 307.878691 106.671809 
C 307.878691 105.655248 307.474806 104.680185 306.755989 103.961368 
C 306.037172 103.242551 305.062109 102.838667 304.045548 102.838667 
C 303.028987 102.838667 302.053924 103.242551 301.335107 103.961368 
C 300.616289 104.680185 300.212405 105.655248 300.212405 106.671809 
C 300.212405 107.688371 300.616289 108.663433 301.335107 109.38225 
C 302.053924 110.101068 303.028987 110.504952 304.045548 110.504952 
z
" clip-path="url(#p22820d3014)" style="fill: #6485ec; stroke: #ffffff; stroke-width: 0.523417"/>
    <path d="M 292.51519 120.963725 
C 293.491506 120.963725 294.427966 120.575831 295.118326 119.885471 
C 295.808686 119.195112 296.19658 118.258652 296.19658 117.282336 
C 296.19658 116.30602 295.808686 115.369559 295.118326 114.6792 
C 294.427966 113.98884 293.491506 113.600946 292.51519 113.600946 
C 291.538874 113.600946 290.602414 113.98884 289.912055 114.6792 
C 289.221695 115.369559 288.8338 116.30602 288.8338 117.282336 
C 288.8338 118.258652 289.221695 119.195112 289.912055 119.885471 
C 290.602414 120.575831 291.538874 120.963725 292.51519 120.963725 
z
" clip-path="url(#p22820d3014)" style="fill: #3b4cc0; stroke: #ffffff; stroke-width: 0.523417"/>
    <path d="M 289.450958 132.654735 
C 290.713822 132.654735 291.925132 132.152994 292.818111 131.260015 
C 293.711091 130.367035 294.212832 129.155725 294.212832 127.892862 
C 294.212832 126.629998 293.711091 125.418688 292.818111 124.525709 
C 291.925132 123.632729 290.713822 123.130988 289.450958 123.130988 
C 288.188095 123.130988 286.976785 123.632729 286.083805 124.525709 
C 285.190826 125.418688 284.689085 126.629998 284.689085 127.892862 
C 284.689085 129.155725 285.190826 130.367035 286.083805 131.260015 
C 286.976785 132.152994 288.188095 132.654735 289.450958 132.654735 
z
" clip-path="url(#p22820d3014)" style="fill: #cad8ef; stroke: #ffffff; stroke-width: 0.523417"/>
    <path d="M 288.294644 143.499 
C 289.619496 143.499 290.890264 142.972631 291.827076 142.035819 
C 292.763887 141.099008 293.290256 139.82824 293.290256 138.503388 
C 293.290256 137.178536 292.763887 135.907769 291.827076 134.970957 
C 290.890264 134.034145 289.619496 133.507776 288.294644 133.507776 
C 286.969792 133.507776 285.699025 134.034145 284.762213 134.970957 
C 283.825401 135.907769 283.299032 137.178536 283.299032 138.503388 
C 283.299032 139.82824 283.825401 141.099008 284.762213 142.035819 
C 285.699025 142.972631 286.969792 143.499 288.294644 143.499 
z
" clip-path="url(#p22820d3014)" style="fill: #e1dad6; stroke: #ffffff; stroke-width: 0.523417"/>
    <path d="M 288.129133 153.994057 
C 289.423362 153.994057 290.664756 153.479854 291.579914 152.564696 
C 292.495072 151.649538 293.009275 150.408143 293.009275 149.113914 
C 293.009275 147.819686 292.495072 146.578291 291.579914 145.663133 
C 290.664756 144.747975 289.423362 144.233772 288.129133 144.233772 
C 286.834904 144.233772 285.593509 144.747975 284.678351 145.663133 
C 283.763193 146.578291 283.24899 147.819686 283.24899 149.113914 
C 283.24899 150.408143 283.763193 151.649538 284.678351 152.564696 
C 285.593509 153.479854 286.834904 153.994057 288.129133 153.994057 
z
" clip-path="url(#p22820d3014)" style="fill: #d4dbe6; stroke: #ffffff; stroke-width: 0.523417"/>
    <path d="M 282.61745 165.754337 
C 284.216597 165.754337 285.750462 165.118989 286.88123 163.988221 
C 288.011998 162.857454 288.647346 161.323588 288.647346 159.724441 
C 288.647346 158.125294 288.011998 156.591428 286.88123 155.46066 
C 285.750462 154.329892 284.216597 153.694545 282.61745 153.694545 
C 281.018303 153.694545 279.484437 154.329892 278.353669 155.46066 
C 277.222901 156.591428 276.587553 158.125294 276.587553 159.724441 
C 276.587553 161.323588 277.222901 162.857454 278.353669 163.988221 
C 279.484437 165.118989 281.018303 165.754337 282.61745 165.754337 
z
" clip-path="url(#p22820d3014)" style="fill: #b40426; stroke: #ffffff; stroke-width: 0.523417"/>
    <path d="M 277.263672 174.657491 
C 278.410019 174.657491 279.509568 174.202042 280.320158 173.391453 
C 281.130747 172.580863 281.586195 171.481314 281.586195 170.334967 
C 281.586195 169.18862 281.130747 168.089071 280.320158 167.278481 
C 279.509568 166.467892 278.410019 166.012443 277.263672 166.012443 
C 276.117325 166.012443 275.017776 166.467892 274.207186 167.278481 
C 273.396597 168.089071 272.941148 169.18862 272.941148 170.334967 
C 272.941148 171.481314 273.396597 172.580863 274.207186 173.391453 
C 275.017776 174.202042 276.117325 174.657491 277.263672 174.657491 
z
" clip-path="url(#p22820d3014)" style="fill: #516ddb; stroke: #ffffff; stroke-width: 0.523417"/>
    <path d="M 275.308349 185.201552 
C 276.437069 185.201552 277.519711 184.753107 278.317837 183.954981 
C 279.115962 183.156856 279.564408 182.074213 279.564408 180.945493 
C 279.564408 179.816773 279.115962 178.734131 278.317837 177.936006 
C 277.519711 177.13788 276.437069 176.689435 275.308349 176.689435 
C 274.179629 176.689435 273.096987 177.13788 272.298861 177.936006 
C 271.500736 178.734131 271.05229 179.816773 271.05229 180.945493 
C 271.05229 182.074213 271.500736 183.156856 272.298861 183.954981 
C 273.096987 184.753107 274.179629 185.201552 275.308349 185.201552 
z
" clip-path="url(#p22820d3014)" style="fill: #455cce; stroke: #ffffff; stroke-width: 0.523417"/>
    <path d="M 271.544352 196.883045 
C 272.957096 196.883045 274.312167 196.321756 275.311128 195.322795 
C 276.310088 194.323835 276.871377 192.968763 276.871377 191.55602 
C 276.871377 190.143276 276.310088 188.788205 275.311128 187.789244 
C 274.312167 186.790284 272.957096 186.228995 271.544352 186.228995 
C 270.131609 186.228995 268.776538 186.790284 267.777577 187.789244 
C 266.778617 188.788205 266.217328 190.143276 266.217328 191.55602 
C 266.217328 192.968763 266.778617 194.323835 267.777577 195.322795 
C 268.776538 196.321756 270.131609 196.883045 271.544352 196.883045 
z
" clip-path="url(#p22820d3014)" style="fill: #cbd8ee; stroke: #ffffff; stroke-width: 0.523417"/>
    <path d="M 265.124708 206.619024 
C 266.305519 206.619024 267.438126 206.149883 268.273086 205.314924 
C 269.108045 204.479964 269.577186 203.347357 269.577186 202.166546 
C 269.577186 200.985735 269.108045 199.853128 268.273086 199.018169 
C 267.438126 198.183209 266.305519 197.714068 265.124708 197.714068 
C 263.943897 197.714068 262.81129 198.183209 261.976331 199.018169 
C 261.141371 199.853128 260.67223 200.985735 260.67223 202.166546 
C 260.67223 203.347357 261.141371 204.479964 261.976331 205.314924 
C 262.81129 206.149883 263.943897 206.619024 265.124708 206.619024 
z
" clip-path="url(#p22820d3014)" style="fill: #3d50c3; stroke: #ffffff; stroke-width: 0.523417"/>
    <path d="M 263.652102 217.355818 
C 264.866399 217.355818 266.031126 216.873373 266.889764 216.014735 
C 267.748402 215.156096 268.230847 213.99137 268.230847 212.777072 
C 268.230847 211.562775 267.748402 210.398048 266.889764 209.53941 
C 266.031126 208.680772 264.866399 208.198327 263.652102 208.198327 
C 262.437804 208.198327 261.273077 208.680772 260.414439 209.53941 
C 259.555801 210.398048 259.073356 211.562775 259.073356 212.777072 
C 259.073356 213.99137 259.555801 215.156096 260.414439 216.014735 
C 261.273077 216.873373 262.437804 217.355818 263.652102 217.355818 
z
" clip-path="url(#p22820d3014)" style="fill: #455cce; stroke: #ffffff; stroke-width: 0.523417"/>
    <path d="M 262.806503 229.511323 
C 264.430534 229.511323 265.988267 228.866089 267.13663 227.717726 
C 268.284993 226.569363 268.930228 225.011629 268.930228 223.387599 
C 268.930228 221.763568 268.284993 220.205835 267.13663 219.057472 
C 265.988267 217.909109 264.430534 217.263874 262.806503 217.263874 
C 261.182473 217.263874 259.624739 217.909109 258.476376 219.057472 
C 257.328013 220.205835 256.682779 221.763568 256.682779 223.387599 
C 256.682779 225.011629 257.328013 226.569363 258.476376 227.717726 
C 259.624739 228.866089 261.182473 229.511323 262.806503 229.511323 
z
" clip-path="url(#p22820d3014)" style="fill: #f6bfa6; stroke: #ffffff; stroke-width: 0.523417"/>
    <path d="M 252.177841 238.878267 
C 253.47207 238.878267 254.713465 238.364065 255.628623 237.448907 
C 256.543781 236.533749 257.057983 235.292354 257.057983 233.998125 
C 257.057983 232.703896 256.543781 231.462501 255.628623 230.547343 
C 254.713465 229.632185 253.47207 229.117983 252.177841 229.117983 
C 250.883612 229.117983 249.642217 229.632185 248.727059 230.547343 
C 247.811901 231.462501 247.297699 232.703896 247.297699 233.998125 
C 247.297699 235.292354 247.811901 236.533749 248.727059 237.448907 
C 249.642217 238.364065 250.883612 238.878267 252.177841 238.878267 
z
" clip-path="url(#p22820d3014)" style="fill: #3c4ec2; stroke: #ffffff; stroke-width: 0.523417"/>
   </g>
   <g id="matplotlib.axis_1">
    <g id="xtick_1">
     <g id="line2d_1">
      <defs>
       <path id="mff41730104" d="M 0 0 
L 0 3.5 
" style="stroke: #000000; stroke-width: 0.8"/>
      </defs>
      <g>
       <use xlink:href="#mff41730104" x="286.23222" y="244.078125" style="stroke: #000000; stroke-width: 0.8"/>
      </g>
     </g>
     <g id="text_1">
      <!-- 2.5 -->
      <g transform="translate(278.280658 258.676562) scale(0.1 -0.1)">
       <defs>
        <path id="DejaVuSans-32" d="M 1228 531 
L 3431 531 
L 3431 0 
L 469 0 
L 469 531 
Q 828 903 1448 1529 
Q 2069 2156 2228 2338 
Q 2531 2678 2651 2914 
Q 2772 3150 2772 3378 
Q 2772 3750 2511 3984 
Q 2250 4219 1831 4219 
Q 1534 4219 1204 4116 
Q 875 4013 500 3803 
L 500 4441 
Q 881 4594 1212 4672 
Q 1544 4750 1819 4750 
Q 2544 4750 2975 4387 
Q 3406 4025 3406 3419 
Q 3406 3131 3298 2873 
Q 3191 2616 2906 2266 
Q 2828 2175 2409 1742 
Q 1991 1309 1228 531 
z
" transform="scale(0.015625)"/>
        <path id="DejaVuSans-2e" d="M 684 794 
L 1344 794 
L 1344 0 
L 684 0 
L 684 794 
z
" transform="scale(0.015625)"/>
        <path id="DejaVuSans-35" d="M 691 4666 
L 3169 4666 
L 3169 4134 
L 1269 4134 
L 1269 2991 
Q 1406 3038 1543 3061 
Q 1681 3084 1819 3084 
Q 2600 3084 3056 2656 
Q 3513 2228 3513 1497 
Q 3513 744 3044 326 
Q 2575 -91 1722 -91 
Q 1428 -91 1123 -41 
Q 819 9 494 109 
L 494 744 
Q 775 591 1075 516 
Q 1375 441 1709 441 
Q 2250 441 2565 725 
Q 2881 1009 2881 1497 
Q 2881 1984 2565 2268 
Q 2250 2553 1709 2553 
Q 1456 2553 1204 2497 
Q 953 2441 691 2322 
L 691 4666 
z
" transform="scale(0.015625)"/>
       </defs>
       <use xlink:href="#DejaVuSans-32"/>
       <use xlink:href="#DejaVuSans-2e" transform="translate(63.623047 0)"/>
       <use xlink:href="#DejaVuSans-35" transform="translate(95.410156 0)"/>
      </g>
     </g>
    </g>
    <g id="xtick_2">
     <g id="line2d_2">
      <g>
       <use xlink:href="#mff41730104" x="329.713414" y="244.078125" style="stroke: #000000; stroke-width: 0.8"/>
      </g>
     </g>
     <g id="text_2">
      <!-- 3.0 -->
      <g transform="translate(321.761851 258.676562) scale(0.1 -0.1)">
       <defs>
        <path id="DejaVuSans-33" d="M 2597 2516 
Q 3050 2419 3304 2112 
Q 3559 1806 3559 1356 
Q 3559 666 3084 287 
Q 2609 -91 1734 -91 
Q 1441 -91 1130 -33 
Q 819 25 488 141 
L 488 750 
Q 750 597 1062 519 
Q 1375 441 1716 441 
Q 2309 441 2620 675 
Q 2931 909 2931 1356 
Q 2931 1769 2642 2001 
Q 2353 2234 1838 2234 
L 1294 2234 
L 1294 2753 
L 1863 2753 
Q 2328 2753 2575 2939 
Q 2822 3125 2822 3475 
Q 2822 3834 2567 4026 
Q 2313 4219 1838 4219 
Q 1578 4219 1281 4162 
Q 984 4106 628 3988 
L 628 4550 
Q 988 4650 1302 4700 
Q 1616 4750 1894 4750 
Q 2613 4750 3031 4423 
Q 3450 4097 3450 3541 
Q 3450 3153 3228 2886 
Q 3006 2619 2597 2516 
z
" transform="scale(0.015625)"/>
        <path id="DejaVuSans-30" d="M 2034 4250 
Q 1547 4250 1301 3770 
Q 1056 3291 1056 2328 
Q 1056 1369 1301 889 
Q 1547 409 2034 409 
Q 2525 409 2770 889 
Q 3016 1369 3016 2328 
Q 3016 3291 2770 3770 
Q 2525 4250 2034 4250 
z
M 2034 4750 
Q 2819 4750 3233 4129 
Q 3647 3509 3647 2328 
Q 3647 1150 3233 529 
Q 2819 -91 2034 -91 
Q 1250 -91 836 529 
Q 422 1150 422 2328 
Q 422 3509 836 4129 
Q 1250 4750 2034 4750 
z
" transform="scale(0.015625)"/>
       </defs>
       <use xlink:href="#DejaVuSans-33"/>
       <use xlink:href="#DejaVuSans-2e" transform="translate(63.623047 0)"/>
       <use xlink:href="#DejaVuSans-30" transform="translate(95.410156 0)"/>
      </g>
     </g>
    </g>
    <g id="xtick_3">
     <g id="line2d_3">
      <g>
       <use xlink:href="#mff41730104" x="373.194607" y="244.078125" style="stroke: #000000; stroke-width: 0.8"/>
      </g>
     </g>
     <g id="text_3">
      <!-- 3.5 -->
      <g transform="translate(365.243045 258.676562) scale(0.1 -0.1)">
       <use xlink:href="#DejaVuSans-33"/>
       <use xlink:href="#DejaVuSans-2e" transform="translate(63.623047 0)"/>
       <use xlink:href="#DejaVuSans-35" transform="translate(95.410156 0)"/>
      </g>
     </g>
    </g>
    <g id="text_4">
     <!-- Fold Enrichment -->
     <g transform="translate(287.596094 272.354687) scale(0.1 -0.1)">
      <defs>
       <path id="DejaVuSans-46" d="M 628 4666 
L 3309 4666 
L 3309 4134 
L 1259 4134 
L 1259 2759 
L 3109 2759 
L 3109 2228 
L 1259 2228 
L 1259 0 
L 628 0 
L 628 4666 
z
" transform="scale(0.015625)"/>
       <path id="DejaVuSans-6f" d="M 1959 3097 
Q 1497 3097 1228 2736 
Q 959 2375 959 1747 
Q 959 1119 1226 758 
Q 1494 397 1959 397 
Q 2419 397 2687 759 
Q 2956 1122 2956 1747 
Q 2956 2369 2687 2733 
Q 2419 3097 1959 3097 
z
M 1959 3584 
Q 2709 3584 3137 3096 
Q 3566 2609 3566 1747 
Q 3566 888 3137 398 
Q 2709 -91 1959 -91 
Q 1206 -91 779 398 
Q 353 888 353 1747 
Q 353 2609 779 3096 
Q 1206 3584 1959 3584 
z
" transform="scale(0.015625)"/>
       <path id="DejaVuSans-6c" d="M 603 4863 
L 1178 4863 
L 1178 0 
L 603 0 
L 603 4863 
z
" transform="scale(0.015625)"/>
       <path id="DejaVuSans-64" d="M 2906 2969 
L 2906 4863 
L 3481 4863 
L 3481 0 
L 2906 0 
L 2906 525 
Q 2725 213 2448 61 
Q 2172 -91 1784 -91 
Q 1150 -91 751 415 
Q 353 922 353 1747 
Q 353 2572 751 3078 
Q 1150 3584 1784 3584 
Q 2172 3584 2448 3432 
Q 2725 3281 2906 2969 
z
M 947 1747 
Q 947 1113 1208 752 
Q 1469 391 1925 391 
Q 2381 391 2643 752 
Q 2906 1113 2906 1747 
Q 2906 2381 2643 2742 
Q 2381 3103 1925 3103 
Q 1469 3103 1208 2742 
Q 947 2381 947 1747 
z
" transform="scale(0.015625)"/>
       <path id="DejaVuSans-20" transform="scale(0.015625)"/>
       <path id="DejaVuSans-45" d="M 628 4666 
L 3578 4666 
L 3578 4134 
L 1259 4134 
L 1259 2753 
L 3481 2753 
L 3481 2222 
L 1259 2222 
L 1259 531 
L 3634 531 
L 3634 0 
L 628 0 
L 628 4666 
z
" transform="scale(0.015625)"/>
       <path id="DejaVuSans-6e" d="M 3513 2113 
L 3513 0 
L 2938 0 
L 2938 2094 
Q 2938 2591 2744 2837 
Q 2550 3084 2163 3084 
Q 1697 3084 1428 2787 
Q 1159 2491 1159 1978 
L 1159 0 
L 581 0 
L 581 3500 
L 1159 3500 
L 1159 2956 
Q 1366 3272 1645 3428 
Q 1925 3584 2291 3584 
Q 2894 3584 3203 3211 
Q 3513 2838 3513 2113 
z
" transform="scale(0.015625)"/>
       <path id="DejaVuSans-72" d="M 2631 2963 
Q 2534 3019 2420 3045 
Q 2306 3072 2169 3072 
Q 1681 3072 1420 2755 
Q 1159 2438 1159 1844 
L 1159 0 
L 581 0 
L 581 3500 
L 1159 3500 
L 1159 2956 
Q 1341 3275 1631 3429 
Q 1922 3584 2338 3584 
Q 2397 3584 2469 3576 
Q 2541 3569 2628 3553 
L 2631 2963 
z
" transform="scale(0.015625)"/>
       <path id="DejaVuSans-69" d="M 603 3500 
L 1178 3500 
L 1178 0 
L 603 0 
L 603 3500 
z
M 603 4863 
L 1178 4863 
L 1178 4134 
L 603 4134 
L 603 4863 
z
" transform="scale(0.015625)"/>
       <path id="DejaVuSans-63" d="M 3122 3366 
L 3122 2828 
Q 2878 2963 2633 3030 
Q 2388 3097 2138 3097 
Q 1578 3097 1268 2742 
Q 959 2388 959 1747 
Q 959 1106 1268 751 
Q 1578 397 2138 397 
Q 2388 397 2633 464 
Q 2878 531 3122 666 
L 3122 134 
Q 2881 22 2623 -34 
Q 2366 -91 2075 -91 
Q 1284 -91 818 406 
Q 353 903 353 1747 
Q 353 2603 823 3093 
Q 1294 3584 2113 3584 
Q 2378 3584 2631 3529 
Q 2884 3475 3122 3366 
z
" transform="scale(0.015625)"/>
       <path id="DejaVuSans-68" d="M 3513 2113 
L 3513 0 
L 2938 0 
L 2938 2094 
Q 2938 2591 2744 2837 
Q 2550 3084 2163 3084 
Q 1697 3084 1428 2787 
Q 1159 2491 1159 1978 
L 1159 0 
L 581 0 
L 581 4863 
L 1159 4863 
L 1159 2956 
Q 1366 3272 1645 3428 
Q 1925 3584 2291 3584 
Q 2894 3584 3203 3211 
Q 3513 2838 3513 2113 
z
" transform="scale(0.015625)"/>
       <path id="DejaVuSans-6d" d="M 3328 2828 
Q 3544 3216 3844 3400 
Q 4144 3584 4550 3584 
Q 5097 3584 5394 3201 
Q 5691 2819 5691 2113 
L 5691 0 
L 5113 0 
L 5113 2094 
Q 5113 2597 4934 2840 
Q 4756 3084 4391 3084 
Q 3944 3084 3684 2787 
Q 3425 2491 3425 1978 
L 3425 0 
L 2847 0 
L 2847 2094 
Q 2847 2600 2669 2842 
Q 2491 3084 2119 3084 
Q 1678 3084 1418 2786 
Q 1159 2488 1159 1978 
L 1159 0 
L 581 0 
L 581 3500 
L 1159 3500 
L 1159 2956 
Q 1356 3278 1631 3431 
Q 1906 3584 2284 3584 
Q 2666 3584 2933 3390 
Q 3200 3197 3328 2828 
z
" transform="scale(0.015625)"/>
       <path id="DejaVuSans-65" d="M 3597 1894 
L 3597 1613 
L 953 1613 
Q 991 1019 1311 708 
Q 1631 397 2203 397 
Q 2534 397 2845 478 
Q 3156 559 3463 722 
L 3463 178 
Q 3153 47 2828 -22 
Q 2503 -91 2169 -91 
Q 1331 -91 842 396 
Q 353 884 353 1716 
Q 353 2575 817 3079 
Q 1281 3584 2069 3584 
Q 2775 3584 3186 3129 
Q 3597 2675 3597 1894 
z
M 3022 2063 
Q 3016 2534 2758 2815 
Q 2500 3097 2075 3097 
Q 1594 3097 1305 2825 
Q 1016 2553 972 2059 
L 3022 2063 
z
" transform="scale(0.015625)"/>
       <path id="DejaVuSans-74" d="M 1172 4494 
L 1172 3500 
L 2356 3500 
L 2356 3053 
L 1172 3053 
L 1172 1153 
Q 1172 725 1289 603 
Q 1406 481 1766 481 
L 2356 481 
L 2356 0 
L 1766 0 
Q 1100 0 847 248 
Q 594 497 594 1153 
L 594 3053 
L 172 3053 
L 172 3500 
L 594 3500 
L 594 4494 
L 1172 4494 
z
" transform="scale(0.015625)"/>
      </defs>
      <use xlink:href="#DejaVuSans-46"/>
      <use xlink:href="#DejaVuSans-6f" transform="translate(53.894531 0)"/>
      <use xlink:href="#DejaVuSans-6c" transform="translate(115.076172 0)"/>
      <use xlink:href="#DejaVuSans-64" transform="translate(142.859375 0)"/>
      <use xlink:href="#DejaVuSans-20" transform="translate(206.335938 0)"/>
      <use xlink:href="#DejaVuSans-45" transform="translate(238.123047 0)"/>
      <use xlink:href="#DejaVuSans-6e" transform="translate(301.306641 0)"/>
      <use xlink:href="#DejaVuSans-72" transform="translate(364.685547 0)"/>
      <use xlink:href="#DejaVuSans-69" transform="translate(405.798828 0)"/>
      <use xlink:href="#DejaVuSans-63" transform="translate(433.582031 0)"/>
      <use xlink:href="#DejaVuSans-68" transform="translate(488.5625 0)"/>
      <use xlink:href="#DejaVuSans-6d" transform="translate(551.941406 0)"/>
      <use xlink:href="#DejaVuSans-65" transform="translate(649.353516 0)"/>
      <use xlink:href="#DejaVuSans-6e" transform="translate(710.876953 0)"/>
      <use xlink:href="#DejaVuSans-74" transform="translate(774.255859 0)"/>
     </g>
    </g>
   </g>
   <g id="matplotlib.axis_2">
    <g id="ytick_1">
     <g id="line2d_4">
      <defs>
       <path id="m2ccfb37293" d="M 0 0 
L -3.5 0 
" style="stroke: #000000; stroke-width: 0.8"/>
      </defs>
      <g>
       <use xlink:href="#m2ccfb37293" x="244.56875" y="32.398125" style="stroke: #000000; stroke-width: 0.8"/>
      </g>
     </g>
     <g id="text_5">
      <!-- regulation of synapse assembly -->
      <g transform="translate(78.81875 36.197344) scale(0.1 -0.1)">
       <defs>
        <path id="DejaVuSans-67" d="M 2906 1791 
Q 2906 2416 2648 2759 
Q 2391 3103 1925 3103 
Q 1463 3103 1205 2759 
Q 947 2416 947 1791 
Q 947 1169 1205 825 
Q 1463 481 1925 481 
Q 2391 481 2648 825 
Q 2906 1169 2906 1791 
z
M 3481 434 
Q 3481 -459 3084 -895 
Q 2688 -1331 1869 -1331 
Q 1566 -1331 1297 -1286 
Q 1028 -1241 775 -1147 
L 775 -588 
Q 1028 -725 1275 -790 
Q 1522 -856 1778 -856 
Q 2344 -856 2625 -561 
Q 2906 -266 2906 331 
L 2906 616 
Q 2728 306 2450 153 
Q 2172 0 1784 0 
Q 1141 0 747 490 
Q 353 981 353 1791 
Q 353 2603 747 3093 
Q 1141 3584 1784 3584 
Q 2172 3584 2450 3431 
Q 2728 3278 2906 2969 
L 2906 3500 
L 3481 3500 
L 3481 434 
z
" transform="scale(0.015625)"/>
        <path id="DejaVuSans-75" d="M 544 1381 
L 544 3500 
L 1119 3500 
L 1119 1403 
Q 1119 906 1312 657 
Q 1506 409 1894 409 
Q 2359 409 2629 706 
Q 2900 1003 2900 1516 
L 2900 3500 
L 3475 3500 
L 3475 0 
L 2900 0 
L 2900 538 
Q 2691 219 2414 64 
Q 2138 -91 1772 -91 
Q 1169 -91 856 284 
Q 544 659 544 1381 
z
M 1991 3584 
L 1991 3584 
z
" transform="scale(0.015625)"/>
        <path id="DejaVuSans-61" d="M 2194 1759 
Q 1497 1759 1228 1600 
Q 959 1441 959 1056 
Q 959 750 1161 570 
Q 1363 391 1709 391 
Q 2188 391 2477 730 
Q 2766 1069 2766 1631 
L 2766 1759 
L 2194 1759 
z
M 3341 1997 
L 3341 0 
L 2766 0 
L 2766 531 
Q 2569 213 2275 61 
Q 1981 -91 1556 -91 
Q 1019 -91 701 211 
Q 384 513 384 1019 
Q 384 1609 779 1909 
Q 1175 2209 1959 2209 
L 2766 2209 
L 2766 2266 
Q 2766 2663 2505 2880 
Q 2244 3097 1772 3097 
Q 1472 3097 1187 3025 
Q 903 2953 641 2809 
L 641 3341 
Q 956 3463 1253 3523 
Q 1550 3584 1831 3584 
Q 2591 3584 2966 3190 
Q 3341 2797 3341 1997 
z
" transform="scale(0.015625)"/>
        <path id="DejaVuSans-66" d="M 2375 4863 
L 2375 4384 
L 1825 4384 
Q 1516 4384 1395 4259 
Q 1275 4134 1275 3809 
L 1275 3500 
L 2222 3500 
L 2222 3053 
L 1275 3053 
L 1275 0 
L 697 0 
L 697 3053 
L 147 3053 
L 147 3500 
L 697 3500 
L 697 3744 
Q 697 4328 969 4595 
Q 1241 4863 1831 4863 
L 2375 4863 
z
" transform="scale(0.015625)"/>
        <path id="DejaVuSans-73" d="M 2834 3397 
L 2834 2853 
Q 2591 2978 2328 3040 
Q 2066 3103 1784 3103 
Q 1356 3103 1142 2972 
Q 928 2841 928 2578 
Q 928 2378 1081 2264 
Q 1234 2150 1697 2047 
L 1894 2003 
Q 2506 1872 2764 1633 
Q 3022 1394 3022 966 
Q 3022 478 2636 193 
Q 2250 -91 1575 -91 
Q 1294 -91 989 -36 
Q 684 19 347 128 
L 347 722 
Q 666 556 975 473 
Q 1284 391 1588 391 
Q 1994 391 2212 530 
Q 2431 669 2431 922 
Q 2431 1156 2273 1281 
Q 2116 1406 1581 1522 
L 1381 1569 
Q 847 1681 609 1914 
Q 372 2147 372 2553 
Q 372 3047 722 3315 
Q 1072 3584 1716 3584 
Q 2034 3584 2315 3537 
Q 2597 3491 2834 3397 
z
" transform="scale(0.015625)"/>
        <path id="DejaVuSans-79" d="M 2059 -325 
Q 1816 -950 1584 -1140 
Q 1353 -1331 966 -1331 
L 506 -1331 
L 506 -850 
L 844 -850 
Q 1081 -850 1212 -737 
Q 1344 -625 1503 -206 
L 1606 56 
L 191 3500 
L 800 3500 
L 1894 763 
L 2988 3500 
L 3597 3500 
L 2059 -325 
z
" transform="scale(0.015625)"/>
        <path id="DejaVuSans-70" d="M 1159 525 
L 1159 -1331 
L 581 -1331 
L 581 3500 
L 1159 3500 
L 1159 2969 
Q 1341 3281 1617 3432 
Q 1894 3584 2278 3584 
Q 2916 3584 3314 3078 
Q 3713 2572 3713 1747 
Q 3713 922 3314 415 
Q 2916 -91 2278 -91 
Q 1894 -91 1617 61 
Q 1341 213 1159 525 
z
M 3116 1747 
Q 3116 2381 2855 2742 
Q 2594 3103 2138 3103 
Q 1681 3103 1420 2742 
Q 1159 2381 1159 1747 
Q 1159 1113 1420 752 
Q 1681 391 2138 391 
Q 2594 391 2855 752 
Q 3116 1113 3116 1747 
z
" transform="scale(0.015625)"/>
        <path id="DejaVuSans-62" d="M 3116 1747 
Q 3116 2381 2855 2742 
Q 2594 3103 2138 3103 
Q 1681 3103 1420 2742 
Q 1159 2381 1159 1747 
Q 1159 1113 1420 752 
Q 1681 391 2138 391 
Q 2594 391 2855 752 
Q 3116 1113 3116 1747 
z
M 1159 2969 
Q 1341 3281 1617 3432 
Q 1894 3584 2278 3584 
Q 2916 3584 3314 3078 
Q 3713 2572 3713 1747 
Q 3713 922 3314 415 
Q 2916 -91 2278 -91 
Q 1894 -91 1617 61 
Q 1341 213 1159 525 
L 1159 0 
L 581 0 
L 581 4863 
L 1159 4863 
L 1159 2969 
z
" transform="scale(0.015625)"/>
       </defs>
       <use xlink:href="#DejaVuSans-72"/>
       <use xlink:href="#DejaVuSans-65" transform="translate(38.863281 0)"/>
       <use xlink:href="#DejaVuSans-67" transform="translate(100.386719 0)"/>
       <use xlink:href="#DejaVuSans-75" transform="translate(163.863281 0)"/>
       <use xlink:href="#DejaVuSans-6c" transform="translate(227.242188 0)"/>
       <use xlink:href="#DejaVuSans-61" transform="translate(255.025391 0)"/>
       <use xlink:href="#DejaVuSans-74" transform="translate(316.304688 0)"/>
       <use xlink:href="#DejaVuSans-69" transform="translate(355.513672 0)"/>
       <use xlink:href="#DejaVuSans-6f" transform="translate(383.296875 0)"/>
       <use xlink:href="#DejaVuSans-6e" transform="translate(444.478516 0)"/>
       <use xlink:href="#DejaVuSans-20" transform="translate(507.857422 0)"/>
       <use xlink:href="#DejaVuSans-6f" transform="translate(539.644531 0)"/>
       <use xlink:href="#DejaVuSans-66" transform="translate(600.826172 0)"/>
       <use xlink:href="#DejaVuSans-20" transform="translate(636.03125 0)"/>
       <use xlink:href="#DejaVuSans-73" transform="translate(667.818359 0)"/>
       <use xlink:href="#DejaVuSans-79" transform="translate(719.917969 0)"/>
       <use xlink:href="#DejaVuSans-6e" transform="translate(779.097656 0)"/>
       <use xlink:href="#DejaVuSans-61" transform="translate(842.476562 0)"/>
       <use xlink:href="#DejaVuSans-70" transform="translate(903.755859 0)"/>
       <use xlink:href="#DejaVuSans-73" transform="translate(967.232422 0)"/>
       <use xlink:href="#DejaVuSans-65" transform="translate(1019.332031 0)"/>
       <use xlink:href="#DejaVuSans-20" transform="translate(1080.855469 0)"/>
       <use xlink:href="#DejaVuSans-61" transform="translate(1112.642578 0)"/>
       <use xlink:href="#DejaVuSans-73" transform="translate(1173.921875 0)"/>
       <use xlink:href="#DejaVuSans-73" transform="translate(1226.021484 0)"/>
       <use xlink:href="#DejaVuSans-65" transform="translate(1278.121094 0)"/>
       <use xlink:href="#DejaVuSans-6d" transform="translate(1339.644531 0)"/>
       <use xlink:href="#DejaVuSans-62" transform="translate(1437.056641 0)"/>
       <use xlink:href="#DejaVuSans-6c" transform="translate(1500.533203 0)"/>
       <use xlink:href="#DejaVuSans-79" transform="translate(1528.316406 0)"/>
      </g>
     </g>
    </g>
    <g id="ytick_2">
     <g id="line2d_5">
      <g>
       <use xlink:href="#m2ccfb37293" x="244.56875" y="43.008651" style="stroke: #000000; stroke-width: 0.8"/>
      </g>
     </g>
     <g id="text_6">
      <!-- learning -->
      <g transform="translate(196.771875 46.80787) scale(0.1 -0.1)">
       <use xlink:href="#DejaVuSans-6c"/>
       <use xlink:href="#DejaVuSans-65" transform="translate(27.783203 0)"/>
       <use xlink:href="#DejaVuSans-61" transform="translate(89.306641 0)"/>
       <use xlink:href="#DejaVuSans-72" transform="translate(150.585938 0)"/>
       <use xlink:href="#DejaVuSans-6e" transform="translate(189.949219 0)"/>
       <use xlink:href="#DejaVuSans-69" transform="translate(253.328125 0)"/>
       <use xlink:href="#DejaVuSans-6e" transform="translate(281.111328 0)"/>
       <use xlink:href="#DejaVuSans-67" transform="translate(344.490234 0)"/>
      </g>
     </g>
    </g>
    <g id="ytick_3">
     <g id="line2d_6">
      <g>
       <use xlink:href="#m2ccfb37293" x="244.56875" y="53.619178" style="stroke: #000000; stroke-width: 0.8"/>
      </g>
     </g>
     <g id="text_7">
      <!-- regulation of circadian rhythm -->
      <g transform="translate(86.0375 57.418396) scale(0.1 -0.1)">
       <use xlink:href="#DejaVuSans-72"/>
       <use xlink:href="#DejaVuSans-65" transform="translate(38.863281 0)"/>
       <use xlink:href="#DejaVuSans-67" transform="translate(100.386719 0)"/>
       <use xlink:href="#DejaVuSans-75" transform="translate(163.863281 0)"/>
       <use xlink:href="#DejaVuSans-6c" transform="translate(227.242188 0)"/>
       <use xlink:href="#DejaVuSans-61" transform="translate(255.025391 0)"/>
       <use xlink:href="#DejaVuSans-74" transform="translate(316.304688 0)"/>
       <use xlink:href="#DejaVuSans-69" transform="translate(355.513672 0)"/>
       <use xlink:href="#DejaVuSans-6f" transform="translate(383.296875 0)"/>
       <use xlink:href="#DejaVuSans-6e" transform="translate(444.478516 0)"/>
       <use xlink:href="#DejaVuSans-20" transform="translate(507.857422 0)"/>
       <use xlink:href="#DejaVuSans-6f" transform="translate(539.644531 0)"/>
       <use xlink:href="#DejaVuSans-66" transform="translate(600.826172 0)"/>
       <use xlink:href="#DejaVuSans-20" transform="translate(636.03125 0)"/>
       <use xlink:href="#DejaVuSans-63" transform="translate(667.818359 0)"/>
       <use xlink:href="#DejaVuSans-69" transform="translate(722.798828 0)"/>
       <use xlink:href="#DejaVuSans-72" transform="translate(750.582031 0)"/>
       <use xlink:href="#DejaVuSans-63" transform="translate(789.445312 0)"/>
       <use xlink:href="#DejaVuSans-61" transform="translate(844.425781 0)"/>
       <use xlink:href="#DejaVuSans-64" transform="translate(905.705078 0)"/>
       <use xlink:href="#DejaVuSans-69" transform="translate(969.181641 0)"/>
       <use xlink:href="#DejaVuSans-61" transform="translate(996.964844 0)"/>
       <use xlink:href="#DejaVuSans-6e" transform="translate(1058.244141 0)"/>
       <use xlink:href="#DejaVuSans-20" transform="translate(1121.623047 0)"/>
       <use xlink:href="#DejaVuSans-72" transform="translate(1153.410156 0)"/>
       <use xlink:href="#DejaVuSans-68" transform="translate(1192.773438 0)"/>
       <use xlink:href="#DejaVuSans-79" transform="translate(1256.152344 0)"/>
       <use xlink:href="#DejaVuSans-74" transform="translate(1315.332031 0)"/>
       <use xlink:href="#DejaVuSans-68" transform="translate(1354.541016 0)"/>
       <use xlink:href="#DejaVuSans-6d" transform="translate(1417.919922 0)"/>
      </g>
     </g>
    </g>
    <g id="ytick_4">
     <g id="line2d_7">
      <g>
       <use xlink:href="#m2ccfb37293" x="244.56875" y="64.229704" style="stroke: #000000; stroke-width: 0.8"/>
      </g>
     </g>
     <g id="text_8">
      <!-- synapse organization -->
      <g transform="translate(130.907812 68.028923) scale(0.1 -0.1)">
       <defs>
        <path id="DejaVuSans-7a" d="M 353 3500 
L 3084 3500 
L 3084 2975 
L 922 459 
L 3084 459 
L 3084 0 
L 275 0 
L 275 525 
L 2438 3041 
L 353 3041 
L 353 3500 
z
" transform="scale(0.015625)"/>
       </defs>
       <use xlink:href="#DejaVuSans-73"/>
       <use xlink:href="#DejaVuSans-79" transform="translate(52.099609 0)"/>
       <use xlink:href="#DejaVuSans-6e" transform="translate(111.279297 0)"/>
       <use xlink:href="#DejaVuSans-61" transform="translate(174.658203 0)"/>
       <use xlink:href="#DejaVuSans-70" transform="translate(235.9375 0)"/>
       <use xlink:href="#DejaVuSans-73" transform="translate(299.414062 0)"/>
       <use xlink:href="#DejaVuSans-65" transform="translate(351.513672 0)"/>
       <use xlink:href="#DejaVuSans-20" transform="translate(413.037109 0)"/>
       <use xlink:href="#DejaVuSans-6f" transform="translate(444.824219 0)"/>
       <use xlink:href="#DejaVuSans-72" transform="translate(506.005859 0)"/>
       <use xlink:href="#DejaVuSans-67" transform="translate(545.369141 0)"/>
       <use xlink:href="#DejaVuSans-61" transform="translate(608.845703 0)"/>
       <use xlink:href="#DejaVuSans-6e" transform="translate(670.125 0)"/>
       <use xlink:href="#DejaVuSans-69" transform="translate(733.503906 0)"/>
       <use xlink:href="#DejaVuSans-7a" transform="translate(761.287109 0)"/>
       <use xlink:href="#DejaVuSans-61" transform="translate(813.777344 0)"/>
       <use xlink:href="#DejaVuSans-74" transform="translate(875.056641 0)"/>
       <use xlink:href="#DejaVuSans-69" transform="translate(914.265625 0)"/>
       <use xlink:href="#DejaVuSans-6f" transform="translate(942.048828 0)"/>
       <use xlink:href="#DejaVuSans-6e" transform="translate(1003.230469 0)"/>
      </g>
     </g>
    </g>
    <g id="ytick_5">
     <g id="line2d_8">
      <g>
       <use xlink:href="#m2ccfb37293" x="244.56875" y="74.84023" style="stroke: #000000; stroke-width: 0.8"/>
      </g>
     </g>
     <g id="text_9">
      <!-- neuron projection morphogenesis -->
      <g transform="translate(69.140625 78.639449) scale(0.1 -0.1)">
       <defs>
        <path id="DejaVuSans-6a" d="M 603 3500 
L 1178 3500 
L 1178 -63 
Q 1178 -731 923 -1031 
Q 669 -1331 103 -1331 
L -116 -1331 
L -116 -844 
L 38 -844 
Q 366 -844 484 -692 
Q 603 -541 603 -63 
L 603 3500 
z
M 603 4863 
L 1178 4863 
L 1178 4134 
L 603 4134 
L 603 4863 
z
" transform="scale(0.015625)"/>
       </defs>
       <use xlink:href="#DejaVuSans-6e"/>
       <use xlink:href="#DejaVuSans-65" transform="translate(63.378906 0)"/>
       <use xlink:href="#DejaVuSans-75" transform="translate(124.902344 0)"/>
       <use xlink:href="#DejaVuSans-72" transform="translate(188.28125 0)"/>
       <use xlink:href="#DejaVuSans-6f" transform="translate(227.144531 0)"/>
       <use xlink:href="#DejaVuSans-6e" transform="translate(288.326172 0)"/>
       <use xlink:href="#DejaVuSans-20" transform="translate(351.705078 0)"/>
       <use xlink:href="#DejaVuSans-70" transform="translate(383.492188 0)"/>
       <use xlink:href="#DejaVuSans-72" transform="translate(446.96875 0)"/>
       <use xlink:href="#DejaVuSans-6f" transform="translate(485.832031 0)"/>
       <use xlink:href="#DejaVuSans-6a" transform="translate(547.013672 0)"/>
       <use xlink:href="#DejaVuSans-65" transform="translate(574.796875 0)"/>
       <use xlink:href="#DejaVuSans-63" transform="translate(636.320312 0)"/>
       <use xlink:href="#DejaVuSans-74" transform="translate(691.300781 0)"/>
       <use xlink:href="#DejaVuSans-69" transform="translate(730.509766 0)"/>
       <use xlink:href="#DejaVuSans-6f" transform="translate(758.292969 0)"/>
       <use xlink:href="#DejaVuSans-6e" transform="translate(819.474609 0)"/>
       <use xlink:href="#DejaVuSans-20" transform="translate(882.853516 0)"/>
       <use xlink:href="#DejaVuSans-6d" transform="translate(914.640625 0)"/>
       <use xlink:href="#DejaVuSans-6f" transform="translate(1012.052734 0)"/>
       <use xlink:href="#DejaVuSans-72" transform="translate(1073.234375 0)"/>
       <use xlink:href="#DejaVuSans-70" transform="translate(1114.347656 0)"/>
       <use xlink:href="#DejaVuSans-68" transform="translate(1177.824219 0)"/>
       <use xlink:href="#DejaVuSans-6f" transform="translate(1241.203125 0)"/>
       <use xlink:href="#DejaVuSans-67" transform="translate(1302.384766 0)"/>
       <use xlink:href="#DejaVuSans-65" transform="translate(1365.861328 0)"/>
       <use xlink:href="#DejaVuSans-6e" transform="translate(1427.384766 0)"/>
       <use xlink:href="#DejaVuSans-65" transform="translate(1490.763672 0)"/>
       <use xlink:href="#DejaVuSans-73" transform="translate(1552.287109 0)"/>
       <use xlink:href="#DejaVuSans-69" transform="translate(1604.386719 0)"/>
       <use xlink:href="#DejaVuSans-73" transform="translate(1632.169922 0)"/>
      </g>
     </g>
    </g>
    <g id="ytick_6">
     <g id="line2d_9">
      <g>
       <use xlink:href="#m2ccfb37293" x="244.56875" y="85.450757" style="stroke: #000000; stroke-width: 0.8"/>
      </g>
     </g>
     <g id="text_10">
      <!-- modulation of chemical synaptic transmission -->
      <g transform="translate(7.68125 89.249975) scale(0.1 -0.1)">
       <use xlink:href="#DejaVuSans-6d"/>
       <use xlink:href="#DejaVuSans-6f" transform="translate(97.412109 0)"/>
       <use xlink:href="#DejaVuSans-64" transform="translate(158.59375 0)"/>
       <use xlink:href="#DejaVuSans-75" transform="translate(222.070312 0)"/>
       <use xlink:href="#DejaVuSans-6c" transform="translate(285.449219 0)"/>
       <use xlink:href="#DejaVuSans-61" transform="translate(313.232422 0)"/>
       <use xlink:href="#DejaVuSans-74" transform="translate(374.511719 0)"/>
       <use xlink:href="#DejaVuSans-69" transform="translate(413.720703 0)"/>
       <use xlink:href="#DejaVuSans-6f" transform="translate(441.503906 0)"/>
       <use xlink:href="#DejaVuSans-6e" transform="translate(502.685547 0)"/>
       <use xlink:href="#DejaVuSans-20" transform="translate(566.064453 0)"/>
       <use xlink:href="#DejaVuSans-6f" transform="translate(597.851562 0)"/>
       <use xlink:href="#DejaVuSans-66" transform="translate(659.033203 0)"/>
       <use xlink:href="#DejaVuSans-20" transform="translate(694.238281 0)"/>
       <use xlink:href="#DejaVuSans-63" transform="translate(726.025391 0)"/>
       <use xlink:href="#DejaVuSans-68" transform="translate(781.005859 0)"/>
       <use xlink:href="#DejaVuSans-65" transform="translate(844.384766 0)"/>
       <use xlink:href="#DejaVuSans-6d" transform="translate(905.908203 0)"/>
       <use xlink:href="#DejaVuSans-69" transform="translate(1003.320312 0)"/>
       <use xlink:href="#DejaVuSans-63" transform="translate(1031.103516 0)"/>
       <use xlink:href="#DejaVuSans-61" transform="translate(1086.083984 0)"/>
       <use xlink:href="#DejaVuSans-6c" transform="translate(1147.363281 0)"/>
       <use xlink:href="#DejaVuSans-20" transform="translate(1175.146484 0)"/>
       <use xlink:href="#DejaVuSans-73" transform="translate(1206.933594 0)"/>
       <use xlink:href="#DejaVuSans-79" transform="translate(1259.033203 0)"/>
       <use xlink:href="#DejaVuSans-6e" transform="translate(1318.212891 0)"/>
       <use xlink:href="#DejaVuSans-61" transform="translate(1381.591797 0)"/>
       <use xlink:href="#DejaVuSans-70" transform="translate(1442.871094 0)"/>
       <use xlink:href="#DejaVuSans-74" transform="translate(1506.347656 0)"/>
       <use xlink:href="#DejaVuSans-69" transform="translate(1545.556641 0)"/>
       <use xlink:href="#DejaVuSans-63" transform="translate(1573.339844 0)"/>
       <use xlink:href="#DejaVuSans-20" transform="translate(1628.320312 0)"/>
       <use xlink:href="#DejaVuSans-74" transform="translate(1660.107422 0)"/>
       <use xlink:href="#DejaVuSans-72" transform="translate(1699.316406 0)"/>
       <use xlink:href="#DejaVuSans-61" transform="translate(1740.429688 0)"/>
       <use xlink:href="#DejaVuSans-6e" transform="translate(1801.708984 0)"/>
       <use xlink:href="#DejaVuSans-73" transform="translate(1865.087891 0)"/>
       <use xlink:href="#DejaVuSans-6d" transform="translate(1917.1875 0)"/>
       <use xlink:href="#DejaVuSans-69" transform="translate(2014.599609 0)"/>
       <use xlink:href="#DejaVuSans-73" transform="translate(2042.382812 0)"/>
       <use xlink:href="#DejaVuSans-73" transform="translate(2094.482422 0)"/>
       <use xlink:href="#DejaVuSans-69" transform="translate(2146.582031 0)"/>
       <use xlink:href="#DejaVuSans-6f" transform="translate(2174.365234 0)"/>
       <use xlink:href="#DejaVuSans-6e" transform="translate(2235.546875 0)"/>
      </g>
     </g>
    </g>
    <g id="ytick_7">
     <g id="line2d_10">
      <g>
       <use xlink:href="#m2ccfb37293" x="244.56875" y="96.061283" style="stroke: #000000; stroke-width: 0.8"/>
      </g>
     </g>
     <g id="text_11">
      <!-- synapse assembly -->
      <g transform="translate(145.6 99.860502) scale(0.1 -0.1)">
       <use xlink:href="#DejaVuSans-73"/>
       <use xlink:href="#DejaVuSans-79" transform="translate(52.099609 0)"/>
       <use xlink:href="#DejaVuSans-6e" transform="translate(111.279297 0)"/>
       <use xlink:href="#DejaVuSans-61" transform="translate(174.658203 0)"/>
       <use xlink:href="#DejaVuSans-70" transform="translate(235.9375 0)"/>
       <use xlink:href="#DejaVuSans-73" transform="translate(299.414062 0)"/>
       <use xlink:href="#DejaVuSans-65" transform="translate(351.513672 0)"/>
       <use xlink:href="#DejaVuSans-20" transform="translate(413.037109 0)"/>
       <use xlink:href="#DejaVuSans-61" transform="translate(444.824219 0)"/>
       <use xlink:href="#DejaVuSans-73" transform="translate(506.103516 0)"/>
       <use xlink:href="#DejaVuSans-73" transform="translate(558.203125 0)"/>
       <use xlink:href="#DejaVuSans-65" transform="translate(610.302734 0)"/>
       <use xlink:href="#DejaVuSans-6d" transform="translate(671.826172 0)"/>
       <use xlink:href="#DejaVuSans-62" transform="translate(769.238281 0)"/>
       <use xlink:href="#DejaVuSans-6c" transform="translate(832.714844 0)"/>
       <use xlink:href="#DejaVuSans-79" transform="translate(860.498047 0)"/>
      </g>
     </g>
    </g>
    <g id="ytick_8">
     <g id="line2d_11">
      <g>
       <use xlink:href="#m2ccfb37293" x="244.56875" y="106.671809" style="stroke: #000000; stroke-width: 0.8"/>
      </g>
     </g>
     <g id="text_12">
      <!-- protein K48-linked ubiquitination -->
      <g transform="translate(73.709375 110.471028) scale(0.1 -0.1)">
       <defs>
        <path id="DejaVuSans-4b" d="M 628 4666 
L 1259 4666 
L 1259 2694 
L 3353 4666 
L 4166 4666 
L 1850 2491 
L 4331 0 
L 3500 0 
L 1259 2247 
L 1259 0 
L 628 0 
L 628 4666 
z
" transform="scale(0.015625)"/>
        <path id="DejaVuSans-34" d="M 2419 4116 
L 825 1625 
L 2419 1625 
L 2419 4116 
z
M 2253 4666 
L 3047 4666 
L 3047 1625 
L 3713 1625 
L 3713 1100 
L 3047 1100 
L 3047 0 
L 2419 0 
L 2419 1100 
L 313 1100 
L 313 1709 
L 2253 4666 
z
" transform="scale(0.015625)"/>
        <path id="DejaVuSans-38" d="M 2034 2216 
Q 1584 2216 1326 1975 
Q 1069 1734 1069 1313 
Q 1069 891 1326 650 
Q 1584 409 2034 409 
Q 2484 409 2743 651 
Q 3003 894 3003 1313 
Q 3003 1734 2745 1975 
Q 2488 2216 2034 2216 
z
M 1403 2484 
Q 997 2584 770 2862 
Q 544 3141 544 3541 
Q 544 4100 942 4425 
Q 1341 4750 2034 4750 
Q 2731 4750 3128 4425 
Q 3525 4100 3525 3541 
Q 3525 3141 3298 2862 
Q 3072 2584 2669 2484 
Q 3125 2378 3379 2068 
Q 3634 1759 3634 1313 
Q 3634 634 3220 271 
Q 2806 -91 2034 -91 
Q 1263 -91 848 271 
Q 434 634 434 1313 
Q 434 1759 690 2068 
Q 947 2378 1403 2484 
z
M 1172 3481 
Q 1172 3119 1398 2916 
Q 1625 2713 2034 2713 
Q 2441 2713 2670 2916 
Q 2900 3119 2900 3481 
Q 2900 3844 2670 4047 
Q 2441 4250 2034 4250 
Q 1625 4250 1398 4047 
Q 1172 3844 1172 3481 
z
" transform="scale(0.015625)"/>
        <path id="DejaVuSans-2d" d="M 313 2009 
L 1997 2009 
L 1997 1497 
L 313 1497 
L 313 2009 
z
" transform="scale(0.015625)"/>
        <path id="DejaVuSans-6b" d="M 581 4863 
L 1159 4863 
L 1159 1991 
L 2875 3500 
L 3609 3500 
L 1753 1863 
L 3688 0 
L 2938 0 
L 1159 1709 
L 1159 0 
L 581 0 
L 581 4863 
z
" transform="scale(0.015625)"/>
        <path id="DejaVuSans-71" d="M 947 1747 
Q 947 1113 1208 752 
Q 1469 391 1925 391 
Q 2381 391 2643 752 
Q 2906 1113 2906 1747 
Q 2906 2381 2643 2742 
Q 2381 3103 1925 3103 
Q 1469 3103 1208 2742 
Q 947 2381 947 1747 
z
M 2906 525 
Q 2725 213 2448 61 
Q 2172 -91 1784 -91 
Q 1150 -91 751 415 
Q 353 922 353 1747 
Q 353 2572 751 3078 
Q 1150 3584 1784 3584 
Q 2172 3584 2448 3432 
Q 2725 3281 2906 2969 
L 2906 3500 
L 3481 3500 
L 3481 -1331 
L 2906 -1331 
L 2906 525 
z
" transform="scale(0.015625)"/>
       </defs>
       <use xlink:href="#DejaVuSans-70"/>
       <use xlink:href="#DejaVuSans-72" transform="translate(63.476562 0)"/>
       <use xlink:href="#DejaVuSans-6f" transform="translate(102.339844 0)"/>
       <use xlink:href="#DejaVuSans-74" transform="translate(163.521484 0)"/>
       <use xlink:href="#DejaVuSans-65" transform="translate(202.730469 0)"/>
       <use xlink:href="#DejaVuSans-69" transform="translate(264.253906 0)"/>
       <use xlink:href="#DejaVuSans-6e" transform="translate(292.037109 0)"/>
       <use xlink:href="#DejaVuSans-20" transform="translate(355.416016 0)"/>
       <use xlink:href="#DejaVuSans-4b" transform="translate(387.203125 0)"/>
       <use xlink:href="#DejaVuSans-34" transform="translate(452.779297 0)"/>
       <use xlink:href="#DejaVuSans-38" transform="translate(516.402344 0)"/>
       <use xlink:href="#DejaVuSans-2d" transform="translate(580.025391 0)"/>
       <use xlink:href="#DejaVuSans-6c" transform="translate(616.109375 0)"/>
       <use xlink:href="#DejaVuSans-69" transform="translate(643.892578 0)"/>
       <use xlink:href="#DejaVuSans-6e" transform="translate(671.675781 0)"/>
       <use xlink:href="#DejaVuSans-6b" transform="translate(735.054688 0)"/>
       <use xlink:href="#DejaVuSans-65" transform="translate(789.339844 0)"/>
       <use xlink:href="#DejaVuSans-64" transform="translate(850.863281 0)"/>
       <use xlink:href="#DejaVuSans-20" transform="translate(914.339844 0)"/>
       <use xlink:href="#DejaVuSans-75" transform="translate(946.126953 0)"/>
       <use xlink:href="#DejaVuSans-62" transform="translate(1009.505859 0)"/>
       <use xlink:href="#DejaVuSans-69" transform="translate(1072.982422 0)"/>
       <use xlink:href="#DejaVuSans-71" transform="translate(1100.765625 0)"/>
       <use xlink:href="#DejaVuSans-75" transform="translate(1164.242188 0)"/>
       <use xlink:href="#DejaVuSans-69" transform="translate(1227.621094 0)"/>
       <use xlink:href="#DejaVuSans-74" transform="translate(1255.404297 0)"/>
       <use xlink:href="#DejaVuSans-69" transform="translate(1294.613281 0)"/>
       <use xlink:href="#DejaVuSans-6e" transform="translate(1322.396484 0)"/>
       <use xlink:href="#DejaVuSans-61" transform="translate(1385.775391 0)"/>
       <use xlink:href="#DejaVuSans-74" transform="translate(1447.054688 0)"/>
       <use xlink:href="#DejaVuSans-69" transform="translate(1486.263672 0)"/>
       <use xlink:href="#DejaVuSans-6f" transform="translate(1514.046875 0)"/>
       <use xlink:href="#DejaVuSans-6e" transform="translate(1575.228516 0)"/>
      </g>
     </g>
    </g>
    <g id="ytick_9">
     <g id="line2d_12">
      <g>
       <use xlink:href="#m2ccfb37293" x="244.56875" y="117.282336" style="stroke: #000000; stroke-width: 0.8"/>
      </g>
     </g>
     <g id="text_13">
      <!-- negative regulation of translation -->
      <g transform="translate(70.104687 121.081554) scale(0.1 -0.1)">
       <defs>
        <path id="DejaVuSans-76" d="M 191 3500 
L 800 3500 
L 1894 563 
L 2988 3500 
L 3597 3500 
L 2284 0 
L 1503 0 
L 191 3500 
z
" transform="scale(0.015625)"/>
       </defs>
       <use xlink:href="#DejaVuSans-6e"/>
       <use xlink:href="#DejaVuSans-65" transform="translate(63.378906 0)"/>
       <use xlink:href="#DejaVuSans-67" transform="translate(124.902344 0)"/>
       <use xlink:href="#DejaVuSans-61" transform="translate(188.378906 0)"/>
       <use xlink:href="#DejaVuSans-74" transform="translate(249.658203 0)"/>
       <use xlink:href="#DejaVuSans-69" transform="translate(288.867188 0)"/>
       <use xlink:href="#DejaVuSans-76" transform="translate(316.650391 0)"/>
       <use xlink:href="#DejaVuSans-65" transform="translate(375.830078 0)"/>
       <use xlink:href="#DejaVuSans-20" transform="translate(437.353516 0)"/>
       <use xlink:href="#DejaVuSans-72" transform="translate(469.140625 0)"/>
       <use xlink:href="#DejaVuSans-65" transform="translate(508.003906 0)"/>
       <use xlink:href="#DejaVuSans-67" transform="translate(569.527344 0)"/>
       <use xlink:href="#DejaVuSans-75" transform="translate(633.003906 0)"/>
       <use xlink:href="#DejaVuSans-6c" transform="translate(696.382812 0)"/>
       <use xlink:href="#DejaVuSans-61" transform="translate(724.166016 0)"/>
       <use xlink:href="#DejaVuSans-74" transform="translate(785.445312 0)"/>
       <use xlink:href="#DejaVuSans-69" transform="translate(824.654297 0)"/>
       <use xlink:href="#DejaVuSans-6f" transform="translate(852.4375 0)"/>
       <use xlink:href="#DejaVuSans-6e" transform="translate(913.619141 0)"/>
       <use xlink:href="#DejaVuSans-20" transform="translate(976.998047 0)"/>
       <use xlink:href="#DejaVuSans-6f" transform="translate(1008.785156 0)"/>
       <use xlink:href="#DejaVuSans-66" transform="translate(1069.966797 0)"/>
       <use xlink:href="#DejaVuSans-20" transform="translate(1105.171875 0)"/>
       <use xlink:href="#DejaVuSans-74" transform="translate(1136.958984 0)"/>
       <use xlink:href="#DejaVuSans-72" transform="translate(1176.167969 0)"/>
       <use xlink:href="#DejaVuSans-61" transform="translate(1217.28125 0)"/>
       <use xlink:href="#DejaVuSans-6e" transform="translate(1278.560547 0)"/>
       <use xlink:href="#DejaVuSans-73" transform="translate(1341.939453 0)"/>
       <use xlink:href="#DejaVuSans-6c" transform="translate(1394.039062 0)"/>
       <use xlink:href="#DejaVuSans-61" transform="translate(1421.822266 0)"/>
       <use xlink:href="#DejaVuSans-74" transform="translate(1483.101562 0)"/>
       <use xlink:href="#DejaVuSans-69" transform="translate(1522.310547 0)"/>
       <use xlink:href="#DejaVuSans-6f" transform="translate(1550.09375 0)"/>
       <use xlink:href="#DejaVuSans-6e" transform="translate(1611.275391 0)"/>
      </g>
     </g>
    </g>
    <g id="ytick_10">
     <g id="line2d_13">
      <g>
       <use xlink:href="#m2ccfb37293" x="244.56875" y="127.892862" style="stroke: #000000; stroke-width: 0.8"/>
      </g>
     </g>
     <g id="text_14">
      <!-- rhythmic process -->
      <g transform="translate(151.5 131.692081) scale(0.1 -0.1)">
       <use xlink:href="#DejaVuSans-72"/>
       <use xlink:href="#DejaVuSans-68" transform="translate(39.363281 0)"/>
       <use xlink:href="#DejaVuSans-79" transform="translate(102.742188 0)"/>
       <use xlink:href="#DejaVuSans-74" transform="translate(161.921875 0)"/>
       <use xlink:href="#DejaVuSans-68" transform="translate(201.130859 0)"/>
       <use xlink:href="#DejaVuSans-6d" transform="translate(264.509766 0)"/>
       <use xlink:href="#DejaVuSans-69" transform="translate(361.921875 0)"/>
       <use xlink:href="#DejaVuSans-63" transform="translate(389.705078 0)"/>
       <use xlink:href="#DejaVuSans-20" transform="translate(444.685547 0)"/>
       <use xlink:href="#DejaVuSans-70" transform="translate(476.472656 0)"/>
       <use xlink:href="#DejaVuSans-72" transform="translate(539.949219 0)"/>
       <use xlink:href="#DejaVuSans-6f" transform="translate(578.8125 0)"/>
       <use xlink:href="#DejaVuSans-63" transform="translate(639.994141 0)"/>
       <use xlink:href="#DejaVuSans-65" transform="translate(694.974609 0)"/>
       <use xlink:href="#DejaVuSans-73" transform="translate(756.498047 0)"/>
       <use xlink:href="#DejaVuSans-73" transform="translate(808.597656 0)"/>
      </g>
     </g>
    </g>
    <g id="ytick_11">
     <g id="line2d_14">
      <g>
       <use xlink:href="#m2ccfb37293" x="244.56875" y="138.503388" style="stroke: #000000; stroke-width: 0.8"/>
      </g>
     </g>
     <g id="text_15">
      <!-- neuron projection development -->
      <g transform="translate(80.134375 142.302607) scale(0.1 -0.1)">
       <use xlink:href="#DejaVuSans-6e"/>
       <use xlink:href="#DejaVuSans-65" transform="translate(63.378906 0)"/>
       <use xlink:href="#DejaVuSans-75" transform="translate(124.902344 0)"/>
       <use xlink:href="#DejaVuSans-72" transform="translate(188.28125 0)"/>
       <use xlink:href="#DejaVuSans-6f" transform="translate(227.144531 0)"/>
       <use xlink:href="#DejaVuSans-6e" transform="translate(288.326172 0)"/>
       <use xlink:href="#DejaVuSans-20" transform="translate(351.705078 0)"/>
       <use xlink:href="#DejaVuSans-70" transform="translate(383.492188 0)"/>
       <use xlink:href="#DejaVuSans-72" transform="translate(446.96875 0)"/>
       <use xlink:href="#DejaVuSans-6f" transform="translate(485.832031 0)"/>
       <use xlink:href="#DejaVuSans-6a" transform="translate(547.013672 0)"/>
       <use xlink:href="#DejaVuSans-65" transform="translate(574.796875 0)"/>
       <use xlink:href="#DejaVuSans-63" transform="translate(636.320312 0)"/>
       <use xlink:href="#DejaVuSans-74" transform="translate(691.300781 0)"/>
       <use xlink:href="#DejaVuSans-69" transform="translate(730.509766 0)"/>
       <use xlink:href="#DejaVuSans-6f" transform="translate(758.292969 0)"/>
       <use xlink:href="#DejaVuSans-6e" transform="translate(819.474609 0)"/>
       <use xlink:href="#DejaVuSans-20" transform="translate(882.853516 0)"/>
       <use xlink:href="#DejaVuSans-64" transform="translate(914.640625 0)"/>
       <use xlink:href="#DejaVuSans-65" transform="translate(978.117188 0)"/>
       <use xlink:href="#DejaVuSans-76" transform="translate(1039.640625 0)"/>
       <use xlink:href="#DejaVuSans-65" transform="translate(1098.820312 0)"/>
       <use xlink:href="#DejaVuSans-6c" transform="translate(1160.34375 0)"/>
       <use xlink:href="#DejaVuSans-6f" transform="translate(1188.126953 0)"/>
       <use xlink:href="#DejaVuSans-70" transform="translate(1249.308594 0)"/>
       <use xlink:href="#DejaVuSans-6d" transform="translate(1312.785156 0)"/>
       <use xlink:href="#DejaVuSans-65" transform="translate(1410.197266 0)"/>
       <use xlink:href="#DejaVuSans-6e" transform="translate(1471.720703 0)"/>
       <use xlink:href="#DejaVuSans-74" transform="translate(1535.099609 0)"/>
      </g>
     </g>
    </g>
    <g id="ytick_12">
     <g id="line2d_15">
      <g>
       <use xlink:href="#m2ccfb37293" x="244.56875" y="149.113914" style="stroke: #000000; stroke-width: 0.8"/>
      </g>
     </g>
     <g id="text_16">
      <!-- protein polyubiquitination -->
      <g transform="translate(108.4375 152.913133) scale(0.1 -0.1)">
       <use xlink:href="#DejaVuSans-70"/>
       <use xlink:href="#DejaVuSans-72" transform="translate(63.476562 0)"/>
       <use xlink:href="#DejaVuSans-6f" transform="translate(102.339844 0)"/>
       <use xlink:href="#DejaVuSans-74" transform="translate(163.521484 0)"/>
       <use xlink:href="#DejaVuSans-65" transform="translate(202.730469 0)"/>
       <use xlink:href="#DejaVuSans-69" transform="translate(264.253906 0)"/>
       <use xlink:href="#DejaVuSans-6e" transform="translate(292.037109 0)"/>
       <use xlink:href="#DejaVuSans-20" transform="translate(355.416016 0)"/>
       <use xlink:href="#DejaVuSans-70" transform="translate(387.203125 0)"/>
       <use xlink:href="#DejaVuSans-6f" transform="translate(450.679688 0)"/>
       <use xlink:href="#DejaVuSans-6c" transform="translate(511.861328 0)"/>
       <use xlink:href="#DejaVuSans-79" transform="translate(539.644531 0)"/>
       <use xlink:href="#DejaVuSans-75" transform="translate(598.824219 0)"/>
       <use xlink:href="#DejaVuSans-62" transform="translate(662.203125 0)"/>
       <use xlink:href="#DejaVuSans-69" transform="translate(725.679688 0)"/>
       <use xlink:href="#DejaVuSans-71" transform="translate(753.462891 0)"/>
       <use xlink:href="#DejaVuSans-75" transform="translate(816.939453 0)"/>
       <use xlink:href="#DejaVuSans-69" transform="translate(880.318359 0)"/>
       <use xlink:href="#DejaVuSans-74" transform="translate(908.101562 0)"/>
       <use xlink:href="#DejaVuSans-69" transform="translate(947.310547 0)"/>
       <use xlink:href="#DejaVuSans-6e" transform="translate(975.09375 0)"/>
       <use xlink:href="#DejaVuSans-61" transform="translate(1038.472656 0)"/>
       <use xlink:href="#DejaVuSans-74" transform="translate(1099.751953 0)"/>
       <use xlink:href="#DejaVuSans-69" transform="translate(1138.960938 0)"/>
       <use xlink:href="#DejaVuSans-6f" transform="translate(1166.744141 0)"/>
       <use xlink:href="#DejaVuSans-6e" transform="translate(1227.925781 0)"/>
      </g>
     </g>
    </g>
    <g id="ytick_13">
     <g id="line2d_16">
      <g>
       <use xlink:href="#m2ccfb37293" x="244.56875" y="159.724441" style="stroke: #000000; stroke-width: 0.8"/>
      </g>
     </g>
     <g id="text_17">
      <!-- endocytosis -->
      <g transform="translate(177.957812 163.52366) scale(0.1 -0.1)">
       <use xlink:href="#DejaVuSans-65"/>
       <use xlink:href="#DejaVuSans-6e" transform="translate(61.523438 0)"/>
       <use xlink:href="#DejaVuSans-64" transform="translate(124.902344 0)"/>
       <use xlink:href="#DejaVuSans-6f" transform="translate(188.378906 0)"/>
       <use xlink:href="#DejaVuSans-63" transform="translate(249.560547 0)"/>
       <use xlink:href="#DejaVuSans-79" transform="translate(304.541016 0)"/>
       <use xlink:href="#DejaVuSans-74" transform="translate(363.720703 0)"/>
       <use xlink:href="#DejaVuSans-6f" transform="translate(402.929688 0)"/>
       <use xlink:href="#DejaVuSans-73" transform="translate(464.111328 0)"/>
       <use xlink:href="#DejaVuSans-69" transform="translate(516.210938 0)"/>
       <use xlink:href="#DejaVuSans-73" transform="translate(543.994141 0)"/>
      </g>
     </g>
    </g>
    <g id="ytick_14">
     <g id="line2d_17">
      <g>
       <use xlink:href="#m2ccfb37293" x="244.56875" y="170.334967" style="stroke: #000000; stroke-width: 0.8"/>
      </g>
     </g>
     <g id="text_18">
      <!-- neuron migration -->
      <g transform="translate(150.959375 174.134186) scale(0.1 -0.1)">
       <use xlink:href="#DejaVuSans-6e"/>
       <use xlink:href="#DejaVuSans-65" transform="translate(63.378906 0)"/>
       <use xlink:href="#DejaVuSans-75" transform="translate(124.902344 0)"/>
       <use xlink:href="#DejaVuSans-72" transform="translate(188.28125 0)"/>
       <use xlink:href="#DejaVuSans-6f" transform="translate(227.144531 0)"/>
       <use xlink:href="#DejaVuSans-6e" transform="translate(288.326172 0)"/>
       <use xlink:href="#DejaVuSans-20" transform="translate(351.705078 0)"/>
       <use xlink:href="#DejaVuSans-6d" transform="translate(383.492188 0)"/>
       <use xlink:href="#DejaVuSans-69" transform="translate(480.904297 0)"/>
       <use xlink:href="#DejaVuSans-67" transform="translate(508.6875 0)"/>
       <use xlink:href="#DejaVuSans-72" transform="translate(572.164062 0)"/>
       <use xlink:href="#DejaVuSans-61" transform="translate(613.277344 0)"/>
       <use xlink:href="#DejaVuSans-74" transform="translate(674.556641 0)"/>
       <use xlink:href="#DejaVuSans-69" transform="translate(713.765625 0)"/>
       <use xlink:href="#DejaVuSans-6f" transform="translate(741.548828 0)"/>
       <use xlink:href="#DejaVuSans-6e" transform="translate(802.730469 0)"/>
      </g>
     </g>
    </g>
    <g id="ytick_15">
     <g id="line2d_18">
      <g>
       <use xlink:href="#m2ccfb37293" x="244.56875" y="180.945493" style="stroke: #000000; stroke-width: 0.8"/>
      </g>
     </g>
     <g id="text_19">
      <!-- exocytosis -->
      <g transform="translate(185.2125 184.744712) scale(0.1 -0.1)">
       <defs>
        <path id="DejaVuSans-78" d="M 3513 3500 
L 2247 1797 
L 3578 0 
L 2900 0 
L 1881 1375 
L 863 0 
L 184 0 
L 1544 1831 
L 300 3500 
L 978 3500 
L 1906 2253 
L 2834 3500 
L 3513 3500 
z
" transform="scale(0.015625)"/>
       </defs>
       <use xlink:href="#DejaVuSans-65"/>
       <use xlink:href="#DejaVuSans-78" transform="translate(59.773438 0)"/>
       <use xlink:href="#DejaVuSans-6f" transform="translate(115.828125 0)"/>
       <use xlink:href="#DejaVuSans-63" transform="translate(177.009766 0)"/>
       <use xlink:href="#DejaVuSans-79" transform="translate(231.990234 0)"/>
       <use xlink:href="#DejaVuSans-74" transform="translate(291.169922 0)"/>
       <use xlink:href="#DejaVuSans-6f" transform="translate(330.378906 0)"/>
       <use xlink:href="#DejaVuSans-73" transform="translate(391.560547 0)"/>
       <use xlink:href="#DejaVuSans-69" transform="translate(443.660156 0)"/>
       <use xlink:href="#DejaVuSans-73" transform="translate(471.443359 0)"/>
      </g>
     </g>
    </g>
    <g id="ytick_16">
     <g id="line2d_19">
      <g>
       <use xlink:href="#m2ccfb37293" x="244.56875" y="191.55602" style="stroke: #000000; stroke-width: 0.8"/>
      </g>
     </g>
     <g id="text_20">
      <!-- axon guidance -->
      <g transform="translate(164.270312 195.355238) scale(0.1 -0.1)">
       <use xlink:href="#DejaVuSans-61"/>
       <use xlink:href="#DejaVuSans-78" transform="translate(61.279297 0)"/>
       <use xlink:href="#DejaVuSans-6f" transform="translate(117.333984 0)"/>
       <use xlink:href="#DejaVuSans-6e" transform="translate(178.515625 0)"/>
       <use xlink:href="#DejaVuSans-20" transform="translate(241.894531 0)"/>
       <use xlink:href="#DejaVuSans-67" transform="translate(273.681641 0)"/>
       <use xlink:href="#DejaVuSans-75" transform="translate(337.158203 0)"/>
       <use xlink:href="#DejaVuSans-69" transform="translate(400.537109 0)"/>
       <use xlink:href="#DejaVuSans-64" transform="translate(428.320312 0)"/>
       <use xlink:href="#DejaVuSans-61" transform="translate(491.796875 0)"/>
       <use xlink:href="#DejaVuSans-6e" transform="translate(553.076172 0)"/>
       <use xlink:href="#DejaVuSans-63" transform="translate(616.455078 0)"/>
       <use xlink:href="#DejaVuSans-65" transform="translate(671.435547 0)"/>
      </g>
     </g>
    </g>
    <g id="ytick_17">
     <g id="line2d_20">
      <g>
       <use xlink:href="#m2ccfb37293" x="244.56875" y="202.166546" style="stroke: #000000; stroke-width: 0.8"/>
      </g>
     </g>
     <g id="text_21">
      <!-- microtubule cytoskeleton organization -->
      <g transform="translate(45.582812 205.965765) scale(0.1 -0.1)">
       <use xlink:href="#DejaVuSans-6d"/>
       <use xlink:href="#DejaVuSans-69" transform="translate(97.412109 0)"/>
       <use xlink:href="#DejaVuSans-63" transform="translate(125.195312 0)"/>
       <use xlink:href="#DejaVuSans-72" transform="translate(180.175781 0)"/>
       <use xlink:href="#DejaVuSans-6f" transform="translate(219.039062 0)"/>
       <use xlink:href="#DejaVuSans-74" transform="translate(280.220703 0)"/>
       <use xlink:href="#DejaVuSans-75" transform="translate(319.429688 0)"/>
       <use xlink:href="#DejaVuSans-62" transform="translate(382.808594 0)"/>
       <use xlink:href="#DejaVuSans-75" transform="translate(446.285156 0)"/>
       <use xlink:href="#DejaVuSans-6c" transform="translate(509.664062 0)"/>
       <use xlink:href="#DejaVuSans-65" transform="translate(537.447266 0)"/>
       <use xlink:href="#DejaVuSans-20" transform="translate(598.970703 0)"/>
       <use xlink:href="#DejaVuSans-63" transform="translate(630.757812 0)"/>
       <use xlink:href="#DejaVuSans-79" transform="translate(685.738281 0)"/>
       <use xlink:href="#DejaVuSans-74" transform="translate(744.917969 0)"/>
       <use xlink:href="#DejaVuSans-6f" transform="translate(784.126953 0)"/>
       <use xlink:href="#DejaVuSans-73" transform="translate(845.308594 0)"/>
       <use xlink:href="#DejaVuSans-6b" transform="translate(897.408203 0)"/>
       <use xlink:href="#DejaVuSans-65" transform="translate(951.693359 0)"/>
       <use xlink:href="#DejaVuSans-6c" transform="translate(1013.216797 0)"/>
       <use xlink:href="#DejaVuSans-65" transform="translate(1041 0)"/>
       <use xlink:href="#DejaVuSans-74" transform="translate(1102.523438 0)"/>
       <use xlink:href="#DejaVuSans-6f" transform="translate(1141.732422 0)"/>
       <use xlink:href="#DejaVuSans-6e" transform="translate(1202.914062 0)"/>
       <use xlink:href="#DejaVuSans-20" transform="translate(1266.292969 0)"/>
       <use xlink:href="#DejaVuSans-6f" transform="translate(1298.080078 0)"/>
       <use xlink:href="#DejaVuSans-72" transform="translate(1359.261719 0)"/>
       <use xlink:href="#DejaVuSans-67" transform="translate(1398.625 0)"/>
       <use xlink:href="#DejaVuSans-61" transform="translate(1462.101562 0)"/>
       <use xlink:href="#DejaVuSans-6e" transform="translate(1523.380859 0)"/>
       <use xlink:href="#DejaVuSans-69" transform="translate(1586.759766 0)"/>
       <use xlink:href="#DejaVuSans-7a" transform="translate(1614.542969 0)"/>
       <use xlink:href="#DejaVuSans-61" transform="translate(1667.033203 0)"/>
       <use xlink:href="#DejaVuSans-74" transform="translate(1728.3125 0)"/>
       <use xlink:href="#DejaVuSans-69" transform="translate(1767.521484 0)"/>
       <use xlink:href="#DejaVuSans-6f" transform="translate(1795.304688 0)"/>
       <use xlink:href="#DejaVuSans-6e" transform="translate(1856.486328 0)"/>
      </g>
     </g>
    </g>
    <g id="ytick_18">
     <g id="line2d_21">
      <g>
       <use xlink:href="#m2ccfb37293" x="244.56875" y="212.777072" style="stroke: #000000; stroke-width: 0.8"/>
      </g>
     </g>
     <g id="text_22">
      <!-- central nervous system development -->
      <g transform="translate(50.8 216.576291) scale(0.1 -0.1)">
       <use xlink:href="#DejaVuSans-63"/>
       <use xlink:href="#DejaVuSans-65" transform="translate(54.980469 0)"/>
       <use xlink:href="#DejaVuSans-6e" transform="translate(116.503906 0)"/>
       <use xlink:href="#DejaVuSans-74" transform="translate(179.882812 0)"/>
       <use xlink:href="#DejaVuSans-72" transform="translate(219.091797 0)"/>
       <use xlink:href="#DejaVuSans-61" transform="translate(260.205078 0)"/>
       <use xlink:href="#DejaVuSans-6c" transform="translate(321.484375 0)"/>
       <use xlink:href="#DejaVuSans-20" transform="translate(349.267578 0)"/>
       <use xlink:href="#DejaVuSans-6e" transform="translate(381.054688 0)"/>
       <use xlink:href="#DejaVuSans-65" transform="translate(444.433594 0)"/>
       <use xlink:href="#DejaVuSans-72" transform="translate(505.957031 0)"/>
       <use xlink:href="#DejaVuSans-76" transform="translate(547.070312 0)"/>
       <use xlink:href="#DejaVuSans-6f" transform="translate(606.25 0)"/>
       <use xlink:href="#DejaVuSans-75" transform="translate(667.431641 0)"/>
       <use xlink:href="#DejaVuSans-73" transform="translate(730.810547 0)"/>
       <use xlink:href="#DejaVuSans-20" transform="translate(782.910156 0)"/>
       <use xlink:href="#DejaVuSans-73" transform="translate(814.697266 0)"/>
       <use xlink:href="#DejaVuSans-79" transform="translate(866.796875 0)"/>
       <use xlink:href="#DejaVuSans-73" transform="translate(925.976562 0)"/>
       <use xlink:href="#DejaVuSans-74" transform="translate(978.076172 0)"/>
       <use xlink:href="#DejaVuSans-65" transform="translate(1017.285156 0)"/>
       <use xlink:href="#DejaVuSans-6d" transform="translate(1078.808594 0)"/>
       <use xlink:href="#DejaVuSans-20" transform="translate(1176.220703 0)"/>
       <use xlink:href="#DejaVuSans-64" transform="translate(1208.007812 0)"/>
       <use xlink:href="#DejaVuSans-65" transform="translate(1271.484375 0)"/>
       <use xlink:href="#DejaVuSans-76" transform="translate(1333.007812 0)"/>
       <use xlink:href="#DejaVuSans-65" transform="translate(1392.1875 0)"/>
       <use xlink:href="#DejaVuSans-6c" transform="translate(1453.710938 0)"/>
       <use xlink:href="#DejaVuSans-6f" transform="translate(1481.494141 0)"/>
       <use xlink:href="#DejaVuSans-70" transform="translate(1542.675781 0)"/>
       <use xlink:href="#DejaVuSans-6d" transform="translate(1606.152344 0)"/>
       <use xlink:href="#DejaVuSans-65" transform="translate(1703.564453 0)"/>
       <use xlink:href="#DejaVuSans-6e" transform="translate(1765.087891 0)"/>
       <use xlink:href="#DejaVuSans-74" transform="translate(1828.466797 0)"/>
      </g>
     </g>
    </g>
    <g id="ytick_19">
     <g id="line2d_22">
      <g>
       <use xlink:href="#m2ccfb37293" x="244.56875" y="223.387599" style="stroke: #000000; stroke-width: 0.8"/>
      </g>
     </g>
     <g id="text_23">
      <!-- ubiquitin-dependent protein catabolic process -->
      <g transform="translate(7.2 227.186817) scale(0.1 -0.1)">
       <use xlink:href="#DejaVuSans-75"/>
       <use xlink:href="#DejaVuSans-62" transform="translate(63.378906 0)"/>
       <use xlink:href="#DejaVuSans-69" transform="translate(126.855469 0)"/>
       <use xlink:href="#DejaVuSans-71" transform="translate(154.638672 0)"/>
       <use xlink:href="#DejaVuSans-75" transform="translate(218.115234 0)"/>
       <use xlink:href="#DejaVuSans-69" transform="translate(281.494141 0)"/>
       <use xlink:href="#DejaVuSans-74" transform="translate(309.277344 0)"/>
       <use xlink:href="#DejaVuSans-69" transform="translate(348.486328 0)"/>
       <use xlink:href="#DejaVuSans-6e" transform="translate(376.269531 0)"/>
       <use xlink:href="#DejaVuSans-2d" transform="translate(439.648438 0)"/>
       <use xlink:href="#DejaVuSans-64" transform="translate(475.732422 0)"/>
       <use xlink:href="#DejaVuSans-65" transform="translate(539.208984 0)"/>
       <use xlink:href="#DejaVuSans-70" transform="translate(600.732422 0)"/>
       <use xlink:href="#DejaVuSans-65" transform="translate(664.208984 0)"/>
       <use xlink:href="#DejaVuSans-6e" transform="translate(725.732422 0)"/>
       <use xlink:href="#DejaVuSans-64" transform="translate(789.111328 0)"/>
       <use xlink:href="#DejaVuSans-65" transform="translate(852.587891 0)"/>
       <use xlink:href="#DejaVuSans-6e" transform="translate(914.111328 0)"/>
       <use xlink:href="#DejaVuSans-74" transform="translate(977.490234 0)"/>
       <use xlink:href="#DejaVuSans-20" transform="translate(1016.699219 0)"/>
       <use xlink:href="#DejaVuSans-70" transform="translate(1048.486328 0)"/>
       <use xlink:href="#DejaVuSans-72" transform="translate(1111.962891 0)"/>
       <use xlink:href="#DejaVuSans-6f" transform="translate(1150.826172 0)"/>
       <use xlink:href="#DejaVuSans-74" transform="translate(1212.007812 0)"/>
       <use xlink:href="#DejaVuSans-65" transform="translate(1251.216797 0)"/>
       <use xlink:href="#DejaVuSans-69" transform="translate(1312.740234 0)"/>
       <use xlink:href="#DejaVuSans-6e" transform="translate(1340.523438 0)"/>
       <use xlink:href="#DejaVuSans-20" transform="translate(1403.902344 0)"/>
       <use xlink:href="#DejaVuSans-63" transform="translate(1435.689453 0)"/>
       <use xlink:href="#DejaVuSans-61" transform="translate(1490.669922 0)"/>
       <use xlink:href="#DejaVuSans-74" transform="translate(1551.949219 0)"/>
       <use xlink:href="#DejaVuSans-61" transform="translate(1591.158203 0)"/>
       <use xlink:href="#DejaVuSans-62" transform="translate(1652.4375 0)"/>
       <use xlink:href="#DejaVuSans-6f" transform="translate(1715.914062 0)"/>
       <use xlink:href="#DejaVuSans-6c" transform="translate(1777.095703 0)"/>
       <use xlink:href="#DejaVuSans-69" transform="translate(1804.878906 0)"/>
       <use xlink:href="#DejaVuSans-63" transform="translate(1832.662109 0)"/>
       <use xlink:href="#DejaVuSans-20" transform="translate(1887.642578 0)"/>
       <use xlink:href="#DejaVuSans-70" transform="translate(1919.429688 0)"/>
       <use xlink:href="#DejaVuSans-72" transform="translate(1982.90625 0)"/>
       <use xlink:href="#DejaVuSans-6f" transform="translate(2021.769531 0)"/>
       <use xlink:href="#DejaVuSans-63" transform="translate(2082.951172 0)"/>
       <use xlink:href="#DejaVuSans-65" transform="translate(2137.931641 0)"/>
       <use xlink:href="#DejaVuSans-73" transform="translate(2199.455078 0)"/>
       <use xlink:href="#DejaVuSans-73" transform="translate(2251.554688 0)"/>
      </g>
     </g>
    </g>
    <g id="ytick_20">
     <g id="line2d_23">
      <g>
       <use xlink:href="#m2ccfb37293" x="244.56875" y="233.998125" style="stroke: #000000; stroke-width: 0.8"/>
      </g>
     </g>
     <g id="text_24">
      <!-- cytoskeleton organization -->
      <g transform="translate(108.657812 237.797344) scale(0.1 -0.1)">
       <use xlink:href="#DejaVuSans-63"/>
       <use xlink:href="#DejaVuSans-79" transform="translate(54.980469 0)"/>
       <use xlink:href="#DejaVuSans-74" transform="translate(114.160156 0)"/>
       <use xlink:href="#DejaVuSans-6f" transform="translate(153.369141 0)"/>
       <use xlink:href="#DejaVuSans-73" transform="translate(214.550781 0)"/>
       <use xlink:href="#DejaVuSans-6b" transform="translate(266.650391 0)"/>
       <use xlink:href="#DejaVuSans-65" transform="translate(320.935547 0)"/>
       <use xlink:href="#DejaVuSans-6c" transform="translate(382.458984 0)"/>
       <use xlink:href="#DejaVuSans-65" transform="translate(410.242188 0)"/>
       <use xlink:href="#DejaVuSans-74" transform="translate(471.765625 0)"/>
       <use xlink:href="#DejaVuSans-6f" transform="translate(510.974609 0)"/>
       <use xlink:href="#DejaVuSans-6e" transform="translate(572.15625 0)"/>
       <use xlink:href="#DejaVuSans-20" transform="translate(635.535156 0)"/>
       <use xlink:href="#DejaVuSans-6f" transform="translate(667.322266 0)"/>
       <use xlink:href="#DejaVuSans-72" transform="translate(728.503906 0)"/>
       <use xlink:href="#DejaVuSans-67" transform="translate(767.867188 0)"/>
       <use xlink:href="#DejaVuSans-61" transform="translate(831.34375 0)"/>
       <use xlink:href="#DejaVuSans-6e" transform="translate(892.623047 0)"/>
       <use xlink:href="#DejaVuSans-69" transform="translate(956.001953 0)"/>
       <use xlink:href="#DejaVuSans-7a" transform="translate(983.785156 0)"/>
       <use xlink:href="#DejaVuSans-61" transform="translate(1036.275391 0)"/>
       <use xlink:href="#DejaVuSans-74" transform="translate(1097.554688 0)"/>
       <use xlink:href="#DejaVuSans-69" transform="translate(1136.763672 0)"/>
       <use xlink:href="#DejaVuSans-6f" transform="translate(1164.546875 0)"/>
       <use xlink:href="#DejaVuSans-6e" transform="translate(1225.728516 0)"/>
      </g>
     </g>
    </g>
   </g>
   <g id="line2d_24"/>
   <g id="line2d_25"/>
   <g id="line2d_26"/>
   <g id="line2d_27"/>
   <g id="line2d_28"/>
   <g id="line2d_29"/>
   <g id="line2d_30"/>
   <g id="line2d_31"/>
   <g id="line2d_32"/>
   <g id="line2d_33"/>
   <g id="line2d_34"/>
   <g id="line2d_35"/>
   <g id="patch_3">
    <path d="M 244.56875 244.078125 
L 244.56875 22.318125 
" style="fill: none; stroke: #000000; stroke-width: 0.8; stroke-linejoin: miter; stroke-linecap: square"/>
   </g>
   <g id="patch_4">
    <path d="M 411.96875 244.078125 
L 411.96875 22.318125 
" style="fill: none; stroke: #000000; stroke-width: 0.8; stroke-linejoin: miter; stroke-linecap: square"/>
   </g>
   <g id="patch_5">
    <path d="M 244.56875 244.078125 
L 411.96875 244.078125 
" style="fill: none; stroke: #000000; stroke-width: 0.8; stroke-linejoin: miter; stroke-linecap: square"/>
   </g>
   <g id="patch_6">
    <path d="M 244.56875 22.318125 
L 411.96875 22.318125 
" style="fill: none; stroke: #000000; stroke-width: 0.8; stroke-linejoin: miter; stroke-linecap: square"/>
   </g>
   <g id="text_25">
    <!-- Top 20 Enriched Biological Processes -->
    <g transform="translate(218.064688 16.318125) scale(0.12 -0.12)">
     <defs>
      <path id="DejaVuSans-54" d="M -19 4666 
L 3928 4666 
L 3928 4134 
L 2272 4134 
L 2272 0 
L 1638 0 
L 1638 4134 
L -19 4134 
L -19 4666 
z
" transform="scale(0.015625)"/>
      <path id="DejaVuSans-42" d="M 1259 2228 
L 1259 519 
L 2272 519 
Q 2781 519 3026 730 
Q 3272 941 3272 1375 
Q 3272 1813 3026 2020 
Q 2781 2228 2272 2228 
L 1259 2228 
z
M 1259 4147 
L 1259 2741 
L 2194 2741 
Q 2656 2741 2882 2914 
Q 3109 3088 3109 3444 
Q 3109 3797 2882 3972 
Q 2656 4147 2194 4147 
L 1259 4147 
z
M 628 4666 
L 2241 4666 
Q 2963 4666 3353 4366 
Q 3744 4066 3744 3513 
Q 3744 3084 3544 2831 
Q 3344 2578 2956 2516 
Q 3422 2416 3680 2098 
Q 3938 1781 3938 1306 
Q 3938 681 3513 340 
Q 3088 0 2303 0 
L 628 0 
L 628 4666 
z
" transform="scale(0.015625)"/>
      <path id="DejaVuSans-50" d="M 1259 4147 
L 1259 2394 
L 2053 2394 
Q 2494 2394 2734 2622 
Q 2975 2850 2975 3272 
Q 2975 3691 2734 3919 
Q 2494 4147 2053 4147 
L 1259 4147 
z
M 628 4666 
L 2053 4666 
Q 2838 4666 3239 4311 
Q 3641 3956 3641 3272 
Q 3641 2581 3239 2228 
Q 2838 1875 2053 1875 
L 1259 1875 
L 1259 0 
L 628 0 
L 628 4666 
z
" transform="scale(0.015625)"/>
     </defs>
     <use xlink:href="#DejaVuSans-54"/>
     <use xlink:href="#DejaVuSans-6f" transform="translate(44.083984 0)"/>
     <use xlink:href="#DejaVuSans-70" transform="translate(105.265625 0)"/>
     <use xlink:href="#DejaVuSans-20" transform="translate(168.742188 0)"/>
     <use xlink:href="#DejaVuSans-32" transform="translate(200.529297 0)"/>
     <use xlink:href="#DejaVuSans-30" transform="translate(264.152344 0)"/>
     <use xlink:href="#DejaVuSans-20" transform="translate(327.775391 0)"/>
     <use xlink:href="#DejaVuSans-45" transform="translate(359.5625 0)"/>
     <use xlink:href="#DejaVuSans-6e" transform="translate(422.746094 0)"/>
     <use xlink:href="#DejaVuSans-72" transform="translate(486.125 0)"/>
     <use xlink:href="#DejaVuSans-69" transform="translate(527.238281 0)"/>
     <use xlink:href="#DejaVuSans-63" transform="translate(555.021484 0)"/>
     <use xlink:href="#DejaVuSans-68" transform="translate(610.001953 0)"/>
     <use xlink:href="#DejaVuSans-65" transform="translate(673.380859 0)"/>
     <use xlink:href="#DejaVuSans-64" transform="translate(734.904297 0)"/>
     <use xlink:href="#DejaVuSans-20" transform="translate(798.380859 0)"/>
     <use xlink:href="#DejaVuSans-42" transform="translate(830.167969 0)"/>
     <use xlink:href="#DejaVuSans-69" transform="translate(898.771484 0)"/>
     <use xlink:href="#DejaVuSans-6f" transform="translate(926.554688 0)"/>
     <use xlink:href="#DejaVuSans-6c" transform="translate(987.736328 0)"/>
     <use xlink:href="#DejaVuSans-6f" transform="translate(1015.519531 0)"/>
     <use xlink:href="#DejaVuSans-67" transform="translate(1076.701172 0)"/>
     <use xlink:href="#DejaVuSans-69" transform="translate(1140.177734 0)"/>
     <use xlink:href="#DejaVuSans-63" transform="translate(1167.960938 0)"/>
     <use xlink:href="#DejaVuSans-61" transform="translate(1222.941406 0)"/>
     <use xlink:href="#DejaVuSans-6c" transform="translate(1284.220703 0)"/>
     <use xlink:href="#DejaVuSans-20" transform="translate(1312.003906 0)"/>
     <use xlink:href="#DejaVuSans-50" transform="translate(1343.791016 0)"/>
     <use xlink:href="#DejaVuSans-72" transform="translate(1402.34375 0)"/>
     <use xlink:href="#DejaVuSans-6f" transform="translate(1441.207031 0)"/>
     <use xlink:href="#DejaVuSans-63" transform="translate(1502.388672 0)"/>
     <use xlink:href="#DejaVuSans-65" transform="translate(1557.369141 0)"/>
     <use xlink:href="#DejaVuSans-73" transform="translate(1618.892578 0)"/>
     <use xlink:href="#DejaVuSans-73" transform="translate(1670.992188 0)"/>
     <use xlink:href="#DejaVuSans-65" transform="translate(1723.091797 0)"/>
     <use xlink:href="#DejaVuSans-73" transform="translate(1784.615234 0)"/>
    </g>
   </g>
   <g id="legend_1">
    <g id="patch_7">
     <path d="M 418.96875 206.455625 
L 506.207812 206.455625 
Q 508.207812 206.455625 508.207812 204.455625 
L 508.207812 29.318125 
Q 508.207812 27.318125 506.207812 27.318125 
L 418.96875 27.318125 
Q 416.96875 27.318125 416.96875 29.318125 
L 416.96875 204.455625 
Q 416.96875 206.455625 418.96875 206.455625 
z
" style="fill: #ffffff; opacity: 0.8; stroke: #cccccc; stroke-linejoin: miter"/>
    </g>
    <g id="line2d_36"/>
    <g id="text_26">
     <!-- -log10 FDR -->
     <g transform="translate(448.96875 38.916562) scale(0.1 -0.1)">
      <defs>
       <path id="DejaVuSans-31" d="M 794 531 
L 1825 531 
L 1825 4091 
L 703 3866 
L 703 4441 
L 1819 4666 
L 2450 4666 
L 2450 531 
L 3481 531 
L 3481 0 
L 794 0 
L 794 531 
z
" transform="scale(0.015625)"/>
       <path id="DejaVuSans-44" d="M 1259 4147 
L 1259 519 
L 2022 519 
Q 2988 519 3436 956 
Q 3884 1394 3884 2338 
Q 3884 3275 3436 3711 
Q 2988 4147 2022 4147 
L 1259 4147 
z
M 628 4666 
L 1925 4666 
Q 3281 4666 3915 4102 
Q 4550 3538 4550 2338 
Q 4550 1131 3912 565 
Q 3275 0 1925 0 
L 628 0 
L 628 4666 
z
" transform="scale(0.015625)"/>
       <path id="DejaVuSans-52" d="M 2841 2188 
Q 3044 2119 3236 1894 
Q 3428 1669 3622 1275 
L 4263 0 
L 3584 0 
L 2988 1197 
Q 2756 1666 2539 1819 
Q 2322 1972 1947 1972 
L 1259 1972 
L 1259 0 
L 628 0 
L 628 4666 
L 2053 4666 
Q 2853 4666 3247 4331 
Q 3641 3997 3641 3322 
Q 3641 2881 3436 2590 
Q 3231 2300 2841 2188 
z
M 1259 4147 
L 1259 2491 
L 2053 2491 
Q 2509 2491 2742 2702 
Q 2975 2913 2975 3322 
Q 2975 3731 2742 3939 
Q 2509 4147 2053 4147 
L 1259 4147 
z
" transform="scale(0.015625)"/>
      </defs>
      <use xlink:href="#DejaVuSans-2d"/>
      <use xlink:href="#DejaVuSans-6c" transform="translate(36.083984 0)"/>
      <use xlink:href="#DejaVuSans-6f" transform="translate(63.867188 0)"/>
      <use xlink:href="#DejaVuSans-67" transform="translate(125.048828 0)"/>
      <use xlink:href="#DejaVuSans-31" transform="translate(188.525391 0)"/>
      <use xlink:href="#DejaVuSans-30" transform="translate(252.148438 0)"/>
      <use xlink:href="#DejaVuSans-20" transform="translate(315.771484 0)"/>
      <use xlink:href="#DejaVuSans-46" transform="translate(347.558594 0)"/>
      <use xlink:href="#DejaVuSans-44" transform="translate(405.078125 0)"/>
      <use xlink:href="#DejaVuSans-52" transform="translate(482.080078 0)"/>
     </g>
    </g>
    <g id="line2d_37">
     <defs>
      <path id="mc87caa3f52" d="M 0 3 
C 0.795609 3 1.55874 2.683901 2.12132 2.12132 
C 2.683901 1.55874 3 0.795609 3 0 
C 3 -0.795609 2.683901 -1.55874 2.12132 -2.12132 
C 1.55874 -2.683901 0.795609 -3 0 -3 
C -0.795609 -3 -1.55874 -2.683901 -2.12132 -2.12132 
C -2.683901 -1.55874 -3 -0.795609 -3 0 
C -3 0.795609 -2.683901 1.55874 -2.12132 2.12132 
C -1.55874 2.683901 -0.795609 3 0 3 
z
" style="stroke: #ffffff; stroke-width: 0.523417"/>
     </defs>
     <g>
      <use xlink:href="#mc87caa3f52" x="430.96875" y="50.094687" style="fill: #6b8df0; stroke: #ffffff; stroke-width: 0.523417"/>
     </g>
    </g>
    <g id="text_27">
     <!-- 5 -->
     <g transform="translate(448.96875 53.594687) scale(0.1 -0.1)">
      <use xlink:href="#DejaVuSans-35"/>
     </g>
    </g>
    <g id="line2d_38">
     <defs>
      <path id="m8a6984da12" d="M 0 3 
C 0.795609 3 1.55874 2.683901 2.12132 2.12132 
C 2.683901 1.55874 3 0.795609 3 0 
C 3 -0.795609 2.683901 -1.55874 2.12132 -2.12132 
C 1.55874 -2.683901 0.795609 -3 0 -3 
C -0.795609 -3 -1.55874 -2.683901 -2.12132 -2.12132 
C -2.683901 -1.55874 -3 -0.795609 -3 0 
C -3 0.795609 -2.683901 1.55874 -2.12132 2.12132 
C -1.55874 2.683901 -0.795609 3 0 3 
z
" style="stroke: #ffffff; stroke-width: 0.523417"/>
     </defs>
     <g>
      <use xlink:href="#m8a6984da12" x="430.96875" y="64.772812" style="fill: #aac7fd; stroke: #ffffff; stroke-width: 0.523417"/>
     </g>
    </g>
    <g id="text_28">
     <!-- 6 -->
     <g transform="translate(448.96875 68.272812) scale(0.1 -0.1)">
      <defs>
       <path id="DejaVuSans-36" d="M 2113 2584 
Q 1688 2584 1439 2293 
Q 1191 2003 1191 1497 
Q 1191 994 1439 701 
Q 1688 409 2113 409 
Q 2538 409 2786 701 
Q 3034 994 3034 1497 
Q 3034 2003 2786 2293 
Q 2538 2584 2113 2584 
z
M 3366 4563 
L 3366 3988 
Q 3128 4100 2886 4159 
Q 2644 4219 2406 4219 
Q 1781 4219 1451 3797 
Q 1122 3375 1075 2522 
Q 1259 2794 1537 2939 
Q 1816 3084 2150 3084 
Q 2853 3084 3261 2657 
Q 3669 2231 3669 1497 
Q 3669 778 3244 343 
Q 2819 -91 2113 -91 
Q 1303 -91 875 529 
Q 447 1150 447 2328 
Q 447 3434 972 4092 
Q 1497 4750 2381 4750 
Q 2619 4750 2861 4703 
Q 3103 4656 3366 4563 
z
" transform="scale(0.015625)"/>
      </defs>
      <use xlink:href="#DejaVuSans-36"/>
     </g>
    </g>
    <g id="line2d_39">
     <defs>
      <path id="mf748b4dc9a" d="M 0 3 
C 0.795609 3 1.55874 2.683901 2.12132 2.12132 
C 2.683901 1.55874 3 0.795609 3 0 
C 3 -0.795609 2.683901 -1.55874 2.12132 -2.12132 
C 1.55874 -2.683901 0.795609 -3 0 -3 
C -0.795609 -3 -1.55874 -2.683901 -2.12132 -2.12132 
C -2.683901 -1.55874 -3 -0.795609 -3 0 
C -3 0.795609 -2.683901 1.55874 -2.12132 2.12132 
C -1.55874 2.683901 -0.795609 3 0 3 
z
" style="stroke: #ffffff; stroke-width: 0.523417"/>
     </defs>
     <g>
      <use xlink:href="#mf748b4dc9a" x="430.96875" y="79.450937" style="fill: #e0dbd8; stroke: #ffffff; stroke-width: 0.523417"/>
     </g>
    </g>
    <g id="text_29">
     <!-- 7 -->
     <g transform="translate(448.96875 82.950937) scale(0.1 -0.1)">
      <defs>
       <path id="DejaVuSans-37" d="M 525 4666 
L 3525 4666 
L 3525 4397 
L 1831 0 
L 1172 0 
L 2766 4134 
L 525 4134 
L 525 4666 
z
" transform="scale(0.015625)"/>
      </defs>
      <use xlink:href="#DejaVuSans-37"/>
     </g>
    </g>
    <g id="line2d_40">
     <defs>
      <path id="m4165756ae0" d="M 0 3 
C 0.795609 3 1.55874 2.683901 2.12132 2.12132 
C 2.683901 1.55874 3 0.795609 3 0 
C 3 -0.795609 2.683901 -1.55874 2.12132 -2.12132 
C 1.55874 -2.683901 0.795609 -3 0 -3 
C -0.795609 -3 -1.55874 -2.683901 -2.12132 -2.12132 
C -2.683901 -1.55874 -3 -0.795609 -3 0 
C -3 0.795609 -2.683901 1.55874 -2.12132 2.12132 
C -1.55874 2.683901 -0.795609 3 0 3 
z
" style="stroke: #ffffff; stroke-width: 0.523417"/>
     </defs>
     <g>
      <use xlink:href="#m4165756ae0" x="430.96875" y="94.129062" style="fill: #f7ad90; stroke: #ffffff; stroke-width: 0.523417"/>
     </g>
    </g>
    <g id="text_30">
     <!-- 8 -->
     <g transform="translate(448.96875 97.629062) scale(0.1 -0.1)">
      <use xlink:href="#DejaVuSans-38"/>
     </g>
    </g>
    <g id="line2d_41">
     <defs>
      <path id="m35effa6dd2" d="M 0 3 
C 0.795609 3 1.55874 2.683901 2.12132 2.12132 
C 2.683901 1.55874 3 0.795609 3 0 
C 3 -0.795609 2.683901 -1.55874 2.12132 -2.12132 
C 1.55874 -2.683901 0.795609 -3 0 -3 
C -0.795609 -3 -1.55874 -2.683901 -2.12132 -2.12132 
C -2.683901 -1.55874 -3 -0.795609 -3 0 
C -3 0.795609 -2.683901 1.55874 -2.12132 2.12132 
C -1.55874 2.683901 -0.795609 3 0 3 
z
" style="stroke: #ffffff; stroke-width: 0.523417"/>
     </defs>
     <g>
      <use xlink:href="#m35effa6dd2" x="430.96875" y="108.807187" style="fill: #dd5f4b; stroke: #ffffff; stroke-width: 0.523417"/>
     </g>
    </g>
    <g id="text_31">
     <!-- 9 -->
     <g transform="translate(448.96875 112.307187) scale(0.1 -0.1)">
      <defs>
       <path id="DejaVuSans-39" d="M 703 97 
L 703 672 
Q 941 559 1184 500 
Q 1428 441 1663 441 
Q 2288 441 2617 861 
Q 2947 1281 2994 2138 
Q 2813 1869 2534 1725 
Q 2256 1581 1919 1581 
Q 1219 1581 811 2004 
Q 403 2428 403 3163 
Q 403 3881 828 4315 
Q 1253 4750 1959 4750 
Q 2769 4750 3195 4129 
Q 3622 3509 3622 2328 
Q 3622 1225 3098 567 
Q 2575 -91 1691 -91 
Q 1453 -91 1209 -44 
Q 966 3 703 97 
z
M 1959 2075 
Q 2384 2075 2632 2365 
Q 2881 2656 2881 3163 
Q 2881 3666 2632 3958 
Q 2384 4250 1959 4250 
Q 1534 4250 1286 3958 
Q 1038 3666 1038 3163 
Q 1038 2656 1286 2365 
Q 1534 2075 1959 2075 
z
" transform="scale(0.015625)"/>
      </defs>
      <use xlink:href="#DejaVuSans-39"/>
     </g>
    </g>
    <g id="line2d_42"/>
    <g id="text_32">
     <!-- Gene Ratio -->
     <g transform="translate(448.96875 126.985312) scale(0.1 -0.1)">
      <defs>
       <path id="DejaVuSans-47" d="M 3809 666 
L 3809 1919 
L 2778 1919 
L 2778 2438 
L 4434 2438 
L 4434 434 
Q 4069 175 3628 42 
Q 3188 -91 2688 -91 
Q 1594 -91 976 548 
Q 359 1188 359 2328 
Q 359 3472 976 4111 
Q 1594 4750 2688 4750 
Q 3144 4750 3555 4637 
Q 3966 4525 4313 4306 
L 4313 3634 
Q 3963 3931 3569 4081 
Q 3175 4231 2741 4231 
Q 1884 4231 1454 3753 
Q 1025 3275 1025 2328 
Q 1025 1384 1454 906 
Q 1884 428 2741 428 
Q 3075 428 3337 486 
Q 3600 544 3809 666 
z
" transform="scale(0.015625)"/>
      </defs>
      <use xlink:href="#DejaVuSans-47"/>
      <use xlink:href="#DejaVuSans-65" transform="translate(77.490234 0)"/>
      <use xlink:href="#DejaVuSans-6e" transform="translate(139.013672 0)"/>
      <use xlink:href="#DejaVuSans-65" transform="translate(202.392578 0)"/>
      <use xlink:href="#DejaVuSans-20" transform="translate(263.916016 0)"/>
      <use xlink:href="#DejaVuSans-52" transform="translate(295.703125 0)"/>
      <use xlink:href="#DejaVuSans-61" transform="translate(362.935547 0)"/>
      <use xlink:href="#DejaVuSans-74" transform="translate(424.214844 0)"/>
      <use xlink:href="#DejaVuSans-69" transform="translate(463.423828 0)"/>
      <use xlink:href="#DejaVuSans-6f" transform="translate(491.207031 0)"/>
     </g>
    </g>
    <g id="line2d_43">
     <defs>
      <path id="m6e188db343" d="M 0 2.735215 
C 0.725388 2.735215 1.421163 2.447016 1.934089 1.934089 
C 2.447016 1.421163 2.735215 0.725388 2.735215 0 
C 2.735215 -0.725388 2.447016 -1.421163 1.934089 -1.934089 
C 1.421163 -2.447016 0.725388 -2.735215 0 -2.735215 
C -0.725388 -2.735215 -1.421163 -2.447016 -1.934089 -1.934089 
C -2.447016 -1.421163 -2.735215 -0.725388 -2.735215 0 
C -2.735215 0.725388 -2.447016 1.421163 -1.934089 1.934089 
C -1.421163 2.447016 -0.725388 2.735215 0 2.735215 
z
" style="stroke: #ffffff; stroke-width: 0.523417"/>
     </defs>
     <g>
      <use xlink:href="#m6e188db343" x="430.96875" y="138.163437" style="fill: #333333; stroke: #ffffff; stroke-width: 0.523417"/>
     </g>
    </g>
    <g id="text_33">
     <!-- 0.008 -->
     <g transform="translate(448.96875 141.663437) scale(0.1 -0.1)">
      <use xlink:href="#DejaVuSans-30"/>
      <use xlink:href="#DejaVuSans-2e" transform="translate(63.623047 0)"/>
      <use xlink:href="#DejaVuSans-30" transform="translate(95.410156 0)"/>
      <use xlink:href="#DejaVuSans-30" transform="translate(159.033203 0)"/>
      <use xlink:href="#DejaVuSans-38" transform="translate(222.65625 0)"/>
     </g>
    </g>
    <g id="line2d_44">
     <defs>
      <path id="ma3804f3458" d="M 0 3.683558 
C 0.976891 3.683558 1.913902 3.295435 2.604669 2.604669 
C 3.295435 1.913902 3.683558 0.976891 3.683558 0 
C 3.683558 -0.976891 3.295435 -1.913902 2.604669 -2.604669 
C 1.913902 -3.295435 0.976891 -3.683558 0 -3.683558 
C -0.976891 -3.683558 -1.913902 -3.295435 -2.604669 -2.604669 
C -3.295435 -1.913902 -3.683558 -0.976891 -3.683558 0 
C -3.683558 0.976891 -3.295435 1.913902 -2.604669 2.604669 
C -1.913902 3.295435 -0.976891 3.683558 0 3.683558 
z
" style="stroke: #ffffff; stroke-width: 0.523417"/>
     </defs>
     <g>
      <use xlink:href="#ma3804f3458" x="430.96875" y="152.841562" style="fill: #333333; stroke: #ffffff; stroke-width: 0.523417"/>
     </g>
    </g>
    <g id="text_34">
     <!-- 0.012 -->
     <g transform="translate(448.96875 156.341562) scale(0.1 -0.1)">
      <use xlink:href="#DejaVuSans-30"/>
      <use xlink:href="#DejaVuSans-2e" transform="translate(63.623047 0)"/>
      <use xlink:href="#DejaVuSans-30" transform="translate(95.410156 0)"/>
      <use xlink:href="#DejaVuSans-31" transform="translate(159.033203 0)"/>
      <use xlink:href="#DejaVuSans-32" transform="translate(222.65625 0)"/>
     </g>
    </g>
    <g id="line2d_45">
     <defs>
      <path id="md19f5ceba5" d="M 0 4.433485 
C 1.175774 4.433485 2.30355 3.966345 3.134947 3.134947 
C 3.966345 2.30355 4.433485 1.175774 4.433485 0 
C 4.433485 -1.175774 3.966345 -2.30355 3.134947 -3.134947 
C 2.30355 -3.966345 1.175774 -4.433485 0 -4.433485 
C -1.175774 -4.433485 -2.30355 -3.966345 -3.134947 -3.134947 
C -3.966345 -2.30355 -4.433485 -1.175774 -4.433485 0 
C -4.433485 1.175774 -3.966345 2.30355 -3.134947 3.134947 
C -2.30355 3.966345 -1.175774 4.433485 0 4.433485 
z
" style="stroke: #ffffff; stroke-width: 0.523417"/>
     </defs>
     <g>
      <use xlink:href="#md19f5ceba5" x="430.96875" y="167.519687" style="fill: #333333; stroke: #ffffff; stroke-width: 0.523417"/>
     </g>
    </g>
    <g id="text_35">
     <!-- 0.016 -->
     <g transform="translate(448.96875 171.019687) scale(0.1 -0.1)">
      <use xlink:href="#DejaVuSans-30"/>
      <use xlink:href="#DejaVuSans-2e" transform="translate(63.623047 0)"/>
      <use xlink:href="#DejaVuSans-30" transform="translate(95.410156 0)"/>
      <use xlink:href="#DejaVuSans-31" transform="translate(159.033203 0)"/>
      <use xlink:href="#DejaVuSans-36" transform="translate(222.65625 0)"/>
     </g>
    </g>
    <g id="line2d_46">
     <defs>
      <path id="m82af2310d4" d="M 0 5.073754 
C 1.345575 5.073754 2.636221 4.539152 3.587686 3.587686 
C 4.539152 2.636221 5.073754 1.345575 5.073754 0 
C 5.073754 -1.345575 4.539152 -2.636221 3.587686 -3.587686 
C 2.636221 -4.539152 1.345575 -5.073754 0 -5.073754 
C -1.345575 -5.073754 -2.636221 -4.539152 -3.587686 -3.587686 
C -4.539152 -2.636221 -5.073754 -1.345575 -5.073754 0 
C -5.073754 1.345575 -4.539152 2.636221 -3.587686 3.587686 
C -2.636221 4.539152 -1.345575 5.073754 0 5.073754 
z
" style="stroke: #ffffff; stroke-width: 0.523417"/>
     </defs>
     <g>
      <use xlink:href="#m82af2310d4" x="430.96875" y="182.197812" style="fill: #333333; stroke: #ffffff; stroke-width: 0.523417"/>
     </g>
    </g>
    <g id="text_36">
     <!-- 0.020 -->
     <g transform="translate(448.96875 185.697812) scale(0.1 -0.1)">
      <use xlink:href="#DejaVuSans-30"/>
      <use xlink:href="#DejaVuSans-2e" transform="translate(63.623047 0)"/>
      <use xlink:href="#DejaVuSans-30" transform="translate(95.410156 0)"/>
      <use xlink:href="#DejaVuSans-32" transform="translate(159.033203 0)"/>
      <use xlink:href="#DejaVuSans-30" transform="translate(222.65625 0)"/>
     </g>
    </g>
    <g id="line2d_47">
     <defs>
      <path id="m49ed82bd2b" d="M 0 5.641824 
C 1.496229 5.641824 2.931378 5.047366 3.989372 3.989372 
C 5.047366 2.931378 5.641824 1.496229 5.641824 0 
C 5.641824 -1.496229 5.047366 -2.931378 3.989372 -3.989372 
C 2.931378 -5.047366 1.496229 -5.641824 0 -5.641824 
C -1.496229 -5.641824 -2.931378 -5.047366 -3.989372 -3.989372 
C -5.047366 -2.931378 -5.641824 -1.496229 -5.641824 0 
C -5.641824 1.496229 -5.047366 2.931378 -3.989372 3.989372 
C -2.931378 5.047366 -1.496229 5.641824 0 5.641824 
z
" style="stroke: #ffffff; stroke-width: 0.523417"/>
     </defs>
     <g>
      <use xlink:href="#m49ed82bd2b" x="430.96875" y="196.875937" style="fill: #333333; stroke: #ffffff; stroke-width: 0.523417"/>
     </g>
    </g>
    <g id="text_37">
     <!-- 0.024 -->
     <g transform="translate(448.96875 200.375937) scale(0.1 -0.1)">
      <use xlink:href="#DejaVuSans-30"/>
      <use xlink:href="#DejaVuSans-2e" transform="translate(63.623047 0)"/>
      <use xlink:href="#DejaVuSans-30" transform="translate(95.410156 0)"/>
      <use xlink:href="#DejaVuSans-32" transform="translate(159.033203 0)"/>
      <use xlink:href="#DejaVuSans-34" transform="translate(222.65625 0)"/>
     </g>
    </g>
   </g>
  </g>
 </g>
 <defs>
  <clipPath id="p22820d3014">
   <rect x="244.56875" y="22.318125" width="167.4" height="221.76"/>
  </clipPath>
 </defs>
</svg>
