<?xml version="1.0" encoding="utf-8" standalone="no"?>
<!DOCTYPE svg PUBLIC "-//W3C//DTD SVG 1.1//EN"
  "http://www.w3.org/Graphics/SVG/1.1/DTD/svg11.dtd">
<svg xmlns:xlink="http://www.w3.org/1999/xlink" width="698.318437pt" height="325.986375pt" viewBox="0 0 698.318437 325.986375" xmlns="http://www.w3.org/2000/svg" version="1.1">
 <metadata>
  <rdf:RDF xmlns:dc="http://purl.org/dc/elements/1.1/" xmlns:cc="http://creativecommons.org/ns#" xmlns:rdf="http://www.w3.org/1999/02/22-rdf-syntax-ns#">
   <cc:Work>
    <dc:type rdf:resource="http://purl.org/dc/dcmitype/StillImage"/>
    <dc:date>2025-12-10T14:23:21.019540</dc:date>
    <dc:format>image/svg+xml</dc:format>
    <dc:creator>
     <cc:Agent>
      <dc:title>Matplotlib v3.10.7, https://matplotlib.org/</dc:title>
     </cc:Agent>
    </dc:creator>
   </cc:Work>
  </rdf:RDF>
 </metadata>
 <defs>
  <style type="text/css">*{stroke-linejoin: round; stroke-linecap: butt}</style>
 </defs>
 <g id="figure_1">
  <g id="patch_1">
   <path d="M 0 325.986375 
L 698.318437 325.986375 
L 698.318437 0 
L 0 0 
z
" style="fill: #ffffff"/>
  </g>
  <g id="axes_1">
   <g id="patch_2">
    <path d="M 237.759375 288.430125 
L 594.879375 288.430125 
L 594.879375 22.318125 
L 237.759375 22.318125 
z
" style="fill: #ffffff"/>
   </g>
   <g id="PathCollection_1">
    <path d="M 578.646648 37.043149 
C 579.343873 37.043149 580.012635 36.766138 580.505648 36.273125 
C 580.998661 35.780113 581.275671 35.11135 581.275671 34.414125 
C 581.275671 33.7169 580.998661 33.048137 580.505648 32.555125 
C 580.012635 32.062112 579.343873 31.785101 578.646648 31.785101 
C 577.949423 31.785101 577.28066 32.062112 576.787647 32.555125 
C 576.294635 33.048137 576.017624 33.7169 576.017624 34.414125 
C 576.017624 35.11135 576.294635 35.780113 576.787647 36.273125 
C 577.28066 36.766138 577.949423 37.043149 578.646648 37.043149 
z
" clip-path="url(#pf476298345)" style="fill: #779af7; stroke: #ffffff; stroke-width: 0.416747"/>
    <path d="M 486.383711 50.612273 
C 487.302776 50.612273 488.184323 50.247124 488.834201 49.597247 
C 489.484078 48.947369 489.849227 48.065822 489.849227 47.146757 
C 489.849227 46.227691 489.484078 45.346144 488.834201 44.696266 
C 488.184323 44.046389 487.302776 43.68124 486.383711 43.68124 
C 485.464645 43.68124 484.583098 44.046389 483.933221 44.696266 
C 483.283343 45.346144 482.918194 46.227691 482.918194 47.146757 
C 482.918194 48.065822 483.283343 48.947369 483.933221 49.597247 
C 484.583098 50.247124 485.464645 50.612273 486.383711 50.612273 
z
" clip-path="url(#pf476298345)" style="fill: #b5cdfa; stroke: #ffffff; stroke-width: 0.416747"/>
    <path d="M 438.795459 62.115456 
C 439.388471 62.115456 439.957275 61.87985 440.376598 61.460527 
C 440.795921 61.041204 441.031527 60.4724 441.031527 59.879388 
C 441.031527 59.286376 440.795921 58.717572 440.376598 58.298249 
C 439.957275 57.878926 439.388471 57.64332 438.795459 57.64332 
C 438.202447 57.64332 437.633643 57.878926 437.21432 58.298249 
C 436.794997 58.717572 436.559391 59.286376 436.559391 59.879388 
C 436.559391 60.4724 436.794997 61.041204 437.21432 61.460527 
C 437.633643 61.87985 438.202447 62.115456 438.795459 62.115456 
z
" clip-path="url(#pf476298345)" style="fill: #3e51c5; stroke: #ffffff; stroke-width: 0.416747"/>
    <path d="M 438.795459 75.241043 
C 439.492684 75.241043 440.161447 74.964033 440.654459 74.47102 
C 441.147472 73.978007 441.424482 73.309245 441.424482 72.61202 
C 441.424482 71.914795 441.147472 71.246032 440.654459 70.753019 
C 440.161447 70.260007 439.492684 69.982996 438.795459 69.982996 
C 438.098234 69.982996 437.429471 70.260007 436.936459 70.753019 
C 436.443446 71.246032 436.166435 71.914795 436.166435 72.61202 
C 436.166435 73.309245 436.443446 73.978007 436.936459 74.47102 
C 437.429471 74.964033 438.098234 75.241043 438.795459 75.241043 
z
" clip-path="url(#pf476298345)" style="fill: #5875e1; stroke: #ffffff; stroke-width: 0.416747"/>
    <path d="M 438.795459 88.315094 
C 439.58323 88.315094 440.338841 88.002109 440.895879 87.445071 
C 441.452917 86.888034 441.765902 86.132422 441.765902 85.344651 
C 441.765902 84.556881 441.452917 83.801269 440.895879 83.244231 
C 440.338841 82.687193 439.58323 82.374209 438.795459 82.374209 
C 438.007688 82.374209 437.252077 82.687193 436.695039 83.244231 
C 436.138001 83.801269 435.825016 84.556881 435.825016 85.344651 
C 435.825016 86.132422 436.138001 86.888034 436.695039 87.445071 
C 437.252077 88.002109 438.007688 88.315094 438.795459 88.315094 
z
" clip-path="url(#pf476298345)" style="fill: #7396f5; stroke: #ffffff; stroke-width: 0.416747"/>
    <path d="M 429.73103 100.824831 
C 430.459688 100.824831 431.158601 100.535332 431.67384 100.020093 
C 432.189079 99.504853 432.478578 98.805941 432.478578 98.077283 
C 432.478578 97.348625 432.189079 96.649712 431.67384 96.134473 
C 431.158601 95.619234 430.459688 95.329735 429.73103 95.329735 
C 429.002372 95.329735 428.303459 95.619234 427.78822 96.134473 
C 427.272981 96.649712 426.983482 97.348625 426.983482 98.077283 
C 426.983482 98.805941 427.272981 99.504853 427.78822 100.020093 
C 428.303459 100.535332 429.002372 100.824831 429.73103 100.824831 
z
" clip-path="url(#pf476298345)" style="fill: #5f7fe8; stroke: #ffffff; stroke-width: 0.416747"/>
    <path d="M 424.399013 113.987656 
C 425.24176 113.987656 426.050103 113.652829 426.646015 113.056917 
C 427.241927 112.461005 427.576754 111.652661 427.576754 110.809914 
C 427.576754 109.967168 427.241927 109.158824 426.646015 108.562912 
C 426.050103 107.967 425.24176 107.632173 424.399013 107.632173 
C 423.556266 107.632173 422.747923 107.967 422.152011 108.562912 
C 421.556099 109.158824 421.221272 109.967168 421.221272 110.809914 
C 421.221272 111.652661 421.556099 112.461005 422.152011 113.056917 
C 422.747923 113.652829 423.556266 113.987656 424.399013 113.987656 
z
" clip-path="url(#pf476298345)" style="fill: #82a6fb; stroke: #ffffff; stroke-width: 0.416747"/>
    <path d="M 412.257432 128.828487 
C 413.65928 128.828487 415.003901 128.271527 415.995157 127.280271 
C 416.986413 126.289015 417.543374 124.944394 417.543374 123.542546 
C 417.543374 122.140698 416.986413 120.796077 415.995157 119.804821 
C 415.003901 118.813565 413.65928 118.256605 412.257432 118.256605 
C 410.855584 118.256605 409.510963 118.813565 408.519707 119.804821 
C 407.528451 120.796077 406.971491 122.140698 406.971491 123.542546 
C 406.971491 124.944394 407.528451 126.289015 408.519707 127.280271 
C 409.510963 128.271527 410.855584 128.828487 412.257432 128.828487 
z
" clip-path="url(#pf476298345)" style="fill: #cb3e38; stroke: #ffffff; stroke-width: 0.416747"/>
    <path d="M 367.413081 138.649468 
C 368.04275 138.649468 368.646715 138.399298 369.091958 137.954054 
C 369.537201 137.508811 369.787372 136.904847 369.787372 136.275178 
C 369.787372 135.645508 369.537201 135.041544 369.091958 134.596301 
C 368.646715 134.151057 368.04275 133.900887 367.413081 133.900887 
C 366.783412 133.900887 366.179448 134.151057 365.734204 134.596301 
C 365.288961 135.041544 365.038791 135.645508 365.038791 136.275178 
C 365.038791 136.904847 365.288961 137.508811 365.734204 137.954054 
C 366.179448 138.399298 366.783412 138.649468 367.413081 138.649468 
z
" clip-path="url(#pf476298345)" style="fill: #3b4cc0; stroke: #ffffff; stroke-width: 0.416747"/>
    <path d="M 351.058628 152.906024 
C 352.092447 152.906024 353.084062 152.495283 353.815082 151.764263 
C 354.546102 151.033243 354.956843 150.041628 354.956843 149.007809 
C 354.956843 147.973991 354.546102 146.982375 353.815082 146.251355 
C 353.084062 145.520335 352.092447 145.109594 351.058628 145.109594 
C 350.02481 145.109594 349.033194 145.520335 348.302174 146.251355 
C 347.571154 146.982375 347.160413 147.973991 347.160413 149.007809 
C 347.160413 150.041628 347.571154 151.033243 348.302174 151.764263 
C 349.033194 152.495283 350.02481 152.906024 351.058628 152.906024 
z
" clip-path="url(#pf476298345)" style="fill: #abc8fd; stroke: #ffffff; stroke-width: 0.416747"/>
    <path d="M 343.82189 166.174047 
C 344.997696 166.174047 346.125503 165.706894 346.956923 164.875474 
C 347.788344 164.044053 348.255496 162.916247 348.255496 161.740441 
C 348.255496 160.564635 347.788344 159.436828 346.956923 158.605408 
C 346.125503 157.773987 344.997696 157.306835 343.82189 157.306835 
C 342.646084 157.306835 341.518278 157.773987 340.686857 158.605408 
C 339.855437 159.436828 339.388284 160.564635 339.388284 161.740441 
C 339.388284 162.916247 339.855437 164.044053 340.686857 164.875474 
C 341.518278 165.706894 342.646084 166.174047 343.82189 166.174047 
z
" clip-path="url(#pf476298345)" style="fill: #dadce0; stroke: #ffffff; stroke-width: 0.416747"/>
    <path d="M 327.550195 178.371287 
C 328.584014 178.371287 329.575629 177.960547 330.306649 177.229526 
C 331.037669 176.498506 331.44841 175.506891 331.44841 174.473072 
C 331.44841 173.439254 331.037669 172.447638 330.306649 171.716618 
C 329.575629 170.985598 328.584014 170.574858 327.550195 170.574858 
C 326.516376 170.574858 325.524761 170.985598 324.793741 171.716618 
C 324.062721 172.447638 323.65198 173.439254 323.65198 174.473072 
C 323.65198 175.506891 324.062721 176.498506 324.793741 177.229526 
C 325.524761 177.960547 326.516376 178.371287 327.550195 178.371287 
z
" clip-path="url(#pf476298345)" style="fill: #a1c0ff; stroke: #ffffff; stroke-width: 0.416747"/>
    <path d="M 316.425669 191.780786 
C 317.638995 191.780786 318.802789 191.298726 319.66074 190.440775 
C 320.518691 189.582824 321.00075 188.41903 321.00075 187.205704 
C 321.00075 185.992378 320.518691 184.828584 319.66074 183.970633 
C 318.802789 183.112682 317.638995 182.630622 316.425669 182.630622 
C 315.212343 182.630622 314.048548 183.112682 313.190597 183.970633 
C 312.332646 184.828584 311.850587 185.992378 311.850587 187.205704 
C 311.850587 188.41903 312.332646 189.582824 313.190597 190.440775 
C 314.048548 191.298726 315.212343 191.780786 316.425669 191.780786 
z
" clip-path="url(#pf476298345)" style="fill: #d9dce1; stroke: #ffffff; stroke-width: 0.416747"/>
    <path d="M 305.301142 203.753938 
C 306.313052 203.753938 307.283653 203.351902 307.999181 202.636374 
C 308.714709 201.920846 309.116745 200.950245 309.116745 199.938336 
C 309.116745 198.926426 308.714709 197.955825 307.999181 197.240297 
C 307.283653 196.524769 306.313052 196.122733 305.301142 196.122733 
C 304.289233 196.122733 303.318632 196.524769 302.603104 197.240297 
C 301.887576 197.955825 301.48554 198.926426 301.48554 199.938336 
C 301.48554 200.950245 301.887576 201.920846 302.603104 202.636374 
C 303.318632 203.351902 304.289233 203.753938 305.301142 203.753938 
z
" clip-path="url(#pf476298345)" style="fill: #90b2fe; stroke: #ffffff; stroke-width: 0.416747"/>
    <path d="M 302.196623 218.794691 
C 303.820654 218.794691 305.378387 218.149457 306.52675 217.001094 
C 307.675113 215.852731 308.320348 214.294998 308.320348 212.670967 
C 308.320348 211.046936 307.675113 209.489203 306.52675 208.34084 
C 305.378387 207.192477 303.820654 206.547243 302.196623 206.547243 
C 300.572593 206.547243 299.014859 207.192477 297.866496 208.34084 
C 296.718133 209.489203 296.072899 211.046936 296.072899 212.670967 
C 296.072899 214.294998 296.718133 215.852731 297.866496 217.001094 
C 299.014859 218.149457 300.572593 218.794691 302.196623 218.794691 
z
" clip-path="url(#pf476298345)" style="fill: #b40426; stroke: #ffffff; stroke-width: 0.416747"/>
    <path d="M 289.82354 229.691063 
C 290.960589 229.691063 292.051221 229.239309 292.855236 228.435294 
C 293.659251 227.631279 294.111005 226.540648 294.111005 225.403599 
C 294.111005 224.26655 293.659251 223.175918 292.855236 222.371903 
C 292.051221 221.567888 290.960589 221.116134 289.82354 221.116134 
C 288.686491 221.116134 287.59586 221.567888 286.791845 222.371903 
C 285.98783 223.175918 285.536076 224.26655 285.536076 225.403599 
C 285.536076 226.540648 285.98783 227.631279 286.791845 228.435294 
C 287.59586 229.239309 288.686491 229.691063 289.82354 229.691063 
z
" clip-path="url(#pf476298345)" style="fill: #b2ccfb; stroke: #ffffff; stroke-width: 0.416747"/>
    <path d="M 285.833221 241.212069 
C 286.648943 241.212069 287.431365 240.887979 288.008168 240.311177 
C 288.58497 239.734374 288.90906 238.951952 288.90906 238.13623 
C 288.90906 237.320508 288.58497 236.538086 288.008168 235.961284 
C 287.431365 235.384481 286.648943 235.060391 285.833221 235.060391 
C 285.017499 235.060391 284.235077 235.384481 283.658275 235.961284 
C 283.081472 236.538086 282.757382 237.320508 282.757382 238.13623 
C 282.757382 238.951952 283.081472 239.734374 283.658275 240.311177 
C 284.235077 240.887979 285.017499 241.212069 285.833221 241.212069 
z
" clip-path="url(#pf476298345)" style="fill: #506bda; stroke: #ffffff; stroke-width: 0.416747"/>
    <path d="M 280.434554 253.61641 
C 281.163212 253.61641 281.862125 253.326911 282.377364 252.811672 
C 282.892603 252.296432 283.182102 251.59752 283.182102 250.868862 
C 283.182102 250.140204 282.892603 249.441291 282.377364 248.926052 
C 281.862125 248.410813 281.163212 248.121314 280.434554 248.121314 
C 279.705896 248.121314 279.006983 248.410813 278.491744 248.926052 
C 277.976505 249.441291 277.687006 250.140204 277.687006 250.868862 
C 277.687006 251.59752 277.976505 252.296432 278.491744 252.811672 
C 279.006983 253.326911 279.705896 253.61641 280.434554 253.61641 
z
" clip-path="url(#pf476298345)" style="fill: #3c4ec2; stroke: #ffffff; stroke-width: 0.416747"/>
    <path d="M 271.103524 267.246259 
C 272.070127 267.246259 272.997271 266.862223 273.680762 266.178732 
C 274.364254 265.49524 274.748289 264.568096 274.748289 263.601493 
C 274.748289 262.63489 274.364254 261.707747 273.680762 261.024255 
C 272.997271 260.340764 272.070127 259.956728 271.103524 259.956728 
C 270.136921 259.956728 269.209778 260.340764 268.526286 261.024255 
C 267.842794 261.707747 267.458759 262.63489 267.458759 263.601493 
C 267.458759 264.568096 267.842794 265.49524 268.526286 266.178732 
C 269.209778 266.862223 270.136921 267.246259 271.103524 267.246259 
z
" clip-path="url(#pf476298345)" style="fill: #7295f4; stroke: #ffffff; stroke-width: 0.416747"/>
    <path d="M 253.992102 279.706446 
C 254.886452 279.706446 255.744292 279.351117 256.376693 278.718716 
C 257.009094 278.086315 257.364423 277.228475 257.364423 276.334125 
C 257.364423 275.439775 257.009094 274.581935 256.376693 273.949534 
C 255.744292 273.317133 254.886452 272.961804 253.992102 272.961804 
C 253.097752 272.961804 252.239912 273.317133 251.607511 273.949534 
C 250.97511 274.581935 250.619781 275.439775 250.619781 276.334125 
C 250.619781 277.228475 250.97511 278.086315 251.607511 278.718716 
C 252.239912 279.351117 253.097752 279.706446 253.992102 279.706446 
z
" clip-path="url(#pf476298345)" style="fill: #5977e3; stroke: #ffffff; stroke-width: 0.416747"/>
   </g>
   <g id="matplotlib.axis_1">
    <g id="xtick_1">
     <g id="line2d_1">
      <defs>
       <path id="m29a76b61cc" d="M 0 0 
L 0 3.5 
" style="stroke: #000000; stroke-width: 0.8"/>
      </defs>
      <g>
       <use xlink:href="#m29a76b61cc" x="259.595845" y="288.430125" style="stroke: #000000; stroke-width: 0.8"/>
      </g>
     </g>
     <g id="text_1">
      <!-- 3.5 -->
      <g transform="translate(251.644283 303.028562) scale(0.1 -0.1)">
       <defs>
        <path id="DejaVuSans-33" d="M 2597 2516 
Q 3050 2419 3304 2112 
Q 3559 1806 3559 1356 
Q 3559 666 3084 287 
Q 2609 -91 1734 -91 
Q 1441 -91 1130 -33 
Q 819 25 488 141 
L 488 750 
Q 750 597 1062 519 
Q 1375 441 1716 441 
Q 2309 441 2620 675 
Q 2931 909 2931 1356 
Q 2931 1769 2642 2001 
Q 2353 2234 1838 2234 
L 1294 2234 
L 1294 2753 
L 1863 2753 
Q 2328 2753 2575 2939 
Q 2822 3125 2822 3475 
Q 2822 3834 2567 4026 
Q 2313 4219 1838 4219 
Q 1578 4219 1281 4162 
Q 984 4106 628 3988 
L 628 4550 
Q 988 4650 1302 4700 
Q 1616 4750 1894 4750 
Q 2613 4750 3031 4423 
Q 3450 4097 3450 3541 
Q 3450 3153 3228 2886 
Q 3006 2619 2597 2516 
z
" transform="scale(0.015625)"/>
        <path id="DejaVuSans-2e" d="M 684 794 
L 1344 794 
L 1344 0 
L 684 0 
L 684 794 
z
" transform="scale(0.015625)"/>
        <path id="DejaVuSans-35" d="M 691 4666 
L 3169 4666 
L 3169 4134 
L 1269 4134 
L 1269 2991 
Q 1406 3038 1543 3061 
Q 1681 3084 1819 3084 
Q 2600 3084 3056 2656 
Q 3513 2228 3513 1497 
Q 3513 744 3044 326 
Q 2575 -91 1722 -91 
Q 1428 -91 1123 -41 
Q 819 9 494 109 
L 494 744 
Q 775 591 1075 516 
Q 1375 441 1709 441 
Q 2250 441 2565 725 
Q 2881 1009 2881 1497 
Q 2881 1984 2565 2268 
Q 2250 2553 1709 2553 
Q 1456 2553 1204 2497 
Q 953 2441 691 2322 
L 691 4666 
z
" transform="scale(0.015625)"/>
       </defs>
       <use xlink:href="#DejaVuSans-33"/>
       <use xlink:href="#DejaVuSans-2e" transform="translate(63.623047 0)"/>
       <use xlink:href="#DejaVuSans-35" transform="translate(95.410156 0)"/>
      </g>
     </g>
    </g>
    <g id="xtick_2">
     <g id="line2d_2">
      <g>
       <use xlink:href="#m29a76b61cc" x="338.884292" y="288.430125" style="stroke: #000000; stroke-width: 0.8"/>
      </g>
     </g>
     <g id="text_2">
      <!-- 4.0 -->
      <g transform="translate(330.93273 303.028562) scale(0.1 -0.1)">
       <defs>
        <path id="DejaVuSans-34" d="M 2419 4116 
L 825 1625 
L 2419 1625 
L 2419 4116 
z
M 2253 4666 
L 3047 4666 
L 3047 1625 
L 3713 1625 
L 3713 1100 
L 3047 1100 
L 3047 0 
L 2419 0 
L 2419 1100 
L 313 1100 
L 313 1709 
L 2253 4666 
z
" transform="scale(0.015625)"/>
        <path id="DejaVuSans-30" d="M 2034 4250 
Q 1547 4250 1301 3770 
Q 1056 3291 1056 2328 
Q 1056 1369 1301 889 
Q 1547 409 2034 409 
Q 2525 409 2770 889 
Q 3016 1369 3016 2328 
Q 3016 3291 2770 3770 
Q 2525 4250 2034 4250 
z
M 2034 4750 
Q 2819 4750 3233 4129 
Q 3647 3509 3647 2328 
Q 3647 1150 3233 529 
Q 2819 -91 2034 -91 
Q 1250 -91 836 529 
Q 422 1150 422 2328 
Q 422 3509 836 4129 
Q 1250 4750 2034 4750 
z
" transform="scale(0.015625)"/>
       </defs>
       <use xlink:href="#DejaVuSans-34"/>
       <use xlink:href="#DejaVuSans-2e" transform="translate(63.623047 0)"/>
       <use xlink:href="#DejaVuSans-30" transform="translate(95.410156 0)"/>
      </g>
     </g>
    </g>
    <g id="xtick_3">
     <g id="line2d_3">
      <g>
       <use xlink:href="#m29a76b61cc" x="418.172739" y="288.430125" style="stroke: #000000; stroke-width: 0.8"/>
      </g>
     </g>
     <g id="text_3">
      <!-- 4.5 -->
      <g transform="translate(410.221176 303.028562) scale(0.1 -0.1)">
       <use xlink:href="#DejaVuSans-34"/>
       <use xlink:href="#DejaVuSans-2e" transform="translate(63.623047 0)"/>
       <use xlink:href="#DejaVuSans-35" transform="translate(95.410156 0)"/>
      </g>
     </g>
    </g>
    <g id="xtick_4">
     <g id="line2d_4">
      <g>
       <use xlink:href="#m29a76b61cc" x="497.461186" y="288.430125" style="stroke: #000000; stroke-width: 0.8"/>
      </g>
     </g>
     <g id="text_4">
      <!-- 5.0 -->
      <g transform="translate(489.509623 303.028562) scale(0.1 -0.1)">
       <use xlink:href="#DejaVuSans-35"/>
       <use xlink:href="#DejaVuSans-2e" transform="translate(63.623047 0)"/>
       <use xlink:href="#DejaVuSans-30" transform="translate(95.410156 0)"/>
      </g>
     </g>
    </g>
    <g id="xtick_5">
     <g id="line2d_5">
      <g>
       <use xlink:href="#m29a76b61cc" x="576.749632" y="288.430125" style="stroke: #000000; stroke-width: 0.8"/>
      </g>
     </g>
     <g id="text_5">
      <!-- 5.5 -->
      <g transform="translate(568.79807 303.028562) scale(0.1 -0.1)">
       <use xlink:href="#DejaVuSans-35"/>
       <use xlink:href="#DejaVuSans-2e" transform="translate(63.623047 0)"/>
       <use xlink:href="#DejaVuSans-35" transform="translate(95.410156 0)"/>
      </g>
     </g>
    </g>
    <g id="text_6">
     <!-- Fold Enrichment -->
     <g transform="translate(375.646719 316.706687) scale(0.1 -0.1)">
      <defs>
       <path id="DejaVuSans-46" d="M 628 4666 
L 3309 4666 
L 3309 4134 
L 1259 4134 
L 1259 2759 
L 3109 2759 
L 3109 2228 
L 1259 2228 
L 1259 0 
L 628 0 
L 628 4666 
z
" transform="scale(0.015625)"/>
       <path id="DejaVuSans-6f" d="M 1959 3097 
Q 1497 3097 1228 2736 
Q 959 2375 959 1747 
Q 959 1119 1226 758 
Q 1494 397 1959 397 
Q 2419 397 2687 759 
Q 2956 1122 2956 1747 
Q 2956 2369 2687 2733 
Q 2419 3097 1959 3097 
z
M 1959 3584 
Q 2709 3584 3137 3096 
Q 3566 2609 3566 1747 
Q 3566 888 3137 398 
Q 2709 -91 1959 -91 
Q 1206 -91 779 398 
Q 353 888 353 1747 
Q 353 2609 779 3096 
Q 1206 3584 1959 3584 
z
" transform="scale(0.015625)"/>
       <path id="DejaVuSans-6c" d="M 603 4863 
L 1178 4863 
L 1178 0 
L 603 0 
L 603 4863 
z
" transform="scale(0.015625)"/>
       <path id="DejaVuSans-64" d="M 2906 2969 
L 2906 4863 
L 3481 4863 
L 3481 0 
L 2906 0 
L 2906 525 
Q 2725 213 2448 61 
Q 2172 -91 1784 -91 
Q 1150 -91 751 415 
Q 353 922 353 1747 
Q 353 2572 751 3078 
Q 1150 3584 1784 3584 
Q 2172 3584 2448 3432 
Q 2725 3281 2906 2969 
z
M 947 1747 
Q 947 1113 1208 752 
Q 1469 391 1925 391 
Q 2381 391 2643 752 
Q 2906 1113 2906 1747 
Q 2906 2381 2643 2742 
Q 2381 3103 1925 3103 
Q 1469 3103 1208 2742 
Q 947 2381 947 1747 
z
" transform="scale(0.015625)"/>
       <path id="DejaVuSans-20" transform="scale(0.015625)"/>
       <path id="DejaVuSans-45" d="M 628 4666 
L 3578 4666 
L 3578 4134 
L 1259 4134 
L 1259 2753 
L 3481 2753 
L 3481 2222 
L 1259 2222 
L 1259 531 
L 3634 531 
L 3634 0 
L 628 0 
L 628 4666 
z
" transform="scale(0.015625)"/>
       <path id="DejaVuSans-6e" d="M 3513 2113 
L 3513 0 
L 2938 0 
L 2938 2094 
Q 2938 2591 2744 2837 
Q 2550 3084 2163 3084 
Q 1697 3084 1428 2787 
Q 1159 2491 1159 1978 
L 1159 0 
L 581 0 
L 581 3500 
L 1159 3500 
L 1159 2956 
Q 1366 3272 1645 3428 
Q 1925 3584 2291 3584 
Q 2894 3584 3203 3211 
Q 3513 2838 3513 2113 
z
" transform="scale(0.015625)"/>
       <path id="DejaVuSans-72" d="M 2631 2963 
Q 2534 3019 2420 3045 
Q 2306 3072 2169 3072 
Q 1681 3072 1420 2755 
Q 1159 2438 1159 1844 
L 1159 0 
L 581 0 
L 581 3500 
L 1159 3500 
L 1159 2956 
Q 1341 3275 1631 3429 
Q 1922 3584 2338 3584 
Q 2397 3584 2469 3576 
Q 2541 3569 2628 3553 
L 2631 2963 
z
" transform="scale(0.015625)"/>
       <path id="DejaVuSans-69" d="M 603 3500 
L 1178 3500 
L 1178 0 
L 603 0 
L 603 3500 
z
M 603 4863 
L 1178 4863 
L 1178 4134 
L 603 4134 
L 603 4863 
z
" transform="scale(0.015625)"/>
       <path id="DejaVuSans-63" d="M 3122 3366 
L 3122 2828 
Q 2878 2963 2633 3030 
Q 2388 3097 2138 3097 
Q 1578 3097 1268 2742 
Q 959 2388 959 1747 
Q 959 1106 1268 751 
Q 1578 397 2138 397 
Q 2388 397 2633 464 
Q 2878 531 3122 666 
L 3122 134 
Q 2881 22 2623 -34 
Q 2366 -91 2075 -91 
Q 1284 -91 818 406 
Q 353 903 353 1747 
Q 353 2603 823 3093 
Q 1294 3584 2113 3584 
Q 2378 3584 2631 3529 
Q 2884 3475 3122 3366 
z
" transform="scale(0.015625)"/>
       <path id="DejaVuSans-68" d="M 3513 2113 
L 3513 0 
L 2938 0 
L 2938 2094 
Q 2938 2591 2744 2837 
Q 2550 3084 2163 3084 
Q 1697 3084 1428 2787 
Q 1159 2491 1159 1978 
L 1159 0 
L 581 0 
L 581 4863 
L 1159 4863 
L 1159 2956 
Q 1366 3272 1645 3428 
Q 1925 3584 2291 3584 
Q 2894 3584 3203 3211 
Q 3513 2838 3513 2113 
z
" transform="scale(0.015625)"/>
       <path id="DejaVuSans-6d" d="M 3328 2828 
Q 3544 3216 3844 3400 
Q 4144 3584 4550 3584 
Q 5097 3584 5394 3201 
Q 5691 2819 5691 2113 
L 5691 0 
L 5113 0 
L 5113 2094 
Q 5113 2597 4934 2840 
Q 4756 3084 4391 3084 
Q 3944 3084 3684 2787 
Q 3425 2491 3425 1978 
L 3425 0 
L 2847 0 
L 2847 2094 
Q 2847 2600 2669 2842 
Q 2491 3084 2119 3084 
Q 1678 3084 1418 2786 
Q 1159 2488 1159 1978 
L 1159 0 
L 581 0 
L 581 3500 
L 1159 3500 
L 1159 2956 
Q 1356 3278 1631 3431 
Q 1906 3584 2284 3584 
Q 2666 3584 2933 3390 
Q 3200 3197 3328 2828 
z
" transform="scale(0.015625)"/>
       <path id="DejaVuSans-65" d="M 3597 1894 
L 3597 1613 
L 953 1613 
Q 991 1019 1311 708 
Q 1631 397 2203 397 
Q 2534 397 2845 478 
Q 3156 559 3463 722 
L 3463 178 
Q 3153 47 2828 -22 
Q 2503 -91 2169 -91 
Q 1331 -91 842 396 
Q 353 884 353 1716 
Q 353 2575 817 3079 
Q 1281 3584 2069 3584 
Q 2775 3584 3186 3129 
Q 3597 2675 3597 1894 
z
M 3022 2063 
Q 3016 2534 2758 2815 
Q 2500 3097 2075 3097 
Q 1594 3097 1305 2825 
Q 1016 2553 972 2059 
L 3022 2063 
z
" transform="scale(0.015625)"/>
       <path id="DejaVuSans-74" d="M 1172 4494 
L 1172 3500 
L 2356 3500 
L 2356 3053 
L 1172 3053 
L 1172 1153 
Q 1172 725 1289 603 
Q 1406 481 1766 481 
L 2356 481 
L 2356 0 
L 1766 0 
Q 1100 0 847 248 
Q 594 497 594 1153 
L 594 3053 
L 172 3053 
L 172 3500 
L 594 3500 
L 594 4494 
L 1172 4494 
z
" transform="scale(0.015625)"/>
      </defs>
      <use xlink:href="#DejaVuSans-46"/>
      <use xlink:href="#DejaVuSans-6f" transform="translate(53.894531 0)"/>
      <use xlink:href="#DejaVuSans-6c" transform="translate(115.076172 0)"/>
      <use xlink:href="#DejaVuSans-64" transform="translate(142.859375 0)"/>
      <use xlink:href="#DejaVuSans-20" transform="translate(206.335938 0)"/>
      <use xlink:href="#DejaVuSans-45" transform="translate(238.123047 0)"/>
      <use xlink:href="#DejaVuSans-6e" transform="translate(301.306641 0)"/>
      <use xlink:href="#DejaVuSans-72" transform="translate(364.685547 0)"/>
      <use xlink:href="#DejaVuSans-69" transform="translate(405.798828 0)"/>
      <use xlink:href="#DejaVuSans-63" transform="translate(433.582031 0)"/>
      <use xlink:href="#DejaVuSans-68" transform="translate(488.5625 0)"/>
      <use xlink:href="#DejaVuSans-6d" transform="translate(551.941406 0)"/>
      <use xlink:href="#DejaVuSans-65" transform="translate(649.353516 0)"/>
      <use xlink:href="#DejaVuSans-6e" transform="translate(710.876953 0)"/>
      <use xlink:href="#DejaVuSans-74" transform="translate(774.255859 0)"/>
     </g>
    </g>
   </g>
   <g id="matplotlib.axis_2">
    <g id="ytick_1">
     <g id="line2d_6">
      <defs>
       <path id="mc1d8cfe053" d="M 0 0 
L -3.5 0 
" style="stroke: #000000; stroke-width: 0.8"/>
      </defs>
      <g>
       <use xlink:href="#mc1d8cfe053" x="237.759375" y="34.414125" style="stroke: #000000; stroke-width: 0.8"/>
      </g>
     </g>
     <g id="text_7">
      <!-- Happy demeanor -->
      <g transform="translate(144.226562 38.213344) scale(0.1 -0.1)">
       <defs>
        <path id="DejaVuSans-48" d="M 628 4666 
L 1259 4666 
L 1259 2753 
L 3553 2753 
L 3553 4666 
L 4184 4666 
L 4184 0 
L 3553 0 
L 3553 2222 
L 1259 2222 
L 1259 0 
L 628 0 
L 628 4666 
z
" transform="scale(0.015625)"/>
        <path id="DejaVuSans-61" d="M 2194 1759 
Q 1497 1759 1228 1600 
Q 959 1441 959 1056 
Q 959 750 1161 570 
Q 1363 391 1709 391 
Q 2188 391 2477 730 
Q 2766 1069 2766 1631 
L 2766 1759 
L 2194 1759 
z
M 3341 1997 
L 3341 0 
L 2766 0 
L 2766 531 
Q 2569 213 2275 61 
Q 1981 -91 1556 -91 
Q 1019 -91 701 211 
Q 384 513 384 1019 
Q 384 1609 779 1909 
Q 1175 2209 1959 2209 
L 2766 2209 
L 2766 2266 
Q 2766 2663 2505 2880 
Q 2244 3097 1772 3097 
Q 1472 3097 1187 3025 
Q 903 2953 641 2809 
L 641 3341 
Q 956 3463 1253 3523 
Q 1550 3584 1831 3584 
Q 2591 3584 2966 3190 
Q 3341 2797 3341 1997 
z
" transform="scale(0.015625)"/>
        <path id="DejaVuSans-70" d="M 1159 525 
L 1159 -1331 
L 581 -1331 
L 581 3500 
L 1159 3500 
L 1159 2969 
Q 1341 3281 1617 3432 
Q 1894 3584 2278 3584 
Q 2916 3584 3314 3078 
Q 3713 2572 3713 1747 
Q 3713 922 3314 415 
Q 2916 -91 2278 -91 
Q 1894 -91 1617 61 
Q 1341 213 1159 525 
z
M 3116 1747 
Q 3116 2381 2855 2742 
Q 2594 3103 2138 3103 
Q 1681 3103 1420 2742 
Q 1159 2381 1159 1747 
Q 1159 1113 1420 752 
Q 1681 391 2138 391 
Q 2594 391 2855 752 
Q 3116 1113 3116 1747 
z
" transform="scale(0.015625)"/>
        <path id="DejaVuSans-79" d="M 2059 -325 
Q 1816 -950 1584 -1140 
Q 1353 -1331 966 -1331 
L 506 -1331 
L 506 -850 
L 844 -850 
Q 1081 -850 1212 -737 
Q 1344 -625 1503 -206 
L 1606 56 
L 191 3500 
L 800 3500 
L 1894 763 
L 2988 3500 
L 3597 3500 
L 2059 -325 
z
" transform="scale(0.015625)"/>
       </defs>
       <use xlink:href="#DejaVuSans-48"/>
       <use xlink:href="#DejaVuSans-61" transform="translate(75.195312 0)"/>
       <use xlink:href="#DejaVuSans-70" transform="translate(136.474609 0)"/>
       <use xlink:href="#DejaVuSans-70" transform="translate(199.951172 0)"/>
       <use xlink:href="#DejaVuSans-79" transform="translate(263.427734 0)"/>
       <use xlink:href="#DejaVuSans-20" transform="translate(322.607422 0)"/>
       <use xlink:href="#DejaVuSans-64" transform="translate(354.394531 0)"/>
       <use xlink:href="#DejaVuSans-65" transform="translate(417.871094 0)"/>
       <use xlink:href="#DejaVuSans-6d" transform="translate(479.394531 0)"/>
       <use xlink:href="#DejaVuSans-65" transform="translate(576.806641 0)"/>
       <use xlink:href="#DejaVuSans-61" transform="translate(638.330078 0)"/>
       <use xlink:href="#DejaVuSans-6e" transform="translate(699.609375 0)"/>
       <use xlink:href="#DejaVuSans-6f" transform="translate(762.988281 0)"/>
       <use xlink:href="#DejaVuSans-72" transform="translate(824.169922 0)"/>
      </g>
     </g>
    </g>
    <g id="ytick_2">
     <g id="line2d_7">
      <g>
       <use xlink:href="#mc1d8cfe053" x="237.759375" y="47.146757" style="stroke: #000000; stroke-width: 0.8"/>
      </g>
     </g>
     <g id="text_8">
      <!-- Atypical absence seizure -->
      <g transform="translate(106.773438 50.945975) scale(0.1 -0.1)">
       <defs>
        <path id="DejaVuSans-41" d="M 2188 4044 
L 1331 1722 
L 3047 1722 
L 2188 4044 
z
M 1831 4666 
L 2547 4666 
L 4325 0 
L 3669 0 
L 3244 1197 
L 1141 1197 
L 716 0 
L 50 0 
L 1831 4666 
z
" transform="scale(0.015625)"/>
        <path id="DejaVuSans-62" d="M 3116 1747 
Q 3116 2381 2855 2742 
Q 2594 3103 2138 3103 
Q 1681 3103 1420 2742 
Q 1159 2381 1159 1747 
Q 1159 1113 1420 752 
Q 1681 391 2138 391 
Q 2594 391 2855 752 
Q 3116 1113 3116 1747 
z
M 1159 2969 
Q 1341 3281 1617 3432 
Q 1894 3584 2278 3584 
Q 2916 3584 3314 3078 
Q 3713 2572 3713 1747 
Q 3713 922 3314 415 
Q 2916 -91 2278 -91 
Q 1894 -91 1617 61 
Q 1341 213 1159 525 
L 1159 0 
L 581 0 
L 581 4863 
L 1159 4863 
L 1159 2969 
z
" transform="scale(0.015625)"/>
        <path id="DejaVuSans-73" d="M 2834 3397 
L 2834 2853 
Q 2591 2978 2328 3040 
Q 2066 3103 1784 3103 
Q 1356 3103 1142 2972 
Q 928 2841 928 2578 
Q 928 2378 1081 2264 
Q 1234 2150 1697 2047 
L 1894 2003 
Q 2506 1872 2764 1633 
Q 3022 1394 3022 966 
Q 3022 478 2636 193 
Q 2250 -91 1575 -91 
Q 1294 -91 989 -36 
Q 684 19 347 128 
L 347 722 
Q 666 556 975 473 
Q 1284 391 1588 391 
Q 1994 391 2212 530 
Q 2431 669 2431 922 
Q 2431 1156 2273 1281 
Q 2116 1406 1581 1522 
L 1381 1569 
Q 847 1681 609 1914 
Q 372 2147 372 2553 
Q 372 3047 722 3315 
Q 1072 3584 1716 3584 
Q 2034 3584 2315 3537 
Q 2597 3491 2834 3397 
z
" transform="scale(0.015625)"/>
        <path id="DejaVuSans-7a" d="M 353 3500 
L 3084 3500 
L 3084 2975 
L 922 459 
L 3084 459 
L 3084 0 
L 275 0 
L 275 525 
L 2438 3041 
L 353 3041 
L 353 3500 
z
" transform="scale(0.015625)"/>
        <path id="DejaVuSans-75" d="M 544 1381 
L 544 3500 
L 1119 3500 
L 1119 1403 
Q 1119 906 1312 657 
Q 1506 409 1894 409 
Q 2359 409 2629 706 
Q 2900 1003 2900 1516 
L 2900 3500 
L 3475 3500 
L 3475 0 
L 2900 0 
L 2900 538 
Q 2691 219 2414 64 
Q 2138 -91 1772 -91 
Q 1169 -91 856 284 
Q 544 659 544 1381 
z
M 1991 3584 
L 1991 3584 
z
" transform="scale(0.015625)"/>
       </defs>
       <use xlink:href="#DejaVuSans-41"/>
       <use xlink:href="#DejaVuSans-74" transform="translate(66.658203 0)"/>
       <use xlink:href="#DejaVuSans-79" transform="translate(105.867188 0)"/>
       <use xlink:href="#DejaVuSans-70" transform="translate(165.046875 0)"/>
       <use xlink:href="#DejaVuSans-69" transform="translate(228.523438 0)"/>
       <use xlink:href="#DejaVuSans-63" transform="translate(256.306641 0)"/>
       <use xlink:href="#DejaVuSans-61" transform="translate(311.287109 0)"/>
       <use xlink:href="#DejaVuSans-6c" transform="translate(372.566406 0)"/>
       <use xlink:href="#DejaVuSans-20" transform="translate(400.349609 0)"/>
       <use xlink:href="#DejaVuSans-61" transform="translate(432.136719 0)"/>
       <use xlink:href="#DejaVuSans-62" transform="translate(493.416016 0)"/>
       <use xlink:href="#DejaVuSans-73" transform="translate(556.892578 0)"/>
       <use xlink:href="#DejaVuSans-65" transform="translate(608.992188 0)"/>
       <use xlink:href="#DejaVuSans-6e" transform="translate(670.515625 0)"/>
       <use xlink:href="#DejaVuSans-63" transform="translate(733.894531 0)"/>
       <use xlink:href="#DejaVuSans-65" transform="translate(788.875 0)"/>
       <use xlink:href="#DejaVuSans-20" transform="translate(850.398438 0)"/>
       <use xlink:href="#DejaVuSans-73" transform="translate(882.185547 0)"/>
       <use xlink:href="#DejaVuSans-65" transform="translate(934.285156 0)"/>
       <use xlink:href="#DejaVuSans-69" transform="translate(995.808594 0)"/>
       <use xlink:href="#DejaVuSans-7a" transform="translate(1023.591797 0)"/>
       <use xlink:href="#DejaVuSans-75" transform="translate(1076.082031 0)"/>
       <use xlink:href="#DejaVuSans-72" transform="translate(1139.460938 0)"/>
       <use xlink:href="#DejaVuSans-65" transform="translate(1178.324219 0)"/>
      </g>
     </g>
    </g>
    <g id="ytick_3">
     <g id="line2d_8">
      <g>
       <use xlink:href="#mc1d8cfe053" x="237.759375" y="59.879388" style="stroke: #000000; stroke-width: 0.8"/>
      </g>
     </g>
     <g id="text_9">
      <!-- EEG with focal epileptiform discharges -->
      <g transform="translate(37.882812 63.678607) scale(0.1 -0.1)">
       <defs>
        <path id="DejaVuSans-47" d="M 3809 666 
L 3809 1919 
L 2778 1919 
L 2778 2438 
L 4434 2438 
L 4434 434 
Q 4069 175 3628 42 
Q 3188 -91 2688 -91 
Q 1594 -91 976 548 
Q 359 1188 359 2328 
Q 359 3472 976 4111 
Q 1594 4750 2688 4750 
Q 3144 4750 3555 4637 
Q 3966 4525 4313 4306 
L 4313 3634 
Q 3963 3931 3569 4081 
Q 3175 4231 2741 4231 
Q 1884 4231 1454 3753 
Q 1025 3275 1025 2328 
Q 1025 1384 1454 906 
Q 1884 428 2741 428 
Q 3075 428 3337 486 
Q 3600 544 3809 666 
z
" transform="scale(0.015625)"/>
        <path id="DejaVuSans-77" d="M 269 3500 
L 844 3500 
L 1563 769 
L 2278 3500 
L 2956 3500 
L 3675 769 
L 4391 3500 
L 4966 3500 
L 4050 0 
L 3372 0 
L 2619 2869 
L 1863 0 
L 1184 0 
L 269 3500 
z
" transform="scale(0.015625)"/>
        <path id="DejaVuSans-66" d="M 2375 4863 
L 2375 4384 
L 1825 4384 
Q 1516 4384 1395 4259 
Q 1275 4134 1275 3809 
L 1275 3500 
L 2222 3500 
L 2222 3053 
L 1275 3053 
L 1275 0 
L 697 0 
L 697 3053 
L 147 3053 
L 147 3500 
L 697 3500 
L 697 3744 
Q 697 4328 969 4595 
Q 1241 4863 1831 4863 
L 2375 4863 
z
" transform="scale(0.015625)"/>
        <path id="DejaVuSans-67" d="M 2906 1791 
Q 2906 2416 2648 2759 
Q 2391 3103 1925 3103 
Q 1463 3103 1205 2759 
Q 947 2416 947 1791 
Q 947 1169 1205 825 
Q 1463 481 1925 481 
Q 2391 481 2648 825 
Q 2906 1169 2906 1791 
z
M 3481 434 
Q 3481 -459 3084 -895 
Q 2688 -1331 1869 -1331 
Q 1566 -1331 1297 -1286 
Q 1028 -1241 775 -1147 
L 775 -588 
Q 1028 -725 1275 -790 
Q 1522 -856 1778 -856 
Q 2344 -856 2625 -561 
Q 2906 -266 2906 331 
L 2906 616 
Q 2728 306 2450 153 
Q 2172 0 1784 0 
Q 1141 0 747 490 
Q 353 981 353 1791 
Q 353 2603 747 3093 
Q 1141 3584 1784 3584 
Q 2172 3584 2450 3431 
Q 2728 3278 2906 2969 
L 2906 3500 
L 3481 3500 
L 3481 434 
z
" transform="scale(0.015625)"/>
       </defs>
       <use xlink:href="#DejaVuSans-45"/>
       <use xlink:href="#DejaVuSans-45" transform="translate(63.183594 0)"/>
       <use xlink:href="#DejaVuSans-47" transform="translate(126.367188 0)"/>
       <use xlink:href="#DejaVuSans-20" transform="translate(203.857422 0)"/>
       <use xlink:href="#DejaVuSans-77" transform="translate(235.644531 0)"/>
       <use xlink:href="#DejaVuSans-69" transform="translate(317.431641 0)"/>
       <use xlink:href="#DejaVuSans-74" transform="translate(345.214844 0)"/>
       <use xlink:href="#DejaVuSans-68" transform="translate(384.423828 0)"/>
       <use xlink:href="#DejaVuSans-20" transform="translate(447.802734 0)"/>
       <use xlink:href="#DejaVuSans-66" transform="translate(479.589844 0)"/>
       <use xlink:href="#DejaVuSans-6f" transform="translate(514.794922 0)"/>
       <use xlink:href="#DejaVuSans-63" transform="translate(575.976562 0)"/>
       <use xlink:href="#DejaVuSans-61" transform="translate(630.957031 0)"/>
       <use xlink:href="#DejaVuSans-6c" transform="translate(692.236328 0)"/>
       <use xlink:href="#DejaVuSans-20" transform="translate(720.019531 0)"/>
       <use xlink:href="#DejaVuSans-65" transform="translate(751.806641 0)"/>
       <use xlink:href="#DejaVuSans-70" transform="translate(813.330078 0)"/>
       <use xlink:href="#DejaVuSans-69" transform="translate(876.806641 0)"/>
       <use xlink:href="#DejaVuSans-6c" transform="translate(904.589844 0)"/>
       <use xlink:href="#DejaVuSans-65" transform="translate(932.373047 0)"/>
       <use xlink:href="#DejaVuSans-70" transform="translate(993.896484 0)"/>
       <use xlink:href="#DejaVuSans-74" transform="translate(1057.373047 0)"/>
       <use xlink:href="#DejaVuSans-69" transform="translate(1096.582031 0)"/>
       <use xlink:href="#DejaVuSans-66" transform="translate(1124.365234 0)"/>
       <use xlink:href="#DejaVuSans-6f" transform="translate(1159.570312 0)"/>
       <use xlink:href="#DejaVuSans-72" transform="translate(1220.751953 0)"/>
       <use xlink:href="#DejaVuSans-6d" transform="translate(1260.115234 0)"/>
       <use xlink:href="#DejaVuSans-20" transform="translate(1357.527344 0)"/>
       <use xlink:href="#DejaVuSans-64" transform="translate(1389.314453 0)"/>
       <use xlink:href="#DejaVuSans-69" transform="translate(1452.791016 0)"/>
       <use xlink:href="#DejaVuSans-73" transform="translate(1480.574219 0)"/>
       <use xlink:href="#DejaVuSans-63" transform="translate(1532.673828 0)"/>
       <use xlink:href="#DejaVuSans-68" transform="translate(1587.654297 0)"/>
       <use xlink:href="#DejaVuSans-61" transform="translate(1651.033203 0)"/>
       <use xlink:href="#DejaVuSans-72" transform="translate(1712.3125 0)"/>
       <use xlink:href="#DejaVuSans-67" transform="translate(1751.675781 0)"/>
       <use xlink:href="#DejaVuSans-65" transform="translate(1815.152344 0)"/>
       <use xlink:href="#DejaVuSans-73" transform="translate(1876.675781 0)"/>
      </g>
     </g>
    </g>
    <g id="ytick_4">
     <g id="line2d_9">
      <g>
       <use xlink:href="#mc1d8cfe053" x="237.759375" y="72.61202" style="stroke: #000000; stroke-width: 0.8"/>
      </g>
     </g>
     <g id="text_10">
      <!-- Focal hemiclonic seizure -->
      <g transform="translate(108.70625 76.411238) scale(0.1 -0.1)">
       <use xlink:href="#DejaVuSans-46"/>
       <use xlink:href="#DejaVuSans-6f" transform="translate(53.894531 0)"/>
       <use xlink:href="#DejaVuSans-63" transform="translate(115.076172 0)"/>
       <use xlink:href="#DejaVuSans-61" transform="translate(170.056641 0)"/>
       <use xlink:href="#DejaVuSans-6c" transform="translate(231.335938 0)"/>
       <use xlink:href="#DejaVuSans-20" transform="translate(259.119141 0)"/>
       <use xlink:href="#DejaVuSans-68" transform="translate(290.90625 0)"/>
       <use xlink:href="#DejaVuSans-65" transform="translate(354.285156 0)"/>
       <use xlink:href="#DejaVuSans-6d" transform="translate(415.808594 0)"/>
       <use xlink:href="#DejaVuSans-69" transform="translate(513.220703 0)"/>
       <use xlink:href="#DejaVuSans-63" transform="translate(541.003906 0)"/>
       <use xlink:href="#DejaVuSans-6c" transform="translate(595.984375 0)"/>
       <use xlink:href="#DejaVuSans-6f" transform="translate(623.767578 0)"/>
       <use xlink:href="#DejaVuSans-6e" transform="translate(684.949219 0)"/>
       <use xlink:href="#DejaVuSans-69" transform="translate(748.328125 0)"/>
       <use xlink:href="#DejaVuSans-63" transform="translate(776.111328 0)"/>
       <use xlink:href="#DejaVuSans-20" transform="translate(831.091797 0)"/>
       <use xlink:href="#DejaVuSans-73" transform="translate(862.878906 0)"/>
       <use xlink:href="#DejaVuSans-65" transform="translate(914.978516 0)"/>
       <use xlink:href="#DejaVuSans-69" transform="translate(976.501953 0)"/>
       <use xlink:href="#DejaVuSans-7a" transform="translate(1004.285156 0)"/>
       <use xlink:href="#DejaVuSans-75" transform="translate(1056.775391 0)"/>
       <use xlink:href="#DejaVuSans-72" transform="translate(1120.154297 0)"/>
       <use xlink:href="#DejaVuSans-65" transform="translate(1159.017578 0)"/>
      </g>
     </g>
    </g>
    <g id="ytick_5">
     <g id="line2d_10">
      <g>
       <use xlink:href="#mc1d8cfe053" x="237.759375" y="85.344651" style="stroke: #000000; stroke-width: 0.8"/>
      </g>
     </g>
     <g id="text_11">
      <!-- Recurrent hand flapping -->
      <g transform="translate(109.94375 89.14387) scale(0.1 -0.1)">
       <defs>
        <path id="DejaVuSans-52" d="M 2841 2188 
Q 3044 2119 3236 1894 
Q 3428 1669 3622 1275 
L 4263 0 
L 3584 0 
L 2988 1197 
Q 2756 1666 2539 1819 
Q 2322 1972 1947 1972 
L 1259 1972 
L 1259 0 
L 628 0 
L 628 4666 
L 2053 4666 
Q 2853 4666 3247 4331 
Q 3641 3997 3641 3322 
Q 3641 2881 3436 2590 
Q 3231 2300 2841 2188 
z
M 1259 4147 
L 1259 2491 
L 2053 2491 
Q 2509 2491 2742 2702 
Q 2975 2913 2975 3322 
Q 2975 3731 2742 3939 
Q 2509 4147 2053 4147 
L 1259 4147 
z
" transform="scale(0.015625)"/>
       </defs>
       <use xlink:href="#DejaVuSans-52"/>
       <use xlink:href="#DejaVuSans-65" transform="translate(64.982422 0)"/>
       <use xlink:href="#DejaVuSans-63" transform="translate(126.505859 0)"/>
       <use xlink:href="#DejaVuSans-75" transform="translate(181.486328 0)"/>
       <use xlink:href="#DejaVuSans-72" transform="translate(244.865234 0)"/>
       <use xlink:href="#DejaVuSans-72" transform="translate(284.228516 0)"/>
       <use xlink:href="#DejaVuSans-65" transform="translate(323.091797 0)"/>
       <use xlink:href="#DejaVuSans-6e" transform="translate(384.615234 0)"/>
       <use xlink:href="#DejaVuSans-74" transform="translate(447.994141 0)"/>
       <use xlink:href="#DejaVuSans-20" transform="translate(487.203125 0)"/>
       <use xlink:href="#DejaVuSans-68" transform="translate(518.990234 0)"/>
       <use xlink:href="#DejaVuSans-61" transform="translate(582.369141 0)"/>
       <use xlink:href="#DejaVuSans-6e" transform="translate(643.648438 0)"/>
       <use xlink:href="#DejaVuSans-64" transform="translate(707.027344 0)"/>
       <use xlink:href="#DejaVuSans-20" transform="translate(770.503906 0)"/>
       <use xlink:href="#DejaVuSans-66" transform="translate(802.291016 0)"/>
       <use xlink:href="#DejaVuSans-6c" transform="translate(837.496094 0)"/>
       <use xlink:href="#DejaVuSans-61" transform="translate(865.279297 0)"/>
       <use xlink:href="#DejaVuSans-70" transform="translate(926.558594 0)"/>
       <use xlink:href="#DejaVuSans-70" transform="translate(990.035156 0)"/>
       <use xlink:href="#DejaVuSans-69" transform="translate(1053.511719 0)"/>
       <use xlink:href="#DejaVuSans-6e" transform="translate(1081.294922 0)"/>
       <use xlink:href="#DejaVuSans-67" transform="translate(1144.673828 0)"/>
      </g>
     </g>
    </g>
    <g id="ytick_6">
     <g id="line2d_11">
      <g>
       <use xlink:href="#mc1d8cfe053" x="237.759375" y="98.077283" style="stroke: #000000; stroke-width: 0.8"/>
      </g>
     </g>
     <g id="text_12">
      <!-- Clonic seizure -->
      <g transform="translate(161.321875 101.876502) scale(0.1 -0.1)">
       <defs>
        <path id="DejaVuSans-43" d="M 4122 4306 
L 4122 3641 
Q 3803 3938 3442 4084 
Q 3081 4231 2675 4231 
Q 1875 4231 1450 3742 
Q 1025 3253 1025 2328 
Q 1025 1406 1450 917 
Q 1875 428 2675 428 
Q 3081 428 3442 575 
Q 3803 722 4122 1019 
L 4122 359 
Q 3791 134 3420 21 
Q 3050 -91 2638 -91 
Q 1578 -91 968 557 
Q 359 1206 359 2328 
Q 359 3453 968 4101 
Q 1578 4750 2638 4750 
Q 3056 4750 3426 4639 
Q 3797 4528 4122 4306 
z
" transform="scale(0.015625)"/>
       </defs>
       <use xlink:href="#DejaVuSans-43"/>
       <use xlink:href="#DejaVuSans-6c" transform="translate(69.824219 0)"/>
       <use xlink:href="#DejaVuSans-6f" transform="translate(97.607422 0)"/>
       <use xlink:href="#DejaVuSans-6e" transform="translate(158.789062 0)"/>
       <use xlink:href="#DejaVuSans-69" transform="translate(222.167969 0)"/>
       <use xlink:href="#DejaVuSans-63" transform="translate(249.951172 0)"/>
       <use xlink:href="#DejaVuSans-20" transform="translate(304.931641 0)"/>
       <use xlink:href="#DejaVuSans-73" transform="translate(336.71875 0)"/>
       <use xlink:href="#DejaVuSans-65" transform="translate(388.818359 0)"/>
       <use xlink:href="#DejaVuSans-69" transform="translate(450.341797 0)"/>
       <use xlink:href="#DejaVuSans-7a" transform="translate(478.125 0)"/>
       <use xlink:href="#DejaVuSans-75" transform="translate(530.615234 0)"/>
       <use xlink:href="#DejaVuSans-72" transform="translate(593.994141 0)"/>
       <use xlink:href="#DejaVuSans-65" transform="translate(632.857422 0)"/>
      </g>
     </g>
    </g>
    <g id="ytick_7">
     <g id="line2d_12">
      <g>
       <use xlink:href="#mc1d8cfe053" x="237.759375" y="110.809914" style="stroke: #000000; stroke-width: 0.8"/>
      </g>
     </g>
     <g id="text_13">
      <!-- Hyperventilation -->
      <g transform="translate(147.539062 114.609133) scale(0.1 -0.1)">
       <defs>
        <path id="DejaVuSans-76" d="M 191 3500 
L 800 3500 
L 1894 563 
L 2988 3500 
L 3597 3500 
L 2284 0 
L 1503 0 
L 191 3500 
z
" transform="scale(0.015625)"/>
       </defs>
       <use xlink:href="#DejaVuSans-48"/>
       <use xlink:href="#DejaVuSans-79" transform="translate(75.195312 0)"/>
       <use xlink:href="#DejaVuSans-70" transform="translate(134.375 0)"/>
       <use xlink:href="#DejaVuSans-65" transform="translate(197.851562 0)"/>
       <use xlink:href="#DejaVuSans-72" transform="translate(259.375 0)"/>
       <use xlink:href="#DejaVuSans-76" transform="translate(300.488281 0)"/>
       <use xlink:href="#DejaVuSans-65" transform="translate(359.667969 0)"/>
       <use xlink:href="#DejaVuSans-6e" transform="translate(421.191406 0)"/>
       <use xlink:href="#DejaVuSans-74" transform="translate(484.570312 0)"/>
       <use xlink:href="#DejaVuSans-69" transform="translate(523.779297 0)"/>
       <use xlink:href="#DejaVuSans-6c" transform="translate(551.5625 0)"/>
       <use xlink:href="#DejaVuSans-61" transform="translate(579.345703 0)"/>
       <use xlink:href="#DejaVuSans-74" transform="translate(640.625 0)"/>
       <use xlink:href="#DejaVuSans-69" transform="translate(679.833984 0)"/>
       <use xlink:href="#DejaVuSans-6f" transform="translate(707.617188 0)"/>
       <use xlink:href="#DejaVuSans-6e" transform="translate(768.798828 0)"/>
      </g>
     </g>
    </g>
    <g id="ytick_8">
     <g id="line2d_13">
      <g>
       <use xlink:href="#mc1d8cfe053" x="237.759375" y="123.542546" style="stroke: #000000; stroke-width: 0.8"/>
      </g>
     </g>
     <g id="text_14">
      <!-- Tonic seizure -->
      <g transform="translate(166.675 127.341765) scale(0.1 -0.1)">
       <defs>
        <path id="DejaVuSans-54" d="M -19 4666 
L 3928 4666 
L 3928 4134 
L 2272 4134 
L 2272 0 
L 1638 0 
L 1638 4134 
L -19 4134 
L -19 4666 
z
" transform="scale(0.015625)"/>
       </defs>
       <use xlink:href="#DejaVuSans-54"/>
       <use xlink:href="#DejaVuSans-6f" transform="translate(44.083984 0)"/>
       <use xlink:href="#DejaVuSans-6e" transform="translate(105.265625 0)"/>
       <use xlink:href="#DejaVuSans-69" transform="translate(168.644531 0)"/>
       <use xlink:href="#DejaVuSans-63" transform="translate(196.427734 0)"/>
       <use xlink:href="#DejaVuSans-20" transform="translate(251.408203 0)"/>
       <use xlink:href="#DejaVuSans-73" transform="translate(283.195312 0)"/>
       <use xlink:href="#DejaVuSans-65" transform="translate(335.294922 0)"/>
       <use xlink:href="#DejaVuSans-69" transform="translate(396.818359 0)"/>
       <use xlink:href="#DejaVuSans-7a" transform="translate(424.601562 0)"/>
       <use xlink:href="#DejaVuSans-75" transform="translate(477.091797 0)"/>
       <use xlink:href="#DejaVuSans-72" transform="translate(540.470703 0)"/>
       <use xlink:href="#DejaVuSans-65" transform="translate(579.333984 0)"/>
      </g>
     </g>
    </g>
    <g id="ytick_9">
     <g id="line2d_14">
      <g>
       <use xlink:href="#mc1d8cfe053" x="237.759375" y="136.275178" style="stroke: #000000; stroke-width: 0.8"/>
      </g>
     </g>
     <g id="text_15">
      <!-- Focal clonic seizure -->
      <g transform="translate(133.715625 140.074396) scale(0.1 -0.1)">
       <use xlink:href="#DejaVuSans-46"/>
       <use xlink:href="#DejaVuSans-6f" transform="translate(53.894531 0)"/>
       <use xlink:href="#DejaVuSans-63" transform="translate(115.076172 0)"/>
       <use xlink:href="#DejaVuSans-61" transform="translate(170.056641 0)"/>
       <use xlink:href="#DejaVuSans-6c" transform="translate(231.335938 0)"/>
       <use xlink:href="#DejaVuSans-20" transform="translate(259.119141 0)"/>
       <use xlink:href="#DejaVuSans-63" transform="translate(290.90625 0)"/>
       <use xlink:href="#DejaVuSans-6c" transform="translate(345.886719 0)"/>
       <use xlink:href="#DejaVuSans-6f" transform="translate(373.669922 0)"/>
       <use xlink:href="#DejaVuSans-6e" transform="translate(434.851562 0)"/>
       <use xlink:href="#DejaVuSans-69" transform="translate(498.230469 0)"/>
       <use xlink:href="#DejaVuSans-63" transform="translate(526.013672 0)"/>
       <use xlink:href="#DejaVuSans-20" transform="translate(580.994141 0)"/>
       <use xlink:href="#DejaVuSans-73" transform="translate(612.78125 0)"/>
       <use xlink:href="#DejaVuSans-65" transform="translate(664.880859 0)"/>
       <use xlink:href="#DejaVuSans-69" transform="translate(726.404297 0)"/>
       <use xlink:href="#DejaVuSans-7a" transform="translate(754.1875 0)"/>
       <use xlink:href="#DejaVuSans-75" transform="translate(806.677734 0)"/>
       <use xlink:href="#DejaVuSans-72" transform="translate(870.056641 0)"/>
       <use xlink:href="#DejaVuSans-65" transform="translate(908.919922 0)"/>
      </g>
     </g>
    </g>
    <g id="ytick_10">
     <g id="line2d_15">
      <g>
       <use xlink:href="#mc1d8cfe053" x="237.759375" y="149.007809" style="stroke: #000000; stroke-width: 0.8"/>
      </g>
     </g>
     <g id="text_16">
      <!-- EEG with multifocal slow activity -->
      <g transform="translate(67.703125 152.807028) scale(0.1 -0.1)">
       <use xlink:href="#DejaVuSans-45"/>
       <use xlink:href="#DejaVuSans-45" transform="translate(63.183594 0)"/>
       <use xlink:href="#DejaVuSans-47" transform="translate(126.367188 0)"/>
       <use xlink:href="#DejaVuSans-20" transform="translate(203.857422 0)"/>
       <use xlink:href="#DejaVuSans-77" transform="translate(235.644531 0)"/>
       <use xlink:href="#DejaVuSans-69" transform="translate(317.431641 0)"/>
       <use xlink:href="#DejaVuSans-74" transform="translate(345.214844 0)"/>
       <use xlink:href="#DejaVuSans-68" transform="translate(384.423828 0)"/>
       <use xlink:href="#DejaVuSans-20" transform="translate(447.802734 0)"/>
       <use xlink:href="#DejaVuSans-6d" transform="translate(479.589844 0)"/>
       <use xlink:href="#DejaVuSans-75" transform="translate(577.001953 0)"/>
       <use xlink:href="#DejaVuSans-6c" transform="translate(640.380859 0)"/>
       <use xlink:href="#DejaVuSans-74" transform="translate(668.164062 0)"/>
       <use xlink:href="#DejaVuSans-69" transform="translate(707.373047 0)"/>
       <use xlink:href="#DejaVuSans-66" transform="translate(735.15625 0)"/>
       <use xlink:href="#DejaVuSans-6f" transform="translate(770.361328 0)"/>
       <use xlink:href="#DejaVuSans-63" transform="translate(831.542969 0)"/>
       <use xlink:href="#DejaVuSans-61" transform="translate(886.523438 0)"/>
       <use xlink:href="#DejaVuSans-6c" transform="translate(947.802734 0)"/>
       <use xlink:href="#DejaVuSans-20" transform="translate(975.585938 0)"/>
       <use xlink:href="#DejaVuSans-73" transform="translate(1007.373047 0)"/>
       <use xlink:href="#DejaVuSans-6c" transform="translate(1059.472656 0)"/>
       <use xlink:href="#DejaVuSans-6f" transform="translate(1087.255859 0)"/>
       <use xlink:href="#DejaVuSans-77" transform="translate(1148.4375 0)"/>
       <use xlink:href="#DejaVuSans-20" transform="translate(1230.224609 0)"/>
       <use xlink:href="#DejaVuSans-61" transform="translate(1262.011719 0)"/>
       <use xlink:href="#DejaVuSans-63" transform="translate(1323.291016 0)"/>
       <use xlink:href="#DejaVuSans-74" transform="translate(1378.271484 0)"/>
       <use xlink:href="#DejaVuSans-69" transform="translate(1417.480469 0)"/>
       <use xlink:href="#DejaVuSans-76" transform="translate(1445.263672 0)"/>
       <use xlink:href="#DejaVuSans-69" transform="translate(1504.443359 0)"/>
       <use xlink:href="#DejaVuSans-74" transform="translate(1532.226562 0)"/>
       <use xlink:href="#DejaVuSans-79" transform="translate(1571.435547 0)"/>
      </g>
     </g>
    </g>
    <g id="ytick_11">
     <g id="line2d_16">
      <g>
       <use xlink:href="#mc1d8cfe053" x="237.759375" y="161.740441" style="stroke: #000000; stroke-width: 0.8"/>
      </g>
     </g>
     <g id="text_17">
      <!-- Abnormal involuntary eye movements -->
      <g transform="translate(38.795312 165.53966) scale(0.1 -0.1)">
       <use xlink:href="#DejaVuSans-41"/>
       <use xlink:href="#DejaVuSans-62" transform="translate(68.408203 0)"/>
       <use xlink:href="#DejaVuSans-6e" transform="translate(131.884766 0)"/>
       <use xlink:href="#DejaVuSans-6f" transform="translate(195.263672 0)"/>
       <use xlink:href="#DejaVuSans-72" transform="translate(256.445312 0)"/>
       <use xlink:href="#DejaVuSans-6d" transform="translate(295.808594 0)"/>
       <use xlink:href="#DejaVuSans-61" transform="translate(393.220703 0)"/>
       <use xlink:href="#DejaVuSans-6c" transform="translate(454.5 0)"/>
       <use xlink:href="#DejaVuSans-20" transform="translate(482.283203 0)"/>
       <use xlink:href="#DejaVuSans-69" transform="translate(514.070312 0)"/>
       <use xlink:href="#DejaVuSans-6e" transform="translate(541.853516 0)"/>
       <use xlink:href="#DejaVuSans-76" transform="translate(605.232422 0)"/>
       <use xlink:href="#DejaVuSans-6f" transform="translate(664.412109 0)"/>
       <use xlink:href="#DejaVuSans-6c" transform="translate(725.59375 0)"/>
       <use xlink:href="#DejaVuSans-75" transform="translate(753.376953 0)"/>
       <use xlink:href="#DejaVuSans-6e" transform="translate(816.755859 0)"/>
       <use xlink:href="#DejaVuSans-74" transform="translate(880.134766 0)"/>
       <use xlink:href="#DejaVuSans-61" transform="translate(919.34375 0)"/>
       <use xlink:href="#DejaVuSans-72" transform="translate(980.623047 0)"/>
       <use xlink:href="#DejaVuSans-79" transform="translate(1021.736328 0)"/>
       <use xlink:href="#DejaVuSans-20" transform="translate(1080.916016 0)"/>
       <use xlink:href="#DejaVuSans-65" transform="translate(1112.703125 0)"/>
       <use xlink:href="#DejaVuSans-79" transform="translate(1174.226562 0)"/>
       <use xlink:href="#DejaVuSans-65" transform="translate(1233.40625 0)"/>
       <use xlink:href="#DejaVuSans-20" transform="translate(1294.929688 0)"/>
       <use xlink:href="#DejaVuSans-6d" transform="translate(1326.716797 0)"/>
       <use xlink:href="#DejaVuSans-6f" transform="translate(1424.128906 0)"/>
       <use xlink:href="#DejaVuSans-76" transform="translate(1485.310547 0)"/>
       <use xlink:href="#DejaVuSans-65" transform="translate(1544.490234 0)"/>
       <use xlink:href="#DejaVuSans-6d" transform="translate(1606.013672 0)"/>
       <use xlink:href="#DejaVuSans-65" transform="translate(1703.425781 0)"/>
       <use xlink:href="#DejaVuSans-6e" transform="translate(1764.949219 0)"/>
       <use xlink:href="#DejaVuSans-74" transform="translate(1828.328125 0)"/>
       <use xlink:href="#DejaVuSans-73" transform="translate(1867.537109 0)"/>
      </g>
     </g>
    </g>
    <g id="ytick_12">
     <g id="line2d_17">
      <g>
       <use xlink:href="#mc1d8cfe053" x="237.759375" y="174.473072" style="stroke: #000000; stroke-width: 0.8"/>
      </g>
     </g>
     <g id="text_18">
      <!-- Abnormality of coordination -->
      <g transform="translate(91.5 178.272291) scale(0.1 -0.1)">
       <use xlink:href="#DejaVuSans-41"/>
       <use xlink:href="#DejaVuSans-62" transform="translate(68.408203 0)"/>
       <use xlink:href="#DejaVuSans-6e" transform="translate(131.884766 0)"/>
       <use xlink:href="#DejaVuSans-6f" transform="translate(195.263672 0)"/>
       <use xlink:href="#DejaVuSans-72" transform="translate(256.445312 0)"/>
       <use xlink:href="#DejaVuSans-6d" transform="translate(295.808594 0)"/>
       <use xlink:href="#DejaVuSans-61" transform="translate(393.220703 0)"/>
       <use xlink:href="#DejaVuSans-6c" transform="translate(454.5 0)"/>
       <use xlink:href="#DejaVuSans-69" transform="translate(482.283203 0)"/>
       <use xlink:href="#DejaVuSans-74" transform="translate(510.066406 0)"/>
       <use xlink:href="#DejaVuSans-79" transform="translate(549.275391 0)"/>
       <use xlink:href="#DejaVuSans-20" transform="translate(608.455078 0)"/>
       <use xlink:href="#DejaVuSans-6f" transform="translate(640.242188 0)"/>
       <use xlink:href="#DejaVuSans-66" transform="translate(701.423828 0)"/>
       <use xlink:href="#DejaVuSans-20" transform="translate(736.628906 0)"/>
       <use xlink:href="#DejaVuSans-63" transform="translate(768.416016 0)"/>
       <use xlink:href="#DejaVuSans-6f" transform="translate(823.396484 0)"/>
       <use xlink:href="#DejaVuSans-6f" transform="translate(884.578125 0)"/>
       <use xlink:href="#DejaVuSans-72" transform="translate(945.759766 0)"/>
       <use xlink:href="#DejaVuSans-64" transform="translate(985.123047 0)"/>
       <use xlink:href="#DejaVuSans-69" transform="translate(1048.599609 0)"/>
       <use xlink:href="#DejaVuSans-6e" transform="translate(1076.382812 0)"/>
       <use xlink:href="#DejaVuSans-61" transform="translate(1139.761719 0)"/>
       <use xlink:href="#DejaVuSans-74" transform="translate(1201.041016 0)"/>
       <use xlink:href="#DejaVuSans-69" transform="translate(1240.25 0)"/>
       <use xlink:href="#DejaVuSans-6f" transform="translate(1268.033203 0)"/>
       <use xlink:href="#DejaVuSans-6e" transform="translate(1329.214844 0)"/>
      </g>
     </g>
    </g>
    <g id="ytick_13">
     <g id="line2d_18">
      <g>
       <use xlink:href="#mc1d8cfe053" x="237.759375" y="187.205704" style="stroke: #000000; stroke-width: 0.8"/>
      </g>
     </g>
     <g id="text_19">
      <!-- Epileptic spasm -->
      <g transform="translate(152.023438 191.004923) scale(0.1 -0.1)">
       <use xlink:href="#DejaVuSans-45"/>
       <use xlink:href="#DejaVuSans-70" transform="translate(63.183594 0)"/>
       <use xlink:href="#DejaVuSans-69" transform="translate(126.660156 0)"/>
       <use xlink:href="#DejaVuSans-6c" transform="translate(154.443359 0)"/>
       <use xlink:href="#DejaVuSans-65" transform="translate(182.226562 0)"/>
       <use xlink:href="#DejaVuSans-70" transform="translate(243.75 0)"/>
       <use xlink:href="#DejaVuSans-74" transform="translate(307.226562 0)"/>
       <use xlink:href="#DejaVuSans-69" transform="translate(346.435547 0)"/>
       <use xlink:href="#DejaVuSans-63" transform="translate(374.21875 0)"/>
       <use xlink:href="#DejaVuSans-20" transform="translate(429.199219 0)"/>
       <use xlink:href="#DejaVuSans-73" transform="translate(460.986328 0)"/>
       <use xlink:href="#DejaVuSans-70" transform="translate(513.085938 0)"/>
       <use xlink:href="#DejaVuSans-61" transform="translate(576.5625 0)"/>
       <use xlink:href="#DejaVuSans-73" transform="translate(637.841797 0)"/>
       <use xlink:href="#DejaVuSans-6d" transform="translate(689.941406 0)"/>
      </g>
     </g>
    </g>
    <g id="ytick_14">
     <g id="line2d_19">
      <g>
       <use xlink:href="#mc1d8cfe053" x="237.759375" y="199.938336" style="stroke: #000000; stroke-width: 0.8"/>
      </g>
     </g>
     <g id="text_20">
      <!-- Multifocal epileptiform discharges -->
      <g transform="translate(61.396875 203.737554) scale(0.1 -0.1)">
       <defs>
        <path id="DejaVuSans-4d" d="M 628 4666 
L 1569 4666 
L 2759 1491 
L 3956 4666 
L 4897 4666 
L 4897 0 
L 4281 0 
L 4281 4097 
L 3078 897 
L 2444 897 
L 1241 4097 
L 1241 0 
L 628 0 
L 628 4666 
z
" transform="scale(0.015625)"/>
       </defs>
       <use xlink:href="#DejaVuSans-4d"/>
       <use xlink:href="#DejaVuSans-75" transform="translate(86.279297 0)"/>
       <use xlink:href="#DejaVuSans-6c" transform="translate(149.658203 0)"/>
       <use xlink:href="#DejaVuSans-74" transform="translate(177.441406 0)"/>
       <use xlink:href="#DejaVuSans-69" transform="translate(216.650391 0)"/>
       <use xlink:href="#DejaVuSans-66" transform="translate(244.433594 0)"/>
       <use xlink:href="#DejaVuSans-6f" transform="translate(279.638672 0)"/>
       <use xlink:href="#DejaVuSans-63" transform="translate(340.820312 0)"/>
       <use xlink:href="#DejaVuSans-61" transform="translate(395.800781 0)"/>
       <use xlink:href="#DejaVuSans-6c" transform="translate(457.080078 0)"/>
       <use xlink:href="#DejaVuSans-20" transform="translate(484.863281 0)"/>
       <use xlink:href="#DejaVuSans-65" transform="translate(516.650391 0)"/>
       <use xlink:href="#DejaVuSans-70" transform="translate(578.173828 0)"/>
       <use xlink:href="#DejaVuSans-69" transform="translate(641.650391 0)"/>
       <use xlink:href="#DejaVuSans-6c" transform="translate(669.433594 0)"/>
       <use xlink:href="#DejaVuSans-65" transform="translate(697.216797 0)"/>
       <use xlink:href="#DejaVuSans-70" transform="translate(758.740234 0)"/>
       <use xlink:href="#DejaVuSans-74" transform="translate(822.216797 0)"/>
       <use xlink:href="#DejaVuSans-69" transform="translate(861.425781 0)"/>
       <use xlink:href="#DejaVuSans-66" transform="translate(889.208984 0)"/>
       <use xlink:href="#DejaVuSans-6f" transform="translate(924.414062 0)"/>
       <use xlink:href="#DejaVuSans-72" transform="translate(985.595703 0)"/>
       <use xlink:href="#DejaVuSans-6d" transform="translate(1024.958984 0)"/>
       <use xlink:href="#DejaVuSans-20" transform="translate(1122.371094 0)"/>
       <use xlink:href="#DejaVuSans-64" transform="translate(1154.158203 0)"/>
       <use xlink:href="#DejaVuSans-69" transform="translate(1217.634766 0)"/>
       <use xlink:href="#DejaVuSans-73" transform="translate(1245.417969 0)"/>
       <use xlink:href="#DejaVuSans-63" transform="translate(1297.517578 0)"/>
       <use xlink:href="#DejaVuSans-68" transform="translate(1352.498047 0)"/>
       <use xlink:href="#DejaVuSans-61" transform="translate(1415.876953 0)"/>
       <use xlink:href="#DejaVuSans-72" transform="translate(1477.15625 0)"/>
       <use xlink:href="#DejaVuSans-67" transform="translate(1516.519531 0)"/>
       <use xlink:href="#DejaVuSans-65" transform="translate(1579.996094 0)"/>
       <use xlink:href="#DejaVuSans-73" transform="translate(1641.519531 0)"/>
      </g>
     </g>
    </g>
    <g id="ytick_15">
     <g id="line2d_20">
      <g>
       <use xlink:href="#mc1d8cfe053" x="237.759375" y="212.670967" style="stroke: #000000; stroke-width: 0.8"/>
      </g>
     </g>
     <g id="text_21">
      <!-- Epileptic encephalopathy -->
      <g transform="translate(104.153125 216.470186) scale(0.1 -0.1)">
       <use xlink:href="#DejaVuSans-45"/>
       <use xlink:href="#DejaVuSans-70" transform="translate(63.183594 0)"/>
       <use xlink:href="#DejaVuSans-69" transform="translate(126.660156 0)"/>
       <use xlink:href="#DejaVuSans-6c" transform="translate(154.443359 0)"/>
       <use xlink:href="#DejaVuSans-65" transform="translate(182.226562 0)"/>
       <use xlink:href="#DejaVuSans-70" transform="translate(243.75 0)"/>
       <use xlink:href="#DejaVuSans-74" transform="translate(307.226562 0)"/>
       <use xlink:href="#DejaVuSans-69" transform="translate(346.435547 0)"/>
       <use xlink:href="#DejaVuSans-63" transform="translate(374.21875 0)"/>
       <use xlink:href="#DejaVuSans-20" transform="translate(429.199219 0)"/>
       <use xlink:href="#DejaVuSans-65" transform="translate(460.986328 0)"/>
       <use xlink:href="#DejaVuSans-6e" transform="translate(522.509766 0)"/>
       <use xlink:href="#DejaVuSans-63" transform="translate(585.888672 0)"/>
       <use xlink:href="#DejaVuSans-65" transform="translate(640.869141 0)"/>
       <use xlink:href="#DejaVuSans-70" transform="translate(702.392578 0)"/>
       <use xlink:href="#DejaVuSans-68" transform="translate(765.869141 0)"/>
       <use xlink:href="#DejaVuSans-61" transform="translate(829.248047 0)"/>
       <use xlink:href="#DejaVuSans-6c" transform="translate(890.527344 0)"/>
       <use xlink:href="#DejaVuSans-6f" transform="translate(918.310547 0)"/>
       <use xlink:href="#DejaVuSans-70" transform="translate(979.492188 0)"/>
       <use xlink:href="#DejaVuSans-61" transform="translate(1042.96875 0)"/>
       <use xlink:href="#DejaVuSans-74" transform="translate(1104.248047 0)"/>
       <use xlink:href="#DejaVuSans-68" transform="translate(1143.457031 0)"/>
       <use xlink:href="#DejaVuSans-79" transform="translate(1206.835938 0)"/>
      </g>
     </g>
    </g>
    <g id="ytick_16">
     <g id="line2d_21">
      <g>
       <use xlink:href="#mc1d8cfe053" x="237.759375" y="225.403599" style="stroke: #000000; stroke-width: 0.8"/>
      </g>
     </g>
     <g id="text_22">
      <!-- Abnormal myelination -->
      <g transform="translate(120.364063 229.202817) scale(0.1 -0.1)">
       <use xlink:href="#DejaVuSans-41"/>
       <use xlink:href="#DejaVuSans-62" transform="translate(68.408203 0)"/>
       <use xlink:href="#DejaVuSans-6e" transform="translate(131.884766 0)"/>
       <use xlink:href="#DejaVuSans-6f" transform="translate(195.263672 0)"/>
       <use xlink:href="#DejaVuSans-72" transform="translate(256.445312 0)"/>
       <use xlink:href="#DejaVuSans-6d" transform="translate(295.808594 0)"/>
       <use xlink:href="#DejaVuSans-61" transform="translate(393.220703 0)"/>
       <use xlink:href="#DejaVuSans-6c" transform="translate(454.5 0)"/>
       <use xlink:href="#DejaVuSans-20" transform="translate(482.283203 0)"/>
       <use xlink:href="#DejaVuSans-6d" transform="translate(514.070312 0)"/>
       <use xlink:href="#DejaVuSans-79" transform="translate(611.482422 0)"/>
       <use xlink:href="#DejaVuSans-65" transform="translate(670.662109 0)"/>
       <use xlink:href="#DejaVuSans-6c" transform="translate(732.185547 0)"/>
       <use xlink:href="#DejaVuSans-69" transform="translate(759.96875 0)"/>
       <use xlink:href="#DejaVuSans-6e" transform="translate(787.751953 0)"/>
       <use xlink:href="#DejaVuSans-61" transform="translate(851.130859 0)"/>
       <use xlink:href="#DejaVuSans-74" transform="translate(912.410156 0)"/>
       <use xlink:href="#DejaVuSans-69" transform="translate(951.619141 0)"/>
       <use xlink:href="#DejaVuSans-6f" transform="translate(979.402344 0)"/>
       <use xlink:href="#DejaVuSans-6e" transform="translate(1040.583984 0)"/>
      </g>
     </g>
    </g>
    <g id="ytick_17">
     <g id="line2d_22">
      <g>
       <use xlink:href="#mc1d8cfe053" x="237.759375" y="238.13623" style="stroke: #000000; stroke-width: 0.8"/>
      </g>
     </g>
     <g id="text_23">
      <!-- Bruxism -->
      <g transform="translate(189.803125 241.935449) scale(0.1 -0.1)">
       <defs>
        <path id="DejaVuSans-42" d="M 1259 2228 
L 1259 519 
L 2272 519 
Q 2781 519 3026 730 
Q 3272 941 3272 1375 
Q 3272 1813 3026 2020 
Q 2781 2228 2272 2228 
L 1259 2228 
z
M 1259 4147 
L 1259 2741 
L 2194 2741 
Q 2656 2741 2882 2914 
Q 3109 3088 3109 3444 
Q 3109 3797 2882 3972 
Q 2656 4147 2194 4147 
L 1259 4147 
z
M 628 4666 
L 2241 4666 
Q 2963 4666 3353 4366 
Q 3744 4066 3744 3513 
Q 3744 3084 3544 2831 
Q 3344 2578 2956 2516 
Q 3422 2416 3680 2098 
Q 3938 1781 3938 1306 
Q 3938 681 3513 340 
Q 3088 0 2303 0 
L 628 0 
L 628 4666 
z
" transform="scale(0.015625)"/>
        <path id="DejaVuSans-78" d="M 3513 3500 
L 2247 1797 
L 3578 0 
L 2900 0 
L 1881 1375 
L 863 0 
L 184 0 
L 1544 1831 
L 300 3500 
L 978 3500 
L 1906 2253 
L 2834 3500 
L 3513 3500 
z
" transform="scale(0.015625)"/>
       </defs>
       <use xlink:href="#DejaVuSans-42"/>
       <use xlink:href="#DejaVuSans-72" transform="translate(68.603516 0)"/>
       <use xlink:href="#DejaVuSans-75" transform="translate(109.716797 0)"/>
       <use xlink:href="#DejaVuSans-78" transform="translate(173.095703 0)"/>
       <use xlink:href="#DejaVuSans-69" transform="translate(232.275391 0)"/>
       <use xlink:href="#DejaVuSans-73" transform="translate(260.058594 0)"/>
       <use xlink:href="#DejaVuSans-6d" transform="translate(312.158203 0)"/>
      </g>
     </g>
    </g>
    <g id="ytick_18">
     <g id="line2d_23">
      <g>
       <use xlink:href="#mc1d8cfe053" x="237.759375" y="250.868862" style="stroke: #000000; stroke-width: 0.8"/>
      </g>
     </g>
     <g id="text_24">
      <!-- Obsessive-compulsive trait -->
      <g transform="translate(95.382812 254.668081) scale(0.1 -0.1)">
       <defs>
        <path id="DejaVuSans-4f" d="M 2522 4238 
Q 1834 4238 1429 3725 
Q 1025 3213 1025 2328 
Q 1025 1447 1429 934 
Q 1834 422 2522 422 
Q 3209 422 3611 934 
Q 4013 1447 4013 2328 
Q 4013 3213 3611 3725 
Q 3209 4238 2522 4238 
z
M 2522 4750 
Q 3503 4750 4090 4092 
Q 4678 3434 4678 2328 
Q 4678 1225 4090 567 
Q 3503 -91 2522 -91 
Q 1538 -91 948 565 
Q 359 1222 359 2328 
Q 359 3434 948 4092 
Q 1538 4750 2522 4750 
z
" transform="scale(0.015625)"/>
        <path id="DejaVuSans-2d" d="M 313 2009 
L 1997 2009 
L 1997 1497 
L 313 1497 
L 313 2009 
z
" transform="scale(0.015625)"/>
       </defs>
       <use xlink:href="#DejaVuSans-4f"/>
       <use xlink:href="#DejaVuSans-62" transform="translate(78.710938 0)"/>
       <use xlink:href="#DejaVuSans-73" transform="translate(142.1875 0)"/>
       <use xlink:href="#DejaVuSans-65" transform="translate(194.287109 0)"/>
       <use xlink:href="#DejaVuSans-73" transform="translate(255.810547 0)"/>
       <use xlink:href="#DejaVuSans-73" transform="translate(307.910156 0)"/>
       <use xlink:href="#DejaVuSans-69" transform="translate(360.009766 0)"/>
       <use xlink:href="#DejaVuSans-76" transform="translate(387.792969 0)"/>
       <use xlink:href="#DejaVuSans-65" transform="translate(446.972656 0)"/>
       <use xlink:href="#DejaVuSans-2d" transform="translate(508.496094 0)"/>
       <use xlink:href="#DejaVuSans-63" transform="translate(544.580078 0)"/>
       <use xlink:href="#DejaVuSans-6f" transform="translate(599.560547 0)"/>
       <use xlink:href="#DejaVuSans-6d" transform="translate(660.742188 0)"/>
       <use xlink:href="#DejaVuSans-70" transform="translate(758.154297 0)"/>
       <use xlink:href="#DejaVuSans-75" transform="translate(821.630859 0)"/>
       <use xlink:href="#DejaVuSans-6c" transform="translate(885.009766 0)"/>
       <use xlink:href="#DejaVuSans-73" transform="translate(912.792969 0)"/>
       <use xlink:href="#DejaVuSans-69" transform="translate(964.892578 0)"/>
       <use xlink:href="#DejaVuSans-76" transform="translate(992.675781 0)"/>
       <use xlink:href="#DejaVuSans-65" transform="translate(1051.855469 0)"/>
       <use xlink:href="#DejaVuSans-20" transform="translate(1113.378906 0)"/>
       <use xlink:href="#DejaVuSans-74" transform="translate(1145.166016 0)"/>
       <use xlink:href="#DejaVuSans-72" transform="translate(1184.375 0)"/>
       <use xlink:href="#DejaVuSans-61" transform="translate(1225.488281 0)"/>
       <use xlink:href="#DejaVuSans-69" transform="translate(1286.767578 0)"/>
       <use xlink:href="#DejaVuSans-74" transform="translate(1314.550781 0)"/>
      </g>
     </g>
    </g>
    <g id="ytick_19">
     <g id="line2d_24">
      <g>
       <use xlink:href="#mc1d8cfe053" x="237.759375" y="263.601493" style="stroke: #000000; stroke-width: 0.8"/>
      </g>
     </g>
     <g id="text_25">
      <!-- Bilateral tonic-clonic seizure with focal onset -->
      <g transform="translate(7.2 267.400712) scale(0.1 -0.1)">
       <use xlink:href="#DejaVuSans-42"/>
       <use xlink:href="#DejaVuSans-69" transform="translate(68.603516 0)"/>
       <use xlink:href="#DejaVuSans-6c" transform="translate(96.386719 0)"/>
       <use xlink:href="#DejaVuSans-61" transform="translate(124.169922 0)"/>
       <use xlink:href="#DejaVuSans-74" transform="translate(185.449219 0)"/>
       <use xlink:href="#DejaVuSans-65" transform="translate(224.658203 0)"/>
       <use xlink:href="#DejaVuSans-72" transform="translate(286.181641 0)"/>
       <use xlink:href="#DejaVuSans-61" transform="translate(327.294922 0)"/>
       <use xlink:href="#DejaVuSans-6c" transform="translate(388.574219 0)"/>
       <use xlink:href="#DejaVuSans-20" transform="translate(416.357422 0)"/>
       <use xlink:href="#DejaVuSans-74" transform="translate(448.144531 0)"/>
       <use xlink:href="#DejaVuSans-6f" transform="translate(487.353516 0)"/>
       <use xlink:href="#DejaVuSans-6e" transform="translate(548.535156 0)"/>
       <use xlink:href="#DejaVuSans-69" transform="translate(611.914062 0)"/>
       <use xlink:href="#DejaVuSans-63" transform="translate(639.697266 0)"/>
       <use xlink:href="#DejaVuSans-2d" transform="translate(694.677734 0)"/>
       <use xlink:href="#DejaVuSans-63" transform="translate(730.761719 0)"/>
       <use xlink:href="#DejaVuSans-6c" transform="translate(785.742188 0)"/>
       <use xlink:href="#DejaVuSans-6f" transform="translate(813.525391 0)"/>
       <use xlink:href="#DejaVuSans-6e" transform="translate(874.707031 0)"/>
       <use xlink:href="#DejaVuSans-69" transform="translate(938.085938 0)"/>
       <use xlink:href="#DejaVuSans-63" transform="translate(965.869141 0)"/>
       <use xlink:href="#DejaVuSans-20" transform="translate(1020.849609 0)"/>
       <use xlink:href="#DejaVuSans-73" transform="translate(1052.636719 0)"/>
       <use xlink:href="#DejaVuSans-65" transform="translate(1104.736328 0)"/>
       <use xlink:href="#DejaVuSans-69" transform="translate(1166.259766 0)"/>
       <use xlink:href="#DejaVuSans-7a" transform="translate(1194.042969 0)"/>
       <use xlink:href="#DejaVuSans-75" transform="translate(1246.533203 0)"/>
       <use xlink:href="#DejaVuSans-72" transform="translate(1309.912109 0)"/>
       <use xlink:href="#DejaVuSans-65" transform="translate(1348.775391 0)"/>
       <use xlink:href="#DejaVuSans-20" transform="translate(1410.298828 0)"/>
       <use xlink:href="#DejaVuSans-77" transform="translate(1442.085938 0)"/>
       <use xlink:href="#DejaVuSans-69" transform="translate(1523.873047 0)"/>
       <use xlink:href="#DejaVuSans-74" transform="translate(1551.65625 0)"/>
       <use xlink:href="#DejaVuSans-68" transform="translate(1590.865234 0)"/>
       <use xlink:href="#DejaVuSans-20" transform="translate(1654.244141 0)"/>
       <use xlink:href="#DejaVuSans-66" transform="translate(1686.03125 0)"/>
       <use xlink:href="#DejaVuSans-6f" transform="translate(1721.236328 0)"/>
       <use xlink:href="#DejaVuSans-63" transform="translate(1782.417969 0)"/>
       <use xlink:href="#DejaVuSans-61" transform="translate(1837.398438 0)"/>
       <use xlink:href="#DejaVuSans-6c" transform="translate(1898.677734 0)"/>
       <use xlink:href="#DejaVuSans-20" transform="translate(1926.460938 0)"/>
       <use xlink:href="#DejaVuSans-6f" transform="translate(1958.248047 0)"/>
       <use xlink:href="#DejaVuSans-6e" transform="translate(2019.429688 0)"/>
       <use xlink:href="#DejaVuSans-73" transform="translate(2082.808594 0)"/>
       <use xlink:href="#DejaVuSans-65" transform="translate(2134.908203 0)"/>
       <use xlink:href="#DejaVuSans-74" transform="translate(2196.431641 0)"/>
      </g>
     </g>
    </g>
    <g id="ytick_20">
     <g id="line2d_25">
      <g>
       <use xlink:href="#mc1d8cfe053" x="237.759375" y="276.334125" style="stroke: #000000; stroke-width: 0.8"/>
      </g>
     </g>
     <g id="text_26">
      <!-- Interictal epileptiform activity -->
      <g transform="translate(82.39375 280.133344) scale(0.1 -0.1)">
       <defs>
        <path id="DejaVuSans-49" d="M 628 4666 
L 1259 4666 
L 1259 0 
L 628 0 
L 628 4666 
z
" transform="scale(0.015625)"/>
       </defs>
       <use xlink:href="#DejaVuSans-49"/>
       <use xlink:href="#DejaVuSans-6e" transform="translate(29.492188 0)"/>
       <use xlink:href="#DejaVuSans-74" transform="translate(92.871094 0)"/>
       <use xlink:href="#DejaVuSans-65" transform="translate(132.080078 0)"/>
       <use xlink:href="#DejaVuSans-72" transform="translate(193.603516 0)"/>
       <use xlink:href="#DejaVuSans-69" transform="translate(234.716797 0)"/>
       <use xlink:href="#DejaVuSans-63" transform="translate(262.5 0)"/>
       <use xlink:href="#DejaVuSans-74" transform="translate(317.480469 0)"/>
       <use xlink:href="#DejaVuSans-61" transform="translate(356.689453 0)"/>
       <use xlink:href="#DejaVuSans-6c" transform="translate(417.96875 0)"/>
       <use xlink:href="#DejaVuSans-20" transform="translate(445.751953 0)"/>
       <use xlink:href="#DejaVuSans-65" transform="translate(477.539062 0)"/>
       <use xlink:href="#DejaVuSans-70" transform="translate(539.0625 0)"/>
       <use xlink:href="#DejaVuSans-69" transform="translate(602.539062 0)"/>
       <use xlink:href="#DejaVuSans-6c" transform="translate(630.322266 0)"/>
       <use xlink:href="#DejaVuSans-65" transform="translate(658.105469 0)"/>
       <use xlink:href="#DejaVuSans-70" transform="translate(719.628906 0)"/>
       <use xlink:href="#DejaVuSans-74" transform="translate(783.105469 0)"/>
       <use xlink:href="#DejaVuSans-69" transform="translate(822.314453 0)"/>
       <use xlink:href="#DejaVuSans-66" transform="translate(850.097656 0)"/>
       <use xlink:href="#DejaVuSans-6f" transform="translate(885.302734 0)"/>
       <use xlink:href="#DejaVuSans-72" transform="translate(946.484375 0)"/>
       <use xlink:href="#DejaVuSans-6d" transform="translate(985.847656 0)"/>
       <use xlink:href="#DejaVuSans-20" transform="translate(1083.259766 0)"/>
       <use xlink:href="#DejaVuSans-61" transform="translate(1115.046875 0)"/>
       <use xlink:href="#DejaVuSans-63" transform="translate(1176.326172 0)"/>
       <use xlink:href="#DejaVuSans-74" transform="translate(1231.306641 0)"/>
       <use xlink:href="#DejaVuSans-69" transform="translate(1270.515625 0)"/>
       <use xlink:href="#DejaVuSans-76" transform="translate(1298.298828 0)"/>
       <use xlink:href="#DejaVuSans-69" transform="translate(1357.478516 0)"/>
       <use xlink:href="#DejaVuSans-74" transform="translate(1385.261719 0)"/>
       <use xlink:href="#DejaVuSans-79" transform="translate(1424.470703 0)"/>
      </g>
     </g>
    </g>
   </g>
   <g id="line2d_26"/>
   <g id="line2d_27"/>
   <g id="line2d_28"/>
   <g id="line2d_29"/>
   <g id="line2d_30"/>
   <g id="line2d_31"/>
   <g id="line2d_32"/>
   <g id="line2d_33"/>
   <g id="line2d_34"/>
   <g id="line2d_35"/>
   <g id="line2d_36"/>
   <g id="patch_3">
    <path d="M 237.759375 288.430125 
L 237.759375 22.318125 
" style="fill: none; stroke: #000000; stroke-width: 0.8; stroke-linejoin: miter; stroke-linecap: square"/>
   </g>
   <g id="patch_4">
    <path d="M 594.879375 288.430125 
L 594.879375 22.318125 
" style="fill: none; stroke: #000000; stroke-width: 0.8; stroke-linejoin: miter; stroke-linecap: square"/>
   </g>
   <g id="patch_5">
    <path d="M 237.759375 288.430125 
L 594.879375 288.430125 
" style="fill: none; stroke: #000000; stroke-width: 0.8; stroke-linejoin: miter; stroke-linecap: square"/>
   </g>
   <g id="patch_6">
    <path d="M 237.759375 22.318125 
L 594.879375 22.318125 
" style="fill: none; stroke: #000000; stroke-width: 0.8; stroke-linejoin: miter; stroke-linecap: square"/>
   </g>
   <g id="text_27">
    <!-- Top 20 Enriched Phenotypes -->
    <g transform="translate(331.393125 16.318125) scale(0.12 -0.12)">
     <defs>
      <path id="DejaVuSans-32" d="M 1228 531 
L 3431 531 
L 3431 0 
L 469 0 
L 469 531 
Q 828 903 1448 1529 
Q 2069 2156 2228 2338 
Q 2531 2678 2651 2914 
Q 2772 3150 2772 3378 
Q 2772 3750 2511 3984 
Q 2250 4219 1831 4219 
Q 1534 4219 1204 4116 
Q 875 4013 500 3803 
L 500 4441 
Q 881 4594 1212 4672 
Q 1544 4750 1819 4750 
Q 2544 4750 2975 4387 
Q 3406 4025 3406 3419 
Q 3406 3131 3298 2873 
Q 3191 2616 2906 2266 
Q 2828 2175 2409 1742 
Q 1991 1309 1228 531 
z
" transform="scale(0.015625)"/>
      <path id="DejaVuSans-50" d="M 1259 4147 
L 1259 2394 
L 2053 2394 
Q 2494 2394 2734 2622 
Q 2975 2850 2975 3272 
Q 2975 3691 2734 3919 
Q 2494 4147 2053 4147 
L 1259 4147 
z
M 628 4666 
L 2053 4666 
Q 2838 4666 3239 4311 
Q 3641 3956 3641 3272 
Q 3641 2581 3239 2228 
Q 2838 1875 2053 1875 
L 1259 1875 
L 1259 0 
L 628 0 
L 628 4666 
z
" transform="scale(0.015625)"/>
     </defs>
     <use xlink:href="#DejaVuSans-54"/>
     <use xlink:href="#DejaVuSans-6f" transform="translate(44.083984 0)"/>
     <use xlink:href="#DejaVuSans-70" transform="translate(105.265625 0)"/>
     <use xlink:href="#DejaVuSans-20" transform="translate(168.742188 0)"/>
     <use xlink:href="#DejaVuSans-32" transform="translate(200.529297 0)"/>
     <use xlink:href="#DejaVuSans-30" transform="translate(264.152344 0)"/>
     <use xlink:href="#DejaVuSans-20" transform="translate(327.775391 0)"/>
     <use xlink:href="#DejaVuSans-45" transform="translate(359.5625 0)"/>
     <use xlink:href="#DejaVuSans-6e" transform="translate(422.746094 0)"/>
     <use xlink:href="#DejaVuSans-72" transform="translate(486.125 0)"/>
     <use xlink:href="#DejaVuSans-69" transform="translate(527.238281 0)"/>
     <use xlink:href="#DejaVuSans-63" transform="translate(555.021484 0)"/>
     <use xlink:href="#DejaVuSans-68" transform="translate(610.001953 0)"/>
     <use xlink:href="#DejaVuSans-65" transform="translate(673.380859 0)"/>
     <use xlink:href="#DejaVuSans-64" transform="translate(734.904297 0)"/>
     <use xlink:href="#DejaVuSans-20" transform="translate(798.380859 0)"/>
     <use xlink:href="#DejaVuSans-50" transform="translate(830.167969 0)"/>
     <use xlink:href="#DejaVuSans-68" transform="translate(890.470703 0)"/>
     <use xlink:href="#DejaVuSans-65" transform="translate(953.849609 0)"/>
     <use xlink:href="#DejaVuSans-6e" transform="translate(1015.373047 0)"/>
     <use xlink:href="#DejaVuSans-6f" transform="translate(1078.751953 0)"/>
     <use xlink:href="#DejaVuSans-74" transform="translate(1139.933594 0)"/>
     <use xlink:href="#DejaVuSans-79" transform="translate(1179.142578 0)"/>
     <use xlink:href="#DejaVuSans-70" transform="translate(1238.322266 0)"/>
     <use xlink:href="#DejaVuSans-65" transform="translate(1301.798828 0)"/>
     <use xlink:href="#DejaVuSans-73" transform="translate(1363.322266 0)"/>
    </g>
   </g>
   <g id="legend_1">
    <g id="patch_7">
     <path d="M 601.879375 191.7775 
L 689.118438 191.7775 
Q 691.118438 191.7775 691.118438 189.7775 
L 691.118438 29.318125 
Q 691.118438 27.318125 689.118438 27.318125 
L 601.879375 27.318125 
Q 599.879375 27.318125 599.879375 29.318125 
L 599.879375 189.7775 
Q 599.879375 191.7775 601.879375 191.7775 
z
" style="fill: #ffffff; opacity: 0.8; stroke: #cccccc; stroke-linejoin: miter"/>
    </g>
    <g id="line2d_37"/>
    <g id="text_28">
     <!-- -log10 FDR -->
     <g transform="translate(631.879375 38.916562) scale(0.1 -0.1)">
      <defs>
       <path id="DejaVuSans-31" d="M 794 531 
L 1825 531 
L 1825 4091 
L 703 3866 
L 703 4441 
L 1819 4666 
L 2450 4666 
L 2450 531 
L 3481 531 
L 3481 0 
L 794 0 
L 794 531 
z
" transform="scale(0.015625)"/>
       <path id="DejaVuSans-44" d="M 1259 4147 
L 1259 519 
L 2022 519 
Q 2988 519 3436 956 
Q 3884 1394 3884 2338 
Q 3884 3275 3436 3711 
Q 2988 4147 2022 4147 
L 1259 4147 
z
M 628 4666 
L 1925 4666 
Q 3281 4666 3915 4102 
Q 4550 3538 4550 2338 
Q 4550 1131 3912 565 
Q 3275 0 1925 0 
L 628 0 
L 628 4666 
z
" transform="scale(0.015625)"/>
      </defs>
      <use xlink:href="#DejaVuSans-2d"/>
      <use xlink:href="#DejaVuSans-6c" transform="translate(36.083984 0)"/>
      <use xlink:href="#DejaVuSans-6f" transform="translate(63.867188 0)"/>
      <use xlink:href="#DejaVuSans-67" transform="translate(125.048828 0)"/>
      <use xlink:href="#DejaVuSans-31" transform="translate(188.525391 0)"/>
      <use xlink:href="#DejaVuSans-30" transform="translate(252.148438 0)"/>
      <use xlink:href="#DejaVuSans-20" transform="translate(315.771484 0)"/>
      <use xlink:href="#DejaVuSans-46" transform="translate(347.558594 0)"/>
      <use xlink:href="#DejaVuSans-44" transform="translate(405.078125 0)"/>
      <use xlink:href="#DejaVuSans-52" transform="translate(482.080078 0)"/>
     </g>
    </g>
    <g id="line2d_38">
     <defs>
      <path id="mb40809a4b7" d="M 0 3 
C 0.795609 3 1.55874 2.683901 2.12132 2.12132 
C 2.683901 1.55874 3 0.795609 3 0 
C 3 -0.795609 2.683901 -1.55874 2.12132 -2.12132 
C 1.55874 -2.683901 0.795609 -3 0 -3 
C -0.795609 -3 -1.55874 -2.683901 -2.12132 -2.12132 
C -2.683901 -1.55874 -3 -0.795609 -3 0 
C -3 0.795609 -2.683901 1.55874 -2.12132 2.12132 
C -1.55874 2.683901 -0.795609 3 0 3 
z
" style="stroke: #ffffff; stroke-width: 0.416747"/>
     </defs>
     <g>
      <use xlink:href="#mb40809a4b7" x="613.879375" y="50.094688" style="fill: #6180e9; stroke: #ffffff; stroke-width: 0.416747"/>
     </g>
    </g>
    <g id="text_29">
     <!-- 6 -->
     <g transform="translate(631.879375 53.594688) scale(0.1 -0.1)">
      <defs>
       <path id="DejaVuSans-36" d="M 2113 2584 
Q 1688 2584 1439 2293 
Q 1191 2003 1191 1497 
Q 1191 994 1439 701 
Q 1688 409 2113 409 
Q 2538 409 2786 701 
Q 3034 994 3034 1497 
Q 3034 2003 2786 2293 
Q 2538 2584 2113 2584 
z
M 3366 4563 
L 3366 3988 
Q 3128 4100 2886 4159 
Q 2644 4219 2406 4219 
Q 1781 4219 1451 3797 
Q 1122 3375 1075 2522 
Q 1259 2794 1537 2939 
Q 1816 3084 2150 3084 
Q 2853 3084 3261 2657 
Q 3669 2231 3669 1497 
Q 3669 778 3244 343 
Q 2819 -91 2113 -91 
Q 1303 -91 875 529 
Q 447 1150 447 2328 
Q 447 3434 972 4092 
Q 1497 4750 2381 4750 
Q 2619 4750 2861 4703 
Q 3103 4656 3366 4563 
z
" transform="scale(0.015625)"/>
      </defs>
      <use xlink:href="#DejaVuSans-36"/>
     </g>
    </g>
    <g id="line2d_39">
     <defs>
      <path id="m1b1db32377" d="M 0 3 
C 0.795609 3 1.55874 2.683901 2.12132 2.12132 
C 2.683901 1.55874 3 0.795609 3 0 
C 3 -0.795609 2.683901 -1.55874 2.12132 -2.12132 
C 1.55874 -2.683901 0.795609 -3 0 -3 
C -0.795609 -3 -1.55874 -2.683901 -2.12132 -2.12132 
C -2.683901 -1.55874 -3 -0.795609 -3 0 
C -3 0.795609 -2.683901 1.55874 -2.12132 2.12132 
C -1.55874 2.683901 -0.795609 3 0 3 
z
" style="stroke: #ffffff; stroke-width: 0.416747"/>
     </defs>
     <g>
      <use xlink:href="#m1b1db32377" x="613.879375" y="64.772812" style="fill: #a5c3fe; stroke: #ffffff; stroke-width: 0.416747"/>
     </g>
    </g>
    <g id="text_30">
     <!-- 9 -->
     <g transform="translate(631.879375 68.272812) scale(0.1 -0.1)">
      <defs>
       <path id="DejaVuSans-39" d="M 703 97 
L 703 672 
Q 941 559 1184 500 
Q 1428 441 1663 441 
Q 2288 441 2617 861 
Q 2947 1281 2994 2138 
Q 2813 1869 2534 1725 
Q 2256 1581 1919 1581 
Q 1219 1581 811 2004 
Q 403 2428 403 3163 
Q 403 3881 828 4315 
Q 1253 4750 1959 4750 
Q 2769 4750 3195 4129 
Q 3622 3509 3622 2328 
Q 3622 1225 3098 567 
Q 2575 -91 1691 -91 
Q 1453 -91 1209 -44 
Q 966 3 703 97 
z
M 1959 2075 
Q 2384 2075 2632 2365 
Q 2881 2656 2881 3163 
Q 2881 3666 2632 3958 
Q 2384 4250 1959 4250 
Q 1534 4250 1286 3958 
Q 1038 3666 1038 3163 
Q 1038 2656 1286 2365 
Q 1534 2075 1959 2075 
z
" transform="scale(0.015625)"/>
      </defs>
      <use xlink:href="#DejaVuSans-39"/>
     </g>
    </g>
    <g id="line2d_40">
     <defs>
      <path id="m18e9944824" d="M 0 3 
C 0.795609 3 1.55874 2.683901 2.12132 2.12132 
C 2.683901 1.55874 3 0.795609 3 0 
C 3 -0.795609 2.683901 -1.55874 2.12132 -2.12132 
C 1.55874 -2.683901 0.795609 -3 0 -3 
C -0.795609 -3 -1.55874 -2.683901 -2.12132 -2.12132 
C -2.683901 -1.55874 -3 -0.795609 -3 0 
C -3 0.795609 -2.683901 1.55874 -2.12132 2.12132 
C -1.55874 2.683901 -0.795609 3 0 3 
z
" style="stroke: #ffffff; stroke-width: 0.416747"/>
     </defs>
     <g>
      <use xlink:href="#m18e9944824" x="613.879375" y="79.450938" style="fill: #dfdbd9; stroke: #ffffff; stroke-width: 0.416747"/>
     </g>
    </g>
    <g id="text_31">
     <!-- 12 -->
     <g transform="translate(631.879375 82.950938) scale(0.1 -0.1)">
      <use xlink:href="#DejaVuSans-31"/>
      <use xlink:href="#DejaVuSans-32" transform="translate(63.623047 0)"/>
     </g>
    </g>
    <g id="line2d_41">
     <defs>
      <path id="m3af2db3d63" d="M 0 3 
C 0.795609 3 1.55874 2.683901 2.12132 2.12132 
C 2.683901 1.55874 3 0.795609 3 0 
C 3 -0.795609 2.683901 -1.55874 2.12132 -2.12132 
C 1.55874 -2.683901 0.795609 -3 0 -3 
C -0.795609 -3 -1.55874 -2.683901 -2.12132 -2.12132 
C -2.683901 -1.55874 -3 -0.795609 -3 0 
C -3 0.795609 -2.683901 1.55874 -2.12132 2.12132 
C -1.55874 2.683901 -0.795609 3 0 3 
z
" style="stroke: #ffffff; stroke-width: 0.416747"/>
     </defs>
     <g>
      <use xlink:href="#m3af2db3d63" x="613.879375" y="94.129063" style="fill: #f7ac8e; stroke: #ffffff; stroke-width: 0.416747"/>
     </g>
    </g>
    <g id="text_32">
     <!-- 15 -->
     <g transform="translate(631.879375 97.629063) scale(0.1 -0.1)">
      <use xlink:href="#DejaVuSans-31"/>
      <use xlink:href="#DejaVuSans-35" transform="translate(63.623047 0)"/>
     </g>
    </g>
    <g id="line2d_42">
     <defs>
      <path id="m932ef6bc4a" d="M 0 3 
C 0.795609 3 1.55874 2.683901 2.12132 2.12132 
C 2.683901 1.55874 3 0.795609 3 0 
C 3 -0.795609 2.683901 -1.55874 2.12132 -2.12132 
C 1.55874 -2.683901 0.795609 -3 0 -3 
C -0.795609 -3 -1.55874 -2.683901 -2.12132 -2.12132 
C -2.683901 -1.55874 -3 -0.795609 -3 0 
C -3 0.795609 -2.683901 1.55874 -2.12132 2.12132 
C -1.55874 2.683901 -0.795609 3 0 3 
z
" style="stroke: #ffffff; stroke-width: 0.416747"/>
     </defs>
     <g>
      <use xlink:href="#m932ef6bc4a" x="613.879375" y="108.807187" style="fill: #d75445; stroke: #ffffff; stroke-width: 0.416747"/>
     </g>
    </g>
    <g id="text_33">
     <!-- 18 -->
     <g transform="translate(631.879375 112.307187) scale(0.1 -0.1)">
      <defs>
       <path id="DejaVuSans-38" d="M 2034 2216 
Q 1584 2216 1326 1975 
Q 1069 1734 1069 1313 
Q 1069 891 1326 650 
Q 1584 409 2034 409 
Q 2484 409 2743 651 
Q 3003 894 3003 1313 
Q 3003 1734 2745 1975 
Q 2488 2216 2034 2216 
z
M 1403 2484 
Q 997 2584 770 2862 
Q 544 3141 544 3541 
Q 544 4100 942 4425 
Q 1341 4750 2034 4750 
Q 2731 4750 3128 4425 
Q 3525 4100 3525 3541 
Q 3525 3141 3298 2862 
Q 3072 2584 2669 2484 
Q 3125 2378 3379 2068 
Q 3634 1759 3634 1313 
Q 3634 634 3220 271 
Q 2806 -91 2034 -91 
Q 1263 -91 848 271 
Q 434 634 434 1313 
Q 434 1759 690 2068 
Q 947 2378 1403 2484 
z
M 1172 3481 
Q 1172 3119 1398 2916 
Q 1625 2713 2034 2713 
Q 2441 2713 2670 2916 
Q 2900 3119 2900 3481 
Q 2900 3844 2670 4047 
Q 2441 4250 2034 4250 
Q 1625 4250 1398 4047 
Q 1172 3844 1172 3481 
z
" transform="scale(0.015625)"/>
      </defs>
      <use xlink:href="#DejaVuSans-31"/>
      <use xlink:href="#DejaVuSans-38" transform="translate(63.623047 0)"/>
     </g>
    </g>
    <g id="line2d_43"/>
    <g id="text_34">
     <!-- Gene Ratio -->
     <g transform="translate(631.879375 126.985313) scale(0.1 -0.1)">
      <use xlink:href="#DejaVuSans-47"/>
      <use xlink:href="#DejaVuSans-65" transform="translate(77.490234 0)"/>
      <use xlink:href="#DejaVuSans-6e" transform="translate(139.013672 0)"/>
      <use xlink:href="#DejaVuSans-65" transform="translate(202.392578 0)"/>
      <use xlink:href="#DejaVuSans-20" transform="translate(263.916016 0)"/>
      <use xlink:href="#DejaVuSans-52" transform="translate(295.703125 0)"/>
      <use xlink:href="#DejaVuSans-61" transform="translate(362.935547 0)"/>
      <use xlink:href="#DejaVuSans-74" transform="translate(424.214844 0)"/>
      <use xlink:href="#DejaVuSans-69" transform="translate(463.423828 0)"/>
      <use xlink:href="#DejaVuSans-6f" transform="translate(491.207031 0)"/>
     </g>
    </g>
    <g id="line2d_44">
     <defs>
      <path id="m5a51686d3d" d="M 0 3.31053 
C 0.877963 3.31053 1.720085 2.961712 2.340898 2.340898 
C 2.961712 1.720085 3.31053 0.877963 3.31053 0 
C 3.31053 -0.877963 2.961712 -1.720085 2.340898 -2.340898 
C 1.720085 -2.961712 0.877963 -3.31053 0 -3.31053 
C -0.877963 -3.31053 -1.720085 -2.961712 -2.340898 -2.340898 
C -2.961712 -1.720085 -3.31053 -0.877963 -3.31053 0 
C -3.31053 0.877963 -2.961712 1.720085 -2.340898 2.340898 
C -1.720085 2.961712 -0.877963 3.31053 0 3.31053 
z
" style="stroke: #ffffff; stroke-width: 0.416747"/>
     </defs>
     <g>
      <use xlink:href="#m5a51686d3d" x="613.879375" y="138.163437" style="fill: #333333; stroke: #ffffff; stroke-width: 0.416747"/>
     </g>
    </g>
    <g id="text_35">
     <!-- 0.008 -->
     <g transform="translate(631.879375 141.663437) scale(0.1 -0.1)">
      <use xlink:href="#DejaVuSans-30"/>
      <use xlink:href="#DejaVuSans-2e" transform="translate(63.623047 0)"/>
      <use xlink:href="#DejaVuSans-30" transform="translate(95.410156 0)"/>
      <use xlink:href="#DejaVuSans-30" transform="translate(159.033203 0)"/>
      <use xlink:href="#DejaVuSans-38" transform="translate(222.65625 0)"/>
     </g>
    </g>
    <g id="line2d_45">
     <defs>
      <path id="me5d9dff9db" d="M 0 4.21461 
C 1.117728 4.21461 2.189827 3.770532 2.98018 2.98018 
C 3.770532 2.189827 4.21461 1.117728 4.21461 0 
C 4.21461 -1.117728 3.770532 -2.189827 2.98018 -2.98018 
C 2.189827 -3.770532 1.117728 -4.21461 0 -4.21461 
C -1.117728 -4.21461 -2.189827 -3.770532 -2.98018 -2.98018 
C -3.770532 -2.189827 -4.21461 -1.117728 -4.21461 0 
C -4.21461 1.117728 -3.770532 2.189827 -2.98018 2.98018 
C -2.189827 3.770532 -1.117728 4.21461 0 4.21461 
z
" style="stroke: #ffffff; stroke-width: 0.416747"/>
     </defs>
     <g>
      <use xlink:href="#me5d9dff9db" x="613.879375" y="152.841563" style="fill: #333333; stroke: #ffffff; stroke-width: 0.416747"/>
     </g>
    </g>
    <g id="text_36">
     <!-- 0.012 -->
     <g transform="translate(631.879375 156.341563) scale(0.1 -0.1)">
      <use xlink:href="#DejaVuSans-30"/>
      <use xlink:href="#DejaVuSans-2e" transform="translate(63.623047 0)"/>
      <use xlink:href="#DejaVuSans-30" transform="translate(95.410156 0)"/>
      <use xlink:href="#DejaVuSans-31" transform="translate(159.033203 0)"/>
      <use xlink:href="#DejaVuSans-32" transform="translate(222.65625 0)"/>
     </g>
    </g>
    <g id="line2d_46">
     <defs>
      <path id="m25b3e1677a" d="M 0 4.956438 
C 1.314463 4.956438 2.575265 4.434196 3.504731 3.504731 
C 4.434196 2.575265 4.956438 1.314463 4.956438 0 
C 4.956438 -1.314463 4.434196 -2.575265 3.504731 -3.504731 
C 2.575265 -4.434196 1.314463 -4.956438 0 -4.956438 
C -1.314463 -4.956438 -2.575265 -4.434196 -3.504731 -3.504731 
C -4.434196 -2.575265 -4.956438 -1.314463 -4.956438 0 
C -4.956438 1.314463 -4.434196 2.575265 -3.504731 3.504731 
C -2.575265 4.434196 -1.314463 4.956438 0 4.956438 
z
" style="stroke: #ffffff; stroke-width: 0.416747"/>
     </defs>
     <g>
      <use xlink:href="#m25b3e1677a" x="613.879375" y="167.519687" style="fill: #333333; stroke: #ffffff; stroke-width: 0.416747"/>
     </g>
    </g>
    <g id="text_37">
     <!-- 0.016 -->
     <g transform="translate(631.879375 171.019687) scale(0.1 -0.1)">
      <use xlink:href="#DejaVuSans-30"/>
      <use xlink:href="#DejaVuSans-2e" transform="translate(63.623047 0)"/>
      <use xlink:href="#DejaVuSans-30" transform="translate(95.410156 0)"/>
      <use xlink:href="#DejaVuSans-31" transform="translate(159.033203 0)"/>
      <use xlink:href="#DejaVuSans-36" transform="translate(222.65625 0)"/>
     </g>
    </g>
    <g id="line2d_47">
     <defs>
      <path id="m03ec99cb46" d="M 0 5.600858 
C 1.485365 5.600858 2.910093 5.010716 3.960405 3.960405 
C 5.010716 2.910093 5.600858 1.485365 5.600858 0 
C 5.600858 -1.485365 5.010716 -2.910093 3.960405 -3.960405 
C 2.910093 -5.010716 1.485365 -5.600858 0 -5.600858 
C -1.485365 -5.600858 -2.910093 -5.010716 -3.960405 -3.960405 
C -5.010716 -2.910093 -5.600858 -1.485365 -5.600858 0 
C -5.600858 1.485365 -5.010716 2.910093 -3.960405 3.960405 
C -2.910093 5.010716 -1.485365 5.600858 0 5.600858 
z
" style="stroke: #ffffff; stroke-width: 0.416747"/>
     </defs>
     <g>
      <use xlink:href="#m03ec99cb46" x="613.879375" y="182.197812" style="fill: #333333; stroke: #ffffff; stroke-width: 0.416747"/>
     </g>
    </g>
    <g id="text_38">
     <!-- 0.020 -->
     <g transform="translate(631.879375 185.697812) scale(0.1 -0.1)">
      <use xlink:href="#DejaVuSans-30"/>
      <use xlink:href="#DejaVuSans-2e" transform="translate(63.623047 0)"/>
      <use xlink:href="#DejaVuSans-30" transform="translate(95.410156 0)"/>
      <use xlink:href="#DejaVuSans-32" transform="translate(159.033203 0)"/>
      <use xlink:href="#DejaVuSans-30" transform="translate(222.65625 0)"/>
     </g>
    </g>
   </g>
  </g>
 </g>
 <defs>
  <clipPath id="pf476298345">
   <rect x="237.759375" y="22.318125" width="357.12" height="266.112"/>
  </clipPath>
 </defs>
</svg>
